{
  "title" : "",
  "description" : "",
  "author" : "",
  "targetLoudness" : -18.0,
  "shouldApplyLoudnessNormalization" : false,
  "videoFormatFrameRate" : 30,
  "audioFormatSampleRate" : 44100,
  "width" : 2560.0,
  "height" : 1440.0,
  "version" : "3.0",
  "editRate" : 30,
  "authoringClientName" :  {
    "name" : "Camtasia",
    "platform" : "Windows",
    "version" : "19.0"
  },
  "sourceBin" : [
    {
      "id" : 1,
      "src" : "C:\\hijacking_is_not_an_option_raw\\hijacking_ntfs_structs\\hijacking_ntfs_structs_attack_prevention.trec",
      "rect" : [0, 0, 2560, 1440],
      "lastMod" : "20200224T122927",
      "sourceTracks" : [
        {
          "range" : [0, 7033],
          "type" : 0,
          "editRate" : 30,
          "trackRect" : [0, 0, 2560, 1440],
          "sampleRate" : 28,
          "bitDepth" : 0,
          "numChannels" : 0,
          "integratedLUFS" : 100.0,
          "peakLevel" : -1.0,
          "metaData" : "2b7b6a00-7a1f-11e2-83d0-0017f200be7f;2b7b6aef-7a1f-11e2-83d0-0017f200be7f;2b7b6af0-7a1f-11e2-83d0-0017f200be7f;2b7b6af1-7a1f-11e2-83d0-0017f200be7f;2b7b6af2-7a1f-11e2-83d0-0017f200be7f;2b7b6af3-7a1f-11e2-83d0-0017f200be7f;2b7b6af5-7a1f-11e2-83d0-0017f200be7f;2b7b6af6-7a1f-11e2-83d0-0017f200be7f;2b7b6af7-7a1f-11e2-83d0-0017f200be7f;2b7b6af8-7a1f-11e2-83d0-0017f200be7f;2b7b6af9-7a1f-11e2-83d0-0017f200be7f;2b7b6afa-7a1f-11e2-83d0-0017f200be7f;"
        }
      ],
      "metadata" : {
        "timeAdded" : "20200614T162502.558095"
      }
    },
    {
      "id" : 2,
      "src" : "K:\\Dropbox\\_Pubs&Confs\\20\\Kernel-Hijacking-Is-Not-an-Option\\video-demos\\_sounds\\Henry Jackman, Matthew Margeson - Rescuing Harry.mp3",
      "rect" : [0, 0, 0, 0],
      "lastMod" : "20181121T204035",
      "sourceTracks" : [
        {
          "range" : [0, 1050382500],
          "type" : 2,
          "editRate" : 10000000,
          "trackRect" : [0, 0, 0, 0],
          "sampleRate" : 44100,
          "bitDepth" : 0,
          "numChannels" : 2,
          "integratedLUFS" : -13.0967857406684,
          "peakLevel" : 1.06144344806671,
          "metaData" : ""
        }
      ],
      "metadata" : {
        "timeAdded" : "20200706T142056.714477"
      }
    },
    {
      "id" : 3,
      "src" : "K:\\Dropbox\\_Pubs&Confs\\20\\Kernel-Hijacking-Is-Not-an-Option\\video-demos\\_sounds\\Neizvesten+Saundtrek+k+fil+mu+RODINA+ZhDET+NEVYPOLNIMOE+ZAD_muzlishko.ru_.mp3",
      "rect" : [0, 0, 0, 0],
      "lastMod" : "20181120T102825",
      "sourceTracks" : [
        {
          "range" : [0, 1697400000],
          "type" : 2,
          "editRate" : 10000000,
          "trackRect" : [0, 0, 0, 0],
          "sampleRate" : 32000,
          "bitDepth" : 0,
          "numChannels" : 2,
          "integratedLUFS" : -10.3265153700026,
          "peakLevel" : 1.12320291996002,
          "metaData" : ""
        }
      ],
      "metadata" : {
        "timeAdded" : "20200706T142056.730221"
      }
    },
    {
      "id" : 4,
      "src" : "C:\\Users\\igork\\Documents\\Camtasia\\Rec 07-06-20_002.trec",
      "rect" : [0, 0, 2560, 1440],
      "lastMod" : "20200706T144746",
      "sourceTracks" : [
        {
          "range" : [0, 164],
          "type" : 0,
          "editRate" : 1,
          "trackRect" : [0, 0, 2560, 1440],
          "sampleRate" : 1,
          "bitDepth" : 0,
          "numChannels" : 0,
          "integratedLUFS" : 100.0,
          "peakLevel" : -1.0,
          "metaData" : "2b7b6a00-7a1f-11e2-83d0-0017f200be7f;2b7b6aef-7a1f-11e2-83d0-0017f200be7f;2b7b6af0-7a1f-11e2-83d0-0017f200be7f;2b7b6af1-7a1f-11e2-83d0-0017f200be7f;2b7b6af2-7a1f-11e2-83d0-0017f200be7f;2b7b6af3-7a1f-11e2-83d0-0017f200be7f;2b7b6af5-7a1f-11e2-83d0-0017f200be7f;2b7b6af6-7a1f-11e2-83d0-0017f200be7f;2b7b6af7-7a1f-11e2-83d0-0017f200be7f;2b7b6af8-7a1f-11e2-83d0-0017f200be7f;2b7b6af9-7a1f-11e2-83d0-0017f200be7f;2b7b6afa-7a1f-11e2-83d0-0017f200be7f;"
        },
        {
          "range" : [0, 7212032],
          "type" : 2,
          "editRate" : 44100,
          "trackRect" : [0, 0, 0, 0],
          "sampleRate" : 44100,
          "bitDepth" : 16,
          "numChannels" : 2,
          "integratedLUFS" : -16.3383456785118,
          "peakLevel" : 1.0,
          "metaData" : ""
        }
      ],
      "metadata" : {
        "timeAdded" : "20200706T144746.655391"
      }
    },
    {
      "id" : 5,
      "src" : "C:\\Users\\igork\\Documents\\Camtasia\\Rec 07-06-20_003.trec",
      "rect" : [0, 0, 2560, 1440],
      "lastMod" : "20200706T144946",
      "sourceTracks" : [
        {
          "range" : [0, 15],
          "type" : 0,
          "editRate" : 1,
          "trackRect" : [0, 0, 2560, 1440],
          "sampleRate" : 1,
          "bitDepth" : 0,
          "numChannels" : 0,
          "integratedLUFS" : 100.0,
          "peakLevel" : -1.0,
          "metaData" : "2b7b6a00-7a1f-11e2-83d0-0017f200be7f;2b7b6aef-7a1f-11e2-83d0-0017f200be7f;2b7b6af0-7a1f-11e2-83d0-0017f200be7f;2b7b6af1-7a1f-11e2-83d0-0017f200be7f;2b7b6af2-7a1f-11e2-83d0-0017f200be7f;2b7b6af3-7a1f-11e2-83d0-0017f200be7f;2b7b6af5-7a1f-11e2-83d0-0017f200be7f;2b7b6af6-7a1f-11e2-83d0-0017f200be7f;2b7b6af7-7a1f-11e2-83d0-0017f200be7f;2b7b6af8-7a1f-11e2-83d0-0017f200be7f;2b7b6af9-7a1f-11e2-83d0-0017f200be7f;2b7b6afa-7a1f-11e2-83d0-0017f200be7f;"
        },
        {
          "range" : [0, 641024],
          "type" : 2,
          "editRate" : 44100,
          "trackRect" : [0, 0, 0, 0],
          "sampleRate" : 44100,
          "bitDepth" : 16,
          "numChannels" : 2,
          "integratedLUFS" : -15.8083249043587,
          "peakLevel" : 1.0,
          "metaData" : ""
        }
      ],
      "metadata" : {
        "timeAdded" : "20200706T144946.671288"
      }
    },
    {
      "id" : 6,
      "src" : "K:\\Dropbox\\_Pubs&Confs\\20\\Kernel-Hijacking-Is-Not-an-Option\\Kernel Hijacking-Is-Not-an-Option - picts\\znayka - for demos\\happy\\happy_with_sleeves.png",
      "rect" : [0, 0, 429, 371],
      "lastMod" : "20200712T112708",
      "sourceTracks" : [
        {
          "range" : [0, 1],
          "type" : 1,
          "editRate" : 10000000,
          "trackRect" : [0, 0, 429, 371],
          "sampleRate" : 0,
          "bitDepth" : 32,
          "numChannels" : 0,
          "integratedLUFS" : 100.0,
          "peakLevel" : -1.0,
          "metaData" : ""
        }
      ],
      "metadata" : {
        "timeAdded" : "20200712T215356.548595"
      }
    },
    {
      "id" : 7,
      "src" : "K:\\Dropbox\\_Pubs&Confs\\20\\Kernel-Hijacking-Is-Not-an-Option\\Kernel Hijacking-Is-Not-an-Option - picts\\znayka - for demos\\new_idea\\4 new_idea_half_nobackground_mirror.png",
      "rect" : [0, 0, 509, 511],
      "lastMod" : "20200711T155043",
      "sourceTracks" : [
        {
          "range" : [0, 1],
          "type" : 1,
          "editRate" : 10000000,
          "trackRect" : [0, 0, 509, 511],
          "sampleRate" : 0,
          "bitDepth" : 32,
          "numChannels" : 0,
          "integratedLUFS" : 100.0,
          "peakLevel" : -1.0,
          "metaData" : ""
        }
      ],
      "metadata" : {
        "timeAdded" : "20200712T215412.554162"
      }
    },
    {
      "id" : 8,
      "src" : "K:\\Dropbox\\_Pubs&Confs\\20\\Kernel-Hijacking-Is-Not-an-Option\\Kernel Hijacking-Is-Not-an-Option - picts\\znayka - for demos\\pirat\\256.png",
      "rect" : [0, 0, 256, 256],
      "lastMod" : "20190311T095112",
      "sourceTracks" : [
        {
          "range" : [0, 1],
          "type" : 1,
          "editRate" : 10000000,
          "trackRect" : [0, 0, 256, 256],
          "sampleRate" : 0,
          "bitDepth" : 32,
          "numChannels" : 0,
          "integratedLUFS" : 100.0,
          "peakLevel" : -1.0,
          "metaData" : ""
        }
      ],
      "metadata" : {
        "timeAdded" : "20200712T215420.625683"
      }
    },
    {
      "id" : 9,
      "src" : "K:\\Dropbox\\_Pubs&Confs\\20\\Kernel-Hijacking-Is-Not-an-Option\\Kernel Hijacking-Is-Not-an-Option - picts\\znayka - for demos\\ranger\\memoryranger_without_gun_transparent_cropped.png",
      "rect" : [0, 0, 738, 634],
      "lastMod" : "20200711T151211",
      "sourceTracks" : [
        {
          "range" : [0, 1],
          "type" : 1,
          "editRate" : 10000000,
          "trackRect" : [0, 0, 738, 634],
          "sampleRate" : 0,
          "bitDepth" : 32,
          "numChannels" : 0,
          "integratedLUFS" : 100.0,
          "peakLevel" : -1.0,
          "metaData" : ""
        }
      ],
      "metadata" : {
        "timeAdded" : "20200712T215429.503742"
      }
    },
    {
      "id" : 10,
      "src" : "C:\\Users\\igork\\Documents\\Camtasia\\Rec 07-13-20.trec",
      "rect" : [0, 0, 2560, 1440],
      "lastMod" : "20200713T084435",
      "sourceTracks" : [
        {
          "range" : [0, 148],
          "type" : 0,
          "editRate" : 1,
          "trackRect" : [0, 0, 2560, 1440],
          "sampleRate" : 1,
          "bitDepth" : 0,
          "numChannels" : 0,
          "integratedLUFS" : 100.0,
          "peakLevel" : -1.0,
          "metaData" : "2b7b6a00-7a1f-11e2-83d0-0017f200be7f;2b7b6aef-7a1f-11e2-83d0-0017f200be7f;2b7b6af0-7a1f-11e2-83d0-0017f200be7f;2b7b6af1-7a1f-11e2-83d0-0017f200be7f;2b7b6af2-7a1f-11e2-83d0-0017f200be7f;2b7b6af3-7a1f-11e2-83d0-0017f200be7f;2b7b6af5-7a1f-11e2-83d0-0017f200be7f;2b7b6af6-7a1f-11e2-83d0-0017f200be7f;2b7b6af7-7a1f-11e2-83d0-0017f200be7f;2b7b6af8-7a1f-11e2-83d0-0017f200be7f;2b7b6af9-7a1f-11e2-83d0-0017f200be7f;2b7b6afa-7a1f-11e2-83d0-0017f200be7f;"
        },
        {
          "range" : [0, 6506496],
          "type" : 2,
          "editRate" : 44100,
          "trackRect" : [0, 0, 0, 0],
          "sampleRate" : 44100,
          "bitDepth" : 16,
          "numChannels" : 2,
          "integratedLUFS" : -20.6485103809333,
          "peakLevel" : 0.985137939453125,
          "metaData" : ""
        }
      ],
      "metadata" : {
        "timeAdded" : "20200713T084436.000913"
      }
    },
    {
      "id" : 11,
      "src" : "C:\\Users\\igork\\Documents\\Camtasia\\Rec 07-13-20_001.trec",
      "rect" : [0, 0, 2560, 1440],
      "lastMod" : "20200713T085356",
      "sourceTracks" : [
        {
          "range" : [0, 14],
          "type" : 0,
          "editRate" : 1,
          "trackRect" : [0, 0, 2560, 1440],
          "sampleRate" : 1,
          "bitDepth" : 0,
          "numChannels" : 0,
          "integratedLUFS" : 100.0,
          "peakLevel" : -1.0,
          "metaData" : "2b7b6a00-7a1f-11e2-83d0-0017f200be7f;2b7b6aef-7a1f-11e2-83d0-0017f200be7f;2b7b6af0-7a1f-11e2-83d0-0017f200be7f;2b7b6af1-7a1f-11e2-83d0-0017f200be7f;2b7b6af2-7a1f-11e2-83d0-0017f200be7f;2b7b6af3-7a1f-11e2-83d0-0017f200be7f;2b7b6af5-7a1f-11e2-83d0-0017f200be7f;2b7b6af6-7a1f-11e2-83d0-0017f200be7f;2b7b6af7-7a1f-11e2-83d0-0017f200be7f;2b7b6af8-7a1f-11e2-83d0-0017f200be7f;2b7b6af9-7a1f-11e2-83d0-0017f200be7f;2b7b6afa-7a1f-11e2-83d0-0017f200be7f;"
        },
        {
          "range" : [0, 596992],
          "type" : 2,
          "editRate" : 44100,
          "trackRect" : [0, 0, 0, 0],
          "sampleRate" : 44100,
          "bitDepth" : 16,
          "numChannels" : 2,
          "integratedLUFS" : -25.7250445460249,
          "peakLevel" : 0.5555419921875,
          "metaData" : ""
        }
      ],
      "metadata" : {
        "timeAdded" : "20200713T085357.359237"
      }
    },
    {
      "id" : 12,
      "src" : "C:\\Users\\igork\\Documents\\Camtasia\\Rec 07-13-20_002.trec",
      "rect" : [0, 0, 2560, 1440],
      "lastMod" : "20200713T090056",
      "sourceTracks" : [
        {
          "range" : [0, 10],
          "type" : 0,
          "editRate" : 1,
          "trackRect" : [0, 0, 2560, 1440],
          "sampleRate" : 1,
          "bitDepth" : 0,
          "numChannels" : 0,
          "integratedLUFS" : 100.0,
          "peakLevel" : -1.0,
          "metaData" : "2b7b6a00-7a1f-11e2-83d0-0017f200be7f;2b7b6aef-7a1f-11e2-83d0-0017f200be7f;2b7b6af0-7a1f-11e2-83d0-0017f200be7f;2b7b6af1-7a1f-11e2-83d0-0017f200be7f;2b7b6af2-7a1f-11e2-83d0-0017f200be7f;2b7b6af3-7a1f-11e2-83d0-0017f200be7f;2b7b6af5-7a1f-11e2-83d0-0017f200be7f;2b7b6af6-7a1f-11e2-83d0-0017f200be7f;2b7b6af7-7a1f-11e2-83d0-0017f200be7f;2b7b6af8-7a1f-11e2-83d0-0017f200be7f;2b7b6af9-7a1f-11e2-83d0-0017f200be7f;2b7b6afa-7a1f-11e2-83d0-0017f200be7f;"
        },
        {
          "range" : [0, 398336],
          "type" : 2,
          "editRate" : 44100,
          "trackRect" : [0, 0, 0, 0],
          "sampleRate" : 44100,
          "bitDepth" : 16,
          "numChannels" : 2,
          "integratedLUFS" : -27.603735016072,
          "peakLevel" : 0.312103271484375,
          "metaData" : ""
        }
      ],
      "metadata" : {
        "timeAdded" : "20200713T090057.124047"
      }
    },
    {
      "id" : 13,
      "src" : "C:\\Users\\igork\\Documents\\Camtasia\\Rec 07-13-20_003.trec",
      "rect" : [0, 0, 2560, 1440],
      "lastMod" : "20200713T173321",
      "sourceTracks" : [
        {
          "range" : [0, 12],
          "type" : 0,
          "editRate" : 1,
          "trackRect" : [0, 0, 2560, 1440],
          "sampleRate" : 1,
          "bitDepth" : 0,
          "numChannels" : 0,
          "integratedLUFS" : 100.0,
          "peakLevel" : -1.0,
          "metaData" : "2b7b6a00-7a1f-11e2-83d0-0017f200be7f;2b7b6aef-7a1f-11e2-83d0-0017f200be7f;2b7b6af0-7a1f-11e2-83d0-0017f200be7f;2b7b6af1-7a1f-11e2-83d0-0017f200be7f;2b7b6af2-7a1f-11e2-83d0-0017f200be7f;2b7b6af3-7a1f-11e2-83d0-0017f200be7f;2b7b6af5-7a1f-11e2-83d0-0017f200be7f;2b7b6af6-7a1f-11e2-83d0-0017f200be7f;2b7b6af7-7a1f-11e2-83d0-0017f200be7f;2b7b6af8-7a1f-11e2-83d0-0017f200be7f;2b7b6af9-7a1f-11e2-83d0-0017f200be7f;2b7b6afa-7a1f-11e2-83d0-0017f200be7f;"
        },
        {
          "range" : [0, 486400],
          "type" : 2,
          "editRate" : 44100,
          "trackRect" : [0, 0, 0, 0],
          "sampleRate" : 44100,
          "bitDepth" : 16,
          "numChannels" : 2,
          "integratedLUFS" : -15.0445351209228,
          "peakLevel" : 1.0,
          "metaData" : ""
        }
      ],
      "metadata" : {
        "timeAdded" : "20200713T173321.600590"
      }
    },
    {
      "id" : 14,
      "src" : "C:\\Users\\igork\\Documents\\Camtasia\\Rec 07-13-20_004.trec",
      "rect" : [0, 0, 2560, 1440],
      "lastMod" : "20200713T173816",
      "sourceTracks" : [
        {
          "range" : [0, 26],
          "type" : 0,
          "editRate" : 1,
          "trackRect" : [0, 0, 2560, 1440],
          "sampleRate" : 1,
          "bitDepth" : 0,
          "numChannels" : 0,
          "integratedLUFS" : 100.0,
          "peakLevel" : -1.0,
          "metaData" : "2b7b6a00-7a1f-11e2-83d0-0017f200be7f;2b7b6aef-7a1f-11e2-83d0-0017f200be7f;2b7b6af0-7a1f-11e2-83d0-0017f200be7f;2b7b6af1-7a1f-11e2-83d0-0017f200be7f;2b7b6af2-7a1f-11e2-83d0-0017f200be7f;2b7b6af3-7a1f-11e2-83d0-0017f200be7f;2b7b6af5-7a1f-11e2-83d0-0017f200be7f;2b7b6af6-7a1f-11e2-83d0-0017f200be7f;2b7b6af7-7a1f-11e2-83d0-0017f200be7f;2b7b6af8-7a1f-11e2-83d0-0017f200be7f;2b7b6af9-7a1f-11e2-83d0-0017f200be7f;2b7b6afa-7a1f-11e2-83d0-0017f200be7f;"
        },
        {
          "range" : [0, 1103872],
          "type" : 2,
          "editRate" : 44100,
          "trackRect" : [0, 0, 0, 0],
          "sampleRate" : 44100,
          "bitDepth" : 16,
          "numChannels" : 2,
          "integratedLUFS" : -14.891108187672,
          "peakLevel" : 1.0,
          "metaData" : ""
        }
      ],
      "metadata" : {
        "timeAdded" : "20200713T173817.456605"
      }
    },
    {
      "id" : 15,
      "src" : "C:\\Users\\igork\\Documents\\Camtasia\\Rec 07-23-20.trec",
      "rect" : [0, 0, 2560, 1440],
      "lastMod" : "20200723T103058",
      "sourceTracks" : [
        {
          "range" : [0, 11],
          "type" : 0,
          "editRate" : 1,
          "trackRect" : [0, 0, 2560, 1440],
          "sampleRate" : 1,
          "bitDepth" : 0,
          "numChannels" : 0,
          "integratedLUFS" : 100.0,
          "peakLevel" : -1.0,
          "metaData" : "2b7b6a00-7a1f-11e2-83d0-0017f200be7f;2b7b6aef-7a1f-11e2-83d0-0017f200be7f;2b7b6af0-7a1f-11e2-83d0-0017f200be7f;2b7b6af1-7a1f-11e2-83d0-0017f200be7f;2b7b6af2-7a1f-11e2-83d0-0017f200be7f;2b7b6af3-7a1f-11e2-83d0-0017f200be7f;2b7b6af5-7a1f-11e2-83d0-0017f200be7f;2b7b6af6-7a1f-11e2-83d0-0017f200be7f;2b7b6af7-7a1f-11e2-83d0-0017f200be7f;2b7b6af8-7a1f-11e2-83d0-0017f200be7f;2b7b6af9-7a1f-11e2-83d0-0017f200be7f;2b7b6afa-7a1f-11e2-83d0-0017f200be7f;"
        },
        {
          "range" : [0, 442368],
          "type" : 2,
          "editRate" : 44100,
          "trackRect" : [0, 0, 0, 0],
          "sampleRate" : 44100,
          "bitDepth" : 16,
          "numChannels" : 2,
          "integratedLUFS" : -18.0227655055739,
          "peakLevel" : 0.798675537109375,
          "metaData" : ""
        }
      ],
      "metadata" : {
        "timeAdded" : "20200723T112721.085645"
      }
    }
  ],
  "timeline" : {
    "id" : 16,
    "sceneTrack" : {
      "scenes" : [
        {
          "duration" : 134.966666666667,
          "title" : "",
          "type" : "",
          "csml" : {
            "tracks" : [
              {
                "trackIndex" : 0,
                "medias" : [
                  {
                    "id" : 17,
                    "_type" : "AMFile",
                    "src" : 3,
                    "trackNumber" : 0,
                    "attributes" : {
                      "ident" : "Neizvesten+Saundtrek+k+fil+mu+RODINA+ZhDET+NEVYPOLNIMOE+ZAD_muzlishko.ru_",
                      "gain" : 1.0,
                      "mixToMono" : false
                    },
                      "channelNumber" : "0,1",
                    "effects" : [

                    ],
                    "start" : 0,
                    "duration" : 159,
                    "mediaStart" : 123,
                    "mediaDuration" : 159,
                    "scalar" : 1,
                    "metadata" : {
                      "clipSpeedAttribute" : false
                    },
                    "animationTracks" : {

                    }
                  },
                  {
                    "id" : 18,
                    "_type" : "AMFile",
                    "src" : 10,
                    "trackNumber" : 1,
                    "attributes" : {
                      "ident" : "Rec 07-13-20",
                      "gain" : 1.0,
                      "mixToMono" : false
                    },
                      "channelNumber" : "0,1",
                    "parameters" : {
                      "volume" : 1.73469387755104
                    },
                    "effects" : [

                    ],
                    "start" : 188,
                    "duration" : 100,
                    "mediaStart" : 384,
                    "mediaDuration" : 100,
                    "scalar" : 1,
                    "metadata" : {
                      "clipSpeedAttribute" : false
                    },
                    "animationTracks" : {

                    }
                  },
                  {
                    "id" : 19,
                    "_type" : "AMFile",
                    "src" : 10,
                    "trackNumber" : 1,
                    "attributes" : {
                      "ident" : "Rec 07-13-20",
                      "gain" : 1.0,
                      "mixToMono" : false
                    },
                      "channelNumber" : "0,1",
                    "parameters" : {
                      "volume" : 1.73469387755104
                    },
                    "effects" : [

                    ],
                    "start" : 369,
                    "duration" : 97,
                    "mediaStart" : 626,
                    "mediaDuration" : 97,
                    "scalar" : 1,
                    "metadata" : {
                      "clipSpeedAttribute" : false
                    },
                    "animationTracks" : {

                    }
                  },
                  {
                    "id" : 20,
                    "_type" : "AMFile",
                    "src" : 10,
                    "trackNumber" : 1,
                    "attributes" : {
                      "ident" : "Rec 07-13-20",
                      "gain" : 1.0,
                      "mixToMono" : false
                    },
                      "channelNumber" : "0,1",
                    "parameters" : {
                      "volume" : 1.73469387755104
                    },
                    "effects" : [

                    ],
                    "start" : 478,
                    "duration" : 68,
                    "mediaStart" : 750,
                    "mediaDuration" : 68,
                    "scalar" : 1,
                    "metadata" : {
                      "clipSpeedAttribute" : false
                    },
                    "animationTracks" : {

                    }
                  },
                  {
                    "id" : 21,
                    "_type" : "AMFile",
                    "src" : 15,
                    "trackNumber" : 1,
                    "attributes" : {
                      "ident" : "Rec 07-23-20",
                      "gain" : 1.0,
                      "mixToMono" : false
                    },
                      "channelNumber" : "0,1",
                    "parameters" : {
                      "volume" : 1.50145772594753
                    },
                    "effects" : [

                    ],
                    "start" : 702,
                    "duration" : 76,
                    "mediaStart" : 193,
                    "mediaDuration" : 76,
                    "scalar" : 1,
                    "metadata" : {
                      "clipSpeedAttribute" : false
                    },
                    "animationTracks" : {

                    }
                  },
                  {
                    "id" : 22,
                    "_type" : "AMFile",
                    "src" : 10,
                    "trackNumber" : 1,
                    "attributes" : {
                      "ident" : "Rec 07-13-20",
                      "gain" : 1.0,
                      "mixToMono" : false
                    },
                      "channelNumber" : "0,1",
                    "parameters" : {
                      "volume" : 1.73469387755104
                    },
                    "effects" : [

                    ],
                    "start" : 858,
                    "duration" : 59,
                    "mediaStart" : 1269,
                    "mediaDuration" : 59,
                    "scalar" : 1,
                    "metadata" : {
                      "clipSpeedAttribute" : false
                    },
                    "animationTracks" : {

                    }
                  },
                  {
                    "id" : 23,
                    "_type" : "AMFile",
                    "src" : 10,
                    "trackNumber" : 1,
                    "attributes" : {
                      "ident" : "Rec 07-13-20",
                      "gain" : 1.0,
                      "mixToMono" : false
                    },
                      "channelNumber" : "0,1",
                    "parameters" : {
                      "volume" : 1.73469387755104
                    },
                    "effects" : [

                    ],
                    "start" : 944,
                    "duration" : 140,
                    "mediaStart" : 1372,
                    "mediaDuration" : 140,
                    "scalar" : 1,
                    "metadata" : {
                      "clipSpeedAttribute" : false
                    },
                    "animationTracks" : {

                    }
                  },
                  {
                    "id" : 24,
                    "_type" : "AMFile",
                    "src" : 12,
                    "trackNumber" : 1,
                    "attributes" : {
                      "ident" : "Rec 07-13-20_002",
                      "gain" : 1.0,
                      "mixToMono" : false
                    },
                      "channelNumber" : "0,1",
                    "parameters" : {
                      "volume" : 2.90087463556853
                    },
                    "effects" : [

                    ],
                    "start" : 1085,
                    "duration" : 176,
                    "mediaStart" : 52,
                    "mediaDuration" : 176,
                    "scalar" : 1,
                    "metadata" : {
                      "clipSpeedAttribute" : false
                    },
                    "animationTracks" : {

                    }
                  },
                  {
                    "id" : 25,
                    "_type" : "AMFile",
                    "src" : 11,
                    "trackNumber" : 1,
                    "attributes" : {
                      "ident" : "Rec 07-13-20_001",
                      "gain" : 1.0,
                      "mixToMono" : false
                    },
                      "channelNumber" : "0,1",
                    "parameters" : {
                      "volume" : 1.85131195335279
                    },
                    "effects" : [

                    ],
                    "start" : 1265,
                    "duration" : 89,
                    "mediaStart" : 304,
                    "mediaDuration" : 89,
                    "scalar" : 1,
                    "metadata" : {
                      "clipSpeedAttribute" : false
                    },
                    "animationTracks" : {

                    }
                  },
                  {
                    "id" : 26,
                    "_type" : "AMFile",
                    "src" : 10,
                    "trackNumber" : 1,
                    "attributes" : {
                      "ident" : "Rec 07-13-20",
                      "gain" : 1.0,
                      "mixToMono" : false
                    },
                      "channelNumber" : "0,1",
                    "parameters" : {
                      "volume" : 1.73469387755104
                    },
                    "effects" : [

                    ],
                    "start" : 1360,
                    "duration" : 289,
                    "mediaStart" : 1773,
                    "mediaDuration" : 289,
                    "scalar" : 1,
                    "metadata" : {
                      "clipSpeedAttribute" : false
                    },
                    "animationTracks" : {

                    }
                  },
                  {
                    "id" : 27,
                    "_type" : "AMFile",
                    "src" : 13,
                    "trackNumber" : 1,
                    "attributes" : {
                      "ident" : "Rec 07-13-20_003",
                      "gain" : 1.0,
                      "mixToMono" : false
                    },
                      "channelNumber" : "0,1",
                    "parameters" : {
                      "volume" : 1.03498542274052
                    },
                    "effects" : [

                    ],
                    "start" : 1650,
                    "duration" : 107,
                    "mediaStart" : 102,
                    "mediaDuration" : 107,
                    "scalar" : 1,
                    "metadata" : {
                      "clipSpeedAttribute" : false
                    },
                    "animationTracks" : {

                    }
                  },
                  {
                    "id" : 28,
                    "_type" : "AMFile",
                    "src" : 10,
                    "trackNumber" : 1,
                    "attributes" : {
                      "ident" : "Rec 07-13-20",
                      "gain" : 1.0,
                      "mixToMono" : false
                    },
                      "channelNumber" : "0,1",
                    "parameters" : {
                      "volume" : 1.73469387755104
                    },
                    "effects" : [

                    ],
                    "start" : 1772,
                    "duration" : 287,
                    "mediaStart" : 2170,
                    "mediaDuration" : 287,
                    "scalar" : 1,
                    "metadata" : {
                      "clipSpeedAttribute" : false
                    },
                    "animationTracks" : {

                    }
                  },
                  {
                    "id" : 29,
                    "_type" : "AMFile",
                    "src" : 14,
                    "trackNumber" : 1,
                    "attributes" : {
                      "ident" : "Rec 07-13-20_004",
                      "gain" : 1.0,
                      "mixToMono" : false
                    },
                      "channelNumber" : "0,1",
                    "effects" : [

                    ],
                    "start" : 2126,
                    "duration" : 199,
                    "mediaStart" : 93,
                    "mediaDuration" : 199,
                    "scalar" : 1,
                    "metadata" : {
                      "clipSpeedAttribute" : false
                    },
                    "animationTracks" : {

                    }
                  },
                  {
                    "id" : 30,
                    "_type" : "AMFile",
                    "src" : 10,
                    "trackNumber" : 1,
                    "attributes" : {
                      "ident" : "Rec 07-13-20",
                      "gain" : 1.0,
                      "mixToMono" : false
                    },
                      "channelNumber" : "0,1",
                    "parameters" : {
                      "volume" : 1.73469387755104
                    },
                    "effects" : [

                    ],
                    "start" : 2334,
                    "duration" : 448,
                    "mediaStart" : 2747,
                    "mediaDuration" : 448,
                    "scalar" : 1,
                    "metadata" : {
                      "clipSpeedAttribute" : false
                    },
                    "animationTracks" : {

                    }
                  },
                  {
                    "id" : 31,
                    "_type" : "AMFile",
                    "src" : 10,
                    "trackNumber" : 1,
                    "attributes" : {
                      "ident" : "Rec 07-13-20",
                      "gain" : 1.0,
                      "mixToMono" : false
                    },
                      "channelNumber" : "0,1",
                    "parameters" : {
                      "volume" : 1.73469387755104
                    },
                    "effects" : [

                    ],
                    "start" : 2906,
                    "duration" : 177,
                    "mediaStart" : 3270,
                    "mediaDuration" : 177,
                    "scalar" : 1,
                    "metadata" : {
                      "clipSpeedAttribute" : false
                    },
                    "animationTracks" : {

                    }
                  },
                  {
                    "id" : 32,
                    "_type" : "AMFile",
                    "src" : 10,
                    "trackNumber" : 1,
                    "attributes" : {
                      "ident" : "Rec 07-13-20",
                      "gain" : 1.0,
                      "mixToMono" : false
                    },
                      "channelNumber" : "0,1",
                    "parameters" : {
                      "volume" : 1.73469387755104
                    },
                    "effects" : [

                    ],
                    "start" : 3083,
                    "duration" : 110,
                    "mediaStart" : 3492,
                    "mediaDuration" : 110,
                    "scalar" : 1,
                    "metadata" : {
                      "clipSpeedAttribute" : false
                    },
                    "animationTracks" : {

                    }
                  },
                  {
                    "id" : 33,
                    "_type" : "AMFile",
                    "src" : 10,
                    "trackNumber" : 1,
                    "attributes" : {
                      "ident" : "Rec 07-13-20",
                      "gain" : 1.0,
                      "mixToMono" : false
                    },
                      "channelNumber" : "0,1",
                    "parameters" : {
                      "volume" : 1.73469387755104
                    },
                    "effects" : [

                    ],
                    "start" : 3474,
                    "duration" : 234,
                    "mediaStart" : 3955,
                    "mediaDuration" : 234,
                    "scalar" : 1,
                    "metadata" : {
                      "clipSpeedAttribute" : false
                    },
                    "animationTracks" : {

                    }
                  },
                  {
                    "id" : 34,
                    "_type" : "AMFile",
                    "src" : 10,
                    "trackNumber" : 1,
                    "attributes" : {
                      "ident" : "Rec 07-13-20",
                      "gain" : 1.0,
                      "mixToMono" : false
                    },
                      "channelNumber" : "0,1",
                    "parameters" : {
                      "volume" : 1.73469387755104
                    },
                    "effects" : [

                    ],
                    "start" : 3777,
                    "duration" : 97,
                    "mediaStart" : 4211,
                    "mediaDuration" : 97,
                    "scalar" : 1,
                    "metadata" : {
                      "clipSpeedAttribute" : false
                    },
                    "animationTracks" : {

                    }
                  }
                ]
              },
              {
                "trackIndex" : 1,
                "medias" : [
                  {
                    "id" : 35,
                    "_type" : "AMFile",
                    "src" : 5,
                    "trackNumber" : 1,
                    "attributes" : {
                      "ident" : "Rec 07-06-20_003",
                      "gain" : 1.0,
                      "mixToMono" : false
                    },
                      "channelNumber" : "0,1",
                    "effects" : [

                    ],
                    "start" : 188,
                    "duration" : 112,
                    "mediaStart" : 278,
                    "mediaDuration" : 112,
                    "scalar" : 1,
                    "metadata" : {
                      "clipSpeedAttribute" : false
                    },
                    "animationTracks" : {

                    }
                  },
                  {
                    "id" : 36,
                    "_type" : "AMFile",
                    "src" : 4,
                    "trackNumber" : 1,
                    "attributes" : {
                      "ident" : "Rec 07-06-20_002",
                      "gain" : 1.0,
                      "mixToMono" : false
                    },
                      "channelNumber" : "0,1",
                    "parameters" : {
                      "volume" : 1.73469387755104
                    },
                    "effects" : [

                    ],
                    "start" : 369,
                    "duration" : 91,
                    "mediaStart" : 455,
                    "mediaDuration" : 91,
                    "scalar" : 1,
                    "metadata" : {
                      "clipSpeedAttribute" : false
                    },
                    "animationTracks" : {

                    }
                  },
                  {
                    "id" : 37,
                    "_type" : "AMFile",
                    "src" : 4,
                    "trackNumber" : 1,
                    "attributes" : {
                      "ident" : "Rec 07-06-20_002",
                      "gain" : 1.0,
                      "mixToMono" : false
                    },
                      "channelNumber" : "0,1",
                    "parameters" : {
                      "volume" : 1.73469387755104
                    },
                    "effects" : [

                    ],
                    "start" : 479,
                    "duration" : 67,
                    "mediaStart" : 565,
                    "mediaDuration" : 67,
                    "scalar" : 1,
                    "metadata" : {
                      "clipSpeedAttribute" : false
                    },
                    "animationTracks" : {

                    }
                  },
                  {
                    "id" : 38,
                    "_type" : "AMFile",
                    "src" : 4,
                    "trackNumber" : 1,
                    "attributes" : {
                      "ident" : "Rec 07-06-20_002",
                      "gain" : 1.0,
                      "mixToMono" : false
                    },
                      "channelNumber" : "0,1",
                    "parameters" : {
                      "volume" : 1.73469387755104
                    },
                    "effects" : [

                    ],
                    "start" : 705,
                    "duration" : 55,
                    "mediaStart" : 754,
                    "mediaDuration" : 55,
                    "scalar" : 1,
                    "metadata" : {
                      "clipSpeedAttribute" : false
                    },
                    "animationTracks" : {

                    }
                  },
                  {
                    "id" : 39,
                    "_type" : "AMFile",
                    "src" : 4,
                    "trackNumber" : 1,
                    "attributes" : {
                      "ident" : "Rec 07-06-20_002",
                      "gain" : 1.0,
                      "mixToMono" : false
                    },
                      "channelNumber" : "0,1",
                    "parameters" : {
                      "volume" : 1.73469387755104
                    },
                    "effects" : [

                    ],
                    "start" : 858,
                    "duration" : 66,
                    "mediaStart" : 907,
                    "mediaDuration" : 66,
                    "scalar" : 1,
                    "metadata" : {
                      "clipSpeedAttribute" : false
                    },
                    "animationTracks" : {

                    }
                  },
                  {
                    "id" : 40,
                    "_type" : "AMFile",
                    "src" : 4,
                    "trackNumber" : 1,
                    "attributes" : {
                      "ident" : "Rec 07-06-20_002",
                      "gain" : 1.0,
                      "mixToMono" : false
                    },
                      "channelNumber" : "0,1",
                    "parameters" : {
                      "volume" : 1.73469387755104
                    },
                    "effects" : [

                    ],
                    "start" : 974,
                    "duration" : 155,
                    "mediaStart" : 1023,
                    "mediaDuration" : 155,
                    "scalar" : 1,
                    "metadata" : {
                      "clipSpeedAttribute" : false
                    },
                    "animationTracks" : {

                    }
                  },
                  {
                    "id" : 41,
                    "_type" : "AMFile",
                    "src" : 4,
                    "trackNumber" : 1,
                    "attributes" : {
                      "ident" : "Rec 07-06-20_002",
                      "gain" : 1.0,
                      "mixToMono" : false
                    },
                      "channelNumber" : "0,1",
                    "parameters" : {
                      "volume" : 1.73469387755104
                    },
                    "effects" : [

                    ],
                    "start" : 1129,
                    "duration" : 217,
                    "mediaStart" : 1330,
                    "mediaDuration" : 217,
                    "scalar" : 1,
                    "metadata" : {
                      "clipSpeedAttribute" : false
                    },
                    "animationTracks" : {

                    }
                  },
                  {
                    "id" : 42,
                    "_type" : "AMFile",
                    "src" : 4,
                    "trackNumber" : 1,
                    "attributes" : {
                      "ident" : "Rec 07-06-20_002",
                      "gain" : 1.0,
                      "mixToMono" : false
                    },
                      "channelNumber" : "0,1",
                    "parameters" : {
                      "volume" : 1.73469387755104
                    },
                    "effects" : [

                    ],
                    "start" : 1346,
                    "duration" : 101,
                    "mediaStart" : 1591,
                    "mediaDuration" : 101,
                    "scalar" : 1,
                    "metadata" : {
                      "clipSpeedAttribute" : false
                    },
                    "animationTracks" : {

                    }
                  },
                  {
                    "id" : 43,
                    "_type" : "AMFile",
                    "src" : 4,
                    "trackNumber" : 1,
                    "attributes" : {
                      "ident" : "Rec 07-06-20_002",
                      "gain" : 1.0,
                      "mixToMono" : false
                    },
                      "channelNumber" : "0,1",
                    "parameters" : {
                      "volume" : 1.73469387755104
                    },
                    "effects" : [

                    ],
                    "start" : 1487,
                    "duration" : 277,
                    "mediaStart" : 1829,
                    "mediaDuration" : 277,
                    "scalar" : 1,
                    "metadata" : {
                      "clipSpeedAttribute" : false
                    },
                    "animationTracks" : {

                    }
                  },
                  {
                    "id" : 44,
                    "_type" : "AMFile",
                    "src" : 4,
                    "trackNumber" : 1,
                    "attributes" : {
                      "ident" : "Rec 07-06-20_002",
                      "gain" : 1.0,
                      "mixToMono" : false
                    },
                      "channelNumber" : "0,1",
                    "parameters" : {
                      "volume" : 1.73469387755104
                    },
                    "effects" : [

                    ],
                    "start" : 1772,
                    "duration" : 284,
                    "mediaStart" : 2157,
                    "mediaDuration" : 284,
                    "scalar" : 1,
                    "metadata" : {
                      "clipSpeedAttribute" : false
                    },
                    "animationTracks" : {

                    }
                  },
                  {
                    "id" : 45,
                    "_type" : "AMFile",
                    "src" : 4,
                    "trackNumber" : 1,
                    "attributes" : {
                      "ident" : "Rec 07-06-20_002",
                      "gain" : 1.0,
                      "mixToMono" : false
                    },
                      "channelNumber" : "0,1",
                    "parameters" : {
                      "volume" : 1.73469387755104
                    },
                    "effects" : [

                    ],
                    "start" : 2160,
                    "duration" : 173,
                    "mediaStart" : 2693,
                    "mediaDuration" : 173,
                    "scalar" : 1,
                    "metadata" : {
                      "clipSpeedAttribute" : false
                    },
                    "animationTracks" : {

                    }
                  },
                  {
                    "id" : 46,
                    "_type" : "AMFile",
                    "src" : 4,
                    "trackNumber" : 1,
                    "attributes" : {
                      "ident" : "Rec 07-06-20_002",
                      "gain" : 1.0,
                      "mixToMono" : false
                    },
                      "channelNumber" : "0,1",
                    "parameters" : {
                      "volume" : 1.73469387755104
                    },
                    "effects" : [

                    ],
                    "start" : 2341,
                    "duration" : 74,
                    "mediaStart" : 2962,
                    "mediaDuration" : 74,
                    "scalar" : 1,
                    "metadata" : {
                      "clipSpeedAttribute" : false
                    },
                    "animationTracks" : {

                    }
                  },
                  {
                    "id" : 47,
                    "_type" : "AMFile",
                    "src" : 4,
                    "trackNumber" : 1,
                    "attributes" : {
                      "ident" : "Rec 07-06-20_002",
                      "gain" : 1.0,
                      "mixToMono" : false
                    },
                      "channelNumber" : "0,1",
                    "parameters" : {
                      "volume" : 1.73469387755104
                    },
                    "effects" : [

                    ],
                    "start" : 2424,
                    "duration" : 54,
                    "mediaStart" : 3082,
                    "mediaDuration" : 54,
                    "scalar" : 1,
                    "metadata" : {
                      "clipSpeedAttribute" : false
                    },
                    "animationTracks" : {

                    }
                  },
                  {
                    "id" : 48,
                    "_type" : "AMFile",
                    "src" : 4,
                    "trackNumber" : 1,
                    "attributes" : {
                      "ident" : "Rec 07-06-20_002",
                      "gain" : 1.0,
                      "mixToMono" : false
                    },
                      "channelNumber" : "0,1",
                    "parameters" : {
                      "volume" : 1.73469387755104
                    },
                    "effects" : [

                    ],
                    "start" : 2489,
                    "duration" : 89,
                    "mediaStart" : 3173,
                    "mediaDuration" : 89,
                    "scalar" : 1,
                    "metadata" : {
                      "clipSpeedAttribute" : false
                    },
                    "animationTracks" : {

                    }
                  },
                  {
                    "id" : 49,
                    "_type" : "AMFile",
                    "src" : 4,
                    "trackNumber" : 1,
                    "attributes" : {
                      "ident" : "Rec 07-06-20_002",
                      "gain" : 1.0,
                      "mixToMono" : false
                    },
                      "channelNumber" : "0,1",
                    "parameters" : {
                      "volume" : 1.73469387755104
                    },
                    "effects" : [

                    ],
                    "start" : 2622,
                    "duration" : 164,
                    "mediaStart" : 3375,
                    "mediaDuration" : 164,
                    "scalar" : 1,
                    "metadata" : {
                      "clipSpeedAttribute" : false
                    },
                    "animationTracks" : {

                    }
                  },
                  {
                    "id" : 50,
                    "_type" : "AMFile",
                    "src" : 4,
                    "trackNumber" : 1,
                    "attributes" : {
                      "ident" : "Rec 07-06-20_002",
                      "gain" : 1.0,
                      "mixToMono" : false
                    },
                      "channelNumber" : "0,1",
                    "parameters" : {
                      "volume" : 1.73469387755104
                    },
                    "effects" : [

                    ],
                    "start" : 2900,
                    "duration" : 175,
                    "mediaStart" : 3676,
                    "mediaDuration" : 175,
                    "scalar" : 1,
                    "metadata" : {
                      "clipSpeedAttribute" : false
                    },
                    "animationTracks" : {

                    }
                  },
                  {
                    "id" : 51,
                    "_type" : "AMFile",
                    "src" : 4,
                    "trackNumber" : 1,
                    "attributes" : {
                      "ident" : "Rec 07-06-20_002",
                      "gain" : 1.0,
                      "mixToMono" : false
                    },
                      "channelNumber" : "0,1",
                    "parameters" : {
                      "volume" : 1.73469387755104
                    },
                    "effects" : [

                    ],
                    "start" : 3091,
                    "duration" : 150,
                    "mediaStart" : 3872,
                    "mediaDuration" : 150,
                    "scalar" : 1,
                    "metadata" : {
                      "clipSpeedAttribute" : false
                    },
                    "animationTracks" : {

                    }
                  },
                  {
                    "id" : 52,
                    "_type" : "AMFile",
                    "src" : 4,
                    "trackNumber" : 1,
                    "attributes" : {
                      "ident" : "Rec 07-06-20_002",
                      "gain" : 1.0,
                      "mixToMono" : false
                    },
                      "channelNumber" : "0,1",
                    "parameters" : {
                      "volume" : 1.73469387755104
                    },
                    "effects" : [

                    ],
                    "start" : 3474,
                    "duration" : 263,
                    "mediaStart" : 4491,
                    "mediaDuration" : 263,
                    "scalar" : 1,
                    "metadata" : {
                      "clipSpeedAttribute" : false
                    },
                    "animationTracks" : {

                    }
                  },
                  {
                    "id" : 53,
                    "_type" : "AMFile",
                    "src" : 4,
                    "trackNumber" : 1,
                    "attributes" : {
                      "ident" : "Rec 07-06-20_002",
                      "gain" : 1.0,
                      "mixToMono" : false
                    },
                      "channelNumber" : "0,1",
                    "parameters" : {
                      "volume" : 1.73469387755104
                    },
                    "effects" : [

                    ],
                    "start" : 3779,
                    "duration" : 113,
                    "mediaStart" : 4773,
                    "mediaDuration" : 113,
                    "scalar" : 1,
                    "metadata" : {
                      "clipSpeedAttribute" : false
                    },
                    "animationTracks" : {

                    }
                  }
                ]
              },
              {
                "trackIndex" : 2,
                "medias" : [
                  {
                    "id" : 54,
                    "_type" : "Callout",
                    "def" : {
                      "kind" : "remix",
                      "shape" : "text",
                      "style" : "basic",
                      "height" : 378.0,
                      "line-spacing" : 0.0,
                      "width" : 2560.00000000029,
                      "word-wrap" : 1.0,
                      "horizontal-alignment" : "center",
                      "resize-behavior" : "resizeText",
                      "text" : "THE PREVENTION OF \rHIJACKING NTFS STRUCTURES ",
                      "vertical-alignment" : "center",
                      "font" : {
                        "color-blue" : 1.0,
                        "color-green" : 1.0,
                        "color-red" : 1.0,
                        "size" : 96.0,
                        "tracking" : 0.0,
                        "name" : "Montserrat",
                        "weight" : "Regular"
                      },
                      "textAttributes" : {
                        "type" : "textAttributeList",
                        "keyframes" : [
                          {
                            "endTime" : 0,
                            "time" : 0,
                            "value" : [{"name":"fontItalic","rangeEnd":45,"rangeStart":0,"value":0,"valueType":"int"},{"name":"strikethrough","rangeEnd":45,"rangeStart":0,"value":0,"valueType":"int"},{"name":"fontSize","rangeEnd":45,"rangeStart":0,"value":161,"valueType":"double"},{"name":"fontWeight","rangeEnd":45,"rangeStart":0,"value":400,"valueType":"int"},{"name":"fontName","rangeEnd":45,"rangeStart":0,"value":"Rockwell","valueType":"string"},{"name":"kerning","rangeEnd":45,"rangeStart":0,"value":0,"valueType":"double"},{"name":"underline","rangeEnd":45,"rangeStart":0,"value":0,"valueType":"int"},{"name":"fgColor","rangeEnd":45,"rangeStart":0,"value":"(255,255,255,255)","valueType":"color"}],
                            "duration" : 0
                          }
                        ]
                      }
                    },
                    "attributes" : {
                      "autoRotateText" : true
                    },
                    "parameters" : {
                      "translation0" : 4.2703618419182e-11,
                      "translation1" : 75.9999999998762
                    },
                    "effects" : [
                        {
                          "effectName" : "DropShadow",
                          "category" : "categoryVisualEffects",
                          "parameters" : {
                            "angle" : 5.49778714378214,
                            "blur" : 10.0,
                            "color-alpha" : 1.0,
                            "color-blue" : 0.1216,
                            "color-green" : 0.1216,
                            "color-red" : 0.1216,
                            "enabled" : 1,
                            "offset" : 10.0,
                            "opacity" : 0.4
                          }
                        }
                    ],
                    "start" : 0,
                    "duration" : 150,
                    "mediaStart" : 0,
                    "mediaDuration" : 150,
                    "scalar" : 1,
                    "metadata" : {
                      "WinSubProjectDisplayName" : "",
                      "clipSpeedAttribute" : false,
                      "default-HAlign" : "center",
                      "default-LineSpace" : 0.0,
                      "default-VAlign" : "center",
                      "default-text-attributes" : "[{\"name\":\"underline\",\"rangeEnd\":16,\"rangeStart\":0,\"value\":0,\"valueType\":\"int\"},{\"name\":\"strikethrough\",\"rangeEnd\":16,\"rangeStart\":0,\"value\":0,\"valueType\":\"int\"},{\"name\":\"fontWeight\",\"rangeEnd\":16,\"rangeStart\":0,\"value\":400,\"valueType\":\"int\"},{\"name\":\"fontSize\",\"rangeEnd\":16,\"rangeStart\":0,\"value\":96,\"valueType\":\"double\"},{\"name\":\"fontName\",\"rangeEnd\":16,\"rangeStart\":0,\"value\":\"Montserrat\",\"valueType\":\"string\"},{\"name\":\"fgColor\",\"rangeEnd\":16,\"rangeStart\":0,\"value\":\"(255,255,255,255)\",\"valueType\":\"color\"},{\"name\":\"fontItalic\",\"rangeEnd\":16,\"rangeStart\":0,\"value\":0,\"valueType\":\"int\"}]",
                      "default-translation0" : 0.0,
                      "default-translation1" : 0.0
                    },
                    "animationTracks" : {

                    }
                  },
                  {
                    "id" : 55,
                    "_type" : "ScreenVMFile",
                    "src" : 1,
                    "trackNumber" : 0,
                    "attributes" : {
                      "ident" : "hijacking_ntfs_structs_attack_prevention"
                    },
                    "parameters" : {
                      "cursorScale" : {
                        "type" : "double",
                        "defaultValue" : 1.0,
                        "interp" : "linr"
                      },
                      "cursorOpacity" : {
                        "type" : "double",
                        "defaultValue" : 1.0,
                        "interp" : "linr"
                      }
                    },
                    "effects" : [
                        {
                          "effectName" : "CursorHilight",
                          "category" : "categoryCursorEffects",
                          "parameters" : {
                            "blur" : 0.1,
                            "color-alpha" : 0.75,
                            "color-blue" : 0.0,
                            "color-green" : 1.0,
                            "color-red" : 1.0,
                            "radius" : 50.0
                          }
                        }
                    ],
                    "start" : 150,
                    "duration" : 87,
                    "mediaStart" : 33,
                    "mediaDuration" : 131,
                    "scalar" : "87/131",
                    "metadata" : {
                      "AutoAppliedSmartFocus" : "False",
                      "clipSpeedAttribute" : true
                    },
                    "animationTracks" : {

                    }
                  },
                  {
                    "id" : 56,
                    "_type" : "ScreenVMFile",
                    "src" : 1,
                    "trackNumber" : 0,
                    "attributes" : {
                      "ident" : "hijacking_ntfs_structs_attack_prevention"
                    },
                    "parameters" : {
                      "cursorScale" : {
                        "type" : "double",
                        "defaultValue" : 1.0,
                        "interp" : "linr"
                      },
                      "cursorOpacity" : {
                        "type" : "double",
                        "defaultValue" : 1.0,
                        "interp" : "linr"
                      }
                    },
                    "effects" : [
                        {
                          "effectName" : "CursorHilight",
                          "category" : "categoryCursorEffects",
                          "parameters" : {
                            "blur" : 0.1,
                            "color-alpha" : 0.75,
                            "color-blue" : 0.0,
                            "color-green" : 1.0,
                            "color-red" : 1.0,
                            "radius" : 50.0
                          }
                        }
                    ],
                    "start" : 237,
                    "duration" : 52,
                    "mediaStart" : 307,
                    "mediaDuration" : 52,
                    "scalar" : 1,
                    "metadata" : {
                      "AutoAppliedSmartFocus" : "False",
                      "clipSpeedAttribute" : false
                    },
                    "animationTracks" : {

                    }
                  },
                  {
                    "id" : 57,
                    "_type" : "ScreenVMFile",
                    "src" : 1,
                    "trackNumber" : 0,
                    "attributes" : {
                      "ident" : "hijacking_ntfs_structs_attack_prevention"
                    },
                    "parameters" : {
                      "cursorScale" : {
                        "type" : "double",
                        "defaultValue" : 1.0,
                        "interp" : "linr"
                      },
                      "cursorOpacity" : {
                        "type" : "double",
                        "defaultValue" : 1.0,
                        "interp" : "linr"
                      }
                    },
                    "effects" : [
                        {
                          "effectName" : "CursorHilight",
                          "category" : "categoryCursorEffects",
                          "parameters" : {
                            "blur" : 0.1,
                            "color-alpha" : 0.75,
                            "color-blue" : 0.0,
                            "color-green" : 1.0,
                            "color-red" : 1.0,
                            "radius" : 50.0
                          }
                        }
                    ],
                    "start" : 289,
                    "duration" : 62,
                    "mediaStart" : 359,
                    "mediaDuration" : 164,
                    "scalar" : "31/82",
                    "metadata" : {
                      "AutoAppliedSmartFocus" : "False",
                      "clipSpeedAttribute" : true
                    },
                    "animationTracks" : {

                    }
                  },
                  {
                    "id" : 58,
                    "_type" : "ScreenVMFile",
                    "src" : 1,
                    "trackNumber" : 0,
                    "attributes" : {
                      "ident" : "hijacking_ntfs_structs_attack_prevention"
                    },
                    "parameters" : {
                      "cursorScale" : {
                        "type" : "double",
                        "defaultValue" : 1.0,
                        "interp" : "linr"
                      },
                      "cursorOpacity" : {
                        "type" : "double",
                        "defaultValue" : 1.0,
                        "interp" : "linr"
                      }
                    },
                    "effects" : [
                        {
                          "effectName" : "CursorHilight",
                          "category" : "categoryCursorEffects",
                          "parameters" : {
                            "blur" : 0.1,
                            "color-alpha" : 0.75,
                            "color-blue" : 0.0,
                            "color-green" : 1.0,
                            "color-red" : 1.0,
                            "radius" : 50.0
                          }
                        }
                    ],
                    "start" : 351,
                    "duration" : 18,
                    "mediaStart" : 523,
                    "mediaDuration" : 44,
                    "scalar" : "9/22",
                    "metadata" : {
                      "AutoAppliedSmartFocus" : "False",
                      "clipSpeedAttribute" : true
                    },
                    "animationTracks" : {

                    }
                  },
                  {
                    "id" : 59,
                    "_type" : "ScreenVMFile",
                    "src" : 1,
                    "trackNumber" : 0,
                    "attributes" : {
                      "ident" : "hijacking_ntfs_structs_attack_prevention"
                    },
                    "parameters" : {
                      "cursorScale" : {
                        "type" : "double",
                        "defaultValue" : 1.0,
                        "interp" : "linr"
                      },
                      "cursorOpacity" : {
                        "type" : "double",
                        "defaultValue" : 1.0,
                        "interp" : "linr"
                      }
                    },
                    "effects" : [
                        {
                          "effectName" : "CursorHilight",
                          "category" : "categoryCursorEffects",
                          "parameters" : {
                            "blur" : 0.1,
                            "color-alpha" : 0.75,
                            "color-blue" : 0.0,
                            "color-green" : 1.0,
                            "color-red" : 1.0,
                            "radius" : 50.0
                          }
                        }
                    ],
                    "start" : 369,
                    "duration" : 40,
                    "mediaStart" : 567,
                    "mediaDuration" : 112,
                    "scalar" : "5/14",
                    "metadata" : {
                      "AutoAppliedSmartFocus" : "False",
                      "clipSpeedAttribute" : true
                    },
                    "animationTracks" : {

                    }
                  },
                  {
                    "id" : 60,
                    "_type" : "ScreenVMFile",
                    "src" : 1,
                    "trackNumber" : 0,
                    "attributes" : {
                      "ident" : "hijacking_ntfs_structs_attack_prevention"
                    },
                    "parameters" : {
                      "cursorScale" : {
                        "type" : "double",
                        "defaultValue" : 1.0,
                        "interp" : "linr"
                      },
                      "cursorOpacity" : {
                        "type" : "double",
                        "defaultValue" : 1.0,
                        "interp" : "linr"
                      }
                    },
                    "effects" : [
                        {
                          "effectName" : "CursorHilight",
                          "category" : "categoryCursorEffects",
                          "parameters" : {
                            "blur" : 0.1,
                            "color-alpha" : 0.75,
                            "color-blue" : 0.0,
                            "color-green" : 1.0,
                            "color-red" : 1.0,
                            "radius" : 50.0
                          }
                        }
                    ],
                    "start" : 409,
                    "duration" : 32,
                    "mediaStart" : 755,
                    "mediaDuration" : 32,
                    "scalar" : 1,
                    "metadata" : {
                      "AutoAppliedSmartFocus" : "False",
                      "clipSpeedAttribute" : false
                    },
                    "animationTracks" : {

                    }
                  },
                  {
                    "id" : 61,
                    "_type" : "ScreenVMFile",
                    "src" : 1,
                    "trackNumber" : 0,
                    "attributes" : {
                      "ident" : "hijacking_ntfs_structs_attack_prevention"
                    },
                    "parameters" : {
                      "cursorScale" : {
                        "type" : "double",
                        "defaultValue" : 1.0,
                        "interp" : "linr"
                      },
                      "cursorOpacity" : {
                        "type" : "double",
                        "defaultValue" : 1.0,
                        "interp" : "linr"
                      }
                    },
                    "effects" : [
                        {
                          "effectName" : "CursorHilight",
                          "category" : "categoryCursorEffects",
                          "parameters" : {
                            "blur" : 0.1,
                            "color-alpha" : 0.75,
                            "color-blue" : 0.0,
                            "color-green" : 1.0,
                            "color-red" : 1.0,
                            "radius" : 50.0
                          }
                        }
                    ],
                    "start" : 441,
                    "duration" : 36,
                    "mediaStart" : 850,
                    "mediaDuration" : 257,
                    "scalar" : "36/257",
                    "metadata" : {
                      "AutoAppliedSmartFocus" : "False",
                      "clipSpeedAttribute" : true
                    },
                    "animationTracks" : {

                    }
                  },
                  {
                    "id" : 62,
                    "_type" : "ScreenVMFile",
                    "src" : 1,
                    "trackNumber" : 0,
                    "attributes" : {
                      "ident" : "hijacking_ntfs_structs_attack_prevention"
                    },
                    "parameters" : {
                      "translation0" : {
                        "type" : "double",
                        "defaultValue" : 0.0,
                        "interp" : "eioe",
                        "keyframes" : [
                          {
                            "endTime" : 1177,
                            "time" : 1147,
                            "value" : 948.478453192254,
                            "duration" : 30
                          }
                        ]
                      },
                      "translation1" : {
                        "type" : "double",
                        "defaultValue" : 0.0,
                        "interp" : "eioe",
                        "keyframes" : [
                          {
                            "endTime" : 1177,
                            "time" : 1147,
                            "value" : -426.526455592595,
                            "duration" : 30
                          }
                        ]
                      },
                      "scale0" : {
                        "type" : "double",
                        "defaultValue" : 1.0,
                        "interp" : "eioe",
                        "keyframes" : [
                          {
                            "endTime" : 1177,
                            "time" : 1147,
                            "value" : 1.98900262241215,
                            "duration" : 30
                          }
                        ]
                      },
                      "scale1" : {
                        "type" : "double",
                        "defaultValue" : 1.0,
                        "interp" : "eioe",
                        "keyframes" : [
                          {
                            "endTime" : 1177,
                            "time" : 1147,
                            "value" : 1.98900308459974,
                            "duration" : 30
                          }
                        ]
                      },
                      "cursorScale" : {
                        "type" : "double",
                        "defaultValue" : 1.0,
                        "interp" : "linr"
                      },
                      "cursorOpacity" : {
                        "type" : "double",
                        "defaultValue" : 1.0,
                        "interp" : "linr"
                      }
                    },
                    "effects" : [
                        {
                          "effectName" : "CursorHilight",
                          "category" : "categoryCursorEffects",
                          "parameters" : {
                            "blur" : 0.1,
                            "color-alpha" : 0.75,
                            "color-blue" : 0.0,
                            "color-green" : 1.0,
                            "color-red" : 1.0,
                            "radius" : 50.0
                          }
                        }
                    ],
                    "start" : 477,
                    "duration" : 32,
                    "mediaStart" : 1146,
                    "mediaDuration" : 32,
                    "scalar" : 1,
                    "metadata" : {
                      "AutoAppliedSmartFocus" : "False",
                      "clipSpeedAttribute" : false,
                      "default-scale0" : 1.0,
                      "default-scale1" : 1.0,
                      "default-translation0" : 0.0,
                      "default-translation1" : 0.0
                    },
                    "animationTracks" : {
                      "visual" : [
                        {
                          "endTime" : 1177,
                          "duration" : 30,
                          "range" : [ 1147, 30]
                        }
                      ]
                    }
                  },
                  {
                    "id" : 63,
                    "_type" : "ScreenVMFile",
                    "src" : 1,
                    "trackNumber" : 0,
                    "attributes" : {
                      "ident" : "hijacking_ntfs_structs_attack_prevention"
                    },
                    "parameters" : {
                      "translation0" : {
                        "type" : "double",
                        "defaultValue" : 0.0,
                        "interp" : "eioe",
                        "keyframes" : [
                          {
                            "endTime" : 1177,
                            "time" : 1147,
                            "value" : 948.478453192254,
                            "duration" : 30
                          }
                        ]
                      },
                      "translation1" : {
                        "type" : "double",
                        "defaultValue" : 0.0,
                        "interp" : "eioe",
                        "keyframes" : [
                          {
                            "endTime" : 1177,
                            "time" : 1147,
                            "value" : -426.526455592595,
                            "duration" : 30
                          }
                        ]
                      },
                      "scale0" : {
                        "type" : "double",
                        "defaultValue" : 1.0,
                        "interp" : "eioe",
                        "keyframes" : [
                          {
                            "endTime" : 1177,
                            "time" : 1147,
                            "value" : 1.98900262241215,
                            "duration" : 30
                          }
                        ]
                      },
                      "scale1" : {
                        "type" : "double",
                        "defaultValue" : 1.0,
                        "interp" : "eioe",
                        "keyframes" : [
                          {
                            "endTime" : 1177,
                            "time" : 1147,
                            "value" : 1.98900308459974,
                            "duration" : 30
                          }
                        ]
                      },
                      "cursorScale" : {
                        "type" : "double",
                        "defaultValue" : 1.0,
                        "interp" : "linr"
                      },
                      "cursorOpacity" : {
                        "type" : "double",
                        "defaultValue" : 1.0,
                        "interp" : "linr"
                      }
                    },
                    "effects" : [
                        {
                          "effectName" : "CursorHilight",
                          "category" : "categoryCursorEffects",
                          "parameters" : {
                            "blur" : 0.1,
                            "color-alpha" : 0.75,
                            "color-blue" : 0.0,
                            "color-green" : 1.0,
                            "color-red" : 1.0,
                            "radius" : 50.0
                          }
                        }
                    ],
                    "start" : 509,
                    "duration" : 89,
                    "mediaStart" : 1178,
                    "mediaDuration" : 238,
                    "scalar" : "89/238",
                    "metadata" : {
                      "AutoAppliedSmartFocus" : "False",
                      "clipSpeedAttribute" : true,
                      "default-scale0" : 1.0,
                      "default-scale1" : 1.0,
                      "default-translation0" : 0.0,
                      "default-translation1" : 0.0
                    },
                    "animationTracks" : {
                      "visual" : [
                        {
                          "endTime" : 1177,
                          "duration" : 30,
                          "range" : [ 1147, 30]
                        }
                      ]
                    }
                  },
                  {
                    "id" : 64,
                    "_type" : "ScreenVMFile",
                    "src" : 1,
                    "trackNumber" : 0,
                    "attributes" : {
                      "ident" : "hijacking_ntfs_structs_attack_prevention"
                    },
                    "parameters" : {
                      "translation0" : {
                        "type" : "double",
                        "defaultValue" : 0.0,
                        "interp" : "eioe",
                        "keyframes" : [
                          {
                            "endTime" : 1177,
                            "time" : 1147,
                            "value" : 948.478453192254,
                            "duration" : 30
                          },
                          {
                            "endTime" : "56157/37",
                            "time" : "104803/74",
                            "value" : 948.478364944437,
                            "duration" : "203/2"
                          }
                        ]
                      },
                      "translation1" : {
                        "type" : "double",
                        "defaultValue" : 0.0,
                        "interp" : "eioe",
                        "keyframes" : [
                          {
                            "endTime" : 1177,
                            "time" : 1147,
                            "value" : -426.526455592595,
                            "duration" : 30
                          },
                          {
                            "endTime" : "56157/37",
                            "time" : "104803/74",
                            "value" : -100.3,
                            "duration" : "203/2"
                          }
                        ]
                      },
                      "scale0" : {
                        "type" : "double",
                        "defaultValue" : 1.0,
                        "interp" : "eioe",
                        "keyframes" : [
                          {
                            "endTime" : 1177,
                            "time" : 1147,
                            "value" : 1.98900262241215,
                            "duration" : 30
                          }
                        ]
                      },
                      "scale1" : {
                        "type" : "double",
                        "defaultValue" : 1.0,
                        "interp" : "eioe",
                        "keyframes" : [
                          {
                            "endTime" : 1177,
                            "time" : 1147,
                            "value" : 1.98900308459974,
                            "duration" : 30
                          }
                        ]
                      },
                      "cursorScale" : {
                        "type" : "double",
                        "defaultValue" : 1.0,
                        "interp" : "linr"
                      },
                      "cursorOpacity" : {
                        "type" : "double",
                        "defaultValue" : 1.0,
                        "interp" : "linr"
                      }
                    },
                    "effects" : [
                        {
                          "effectName" : "CursorHilight",
                          "category" : "categoryCursorEffects",
                          "parameters" : {
                            "blur" : 0.1,
                            "color-alpha" : 0.75,
                            "color-blue" : 0.0,
                            "color-green" : 1.0,
                            "color-red" : 1.0,
                            "radius" : 50.0
                          }
                        }
                    ],
                    "start" : 598,
                    "duration" : 74,
                    "mediaStart" : 1416,
                    "mediaDuration" : 203,
                    "scalar" : "74/203",
                    "metadata" : {
                      "AutoAppliedSmartFocus" : "False",
                      "clipSpeedAttribute" : true,
                      "default-scale0" : 1.0,
                      "default-scale1" : 1.0,
                      "default-translation0" : 0.0,
                      "default-translation1" : 0.0
                    },
                    "animationTracks" : {
                      "visual" : [
                        {
                          "endTime" : 1177,
                          "duration" : 30,
                          "range" : [ 1147, 30]
                        },
                        {
                          "endTime" : "56157/37",
                          "duration" : "203/2",
                          "range" : [ "104803/74", "203/2"]
                        }
                      ]
                    }
                  },
                  {
                    "id" : 65,
                    "_type" : "StitchedMedia",
                    "minMediaStart" : 0,
                    "attributes" : {
                      "ident" : "hijacking_ntfs_structs_attack_prevention",
                      "gain" : 1.0,
                      "mixToMono" : false
                    },
                    "parameters" : {
                      "translation0" : {
                        "type" : "double",
                        "defaultValue" : 0.0,
                        "keyframes" : [
                          {
                            "endTime" : 1177,
                            "time" : 1147,
                            "value" : 948.478453192254,
                            "duration" : 30
                          },
                          {
                            "endTime" : 1449,
                            "time" : 1419,
                            "value" : 948.478364944437,
                            "duration" : 30
                          }
                        ]
                      },
                      "translation1" : {
                        "type" : "double",
                        "defaultValue" : 0.0,
                        "keyframes" : [
                          {
                            "endTime" : 1177,
                            "time" : 1147,
                            "value" : -426.526455592595,
                            "duration" : 30
                          },
                          {
                            "endTime" : 1449,
                            "time" : 1419,
                            "value" : -100.3,
                            "duration" : 30
                          }
                        ]
                      },
                      "scale0" : {
                        "type" : "double",
                        "defaultValue" : 1.0,
                        "keyframes" : [
                          {
                            "endTime" : 1177,
                            "time" : 1147,
                            "value" : 1.98900262241215,
                            "duration" : 30
                          }
                        ]
                      },
                      "scale1" : {
                        "type" : "double",
                        "defaultValue" : 1.0,
                        "keyframes" : [
                          {
                            "endTime" : 1177,
                            "time" : 1147,
                            "value" : 1.98900308459974,
                            "duration" : 30
                          }
                        ]
                      },
                      "cursorOpacity" : 1.0,
                      "cursorScale" : 1.0
                    },
                    "medias" : [
                        {
                          "id" : 66,
                          "_type" : "ScreenVMFile",
                          "src" : 1,
                          "trackNumber" : 0,
                          "attributes" : {
                            "ident" : "hijacking_ntfs_structs_attack_prevention"
                          },
                          "parameters" : {
                            "cursorScale" : {
                              "type" : "double",
                              "defaultValue" : 0.0,
                              "interp" : "linr"
                            },
                            "cursorOpacity" : {
                              "type" : "double",
                              "defaultValue" : 0.0,
                              "interp" : "linr"
                            }
                          },
                          "effects" : [

                          ],
                          "start" : 0,
                          "duration" : 1620,
                          "mediaStart" : 0,
                          "mediaDuration" : 1620,
                          "scalar" : 1,
                          "metadata" : {
                            "AutoAppliedSmartFocus" : "False",
                            "clipSpeedAttribute" : false,
                            "default-scale0" : 1.0,
                            "default-scale1" : 1.0,
                            "default-translation0" : 0.0,
                            "default-translation1" : 0.0
                          },
                          "animationTracks" : {

                          }
                        },
                        {
                          "id" : 67,
                          "_type" : "ScreenIMFile",
                          "src" : 1,
                          "trackNumber" : 0,
                          "trimStartSum" : 0,
                          "attributes" : {
                            "ident" : "hijacking_ntfs_structs_attack_prevention"
                          },
                          "parameters" : {
                            "cursorOpacity" : 0.0,
                            "cursorScale" : 0.0
                          },
                          "effects" : [

                          ],
                          "start" : 1620,
                          "duration" : 122,
                          "mediaStart" : 1619,
                          "mediaDuration" : 1,
                          "scalar" : 1,
                          "metadata" : {
                            "AutoAppliedSmartFocus" : "False"
                          },
                          "animationTracks" : {

                          }
                        },
                        {
                          "id" : 68,
                          "_type" : "ScreenVMFile",
                          "src" : 1,
                          "trackNumber" : 0,
                          "attributes" : {
                            "ident" : "hijacking_ntfs_structs_attack_prevention"
                          },
                          "parameters" : {
                            "cursorScale" : {
                              "type" : "double",
                              "defaultValue" : 0.0,
                              "interp" : "linr"
                            },
                            "cursorOpacity" : {
                              "type" : "double",
                              "defaultValue" : 0.0,
                              "interp" : "linr"
                            }
                          },
                          "effects" : [

                          ],
                          "start" : 1742,
                          "duration" : 5413,
                          "mediaStart" : 1615,
                          "mediaDuration" : 5413,
                          "scalar" : 1,
                          "metadata" : {
                            "AutoAppliedSmartFocus" : "False",
                            "clipSpeedAttribute" : true,
                            "default-scale0" : 1.0,
                            "default-scale1" : 1.0,
                            "default-translation0" : 0.0,
                            "default-translation1" : 0.0
                          },
                          "animationTracks" : {

                          }
                        }
                    ],
                    "effects" : [
                        {
                          "effectName" : "CursorHilight",
                          "category" : "categoryCursorEffects",
                          "parameters" : {
                            "blur" : 0.1,
                            "color-alpha" : 0.75,
                            "color-blue" : 0.0,
                            "color-green" : 1.0,
                            "color-red" : 1.0,
                            "radius" : 50.0
                          }
                        }
                    ],
                    "start" : 672,
                    "duration" : 33,
                    "mediaStart" : "196560/121",
                    "mediaDuration" : "41421/352",
                    "scalar" : "3872/13807",
                    "metadata" : {
                      "AutoAppliedSmartFocus" : "False",
                      "clipSpeedAttribute" : true
                    },
                    "animationTracks" : {
                      "visual" : [
                        {
                          "endTime" : 1177,
                          "duration" : 30,
                          "range" : [ 1147, 30]
                        },
                        {
                          "endTime" : 1449,
                          "duration" : 30,
                          "range" : [ 1419, 30]
                        }
                      ]
                    }
                  },
                  {
                    "id" : 69,
                    "_type" : "StitchedMedia",
                    "minMediaStart" : 0,
                    "attributes" : {
                      "ident" : "hijacking_ntfs_structs_attack_prevention",
                      "gain" : 1.0,
                      "mixToMono" : false
                    },
                    "parameters" : {
                      "translation0" : {
                        "type" : "double",
                        "defaultValue" : 0.0,
                        "keyframes" : [
                          {
                            "endTime" : 1177,
                            "time" : 1147,
                            "value" : 948.478453192254,
                            "duration" : 30
                          },
                          {
                            "endTime" : 1449,
                            "time" : 1419,
                            "value" : 948.478364944437,
                            "duration" : 30
                          }
                        ]
                      },
                      "translation1" : {
                        "type" : "double",
                        "defaultValue" : 0.0,
                        "keyframes" : [
                          {
                            "endTime" : 1177,
                            "time" : 1147,
                            "value" : -426.526455592595,
                            "duration" : 30
                          },
                          {
                            "endTime" : 1449,
                            "time" : 1419,
                            "value" : -100.3,
                            "duration" : 30
                          }
                        ]
                      },
                      "scale0" : {
                        "type" : "double",
                        "defaultValue" : 1.0,
                        "keyframes" : [
                          {
                            "endTime" : 1177,
                            "time" : 1147,
                            "value" : 1.98900262241215,
                            "duration" : 30
                          }
                        ]
                      },
                      "scale1" : {
                        "type" : "double",
                        "defaultValue" : 1.0,
                        "keyframes" : [
                          {
                            "endTime" : 1177,
                            "time" : 1147,
                            "value" : 1.98900308459974,
                            "duration" : 30
                          }
                        ]
                      },
                      "cursorOpacity" : 1.0,
                      "cursorScale" : 1.0
                    },
                    "medias" : [
                        {
                          "id" : 70,
                          "_type" : "ScreenVMFile",
                          "src" : 1,
                          "trackNumber" : 0,
                          "attributes" : {
                            "ident" : "hijacking_ntfs_structs_attack_prevention"
                          },
                          "parameters" : {
                            "cursorScale" : {
                              "type" : "double",
                              "defaultValue" : 0.0,
                              "interp" : "linr"
                            },
                            "cursorOpacity" : {
                              "type" : "double",
                              "defaultValue" : 0.0,
                              "interp" : "linr"
                            }
                          },
                          "effects" : [

                          ],
                          "start" : 0,
                          "duration" : 1620,
                          "mediaStart" : 0,
                          "mediaDuration" : 1620,
                          "scalar" : 1,
                          "metadata" : {
                            "AutoAppliedSmartFocus" : "False",
                            "clipSpeedAttribute" : false,
                            "default-scale0" : 1.0,
                            "default-scale1" : 1.0,
                            "default-translation0" : 0.0,
                            "default-translation1" : 0.0
                          },
                          "animationTracks" : {

                          }
                        },
                        {
                          "id" : 71,
                          "_type" : "ScreenIMFile",
                          "src" : 1,
                          "trackNumber" : 0,
                          "trimStartSum" : 0,
                          "attributes" : {
                            "ident" : "hijacking_ntfs_structs_attack_prevention"
                          },
                          "parameters" : {
                            "cursorOpacity" : 0.0,
                            "cursorScale" : 0.0
                          },
                          "effects" : [

                          ],
                          "start" : 1620,
                          "duration" : 122,
                          "mediaStart" : 1619,
                          "mediaDuration" : 1,
                          "scalar" : 1,
                          "metadata" : {
                            "AutoAppliedSmartFocus" : "False"
                          },
                          "animationTracks" : {

                          }
                        },
                        {
                          "id" : 72,
                          "_type" : "ScreenVMFile",
                          "src" : 1,
                          "trackNumber" : 0,
                          "attributes" : {
                            "ident" : "hijacking_ntfs_structs_attack_prevention"
                          },
                          "parameters" : {
                            "cursorScale" : {
                              "type" : "double",
                              "defaultValue" : 0.0,
                              "interp" : "linr"
                            },
                            "cursorOpacity" : {
                              "type" : "double",
                              "defaultValue" : 0.0,
                              "interp" : "linr"
                            }
                          },
                          "effects" : [

                          ],
                          "start" : 1742,
                          "duration" : 5413,
                          "mediaStart" : 1615,
                          "mediaDuration" : 5413,
                          "scalar" : 1,
                          "metadata" : {
                            "AutoAppliedSmartFocus" : "False",
                            "clipSpeedAttribute" : true,
                            "default-scale0" : 1.0,
                            "default-scale1" : 1.0,
                            "default-translation0" : 0.0,
                            "default-translation1" : 0.0
                          },
                          "animationTracks" : {

                          }
                        }
                    ],
                    "effects" : [
                        {
                          "effectName" : "CursorHilight",
                          "category" : "categoryCursorEffects",
                          "parameters" : {
                            "blur" : 0.1,
                            "color-alpha" : 0.75,
                            "color-blue" : 0.0,
                            "color-green" : 1.0,
                            "color-red" : 1.0,
                            "radius" : 50.0
                          }
                        }
                    ],
                    "start" : 705,
                    "duration" : 101,
                    "mediaStart" : "6745551/3872",
                    "mediaDuration" : "1753489/3872",
                    "scalar" : "391072/1753489",
                    "metadata" : {
                      "AutoAppliedSmartFocus" : "False",
                      "clipSpeedAttribute" : true
                    },
                    "animationTracks" : {
                      "visual" : [
                        {
                          "endTime" : 1177,
                          "duration" : 30,
                          "range" : [ 1147, 30]
                        },
                        {
                          "endTime" : 1449,
                          "duration" : 30,
                          "range" : [ 1419, 30]
                        }
                      ]
                    }
                  },
                  {
                    "id" : 73,
                    "_type" : "StitchedMedia",
                    "minMediaStart" : 0,
                    "attributes" : {
                      "ident" : "hijacking_ntfs_structs_attack_prevention",
                      "gain" : 1.0,
                      "mixToMono" : false
                    },
                    "parameters" : {
                      "translation0" : {
                        "type" : "double",
                        "defaultValue" : 0.0,
                        "keyframes" : [
                          {
                            "endTime" : 1177,
                            "time" : 1147,
                            "value" : 948.478453192254,
                            "duration" : 30
                          },
                          {
                            "endTime" : 1449,
                            "time" : 1419,
                            "value" : 948.478364944437,
                            "duration" : 30
                          }
                        ]
                      },
                      "translation1" : {
                        "type" : "double",
                        "defaultValue" : 0.0,
                        "keyframes" : [
                          {
                            "endTime" : 1177,
                            "time" : 1147,
                            "value" : -426.526455592595,
                            "duration" : 30
                          },
                          {
                            "endTime" : 1449,
                            "time" : 1419,
                            "value" : -100.3,
                            "duration" : 30
                          }
                        ]
                      },
                      "scale0" : {
                        "type" : "double",
                        "defaultValue" : 1.0,
                        "keyframes" : [
                          {
                            "endTime" : 1177,
                            "time" : 1147,
                            "value" : 1.98900262241215,
                            "duration" : 30
                          }
                        ]
                      },
                      "scale1" : {
                        "type" : "double",
                        "defaultValue" : 1.0,
                        "keyframes" : [
                          {
                            "endTime" : 1177,
                            "time" : 1147,
                            "value" : 1.98900308459974,
                            "duration" : 30
                          }
                        ]
                      },
                      "cursorOpacity" : 1.0,
                      "cursorScale" : 1.0
                    },
                    "medias" : [
                        {
                          "id" : 74,
                          "_type" : "ScreenVMFile",
                          "src" : 1,
                          "trackNumber" : 0,
                          "attributes" : {
                            "ident" : "hijacking_ntfs_structs_attack_prevention"
                          },
                          "parameters" : {
                            "cursorScale" : {
                              "type" : "double",
                              "defaultValue" : 0.0,
                              "interp" : "linr"
                            },
                            "cursorOpacity" : {
                              "type" : "double",
                              "defaultValue" : 0.0,
                              "interp" : "linr"
                            }
                          },
                          "effects" : [

                          ],
                          "start" : 0,
                          "duration" : 1620,
                          "mediaStart" : 0,
                          "mediaDuration" : 1620,
                          "scalar" : 1,
                          "metadata" : {
                            "AutoAppliedSmartFocus" : "False",
                            "clipSpeedAttribute" : false,
                            "default-scale0" : 1.0,
                            "default-scale1" : 1.0,
                            "default-translation0" : 0.0,
                            "default-translation1" : 0.0
                          },
                          "animationTracks" : {

                          }
                        },
                        {
                          "id" : 75,
                          "_type" : "ScreenIMFile",
                          "src" : 1,
                          "trackNumber" : 0,
                          "trimStartSum" : 0,
                          "attributes" : {
                            "ident" : "hijacking_ntfs_structs_attack_prevention"
                          },
                          "parameters" : {
                            "cursorOpacity" : 0.0,
                            "cursorScale" : 0.0
                          },
                          "effects" : [

                          ],
                          "start" : 1620,
                          "duration" : 30,
                          "mediaStart" : 1619,
                          "mediaDuration" : 1,
                          "scalar" : 1,
                          "metadata" : {
                            "AutoAppliedSmartFocus" : "False"
                          },
                          "animationTracks" : {

                          }
                        },
                        {
                          "id" : 76,
                          "_type" : "ScreenVMFile",
                          "src" : 1,
                          "trackNumber" : 0,
                          "attributes" : {
                            "ident" : "hijacking_ntfs_structs_attack_prevention"
                          },
                          "parameters" : {
                            "cursorScale" : {
                              "type" : "double",
                              "defaultValue" : 0.0,
                              "interp" : "linr"
                            },
                            "cursorOpacity" : {
                              "type" : "double",
                              "defaultValue" : 0.0,
                              "interp" : "linr"
                            }
                          },
                          "effects" : [

                          ],
                          "start" : 1650,
                          "duration" : 5413,
                          "mediaStart" : 1620,
                          "mediaDuration" : 5413,
                          "scalar" : 1,
                          "metadata" : {
                            "AutoAppliedSmartFocus" : "False",
                            "clipSpeedAttribute" : false,
                            "default-scale0" : 1.0,
                            "default-scale1" : 1.0,
                            "default-translation0" : 0.0,
                            "default-translation1" : 0.0
                          },
                          "animationTracks" : {

                          }
                        }
                    ],
                    "effects" : [
                        {
                          "effectName" : "CursorHilight",
                          "category" : "categoryCursorEffects",
                          "parameters" : {
                            "blur" : 0.1,
                            "color-alpha" : 0.75,
                            "color-blue" : 0.0,
                            "color-green" : 1.0,
                            "color-red" : 1.0,
                            "radius" : 50.0
                          }
                        }
                    ],
                    "start" : 806,
                    "duration" : 30,
                    "mediaStart" : 2096,
                    "mediaDuration" : "816/7",
                    "scalar" : "35/136",
                    "metadata" : {
                      "AutoAppliedSmartFocus" : "False",
                      "clipSpeedAttribute" : true
                    },
                    "animationTracks" : {
                      "visual" : [
                        {
                          "endTime" : 1177,
                          "duration" : 30,
                          "range" : [ 1147, 30]
                        },
                        {
                          "endTime" : 1449,
                          "duration" : 30,
                          "range" : [ 1419, 30]
                        }
                      ]
                    }
                  },
                  {
                    "id" : 77,
                    "_type" : "StitchedMedia",
                    "minMediaStart" : 0,
                    "attributes" : {
                      "ident" : "hijacking_ntfs_structs_attack_prevention",
                      "gain" : 1.0,
                      "mixToMono" : false
                    },
                    "parameters" : {
                      "translation0" : {
                        "type" : "double",
                        "defaultValue" : 0.0,
                        "keyframes" : [
                          {
                            "endTime" : 1177,
                            "time" : 1147,
                            "value" : 948.478453192254,
                            "duration" : 30
                          },
                          {
                            "endTime" : 1449,
                            "time" : 1419,
                            "value" : 948.478364944437,
                            "duration" : 30
                          }
                        ]
                      },
                      "translation1" : {
                        "type" : "double",
                        "defaultValue" : 0.0,
                        "keyframes" : [
                          {
                            "endTime" : 1177,
                            "time" : 1147,
                            "value" : -426.526455592595,
                            "duration" : 30
                          },
                          {
                            "endTime" : 1449,
                            "time" : 1419,
                            "value" : -100.3,
                            "duration" : 30
                          }
                        ]
                      },
                      "scale0" : {
                        "type" : "double",
                        "defaultValue" : 1.0,
                        "keyframes" : [
                          {
                            "endTime" : 1177,
                            "time" : 1147,
                            "value" : 1.98900262241215,
                            "duration" : 30
                          }
                        ]
                      },
                      "scale1" : {
                        "type" : "double",
                        "defaultValue" : 1.0,
                        "keyframes" : [
                          {
                            "endTime" : 1177,
                            "time" : 1147,
                            "value" : 1.98900308459974,
                            "duration" : 30
                          }
                        ]
                      },
                      "cursorOpacity" : 1.0,
                      "cursorScale" : 1.0
                    },
                    "medias" : [
                        {
                          "id" : 78,
                          "_type" : "ScreenVMFile",
                          "src" : 1,
                          "trackNumber" : 0,
                          "attributes" : {
                            "ident" : "hijacking_ntfs_structs_attack_prevention"
                          },
                          "parameters" : {
                            "cursorScale" : {
                              "type" : "double",
                              "defaultValue" : 0.0,
                              "interp" : "linr"
                            },
                            "cursorOpacity" : {
                              "type" : "double",
                              "defaultValue" : 0.0,
                              "interp" : "linr"
                            }
                          },
                          "effects" : [

                          ],
                          "start" : 0,
                          "duration" : 1620,
                          "mediaStart" : 0,
                          "mediaDuration" : 1620,
                          "scalar" : 1,
                          "metadata" : {
                            "AutoAppliedSmartFocus" : "False",
                            "clipSpeedAttribute" : false,
                            "default-scale0" : 1.0,
                            "default-scale1" : 1.0,
                            "default-translation0" : 0.0,
                            "default-translation1" : 0.0
                          },
                          "animationTracks" : {

                          }
                        },
                        {
                          "id" : 79,
                          "_type" : "ScreenIMFile",
                          "src" : 1,
                          "trackNumber" : 0,
                          "trimStartSum" : 0,
                          "attributes" : {
                            "ident" : "hijacking_ntfs_structs_attack_prevention"
                          },
                          "parameters" : {
                            "cursorOpacity" : 0.0,
                            "cursorScale" : 0.0
                          },
                          "effects" : [

                          ],
                          "start" : 1620,
                          "duration" : 30,
                          "mediaStart" : 1619,
                          "mediaDuration" : 1,
                          "scalar" : 1,
                          "metadata" : {
                            "AutoAppliedSmartFocus" : "False"
                          },
                          "animationTracks" : {

                          }
                        },
                        {
                          "id" : 80,
                          "_type" : "ScreenVMFile",
                          "src" : 1,
                          "trackNumber" : 0,
                          "attributes" : {
                            "ident" : "hijacking_ntfs_structs_attack_prevention"
                          },
                          "parameters" : {
                            "cursorScale" : {
                              "type" : "double",
                              "defaultValue" : 0.0,
                              "interp" : "linr"
                            },
                            "cursorOpacity" : {
                              "type" : "double",
                              "defaultValue" : 0.0,
                              "interp" : "linr"
                            }
                          },
                          "effects" : [

                          ],
                          "start" : 1650,
                          "duration" : 5413,
                          "mediaStart" : 1620,
                          "mediaDuration" : 5413,
                          "scalar" : 1,
                          "metadata" : {
                            "AutoAppliedSmartFocus" : "False",
                            "clipSpeedAttribute" : false,
                            "default-scale0" : 1.0,
                            "default-scale1" : 1.0,
                            "default-translation0" : 0.0,
                            "default-translation1" : 0.0
                          },
                          "animationTracks" : {

                          }
                        }
                    ],
                    "effects" : [
                        {
                          "effectName" : "CursorHilight",
                          "category" : "categoryCursorEffects",
                          "parameters" : {
                            "blur" : 0.1,
                            "color-alpha" : 0.75,
                            "color-blue" : 0.0,
                            "color-green" : 1.0,
                            "color-red" : 1.0,
                            "radius" : 50.0
                          }
                        }
                    ],
                    "start" : 836,
                    "duration" : 27,
                    "mediaStart" : "15488/7",
                    "mediaDuration" : "192/7",
                    "scalar" : "63/64",
                    "metadata" : {
                      "AutoAppliedSmartFocus" : "False",
                      "clipSpeedAttribute" : false
                    },
                    "animationTracks" : {
                      "visual" : [
                        {
                          "endTime" : 1177,
                          "duration" : 30,
                          "range" : [ 1147, 30]
                        },
                        {
                          "endTime" : 1449,
                          "duration" : 30,
                          "range" : [ 1419, 30]
                        }
                      ]
                    }
                  },
                  {
                    "id" : 81,
                    "_type" : "StitchedMedia",
                    "minMediaStart" : 0,
                    "attributes" : {
                      "ident" : "hijacking_ntfs_structs_attack_prevention",
                      "gain" : 1.0,
                      "mixToMono" : false
                    },
                    "parameters" : {
                      "translation0" : {
                        "type" : "double",
                        "defaultValue" : 0.0,
                        "keyframes" : [
                          {
                            "endTime" : 1177,
                            "time" : 1147,
                            "value" : 948.478453192254,
                            "duration" : 30
                          },
                          {
                            "endTime" : 1449,
                            "time" : 1419,
                            "value" : 948.478364944437,
                            "duration" : 30
                          }
                        ]
                      },
                      "translation1" : {
                        "type" : "double",
                        "defaultValue" : 0.0,
                        "keyframes" : [
                          {
                            "endTime" : 1177,
                            "time" : 1147,
                            "value" : -426.526455592595,
                            "duration" : 30
                          },
                          {
                            "endTime" : 1449,
                            "time" : 1419,
                            "value" : -100.3,
                            "duration" : 30
                          }
                        ]
                      },
                      "scale0" : {
                        "type" : "double",
                        "defaultValue" : 1.0,
                        "keyframes" : [
                          {
                            "endTime" : 1177,
                            "time" : 1147,
                            "value" : 1.98900262241215,
                            "duration" : 30
                          }
                        ]
                      },
                      "scale1" : {
                        "type" : "double",
                        "defaultValue" : 1.0,
                        "keyframes" : [
                          {
                            "endTime" : 1177,
                            "time" : 1147,
                            "value" : 1.98900308459974,
                            "duration" : 30
                          }
                        ]
                      },
                      "cursorOpacity" : 1.0,
                      "cursorScale" : 1.0
                    },
                    "medias" : [
                        {
                          "id" : 82,
                          "_type" : "ScreenVMFile",
                          "src" : 1,
                          "trackNumber" : 0,
                          "attributes" : {
                            "ident" : "hijacking_ntfs_structs_attack_prevention"
                          },
                          "parameters" : {
                            "cursorScale" : {
                              "type" : "double",
                              "defaultValue" : 0.0,
                              "interp" : "linr"
                            },
                            "cursorOpacity" : {
                              "type" : "double",
                              "defaultValue" : 0.0,
                              "interp" : "linr"
                            }
                          },
                          "effects" : [

                          ],
                          "start" : 0,
                          "duration" : 1620,
                          "mediaStart" : 0,
                          "mediaDuration" : 1620,
                          "scalar" : 1,
                          "metadata" : {
                            "AutoAppliedSmartFocus" : "False",
                            "clipSpeedAttribute" : false,
                            "default-scale0" : 1.0,
                            "default-scale1" : 1.0,
                            "default-translation0" : 0.0,
                            "default-translation1" : 0.0
                          },
                          "animationTracks" : {

                          }
                        },
                        {
                          "id" : 83,
                          "_type" : "ScreenIMFile",
                          "src" : 1,
                          "trackNumber" : 0,
                          "trimStartSum" : 0,
                          "attributes" : {
                            "ident" : "hijacking_ntfs_structs_attack_prevention"
                          },
                          "parameters" : {
                            "cursorOpacity" : 0.0,
                            "cursorScale" : 0.0
                          },
                          "effects" : [

                          ],
                          "start" : 1620,
                          "duration" : 30,
                          "mediaStart" : 1619,
                          "mediaDuration" : 1,
                          "scalar" : 1,
                          "metadata" : {
                            "AutoAppliedSmartFocus" : "False"
                          },
                          "animationTracks" : {

                          }
                        },
                        {
                          "id" : 84,
                          "_type" : "ScreenVMFile",
                          "src" : 1,
                          "trackNumber" : 0,
                          "attributes" : {
                            "ident" : "hijacking_ntfs_structs_attack_prevention"
                          },
                          "parameters" : {
                            "cursorScale" : {
                              "type" : "double",
                              "defaultValue" : 0.0,
                              "interp" : "linr"
                            },
                            "cursorOpacity" : {
                              "type" : "double",
                              "defaultValue" : 0.0,
                              "interp" : "linr"
                            }
                          },
                          "effects" : [

                          ],
                          "start" : 1650,
                          "duration" : 5413,
                          "mediaStart" : 1620,
                          "mediaDuration" : 5413,
                          "scalar" : 1,
                          "metadata" : {
                            "AutoAppliedSmartFocus" : "False",
                            "clipSpeedAttribute" : false,
                            "default-scale0" : 1.0,
                            "default-scale1" : 1.0,
                            "default-translation0" : 0.0,
                            "default-translation1" : 0.0
                          },
                          "animationTracks" : {

                          }
                        }
                    ],
                    "effects" : [
                        {
                          "effectName" : "CursorHilight",
                          "category" : "categoryCursorEffects",
                          "parameters" : {
                            "blur" : 0.1,
                            "color-alpha" : 0.75,
                            "color-blue" : 0.0,
                            "color-green" : 1.0,
                            "color-red" : 1.0,
                            "radius" : 50.0
                          }
                        }
                    ],
                    "start" : 863,
                    "duration" : 65,
                    "mediaStart" : 2240,
                    "mediaDuration" : 105,
                    "scalar" : "13/21",
                    "metadata" : {
                      "AutoAppliedSmartFocus" : "False",
                      "clipSpeedAttribute" : true
                    },
                    "animationTracks" : {
                      "visual" : [
                        {
                          "endTime" : 1177,
                          "duration" : 30,
                          "range" : [ 1147, 30]
                        },
                        {
                          "endTime" : 1449,
                          "duration" : 30,
                          "range" : [ 1419, 30]
                        }
                      ]
                    }
                  },
                  {
                    "id" : 85,
                    "_type" : "StitchedMedia",
                    "minMediaStart" : 0,
                    "attributes" : {
                      "ident" : "hijacking_ntfs_structs_attack_prevention",
                      "gain" : 1.0,
                      "mixToMono" : false
                    },
                    "parameters" : {
                      "translation0" : {
                        "type" : "double",
                        "defaultValue" : 0.0,
                        "keyframes" : [
                          {
                            "endTime" : 1177,
                            "time" : 1147,
                            "value" : 948.478453192254,
                            "duration" : 30
                          },
                          {
                            "endTime" : 1449,
                            "time" : 1419,
                            "value" : 948.478364944437,
                            "duration" : 30
                          },
                          {
                            "endTime" : 2575,
                            "time" : 2545,
                            "value" : 5.6843418860808e-14,
                            "duration" : 30
                          }
                        ]
                      },
                      "translation1" : {
                        "type" : "double",
                        "defaultValue" : 0.0,
                        "keyframes" : [
                          {
                            "endTime" : 1177,
                            "time" : 1147,
                            "value" : -426.526455592595,
                            "duration" : 30
                          },
                          {
                            "endTime" : 1449,
                            "time" : 1419,
                            "value" : -100.3,
                            "duration" : 30
                          },
                          {
                            "endTime" : 2575,
                            "time" : 2545,
                            "value" : -4.9737991503207e-14,
                            "duration" : 30
                          }
                        ]
                      },
                      "scale0" : {
                        "type" : "double",
                        "defaultValue" : 1.0,
                        "keyframes" : [
                          {
                            "endTime" : 1177,
                            "time" : 1147,
                            "value" : 1.98900262241215,
                            "duration" : 30
                          },
                          {
                            "endTime" : 2575,
                            "time" : 2545,
                            "value" : 0.999999767628522,
                            "duration" : 30
                          }
                        ]
                      },
                      "scale1" : {
                        "type" : "double",
                        "defaultValue" : 1.0,
                        "keyframes" : [
                          {
                            "endTime" : 1177,
                            "time" : 1147,
                            "value" : 1.98900308459974,
                            "duration" : 30
                          },
                          {
                            "endTime" : 2575,
                            "time" : 2545,
                            "value" : 1.0,
                            "duration" : 30
                          }
                        ]
                      },
                      "cursorOpacity" : 1.0,
                      "cursorScale" : 1.0
                    },
                    "medias" : [
                        {
                          "id" : 86,
                          "_type" : "ScreenVMFile",
                          "src" : 1,
                          "trackNumber" : 0,
                          "attributes" : {
                            "ident" : "hijacking_ntfs_structs_attack_prevention"
                          },
                          "parameters" : {
                            "cursorScale" : {
                              "type" : "double",
                              "defaultValue" : 0.0,
                              "interp" : "linr"
                            },
                            "cursorOpacity" : {
                              "type" : "double",
                              "defaultValue" : 0.0,
                              "interp" : "linr"
                            }
                          },
                          "effects" : [

                          ],
                          "start" : 0,
                          "duration" : 1620,
                          "mediaStart" : 0,
                          "mediaDuration" : 1620,
                          "scalar" : 1,
                          "metadata" : {
                            "AutoAppliedSmartFocus" : "False",
                            "clipSpeedAttribute" : false,
                            "default-scale0" : 1.0,
                            "default-scale1" : 1.0,
                            "default-translation0" : 0.0,
                            "default-translation1" : 0.0
                          },
                          "animationTracks" : {

                          }
                        },
                        {
                          "id" : 87,
                          "_type" : "ScreenIMFile",
                          "src" : 1,
                          "trackNumber" : 0,
                          "trimStartSum" : 0,
                          "attributes" : {
                            "ident" : "hijacking_ntfs_structs_attack_prevention"
                          },
                          "parameters" : {
                            "cursorOpacity" : 0.0,
                            "cursorScale" : 0.0
                          },
                          "effects" : [

                          ],
                          "start" : 1620,
                          "duration" : 30,
                          "mediaStart" : 1619,
                          "mediaDuration" : 1,
                          "scalar" : 1,
                          "metadata" : {
                            "AutoAppliedSmartFocus" : "False"
                          },
                          "animationTracks" : {

                          }
                        },
                        {
                          "id" : 88,
                          "_type" : "ScreenVMFile",
                          "src" : 1,
                          "trackNumber" : 0,
                          "attributes" : {
                            "ident" : "hijacking_ntfs_structs_attack_prevention"
                          },
                          "parameters" : {
                            "cursorScale" : {
                              "type" : "double",
                              "defaultValue" : 0.0,
                              "interp" : "linr"
                            },
                            "cursorOpacity" : {
                              "type" : "double",
                              "defaultValue" : 0.0,
                              "interp" : "linr"
                            }
                          },
                          "effects" : [

                          ],
                          "start" : 1650,
                          "duration" : 749,
                          "mediaStart" : 1620,
                          "mediaDuration" : 749,
                          "scalar" : 1,
                          "metadata" : {
                            "AutoAppliedSmartFocus" : "False",
                            "clipSpeedAttribute" : false,
                            "default-scale0" : 1.0,
                            "default-scale1" : 1.0,
                            "default-translation0" : 0.0,
                            "default-translation1" : 0.0
                          },
                          "animationTracks" : {

                          }
                        },
                        {
                          "id" : 89,
                          "_type" : "ScreenIMFile",
                          "src" : 1,
                          "trackNumber" : 0,
                          "trimStartSum" : 0,
                          "attributes" : {
                            "ident" : "hijacking_ntfs_structs_attack_prevention"
                          },
                          "parameters" : {
                            "cursorOpacity" : 0.0,
                            "cursorScale" : 0.0
                          },
                          "effects" : [

                          ],
                          "start" : 2399,
                          "duration" : 131,
                          "mediaStart" : 2369,
                          "mediaDuration" : 1,
                          "scalar" : 1,
                          "metadata" : {
                            "AutoAppliedSmartFocus" : "False"
                          },
                          "animationTracks" : {

                          }
                        },
                        {
                          "id" : 90,
                          "_type" : "ScreenVMFile",
                          "src" : 1,
                          "trackNumber" : 0,
                          "attributes" : {
                            "ident" : "hijacking_ntfs_structs_attack_prevention"
                          },
                          "parameters" : {
                            "cursorScale" : {
                              "type" : "double",
                              "defaultValue" : 0.0,
                              "interp" : "linr"
                            },
                            "cursorOpacity" : {
                              "type" : "double",
                              "defaultValue" : 0.0,
                              "interp" : "linr"
                            }
                          },
                          "effects" : [

                          ],
                          "start" : 2530,
                          "duration" : 67,
                          "mediaStart" : 2369,
                          "mediaDuration" : 67,
                          "scalar" : 1,
                          "metadata" : {
                            "AutoAppliedSmartFocus" : "False",
                            "clipSpeedAttribute" : false,
                            "default-scale0" : 1.0,
                            "default-scale1" : 1.0,
                            "default-translation0" : 0.0,
                            "default-translation1" : 0.0
                          },
                          "animationTracks" : {

                          }
                        },
                        {
                          "id" : 91,
                          "_type" : "ScreenIMFile",
                          "src" : 1,
                          "trackNumber" : 0,
                          "trimStartSum" : 0,
                          "attributes" : {
                            "ident" : "hijacking_ntfs_structs_attack_prevention"
                          },
                          "parameters" : {
                            "cursorOpacity" : 0.0,
                            "cursorScale" : 0.0
                          },
                          "effects" : [

                          ],
                          "start" : 2597,
                          "duration" : 60,
                          "mediaStart" : 2436,
                          "mediaDuration" : 1,
                          "scalar" : 1,
                          "metadata" : {
                            "AutoAppliedSmartFocus" : "False"
                          },
                          "animationTracks" : {

                          }
                        },
                        {
                          "id" : 92,
                          "_type" : "ScreenVMFile",
                          "src" : 1,
                          "trackNumber" : 0,
                          "attributes" : {
                            "ident" : "hijacking_ntfs_structs_attack_prevention"
                          },
                          "parameters" : {
                            "cursorScale" : {
                              "type" : "double",
                              "defaultValue" : 0.0,
                              "interp" : "linr"
                            },
                            "cursorOpacity" : {
                              "type" : "double",
                              "defaultValue" : 0.0,
                              "interp" : "linr"
                            }
                          },
                          "effects" : [

                          ],
                          "start" : 2657,
                          "duration" : 4597,
                          "mediaStart" : 2436,
                          "mediaDuration" : 4597,
                          "scalar" : 1,
                          "metadata" : {
                            "AutoAppliedSmartFocus" : "False",
                            "clipSpeedAttribute" : false,
                            "default-scale0" : 1.0,
                            "default-scale1" : 1.0,
                            "default-translation0" : 0.0,
                            "default-translation1" : 0.0
                          },
                          "animationTracks" : {

                          }
                        }
                    ],
                    "effects" : [
                        {
                          "effectName" : "CursorHilight",
                          "category" : "categoryCursorEffects",
                          "parameters" : {
                            "blur" : 0.1,
                            "color-alpha" : 0.75,
                            "color-blue" : 0.0,
                            "color-green" : 1.0,
                            "color-red" : 1.0,
                            "radius" : 50.0
                          }
                        }
                    ],
                    "start" : 928,
                    "duration" : 195,
                    "mediaStart" : 2345,
                    "mediaDuration" : 195,
                    "scalar" : 1,
                    "metadata" : {
                      "AutoAppliedSmartFocus" : "False",
                      "clipSpeedAttribute" : false
                    },
                    "animationTracks" : {
                      "visual" : [
                        {
                          "endTime" : 1177,
                          "duration" : 30,
                          "range" : [ 1147, 30]
                        },
                        {
                          "endTime" : 1449,
                          "duration" : 30,
                          "range" : [ 1419, 30]
                        },
                        {
                          "endTime" : 2575,
                          "duration" : 30,
                          "range" : [ 2545, 30]
                        }
                      ]
                    }
                  },
                  {
                    "id" : 93,
                    "_type" : "StitchedMedia",
                    "minMediaStart" : 0,
                    "attributes" : {
                      "ident" : "hijacking_ntfs_structs_attack_prevention",
                      "gain" : 1.0,
                      "mixToMono" : false
                    },
                    "parameters" : {
                      "translation0" : {
                        "type" : "double",
                        "defaultValue" : 0.0,
                        "keyframes" : [
                          {
                            "endTime" : 1177,
                            "time" : 1147,
                            "value" : 948.478453192254,
                            "duration" : 30
                          },
                          {
                            "endTime" : 1449,
                            "time" : 1419,
                            "value" : 948.478364944437,
                            "duration" : 30
                          },
                          {
                            "endTime" : 2474,
                            "time" : 2444,
                            "value" : 5.6843418860808e-14,
                            "duration" : 30
                          }
                        ]
                      },
                      "translation1" : {
                        "type" : "double",
                        "defaultValue" : 0.0,
                        "keyframes" : [
                          {
                            "endTime" : 1177,
                            "time" : 1147,
                            "value" : -426.526455592595,
                            "duration" : 30
                          },
                          {
                            "endTime" : 1449,
                            "time" : 1419,
                            "value" : -100.3,
                            "duration" : 30
                          },
                          {
                            "endTime" : 2474,
                            "time" : 2444,
                            "value" : -4.9737991503207e-14,
                            "duration" : 30
                          }
                        ]
                      },
                      "scale0" : {
                        "type" : "double",
                        "defaultValue" : 1.0,
                        "keyframes" : [
                          {
                            "endTime" : 1177,
                            "time" : 1147,
                            "value" : 1.98900262241215,
                            "duration" : 30
                          },
                          {
                            "endTime" : 2474,
                            "time" : 2444,
                            "value" : 0.999999767628522,
                            "duration" : 30
                          }
                        ]
                      },
                      "scale1" : {
                        "type" : "double",
                        "defaultValue" : 1.0,
                        "keyframes" : [
                          {
                            "endTime" : 1177,
                            "time" : 1147,
                            "value" : 1.98900308459974,
                            "duration" : 30
                          },
                          {
                            "endTime" : 2474,
                            "time" : 2444,
                            "value" : 1.0,
                            "duration" : 30
                          }
                        ]
                      },
                      "cursorOpacity" : 1.0,
                      "cursorScale" : 1.0
                    },
                    "medias" : [
                        {
                          "id" : 94,
                          "_type" : "ScreenVMFile",
                          "src" : 1,
                          "trackNumber" : 0,
                          "attributes" : {
                            "ident" : "hijacking_ntfs_structs_attack_prevention"
                          },
                          "parameters" : {
                            "cursorScale" : {
                              "type" : "double",
                              "defaultValue" : 0.0,
                              "interp" : "linr"
                            },
                            "cursorOpacity" : {
                              "type" : "double",
                              "defaultValue" : 0.0,
                              "interp" : "linr"
                            }
                          },
                          "effects" : [

                          ],
                          "start" : 0,
                          "duration" : 1620,
                          "mediaStart" : 0,
                          "mediaDuration" : 1620,
                          "scalar" : 1,
                          "metadata" : {
                            "AutoAppliedSmartFocus" : "False",
                            "clipSpeedAttribute" : false,
                            "default-scale0" : 1.0,
                            "default-scale1" : 1.0,
                            "default-translation0" : 0.0,
                            "default-translation1" : 0.0
                          },
                          "animationTracks" : {

                          }
                        },
                        {
                          "id" : 95,
                          "_type" : "ScreenIMFile",
                          "src" : 1,
                          "trackNumber" : 0,
                          "trimStartSum" : 0,
                          "attributes" : {
                            "ident" : "hijacking_ntfs_structs_attack_prevention"
                          },
                          "parameters" : {
                            "cursorOpacity" : 0.0,
                            "cursorScale" : 0.0
                          },
                          "effects" : [

                          ],
                          "start" : 1620,
                          "duration" : 30,
                          "mediaStart" : 1619,
                          "mediaDuration" : 1,
                          "scalar" : 1,
                          "metadata" : {
                            "AutoAppliedSmartFocus" : "False"
                          },
                          "animationTracks" : {

                          }
                        },
                        {
                          "id" : 96,
                          "_type" : "ScreenVMFile",
                          "src" : 1,
                          "trackNumber" : 0,
                          "attributes" : {
                            "ident" : "hijacking_ntfs_structs_attack_prevention"
                          },
                          "parameters" : {
                            "cursorScale" : {
                              "type" : "double",
                              "defaultValue" : 0.0,
                              "interp" : "linr"
                            },
                            "cursorOpacity" : {
                              "type" : "double",
                              "defaultValue" : 0.0,
                              "interp" : "linr"
                            }
                          },
                          "effects" : [

                          ],
                          "start" : 1650,
                          "duration" : 749,
                          "mediaStart" : 1620,
                          "mediaDuration" : 749,
                          "scalar" : 1,
                          "metadata" : {
                            "AutoAppliedSmartFocus" : "False",
                            "clipSpeedAttribute" : false,
                            "default-scale0" : 1.0,
                            "default-scale1" : 1.0,
                            "default-translation0" : 0.0,
                            "default-translation1" : 0.0
                          },
                          "animationTracks" : {

                          }
                        },
                        {
                          "id" : 97,
                          "_type" : "ScreenIMFile",
                          "src" : 1,
                          "trackNumber" : 0,
                          "trimStartSum" : 0,
                          "attributes" : {
                            "ident" : "hijacking_ntfs_structs_attack_prevention"
                          },
                          "parameters" : {
                            "cursorOpacity" : 0.0,
                            "cursorScale" : 0.0
                          },
                          "effects" : [

                          ],
                          "start" : 2399,
                          "duration" : 30,
                          "mediaStart" : 2369,
                          "mediaDuration" : 1,
                          "scalar" : 1,
                          "metadata" : {
                            "AutoAppliedSmartFocus" : "False"
                          },
                          "animationTracks" : {

                          }
                        },
                        {
                          "id" : 98,
                          "_type" : "ScreenVMFile",
                          "src" : 1,
                          "trackNumber" : 0,
                          "attributes" : {
                            "ident" : "hijacking_ntfs_structs_attack_prevention"
                          },
                          "parameters" : {
                            "cursorScale" : {
                              "type" : "double",
                              "defaultValue" : 0.0,
                              "interp" : "linr"
                            },
                            "cursorOpacity" : {
                              "type" : "double",
                              "defaultValue" : 0.0,
                              "interp" : "linr"
                            }
                          },
                          "effects" : [

                          ],
                          "start" : 2429,
                          "duration" : 67,
                          "mediaStart" : 2369,
                          "mediaDuration" : 67,
                          "scalar" : 1,
                          "metadata" : {
                            "AutoAppliedSmartFocus" : "False",
                            "clipSpeedAttribute" : false,
                            "default-scale0" : 1.0,
                            "default-scale1" : 1.0,
                            "default-translation0" : 0.0,
                            "default-translation1" : 0.0
                          },
                          "animationTracks" : {

                          }
                        },
                        {
                          "id" : 99,
                          "_type" : "ScreenIMFile",
                          "src" : 1,
                          "trackNumber" : 0,
                          "trimStartSum" : 0,
                          "attributes" : {
                            "ident" : "hijacking_ntfs_structs_attack_prevention"
                          },
                          "parameters" : {
                            "cursorOpacity" : 0.0,
                            "cursorScale" : 0.0
                          },
                          "effects" : [

                          ],
                          "start" : 2496,
                          "duration" : 60,
                          "mediaStart" : 2436,
                          "mediaDuration" : 1,
                          "scalar" : 1,
                          "metadata" : {
                            "AutoAppliedSmartFocus" : "False"
                          },
                          "animationTracks" : {

                          }
                        },
                        {
                          "id" : 100,
                          "_type" : "ScreenVMFile",
                          "src" : 1,
                          "trackNumber" : 0,
                          "attributes" : {
                            "ident" : "hijacking_ntfs_structs_attack_prevention"
                          },
                          "parameters" : {
                            "cursorScale" : {
                              "type" : "double",
                              "defaultValue" : 0.0,
                              "interp" : "linr"
                            },
                            "cursorOpacity" : {
                              "type" : "double",
                              "defaultValue" : 0.0,
                              "interp" : "linr"
                            }
                          },
                          "effects" : [

                          ],
                          "start" : 2556,
                          "duration" : 4597,
                          "mediaStart" : 2436,
                          "mediaDuration" : 4597,
                          "scalar" : 1,
                          "metadata" : {
                            "AutoAppliedSmartFocus" : "False",
                            "clipSpeedAttribute" : false,
                            "default-scale0" : 1.0,
                            "default-scale1" : 1.0,
                            "default-translation0" : 0.0,
                            "default-translation1" : 0.0
                          },
                          "animationTracks" : {

                          }
                        }
                    ],
                    "effects" : [
                        {
                          "effectName" : "CursorHilight",
                          "category" : "categoryCursorEffects",
                          "parameters" : {
                            "blur" : 0.1,
                            "color-alpha" : 0.75,
                            "color-blue" : 0.0,
                            "color-green" : 1.0,
                            "color-red" : 1.0,
                            "radius" : 50.0
                          }
                        }
                    ],
                    "start" : 1123,
                    "duration" : 113,
                    "mediaStart" : 2439,
                    "mediaDuration" : 113,
                    "scalar" : 1,
                    "metadata" : {
                      "AutoAppliedSmartFocus" : "False",
                      "clipSpeedAttribute" : false
                    },
                    "animationTracks" : {
                      "visual" : [
                        {
                          "endTime" : 1177,
                          "duration" : 30,
                          "range" : [ 1147, 30]
                        },
                        {
                          "endTime" : 1449,
                          "duration" : 30,
                          "range" : [ 1419, 30]
                        },
                        {
                          "endTime" : 2474,
                          "duration" : 30,
                          "range" : [ 2444, 30]
                        }
                      ]
                    }
                  },
                  {
                    "id" : 101,
                    "_type" : "StitchedMedia",
                    "minMediaStart" : 0,
                    "attributes" : {
                      "ident" : "hijacking_ntfs_structs_attack_prevention",
                      "gain" : 1.0,
                      "mixToMono" : false
                    },
                    "parameters" : {
                      "translation0" : {
                        "type" : "double",
                        "defaultValue" : 0.0,
                        "keyframes" : [
                          {
                            "endTime" : 1177,
                            "time" : 1147,
                            "value" : 948.478453192254,
                            "duration" : 30
                          },
                          {
                            "endTime" : 1449,
                            "time" : 1419,
                            "value" : 948.478364944437,
                            "duration" : 30
                          },
                          {
                            "endTime" : 2474,
                            "time" : 2444,
                            "value" : 5.6843418860808e-14,
                            "duration" : 30
                          }
                        ]
                      },
                      "translation1" : {
                        "type" : "double",
                        "defaultValue" : 0.0,
                        "keyframes" : [
                          {
                            "endTime" : 1177,
                            "time" : 1147,
                            "value" : -426.526455592595,
                            "duration" : 30
                          },
                          {
                            "endTime" : 1449,
                            "time" : 1419,
                            "value" : -100.3,
                            "duration" : 30
                          },
                          {
                            "endTime" : 2474,
                            "time" : 2444,
                            "value" : -4.9737991503207e-14,
                            "duration" : 30
                          }
                        ]
                      },
                      "scale0" : {
                        "type" : "double",
                        "defaultValue" : 1.0,
                        "keyframes" : [
                          {
                            "endTime" : 1177,
                            "time" : 1147,
                            "value" : 1.98900262241215,
                            "duration" : 30
                          },
                          {
                            "endTime" : 2474,
                            "time" : 2444,
                            "value" : 0.999999767628522,
                            "duration" : 30
                          }
                        ]
                      },
                      "scale1" : {
                        "type" : "double",
                        "defaultValue" : 1.0,
                        "keyframes" : [
                          {
                            "endTime" : 1177,
                            "time" : 1147,
                            "value" : 1.98900308459974,
                            "duration" : 30
                          },
                          {
                            "endTime" : 2474,
                            "time" : 2444,
                            "value" : 1.0,
                            "duration" : 30
                          }
                        ]
                      },
                      "cursorOpacity" : 1.0,
                      "cursorScale" : 1.0
                    },
                    "medias" : [
                        {
                          "id" : 102,
                          "_type" : "ScreenVMFile",
                          "src" : 1,
                          "trackNumber" : 0,
                          "attributes" : {
                            "ident" : "hijacking_ntfs_structs_attack_prevention"
                          },
                          "parameters" : {
                            "cursorScale" : {
                              "type" : "double",
                              "defaultValue" : 0.0,
                              "interp" : "linr"
                            },
                            "cursorOpacity" : {
                              "type" : "double",
                              "defaultValue" : 0.0,
                              "interp" : "linr"
                            }
                          },
                          "effects" : [

                          ],
                          "start" : 0,
                          "duration" : 1620,
                          "mediaStart" : 0,
                          "mediaDuration" : 1620,
                          "scalar" : 1,
                          "metadata" : {
                            "AutoAppliedSmartFocus" : "False",
                            "clipSpeedAttribute" : false,
                            "default-scale0" : 1.0,
                            "default-scale1" : 1.0,
                            "default-translation0" : 0.0,
                            "default-translation1" : 0.0
                          },
                          "animationTracks" : {

                          }
                        },
                        {
                          "id" : 103,
                          "_type" : "ScreenIMFile",
                          "src" : 1,
                          "trackNumber" : 0,
                          "trimStartSum" : 0,
                          "attributes" : {
                            "ident" : "hijacking_ntfs_structs_attack_prevention"
                          },
                          "parameters" : {
                            "cursorOpacity" : 0.0,
                            "cursorScale" : 0.0
                          },
                          "effects" : [

                          ],
                          "start" : 1620,
                          "duration" : 30,
                          "mediaStart" : 1619,
                          "mediaDuration" : 1,
                          "scalar" : 1,
                          "metadata" : {
                            "AutoAppliedSmartFocus" : "False"
                          },
                          "animationTracks" : {

                          }
                        },
                        {
                          "id" : 104,
                          "_type" : "ScreenVMFile",
                          "src" : 1,
                          "trackNumber" : 0,
                          "attributes" : {
                            "ident" : "hijacking_ntfs_structs_attack_prevention"
                          },
                          "parameters" : {
                            "cursorScale" : {
                              "type" : "double",
                              "defaultValue" : 0.0,
                              "interp" : "linr"
                            },
                            "cursorOpacity" : {
                              "type" : "double",
                              "defaultValue" : 0.0,
                              "interp" : "linr"
                            }
                          },
                          "effects" : [

                          ],
                          "start" : 1650,
                          "duration" : 749,
                          "mediaStart" : 1620,
                          "mediaDuration" : 749,
                          "scalar" : 1,
                          "metadata" : {
                            "AutoAppliedSmartFocus" : "False",
                            "clipSpeedAttribute" : false,
                            "default-scale0" : 1.0,
                            "default-scale1" : 1.0,
                            "default-translation0" : 0.0,
                            "default-translation1" : 0.0
                          },
                          "animationTracks" : {

                          }
                        },
                        {
                          "id" : 105,
                          "_type" : "ScreenIMFile",
                          "src" : 1,
                          "trackNumber" : 0,
                          "trimStartSum" : 0,
                          "attributes" : {
                            "ident" : "hijacking_ntfs_structs_attack_prevention"
                          },
                          "parameters" : {
                            "cursorOpacity" : 0.0,
                            "cursorScale" : 0.0
                          },
                          "effects" : [

                          ],
                          "start" : 2399,
                          "duration" : 30,
                          "mediaStart" : 2369,
                          "mediaDuration" : 1,
                          "scalar" : 1,
                          "metadata" : {
                            "AutoAppliedSmartFocus" : "False"
                          },
                          "animationTracks" : {

                          }
                        },
                        {
                          "id" : 106,
                          "_type" : "ScreenVMFile",
                          "src" : 1,
                          "trackNumber" : 0,
                          "attributes" : {
                            "ident" : "hijacking_ntfs_structs_attack_prevention"
                          },
                          "parameters" : {
                            "cursorScale" : {
                              "type" : "double",
                              "defaultValue" : 0.0,
                              "interp" : "linr"
                            },
                            "cursorOpacity" : {
                              "type" : "double",
                              "defaultValue" : 0.0,
                              "interp" : "linr"
                            }
                          },
                          "effects" : [

                          ],
                          "start" : 2429,
                          "duration" : 67,
                          "mediaStart" : 2369,
                          "mediaDuration" : 67,
                          "scalar" : 1,
                          "metadata" : {
                            "AutoAppliedSmartFocus" : "False",
                            "clipSpeedAttribute" : false,
                            "default-scale0" : 1.0,
                            "default-scale1" : 1.0,
                            "default-translation0" : 0.0,
                            "default-translation1" : 0.0
                          },
                          "animationTracks" : {

                          }
                        },
                        {
                          "id" : 107,
                          "_type" : "ScreenIMFile",
                          "src" : 1,
                          "trackNumber" : 0,
                          "trimStartSum" : 0,
                          "attributes" : {
                            "ident" : "hijacking_ntfs_structs_attack_prevention"
                          },
                          "parameters" : {
                            "cursorOpacity" : 0.0,
                            "cursorScale" : 0.0
                          },
                          "effects" : [

                          ],
                          "start" : 2496,
                          "duration" : 60,
                          "mediaStart" : 2436,
                          "mediaDuration" : 1,
                          "scalar" : 1,
                          "metadata" : {
                            "AutoAppliedSmartFocus" : "False"
                          },
                          "animationTracks" : {

                          }
                        },
                        {
                          "id" : 108,
                          "_type" : "ScreenVMFile",
                          "src" : 1,
                          "trackNumber" : 0,
                          "attributes" : {
                            "ident" : "hijacking_ntfs_structs_attack_prevention"
                          },
                          "parameters" : {
                            "cursorScale" : {
                              "type" : "double",
                              "defaultValue" : 0.0,
                              "interp" : "linr"
                            },
                            "cursorOpacity" : {
                              "type" : "double",
                              "defaultValue" : 0.0,
                              "interp" : "linr"
                            }
                          },
                          "effects" : [

                          ],
                          "start" : 2556,
                          "duration" : 4597,
                          "mediaStart" : 2436,
                          "mediaDuration" : 4597,
                          "scalar" : 1,
                          "metadata" : {
                            "AutoAppliedSmartFocus" : "False",
                            "clipSpeedAttribute" : false,
                            "default-scale0" : 1.0,
                            "default-scale1" : 1.0,
                            "default-translation0" : 0.0,
                            "default-translation1" : 0.0
                          },
                          "animationTracks" : {

                          }
                        }
                    ],
                    "effects" : [
                        {
                          "effectName" : "CursorHilight",
                          "category" : "categoryCursorEffects",
                          "parameters" : {
                            "blur" : 0.1,
                            "color-alpha" : 0.75,
                            "color-blue" : 0.0,
                            "color-green" : 1.0,
                            "color-red" : 1.0,
                            "radius" : 50.0
                          }
                        }
                    ],
                    "start" : 1236,
                    "duration" : 65,
                    "mediaStart" : 2552,
                    "mediaDuration" : 188,
                    "scalar" : "65/188",
                    "metadata" : {
                      "AutoAppliedSmartFocus" : "False",
                      "clipSpeedAttribute" : true
                    },
                    "animationTracks" : {
                      "visual" : [
                        {
                          "endTime" : 1177,
                          "duration" : 30,
                          "range" : [ 1147, 30]
                        },
                        {
                          "endTime" : 1449,
                          "duration" : 30,
                          "range" : [ 1419, 30]
                        },
                        {
                          "endTime" : 2474,
                          "duration" : 30,
                          "range" : [ 2444, 30]
                        }
                      ]
                    }
                  },
                  {
                    "id" : 109,
                    "_type" : "StitchedMedia",
                    "minMediaStart" : 0,
                    "attributes" : {
                      "ident" : "hijacking_ntfs_structs_attack_prevention",
                      "gain" : 1.0,
                      "mixToMono" : false
                    },
                    "parameters" : {
                      "translation0" : {
                        "type" : "double",
                        "defaultValue" : 0.0,
                        "keyframes" : [
                          {
                            "endTime" : 1177,
                            "time" : 1147,
                            "value" : 948.478453192254,
                            "duration" : 30
                          },
                          {
                            "endTime" : 1449,
                            "time" : 1419,
                            "value" : 948.478364944437,
                            "duration" : 30
                          },
                          {
                            "endTime" : 2474,
                            "time" : 2444,
                            "value" : 5.6843418860808e-14,
                            "duration" : 30
                          }
                        ]
                      },
                      "translation1" : {
                        "type" : "double",
                        "defaultValue" : 0.0,
                        "keyframes" : [
                          {
                            "endTime" : 1177,
                            "time" : 1147,
                            "value" : -426.526455592595,
                            "duration" : 30
                          },
                          {
                            "endTime" : 1449,
                            "time" : 1419,
                            "value" : -100.3,
                            "duration" : 30
                          },
                          {
                            "endTime" : 2474,
                            "time" : 2444,
                            "value" : -4.9737991503207e-14,
                            "duration" : 30
                          }
                        ]
                      },
                      "scale0" : {
                        "type" : "double",
                        "defaultValue" : 1.0,
                        "keyframes" : [
                          {
                            "endTime" : 1177,
                            "time" : 1147,
                            "value" : 1.98900262241215,
                            "duration" : 30
                          },
                          {
                            "endTime" : 2474,
                            "time" : 2444,
                            "value" : 0.999999767628522,
                            "duration" : 30
                          }
                        ]
                      },
                      "scale1" : {
                        "type" : "double",
                        "defaultValue" : 1.0,
                        "keyframes" : [
                          {
                            "endTime" : 1177,
                            "time" : 1147,
                            "value" : 1.98900308459974,
                            "duration" : 30
                          },
                          {
                            "endTime" : 2474,
                            "time" : 2444,
                            "value" : 1.0,
                            "duration" : 30
                          }
                        ]
                      },
                      "cursorOpacity" : 1.0,
                      "cursorScale" : 1.0
                    },
                    "medias" : [
                        {
                          "id" : 110,
                          "_type" : "ScreenVMFile",
                          "src" : 1,
                          "trackNumber" : 0,
                          "attributes" : {
                            "ident" : "hijacking_ntfs_structs_attack_prevention"
                          },
                          "parameters" : {
                            "cursorScale" : {
                              "type" : "double",
                              "defaultValue" : 0.0,
                              "interp" : "linr"
                            },
                            "cursorOpacity" : {
                              "type" : "double",
                              "defaultValue" : 0.0,
                              "interp" : "linr"
                            }
                          },
                          "effects" : [

                          ],
                          "start" : 0,
                          "duration" : 1620,
                          "mediaStart" : 0,
                          "mediaDuration" : 1620,
                          "scalar" : 1,
                          "metadata" : {
                            "AutoAppliedSmartFocus" : "False",
                            "clipSpeedAttribute" : false,
                            "default-scale0" : 1.0,
                            "default-scale1" : 1.0,
                            "default-translation0" : 0.0,
                            "default-translation1" : 0.0
                          },
                          "animationTracks" : {

                          }
                        },
                        {
                          "id" : 111,
                          "_type" : "ScreenIMFile",
                          "src" : 1,
                          "trackNumber" : 0,
                          "trimStartSum" : 0,
                          "attributes" : {
                            "ident" : "hijacking_ntfs_structs_attack_prevention"
                          },
                          "parameters" : {
                            "cursorOpacity" : 0.0,
                            "cursorScale" : 0.0
                          },
                          "effects" : [

                          ],
                          "start" : 1620,
                          "duration" : 30,
                          "mediaStart" : 1619,
                          "mediaDuration" : 1,
                          "scalar" : 1,
                          "metadata" : {
                            "AutoAppliedSmartFocus" : "False"
                          },
                          "animationTracks" : {

                          }
                        },
                        {
                          "id" : 112,
                          "_type" : "ScreenVMFile",
                          "src" : 1,
                          "trackNumber" : 0,
                          "attributes" : {
                            "ident" : "hijacking_ntfs_structs_attack_prevention"
                          },
                          "parameters" : {
                            "cursorScale" : {
                              "type" : "double",
                              "defaultValue" : 0.0,
                              "interp" : "linr"
                            },
                            "cursorOpacity" : {
                              "type" : "double",
                              "defaultValue" : 0.0,
                              "interp" : "linr"
                            }
                          },
                          "effects" : [

                          ],
                          "start" : 1650,
                          "duration" : 749,
                          "mediaStart" : 1620,
                          "mediaDuration" : 749,
                          "scalar" : 1,
                          "metadata" : {
                            "AutoAppliedSmartFocus" : "False",
                            "clipSpeedAttribute" : false,
                            "default-scale0" : 1.0,
                            "default-scale1" : 1.0,
                            "default-translation0" : 0.0,
                            "default-translation1" : 0.0
                          },
                          "animationTracks" : {

                          }
                        },
                        {
                          "id" : 113,
                          "_type" : "ScreenIMFile",
                          "src" : 1,
                          "trackNumber" : 0,
                          "trimStartSum" : 0,
                          "attributes" : {
                            "ident" : "hijacking_ntfs_structs_attack_prevention"
                          },
                          "parameters" : {
                            "cursorOpacity" : 0.0,
                            "cursorScale" : 0.0
                          },
                          "effects" : [

                          ],
                          "start" : 2399,
                          "duration" : 30,
                          "mediaStart" : 2369,
                          "mediaDuration" : 1,
                          "scalar" : 1,
                          "metadata" : {
                            "AutoAppliedSmartFocus" : "False"
                          },
                          "animationTracks" : {

                          }
                        },
                        {
                          "id" : 114,
                          "_type" : "ScreenVMFile",
                          "src" : 1,
                          "trackNumber" : 0,
                          "attributes" : {
                            "ident" : "hijacking_ntfs_structs_attack_prevention"
                          },
                          "parameters" : {
                            "cursorScale" : {
                              "type" : "double",
                              "defaultValue" : 0.0,
                              "interp" : "linr"
                            },
                            "cursorOpacity" : {
                              "type" : "double",
                              "defaultValue" : 0.0,
                              "interp" : "linr"
                            }
                          },
                          "effects" : [

                          ],
                          "start" : 2429,
                          "duration" : 67,
                          "mediaStart" : 2369,
                          "mediaDuration" : 67,
                          "scalar" : 1,
                          "metadata" : {
                            "AutoAppliedSmartFocus" : "False",
                            "clipSpeedAttribute" : false,
                            "default-scale0" : 1.0,
                            "default-scale1" : 1.0,
                            "default-translation0" : 0.0,
                            "default-translation1" : 0.0
                          },
                          "animationTracks" : {

                          }
                        },
                        {
                          "id" : 115,
                          "_type" : "ScreenIMFile",
                          "src" : 1,
                          "trackNumber" : 0,
                          "trimStartSum" : 0,
                          "attributes" : {
                            "ident" : "hijacking_ntfs_structs_attack_prevention"
                          },
                          "parameters" : {
                            "cursorOpacity" : 0.0,
                            "cursorScale" : 0.0
                          },
                          "effects" : [

                          ],
                          "start" : 2496,
                          "duration" : 60,
                          "mediaStart" : 2436,
                          "mediaDuration" : 1,
                          "scalar" : 1,
                          "metadata" : {
                            "AutoAppliedSmartFocus" : "False"
                          },
                          "animationTracks" : {

                          }
                        },
                        {
                          "id" : 116,
                          "_type" : "ScreenVMFile",
                          "src" : 1,
                          "trackNumber" : 0,
                          "attributes" : {
                            "ident" : "hijacking_ntfs_structs_attack_prevention"
                          },
                          "parameters" : {
                            "cursorScale" : {
                              "type" : "double",
                              "defaultValue" : 0.0,
                              "interp" : "linr"
                            },
                            "cursorOpacity" : {
                              "type" : "double",
                              "defaultValue" : 0.0,
                              "interp" : "linr"
                            }
                          },
                          "effects" : [

                          ],
                          "start" : 2556,
                          "duration" : 4597,
                          "mediaStart" : 2436,
                          "mediaDuration" : 4597,
                          "scalar" : 1,
                          "metadata" : {
                            "AutoAppliedSmartFocus" : "False",
                            "clipSpeedAttribute" : false,
                            "default-scale0" : 1.0,
                            "default-scale1" : 1.0,
                            "default-translation0" : 0.0,
                            "default-translation1" : 0.0
                          },
                          "animationTracks" : {

                          }
                        }
                    ],
                    "effects" : [
                        {
                          "effectName" : "CursorHilight",
                          "category" : "categoryCursorEffects",
                          "parameters" : {
                            "blur" : 0.1,
                            "color-alpha" : 0.75,
                            "color-blue" : 0.0,
                            "color-green" : 1.0,
                            "color-red" : 1.0,
                            "radius" : 50.0
                          }
                        }
                    ],
                    "start" : 1301,
                    "duration" : 10,
                    "mediaStart" : 2740,
                    "mediaDuration" : 10,
                    "scalar" : 1,
                    "metadata" : {
                      "AutoAppliedSmartFocus" : "False",
                      "clipSpeedAttribute" : false
                    },
                    "animationTracks" : {
                      "visual" : [
                        {
                          "endTime" : 1177,
                          "duration" : 30,
                          "range" : [ 1147, 30]
                        },
                        {
                          "endTime" : 1449,
                          "duration" : 30,
                          "range" : [ 1419, 30]
                        },
                        {
                          "endTime" : 2474,
                          "duration" : 30,
                          "range" : [ 2444, 30]
                        }
                      ]
                    }
                  },
                  {
                    "id" : 117,
                    "_type" : "StitchedMedia",
                    "minMediaStart" : 0,
                    "attributes" : {
                      "ident" : "hijacking_ntfs_structs_attack_prevention",
                      "gain" : 1.0,
                      "mixToMono" : false
                    },
                    "parameters" : {
                      "translation0" : {
                        "type" : "double",
                        "defaultValue" : 0.0,
                        "keyframes" : [
                          {
                            "endTime" : 1177,
                            "time" : 1147,
                            "value" : 948.478453192254,
                            "duration" : 30
                          },
                          {
                            "endTime" : 1449,
                            "time" : 1419,
                            "value" : 948.478364944437,
                            "duration" : 30
                          },
                          {
                            "endTime" : 2474,
                            "time" : 2444,
                            "value" : 5.6843418860808e-14,
                            "duration" : 30
                          }
                        ]
                      },
                      "translation1" : {
                        "type" : "double",
                        "defaultValue" : 0.0,
                        "keyframes" : [
                          {
                            "endTime" : 1177,
                            "time" : 1147,
                            "value" : -426.526455592595,
                            "duration" : 30
                          },
                          {
                            "endTime" : 1449,
                            "time" : 1419,
                            "value" : -100.3,
                            "duration" : 30
                          },
                          {
                            "endTime" : 2474,
                            "time" : 2444,
                            "value" : -4.9737991503207e-14,
                            "duration" : 30
                          }
                        ]
                      },
                      "scale0" : {
                        "type" : "double",
                        "defaultValue" : 1.0,
                        "keyframes" : [
                          {
                            "endTime" : 1177,
                            "time" : 1147,
                            "value" : 1.98900262241215,
                            "duration" : 30
                          },
                          {
                            "endTime" : 2474,
                            "time" : 2444,
                            "value" : 0.999999767628522,
                            "duration" : 30
                          }
                        ]
                      },
                      "scale1" : {
                        "type" : "double",
                        "defaultValue" : 1.0,
                        "keyframes" : [
                          {
                            "endTime" : 1177,
                            "time" : 1147,
                            "value" : 1.98900308459974,
                            "duration" : 30
                          },
                          {
                            "endTime" : 2474,
                            "time" : 2444,
                            "value" : 1.0,
                            "duration" : 30
                          }
                        ]
                      },
                      "cursorOpacity" : 1.0,
                      "cursorScale" : 1.0
                    },
                    "medias" : [
                        {
                          "id" : 118,
                          "_type" : "ScreenVMFile",
                          "src" : 1,
                          "trackNumber" : 0,
                          "attributes" : {
                            "ident" : "hijacking_ntfs_structs_attack_prevention"
                          },
                          "parameters" : {
                            "cursorScale" : {
                              "type" : "double",
                              "defaultValue" : 0.0,
                              "interp" : "linr"
                            },
                            "cursorOpacity" : {
                              "type" : "double",
                              "defaultValue" : 0.0,
                              "interp" : "linr"
                            }
                          },
                          "effects" : [

                          ],
                          "start" : 0,
                          "duration" : 1620,
                          "mediaStart" : 0,
                          "mediaDuration" : 1620,
                          "scalar" : 1,
                          "metadata" : {
                            "AutoAppliedSmartFocus" : "False",
                            "clipSpeedAttribute" : false,
                            "default-scale0" : 1.0,
                            "default-scale1" : 1.0,
                            "default-translation0" : 0.0,
                            "default-translation1" : 0.0
                          },
                          "animationTracks" : {

                          }
                        },
                        {
                          "id" : 119,
                          "_type" : "ScreenIMFile",
                          "src" : 1,
                          "trackNumber" : 0,
                          "trimStartSum" : 0,
                          "attributes" : {
                            "ident" : "hijacking_ntfs_structs_attack_prevention"
                          },
                          "parameters" : {
                            "cursorOpacity" : 0.0,
                            "cursorScale" : 0.0
                          },
                          "effects" : [

                          ],
                          "start" : 1620,
                          "duration" : 30,
                          "mediaStart" : 1619,
                          "mediaDuration" : 1,
                          "scalar" : 1,
                          "metadata" : {
                            "AutoAppliedSmartFocus" : "False"
                          },
                          "animationTracks" : {

                          }
                        },
                        {
                          "id" : 120,
                          "_type" : "ScreenVMFile",
                          "src" : 1,
                          "trackNumber" : 0,
                          "attributes" : {
                            "ident" : "hijacking_ntfs_structs_attack_prevention"
                          },
                          "parameters" : {
                            "cursorScale" : {
                              "type" : "double",
                              "defaultValue" : 0.0,
                              "interp" : "linr"
                            },
                            "cursorOpacity" : {
                              "type" : "double",
                              "defaultValue" : 0.0,
                              "interp" : "linr"
                            }
                          },
                          "effects" : [

                          ],
                          "start" : 1650,
                          "duration" : 749,
                          "mediaStart" : 1620,
                          "mediaDuration" : 749,
                          "scalar" : 1,
                          "metadata" : {
                            "AutoAppliedSmartFocus" : "False",
                            "clipSpeedAttribute" : false,
                            "default-scale0" : 1.0,
                            "default-scale1" : 1.0,
                            "default-translation0" : 0.0,
                            "default-translation1" : 0.0
                          },
                          "animationTracks" : {

                          }
                        },
                        {
                          "id" : 121,
                          "_type" : "ScreenIMFile",
                          "src" : 1,
                          "trackNumber" : 0,
                          "trimStartSum" : 0,
                          "attributes" : {
                            "ident" : "hijacking_ntfs_structs_attack_prevention"
                          },
                          "parameters" : {
                            "cursorOpacity" : 0.0,
                            "cursorScale" : 0.0
                          },
                          "effects" : [

                          ],
                          "start" : 2399,
                          "duration" : 30,
                          "mediaStart" : 2369,
                          "mediaDuration" : 1,
                          "scalar" : 1,
                          "metadata" : {
                            "AutoAppliedSmartFocus" : "False"
                          },
                          "animationTracks" : {

                          }
                        },
                        {
                          "id" : 122,
                          "_type" : "ScreenVMFile",
                          "src" : 1,
                          "trackNumber" : 0,
                          "attributes" : {
                            "ident" : "hijacking_ntfs_structs_attack_prevention"
                          },
                          "parameters" : {
                            "cursorScale" : {
                              "type" : "double",
                              "defaultValue" : 0.0,
                              "interp" : "linr"
                            },
                            "cursorOpacity" : {
                              "type" : "double",
                              "defaultValue" : 0.0,
                              "interp" : "linr"
                            }
                          },
                          "effects" : [

                          ],
                          "start" : 2429,
                          "duration" : 67,
                          "mediaStart" : 2369,
                          "mediaDuration" : 67,
                          "scalar" : 1,
                          "metadata" : {
                            "AutoAppliedSmartFocus" : "False",
                            "clipSpeedAttribute" : false,
                            "default-scale0" : 1.0,
                            "default-scale1" : 1.0,
                            "default-translation0" : 0.0,
                            "default-translation1" : 0.0
                          },
                          "animationTracks" : {

                          }
                        },
                        {
                          "id" : 123,
                          "_type" : "ScreenIMFile",
                          "src" : 1,
                          "trackNumber" : 0,
                          "trimStartSum" : 0,
                          "attributes" : {
                            "ident" : "hijacking_ntfs_structs_attack_prevention"
                          },
                          "parameters" : {
                            "cursorOpacity" : 0.0,
                            "cursorScale" : 0.0
                          },
                          "effects" : [

                          ],
                          "start" : 2496,
                          "duration" : 60,
                          "mediaStart" : 2436,
                          "mediaDuration" : 1,
                          "scalar" : 1,
                          "metadata" : {
                            "AutoAppliedSmartFocus" : "False"
                          },
                          "animationTracks" : {

                          }
                        },
                        {
                          "id" : 124,
                          "_type" : "ScreenVMFile",
                          "src" : 1,
                          "trackNumber" : 0,
                          "attributes" : {
                            "ident" : "hijacking_ntfs_structs_attack_prevention"
                          },
                          "parameters" : {
                            "cursorScale" : {
                              "type" : "double",
                              "defaultValue" : 0.0,
                              "interp" : "linr"
                            },
                            "cursorOpacity" : {
                              "type" : "double",
                              "defaultValue" : 0.0,
                              "interp" : "linr"
                            }
                          },
                          "effects" : [

                          ],
                          "start" : 2556,
                          "duration" : 4597,
                          "mediaStart" : 2436,
                          "mediaDuration" : 4597,
                          "scalar" : 1,
                          "metadata" : {
                            "AutoAppliedSmartFocus" : "False",
                            "clipSpeedAttribute" : false,
                            "default-scale0" : 1.0,
                            "default-scale1" : 1.0,
                            "default-translation0" : 0.0,
                            "default-translation1" : 0.0
                          },
                          "animationTracks" : {

                          }
                        }
                    ],
                    "effects" : [
                        {
                          "effectName" : "CursorHilight",
                          "category" : "categoryCursorEffects",
                          "parameters" : {
                            "blur" : 0.1,
                            "color-alpha" : 0.75,
                            "color-blue" : 0.0,
                            "color-green" : 1.0,
                            "color-red" : 1.0,
                            "radius" : 50.0
                          }
                        }
                    ],
                    "start" : 1311,
                    "duration" : 36,
                    "mediaStart" : 2777,
                    "mediaDuration" : 36,
                    "scalar" : 1,
                    "metadata" : {
                      "AutoAppliedSmartFocus" : "False",
                      "clipSpeedAttribute" : false
                    },
                    "animationTracks" : {
                      "visual" : [
                        {
                          "endTime" : 1177,
                          "duration" : 30,
                          "range" : [ 1147, 30]
                        },
                        {
                          "endTime" : 1449,
                          "duration" : 30,
                          "range" : [ 1419, 30]
                        },
                        {
                          "endTime" : 2474,
                          "duration" : 30,
                          "range" : [ 2444, 30]
                        }
                      ]
                    }
                  },
                  {
                    "id" : 125,
                    "_type" : "StitchedMedia",
                    "minMediaStart" : 0,
                    "attributes" : {
                      "ident" : "hijacking_ntfs_structs_attack_prevention",
                      "gain" : 1.0,
                      "mixToMono" : false
                    },
                    "parameters" : {
                      "translation0" : {
                        "type" : "double",
                        "defaultValue" : 0.0,
                        "keyframes" : [
                          {
                            "endTime" : 1177,
                            "time" : 1147,
                            "value" : 948.478453192254,
                            "duration" : 30
                          },
                          {
                            "endTime" : 1449,
                            "time" : 1419,
                            "value" : 948.478364944437,
                            "duration" : 30
                          },
                          {
                            "endTime" : 2474,
                            "time" : 2444,
                            "value" : 5.6843418860808e-14,
                            "duration" : 30
                          }
                        ]
                      },
                      "translation1" : {
                        "type" : "double",
                        "defaultValue" : 0.0,
                        "keyframes" : [
                          {
                            "endTime" : 1177,
                            "time" : 1147,
                            "value" : -426.526455592595,
                            "duration" : 30
                          },
                          {
                            "endTime" : 1449,
                            "time" : 1419,
                            "value" : -100.3,
                            "duration" : 30
                          },
                          {
                            "endTime" : 2474,
                            "time" : 2444,
                            "value" : -4.9737991503207e-14,
                            "duration" : 30
                          }
                        ]
                      },
                      "scale0" : {
                        "type" : "double",
                        "defaultValue" : 1.0,
                        "keyframes" : [
                          {
                            "endTime" : 1177,
                            "time" : 1147,
                            "value" : 1.98900262241215,
                            "duration" : 30
                          },
                          {
                            "endTime" : 2474,
                            "time" : 2444,
                            "value" : 0.999999767628522,
                            "duration" : 30
                          }
                        ]
                      },
                      "scale1" : {
                        "type" : "double",
                        "defaultValue" : 1.0,
                        "keyframes" : [
                          {
                            "endTime" : 1177,
                            "time" : 1147,
                            "value" : 1.98900308459974,
                            "duration" : 30
                          },
                          {
                            "endTime" : 2474,
                            "time" : 2444,
                            "value" : 1.0,
                            "duration" : 30
                          }
                        ]
                      },
                      "cursorOpacity" : 1.0,
                      "cursorScale" : 1.0
                    },
                    "medias" : [
                        {
                          "id" : 126,
                          "_type" : "ScreenVMFile",
                          "src" : 1,
                          "trackNumber" : 0,
                          "attributes" : {
                            "ident" : "hijacking_ntfs_structs_attack_prevention"
                          },
                          "parameters" : {
                            "cursorScale" : {
                              "type" : "double",
                              "defaultValue" : 0.0,
                              "interp" : "linr"
                            },
                            "cursorOpacity" : {
                              "type" : "double",
                              "defaultValue" : 0.0,
                              "interp" : "linr"
                            }
                          },
                          "effects" : [

                          ],
                          "start" : 0,
                          "duration" : 1620,
                          "mediaStart" : 0,
                          "mediaDuration" : 1620,
                          "scalar" : 1,
                          "metadata" : {
                            "AutoAppliedSmartFocus" : "False",
                            "clipSpeedAttribute" : false,
                            "default-scale0" : 1.0,
                            "default-scale1" : 1.0,
                            "default-translation0" : 0.0,
                            "default-translation1" : 0.0
                          },
                          "animationTracks" : {

                          }
                        },
                        {
                          "id" : 127,
                          "_type" : "ScreenIMFile",
                          "src" : 1,
                          "trackNumber" : 0,
                          "trimStartSum" : 0,
                          "attributes" : {
                            "ident" : "hijacking_ntfs_structs_attack_prevention"
                          },
                          "parameters" : {
                            "cursorOpacity" : 0.0,
                            "cursorScale" : 0.0
                          },
                          "effects" : [

                          ],
                          "start" : 1620,
                          "duration" : 30,
                          "mediaStart" : 1619,
                          "mediaDuration" : 1,
                          "scalar" : 1,
                          "metadata" : {
                            "AutoAppliedSmartFocus" : "False"
                          },
                          "animationTracks" : {

                          }
                        },
                        {
                          "id" : 128,
                          "_type" : "ScreenVMFile",
                          "src" : 1,
                          "trackNumber" : 0,
                          "attributes" : {
                            "ident" : "hijacking_ntfs_structs_attack_prevention"
                          },
                          "parameters" : {
                            "cursorScale" : {
                              "type" : "double",
                              "defaultValue" : 0.0,
                              "interp" : "linr"
                            },
                            "cursorOpacity" : {
                              "type" : "double",
                              "defaultValue" : 0.0,
                              "interp" : "linr"
                            }
                          },
                          "effects" : [

                          ],
                          "start" : 1650,
                          "duration" : 749,
                          "mediaStart" : 1620,
                          "mediaDuration" : 749,
                          "scalar" : 1,
                          "metadata" : {
                            "AutoAppliedSmartFocus" : "False",
                            "clipSpeedAttribute" : false,
                            "default-scale0" : 1.0,
                            "default-scale1" : 1.0,
                            "default-translation0" : 0.0,
                            "default-translation1" : 0.0
                          },
                          "animationTracks" : {

                          }
                        },
                        {
                          "id" : 129,
                          "_type" : "ScreenIMFile",
                          "src" : 1,
                          "trackNumber" : 0,
                          "trimStartSum" : 0,
                          "attributes" : {
                            "ident" : "hijacking_ntfs_structs_attack_prevention"
                          },
                          "parameters" : {
                            "cursorOpacity" : 0.0,
                            "cursorScale" : 0.0
                          },
                          "effects" : [

                          ],
                          "start" : 2399,
                          "duration" : 30,
                          "mediaStart" : 2369,
                          "mediaDuration" : 1,
                          "scalar" : 1,
                          "metadata" : {
                            "AutoAppliedSmartFocus" : "False"
                          },
                          "animationTracks" : {

                          }
                        },
                        {
                          "id" : 130,
                          "_type" : "ScreenVMFile",
                          "src" : 1,
                          "trackNumber" : 0,
                          "attributes" : {
                            "ident" : "hijacking_ntfs_structs_attack_prevention"
                          },
                          "parameters" : {
                            "cursorScale" : {
                              "type" : "double",
                              "defaultValue" : 0.0,
                              "interp" : "linr"
                            },
                            "cursorOpacity" : {
                              "type" : "double",
                              "defaultValue" : 0.0,
                              "interp" : "linr"
                            }
                          },
                          "effects" : [

                          ],
                          "start" : 2429,
                          "duration" : 67,
                          "mediaStart" : 2369,
                          "mediaDuration" : 67,
                          "scalar" : 1,
                          "metadata" : {
                            "AutoAppliedSmartFocus" : "False",
                            "clipSpeedAttribute" : false,
                            "default-scale0" : 1.0,
                            "default-scale1" : 1.0,
                            "default-translation0" : 0.0,
                            "default-translation1" : 0.0
                          },
                          "animationTracks" : {

                          }
                        },
                        {
                          "id" : 131,
                          "_type" : "ScreenIMFile",
                          "src" : 1,
                          "trackNumber" : 0,
                          "trimStartSum" : 0,
                          "attributes" : {
                            "ident" : "hijacking_ntfs_structs_attack_prevention"
                          },
                          "parameters" : {
                            "cursorOpacity" : 0.0,
                            "cursorScale" : 0.0
                          },
                          "effects" : [

                          ],
                          "start" : 2496,
                          "duration" : 60,
                          "mediaStart" : 2436,
                          "mediaDuration" : 1,
                          "scalar" : 1,
                          "metadata" : {
                            "AutoAppliedSmartFocus" : "False"
                          },
                          "animationTracks" : {

                          }
                        },
                        {
                          "id" : 132,
                          "_type" : "ScreenVMFile",
                          "src" : 1,
                          "trackNumber" : 0,
                          "attributes" : {
                            "ident" : "hijacking_ntfs_structs_attack_prevention"
                          },
                          "parameters" : {
                            "cursorScale" : {
                              "type" : "double",
                              "defaultValue" : 0.0,
                              "interp" : "linr"
                            },
                            "cursorOpacity" : {
                              "type" : "double",
                              "defaultValue" : 0.0,
                              "interp" : "linr"
                            }
                          },
                          "effects" : [

                          ],
                          "start" : 2556,
                          "duration" : 4597,
                          "mediaStart" : 2436,
                          "mediaDuration" : 4597,
                          "scalar" : 1,
                          "metadata" : {
                            "AutoAppliedSmartFocus" : "False",
                            "clipSpeedAttribute" : false,
                            "default-scale0" : 1.0,
                            "default-scale1" : 1.0,
                            "default-translation0" : 0.0,
                            "default-translation1" : 0.0
                          },
                          "animationTracks" : {

                          }
                        }
                    ],
                    "effects" : [
                        {
                          "effectName" : "CursorHilight",
                          "category" : "categoryCursorEffects",
                          "parameters" : {
                            "blur" : 0.1,
                            "color-alpha" : 0.75,
                            "color-blue" : 0.0,
                            "color-green" : 1.0,
                            "color-red" : 1.0,
                            "radius" : 50.0
                          }
                        }
                    ],
                    "start" : 1347,
                    "duration" : 33,
                    "mediaStart" : 2822,
                    "mediaDuration" : 271,
                    "scalar" : "33/271",
                    "metadata" : {
                      "AutoAppliedSmartFocus" : "False",
                      "clipSpeedAttribute" : true
                    },
                    "animationTracks" : {
                      "visual" : [
                        {
                          "endTime" : 1177,
                          "duration" : 30,
                          "range" : [ 1147, 30]
                        },
                        {
                          "endTime" : 1449,
                          "duration" : 30,
                          "range" : [ 1419, 30]
                        },
                        {
                          "endTime" : 2474,
                          "duration" : 30,
                          "range" : [ 2444, 30]
                        }
                      ]
                    }
                  },
                  {
                    "id" : 133,
                    "_type" : "StitchedMedia",
                    "minMediaStart" : 0,
                    "attributes" : {
                      "ident" : "hijacking_ntfs_structs_attack_prevention",
                      "gain" : 1.0,
                      "mixToMono" : false
                    },
                    "parameters" : {
                      "translation0" : {
                        "type" : "double",
                        "defaultValue" : 0.0,
                        "keyframes" : [
                          {
                            "endTime" : 1177,
                            "time" : 1147,
                            "value" : 948.478453192254,
                            "duration" : 30
                          },
                          {
                            "endTime" : 1449,
                            "time" : 1419,
                            "value" : 948.478364944437,
                            "duration" : 30
                          },
                          {
                            "endTime" : 2474,
                            "time" : 2444,
                            "value" : 5.6843418860808e-14,
                            "duration" : 30
                          }
                        ]
                      },
                      "translation1" : {
                        "type" : "double",
                        "defaultValue" : 0.0,
                        "keyframes" : [
                          {
                            "endTime" : 1177,
                            "time" : 1147,
                            "value" : -426.526455592595,
                            "duration" : 30
                          },
                          {
                            "endTime" : 1449,
                            "time" : 1419,
                            "value" : -100.3,
                            "duration" : 30
                          },
                          {
                            "endTime" : 2474,
                            "time" : 2444,
                            "value" : -4.9737991503207e-14,
                            "duration" : 30
                          }
                        ]
                      },
                      "scale0" : {
                        "type" : "double",
                        "defaultValue" : 1.0,
                        "keyframes" : [
                          {
                            "endTime" : 1177,
                            "time" : 1147,
                            "value" : 1.98900262241215,
                            "duration" : 30
                          },
                          {
                            "endTime" : 2474,
                            "time" : 2444,
                            "value" : 0.999999767628522,
                            "duration" : 30
                          }
                        ]
                      },
                      "scale1" : {
                        "type" : "double",
                        "defaultValue" : 1.0,
                        "keyframes" : [
                          {
                            "endTime" : 1177,
                            "time" : 1147,
                            "value" : 1.98900308459974,
                            "duration" : 30
                          },
                          {
                            "endTime" : 2474,
                            "time" : 2444,
                            "value" : 1.0,
                            "duration" : 30
                          }
                        ]
                      },
                      "cursorOpacity" : 1.0,
                      "cursorScale" : 1.0
                    },
                    "medias" : [
                        {
                          "id" : 134,
                          "_type" : "ScreenVMFile",
                          "src" : 1,
                          "trackNumber" : 0,
                          "attributes" : {
                            "ident" : "hijacking_ntfs_structs_attack_prevention"
                          },
                          "parameters" : {
                            "cursorScale" : {
                              "type" : "double",
                              "defaultValue" : 0.0,
                              "interp" : "linr"
                            },
                            "cursorOpacity" : {
                              "type" : "double",
                              "defaultValue" : 0.0,
                              "interp" : "linr"
                            }
                          },
                          "effects" : [

                          ],
                          "start" : 0,
                          "duration" : 1620,
                          "mediaStart" : 0,
                          "mediaDuration" : 1620,
                          "scalar" : 1,
                          "metadata" : {
                            "AutoAppliedSmartFocus" : "False",
                            "clipSpeedAttribute" : false,
                            "default-scale0" : 1.0,
                            "default-scale1" : 1.0,
                            "default-translation0" : 0.0,
                            "default-translation1" : 0.0
                          },
                          "animationTracks" : {

                          }
                        },
                        {
                          "id" : 135,
                          "_type" : "ScreenIMFile",
                          "src" : 1,
                          "trackNumber" : 0,
                          "trimStartSum" : 0,
                          "attributes" : {
                            "ident" : "hijacking_ntfs_structs_attack_prevention"
                          },
                          "parameters" : {
                            "cursorOpacity" : 0.0,
                            "cursorScale" : 0.0
                          },
                          "effects" : [

                          ],
                          "start" : 1620,
                          "duration" : 30,
                          "mediaStart" : 1619,
                          "mediaDuration" : 1,
                          "scalar" : 1,
                          "metadata" : {
                            "AutoAppliedSmartFocus" : "False"
                          },
                          "animationTracks" : {

                          }
                        },
                        {
                          "id" : 136,
                          "_type" : "ScreenVMFile",
                          "src" : 1,
                          "trackNumber" : 0,
                          "attributes" : {
                            "ident" : "hijacking_ntfs_structs_attack_prevention"
                          },
                          "parameters" : {
                            "cursorScale" : {
                              "type" : "double",
                              "defaultValue" : 0.0,
                              "interp" : "linr"
                            },
                            "cursorOpacity" : {
                              "type" : "double",
                              "defaultValue" : 0.0,
                              "interp" : "linr"
                            }
                          },
                          "effects" : [

                          ],
                          "start" : 1650,
                          "duration" : 749,
                          "mediaStart" : 1620,
                          "mediaDuration" : 749,
                          "scalar" : 1,
                          "metadata" : {
                            "AutoAppliedSmartFocus" : "False",
                            "clipSpeedAttribute" : false,
                            "default-scale0" : 1.0,
                            "default-scale1" : 1.0,
                            "default-translation0" : 0.0,
                            "default-translation1" : 0.0
                          },
                          "animationTracks" : {

                          }
                        },
                        {
                          "id" : 137,
                          "_type" : "ScreenIMFile",
                          "src" : 1,
                          "trackNumber" : 0,
                          "trimStartSum" : 0,
                          "attributes" : {
                            "ident" : "hijacking_ntfs_structs_attack_prevention"
                          },
                          "parameters" : {
                            "cursorOpacity" : 0.0,
                            "cursorScale" : 0.0
                          },
                          "effects" : [

                          ],
                          "start" : 2399,
                          "duration" : 30,
                          "mediaStart" : 2369,
                          "mediaDuration" : 1,
                          "scalar" : 1,
                          "metadata" : {
                            "AutoAppliedSmartFocus" : "False"
                          },
                          "animationTracks" : {

                          }
                        },
                        {
                          "id" : 138,
                          "_type" : "ScreenVMFile",
                          "src" : 1,
                          "trackNumber" : 0,
                          "attributes" : {
                            "ident" : "hijacking_ntfs_structs_attack_prevention"
                          },
                          "parameters" : {
                            "cursorScale" : {
                              "type" : "double",
                              "defaultValue" : 0.0,
                              "interp" : "linr"
                            },
                            "cursorOpacity" : {
                              "type" : "double",
                              "defaultValue" : 0.0,
                              "interp" : "linr"
                            }
                          },
                          "effects" : [

                          ],
                          "start" : 2429,
                          "duration" : 67,
                          "mediaStart" : 2369,
                          "mediaDuration" : 67,
                          "scalar" : 1,
                          "metadata" : {
                            "AutoAppliedSmartFocus" : "False",
                            "clipSpeedAttribute" : false,
                            "default-scale0" : 1.0,
                            "default-scale1" : 1.0,
                            "default-translation0" : 0.0,
                            "default-translation1" : 0.0
                          },
                          "animationTracks" : {

                          }
                        },
                        {
                          "id" : 139,
                          "_type" : "ScreenIMFile",
                          "src" : 1,
                          "trackNumber" : 0,
                          "trimStartSum" : 0,
                          "attributes" : {
                            "ident" : "hijacking_ntfs_structs_attack_prevention"
                          },
                          "parameters" : {
                            "cursorOpacity" : 0.0,
                            "cursorScale" : 0.0
                          },
                          "effects" : [

                          ],
                          "start" : 2496,
                          "duration" : 60,
                          "mediaStart" : 2436,
                          "mediaDuration" : 1,
                          "scalar" : 1,
                          "metadata" : {
                            "AutoAppliedSmartFocus" : "False"
                          },
                          "animationTracks" : {

                          }
                        },
                        {
                          "id" : 140,
                          "_type" : "ScreenVMFile",
                          "src" : 1,
                          "trackNumber" : 0,
                          "attributes" : {
                            "ident" : "hijacking_ntfs_structs_attack_prevention"
                          },
                          "parameters" : {
                            "cursorScale" : {
                              "type" : "double",
                              "defaultValue" : 0.0,
                              "interp" : "linr"
                            },
                            "cursorOpacity" : {
                              "type" : "double",
                              "defaultValue" : 0.0,
                              "interp" : "linr"
                            }
                          },
                          "effects" : [

                          ],
                          "start" : 2556,
                          "duration" : 4597,
                          "mediaStart" : 2436,
                          "mediaDuration" : 4597,
                          "scalar" : 1,
                          "metadata" : {
                            "AutoAppliedSmartFocus" : "False",
                            "clipSpeedAttribute" : false,
                            "default-scale0" : 1.0,
                            "default-scale1" : 1.0,
                            "default-translation0" : 0.0,
                            "default-translation1" : 0.0
                          },
                          "animationTracks" : {

                          }
                        }
                    ],
                    "effects" : [
                        {
                          "effectName" : "CursorHilight",
                          "category" : "categoryCursorEffects",
                          "parameters" : {
                            "blur" : 0.1,
                            "color-alpha" : 0.75,
                            "color-blue" : 0.0,
                            "color-green" : 1.0,
                            "color-red" : 1.0,
                            "radius" : 50.0
                          }
                        }
                    ],
                    "start" : 1380,
                    "duration" : 71,
                    "mediaStart" : 3093,
                    "mediaDuration" : 130,
                    "scalar" : "71/130",
                    "metadata" : {
                      "AutoAppliedSmartFocus" : "False",
                      "clipSpeedAttribute" : true
                    },
                    "animationTracks" : {
                      "visual" : [
                        {
                          "endTime" : 1177,
                          "duration" : 30,
                          "range" : [ 1147, 30]
                        },
                        {
                          "endTime" : 1449,
                          "duration" : 30,
                          "range" : [ 1419, 30]
                        },
                        {
                          "endTime" : 2474,
                          "duration" : 30,
                          "range" : [ 2444, 30]
                        }
                      ]
                    }
                  },
                  {
                    "id" : 141,
                    "_type" : "StitchedMedia",
                    "minMediaStart" : 0,
                    "attributes" : {
                      "ident" : "hijacking_ntfs_structs_attack_prevention",
                      "gain" : 1.0,
                      "mixToMono" : false
                    },
                    "parameters" : {
                      "translation0" : {
                        "type" : "double",
                        "defaultValue" : 0.0,
                        "keyframes" : [
                          {
                            "endTime" : 1177,
                            "time" : 1147,
                            "value" : 948.478453192254,
                            "duration" : 30
                          },
                          {
                            "endTime" : 1449,
                            "time" : 1419,
                            "value" : 948.478364944437,
                            "duration" : 30
                          },
                          {
                            "endTime" : 2474,
                            "time" : 2444,
                            "value" : 5.6843418860808e-14,
                            "duration" : 30
                          },
                          {
                            "endTime" : 3259,
                            "time" : 3229,
                            "value" : -774.930172418836,
                            "duration" : 30
                          }
                        ]
                      },
                      "translation1" : {
                        "type" : "double",
                        "defaultValue" : 0.0,
                        "keyframes" : [
                          {
                            "endTime" : 1177,
                            "time" : 1147,
                            "value" : -426.526455592595,
                            "duration" : 30
                          },
                          {
                            "endTime" : 1449,
                            "time" : 1419,
                            "value" : -100.3,
                            "duration" : 30
                          },
                          {
                            "endTime" : 2474,
                            "time" : 2444,
                            "value" : -4.9737991503207e-14,
                            "duration" : 30
                          },
                          {
                            "endTime" : 3259,
                            "time" : 3229,
                            "value" : -101.709492105514,
                            "duration" : 30
                          }
                        ]
                      },
                      "scale0" : {
                        "type" : "double",
                        "defaultValue" : 1.0,
                        "keyframes" : [
                          {
                            "endTime" : 1177,
                            "time" : 1147,
                            "value" : 1.98900262241215,
                            "duration" : 30
                          },
                          {
                            "endTime" : 2474,
                            "time" : 2444,
                            "value" : 0.999999767628522,
                            "duration" : 30
                          },
                          {
                            "endTime" : 3259,
                            "time" : 3229,
                            "value" : 2.22091728725881,
                            "duration" : 30
                          }
                        ]
                      },
                      "scale1" : {
                        "type" : "double",
                        "defaultValue" : 1.0,
                        "keyframes" : [
                          {
                            "endTime" : 1177,
                            "time" : 1147,
                            "value" : 1.98900308459974,
                            "duration" : 30
                          },
                          {
                            "endTime" : 2474,
                            "time" : 2444,
                            "value" : 1.0,
                            "duration" : 30
                          },
                          {
                            "endTime" : 3259,
                            "time" : 3229,
                            "value" : 2.22091777504271,
                            "duration" : 30
                          }
                        ]
                      },
                      "cursorOpacity" : 1.0,
                      "cursorScale" : 1.0
                    },
                    "medias" : [
                        {
                          "id" : 142,
                          "_type" : "ScreenVMFile",
                          "src" : 1,
                          "trackNumber" : 0,
                          "attributes" : {
                            "ident" : "hijacking_ntfs_structs_attack_prevention"
                          },
                          "parameters" : {
                            "cursorScale" : {
                              "type" : "double",
                              "defaultValue" : 0.0,
                              "interp" : "linr"
                            },
                            "cursorOpacity" : {
                              "type" : "double",
                              "defaultValue" : 0.0,
                              "interp" : "linr"
                            }
                          },
                          "effects" : [

                          ],
                          "start" : 0,
                          "duration" : 1620,
                          "mediaStart" : 0,
                          "mediaDuration" : 1620,
                          "scalar" : 1,
                          "metadata" : {
                            "AutoAppliedSmartFocus" : "False",
                            "clipSpeedAttribute" : false,
                            "default-scale0" : 1.0,
                            "default-scale1" : 1.0,
                            "default-translation0" : 0.0,
                            "default-translation1" : 0.0
                          },
                          "animationTracks" : {

                          }
                        },
                        {
                          "id" : 143,
                          "_type" : "ScreenIMFile",
                          "src" : 1,
                          "trackNumber" : 0,
                          "trimStartSum" : 0,
                          "attributes" : {
                            "ident" : "hijacking_ntfs_structs_attack_prevention"
                          },
                          "parameters" : {
                            "cursorOpacity" : 0.0,
                            "cursorScale" : 0.0
                          },
                          "effects" : [

                          ],
                          "start" : 1620,
                          "duration" : 30,
                          "mediaStart" : 1619,
                          "mediaDuration" : 1,
                          "scalar" : 1,
                          "metadata" : {
                            "AutoAppliedSmartFocus" : "False"
                          },
                          "animationTracks" : {

                          }
                        },
                        {
                          "id" : 144,
                          "_type" : "ScreenVMFile",
                          "src" : 1,
                          "trackNumber" : 0,
                          "attributes" : {
                            "ident" : "hijacking_ntfs_structs_attack_prevention"
                          },
                          "parameters" : {
                            "cursorScale" : {
                              "type" : "double",
                              "defaultValue" : 0.0,
                              "interp" : "linr"
                            },
                            "cursorOpacity" : {
                              "type" : "double",
                              "defaultValue" : 0.0,
                              "interp" : "linr"
                            }
                          },
                          "effects" : [

                          ],
                          "start" : 1650,
                          "duration" : 749,
                          "mediaStart" : 1620,
                          "mediaDuration" : 749,
                          "scalar" : 1,
                          "metadata" : {
                            "AutoAppliedSmartFocus" : "False",
                            "clipSpeedAttribute" : false,
                            "default-scale0" : 1.0,
                            "default-scale1" : 1.0,
                            "default-translation0" : 0.0,
                            "default-translation1" : 0.0
                          },
                          "animationTracks" : {

                          }
                        },
                        {
                          "id" : 145,
                          "_type" : "ScreenIMFile",
                          "src" : 1,
                          "trackNumber" : 0,
                          "trimStartSum" : 0,
                          "attributes" : {
                            "ident" : "hijacking_ntfs_structs_attack_prevention"
                          },
                          "parameters" : {
                            "cursorOpacity" : 0.0,
                            "cursorScale" : 0.0
                          },
                          "effects" : [

                          ],
                          "start" : 2399,
                          "duration" : 30,
                          "mediaStart" : 2369,
                          "mediaDuration" : 1,
                          "scalar" : 1,
                          "metadata" : {
                            "AutoAppliedSmartFocus" : "False"
                          },
                          "animationTracks" : {

                          }
                        },
                        {
                          "id" : 146,
                          "_type" : "ScreenVMFile",
                          "src" : 1,
                          "trackNumber" : 0,
                          "attributes" : {
                            "ident" : "hijacking_ntfs_structs_attack_prevention"
                          },
                          "parameters" : {
                            "cursorScale" : {
                              "type" : "double",
                              "defaultValue" : 0.0,
                              "interp" : "linr"
                            },
                            "cursorOpacity" : {
                              "type" : "double",
                              "defaultValue" : 0.0,
                              "interp" : "linr"
                            }
                          },
                          "effects" : [

                          ],
                          "start" : 2429,
                          "duration" : 67,
                          "mediaStart" : 2369,
                          "mediaDuration" : 67,
                          "scalar" : 1,
                          "metadata" : {
                            "AutoAppliedSmartFocus" : "False",
                            "clipSpeedAttribute" : false,
                            "default-scale0" : 1.0,
                            "default-scale1" : 1.0,
                            "default-translation0" : 0.0,
                            "default-translation1" : 0.0
                          },
                          "animationTracks" : {

                          }
                        },
                        {
                          "id" : 147,
                          "_type" : "ScreenIMFile",
                          "src" : 1,
                          "trackNumber" : 0,
                          "trimStartSum" : 0,
                          "attributes" : {
                            "ident" : "hijacking_ntfs_structs_attack_prevention"
                          },
                          "parameters" : {
                            "cursorOpacity" : 0.0,
                            "cursorScale" : 0.0
                          },
                          "effects" : [

                          ],
                          "start" : 2496,
                          "duration" : 60,
                          "mediaStart" : 2436,
                          "mediaDuration" : 1,
                          "scalar" : 1,
                          "metadata" : {
                            "AutoAppliedSmartFocus" : "False"
                          },
                          "animationTracks" : {

                          }
                        },
                        {
                          "id" : 148,
                          "_type" : "ScreenVMFile",
                          "src" : 1,
                          "trackNumber" : 0,
                          "attributes" : {
                            "ident" : "hijacking_ntfs_structs_attack_prevention"
                          },
                          "parameters" : {
                            "cursorScale" : {
                              "type" : "double",
                              "defaultValue" : 0.0,
                              "interp" : "linr"
                            },
                            "cursorOpacity" : {
                              "type" : "double",
                              "defaultValue" : 0.0,
                              "interp" : "linr"
                            }
                          },
                          "effects" : [

                          ],
                          "start" : 2556,
                          "duration" : 4597,
                          "mediaStart" : 2436,
                          "mediaDuration" : 4597,
                          "scalar" : 1,
                          "metadata" : {
                            "AutoAppliedSmartFocus" : "False",
                            "clipSpeedAttribute" : false,
                            "default-scale0" : 1.0,
                            "default-scale1" : 1.0,
                            "default-translation0" : 0.0,
                            "default-translation1" : 0.0
                          },
                          "animationTracks" : {

                          }
                        }
                    ],
                    "effects" : [
                        {
                          "effectName" : "CursorHilight",
                          "category" : "categoryCursorEffects",
                          "parameters" : {
                            "blur" : 0.1,
                            "color-alpha" : 0.75,
                            "color-blue" : 0.0,
                            "color-green" : 1.0,
                            "color-red" : 1.0,
                            "radius" : 50.0
                          }
                        }
                    ],
                    "start" : 1451,
                    "duration" : 38,
                    "mediaStart" : 3223,
                    "mediaDuration" : 38,
                    "scalar" : 1,
                    "metadata" : {
                      "AutoAppliedSmartFocus" : "False",
                      "clipSpeedAttribute" : false,
                      "default-scale0" : 0.999999767628522,
                      "default-scale1" : 1.0,
                      "default-translation0" : 5.6843418860808e-14,
                      "default-translation1" : -4.9737991503207e-14
                    },
                    "animationTracks" : {
                      "visual" : [
                        {
                          "endTime" : 1177,
                          "duration" : 30,
                          "range" : [ 1147, 30]
                        },
                        {
                          "endTime" : 1449,
                          "duration" : 30,
                          "range" : [ 1419, 30]
                        },
                        {
                          "endTime" : 2474,
                          "duration" : 30,
                          "range" : [ 2444, 30]
                        },
                        {
                          "endTime" : 3259,
                          "duration" : 30,
                          "range" : [ 3229, 30]
                        }
                      ]
                    }
                  },
                  {
                    "id" : 149,
                    "_type" : "StitchedMedia",
                    "minMediaStart" : 0,
                    "attributes" : {
                      "ident" : "hijacking_ntfs_structs_attack_prevention",
                      "gain" : 1.0,
                      "mixToMono" : false
                    },
                    "parameters" : {
                      "translation0" : {
                        "type" : "double",
                        "defaultValue" : 0.0,
                        "keyframes" : [
                          {
                            "endTime" : 1177,
                            "time" : 1147,
                            "value" : 948.478453192254,
                            "duration" : 30
                          },
                          {
                            "endTime" : 1449,
                            "time" : 1419,
                            "value" : 948.478364944437,
                            "duration" : 30
                          },
                          {
                            "endTime" : 2474,
                            "time" : 2444,
                            "value" : 5.6843418860808e-14,
                            "duration" : 30
                          },
                          {
                            "endTime" : 3259,
                            "time" : 3229,
                            "value" : -774.930172418836,
                            "duration" : 30
                          }
                        ]
                      },
                      "translation1" : {
                        "type" : "double",
                        "defaultValue" : 0.0,
                        "keyframes" : [
                          {
                            "endTime" : 1177,
                            "time" : 1147,
                            "value" : -426.526455592595,
                            "duration" : 30
                          },
                          {
                            "endTime" : 1449,
                            "time" : 1419,
                            "value" : -100.3,
                            "duration" : 30
                          },
                          {
                            "endTime" : 2474,
                            "time" : 2444,
                            "value" : -4.9737991503207e-14,
                            "duration" : 30
                          },
                          {
                            "endTime" : 3259,
                            "time" : 3229,
                            "value" : -101.709492105514,
                            "duration" : 30
                          }
                        ]
                      },
                      "scale0" : {
                        "type" : "double",
                        "defaultValue" : 1.0,
                        "keyframes" : [
                          {
                            "endTime" : 1177,
                            "time" : 1147,
                            "value" : 1.98900262241215,
                            "duration" : 30
                          },
                          {
                            "endTime" : 2474,
                            "time" : 2444,
                            "value" : 0.999999767628522,
                            "duration" : 30
                          },
                          {
                            "endTime" : 3259,
                            "time" : 3229,
                            "value" : 2.22091728725881,
                            "duration" : 30
                          }
                        ]
                      },
                      "scale1" : {
                        "type" : "double",
                        "defaultValue" : 1.0,
                        "keyframes" : [
                          {
                            "endTime" : 1177,
                            "time" : 1147,
                            "value" : 1.98900308459974,
                            "duration" : 30
                          },
                          {
                            "endTime" : 2474,
                            "time" : 2444,
                            "value" : 1.0,
                            "duration" : 30
                          },
                          {
                            "endTime" : 3259,
                            "time" : 3229,
                            "value" : 2.22091777504271,
                            "duration" : 30
                          }
                        ]
                      },
                      "cursorOpacity" : 1.0,
                      "cursorScale" : 1.0
                    },
                    "medias" : [
                        {
                          "id" : 150,
                          "_type" : "ScreenVMFile",
                          "src" : 1,
                          "trackNumber" : 0,
                          "attributes" : {
                            "ident" : "hijacking_ntfs_structs_attack_prevention"
                          },
                          "parameters" : {
                            "cursorScale" : {
                              "type" : "double",
                              "defaultValue" : 0.0,
                              "interp" : "linr"
                            },
                            "cursorOpacity" : {
                              "type" : "double",
                              "defaultValue" : 0.0,
                              "interp" : "linr"
                            }
                          },
                          "effects" : [

                          ],
                          "start" : 0,
                          "duration" : 1620,
                          "mediaStart" : 0,
                          "mediaDuration" : 1620,
                          "scalar" : 1,
                          "metadata" : {
                            "AutoAppliedSmartFocus" : "False",
                            "clipSpeedAttribute" : false,
                            "default-scale0" : 1.0,
                            "default-scale1" : 1.0,
                            "default-translation0" : 0.0,
                            "default-translation1" : 0.0
                          },
                          "animationTracks" : {

                          }
                        },
                        {
                          "id" : 151,
                          "_type" : "ScreenIMFile",
                          "src" : 1,
                          "trackNumber" : 0,
                          "trimStartSum" : 0,
                          "attributes" : {
                            "ident" : "hijacking_ntfs_structs_attack_prevention"
                          },
                          "parameters" : {
                            "cursorOpacity" : 0.0,
                            "cursorScale" : 0.0
                          },
                          "effects" : [

                          ],
                          "start" : 1620,
                          "duration" : 30,
                          "mediaStart" : 1619,
                          "mediaDuration" : 1,
                          "scalar" : 1,
                          "metadata" : {
                            "AutoAppliedSmartFocus" : "False"
                          },
                          "animationTracks" : {

                          }
                        },
                        {
                          "id" : 152,
                          "_type" : "ScreenVMFile",
                          "src" : 1,
                          "trackNumber" : 0,
                          "attributes" : {
                            "ident" : "hijacking_ntfs_structs_attack_prevention"
                          },
                          "parameters" : {
                            "cursorScale" : {
                              "type" : "double",
                              "defaultValue" : 0.0,
                              "interp" : "linr"
                            },
                            "cursorOpacity" : {
                              "type" : "double",
                              "defaultValue" : 0.0,
                              "interp" : "linr"
                            }
                          },
                          "effects" : [

                          ],
                          "start" : 1650,
                          "duration" : 749,
                          "mediaStart" : 1620,
                          "mediaDuration" : 749,
                          "scalar" : 1,
                          "metadata" : {
                            "AutoAppliedSmartFocus" : "False",
                            "clipSpeedAttribute" : false,
                            "default-scale0" : 1.0,
                            "default-scale1" : 1.0,
                            "default-translation0" : 0.0,
                            "default-translation1" : 0.0
                          },
                          "animationTracks" : {

                          }
                        },
                        {
                          "id" : 153,
                          "_type" : "ScreenIMFile",
                          "src" : 1,
                          "trackNumber" : 0,
                          "trimStartSum" : 0,
                          "attributes" : {
                            "ident" : "hijacking_ntfs_structs_attack_prevention"
                          },
                          "parameters" : {
                            "cursorOpacity" : 0.0,
                            "cursorScale" : 0.0
                          },
                          "effects" : [

                          ],
                          "start" : 2399,
                          "duration" : 30,
                          "mediaStart" : 2369,
                          "mediaDuration" : 1,
                          "scalar" : 1,
                          "metadata" : {
                            "AutoAppliedSmartFocus" : "False"
                          },
                          "animationTracks" : {

                          }
                        },
                        {
                          "id" : 154,
                          "_type" : "ScreenVMFile",
                          "src" : 1,
                          "trackNumber" : 0,
                          "attributes" : {
                            "ident" : "hijacking_ntfs_structs_attack_prevention"
                          },
                          "parameters" : {
                            "cursorScale" : {
                              "type" : "double",
                              "defaultValue" : 0.0,
                              "interp" : "linr"
                            },
                            "cursorOpacity" : {
                              "type" : "double",
                              "defaultValue" : 0.0,
                              "interp" : "linr"
                            }
                          },
                          "effects" : [

                          ],
                          "start" : 2429,
                          "duration" : 67,
                          "mediaStart" : 2369,
                          "mediaDuration" : 67,
                          "scalar" : 1,
                          "metadata" : {
                            "AutoAppliedSmartFocus" : "False",
                            "clipSpeedAttribute" : false,
                            "default-scale0" : 1.0,
                            "default-scale1" : 1.0,
                            "default-translation0" : 0.0,
                            "default-translation1" : 0.0
                          },
                          "animationTracks" : {

                          }
                        },
                        {
                          "id" : 155,
                          "_type" : "ScreenIMFile",
                          "src" : 1,
                          "trackNumber" : 0,
                          "trimStartSum" : 0,
                          "attributes" : {
                            "ident" : "hijacking_ntfs_structs_attack_prevention"
                          },
                          "parameters" : {
                            "cursorOpacity" : 0.0,
                            "cursorScale" : 0.0
                          },
                          "effects" : [

                          ],
                          "start" : 2496,
                          "duration" : 60,
                          "mediaStart" : 2436,
                          "mediaDuration" : 1,
                          "scalar" : 1,
                          "metadata" : {
                            "AutoAppliedSmartFocus" : "False"
                          },
                          "animationTracks" : {

                          }
                        },
                        {
                          "id" : 156,
                          "_type" : "ScreenVMFile",
                          "src" : 1,
                          "trackNumber" : 0,
                          "attributes" : {
                            "ident" : "hijacking_ntfs_structs_attack_prevention"
                          },
                          "parameters" : {
                            "cursorScale" : {
                              "type" : "double",
                              "defaultValue" : 0.0,
                              "interp" : "linr"
                            },
                            "cursorOpacity" : {
                              "type" : "double",
                              "defaultValue" : 0.0,
                              "interp" : "linr"
                            }
                          },
                          "effects" : [

                          ],
                          "start" : 2556,
                          "duration" : 4597,
                          "mediaStart" : 2436,
                          "mediaDuration" : 4597,
                          "scalar" : 1,
                          "metadata" : {
                            "AutoAppliedSmartFocus" : "False",
                            "clipSpeedAttribute" : false,
                            "default-scale0" : 1.0,
                            "default-scale1" : 1.0,
                            "default-translation0" : 0.0,
                            "default-translation1" : 0.0
                          },
                          "animationTracks" : {

                          }
                        }
                    ],
                    "effects" : [
                        {
                          "effectName" : "CursorHilight",
                          "category" : "categoryCursorEffects",
                          "parameters" : {
                            "blur" : 0.1,
                            "color-alpha" : 0.75,
                            "color-blue" : 0.0,
                            "color-green" : 1.0,
                            "color-red" : 1.0,
                            "radius" : 50.0
                          }
                        }
                    ],
                    "start" : 1489,
                    "duration" : 90,
                    "mediaStart" : 3261,
                    "mediaDuration" : 198,
                    "scalar" : "5/11",
                    "metadata" : {
                      "AutoAppliedSmartFocus" : "False",
                      "clipSpeedAttribute" : true,
                      "default-scale0" : 0.999999767628522,
                      "default-scale1" : 1.0,
                      "default-translation0" : 5.6843418860808e-14,
                      "default-translation1" : -4.9737991503207e-14
                    },
                    "animationTracks" : {
                      "visual" : [
                        {
                          "endTime" : 1177,
                          "duration" : 30,
                          "range" : [ 1147, 30]
                        },
                        {
                          "endTime" : 1449,
                          "duration" : 30,
                          "range" : [ 1419, 30]
                        },
                        {
                          "endTime" : 2474,
                          "duration" : 30,
                          "range" : [ 2444, 30]
                        },
                        {
                          "endTime" : 3259,
                          "duration" : 30,
                          "range" : [ 3229, 30]
                        }
                      ]
                    }
                  },
                  {
                    "id" : 157,
                    "_type" : "StitchedMedia",
                    "minMediaStart" : 0,
                    "attributes" : {
                      "ident" : "hijacking_ntfs_structs_attack_prevention",
                      "gain" : 1.0,
                      "mixToMono" : false
                    },
                    "parameters" : {
                      "translation0" : {
                        "type" : "double",
                        "defaultValue" : 0.0,
                        "keyframes" : [
                          {
                            "endTime" : 1177,
                            "time" : 1147,
                            "value" : 948.478453192254,
                            "duration" : 30
                          },
                          {
                            "endTime" : 1449,
                            "time" : 1419,
                            "value" : 948.478364944437,
                            "duration" : 30
                          },
                          {
                            "endTime" : 2474,
                            "time" : 2444,
                            "value" : 5.6843418860808e-14,
                            "duration" : 30
                          },
                          {
                            "endTime" : 3259,
                            "time" : 3229,
                            "value" : -774.930172418836,
                            "duration" : 30
                          },
                          {
                            "endTime" : "135379/38",
                            "time" : 3461,
                            "value" : -774.930252849251,
                            "duration" : "3861/38"
                          }
                        ]
                      },
                      "translation1" : {
                        "type" : "double",
                        "defaultValue" : 0.0,
                        "keyframes" : [
                          {
                            "endTime" : 1177,
                            "time" : 1147,
                            "value" : -426.526455592595,
                            "duration" : 30
                          },
                          {
                            "endTime" : 1449,
                            "time" : 1419,
                            "value" : -100.3,
                            "duration" : 30
                          },
                          {
                            "endTime" : 2474,
                            "time" : 2444,
                            "value" : -4.9737991503207e-14,
                            "duration" : 30
                          },
                          {
                            "endTime" : 3259,
                            "time" : 3229,
                            "value" : -101.709492105514,
                            "duration" : 30
                          },
                          {
                            "endTime" : "135379/38",
                            "time" : 3461,
                            "value" : 427.4,
                            "duration" : "3861/38"
                          }
                        ]
                      },
                      "scale0" : {
                        "type" : "double",
                        "defaultValue" : 1.0,
                        "keyframes" : [
                          {
                            "endTime" : 1177,
                            "time" : 1147,
                            "value" : 1.98900262241215,
                            "duration" : 30
                          },
                          {
                            "endTime" : 2474,
                            "time" : 2444,
                            "value" : 0.999999767628522,
                            "duration" : 30
                          },
                          {
                            "endTime" : 3259,
                            "time" : 3229,
                            "value" : 2.22091728725881,
                            "duration" : 30
                          },
                          {
                            "endTime" : "135379/38",
                            "time" : 3461,
                            "value" : 2.22091757221115,
                            "duration" : "3861/38"
                          }
                        ]
                      },
                      "scale1" : {
                        "type" : "double",
                        "defaultValue" : 1.0,
                        "keyframes" : [
                          {
                            "endTime" : 1177,
                            "time" : 1147,
                            "value" : 1.98900308459974,
                            "duration" : 30
                          },
                          {
                            "endTime" : 2474,
                            "time" : 2444,
                            "value" : 1.0,
                            "duration" : 30
                          },
                          {
                            "endTime" : 3259,
                            "time" : 3229,
                            "value" : 2.22091777504271,
                            "duration" : 30
                          }
                        ]
                      },
                      "cursorOpacity" : 1.0,
                      "cursorScale" : 1.0
                    },
                    "medias" : [
                        {
                          "id" : 158,
                          "_type" : "ScreenVMFile",
                          "src" : 1,
                          "trackNumber" : 0,
                          "attributes" : {
                            "ident" : "hijacking_ntfs_structs_attack_prevention"
                          },
                          "parameters" : {
                            "cursorScale" : {
                              "type" : "double",
                              "defaultValue" : 0.0,
                              "interp" : "linr"
                            },
                            "cursorOpacity" : {
                              "type" : "double",
                              "defaultValue" : 0.0,
                              "interp" : "linr"
                            }
                          },
                          "effects" : [

                          ],
                          "start" : 0,
                          "duration" : 1620,
                          "mediaStart" : 0,
                          "mediaDuration" : 1620,
                          "scalar" : 1,
                          "metadata" : {
                            "AutoAppliedSmartFocus" : "False",
                            "clipSpeedAttribute" : false,
                            "default-scale0" : 1.0,
                            "default-scale1" : 1.0,
                            "default-translation0" : 0.0,
                            "default-translation1" : 0.0
                          },
                          "animationTracks" : {

                          }
                        },
                        {
                          "id" : 159,
                          "_type" : "ScreenIMFile",
                          "src" : 1,
                          "trackNumber" : 0,
                          "trimStartSum" : 0,
                          "attributes" : {
                            "ident" : "hijacking_ntfs_structs_attack_prevention"
                          },
                          "parameters" : {
                            "cursorOpacity" : 0.0,
                            "cursorScale" : 0.0
                          },
                          "effects" : [

                          ],
                          "start" : 1620,
                          "duration" : 30,
                          "mediaStart" : 1619,
                          "mediaDuration" : 1,
                          "scalar" : 1,
                          "metadata" : {
                            "AutoAppliedSmartFocus" : "False"
                          },
                          "animationTracks" : {

                          }
                        },
                        {
                          "id" : 160,
                          "_type" : "ScreenVMFile",
                          "src" : 1,
                          "trackNumber" : 0,
                          "attributes" : {
                            "ident" : "hijacking_ntfs_structs_attack_prevention"
                          },
                          "parameters" : {
                            "cursorScale" : {
                              "type" : "double",
                              "defaultValue" : 0.0,
                              "interp" : "linr"
                            },
                            "cursorOpacity" : {
                              "type" : "double",
                              "defaultValue" : 0.0,
                              "interp" : "linr"
                            }
                          },
                          "effects" : [

                          ],
                          "start" : 1650,
                          "duration" : 749,
                          "mediaStart" : 1620,
                          "mediaDuration" : 749,
                          "scalar" : 1,
                          "metadata" : {
                            "AutoAppliedSmartFocus" : "False",
                            "clipSpeedAttribute" : false,
                            "default-scale0" : 1.0,
                            "default-scale1" : 1.0,
                            "default-translation0" : 0.0,
                            "default-translation1" : 0.0
                          },
                          "animationTracks" : {

                          }
                        },
                        {
                          "id" : 161,
                          "_type" : "ScreenIMFile",
                          "src" : 1,
                          "trackNumber" : 0,
                          "trimStartSum" : 0,
                          "attributes" : {
                            "ident" : "hijacking_ntfs_structs_attack_prevention"
                          },
                          "parameters" : {
                            "cursorOpacity" : 0.0,
                            "cursorScale" : 0.0
                          },
                          "effects" : [

                          ],
                          "start" : 2399,
                          "duration" : 30,
                          "mediaStart" : 2369,
                          "mediaDuration" : 1,
                          "scalar" : 1,
                          "metadata" : {
                            "AutoAppliedSmartFocus" : "False"
                          },
                          "animationTracks" : {

                          }
                        },
                        {
                          "id" : 162,
                          "_type" : "ScreenVMFile",
                          "src" : 1,
                          "trackNumber" : 0,
                          "attributes" : {
                            "ident" : "hijacking_ntfs_structs_attack_prevention"
                          },
                          "parameters" : {
                            "cursorScale" : {
                              "type" : "double",
                              "defaultValue" : 0.0,
                              "interp" : "linr"
                            },
                            "cursorOpacity" : {
                              "type" : "double",
                              "defaultValue" : 0.0,
                              "interp" : "linr"
                            }
                          },
                          "effects" : [

                          ],
                          "start" : 2429,
                          "duration" : 67,
                          "mediaStart" : 2369,
                          "mediaDuration" : 67,
                          "scalar" : 1,
                          "metadata" : {
                            "AutoAppliedSmartFocus" : "False",
                            "clipSpeedAttribute" : false,
                            "default-scale0" : 1.0,
                            "default-scale1" : 1.0,
                            "default-translation0" : 0.0,
                            "default-translation1" : 0.0
                          },
                          "animationTracks" : {

                          }
                        },
                        {
                          "id" : 163,
                          "_type" : "ScreenIMFile",
                          "src" : 1,
                          "trackNumber" : 0,
                          "trimStartSum" : 0,
                          "attributes" : {
                            "ident" : "hijacking_ntfs_structs_attack_prevention"
                          },
                          "parameters" : {
                            "cursorOpacity" : 0.0,
                            "cursorScale" : 0.0
                          },
                          "effects" : [

                          ],
                          "start" : 2496,
                          "duration" : 60,
                          "mediaStart" : 2436,
                          "mediaDuration" : 1,
                          "scalar" : 1,
                          "metadata" : {
                            "AutoAppliedSmartFocus" : "False"
                          },
                          "animationTracks" : {

                          }
                        },
                        {
                          "id" : 164,
                          "_type" : "ScreenVMFile",
                          "src" : 1,
                          "trackNumber" : 0,
                          "attributes" : {
                            "ident" : "hijacking_ntfs_structs_attack_prevention"
                          },
                          "parameters" : {
                            "cursorScale" : {
                              "type" : "double",
                              "defaultValue" : 0.0,
                              "interp" : "linr"
                            },
                            "cursorOpacity" : {
                              "type" : "double",
                              "defaultValue" : 0.0,
                              "interp" : "linr"
                            }
                          },
                          "effects" : [

                          ],
                          "start" : 2556,
                          "duration" : 4597,
                          "mediaStart" : 2436,
                          "mediaDuration" : 4597,
                          "scalar" : 1,
                          "metadata" : {
                            "AutoAppliedSmartFocus" : "False",
                            "clipSpeedAttribute" : false,
                            "default-scale0" : 1.0,
                            "default-scale1" : 1.0,
                            "default-translation0" : 0.0,
                            "default-translation1" : 0.0
                          },
                          "animationTracks" : {

                          }
                        }
                    ],
                    "effects" : [
                        {
                          "effectName" : "CursorHilight",
                          "category" : "categoryCursorEffects",
                          "parameters" : {
                            "blur" : 0.1,
                            "color-alpha" : 0.75,
                            "color-blue" : 0.0,
                            "color-green" : 1.0,
                            "color-red" : 1.0,
                            "radius" : 50.0
                          }
                        }
                    ],
                    "start" : 1579,
                    "duration" : 38,
                    "mediaStart" : 3459,
                    "mediaDuration" : 117,
                    "scalar" : "38/117",
                    "metadata" : {
                      "AutoAppliedSmartFocus" : "False",
                      "clipSpeedAttribute" : true,
                      "default-scale0" : 0.999999767628522,
                      "default-scale1" : 1.0,
                      "default-translation0" : 5.6843418860808e-14,
                      "default-translation1" : -4.9737991503207e-14
                    },
                    "animationTracks" : {
                      "visual" : [
                        {
                          "endTime" : 1177,
                          "duration" : 30,
                          "range" : [ 1147, 30]
                        },
                        {
                          "endTime" : 1449,
                          "duration" : 30,
                          "range" : [ 1419, 30]
                        },
                        {
                          "endTime" : 2474,
                          "duration" : 30,
                          "range" : [ 2444, 30]
                        },
                        {
                          "endTime" : 3259,
                          "duration" : 30,
                          "range" : [ 3229, 30]
                        },
                        {
                          "endTime" : "135379/38",
                          "duration" : "3861/38",
                          "range" : [ 3461, "3861/38"]
                        }
                      ]
                    }
                  },
                  {
                    "id" : 165,
                    "_type" : "StitchedMedia",
                    "minMediaStart" : 0,
                    "attributes" : {
                      "ident" : "hijacking_ntfs_structs_attack_prevention",
                      "gain" : 1.0,
                      "mixToMono" : false
                    },
                    "parameters" : {
                      "translation0" : {
                        "type" : "double",
                        "defaultValue" : 0.0,
                        "keyframes" : [
                          {
                            "endTime" : 1177,
                            "time" : 1147,
                            "value" : 948.478453192254,
                            "duration" : 30
                          },
                          {
                            "endTime" : 1449,
                            "time" : 1419,
                            "value" : 948.478364944437,
                            "duration" : 30
                          },
                          {
                            "endTime" : 2474,
                            "time" : 2444,
                            "value" : 5.6843418860808e-14,
                            "duration" : 30
                          },
                          {
                            "endTime" : 3259,
                            "time" : 3229,
                            "value" : -774.930172418836,
                            "duration" : 30
                          },
                          {
                            "endTime" : 3491,
                            "time" : 3461,
                            "value" : -774.930252849251,
                            "duration" : 30
                          }
                        ]
                      },
                      "translation1" : {
                        "type" : "double",
                        "defaultValue" : 0.0,
                        "keyframes" : [
                          {
                            "endTime" : 1177,
                            "time" : 1147,
                            "value" : -426.526455592595,
                            "duration" : 30
                          },
                          {
                            "endTime" : 1449,
                            "time" : 1419,
                            "value" : -100.3,
                            "duration" : 30
                          },
                          {
                            "endTime" : 2474,
                            "time" : 2444,
                            "value" : -4.9737991503207e-14,
                            "duration" : 30
                          },
                          {
                            "endTime" : 3259,
                            "time" : 3229,
                            "value" : -101.709492105514,
                            "duration" : 30
                          },
                          {
                            "endTime" : 3491,
                            "time" : 3461,
                            "value" : 427.4,
                            "duration" : 30
                          }
                        ]
                      },
                      "scale0" : {
                        "type" : "double",
                        "defaultValue" : 1.0,
                        "keyframes" : [
                          {
                            "endTime" : 1177,
                            "time" : 1147,
                            "value" : 1.98900262241215,
                            "duration" : 30
                          },
                          {
                            "endTime" : 2474,
                            "time" : 2444,
                            "value" : 0.999999767628522,
                            "duration" : 30
                          },
                          {
                            "endTime" : 3259,
                            "time" : 3229,
                            "value" : 2.22091728725881,
                            "duration" : 30
                          },
                          {
                            "endTime" : 3491,
                            "time" : 3461,
                            "value" : 2.22091757221115,
                            "duration" : 30
                          }
                        ]
                      },
                      "scale1" : {
                        "type" : "double",
                        "defaultValue" : 1.0,
                        "keyframes" : [
                          {
                            "endTime" : 1177,
                            "time" : 1147,
                            "value" : 1.98900308459974,
                            "duration" : 30
                          },
                          {
                            "endTime" : 2474,
                            "time" : 2444,
                            "value" : 1.0,
                            "duration" : 30
                          },
                          {
                            "endTime" : 3259,
                            "time" : 3229,
                            "value" : 2.22091777504271,
                            "duration" : 30
                          }
                        ]
                      },
                      "cursorOpacity" : 1.0,
                      "cursorScale" : 1.0
                    },
                    "medias" : [
                        {
                          "id" : 166,
                          "_type" : "ScreenVMFile",
                          "src" : 1,
                          "trackNumber" : 0,
                          "attributes" : {
                            "ident" : "hijacking_ntfs_structs_attack_prevention"
                          },
                          "parameters" : {
                            "cursorScale" : {
                              "type" : "double",
                              "defaultValue" : 0.0,
                              "interp" : "linr"
                            },
                            "cursorOpacity" : {
                              "type" : "double",
                              "defaultValue" : 0.0,
                              "interp" : "linr"
                            }
                          },
                          "effects" : [

                          ],
                          "start" : 0,
                          "duration" : 1620,
                          "mediaStart" : 0,
                          "mediaDuration" : 1620,
                          "scalar" : 1,
                          "metadata" : {
                            "AutoAppliedSmartFocus" : "False",
                            "clipSpeedAttribute" : false,
                            "default-scale0" : 1.0,
                            "default-scale1" : 1.0,
                            "default-translation0" : 0.0,
                            "default-translation1" : 0.0
                          },
                          "animationTracks" : {

                          }
                        },
                        {
                          "id" : 167,
                          "_type" : "ScreenIMFile",
                          "src" : 1,
                          "trackNumber" : 0,
                          "trimStartSum" : 0,
                          "attributes" : {
                            "ident" : "hijacking_ntfs_structs_attack_prevention"
                          },
                          "parameters" : {
                            "cursorOpacity" : 0.0,
                            "cursorScale" : 0.0
                          },
                          "effects" : [

                          ],
                          "start" : 1620,
                          "duration" : 30,
                          "mediaStart" : 1619,
                          "mediaDuration" : 1,
                          "scalar" : 1,
                          "metadata" : {
                            "AutoAppliedSmartFocus" : "False"
                          },
                          "animationTracks" : {

                          }
                        },
                        {
                          "id" : 168,
                          "_type" : "ScreenVMFile",
                          "src" : 1,
                          "trackNumber" : 0,
                          "attributes" : {
                            "ident" : "hijacking_ntfs_structs_attack_prevention"
                          },
                          "parameters" : {
                            "cursorScale" : {
                              "type" : "double",
                              "defaultValue" : 0.0,
                              "interp" : "linr"
                            },
                            "cursorOpacity" : {
                              "type" : "double",
                              "defaultValue" : 0.0,
                              "interp" : "linr"
                            }
                          },
                          "effects" : [

                          ],
                          "start" : 1650,
                          "duration" : 749,
                          "mediaStart" : 1620,
                          "mediaDuration" : 749,
                          "scalar" : 1,
                          "metadata" : {
                            "AutoAppliedSmartFocus" : "False",
                            "clipSpeedAttribute" : false,
                            "default-scale0" : 1.0,
                            "default-scale1" : 1.0,
                            "default-translation0" : 0.0,
                            "default-translation1" : 0.0
                          },
                          "animationTracks" : {

                          }
                        },
                        {
                          "id" : 169,
                          "_type" : "ScreenIMFile",
                          "src" : 1,
                          "trackNumber" : 0,
                          "trimStartSum" : 0,
                          "attributes" : {
                            "ident" : "hijacking_ntfs_structs_attack_prevention"
                          },
                          "parameters" : {
                            "cursorOpacity" : 0.0,
                            "cursorScale" : 0.0
                          },
                          "effects" : [

                          ],
                          "start" : 2399,
                          "duration" : 30,
                          "mediaStart" : 2369,
                          "mediaDuration" : 1,
                          "scalar" : 1,
                          "metadata" : {
                            "AutoAppliedSmartFocus" : "False"
                          },
                          "animationTracks" : {

                          }
                        },
                        {
                          "id" : 170,
                          "_type" : "ScreenVMFile",
                          "src" : 1,
                          "trackNumber" : 0,
                          "attributes" : {
                            "ident" : "hijacking_ntfs_structs_attack_prevention"
                          },
                          "parameters" : {
                            "cursorScale" : {
                              "type" : "double",
                              "defaultValue" : 0.0,
                              "interp" : "linr"
                            },
                            "cursorOpacity" : {
                              "type" : "double",
                              "defaultValue" : 0.0,
                              "interp" : "linr"
                            }
                          },
                          "effects" : [

                          ],
                          "start" : 2429,
                          "duration" : 67,
                          "mediaStart" : 2369,
                          "mediaDuration" : 67,
                          "scalar" : 1,
                          "metadata" : {
                            "AutoAppliedSmartFocus" : "False",
                            "clipSpeedAttribute" : false,
                            "default-scale0" : 1.0,
                            "default-scale1" : 1.0,
                            "default-translation0" : 0.0,
                            "default-translation1" : 0.0
                          },
                          "animationTracks" : {

                          }
                        },
                        {
                          "id" : 171,
                          "_type" : "ScreenIMFile",
                          "src" : 1,
                          "trackNumber" : 0,
                          "trimStartSum" : 0,
                          "attributes" : {
                            "ident" : "hijacking_ntfs_structs_attack_prevention"
                          },
                          "parameters" : {
                            "cursorOpacity" : 0.0,
                            "cursorScale" : 0.0
                          },
                          "effects" : [

                          ],
                          "start" : 2496,
                          "duration" : 60,
                          "mediaStart" : 2436,
                          "mediaDuration" : 1,
                          "scalar" : 1,
                          "metadata" : {
                            "AutoAppliedSmartFocus" : "False"
                          },
                          "animationTracks" : {

                          }
                        },
                        {
                          "id" : 172,
                          "_type" : "ScreenVMFile",
                          "src" : 1,
                          "trackNumber" : 0,
                          "attributes" : {
                            "ident" : "hijacking_ntfs_structs_attack_prevention"
                          },
                          "parameters" : {
                            "cursorScale" : {
                              "type" : "double",
                              "defaultValue" : 0.0,
                              "interp" : "linr"
                            },
                            "cursorOpacity" : {
                              "type" : "double",
                              "defaultValue" : 0.0,
                              "interp" : "linr"
                            }
                          },
                          "effects" : [

                          ],
                          "start" : 2556,
                          "duration" : 1110,
                          "mediaStart" : 2436,
                          "mediaDuration" : 1110,
                          "scalar" : 1,
                          "metadata" : {
                            "AutoAppliedSmartFocus" : "False",
                            "clipSpeedAttribute" : false,
                            "default-scale0" : 1.0,
                            "default-scale1" : 1.0,
                            "default-translation0" : 0.0,
                            "default-translation1" : 0.0
                          },
                          "animationTracks" : {

                          }
                        },
                        {
                          "id" : 173,
                          "_type" : "ScreenIMFile",
                          "src" : 1,
                          "trackNumber" : 0,
                          "trimStartSum" : 0,
                          "attributes" : {
                            "ident" : "hijacking_ntfs_structs_attack_prevention"
                          },
                          "parameters" : {
                            "cursorOpacity" : 0.0,
                            "cursorScale" : 0.0
                          },
                          "effects" : [

                          ],
                          "start" : 3666,
                          "duration" : 60,
                          "mediaStart" : 3546,
                          "mediaDuration" : 1,
                          "scalar" : 1,
                          "metadata" : {
                            "AutoAppliedSmartFocus" : "False"
                          },
                          "animationTracks" : {

                          }
                        },
                        {
                          "id" : 174,
                          "_type" : "ScreenVMFile",
                          "src" : 1,
                          "trackNumber" : 0,
                          "attributes" : {
                            "ident" : "hijacking_ntfs_structs_attack_prevention"
                          },
                          "parameters" : {
                            "cursorScale" : {
                              "type" : "double",
                              "defaultValue" : 0.0,
                              "interp" : "linr"
                            },
                            "cursorOpacity" : {
                              "type" : "double",
                              "defaultValue" : 0.0,
                              "interp" : "linr"
                            }
                          },
                          "effects" : [

                          ],
                          "start" : 3726,
                          "duration" : 3487,
                          "mediaStart" : 3546,
                          "mediaDuration" : 3487,
                          "scalar" : 1,
                          "metadata" : {
                            "AutoAppliedSmartFocus" : "False",
                            "clipSpeedAttribute" : false,
                            "default-scale0" : 1.0,
                            "default-scale1" : 1.0,
                            "default-translation0" : 0.0,
                            "default-translation1" : 0.0
                          },
                          "animationTracks" : {

                          }
                        }
                    ],
                    "effects" : [
                        {
                          "effectName" : "CursorHilight",
                          "category" : "categoryCursorEffects",
                          "parameters" : {
                            "blur" : 0.1,
                            "color-alpha" : 0.75,
                            "color-blue" : 0.0,
                            "color-green" : 1.0,
                            "color-red" : 1.0,
                            "radius" : 50.0
                          }
                        }
                    ],
                    "start" : 1617,
                    "duration" : 147,
                    "mediaStart" : 3576,
                    "mediaDuration" : 147,
                    "scalar" : 1,
                    "metadata" : {
                      "AutoAppliedSmartFocus" : "False",
                      "clipSpeedAttribute" : false
                    },
                    "animationTracks" : {
                      "visual" : [
                        {
                          "endTime" : 1177,
                          "duration" : 30,
                          "range" : [ 1147, 30]
                        },
                        {
                          "endTime" : 1449,
                          "duration" : 30,
                          "range" : [ 1419, 30]
                        },
                        {
                          "endTime" : 2474,
                          "duration" : 30,
                          "range" : [ 2444, 30]
                        },
                        {
                          "endTime" : 3259,
                          "duration" : 30,
                          "range" : [ 3229, 30]
                        },
                        {
                          "endTime" : 3491,
                          "duration" : 30,
                          "range" : [ 3461, 30]
                        }
                      ]
                    }
                  },
                  {
                    "id" : 175,
                    "_type" : "StitchedMedia",
                    "minMediaStart" : 0,
                    "attributes" : {
                      "ident" : "hijacking_ntfs_structs_attack_prevention",
                      "gain" : 1.0,
                      "mixToMono" : false
                    },
                    "parameters" : {
                      "translation0" : {
                        "type" : "double",
                        "defaultValue" : 0.0,
                        "keyframes" : [
                          {
                            "endTime" : 1177,
                            "time" : 1147,
                            "value" : 948.478453192254,
                            "duration" : 30
                          },
                          {
                            "endTime" : 1449,
                            "time" : 1419,
                            "value" : 948.478364944437,
                            "duration" : 30
                          },
                          {
                            "endTime" : 2474,
                            "time" : 2444,
                            "value" : 5.6843418860808e-14,
                            "duration" : 30
                          },
                          {
                            "endTime" : 3259,
                            "time" : 3229,
                            "value" : -774.930172418836,
                            "duration" : 30
                          },
                          {
                            "endTime" : 3491,
                            "time" : 3461,
                            "value" : -774.930252849251,
                            "duration" : 30
                          }
                        ]
                      },
                      "translation1" : {
                        "type" : "double",
                        "defaultValue" : 0.0,
                        "keyframes" : [
                          {
                            "endTime" : 1177,
                            "time" : 1147,
                            "value" : -426.526455592595,
                            "duration" : 30
                          },
                          {
                            "endTime" : 1449,
                            "time" : 1419,
                            "value" : -100.3,
                            "duration" : 30
                          },
                          {
                            "endTime" : 2474,
                            "time" : 2444,
                            "value" : -4.9737991503207e-14,
                            "duration" : 30
                          },
                          {
                            "endTime" : 3259,
                            "time" : 3229,
                            "value" : -101.709492105514,
                            "duration" : 30
                          },
                          {
                            "endTime" : 3491,
                            "time" : 3461,
                            "value" : 427.4,
                            "duration" : 30
                          }
                        ]
                      },
                      "scale0" : {
                        "type" : "double",
                        "defaultValue" : 1.0,
                        "keyframes" : [
                          {
                            "endTime" : 1177,
                            "time" : 1147,
                            "value" : 1.98900262241215,
                            "duration" : 30
                          },
                          {
                            "endTime" : 2474,
                            "time" : 2444,
                            "value" : 0.999999767628522,
                            "duration" : 30
                          },
                          {
                            "endTime" : 3259,
                            "time" : 3229,
                            "value" : 2.22091728725881,
                            "duration" : 30
                          },
                          {
                            "endTime" : 3491,
                            "time" : 3461,
                            "value" : 2.22091757221115,
                            "duration" : 30
                          }
                        ]
                      },
                      "scale1" : {
                        "type" : "double",
                        "defaultValue" : 1.0,
                        "keyframes" : [
                          {
                            "endTime" : 1177,
                            "time" : 1147,
                            "value" : 1.98900308459974,
                            "duration" : 30
                          },
                          {
                            "endTime" : 2474,
                            "time" : 2444,
                            "value" : 1.0,
                            "duration" : 30
                          },
                          {
                            "endTime" : 3259,
                            "time" : 3229,
                            "value" : 2.22091777504271,
                            "duration" : 30
                          }
                        ]
                      },
                      "cursorOpacity" : 1.0,
                      "cursorScale" : 1.0
                    },
                    "medias" : [
                        {
                          "id" : 176,
                          "_type" : "ScreenVMFile",
                          "src" : 1,
                          "trackNumber" : 0,
                          "attributes" : {
                            "ident" : "hijacking_ntfs_structs_attack_prevention"
                          },
                          "parameters" : {
                            "cursorScale" : {
                              "type" : "double",
                              "defaultValue" : 0.0,
                              "interp" : "linr"
                            },
                            "cursorOpacity" : {
                              "type" : "double",
                              "defaultValue" : 0.0,
                              "interp" : "linr"
                            }
                          },
                          "effects" : [

                          ],
                          "start" : 0,
                          "duration" : 1620,
                          "mediaStart" : 0,
                          "mediaDuration" : 1620,
                          "scalar" : 1,
                          "metadata" : {
                            "AutoAppliedSmartFocus" : "False",
                            "clipSpeedAttribute" : false,
                            "default-scale0" : 1.0,
                            "default-scale1" : 1.0,
                            "default-translation0" : 0.0,
                            "default-translation1" : 0.0
                          },
                          "animationTracks" : {

                          }
                        },
                        {
                          "id" : 177,
                          "_type" : "ScreenIMFile",
                          "src" : 1,
                          "trackNumber" : 0,
                          "trimStartSum" : 0,
                          "attributes" : {
                            "ident" : "hijacking_ntfs_structs_attack_prevention"
                          },
                          "parameters" : {
                            "cursorOpacity" : 0.0,
                            "cursorScale" : 0.0
                          },
                          "effects" : [

                          ],
                          "start" : 1620,
                          "duration" : 30,
                          "mediaStart" : 1619,
                          "mediaDuration" : 1,
                          "scalar" : 1,
                          "metadata" : {
                            "AutoAppliedSmartFocus" : "False"
                          },
                          "animationTracks" : {

                          }
                        },
                        {
                          "id" : 178,
                          "_type" : "ScreenVMFile",
                          "src" : 1,
                          "trackNumber" : 0,
                          "attributes" : {
                            "ident" : "hijacking_ntfs_structs_attack_prevention"
                          },
                          "parameters" : {
                            "cursorScale" : {
                              "type" : "double",
                              "defaultValue" : 0.0,
                              "interp" : "linr"
                            },
                            "cursorOpacity" : {
                              "type" : "double",
                              "defaultValue" : 0.0,
                              "interp" : "linr"
                            }
                          },
                          "effects" : [

                          ],
                          "start" : 1650,
                          "duration" : 749,
                          "mediaStart" : 1620,
                          "mediaDuration" : 749,
                          "scalar" : 1,
                          "metadata" : {
                            "AutoAppliedSmartFocus" : "False",
                            "clipSpeedAttribute" : false,
                            "default-scale0" : 1.0,
                            "default-scale1" : 1.0,
                            "default-translation0" : 0.0,
                            "default-translation1" : 0.0
                          },
                          "animationTracks" : {

                          }
                        },
                        {
                          "id" : 179,
                          "_type" : "ScreenIMFile",
                          "src" : 1,
                          "trackNumber" : 0,
                          "trimStartSum" : 0,
                          "attributes" : {
                            "ident" : "hijacking_ntfs_structs_attack_prevention"
                          },
                          "parameters" : {
                            "cursorOpacity" : 0.0,
                            "cursorScale" : 0.0
                          },
                          "effects" : [

                          ],
                          "start" : 2399,
                          "duration" : 30,
                          "mediaStart" : 2369,
                          "mediaDuration" : 1,
                          "scalar" : 1,
                          "metadata" : {
                            "AutoAppliedSmartFocus" : "False"
                          },
                          "animationTracks" : {

                          }
                        },
                        {
                          "id" : 180,
                          "_type" : "ScreenVMFile",
                          "src" : 1,
                          "trackNumber" : 0,
                          "attributes" : {
                            "ident" : "hijacking_ntfs_structs_attack_prevention"
                          },
                          "parameters" : {
                            "cursorScale" : {
                              "type" : "double",
                              "defaultValue" : 0.0,
                              "interp" : "linr"
                            },
                            "cursorOpacity" : {
                              "type" : "double",
                              "defaultValue" : 0.0,
                              "interp" : "linr"
                            }
                          },
                          "effects" : [

                          ],
                          "start" : 2429,
                          "duration" : 67,
                          "mediaStart" : 2369,
                          "mediaDuration" : 67,
                          "scalar" : 1,
                          "metadata" : {
                            "AutoAppliedSmartFocus" : "False",
                            "clipSpeedAttribute" : false,
                            "default-scale0" : 1.0,
                            "default-scale1" : 1.0,
                            "default-translation0" : 0.0,
                            "default-translation1" : 0.0
                          },
                          "animationTracks" : {

                          }
                        },
                        {
                          "id" : 181,
                          "_type" : "ScreenIMFile",
                          "src" : 1,
                          "trackNumber" : 0,
                          "trimStartSum" : 0,
                          "attributes" : {
                            "ident" : "hijacking_ntfs_structs_attack_prevention"
                          },
                          "parameters" : {
                            "cursorOpacity" : 0.0,
                            "cursorScale" : 0.0
                          },
                          "effects" : [

                          ],
                          "start" : 2496,
                          "duration" : 60,
                          "mediaStart" : 2436,
                          "mediaDuration" : 1,
                          "scalar" : 1,
                          "metadata" : {
                            "AutoAppliedSmartFocus" : "False"
                          },
                          "animationTracks" : {

                          }
                        },
                        {
                          "id" : 182,
                          "_type" : "ScreenVMFile",
                          "src" : 1,
                          "trackNumber" : 0,
                          "attributes" : {
                            "ident" : "hijacking_ntfs_structs_attack_prevention"
                          },
                          "parameters" : {
                            "cursorScale" : {
                              "type" : "double",
                              "defaultValue" : 0.0,
                              "interp" : "linr"
                            },
                            "cursorOpacity" : {
                              "type" : "double",
                              "defaultValue" : 0.0,
                              "interp" : "linr"
                            }
                          },
                          "effects" : [

                          ],
                          "start" : 2556,
                          "duration" : 4597,
                          "mediaStart" : 2436,
                          "mediaDuration" : 4597,
                          "scalar" : 1,
                          "metadata" : {
                            "AutoAppliedSmartFocus" : "False",
                            "clipSpeedAttribute" : false,
                            "default-scale0" : 1.0,
                            "default-scale1" : 1.0,
                            "default-translation0" : 0.0,
                            "default-translation1" : 0.0
                          },
                          "animationTracks" : {

                          }
                        }
                    ],
                    "effects" : [
                        {
                          "effectName" : "CursorHilight",
                          "category" : "categoryCursorEffects",
                          "parameters" : {
                            "blur" : 0.1,
                            "color-alpha" : 0.75,
                            "color-blue" : 0.0,
                            "color-green" : 1.0,
                            "color-red" : 1.0,
                            "radius" : 50.0
                          }
                        }
                    ],
                    "start" : 1764,
                    "duration" : 55,
                    "mediaStart" : 3670,
                    "mediaDuration" : 116,
                    "scalar" : "55/116",
                    "metadata" : {
                      "AutoAppliedSmartFocus" : "False",
                      "clipSpeedAttribute" : true,
                      "default-scale0" : 0.999999767628522,
                      "default-scale1" : 1.0,
                      "default-translation0" : 5.6843418860808e-14,
                      "default-translation1" : -4.9737991503207e-14
                    },
                    "animationTracks" : {
                      "visual" : [
                        {
                          "endTime" : 1177,
                          "duration" : 30,
                          "range" : [ 1147, 30]
                        },
                        {
                          "endTime" : 1449,
                          "duration" : 30,
                          "range" : [ 1419, 30]
                        },
                        {
                          "endTime" : 2474,
                          "duration" : 30,
                          "range" : [ 2444, 30]
                        },
                        {
                          "endTime" : 3259,
                          "duration" : 30,
                          "range" : [ 3229, 30]
                        },
                        {
                          "endTime" : 3491,
                          "duration" : 30,
                          "range" : [ 3461, 30]
                        }
                      ]
                    }
                  },
                  {
                    "id" : 183,
                    "_type" : "StitchedMedia",
                    "minMediaStart" : 0,
                    "attributes" : {
                      "ident" : "hijacking_ntfs_structs_attack_prevention",
                      "gain" : 1.0,
                      "mixToMono" : false
                    },
                    "parameters" : {
                      "translation0" : {
                        "type" : "double",
                        "defaultValue" : 0.0,
                        "keyframes" : [
                          {
                            "endTime" : 1177,
                            "time" : 1147,
                            "value" : 948.478453192254,
                            "duration" : 30
                          },
                          {
                            "endTime" : 1449,
                            "time" : 1419,
                            "value" : 948.478364944437,
                            "duration" : 30
                          },
                          {
                            "endTime" : 2474,
                            "time" : 2444,
                            "value" : 5.6843418860808e-14,
                            "duration" : 30
                          },
                          {
                            "endTime" : 3259,
                            "time" : 3229,
                            "value" : -774.930172418836,
                            "duration" : 30
                          },
                          {
                            "endTime" : 3491,
                            "time" : 3461,
                            "value" : -774.930252849251,
                            "duration" : 30
                          },
                          {
                            "endTime" : 3865,
                            "time" : 3835,
                            "value" : 5.6843418860808e-14,
                            "duration" : 30
                          },
                          {
                            "endTime" : 3913,
                            "time" : 3883,
                            "value" : 1596.09769057838,
                            "duration" : 30
                          },
                          {
                            "endTime" : 4027,
                            "time" : 3997,
                            "value" : 2.27373675443232e-13,
                            "duration" : 30
                          }
                        ]
                      },
                      "translation1" : {
                        "type" : "double",
                        "defaultValue" : 0.0,
                        "keyframes" : [
                          {
                            "endTime" : 1177,
                            "time" : 1147,
                            "value" : -426.526455592595,
                            "duration" : 30
                          },
                          {
                            "endTime" : 1449,
                            "time" : 1419,
                            "value" : -100.3,
                            "duration" : 30
                          },
                          {
                            "endTime" : 2474,
                            "time" : 2444,
                            "value" : -4.9737991503207e-14,
                            "duration" : 30
                          },
                          {
                            "endTime" : 3259,
                            "time" : 3229,
                            "value" : -101.709492105514,
                            "duration" : 30
                          },
                          {
                            "endTime" : 3491,
                            "time" : 3461,
                            "value" : 427.4,
                            "duration" : 30
                          },
                          {
                            "endTime" : 3865,
                            "time" : 3835,
                            "value" : -5.6843418860808e-14,
                            "duration" : 30
                          },
                          {
                            "endTime" : 3913,
                            "time" : 3883,
                            "value" : -743.478440251836,
                            "duration" : 30
                          },
                          {
                            "endTime" : 4027,
                            "time" : 3997,
                            "value" : 1.13686837721616e-13,
                            "duration" : 30
                          }
                        ]
                      },
                      "scale0" : {
                        "type" : "double",
                        "defaultValue" : 1.0,
                        "keyframes" : [
                          {
                            "endTime" : 1177,
                            "time" : 1147,
                            "value" : 1.98900262241215,
                            "duration" : 30
                          },
                          {
                            "endTime" : 2474,
                            "time" : 2444,
                            "value" : 0.999999767628522,
                            "duration" : 30
                          },
                          {
                            "endTime" : 3259,
                            "time" : 3229,
                            "value" : 2.22091728725881,
                            "duration" : 30
                          },
                          {
                            "endTime" : 3491,
                            "time" : 3461,
                            "value" : 2.22091757221115,
                            "duration" : 30
                          },
                          {
                            "endTime" : 3865,
                            "time" : 3835,
                            "value" : 0.999999908672186,
                            "duration" : 30
                          },
                          {
                            "endTime" : 3913,
                            "time" : 3883,
                            "value" : 2.30317149661612,
                            "duration" : 30
                          },
                          {
                            "endTime" : 4027,
                            "time" : 3997,
                            "value" : 0.999999941772713,
                            "duration" : 30
                          }
                        ]
                      },
                      "scale1" : {
                        "type" : "double",
                        "defaultValue" : 1.0,
                        "keyframes" : [
                          {
                            "endTime" : 1177,
                            "time" : 1147,
                            "value" : 1.98900308459974,
                            "duration" : 30
                          },
                          {
                            "endTime" : 2474,
                            "time" : 2444,
                            "value" : 1.0,
                            "duration" : 30
                          },
                          {
                            "endTime" : 3259,
                            "time" : 3229,
                            "value" : 2.22091777504271,
                            "duration" : 30
                          },
                          {
                            "endTime" : 3865,
                            "time" : 3835,
                            "value" : 1.0,
                            "duration" : 30
                          },
                          {
                            "endTime" : 3913,
                            "time" : 3883,
                            "value" : 2.30317163072356,
                            "duration" : 30
                          },
                          {
                            "endTime" : 4027,
                            "time" : 3997,
                            "value" : 1.0,
                            "duration" : 30
                          }
                        ]
                      },
                      "cursorOpacity" : 1.0,
                      "cursorScale" : 1.0
                    },
                    "medias" : [
                        {
                          "id" : 184,
                          "_type" : "ScreenVMFile",
                          "src" : 1,
                          "trackNumber" : 0,
                          "attributes" : {
                            "ident" : "hijacking_ntfs_structs_attack_prevention"
                          },
                          "parameters" : {
                            "cursorScale" : {
                              "type" : "double",
                              "defaultValue" : 0.0,
                              "interp" : "linr"
                            },
                            "cursorOpacity" : {
                              "type" : "double",
                              "defaultValue" : 0.0,
                              "interp" : "linr"
                            }
                          },
                          "effects" : [

                          ],
                          "start" : 0,
                          "duration" : 1620,
                          "mediaStart" : 0,
                          "mediaDuration" : 1620,
                          "scalar" : 1,
                          "metadata" : {
                            "AutoAppliedSmartFocus" : "False",
                            "clipSpeedAttribute" : false,
                            "default-scale0" : 1.0,
                            "default-scale1" : 1.0,
                            "default-translation0" : 0.0,
                            "default-translation1" : 0.0
                          },
                          "animationTracks" : {

                          }
                        },
                        {
                          "id" : 185,
                          "_type" : "ScreenIMFile",
                          "src" : 1,
                          "trackNumber" : 0,
                          "trimStartSum" : 0,
                          "attributes" : {
                            "ident" : "hijacking_ntfs_structs_attack_prevention"
                          },
                          "parameters" : {
                            "cursorOpacity" : 0.0,
                            "cursorScale" : 0.0
                          },
                          "effects" : [

                          ],
                          "start" : 1620,
                          "duration" : 30,
                          "mediaStart" : 1619,
                          "mediaDuration" : 1,
                          "scalar" : 1,
                          "metadata" : {
                            "AutoAppliedSmartFocus" : "False"
                          },
                          "animationTracks" : {

                          }
                        },
                        {
                          "id" : 186,
                          "_type" : "ScreenVMFile",
                          "src" : 1,
                          "trackNumber" : 0,
                          "attributes" : {
                            "ident" : "hijacking_ntfs_structs_attack_prevention"
                          },
                          "parameters" : {
                            "cursorScale" : {
                              "type" : "double",
                              "defaultValue" : 0.0,
                              "interp" : "linr"
                            },
                            "cursorOpacity" : {
                              "type" : "double",
                              "defaultValue" : 0.0,
                              "interp" : "linr"
                            }
                          },
                          "effects" : [

                          ],
                          "start" : 1650,
                          "duration" : 749,
                          "mediaStart" : 1620,
                          "mediaDuration" : 749,
                          "scalar" : 1,
                          "metadata" : {
                            "AutoAppliedSmartFocus" : "False",
                            "clipSpeedAttribute" : false,
                            "default-scale0" : 1.0,
                            "default-scale1" : 1.0,
                            "default-translation0" : 0.0,
                            "default-translation1" : 0.0
                          },
                          "animationTracks" : {

                          }
                        },
                        {
                          "id" : 187,
                          "_type" : "ScreenIMFile",
                          "src" : 1,
                          "trackNumber" : 0,
                          "trimStartSum" : 0,
                          "attributes" : {
                            "ident" : "hijacking_ntfs_structs_attack_prevention"
                          },
                          "parameters" : {
                            "cursorOpacity" : 0.0,
                            "cursorScale" : 0.0
                          },
                          "effects" : [

                          ],
                          "start" : 2399,
                          "duration" : 30,
                          "mediaStart" : 2369,
                          "mediaDuration" : 1,
                          "scalar" : 1,
                          "metadata" : {
                            "AutoAppliedSmartFocus" : "False"
                          },
                          "animationTracks" : {

                          }
                        },
                        {
                          "id" : 188,
                          "_type" : "ScreenVMFile",
                          "src" : 1,
                          "trackNumber" : 0,
                          "attributes" : {
                            "ident" : "hijacking_ntfs_structs_attack_prevention"
                          },
                          "parameters" : {
                            "cursorScale" : {
                              "type" : "double",
                              "defaultValue" : 0.0,
                              "interp" : "linr"
                            },
                            "cursorOpacity" : {
                              "type" : "double",
                              "defaultValue" : 0.0,
                              "interp" : "linr"
                            }
                          },
                          "effects" : [

                          ],
                          "start" : 2429,
                          "duration" : 67,
                          "mediaStart" : 2369,
                          "mediaDuration" : 67,
                          "scalar" : 1,
                          "metadata" : {
                            "AutoAppliedSmartFocus" : "False",
                            "clipSpeedAttribute" : false,
                            "default-scale0" : 1.0,
                            "default-scale1" : 1.0,
                            "default-translation0" : 0.0,
                            "default-translation1" : 0.0
                          },
                          "animationTracks" : {

                          }
                        },
                        {
                          "id" : 189,
                          "_type" : "ScreenIMFile",
                          "src" : 1,
                          "trackNumber" : 0,
                          "trimStartSum" : 0,
                          "attributes" : {
                            "ident" : "hijacking_ntfs_structs_attack_prevention"
                          },
                          "parameters" : {
                            "cursorOpacity" : 0.0,
                            "cursorScale" : 0.0
                          },
                          "effects" : [

                          ],
                          "start" : 2496,
                          "duration" : 60,
                          "mediaStart" : 2436,
                          "mediaDuration" : 1,
                          "scalar" : 1,
                          "metadata" : {
                            "AutoAppliedSmartFocus" : "False"
                          },
                          "animationTracks" : {

                          }
                        },
                        {
                          "id" : 190,
                          "_type" : "ScreenVMFile",
                          "src" : 1,
                          "trackNumber" : 0,
                          "attributes" : {
                            "ident" : "hijacking_ntfs_structs_attack_prevention"
                          },
                          "parameters" : {
                            "cursorScale" : {
                              "type" : "double",
                              "defaultValue" : 0.0,
                              "interp" : "linr"
                            },
                            "cursorOpacity" : {
                              "type" : "double",
                              "defaultValue" : 0.0,
                              "interp" : "linr"
                            }
                          },
                          "effects" : [

                          ],
                          "start" : 2556,
                          "duration" : 4597,
                          "mediaStart" : 2436,
                          "mediaDuration" : 4597,
                          "scalar" : 1,
                          "metadata" : {
                            "AutoAppliedSmartFocus" : "False",
                            "clipSpeedAttribute" : false,
                            "default-scale0" : 1.0,
                            "default-scale1" : 1.0,
                            "default-translation0" : 0.0,
                            "default-translation1" : 0.0
                          },
                          "animationTracks" : {

                          }
                        }
                    ],
                    "effects" : [
                        {
                          "effectName" : "CursorHilight",
                          "category" : "categoryCursorEffects",
                          "parameters" : {
                            "blur" : 0.1,
                            "color-alpha" : 0.75,
                            "color-blue" : 0.0,
                            "color-green" : 1.0,
                            "color-red" : 1.0,
                            "radius" : 50.0
                          }
                        }
                    ],
                    "start" : 1819,
                    "duration" : 130,
                    "mediaStart" : 3786,
                    "mediaDuration" : 130,
                    "scalar" : 1,
                    "metadata" : {
                      "AutoAppliedSmartFocus" : "False",
                      "clipSpeedAttribute" : false,
                      "default-scale0" : 0.999999767628522,
                      "default-scale1" : 1.0,
                      "default-translation0" : 5.6843418860808e-14,
                      "default-translation1" : -4.9737991503207e-14
                    },
                    "animationTracks" : {
                      "visual" : [
                        {
                          "endTime" : 1177,
                          "duration" : 30,
                          "range" : [ 1147, 30]
                        },
                        {
                          "endTime" : 1449,
                          "duration" : 30,
                          "range" : [ 1419, 30]
                        },
                        {
                          "endTime" : 2474,
                          "duration" : 30,
                          "range" : [ 2444, 30]
                        },
                        {
                          "endTime" : 3259,
                          "duration" : 30,
                          "range" : [ 3229, 30]
                        },
                        {
                          "endTime" : 3491,
                          "duration" : 30,
                          "range" : [ 3461, 30]
                        },
                        {
                          "endTime" : 3865,
                          "duration" : 30,
                          "range" : [ 3835, 30]
                        },
                        {
                          "endTime" : 3913,
                          "duration" : 30,
                          "range" : [ 3883, 30]
                        },
                        {
                          "endTime" : 4027,
                          "duration" : 30,
                          "range" : [ 3997, 30]
                        }
                      ]
                    }
                  },
                  {
                    "id" : 191,
                    "_type" : "StitchedMedia",
                    "minMediaStart" : 0,
                    "attributes" : {
                      "ident" : "hijacking_ntfs_structs_attack_prevention",
                      "gain" : 1.0,
                      "mixToMono" : false
                    },
                    "parameters" : {
                      "translation0" : {
                        "type" : "double",
                        "defaultValue" : 0.0,
                        "keyframes" : [
                          {
                            "endTime" : 1177,
                            "time" : 1147,
                            "value" : 948.478453192254,
                            "duration" : 30
                          },
                          {
                            "endTime" : 1449,
                            "time" : 1419,
                            "value" : 948.478364944437,
                            "duration" : 30
                          },
                          {
                            "endTime" : 2474,
                            "time" : 2444,
                            "value" : 5.6843418860808e-14,
                            "duration" : 30
                          },
                          {
                            "endTime" : 3259,
                            "time" : 3229,
                            "value" : -774.930172418836,
                            "duration" : 30
                          },
                          {
                            "endTime" : 3491,
                            "time" : 3461,
                            "value" : -774.930252849251,
                            "duration" : 30
                          },
                          {
                            "endTime" : 3865,
                            "time" : 3835,
                            "value" : 5.6843418860808e-14,
                            "duration" : 30
                          },
                          {
                            "endTime" : 3913,
                            "time" : 3883,
                            "value" : 1596.09769057838,
                            "duration" : 30
                          },
                          {
                            "endTime" : 4027,
                            "time" : 3997,
                            "value" : 2.27373675443232e-13,
                            "duration" : 30
                          }
                        ]
                      },
                      "translation1" : {
                        "type" : "double",
                        "defaultValue" : 0.0,
                        "keyframes" : [
                          {
                            "endTime" : 1177,
                            "time" : 1147,
                            "value" : -426.526455592595,
                            "duration" : 30
                          },
                          {
                            "endTime" : 1449,
                            "time" : 1419,
                            "value" : -100.3,
                            "duration" : 30
                          },
                          {
                            "endTime" : 2474,
                            "time" : 2444,
                            "value" : -4.9737991503207e-14,
                            "duration" : 30
                          },
                          {
                            "endTime" : 3259,
                            "time" : 3229,
                            "value" : -101.709492105514,
                            "duration" : 30
                          },
                          {
                            "endTime" : 3491,
                            "time" : 3461,
                            "value" : 427.4,
                            "duration" : 30
                          },
                          {
                            "endTime" : 3865,
                            "time" : 3835,
                            "value" : -5.6843418860808e-14,
                            "duration" : 30
                          },
                          {
                            "endTime" : 3913,
                            "time" : 3883,
                            "value" : -743.478440251836,
                            "duration" : 30
                          },
                          {
                            "endTime" : 4027,
                            "time" : 3997,
                            "value" : 1.13686837721616e-13,
                            "duration" : 30
                          }
                        ]
                      },
                      "scale0" : {
                        "type" : "double",
                        "defaultValue" : 1.0,
                        "keyframes" : [
                          {
                            "endTime" : 1177,
                            "time" : 1147,
                            "value" : 1.98900262241215,
                            "duration" : 30
                          },
                          {
                            "endTime" : 2474,
                            "time" : 2444,
                            "value" : 0.999999767628522,
                            "duration" : 30
                          },
                          {
                            "endTime" : 3259,
                            "time" : 3229,
                            "value" : 2.22091728725881,
                            "duration" : 30
                          },
                          {
                            "endTime" : 3491,
                            "time" : 3461,
                            "value" : 2.22091757221115,
                            "duration" : 30
                          },
                          {
                            "endTime" : 3865,
                            "time" : 3835,
                            "value" : 0.999999908672186,
                            "duration" : 30
                          },
                          {
                            "endTime" : 3913,
                            "time" : 3883,
                            "value" : 2.30317149661612,
                            "duration" : 30
                          },
                          {
                            "endTime" : 4027,
                            "time" : 3997,
                            "value" : 0.999999941772713,
                            "duration" : 30
                          }
                        ]
                      },
                      "scale1" : {
                        "type" : "double",
                        "defaultValue" : 1.0,
                        "keyframes" : [
                          {
                            "endTime" : 1177,
                            "time" : 1147,
                            "value" : 1.98900308459974,
                            "duration" : 30
                          },
                          {
                            "endTime" : 2474,
                            "time" : 2444,
                            "value" : 1.0,
                            "duration" : 30
                          },
                          {
                            "endTime" : 3259,
                            "time" : 3229,
                            "value" : 2.22091777504271,
                            "duration" : 30
                          },
                          {
                            "endTime" : 3865,
                            "time" : 3835,
                            "value" : 1.0,
                            "duration" : 30
                          },
                          {
                            "endTime" : 3913,
                            "time" : 3883,
                            "value" : 2.30317163072356,
                            "duration" : 30
                          },
                          {
                            "endTime" : 4027,
                            "time" : 3997,
                            "value" : 1.0,
                            "duration" : 30
                          }
                        ]
                      },
                      "cursorOpacity" : 1.0,
                      "cursorScale" : 1.0
                    },
                    "medias" : [
                        {
                          "id" : 192,
                          "_type" : "ScreenVMFile",
                          "src" : 1,
                          "trackNumber" : 0,
                          "attributes" : {
                            "ident" : "hijacking_ntfs_structs_attack_prevention"
                          },
                          "parameters" : {
                            "cursorScale" : {
                              "type" : "double",
                              "defaultValue" : 0.0,
                              "interp" : "linr"
                            },
                            "cursorOpacity" : {
                              "type" : "double",
                              "defaultValue" : 0.0,
                              "interp" : "linr"
                            }
                          },
                          "effects" : [

                          ],
                          "start" : 0,
                          "duration" : 1620,
                          "mediaStart" : 0,
                          "mediaDuration" : 1620,
                          "scalar" : 1,
                          "metadata" : {
                            "AutoAppliedSmartFocus" : "False",
                            "clipSpeedAttribute" : false,
                            "default-scale0" : 1.0,
                            "default-scale1" : 1.0,
                            "default-translation0" : 0.0,
                            "default-translation1" : 0.0
                          },
                          "animationTracks" : {

                          }
                        },
                        {
                          "id" : 193,
                          "_type" : "ScreenIMFile",
                          "src" : 1,
                          "trackNumber" : 0,
                          "trimStartSum" : 0,
                          "attributes" : {
                            "ident" : "hijacking_ntfs_structs_attack_prevention"
                          },
                          "parameters" : {
                            "cursorOpacity" : 0.0,
                            "cursorScale" : 0.0
                          },
                          "effects" : [

                          ],
                          "start" : 1620,
                          "duration" : 30,
                          "mediaStart" : 1619,
                          "mediaDuration" : 1,
                          "scalar" : 1,
                          "metadata" : {
                            "AutoAppliedSmartFocus" : "False"
                          },
                          "animationTracks" : {

                          }
                        },
                        {
                          "id" : 194,
                          "_type" : "ScreenVMFile",
                          "src" : 1,
                          "trackNumber" : 0,
                          "attributes" : {
                            "ident" : "hijacking_ntfs_structs_attack_prevention"
                          },
                          "parameters" : {
                            "cursorScale" : {
                              "type" : "double",
                              "defaultValue" : 0.0,
                              "interp" : "linr"
                            },
                            "cursorOpacity" : {
                              "type" : "double",
                              "defaultValue" : 0.0,
                              "interp" : "linr"
                            }
                          },
                          "effects" : [

                          ],
                          "start" : 1650,
                          "duration" : 749,
                          "mediaStart" : 1620,
                          "mediaDuration" : 749,
                          "scalar" : 1,
                          "metadata" : {
                            "AutoAppliedSmartFocus" : "False",
                            "clipSpeedAttribute" : false,
                            "default-scale0" : 1.0,
                            "default-scale1" : 1.0,
                            "default-translation0" : 0.0,
                            "default-translation1" : 0.0
                          },
                          "animationTracks" : {

                          }
                        },
                        {
                          "id" : 195,
                          "_type" : "ScreenIMFile",
                          "src" : 1,
                          "trackNumber" : 0,
                          "trimStartSum" : 0,
                          "attributes" : {
                            "ident" : "hijacking_ntfs_structs_attack_prevention"
                          },
                          "parameters" : {
                            "cursorOpacity" : 0.0,
                            "cursorScale" : 0.0
                          },
                          "effects" : [

                          ],
                          "start" : 2399,
                          "duration" : 30,
                          "mediaStart" : 2369,
                          "mediaDuration" : 1,
                          "scalar" : 1,
                          "metadata" : {
                            "AutoAppliedSmartFocus" : "False"
                          },
                          "animationTracks" : {

                          }
                        },
                        {
                          "id" : 196,
                          "_type" : "ScreenVMFile",
                          "src" : 1,
                          "trackNumber" : 0,
                          "attributes" : {
                            "ident" : "hijacking_ntfs_structs_attack_prevention"
                          },
                          "parameters" : {
                            "cursorScale" : {
                              "type" : "double",
                              "defaultValue" : 0.0,
                              "interp" : "linr"
                            },
                            "cursorOpacity" : {
                              "type" : "double",
                              "defaultValue" : 0.0,
                              "interp" : "linr"
                            }
                          },
                          "effects" : [

                          ],
                          "start" : 2429,
                          "duration" : 67,
                          "mediaStart" : 2369,
                          "mediaDuration" : 67,
                          "scalar" : 1,
                          "metadata" : {
                            "AutoAppliedSmartFocus" : "False",
                            "clipSpeedAttribute" : false,
                            "default-scale0" : 1.0,
                            "default-scale1" : 1.0,
                            "default-translation0" : 0.0,
                            "default-translation1" : 0.0
                          },
                          "animationTracks" : {

                          }
                        },
                        {
                          "id" : 197,
                          "_type" : "ScreenIMFile",
                          "src" : 1,
                          "trackNumber" : 0,
                          "trimStartSum" : 0,
                          "attributes" : {
                            "ident" : "hijacking_ntfs_structs_attack_prevention"
                          },
                          "parameters" : {
                            "cursorOpacity" : 0.0,
                            "cursorScale" : 0.0
                          },
                          "effects" : [

                          ],
                          "start" : 2496,
                          "duration" : 60,
                          "mediaStart" : 2436,
                          "mediaDuration" : 1,
                          "scalar" : 1,
                          "metadata" : {
                            "AutoAppliedSmartFocus" : "False"
                          },
                          "animationTracks" : {

                          }
                        },
                        {
                          "id" : 198,
                          "_type" : "ScreenVMFile",
                          "src" : 1,
                          "trackNumber" : 0,
                          "attributes" : {
                            "ident" : "hijacking_ntfs_structs_attack_prevention"
                          },
                          "parameters" : {
                            "cursorScale" : {
                              "type" : "double",
                              "defaultValue" : 0.0,
                              "interp" : "linr"
                            },
                            "cursorOpacity" : {
                              "type" : "double",
                              "defaultValue" : 0.0,
                              "interp" : "linr"
                            }
                          },
                          "effects" : [

                          ],
                          "start" : 2556,
                          "duration" : 4597,
                          "mediaStart" : 2436,
                          "mediaDuration" : 4597,
                          "scalar" : 1,
                          "metadata" : {
                            "AutoAppliedSmartFocus" : "False",
                            "clipSpeedAttribute" : false,
                            "default-scale0" : 1.0,
                            "default-scale1" : 1.0,
                            "default-translation0" : 0.0,
                            "default-translation1" : 0.0
                          },
                          "animationTracks" : {

                          }
                        }
                    ],
                    "effects" : [
                        {
                          "effectName" : "CursorHilight",
                          "category" : "categoryCursorEffects",
                          "parameters" : {
                            "blur" : 0.1,
                            "color-alpha" : 0.75,
                            "color-blue" : 0.0,
                            "color-green" : 1.0,
                            "color-red" : 1.0,
                            "radius" : 50.0
                          }
                        }
                    ],
                    "start" : 1949,
                    "duration" : 39,
                    "mediaStart" : 3916,
                    "mediaDuration" : 80,
                    "scalar" : "39/80",
                    "metadata" : {
                      "AutoAppliedSmartFocus" : "False",
                      "clipSpeedAttribute" : true,
                      "default-scale0" : 0.999999767628522,
                      "default-scale1" : 1.0,
                      "default-translation0" : 5.6843418860808e-14,
                      "default-translation1" : -4.9737991503207e-14
                    },
                    "animationTracks" : {
                      "visual" : [
                        {
                          "endTime" : 1177,
                          "duration" : 30,
                          "range" : [ 1147, 30]
                        },
                        {
                          "endTime" : 1449,
                          "duration" : 30,
                          "range" : [ 1419, 30]
                        },
                        {
                          "endTime" : 2474,
                          "duration" : 30,
                          "range" : [ 2444, 30]
                        },
                        {
                          "endTime" : 3259,
                          "duration" : 30,
                          "range" : [ 3229, 30]
                        },
                        {
                          "endTime" : 3491,
                          "duration" : 30,
                          "range" : [ 3461, 30]
                        },
                        {
                          "endTime" : 3865,
                          "duration" : 30,
                          "range" : [ 3835, 30]
                        },
                        {
                          "endTime" : 3913,
                          "duration" : 30,
                          "range" : [ 3883, 30]
                        },
                        {
                          "endTime" : 4027,
                          "duration" : 30,
                          "range" : [ 3997, 30]
                        }
                      ]
                    }
                  },
                  {
                    "id" : 199,
                    "_type" : "StitchedMedia",
                    "minMediaStart" : 0,
                    "attributes" : {
                      "ident" : "hijacking_ntfs_structs_attack_prevention",
                      "gain" : 1.0,
                      "mixToMono" : false
                    },
                    "parameters" : {
                      "translation0" : {
                        "type" : "double",
                        "defaultValue" : 0.0,
                        "keyframes" : [
                          {
                            "endTime" : 1177,
                            "time" : 1147,
                            "value" : 948.478453192254,
                            "duration" : 30
                          },
                          {
                            "endTime" : 1449,
                            "time" : 1419,
                            "value" : 948.478364944437,
                            "duration" : 30
                          },
                          {
                            "endTime" : 2474,
                            "time" : 2444,
                            "value" : 5.6843418860808e-14,
                            "duration" : 30
                          },
                          {
                            "endTime" : 3259,
                            "time" : 3229,
                            "value" : -774.930172418836,
                            "duration" : 30
                          },
                          {
                            "endTime" : 3491,
                            "time" : 3461,
                            "value" : -774.930252849251,
                            "duration" : 30
                          },
                          {
                            "endTime" : 3865,
                            "time" : 3835,
                            "value" : 5.6843418860808e-14,
                            "duration" : 30
                          },
                          {
                            "endTime" : 3913,
                            "time" : 3883,
                            "value" : 1596.09769057838,
                            "duration" : 30
                          },
                          {
                            "endTime" : 4027,
                            "time" : 3997,
                            "value" : 2.27373675443232e-13,
                            "duration" : 30
                          },
                          {
                            "endTime" : 4074,
                            "time" : 4044,
                            "value" : -774.9,
                            "duration" : 30
                          }
                        ]
                      },
                      "translation1" : {
                        "type" : "double",
                        "defaultValue" : 0.0,
                        "keyframes" : [
                          {
                            "endTime" : 1177,
                            "time" : 1147,
                            "value" : -426.526455592595,
                            "duration" : 30
                          },
                          {
                            "endTime" : 1449,
                            "time" : 1419,
                            "value" : -100.3,
                            "duration" : 30
                          },
                          {
                            "endTime" : 2474,
                            "time" : 2444,
                            "value" : -4.9737991503207e-14,
                            "duration" : 30
                          },
                          {
                            "endTime" : 3259,
                            "time" : 3229,
                            "value" : -101.709492105514,
                            "duration" : 30
                          },
                          {
                            "endTime" : 3491,
                            "time" : 3461,
                            "value" : 427.4,
                            "duration" : 30
                          },
                          {
                            "endTime" : 3865,
                            "time" : 3835,
                            "value" : -5.6843418860808e-14,
                            "duration" : 30
                          },
                          {
                            "endTime" : 3913,
                            "time" : 3883,
                            "value" : -743.478440251836,
                            "duration" : 30
                          },
                          {
                            "endTime" : 4027,
                            "time" : 3997,
                            "value" : 1.13686837721616e-13,
                            "duration" : 30
                          },
                          {
                            "endTime" : 4074,
                            "time" : 4044,
                            "value" : 427.4,
                            "duration" : 30
                          }
                        ]
                      },
                      "scale0" : {
                        "type" : "double",
                        "defaultValue" : 1.0,
                        "keyframes" : [
                          {
                            "endTime" : 1177,
                            "time" : 1147,
                            "value" : 1.98900262241215,
                            "duration" : 30
                          },
                          {
                            "endTime" : 2474,
                            "time" : 2444,
                            "value" : 0.999999767628522,
                            "duration" : 30
                          },
                          {
                            "endTime" : 3259,
                            "time" : 3229,
                            "value" : 2.22091728725881,
                            "duration" : 30
                          },
                          {
                            "endTime" : 3491,
                            "time" : 3461,
                            "value" : 2.22091757221115,
                            "duration" : 30
                          },
                          {
                            "endTime" : 3865,
                            "time" : 3835,
                            "value" : 0.999999908672186,
                            "duration" : 30
                          },
                          {
                            "endTime" : 3913,
                            "time" : 3883,
                            "value" : 2.30317149661612,
                            "duration" : 30
                          },
                          {
                            "endTime" : 4027,
                            "time" : 3997,
                            "value" : 0.999999941772713,
                            "duration" : 30
                          },
                          {
                            "endTime" : 4074,
                            "time" : 4044,
                            "value" : 2.22099983278936,
                            "duration" : 30
                          }
                        ]
                      },
                      "scale1" : {
                        "type" : "double",
                        "defaultValue" : 1.0,
                        "keyframes" : [
                          {
                            "endTime" : 1177,
                            "time" : 1147,
                            "value" : 1.98900308459974,
                            "duration" : 30
                          },
                          {
                            "endTime" : 2474,
                            "time" : 2444,
                            "value" : 1.0,
                            "duration" : 30
                          },
                          {
                            "endTime" : 3259,
                            "time" : 3229,
                            "value" : 2.22091777504271,
                            "duration" : 30
                          },
                          {
                            "endTime" : 3865,
                            "time" : 3835,
                            "value" : 1.0,
                            "duration" : 30
                          },
                          {
                            "endTime" : 3913,
                            "time" : 3883,
                            "value" : 2.30317163072356,
                            "duration" : 30
                          },
                          {
                            "endTime" : 4027,
                            "time" : 3997,
                            "value" : 1.0,
                            "duration" : 30
                          },
                          {
                            "endTime" : 4074,
                            "time" : 4044,
                            "value" : 2.221,
                            "duration" : 30
                          }
                        ]
                      },
                      "cursorOpacity" : 1.0,
                      "cursorScale" : 1.0
                    },
                    "medias" : [
                        {
                          "id" : 200,
                          "_type" : "ScreenVMFile",
                          "src" : 1,
                          "trackNumber" : 0,
                          "attributes" : {
                            "ident" : "hijacking_ntfs_structs_attack_prevention"
                          },
                          "parameters" : {
                            "cursorScale" : {
                              "type" : "double",
                              "defaultValue" : 0.0,
                              "interp" : "linr"
                            },
                            "cursorOpacity" : {
                              "type" : "double",
                              "defaultValue" : 0.0,
                              "interp" : "linr"
                            }
                          },
                          "effects" : [

                          ],
                          "start" : 0,
                          "duration" : 1620,
                          "mediaStart" : 0,
                          "mediaDuration" : 1620,
                          "scalar" : 1,
                          "metadata" : {
                            "AutoAppliedSmartFocus" : "False",
                            "clipSpeedAttribute" : false,
                            "default-scale0" : 1.0,
                            "default-scale1" : 1.0,
                            "default-translation0" : 0.0,
                            "default-translation1" : 0.0
                          },
                          "animationTracks" : {

                          }
                        },
                        {
                          "id" : 201,
                          "_type" : "ScreenIMFile",
                          "src" : 1,
                          "trackNumber" : 0,
                          "trimStartSum" : 0,
                          "attributes" : {
                            "ident" : "hijacking_ntfs_structs_attack_prevention"
                          },
                          "parameters" : {
                            "cursorOpacity" : 0.0,
                            "cursorScale" : 0.0
                          },
                          "effects" : [

                          ],
                          "start" : 1620,
                          "duration" : 30,
                          "mediaStart" : 1619,
                          "mediaDuration" : 1,
                          "scalar" : 1,
                          "metadata" : {
                            "AutoAppliedSmartFocus" : "False"
                          },
                          "animationTracks" : {

                          }
                        },
                        {
                          "id" : 202,
                          "_type" : "ScreenVMFile",
                          "src" : 1,
                          "trackNumber" : 0,
                          "attributes" : {
                            "ident" : "hijacking_ntfs_structs_attack_prevention"
                          },
                          "parameters" : {
                            "cursorScale" : {
                              "type" : "double",
                              "defaultValue" : 0.0,
                              "interp" : "linr"
                            },
                            "cursorOpacity" : {
                              "type" : "double",
                              "defaultValue" : 0.0,
                              "interp" : "linr"
                            }
                          },
                          "effects" : [

                          ],
                          "start" : 1650,
                          "duration" : 749,
                          "mediaStart" : 1620,
                          "mediaDuration" : 749,
                          "scalar" : 1,
                          "metadata" : {
                            "AutoAppliedSmartFocus" : "False",
                            "clipSpeedAttribute" : false,
                            "default-scale0" : 1.0,
                            "default-scale1" : 1.0,
                            "default-translation0" : 0.0,
                            "default-translation1" : 0.0
                          },
                          "animationTracks" : {

                          }
                        },
                        {
                          "id" : 203,
                          "_type" : "ScreenIMFile",
                          "src" : 1,
                          "trackNumber" : 0,
                          "trimStartSum" : 0,
                          "attributes" : {
                            "ident" : "hijacking_ntfs_structs_attack_prevention"
                          },
                          "parameters" : {
                            "cursorOpacity" : 0.0,
                            "cursorScale" : 0.0
                          },
                          "effects" : [

                          ],
                          "start" : 2399,
                          "duration" : 30,
                          "mediaStart" : 2369,
                          "mediaDuration" : 1,
                          "scalar" : 1,
                          "metadata" : {
                            "AutoAppliedSmartFocus" : "False"
                          },
                          "animationTracks" : {

                          }
                        },
                        {
                          "id" : 204,
                          "_type" : "ScreenVMFile",
                          "src" : 1,
                          "trackNumber" : 0,
                          "attributes" : {
                            "ident" : "hijacking_ntfs_structs_attack_prevention"
                          },
                          "parameters" : {
                            "cursorScale" : {
                              "type" : "double",
                              "defaultValue" : 0.0,
                              "interp" : "linr"
                            },
                            "cursorOpacity" : {
                              "type" : "double",
                              "defaultValue" : 0.0,
                              "interp" : "linr"
                            }
                          },
                          "effects" : [

                          ],
                          "start" : 2429,
                          "duration" : 67,
                          "mediaStart" : 2369,
                          "mediaDuration" : 67,
                          "scalar" : 1,
                          "metadata" : {
                            "AutoAppliedSmartFocus" : "False",
                            "clipSpeedAttribute" : false,
                            "default-scale0" : 1.0,
                            "default-scale1" : 1.0,
                            "default-translation0" : 0.0,
                            "default-translation1" : 0.0
                          },
                          "animationTracks" : {

                          }
                        },
                        {
                          "id" : 205,
                          "_type" : "ScreenIMFile",
                          "src" : 1,
                          "trackNumber" : 0,
                          "trimStartSum" : 0,
                          "attributes" : {
                            "ident" : "hijacking_ntfs_structs_attack_prevention"
                          },
                          "parameters" : {
                            "cursorOpacity" : 0.0,
                            "cursorScale" : 0.0
                          },
                          "effects" : [

                          ],
                          "start" : 2496,
                          "duration" : 60,
                          "mediaStart" : 2436,
                          "mediaDuration" : 1,
                          "scalar" : 1,
                          "metadata" : {
                            "AutoAppliedSmartFocus" : "False"
                          },
                          "animationTracks" : {

                          }
                        },
                        {
                          "id" : 206,
                          "_type" : "ScreenVMFile",
                          "src" : 1,
                          "trackNumber" : 0,
                          "attributes" : {
                            "ident" : "hijacking_ntfs_structs_attack_prevention"
                          },
                          "parameters" : {
                            "cursorScale" : {
                              "type" : "double",
                              "defaultValue" : 0.0,
                              "interp" : "linr"
                            },
                            "cursorOpacity" : {
                              "type" : "double",
                              "defaultValue" : 0.0,
                              "interp" : "linr"
                            }
                          },
                          "effects" : [

                          ],
                          "start" : 2556,
                          "duration" : 4597,
                          "mediaStart" : 2436,
                          "mediaDuration" : 4597,
                          "scalar" : 1,
                          "metadata" : {
                            "AutoAppliedSmartFocus" : "False",
                            "clipSpeedAttribute" : false,
                            "default-scale0" : 1.0,
                            "default-scale1" : 1.0,
                            "default-translation0" : 0.0,
                            "default-translation1" : 0.0
                          },
                          "animationTracks" : {

                          }
                        }
                    ],
                    "effects" : [
                        {
                          "effectName" : "CursorHilight",
                          "category" : "categoryCursorEffects",
                          "parameters" : {
                            "blur" : 0.1,
                            "color-alpha" : 0.75,
                            "color-blue" : 0.0,
                            "color-green" : 1.0,
                            "color-red" : 1.0,
                            "radius" : 50.0
                          }
                        }
                    ],
                    "start" : 1988,
                    "duration" : 122,
                    "mediaStart" : 3996,
                    "mediaDuration" : 122,
                    "scalar" : 1,
                    "metadata" : {
                      "AutoAppliedSmartFocus" : "False",
                      "clipSpeedAttribute" : false,
                      "default-scale0" : 0.999999767628522,
                      "default-scale1" : 1.0,
                      "default-translation0" : 5.6843418860808e-14,
                      "default-translation1" : -4.9737991503207e-14
                    },
                    "animationTracks" : {
                      "visual" : [
                        {
                          "endTime" : 1177,
                          "duration" : 30,
                          "range" : [ 1147, 30]
                        },
                        {
                          "endTime" : 1449,
                          "duration" : 30,
                          "range" : [ 1419, 30]
                        },
                        {
                          "endTime" : 2474,
                          "duration" : 30,
                          "range" : [ 2444, 30]
                        },
                        {
                          "endTime" : 3259,
                          "duration" : 30,
                          "range" : [ 3229, 30]
                        },
                        {
                          "endTime" : 3491,
                          "duration" : 30,
                          "range" : [ 3461, 30]
                        },
                        {
                          "endTime" : 3865,
                          "duration" : 30,
                          "range" : [ 3835, 30]
                        },
                        {
                          "endTime" : 3913,
                          "duration" : 30,
                          "range" : [ 3883, 30]
                        },
                        {
                          "endTime" : 4027,
                          "duration" : 30,
                          "range" : [ 3997, 30]
                        },
                        {
                          "endTime" : 4074,
                          "duration" : 30,
                          "range" : [ 4044, 30]
                        }
                      ]
                    }
                  },
                  {
                    "id" : 207,
                    "_type" : "StitchedMedia",
                    "minMediaStart" : 0,
                    "attributes" : {
                      "ident" : "hijacking_ntfs_structs_attack_prevention",
                      "gain" : 1.0,
                      "mixToMono" : false
                    },
                    "parameters" : {
                      "translation0" : {
                        "type" : "double",
                        "defaultValue" : 0.0,
                        "keyframes" : [
                          {
                            "endTime" : 1177,
                            "time" : 1147,
                            "value" : 948.478453192254,
                            "duration" : 30
                          },
                          {
                            "endTime" : 1449,
                            "time" : 1419,
                            "value" : 948.478364944437,
                            "duration" : 30
                          },
                          {
                            "endTime" : 2474,
                            "time" : 2444,
                            "value" : 5.6843418860808e-14,
                            "duration" : 30
                          },
                          {
                            "endTime" : 3259,
                            "time" : 3229,
                            "value" : -774.930172418836,
                            "duration" : 30
                          },
                          {
                            "endTime" : 3491,
                            "time" : 3461,
                            "value" : -774.930252849251,
                            "duration" : 30
                          },
                          {
                            "endTime" : 3865,
                            "time" : 3835,
                            "value" : 5.6843418860808e-14,
                            "duration" : 30
                          },
                          {
                            "endTime" : 3913,
                            "time" : 3883,
                            "value" : 1596.09769057838,
                            "duration" : 30
                          },
                          {
                            "endTime" : 4027,
                            "time" : 3997,
                            "value" : 2.27373675443232e-13,
                            "duration" : 30
                          },
                          {
                            "endTime" : 4074,
                            "time" : 4044,
                            "value" : -774.9,
                            "duration" : 30
                          }
                        ]
                      },
                      "translation1" : {
                        "type" : "double",
                        "defaultValue" : 0.0,
                        "keyframes" : [
                          {
                            "endTime" : 1177,
                            "time" : 1147,
                            "value" : -426.526455592595,
                            "duration" : 30
                          },
                          {
                            "endTime" : 1449,
                            "time" : 1419,
                            "value" : -100.3,
                            "duration" : 30
                          },
                          {
                            "endTime" : 2474,
                            "time" : 2444,
                            "value" : -4.9737991503207e-14,
                            "duration" : 30
                          },
                          {
                            "endTime" : 3259,
                            "time" : 3229,
                            "value" : -101.709492105514,
                            "duration" : 30
                          },
                          {
                            "endTime" : 3491,
                            "time" : 3461,
                            "value" : 427.4,
                            "duration" : 30
                          },
                          {
                            "endTime" : 3865,
                            "time" : 3835,
                            "value" : -5.6843418860808e-14,
                            "duration" : 30
                          },
                          {
                            "endTime" : 3913,
                            "time" : 3883,
                            "value" : -743.478440251836,
                            "duration" : 30
                          },
                          {
                            "endTime" : 4027,
                            "time" : 3997,
                            "value" : 1.13686837721616e-13,
                            "duration" : 30
                          },
                          {
                            "endTime" : 4074,
                            "time" : 4044,
                            "value" : 427.4,
                            "duration" : 30
                          }
                        ]
                      },
                      "scale0" : {
                        "type" : "double",
                        "defaultValue" : 1.0,
                        "keyframes" : [
                          {
                            "endTime" : 1177,
                            "time" : 1147,
                            "value" : 1.98900262241215,
                            "duration" : 30
                          },
                          {
                            "endTime" : 2474,
                            "time" : 2444,
                            "value" : 0.999999767628522,
                            "duration" : 30
                          },
                          {
                            "endTime" : 3259,
                            "time" : 3229,
                            "value" : 2.22091728725881,
                            "duration" : 30
                          },
                          {
                            "endTime" : 3491,
                            "time" : 3461,
                            "value" : 2.22091757221115,
                            "duration" : 30
                          },
                          {
                            "endTime" : 3865,
                            "time" : 3835,
                            "value" : 0.999999908672186,
                            "duration" : 30
                          },
                          {
                            "endTime" : 3913,
                            "time" : 3883,
                            "value" : 2.30317149661612,
                            "duration" : 30
                          },
                          {
                            "endTime" : 4027,
                            "time" : 3997,
                            "value" : 0.999999941772713,
                            "duration" : 30
                          },
                          {
                            "endTime" : 4074,
                            "time" : 4044,
                            "value" : 2.22099983278936,
                            "duration" : 30
                          }
                        ]
                      },
                      "scale1" : {
                        "type" : "double",
                        "defaultValue" : 1.0,
                        "keyframes" : [
                          {
                            "endTime" : 1177,
                            "time" : 1147,
                            "value" : 1.98900308459974,
                            "duration" : 30
                          },
                          {
                            "endTime" : 2474,
                            "time" : 2444,
                            "value" : 1.0,
                            "duration" : 30
                          },
                          {
                            "endTime" : 3259,
                            "time" : 3229,
                            "value" : 2.22091777504271,
                            "duration" : 30
                          },
                          {
                            "endTime" : 3865,
                            "time" : 3835,
                            "value" : 1.0,
                            "duration" : 30
                          },
                          {
                            "endTime" : 3913,
                            "time" : 3883,
                            "value" : 2.30317163072356,
                            "duration" : 30
                          },
                          {
                            "endTime" : 4027,
                            "time" : 3997,
                            "value" : 1.0,
                            "duration" : 30
                          },
                          {
                            "endTime" : 4074,
                            "time" : 4044,
                            "value" : 2.221,
                            "duration" : 30
                          }
                        ]
                      },
                      "cursorOpacity" : 1.0,
                      "cursorScale" : 1.0
                    },
                    "medias" : [
                        {
                          "id" : 208,
                          "_type" : "ScreenVMFile",
                          "src" : 1,
                          "trackNumber" : 0,
                          "attributes" : {
                            "ident" : "hijacking_ntfs_structs_attack_prevention"
                          },
                          "parameters" : {
                            "cursorScale" : {
                              "type" : "double",
                              "defaultValue" : 0.0,
                              "interp" : "linr"
                            },
                            "cursorOpacity" : {
                              "type" : "double",
                              "defaultValue" : 0.0,
                              "interp" : "linr"
                            }
                          },
                          "effects" : [

                          ],
                          "start" : 0,
                          "duration" : 1620,
                          "mediaStart" : 0,
                          "mediaDuration" : 1620,
                          "scalar" : 1,
                          "metadata" : {
                            "AutoAppliedSmartFocus" : "False",
                            "clipSpeedAttribute" : false,
                            "default-scale0" : 1.0,
                            "default-scale1" : 1.0,
                            "default-translation0" : 0.0,
                            "default-translation1" : 0.0
                          },
                          "animationTracks" : {

                          }
                        },
                        {
                          "id" : 209,
                          "_type" : "ScreenIMFile",
                          "src" : 1,
                          "trackNumber" : 0,
                          "trimStartSum" : 0,
                          "attributes" : {
                            "ident" : "hijacking_ntfs_structs_attack_prevention"
                          },
                          "parameters" : {
                            "cursorOpacity" : 0.0,
                            "cursorScale" : 0.0
                          },
                          "effects" : [

                          ],
                          "start" : 1620,
                          "duration" : 30,
                          "mediaStart" : 1619,
                          "mediaDuration" : 1,
                          "scalar" : 1,
                          "metadata" : {
                            "AutoAppliedSmartFocus" : "False"
                          },
                          "animationTracks" : {

                          }
                        },
                        {
                          "id" : 210,
                          "_type" : "ScreenVMFile",
                          "src" : 1,
                          "trackNumber" : 0,
                          "attributes" : {
                            "ident" : "hijacking_ntfs_structs_attack_prevention"
                          },
                          "parameters" : {
                            "cursorScale" : {
                              "type" : "double",
                              "defaultValue" : 0.0,
                              "interp" : "linr"
                            },
                            "cursorOpacity" : {
                              "type" : "double",
                              "defaultValue" : 0.0,
                              "interp" : "linr"
                            }
                          },
                          "effects" : [

                          ],
                          "start" : 1650,
                          "duration" : 749,
                          "mediaStart" : 1620,
                          "mediaDuration" : 749,
                          "scalar" : 1,
                          "metadata" : {
                            "AutoAppliedSmartFocus" : "False",
                            "clipSpeedAttribute" : false,
                            "default-scale0" : 1.0,
                            "default-scale1" : 1.0,
                            "default-translation0" : 0.0,
                            "default-translation1" : 0.0
                          },
                          "animationTracks" : {

                          }
                        },
                        {
                          "id" : 211,
                          "_type" : "ScreenIMFile",
                          "src" : 1,
                          "trackNumber" : 0,
                          "trimStartSum" : 0,
                          "attributes" : {
                            "ident" : "hijacking_ntfs_structs_attack_prevention"
                          },
                          "parameters" : {
                            "cursorOpacity" : 0.0,
                            "cursorScale" : 0.0
                          },
                          "effects" : [

                          ],
                          "start" : 2399,
                          "duration" : 30,
                          "mediaStart" : 2369,
                          "mediaDuration" : 1,
                          "scalar" : 1,
                          "metadata" : {
                            "AutoAppliedSmartFocus" : "False"
                          },
                          "animationTracks" : {

                          }
                        },
                        {
                          "id" : 212,
                          "_type" : "ScreenVMFile",
                          "src" : 1,
                          "trackNumber" : 0,
                          "attributes" : {
                            "ident" : "hijacking_ntfs_structs_attack_prevention"
                          },
                          "parameters" : {
                            "cursorScale" : {
                              "type" : "double",
                              "defaultValue" : 0.0,
                              "interp" : "linr"
                            },
                            "cursorOpacity" : {
                              "type" : "double",
                              "defaultValue" : 0.0,
                              "interp" : "linr"
                            }
                          },
                          "effects" : [

                          ],
                          "start" : 2429,
                          "duration" : 67,
                          "mediaStart" : 2369,
                          "mediaDuration" : 67,
                          "scalar" : 1,
                          "metadata" : {
                            "AutoAppliedSmartFocus" : "False",
                            "clipSpeedAttribute" : false,
                            "default-scale0" : 1.0,
                            "default-scale1" : 1.0,
                            "default-translation0" : 0.0,
                            "default-translation1" : 0.0
                          },
                          "animationTracks" : {

                          }
                        },
                        {
                          "id" : 213,
                          "_type" : "ScreenIMFile",
                          "src" : 1,
                          "trackNumber" : 0,
                          "trimStartSum" : 0,
                          "attributes" : {
                            "ident" : "hijacking_ntfs_structs_attack_prevention"
                          },
                          "parameters" : {
                            "cursorOpacity" : 0.0,
                            "cursorScale" : 0.0
                          },
                          "effects" : [

                          ],
                          "start" : 2496,
                          "duration" : 60,
                          "mediaStart" : 2436,
                          "mediaDuration" : 1,
                          "scalar" : 1,
                          "metadata" : {
                            "AutoAppliedSmartFocus" : "False"
                          },
                          "animationTracks" : {

                          }
                        },
                        {
                          "id" : 214,
                          "_type" : "ScreenVMFile",
                          "src" : 1,
                          "trackNumber" : 0,
                          "attributes" : {
                            "ident" : "hijacking_ntfs_structs_attack_prevention"
                          },
                          "parameters" : {
                            "cursorScale" : {
                              "type" : "double",
                              "defaultValue" : 0.0,
                              "interp" : "linr"
                            },
                            "cursorOpacity" : {
                              "type" : "double",
                              "defaultValue" : 0.0,
                              "interp" : "linr"
                            }
                          },
                          "effects" : [

                          ],
                          "start" : 2556,
                          "duration" : 4597,
                          "mediaStart" : 2436,
                          "mediaDuration" : 4597,
                          "scalar" : 1,
                          "metadata" : {
                            "AutoAppliedSmartFocus" : "False",
                            "clipSpeedAttribute" : false,
                            "default-scale0" : 1.0,
                            "default-scale1" : 1.0,
                            "default-translation0" : 0.0,
                            "default-translation1" : 0.0
                          },
                          "animationTracks" : {

                          }
                        }
                    ],
                    "effects" : [
                        {
                          "effectName" : "CursorHilight",
                          "category" : "categoryCursorEffects",
                          "parameters" : {
                            "blur" : 0.1,
                            "color-alpha" : 0.75,
                            "color-blue" : 0.0,
                            "color-green" : 1.0,
                            "color-red" : 1.0,
                            "radius" : 50.0
                          }
                        }
                    ],
                    "start" : 2110,
                    "duration" : 30,
                    "mediaStart" : 4118,
                    "mediaDuration" : 226,
                    "scalar" : "15/113",
                    "metadata" : {
                      "AutoAppliedSmartFocus" : "False",
                      "clipSpeedAttribute" : true,
                      "default-scale0" : 0.999999767628522,
                      "default-scale1" : 1.0,
                      "default-translation0" : 5.6843418860808e-14,
                      "default-translation1" : -4.9737991503207e-14
                    },
                    "animationTracks" : {
                      "visual" : [
                        {
                          "endTime" : 1177,
                          "duration" : 30,
                          "range" : [ 1147, 30]
                        },
                        {
                          "endTime" : 1449,
                          "duration" : 30,
                          "range" : [ 1419, 30]
                        },
                        {
                          "endTime" : 2474,
                          "duration" : 30,
                          "range" : [ 2444, 30]
                        },
                        {
                          "endTime" : 3259,
                          "duration" : 30,
                          "range" : [ 3229, 30]
                        },
                        {
                          "endTime" : 3491,
                          "duration" : 30,
                          "range" : [ 3461, 30]
                        },
                        {
                          "endTime" : 3865,
                          "duration" : 30,
                          "range" : [ 3835, 30]
                        },
                        {
                          "endTime" : 3913,
                          "duration" : 30,
                          "range" : [ 3883, 30]
                        },
                        {
                          "endTime" : 4027,
                          "duration" : 30,
                          "range" : [ 3997, 30]
                        },
                        {
                          "endTime" : 4074,
                          "duration" : 30,
                          "range" : [ 4044, 30]
                        }
                      ]
                    }
                  },
                  {
                    "id" : 215,
                    "_type" : "StitchedMedia",
                    "minMediaStart" : 0,
                    "attributes" : {
                      "ident" : "hijacking_ntfs_structs_attack_prevention",
                      "gain" : 1.0,
                      "mixToMono" : false
                    },
                    "parameters" : {
                      "translation0" : {
                        "type" : "double",
                        "defaultValue" : 0.0,
                        "keyframes" : [
                          {
                            "endTime" : 1177,
                            "time" : 1147,
                            "value" : 948.478453192254,
                            "duration" : 30
                          },
                          {
                            "endTime" : 1449,
                            "time" : 1419,
                            "value" : 948.478364944437,
                            "duration" : 30
                          },
                          {
                            "endTime" : 2474,
                            "time" : 2444,
                            "value" : 5.6843418860808e-14,
                            "duration" : 30
                          },
                          {
                            "endTime" : 3259,
                            "time" : 3229,
                            "value" : -774.930172418836,
                            "duration" : 30
                          },
                          {
                            "endTime" : 3491,
                            "time" : 3461,
                            "value" : -774.930252849251,
                            "duration" : 30
                          },
                          {
                            "endTime" : 3865,
                            "time" : 3835,
                            "value" : 5.6843418860808e-14,
                            "duration" : 30
                          },
                          {
                            "endTime" : 3913,
                            "time" : 3883,
                            "value" : 1596.09769057838,
                            "duration" : 30
                          },
                          {
                            "endTime" : 4027,
                            "time" : 3997,
                            "value" : 2.27373675443232e-13,
                            "duration" : 30
                          },
                          {
                            "endTime" : 4074,
                            "time" : 4044,
                            "value" : -774.9,
                            "duration" : 30
                          }
                        ]
                      },
                      "translation1" : {
                        "type" : "double",
                        "defaultValue" : 0.0,
                        "keyframes" : [
                          {
                            "endTime" : 1177,
                            "time" : 1147,
                            "value" : -426.526455592595,
                            "duration" : 30
                          },
                          {
                            "endTime" : 1449,
                            "time" : 1419,
                            "value" : -100.3,
                            "duration" : 30
                          },
                          {
                            "endTime" : 2474,
                            "time" : 2444,
                            "value" : -4.9737991503207e-14,
                            "duration" : 30
                          },
                          {
                            "endTime" : 3259,
                            "time" : 3229,
                            "value" : -101.709492105514,
                            "duration" : 30
                          },
                          {
                            "endTime" : 3491,
                            "time" : 3461,
                            "value" : 427.4,
                            "duration" : 30
                          },
                          {
                            "endTime" : 3865,
                            "time" : 3835,
                            "value" : -5.6843418860808e-14,
                            "duration" : 30
                          },
                          {
                            "endTime" : 3913,
                            "time" : 3883,
                            "value" : -743.478440251836,
                            "duration" : 30
                          },
                          {
                            "endTime" : 4027,
                            "time" : 3997,
                            "value" : 1.13686837721616e-13,
                            "duration" : 30
                          },
                          {
                            "endTime" : 4074,
                            "time" : 4044,
                            "value" : 427.4,
                            "duration" : 30
                          }
                        ]
                      },
                      "scale0" : {
                        "type" : "double",
                        "defaultValue" : 1.0,
                        "keyframes" : [
                          {
                            "endTime" : 1177,
                            "time" : 1147,
                            "value" : 1.98900262241215,
                            "duration" : 30
                          },
                          {
                            "endTime" : 2474,
                            "time" : 2444,
                            "value" : 0.999999767628522,
                            "duration" : 30
                          },
                          {
                            "endTime" : 3259,
                            "time" : 3229,
                            "value" : 2.22091728725881,
                            "duration" : 30
                          },
                          {
                            "endTime" : 3491,
                            "time" : 3461,
                            "value" : 2.22091757221115,
                            "duration" : 30
                          },
                          {
                            "endTime" : 3865,
                            "time" : 3835,
                            "value" : 0.999999908672186,
                            "duration" : 30
                          },
                          {
                            "endTime" : 3913,
                            "time" : 3883,
                            "value" : 2.30317149661612,
                            "duration" : 30
                          },
                          {
                            "endTime" : 4027,
                            "time" : 3997,
                            "value" : 0.999999941772713,
                            "duration" : 30
                          },
                          {
                            "endTime" : 4074,
                            "time" : 4044,
                            "value" : 2.22099983278936,
                            "duration" : 30
                          }
                        ]
                      },
                      "scale1" : {
                        "type" : "double",
                        "defaultValue" : 1.0,
                        "keyframes" : [
                          {
                            "endTime" : 1177,
                            "time" : 1147,
                            "value" : 1.98900308459974,
                            "duration" : 30
                          },
                          {
                            "endTime" : 2474,
                            "time" : 2444,
                            "value" : 1.0,
                            "duration" : 30
                          },
                          {
                            "endTime" : 3259,
                            "time" : 3229,
                            "value" : 2.22091777504271,
                            "duration" : 30
                          },
                          {
                            "endTime" : 3865,
                            "time" : 3835,
                            "value" : 1.0,
                            "duration" : 30
                          },
                          {
                            "endTime" : 3913,
                            "time" : 3883,
                            "value" : 2.30317163072356,
                            "duration" : 30
                          },
                          {
                            "endTime" : 4027,
                            "time" : 3997,
                            "value" : 1.0,
                            "duration" : 30
                          },
                          {
                            "endTime" : 4074,
                            "time" : 4044,
                            "value" : 2.221,
                            "duration" : 30
                          }
                        ]
                      },
                      "cursorOpacity" : 1.0,
                      "cursorScale" : 1.0
                    },
                    "medias" : [
                        {
                          "id" : 216,
                          "_type" : "ScreenVMFile",
                          "src" : 1,
                          "trackNumber" : 0,
                          "attributes" : {
                            "ident" : "hijacking_ntfs_structs_attack_prevention"
                          },
                          "parameters" : {
                            "cursorScale" : {
                              "type" : "double",
                              "defaultValue" : 0.0,
                              "interp" : "linr"
                            },
                            "cursorOpacity" : {
                              "type" : "double",
                              "defaultValue" : 0.0,
                              "interp" : "linr"
                            }
                          },
                          "effects" : [

                          ],
                          "start" : 0,
                          "duration" : 1620,
                          "mediaStart" : 0,
                          "mediaDuration" : 1620,
                          "scalar" : 1,
                          "metadata" : {
                            "AutoAppliedSmartFocus" : "False",
                            "clipSpeedAttribute" : false,
                            "default-scale0" : 1.0,
                            "default-scale1" : 1.0,
                            "default-translation0" : 0.0,
                            "default-translation1" : 0.0
                          },
                          "animationTracks" : {

                          }
                        },
                        {
                          "id" : 217,
                          "_type" : "ScreenIMFile",
                          "src" : 1,
                          "trackNumber" : 0,
                          "trimStartSum" : 0,
                          "attributes" : {
                            "ident" : "hijacking_ntfs_structs_attack_prevention"
                          },
                          "parameters" : {
                            "cursorOpacity" : 0.0,
                            "cursorScale" : 0.0
                          },
                          "effects" : [

                          ],
                          "start" : 1620,
                          "duration" : 30,
                          "mediaStart" : 1619,
                          "mediaDuration" : 1,
                          "scalar" : 1,
                          "metadata" : {
                            "AutoAppliedSmartFocus" : "False"
                          },
                          "animationTracks" : {

                          }
                        },
                        {
                          "id" : 218,
                          "_type" : "ScreenVMFile",
                          "src" : 1,
                          "trackNumber" : 0,
                          "attributes" : {
                            "ident" : "hijacking_ntfs_structs_attack_prevention"
                          },
                          "parameters" : {
                            "cursorScale" : {
                              "type" : "double",
                              "defaultValue" : 0.0,
                              "interp" : "linr"
                            },
                            "cursorOpacity" : {
                              "type" : "double",
                              "defaultValue" : 0.0,
                              "interp" : "linr"
                            }
                          },
                          "effects" : [

                          ],
                          "start" : 1650,
                          "duration" : 749,
                          "mediaStart" : 1620,
                          "mediaDuration" : 749,
                          "scalar" : 1,
                          "metadata" : {
                            "AutoAppliedSmartFocus" : "False",
                            "clipSpeedAttribute" : false,
                            "default-scale0" : 1.0,
                            "default-scale1" : 1.0,
                            "default-translation0" : 0.0,
                            "default-translation1" : 0.0
                          },
                          "animationTracks" : {

                          }
                        },
                        {
                          "id" : 219,
                          "_type" : "ScreenIMFile",
                          "src" : 1,
                          "trackNumber" : 0,
                          "trimStartSum" : 0,
                          "attributes" : {
                            "ident" : "hijacking_ntfs_structs_attack_prevention"
                          },
                          "parameters" : {
                            "cursorOpacity" : 0.0,
                            "cursorScale" : 0.0
                          },
                          "effects" : [

                          ],
                          "start" : 2399,
                          "duration" : 30,
                          "mediaStart" : 2369,
                          "mediaDuration" : 1,
                          "scalar" : 1,
                          "metadata" : {
                            "AutoAppliedSmartFocus" : "False"
                          },
                          "animationTracks" : {

                          }
                        },
                        {
                          "id" : 220,
                          "_type" : "ScreenVMFile",
                          "src" : 1,
                          "trackNumber" : 0,
                          "attributes" : {
                            "ident" : "hijacking_ntfs_structs_attack_prevention"
                          },
                          "parameters" : {
                            "cursorScale" : {
                              "type" : "double",
                              "defaultValue" : 0.0,
                              "interp" : "linr"
                            },
                            "cursorOpacity" : {
                              "type" : "double",
                              "defaultValue" : 0.0,
                              "interp" : "linr"
                            }
                          },
                          "effects" : [

                          ],
                          "start" : 2429,
                          "duration" : 67,
                          "mediaStart" : 2369,
                          "mediaDuration" : 67,
                          "scalar" : 1,
                          "metadata" : {
                            "AutoAppliedSmartFocus" : "False",
                            "clipSpeedAttribute" : false,
                            "default-scale0" : 1.0,
                            "default-scale1" : 1.0,
                            "default-translation0" : 0.0,
                            "default-translation1" : 0.0
                          },
                          "animationTracks" : {

                          }
                        },
                        {
                          "id" : 221,
                          "_type" : "ScreenIMFile",
                          "src" : 1,
                          "trackNumber" : 0,
                          "trimStartSum" : 0,
                          "attributes" : {
                            "ident" : "hijacking_ntfs_structs_attack_prevention"
                          },
                          "parameters" : {
                            "cursorOpacity" : 0.0,
                            "cursorScale" : 0.0
                          },
                          "effects" : [

                          ],
                          "start" : 2496,
                          "duration" : 60,
                          "mediaStart" : 2436,
                          "mediaDuration" : 1,
                          "scalar" : 1,
                          "metadata" : {
                            "AutoAppliedSmartFocus" : "False"
                          },
                          "animationTracks" : {

                          }
                        },
                        {
                          "id" : 222,
                          "_type" : "ScreenVMFile",
                          "src" : 1,
                          "trackNumber" : 0,
                          "attributes" : {
                            "ident" : "hijacking_ntfs_structs_attack_prevention"
                          },
                          "parameters" : {
                            "cursorScale" : {
                              "type" : "double",
                              "defaultValue" : 0.0,
                              "interp" : "linr"
                            },
                            "cursorOpacity" : {
                              "type" : "double",
                              "defaultValue" : 0.0,
                              "interp" : "linr"
                            }
                          },
                          "effects" : [

                          ],
                          "start" : 2556,
                          "duration" : 1907,
                          "mediaStart" : 2436,
                          "mediaDuration" : 1907,
                          "scalar" : 1,
                          "metadata" : {
                            "AutoAppliedSmartFocus" : "False",
                            "clipSpeedAttribute" : false,
                            "default-scale0" : 1.0,
                            "default-scale1" : 1.0,
                            "default-translation0" : 0.0,
                            "default-translation1" : 0.0
                          },
                          "animationTracks" : {

                          }
                        },
                        {
                          "id" : 223,
                          "_type" : "ScreenIMFile",
                          "src" : 1,
                          "trackNumber" : 0,
                          "trimStartSum" : 0,
                          "attributes" : {
                            "ident" : "hijacking_ntfs_structs_attack_prevention"
                          },
                          "parameters" : {
                            "cursorOpacity" : 0.0,
                            "cursorScale" : 0.0
                          },
                          "effects" : [

                          ],
                          "start" : 4463,
                          "duration" : 66,
                          "mediaStart" : 4343,
                          "mediaDuration" : 1,
                          "scalar" : 1,
                          "metadata" : {
                            "AutoAppliedSmartFocus" : "False"
                          },
                          "animationTracks" : {

                          }
                        },
                        {
                          "id" : 224,
                          "_type" : "ScreenVMFile",
                          "src" : 1,
                          "trackNumber" : 0,
                          "attributes" : {
                            "ident" : "hijacking_ntfs_structs_attack_prevention"
                          },
                          "parameters" : {
                            "cursorScale" : {
                              "type" : "double",
                              "defaultValue" : 0.0,
                              "interp" : "linr"
                            },
                            "cursorOpacity" : {
                              "type" : "double",
                              "defaultValue" : 0.0,
                              "interp" : "linr"
                            }
                          },
                          "effects" : [

                          ],
                          "start" : 4529,
                          "duration" : 2690,
                          "mediaStart" : 4343,
                          "mediaDuration" : 2690,
                          "scalar" : 1,
                          "metadata" : {
                            "AutoAppliedSmartFocus" : "False",
                            "clipSpeedAttribute" : false,
                            "default-scale0" : 1.0,
                            "default-scale1" : 1.0,
                            "default-translation0" : 0.0,
                            "default-translation1" : 0.0
                          },
                          "animationTracks" : {

                          }
                        }
                    ],
                    "effects" : [
                        {
                          "effectName" : "CursorHilight",
                          "category" : "categoryCursorEffects",
                          "parameters" : {
                            "blur" : 0.1,
                            "color-alpha" : 0.75,
                            "color-blue" : 0.0,
                            "color-green" : 1.0,
                            "color-red" : 1.0,
                            "radius" : 50.0
                          }
                        }
                    ],
                    "start" : 2140,
                    "duration" : 193,
                    "mediaStart" : 4344,
                    "mediaDuration" : 193,
                    "scalar" : 1,
                    "metadata" : {
                      "AutoAppliedSmartFocus" : "False",
                      "clipSpeedAttribute" : false
                    },
                    "animationTracks" : {
                      "visual" : [
                        {
                          "endTime" : 1177,
                          "duration" : 30,
                          "range" : [ 1147, 30]
                        },
                        {
                          "endTime" : 1449,
                          "duration" : 30,
                          "range" : [ 1419, 30]
                        },
                        {
                          "endTime" : 2474,
                          "duration" : 30,
                          "range" : [ 2444, 30]
                        },
                        {
                          "endTime" : 3259,
                          "duration" : 30,
                          "range" : [ 3229, 30]
                        },
                        {
                          "endTime" : 3491,
                          "duration" : 30,
                          "range" : [ 3461, 30]
                        },
                        {
                          "endTime" : 3865,
                          "duration" : 30,
                          "range" : [ 3835, 30]
                        },
                        {
                          "endTime" : 3913,
                          "duration" : 30,
                          "range" : [ 3883, 30]
                        },
                        {
                          "endTime" : 4027,
                          "duration" : 30,
                          "range" : [ 3997, 30]
                        },
                        {
                          "endTime" : 4074,
                          "duration" : 30,
                          "range" : [ 4044, 30]
                        }
                      ]
                    }
                  },
                  {
                    "id" : 225,
                    "_type" : "StitchedMedia",
                    "minMediaStart" : 0,
                    "attributes" : {
                      "ident" : "hijacking_ntfs_structs_attack_prevention",
                      "gain" : 1.0,
                      "mixToMono" : false
                    },
                    "parameters" : {
                      "translation0" : {
                        "type" : "double",
                        "defaultValue" : 0.0,
                        "keyframes" : [
                          {
                            "endTime" : 1177,
                            "time" : 1147,
                            "value" : 948.478453192254,
                            "duration" : 30
                          },
                          {
                            "endTime" : 1449,
                            "time" : 1419,
                            "value" : 948.478364944437,
                            "duration" : 30
                          },
                          {
                            "endTime" : 2474,
                            "time" : 2444,
                            "value" : 5.6843418860808e-14,
                            "duration" : 30
                          },
                          {
                            "endTime" : 3259,
                            "time" : 3229,
                            "value" : -774.930172418836,
                            "duration" : 30
                          },
                          {
                            "endTime" : 3491,
                            "time" : 3461,
                            "value" : -774.930252849251,
                            "duration" : 30
                          },
                          {
                            "endTime" : 3865,
                            "time" : 3835,
                            "value" : 5.6843418860808e-14,
                            "duration" : 30
                          },
                          {
                            "endTime" : 3913,
                            "time" : 3883,
                            "value" : 1596.09769057838,
                            "duration" : 30
                          },
                          {
                            "endTime" : 4027,
                            "time" : 3997,
                            "value" : 2.27373675443232e-13,
                            "duration" : 30
                          },
                          {
                            "endTime" : 4074,
                            "time" : 4044,
                            "value" : -774.9,
                            "duration" : 30
                          }
                        ]
                      },
                      "translation1" : {
                        "type" : "double",
                        "defaultValue" : 0.0,
                        "keyframes" : [
                          {
                            "endTime" : 1177,
                            "time" : 1147,
                            "value" : -426.526455592595,
                            "duration" : 30
                          },
                          {
                            "endTime" : 1449,
                            "time" : 1419,
                            "value" : -100.3,
                            "duration" : 30
                          },
                          {
                            "endTime" : 2474,
                            "time" : 2444,
                            "value" : -4.9737991503207e-14,
                            "duration" : 30
                          },
                          {
                            "endTime" : 3259,
                            "time" : 3229,
                            "value" : -101.709492105514,
                            "duration" : 30
                          },
                          {
                            "endTime" : 3491,
                            "time" : 3461,
                            "value" : 427.4,
                            "duration" : 30
                          },
                          {
                            "endTime" : 3865,
                            "time" : 3835,
                            "value" : -5.6843418860808e-14,
                            "duration" : 30
                          },
                          {
                            "endTime" : 3913,
                            "time" : 3883,
                            "value" : -743.478440251836,
                            "duration" : 30
                          },
                          {
                            "endTime" : 4027,
                            "time" : 3997,
                            "value" : 1.13686837721616e-13,
                            "duration" : 30
                          },
                          {
                            "endTime" : 4074,
                            "time" : 4044,
                            "value" : 427.4,
                            "duration" : 30
                          }
                        ]
                      },
                      "scale0" : {
                        "type" : "double",
                        "defaultValue" : 1.0,
                        "keyframes" : [
                          {
                            "endTime" : 1177,
                            "time" : 1147,
                            "value" : 1.98900262241215,
                            "duration" : 30
                          },
                          {
                            "endTime" : 2474,
                            "time" : 2444,
                            "value" : 0.999999767628522,
                            "duration" : 30
                          },
                          {
                            "endTime" : 3259,
                            "time" : 3229,
                            "value" : 2.22091728725881,
                            "duration" : 30
                          },
                          {
                            "endTime" : 3491,
                            "time" : 3461,
                            "value" : 2.22091757221115,
                            "duration" : 30
                          },
                          {
                            "endTime" : 3865,
                            "time" : 3835,
                            "value" : 0.999999908672186,
                            "duration" : 30
                          },
                          {
                            "endTime" : 3913,
                            "time" : 3883,
                            "value" : 2.30317149661612,
                            "duration" : 30
                          },
                          {
                            "endTime" : 4027,
                            "time" : 3997,
                            "value" : 0.999999941772713,
                            "duration" : 30
                          },
                          {
                            "endTime" : 4074,
                            "time" : 4044,
                            "value" : 2.22099983278936,
                            "duration" : 30
                          }
                        ]
                      },
                      "scale1" : {
                        "type" : "double",
                        "defaultValue" : 1.0,
                        "keyframes" : [
                          {
                            "endTime" : 1177,
                            "time" : 1147,
                            "value" : 1.98900308459974,
                            "duration" : 30
                          },
                          {
                            "endTime" : 2474,
                            "time" : 2444,
                            "value" : 1.0,
                            "duration" : 30
                          },
                          {
                            "endTime" : 3259,
                            "time" : 3229,
                            "value" : 2.22091777504271,
                            "duration" : 30
                          },
                          {
                            "endTime" : 3865,
                            "time" : 3835,
                            "value" : 1.0,
                            "duration" : 30
                          },
                          {
                            "endTime" : 3913,
                            "time" : 3883,
                            "value" : 2.30317163072356,
                            "duration" : 30
                          },
                          {
                            "endTime" : 4027,
                            "time" : 3997,
                            "value" : 1.0,
                            "duration" : 30
                          },
                          {
                            "endTime" : 4074,
                            "time" : 4044,
                            "value" : 2.221,
                            "duration" : 30
                          }
                        ]
                      },
                      "cursorOpacity" : 1.0,
                      "cursorScale" : 1.0
                    },
                    "medias" : [
                        {
                          "id" : 226,
                          "_type" : "ScreenVMFile",
                          "src" : 1,
                          "trackNumber" : 0,
                          "attributes" : {
                            "ident" : "hijacking_ntfs_structs_attack_prevention"
                          },
                          "parameters" : {
                            "cursorScale" : {
                              "type" : "double",
                              "defaultValue" : 0.0,
                              "interp" : "linr"
                            },
                            "cursorOpacity" : {
                              "type" : "double",
                              "defaultValue" : 0.0,
                              "interp" : "linr"
                            }
                          },
                          "effects" : [

                          ],
                          "start" : 0,
                          "duration" : 1620,
                          "mediaStart" : 0,
                          "mediaDuration" : 1620,
                          "scalar" : 1,
                          "metadata" : {
                            "AutoAppliedSmartFocus" : "False",
                            "clipSpeedAttribute" : false,
                            "default-scale0" : 1.0,
                            "default-scale1" : 1.0,
                            "default-translation0" : 0.0,
                            "default-translation1" : 0.0
                          },
                          "animationTracks" : {

                          }
                        },
                        {
                          "id" : 227,
                          "_type" : "ScreenIMFile",
                          "src" : 1,
                          "trackNumber" : 0,
                          "trimStartSum" : 0,
                          "attributes" : {
                            "ident" : "hijacking_ntfs_structs_attack_prevention"
                          },
                          "parameters" : {
                            "cursorOpacity" : 0.0,
                            "cursorScale" : 0.0
                          },
                          "effects" : [

                          ],
                          "start" : 1620,
                          "duration" : 30,
                          "mediaStart" : 1619,
                          "mediaDuration" : 1,
                          "scalar" : 1,
                          "metadata" : {
                            "AutoAppliedSmartFocus" : "False"
                          },
                          "animationTracks" : {

                          }
                        },
                        {
                          "id" : 228,
                          "_type" : "ScreenVMFile",
                          "src" : 1,
                          "trackNumber" : 0,
                          "attributes" : {
                            "ident" : "hijacking_ntfs_structs_attack_prevention"
                          },
                          "parameters" : {
                            "cursorScale" : {
                              "type" : "double",
                              "defaultValue" : 0.0,
                              "interp" : "linr"
                            },
                            "cursorOpacity" : {
                              "type" : "double",
                              "defaultValue" : 0.0,
                              "interp" : "linr"
                            }
                          },
                          "effects" : [

                          ],
                          "start" : 1650,
                          "duration" : 749,
                          "mediaStart" : 1620,
                          "mediaDuration" : 749,
                          "scalar" : 1,
                          "metadata" : {
                            "AutoAppliedSmartFocus" : "False",
                            "clipSpeedAttribute" : false,
                            "default-scale0" : 1.0,
                            "default-scale1" : 1.0,
                            "default-translation0" : 0.0,
                            "default-translation1" : 0.0
                          },
                          "animationTracks" : {

                          }
                        },
                        {
                          "id" : 229,
                          "_type" : "ScreenIMFile",
                          "src" : 1,
                          "trackNumber" : 0,
                          "trimStartSum" : 0,
                          "attributes" : {
                            "ident" : "hijacking_ntfs_structs_attack_prevention"
                          },
                          "parameters" : {
                            "cursorOpacity" : 0.0,
                            "cursorScale" : 0.0
                          },
                          "effects" : [

                          ],
                          "start" : 2399,
                          "duration" : 30,
                          "mediaStart" : 2369,
                          "mediaDuration" : 1,
                          "scalar" : 1,
                          "metadata" : {
                            "AutoAppliedSmartFocus" : "False"
                          },
                          "animationTracks" : {

                          }
                        },
                        {
                          "id" : 230,
                          "_type" : "ScreenVMFile",
                          "src" : 1,
                          "trackNumber" : 0,
                          "attributes" : {
                            "ident" : "hijacking_ntfs_structs_attack_prevention"
                          },
                          "parameters" : {
                            "cursorScale" : {
                              "type" : "double",
                              "defaultValue" : 0.0,
                              "interp" : "linr"
                            },
                            "cursorOpacity" : {
                              "type" : "double",
                              "defaultValue" : 0.0,
                              "interp" : "linr"
                            }
                          },
                          "effects" : [

                          ],
                          "start" : 2429,
                          "duration" : 67,
                          "mediaStart" : 2369,
                          "mediaDuration" : 67,
                          "scalar" : 1,
                          "metadata" : {
                            "AutoAppliedSmartFocus" : "False",
                            "clipSpeedAttribute" : false,
                            "default-scale0" : 1.0,
                            "default-scale1" : 1.0,
                            "default-translation0" : 0.0,
                            "default-translation1" : 0.0
                          },
                          "animationTracks" : {

                          }
                        },
                        {
                          "id" : 231,
                          "_type" : "ScreenIMFile",
                          "src" : 1,
                          "trackNumber" : 0,
                          "trimStartSum" : 0,
                          "attributes" : {
                            "ident" : "hijacking_ntfs_structs_attack_prevention"
                          },
                          "parameters" : {
                            "cursorOpacity" : 0.0,
                            "cursorScale" : 0.0
                          },
                          "effects" : [

                          ],
                          "start" : 2496,
                          "duration" : 60,
                          "mediaStart" : 2436,
                          "mediaDuration" : 1,
                          "scalar" : 1,
                          "metadata" : {
                            "AutoAppliedSmartFocus" : "False"
                          },
                          "animationTracks" : {

                          }
                        },
                        {
                          "id" : 232,
                          "_type" : "ScreenVMFile",
                          "src" : 1,
                          "trackNumber" : 0,
                          "attributes" : {
                            "ident" : "hijacking_ntfs_structs_attack_prevention"
                          },
                          "parameters" : {
                            "cursorScale" : {
                              "type" : "double",
                              "defaultValue" : 0.0,
                              "interp" : "linr"
                            },
                            "cursorOpacity" : {
                              "type" : "double",
                              "defaultValue" : 0.0,
                              "interp" : "linr"
                            }
                          },
                          "effects" : [

                          ],
                          "start" : 2556,
                          "duration" : 4597,
                          "mediaStart" : 2436,
                          "mediaDuration" : 4597,
                          "scalar" : 1,
                          "metadata" : {
                            "AutoAppliedSmartFocus" : "False",
                            "clipSpeedAttribute" : false,
                            "default-scale0" : 1.0,
                            "default-scale1" : 1.0,
                            "default-translation0" : 0.0,
                            "default-translation1" : 0.0
                          },
                          "animationTracks" : {

                          }
                        }
                    ],
                    "effects" : [
                        {
                          "effectName" : "CursorHilight",
                          "category" : "categoryCursorEffects",
                          "parameters" : {
                            "blur" : 0.1,
                            "color-alpha" : 0.75,
                            "color-blue" : 0.0,
                            "color-green" : 1.0,
                            "color-red" : 1.0,
                            "radius" : 50.0
                          }
                        }
                    ],
                    "start" : 2333,
                    "duration" : 8,
                    "mediaStart" : 4540,
                    "mediaDuration" : 8,
                    "scalar" : 1,
                    "metadata" : {
                      "AutoAppliedSmartFocus" : "False",
                      "clipSpeedAttribute" : false,
                      "default-scale0" : 0.999999767628522,
                      "default-scale1" : 1.0,
                      "default-translation0" : 5.6843418860808e-14,
                      "default-translation1" : -4.9737991503207e-14
                    },
                    "animationTracks" : {
                      "visual" : [
                        {
                          "endTime" : 1177,
                          "duration" : 30,
                          "range" : [ 1147, 30]
                        },
                        {
                          "endTime" : 1449,
                          "duration" : 30,
                          "range" : [ 1419, 30]
                        },
                        {
                          "endTime" : 2474,
                          "duration" : 30,
                          "range" : [ 2444, 30]
                        },
                        {
                          "endTime" : 3259,
                          "duration" : 30,
                          "range" : [ 3229, 30]
                        },
                        {
                          "endTime" : 3491,
                          "duration" : 30,
                          "range" : [ 3461, 30]
                        },
                        {
                          "endTime" : 3865,
                          "duration" : 30,
                          "range" : [ 3835, 30]
                        },
                        {
                          "endTime" : 3913,
                          "duration" : 30,
                          "range" : [ 3883, 30]
                        },
                        {
                          "endTime" : 4027,
                          "duration" : 30,
                          "range" : [ 3997, 30]
                        },
                        {
                          "endTime" : 4074,
                          "duration" : 30,
                          "range" : [ 4044, 30]
                        }
                      ]
                    }
                  },
                  {
                    "id" : 233,
                    "_type" : "StitchedMedia",
                    "minMediaStart" : 0,
                    "attributes" : {
                      "ident" : "hijacking_ntfs_structs_attack_prevention",
                      "gain" : 1.0,
                      "mixToMono" : false
                    },
                    "parameters" : {
                      "translation0" : {
                        "type" : "double",
                        "defaultValue" : 0.0,
                        "keyframes" : [
                          {
                            "endTime" : 1177,
                            "time" : 1147,
                            "value" : 948.478453192254,
                            "duration" : 30
                          },
                          {
                            "endTime" : 1449,
                            "time" : 1419,
                            "value" : 948.478364944437,
                            "duration" : 30
                          },
                          {
                            "endTime" : 2474,
                            "time" : 2444,
                            "value" : 5.6843418860808e-14,
                            "duration" : 30
                          },
                          {
                            "endTime" : 3259,
                            "time" : 3229,
                            "value" : -774.930172418836,
                            "duration" : 30
                          },
                          {
                            "endTime" : 3491,
                            "time" : 3461,
                            "value" : -774.930252849251,
                            "duration" : 30
                          },
                          {
                            "endTime" : 3865,
                            "time" : 3835,
                            "value" : 5.6843418860808e-14,
                            "duration" : 30
                          },
                          {
                            "endTime" : 3913,
                            "time" : 3883,
                            "value" : 1596.09769057838,
                            "duration" : 30
                          },
                          {
                            "endTime" : 4027,
                            "time" : 3997,
                            "value" : 2.27373675443232e-13,
                            "duration" : 30
                          },
                          {
                            "endTime" : 4074,
                            "time" : 4044,
                            "value" : -774.9,
                            "duration" : 30
                          }
                        ]
                      },
                      "translation1" : {
                        "type" : "double",
                        "defaultValue" : 0.0,
                        "keyframes" : [
                          {
                            "endTime" : 1177,
                            "time" : 1147,
                            "value" : -426.526455592595,
                            "duration" : 30
                          },
                          {
                            "endTime" : 1449,
                            "time" : 1419,
                            "value" : -100.3,
                            "duration" : 30
                          },
                          {
                            "endTime" : 2474,
                            "time" : 2444,
                            "value" : -4.9737991503207e-14,
                            "duration" : 30
                          },
                          {
                            "endTime" : 3259,
                            "time" : 3229,
                            "value" : -101.709492105514,
                            "duration" : 30
                          },
                          {
                            "endTime" : 3491,
                            "time" : 3461,
                            "value" : 427.4,
                            "duration" : 30
                          },
                          {
                            "endTime" : 3865,
                            "time" : 3835,
                            "value" : -5.6843418860808e-14,
                            "duration" : 30
                          },
                          {
                            "endTime" : 3913,
                            "time" : 3883,
                            "value" : -743.478440251836,
                            "duration" : 30
                          },
                          {
                            "endTime" : 4027,
                            "time" : 3997,
                            "value" : 1.13686837721616e-13,
                            "duration" : 30
                          },
                          {
                            "endTime" : 4074,
                            "time" : 4044,
                            "value" : 427.4,
                            "duration" : 30
                          }
                        ]
                      },
                      "scale0" : {
                        "type" : "double",
                        "defaultValue" : 1.0,
                        "keyframes" : [
                          {
                            "endTime" : 1177,
                            "time" : 1147,
                            "value" : 1.98900262241215,
                            "duration" : 30
                          },
                          {
                            "endTime" : 2474,
                            "time" : 2444,
                            "value" : 0.999999767628522,
                            "duration" : 30
                          },
                          {
                            "endTime" : 3259,
                            "time" : 3229,
                            "value" : 2.22091728725881,
                            "duration" : 30
                          },
                          {
                            "endTime" : 3491,
                            "time" : 3461,
                            "value" : 2.22091757221115,
                            "duration" : 30
                          },
                          {
                            "endTime" : 3865,
                            "time" : 3835,
                            "value" : 0.999999908672186,
                            "duration" : 30
                          },
                          {
                            "endTime" : 3913,
                            "time" : 3883,
                            "value" : 2.30317149661612,
                            "duration" : 30
                          },
                          {
                            "endTime" : 4027,
                            "time" : 3997,
                            "value" : 0.999999941772713,
                            "duration" : 30
                          },
                          {
                            "endTime" : 4074,
                            "time" : 4044,
                            "value" : 2.22099983278936,
                            "duration" : 30
                          }
                        ]
                      },
                      "scale1" : {
                        "type" : "double",
                        "defaultValue" : 1.0,
                        "keyframes" : [
                          {
                            "endTime" : 1177,
                            "time" : 1147,
                            "value" : 1.98900308459974,
                            "duration" : 30
                          },
                          {
                            "endTime" : 2474,
                            "time" : 2444,
                            "value" : 1.0,
                            "duration" : 30
                          },
                          {
                            "endTime" : 3259,
                            "time" : 3229,
                            "value" : 2.22091777504271,
                            "duration" : 30
                          },
                          {
                            "endTime" : 3865,
                            "time" : 3835,
                            "value" : 1.0,
                            "duration" : 30
                          },
                          {
                            "endTime" : 3913,
                            "time" : 3883,
                            "value" : 2.30317163072356,
                            "duration" : 30
                          },
                          {
                            "endTime" : 4027,
                            "time" : 3997,
                            "value" : 1.0,
                            "duration" : 30
                          },
                          {
                            "endTime" : 4074,
                            "time" : 4044,
                            "value" : 2.221,
                            "duration" : 30
                          }
                        ]
                      },
                      "cursorOpacity" : 1.0,
                      "cursorScale" : 1.0
                    },
                    "medias" : [
                        {
                          "id" : 234,
                          "_type" : "ScreenVMFile",
                          "src" : 1,
                          "trackNumber" : 0,
                          "attributes" : {
                            "ident" : "hijacking_ntfs_structs_attack_prevention"
                          },
                          "parameters" : {
                            "cursorScale" : {
                              "type" : "double",
                              "defaultValue" : 0.0,
                              "interp" : "linr"
                            },
                            "cursorOpacity" : {
                              "type" : "double",
                              "defaultValue" : 0.0,
                              "interp" : "linr"
                            }
                          },
                          "effects" : [

                          ],
                          "start" : 0,
                          "duration" : 1620,
                          "mediaStart" : 0,
                          "mediaDuration" : 1620,
                          "scalar" : 1,
                          "metadata" : {
                            "AutoAppliedSmartFocus" : "False",
                            "clipSpeedAttribute" : false,
                            "default-scale0" : 1.0,
                            "default-scale1" : 1.0,
                            "default-translation0" : 0.0,
                            "default-translation1" : 0.0
                          },
                          "animationTracks" : {

                          }
                        },
                        {
                          "id" : 235,
                          "_type" : "ScreenIMFile",
                          "src" : 1,
                          "trackNumber" : 0,
                          "trimStartSum" : 0,
                          "attributes" : {
                            "ident" : "hijacking_ntfs_structs_attack_prevention"
                          },
                          "parameters" : {
                            "cursorOpacity" : 0.0,
                            "cursorScale" : 0.0
                          },
                          "effects" : [

                          ],
                          "start" : 1620,
                          "duration" : 30,
                          "mediaStart" : 1619,
                          "mediaDuration" : 1,
                          "scalar" : 1,
                          "metadata" : {
                            "AutoAppliedSmartFocus" : "False"
                          },
                          "animationTracks" : {

                          }
                        },
                        {
                          "id" : 236,
                          "_type" : "ScreenVMFile",
                          "src" : 1,
                          "trackNumber" : 0,
                          "attributes" : {
                            "ident" : "hijacking_ntfs_structs_attack_prevention"
                          },
                          "parameters" : {
                            "cursorScale" : {
                              "type" : "double",
                              "defaultValue" : 0.0,
                              "interp" : "linr"
                            },
                            "cursorOpacity" : {
                              "type" : "double",
                              "defaultValue" : 0.0,
                              "interp" : "linr"
                            }
                          },
                          "effects" : [

                          ],
                          "start" : 1650,
                          "duration" : 749,
                          "mediaStart" : 1620,
                          "mediaDuration" : 749,
                          "scalar" : 1,
                          "metadata" : {
                            "AutoAppliedSmartFocus" : "False",
                            "clipSpeedAttribute" : false,
                            "default-scale0" : 1.0,
                            "default-scale1" : 1.0,
                            "default-translation0" : 0.0,
                            "default-translation1" : 0.0
                          },
                          "animationTracks" : {

                          }
                        },
                        {
                          "id" : 237,
                          "_type" : "ScreenIMFile",
                          "src" : 1,
                          "trackNumber" : 0,
                          "trimStartSum" : 0,
                          "attributes" : {
                            "ident" : "hijacking_ntfs_structs_attack_prevention"
                          },
                          "parameters" : {
                            "cursorOpacity" : 0.0,
                            "cursorScale" : 0.0
                          },
                          "effects" : [

                          ],
                          "start" : 2399,
                          "duration" : 30,
                          "mediaStart" : 2369,
                          "mediaDuration" : 1,
                          "scalar" : 1,
                          "metadata" : {
                            "AutoAppliedSmartFocus" : "False"
                          },
                          "animationTracks" : {

                          }
                        },
                        {
                          "id" : 238,
                          "_type" : "ScreenVMFile",
                          "src" : 1,
                          "trackNumber" : 0,
                          "attributes" : {
                            "ident" : "hijacking_ntfs_structs_attack_prevention"
                          },
                          "parameters" : {
                            "cursorScale" : {
                              "type" : "double",
                              "defaultValue" : 0.0,
                              "interp" : "linr"
                            },
                            "cursorOpacity" : {
                              "type" : "double",
                              "defaultValue" : 0.0,
                              "interp" : "linr"
                            }
                          },
                          "effects" : [

                          ],
                          "start" : 2429,
                          "duration" : 67,
                          "mediaStart" : 2369,
                          "mediaDuration" : 67,
                          "scalar" : 1,
                          "metadata" : {
                            "AutoAppliedSmartFocus" : "False",
                            "clipSpeedAttribute" : false,
                            "default-scale0" : 1.0,
                            "default-scale1" : 1.0,
                            "default-translation0" : 0.0,
                            "default-translation1" : 0.0
                          },
                          "animationTracks" : {

                          }
                        },
                        {
                          "id" : 239,
                          "_type" : "ScreenIMFile",
                          "src" : 1,
                          "trackNumber" : 0,
                          "trimStartSum" : 0,
                          "attributes" : {
                            "ident" : "hijacking_ntfs_structs_attack_prevention"
                          },
                          "parameters" : {
                            "cursorOpacity" : 0.0,
                            "cursorScale" : 0.0
                          },
                          "effects" : [

                          ],
                          "start" : 2496,
                          "duration" : 60,
                          "mediaStart" : 2436,
                          "mediaDuration" : 1,
                          "scalar" : 1,
                          "metadata" : {
                            "AutoAppliedSmartFocus" : "False"
                          },
                          "animationTracks" : {

                          }
                        },
                        {
                          "id" : 240,
                          "_type" : "ScreenVMFile",
                          "src" : 1,
                          "trackNumber" : 0,
                          "attributes" : {
                            "ident" : "hijacking_ntfs_structs_attack_prevention"
                          },
                          "parameters" : {
                            "cursorScale" : {
                              "type" : "double",
                              "defaultValue" : 0.0,
                              "interp" : "linr"
                            },
                            "cursorOpacity" : {
                              "type" : "double",
                              "defaultValue" : 0.0,
                              "interp" : "linr"
                            }
                          },
                          "effects" : [

                          ],
                          "start" : 2556,
                          "duration" : 4597,
                          "mediaStart" : 2436,
                          "mediaDuration" : 4597,
                          "scalar" : 1,
                          "metadata" : {
                            "AutoAppliedSmartFocus" : "False",
                            "clipSpeedAttribute" : false,
                            "default-scale0" : 1.0,
                            "default-scale1" : 1.0,
                            "default-translation0" : 0.0,
                            "default-translation1" : 0.0
                          },
                          "animationTracks" : {

                          }
                        }
                    ],
                    "effects" : [
                        {
                          "effectName" : "CursorHilight",
                          "category" : "categoryCursorEffects",
                          "parameters" : {
                            "blur" : 0.1,
                            "color-alpha" : 0.75,
                            "color-blue" : 0.0,
                            "color-green" : 1.0,
                            "color-red" : 1.0,
                            "radius" : 50.0
                          }
                        }
                    ],
                    "start" : 2341,
                    "duration" : 30,
                    "mediaStart" : 4548,
                    "mediaDuration" : 54,
                    "scalar" : "5/9",
                    "metadata" : {
                      "AutoAppliedSmartFocus" : "False",
                      "clipSpeedAttribute" : true,
                      "default-scale0" : 0.999999767628522,
                      "default-scale1" : 1.0,
                      "default-translation0" : 5.6843418860808e-14,
                      "default-translation1" : -4.9737991503207e-14
                    },
                    "animationTracks" : {
                      "visual" : [
                        {
                          "endTime" : 1177,
                          "duration" : 30,
                          "range" : [ 1147, 30]
                        },
                        {
                          "endTime" : 1449,
                          "duration" : 30,
                          "range" : [ 1419, 30]
                        },
                        {
                          "endTime" : 2474,
                          "duration" : 30,
                          "range" : [ 2444, 30]
                        },
                        {
                          "endTime" : 3259,
                          "duration" : 30,
                          "range" : [ 3229, 30]
                        },
                        {
                          "endTime" : 3491,
                          "duration" : 30,
                          "range" : [ 3461, 30]
                        },
                        {
                          "endTime" : 3865,
                          "duration" : 30,
                          "range" : [ 3835, 30]
                        },
                        {
                          "endTime" : 3913,
                          "duration" : 30,
                          "range" : [ 3883, 30]
                        },
                        {
                          "endTime" : 4027,
                          "duration" : 30,
                          "range" : [ 3997, 30]
                        },
                        {
                          "endTime" : 4074,
                          "duration" : 30,
                          "range" : [ 4044, 30]
                        }
                      ]
                    }
                  },
                  {
                    "id" : 241,
                    "_type" : "StitchedMedia",
                    "minMediaStart" : 0,
                    "attributes" : {
                      "ident" : "hijacking_ntfs_structs_attack_prevention",
                      "gain" : 1.0,
                      "mixToMono" : false
                    },
                    "parameters" : {
                      "translation0" : {
                        "type" : "double",
                        "defaultValue" : 0.0,
                        "keyframes" : [
                          {
                            "endTime" : 1177,
                            "time" : 1147,
                            "value" : 948.478453192254,
                            "duration" : 30
                          },
                          {
                            "endTime" : 1449,
                            "time" : 1419,
                            "value" : 948.478364944437,
                            "duration" : 30
                          },
                          {
                            "endTime" : 2474,
                            "time" : 2444,
                            "value" : 5.6843418860808e-14,
                            "duration" : 30
                          },
                          {
                            "endTime" : 3259,
                            "time" : 3229,
                            "value" : -774.930172418836,
                            "duration" : 30
                          },
                          {
                            "endTime" : 3491,
                            "time" : 3461,
                            "value" : -774.930252849251,
                            "duration" : 30
                          },
                          {
                            "endTime" : 3865,
                            "time" : 3835,
                            "value" : 5.6843418860808e-14,
                            "duration" : 30
                          },
                          {
                            "endTime" : 3913,
                            "time" : 3883,
                            "value" : 1596.09769057838,
                            "duration" : 30
                          },
                          {
                            "endTime" : 4027,
                            "time" : 3997,
                            "value" : 2.27373675443232e-13,
                            "duration" : 30
                          },
                          {
                            "endTime" : 4074,
                            "time" : 4044,
                            "value" : -774.9,
                            "duration" : 30
                          }
                        ]
                      },
                      "translation1" : {
                        "type" : "double",
                        "defaultValue" : 0.0,
                        "keyframes" : [
                          {
                            "endTime" : 1177,
                            "time" : 1147,
                            "value" : -426.526455592595,
                            "duration" : 30
                          },
                          {
                            "endTime" : 1449,
                            "time" : 1419,
                            "value" : -100.3,
                            "duration" : 30
                          },
                          {
                            "endTime" : 2474,
                            "time" : 2444,
                            "value" : -4.9737991503207e-14,
                            "duration" : 30
                          },
                          {
                            "endTime" : 3259,
                            "time" : 3229,
                            "value" : -101.709492105514,
                            "duration" : 30
                          },
                          {
                            "endTime" : 3491,
                            "time" : 3461,
                            "value" : 427.4,
                            "duration" : 30
                          },
                          {
                            "endTime" : 3865,
                            "time" : 3835,
                            "value" : -5.6843418860808e-14,
                            "duration" : 30
                          },
                          {
                            "endTime" : 3913,
                            "time" : 3883,
                            "value" : -743.478440251836,
                            "duration" : 30
                          },
                          {
                            "endTime" : 4027,
                            "time" : 3997,
                            "value" : 1.13686837721616e-13,
                            "duration" : 30
                          },
                          {
                            "endTime" : 4074,
                            "time" : 4044,
                            "value" : 427.4,
                            "duration" : 30
                          }
                        ]
                      },
                      "scale0" : {
                        "type" : "double",
                        "defaultValue" : 1.0,
                        "keyframes" : [
                          {
                            "endTime" : 1177,
                            "time" : 1147,
                            "value" : 1.98900262241215,
                            "duration" : 30
                          },
                          {
                            "endTime" : 2474,
                            "time" : 2444,
                            "value" : 0.999999767628522,
                            "duration" : 30
                          },
                          {
                            "endTime" : 3259,
                            "time" : 3229,
                            "value" : 2.22091728725881,
                            "duration" : 30
                          },
                          {
                            "endTime" : 3491,
                            "time" : 3461,
                            "value" : 2.22091757221115,
                            "duration" : 30
                          },
                          {
                            "endTime" : 3865,
                            "time" : 3835,
                            "value" : 0.999999908672186,
                            "duration" : 30
                          },
                          {
                            "endTime" : 3913,
                            "time" : 3883,
                            "value" : 2.30317149661612,
                            "duration" : 30
                          },
                          {
                            "endTime" : 4027,
                            "time" : 3997,
                            "value" : 0.999999941772713,
                            "duration" : 30
                          },
                          {
                            "endTime" : 4074,
                            "time" : 4044,
                            "value" : 2.22099983278936,
                            "duration" : 30
                          }
                        ]
                      },
                      "scale1" : {
                        "type" : "double",
                        "defaultValue" : 1.0,
                        "keyframes" : [
                          {
                            "endTime" : 1177,
                            "time" : 1147,
                            "value" : 1.98900308459974,
                            "duration" : 30
                          },
                          {
                            "endTime" : 2474,
                            "time" : 2444,
                            "value" : 1.0,
                            "duration" : 30
                          },
                          {
                            "endTime" : 3259,
                            "time" : 3229,
                            "value" : 2.22091777504271,
                            "duration" : 30
                          },
                          {
                            "endTime" : 3865,
                            "time" : 3835,
                            "value" : 1.0,
                            "duration" : 30
                          },
                          {
                            "endTime" : 3913,
                            "time" : 3883,
                            "value" : 2.30317163072356,
                            "duration" : 30
                          },
                          {
                            "endTime" : 4027,
                            "time" : 3997,
                            "value" : 1.0,
                            "duration" : 30
                          },
                          {
                            "endTime" : 4074,
                            "time" : 4044,
                            "value" : 2.221,
                            "duration" : 30
                          }
                        ]
                      },
                      "cursorOpacity" : 1.0,
                      "cursorScale" : 1.0
                    },
                    "medias" : [
                        {
                          "id" : 242,
                          "_type" : "ScreenVMFile",
                          "src" : 1,
                          "trackNumber" : 0,
                          "attributes" : {
                            "ident" : "hijacking_ntfs_structs_attack_prevention"
                          },
                          "parameters" : {
                            "cursorScale" : {
                              "type" : "double",
                              "defaultValue" : 0.0,
                              "interp" : "linr"
                            },
                            "cursorOpacity" : {
                              "type" : "double",
                              "defaultValue" : 0.0,
                              "interp" : "linr"
                            }
                          },
                          "effects" : [

                          ],
                          "start" : 0,
                          "duration" : 1620,
                          "mediaStart" : 0,
                          "mediaDuration" : 1620,
                          "scalar" : 1,
                          "metadata" : {
                            "AutoAppliedSmartFocus" : "False",
                            "clipSpeedAttribute" : false,
                            "default-scale0" : 1.0,
                            "default-scale1" : 1.0,
                            "default-translation0" : 0.0,
                            "default-translation1" : 0.0
                          },
                          "animationTracks" : {

                          }
                        },
                        {
                          "id" : 243,
                          "_type" : "ScreenIMFile",
                          "src" : 1,
                          "trackNumber" : 0,
                          "trimStartSum" : 0,
                          "attributes" : {
                            "ident" : "hijacking_ntfs_structs_attack_prevention"
                          },
                          "parameters" : {
                            "cursorOpacity" : 0.0,
                            "cursorScale" : 0.0
                          },
                          "effects" : [

                          ],
                          "start" : 1620,
                          "duration" : 30,
                          "mediaStart" : 1619,
                          "mediaDuration" : 1,
                          "scalar" : 1,
                          "metadata" : {
                            "AutoAppliedSmartFocus" : "False"
                          },
                          "animationTracks" : {

                          }
                        },
                        {
                          "id" : 244,
                          "_type" : "ScreenVMFile",
                          "src" : 1,
                          "trackNumber" : 0,
                          "attributes" : {
                            "ident" : "hijacking_ntfs_structs_attack_prevention"
                          },
                          "parameters" : {
                            "cursorScale" : {
                              "type" : "double",
                              "defaultValue" : 0.0,
                              "interp" : "linr"
                            },
                            "cursorOpacity" : {
                              "type" : "double",
                              "defaultValue" : 0.0,
                              "interp" : "linr"
                            }
                          },
                          "effects" : [

                          ],
                          "start" : 1650,
                          "duration" : 749,
                          "mediaStart" : 1620,
                          "mediaDuration" : 749,
                          "scalar" : 1,
                          "metadata" : {
                            "AutoAppliedSmartFocus" : "False",
                            "clipSpeedAttribute" : false,
                            "default-scale0" : 1.0,
                            "default-scale1" : 1.0,
                            "default-translation0" : 0.0,
                            "default-translation1" : 0.0
                          },
                          "animationTracks" : {

                          }
                        },
                        {
                          "id" : 245,
                          "_type" : "ScreenIMFile",
                          "src" : 1,
                          "trackNumber" : 0,
                          "trimStartSum" : 0,
                          "attributes" : {
                            "ident" : "hijacking_ntfs_structs_attack_prevention"
                          },
                          "parameters" : {
                            "cursorOpacity" : 0.0,
                            "cursorScale" : 0.0
                          },
                          "effects" : [

                          ],
                          "start" : 2399,
                          "duration" : 30,
                          "mediaStart" : 2369,
                          "mediaDuration" : 1,
                          "scalar" : 1,
                          "metadata" : {
                            "AutoAppliedSmartFocus" : "False"
                          },
                          "animationTracks" : {

                          }
                        },
                        {
                          "id" : 246,
                          "_type" : "ScreenVMFile",
                          "src" : 1,
                          "trackNumber" : 0,
                          "attributes" : {
                            "ident" : "hijacking_ntfs_structs_attack_prevention"
                          },
                          "parameters" : {
                            "cursorScale" : {
                              "type" : "double",
                              "defaultValue" : 0.0,
                              "interp" : "linr"
                            },
                            "cursorOpacity" : {
                              "type" : "double",
                              "defaultValue" : 0.0,
                              "interp" : "linr"
                            }
                          },
                          "effects" : [

                          ],
                          "start" : 2429,
                          "duration" : 67,
                          "mediaStart" : 2369,
                          "mediaDuration" : 67,
                          "scalar" : 1,
                          "metadata" : {
                            "AutoAppliedSmartFocus" : "False",
                            "clipSpeedAttribute" : false,
                            "default-scale0" : 1.0,
                            "default-scale1" : 1.0,
                            "default-translation0" : 0.0,
                            "default-translation1" : 0.0
                          },
                          "animationTracks" : {

                          }
                        },
                        {
                          "id" : 247,
                          "_type" : "ScreenIMFile",
                          "src" : 1,
                          "trackNumber" : 0,
                          "trimStartSum" : 0,
                          "attributes" : {
                            "ident" : "hijacking_ntfs_structs_attack_prevention"
                          },
                          "parameters" : {
                            "cursorOpacity" : 0.0,
                            "cursorScale" : 0.0
                          },
                          "effects" : [

                          ],
                          "start" : 2496,
                          "duration" : 60,
                          "mediaStart" : 2436,
                          "mediaDuration" : 1,
                          "scalar" : 1,
                          "metadata" : {
                            "AutoAppliedSmartFocus" : "False"
                          },
                          "animationTracks" : {

                          }
                        },
                        {
                          "id" : 248,
                          "_type" : "ScreenVMFile",
                          "src" : 1,
                          "trackNumber" : 0,
                          "attributes" : {
                            "ident" : "hijacking_ntfs_structs_attack_prevention"
                          },
                          "parameters" : {
                            "cursorScale" : {
                              "type" : "double",
                              "defaultValue" : 0.0,
                              "interp" : "linr"
                            },
                            "cursorOpacity" : {
                              "type" : "double",
                              "defaultValue" : 0.0,
                              "interp" : "linr"
                            }
                          },
                          "effects" : [

                          ],
                          "start" : 2556,
                          "duration" : 4597,
                          "mediaStart" : 2436,
                          "mediaDuration" : 4597,
                          "scalar" : 1,
                          "metadata" : {
                            "AutoAppliedSmartFocus" : "False",
                            "clipSpeedAttribute" : false,
                            "default-scale0" : 1.0,
                            "default-scale1" : 1.0,
                            "default-translation0" : 0.0,
                            "default-translation1" : 0.0
                          },
                          "animationTracks" : {

                          }
                        }
                    ],
                    "effects" : [
                        {
                          "effectName" : "CursorHilight",
                          "category" : "categoryCursorEffects",
                          "parameters" : {
                            "blur" : 0.1,
                            "color-alpha" : 0.75,
                            "color-blue" : 0.0,
                            "color-green" : 1.0,
                            "color-red" : 1.0,
                            "radius" : 50.0
                          }
                        }
                    ],
                    "start" : 2371,
                    "duration" : 22,
                    "mediaStart" : 4602,
                    "mediaDuration" : 105,
                    "scalar" : "22/105",
                    "metadata" : {
                      "AutoAppliedSmartFocus" : "False",
                      "clipSpeedAttribute" : true,
                      "default-scale0" : 0.999999767628522,
                      "default-scale1" : 1.0,
                      "default-translation0" : 5.6843418860808e-14,
                      "default-translation1" : -4.9737991503207e-14
                    },
                    "animationTracks" : {
                      "visual" : [
                        {
                          "endTime" : 1177,
                          "duration" : 30,
                          "range" : [ 1147, 30]
                        },
                        {
                          "endTime" : 1449,
                          "duration" : 30,
                          "range" : [ 1419, 30]
                        },
                        {
                          "endTime" : 2474,
                          "duration" : 30,
                          "range" : [ 2444, 30]
                        },
                        {
                          "endTime" : 3259,
                          "duration" : 30,
                          "range" : [ 3229, 30]
                        },
                        {
                          "endTime" : 3491,
                          "duration" : 30,
                          "range" : [ 3461, 30]
                        },
                        {
                          "endTime" : 3865,
                          "duration" : 30,
                          "range" : [ 3835, 30]
                        },
                        {
                          "endTime" : 3913,
                          "duration" : 30,
                          "range" : [ 3883, 30]
                        },
                        {
                          "endTime" : 4027,
                          "duration" : 30,
                          "range" : [ 3997, 30]
                        },
                        {
                          "endTime" : 4074,
                          "duration" : 30,
                          "range" : [ 4044, 30]
                        }
                      ]
                    }
                  },
                  {
                    "id" : 249,
                    "_type" : "StitchedMedia",
                    "minMediaStart" : 0,
                    "attributes" : {
                      "ident" : "hijacking_ntfs_structs_attack_prevention",
                      "gain" : 1.0,
                      "mixToMono" : false
                    },
                    "parameters" : {
                      "translation0" : {
                        "type" : "double",
                        "defaultValue" : 0.0,
                        "keyframes" : [
                          {
                            "endTime" : 1177,
                            "time" : 1147,
                            "value" : 948.478453192254,
                            "duration" : 30
                          },
                          {
                            "endTime" : 1449,
                            "time" : 1419,
                            "value" : 948.478364944437,
                            "duration" : 30
                          },
                          {
                            "endTime" : 2474,
                            "time" : 2444,
                            "value" : 5.6843418860808e-14,
                            "duration" : 30
                          },
                          {
                            "endTime" : 3259,
                            "time" : 3229,
                            "value" : -774.930172418836,
                            "duration" : 30
                          },
                          {
                            "endTime" : 3491,
                            "time" : 3461,
                            "value" : -774.930252849251,
                            "duration" : 30
                          },
                          {
                            "endTime" : 3865,
                            "time" : 3835,
                            "value" : 5.6843418860808e-14,
                            "duration" : 30
                          },
                          {
                            "endTime" : 3913,
                            "time" : 3883,
                            "value" : 1596.09769057838,
                            "duration" : 30
                          },
                          {
                            "endTime" : 4027,
                            "time" : 3997,
                            "value" : 2.27373675443232e-13,
                            "duration" : 30
                          },
                          {
                            "endTime" : 4074,
                            "time" : 4044,
                            "value" : -774.9,
                            "duration" : 30
                          }
                        ]
                      },
                      "translation1" : {
                        "type" : "double",
                        "defaultValue" : 0.0,
                        "keyframes" : [
                          {
                            "endTime" : 1177,
                            "time" : 1147,
                            "value" : -426.526455592595,
                            "duration" : 30
                          },
                          {
                            "endTime" : 1449,
                            "time" : 1419,
                            "value" : -100.3,
                            "duration" : 30
                          },
                          {
                            "endTime" : 2474,
                            "time" : 2444,
                            "value" : -4.9737991503207e-14,
                            "duration" : 30
                          },
                          {
                            "endTime" : 3259,
                            "time" : 3229,
                            "value" : -101.709492105514,
                            "duration" : 30
                          },
                          {
                            "endTime" : 3491,
                            "time" : 3461,
                            "value" : 427.4,
                            "duration" : 30
                          },
                          {
                            "endTime" : 3865,
                            "time" : 3835,
                            "value" : -5.6843418860808e-14,
                            "duration" : 30
                          },
                          {
                            "endTime" : 3913,
                            "time" : 3883,
                            "value" : -743.478440251836,
                            "duration" : 30
                          },
                          {
                            "endTime" : 4027,
                            "time" : 3997,
                            "value" : 1.13686837721616e-13,
                            "duration" : 30
                          },
                          {
                            "endTime" : 4074,
                            "time" : 4044,
                            "value" : 427.4,
                            "duration" : 30
                          }
                        ]
                      },
                      "scale0" : {
                        "type" : "double",
                        "defaultValue" : 1.0,
                        "keyframes" : [
                          {
                            "endTime" : 1177,
                            "time" : 1147,
                            "value" : 1.98900262241215,
                            "duration" : 30
                          },
                          {
                            "endTime" : 2474,
                            "time" : 2444,
                            "value" : 0.999999767628522,
                            "duration" : 30
                          },
                          {
                            "endTime" : 3259,
                            "time" : 3229,
                            "value" : 2.22091728725881,
                            "duration" : 30
                          },
                          {
                            "endTime" : 3491,
                            "time" : 3461,
                            "value" : 2.22091757221115,
                            "duration" : 30
                          },
                          {
                            "endTime" : 3865,
                            "time" : 3835,
                            "value" : 0.999999908672186,
                            "duration" : 30
                          },
                          {
                            "endTime" : 3913,
                            "time" : 3883,
                            "value" : 2.30317149661612,
                            "duration" : 30
                          },
                          {
                            "endTime" : 4027,
                            "time" : 3997,
                            "value" : 0.999999941772713,
                            "duration" : 30
                          },
                          {
                            "endTime" : 4074,
                            "time" : 4044,
                            "value" : 2.22099983278936,
                            "duration" : 30
                          }
                        ]
                      },
                      "scale1" : {
                        "type" : "double",
                        "defaultValue" : 1.0,
                        "keyframes" : [
                          {
                            "endTime" : 1177,
                            "time" : 1147,
                            "value" : 1.98900308459974,
                            "duration" : 30
                          },
                          {
                            "endTime" : 2474,
                            "time" : 2444,
                            "value" : 1.0,
                            "duration" : 30
                          },
                          {
                            "endTime" : 3259,
                            "time" : 3229,
                            "value" : 2.22091777504271,
                            "duration" : 30
                          },
                          {
                            "endTime" : 3865,
                            "time" : 3835,
                            "value" : 1.0,
                            "duration" : 30
                          },
                          {
                            "endTime" : 3913,
                            "time" : 3883,
                            "value" : 2.30317163072356,
                            "duration" : 30
                          },
                          {
                            "endTime" : 4027,
                            "time" : 3997,
                            "value" : 1.0,
                            "duration" : 30
                          },
                          {
                            "endTime" : 4074,
                            "time" : 4044,
                            "value" : 2.221,
                            "duration" : 30
                          }
                        ]
                      },
                      "cursorOpacity" : 1.0,
                      "cursorScale" : 1.0
                    },
                    "medias" : [
                        {
                          "id" : 250,
                          "_type" : "ScreenVMFile",
                          "src" : 1,
                          "trackNumber" : 0,
                          "attributes" : {
                            "ident" : "hijacking_ntfs_structs_attack_prevention"
                          },
                          "parameters" : {
                            "cursorScale" : {
                              "type" : "double",
                              "defaultValue" : 0.0,
                              "interp" : "linr"
                            },
                            "cursorOpacity" : {
                              "type" : "double",
                              "defaultValue" : 0.0,
                              "interp" : "linr"
                            }
                          },
                          "effects" : [

                          ],
                          "start" : 0,
                          "duration" : 1620,
                          "mediaStart" : 0,
                          "mediaDuration" : 1620,
                          "scalar" : 1,
                          "metadata" : {
                            "AutoAppliedSmartFocus" : "False",
                            "clipSpeedAttribute" : false,
                            "default-scale0" : 1.0,
                            "default-scale1" : 1.0,
                            "default-translation0" : 0.0,
                            "default-translation1" : 0.0
                          },
                          "animationTracks" : {

                          }
                        },
                        {
                          "id" : 251,
                          "_type" : "ScreenIMFile",
                          "src" : 1,
                          "trackNumber" : 0,
                          "trimStartSum" : 0,
                          "attributes" : {
                            "ident" : "hijacking_ntfs_structs_attack_prevention"
                          },
                          "parameters" : {
                            "cursorOpacity" : 0.0,
                            "cursorScale" : 0.0
                          },
                          "effects" : [

                          ],
                          "start" : 1620,
                          "duration" : 30,
                          "mediaStart" : 1619,
                          "mediaDuration" : 1,
                          "scalar" : 1,
                          "metadata" : {
                            "AutoAppliedSmartFocus" : "False"
                          },
                          "animationTracks" : {

                          }
                        },
                        {
                          "id" : 252,
                          "_type" : "ScreenVMFile",
                          "src" : 1,
                          "trackNumber" : 0,
                          "attributes" : {
                            "ident" : "hijacking_ntfs_structs_attack_prevention"
                          },
                          "parameters" : {
                            "cursorScale" : {
                              "type" : "double",
                              "defaultValue" : 0.0,
                              "interp" : "linr"
                            },
                            "cursorOpacity" : {
                              "type" : "double",
                              "defaultValue" : 0.0,
                              "interp" : "linr"
                            }
                          },
                          "effects" : [

                          ],
                          "start" : 1650,
                          "duration" : 749,
                          "mediaStart" : 1620,
                          "mediaDuration" : 749,
                          "scalar" : 1,
                          "metadata" : {
                            "AutoAppliedSmartFocus" : "False",
                            "clipSpeedAttribute" : false,
                            "default-scale0" : 1.0,
                            "default-scale1" : 1.0,
                            "default-translation0" : 0.0,
                            "default-translation1" : 0.0
                          },
                          "animationTracks" : {

                          }
                        },
                        {
                          "id" : 253,
                          "_type" : "ScreenIMFile",
                          "src" : 1,
                          "trackNumber" : 0,
                          "trimStartSum" : 0,
                          "attributes" : {
                            "ident" : "hijacking_ntfs_structs_attack_prevention"
                          },
                          "parameters" : {
                            "cursorOpacity" : 0.0,
                            "cursorScale" : 0.0
                          },
                          "effects" : [

                          ],
                          "start" : 2399,
                          "duration" : 30,
                          "mediaStart" : 2369,
                          "mediaDuration" : 1,
                          "scalar" : 1,
                          "metadata" : {
                            "AutoAppliedSmartFocus" : "False"
                          },
                          "animationTracks" : {

                          }
                        },
                        {
                          "id" : 254,
                          "_type" : "ScreenVMFile",
                          "src" : 1,
                          "trackNumber" : 0,
                          "attributes" : {
                            "ident" : "hijacking_ntfs_structs_attack_prevention"
                          },
                          "parameters" : {
                            "cursorScale" : {
                              "type" : "double",
                              "defaultValue" : 0.0,
                              "interp" : "linr"
                            },
                            "cursorOpacity" : {
                              "type" : "double",
                              "defaultValue" : 0.0,
                              "interp" : "linr"
                            }
                          },
                          "effects" : [

                          ],
                          "start" : 2429,
                          "duration" : 67,
                          "mediaStart" : 2369,
                          "mediaDuration" : 67,
                          "scalar" : 1,
                          "metadata" : {
                            "AutoAppliedSmartFocus" : "False",
                            "clipSpeedAttribute" : false,
                            "default-scale0" : 1.0,
                            "default-scale1" : 1.0,
                            "default-translation0" : 0.0,
                            "default-translation1" : 0.0
                          },
                          "animationTracks" : {

                          }
                        },
                        {
                          "id" : 255,
                          "_type" : "ScreenIMFile",
                          "src" : 1,
                          "trackNumber" : 0,
                          "trimStartSum" : 0,
                          "attributes" : {
                            "ident" : "hijacking_ntfs_structs_attack_prevention"
                          },
                          "parameters" : {
                            "cursorOpacity" : 0.0,
                            "cursorScale" : 0.0
                          },
                          "effects" : [

                          ],
                          "start" : 2496,
                          "duration" : 60,
                          "mediaStart" : 2436,
                          "mediaDuration" : 1,
                          "scalar" : 1,
                          "metadata" : {
                            "AutoAppliedSmartFocus" : "False"
                          },
                          "animationTracks" : {

                          }
                        },
                        {
                          "id" : 256,
                          "_type" : "ScreenVMFile",
                          "src" : 1,
                          "trackNumber" : 0,
                          "attributes" : {
                            "ident" : "hijacking_ntfs_structs_attack_prevention"
                          },
                          "parameters" : {
                            "cursorScale" : {
                              "type" : "double",
                              "defaultValue" : 0.0,
                              "interp" : "linr"
                            },
                            "cursorOpacity" : {
                              "type" : "double",
                              "defaultValue" : 0.0,
                              "interp" : "linr"
                            }
                          },
                          "effects" : [

                          ],
                          "start" : 2556,
                          "duration" : 4597,
                          "mediaStart" : 2436,
                          "mediaDuration" : 4597,
                          "scalar" : 1,
                          "metadata" : {
                            "AutoAppliedSmartFocus" : "False",
                            "clipSpeedAttribute" : false,
                            "default-scale0" : 1.0,
                            "default-scale1" : 1.0,
                            "default-translation0" : 0.0,
                            "default-translation1" : 0.0
                          },
                          "animationTracks" : {

                          }
                        }
                    ],
                    "effects" : [
                        {
                          "effectName" : "CursorHilight",
                          "category" : "categoryCursorEffects",
                          "parameters" : {
                            "blur" : 0.1,
                            "color-alpha" : 0.75,
                            "color-blue" : 0.0,
                            "color-green" : 1.0,
                            "color-red" : 1.0,
                            "radius" : 50.0
                          }
                        }
                    ],
                    "start" : 2393,
                    "duration" : 94,
                    "mediaStart" : 4707,
                    "mediaDuration" : 94,
                    "scalar" : 1,
                    "metadata" : {
                      "AutoAppliedSmartFocus" : "False",
                      "clipSpeedAttribute" : false,
                      "default-scale0" : 0.999999767628522,
                      "default-scale1" : 1.0,
                      "default-translation0" : 5.6843418860808e-14,
                      "default-translation1" : -4.9737991503207e-14
                    },
                    "animationTracks" : {
                      "visual" : [
                        {
                          "endTime" : 1177,
                          "duration" : 30,
                          "range" : [ 1147, 30]
                        },
                        {
                          "endTime" : 1449,
                          "duration" : 30,
                          "range" : [ 1419, 30]
                        },
                        {
                          "endTime" : 2474,
                          "duration" : 30,
                          "range" : [ 2444, 30]
                        },
                        {
                          "endTime" : 3259,
                          "duration" : 30,
                          "range" : [ 3229, 30]
                        },
                        {
                          "endTime" : 3491,
                          "duration" : 30,
                          "range" : [ 3461, 30]
                        },
                        {
                          "endTime" : 3865,
                          "duration" : 30,
                          "range" : [ 3835, 30]
                        },
                        {
                          "endTime" : 3913,
                          "duration" : 30,
                          "range" : [ 3883, 30]
                        },
                        {
                          "endTime" : 4027,
                          "duration" : 30,
                          "range" : [ 3997, 30]
                        },
                        {
                          "endTime" : 4074,
                          "duration" : 30,
                          "range" : [ 4044, 30]
                        }
                      ]
                    }
                  },
                  {
                    "id" : 257,
                    "_type" : "StitchedMedia",
                    "minMediaStart" : 0,
                    "attributes" : {
                      "ident" : "hijacking_ntfs_structs_attack_prevention",
                      "gain" : 1.0,
                      "mixToMono" : false
                    },
                    "parameters" : {
                      "translation0" : {
                        "type" : "double",
                        "defaultValue" : 0.0,
                        "keyframes" : [
                          {
                            "endTime" : 1177,
                            "time" : 1147,
                            "value" : 948.478453192254,
                            "duration" : 30
                          },
                          {
                            "endTime" : 1449,
                            "time" : 1419,
                            "value" : 948.478364944437,
                            "duration" : 30
                          },
                          {
                            "endTime" : 2474,
                            "time" : 2444,
                            "value" : 5.6843418860808e-14,
                            "duration" : 30
                          },
                          {
                            "endTime" : 3259,
                            "time" : 3229,
                            "value" : -774.930172418836,
                            "duration" : 30
                          },
                          {
                            "endTime" : 3491,
                            "time" : 3461,
                            "value" : -774.930252849251,
                            "duration" : 30
                          },
                          {
                            "endTime" : 3865,
                            "time" : 3835,
                            "value" : 5.6843418860808e-14,
                            "duration" : 30
                          },
                          {
                            "endTime" : 3913,
                            "time" : 3883,
                            "value" : 1596.09769057838,
                            "duration" : 30
                          },
                          {
                            "endTime" : 4027,
                            "time" : 3997,
                            "value" : 2.27373675443232e-13,
                            "duration" : 30
                          },
                          {
                            "endTime" : 4074,
                            "time" : 4044,
                            "value" : -774.9,
                            "duration" : 30
                          }
                        ]
                      },
                      "translation1" : {
                        "type" : "double",
                        "defaultValue" : 0.0,
                        "keyframes" : [
                          {
                            "endTime" : 1177,
                            "time" : 1147,
                            "value" : -426.526455592595,
                            "duration" : 30
                          },
                          {
                            "endTime" : 1449,
                            "time" : 1419,
                            "value" : -100.3,
                            "duration" : 30
                          },
                          {
                            "endTime" : 2474,
                            "time" : 2444,
                            "value" : -4.9737991503207e-14,
                            "duration" : 30
                          },
                          {
                            "endTime" : 3259,
                            "time" : 3229,
                            "value" : -101.709492105514,
                            "duration" : 30
                          },
                          {
                            "endTime" : 3491,
                            "time" : 3461,
                            "value" : 427.4,
                            "duration" : 30
                          },
                          {
                            "endTime" : 3865,
                            "time" : 3835,
                            "value" : -5.6843418860808e-14,
                            "duration" : 30
                          },
                          {
                            "endTime" : 3913,
                            "time" : 3883,
                            "value" : -743.478440251836,
                            "duration" : 30
                          },
                          {
                            "endTime" : 4027,
                            "time" : 3997,
                            "value" : 1.13686837721616e-13,
                            "duration" : 30
                          },
                          {
                            "endTime" : 4074,
                            "time" : 4044,
                            "value" : 427.4,
                            "duration" : 30
                          }
                        ]
                      },
                      "scale0" : {
                        "type" : "double",
                        "defaultValue" : 1.0,
                        "keyframes" : [
                          {
                            "endTime" : 1177,
                            "time" : 1147,
                            "value" : 1.98900262241215,
                            "duration" : 30
                          },
                          {
                            "endTime" : 2474,
                            "time" : 2444,
                            "value" : 0.999999767628522,
                            "duration" : 30
                          },
                          {
                            "endTime" : 3259,
                            "time" : 3229,
                            "value" : 2.22091728725881,
                            "duration" : 30
                          },
                          {
                            "endTime" : 3491,
                            "time" : 3461,
                            "value" : 2.22091757221115,
                            "duration" : 30
                          },
                          {
                            "endTime" : 3865,
                            "time" : 3835,
                            "value" : 0.999999908672186,
                            "duration" : 30
                          },
                          {
                            "endTime" : 3913,
                            "time" : 3883,
                            "value" : 2.30317149661612,
                            "duration" : 30
                          },
                          {
                            "endTime" : 4027,
                            "time" : 3997,
                            "value" : 0.999999941772713,
                            "duration" : 30
                          },
                          {
                            "endTime" : 4074,
                            "time" : 4044,
                            "value" : 2.22099983278936,
                            "duration" : 30
                          }
                        ]
                      },
                      "scale1" : {
                        "type" : "double",
                        "defaultValue" : 1.0,
                        "keyframes" : [
                          {
                            "endTime" : 1177,
                            "time" : 1147,
                            "value" : 1.98900308459974,
                            "duration" : 30
                          },
                          {
                            "endTime" : 2474,
                            "time" : 2444,
                            "value" : 1.0,
                            "duration" : 30
                          },
                          {
                            "endTime" : 3259,
                            "time" : 3229,
                            "value" : 2.22091777504271,
                            "duration" : 30
                          },
                          {
                            "endTime" : 3865,
                            "time" : 3835,
                            "value" : 1.0,
                            "duration" : 30
                          },
                          {
                            "endTime" : 3913,
                            "time" : 3883,
                            "value" : 2.30317163072356,
                            "duration" : 30
                          },
                          {
                            "endTime" : 4027,
                            "time" : 3997,
                            "value" : 1.0,
                            "duration" : 30
                          },
                          {
                            "endTime" : 4074,
                            "time" : 4044,
                            "value" : 2.221,
                            "duration" : 30
                          }
                        ]
                      },
                      "cursorOpacity" : 1.0,
                      "cursorScale" : 1.0
                    },
                    "medias" : [
                        {
                          "id" : 258,
                          "_type" : "ScreenVMFile",
                          "src" : 1,
                          "trackNumber" : 0,
                          "attributes" : {
                            "ident" : "hijacking_ntfs_structs_attack_prevention"
                          },
                          "parameters" : {
                            "cursorScale" : {
                              "type" : "double",
                              "defaultValue" : 0.0,
                              "interp" : "linr"
                            },
                            "cursorOpacity" : {
                              "type" : "double",
                              "defaultValue" : 0.0,
                              "interp" : "linr"
                            }
                          },
                          "effects" : [

                          ],
                          "start" : 0,
                          "duration" : 1620,
                          "mediaStart" : 0,
                          "mediaDuration" : 1620,
                          "scalar" : 1,
                          "metadata" : {
                            "AutoAppliedSmartFocus" : "False",
                            "clipSpeedAttribute" : false,
                            "default-scale0" : 1.0,
                            "default-scale1" : 1.0,
                            "default-translation0" : 0.0,
                            "default-translation1" : 0.0
                          },
                          "animationTracks" : {

                          }
                        },
                        {
                          "id" : 259,
                          "_type" : "ScreenIMFile",
                          "src" : 1,
                          "trackNumber" : 0,
                          "trimStartSum" : 0,
                          "attributes" : {
                            "ident" : "hijacking_ntfs_structs_attack_prevention"
                          },
                          "parameters" : {
                            "cursorOpacity" : 0.0,
                            "cursorScale" : 0.0
                          },
                          "effects" : [

                          ],
                          "start" : 1620,
                          "duration" : 30,
                          "mediaStart" : 1619,
                          "mediaDuration" : 1,
                          "scalar" : 1,
                          "metadata" : {
                            "AutoAppliedSmartFocus" : "False"
                          },
                          "animationTracks" : {

                          }
                        },
                        {
                          "id" : 260,
                          "_type" : "ScreenVMFile",
                          "src" : 1,
                          "trackNumber" : 0,
                          "attributes" : {
                            "ident" : "hijacking_ntfs_structs_attack_prevention"
                          },
                          "parameters" : {
                            "cursorScale" : {
                              "type" : "double",
                              "defaultValue" : 0.0,
                              "interp" : "linr"
                            },
                            "cursorOpacity" : {
                              "type" : "double",
                              "defaultValue" : 0.0,
                              "interp" : "linr"
                            }
                          },
                          "effects" : [

                          ],
                          "start" : 1650,
                          "duration" : 749,
                          "mediaStart" : 1620,
                          "mediaDuration" : 749,
                          "scalar" : 1,
                          "metadata" : {
                            "AutoAppliedSmartFocus" : "False",
                            "clipSpeedAttribute" : false,
                            "default-scale0" : 1.0,
                            "default-scale1" : 1.0,
                            "default-translation0" : 0.0,
                            "default-translation1" : 0.0
                          },
                          "animationTracks" : {

                          }
                        },
                        {
                          "id" : 261,
                          "_type" : "ScreenIMFile",
                          "src" : 1,
                          "trackNumber" : 0,
                          "trimStartSum" : 0,
                          "attributes" : {
                            "ident" : "hijacking_ntfs_structs_attack_prevention"
                          },
                          "parameters" : {
                            "cursorOpacity" : 0.0,
                            "cursorScale" : 0.0
                          },
                          "effects" : [

                          ],
                          "start" : 2399,
                          "duration" : 30,
                          "mediaStart" : 2369,
                          "mediaDuration" : 1,
                          "scalar" : 1,
                          "metadata" : {
                            "AutoAppliedSmartFocus" : "False"
                          },
                          "animationTracks" : {

                          }
                        },
                        {
                          "id" : 262,
                          "_type" : "ScreenVMFile",
                          "src" : 1,
                          "trackNumber" : 0,
                          "attributes" : {
                            "ident" : "hijacking_ntfs_structs_attack_prevention"
                          },
                          "parameters" : {
                            "cursorScale" : {
                              "type" : "double",
                              "defaultValue" : 0.0,
                              "interp" : "linr"
                            },
                            "cursorOpacity" : {
                              "type" : "double",
                              "defaultValue" : 0.0,
                              "interp" : "linr"
                            }
                          },
                          "effects" : [

                          ],
                          "start" : 2429,
                          "duration" : 67,
                          "mediaStart" : 2369,
                          "mediaDuration" : 67,
                          "scalar" : 1,
                          "metadata" : {
                            "AutoAppliedSmartFocus" : "False",
                            "clipSpeedAttribute" : false,
                            "default-scale0" : 1.0,
                            "default-scale1" : 1.0,
                            "default-translation0" : 0.0,
                            "default-translation1" : 0.0
                          },
                          "animationTracks" : {

                          }
                        },
                        {
                          "id" : 263,
                          "_type" : "ScreenIMFile",
                          "src" : 1,
                          "trackNumber" : 0,
                          "trimStartSum" : 0,
                          "attributes" : {
                            "ident" : "hijacking_ntfs_structs_attack_prevention"
                          },
                          "parameters" : {
                            "cursorOpacity" : 0.0,
                            "cursorScale" : 0.0
                          },
                          "effects" : [

                          ],
                          "start" : 2496,
                          "duration" : 60,
                          "mediaStart" : 2436,
                          "mediaDuration" : 1,
                          "scalar" : 1,
                          "metadata" : {
                            "AutoAppliedSmartFocus" : "False"
                          },
                          "animationTracks" : {

                          }
                        },
                        {
                          "id" : 264,
                          "_type" : "ScreenVMFile",
                          "src" : 1,
                          "trackNumber" : 0,
                          "attributes" : {
                            "ident" : "hijacking_ntfs_structs_attack_prevention"
                          },
                          "parameters" : {
                            "cursorScale" : {
                              "type" : "double",
                              "defaultValue" : 0.0,
                              "interp" : "linr"
                            },
                            "cursorOpacity" : {
                              "type" : "double",
                              "defaultValue" : 0.0,
                              "interp" : "linr"
                            }
                          },
                          "effects" : [

                          ],
                          "start" : 2556,
                          "duration" : 4597,
                          "mediaStart" : 2436,
                          "mediaDuration" : 4597,
                          "scalar" : 1,
                          "metadata" : {
                            "AutoAppliedSmartFocus" : "False",
                            "clipSpeedAttribute" : false,
                            "default-scale0" : 1.0,
                            "default-scale1" : 1.0,
                            "default-translation0" : 0.0,
                            "default-translation1" : 0.0
                          },
                          "animationTracks" : {

                          }
                        }
                    ],
                    "effects" : [
                        {
                          "effectName" : "CursorHilight",
                          "category" : "categoryCursorEffects",
                          "parameters" : {
                            "blur" : 0.1,
                            "color-alpha" : 0.75,
                            "color-blue" : 0.0,
                            "color-green" : 1.0,
                            "color-red" : 1.0,
                            "radius" : 50.0
                          }
                        }
                    ],
                    "start" : 2487,
                    "duration" : 102,
                    "mediaStart" : 4801,
                    "mediaDuration" : 519,
                    "scalar" : "34/173",
                    "metadata" : {
                      "AutoAppliedSmartFocus" : "False",
                      "clipSpeedAttribute" : true,
                      "default-scale0" : 0.999999767628522,
                      "default-scale1" : 1.0,
                      "default-translation0" : 5.6843418860808e-14,
                      "default-translation1" : -4.9737991503207e-14
                    },
                    "animationTracks" : {
                      "visual" : [
                        {
                          "endTime" : 1177,
                          "duration" : 30,
                          "range" : [ 1147, 30]
                        },
                        {
                          "endTime" : 1449,
                          "duration" : 30,
                          "range" : [ 1419, 30]
                        },
                        {
                          "endTime" : 2474,
                          "duration" : 30,
                          "range" : [ 2444, 30]
                        },
                        {
                          "endTime" : 3259,
                          "duration" : 30,
                          "range" : [ 3229, 30]
                        },
                        {
                          "endTime" : 3491,
                          "duration" : 30,
                          "range" : [ 3461, 30]
                        },
                        {
                          "endTime" : 3865,
                          "duration" : 30,
                          "range" : [ 3835, 30]
                        },
                        {
                          "endTime" : 3913,
                          "duration" : 30,
                          "range" : [ 3883, 30]
                        },
                        {
                          "endTime" : 4027,
                          "duration" : 30,
                          "range" : [ 3997, 30]
                        },
                        {
                          "endTime" : 4074,
                          "duration" : 30,
                          "range" : [ 4044, 30]
                        }
                      ]
                    }
                  },
                  {
                    "id" : 265,
                    "_type" : "StitchedMedia",
                    "minMediaStart" : 0,
                    "attributes" : {
                      "ident" : "hijacking_ntfs_structs_attack_prevention",
                      "gain" : 1.0,
                      "mixToMono" : false
                    },
                    "parameters" : {
                      "translation0" : {
                        "type" : "double",
                        "defaultValue" : 0.0,
                        "keyframes" : [
                          {
                            "endTime" : 1177,
                            "time" : 1147,
                            "value" : 948.478453192254,
                            "duration" : 30
                          },
                          {
                            "endTime" : 1449,
                            "time" : 1419,
                            "value" : 948.478364944437,
                            "duration" : 30
                          },
                          {
                            "endTime" : 2474,
                            "time" : 2444,
                            "value" : 5.6843418860808e-14,
                            "duration" : 30
                          },
                          {
                            "endTime" : 3259,
                            "time" : 3229,
                            "value" : -774.930172418836,
                            "duration" : 30
                          },
                          {
                            "endTime" : 3491,
                            "time" : 3461,
                            "value" : -774.930252849251,
                            "duration" : 30
                          },
                          {
                            "endTime" : 3865,
                            "time" : 3835,
                            "value" : 5.6843418860808e-14,
                            "duration" : 30
                          },
                          {
                            "endTime" : 3913,
                            "time" : 3883,
                            "value" : 1596.09769057838,
                            "duration" : 30
                          },
                          {
                            "endTime" : 4027,
                            "time" : 3997,
                            "value" : 2.27373675443232e-13,
                            "duration" : 30
                          },
                          {
                            "endTime" : 4074,
                            "time" : 4044,
                            "value" : -774.9,
                            "duration" : 30
                          }
                        ]
                      },
                      "translation1" : {
                        "type" : "double",
                        "defaultValue" : 0.0,
                        "keyframes" : [
                          {
                            "endTime" : 1177,
                            "time" : 1147,
                            "value" : -426.526455592595,
                            "duration" : 30
                          },
                          {
                            "endTime" : 1449,
                            "time" : 1419,
                            "value" : -100.3,
                            "duration" : 30
                          },
                          {
                            "endTime" : 2474,
                            "time" : 2444,
                            "value" : -4.9737991503207e-14,
                            "duration" : 30
                          },
                          {
                            "endTime" : 3259,
                            "time" : 3229,
                            "value" : -101.709492105514,
                            "duration" : 30
                          },
                          {
                            "endTime" : 3491,
                            "time" : 3461,
                            "value" : 427.4,
                            "duration" : 30
                          },
                          {
                            "endTime" : 3865,
                            "time" : 3835,
                            "value" : -5.6843418860808e-14,
                            "duration" : 30
                          },
                          {
                            "endTime" : 3913,
                            "time" : 3883,
                            "value" : -743.478440251836,
                            "duration" : 30
                          },
                          {
                            "endTime" : 4027,
                            "time" : 3997,
                            "value" : 1.13686837721616e-13,
                            "duration" : 30
                          },
                          {
                            "endTime" : 4074,
                            "time" : 4044,
                            "value" : 427.4,
                            "duration" : 30
                          }
                        ]
                      },
                      "scale0" : {
                        "type" : "double",
                        "defaultValue" : 1.0,
                        "keyframes" : [
                          {
                            "endTime" : 1177,
                            "time" : 1147,
                            "value" : 1.98900262241215,
                            "duration" : 30
                          },
                          {
                            "endTime" : 2474,
                            "time" : 2444,
                            "value" : 0.999999767628522,
                            "duration" : 30
                          },
                          {
                            "endTime" : 3259,
                            "time" : 3229,
                            "value" : 2.22091728725881,
                            "duration" : 30
                          },
                          {
                            "endTime" : 3491,
                            "time" : 3461,
                            "value" : 2.22091757221115,
                            "duration" : 30
                          },
                          {
                            "endTime" : 3865,
                            "time" : 3835,
                            "value" : 0.999999908672186,
                            "duration" : 30
                          },
                          {
                            "endTime" : 3913,
                            "time" : 3883,
                            "value" : 2.30317149661612,
                            "duration" : 30
                          },
                          {
                            "endTime" : 4027,
                            "time" : 3997,
                            "value" : 0.999999941772713,
                            "duration" : 30
                          },
                          {
                            "endTime" : 4074,
                            "time" : 4044,
                            "value" : 2.22099983278936,
                            "duration" : 30
                          }
                        ]
                      },
                      "scale1" : {
                        "type" : "double",
                        "defaultValue" : 1.0,
                        "keyframes" : [
                          {
                            "endTime" : 1177,
                            "time" : 1147,
                            "value" : 1.98900308459974,
                            "duration" : 30
                          },
                          {
                            "endTime" : 2474,
                            "time" : 2444,
                            "value" : 1.0,
                            "duration" : 30
                          },
                          {
                            "endTime" : 3259,
                            "time" : 3229,
                            "value" : 2.22091777504271,
                            "duration" : 30
                          },
                          {
                            "endTime" : 3865,
                            "time" : 3835,
                            "value" : 1.0,
                            "duration" : 30
                          },
                          {
                            "endTime" : 3913,
                            "time" : 3883,
                            "value" : 2.30317163072356,
                            "duration" : 30
                          },
                          {
                            "endTime" : 4027,
                            "time" : 3997,
                            "value" : 1.0,
                            "duration" : 30
                          },
                          {
                            "endTime" : 4074,
                            "time" : 4044,
                            "value" : 2.221,
                            "duration" : 30
                          }
                        ]
                      },
                      "cursorOpacity" : 1.0,
                      "cursorScale" : 1.0
                    },
                    "medias" : [
                        {
                          "id" : 266,
                          "_type" : "ScreenVMFile",
                          "src" : 1,
                          "trackNumber" : 0,
                          "attributes" : {
                            "ident" : "hijacking_ntfs_structs_attack_prevention"
                          },
                          "parameters" : {
                            "cursorScale" : {
                              "type" : "double",
                              "defaultValue" : 0.0,
                              "interp" : "linr"
                            },
                            "cursorOpacity" : {
                              "type" : "double",
                              "defaultValue" : 0.0,
                              "interp" : "linr"
                            }
                          },
                          "effects" : [

                          ],
                          "start" : 0,
                          "duration" : 1620,
                          "mediaStart" : 0,
                          "mediaDuration" : 1620,
                          "scalar" : 1,
                          "metadata" : {
                            "AutoAppliedSmartFocus" : "False",
                            "clipSpeedAttribute" : false,
                            "default-scale0" : 1.0,
                            "default-scale1" : 1.0,
                            "default-translation0" : 0.0,
                            "default-translation1" : 0.0
                          },
                          "animationTracks" : {

                          }
                        },
                        {
                          "id" : 267,
                          "_type" : "ScreenIMFile",
                          "src" : 1,
                          "trackNumber" : 0,
                          "trimStartSum" : 0,
                          "attributes" : {
                            "ident" : "hijacking_ntfs_structs_attack_prevention"
                          },
                          "parameters" : {
                            "cursorOpacity" : 0.0,
                            "cursorScale" : 0.0
                          },
                          "effects" : [

                          ],
                          "start" : 1620,
                          "duration" : 30,
                          "mediaStart" : 1619,
                          "mediaDuration" : 1,
                          "scalar" : 1,
                          "metadata" : {
                            "AutoAppliedSmartFocus" : "False"
                          },
                          "animationTracks" : {

                          }
                        },
                        {
                          "id" : 268,
                          "_type" : "ScreenVMFile",
                          "src" : 1,
                          "trackNumber" : 0,
                          "attributes" : {
                            "ident" : "hijacking_ntfs_structs_attack_prevention"
                          },
                          "parameters" : {
                            "cursorScale" : {
                              "type" : "double",
                              "defaultValue" : 0.0,
                              "interp" : "linr"
                            },
                            "cursorOpacity" : {
                              "type" : "double",
                              "defaultValue" : 0.0,
                              "interp" : "linr"
                            }
                          },
                          "effects" : [

                          ],
                          "start" : 1650,
                          "duration" : 749,
                          "mediaStart" : 1620,
                          "mediaDuration" : 749,
                          "scalar" : 1,
                          "metadata" : {
                            "AutoAppliedSmartFocus" : "False",
                            "clipSpeedAttribute" : false,
                            "default-scale0" : 1.0,
                            "default-scale1" : 1.0,
                            "default-translation0" : 0.0,
                            "default-translation1" : 0.0
                          },
                          "animationTracks" : {

                          }
                        },
                        {
                          "id" : 269,
                          "_type" : "ScreenIMFile",
                          "src" : 1,
                          "trackNumber" : 0,
                          "trimStartSum" : 0,
                          "attributes" : {
                            "ident" : "hijacking_ntfs_structs_attack_prevention"
                          },
                          "parameters" : {
                            "cursorOpacity" : 0.0,
                            "cursorScale" : 0.0
                          },
                          "effects" : [

                          ],
                          "start" : 2399,
                          "duration" : 30,
                          "mediaStart" : 2369,
                          "mediaDuration" : 1,
                          "scalar" : 1,
                          "metadata" : {
                            "AutoAppliedSmartFocus" : "False"
                          },
                          "animationTracks" : {

                          }
                        },
                        {
                          "id" : 270,
                          "_type" : "ScreenVMFile",
                          "src" : 1,
                          "trackNumber" : 0,
                          "attributes" : {
                            "ident" : "hijacking_ntfs_structs_attack_prevention"
                          },
                          "parameters" : {
                            "cursorScale" : {
                              "type" : "double",
                              "defaultValue" : 0.0,
                              "interp" : "linr"
                            },
                            "cursorOpacity" : {
                              "type" : "double",
                              "defaultValue" : 0.0,
                              "interp" : "linr"
                            }
                          },
                          "effects" : [

                          ],
                          "start" : 2429,
                          "duration" : 67,
                          "mediaStart" : 2369,
                          "mediaDuration" : 67,
                          "scalar" : 1,
                          "metadata" : {
                            "AutoAppliedSmartFocus" : "False",
                            "clipSpeedAttribute" : false,
                            "default-scale0" : 1.0,
                            "default-scale1" : 1.0,
                            "default-translation0" : 0.0,
                            "default-translation1" : 0.0
                          },
                          "animationTracks" : {

                          }
                        },
                        {
                          "id" : 271,
                          "_type" : "ScreenIMFile",
                          "src" : 1,
                          "trackNumber" : 0,
                          "trimStartSum" : 0,
                          "attributes" : {
                            "ident" : "hijacking_ntfs_structs_attack_prevention"
                          },
                          "parameters" : {
                            "cursorOpacity" : 0.0,
                            "cursorScale" : 0.0
                          },
                          "effects" : [

                          ],
                          "start" : 2496,
                          "duration" : 60,
                          "mediaStart" : 2436,
                          "mediaDuration" : 1,
                          "scalar" : 1,
                          "metadata" : {
                            "AutoAppliedSmartFocus" : "False"
                          },
                          "animationTracks" : {

                          }
                        },
                        {
                          "id" : 272,
                          "_type" : "ScreenVMFile",
                          "src" : 1,
                          "trackNumber" : 0,
                          "attributes" : {
                            "ident" : "hijacking_ntfs_structs_attack_prevention"
                          },
                          "parameters" : {
                            "cursorScale" : {
                              "type" : "double",
                              "defaultValue" : 0.0,
                              "interp" : "linr"
                            },
                            "cursorOpacity" : {
                              "type" : "double",
                              "defaultValue" : 0.0,
                              "interp" : "linr"
                            }
                          },
                          "effects" : [

                          ],
                          "start" : 2556,
                          "duration" : 4597,
                          "mediaStart" : 2436,
                          "mediaDuration" : 4597,
                          "scalar" : 1,
                          "metadata" : {
                            "AutoAppliedSmartFocus" : "False",
                            "clipSpeedAttribute" : false,
                            "default-scale0" : 1.0,
                            "default-scale1" : 1.0,
                            "default-translation0" : 0.0,
                            "default-translation1" : 0.0
                          },
                          "animationTracks" : {

                          }
                        }
                    ],
                    "effects" : [
                        {
                          "effectName" : "CursorHilight",
                          "category" : "categoryCursorEffects",
                          "parameters" : {
                            "blur" : 0.1,
                            "color-alpha" : 0.75,
                            "color-blue" : 0.0,
                            "color-green" : 1.0,
                            "color-red" : 1.0,
                            "radius" : 50.0
                          }
                        }
                    ],
                    "start" : 2589,
                    "duration" : 33,
                    "mediaStart" : 5320,
                    "mediaDuration" : 125,
                    "scalar" : "33/125",
                    "metadata" : {
                      "AutoAppliedSmartFocus" : "False",
                      "clipSpeedAttribute" : true,
                      "default-scale0" : 0.999999767628522,
                      "default-scale1" : 1.0,
                      "default-translation0" : 5.6843418860808e-14,
                      "default-translation1" : -4.9737991503207e-14
                    },
                    "animationTracks" : {
                      "visual" : [
                        {
                          "endTime" : 1177,
                          "duration" : 30,
                          "range" : [ 1147, 30]
                        },
                        {
                          "endTime" : 1449,
                          "duration" : 30,
                          "range" : [ 1419, 30]
                        },
                        {
                          "endTime" : 2474,
                          "duration" : 30,
                          "range" : [ 2444, 30]
                        },
                        {
                          "endTime" : 3259,
                          "duration" : 30,
                          "range" : [ 3229, 30]
                        },
                        {
                          "endTime" : 3491,
                          "duration" : 30,
                          "range" : [ 3461, 30]
                        },
                        {
                          "endTime" : 3865,
                          "duration" : 30,
                          "range" : [ 3835, 30]
                        },
                        {
                          "endTime" : 3913,
                          "duration" : 30,
                          "range" : [ 3883, 30]
                        },
                        {
                          "endTime" : 4027,
                          "duration" : 30,
                          "range" : [ 3997, 30]
                        },
                        {
                          "endTime" : 4074,
                          "duration" : 30,
                          "range" : [ 4044, 30]
                        }
                      ]
                    }
                  },
                  {
                    "id" : 273,
                    "_type" : "StitchedMedia",
                    "minMediaStart" : 0,
                    "attributes" : {
                      "ident" : "hijacking_ntfs_structs_attack_prevention",
                      "gain" : 1.0,
                      "mixToMono" : false
                    },
                    "parameters" : {
                      "translation0" : {
                        "type" : "double",
                        "defaultValue" : 0.0,
                        "keyframes" : [
                          {
                            "endTime" : 1177,
                            "time" : 1147,
                            "value" : 948.478453192254,
                            "duration" : 30
                          },
                          {
                            "endTime" : 1449,
                            "time" : 1419,
                            "value" : 948.478364944437,
                            "duration" : 30
                          },
                          {
                            "endTime" : 2474,
                            "time" : 2444,
                            "value" : 5.6843418860808e-14,
                            "duration" : 30
                          },
                          {
                            "endTime" : 3259,
                            "time" : 3229,
                            "value" : -774.930172418836,
                            "duration" : 30
                          },
                          {
                            "endTime" : 3491,
                            "time" : 3461,
                            "value" : -774.930252849251,
                            "duration" : 30
                          },
                          {
                            "endTime" : 3865,
                            "time" : 3835,
                            "value" : 5.6843418860808e-14,
                            "duration" : 30
                          },
                          {
                            "endTime" : 3913,
                            "time" : 3883,
                            "value" : 1596.09769057838,
                            "duration" : 30
                          },
                          {
                            "endTime" : 4027,
                            "time" : 3997,
                            "value" : 2.27373675443232e-13,
                            "duration" : 30
                          },
                          {
                            "endTime" : 4074,
                            "time" : 4044,
                            "value" : -774.9,
                            "duration" : 30
                          },
                          {
                            "endTime" : 5505,
                            "time" : 5475,
                            "value" : -1.13686837721616e-13,
                            "duration" : 30
                          },
                          {
                            "endTime" : 5606,
                            "time" : 5576,
                            "value" : 1008.54947665046,
                            "duration" : 30
                          }
                        ]
                      },
                      "translation1" : {
                        "type" : "double",
                        "defaultValue" : 0.0,
                        "keyframes" : [
                          {
                            "endTime" : 1177,
                            "time" : 1147,
                            "value" : -426.526455592595,
                            "duration" : 30
                          },
                          {
                            "endTime" : 1449,
                            "time" : 1419,
                            "value" : -100.3,
                            "duration" : 30
                          },
                          {
                            "endTime" : 2474,
                            "time" : 2444,
                            "value" : -4.9737991503207e-14,
                            "duration" : 30
                          },
                          {
                            "endTime" : 3259,
                            "time" : 3229,
                            "value" : -101.709492105514,
                            "duration" : 30
                          },
                          {
                            "endTime" : 3491,
                            "time" : 3461,
                            "value" : 427.4,
                            "duration" : 30
                          },
                          {
                            "endTime" : 3865,
                            "time" : 3835,
                            "value" : -5.6843418860808e-14,
                            "duration" : 30
                          },
                          {
                            "endTime" : 3913,
                            "time" : 3883,
                            "value" : -743.478440251836,
                            "duration" : 30
                          },
                          {
                            "endTime" : 4027,
                            "time" : 3997,
                            "value" : 1.13686837721616e-13,
                            "duration" : 30
                          },
                          {
                            "endTime" : 4074,
                            "time" : 4044,
                            "value" : 427.4,
                            "duration" : 30
                          },
                          {
                            "endTime" : 5505,
                            "time" : 5475,
                            "value" : -5.6843418860808e-14,
                            "duration" : 30
                          },
                          {
                            "endTime" : 5606,
                            "time" : 5576,
                            "value" : -303.704938962414,
                            "duration" : 30
                          }
                        ]
                      },
                      "scale0" : {
                        "type" : "double",
                        "defaultValue" : 1.0,
                        "keyframes" : [
                          {
                            "endTime" : 1177,
                            "time" : 1147,
                            "value" : 1.98900262241215,
                            "duration" : 30
                          },
                          {
                            "endTime" : 2474,
                            "time" : 2444,
                            "value" : 0.999999767628522,
                            "duration" : 30
                          },
                          {
                            "endTime" : 3259,
                            "time" : 3229,
                            "value" : 2.22091728725881,
                            "duration" : 30
                          },
                          {
                            "endTime" : 3491,
                            "time" : 3461,
                            "value" : 2.22091757221115,
                            "duration" : 30
                          },
                          {
                            "endTime" : 3865,
                            "time" : 3835,
                            "value" : 0.999999908672186,
                            "duration" : 30
                          },
                          {
                            "endTime" : 3913,
                            "time" : 3883,
                            "value" : 2.30317149661612,
                            "duration" : 30
                          },
                          {
                            "endTime" : 4027,
                            "time" : 3997,
                            "value" : 0.999999941772713,
                            "duration" : 30
                          },
                          {
                            "endTime" : 4074,
                            "time" : 4044,
                            "value" : 2.22099983278936,
                            "duration" : 30
                          },
                          {
                            "endTime" : 5505,
                            "time" : 5475,
                            "value" : 0.999999924713804,
                            "duration" : 30
                          },
                          {
                            "endTime" : 5606,
                            "time" : 5576,
                            "value" : 1.79597357660838,
                            "duration" : 30
                          }
                        ]
                      },
                      "scale1" : {
                        "type" : "double",
                        "defaultValue" : 1.0,
                        "keyframes" : [
                          {
                            "endTime" : 1177,
                            "time" : 1147,
                            "value" : 1.98900308459974,
                            "duration" : 30
                          },
                          {
                            "endTime" : 2474,
                            "time" : 2444,
                            "value" : 1.0,
                            "duration" : 30
                          },
                          {
                            "endTime" : 3259,
                            "time" : 3229,
                            "value" : 2.22091777504271,
                            "duration" : 30
                          },
                          {
                            "endTime" : 3865,
                            "time" : 3835,
                            "value" : 1.0,
                            "duration" : 30
                          },
                          {
                            "endTime" : 3913,
                            "time" : 3883,
                            "value" : 2.30317163072356,
                            "duration" : 30
                          },
                          {
                            "endTime" : 4027,
                            "time" : 3997,
                            "value" : 1.0,
                            "duration" : 30
                          },
                          {
                            "endTime" : 4074,
                            "time" : 4044,
                            "value" : 2.221,
                            "duration" : 30
                          },
                          {
                            "endTime" : 5505,
                            "time" : 5475,
                            "value" : 1.0,
                            "duration" : 30
                          },
                          {
                            "endTime" : 5606,
                            "time" : 5576,
                            "value" : 1.79597406752138,
                            "duration" : 30
                          }
                        ]
                      },
                      "cursorOpacity" : 1.0,
                      "cursorScale" : 1.0
                    },
                    "medias" : [
                        {
                          "id" : 274,
                          "_type" : "ScreenVMFile",
                          "src" : 1,
                          "trackNumber" : 0,
                          "attributes" : {
                            "ident" : "hijacking_ntfs_structs_attack_prevention"
                          },
                          "parameters" : {
                            "cursorScale" : {
                              "type" : "double",
                              "defaultValue" : 0.0,
                              "interp" : "linr"
                            },
                            "cursorOpacity" : {
                              "type" : "double",
                              "defaultValue" : 0.0,
                              "interp" : "linr"
                            }
                          },
                          "effects" : [

                          ],
                          "start" : 0,
                          "duration" : 1620,
                          "mediaStart" : 0,
                          "mediaDuration" : 1620,
                          "scalar" : 1,
                          "metadata" : {
                            "AutoAppliedSmartFocus" : "False",
                            "clipSpeedAttribute" : false,
                            "default-scale0" : 1.0,
                            "default-scale1" : 1.0,
                            "default-translation0" : 0.0,
                            "default-translation1" : 0.0
                          },
                          "animationTracks" : {

                          }
                        },
                        {
                          "id" : 275,
                          "_type" : "ScreenIMFile",
                          "src" : 1,
                          "trackNumber" : 0,
                          "trimStartSum" : 0,
                          "attributes" : {
                            "ident" : "hijacking_ntfs_structs_attack_prevention"
                          },
                          "parameters" : {
                            "cursorOpacity" : 0.0,
                            "cursorScale" : 0.0
                          },
                          "effects" : [

                          ],
                          "start" : 1620,
                          "duration" : 30,
                          "mediaStart" : 1619,
                          "mediaDuration" : 1,
                          "scalar" : 1,
                          "metadata" : {
                            "AutoAppliedSmartFocus" : "False"
                          },
                          "animationTracks" : {

                          }
                        },
                        {
                          "id" : 276,
                          "_type" : "ScreenVMFile",
                          "src" : 1,
                          "trackNumber" : 0,
                          "attributes" : {
                            "ident" : "hijacking_ntfs_structs_attack_prevention"
                          },
                          "parameters" : {
                            "cursorScale" : {
                              "type" : "double",
                              "defaultValue" : 0.0,
                              "interp" : "linr"
                            },
                            "cursorOpacity" : {
                              "type" : "double",
                              "defaultValue" : 0.0,
                              "interp" : "linr"
                            }
                          },
                          "effects" : [

                          ],
                          "start" : 1650,
                          "duration" : 749,
                          "mediaStart" : 1620,
                          "mediaDuration" : 749,
                          "scalar" : 1,
                          "metadata" : {
                            "AutoAppliedSmartFocus" : "False",
                            "clipSpeedAttribute" : false,
                            "default-scale0" : 1.0,
                            "default-scale1" : 1.0,
                            "default-translation0" : 0.0,
                            "default-translation1" : 0.0
                          },
                          "animationTracks" : {

                          }
                        },
                        {
                          "id" : 277,
                          "_type" : "ScreenIMFile",
                          "src" : 1,
                          "trackNumber" : 0,
                          "trimStartSum" : 0,
                          "attributes" : {
                            "ident" : "hijacking_ntfs_structs_attack_prevention"
                          },
                          "parameters" : {
                            "cursorOpacity" : 0.0,
                            "cursorScale" : 0.0
                          },
                          "effects" : [

                          ],
                          "start" : 2399,
                          "duration" : 30,
                          "mediaStart" : 2369,
                          "mediaDuration" : 1,
                          "scalar" : 1,
                          "metadata" : {
                            "AutoAppliedSmartFocus" : "False"
                          },
                          "animationTracks" : {

                          }
                        },
                        {
                          "id" : 278,
                          "_type" : "ScreenVMFile",
                          "src" : 1,
                          "trackNumber" : 0,
                          "attributes" : {
                            "ident" : "hijacking_ntfs_structs_attack_prevention"
                          },
                          "parameters" : {
                            "cursorScale" : {
                              "type" : "double",
                              "defaultValue" : 0.0,
                              "interp" : "linr"
                            },
                            "cursorOpacity" : {
                              "type" : "double",
                              "defaultValue" : 0.0,
                              "interp" : "linr"
                            }
                          },
                          "effects" : [

                          ],
                          "start" : 2429,
                          "duration" : 67,
                          "mediaStart" : 2369,
                          "mediaDuration" : 67,
                          "scalar" : 1,
                          "metadata" : {
                            "AutoAppliedSmartFocus" : "False",
                            "clipSpeedAttribute" : false,
                            "default-scale0" : 1.0,
                            "default-scale1" : 1.0,
                            "default-translation0" : 0.0,
                            "default-translation1" : 0.0
                          },
                          "animationTracks" : {

                          }
                        },
                        {
                          "id" : 279,
                          "_type" : "ScreenIMFile",
                          "src" : 1,
                          "trackNumber" : 0,
                          "trimStartSum" : 0,
                          "attributes" : {
                            "ident" : "hijacking_ntfs_structs_attack_prevention"
                          },
                          "parameters" : {
                            "cursorOpacity" : 0.0,
                            "cursorScale" : 0.0
                          },
                          "effects" : [

                          ],
                          "start" : 2496,
                          "duration" : 60,
                          "mediaStart" : 2436,
                          "mediaDuration" : 1,
                          "scalar" : 1,
                          "metadata" : {
                            "AutoAppliedSmartFocus" : "False"
                          },
                          "animationTracks" : {

                          }
                        },
                        {
                          "id" : 280,
                          "_type" : "ScreenVMFile",
                          "src" : 1,
                          "trackNumber" : 0,
                          "attributes" : {
                            "ident" : "hijacking_ntfs_structs_attack_prevention"
                          },
                          "parameters" : {
                            "cursorScale" : {
                              "type" : "double",
                              "defaultValue" : 0.0,
                              "interp" : "linr"
                            },
                            "cursorOpacity" : {
                              "type" : "double",
                              "defaultValue" : 0.0,
                              "interp" : "linr"
                            }
                          },
                          "effects" : [

                          ],
                          "start" : 2556,
                          "duration" : 2951,
                          "mediaStart" : 2436,
                          "mediaDuration" : 2951,
                          "scalar" : 1,
                          "metadata" : {
                            "AutoAppliedSmartFocus" : "False",
                            "clipSpeedAttribute" : false,
                            "default-scale0" : 1.0,
                            "default-scale1" : 1.0,
                            "default-translation0" : 0.0,
                            "default-translation1" : 0.0
                          },
                          "animationTracks" : {

                          }
                        },
                        {
                          "id" : 281,
                          "_type" : "ScreenIMFile",
                          "src" : 1,
                          "trackNumber" : 0,
                          "trimStartSum" : 0,
                          "attributes" : {
                            "ident" : "hijacking_ntfs_structs_attack_prevention"
                          },
                          "parameters" : {
                            "cursorOpacity" : 0.0,
                            "cursorScale" : 0.0
                          },
                          "effects" : [

                          ],
                          "start" : 5507,
                          "duration" : 67,
                          "mediaStart" : 5387,
                          "mediaDuration" : 1,
                          "scalar" : 1,
                          "metadata" : {
                            "AutoAppliedSmartFocus" : "False"
                          },
                          "animationTracks" : {

                          }
                        },
                        {
                          "id" : 282,
                          "_type" : "ScreenVMFile",
                          "src" : 1,
                          "trackNumber" : 0,
                          "attributes" : {
                            "ident" : "hijacking_ntfs_structs_attack_prevention"
                          },
                          "parameters" : {
                            "cursorScale" : {
                              "type" : "double",
                              "defaultValue" : 0.0,
                              "interp" : "linr"
                            },
                            "cursorOpacity" : {
                              "type" : "double",
                              "defaultValue" : 0.0,
                              "interp" : "linr"
                            }
                          },
                          "effects" : [

                          ],
                          "start" : 5574,
                          "duration" : 1646,
                          "mediaStart" : 5387,
                          "mediaDuration" : 1646,
                          "scalar" : 1,
                          "metadata" : {
                            "AutoAppliedSmartFocus" : "False",
                            "clipSpeedAttribute" : false,
                            "default-scale0" : 1.0,
                            "default-scale1" : 1.0,
                            "default-translation0" : 0.0,
                            "default-translation1" : 0.0
                          },
                          "animationTracks" : {

                          }
                        }
                    ],
                    "effects" : [
                        {
                          "effectName" : "CursorHilight",
                          "category" : "categoryCursorEffects",
                          "parameters" : {
                            "blur" : 0.1,
                            "color-alpha" : 0.75,
                            "color-blue" : 0.0,
                            "color-green" : 1.0,
                            "color-red" : 1.0,
                            "radius" : 50.0
                          }
                        }
                    ],
                    "start" : 2622,
                    "duration" : 130,
                    "mediaStart" : 5445,
                    "mediaDuration" : 130,
                    "scalar" : 1,
                    "metadata" : {
                      "AutoAppliedSmartFocus" : "False",
                      "clipSpeedAttribute" : false
                    },
                    "animationTracks" : {
                      "visual" : [
                        {
                          "endTime" : 1177,
                          "duration" : 30,
                          "range" : [ 1147, 30]
                        },
                        {
                          "endTime" : 1449,
                          "duration" : 30,
                          "range" : [ 1419, 30]
                        },
                        {
                          "endTime" : 2474,
                          "duration" : 30,
                          "range" : [ 2444, 30]
                        },
                        {
                          "endTime" : 3259,
                          "duration" : 30,
                          "range" : [ 3229, 30]
                        },
                        {
                          "endTime" : 3491,
                          "duration" : 30,
                          "range" : [ 3461, 30]
                        },
                        {
                          "endTime" : 3865,
                          "duration" : 30,
                          "range" : [ 3835, 30]
                        },
                        {
                          "endTime" : 3913,
                          "duration" : 30,
                          "range" : [ 3883, 30]
                        },
                        {
                          "endTime" : 4027,
                          "duration" : 30,
                          "range" : [ 3997, 30]
                        },
                        {
                          "endTime" : 4074,
                          "duration" : 30,
                          "range" : [ 4044, 30]
                        },
                        {
                          "endTime" : 5505,
                          "duration" : 30,
                          "range" : [ 5475, 30]
                        },
                        {
                          "endTime" : 5606,
                          "duration" : 30,
                          "range" : [ 5576, 30]
                        }
                      ]
                    }
                  },
                  {
                    "id" : 283,
                    "_type" : "StitchedMedia",
                    "minMediaStart" : 0,
                    "attributes" : {
                      "ident" : "hijacking_ntfs_structs_attack_prevention",
                      "gain" : 1.0,
                      "mixToMono" : false
                    },
                    "parameters" : {
                      "translation0" : {
                        "type" : "double",
                        "defaultValue" : 0.0,
                        "keyframes" : [
                          {
                            "endTime" : 1177,
                            "time" : 1147,
                            "value" : 948.478453192254,
                            "duration" : 30
                          },
                          {
                            "endTime" : 1449,
                            "time" : 1419,
                            "value" : 948.478364944437,
                            "duration" : 30
                          },
                          {
                            "endTime" : 2474,
                            "time" : 2444,
                            "value" : 5.6843418860808e-14,
                            "duration" : 30
                          },
                          {
                            "endTime" : 3259,
                            "time" : 3229,
                            "value" : -774.930172418836,
                            "duration" : 30
                          },
                          {
                            "endTime" : 3491,
                            "time" : 3461,
                            "value" : -774.930252849251,
                            "duration" : 30
                          },
                          {
                            "endTime" : 3865,
                            "time" : 3835,
                            "value" : 5.6843418860808e-14,
                            "duration" : 30
                          },
                          {
                            "endTime" : 3913,
                            "time" : 3883,
                            "value" : 1596.09769057838,
                            "duration" : 30
                          },
                          {
                            "endTime" : 4027,
                            "time" : 3997,
                            "value" : 2.27373675443232e-13,
                            "duration" : 30
                          },
                          {
                            "endTime" : 4074,
                            "time" : 4044,
                            "value" : -774.9,
                            "duration" : 30
                          },
                          {
                            "endTime" : 5505,
                            "time" : 5475,
                            "value" : -1.13686837721616e-13,
                            "duration" : 30
                          },
                          {
                            "endTime" : 5539,
                            "time" : 5509,
                            "value" : 1008.54947665046,
                            "duration" : 30
                          }
                        ]
                      },
                      "translation1" : {
                        "type" : "double",
                        "defaultValue" : 0.0,
                        "keyframes" : [
                          {
                            "endTime" : 1177,
                            "time" : 1147,
                            "value" : -426.526455592595,
                            "duration" : 30
                          },
                          {
                            "endTime" : 1449,
                            "time" : 1419,
                            "value" : -100.3,
                            "duration" : 30
                          },
                          {
                            "endTime" : 2474,
                            "time" : 2444,
                            "value" : -4.9737991503207e-14,
                            "duration" : 30
                          },
                          {
                            "endTime" : 3259,
                            "time" : 3229,
                            "value" : -101.709492105514,
                            "duration" : 30
                          },
                          {
                            "endTime" : 3491,
                            "time" : 3461,
                            "value" : 427.4,
                            "duration" : 30
                          },
                          {
                            "endTime" : 3865,
                            "time" : 3835,
                            "value" : -5.6843418860808e-14,
                            "duration" : 30
                          },
                          {
                            "endTime" : 3913,
                            "time" : 3883,
                            "value" : -743.478440251836,
                            "duration" : 30
                          },
                          {
                            "endTime" : 4027,
                            "time" : 3997,
                            "value" : 1.13686837721616e-13,
                            "duration" : 30
                          },
                          {
                            "endTime" : 4074,
                            "time" : 4044,
                            "value" : 427.4,
                            "duration" : 30
                          },
                          {
                            "endTime" : 5505,
                            "time" : 5475,
                            "value" : -5.6843418860808e-14,
                            "duration" : 30
                          },
                          {
                            "endTime" : 5539,
                            "time" : 5509,
                            "value" : -303.704938962414,
                            "duration" : 30
                          }
                        ]
                      },
                      "scale0" : {
                        "type" : "double",
                        "defaultValue" : 1.0,
                        "keyframes" : [
                          {
                            "endTime" : 1177,
                            "time" : 1147,
                            "value" : 1.98900262241215,
                            "duration" : 30
                          },
                          {
                            "endTime" : 2474,
                            "time" : 2444,
                            "value" : 0.999999767628522,
                            "duration" : 30
                          },
                          {
                            "endTime" : 3259,
                            "time" : 3229,
                            "value" : 2.22091728725881,
                            "duration" : 30
                          },
                          {
                            "endTime" : 3491,
                            "time" : 3461,
                            "value" : 2.22091757221115,
                            "duration" : 30
                          },
                          {
                            "endTime" : 3865,
                            "time" : 3835,
                            "value" : 0.999999908672186,
                            "duration" : 30
                          },
                          {
                            "endTime" : 3913,
                            "time" : 3883,
                            "value" : 2.30317149661612,
                            "duration" : 30
                          },
                          {
                            "endTime" : 4027,
                            "time" : 3997,
                            "value" : 0.999999941772713,
                            "duration" : 30
                          },
                          {
                            "endTime" : 4074,
                            "time" : 4044,
                            "value" : 2.22099983278936,
                            "duration" : 30
                          },
                          {
                            "endTime" : 5505,
                            "time" : 5475,
                            "value" : 0.999999924713804,
                            "duration" : 30
                          },
                          {
                            "endTime" : 5539,
                            "time" : 5509,
                            "value" : 1.79597357660838,
                            "duration" : 30
                          }
                        ]
                      },
                      "scale1" : {
                        "type" : "double",
                        "defaultValue" : 1.0,
                        "keyframes" : [
                          {
                            "endTime" : 1177,
                            "time" : 1147,
                            "value" : 1.98900308459974,
                            "duration" : 30
                          },
                          {
                            "endTime" : 2474,
                            "time" : 2444,
                            "value" : 1.0,
                            "duration" : 30
                          },
                          {
                            "endTime" : 3259,
                            "time" : 3229,
                            "value" : 2.22091777504271,
                            "duration" : 30
                          },
                          {
                            "endTime" : 3865,
                            "time" : 3835,
                            "value" : 1.0,
                            "duration" : 30
                          },
                          {
                            "endTime" : 3913,
                            "time" : 3883,
                            "value" : 2.30317163072356,
                            "duration" : 30
                          },
                          {
                            "endTime" : 4027,
                            "time" : 3997,
                            "value" : 1.0,
                            "duration" : 30
                          },
                          {
                            "endTime" : 4074,
                            "time" : 4044,
                            "value" : 2.221,
                            "duration" : 30
                          },
                          {
                            "endTime" : 5505,
                            "time" : 5475,
                            "value" : 1.0,
                            "duration" : 30
                          },
                          {
                            "endTime" : 5539,
                            "time" : 5509,
                            "value" : 1.79597406752138,
                            "duration" : 30
                          }
                        ]
                      },
                      "cursorOpacity" : 1.0,
                      "cursorScale" : 1.0
                    },
                    "medias" : [
                        {
                          "id" : 284,
                          "_type" : "ScreenVMFile",
                          "src" : 1,
                          "trackNumber" : 0,
                          "attributes" : {
                            "ident" : "hijacking_ntfs_structs_attack_prevention"
                          },
                          "parameters" : {
                            "cursorScale" : {
                              "type" : "double",
                              "defaultValue" : 0.0,
                              "interp" : "linr"
                            },
                            "cursorOpacity" : {
                              "type" : "double",
                              "defaultValue" : 0.0,
                              "interp" : "linr"
                            }
                          },
                          "effects" : [

                          ],
                          "start" : 0,
                          "duration" : 1620,
                          "mediaStart" : 0,
                          "mediaDuration" : 1620,
                          "scalar" : 1,
                          "metadata" : {
                            "AutoAppliedSmartFocus" : "False",
                            "clipSpeedAttribute" : false,
                            "default-scale0" : 1.0,
                            "default-scale1" : 1.0,
                            "default-translation0" : 0.0,
                            "default-translation1" : 0.0
                          },
                          "animationTracks" : {

                          }
                        },
                        {
                          "id" : 285,
                          "_type" : "ScreenIMFile",
                          "src" : 1,
                          "trackNumber" : 0,
                          "trimStartSum" : 0,
                          "attributes" : {
                            "ident" : "hijacking_ntfs_structs_attack_prevention"
                          },
                          "parameters" : {
                            "cursorOpacity" : 0.0,
                            "cursorScale" : 0.0
                          },
                          "effects" : [

                          ],
                          "start" : 1620,
                          "duration" : 30,
                          "mediaStart" : 1619,
                          "mediaDuration" : 1,
                          "scalar" : 1,
                          "metadata" : {
                            "AutoAppliedSmartFocus" : "False"
                          },
                          "animationTracks" : {

                          }
                        },
                        {
                          "id" : 286,
                          "_type" : "ScreenVMFile",
                          "src" : 1,
                          "trackNumber" : 0,
                          "attributes" : {
                            "ident" : "hijacking_ntfs_structs_attack_prevention"
                          },
                          "parameters" : {
                            "cursorScale" : {
                              "type" : "double",
                              "defaultValue" : 0.0,
                              "interp" : "linr"
                            },
                            "cursorOpacity" : {
                              "type" : "double",
                              "defaultValue" : 0.0,
                              "interp" : "linr"
                            }
                          },
                          "effects" : [

                          ],
                          "start" : 1650,
                          "duration" : 749,
                          "mediaStart" : 1620,
                          "mediaDuration" : 749,
                          "scalar" : 1,
                          "metadata" : {
                            "AutoAppliedSmartFocus" : "False",
                            "clipSpeedAttribute" : false,
                            "default-scale0" : 1.0,
                            "default-scale1" : 1.0,
                            "default-translation0" : 0.0,
                            "default-translation1" : 0.0
                          },
                          "animationTracks" : {

                          }
                        },
                        {
                          "id" : 287,
                          "_type" : "ScreenIMFile",
                          "src" : 1,
                          "trackNumber" : 0,
                          "trimStartSum" : 0,
                          "attributes" : {
                            "ident" : "hijacking_ntfs_structs_attack_prevention"
                          },
                          "parameters" : {
                            "cursorOpacity" : 0.0,
                            "cursorScale" : 0.0
                          },
                          "effects" : [

                          ],
                          "start" : 2399,
                          "duration" : 30,
                          "mediaStart" : 2369,
                          "mediaDuration" : 1,
                          "scalar" : 1,
                          "metadata" : {
                            "AutoAppliedSmartFocus" : "False"
                          },
                          "animationTracks" : {

                          }
                        },
                        {
                          "id" : 288,
                          "_type" : "ScreenVMFile",
                          "src" : 1,
                          "trackNumber" : 0,
                          "attributes" : {
                            "ident" : "hijacking_ntfs_structs_attack_prevention"
                          },
                          "parameters" : {
                            "cursorScale" : {
                              "type" : "double",
                              "defaultValue" : 0.0,
                              "interp" : "linr"
                            },
                            "cursorOpacity" : {
                              "type" : "double",
                              "defaultValue" : 0.0,
                              "interp" : "linr"
                            }
                          },
                          "effects" : [

                          ],
                          "start" : 2429,
                          "duration" : 67,
                          "mediaStart" : 2369,
                          "mediaDuration" : 67,
                          "scalar" : 1,
                          "metadata" : {
                            "AutoAppliedSmartFocus" : "False",
                            "clipSpeedAttribute" : false,
                            "default-scale0" : 1.0,
                            "default-scale1" : 1.0,
                            "default-translation0" : 0.0,
                            "default-translation1" : 0.0
                          },
                          "animationTracks" : {

                          }
                        },
                        {
                          "id" : 289,
                          "_type" : "ScreenIMFile",
                          "src" : 1,
                          "trackNumber" : 0,
                          "trimStartSum" : 0,
                          "attributes" : {
                            "ident" : "hijacking_ntfs_structs_attack_prevention"
                          },
                          "parameters" : {
                            "cursorOpacity" : 0.0,
                            "cursorScale" : 0.0
                          },
                          "effects" : [

                          ],
                          "start" : 2496,
                          "duration" : 60,
                          "mediaStart" : 2436,
                          "mediaDuration" : 1,
                          "scalar" : 1,
                          "metadata" : {
                            "AutoAppliedSmartFocus" : "False"
                          },
                          "animationTracks" : {

                          }
                        },
                        {
                          "id" : 290,
                          "_type" : "ScreenVMFile",
                          "src" : 1,
                          "trackNumber" : 0,
                          "attributes" : {
                            "ident" : "hijacking_ntfs_structs_attack_prevention"
                          },
                          "parameters" : {
                            "cursorScale" : {
                              "type" : "double",
                              "defaultValue" : 0.0,
                              "interp" : "linr"
                            },
                            "cursorOpacity" : {
                              "type" : "double",
                              "defaultValue" : 0.0,
                              "interp" : "linr"
                            }
                          },
                          "effects" : [

                          ],
                          "start" : 2556,
                          "duration" : 4597,
                          "mediaStart" : 2436,
                          "mediaDuration" : 4597,
                          "scalar" : 1,
                          "metadata" : {
                            "AutoAppliedSmartFocus" : "False",
                            "clipSpeedAttribute" : false,
                            "default-scale0" : 1.0,
                            "default-scale1" : 1.0,
                            "default-translation0" : 0.0,
                            "default-translation1" : 0.0
                          },
                          "animationTracks" : {

                          }
                        }
                    ],
                    "effects" : [
                        {
                          "effectName" : "CursorHilight",
                          "category" : "categoryCursorEffects",
                          "parameters" : {
                            "blur" : 0.1,
                            "color-alpha" : 0.75,
                            "color-blue" : 0.0,
                            "color-green" : 1.0,
                            "color-red" : 1.0,
                            "radius" : 50.0
                          }
                        }
                    ],
                    "start" : 2752,
                    "duration" : 34,
                    "mediaStart" : 5508,
                    "mediaDuration" : 34,
                    "scalar" : 1,
                    "metadata" : {
                      "AutoAppliedSmartFocus" : "False",
                      "clipSpeedAttribute" : false,
                      "default-scale0" : 0.999999767628522,
                      "default-scale1" : 1.0,
                      "default-translation0" : 5.6843418860808e-14,
                      "default-translation1" : -4.9737991503207e-14
                    },
                    "animationTracks" : {
                      "visual" : [
                        {
                          "endTime" : 1177,
                          "duration" : 30,
                          "range" : [ 1147, 30]
                        },
                        {
                          "endTime" : 1449,
                          "duration" : 30,
                          "range" : [ 1419, 30]
                        },
                        {
                          "endTime" : 2474,
                          "duration" : 30,
                          "range" : [ 2444, 30]
                        },
                        {
                          "endTime" : 3259,
                          "duration" : 30,
                          "range" : [ 3229, 30]
                        },
                        {
                          "endTime" : 3491,
                          "duration" : 30,
                          "range" : [ 3461, 30]
                        },
                        {
                          "endTime" : 3865,
                          "duration" : 30,
                          "range" : [ 3835, 30]
                        },
                        {
                          "endTime" : 3913,
                          "duration" : 30,
                          "range" : [ 3883, 30]
                        },
                        {
                          "endTime" : 4027,
                          "duration" : 30,
                          "range" : [ 3997, 30]
                        },
                        {
                          "endTime" : 4074,
                          "duration" : 30,
                          "range" : [ 4044, 30]
                        },
                        {
                          "endTime" : 5505,
                          "duration" : 30,
                          "range" : [ 5475, 30]
                        },
                        {
                          "endTime" : 5539,
                          "duration" : 30,
                          "range" : [ 5509, 30]
                        }
                      ]
                    }
                  },
                  {
                    "id" : 291,
                    "_type" : "StitchedMedia",
                    "minMediaStart" : 0,
                    "attributes" : {
                      "ident" : "hijacking_ntfs_structs_attack_prevention",
                      "gain" : 1.0,
                      "mixToMono" : false
                    },
                    "parameters" : {
                      "translation0" : {
                        "type" : "double",
                        "defaultValue" : 0.0,
                        "keyframes" : [
                          {
                            "endTime" : 1177,
                            "time" : 1147,
                            "value" : 948.478453192254,
                            "duration" : 30
                          },
                          {
                            "endTime" : 1449,
                            "time" : 1419,
                            "value" : 948.478364944437,
                            "duration" : 30
                          },
                          {
                            "endTime" : 2474,
                            "time" : 2444,
                            "value" : 5.6843418860808e-14,
                            "duration" : 30
                          },
                          {
                            "endTime" : 3259,
                            "time" : 3229,
                            "value" : -774.930172418836,
                            "duration" : 30
                          },
                          {
                            "endTime" : 3491,
                            "time" : 3461,
                            "value" : -774.930252849251,
                            "duration" : 30
                          },
                          {
                            "endTime" : 3865,
                            "time" : 3835,
                            "value" : 5.6843418860808e-14,
                            "duration" : 30
                          },
                          {
                            "endTime" : 3913,
                            "time" : 3883,
                            "value" : 1596.09769057838,
                            "duration" : 30
                          },
                          {
                            "endTime" : 4027,
                            "time" : 3997,
                            "value" : 2.27373675443232e-13,
                            "duration" : 30
                          },
                          {
                            "endTime" : 4074,
                            "time" : 4044,
                            "value" : -774.9,
                            "duration" : 30
                          },
                          {
                            "endTime" : 5505,
                            "time" : 5475,
                            "value" : -1.13686837721616e-13,
                            "duration" : 30
                          },
                          {
                            "endTime" : 5539,
                            "time" : 5509,
                            "value" : 1008.54947665046,
                            "duration" : 30
                          }
                        ]
                      },
                      "translation1" : {
                        "type" : "double",
                        "defaultValue" : 0.0,
                        "keyframes" : [
                          {
                            "endTime" : 1177,
                            "time" : 1147,
                            "value" : -426.526455592595,
                            "duration" : 30
                          },
                          {
                            "endTime" : 1449,
                            "time" : 1419,
                            "value" : -100.3,
                            "duration" : 30
                          },
                          {
                            "endTime" : 2474,
                            "time" : 2444,
                            "value" : -4.9737991503207e-14,
                            "duration" : 30
                          },
                          {
                            "endTime" : 3259,
                            "time" : 3229,
                            "value" : -101.709492105514,
                            "duration" : 30
                          },
                          {
                            "endTime" : 3491,
                            "time" : 3461,
                            "value" : 427.4,
                            "duration" : 30
                          },
                          {
                            "endTime" : 3865,
                            "time" : 3835,
                            "value" : -5.6843418860808e-14,
                            "duration" : 30
                          },
                          {
                            "endTime" : 3913,
                            "time" : 3883,
                            "value" : -743.478440251836,
                            "duration" : 30
                          },
                          {
                            "endTime" : 4027,
                            "time" : 3997,
                            "value" : 1.13686837721616e-13,
                            "duration" : 30
                          },
                          {
                            "endTime" : 4074,
                            "time" : 4044,
                            "value" : 427.4,
                            "duration" : 30
                          },
                          {
                            "endTime" : 5505,
                            "time" : 5475,
                            "value" : -5.6843418860808e-14,
                            "duration" : 30
                          },
                          {
                            "endTime" : 5539,
                            "time" : 5509,
                            "value" : -303.704938962414,
                            "duration" : 30
                          }
                        ]
                      },
                      "scale0" : {
                        "type" : "double",
                        "defaultValue" : 1.0,
                        "keyframes" : [
                          {
                            "endTime" : 1177,
                            "time" : 1147,
                            "value" : 1.98900262241215,
                            "duration" : 30
                          },
                          {
                            "endTime" : 2474,
                            "time" : 2444,
                            "value" : 0.999999767628522,
                            "duration" : 30
                          },
                          {
                            "endTime" : 3259,
                            "time" : 3229,
                            "value" : 2.22091728725881,
                            "duration" : 30
                          },
                          {
                            "endTime" : 3491,
                            "time" : 3461,
                            "value" : 2.22091757221115,
                            "duration" : 30
                          },
                          {
                            "endTime" : 3865,
                            "time" : 3835,
                            "value" : 0.999999908672186,
                            "duration" : 30
                          },
                          {
                            "endTime" : 3913,
                            "time" : 3883,
                            "value" : 2.30317149661612,
                            "duration" : 30
                          },
                          {
                            "endTime" : 4027,
                            "time" : 3997,
                            "value" : 0.999999941772713,
                            "duration" : 30
                          },
                          {
                            "endTime" : 4074,
                            "time" : 4044,
                            "value" : 2.22099983278936,
                            "duration" : 30
                          },
                          {
                            "endTime" : 5505,
                            "time" : 5475,
                            "value" : 0.999999924713804,
                            "duration" : 30
                          },
                          {
                            "endTime" : 5539,
                            "time" : 5509,
                            "value" : 1.79597357660838,
                            "duration" : 30
                          }
                        ]
                      },
                      "scale1" : {
                        "type" : "double",
                        "defaultValue" : 1.0,
                        "keyframes" : [
                          {
                            "endTime" : 1177,
                            "time" : 1147,
                            "value" : 1.98900308459974,
                            "duration" : 30
                          },
                          {
                            "endTime" : 2474,
                            "time" : 2444,
                            "value" : 1.0,
                            "duration" : 30
                          },
                          {
                            "endTime" : 3259,
                            "time" : 3229,
                            "value" : 2.22091777504271,
                            "duration" : 30
                          },
                          {
                            "endTime" : 3865,
                            "time" : 3835,
                            "value" : 1.0,
                            "duration" : 30
                          },
                          {
                            "endTime" : 3913,
                            "time" : 3883,
                            "value" : 2.30317163072356,
                            "duration" : 30
                          },
                          {
                            "endTime" : 4027,
                            "time" : 3997,
                            "value" : 1.0,
                            "duration" : 30
                          },
                          {
                            "endTime" : 4074,
                            "time" : 4044,
                            "value" : 2.221,
                            "duration" : 30
                          },
                          {
                            "endTime" : 5505,
                            "time" : 5475,
                            "value" : 1.0,
                            "duration" : 30
                          },
                          {
                            "endTime" : 5539,
                            "time" : 5509,
                            "value" : 1.79597406752138,
                            "duration" : 30
                          }
                        ]
                      },
                      "cursorOpacity" : 1.0,
                      "cursorScale" : 1.0
                    },
                    "medias" : [
                        {
                          "id" : 292,
                          "_type" : "ScreenVMFile",
                          "src" : 1,
                          "trackNumber" : 0,
                          "attributes" : {
                            "ident" : "hijacking_ntfs_structs_attack_prevention"
                          },
                          "parameters" : {
                            "cursorScale" : {
                              "type" : "double",
                              "defaultValue" : 0.0,
                              "interp" : "linr"
                            },
                            "cursorOpacity" : {
                              "type" : "double",
                              "defaultValue" : 0.0,
                              "interp" : "linr"
                            }
                          },
                          "effects" : [

                          ],
                          "start" : 0,
                          "duration" : 1620,
                          "mediaStart" : 0,
                          "mediaDuration" : 1620,
                          "scalar" : 1,
                          "metadata" : {
                            "AutoAppliedSmartFocus" : "False",
                            "clipSpeedAttribute" : false,
                            "default-scale0" : 1.0,
                            "default-scale1" : 1.0,
                            "default-translation0" : 0.0,
                            "default-translation1" : 0.0
                          },
                          "animationTracks" : {

                          }
                        },
                        {
                          "id" : 293,
                          "_type" : "ScreenIMFile",
                          "src" : 1,
                          "trackNumber" : 0,
                          "trimStartSum" : 0,
                          "attributes" : {
                            "ident" : "hijacking_ntfs_structs_attack_prevention"
                          },
                          "parameters" : {
                            "cursorOpacity" : 0.0,
                            "cursorScale" : 0.0
                          },
                          "effects" : [

                          ],
                          "start" : 1620,
                          "duration" : 30,
                          "mediaStart" : 1619,
                          "mediaDuration" : 1,
                          "scalar" : 1,
                          "metadata" : {
                            "AutoAppliedSmartFocus" : "False"
                          },
                          "animationTracks" : {

                          }
                        },
                        {
                          "id" : 294,
                          "_type" : "ScreenVMFile",
                          "src" : 1,
                          "trackNumber" : 0,
                          "attributes" : {
                            "ident" : "hijacking_ntfs_structs_attack_prevention"
                          },
                          "parameters" : {
                            "cursorScale" : {
                              "type" : "double",
                              "defaultValue" : 0.0,
                              "interp" : "linr"
                            },
                            "cursorOpacity" : {
                              "type" : "double",
                              "defaultValue" : 0.0,
                              "interp" : "linr"
                            }
                          },
                          "effects" : [

                          ],
                          "start" : 1650,
                          "duration" : 749,
                          "mediaStart" : 1620,
                          "mediaDuration" : 749,
                          "scalar" : 1,
                          "metadata" : {
                            "AutoAppliedSmartFocus" : "False",
                            "clipSpeedAttribute" : false,
                            "default-scale0" : 1.0,
                            "default-scale1" : 1.0,
                            "default-translation0" : 0.0,
                            "default-translation1" : 0.0
                          },
                          "animationTracks" : {

                          }
                        },
                        {
                          "id" : 295,
                          "_type" : "ScreenIMFile",
                          "src" : 1,
                          "trackNumber" : 0,
                          "trimStartSum" : 0,
                          "attributes" : {
                            "ident" : "hijacking_ntfs_structs_attack_prevention"
                          },
                          "parameters" : {
                            "cursorOpacity" : 0.0,
                            "cursorScale" : 0.0
                          },
                          "effects" : [

                          ],
                          "start" : 2399,
                          "duration" : 30,
                          "mediaStart" : 2369,
                          "mediaDuration" : 1,
                          "scalar" : 1,
                          "metadata" : {
                            "AutoAppliedSmartFocus" : "False"
                          },
                          "animationTracks" : {

                          }
                        },
                        {
                          "id" : 296,
                          "_type" : "ScreenVMFile",
                          "src" : 1,
                          "trackNumber" : 0,
                          "attributes" : {
                            "ident" : "hijacking_ntfs_structs_attack_prevention"
                          },
                          "parameters" : {
                            "cursorScale" : {
                              "type" : "double",
                              "defaultValue" : 0.0,
                              "interp" : "linr"
                            },
                            "cursorOpacity" : {
                              "type" : "double",
                              "defaultValue" : 0.0,
                              "interp" : "linr"
                            }
                          },
                          "effects" : [

                          ],
                          "start" : 2429,
                          "duration" : 67,
                          "mediaStart" : 2369,
                          "mediaDuration" : 67,
                          "scalar" : 1,
                          "metadata" : {
                            "AutoAppliedSmartFocus" : "False",
                            "clipSpeedAttribute" : false,
                            "default-scale0" : 1.0,
                            "default-scale1" : 1.0,
                            "default-translation0" : 0.0,
                            "default-translation1" : 0.0
                          },
                          "animationTracks" : {

                          }
                        },
                        {
                          "id" : 297,
                          "_type" : "ScreenIMFile",
                          "src" : 1,
                          "trackNumber" : 0,
                          "trimStartSum" : 0,
                          "attributes" : {
                            "ident" : "hijacking_ntfs_structs_attack_prevention"
                          },
                          "parameters" : {
                            "cursorOpacity" : 0.0,
                            "cursorScale" : 0.0
                          },
                          "effects" : [

                          ],
                          "start" : 2496,
                          "duration" : 60,
                          "mediaStart" : 2436,
                          "mediaDuration" : 1,
                          "scalar" : 1,
                          "metadata" : {
                            "AutoAppliedSmartFocus" : "False"
                          },
                          "animationTracks" : {

                          }
                        },
                        {
                          "id" : 298,
                          "_type" : "ScreenVMFile",
                          "src" : 1,
                          "trackNumber" : 0,
                          "attributes" : {
                            "ident" : "hijacking_ntfs_structs_attack_prevention"
                          },
                          "parameters" : {
                            "cursorScale" : {
                              "type" : "double",
                              "defaultValue" : 0.0,
                              "interp" : "linr"
                            },
                            "cursorOpacity" : {
                              "type" : "double",
                              "defaultValue" : 0.0,
                              "interp" : "linr"
                            }
                          },
                          "effects" : [

                          ],
                          "start" : 2556,
                          "duration" : 4597,
                          "mediaStart" : 2436,
                          "mediaDuration" : 4597,
                          "scalar" : 1,
                          "metadata" : {
                            "AutoAppliedSmartFocus" : "False",
                            "clipSpeedAttribute" : false,
                            "default-scale0" : 1.0,
                            "default-scale1" : 1.0,
                            "default-translation0" : 0.0,
                            "default-translation1" : 0.0
                          },
                          "animationTracks" : {

                          }
                        }
                    ],
                    "effects" : [
                        {
                          "effectName" : "CursorHilight",
                          "category" : "categoryCursorEffects",
                          "parameters" : {
                            "blur" : 0.1,
                            "color-alpha" : 0.75,
                            "color-blue" : 0.0,
                            "color-green" : 1.0,
                            "color-red" : 1.0,
                            "radius" : 50.0
                          }
                        }
                    ],
                    "start" : 2786,
                    "duration" : 31,
                    "mediaStart" : 5574,
                    "mediaDuration" : 83,
                    "scalar" : "31/83",
                    "metadata" : {
                      "AutoAppliedSmartFocus" : "False",
                      "clipSpeedAttribute" : true,
                      "default-scale0" : 0.999999767628522,
                      "default-scale1" : 1.0,
                      "default-translation0" : 5.6843418860808e-14,
                      "default-translation1" : -4.9737991503207e-14
                    },
                    "animationTracks" : {
                      "visual" : [
                        {
                          "endTime" : 1177,
                          "duration" : 30,
                          "range" : [ 1147, 30]
                        },
                        {
                          "endTime" : 1449,
                          "duration" : 30,
                          "range" : [ 1419, 30]
                        },
                        {
                          "endTime" : 2474,
                          "duration" : 30,
                          "range" : [ 2444, 30]
                        },
                        {
                          "endTime" : 3259,
                          "duration" : 30,
                          "range" : [ 3229, 30]
                        },
                        {
                          "endTime" : 3491,
                          "duration" : 30,
                          "range" : [ 3461, 30]
                        },
                        {
                          "endTime" : 3865,
                          "duration" : 30,
                          "range" : [ 3835, 30]
                        },
                        {
                          "endTime" : 3913,
                          "duration" : 30,
                          "range" : [ 3883, 30]
                        },
                        {
                          "endTime" : 4027,
                          "duration" : 30,
                          "range" : [ 3997, 30]
                        },
                        {
                          "endTime" : 4074,
                          "duration" : 30,
                          "range" : [ 4044, 30]
                        },
                        {
                          "endTime" : 5505,
                          "duration" : 30,
                          "range" : [ 5475, 30]
                        },
                        {
                          "endTime" : 5539,
                          "duration" : 30,
                          "range" : [ 5509, 30]
                        }
                      ]
                    }
                  },
                  {
                    "id" : 299,
                    "_type" : "StitchedMedia",
                    "minMediaStart" : 0,
                    "attributes" : {
                      "ident" : "hijacking_ntfs_structs_attack_prevention",
                      "gain" : 1.0,
                      "mixToMono" : false
                    },
                    "parameters" : {
                      "translation0" : {
                        "type" : "double",
                        "defaultValue" : 0.0,
                        "keyframes" : [
                          {
                            "endTime" : 1177,
                            "time" : 1147,
                            "value" : 948.478453192254,
                            "duration" : 30
                          },
                          {
                            "endTime" : 1449,
                            "time" : 1419,
                            "value" : 948.478364944437,
                            "duration" : 30
                          },
                          {
                            "endTime" : 2474,
                            "time" : 2444,
                            "value" : 5.6843418860808e-14,
                            "duration" : 30
                          },
                          {
                            "endTime" : 3259,
                            "time" : 3229,
                            "value" : -774.930172418836,
                            "duration" : 30
                          },
                          {
                            "endTime" : 3491,
                            "time" : 3461,
                            "value" : -774.930252849251,
                            "duration" : 30
                          },
                          {
                            "endTime" : 3865,
                            "time" : 3835,
                            "value" : 5.6843418860808e-14,
                            "duration" : 30
                          },
                          {
                            "endTime" : 3913,
                            "time" : 3883,
                            "value" : 1596.09769057838,
                            "duration" : 30
                          },
                          {
                            "endTime" : 4027,
                            "time" : 3997,
                            "value" : 2.27373675443232e-13,
                            "duration" : 30
                          },
                          {
                            "endTime" : 4074,
                            "time" : 4044,
                            "value" : -774.9,
                            "duration" : 30
                          },
                          {
                            "endTime" : 5505,
                            "time" : 5475,
                            "value" : -1.13686837721616e-13,
                            "duration" : 30
                          },
                          {
                            "endTime" : 5539,
                            "time" : 5509,
                            "value" : 1008.54947665046,
                            "duration" : 30
                          }
                        ]
                      },
                      "translation1" : {
                        "type" : "double",
                        "defaultValue" : 0.0,
                        "keyframes" : [
                          {
                            "endTime" : 1177,
                            "time" : 1147,
                            "value" : -426.526455592595,
                            "duration" : 30
                          },
                          {
                            "endTime" : 1449,
                            "time" : 1419,
                            "value" : -100.3,
                            "duration" : 30
                          },
                          {
                            "endTime" : 2474,
                            "time" : 2444,
                            "value" : -4.9737991503207e-14,
                            "duration" : 30
                          },
                          {
                            "endTime" : 3259,
                            "time" : 3229,
                            "value" : -101.709492105514,
                            "duration" : 30
                          },
                          {
                            "endTime" : 3491,
                            "time" : 3461,
                            "value" : 427.4,
                            "duration" : 30
                          },
                          {
                            "endTime" : 3865,
                            "time" : 3835,
                            "value" : -5.6843418860808e-14,
                            "duration" : 30
                          },
                          {
                            "endTime" : 3913,
                            "time" : 3883,
                            "value" : -743.478440251836,
                            "duration" : 30
                          },
                          {
                            "endTime" : 4027,
                            "time" : 3997,
                            "value" : 1.13686837721616e-13,
                            "duration" : 30
                          },
                          {
                            "endTime" : 4074,
                            "time" : 4044,
                            "value" : 427.4,
                            "duration" : 30
                          },
                          {
                            "endTime" : 5505,
                            "time" : 5475,
                            "value" : -5.6843418860808e-14,
                            "duration" : 30
                          },
                          {
                            "endTime" : 5539,
                            "time" : 5509,
                            "value" : -303.704938962414,
                            "duration" : 30
                          }
                        ]
                      },
                      "scale0" : {
                        "type" : "double",
                        "defaultValue" : 1.0,
                        "keyframes" : [
                          {
                            "endTime" : 1177,
                            "time" : 1147,
                            "value" : 1.98900262241215,
                            "duration" : 30
                          },
                          {
                            "endTime" : 2474,
                            "time" : 2444,
                            "value" : 0.999999767628522,
                            "duration" : 30
                          },
                          {
                            "endTime" : 3259,
                            "time" : 3229,
                            "value" : 2.22091728725881,
                            "duration" : 30
                          },
                          {
                            "endTime" : 3491,
                            "time" : 3461,
                            "value" : 2.22091757221115,
                            "duration" : 30
                          },
                          {
                            "endTime" : 3865,
                            "time" : 3835,
                            "value" : 0.999999908672186,
                            "duration" : 30
                          },
                          {
                            "endTime" : 3913,
                            "time" : 3883,
                            "value" : 2.30317149661612,
                            "duration" : 30
                          },
                          {
                            "endTime" : 4027,
                            "time" : 3997,
                            "value" : 0.999999941772713,
                            "duration" : 30
                          },
                          {
                            "endTime" : 4074,
                            "time" : 4044,
                            "value" : 2.22099983278936,
                            "duration" : 30
                          },
                          {
                            "endTime" : 5505,
                            "time" : 5475,
                            "value" : 0.999999924713804,
                            "duration" : 30
                          },
                          {
                            "endTime" : 5539,
                            "time" : 5509,
                            "value" : 1.79597357660838,
                            "duration" : 30
                          }
                        ]
                      },
                      "scale1" : {
                        "type" : "double",
                        "defaultValue" : 1.0,
                        "keyframes" : [
                          {
                            "endTime" : 1177,
                            "time" : 1147,
                            "value" : 1.98900308459974,
                            "duration" : 30
                          },
                          {
                            "endTime" : 2474,
                            "time" : 2444,
                            "value" : 1.0,
                            "duration" : 30
                          },
                          {
                            "endTime" : 3259,
                            "time" : 3229,
                            "value" : 2.22091777504271,
                            "duration" : 30
                          },
                          {
                            "endTime" : 3865,
                            "time" : 3835,
                            "value" : 1.0,
                            "duration" : 30
                          },
                          {
                            "endTime" : 3913,
                            "time" : 3883,
                            "value" : 2.30317163072356,
                            "duration" : 30
                          },
                          {
                            "endTime" : 4027,
                            "time" : 3997,
                            "value" : 1.0,
                            "duration" : 30
                          },
                          {
                            "endTime" : 4074,
                            "time" : 4044,
                            "value" : 2.221,
                            "duration" : 30
                          },
                          {
                            "endTime" : 5505,
                            "time" : 5475,
                            "value" : 1.0,
                            "duration" : 30
                          },
                          {
                            "endTime" : 5539,
                            "time" : 5509,
                            "value" : 1.79597406752138,
                            "duration" : 30
                          }
                        ]
                      },
                      "cursorOpacity" : 1.0,
                      "cursorScale" : 1.0
                    },
                    "medias" : [
                        {
                          "id" : 300,
                          "_type" : "ScreenVMFile",
                          "src" : 1,
                          "trackNumber" : 0,
                          "attributes" : {
                            "ident" : "hijacking_ntfs_structs_attack_prevention"
                          },
                          "parameters" : {
                            "cursorScale" : {
                              "type" : "double",
                              "defaultValue" : 0.0,
                              "interp" : "linr"
                            },
                            "cursorOpacity" : {
                              "type" : "double",
                              "defaultValue" : 0.0,
                              "interp" : "linr"
                            }
                          },
                          "effects" : [

                          ],
                          "start" : 0,
                          "duration" : 1620,
                          "mediaStart" : 0,
                          "mediaDuration" : 1620,
                          "scalar" : 1,
                          "metadata" : {
                            "AutoAppliedSmartFocus" : "False",
                            "clipSpeedAttribute" : false,
                            "default-scale0" : 1.0,
                            "default-scale1" : 1.0,
                            "default-translation0" : 0.0,
                            "default-translation1" : 0.0
                          },
                          "animationTracks" : {

                          }
                        },
                        {
                          "id" : 301,
                          "_type" : "ScreenIMFile",
                          "src" : 1,
                          "trackNumber" : 0,
                          "trimStartSum" : 0,
                          "attributes" : {
                            "ident" : "hijacking_ntfs_structs_attack_prevention"
                          },
                          "parameters" : {
                            "cursorOpacity" : 0.0,
                            "cursorScale" : 0.0
                          },
                          "effects" : [

                          ],
                          "start" : 1620,
                          "duration" : 30,
                          "mediaStart" : 1619,
                          "mediaDuration" : 1,
                          "scalar" : 1,
                          "metadata" : {
                            "AutoAppliedSmartFocus" : "False"
                          },
                          "animationTracks" : {

                          }
                        },
                        {
                          "id" : 302,
                          "_type" : "ScreenVMFile",
                          "src" : 1,
                          "trackNumber" : 0,
                          "attributes" : {
                            "ident" : "hijacking_ntfs_structs_attack_prevention"
                          },
                          "parameters" : {
                            "cursorScale" : {
                              "type" : "double",
                              "defaultValue" : 0.0,
                              "interp" : "linr"
                            },
                            "cursorOpacity" : {
                              "type" : "double",
                              "defaultValue" : 0.0,
                              "interp" : "linr"
                            }
                          },
                          "effects" : [

                          ],
                          "start" : 1650,
                          "duration" : 749,
                          "mediaStart" : 1620,
                          "mediaDuration" : 749,
                          "scalar" : 1,
                          "metadata" : {
                            "AutoAppliedSmartFocus" : "False",
                            "clipSpeedAttribute" : false,
                            "default-scale0" : 1.0,
                            "default-scale1" : 1.0,
                            "default-translation0" : 0.0,
                            "default-translation1" : 0.0
                          },
                          "animationTracks" : {

                          }
                        },
                        {
                          "id" : 303,
                          "_type" : "ScreenIMFile",
                          "src" : 1,
                          "trackNumber" : 0,
                          "trimStartSum" : 0,
                          "attributes" : {
                            "ident" : "hijacking_ntfs_structs_attack_prevention"
                          },
                          "parameters" : {
                            "cursorOpacity" : 0.0,
                            "cursorScale" : 0.0
                          },
                          "effects" : [

                          ],
                          "start" : 2399,
                          "duration" : 30,
                          "mediaStart" : 2369,
                          "mediaDuration" : 1,
                          "scalar" : 1,
                          "metadata" : {
                            "AutoAppliedSmartFocus" : "False"
                          },
                          "animationTracks" : {

                          }
                        },
                        {
                          "id" : 304,
                          "_type" : "ScreenVMFile",
                          "src" : 1,
                          "trackNumber" : 0,
                          "attributes" : {
                            "ident" : "hijacking_ntfs_structs_attack_prevention"
                          },
                          "parameters" : {
                            "cursorScale" : {
                              "type" : "double",
                              "defaultValue" : 0.0,
                              "interp" : "linr"
                            },
                            "cursorOpacity" : {
                              "type" : "double",
                              "defaultValue" : 0.0,
                              "interp" : "linr"
                            }
                          },
                          "effects" : [

                          ],
                          "start" : 2429,
                          "duration" : 67,
                          "mediaStart" : 2369,
                          "mediaDuration" : 67,
                          "scalar" : 1,
                          "metadata" : {
                            "AutoAppliedSmartFocus" : "False",
                            "clipSpeedAttribute" : false,
                            "default-scale0" : 1.0,
                            "default-scale1" : 1.0,
                            "default-translation0" : 0.0,
                            "default-translation1" : 0.0
                          },
                          "animationTracks" : {

                          }
                        },
                        {
                          "id" : 305,
                          "_type" : "ScreenIMFile",
                          "src" : 1,
                          "trackNumber" : 0,
                          "trimStartSum" : 0,
                          "attributes" : {
                            "ident" : "hijacking_ntfs_structs_attack_prevention"
                          },
                          "parameters" : {
                            "cursorOpacity" : 0.0,
                            "cursorScale" : 0.0
                          },
                          "effects" : [

                          ],
                          "start" : 2496,
                          "duration" : 60,
                          "mediaStart" : 2436,
                          "mediaDuration" : 1,
                          "scalar" : 1,
                          "metadata" : {
                            "AutoAppliedSmartFocus" : "False"
                          },
                          "animationTracks" : {

                          }
                        },
                        {
                          "id" : 306,
                          "_type" : "ScreenVMFile",
                          "src" : 1,
                          "trackNumber" : 0,
                          "attributes" : {
                            "ident" : "hijacking_ntfs_structs_attack_prevention"
                          },
                          "parameters" : {
                            "cursorScale" : {
                              "type" : "double",
                              "defaultValue" : 0.0,
                              "interp" : "linr"
                            },
                            "cursorOpacity" : {
                              "type" : "double",
                              "defaultValue" : 0.0,
                              "interp" : "linr"
                            }
                          },
                          "effects" : [

                          ],
                          "start" : 2556,
                          "duration" : 3180,
                          "mediaStart" : 2436,
                          "mediaDuration" : 3180,
                          "scalar" : 1,
                          "metadata" : {
                            "AutoAppliedSmartFocus" : "False",
                            "clipSpeedAttribute" : false,
                            "default-scale0" : 1.0,
                            "default-scale1" : 1.0,
                            "default-translation0" : 0.0,
                            "default-translation1" : 0.0
                          },
                          "animationTracks" : {

                          }
                        },
                        {
                          "id" : 307,
                          "_type" : "ScreenIMFile",
                          "src" : 1,
                          "trackNumber" : 0,
                          "trimStartSum" : 0,
                          "attributes" : {
                            "ident" : "hijacking_ntfs_structs_attack_prevention"
                          },
                          "parameters" : {
                            "cursorOpacity" : 0.0,
                            "cursorScale" : 0.0
                          },
                          "effects" : [

                          ],
                          "start" : 5736,
                          "duration" : 177,
                          "mediaStart" : 5616,
                          "mediaDuration" : 1,
                          "scalar" : 1,
                          "metadata" : {
                            "AutoAppliedSmartFocus" : "False"
                          },
                          "animationTracks" : {

                          }
                        },
                        {
                          "id" : 308,
                          "_type" : "ScreenVMFile",
                          "src" : 1,
                          "trackNumber" : 0,
                          "attributes" : {
                            "ident" : "hijacking_ntfs_structs_attack_prevention"
                          },
                          "parameters" : {
                            "cursorScale" : {
                              "type" : "double",
                              "defaultValue" : 0.0,
                              "interp" : "linr"
                            },
                            "cursorOpacity" : {
                              "type" : "double",
                              "defaultValue" : 0.0,
                              "interp" : "linr"
                            }
                          },
                          "effects" : [

                          ],
                          "start" : 5913,
                          "duration" : 1417,
                          "mediaStart" : 5616,
                          "mediaDuration" : 1417,
                          "scalar" : 1,
                          "metadata" : {
                            "AutoAppliedSmartFocus" : "False",
                            "clipSpeedAttribute" : false,
                            "default-scale0" : 1.0,
                            "default-scale1" : 1.0,
                            "default-translation0" : 0.0,
                            "default-translation1" : 0.0
                          },
                          "animationTracks" : {

                          }
                        }
                    ],
                    "effects" : [
                        {
                          "effectName" : "CursorHilight",
                          "category" : "categoryCursorEffects",
                          "parameters" : {
                            "blur" : 0.1,
                            "color-alpha" : 0.75,
                            "color-blue" : 0.0,
                            "color-green" : 1.0,
                            "color-red" : 1.0,
                            "radius" : 50.0
                          }
                        }
                    ],
                    "start" : 2817,
                    "duration" : 258,
                    "mediaStart" : 5657,
                    "mediaDuration" : 258,
                    "scalar" : 1,
                    "metadata" : {
                      "AutoAppliedSmartFocus" : "False",
                      "clipSpeedAttribute" : false,
                      "default-translation0" : 1008.54947665046,
                      "default-translation1" : -303.704938962414
                    },
                    "animationTracks" : {
                      "visual" : [
                        {
                          "endTime" : 1177,
                          "duration" : 30,
                          "range" : [ 1147, 30]
                        },
                        {
                          "endTime" : 1449,
                          "duration" : 30,
                          "range" : [ 1419, 30]
                        },
                        {
                          "endTime" : 2474,
                          "duration" : 30,
                          "range" : [ 2444, 30]
                        },
                        {
                          "endTime" : 3259,
                          "duration" : 30,
                          "range" : [ 3229, 30]
                        },
                        {
                          "endTime" : 3491,
                          "duration" : 30,
                          "range" : [ 3461, 30]
                        },
                        {
                          "endTime" : 3865,
                          "duration" : 30,
                          "range" : [ 3835, 30]
                        },
                        {
                          "endTime" : 3913,
                          "duration" : 30,
                          "range" : [ 3883, 30]
                        },
                        {
                          "endTime" : 4027,
                          "duration" : 30,
                          "range" : [ 3997, 30]
                        },
                        {
                          "endTime" : 4074,
                          "duration" : 30,
                          "range" : [ 4044, 30]
                        },
                        {
                          "endTime" : 5505,
                          "duration" : 30,
                          "range" : [ 5475, 30]
                        },
                        {
                          "endTime" : 5539,
                          "duration" : 30,
                          "range" : [ 5509, 30]
                        }
                      ]
                    }
                  },
                  {
                    "id" : 309,
                    "_type" : "StitchedMedia",
                    "minMediaStart" : 0,
                    "attributes" : {
                      "ident" : "hijacking_ntfs_structs_attack_prevention",
                      "gain" : 1.0,
                      "mixToMono" : false
                    },
                    "parameters" : {
                      "translation0" : {
                        "type" : "double",
                        "defaultValue" : 0.0,
                        "keyframes" : [
                          {
                            "endTime" : 1177,
                            "time" : 1147,
                            "value" : 948.478453192254,
                            "duration" : 30
                          },
                          {
                            "endTime" : 1449,
                            "time" : 1419,
                            "value" : 948.478364944437,
                            "duration" : 30
                          },
                          {
                            "endTime" : 2474,
                            "time" : 2444,
                            "value" : 5.6843418860808e-14,
                            "duration" : 30
                          },
                          {
                            "endTime" : 3259,
                            "time" : 3229,
                            "value" : -774.930172418836,
                            "duration" : 30
                          },
                          {
                            "endTime" : 3491,
                            "time" : 3461,
                            "value" : -774.930252849251,
                            "duration" : 30
                          },
                          {
                            "endTime" : 3865,
                            "time" : 3835,
                            "value" : 5.6843418860808e-14,
                            "duration" : 30
                          },
                          {
                            "endTime" : 3913,
                            "time" : 3883,
                            "value" : 1596.09769057838,
                            "duration" : 30
                          },
                          {
                            "endTime" : 4027,
                            "time" : 3997,
                            "value" : 2.27373675443232e-13,
                            "duration" : 30
                          },
                          {
                            "endTime" : 4074,
                            "time" : 4044,
                            "value" : -774.9,
                            "duration" : 30
                          },
                          {
                            "endTime" : 5505,
                            "time" : 5475,
                            "value" : -1.13686837721616e-13,
                            "duration" : 30
                          },
                          {
                            "endTime" : 5539,
                            "time" : 5509,
                            "value" : 1008.54947665046,
                            "duration" : 30
                          }
                        ]
                      },
                      "translation1" : {
                        "type" : "double",
                        "defaultValue" : 0.0,
                        "keyframes" : [
                          {
                            "endTime" : 1177,
                            "time" : 1147,
                            "value" : -426.526455592595,
                            "duration" : 30
                          },
                          {
                            "endTime" : 1449,
                            "time" : 1419,
                            "value" : -100.3,
                            "duration" : 30
                          },
                          {
                            "endTime" : 2474,
                            "time" : 2444,
                            "value" : -4.9737991503207e-14,
                            "duration" : 30
                          },
                          {
                            "endTime" : 3259,
                            "time" : 3229,
                            "value" : -101.709492105514,
                            "duration" : 30
                          },
                          {
                            "endTime" : 3491,
                            "time" : 3461,
                            "value" : 427.4,
                            "duration" : 30
                          },
                          {
                            "endTime" : 3865,
                            "time" : 3835,
                            "value" : -5.6843418860808e-14,
                            "duration" : 30
                          },
                          {
                            "endTime" : 3913,
                            "time" : 3883,
                            "value" : -743.478440251836,
                            "duration" : 30
                          },
                          {
                            "endTime" : 4027,
                            "time" : 3997,
                            "value" : 1.13686837721616e-13,
                            "duration" : 30
                          },
                          {
                            "endTime" : 4074,
                            "time" : 4044,
                            "value" : 427.4,
                            "duration" : 30
                          },
                          {
                            "endTime" : 5505,
                            "time" : 5475,
                            "value" : -5.6843418860808e-14,
                            "duration" : 30
                          },
                          {
                            "endTime" : 5539,
                            "time" : 5509,
                            "value" : -303.704938962414,
                            "duration" : 30
                          }
                        ]
                      },
                      "scale0" : {
                        "type" : "double",
                        "defaultValue" : 1.0,
                        "keyframes" : [
                          {
                            "endTime" : 1177,
                            "time" : 1147,
                            "value" : 1.98900262241215,
                            "duration" : 30
                          },
                          {
                            "endTime" : 2474,
                            "time" : 2444,
                            "value" : 0.999999767628522,
                            "duration" : 30
                          },
                          {
                            "endTime" : 3259,
                            "time" : 3229,
                            "value" : 2.22091728725881,
                            "duration" : 30
                          },
                          {
                            "endTime" : 3491,
                            "time" : 3461,
                            "value" : 2.22091757221115,
                            "duration" : 30
                          },
                          {
                            "endTime" : 3865,
                            "time" : 3835,
                            "value" : 0.999999908672186,
                            "duration" : 30
                          },
                          {
                            "endTime" : 3913,
                            "time" : 3883,
                            "value" : 2.30317149661612,
                            "duration" : 30
                          },
                          {
                            "endTime" : 4027,
                            "time" : 3997,
                            "value" : 0.999999941772713,
                            "duration" : 30
                          },
                          {
                            "endTime" : 4074,
                            "time" : 4044,
                            "value" : 2.22099983278936,
                            "duration" : 30
                          },
                          {
                            "endTime" : 5505,
                            "time" : 5475,
                            "value" : 0.999999924713804,
                            "duration" : 30
                          },
                          {
                            "endTime" : 5539,
                            "time" : 5509,
                            "value" : 1.79597357660838,
                            "duration" : 30
                          }
                        ]
                      },
                      "scale1" : {
                        "type" : "double",
                        "defaultValue" : 1.0,
                        "keyframes" : [
                          {
                            "endTime" : 1177,
                            "time" : 1147,
                            "value" : 1.98900308459974,
                            "duration" : 30
                          },
                          {
                            "endTime" : 2474,
                            "time" : 2444,
                            "value" : 1.0,
                            "duration" : 30
                          },
                          {
                            "endTime" : 3259,
                            "time" : 3229,
                            "value" : 2.22091777504271,
                            "duration" : 30
                          },
                          {
                            "endTime" : 3865,
                            "time" : 3835,
                            "value" : 1.0,
                            "duration" : 30
                          },
                          {
                            "endTime" : 3913,
                            "time" : 3883,
                            "value" : 2.30317163072356,
                            "duration" : 30
                          },
                          {
                            "endTime" : 4027,
                            "time" : 3997,
                            "value" : 1.0,
                            "duration" : 30
                          },
                          {
                            "endTime" : 4074,
                            "time" : 4044,
                            "value" : 2.221,
                            "duration" : 30
                          },
                          {
                            "endTime" : 5505,
                            "time" : 5475,
                            "value" : 1.0,
                            "duration" : 30
                          },
                          {
                            "endTime" : 5539,
                            "time" : 5509,
                            "value" : 1.79597406752138,
                            "duration" : 30
                          }
                        ]
                      },
                      "cursorOpacity" : 1.0,
                      "cursorScale" : 1.0
                    },
                    "medias" : [
                        {
                          "id" : 310,
                          "_type" : "ScreenVMFile",
                          "src" : 1,
                          "trackNumber" : 0,
                          "attributes" : {
                            "ident" : "hijacking_ntfs_structs_attack_prevention"
                          },
                          "parameters" : {
                            "cursorScale" : {
                              "type" : "double",
                              "defaultValue" : 0.0,
                              "interp" : "linr"
                            },
                            "cursorOpacity" : {
                              "type" : "double",
                              "defaultValue" : 0.0,
                              "interp" : "linr"
                            }
                          },
                          "effects" : [

                          ],
                          "start" : 0,
                          "duration" : 1620,
                          "mediaStart" : 0,
                          "mediaDuration" : 1620,
                          "scalar" : 1,
                          "metadata" : {
                            "AutoAppliedSmartFocus" : "False",
                            "clipSpeedAttribute" : false,
                            "default-scale0" : 1.0,
                            "default-scale1" : 1.0,
                            "default-translation0" : 0.0,
                            "default-translation1" : 0.0
                          },
                          "animationTracks" : {

                          }
                        },
                        {
                          "id" : 311,
                          "_type" : "ScreenIMFile",
                          "src" : 1,
                          "trackNumber" : 0,
                          "trimStartSum" : 0,
                          "attributes" : {
                            "ident" : "hijacking_ntfs_structs_attack_prevention"
                          },
                          "parameters" : {
                            "cursorOpacity" : 0.0,
                            "cursorScale" : 0.0
                          },
                          "effects" : [

                          ],
                          "start" : 1620,
                          "duration" : 30,
                          "mediaStart" : 1619,
                          "mediaDuration" : 1,
                          "scalar" : 1,
                          "metadata" : {
                            "AutoAppliedSmartFocus" : "False"
                          },
                          "animationTracks" : {

                          }
                        },
                        {
                          "id" : 312,
                          "_type" : "ScreenVMFile",
                          "src" : 1,
                          "trackNumber" : 0,
                          "attributes" : {
                            "ident" : "hijacking_ntfs_structs_attack_prevention"
                          },
                          "parameters" : {
                            "cursorScale" : {
                              "type" : "double",
                              "defaultValue" : 0.0,
                              "interp" : "linr"
                            },
                            "cursorOpacity" : {
                              "type" : "double",
                              "defaultValue" : 0.0,
                              "interp" : "linr"
                            }
                          },
                          "effects" : [

                          ],
                          "start" : 1650,
                          "duration" : 749,
                          "mediaStart" : 1620,
                          "mediaDuration" : 749,
                          "scalar" : 1,
                          "metadata" : {
                            "AutoAppliedSmartFocus" : "False",
                            "clipSpeedAttribute" : false,
                            "default-scale0" : 1.0,
                            "default-scale1" : 1.0,
                            "default-translation0" : 0.0,
                            "default-translation1" : 0.0
                          },
                          "animationTracks" : {

                          }
                        },
                        {
                          "id" : 313,
                          "_type" : "ScreenIMFile",
                          "src" : 1,
                          "trackNumber" : 0,
                          "trimStartSum" : 0,
                          "attributes" : {
                            "ident" : "hijacking_ntfs_structs_attack_prevention"
                          },
                          "parameters" : {
                            "cursorOpacity" : 0.0,
                            "cursorScale" : 0.0
                          },
                          "effects" : [

                          ],
                          "start" : 2399,
                          "duration" : 30,
                          "mediaStart" : 2369,
                          "mediaDuration" : 1,
                          "scalar" : 1,
                          "metadata" : {
                            "AutoAppliedSmartFocus" : "False"
                          },
                          "animationTracks" : {

                          }
                        },
                        {
                          "id" : 314,
                          "_type" : "ScreenVMFile",
                          "src" : 1,
                          "trackNumber" : 0,
                          "attributes" : {
                            "ident" : "hijacking_ntfs_structs_attack_prevention"
                          },
                          "parameters" : {
                            "cursorScale" : {
                              "type" : "double",
                              "defaultValue" : 0.0,
                              "interp" : "linr"
                            },
                            "cursorOpacity" : {
                              "type" : "double",
                              "defaultValue" : 0.0,
                              "interp" : "linr"
                            }
                          },
                          "effects" : [

                          ],
                          "start" : 2429,
                          "duration" : 67,
                          "mediaStart" : 2369,
                          "mediaDuration" : 67,
                          "scalar" : 1,
                          "metadata" : {
                            "AutoAppliedSmartFocus" : "False",
                            "clipSpeedAttribute" : false,
                            "default-scale0" : 1.0,
                            "default-scale1" : 1.0,
                            "default-translation0" : 0.0,
                            "default-translation1" : 0.0
                          },
                          "animationTracks" : {

                          }
                        },
                        {
                          "id" : 315,
                          "_type" : "ScreenIMFile",
                          "src" : 1,
                          "trackNumber" : 0,
                          "trimStartSum" : 0,
                          "attributes" : {
                            "ident" : "hijacking_ntfs_structs_attack_prevention"
                          },
                          "parameters" : {
                            "cursorOpacity" : 0.0,
                            "cursorScale" : 0.0
                          },
                          "effects" : [

                          ],
                          "start" : 2496,
                          "duration" : 60,
                          "mediaStart" : 2436,
                          "mediaDuration" : 1,
                          "scalar" : 1,
                          "metadata" : {
                            "AutoAppliedSmartFocus" : "False"
                          },
                          "animationTracks" : {

                          }
                        },
                        {
                          "id" : 316,
                          "_type" : "ScreenVMFile",
                          "src" : 1,
                          "trackNumber" : 0,
                          "attributes" : {
                            "ident" : "hijacking_ntfs_structs_attack_prevention"
                          },
                          "parameters" : {
                            "cursorScale" : {
                              "type" : "double",
                              "defaultValue" : 0.0,
                              "interp" : "linr"
                            },
                            "cursorOpacity" : {
                              "type" : "double",
                              "defaultValue" : 0.0,
                              "interp" : "linr"
                            }
                          },
                          "effects" : [

                          ],
                          "start" : 2556,
                          "duration" : 3180,
                          "mediaStart" : 2436,
                          "mediaDuration" : 3180,
                          "scalar" : 1,
                          "metadata" : {
                            "AutoAppliedSmartFocus" : "False",
                            "clipSpeedAttribute" : false,
                            "default-scale0" : 1.0,
                            "default-scale1" : 1.0,
                            "default-translation0" : 0.0,
                            "default-translation1" : 0.0
                          },
                          "animationTracks" : {

                          }
                        },
                        {
                          "id" : 317,
                          "_type" : "ScreenIMFile",
                          "src" : 1,
                          "trackNumber" : 0,
                          "trimStartSum" : 0,
                          "attributes" : {
                            "ident" : "hijacking_ntfs_structs_attack_prevention"
                          },
                          "parameters" : {
                            "cursorOpacity" : 0.0,
                            "cursorScale" : 0.0
                          },
                          "effects" : [

                          ],
                          "start" : 5736,
                          "duration" : 45,
                          "mediaStart" : 5616,
                          "mediaDuration" : 1,
                          "scalar" : 1,
                          "metadata" : {
                            "AutoAppliedSmartFocus" : "False"
                          },
                          "animationTracks" : {

                          }
                        },
                        {
                          "id" : 318,
                          "_type" : "ScreenVMFile",
                          "src" : 1,
                          "trackNumber" : 0,
                          "attributes" : {
                            "ident" : "hijacking_ntfs_structs_attack_prevention"
                          },
                          "parameters" : {
                            "cursorScale" : {
                              "type" : "double",
                              "defaultValue" : 0.0,
                              "interp" : "linr"
                            },
                            "cursorOpacity" : {
                              "type" : "double",
                              "defaultValue" : 0.0,
                              "interp" : "linr"
                            }
                          },
                          "effects" : [

                          ],
                          "start" : 5781,
                          "duration" : 1417,
                          "mediaStart" : 5616,
                          "mediaDuration" : 1417,
                          "scalar" : 1,
                          "metadata" : {
                            "AutoAppliedSmartFocus" : "False",
                            "clipSpeedAttribute" : false,
                            "default-scale0" : 1.0,
                            "default-scale1" : 1.0,
                            "default-translation0" : 0.0,
                            "default-translation1" : 0.0
                          },
                          "animationTracks" : {

                          }
                        }
                    ],
                    "effects" : [
                        {
                          "effectName" : "CursorHilight",
                          "category" : "categoryCursorEffects",
                          "parameters" : {
                            "blur" : 0.1,
                            "color-alpha" : 0.75,
                            "color-blue" : 0.0,
                            "color-green" : 1.0,
                            "color-red" : 1.0,
                            "radius" : 50.0
                          }
                        }
                    ],
                    "start" : 3075,
                    "duration" : 53,
                    "mediaStart" : 5783,
                    "mediaDuration" : 132,
                    "scalar" : "53/132",
                    "metadata" : {
                      "AutoAppliedSmartFocus" : "False",
                      "clipSpeedAttribute" : true
                    },
                    "animationTracks" : {
                      "visual" : [
                        {
                          "endTime" : 1177,
                          "duration" : 30,
                          "range" : [ 1147, 30]
                        },
                        {
                          "endTime" : 1449,
                          "duration" : 30,
                          "range" : [ 1419, 30]
                        },
                        {
                          "endTime" : 2474,
                          "duration" : 30,
                          "range" : [ 2444, 30]
                        },
                        {
                          "endTime" : 3259,
                          "duration" : 30,
                          "range" : [ 3229, 30]
                        },
                        {
                          "endTime" : 3491,
                          "duration" : 30,
                          "range" : [ 3461, 30]
                        },
                        {
                          "endTime" : 3865,
                          "duration" : 30,
                          "range" : [ 3835, 30]
                        },
                        {
                          "endTime" : 3913,
                          "duration" : 30,
                          "range" : [ 3883, 30]
                        },
                        {
                          "endTime" : 4027,
                          "duration" : 30,
                          "range" : [ 3997, 30]
                        },
                        {
                          "endTime" : 4074,
                          "duration" : 30,
                          "range" : [ 4044, 30]
                        },
                        {
                          "endTime" : 5505,
                          "duration" : 30,
                          "range" : [ 5475, 30]
                        },
                        {
                          "endTime" : 5539,
                          "duration" : 30,
                          "range" : [ 5509, 30]
                        }
                      ]
                    }
                  },
                  {
                    "id" : 319,
                    "_type" : "StitchedMedia",
                    "minMediaStart" : 0,
                    "attributes" : {
                      "ident" : "hijacking_ntfs_structs_attack_prevention",
                      "gain" : 1.0,
                      "mixToMono" : false
                    },
                    "parameters" : {
                      "translation0" : {
                        "type" : "double",
                        "defaultValue" : 0.0,
                        "keyframes" : [
                          {
                            "endTime" : 1177,
                            "time" : 1147,
                            "value" : 948.478453192254,
                            "duration" : 30
                          },
                          {
                            "endTime" : 1449,
                            "time" : 1419,
                            "value" : 948.478364944437,
                            "duration" : 30
                          },
                          {
                            "endTime" : 2474,
                            "time" : 2444,
                            "value" : 5.6843418860808e-14,
                            "duration" : 30
                          },
                          {
                            "endTime" : 3259,
                            "time" : 3229,
                            "value" : -774.930172418836,
                            "duration" : 30
                          },
                          {
                            "endTime" : 3491,
                            "time" : 3461,
                            "value" : -774.930252849251,
                            "duration" : 30
                          },
                          {
                            "endTime" : 3865,
                            "time" : 3835,
                            "value" : 5.6843418860808e-14,
                            "duration" : 30
                          },
                          {
                            "endTime" : 3913,
                            "time" : 3883,
                            "value" : 1596.09769057838,
                            "duration" : 30
                          },
                          {
                            "endTime" : 4027,
                            "time" : 3997,
                            "value" : 2.27373675443232e-13,
                            "duration" : 30
                          },
                          {
                            "endTime" : 4074,
                            "time" : 4044,
                            "value" : -774.9,
                            "duration" : 30
                          },
                          {
                            "endTime" : 5505,
                            "time" : 5475,
                            "value" : -1.13686837721616e-13,
                            "duration" : 30
                          },
                          {
                            "endTime" : 5539,
                            "time" : 5509,
                            "value" : 1008.54947665046,
                            "duration" : 30
                          },
                          {
                            "endTime" : 5948,
                            "time" : 5915,
                            "value" : 1.13686837721616e-13,
                            "duration" : 33
                          },
                          {
                            "endTime" : 5986,
                            "time" : 5952,
                            "value" : -774.9,
                            "duration" : 34
                          }
                        ]
                      },
                      "translation1" : {
                        "type" : "double",
                        "defaultValue" : 0.0,
                        "keyframes" : [
                          {
                            "endTime" : 1177,
                            "time" : 1147,
                            "value" : -426.526455592595,
                            "duration" : 30
                          },
                          {
                            "endTime" : 1449,
                            "time" : 1419,
                            "value" : -100.3,
                            "duration" : 30
                          },
                          {
                            "endTime" : 2474,
                            "time" : 2444,
                            "value" : -4.9737991503207e-14,
                            "duration" : 30
                          },
                          {
                            "endTime" : 3259,
                            "time" : 3229,
                            "value" : -101.709492105514,
                            "duration" : 30
                          },
                          {
                            "endTime" : 3491,
                            "time" : 3461,
                            "value" : 427.4,
                            "duration" : 30
                          },
                          {
                            "endTime" : 3865,
                            "time" : 3835,
                            "value" : -5.6843418860808e-14,
                            "duration" : 30
                          },
                          {
                            "endTime" : 3913,
                            "time" : 3883,
                            "value" : -743.478440251836,
                            "duration" : 30
                          },
                          {
                            "endTime" : 4027,
                            "time" : 3997,
                            "value" : 1.13686837721616e-13,
                            "duration" : 30
                          },
                          {
                            "endTime" : 4074,
                            "time" : 4044,
                            "value" : 427.4,
                            "duration" : 30
                          },
                          {
                            "endTime" : 5505,
                            "time" : 5475,
                            "value" : -5.6843418860808e-14,
                            "duration" : 30
                          },
                          {
                            "endTime" : 5539,
                            "time" : 5509,
                            "value" : -303.704938962414,
                            "duration" : 30
                          },
                          {
                            "endTime" : 5948,
                            "time" : 5915,
                            "value" : 2.8421709430404e-14,
                            "duration" : 33
                          },
                          {
                            "endTime" : 5986,
                            "time" : 5952,
                            "value" : 427.4,
                            "duration" : 34
                          }
                        ]
                      },
                      "scale0" : {
                        "type" : "double",
                        "defaultValue" : 1.0,
                        "keyframes" : [
                          {
                            "endTime" : 1177,
                            "time" : 1147,
                            "value" : 1.98900262241215,
                            "duration" : 30
                          },
                          {
                            "endTime" : 2474,
                            "time" : 2444,
                            "value" : 0.999999767628522,
                            "duration" : 30
                          },
                          {
                            "endTime" : 3259,
                            "time" : 3229,
                            "value" : 2.22091728725881,
                            "duration" : 30
                          },
                          {
                            "endTime" : 3491,
                            "time" : 3461,
                            "value" : 2.22091757221115,
                            "duration" : 30
                          },
                          {
                            "endTime" : 3865,
                            "time" : 3835,
                            "value" : 0.999999908672186,
                            "duration" : 30
                          },
                          {
                            "endTime" : 3913,
                            "time" : 3883,
                            "value" : 2.30317149661612,
                            "duration" : 30
                          },
                          {
                            "endTime" : 4027,
                            "time" : 3997,
                            "value" : 0.999999941772713,
                            "duration" : 30
                          },
                          {
                            "endTime" : 4074,
                            "time" : 4044,
                            "value" : 2.22099983278936,
                            "duration" : 30
                          },
                          {
                            "endTime" : 5505,
                            "time" : 5475,
                            "value" : 0.999999924713804,
                            "duration" : 30
                          },
                          {
                            "endTime" : 5539,
                            "time" : 5509,
                            "value" : 1.79597357660838,
                            "duration" : 30
                          },
                          {
                            "endTime" : 5948,
                            "time" : 5915,
                            "value" : 0.999999726659192,
                            "duration" : 33
                          },
                          {
                            "endTime" : 5986,
                            "time" : 5952,
                            "value" : 2.22099913073333,
                            "duration" : 34
                          }
                        ]
                      },
                      "scale1" : {
                        "type" : "double",
                        "defaultValue" : 1.0,
                        "keyframes" : [
                          {
                            "endTime" : 1177,
                            "time" : 1147,
                            "value" : 1.98900308459974,
                            "duration" : 30
                          },
                          {
                            "endTime" : 2474,
                            "time" : 2444,
                            "value" : 1.0,
                            "duration" : 30
                          },
                          {
                            "endTime" : 3259,
                            "time" : 3229,
                            "value" : 2.22091777504271,
                            "duration" : 30
                          },
                          {
                            "endTime" : 3865,
                            "time" : 3835,
                            "value" : 1.0,
                            "duration" : 30
                          },
                          {
                            "endTime" : 3913,
                            "time" : 3883,
                            "value" : 2.30317163072356,
                            "duration" : 30
                          },
                          {
                            "endTime" : 4027,
                            "time" : 3997,
                            "value" : 1.0,
                            "duration" : 30
                          },
                          {
                            "endTime" : 4074,
                            "time" : 4044,
                            "value" : 2.221,
                            "duration" : 30
                          },
                          {
                            "endTime" : 5505,
                            "time" : 5475,
                            "value" : 1.0,
                            "duration" : 30
                          },
                          {
                            "endTime" : 5539,
                            "time" : 5509,
                            "value" : 1.79597406752138,
                            "duration" : 30
                          },
                          {
                            "endTime" : 5948,
                            "time" : 5915,
                            "value" : 1.0,
                            "duration" : 33
                          },
                          {
                            "endTime" : 5986,
                            "time" : 5952,
                            "value" : 2.221,
                            "duration" : 34
                          }
                        ]
                      },
                      "cursorOpacity" : 1.0,
                      "cursorScale" : 1.0
                    },
                    "medias" : [
                        {
                          "id" : 320,
                          "_type" : "ScreenVMFile",
                          "src" : 1,
                          "trackNumber" : 0,
                          "attributes" : {
                            "ident" : "hijacking_ntfs_structs_attack_prevention"
                          },
                          "parameters" : {
                            "cursorScale" : {
                              "type" : "double",
                              "defaultValue" : 0.0,
                              "interp" : "linr"
                            },
                            "cursorOpacity" : {
                              "type" : "double",
                              "defaultValue" : 0.0,
                              "interp" : "linr"
                            }
                          },
                          "effects" : [

                          ],
                          "start" : 0,
                          "duration" : 1620,
                          "mediaStart" : 0,
                          "mediaDuration" : 1620,
                          "scalar" : 1,
                          "metadata" : {
                            "AutoAppliedSmartFocus" : "False",
                            "clipSpeedAttribute" : false,
                            "default-scale0" : 1.0,
                            "default-scale1" : 1.0,
                            "default-translation0" : 0.0,
                            "default-translation1" : 0.0
                          },
                          "animationTracks" : {

                          }
                        },
                        {
                          "id" : 321,
                          "_type" : "ScreenIMFile",
                          "src" : 1,
                          "trackNumber" : 0,
                          "trimStartSum" : 0,
                          "attributes" : {
                            "ident" : "hijacking_ntfs_structs_attack_prevention"
                          },
                          "parameters" : {
                            "cursorOpacity" : 0.0,
                            "cursorScale" : 0.0
                          },
                          "effects" : [

                          ],
                          "start" : 1620,
                          "duration" : 30,
                          "mediaStart" : 1619,
                          "mediaDuration" : 1,
                          "scalar" : 1,
                          "metadata" : {
                            "AutoAppliedSmartFocus" : "False"
                          },
                          "animationTracks" : {

                          }
                        },
                        {
                          "id" : 322,
                          "_type" : "ScreenVMFile",
                          "src" : 1,
                          "trackNumber" : 0,
                          "attributes" : {
                            "ident" : "hijacking_ntfs_structs_attack_prevention"
                          },
                          "parameters" : {
                            "cursorScale" : {
                              "type" : "double",
                              "defaultValue" : 0.0,
                              "interp" : "linr"
                            },
                            "cursorOpacity" : {
                              "type" : "double",
                              "defaultValue" : 0.0,
                              "interp" : "linr"
                            }
                          },
                          "effects" : [

                          ],
                          "start" : 1650,
                          "duration" : 749,
                          "mediaStart" : 1620,
                          "mediaDuration" : 749,
                          "scalar" : 1,
                          "metadata" : {
                            "AutoAppliedSmartFocus" : "False",
                            "clipSpeedAttribute" : false,
                            "default-scale0" : 1.0,
                            "default-scale1" : 1.0,
                            "default-translation0" : 0.0,
                            "default-translation1" : 0.0
                          },
                          "animationTracks" : {

                          }
                        },
                        {
                          "id" : 323,
                          "_type" : "ScreenIMFile",
                          "src" : 1,
                          "trackNumber" : 0,
                          "trimStartSum" : 0,
                          "attributes" : {
                            "ident" : "hijacking_ntfs_structs_attack_prevention"
                          },
                          "parameters" : {
                            "cursorOpacity" : 0.0,
                            "cursorScale" : 0.0
                          },
                          "effects" : [

                          ],
                          "start" : 2399,
                          "duration" : 30,
                          "mediaStart" : 2369,
                          "mediaDuration" : 1,
                          "scalar" : 1,
                          "metadata" : {
                            "AutoAppliedSmartFocus" : "False"
                          },
                          "animationTracks" : {

                          }
                        },
                        {
                          "id" : 324,
                          "_type" : "ScreenVMFile",
                          "src" : 1,
                          "trackNumber" : 0,
                          "attributes" : {
                            "ident" : "hijacking_ntfs_structs_attack_prevention"
                          },
                          "parameters" : {
                            "cursorScale" : {
                              "type" : "double",
                              "defaultValue" : 0.0,
                              "interp" : "linr"
                            },
                            "cursorOpacity" : {
                              "type" : "double",
                              "defaultValue" : 0.0,
                              "interp" : "linr"
                            }
                          },
                          "effects" : [

                          ],
                          "start" : 2429,
                          "duration" : 67,
                          "mediaStart" : 2369,
                          "mediaDuration" : 67,
                          "scalar" : 1,
                          "metadata" : {
                            "AutoAppliedSmartFocus" : "False",
                            "clipSpeedAttribute" : false,
                            "default-scale0" : 1.0,
                            "default-scale1" : 1.0,
                            "default-translation0" : 0.0,
                            "default-translation1" : 0.0
                          },
                          "animationTracks" : {

                          }
                        },
                        {
                          "id" : 325,
                          "_type" : "ScreenIMFile",
                          "src" : 1,
                          "trackNumber" : 0,
                          "trimStartSum" : 0,
                          "attributes" : {
                            "ident" : "hijacking_ntfs_structs_attack_prevention"
                          },
                          "parameters" : {
                            "cursorOpacity" : 0.0,
                            "cursorScale" : 0.0
                          },
                          "effects" : [

                          ],
                          "start" : 2496,
                          "duration" : 60,
                          "mediaStart" : 2436,
                          "mediaDuration" : 1,
                          "scalar" : 1,
                          "metadata" : {
                            "AutoAppliedSmartFocus" : "False"
                          },
                          "animationTracks" : {

                          }
                        },
                        {
                          "id" : 326,
                          "_type" : "ScreenVMFile",
                          "src" : 1,
                          "trackNumber" : 0,
                          "attributes" : {
                            "ident" : "hijacking_ntfs_structs_attack_prevention"
                          },
                          "parameters" : {
                            "cursorScale" : {
                              "type" : "double",
                              "defaultValue" : 0.0,
                              "interp" : "linr"
                            },
                            "cursorOpacity" : {
                              "type" : "double",
                              "defaultValue" : 0.0,
                              "interp" : "linr"
                            }
                          },
                          "effects" : [

                          ],
                          "start" : 2556,
                          "duration" : 3180,
                          "mediaStart" : 2436,
                          "mediaDuration" : 3180,
                          "scalar" : 1,
                          "metadata" : {
                            "AutoAppliedSmartFocus" : "False",
                            "clipSpeedAttribute" : false,
                            "default-scale0" : 1.0,
                            "default-scale1" : 1.0,
                            "default-translation0" : 0.0,
                            "default-translation1" : 0.0
                          },
                          "animationTracks" : {

                          }
                        },
                        {
                          "id" : 327,
                          "_type" : "ScreenIMFile",
                          "src" : 1,
                          "trackNumber" : 0,
                          "trimStartSum" : 0,
                          "attributes" : {
                            "ident" : "hijacking_ntfs_structs_attack_prevention"
                          },
                          "parameters" : {
                            "cursorOpacity" : 0.0,
                            "cursorScale" : 0.0
                          },
                          "effects" : [

                          ],
                          "start" : 5736,
                          "duration" : 45,
                          "mediaStart" : 5616,
                          "mediaDuration" : 1,
                          "scalar" : 1,
                          "metadata" : {
                            "AutoAppliedSmartFocus" : "False"
                          },
                          "animationTracks" : {

                          }
                        },
                        {
                          "id" : 328,
                          "_type" : "ScreenVMFile",
                          "src" : 1,
                          "trackNumber" : 0,
                          "attributes" : {
                            "ident" : "hijacking_ntfs_structs_attack_prevention"
                          },
                          "parameters" : {
                            "cursorScale" : {
                              "type" : "double",
                              "defaultValue" : 0.0,
                              "interp" : "linr"
                            },
                            "cursorOpacity" : {
                              "type" : "double",
                              "defaultValue" : 0.0,
                              "interp" : "linr"
                            }
                          },
                          "effects" : [

                          ],
                          "start" : 5781,
                          "duration" : 1417,
                          "mediaStart" : 5616,
                          "mediaDuration" : 1417,
                          "scalar" : 1,
                          "metadata" : {
                            "AutoAppliedSmartFocus" : "False",
                            "clipSpeedAttribute" : false,
                            "default-scale0" : 1.0,
                            "default-scale1" : 1.0,
                            "default-translation0" : 0.0,
                            "default-translation1" : 0.0
                          },
                          "animationTracks" : {

                          }
                        }
                    ],
                    "effects" : [
                        {
                          "effectName" : "CursorHilight",
                          "category" : "categoryCursorEffects",
                          "parameters" : {
                            "blur" : 0.1,
                            "color-alpha" : 0.75,
                            "color-blue" : 0.0,
                            "color-green" : 1.0,
                            "color-red" : 1.0,
                            "radius" : 50.0
                          }
                        }
                    ],
                    "start" : 3128,
                    "duration" : 73,
                    "mediaStart" : 5915,
                    "mediaDuration" : 73,
                    "scalar" : 1,
                    "metadata" : {
                      "AutoAppliedSmartFocus" : "False",
                      "clipSpeedAttribute" : false,
                      "default-scale0" : 1.79597357660838,
                      "default-scale1" : 1.79597406752138,
                      "default-translation0" : 1008.54947665046,
                      "default-translation1" : -303.704938962414
                    },
                    "animationTracks" : {
                      "visual" : [
                        {
                          "endTime" : 1177,
                          "duration" : 30,
                          "range" : [ 1147, 30]
                        },
                        {
                          "endTime" : 1449,
                          "duration" : 30,
                          "range" : [ 1419, 30]
                        },
                        {
                          "endTime" : 2474,
                          "duration" : 30,
                          "range" : [ 2444, 30]
                        },
                        {
                          "endTime" : 3259,
                          "duration" : 30,
                          "range" : [ 3229, 30]
                        },
                        {
                          "endTime" : 3491,
                          "duration" : 30,
                          "range" : [ 3461, 30]
                        },
                        {
                          "endTime" : 3865,
                          "duration" : 30,
                          "range" : [ 3835, 30]
                        },
                        {
                          "endTime" : 3913,
                          "duration" : 30,
                          "range" : [ 3883, 30]
                        },
                        {
                          "endTime" : 4027,
                          "duration" : 30,
                          "range" : [ 3997, 30]
                        },
                        {
                          "endTime" : 4074,
                          "duration" : 30,
                          "range" : [ 4044, 30]
                        },
                        {
                          "endTime" : 5505,
                          "duration" : 30,
                          "range" : [ 5475, 30]
                        },
                        {
                          "endTime" : 5539,
                          "duration" : 30,
                          "range" : [ 5509, 30]
                        },
                        {
                          "endTime" : 5948,
                          "duration" : 33,
                          "range" : [ 5915, 33]
                        },
                        {
                          "endTime" : 5986,
                          "duration" : 34,
                          "range" : [ 5952, 34]
                        }
                      ]
                    }
                  },
                  {
                    "id" : 329,
                    "_type" : "StitchedMedia",
                    "minMediaStart" : 0,
                    "attributes" : {
                      "ident" : "hijacking_ntfs_structs_attack_prevention",
                      "gain" : 1.0,
                      "mixToMono" : false
                    },
                    "parameters" : {
                      "translation0" : {
                        "type" : "double",
                        "defaultValue" : 0.0,
                        "keyframes" : [
                          {
                            "endTime" : 1177,
                            "time" : 1147,
                            "value" : 948.478453192254,
                            "duration" : 30
                          },
                          {
                            "endTime" : 1449,
                            "time" : 1419,
                            "value" : 948.478364944437,
                            "duration" : 30
                          },
                          {
                            "endTime" : 2474,
                            "time" : 2444,
                            "value" : 5.6843418860808e-14,
                            "duration" : 30
                          },
                          {
                            "endTime" : 3259,
                            "time" : 3229,
                            "value" : -774.930172418836,
                            "duration" : 30
                          },
                          {
                            "endTime" : 3491,
                            "time" : 3461,
                            "value" : -774.930252849251,
                            "duration" : 30
                          },
                          {
                            "endTime" : 3865,
                            "time" : 3835,
                            "value" : 5.6843418860808e-14,
                            "duration" : 30
                          },
                          {
                            "endTime" : 3913,
                            "time" : 3883,
                            "value" : 1596.09769057838,
                            "duration" : 30
                          },
                          {
                            "endTime" : 4027,
                            "time" : 3997,
                            "value" : 2.27373675443232e-13,
                            "duration" : 30
                          },
                          {
                            "endTime" : 4074,
                            "time" : 4044,
                            "value" : -774.9,
                            "duration" : 30
                          },
                          {
                            "endTime" : 5505,
                            "time" : 5475,
                            "value" : -1.13686837721616e-13,
                            "duration" : 30
                          },
                          {
                            "endTime" : 5539,
                            "time" : 5509,
                            "value" : 1008.54947665046,
                            "duration" : 30
                          },
                          {
                            "endTime" : 5948,
                            "time" : 5915,
                            "value" : 1.13686837721616e-13,
                            "duration" : 33
                          },
                          {
                            "endTime" : 5986,
                            "time" : 5952,
                            "value" : -774.9,
                            "duration" : 34
                          }
                        ]
                      },
                      "translation1" : {
                        "type" : "double",
                        "defaultValue" : 0.0,
                        "keyframes" : [
                          {
                            "endTime" : 1177,
                            "time" : 1147,
                            "value" : -426.526455592595,
                            "duration" : 30
                          },
                          {
                            "endTime" : 1449,
                            "time" : 1419,
                            "value" : -100.3,
                            "duration" : 30
                          },
                          {
                            "endTime" : 2474,
                            "time" : 2444,
                            "value" : -4.9737991503207e-14,
                            "duration" : 30
                          },
                          {
                            "endTime" : 3259,
                            "time" : 3229,
                            "value" : -101.709492105514,
                            "duration" : 30
                          },
                          {
                            "endTime" : 3491,
                            "time" : 3461,
                            "value" : 427.4,
                            "duration" : 30
                          },
                          {
                            "endTime" : 3865,
                            "time" : 3835,
                            "value" : -5.6843418860808e-14,
                            "duration" : 30
                          },
                          {
                            "endTime" : 3913,
                            "time" : 3883,
                            "value" : -743.478440251836,
                            "duration" : 30
                          },
                          {
                            "endTime" : 4027,
                            "time" : 3997,
                            "value" : 1.13686837721616e-13,
                            "duration" : 30
                          },
                          {
                            "endTime" : 4074,
                            "time" : 4044,
                            "value" : 427.4,
                            "duration" : 30
                          },
                          {
                            "endTime" : 5505,
                            "time" : 5475,
                            "value" : -5.6843418860808e-14,
                            "duration" : 30
                          },
                          {
                            "endTime" : 5539,
                            "time" : 5509,
                            "value" : -303.704938962414,
                            "duration" : 30
                          },
                          {
                            "endTime" : 5948,
                            "time" : 5915,
                            "value" : 2.8421709430404e-14,
                            "duration" : 33
                          },
                          {
                            "endTime" : 5986,
                            "time" : 5952,
                            "value" : 427.4,
                            "duration" : 34
                          }
                        ]
                      },
                      "scale0" : {
                        "type" : "double",
                        "defaultValue" : 1.0,
                        "keyframes" : [
                          {
                            "endTime" : 1177,
                            "time" : 1147,
                            "value" : 1.98900262241215,
                            "duration" : 30
                          },
                          {
                            "endTime" : 2474,
                            "time" : 2444,
                            "value" : 0.999999767628522,
                            "duration" : 30
                          },
                          {
                            "endTime" : 3259,
                            "time" : 3229,
                            "value" : 2.22091728725881,
                            "duration" : 30
                          },
                          {
                            "endTime" : 3491,
                            "time" : 3461,
                            "value" : 2.22091757221115,
                            "duration" : 30
                          },
                          {
                            "endTime" : 3865,
                            "time" : 3835,
                            "value" : 0.999999908672186,
                            "duration" : 30
                          },
                          {
                            "endTime" : 3913,
                            "time" : 3883,
                            "value" : 2.30317149661612,
                            "duration" : 30
                          },
                          {
                            "endTime" : 4027,
                            "time" : 3997,
                            "value" : 0.999999941772713,
                            "duration" : 30
                          },
                          {
                            "endTime" : 4074,
                            "time" : 4044,
                            "value" : 2.22099983278936,
                            "duration" : 30
                          },
                          {
                            "endTime" : 5505,
                            "time" : 5475,
                            "value" : 0.999999924713804,
                            "duration" : 30
                          },
                          {
                            "endTime" : 5539,
                            "time" : 5509,
                            "value" : 1.79597357660838,
                            "duration" : 30
                          },
                          {
                            "endTime" : 5948,
                            "time" : 5915,
                            "value" : 0.999999726659192,
                            "duration" : 33
                          },
                          {
                            "endTime" : 5986,
                            "time" : 5952,
                            "value" : 2.22099913073333,
                            "duration" : 34
                          }
                        ]
                      },
                      "scale1" : {
                        "type" : "double",
                        "defaultValue" : 1.0,
                        "keyframes" : [
                          {
                            "endTime" : 1177,
                            "time" : 1147,
                            "value" : 1.98900308459974,
                            "duration" : 30
                          },
                          {
                            "endTime" : 2474,
                            "time" : 2444,
                            "value" : 1.0,
                            "duration" : 30
                          },
                          {
                            "endTime" : 3259,
                            "time" : 3229,
                            "value" : 2.22091777504271,
                            "duration" : 30
                          },
                          {
                            "endTime" : 3865,
                            "time" : 3835,
                            "value" : 1.0,
                            "duration" : 30
                          },
                          {
                            "endTime" : 3913,
                            "time" : 3883,
                            "value" : 2.30317163072356,
                            "duration" : 30
                          },
                          {
                            "endTime" : 4027,
                            "time" : 3997,
                            "value" : 1.0,
                            "duration" : 30
                          },
                          {
                            "endTime" : 4074,
                            "time" : 4044,
                            "value" : 2.221,
                            "duration" : 30
                          },
                          {
                            "endTime" : 5505,
                            "time" : 5475,
                            "value" : 1.0,
                            "duration" : 30
                          },
                          {
                            "endTime" : 5539,
                            "time" : 5509,
                            "value" : 1.79597406752138,
                            "duration" : 30
                          },
                          {
                            "endTime" : 5948,
                            "time" : 5915,
                            "value" : 1.0,
                            "duration" : 33
                          },
                          {
                            "endTime" : 5986,
                            "time" : 5952,
                            "value" : 2.221,
                            "duration" : 34
                          }
                        ]
                      },
                      "cursorOpacity" : 1.0,
                      "cursorScale" : 1.0
                    },
                    "medias" : [
                        {
                          "id" : 330,
                          "_type" : "ScreenVMFile",
                          "src" : 1,
                          "trackNumber" : 0,
                          "attributes" : {
                            "ident" : "hijacking_ntfs_structs_attack_prevention"
                          },
                          "parameters" : {
                            "cursorScale" : {
                              "type" : "double",
                              "defaultValue" : 0.0,
                              "interp" : "linr"
                            },
                            "cursorOpacity" : {
                              "type" : "double",
                              "defaultValue" : 0.0,
                              "interp" : "linr"
                            }
                          },
                          "effects" : [

                          ],
                          "start" : 0,
                          "duration" : 1620,
                          "mediaStart" : 0,
                          "mediaDuration" : 1620,
                          "scalar" : 1,
                          "metadata" : {
                            "AutoAppliedSmartFocus" : "False",
                            "clipSpeedAttribute" : false,
                            "default-scale0" : 1.0,
                            "default-scale1" : 1.0,
                            "default-translation0" : 0.0,
                            "default-translation1" : 0.0
                          },
                          "animationTracks" : {

                          }
                        },
                        {
                          "id" : 331,
                          "_type" : "ScreenIMFile",
                          "src" : 1,
                          "trackNumber" : 0,
                          "trimStartSum" : 0,
                          "attributes" : {
                            "ident" : "hijacking_ntfs_structs_attack_prevention"
                          },
                          "parameters" : {
                            "cursorOpacity" : 0.0,
                            "cursorScale" : 0.0
                          },
                          "effects" : [

                          ],
                          "start" : 1620,
                          "duration" : 30,
                          "mediaStart" : 1619,
                          "mediaDuration" : 1,
                          "scalar" : 1,
                          "metadata" : {
                            "AutoAppliedSmartFocus" : "False"
                          },
                          "animationTracks" : {

                          }
                        },
                        {
                          "id" : 332,
                          "_type" : "ScreenVMFile",
                          "src" : 1,
                          "trackNumber" : 0,
                          "attributes" : {
                            "ident" : "hijacking_ntfs_structs_attack_prevention"
                          },
                          "parameters" : {
                            "cursorScale" : {
                              "type" : "double",
                              "defaultValue" : 0.0,
                              "interp" : "linr"
                            },
                            "cursorOpacity" : {
                              "type" : "double",
                              "defaultValue" : 0.0,
                              "interp" : "linr"
                            }
                          },
                          "effects" : [

                          ],
                          "start" : 1650,
                          "duration" : 749,
                          "mediaStart" : 1620,
                          "mediaDuration" : 749,
                          "scalar" : 1,
                          "metadata" : {
                            "AutoAppliedSmartFocus" : "False",
                            "clipSpeedAttribute" : false,
                            "default-scale0" : 1.0,
                            "default-scale1" : 1.0,
                            "default-translation0" : 0.0,
                            "default-translation1" : 0.0
                          },
                          "animationTracks" : {

                          }
                        },
                        {
                          "id" : 333,
                          "_type" : "ScreenIMFile",
                          "src" : 1,
                          "trackNumber" : 0,
                          "trimStartSum" : 0,
                          "attributes" : {
                            "ident" : "hijacking_ntfs_structs_attack_prevention"
                          },
                          "parameters" : {
                            "cursorOpacity" : 0.0,
                            "cursorScale" : 0.0
                          },
                          "effects" : [

                          ],
                          "start" : 2399,
                          "duration" : 30,
                          "mediaStart" : 2369,
                          "mediaDuration" : 1,
                          "scalar" : 1,
                          "metadata" : {
                            "AutoAppliedSmartFocus" : "False"
                          },
                          "animationTracks" : {

                          }
                        },
                        {
                          "id" : 334,
                          "_type" : "ScreenVMFile",
                          "src" : 1,
                          "trackNumber" : 0,
                          "attributes" : {
                            "ident" : "hijacking_ntfs_structs_attack_prevention"
                          },
                          "parameters" : {
                            "cursorScale" : {
                              "type" : "double",
                              "defaultValue" : 0.0,
                              "interp" : "linr"
                            },
                            "cursorOpacity" : {
                              "type" : "double",
                              "defaultValue" : 0.0,
                              "interp" : "linr"
                            }
                          },
                          "effects" : [

                          ],
                          "start" : 2429,
                          "duration" : 67,
                          "mediaStart" : 2369,
                          "mediaDuration" : 67,
                          "scalar" : 1,
                          "metadata" : {
                            "AutoAppliedSmartFocus" : "False",
                            "clipSpeedAttribute" : false,
                            "default-scale0" : 1.0,
                            "default-scale1" : 1.0,
                            "default-translation0" : 0.0,
                            "default-translation1" : 0.0
                          },
                          "animationTracks" : {

                          }
                        },
                        {
                          "id" : 335,
                          "_type" : "ScreenIMFile",
                          "src" : 1,
                          "trackNumber" : 0,
                          "trimStartSum" : 0,
                          "attributes" : {
                            "ident" : "hijacking_ntfs_structs_attack_prevention"
                          },
                          "parameters" : {
                            "cursorOpacity" : 0.0,
                            "cursorScale" : 0.0
                          },
                          "effects" : [

                          ],
                          "start" : 2496,
                          "duration" : 60,
                          "mediaStart" : 2436,
                          "mediaDuration" : 1,
                          "scalar" : 1,
                          "metadata" : {
                            "AutoAppliedSmartFocus" : "False"
                          },
                          "animationTracks" : {

                          }
                        },
                        {
                          "id" : 336,
                          "_type" : "ScreenVMFile",
                          "src" : 1,
                          "trackNumber" : 0,
                          "attributes" : {
                            "ident" : "hijacking_ntfs_structs_attack_prevention"
                          },
                          "parameters" : {
                            "cursorScale" : {
                              "type" : "double",
                              "defaultValue" : 0.0,
                              "interp" : "linr"
                            },
                            "cursorOpacity" : {
                              "type" : "double",
                              "defaultValue" : 0.0,
                              "interp" : "linr"
                            }
                          },
                          "effects" : [

                          ],
                          "start" : 2556,
                          "duration" : 3180,
                          "mediaStart" : 2436,
                          "mediaDuration" : 3180,
                          "scalar" : 1,
                          "metadata" : {
                            "AutoAppliedSmartFocus" : "False",
                            "clipSpeedAttribute" : false,
                            "default-scale0" : 1.0,
                            "default-scale1" : 1.0,
                            "default-translation0" : 0.0,
                            "default-translation1" : 0.0
                          },
                          "animationTracks" : {

                          }
                        },
                        {
                          "id" : 337,
                          "_type" : "ScreenIMFile",
                          "src" : 1,
                          "trackNumber" : 0,
                          "trimStartSum" : 0,
                          "attributes" : {
                            "ident" : "hijacking_ntfs_structs_attack_prevention"
                          },
                          "parameters" : {
                            "cursorOpacity" : 0.0,
                            "cursorScale" : 0.0
                          },
                          "effects" : [

                          ],
                          "start" : 5736,
                          "duration" : 45,
                          "mediaStart" : 5616,
                          "mediaDuration" : 1,
                          "scalar" : 1,
                          "metadata" : {
                            "AutoAppliedSmartFocus" : "False"
                          },
                          "animationTracks" : {

                          }
                        },
                        {
                          "id" : 338,
                          "_type" : "ScreenVMFile",
                          "src" : 1,
                          "trackNumber" : 0,
                          "attributes" : {
                            "ident" : "hijacking_ntfs_structs_attack_prevention"
                          },
                          "parameters" : {
                            "cursorScale" : {
                              "type" : "double",
                              "defaultValue" : 0.0,
                              "interp" : "linr"
                            },
                            "cursorOpacity" : {
                              "type" : "double",
                              "defaultValue" : 0.0,
                              "interp" : "linr"
                            }
                          },
                          "effects" : [

                          ],
                          "start" : 5781,
                          "duration" : 1417,
                          "mediaStart" : 5616,
                          "mediaDuration" : 1417,
                          "scalar" : 1,
                          "metadata" : {
                            "AutoAppliedSmartFocus" : "False",
                            "clipSpeedAttribute" : false,
                            "default-scale0" : 1.0,
                            "default-scale1" : 1.0,
                            "default-translation0" : 0.0,
                            "default-translation1" : 0.0
                          },
                          "animationTracks" : {

                          }
                        }
                    ],
                    "effects" : [
                        {
                          "effectName" : "CursorHilight",
                          "category" : "categoryCursorEffects",
                          "parameters" : {
                            "blur" : 0.1,
                            "color-alpha" : 0.75,
                            "color-blue" : 0.0,
                            "color-green" : 1.0,
                            "color-red" : 1.0,
                            "radius" : 50.0
                          }
                        }
                    ],
                    "start" : 3201,
                    "duration" : 50,
                    "mediaStart" : 5988,
                    "mediaDuration" : 152,
                    "scalar" : "25/76",
                    "metadata" : {
                      "AutoAppliedSmartFocus" : "False",
                      "clipSpeedAttribute" : true,
                      "default-scale0" : 1.79597357660838,
                      "default-scale1" : 1.79597406752138,
                      "default-translation0" : 1008.54947665046,
                      "default-translation1" : -303.704938962414
                    },
                    "animationTracks" : {
                      "visual" : [
                        {
                          "endTime" : 1177,
                          "duration" : 30,
                          "range" : [ 1147, 30]
                        },
                        {
                          "endTime" : 1449,
                          "duration" : 30,
                          "range" : [ 1419, 30]
                        },
                        {
                          "endTime" : 2474,
                          "duration" : 30,
                          "range" : [ 2444, 30]
                        },
                        {
                          "endTime" : 3259,
                          "duration" : 30,
                          "range" : [ 3229, 30]
                        },
                        {
                          "endTime" : 3491,
                          "duration" : 30,
                          "range" : [ 3461, 30]
                        },
                        {
                          "endTime" : 3865,
                          "duration" : 30,
                          "range" : [ 3835, 30]
                        },
                        {
                          "endTime" : 3913,
                          "duration" : 30,
                          "range" : [ 3883, 30]
                        },
                        {
                          "endTime" : 4027,
                          "duration" : 30,
                          "range" : [ 3997, 30]
                        },
                        {
                          "endTime" : 4074,
                          "duration" : 30,
                          "range" : [ 4044, 30]
                        },
                        {
                          "endTime" : 5505,
                          "duration" : 30,
                          "range" : [ 5475, 30]
                        },
                        {
                          "endTime" : 5539,
                          "duration" : 30,
                          "range" : [ 5509, 30]
                        },
                        {
                          "endTime" : 5948,
                          "duration" : 33,
                          "range" : [ 5915, 33]
                        },
                        {
                          "endTime" : 5986,
                          "duration" : 34,
                          "range" : [ 5952, 34]
                        }
                      ]
                    }
                  },
                  {
                    "id" : 339,
                    "_type" : "StitchedMedia",
                    "minMediaStart" : 0,
                    "attributes" : {
                      "ident" : "hijacking_ntfs_structs_attack_prevention",
                      "gain" : 1.0,
                      "mixToMono" : false
                    },
                    "parameters" : {
                      "translation0" : {
                        "type" : "double",
                        "defaultValue" : 0.0,
                        "keyframes" : [
                          {
                            "endTime" : 1177,
                            "time" : 1147,
                            "value" : 948.478453192254,
                            "duration" : 30
                          },
                          {
                            "endTime" : 1449,
                            "time" : 1419,
                            "value" : 948.478364944437,
                            "duration" : 30
                          },
                          {
                            "endTime" : 2474,
                            "time" : 2444,
                            "value" : 5.6843418860808e-14,
                            "duration" : 30
                          },
                          {
                            "endTime" : 3259,
                            "time" : 3229,
                            "value" : -774.930172418836,
                            "duration" : 30
                          },
                          {
                            "endTime" : 3491,
                            "time" : 3461,
                            "value" : -774.930252849251,
                            "duration" : 30
                          },
                          {
                            "endTime" : 3865,
                            "time" : 3835,
                            "value" : 5.6843418860808e-14,
                            "duration" : 30
                          },
                          {
                            "endTime" : 3913,
                            "time" : 3883,
                            "value" : 1596.09769057838,
                            "duration" : 30
                          },
                          {
                            "endTime" : 4027,
                            "time" : 3997,
                            "value" : 2.27373675443232e-13,
                            "duration" : 30
                          },
                          {
                            "endTime" : 4074,
                            "time" : 4044,
                            "value" : -774.9,
                            "duration" : 30
                          },
                          {
                            "endTime" : 5505,
                            "time" : 5475,
                            "value" : -1.13686837721616e-13,
                            "duration" : 30
                          },
                          {
                            "endTime" : 5539,
                            "time" : 5509,
                            "value" : 1008.54947665046,
                            "duration" : 30
                          },
                          {
                            "endTime" : 5948,
                            "time" : 5915,
                            "value" : 1.13686837721616e-13,
                            "duration" : 33
                          },
                          {
                            "endTime" : 5986,
                            "time" : 5952,
                            "value" : -774.9,
                            "duration" : 34
                          },
                          {
                            "endTime" : 6175,
                            "time" : 6145,
                            "value" : -4.54747350886464e-13,
                            "duration" : 30
                          }
                        ]
                      },
                      "translation1" : {
                        "type" : "double",
                        "defaultValue" : 0.0,
                        "keyframes" : [
                          {
                            "endTime" : 1177,
                            "time" : 1147,
                            "value" : -426.526455592595,
                            "duration" : 30
                          },
                          {
                            "endTime" : 1449,
                            "time" : 1419,
                            "value" : -100.3,
                            "duration" : 30
                          },
                          {
                            "endTime" : 2474,
                            "time" : 2444,
                            "value" : -4.9737991503207e-14,
                            "duration" : 30
                          },
                          {
                            "endTime" : 3259,
                            "time" : 3229,
                            "value" : -101.709492105514,
                            "duration" : 30
                          },
                          {
                            "endTime" : 3491,
                            "time" : 3461,
                            "value" : 427.4,
                            "duration" : 30
                          },
                          {
                            "endTime" : 3865,
                            "time" : 3835,
                            "value" : -5.6843418860808e-14,
                            "duration" : 30
                          },
                          {
                            "endTime" : 3913,
                            "time" : 3883,
                            "value" : -743.478440251836,
                            "duration" : 30
                          },
                          {
                            "endTime" : 4027,
                            "time" : 3997,
                            "value" : 1.13686837721616e-13,
                            "duration" : 30
                          },
                          {
                            "endTime" : 4074,
                            "time" : 4044,
                            "value" : 427.4,
                            "duration" : 30
                          },
                          {
                            "endTime" : 5505,
                            "time" : 5475,
                            "value" : -5.6843418860808e-14,
                            "duration" : 30
                          },
                          {
                            "endTime" : 5539,
                            "time" : 5509,
                            "value" : -303.704938962414,
                            "duration" : 30
                          },
                          {
                            "endTime" : 5948,
                            "time" : 5915,
                            "value" : 2.8421709430404e-14,
                            "duration" : 33
                          },
                          {
                            "endTime" : 5986,
                            "time" : 5952,
                            "value" : 427.4,
                            "duration" : 34
                          },
                          {
                            "endTime" : 6175,
                            "time" : 6145,
                            "value" : 1.13686837721616e-13,
                            "duration" : 30
                          }
                        ]
                      },
                      "scale0" : {
                        "type" : "double",
                        "defaultValue" : 1.0,
                        "keyframes" : [
                          {
                            "endTime" : 1177,
                            "time" : 1147,
                            "value" : 1.98900262241215,
                            "duration" : 30
                          },
                          {
                            "endTime" : 2474,
                            "time" : 2444,
                            "value" : 0.999999767628522,
                            "duration" : 30
                          },
                          {
                            "endTime" : 3259,
                            "time" : 3229,
                            "value" : 2.22091728725881,
                            "duration" : 30
                          },
                          {
                            "endTime" : 3491,
                            "time" : 3461,
                            "value" : 2.22091757221115,
                            "duration" : 30
                          },
                          {
                            "endTime" : 3865,
                            "time" : 3835,
                            "value" : 0.999999908672186,
                            "duration" : 30
                          },
                          {
                            "endTime" : 3913,
                            "time" : 3883,
                            "value" : 2.30317149661612,
                            "duration" : 30
                          },
                          {
                            "endTime" : 4027,
                            "time" : 3997,
                            "value" : 0.999999941772713,
                            "duration" : 30
                          },
                          {
                            "endTime" : 4074,
                            "time" : 4044,
                            "value" : 2.22099983278936,
                            "duration" : 30
                          },
                          {
                            "endTime" : 5505,
                            "time" : 5475,
                            "value" : 0.999999924713804,
                            "duration" : 30
                          },
                          {
                            "endTime" : 5539,
                            "time" : 5509,
                            "value" : 1.79597357660838,
                            "duration" : 30
                          },
                          {
                            "endTime" : 5948,
                            "time" : 5915,
                            "value" : 0.999999726659192,
                            "duration" : 33
                          },
                          {
                            "endTime" : 5986,
                            "time" : 5952,
                            "value" : 2.22099913073333,
                            "duration" : 34
                          },
                          {
                            "endTime" : 6175,
                            "time" : 6145,
                            "value" : 0.999999608614738,
                            "duration" : 30
                          }
                        ]
                      },
                      "scale1" : {
                        "type" : "double",
                        "defaultValue" : 1.0,
                        "keyframes" : [
                          {
                            "endTime" : 1177,
                            "time" : 1147,
                            "value" : 1.98900308459974,
                            "duration" : 30
                          },
                          {
                            "endTime" : 2474,
                            "time" : 2444,
                            "value" : 1.0,
                            "duration" : 30
                          },
                          {
                            "endTime" : 3259,
                            "time" : 3229,
                            "value" : 2.22091777504271,
                            "duration" : 30
                          },
                          {
                            "endTime" : 3865,
                            "time" : 3835,
                            "value" : 1.0,
                            "duration" : 30
                          },
                          {
                            "endTime" : 3913,
                            "time" : 3883,
                            "value" : 2.30317163072356,
                            "duration" : 30
                          },
                          {
                            "endTime" : 4027,
                            "time" : 3997,
                            "value" : 1.0,
                            "duration" : 30
                          },
                          {
                            "endTime" : 4074,
                            "time" : 4044,
                            "value" : 2.221,
                            "duration" : 30
                          },
                          {
                            "endTime" : 5505,
                            "time" : 5475,
                            "value" : 1.0,
                            "duration" : 30
                          },
                          {
                            "endTime" : 5539,
                            "time" : 5509,
                            "value" : 1.79597406752138,
                            "duration" : 30
                          },
                          {
                            "endTime" : 5948,
                            "time" : 5915,
                            "value" : 1.0,
                            "duration" : 33
                          },
                          {
                            "endTime" : 5986,
                            "time" : 5952,
                            "value" : 2.221,
                            "duration" : 34
                          },
                          {
                            "endTime" : 6175,
                            "time" : 6145,
                            "value" : 1.0,
                            "duration" : 30
                          }
                        ]
                      },
                      "cursorOpacity" : 1.0,
                      "cursorScale" : 1.0
                    },
                    "medias" : [
                        {
                          "id" : 340,
                          "_type" : "ScreenVMFile",
                          "src" : 1,
                          "trackNumber" : 0,
                          "attributes" : {
                            "ident" : "hijacking_ntfs_structs_attack_prevention"
                          },
                          "parameters" : {
                            "cursorScale" : {
                              "type" : "double",
                              "defaultValue" : 0.0,
                              "interp" : "linr"
                            },
                            "cursorOpacity" : {
                              "type" : "double",
                              "defaultValue" : 0.0,
                              "interp" : "linr"
                            }
                          },
                          "effects" : [

                          ],
                          "start" : 0,
                          "duration" : 1620,
                          "mediaStart" : 0,
                          "mediaDuration" : 1620,
                          "scalar" : 1,
                          "metadata" : {
                            "AutoAppliedSmartFocus" : "False",
                            "clipSpeedAttribute" : false,
                            "default-scale0" : 1.0,
                            "default-scale1" : 1.0,
                            "default-translation0" : 0.0,
                            "default-translation1" : 0.0
                          },
                          "animationTracks" : {

                          }
                        },
                        {
                          "id" : 341,
                          "_type" : "ScreenIMFile",
                          "src" : 1,
                          "trackNumber" : 0,
                          "trimStartSum" : 0,
                          "attributes" : {
                            "ident" : "hijacking_ntfs_structs_attack_prevention"
                          },
                          "parameters" : {
                            "cursorOpacity" : 0.0,
                            "cursorScale" : 0.0
                          },
                          "effects" : [

                          ],
                          "start" : 1620,
                          "duration" : 30,
                          "mediaStart" : 1619,
                          "mediaDuration" : 1,
                          "scalar" : 1,
                          "metadata" : {
                            "AutoAppliedSmartFocus" : "False"
                          },
                          "animationTracks" : {

                          }
                        },
                        {
                          "id" : 342,
                          "_type" : "ScreenVMFile",
                          "src" : 1,
                          "trackNumber" : 0,
                          "attributes" : {
                            "ident" : "hijacking_ntfs_structs_attack_prevention"
                          },
                          "parameters" : {
                            "cursorScale" : {
                              "type" : "double",
                              "defaultValue" : 0.0,
                              "interp" : "linr"
                            },
                            "cursorOpacity" : {
                              "type" : "double",
                              "defaultValue" : 0.0,
                              "interp" : "linr"
                            }
                          },
                          "effects" : [

                          ],
                          "start" : 1650,
                          "duration" : 749,
                          "mediaStart" : 1620,
                          "mediaDuration" : 749,
                          "scalar" : 1,
                          "metadata" : {
                            "AutoAppliedSmartFocus" : "False",
                            "clipSpeedAttribute" : false,
                            "default-scale0" : 1.0,
                            "default-scale1" : 1.0,
                            "default-translation0" : 0.0,
                            "default-translation1" : 0.0
                          },
                          "animationTracks" : {

                          }
                        },
                        {
                          "id" : 343,
                          "_type" : "ScreenIMFile",
                          "src" : 1,
                          "trackNumber" : 0,
                          "trimStartSum" : 0,
                          "attributes" : {
                            "ident" : "hijacking_ntfs_structs_attack_prevention"
                          },
                          "parameters" : {
                            "cursorOpacity" : 0.0,
                            "cursorScale" : 0.0
                          },
                          "effects" : [

                          ],
                          "start" : 2399,
                          "duration" : 30,
                          "mediaStart" : 2369,
                          "mediaDuration" : 1,
                          "scalar" : 1,
                          "metadata" : {
                            "AutoAppliedSmartFocus" : "False"
                          },
                          "animationTracks" : {

                          }
                        },
                        {
                          "id" : 344,
                          "_type" : "ScreenVMFile",
                          "src" : 1,
                          "trackNumber" : 0,
                          "attributes" : {
                            "ident" : "hijacking_ntfs_structs_attack_prevention"
                          },
                          "parameters" : {
                            "cursorScale" : {
                              "type" : "double",
                              "defaultValue" : 0.0,
                              "interp" : "linr"
                            },
                            "cursorOpacity" : {
                              "type" : "double",
                              "defaultValue" : 0.0,
                              "interp" : "linr"
                            }
                          },
                          "effects" : [

                          ],
                          "start" : 2429,
                          "duration" : 67,
                          "mediaStart" : 2369,
                          "mediaDuration" : 67,
                          "scalar" : 1,
                          "metadata" : {
                            "AutoAppliedSmartFocus" : "False",
                            "clipSpeedAttribute" : false,
                            "default-scale0" : 1.0,
                            "default-scale1" : 1.0,
                            "default-translation0" : 0.0,
                            "default-translation1" : 0.0
                          },
                          "animationTracks" : {

                          }
                        },
                        {
                          "id" : 345,
                          "_type" : "ScreenIMFile",
                          "src" : 1,
                          "trackNumber" : 0,
                          "trimStartSum" : 0,
                          "attributes" : {
                            "ident" : "hijacking_ntfs_structs_attack_prevention"
                          },
                          "parameters" : {
                            "cursorOpacity" : 0.0,
                            "cursorScale" : 0.0
                          },
                          "effects" : [

                          ],
                          "start" : 2496,
                          "duration" : 60,
                          "mediaStart" : 2436,
                          "mediaDuration" : 1,
                          "scalar" : 1,
                          "metadata" : {
                            "AutoAppliedSmartFocus" : "False"
                          },
                          "animationTracks" : {

                          }
                        },
                        {
                          "id" : 346,
                          "_type" : "ScreenVMFile",
                          "src" : 1,
                          "trackNumber" : 0,
                          "attributes" : {
                            "ident" : "hijacking_ntfs_structs_attack_prevention"
                          },
                          "parameters" : {
                            "cursorScale" : {
                              "type" : "double",
                              "defaultValue" : 0.0,
                              "interp" : "linr"
                            },
                            "cursorOpacity" : {
                              "type" : "double",
                              "defaultValue" : 0.0,
                              "interp" : "linr"
                            }
                          },
                          "effects" : [

                          ],
                          "start" : 2556,
                          "duration" : 3180,
                          "mediaStart" : 2436,
                          "mediaDuration" : 3180,
                          "scalar" : 1,
                          "metadata" : {
                            "AutoAppliedSmartFocus" : "False",
                            "clipSpeedAttribute" : false,
                            "default-scale0" : 1.0,
                            "default-scale1" : 1.0,
                            "default-translation0" : 0.0,
                            "default-translation1" : 0.0
                          },
                          "animationTracks" : {

                          }
                        },
                        {
                          "id" : 347,
                          "_type" : "ScreenIMFile",
                          "src" : 1,
                          "trackNumber" : 0,
                          "trimStartSum" : 0,
                          "attributes" : {
                            "ident" : "hijacking_ntfs_structs_attack_prevention"
                          },
                          "parameters" : {
                            "cursorOpacity" : 0.0,
                            "cursorScale" : 0.0
                          },
                          "effects" : [

                          ],
                          "start" : 5736,
                          "duration" : 45,
                          "mediaStart" : 5616,
                          "mediaDuration" : 1,
                          "scalar" : 1,
                          "metadata" : {
                            "AutoAppliedSmartFocus" : "False"
                          },
                          "animationTracks" : {

                          }
                        },
                        {
                          "id" : 348,
                          "_type" : "ScreenVMFile",
                          "src" : 1,
                          "trackNumber" : 0,
                          "attributes" : {
                            "ident" : "hijacking_ntfs_structs_attack_prevention"
                          },
                          "parameters" : {
                            "cursorScale" : {
                              "type" : "double",
                              "defaultValue" : 0.0,
                              "interp" : "linr"
                            },
                            "cursorOpacity" : {
                              "type" : "double",
                              "defaultValue" : 0.0,
                              "interp" : "linr"
                            }
                          },
                          "effects" : [

                          ],
                          "start" : 5781,
                          "duration" : 1417,
                          "mediaStart" : 5616,
                          "mediaDuration" : 1417,
                          "scalar" : 1,
                          "metadata" : {
                            "AutoAppliedSmartFocus" : "False",
                            "clipSpeedAttribute" : false,
                            "default-scale0" : 1.0,
                            "default-scale1" : 1.0,
                            "default-translation0" : 0.0,
                            "default-translation1" : 0.0
                          },
                          "animationTracks" : {

                          }
                        }
                    ],
                    "effects" : [
                        {
                          "effectName" : "CursorHilight",
                          "category" : "categoryCursorEffects",
                          "parameters" : {
                            "blur" : 0.1,
                            "color-alpha" : 0.75,
                            "color-blue" : 0.0,
                            "color-green" : 1.0,
                            "color-red" : 1.0,
                            "radius" : 50.0
                          }
                        }
                    ],
                    "start" : 3251,
                    "duration" : 67,
                    "mediaStart" : 6140,
                    "mediaDuration" : 67,
                    "scalar" : 1,
                    "metadata" : {
                      "AutoAppliedSmartFocus" : "False",
                      "clipSpeedAttribute" : false,
                      "default-scale0" : 1.79597357660838,
                      "default-scale1" : 1.79597406752138,
                      "default-translation0" : 1008.54947665046,
                      "default-translation1" : -303.704938962414
                    },
                    "animationTracks" : {
                      "visual" : [
                        {
                          "endTime" : 1177,
                          "duration" : 30,
                          "range" : [ 1147, 30]
                        },
                        {
                          "endTime" : 1449,
                          "duration" : 30,
                          "range" : [ 1419, 30]
                        },
                        {
                          "endTime" : 2474,
                          "duration" : 30,
                          "range" : [ 2444, 30]
                        },
                        {
                          "endTime" : 3259,
                          "duration" : 30,
                          "range" : [ 3229, 30]
                        },
                        {
                          "endTime" : 3491,
                          "duration" : 30,
                          "range" : [ 3461, 30]
                        },
                        {
                          "endTime" : 3865,
                          "duration" : 30,
                          "range" : [ 3835, 30]
                        },
                        {
                          "endTime" : 3913,
                          "duration" : 30,
                          "range" : [ 3883, 30]
                        },
                        {
                          "endTime" : 4027,
                          "duration" : 30,
                          "range" : [ 3997, 30]
                        },
                        {
                          "endTime" : 4074,
                          "duration" : 30,
                          "range" : [ 4044, 30]
                        },
                        {
                          "endTime" : 5505,
                          "duration" : 30,
                          "range" : [ 5475, 30]
                        },
                        {
                          "endTime" : 5539,
                          "duration" : 30,
                          "range" : [ 5509, 30]
                        },
                        {
                          "endTime" : 5948,
                          "duration" : 33,
                          "range" : [ 5915, 33]
                        },
                        {
                          "endTime" : 5986,
                          "duration" : 34,
                          "range" : [ 5952, 34]
                        },
                        {
                          "endTime" : 6175,
                          "duration" : 30,
                          "range" : [ 6145, 30]
                        }
                      ]
                    }
                  },
                  {
                    "id" : 349,
                    "_type" : "StitchedMedia",
                    "minMediaStart" : 0,
                    "attributes" : {
                      "ident" : "hijacking_ntfs_structs_attack_prevention",
                      "gain" : 1.0,
                      "mixToMono" : false
                    },
                    "parameters" : {
                      "translation0" : {
                        "type" : "double",
                        "defaultValue" : 0.0,
                        "keyframes" : [
                          {
                            "endTime" : 1177,
                            "time" : 1147,
                            "value" : 948.478453192254,
                            "duration" : 30
                          },
                          {
                            "endTime" : 1449,
                            "time" : 1419,
                            "value" : 948.478364944437,
                            "duration" : 30
                          },
                          {
                            "endTime" : 2474,
                            "time" : 2444,
                            "value" : 5.6843418860808e-14,
                            "duration" : 30
                          },
                          {
                            "endTime" : 3259,
                            "time" : 3229,
                            "value" : -774.930172418836,
                            "duration" : 30
                          },
                          {
                            "endTime" : 3491,
                            "time" : 3461,
                            "value" : -774.930252849251,
                            "duration" : 30
                          },
                          {
                            "endTime" : 3865,
                            "time" : 3835,
                            "value" : 5.6843418860808e-14,
                            "duration" : 30
                          },
                          {
                            "endTime" : 3913,
                            "time" : 3883,
                            "value" : 1596.09769057838,
                            "duration" : 30
                          },
                          {
                            "endTime" : 4027,
                            "time" : 3997,
                            "value" : 2.27373675443232e-13,
                            "duration" : 30
                          },
                          {
                            "endTime" : 4074,
                            "time" : 4044,
                            "value" : -774.9,
                            "duration" : 30
                          },
                          {
                            "endTime" : 5505,
                            "time" : 5475,
                            "value" : -1.13686837721616e-13,
                            "duration" : 30
                          },
                          {
                            "endTime" : 5539,
                            "time" : 5509,
                            "value" : 1008.54947665046,
                            "duration" : 30
                          },
                          {
                            "endTime" : 5948,
                            "time" : 5915,
                            "value" : 1.13686837721616e-13,
                            "duration" : 33
                          },
                          {
                            "endTime" : 5986,
                            "time" : 5952,
                            "value" : -774.9,
                            "duration" : 34
                          },
                          {
                            "endTime" : 6175,
                            "time" : 6145,
                            "value" : -4.54747350886464e-13,
                            "duration" : 30
                          }
                        ]
                      },
                      "translation1" : {
                        "type" : "double",
                        "defaultValue" : 0.0,
                        "keyframes" : [
                          {
                            "endTime" : 1177,
                            "time" : 1147,
                            "value" : -426.526455592595,
                            "duration" : 30
                          },
                          {
                            "endTime" : 1449,
                            "time" : 1419,
                            "value" : -100.3,
                            "duration" : 30
                          },
                          {
                            "endTime" : 2474,
                            "time" : 2444,
                            "value" : -4.9737991503207e-14,
                            "duration" : 30
                          },
                          {
                            "endTime" : 3259,
                            "time" : 3229,
                            "value" : -101.709492105514,
                            "duration" : 30
                          },
                          {
                            "endTime" : 3491,
                            "time" : 3461,
                            "value" : 427.4,
                            "duration" : 30
                          },
                          {
                            "endTime" : 3865,
                            "time" : 3835,
                            "value" : -5.6843418860808e-14,
                            "duration" : 30
                          },
                          {
                            "endTime" : 3913,
                            "time" : 3883,
                            "value" : -743.478440251836,
                            "duration" : 30
                          },
                          {
                            "endTime" : 4027,
                            "time" : 3997,
                            "value" : 1.13686837721616e-13,
                            "duration" : 30
                          },
                          {
                            "endTime" : 4074,
                            "time" : 4044,
                            "value" : 427.4,
                            "duration" : 30
                          },
                          {
                            "endTime" : 5505,
                            "time" : 5475,
                            "value" : -5.6843418860808e-14,
                            "duration" : 30
                          },
                          {
                            "endTime" : 5539,
                            "time" : 5509,
                            "value" : -303.704938962414,
                            "duration" : 30
                          },
                          {
                            "endTime" : 5948,
                            "time" : 5915,
                            "value" : 2.8421709430404e-14,
                            "duration" : 33
                          },
                          {
                            "endTime" : 5986,
                            "time" : 5952,
                            "value" : 427.4,
                            "duration" : 34
                          },
                          {
                            "endTime" : 6175,
                            "time" : 6145,
                            "value" : 1.13686837721616e-13,
                            "duration" : 30
                          }
                        ]
                      },
                      "scale0" : {
                        "type" : "double",
                        "defaultValue" : 1.0,
                        "keyframes" : [
                          {
                            "endTime" : 1177,
                            "time" : 1147,
                            "value" : 1.98900262241215,
                            "duration" : 30
                          },
                          {
                            "endTime" : 2474,
                            "time" : 2444,
                            "value" : 0.999999767628522,
                            "duration" : 30
                          },
                          {
                            "endTime" : 3259,
                            "time" : 3229,
                            "value" : 2.22091728725881,
                            "duration" : 30
                          },
                          {
                            "endTime" : 3491,
                            "time" : 3461,
                            "value" : 2.22091757221115,
                            "duration" : 30
                          },
                          {
                            "endTime" : 3865,
                            "time" : 3835,
                            "value" : 0.999999908672186,
                            "duration" : 30
                          },
                          {
                            "endTime" : 3913,
                            "time" : 3883,
                            "value" : 2.30317149661612,
                            "duration" : 30
                          },
                          {
                            "endTime" : 4027,
                            "time" : 3997,
                            "value" : 0.999999941772713,
                            "duration" : 30
                          },
                          {
                            "endTime" : 4074,
                            "time" : 4044,
                            "value" : 2.22099983278936,
                            "duration" : 30
                          },
                          {
                            "endTime" : 5505,
                            "time" : 5475,
                            "value" : 0.999999924713804,
                            "duration" : 30
                          },
                          {
                            "endTime" : 5539,
                            "time" : 5509,
                            "value" : 1.79597357660838,
                            "duration" : 30
                          },
                          {
                            "endTime" : 5948,
                            "time" : 5915,
                            "value" : 0.999999726659192,
                            "duration" : 33
                          },
                          {
                            "endTime" : 5986,
                            "time" : 5952,
                            "value" : 2.22099913073333,
                            "duration" : 34
                          },
                          {
                            "endTime" : 6175,
                            "time" : 6145,
                            "value" : 0.999999608614738,
                            "duration" : 30
                          }
                        ]
                      },
                      "scale1" : {
                        "type" : "double",
                        "defaultValue" : 1.0,
                        "keyframes" : [
                          {
                            "endTime" : 1177,
                            "time" : 1147,
                            "value" : 1.98900308459974,
                            "duration" : 30
                          },
                          {
                            "endTime" : 2474,
                            "time" : 2444,
                            "value" : 1.0,
                            "duration" : 30
                          },
                          {
                            "endTime" : 3259,
                            "time" : 3229,
                            "value" : 2.22091777504271,
                            "duration" : 30
                          },
                          {
                            "endTime" : 3865,
                            "time" : 3835,
                            "value" : 1.0,
                            "duration" : 30
                          },
                          {
                            "endTime" : 3913,
                            "time" : 3883,
                            "value" : 2.30317163072356,
                            "duration" : 30
                          },
                          {
                            "endTime" : 4027,
                            "time" : 3997,
                            "value" : 1.0,
                            "duration" : 30
                          },
                          {
                            "endTime" : 4074,
                            "time" : 4044,
                            "value" : 2.221,
                            "duration" : 30
                          },
                          {
                            "endTime" : 5505,
                            "time" : 5475,
                            "value" : 1.0,
                            "duration" : 30
                          },
                          {
                            "endTime" : 5539,
                            "time" : 5509,
                            "value" : 1.79597406752138,
                            "duration" : 30
                          },
                          {
                            "endTime" : 5948,
                            "time" : 5915,
                            "value" : 1.0,
                            "duration" : 33
                          },
                          {
                            "endTime" : 5986,
                            "time" : 5952,
                            "value" : 2.221,
                            "duration" : 34
                          },
                          {
                            "endTime" : 6175,
                            "time" : 6145,
                            "value" : 1.0,
                            "duration" : 30
                          }
                        ]
                      },
                      "cursorOpacity" : 1.0,
                      "cursorScale" : 1.0
                    },
                    "medias" : [
                        {
                          "id" : 350,
                          "_type" : "ScreenVMFile",
                          "src" : 1,
                          "trackNumber" : 0,
                          "attributes" : {
                            "ident" : "hijacking_ntfs_structs_attack_prevention"
                          },
                          "parameters" : {
                            "cursorScale" : {
                              "type" : "double",
                              "defaultValue" : 0.0,
                              "interp" : "linr"
                            },
                            "cursorOpacity" : {
                              "type" : "double",
                              "defaultValue" : 0.0,
                              "interp" : "linr"
                            }
                          },
                          "effects" : [

                          ],
                          "start" : 0,
                          "duration" : 1620,
                          "mediaStart" : 0,
                          "mediaDuration" : 1620,
                          "scalar" : 1,
                          "metadata" : {
                            "AutoAppliedSmartFocus" : "False",
                            "clipSpeedAttribute" : false,
                            "default-scale0" : 1.0,
                            "default-scale1" : 1.0,
                            "default-translation0" : 0.0,
                            "default-translation1" : 0.0
                          },
                          "animationTracks" : {

                          }
                        },
                        {
                          "id" : 351,
                          "_type" : "ScreenIMFile",
                          "src" : 1,
                          "trackNumber" : 0,
                          "trimStartSum" : 0,
                          "attributes" : {
                            "ident" : "hijacking_ntfs_structs_attack_prevention"
                          },
                          "parameters" : {
                            "cursorOpacity" : 0.0,
                            "cursorScale" : 0.0
                          },
                          "effects" : [

                          ],
                          "start" : 1620,
                          "duration" : 30,
                          "mediaStart" : 1619,
                          "mediaDuration" : 1,
                          "scalar" : 1,
                          "metadata" : {
                            "AutoAppliedSmartFocus" : "False"
                          },
                          "animationTracks" : {

                          }
                        },
                        {
                          "id" : 352,
                          "_type" : "ScreenVMFile",
                          "src" : 1,
                          "trackNumber" : 0,
                          "attributes" : {
                            "ident" : "hijacking_ntfs_structs_attack_prevention"
                          },
                          "parameters" : {
                            "cursorScale" : {
                              "type" : "double",
                              "defaultValue" : 0.0,
                              "interp" : "linr"
                            },
                            "cursorOpacity" : {
                              "type" : "double",
                              "defaultValue" : 0.0,
                              "interp" : "linr"
                            }
                          },
                          "effects" : [

                          ],
                          "start" : 1650,
                          "duration" : 749,
                          "mediaStart" : 1620,
                          "mediaDuration" : 749,
                          "scalar" : 1,
                          "metadata" : {
                            "AutoAppliedSmartFocus" : "False",
                            "clipSpeedAttribute" : false,
                            "default-scale0" : 1.0,
                            "default-scale1" : 1.0,
                            "default-translation0" : 0.0,
                            "default-translation1" : 0.0
                          },
                          "animationTracks" : {

                          }
                        },
                        {
                          "id" : 353,
                          "_type" : "ScreenIMFile",
                          "src" : 1,
                          "trackNumber" : 0,
                          "trimStartSum" : 0,
                          "attributes" : {
                            "ident" : "hijacking_ntfs_structs_attack_prevention"
                          },
                          "parameters" : {
                            "cursorOpacity" : 0.0,
                            "cursorScale" : 0.0
                          },
                          "effects" : [

                          ],
                          "start" : 2399,
                          "duration" : 30,
                          "mediaStart" : 2369,
                          "mediaDuration" : 1,
                          "scalar" : 1,
                          "metadata" : {
                            "AutoAppliedSmartFocus" : "False"
                          },
                          "animationTracks" : {

                          }
                        },
                        {
                          "id" : 354,
                          "_type" : "ScreenVMFile",
                          "src" : 1,
                          "trackNumber" : 0,
                          "attributes" : {
                            "ident" : "hijacking_ntfs_structs_attack_prevention"
                          },
                          "parameters" : {
                            "cursorScale" : {
                              "type" : "double",
                              "defaultValue" : 0.0,
                              "interp" : "linr"
                            },
                            "cursorOpacity" : {
                              "type" : "double",
                              "defaultValue" : 0.0,
                              "interp" : "linr"
                            }
                          },
                          "effects" : [

                          ],
                          "start" : 2429,
                          "duration" : 67,
                          "mediaStart" : 2369,
                          "mediaDuration" : 67,
                          "scalar" : 1,
                          "metadata" : {
                            "AutoAppliedSmartFocus" : "False",
                            "clipSpeedAttribute" : false,
                            "default-scale0" : 1.0,
                            "default-scale1" : 1.0,
                            "default-translation0" : 0.0,
                            "default-translation1" : 0.0
                          },
                          "animationTracks" : {

                          }
                        },
                        {
                          "id" : 355,
                          "_type" : "ScreenIMFile",
                          "src" : 1,
                          "trackNumber" : 0,
                          "trimStartSum" : 0,
                          "attributes" : {
                            "ident" : "hijacking_ntfs_structs_attack_prevention"
                          },
                          "parameters" : {
                            "cursorOpacity" : 0.0,
                            "cursorScale" : 0.0
                          },
                          "effects" : [

                          ],
                          "start" : 2496,
                          "duration" : 60,
                          "mediaStart" : 2436,
                          "mediaDuration" : 1,
                          "scalar" : 1,
                          "metadata" : {
                            "AutoAppliedSmartFocus" : "False"
                          },
                          "animationTracks" : {

                          }
                        },
                        {
                          "id" : 356,
                          "_type" : "ScreenVMFile",
                          "src" : 1,
                          "trackNumber" : 0,
                          "attributes" : {
                            "ident" : "hijacking_ntfs_structs_attack_prevention"
                          },
                          "parameters" : {
                            "cursorScale" : {
                              "type" : "double",
                              "defaultValue" : 0.0,
                              "interp" : "linr"
                            },
                            "cursorOpacity" : {
                              "type" : "double",
                              "defaultValue" : 0.0,
                              "interp" : "linr"
                            }
                          },
                          "effects" : [

                          ],
                          "start" : 2556,
                          "duration" : 3180,
                          "mediaStart" : 2436,
                          "mediaDuration" : 3180,
                          "scalar" : 1,
                          "metadata" : {
                            "AutoAppliedSmartFocus" : "False",
                            "clipSpeedAttribute" : false,
                            "default-scale0" : 1.0,
                            "default-scale1" : 1.0,
                            "default-translation0" : 0.0,
                            "default-translation1" : 0.0
                          },
                          "animationTracks" : {

                          }
                        },
                        {
                          "id" : 357,
                          "_type" : "ScreenIMFile",
                          "src" : 1,
                          "trackNumber" : 0,
                          "trimStartSum" : 0,
                          "attributes" : {
                            "ident" : "hijacking_ntfs_structs_attack_prevention"
                          },
                          "parameters" : {
                            "cursorOpacity" : 0.0,
                            "cursorScale" : 0.0
                          },
                          "effects" : [

                          ],
                          "start" : 5736,
                          "duration" : 45,
                          "mediaStart" : 5616,
                          "mediaDuration" : 1,
                          "scalar" : 1,
                          "metadata" : {
                            "AutoAppliedSmartFocus" : "False"
                          },
                          "animationTracks" : {

                          }
                        },
                        {
                          "id" : 358,
                          "_type" : "ScreenVMFile",
                          "src" : 1,
                          "trackNumber" : 0,
                          "attributes" : {
                            "ident" : "hijacking_ntfs_structs_attack_prevention"
                          },
                          "parameters" : {
                            "cursorScale" : {
                              "type" : "double",
                              "defaultValue" : 0.0,
                              "interp" : "linr"
                            },
                            "cursorOpacity" : {
                              "type" : "double",
                              "defaultValue" : 0.0,
                              "interp" : "linr"
                            }
                          },
                          "effects" : [

                          ],
                          "start" : 5781,
                          "duration" : 1417,
                          "mediaStart" : 5616,
                          "mediaDuration" : 1417,
                          "scalar" : 1,
                          "metadata" : {
                            "AutoAppliedSmartFocus" : "False",
                            "clipSpeedAttribute" : false,
                            "default-scale0" : 1.0,
                            "default-scale1" : 1.0,
                            "default-translation0" : 0.0,
                            "default-translation1" : 0.0
                          },
                          "animationTracks" : {

                          }
                        }
                    ],
                    "effects" : [
                        {
                          "effectName" : "CursorHilight",
                          "category" : "categoryCursorEffects",
                          "parameters" : {
                            "blur" : 0.1,
                            "color-alpha" : 0.75,
                            "color-blue" : 0.0,
                            "color-green" : 1.0,
                            "color-red" : 1.0,
                            "radius" : 50.0
                          }
                        }
                    ],
                    "start" : 3318,
                    "duration" : 27,
                    "mediaStart" : 6263,
                    "mediaDuration" : 77,
                    "scalar" : "27/77",
                    "metadata" : {
                      "AutoAppliedSmartFocus" : "False",
                      "clipSpeedAttribute" : true,
                      "default-scale0" : 1.79597357660838,
                      "default-scale1" : 1.79597406752138,
                      "default-translation0" : 1008.54947665046,
                      "default-translation1" : -303.704938962414
                    },
                    "animationTracks" : {
                      "visual" : [
                        {
                          "endTime" : 1177,
                          "duration" : 30,
                          "range" : [ 1147, 30]
                        },
                        {
                          "endTime" : 1449,
                          "duration" : 30,
                          "range" : [ 1419, 30]
                        },
                        {
                          "endTime" : 2474,
                          "duration" : 30,
                          "range" : [ 2444, 30]
                        },
                        {
                          "endTime" : 3259,
                          "duration" : 30,
                          "range" : [ 3229, 30]
                        },
                        {
                          "endTime" : 3491,
                          "duration" : 30,
                          "range" : [ 3461, 30]
                        },
                        {
                          "endTime" : 3865,
                          "duration" : 30,
                          "range" : [ 3835, 30]
                        },
                        {
                          "endTime" : 3913,
                          "duration" : 30,
                          "range" : [ 3883, 30]
                        },
                        {
                          "endTime" : 4027,
                          "duration" : 30,
                          "range" : [ 3997, 30]
                        },
                        {
                          "endTime" : 4074,
                          "duration" : 30,
                          "range" : [ 4044, 30]
                        },
                        {
                          "endTime" : 5505,
                          "duration" : 30,
                          "range" : [ 5475, 30]
                        },
                        {
                          "endTime" : 5539,
                          "duration" : 30,
                          "range" : [ 5509, 30]
                        },
                        {
                          "endTime" : 5948,
                          "duration" : 33,
                          "range" : [ 5915, 33]
                        },
                        {
                          "endTime" : 5986,
                          "duration" : 34,
                          "range" : [ 5952, 34]
                        },
                        {
                          "endTime" : 6175,
                          "duration" : 30,
                          "range" : [ 6145, 30]
                        }
                      ]
                    }
                  },
                  {
                    "id" : 359,
                    "_type" : "StitchedMedia",
                    "minMediaStart" : 0,
                    "attributes" : {
                      "ident" : "hijacking_ntfs_structs_attack_prevention",
                      "gain" : 1.0,
                      "mixToMono" : false
                    },
                    "parameters" : {
                      "translation0" : {
                        "type" : "double",
                        "defaultValue" : 0.0,
                        "keyframes" : [
                          {
                            "endTime" : 1177,
                            "time" : 1147,
                            "value" : 948.478453192254,
                            "duration" : 30
                          },
                          {
                            "endTime" : 1449,
                            "time" : 1419,
                            "value" : 948.478364944437,
                            "duration" : 30
                          },
                          {
                            "endTime" : 2474,
                            "time" : 2444,
                            "value" : 5.6843418860808e-14,
                            "duration" : 30
                          },
                          {
                            "endTime" : 3259,
                            "time" : 3229,
                            "value" : -774.930172418836,
                            "duration" : 30
                          },
                          {
                            "endTime" : 3491,
                            "time" : 3461,
                            "value" : -774.930252849251,
                            "duration" : 30
                          },
                          {
                            "endTime" : 3865,
                            "time" : 3835,
                            "value" : 5.6843418860808e-14,
                            "duration" : 30
                          },
                          {
                            "endTime" : 3913,
                            "time" : 3883,
                            "value" : 1596.09769057838,
                            "duration" : 30
                          },
                          {
                            "endTime" : 4027,
                            "time" : 3997,
                            "value" : 2.27373675443232e-13,
                            "duration" : 30
                          },
                          {
                            "endTime" : 4074,
                            "time" : 4044,
                            "value" : -774.9,
                            "duration" : 30
                          },
                          {
                            "endTime" : 5505,
                            "time" : 5475,
                            "value" : -1.13686837721616e-13,
                            "duration" : 30
                          },
                          {
                            "endTime" : 5539,
                            "time" : 5509,
                            "value" : 1008.54947665046,
                            "duration" : 30
                          },
                          {
                            "endTime" : 5948,
                            "time" : 5915,
                            "value" : 1.13686837721616e-13,
                            "duration" : 33
                          },
                          {
                            "endTime" : 5986,
                            "time" : 5952,
                            "value" : -774.9,
                            "duration" : 34
                          },
                          {
                            "endTime" : 6175,
                            "time" : 6145,
                            "value" : -4.54747350886464e-13,
                            "duration" : 30
                          }
                        ]
                      },
                      "translation1" : {
                        "type" : "double",
                        "defaultValue" : 0.0,
                        "keyframes" : [
                          {
                            "endTime" : 1177,
                            "time" : 1147,
                            "value" : -426.526455592595,
                            "duration" : 30
                          },
                          {
                            "endTime" : 1449,
                            "time" : 1419,
                            "value" : -100.3,
                            "duration" : 30
                          },
                          {
                            "endTime" : 2474,
                            "time" : 2444,
                            "value" : -4.9737991503207e-14,
                            "duration" : 30
                          },
                          {
                            "endTime" : 3259,
                            "time" : 3229,
                            "value" : -101.709492105514,
                            "duration" : 30
                          },
                          {
                            "endTime" : 3491,
                            "time" : 3461,
                            "value" : 427.4,
                            "duration" : 30
                          },
                          {
                            "endTime" : 3865,
                            "time" : 3835,
                            "value" : -5.6843418860808e-14,
                            "duration" : 30
                          },
                          {
                            "endTime" : 3913,
                            "time" : 3883,
                            "value" : -743.478440251836,
                            "duration" : 30
                          },
                          {
                            "endTime" : 4027,
                            "time" : 3997,
                            "value" : 1.13686837721616e-13,
                            "duration" : 30
                          },
                          {
                            "endTime" : 4074,
                            "time" : 4044,
                            "value" : 427.4,
                            "duration" : 30
                          },
                          {
                            "endTime" : 5505,
                            "time" : 5475,
                            "value" : -5.6843418860808e-14,
                            "duration" : 30
                          },
                          {
                            "endTime" : 5539,
                            "time" : 5509,
                            "value" : -303.704938962414,
                            "duration" : 30
                          },
                          {
                            "endTime" : 5948,
                            "time" : 5915,
                            "value" : 2.8421709430404e-14,
                            "duration" : 33
                          },
                          {
                            "endTime" : 5986,
                            "time" : 5952,
                            "value" : 427.4,
                            "duration" : 34
                          },
                          {
                            "endTime" : 6175,
                            "time" : 6145,
                            "value" : 1.13686837721616e-13,
                            "duration" : 30
                          }
                        ]
                      },
                      "scale0" : {
                        "type" : "double",
                        "defaultValue" : 1.0,
                        "keyframes" : [
                          {
                            "endTime" : 1177,
                            "time" : 1147,
                            "value" : 1.98900262241215,
                            "duration" : 30
                          },
                          {
                            "endTime" : 2474,
                            "time" : 2444,
                            "value" : 0.999999767628522,
                            "duration" : 30
                          },
                          {
                            "endTime" : 3259,
                            "time" : 3229,
                            "value" : 2.22091728725881,
                            "duration" : 30
                          },
                          {
                            "endTime" : 3491,
                            "time" : 3461,
                            "value" : 2.22091757221115,
                            "duration" : 30
                          },
                          {
                            "endTime" : 3865,
                            "time" : 3835,
                            "value" : 0.999999908672186,
                            "duration" : 30
                          },
                          {
                            "endTime" : 3913,
                            "time" : 3883,
                            "value" : 2.30317149661612,
                            "duration" : 30
                          },
                          {
                            "endTime" : 4027,
                            "time" : 3997,
                            "value" : 0.999999941772713,
                            "duration" : 30
                          },
                          {
                            "endTime" : 4074,
                            "time" : 4044,
                            "value" : 2.22099983278936,
                            "duration" : 30
                          },
                          {
                            "endTime" : 5505,
                            "time" : 5475,
                            "value" : 0.999999924713804,
                            "duration" : 30
                          },
                          {
                            "endTime" : 5539,
                            "time" : 5509,
                            "value" : 1.79597357660838,
                            "duration" : 30
                          },
                          {
                            "endTime" : 5948,
                            "time" : 5915,
                            "value" : 0.999999726659192,
                            "duration" : 33
                          },
                          {
                            "endTime" : 5986,
                            "time" : 5952,
                            "value" : 2.22099913073333,
                            "duration" : 34
                          },
                          {
                            "endTime" : 6175,
                            "time" : 6145,
                            "value" : 0.999999608614738,
                            "duration" : 30
                          }
                        ]
                      },
                      "scale1" : {
                        "type" : "double",
                        "defaultValue" : 1.0,
                        "keyframes" : [
                          {
                            "endTime" : 1177,
                            "time" : 1147,
                            "value" : 1.98900308459974,
                            "duration" : 30
                          },
                          {
                            "endTime" : 2474,
                            "time" : 2444,
                            "value" : 1.0,
                            "duration" : 30
                          },
                          {
                            "endTime" : 3259,
                            "time" : 3229,
                            "value" : 2.22091777504271,
                            "duration" : 30
                          },
                          {
                            "endTime" : 3865,
                            "time" : 3835,
                            "value" : 1.0,
                            "duration" : 30
                          },
                          {
                            "endTime" : 3913,
                            "time" : 3883,
                            "value" : 2.30317163072356,
                            "duration" : 30
                          },
                          {
                            "endTime" : 4027,
                            "time" : 3997,
                            "value" : 1.0,
                            "duration" : 30
                          },
                          {
                            "endTime" : 4074,
                            "time" : 4044,
                            "value" : 2.221,
                            "duration" : 30
                          },
                          {
                            "endTime" : 5505,
                            "time" : 5475,
                            "value" : 1.0,
                            "duration" : 30
                          },
                          {
                            "endTime" : 5539,
                            "time" : 5509,
                            "value" : 1.79597406752138,
                            "duration" : 30
                          },
                          {
                            "endTime" : 5948,
                            "time" : 5915,
                            "value" : 1.0,
                            "duration" : 33
                          },
                          {
                            "endTime" : 5986,
                            "time" : 5952,
                            "value" : 2.221,
                            "duration" : 34
                          },
                          {
                            "endTime" : 6175,
                            "time" : 6145,
                            "value" : 1.0,
                            "duration" : 30
                          }
                        ]
                      },
                      "cursorOpacity" : 1.0,
                      "cursorScale" : 1.0
                    },
                    "medias" : [
                        {
                          "id" : 360,
                          "_type" : "ScreenVMFile",
                          "src" : 1,
                          "trackNumber" : 0,
                          "attributes" : {
                            "ident" : "hijacking_ntfs_structs_attack_prevention"
                          },
                          "parameters" : {
                            "cursorScale" : {
                              "type" : "double",
                              "defaultValue" : 0.0,
                              "interp" : "linr"
                            },
                            "cursorOpacity" : {
                              "type" : "double",
                              "defaultValue" : 0.0,
                              "interp" : "linr"
                            }
                          },
                          "effects" : [

                          ],
                          "start" : 0,
                          "duration" : 1620,
                          "mediaStart" : 0,
                          "mediaDuration" : 1620,
                          "scalar" : 1,
                          "metadata" : {
                            "AutoAppliedSmartFocus" : "False",
                            "clipSpeedAttribute" : false,
                            "default-scale0" : 1.0,
                            "default-scale1" : 1.0,
                            "default-translation0" : 0.0,
                            "default-translation1" : 0.0
                          },
                          "animationTracks" : {

                          }
                        },
                        {
                          "id" : 361,
                          "_type" : "ScreenIMFile",
                          "src" : 1,
                          "trackNumber" : 0,
                          "trimStartSum" : 0,
                          "attributes" : {
                            "ident" : "hijacking_ntfs_structs_attack_prevention"
                          },
                          "parameters" : {
                            "cursorOpacity" : 0.0,
                            "cursorScale" : 0.0
                          },
                          "effects" : [

                          ],
                          "start" : 1620,
                          "duration" : 30,
                          "mediaStart" : 1619,
                          "mediaDuration" : 1,
                          "scalar" : 1,
                          "metadata" : {
                            "AutoAppliedSmartFocus" : "False"
                          },
                          "animationTracks" : {

                          }
                        },
                        {
                          "id" : 362,
                          "_type" : "ScreenVMFile",
                          "src" : 1,
                          "trackNumber" : 0,
                          "attributes" : {
                            "ident" : "hijacking_ntfs_structs_attack_prevention"
                          },
                          "parameters" : {
                            "cursorScale" : {
                              "type" : "double",
                              "defaultValue" : 0.0,
                              "interp" : "linr"
                            },
                            "cursorOpacity" : {
                              "type" : "double",
                              "defaultValue" : 0.0,
                              "interp" : "linr"
                            }
                          },
                          "effects" : [

                          ],
                          "start" : 1650,
                          "duration" : 749,
                          "mediaStart" : 1620,
                          "mediaDuration" : 749,
                          "scalar" : 1,
                          "metadata" : {
                            "AutoAppliedSmartFocus" : "False",
                            "clipSpeedAttribute" : false,
                            "default-scale0" : 1.0,
                            "default-scale1" : 1.0,
                            "default-translation0" : 0.0,
                            "default-translation1" : 0.0
                          },
                          "animationTracks" : {

                          }
                        },
                        {
                          "id" : 363,
                          "_type" : "ScreenIMFile",
                          "src" : 1,
                          "trackNumber" : 0,
                          "trimStartSum" : 0,
                          "attributes" : {
                            "ident" : "hijacking_ntfs_structs_attack_prevention"
                          },
                          "parameters" : {
                            "cursorOpacity" : 0.0,
                            "cursorScale" : 0.0
                          },
                          "effects" : [

                          ],
                          "start" : 2399,
                          "duration" : 30,
                          "mediaStart" : 2369,
                          "mediaDuration" : 1,
                          "scalar" : 1,
                          "metadata" : {
                            "AutoAppliedSmartFocus" : "False"
                          },
                          "animationTracks" : {

                          }
                        },
                        {
                          "id" : 364,
                          "_type" : "ScreenVMFile",
                          "src" : 1,
                          "trackNumber" : 0,
                          "attributes" : {
                            "ident" : "hijacking_ntfs_structs_attack_prevention"
                          },
                          "parameters" : {
                            "cursorScale" : {
                              "type" : "double",
                              "defaultValue" : 0.0,
                              "interp" : "linr"
                            },
                            "cursorOpacity" : {
                              "type" : "double",
                              "defaultValue" : 0.0,
                              "interp" : "linr"
                            }
                          },
                          "effects" : [

                          ],
                          "start" : 2429,
                          "duration" : 67,
                          "mediaStart" : 2369,
                          "mediaDuration" : 67,
                          "scalar" : 1,
                          "metadata" : {
                            "AutoAppliedSmartFocus" : "False",
                            "clipSpeedAttribute" : false,
                            "default-scale0" : 1.0,
                            "default-scale1" : 1.0,
                            "default-translation0" : 0.0,
                            "default-translation1" : 0.0
                          },
                          "animationTracks" : {

                          }
                        },
                        {
                          "id" : 365,
                          "_type" : "ScreenIMFile",
                          "src" : 1,
                          "trackNumber" : 0,
                          "trimStartSum" : 0,
                          "attributes" : {
                            "ident" : "hijacking_ntfs_structs_attack_prevention"
                          },
                          "parameters" : {
                            "cursorOpacity" : 0.0,
                            "cursorScale" : 0.0
                          },
                          "effects" : [

                          ],
                          "start" : 2496,
                          "duration" : 60,
                          "mediaStart" : 2436,
                          "mediaDuration" : 1,
                          "scalar" : 1,
                          "metadata" : {
                            "AutoAppliedSmartFocus" : "False"
                          },
                          "animationTracks" : {

                          }
                        },
                        {
                          "id" : 366,
                          "_type" : "ScreenVMFile",
                          "src" : 1,
                          "trackNumber" : 0,
                          "attributes" : {
                            "ident" : "hijacking_ntfs_structs_attack_prevention"
                          },
                          "parameters" : {
                            "cursorScale" : {
                              "type" : "double",
                              "defaultValue" : 0.0,
                              "interp" : "linr"
                            },
                            "cursorOpacity" : {
                              "type" : "double",
                              "defaultValue" : 0.0,
                              "interp" : "linr"
                            }
                          },
                          "effects" : [

                          ],
                          "start" : 2556,
                          "duration" : 3180,
                          "mediaStart" : 2436,
                          "mediaDuration" : 3180,
                          "scalar" : 1,
                          "metadata" : {
                            "AutoAppliedSmartFocus" : "False",
                            "clipSpeedAttribute" : false,
                            "default-scale0" : 1.0,
                            "default-scale1" : 1.0,
                            "default-translation0" : 0.0,
                            "default-translation1" : 0.0
                          },
                          "animationTracks" : {

                          }
                        },
                        {
                          "id" : 367,
                          "_type" : "ScreenIMFile",
                          "src" : 1,
                          "trackNumber" : 0,
                          "trimStartSum" : 0,
                          "attributes" : {
                            "ident" : "hijacking_ntfs_structs_attack_prevention"
                          },
                          "parameters" : {
                            "cursorOpacity" : 0.0,
                            "cursorScale" : 0.0
                          },
                          "effects" : [

                          ],
                          "start" : 5736,
                          "duration" : 45,
                          "mediaStart" : 5616,
                          "mediaDuration" : 1,
                          "scalar" : 1,
                          "metadata" : {
                            "AutoAppliedSmartFocus" : "False"
                          },
                          "animationTracks" : {

                          }
                        },
                        {
                          "id" : 368,
                          "_type" : "ScreenVMFile",
                          "src" : 1,
                          "trackNumber" : 0,
                          "attributes" : {
                            "ident" : "hijacking_ntfs_structs_attack_prevention"
                          },
                          "parameters" : {
                            "cursorScale" : {
                              "type" : "double",
                              "defaultValue" : 0.0,
                              "interp" : "linr"
                            },
                            "cursorOpacity" : {
                              "type" : "double",
                              "defaultValue" : 0.0,
                              "interp" : "linr"
                            }
                          },
                          "effects" : [

                          ],
                          "start" : 5781,
                          "duration" : 1417,
                          "mediaStart" : 5616,
                          "mediaDuration" : 1417,
                          "scalar" : 1,
                          "metadata" : {
                            "AutoAppliedSmartFocus" : "False",
                            "clipSpeedAttribute" : false,
                            "default-scale0" : 1.0,
                            "default-scale1" : 1.0,
                            "default-translation0" : 0.0,
                            "default-translation1" : 0.0
                          },
                          "animationTracks" : {

                          }
                        }
                    ],
                    "effects" : [
                        {
                          "effectName" : "CursorHilight",
                          "category" : "categoryCursorEffects",
                          "parameters" : {
                            "blur" : 0.1,
                            "color-alpha" : 0.75,
                            "color-blue" : 0.0,
                            "color-green" : 1.0,
                            "color-red" : 1.0,
                            "radius" : 50.0
                          }
                        }
                    ],
                    "start" : 3345,
                    "duration" : 36,
                    "mediaStart" : 6487,
                    "mediaDuration" : 76,
                    "scalar" : "9/19",
                    "metadata" : {
                      "AutoAppliedSmartFocus" : "False",
                      "clipSpeedAttribute" : true,
                      "default-scale0" : 1.79597357660838,
                      "default-scale1" : 1.79597406752138,
                      "default-translation0" : 1008.54947665046,
                      "default-translation1" : -303.704938962414
                    },
                    "animationTracks" : {
                      "visual" : [
                        {
                          "endTime" : 1177,
                          "duration" : 30,
                          "range" : [ 1147, 30]
                        },
                        {
                          "endTime" : 1449,
                          "duration" : 30,
                          "range" : [ 1419, 30]
                        },
                        {
                          "endTime" : 2474,
                          "duration" : 30,
                          "range" : [ 2444, 30]
                        },
                        {
                          "endTime" : 3259,
                          "duration" : 30,
                          "range" : [ 3229, 30]
                        },
                        {
                          "endTime" : 3491,
                          "duration" : 30,
                          "range" : [ 3461, 30]
                        },
                        {
                          "endTime" : 3865,
                          "duration" : 30,
                          "range" : [ 3835, 30]
                        },
                        {
                          "endTime" : 3913,
                          "duration" : 30,
                          "range" : [ 3883, 30]
                        },
                        {
                          "endTime" : 4027,
                          "duration" : 30,
                          "range" : [ 3997, 30]
                        },
                        {
                          "endTime" : 4074,
                          "duration" : 30,
                          "range" : [ 4044, 30]
                        },
                        {
                          "endTime" : 5505,
                          "duration" : 30,
                          "range" : [ 5475, 30]
                        },
                        {
                          "endTime" : 5539,
                          "duration" : 30,
                          "range" : [ 5509, 30]
                        },
                        {
                          "endTime" : 5948,
                          "duration" : 33,
                          "range" : [ 5915, 33]
                        },
                        {
                          "endTime" : 5986,
                          "duration" : 34,
                          "range" : [ 5952, 34]
                        },
                        {
                          "endTime" : 6175,
                          "duration" : 30,
                          "range" : [ 6145, 30]
                        }
                      ]
                    }
                  },
                  {
                    "id" : 369,
                    "_type" : "StitchedMedia",
                    "minMediaStart" : 0,
                    "attributes" : {
                      "ident" : "hijacking_ntfs_structs_attack_prevention",
                      "gain" : 1.0,
                      "mixToMono" : false
                    },
                    "parameters" : {
                      "translation0" : {
                        "type" : "double",
                        "defaultValue" : 0.0,
                        "keyframes" : [
                          {
                            "endTime" : 1177,
                            "time" : 1147,
                            "value" : 948.478453192254,
                            "duration" : 30
                          },
                          {
                            "endTime" : 1449,
                            "time" : 1419,
                            "value" : 948.478364944437,
                            "duration" : 30
                          },
                          {
                            "endTime" : 2474,
                            "time" : 2444,
                            "value" : 5.6843418860808e-14,
                            "duration" : 30
                          },
                          {
                            "endTime" : 3259,
                            "time" : 3229,
                            "value" : -774.930172418836,
                            "duration" : 30
                          },
                          {
                            "endTime" : 3491,
                            "time" : 3461,
                            "value" : -774.930252849251,
                            "duration" : 30
                          },
                          {
                            "endTime" : 3865,
                            "time" : 3835,
                            "value" : 5.6843418860808e-14,
                            "duration" : 30
                          },
                          {
                            "endTime" : 3913,
                            "time" : 3883,
                            "value" : 1596.09769057838,
                            "duration" : 30
                          },
                          {
                            "endTime" : 4027,
                            "time" : 3997,
                            "value" : 2.27373675443232e-13,
                            "duration" : 30
                          },
                          {
                            "endTime" : 4074,
                            "time" : 4044,
                            "value" : -774.9,
                            "duration" : 30
                          },
                          {
                            "endTime" : 5505,
                            "time" : 5475,
                            "value" : -1.13686837721616e-13,
                            "duration" : 30
                          },
                          {
                            "endTime" : 5539,
                            "time" : 5509,
                            "value" : 1008.54947665046,
                            "duration" : 30
                          },
                          {
                            "endTime" : 5948,
                            "time" : 5915,
                            "value" : 1.13686837721616e-13,
                            "duration" : 33
                          },
                          {
                            "endTime" : 5986,
                            "time" : 5952,
                            "value" : -774.9,
                            "duration" : 34
                          },
                          {
                            "endTime" : 6175,
                            "time" : 6145,
                            "value" : -4.54747350886464e-13,
                            "duration" : 30
                          }
                        ]
                      },
                      "translation1" : {
                        "type" : "double",
                        "defaultValue" : 0.0,
                        "keyframes" : [
                          {
                            "endTime" : 1177,
                            "time" : 1147,
                            "value" : -426.526455592595,
                            "duration" : 30
                          },
                          {
                            "endTime" : 1449,
                            "time" : 1419,
                            "value" : -100.3,
                            "duration" : 30
                          },
                          {
                            "endTime" : 2474,
                            "time" : 2444,
                            "value" : -4.9737991503207e-14,
                            "duration" : 30
                          },
                          {
                            "endTime" : 3259,
                            "time" : 3229,
                            "value" : -101.709492105514,
                            "duration" : 30
                          },
                          {
                            "endTime" : 3491,
                            "time" : 3461,
                            "value" : 427.4,
                            "duration" : 30
                          },
                          {
                            "endTime" : 3865,
                            "time" : 3835,
                            "value" : -5.6843418860808e-14,
                            "duration" : 30
                          },
                          {
                            "endTime" : 3913,
                            "time" : 3883,
                            "value" : -743.478440251836,
                            "duration" : 30
                          },
                          {
                            "endTime" : 4027,
                            "time" : 3997,
                            "value" : 1.13686837721616e-13,
                            "duration" : 30
                          },
                          {
                            "endTime" : 4074,
                            "time" : 4044,
                            "value" : 427.4,
                            "duration" : 30
                          },
                          {
                            "endTime" : 5505,
                            "time" : 5475,
                            "value" : -5.6843418860808e-14,
                            "duration" : 30
                          },
                          {
                            "endTime" : 5539,
                            "time" : 5509,
                            "value" : -303.704938962414,
                            "duration" : 30
                          },
                          {
                            "endTime" : 5948,
                            "time" : 5915,
                            "value" : 2.8421709430404e-14,
                            "duration" : 33
                          },
                          {
                            "endTime" : 5986,
                            "time" : 5952,
                            "value" : 427.4,
                            "duration" : 34
                          },
                          {
                            "endTime" : 6175,
                            "time" : 6145,
                            "value" : 1.13686837721616e-13,
                            "duration" : 30
                          }
                        ]
                      },
                      "scale0" : {
                        "type" : "double",
                        "defaultValue" : 1.0,
                        "keyframes" : [
                          {
                            "endTime" : 1177,
                            "time" : 1147,
                            "value" : 1.98900262241215,
                            "duration" : 30
                          },
                          {
                            "endTime" : 2474,
                            "time" : 2444,
                            "value" : 0.999999767628522,
                            "duration" : 30
                          },
                          {
                            "endTime" : 3259,
                            "time" : 3229,
                            "value" : 2.22091728725881,
                            "duration" : 30
                          },
                          {
                            "endTime" : 3491,
                            "time" : 3461,
                            "value" : 2.22091757221115,
                            "duration" : 30
                          },
                          {
                            "endTime" : 3865,
                            "time" : 3835,
                            "value" : 0.999999908672186,
                            "duration" : 30
                          },
                          {
                            "endTime" : 3913,
                            "time" : 3883,
                            "value" : 2.30317149661612,
                            "duration" : 30
                          },
                          {
                            "endTime" : 4027,
                            "time" : 3997,
                            "value" : 0.999999941772713,
                            "duration" : 30
                          },
                          {
                            "endTime" : 4074,
                            "time" : 4044,
                            "value" : 2.22099983278936,
                            "duration" : 30
                          },
                          {
                            "endTime" : 5505,
                            "time" : 5475,
                            "value" : 0.999999924713804,
                            "duration" : 30
                          },
                          {
                            "endTime" : 5539,
                            "time" : 5509,
                            "value" : 1.79597357660838,
                            "duration" : 30
                          },
                          {
                            "endTime" : 5948,
                            "time" : 5915,
                            "value" : 0.999999726659192,
                            "duration" : 33
                          },
                          {
                            "endTime" : 5986,
                            "time" : 5952,
                            "value" : 2.22099913073333,
                            "duration" : 34
                          },
                          {
                            "endTime" : 6175,
                            "time" : 6145,
                            "value" : 0.999999608614738,
                            "duration" : 30
                          }
                        ]
                      },
                      "scale1" : {
                        "type" : "double",
                        "defaultValue" : 1.0,
                        "keyframes" : [
                          {
                            "endTime" : 1177,
                            "time" : 1147,
                            "value" : 1.98900308459974,
                            "duration" : 30
                          },
                          {
                            "endTime" : 2474,
                            "time" : 2444,
                            "value" : 1.0,
                            "duration" : 30
                          },
                          {
                            "endTime" : 3259,
                            "time" : 3229,
                            "value" : 2.22091777504271,
                            "duration" : 30
                          },
                          {
                            "endTime" : 3865,
                            "time" : 3835,
                            "value" : 1.0,
                            "duration" : 30
                          },
                          {
                            "endTime" : 3913,
                            "time" : 3883,
                            "value" : 2.30317163072356,
                            "duration" : 30
                          },
                          {
                            "endTime" : 4027,
                            "time" : 3997,
                            "value" : 1.0,
                            "duration" : 30
                          },
                          {
                            "endTime" : 4074,
                            "time" : 4044,
                            "value" : 2.221,
                            "duration" : 30
                          },
                          {
                            "endTime" : 5505,
                            "time" : 5475,
                            "value" : 1.0,
                            "duration" : 30
                          },
                          {
                            "endTime" : 5539,
                            "time" : 5509,
                            "value" : 1.79597406752138,
                            "duration" : 30
                          },
                          {
                            "endTime" : 5948,
                            "time" : 5915,
                            "value" : 1.0,
                            "duration" : 33
                          },
                          {
                            "endTime" : 5986,
                            "time" : 5952,
                            "value" : 2.221,
                            "duration" : 34
                          },
                          {
                            "endTime" : 6175,
                            "time" : 6145,
                            "value" : 1.0,
                            "duration" : 30
                          }
                        ]
                      },
                      "cursorOpacity" : 1.0,
                      "cursorScale" : 1.0
                    },
                    "medias" : [
                        {
                          "id" : 370,
                          "_type" : "ScreenVMFile",
                          "src" : 1,
                          "trackNumber" : 0,
                          "attributes" : {
                            "ident" : "hijacking_ntfs_structs_attack_prevention"
                          },
                          "parameters" : {
                            "cursorScale" : {
                              "type" : "double",
                              "defaultValue" : 0.0,
                              "interp" : "linr"
                            },
                            "cursorOpacity" : {
                              "type" : "double",
                              "defaultValue" : 0.0,
                              "interp" : "linr"
                            }
                          },
                          "effects" : [

                          ],
                          "start" : 0,
                          "duration" : 1620,
                          "mediaStart" : 0,
                          "mediaDuration" : 1620,
                          "scalar" : 1,
                          "metadata" : {
                            "AutoAppliedSmartFocus" : "False",
                            "clipSpeedAttribute" : false,
                            "default-scale0" : 1.0,
                            "default-scale1" : 1.0,
                            "default-translation0" : 0.0,
                            "default-translation1" : 0.0
                          },
                          "animationTracks" : {

                          }
                        },
                        {
                          "id" : 371,
                          "_type" : "ScreenIMFile",
                          "src" : 1,
                          "trackNumber" : 0,
                          "trimStartSum" : 0,
                          "attributes" : {
                            "ident" : "hijacking_ntfs_structs_attack_prevention"
                          },
                          "parameters" : {
                            "cursorOpacity" : 0.0,
                            "cursorScale" : 0.0
                          },
                          "effects" : [

                          ],
                          "start" : 1620,
                          "duration" : 30,
                          "mediaStart" : 1619,
                          "mediaDuration" : 1,
                          "scalar" : 1,
                          "metadata" : {
                            "AutoAppliedSmartFocus" : "False"
                          },
                          "animationTracks" : {

                          }
                        },
                        {
                          "id" : 372,
                          "_type" : "ScreenVMFile",
                          "src" : 1,
                          "trackNumber" : 0,
                          "attributes" : {
                            "ident" : "hijacking_ntfs_structs_attack_prevention"
                          },
                          "parameters" : {
                            "cursorScale" : {
                              "type" : "double",
                              "defaultValue" : 0.0,
                              "interp" : "linr"
                            },
                            "cursorOpacity" : {
                              "type" : "double",
                              "defaultValue" : 0.0,
                              "interp" : "linr"
                            }
                          },
                          "effects" : [

                          ],
                          "start" : 1650,
                          "duration" : 749,
                          "mediaStart" : 1620,
                          "mediaDuration" : 749,
                          "scalar" : 1,
                          "metadata" : {
                            "AutoAppliedSmartFocus" : "False",
                            "clipSpeedAttribute" : false,
                            "default-scale0" : 1.0,
                            "default-scale1" : 1.0,
                            "default-translation0" : 0.0,
                            "default-translation1" : 0.0
                          },
                          "animationTracks" : {

                          }
                        },
                        {
                          "id" : 373,
                          "_type" : "ScreenIMFile",
                          "src" : 1,
                          "trackNumber" : 0,
                          "trimStartSum" : 0,
                          "attributes" : {
                            "ident" : "hijacking_ntfs_structs_attack_prevention"
                          },
                          "parameters" : {
                            "cursorOpacity" : 0.0,
                            "cursorScale" : 0.0
                          },
                          "effects" : [

                          ],
                          "start" : 2399,
                          "duration" : 30,
                          "mediaStart" : 2369,
                          "mediaDuration" : 1,
                          "scalar" : 1,
                          "metadata" : {
                            "AutoAppliedSmartFocus" : "False"
                          },
                          "animationTracks" : {

                          }
                        },
                        {
                          "id" : 374,
                          "_type" : "ScreenVMFile",
                          "src" : 1,
                          "trackNumber" : 0,
                          "attributes" : {
                            "ident" : "hijacking_ntfs_structs_attack_prevention"
                          },
                          "parameters" : {
                            "cursorScale" : {
                              "type" : "double",
                              "defaultValue" : 0.0,
                              "interp" : "linr"
                            },
                            "cursorOpacity" : {
                              "type" : "double",
                              "defaultValue" : 0.0,
                              "interp" : "linr"
                            }
                          },
                          "effects" : [

                          ],
                          "start" : 2429,
                          "duration" : 67,
                          "mediaStart" : 2369,
                          "mediaDuration" : 67,
                          "scalar" : 1,
                          "metadata" : {
                            "AutoAppliedSmartFocus" : "False",
                            "clipSpeedAttribute" : false,
                            "default-scale0" : 1.0,
                            "default-scale1" : 1.0,
                            "default-translation0" : 0.0,
                            "default-translation1" : 0.0
                          },
                          "animationTracks" : {

                          }
                        },
                        {
                          "id" : 375,
                          "_type" : "ScreenIMFile",
                          "src" : 1,
                          "trackNumber" : 0,
                          "trimStartSum" : 0,
                          "attributes" : {
                            "ident" : "hijacking_ntfs_structs_attack_prevention"
                          },
                          "parameters" : {
                            "cursorOpacity" : 0.0,
                            "cursorScale" : 0.0
                          },
                          "effects" : [

                          ],
                          "start" : 2496,
                          "duration" : 60,
                          "mediaStart" : 2436,
                          "mediaDuration" : 1,
                          "scalar" : 1,
                          "metadata" : {
                            "AutoAppliedSmartFocus" : "False"
                          },
                          "animationTracks" : {

                          }
                        },
                        {
                          "id" : 376,
                          "_type" : "ScreenVMFile",
                          "src" : 1,
                          "trackNumber" : 0,
                          "attributes" : {
                            "ident" : "hijacking_ntfs_structs_attack_prevention"
                          },
                          "parameters" : {
                            "cursorScale" : {
                              "type" : "double",
                              "defaultValue" : 0.0,
                              "interp" : "linr"
                            },
                            "cursorOpacity" : {
                              "type" : "double",
                              "defaultValue" : 0.0,
                              "interp" : "linr"
                            }
                          },
                          "effects" : [

                          ],
                          "start" : 2556,
                          "duration" : 3180,
                          "mediaStart" : 2436,
                          "mediaDuration" : 3180,
                          "scalar" : 1,
                          "metadata" : {
                            "AutoAppliedSmartFocus" : "False",
                            "clipSpeedAttribute" : false,
                            "default-scale0" : 1.0,
                            "default-scale1" : 1.0,
                            "default-translation0" : 0.0,
                            "default-translation1" : 0.0
                          },
                          "animationTracks" : {

                          }
                        },
                        {
                          "id" : 377,
                          "_type" : "ScreenIMFile",
                          "src" : 1,
                          "trackNumber" : 0,
                          "trimStartSum" : 0,
                          "attributes" : {
                            "ident" : "hijacking_ntfs_structs_attack_prevention"
                          },
                          "parameters" : {
                            "cursorOpacity" : 0.0,
                            "cursorScale" : 0.0
                          },
                          "effects" : [

                          ],
                          "start" : 5736,
                          "duration" : 45,
                          "mediaStart" : 5616,
                          "mediaDuration" : 1,
                          "scalar" : 1,
                          "metadata" : {
                            "AutoAppliedSmartFocus" : "False"
                          },
                          "animationTracks" : {

                          }
                        },
                        {
                          "id" : 378,
                          "_type" : "ScreenVMFile",
                          "src" : 1,
                          "trackNumber" : 0,
                          "attributes" : {
                            "ident" : "hijacking_ntfs_structs_attack_prevention"
                          },
                          "parameters" : {
                            "cursorScale" : {
                              "type" : "double",
                              "defaultValue" : 0.0,
                              "interp" : "linr"
                            },
                            "cursorOpacity" : {
                              "type" : "double",
                              "defaultValue" : 0.0,
                              "interp" : "linr"
                            }
                          },
                          "effects" : [

                          ],
                          "start" : 5781,
                          "duration" : 1417,
                          "mediaStart" : 5616,
                          "mediaDuration" : 1417,
                          "scalar" : 1,
                          "metadata" : {
                            "AutoAppliedSmartFocus" : "False",
                            "clipSpeedAttribute" : false,
                            "default-scale0" : 1.0,
                            "default-scale1" : 1.0,
                            "default-translation0" : 0.0,
                            "default-translation1" : 0.0
                          },
                          "animationTracks" : {

                          }
                        }
                    ],
                    "effects" : [
                        {
                          "effectName" : "CursorHilight",
                          "category" : "categoryCursorEffects",
                          "parameters" : {
                            "blur" : 0.1,
                            "color-alpha" : 0.75,
                            "color-blue" : 0.0,
                            "color-green" : 1.0,
                            "color-red" : 1.0,
                            "radius" : 50.0
                          }
                        }
                    ],
                    "start" : 3381,
                    "duration" : 30,
                    "mediaStart" : 6731,
                    "mediaDuration" : 30,
                    "scalar" : 1,
                    "metadata" : {
                      "AutoAppliedSmartFocus" : "False",
                      "clipSpeedAttribute" : false,
                      "default-scale0" : 1.79597357660838,
                      "default-scale1" : 1.79597406752138,
                      "default-translation0" : 1008.54947665046,
                      "default-translation1" : -303.704938962414
                    },
                    "animationTracks" : {
                      "visual" : [
                        {
                          "endTime" : 1177,
                          "duration" : 30,
                          "range" : [ 1147, 30]
                        },
                        {
                          "endTime" : 1449,
                          "duration" : 30,
                          "range" : [ 1419, 30]
                        },
                        {
                          "endTime" : 2474,
                          "duration" : 30,
                          "range" : [ 2444, 30]
                        },
                        {
                          "endTime" : 3259,
                          "duration" : 30,
                          "range" : [ 3229, 30]
                        },
                        {
                          "endTime" : 3491,
                          "duration" : 30,
                          "range" : [ 3461, 30]
                        },
                        {
                          "endTime" : 3865,
                          "duration" : 30,
                          "range" : [ 3835, 30]
                        },
                        {
                          "endTime" : 3913,
                          "duration" : 30,
                          "range" : [ 3883, 30]
                        },
                        {
                          "endTime" : 4027,
                          "duration" : 30,
                          "range" : [ 3997, 30]
                        },
                        {
                          "endTime" : 4074,
                          "duration" : 30,
                          "range" : [ 4044, 30]
                        },
                        {
                          "endTime" : 5505,
                          "duration" : 30,
                          "range" : [ 5475, 30]
                        },
                        {
                          "endTime" : 5539,
                          "duration" : 30,
                          "range" : [ 5509, 30]
                        },
                        {
                          "endTime" : 5948,
                          "duration" : 33,
                          "range" : [ 5915, 33]
                        },
                        {
                          "endTime" : 5986,
                          "duration" : 34,
                          "range" : [ 5952, 34]
                        },
                        {
                          "endTime" : 6175,
                          "duration" : 30,
                          "range" : [ 6145, 30]
                        }
                      ]
                    }
                  },
                  {
                    "id" : 379,
                    "_type" : "StitchedMedia",
                    "minMediaStart" : 0,
                    "attributes" : {
                      "ident" : "hijacking_ntfs_structs_attack_prevention",
                      "gain" : 1.0,
                      "mixToMono" : false
                    },
                    "parameters" : {
                      "translation0" : {
                        "type" : "double",
                        "defaultValue" : 0.0,
                        "keyframes" : [
                          {
                            "endTime" : 1177,
                            "time" : 1147,
                            "value" : 948.478453192254,
                            "duration" : 30
                          },
                          {
                            "endTime" : 1449,
                            "time" : 1419,
                            "value" : 948.478364944437,
                            "duration" : 30
                          },
                          {
                            "endTime" : 2474,
                            "time" : 2444,
                            "value" : 5.6843418860808e-14,
                            "duration" : 30
                          },
                          {
                            "endTime" : 3259,
                            "time" : 3229,
                            "value" : -774.930172418836,
                            "duration" : 30
                          },
                          {
                            "endTime" : 3491,
                            "time" : 3461,
                            "value" : -774.930252849251,
                            "duration" : 30
                          },
                          {
                            "endTime" : 3865,
                            "time" : 3835,
                            "value" : 5.6843418860808e-14,
                            "duration" : 30
                          },
                          {
                            "endTime" : 3913,
                            "time" : 3883,
                            "value" : 1596.09769057838,
                            "duration" : 30
                          },
                          {
                            "endTime" : 4027,
                            "time" : 3997,
                            "value" : 2.27373675443232e-13,
                            "duration" : 30
                          },
                          {
                            "endTime" : 4074,
                            "time" : 4044,
                            "value" : -774.9,
                            "duration" : 30
                          },
                          {
                            "endTime" : 5505,
                            "time" : 5475,
                            "value" : -1.13686837721616e-13,
                            "duration" : 30
                          },
                          {
                            "endTime" : 5539,
                            "time" : 5509,
                            "value" : 1008.54947665046,
                            "duration" : 30
                          },
                          {
                            "endTime" : 5948,
                            "time" : 5915,
                            "value" : 1.13686837721616e-13,
                            "duration" : 33
                          },
                          {
                            "endTime" : 5986,
                            "time" : 5952,
                            "value" : -774.9,
                            "duration" : 34
                          },
                          {
                            "endTime" : 6175,
                            "time" : 6145,
                            "value" : -4.54747350886464e-13,
                            "duration" : 30
                          }
                        ]
                      },
                      "translation1" : {
                        "type" : "double",
                        "defaultValue" : 0.0,
                        "keyframes" : [
                          {
                            "endTime" : 1177,
                            "time" : 1147,
                            "value" : -426.526455592595,
                            "duration" : 30
                          },
                          {
                            "endTime" : 1449,
                            "time" : 1419,
                            "value" : -100.3,
                            "duration" : 30
                          },
                          {
                            "endTime" : 2474,
                            "time" : 2444,
                            "value" : -4.9737991503207e-14,
                            "duration" : 30
                          },
                          {
                            "endTime" : 3259,
                            "time" : 3229,
                            "value" : -101.709492105514,
                            "duration" : 30
                          },
                          {
                            "endTime" : 3491,
                            "time" : 3461,
                            "value" : 427.4,
                            "duration" : 30
                          },
                          {
                            "endTime" : 3865,
                            "time" : 3835,
                            "value" : -5.6843418860808e-14,
                            "duration" : 30
                          },
                          {
                            "endTime" : 3913,
                            "time" : 3883,
                            "value" : -743.478440251836,
                            "duration" : 30
                          },
                          {
                            "endTime" : 4027,
                            "time" : 3997,
                            "value" : 1.13686837721616e-13,
                            "duration" : 30
                          },
                          {
                            "endTime" : 4074,
                            "time" : 4044,
                            "value" : 427.4,
                            "duration" : 30
                          },
                          {
                            "endTime" : 5505,
                            "time" : 5475,
                            "value" : -5.6843418860808e-14,
                            "duration" : 30
                          },
                          {
                            "endTime" : 5539,
                            "time" : 5509,
                            "value" : -303.704938962414,
                            "duration" : 30
                          },
                          {
                            "endTime" : 5948,
                            "time" : 5915,
                            "value" : 2.8421709430404e-14,
                            "duration" : 33
                          },
                          {
                            "endTime" : 5986,
                            "time" : 5952,
                            "value" : 427.4,
                            "duration" : 34
                          },
                          {
                            "endTime" : 6175,
                            "time" : 6145,
                            "value" : 1.13686837721616e-13,
                            "duration" : 30
                          }
                        ]
                      },
                      "scale0" : {
                        "type" : "double",
                        "defaultValue" : 1.0,
                        "keyframes" : [
                          {
                            "endTime" : 1177,
                            "time" : 1147,
                            "value" : 1.98900262241215,
                            "duration" : 30
                          },
                          {
                            "endTime" : 2474,
                            "time" : 2444,
                            "value" : 0.999999767628522,
                            "duration" : 30
                          },
                          {
                            "endTime" : 3259,
                            "time" : 3229,
                            "value" : 2.22091728725881,
                            "duration" : 30
                          },
                          {
                            "endTime" : 3491,
                            "time" : 3461,
                            "value" : 2.22091757221115,
                            "duration" : 30
                          },
                          {
                            "endTime" : 3865,
                            "time" : 3835,
                            "value" : 0.999999908672186,
                            "duration" : 30
                          },
                          {
                            "endTime" : 3913,
                            "time" : 3883,
                            "value" : 2.30317149661612,
                            "duration" : 30
                          },
                          {
                            "endTime" : 4027,
                            "time" : 3997,
                            "value" : 0.999999941772713,
                            "duration" : 30
                          },
                          {
                            "endTime" : 4074,
                            "time" : 4044,
                            "value" : 2.22099983278936,
                            "duration" : 30
                          },
                          {
                            "endTime" : 5505,
                            "time" : 5475,
                            "value" : 0.999999924713804,
                            "duration" : 30
                          },
                          {
                            "endTime" : 5539,
                            "time" : 5509,
                            "value" : 1.79597357660838,
                            "duration" : 30
                          },
                          {
                            "endTime" : 5948,
                            "time" : 5915,
                            "value" : 0.999999726659192,
                            "duration" : 33
                          },
                          {
                            "endTime" : 5986,
                            "time" : 5952,
                            "value" : 2.22099913073333,
                            "duration" : 34
                          },
                          {
                            "endTime" : 6175,
                            "time" : 6145,
                            "value" : 0.999999608614738,
                            "duration" : 30
                          }
                        ]
                      },
                      "scale1" : {
                        "type" : "double",
                        "defaultValue" : 1.0,
                        "keyframes" : [
                          {
                            "endTime" : 1177,
                            "time" : 1147,
                            "value" : 1.98900308459974,
                            "duration" : 30
                          },
                          {
                            "endTime" : 2474,
                            "time" : 2444,
                            "value" : 1.0,
                            "duration" : 30
                          },
                          {
                            "endTime" : 3259,
                            "time" : 3229,
                            "value" : 2.22091777504271,
                            "duration" : 30
                          },
                          {
                            "endTime" : 3865,
                            "time" : 3835,
                            "value" : 1.0,
                            "duration" : 30
                          },
                          {
                            "endTime" : 3913,
                            "time" : 3883,
                            "value" : 2.30317163072356,
                            "duration" : 30
                          },
                          {
                            "endTime" : 4027,
                            "time" : 3997,
                            "value" : 1.0,
                            "duration" : 30
                          },
                          {
                            "endTime" : 4074,
                            "time" : 4044,
                            "value" : 2.221,
                            "duration" : 30
                          },
                          {
                            "endTime" : 5505,
                            "time" : 5475,
                            "value" : 1.0,
                            "duration" : 30
                          },
                          {
                            "endTime" : 5539,
                            "time" : 5509,
                            "value" : 1.79597406752138,
                            "duration" : 30
                          },
                          {
                            "endTime" : 5948,
                            "time" : 5915,
                            "value" : 1.0,
                            "duration" : 33
                          },
                          {
                            "endTime" : 5986,
                            "time" : 5952,
                            "value" : 2.221,
                            "duration" : 34
                          },
                          {
                            "endTime" : 6175,
                            "time" : 6145,
                            "value" : 1.0,
                            "duration" : 30
                          }
                        ]
                      },
                      "cursorOpacity" : 1.0,
                      "cursorScale" : 1.0
                    },
                    "medias" : [
                        {
                          "id" : 380,
                          "_type" : "ScreenVMFile",
                          "src" : 1,
                          "trackNumber" : 0,
                          "attributes" : {
                            "ident" : "hijacking_ntfs_structs_attack_prevention"
                          },
                          "parameters" : {
                            "cursorScale" : {
                              "type" : "double",
                              "defaultValue" : 0.0,
                              "interp" : "linr"
                            },
                            "cursorOpacity" : {
                              "type" : "double",
                              "defaultValue" : 0.0,
                              "interp" : "linr"
                            }
                          },
                          "effects" : [

                          ],
                          "start" : 0,
                          "duration" : 1620,
                          "mediaStart" : 0,
                          "mediaDuration" : 1620,
                          "scalar" : 1,
                          "metadata" : {
                            "AutoAppliedSmartFocus" : "False",
                            "clipSpeedAttribute" : false,
                            "default-scale0" : 1.0,
                            "default-scale1" : 1.0,
                            "default-translation0" : 0.0,
                            "default-translation1" : 0.0
                          },
                          "animationTracks" : {

                          }
                        },
                        {
                          "id" : 381,
                          "_type" : "ScreenIMFile",
                          "src" : 1,
                          "trackNumber" : 0,
                          "trimStartSum" : 0,
                          "attributes" : {
                            "ident" : "hijacking_ntfs_structs_attack_prevention"
                          },
                          "parameters" : {
                            "cursorOpacity" : 0.0,
                            "cursorScale" : 0.0
                          },
                          "effects" : [

                          ],
                          "start" : 1620,
                          "duration" : 30,
                          "mediaStart" : 1619,
                          "mediaDuration" : 1,
                          "scalar" : 1,
                          "metadata" : {
                            "AutoAppliedSmartFocus" : "False"
                          },
                          "animationTracks" : {

                          }
                        },
                        {
                          "id" : 382,
                          "_type" : "ScreenVMFile",
                          "src" : 1,
                          "trackNumber" : 0,
                          "attributes" : {
                            "ident" : "hijacking_ntfs_structs_attack_prevention"
                          },
                          "parameters" : {
                            "cursorScale" : {
                              "type" : "double",
                              "defaultValue" : 0.0,
                              "interp" : "linr"
                            },
                            "cursorOpacity" : {
                              "type" : "double",
                              "defaultValue" : 0.0,
                              "interp" : "linr"
                            }
                          },
                          "effects" : [

                          ],
                          "start" : 1650,
                          "duration" : 749,
                          "mediaStart" : 1620,
                          "mediaDuration" : 749,
                          "scalar" : 1,
                          "metadata" : {
                            "AutoAppliedSmartFocus" : "False",
                            "clipSpeedAttribute" : false,
                            "default-scale0" : 1.0,
                            "default-scale1" : 1.0,
                            "default-translation0" : 0.0,
                            "default-translation1" : 0.0
                          },
                          "animationTracks" : {

                          }
                        },
                        {
                          "id" : 383,
                          "_type" : "ScreenIMFile",
                          "src" : 1,
                          "trackNumber" : 0,
                          "trimStartSum" : 0,
                          "attributes" : {
                            "ident" : "hijacking_ntfs_structs_attack_prevention"
                          },
                          "parameters" : {
                            "cursorOpacity" : 0.0,
                            "cursorScale" : 0.0
                          },
                          "effects" : [

                          ],
                          "start" : 2399,
                          "duration" : 30,
                          "mediaStart" : 2369,
                          "mediaDuration" : 1,
                          "scalar" : 1,
                          "metadata" : {
                            "AutoAppliedSmartFocus" : "False"
                          },
                          "animationTracks" : {

                          }
                        },
                        {
                          "id" : 384,
                          "_type" : "ScreenVMFile",
                          "src" : 1,
                          "trackNumber" : 0,
                          "attributes" : {
                            "ident" : "hijacking_ntfs_structs_attack_prevention"
                          },
                          "parameters" : {
                            "cursorScale" : {
                              "type" : "double",
                              "defaultValue" : 0.0,
                              "interp" : "linr"
                            },
                            "cursorOpacity" : {
                              "type" : "double",
                              "defaultValue" : 0.0,
                              "interp" : "linr"
                            }
                          },
                          "effects" : [

                          ],
                          "start" : 2429,
                          "duration" : 67,
                          "mediaStart" : 2369,
                          "mediaDuration" : 67,
                          "scalar" : 1,
                          "metadata" : {
                            "AutoAppliedSmartFocus" : "False",
                            "clipSpeedAttribute" : false,
                            "default-scale0" : 1.0,
                            "default-scale1" : 1.0,
                            "default-translation0" : 0.0,
                            "default-translation1" : 0.0
                          },
                          "animationTracks" : {

                          }
                        },
                        {
                          "id" : 385,
                          "_type" : "ScreenIMFile",
                          "src" : 1,
                          "trackNumber" : 0,
                          "trimStartSum" : 0,
                          "attributes" : {
                            "ident" : "hijacking_ntfs_structs_attack_prevention"
                          },
                          "parameters" : {
                            "cursorOpacity" : 0.0,
                            "cursorScale" : 0.0
                          },
                          "effects" : [

                          ],
                          "start" : 2496,
                          "duration" : 60,
                          "mediaStart" : 2436,
                          "mediaDuration" : 1,
                          "scalar" : 1,
                          "metadata" : {
                            "AutoAppliedSmartFocus" : "False"
                          },
                          "animationTracks" : {

                          }
                        },
                        {
                          "id" : 386,
                          "_type" : "ScreenVMFile",
                          "src" : 1,
                          "trackNumber" : 0,
                          "attributes" : {
                            "ident" : "hijacking_ntfs_structs_attack_prevention"
                          },
                          "parameters" : {
                            "cursorScale" : {
                              "type" : "double",
                              "defaultValue" : 0.0,
                              "interp" : "linr"
                            },
                            "cursorOpacity" : {
                              "type" : "double",
                              "defaultValue" : 0.0,
                              "interp" : "linr"
                            }
                          },
                          "effects" : [

                          ],
                          "start" : 2556,
                          "duration" : 3180,
                          "mediaStart" : 2436,
                          "mediaDuration" : 3180,
                          "scalar" : 1,
                          "metadata" : {
                            "AutoAppliedSmartFocus" : "False",
                            "clipSpeedAttribute" : false,
                            "default-scale0" : 1.0,
                            "default-scale1" : 1.0,
                            "default-translation0" : 0.0,
                            "default-translation1" : 0.0
                          },
                          "animationTracks" : {

                          }
                        },
                        {
                          "id" : 387,
                          "_type" : "ScreenIMFile",
                          "src" : 1,
                          "trackNumber" : 0,
                          "trimStartSum" : 0,
                          "attributes" : {
                            "ident" : "hijacking_ntfs_structs_attack_prevention"
                          },
                          "parameters" : {
                            "cursorOpacity" : 0.0,
                            "cursorScale" : 0.0
                          },
                          "effects" : [

                          ],
                          "start" : 5736,
                          "duration" : 45,
                          "mediaStart" : 5616,
                          "mediaDuration" : 1,
                          "scalar" : 1,
                          "metadata" : {
                            "AutoAppliedSmartFocus" : "False"
                          },
                          "animationTracks" : {

                          }
                        },
                        {
                          "id" : 388,
                          "_type" : "ScreenVMFile",
                          "src" : 1,
                          "trackNumber" : 0,
                          "attributes" : {
                            "ident" : "hijacking_ntfs_structs_attack_prevention"
                          },
                          "parameters" : {
                            "cursorScale" : {
                              "type" : "double",
                              "defaultValue" : 0.0,
                              "interp" : "linr"
                            },
                            "cursorOpacity" : {
                              "type" : "double",
                              "defaultValue" : 0.0,
                              "interp" : "linr"
                            }
                          },
                          "effects" : [

                          ],
                          "start" : 5781,
                          "duration" : 1417,
                          "mediaStart" : 5616,
                          "mediaDuration" : 1417,
                          "scalar" : 1,
                          "metadata" : {
                            "AutoAppliedSmartFocus" : "False",
                            "clipSpeedAttribute" : false,
                            "default-scale0" : 1.0,
                            "default-scale1" : 1.0,
                            "default-translation0" : 0.0,
                            "default-translation1" : 0.0
                          },
                          "animationTracks" : {

                          }
                        }
                    ],
                    "effects" : [
                        {
                          "effectName" : "CursorHilight",
                          "category" : "categoryCursorEffects",
                          "parameters" : {
                            "blur" : 0.1,
                            "color-alpha" : 0.75,
                            "color-blue" : 0.0,
                            "color-green" : 1.0,
                            "color-red" : 1.0,
                            "radius" : 50.0
                          }
                        }
                    ],
                    "start" : 3411,
                    "duration" : 29,
                    "mediaStart" : 6798,
                    "mediaDuration" : 56,
                    "scalar" : "29/56",
                    "metadata" : {
                      "AutoAppliedSmartFocus" : "False",
                      "clipSpeedAttribute" : true,
                      "default-scale0" : 1.79597357660838,
                      "default-scale1" : 1.79597406752138,
                      "default-translation0" : 1008.54947665046,
                      "default-translation1" : -303.704938962414
                    },
                    "animationTracks" : {
                      "visual" : [
                        {
                          "endTime" : 1177,
                          "duration" : 30,
                          "range" : [ 1147, 30]
                        },
                        {
                          "endTime" : 1449,
                          "duration" : 30,
                          "range" : [ 1419, 30]
                        },
                        {
                          "endTime" : 2474,
                          "duration" : 30,
                          "range" : [ 2444, 30]
                        },
                        {
                          "endTime" : 3259,
                          "duration" : 30,
                          "range" : [ 3229, 30]
                        },
                        {
                          "endTime" : 3491,
                          "duration" : 30,
                          "range" : [ 3461, 30]
                        },
                        {
                          "endTime" : 3865,
                          "duration" : 30,
                          "range" : [ 3835, 30]
                        },
                        {
                          "endTime" : 3913,
                          "duration" : 30,
                          "range" : [ 3883, 30]
                        },
                        {
                          "endTime" : 4027,
                          "duration" : 30,
                          "range" : [ 3997, 30]
                        },
                        {
                          "endTime" : 4074,
                          "duration" : 30,
                          "range" : [ 4044, 30]
                        },
                        {
                          "endTime" : 5505,
                          "duration" : 30,
                          "range" : [ 5475, 30]
                        },
                        {
                          "endTime" : 5539,
                          "duration" : 30,
                          "range" : [ 5509, 30]
                        },
                        {
                          "endTime" : 5948,
                          "duration" : 33,
                          "range" : [ 5915, 33]
                        },
                        {
                          "endTime" : 5986,
                          "duration" : 34,
                          "range" : [ 5952, 34]
                        },
                        {
                          "endTime" : 6175,
                          "duration" : 30,
                          "range" : [ 6145, 30]
                        }
                      ]
                    }
                  },
                  {
                    "id" : 389,
                    "_type" : "StitchedMedia",
                    "minMediaStart" : 0,
                    "attributes" : {
                      "ident" : "hijacking_ntfs_structs_attack_prevention",
                      "gain" : 1.0,
                      "mixToMono" : false
                    },
                    "parameters" : {
                      "translation0" : {
                        "type" : "double",
                        "defaultValue" : 0.0,
                        "keyframes" : [
                          {
                            "endTime" : 1177,
                            "time" : 1147,
                            "value" : 948.478453192254,
                            "duration" : 30
                          },
                          {
                            "endTime" : 1449,
                            "time" : 1419,
                            "value" : 948.478364944437,
                            "duration" : 30
                          },
                          {
                            "endTime" : 2474,
                            "time" : 2444,
                            "value" : 5.6843418860808e-14,
                            "duration" : 30
                          },
                          {
                            "endTime" : 3259,
                            "time" : 3229,
                            "value" : -774.930172418836,
                            "duration" : 30
                          },
                          {
                            "endTime" : 3491,
                            "time" : 3461,
                            "value" : -774.930252849251,
                            "duration" : 30
                          },
                          {
                            "endTime" : 3865,
                            "time" : 3835,
                            "value" : 5.6843418860808e-14,
                            "duration" : 30
                          },
                          {
                            "endTime" : 3913,
                            "time" : 3883,
                            "value" : 1596.09769057838,
                            "duration" : 30
                          },
                          {
                            "endTime" : 4027,
                            "time" : 3997,
                            "value" : 2.27373675443232e-13,
                            "duration" : 30
                          },
                          {
                            "endTime" : 4074,
                            "time" : 4044,
                            "value" : -774.9,
                            "duration" : 30
                          },
                          {
                            "endTime" : 5505,
                            "time" : 5475,
                            "value" : -1.13686837721616e-13,
                            "duration" : 30
                          },
                          {
                            "endTime" : 5539,
                            "time" : 5509,
                            "value" : 1008.54947665046,
                            "duration" : 30
                          },
                          {
                            "endTime" : 5948,
                            "time" : 5915,
                            "value" : 1.13686837721616e-13,
                            "duration" : 33
                          },
                          {
                            "endTime" : 5986,
                            "time" : 5952,
                            "value" : -774.9,
                            "duration" : 34
                          },
                          {
                            "endTime" : 6175,
                            "time" : 6145,
                            "value" : -4.54747350886464e-13,
                            "duration" : 30
                          },
                          {
                            "endTime" : 6888,
                            "time" : 6858,
                            "value" : 2922.46838326989,
                            "duration" : 30
                          },
                          {
                            "endTime" : 7193,
                            "time" : 7158,
                            "value" : 1.13686837721616e-13,
                            "duration" : 35
                          }
                        ]
                      },
                      "translation1" : {
                        "type" : "double",
                        "defaultValue" : 0.0,
                        "keyframes" : [
                          {
                            "endTime" : 1177,
                            "time" : 1147,
                            "value" : -426.526455592595,
                            "duration" : 30
                          },
                          {
                            "endTime" : 1449,
                            "time" : 1419,
                            "value" : -100.3,
                            "duration" : 30
                          },
                          {
                            "endTime" : 2474,
                            "time" : 2444,
                            "value" : -4.9737991503207e-14,
                            "duration" : 30
                          },
                          {
                            "endTime" : 3259,
                            "time" : 3229,
                            "value" : -101.709492105514,
                            "duration" : 30
                          },
                          {
                            "endTime" : 3491,
                            "time" : 3461,
                            "value" : 427.4,
                            "duration" : 30
                          },
                          {
                            "endTime" : 3865,
                            "time" : 3835,
                            "value" : -5.6843418860808e-14,
                            "duration" : 30
                          },
                          {
                            "endTime" : 3913,
                            "time" : 3883,
                            "value" : -743.478440251836,
                            "duration" : 30
                          },
                          {
                            "endTime" : 4027,
                            "time" : 3997,
                            "value" : 1.13686837721616e-13,
                            "duration" : 30
                          },
                          {
                            "endTime" : 4074,
                            "time" : 4044,
                            "value" : 427.4,
                            "duration" : 30
                          },
                          {
                            "endTime" : 5505,
                            "time" : 5475,
                            "value" : -5.6843418860808e-14,
                            "duration" : 30
                          },
                          {
                            "endTime" : 5539,
                            "time" : 5509,
                            "value" : -303.704938962414,
                            "duration" : 30
                          },
                          {
                            "endTime" : 5948,
                            "time" : 5915,
                            "value" : 2.8421709430404e-14,
                            "duration" : 33
                          },
                          {
                            "endTime" : 5986,
                            "time" : 5952,
                            "value" : 427.4,
                            "duration" : 34
                          },
                          {
                            "endTime" : 6175,
                            "time" : 6145,
                            "value" : 1.13686837721616e-13,
                            "duration" : 30
                          },
                          {
                            "endTime" : 6888,
                            "time" : 6858,
                            "value" : -507.300025273041,
                            "duration" : 30
                          },
                          {
                            "endTime" : 7193,
                            "time" : 7158,
                            "value" : 0.0,
                            "duration" : 35
                          }
                        ]
                      },
                      "scale0" : {
                        "type" : "double",
                        "defaultValue" : 1.0,
                        "keyframes" : [
                          {
                            "endTime" : 1177,
                            "time" : 1147,
                            "value" : 1.98900262241215,
                            "duration" : 30
                          },
                          {
                            "endTime" : 2474,
                            "time" : 2444,
                            "value" : 0.999999767628522,
                            "duration" : 30
                          },
                          {
                            "endTime" : 3259,
                            "time" : 3229,
                            "value" : 2.22091728725881,
                            "duration" : 30
                          },
                          {
                            "endTime" : 3491,
                            "time" : 3461,
                            "value" : 2.22091757221115,
                            "duration" : 30
                          },
                          {
                            "endTime" : 3865,
                            "time" : 3835,
                            "value" : 0.999999908672186,
                            "duration" : 30
                          },
                          {
                            "endTime" : 3913,
                            "time" : 3883,
                            "value" : 2.30317149661612,
                            "duration" : 30
                          },
                          {
                            "endTime" : 4027,
                            "time" : 3997,
                            "value" : 0.999999941772713,
                            "duration" : 30
                          },
                          {
                            "endTime" : 4074,
                            "time" : 4044,
                            "value" : 2.22099983278936,
                            "duration" : 30
                          },
                          {
                            "endTime" : 5505,
                            "time" : 5475,
                            "value" : 0.999999924713804,
                            "duration" : 30
                          },
                          {
                            "endTime" : 5539,
                            "time" : 5509,
                            "value" : 1.79597357660838,
                            "duration" : 30
                          },
                          {
                            "endTime" : 5948,
                            "time" : 5915,
                            "value" : 0.999999726659192,
                            "duration" : 33
                          },
                          {
                            "endTime" : 5986,
                            "time" : 5952,
                            "value" : 2.22099913073333,
                            "duration" : 34
                          },
                          {
                            "endTime" : 6175,
                            "time" : 6145,
                            "value" : 0.999999608614738,
                            "duration" : 30
                          },
                          {
                            "endTime" : 6888,
                            "time" : 6858,
                            "value" : 3.86186092319149,
                            "duration" : 30
                          },
                          {
                            "endTime" : 7193,
                            "time" : 7158,
                            "value" : 0.999999202102304,
                            "duration" : 35
                          }
                        ]
                      },
                      "scale1" : {
                        "type" : "double",
                        "defaultValue" : 1.0,
                        "keyframes" : [
                          {
                            "endTime" : 1177,
                            "time" : 1147,
                            "value" : 1.98900308459974,
                            "duration" : 30
                          },
                          {
                            "endTime" : 2474,
                            "time" : 2444,
                            "value" : 1.0,
                            "duration" : 30
                          },
                          {
                            "endTime" : 3259,
                            "time" : 3229,
                            "value" : 2.22091777504271,
                            "duration" : 30
                          },
                          {
                            "endTime" : 3865,
                            "time" : 3835,
                            "value" : 1.0,
                            "duration" : 30
                          },
                          {
                            "endTime" : 3913,
                            "time" : 3883,
                            "value" : 2.30317163072356,
                            "duration" : 30
                          },
                          {
                            "endTime" : 4027,
                            "time" : 3997,
                            "value" : 1.0,
                            "duration" : 30
                          },
                          {
                            "endTime" : 4074,
                            "time" : 4044,
                            "value" : 2.221,
                            "duration" : 30
                          },
                          {
                            "endTime" : 5505,
                            "time" : 5475,
                            "value" : 1.0,
                            "duration" : 30
                          },
                          {
                            "endTime" : 5539,
                            "time" : 5509,
                            "value" : 1.79597406752138,
                            "duration" : 30
                          },
                          {
                            "endTime" : 5948,
                            "time" : 5915,
                            "value" : 1.0,
                            "duration" : 33
                          },
                          {
                            "endTime" : 5986,
                            "time" : 5952,
                            "value" : 2.221,
                            "duration" : 34
                          },
                          {
                            "endTime" : 6175,
                            "time" : 6145,
                            "value" : 1.0,
                            "duration" : 30
                          },
                          {
                            "endTime" : 6888,
                            "time" : 6858,
                            "value" : 3.86186400456388,
                            "duration" : 30
                          },
                          {
                            "endTime" : 7193,
                            "time" : 7158,
                            "value" : 1.0,
                            "duration" : 35
                          }
                        ]
                      },
                      "cursorOpacity" : 1.0,
                      "cursorScale" : 1.0
                    },
                    "medias" : [
                        {
                          "id" : 390,
                          "_type" : "ScreenVMFile",
                          "src" : 1,
                          "trackNumber" : 0,
                          "attributes" : {
                            "ident" : "hijacking_ntfs_structs_attack_prevention"
                          },
                          "parameters" : {
                            "cursorScale" : {
                              "type" : "double",
                              "defaultValue" : 0.0,
                              "interp" : "linr"
                            },
                            "cursorOpacity" : {
                              "type" : "double",
                              "defaultValue" : 0.0,
                              "interp" : "linr"
                            }
                          },
                          "effects" : [

                          ],
                          "start" : 0,
                          "duration" : 1620,
                          "mediaStart" : 0,
                          "mediaDuration" : 1620,
                          "scalar" : 1,
                          "metadata" : {
                            "AutoAppliedSmartFocus" : "False",
                            "clipSpeedAttribute" : false,
                            "default-scale0" : 1.0,
                            "default-scale1" : 1.0,
                            "default-translation0" : 0.0,
                            "default-translation1" : 0.0
                          },
                          "animationTracks" : {

                          }
                        },
                        {
                          "id" : 391,
                          "_type" : "ScreenIMFile",
                          "src" : 1,
                          "trackNumber" : 0,
                          "trimStartSum" : 0,
                          "attributes" : {
                            "ident" : "hijacking_ntfs_structs_attack_prevention"
                          },
                          "parameters" : {
                            "cursorOpacity" : 0.0,
                            "cursorScale" : 0.0
                          },
                          "effects" : [

                          ],
                          "start" : 1620,
                          "duration" : 30,
                          "mediaStart" : 1619,
                          "mediaDuration" : 1,
                          "scalar" : 1,
                          "metadata" : {
                            "AutoAppliedSmartFocus" : "False"
                          },
                          "animationTracks" : {

                          }
                        },
                        {
                          "id" : 392,
                          "_type" : "ScreenVMFile",
                          "src" : 1,
                          "trackNumber" : 0,
                          "attributes" : {
                            "ident" : "hijacking_ntfs_structs_attack_prevention"
                          },
                          "parameters" : {
                            "cursorScale" : {
                              "type" : "double",
                              "defaultValue" : 0.0,
                              "interp" : "linr"
                            },
                            "cursorOpacity" : {
                              "type" : "double",
                              "defaultValue" : 0.0,
                              "interp" : "linr"
                            }
                          },
                          "effects" : [

                          ],
                          "start" : 1650,
                          "duration" : 749,
                          "mediaStart" : 1620,
                          "mediaDuration" : 749,
                          "scalar" : 1,
                          "metadata" : {
                            "AutoAppliedSmartFocus" : "False",
                            "clipSpeedAttribute" : false,
                            "default-scale0" : 1.0,
                            "default-scale1" : 1.0,
                            "default-translation0" : 0.0,
                            "default-translation1" : 0.0
                          },
                          "animationTracks" : {

                          }
                        },
                        {
                          "id" : 393,
                          "_type" : "ScreenIMFile",
                          "src" : 1,
                          "trackNumber" : 0,
                          "trimStartSum" : 0,
                          "attributes" : {
                            "ident" : "hijacking_ntfs_structs_attack_prevention"
                          },
                          "parameters" : {
                            "cursorOpacity" : 0.0,
                            "cursorScale" : 0.0
                          },
                          "effects" : [

                          ],
                          "start" : 2399,
                          "duration" : 30,
                          "mediaStart" : 2369,
                          "mediaDuration" : 1,
                          "scalar" : 1,
                          "metadata" : {
                            "AutoAppliedSmartFocus" : "False"
                          },
                          "animationTracks" : {

                          }
                        },
                        {
                          "id" : 394,
                          "_type" : "ScreenVMFile",
                          "src" : 1,
                          "trackNumber" : 0,
                          "attributes" : {
                            "ident" : "hijacking_ntfs_structs_attack_prevention"
                          },
                          "parameters" : {
                            "cursorScale" : {
                              "type" : "double",
                              "defaultValue" : 0.0,
                              "interp" : "linr"
                            },
                            "cursorOpacity" : {
                              "type" : "double",
                              "defaultValue" : 0.0,
                              "interp" : "linr"
                            }
                          },
                          "effects" : [

                          ],
                          "start" : 2429,
                          "duration" : 67,
                          "mediaStart" : 2369,
                          "mediaDuration" : 67,
                          "scalar" : 1,
                          "metadata" : {
                            "AutoAppliedSmartFocus" : "False",
                            "clipSpeedAttribute" : false,
                            "default-scale0" : 1.0,
                            "default-scale1" : 1.0,
                            "default-translation0" : 0.0,
                            "default-translation1" : 0.0
                          },
                          "animationTracks" : {

                          }
                        },
                        {
                          "id" : 395,
                          "_type" : "ScreenIMFile",
                          "src" : 1,
                          "trackNumber" : 0,
                          "trimStartSum" : 0,
                          "attributes" : {
                            "ident" : "hijacking_ntfs_structs_attack_prevention"
                          },
                          "parameters" : {
                            "cursorOpacity" : 0.0,
                            "cursorScale" : 0.0
                          },
                          "effects" : [

                          ],
                          "start" : 2496,
                          "duration" : 60,
                          "mediaStart" : 2436,
                          "mediaDuration" : 1,
                          "scalar" : 1,
                          "metadata" : {
                            "AutoAppliedSmartFocus" : "False"
                          },
                          "animationTracks" : {

                          }
                        },
                        {
                          "id" : 396,
                          "_type" : "ScreenVMFile",
                          "src" : 1,
                          "trackNumber" : 0,
                          "attributes" : {
                            "ident" : "hijacking_ntfs_structs_attack_prevention"
                          },
                          "parameters" : {
                            "cursorScale" : {
                              "type" : "double",
                              "defaultValue" : 0.0,
                              "interp" : "linr"
                            },
                            "cursorOpacity" : {
                              "type" : "double",
                              "defaultValue" : 0.0,
                              "interp" : "linr"
                            }
                          },
                          "effects" : [

                          ],
                          "start" : 2556,
                          "duration" : 3180,
                          "mediaStart" : 2436,
                          "mediaDuration" : 3180,
                          "scalar" : 1,
                          "metadata" : {
                            "AutoAppliedSmartFocus" : "False",
                            "clipSpeedAttribute" : false,
                            "default-scale0" : 1.0,
                            "default-scale1" : 1.0,
                            "default-translation0" : 0.0,
                            "default-translation1" : 0.0
                          },
                          "animationTracks" : {

                          }
                        },
                        {
                          "id" : 397,
                          "_type" : "ScreenIMFile",
                          "src" : 1,
                          "trackNumber" : 0,
                          "trimStartSum" : 0,
                          "attributes" : {
                            "ident" : "hijacking_ntfs_structs_attack_prevention"
                          },
                          "parameters" : {
                            "cursorOpacity" : 0.0,
                            "cursorScale" : 0.0
                          },
                          "effects" : [

                          ],
                          "start" : 5736,
                          "duration" : 45,
                          "mediaStart" : 5616,
                          "mediaDuration" : 1,
                          "scalar" : 1,
                          "metadata" : {
                            "AutoAppliedSmartFocus" : "False"
                          },
                          "animationTracks" : {

                          }
                        },
                        {
                          "id" : 398,
                          "_type" : "ScreenVMFile",
                          "src" : 1,
                          "trackNumber" : 0,
                          "attributes" : {
                            "ident" : "hijacking_ntfs_structs_attack_prevention"
                          },
                          "parameters" : {
                            "cursorScale" : {
                              "type" : "double",
                              "defaultValue" : 0.0,
                              "interp" : "linr"
                            },
                            "cursorOpacity" : {
                              "type" : "double",
                              "defaultValue" : 0.0,
                              "interp" : "linr"
                            }
                          },
                          "effects" : [

                          ],
                          "start" : 5781,
                          "duration" : 1160,
                          "mediaStart" : 5616,
                          "mediaDuration" : 1160,
                          "scalar" : 1,
                          "metadata" : {
                            "AutoAppliedSmartFocus" : "False",
                            "clipSpeedAttribute" : false,
                            "default-scale0" : 1.0,
                            "default-scale1" : 1.0,
                            "default-translation0" : 0.0,
                            "default-translation1" : 0.0
                          },
                          "animationTracks" : {

                          }
                        },
                        {
                          "id" : 399,
                          "_type" : "ScreenIMFile",
                          "src" : 1,
                          "trackNumber" : 0,
                          "trimStartSum" : 0,
                          "attributes" : {
                            "ident" : "hijacking_ntfs_structs_attack_prevention"
                          },
                          "parameters" : {
                            "cursorOpacity" : 0.0,
                            "cursorScale" : 0.0
                          },
                          "effects" : [

                          ],
                          "start" : 6941,
                          "duration" : 30,
                          "mediaStart" : 6776,
                          "mediaDuration" : 1,
                          "scalar" : 1,
                          "metadata" : {
                            "AutoAppliedSmartFocus" : "False"
                          },
                          "animationTracks" : {

                          }
                        },
                        {
                          "id" : 400,
                          "_type" : "ScreenVMFile",
                          "src" : 1,
                          "trackNumber" : 0,
                          "attributes" : {
                            "ident" : "hijacking_ntfs_structs_attack_prevention"
                          },
                          "parameters" : {
                            "cursorScale" : {
                              "type" : "double",
                              "defaultValue" : 0.0,
                              "interp" : "linr"
                            },
                            "cursorOpacity" : {
                              "type" : "double",
                              "defaultValue" : 0.0,
                              "interp" : "linr"
                            }
                          },
                          "effects" : [

                          ],
                          "start" : 6971,
                          "duration" : 43,
                          "mediaStart" : 6776,
                          "mediaDuration" : 43,
                          "scalar" : 1,
                          "metadata" : {
                            "AutoAppliedSmartFocus" : "False",
                            "clipSpeedAttribute" : false,
                            "default-scale0" : 1.0,
                            "default-scale1" : 1.0,
                            "default-translation0" : 0.0,
                            "default-translation1" : 0.0
                          },
                          "animationTracks" : {

                          }
                        },
                        {
                          "id" : 401,
                          "_type" : "ScreenIMFile",
                          "src" : 1,
                          "trackNumber" : 0,
                          "trimStartSum" : 0,
                          "attributes" : {
                            "ident" : "hijacking_ntfs_structs_attack_prevention"
                          },
                          "parameters" : {
                            "cursorOpacity" : 0.0,
                            "cursorScale" : 0.0
                          },
                          "effects" : [

                          ],
                          "start" : 7014,
                          "duration" : 132,
                          "mediaStart" : 6819,
                          "mediaDuration" : 1,
                          "scalar" : 1,
                          "metadata" : {
                            "AutoAppliedSmartFocus" : "False"
                          },
                          "animationTracks" : {

                          }
                        },
                        {
                          "id" : 402,
                          "_type" : "ScreenVMFile",
                          "src" : 1,
                          "trackNumber" : 0,
                          "attributes" : {
                            "ident" : "hijacking_ntfs_structs_attack_prevention"
                          },
                          "parameters" : {
                            "cursorScale" : {
                              "type" : "double",
                              "defaultValue" : 0.0,
                              "interp" : "linr"
                            },
                            "cursorOpacity" : {
                              "type" : "double",
                              "defaultValue" : 0.0,
                              "interp" : "linr"
                            }
                          },
                          "effects" : [

                          ],
                          "start" : 7146,
                          "duration" : 39,
                          "mediaStart" : 6819,
                          "mediaDuration" : 39,
                          "scalar" : 1,
                          "metadata" : {
                            "AutoAppliedSmartFocus" : "False",
                            "clipSpeedAttribute" : false,
                            "default-scale0" : 1.0,
                            "default-scale1" : 1.0,
                            "default-translation0" : 0.0,
                            "default-translation1" : 0.0
                          },
                          "animationTracks" : {

                          }
                        },
                        {
                          "id" : 403,
                          "_type" : "ScreenIMFile",
                          "src" : 1,
                          "trackNumber" : 0,
                          "trimStartSum" : 0,
                          "attributes" : {
                            "ident" : "hijacking_ntfs_structs_attack_prevention"
                          },
                          "parameters" : {
                            "cursorOpacity" : 0.0,
                            "cursorScale" : 0.0
                          },
                          "effects" : [

                          ],
                          "start" : 7185,
                          "duration" : 270,
                          "mediaStart" : 6858,
                          "mediaDuration" : 1,
                          "scalar" : 1,
                          "metadata" : {
                            "AutoAppliedSmartFocus" : "False"
                          },
                          "animationTracks" : {

                          }
                        },
                        {
                          "id" : 404,
                          "_type" : "ScreenVMFile",
                          "src" : 1,
                          "trackNumber" : 0,
                          "attributes" : {
                            "ident" : "hijacking_ntfs_structs_attack_prevention"
                          },
                          "parameters" : {
                            "cursorScale" : {
                              "type" : "double",
                              "defaultValue" : 0.0,
                              "interp" : "linr"
                            },
                            "cursorOpacity" : {
                              "type" : "double",
                              "defaultValue" : 0.0,
                              "interp" : "linr"
                            }
                          },
                          "effects" : [

                          ],
                          "start" : 7455,
                          "duration" : 175,
                          "mediaStart" : 6858,
                          "mediaDuration" : 175,
                          "scalar" : 1,
                          "metadata" : {
                            "AutoAppliedSmartFocus" : "False",
                            "clipSpeedAttribute" : false,
                            "default-scale0" : 1.0,
                            "default-scale1" : 1.0,
                            "default-translation0" : 0.0,
                            "default-translation1" : 0.0
                          },
                          "animationTracks" : {

                          }
                        }
                    ],
                    "effects" : [
                        {
                          "effectName" : "CursorHilight",
                          "category" : "categoryCursorEffects",
                          "parameters" : {
                            "blur" : 0.1,
                            "color-alpha" : 0.75,
                            "color-blue" : 0.0,
                            "color-green" : 1.0,
                            "color-red" : 1.0,
                            "radius" : 50.0
                          }
                        }
                    ],
                    "start" : 3440,
                    "duration" : 297,
                    "mediaStart" : 6854,
                    "mediaDuration" : 297,
                    "scalar" : 1,
                    "metadata" : {
                      "AutoAppliedSmartFocus" : "False",
                      "clipSpeedAttribute" : false
                    },
                    "animationTracks" : {
                      "visual" : [
                        {
                          "endTime" : 1177,
                          "duration" : 30,
                          "range" : [ 1147, 30]
                        },
                        {
                          "endTime" : 1449,
                          "duration" : 30,
                          "range" : [ 1419, 30]
                        },
                        {
                          "endTime" : 2474,
                          "duration" : 30,
                          "range" : [ 2444, 30]
                        },
                        {
                          "endTime" : 3259,
                          "duration" : 30,
                          "range" : [ 3229, 30]
                        },
                        {
                          "endTime" : 3491,
                          "duration" : 30,
                          "range" : [ 3461, 30]
                        },
                        {
                          "endTime" : 3865,
                          "duration" : 30,
                          "range" : [ 3835, 30]
                        },
                        {
                          "endTime" : 3913,
                          "duration" : 30,
                          "range" : [ 3883, 30]
                        },
                        {
                          "endTime" : 4027,
                          "duration" : 30,
                          "range" : [ 3997, 30]
                        },
                        {
                          "endTime" : 4074,
                          "duration" : 30,
                          "range" : [ 4044, 30]
                        },
                        {
                          "endTime" : 5505,
                          "duration" : 30,
                          "range" : [ 5475, 30]
                        },
                        {
                          "endTime" : 5539,
                          "duration" : 30,
                          "range" : [ 5509, 30]
                        },
                        {
                          "endTime" : 5948,
                          "duration" : 33,
                          "range" : [ 5915, 33]
                        },
                        {
                          "endTime" : 5986,
                          "duration" : 34,
                          "range" : [ 5952, 34]
                        },
                        {
                          "endTime" : 6175,
                          "duration" : 30,
                          "range" : [ 6145, 30]
                        },
                        {
                          "endTime" : 6888,
                          "duration" : 30,
                          "range" : [ 6858, 30]
                        },
                        {
                          "endTime" : 7193,
                          "duration" : 35,
                          "range" : [ 7158, 35]
                        }
                      ]
                    }
                  },
                  {
                    "id" : 405,
                    "_type" : "StitchedMedia",
                    "minMediaStart" : 0,
                    "attributes" : {
                      "ident" : "hijacking_ntfs_structs_attack_prevention",
                      "gain" : 1.0,
                      "mixToMono" : false
                    },
                    "parameters" : {
                      "translation0" : {
                        "type" : "double",
                        "defaultValue" : 0.0,
                        "keyframes" : [
                          {
                            "endTime" : 1177,
                            "time" : 1147,
                            "value" : 948.478453192254,
                            "duration" : 30
                          },
                          {
                            "endTime" : 1449,
                            "time" : 1419,
                            "value" : 948.478364944437,
                            "duration" : 30
                          },
                          {
                            "endTime" : 2474,
                            "time" : 2444,
                            "value" : 5.6843418860808e-14,
                            "duration" : 30
                          },
                          {
                            "endTime" : 3259,
                            "time" : 3229,
                            "value" : -774.930172418836,
                            "duration" : 30
                          },
                          {
                            "endTime" : 3491,
                            "time" : 3461,
                            "value" : -774.930252849251,
                            "duration" : 30
                          },
                          {
                            "endTime" : 3865,
                            "time" : 3835,
                            "value" : 5.6843418860808e-14,
                            "duration" : 30
                          },
                          {
                            "endTime" : 3913,
                            "time" : 3883,
                            "value" : 1596.09769057838,
                            "duration" : 30
                          },
                          {
                            "endTime" : 4027,
                            "time" : 3997,
                            "value" : 2.27373675443232e-13,
                            "duration" : 30
                          },
                          {
                            "endTime" : 4074,
                            "time" : 4044,
                            "value" : -774.9,
                            "duration" : 30
                          },
                          {
                            "endTime" : 5505,
                            "time" : 5475,
                            "value" : -1.13686837721616e-13,
                            "duration" : 30
                          },
                          {
                            "endTime" : 5539,
                            "time" : 5509,
                            "value" : 1008.54947665046,
                            "duration" : 30
                          },
                          {
                            "endTime" : 5948,
                            "time" : 5915,
                            "value" : 1.13686837721616e-13,
                            "duration" : 33
                          },
                          {
                            "endTime" : 5986,
                            "time" : 5952,
                            "value" : -774.9,
                            "duration" : 34
                          },
                          {
                            "endTime" : 6175,
                            "time" : 6145,
                            "value" : -4.54747350886464e-13,
                            "duration" : 30
                          },
                          {
                            "endTime" : 6888,
                            "time" : 6858,
                            "value" : 2922.46838326989,
                            "duration" : 30
                          },
                          {
                            "endTime" : 7061,
                            "time" : 7026,
                            "value" : 1.13686837721616e-13,
                            "duration" : 35
                          }
                        ]
                      },
                      "translation1" : {
                        "type" : "double",
                        "defaultValue" : 0.0,
                        "keyframes" : [
                          {
                            "endTime" : 1177,
                            "time" : 1147,
                            "value" : -426.526455592595,
                            "duration" : 30
                          },
                          {
                            "endTime" : 1449,
                            "time" : 1419,
                            "value" : -100.3,
                            "duration" : 30
                          },
                          {
                            "endTime" : 2474,
                            "time" : 2444,
                            "value" : -4.9737991503207e-14,
                            "duration" : 30
                          },
                          {
                            "endTime" : 3259,
                            "time" : 3229,
                            "value" : -101.709492105514,
                            "duration" : 30
                          },
                          {
                            "endTime" : 3491,
                            "time" : 3461,
                            "value" : 427.4,
                            "duration" : 30
                          },
                          {
                            "endTime" : 3865,
                            "time" : 3835,
                            "value" : -5.6843418860808e-14,
                            "duration" : 30
                          },
                          {
                            "endTime" : 3913,
                            "time" : 3883,
                            "value" : -743.478440251836,
                            "duration" : 30
                          },
                          {
                            "endTime" : 4027,
                            "time" : 3997,
                            "value" : 1.13686837721616e-13,
                            "duration" : 30
                          },
                          {
                            "endTime" : 4074,
                            "time" : 4044,
                            "value" : 427.4,
                            "duration" : 30
                          },
                          {
                            "endTime" : 5505,
                            "time" : 5475,
                            "value" : -5.6843418860808e-14,
                            "duration" : 30
                          },
                          {
                            "endTime" : 5539,
                            "time" : 5509,
                            "value" : -303.704938962414,
                            "duration" : 30
                          },
                          {
                            "endTime" : 5948,
                            "time" : 5915,
                            "value" : 2.8421709430404e-14,
                            "duration" : 33
                          },
                          {
                            "endTime" : 5986,
                            "time" : 5952,
                            "value" : 427.4,
                            "duration" : 34
                          },
                          {
                            "endTime" : 6175,
                            "time" : 6145,
                            "value" : 1.13686837721616e-13,
                            "duration" : 30
                          },
                          {
                            "endTime" : 6888,
                            "time" : 6858,
                            "value" : -507.300025273041,
                            "duration" : 30
                          },
                          {
                            "endTime" : 7061,
                            "time" : 7026,
                            "value" : 0.0,
                            "duration" : 35
                          }
                        ]
                      },
                      "scale0" : {
                        "type" : "double",
                        "defaultValue" : 1.0,
                        "keyframes" : [
                          {
                            "endTime" : 1177,
                            "time" : 1147,
                            "value" : 1.98900262241215,
                            "duration" : 30
                          },
                          {
                            "endTime" : 2474,
                            "time" : 2444,
                            "value" : 0.999999767628522,
                            "duration" : 30
                          },
                          {
                            "endTime" : 3259,
                            "time" : 3229,
                            "value" : 2.22091728725881,
                            "duration" : 30
                          },
                          {
                            "endTime" : 3491,
                            "time" : 3461,
                            "value" : 2.22091757221115,
                            "duration" : 30
                          },
                          {
                            "endTime" : 3865,
                            "time" : 3835,
                            "value" : 0.999999908672186,
                            "duration" : 30
                          },
                          {
                            "endTime" : 3913,
                            "time" : 3883,
                            "value" : 2.30317149661612,
                            "duration" : 30
                          },
                          {
                            "endTime" : 4027,
                            "time" : 3997,
                            "value" : 0.999999941772713,
                            "duration" : 30
                          },
                          {
                            "endTime" : 4074,
                            "time" : 4044,
                            "value" : 2.22099983278936,
                            "duration" : 30
                          },
                          {
                            "endTime" : 5505,
                            "time" : 5475,
                            "value" : 0.999999924713804,
                            "duration" : 30
                          },
                          {
                            "endTime" : 5539,
                            "time" : 5509,
                            "value" : 1.79597357660838,
                            "duration" : 30
                          },
                          {
                            "endTime" : 5948,
                            "time" : 5915,
                            "value" : 0.999999726659192,
                            "duration" : 33
                          },
                          {
                            "endTime" : 5986,
                            "time" : 5952,
                            "value" : 2.22099913073333,
                            "duration" : 34
                          },
                          {
                            "endTime" : 6175,
                            "time" : 6145,
                            "value" : 0.999999608614738,
                            "duration" : 30
                          },
                          {
                            "endTime" : 6888,
                            "time" : 6858,
                            "value" : 3.86186092319149,
                            "duration" : 30
                          },
                          {
                            "endTime" : 7061,
                            "time" : 7026,
                            "value" : 0.999999202102304,
                            "duration" : 35
                          }
                        ]
                      },
                      "scale1" : {
                        "type" : "double",
                        "defaultValue" : 1.0,
                        "keyframes" : [
                          {
                            "endTime" : 1177,
                            "time" : 1147,
                            "value" : 1.98900308459974,
                            "duration" : 30
                          },
                          {
                            "endTime" : 2474,
                            "time" : 2444,
                            "value" : 1.0,
                            "duration" : 30
                          },
                          {
                            "endTime" : 3259,
                            "time" : 3229,
                            "value" : 2.22091777504271,
                            "duration" : 30
                          },
                          {
                            "endTime" : 3865,
                            "time" : 3835,
                            "value" : 1.0,
                            "duration" : 30
                          },
                          {
                            "endTime" : 3913,
                            "time" : 3883,
                            "value" : 2.30317163072356,
                            "duration" : 30
                          },
                          {
                            "endTime" : 4027,
                            "time" : 3997,
                            "value" : 1.0,
                            "duration" : 30
                          },
                          {
                            "endTime" : 4074,
                            "time" : 4044,
                            "value" : 2.221,
                            "duration" : 30
                          },
                          {
                            "endTime" : 5505,
                            "time" : 5475,
                            "value" : 1.0,
                            "duration" : 30
                          },
                          {
                            "endTime" : 5539,
                            "time" : 5509,
                            "value" : 1.79597406752138,
                            "duration" : 30
                          },
                          {
                            "endTime" : 5948,
                            "time" : 5915,
                            "value" : 1.0,
                            "duration" : 33
                          },
                          {
                            "endTime" : 5986,
                            "time" : 5952,
                            "value" : 2.221,
                            "duration" : 34
                          },
                          {
                            "endTime" : 6175,
                            "time" : 6145,
                            "value" : 1.0,
                            "duration" : 30
                          },
                          {
                            "endTime" : 6888,
                            "time" : 6858,
                            "value" : 3.86186400456388,
                            "duration" : 30
                          },
                          {
                            "endTime" : 7061,
                            "time" : 7026,
                            "value" : 1.0,
                            "duration" : 35
                          }
                        ]
                      },
                      "cursorOpacity" : 1.0,
                      "cursorScale" : 1.0
                    },
                    "medias" : [
                        {
                          "id" : 406,
                          "_type" : "ScreenVMFile",
                          "src" : 1,
                          "trackNumber" : 0,
                          "attributes" : {
                            "ident" : "hijacking_ntfs_structs_attack_prevention"
                          },
                          "parameters" : {
                            "cursorScale" : {
                              "type" : "double",
                              "defaultValue" : 0.0,
                              "interp" : "linr"
                            },
                            "cursorOpacity" : {
                              "type" : "double",
                              "defaultValue" : 0.0,
                              "interp" : "linr"
                            }
                          },
                          "effects" : [

                          ],
                          "start" : 0,
                          "duration" : 1620,
                          "mediaStart" : 0,
                          "mediaDuration" : 1620,
                          "scalar" : 1,
                          "metadata" : {
                            "AutoAppliedSmartFocus" : "False",
                            "clipSpeedAttribute" : false,
                            "default-scale0" : 1.0,
                            "default-scale1" : 1.0,
                            "default-translation0" : 0.0,
                            "default-translation1" : 0.0
                          },
                          "animationTracks" : {

                          }
                        },
                        {
                          "id" : 407,
                          "_type" : "ScreenIMFile",
                          "src" : 1,
                          "trackNumber" : 0,
                          "trimStartSum" : 0,
                          "attributes" : {
                            "ident" : "hijacking_ntfs_structs_attack_prevention"
                          },
                          "parameters" : {
                            "cursorOpacity" : 0.0,
                            "cursorScale" : 0.0
                          },
                          "effects" : [

                          ],
                          "start" : 1620,
                          "duration" : 30,
                          "mediaStart" : 1619,
                          "mediaDuration" : 1,
                          "scalar" : 1,
                          "metadata" : {
                            "AutoAppliedSmartFocus" : "False"
                          },
                          "animationTracks" : {

                          }
                        },
                        {
                          "id" : 408,
                          "_type" : "ScreenVMFile",
                          "src" : 1,
                          "trackNumber" : 0,
                          "attributes" : {
                            "ident" : "hijacking_ntfs_structs_attack_prevention"
                          },
                          "parameters" : {
                            "cursorScale" : {
                              "type" : "double",
                              "defaultValue" : 0.0,
                              "interp" : "linr"
                            },
                            "cursorOpacity" : {
                              "type" : "double",
                              "defaultValue" : 0.0,
                              "interp" : "linr"
                            }
                          },
                          "effects" : [

                          ],
                          "start" : 1650,
                          "duration" : 749,
                          "mediaStart" : 1620,
                          "mediaDuration" : 749,
                          "scalar" : 1,
                          "metadata" : {
                            "AutoAppliedSmartFocus" : "False",
                            "clipSpeedAttribute" : false,
                            "default-scale0" : 1.0,
                            "default-scale1" : 1.0,
                            "default-translation0" : 0.0,
                            "default-translation1" : 0.0
                          },
                          "animationTracks" : {

                          }
                        },
                        {
                          "id" : 409,
                          "_type" : "ScreenIMFile",
                          "src" : 1,
                          "trackNumber" : 0,
                          "trimStartSum" : 0,
                          "attributes" : {
                            "ident" : "hijacking_ntfs_structs_attack_prevention"
                          },
                          "parameters" : {
                            "cursorOpacity" : 0.0,
                            "cursorScale" : 0.0
                          },
                          "effects" : [

                          ],
                          "start" : 2399,
                          "duration" : 30,
                          "mediaStart" : 2369,
                          "mediaDuration" : 1,
                          "scalar" : 1,
                          "metadata" : {
                            "AutoAppliedSmartFocus" : "False"
                          },
                          "animationTracks" : {

                          }
                        },
                        {
                          "id" : 410,
                          "_type" : "ScreenVMFile",
                          "src" : 1,
                          "trackNumber" : 0,
                          "attributes" : {
                            "ident" : "hijacking_ntfs_structs_attack_prevention"
                          },
                          "parameters" : {
                            "cursorScale" : {
                              "type" : "double",
                              "defaultValue" : 0.0,
                              "interp" : "linr"
                            },
                            "cursorOpacity" : {
                              "type" : "double",
                              "defaultValue" : 0.0,
                              "interp" : "linr"
                            }
                          },
                          "effects" : [

                          ],
                          "start" : 2429,
                          "duration" : 67,
                          "mediaStart" : 2369,
                          "mediaDuration" : 67,
                          "scalar" : 1,
                          "metadata" : {
                            "AutoAppliedSmartFocus" : "False",
                            "clipSpeedAttribute" : false,
                            "default-scale0" : 1.0,
                            "default-scale1" : 1.0,
                            "default-translation0" : 0.0,
                            "default-translation1" : 0.0
                          },
                          "animationTracks" : {

                          }
                        },
                        {
                          "id" : 411,
                          "_type" : "ScreenIMFile",
                          "src" : 1,
                          "trackNumber" : 0,
                          "trimStartSum" : 0,
                          "attributes" : {
                            "ident" : "hijacking_ntfs_structs_attack_prevention"
                          },
                          "parameters" : {
                            "cursorOpacity" : 0.0,
                            "cursorScale" : 0.0
                          },
                          "effects" : [

                          ],
                          "start" : 2496,
                          "duration" : 60,
                          "mediaStart" : 2436,
                          "mediaDuration" : 1,
                          "scalar" : 1,
                          "metadata" : {
                            "AutoAppliedSmartFocus" : "False"
                          },
                          "animationTracks" : {

                          }
                        },
                        {
                          "id" : 412,
                          "_type" : "ScreenVMFile",
                          "src" : 1,
                          "trackNumber" : 0,
                          "attributes" : {
                            "ident" : "hijacking_ntfs_structs_attack_prevention"
                          },
                          "parameters" : {
                            "cursorScale" : {
                              "type" : "double",
                              "defaultValue" : 0.0,
                              "interp" : "linr"
                            },
                            "cursorOpacity" : {
                              "type" : "double",
                              "defaultValue" : 0.0,
                              "interp" : "linr"
                            }
                          },
                          "effects" : [

                          ],
                          "start" : 2556,
                          "duration" : 3180,
                          "mediaStart" : 2436,
                          "mediaDuration" : 3180,
                          "scalar" : 1,
                          "metadata" : {
                            "AutoAppliedSmartFocus" : "False",
                            "clipSpeedAttribute" : false,
                            "default-scale0" : 1.0,
                            "default-scale1" : 1.0,
                            "default-translation0" : 0.0,
                            "default-translation1" : 0.0
                          },
                          "animationTracks" : {

                          }
                        },
                        {
                          "id" : 413,
                          "_type" : "ScreenIMFile",
                          "src" : 1,
                          "trackNumber" : 0,
                          "trimStartSum" : 0,
                          "attributes" : {
                            "ident" : "hijacking_ntfs_structs_attack_prevention"
                          },
                          "parameters" : {
                            "cursorOpacity" : 0.0,
                            "cursorScale" : 0.0
                          },
                          "effects" : [

                          ],
                          "start" : 5736,
                          "duration" : 45,
                          "mediaStart" : 5616,
                          "mediaDuration" : 1,
                          "scalar" : 1,
                          "metadata" : {
                            "AutoAppliedSmartFocus" : "False"
                          },
                          "animationTracks" : {

                          }
                        },
                        {
                          "id" : 414,
                          "_type" : "ScreenVMFile",
                          "src" : 1,
                          "trackNumber" : 0,
                          "attributes" : {
                            "ident" : "hijacking_ntfs_structs_attack_prevention"
                          },
                          "parameters" : {
                            "cursorScale" : {
                              "type" : "double",
                              "defaultValue" : 0.0,
                              "interp" : "linr"
                            },
                            "cursorOpacity" : {
                              "type" : "double",
                              "defaultValue" : 0.0,
                              "interp" : "linr"
                            }
                          },
                          "effects" : [

                          ],
                          "start" : 5781,
                          "duration" : 1160,
                          "mediaStart" : 5616,
                          "mediaDuration" : 1160,
                          "scalar" : 1,
                          "metadata" : {
                            "AutoAppliedSmartFocus" : "False",
                            "clipSpeedAttribute" : false,
                            "default-scale0" : 1.0,
                            "default-scale1" : 1.0,
                            "default-translation0" : 0.0,
                            "default-translation1" : 0.0
                          },
                          "animationTracks" : {

                          }
                        },
                        {
                          "id" : 415,
                          "_type" : "ScreenIMFile",
                          "src" : 1,
                          "trackNumber" : 0,
                          "trimStartSum" : 0,
                          "attributes" : {
                            "ident" : "hijacking_ntfs_structs_attack_prevention"
                          },
                          "parameters" : {
                            "cursorOpacity" : 0.0,
                            "cursorScale" : 0.0
                          },
                          "effects" : [

                          ],
                          "start" : 6941,
                          "duration" : 30,
                          "mediaStart" : 6776,
                          "mediaDuration" : 1,
                          "scalar" : 1,
                          "metadata" : {
                            "AutoAppliedSmartFocus" : "False"
                          },
                          "animationTracks" : {

                          }
                        },
                        {
                          "id" : 416,
                          "_type" : "ScreenVMFile",
                          "src" : 1,
                          "trackNumber" : 0,
                          "attributes" : {
                            "ident" : "hijacking_ntfs_structs_attack_prevention"
                          },
                          "parameters" : {
                            "cursorScale" : {
                              "type" : "double",
                              "defaultValue" : 0.0,
                              "interp" : "linr"
                            },
                            "cursorOpacity" : {
                              "type" : "double",
                              "defaultValue" : 0.0,
                              "interp" : "linr"
                            }
                          },
                          "effects" : [

                          ],
                          "start" : 6971,
                          "duration" : 82,
                          "mediaStart" : 6776,
                          "mediaDuration" : 82,
                          "scalar" : 1,
                          "metadata" : {
                            "AutoAppliedSmartFocus" : "False",
                            "clipSpeedAttribute" : false,
                            "default-scale0" : 1.0,
                            "default-scale1" : 1.0,
                            "default-translation0" : 0.0,
                            "default-translation1" : 0.0
                          },
                          "animationTracks" : {

                          }
                        },
                        {
                          "id" : 417,
                          "_type" : "ScreenIMFile",
                          "src" : 1,
                          "trackNumber" : 0,
                          "trimStartSum" : 0,
                          "attributes" : {
                            "ident" : "hijacking_ntfs_structs_attack_prevention"
                          },
                          "parameters" : {
                            "cursorOpacity" : 0.0,
                            "cursorScale" : 0.0
                          },
                          "effects" : [

                          ],
                          "start" : 7053,
                          "duration" : 270,
                          "mediaStart" : 6858,
                          "mediaDuration" : 1,
                          "scalar" : 1,
                          "metadata" : {
                            "AutoAppliedSmartFocus" : "False"
                          },
                          "animationTracks" : {

                          }
                        },
                        {
                          "id" : 418,
                          "_type" : "ScreenVMFile",
                          "src" : 1,
                          "trackNumber" : 0,
                          "attributes" : {
                            "ident" : "hijacking_ntfs_structs_attack_prevention"
                          },
                          "parameters" : {
                            "cursorScale" : {
                              "type" : "double",
                              "defaultValue" : 0.0,
                              "interp" : "linr"
                            },
                            "cursorOpacity" : {
                              "type" : "double",
                              "defaultValue" : 0.0,
                              "interp" : "linr"
                            }
                          },
                          "effects" : [

                          ],
                          "start" : 7323,
                          "duration" : 175,
                          "mediaStart" : 6858,
                          "mediaDuration" : 175,
                          "scalar" : 1,
                          "metadata" : {
                            "AutoAppliedSmartFocus" : "False",
                            "clipSpeedAttribute" : false,
                            "default-scale0" : 1.0,
                            "default-scale1" : 1.0,
                            "default-translation0" : 0.0,
                            "default-translation1" : 0.0
                          },
                          "animationTracks" : {

                          }
                        }
                    ],
                    "effects" : [
                        {
                          "effectName" : "CursorHilight",
                          "category" : "categoryCursorEffects",
                          "parameters" : {
                            "blur" : 0.1,
                            "color-alpha" : 0.75,
                            "color-blue" : 0.0,
                            "color-green" : 1.0,
                            "color-red" : 1.0,
                            "radius" : 50.0
                          }
                        }
                    ],
                    "start" : 3737,
                    "duration" : 312,
                    "mediaStart" : 7019,
                    "mediaDuration" : 312,
                    "scalar" : 1,
                    "metadata" : {
                      "AutoAppliedSmartFocus" : "False",
                      "clipSpeedAttribute" : false
                    },
                    "animationTracks" : {
                      "visual" : [
                        {
                          "endTime" : 1177,
                          "duration" : 30,
                          "range" : [ 1147, 30]
                        },
                        {
                          "endTime" : 1449,
                          "duration" : 30,
                          "range" : [ 1419, 30]
                        },
                        {
                          "endTime" : 2474,
                          "duration" : 30,
                          "range" : [ 2444, 30]
                        },
                        {
                          "endTime" : 3259,
                          "duration" : 30,
                          "range" : [ 3229, 30]
                        },
                        {
                          "endTime" : 3491,
                          "duration" : 30,
                          "range" : [ 3461, 30]
                        },
                        {
                          "endTime" : 3865,
                          "duration" : 30,
                          "range" : [ 3835, 30]
                        },
                        {
                          "endTime" : 3913,
                          "duration" : 30,
                          "range" : [ 3883, 30]
                        },
                        {
                          "endTime" : 4027,
                          "duration" : 30,
                          "range" : [ 3997, 30]
                        },
                        {
                          "endTime" : 4074,
                          "duration" : 30,
                          "range" : [ 4044, 30]
                        },
                        {
                          "endTime" : 5505,
                          "duration" : 30,
                          "range" : [ 5475, 30]
                        },
                        {
                          "endTime" : 5539,
                          "duration" : 30,
                          "range" : [ 5509, 30]
                        },
                        {
                          "endTime" : 5948,
                          "duration" : 33,
                          "range" : [ 5915, 33]
                        },
                        {
                          "endTime" : 5986,
                          "duration" : 34,
                          "range" : [ 5952, 34]
                        },
                        {
                          "endTime" : 6175,
                          "duration" : 30,
                          "range" : [ 6145, 30]
                        },
                        {
                          "endTime" : 6888,
                          "duration" : 30,
                          "range" : [ 6858, 30]
                        },
                        {
                          "endTime" : 7061,
                          "duration" : 35,
                          "range" : [ 7026, 35]
                        }
                      ]
                    }
                  }
                ]
              },
              {
                "trackIndex" : 3,
                "medias" : [
                  {
                    "id" : 419,
                    "_type" : "Callout",
                    "def" : {
                      "kind" : "remix",
                      "shape" : "text",
                      "style" : "basic",
                      "height" : 367.470588235207,
                      "line-spacing" : 0.0,
                      "width" : 1968.09522058886,
                      "word-wrap" : 1.0,
                      "horizontal-alignment" : "center",
                      "resize-behavior" : "resizeText",
                      "text" : "MemoryRanger protects NTFS data structures",
                      "vertical-alignment" : "center",
                      "font" : {
                        "color-blue" : 1.0,
                        "color-green" : 1.0,
                        "color-red" : 1.0,
                        "size" : 96.0,
                        "tracking" : 0.0,
                        "name" : "Montserrat",
                        "weight" : "Regular"
                      },
                      "textAttributes" : {
                        "type" : "textAttributeList",
                        "keyframes" : [
                          {
                            "endTime" : 0,
                            "time" : 0,
                            "value" : [{"name":"fontWeight","rangeEnd":42,"rangeStart":0,"value":400,"valueType":"int"},{"name":"fontItalic","rangeEnd":42,"rangeStart":0,"value":0,"valueType":"int"},{"name":"fontSize","rangeEnd":42,"rangeStart":0,"value":78,"valueType":"double"},{"name":"strikethrough","rangeEnd":42,"rangeStart":0,"value":0,"valueType":"int"},{"name":"kerning","rangeEnd":42,"rangeStart":0,"value":0,"valueType":"double"},{"name":"underline","rangeEnd":42,"rangeStart":0,"value":0,"valueType":"int"},{"name":"fgColor","rangeEnd":42,"rangeStart":0,"value":"(255,255,255,255)","valueType":"color"},{"name":"fontName","rangeEnd":42,"rangeStart":0,"value":"Montserrat","valueType":"string"}],
                            "duration" : 0
                          }
                        ]
                      }
                    },
                    "attributes" : {
                      "autoRotateText" : true
                    },
                    "parameters" : {
                      "translation0" : 0.4523897057332,
                      "translation1" : -428.419712551936
                    },
                    "effects" : [
                        {
                          "effectName" : "DropShadow",
                          "category" : "categoryVisualEffects",
                          "parameters" : {
                            "angle" : 5.49778714378214,
                            "blur" : 10.0,
                            "color-alpha" : 1.0,
                            "color-blue" : 0.1216,
                            "color-green" : 0.1216,
                            "color-red" : 0.1216,
                            "enabled" : 1,
                            "offset" : 10.0,
                            "opacity" : 0.4
                          }
                        }
                    ],
                    "start" : 0,
                    "duration" : 150,
                    "mediaStart" : 0,
                    "mediaDuration" : 150,
                    "scalar" : 1,
                    "metadata" : {
                      "WinSubProjectDisplayName" : "",
                      "clipSpeedAttribute" : false,
                      "default-HAlign" : "center",
                      "default-LineSpace" : 0.0,
                      "default-VAlign" : "center",
                      "default-text-attributes" : "[{\"name\":\"strikethrough\",\"rangeEnd\":76,\"rangeStart\":0,\"value\":0,\"valueType\":\"int\"},{\"name\":\"fontItalic\",\"rangeEnd\":76,\"rangeStart\":0,\"value\":0,\"valueType\":\"int\"},{\"name\":\"fontName\",\"rangeEnd\":76,\"rangeStart\":0,\"value\":\"Montserrat\",\"valueType\":\"string\"},{\"name\":\"fgColor\",\"rangeEnd\":76,\"rangeStart\":0,\"value\":\"(255,255,255,255)\",\"valueType\":\"color\"},{\"name\":\"fontSize\",\"rangeEnd\":76,\"rangeStart\":0,\"value\":59,\"valueType\":\"double\"},{\"name\":\"underline\",\"rangeEnd\":76,\"rangeStart\":0,\"value\":0,\"valueType\":\"int\"},{\"name\":\"fontWeight\",\"rangeEnd\":76,\"rangeStart\":0,\"value\":400,\"valueType\":\"int\"}]",
                      "default-translation0" : 0.0,
                      "default-translation1" : 0.0
                    },
                    "animationTracks" : {

                    }
                  },
                  {
                    "id" : 420,
                    "_type" : "IMFile",
                    "src" : 9,
                    "trackNumber" : 0,
                    "trimStartSum" : -11,
                    "attributes" : {
                      "ident" : "memoryranger_without_gun_transparent_cropped"
                    },
                    "parameters" : {
                      "translation0" : 63.0914826492151,
                      "translation1" : 468.374613978555,
                      "scale0" : 0.263435668617673,
                      "scale1" : 0.263435668617673
                    },
                    "effects" : [

                    ],
                    "start" : 238,
                    "duration" : 72,
                    "mediaStart" : 0,
                    "mediaDuration" : 1,
                    "scalar" : 1,
                    "metadata" : {
                      "clipSpeedAttribute" : false,
                      "default-scale0" : 1.0,
                      "default-scale1" : 1.0,
                      "default-translation0" : 0.0,
                      "default-translation1" : 0.0
                    },
                    "animationTracks" : {

                    }
                  },
                  {
                    "id" : 421,
                    "_type" : "IMFile",
                    "src" : 9,
                    "trackNumber" : 0,
                    "trimStartSum" : 50,
                    "attributes" : {
                      "ident" : "memoryranger_without_gun_transparent_cropped"
                    },
                    "parameters" : {
                      "translation0" : 63.0914826492151,
                      "translation1" : -59.5323627656172,
                      "scale0" : 0.263435668617673,
                      "scale1" : 0.263435668617673
                    },
                    "effects" : [

                    ],
                    "start" : 310,
                    "duration" : 14,
                    "mediaStart" : 0,
                    "mediaDuration" : 1,
                    "scalar" : 1,
                    "metadata" : {
                      "clipSpeedAttribute" : false,
                      "default-scale0" : 1.0,
                      "default-scale1" : 1.0,
                      "default-translation0" : 0.0,
                      "default-translation1" : 0.0
                    },
                    "animationTracks" : {

                    }
                  },
                  {
                    "id" : 422,
                    "_type" : "IMFile",
                    "src" : 9,
                    "trackNumber" : 0,
                    "trimStartSum" : 60,
                    "attributes" : {
                      "ident" : "memoryranger_without_gun_transparent_cropped"
                    },
                    "parameters" : {
                      "translation0" : 63.0914826492151,
                      "translation1" : -59.5323627656172,
                      "scale0" : 0.263435668617673,
                      "scale1" : 0.263435668617673
                    },
                    "effects" : [

                    ],
                    "start" : 324,
                    "duration" : 1,
                    "mediaStart" : 0,
                    "mediaDuration" : 1,
                    "scalar" : 1,
                    "metadata" : {
                      "clipSpeedAttribute" : false,
                      "default-scale0" : 1.0,
                      "default-scale1" : 1.0,
                      "default-translation0" : 0.0,
                      "default-translation1" : 0.0
                    },
                    "animationTracks" : {

                    }
                  },
                  {
                    "id" : 423,
                    "_type" : "IMFile",
                    "src" : 9,
                    "trackNumber" : 0,
                    "trimStartSum" : 60,
                    "attributes" : {
                      "ident" : "memoryranger_without_gun_transparent_cropped"
                    },
                    "parameters" : {
                      "translation0" : 63.0914826492151,
                      "translation1" : -59.5323627656172,
                      "scale0" : 0.263435668617673,
                      "scale1" : 0.263435668617673
                    },
                    "effects" : [

                    ],
                    "start" : 325,
                    "duration" : 1,
                    "mediaStart" : 0,
                    "mediaDuration" : 1,
                    "scalar" : 1,
                    "metadata" : {
                      "clipSpeedAttribute" : false,
                      "default-scale0" : 1.0,
                      "default-scale1" : 1.0,
                      "default-translation0" : 0.0,
                      "default-translation1" : 0.0
                    },
                    "animationTracks" : {

                    }
                  },
                  {
                    "id" : 424,
                    "_type" : "IMFile",
                    "src" : 9,
                    "trackNumber" : 0,
                    "trimStartSum" : 60,
                    "attributes" : {
                      "ident" : "memoryranger_without_gun_transparent_cropped"
                    },
                    "parameters" : {
                      "translation0" : 63.0914826492151,
                      "translation1" : -59.5323627656172,
                      "scale0" : 0.263435668617673,
                      "scale1" : 0.263435668617673
                    },
                    "effects" : [

                    ],
                    "start" : 326,
                    "duration" : 1,
                    "mediaStart" : 0,
                    "mediaDuration" : 1,
                    "scalar" : 1,
                    "metadata" : {
                      "clipSpeedAttribute" : false,
                      "default-scale0" : 1.0,
                      "default-scale1" : 1.0,
                      "default-translation0" : 0.0,
                      "default-translation1" : 0.0
                    },
                    "animationTracks" : {

                    }
                  },
                  {
                    "id" : 425,
                    "_type" : "IMFile",
                    "src" : 9,
                    "trackNumber" : 0,
                    "trimStartSum" : 60,
                    "attributes" : {
                      "ident" : "memoryranger_without_gun_transparent_cropped"
                    },
                    "parameters" : {
                      "translation0" : 63.0914826492151,
                      "translation1" : -59.5323627656172,
                      "scale0" : 0.263435668617673,
                      "scale1" : 0.263435668617673
                    },
                    "effects" : [

                    ],
                    "start" : 327,
                    "duration" : 1,
                    "mediaStart" : 0,
                    "mediaDuration" : 1,
                    "scalar" : 1,
                    "metadata" : {
                      "clipSpeedAttribute" : false,
                      "default-scale0" : 1.0,
                      "default-scale1" : 1.0,
                      "default-translation0" : 0.0,
                      "default-translation1" : 0.0
                    },
                    "animationTracks" : {

                    }
                  },
                  {
                    "id" : 426,
                    "_type" : "IMFile",
                    "src" : 9,
                    "trackNumber" : 0,
                    "trimStartSum" : 60,
                    "attributes" : {
                      "ident" : "memoryranger_without_gun_transparent_cropped"
                    },
                    "parameters" : {
                      "translation0" : 63.0914826492151,
                      "translation1" : -59.5323627656172,
                      "scale0" : 0.263435668617673,
                      "scale1" : 0.263435668617673
                    },
                    "effects" : [

                    ],
                    "start" : 328,
                    "duration" : 1,
                    "mediaStart" : 0,
                    "mediaDuration" : 1,
                    "scalar" : 1,
                    "metadata" : {
                      "clipSpeedAttribute" : false,
                      "default-scale0" : 1.0,
                      "default-scale1" : 1.0,
                      "default-translation0" : 0.0,
                      "default-translation1" : 0.0
                    },
                    "animationTracks" : {

                    }
                  },
                  {
                    "id" : 427,
                    "_type" : "IMFile",
                    "src" : 9,
                    "trackNumber" : 0,
                    "trimStartSum" : 60,
                    "attributes" : {
                      "ident" : "memoryranger_without_gun_transparent_cropped"
                    },
                    "parameters" : {
                      "translation0" : 63.0914826492151,
                      "translation1" : -59.5323627656172,
                      "scale0" : 0.263435668617673,
                      "scale1" : 0.263435668617673
                    },
                    "effects" : [

                    ],
                    "start" : 329,
                    "duration" : 1,
                    "mediaStart" : 0,
                    "mediaDuration" : 1,
                    "scalar" : 1,
                    "metadata" : {
                      "clipSpeedAttribute" : false,
                      "default-scale0" : 1.0,
                      "default-scale1" : 1.0,
                      "default-translation0" : 0.0,
                      "default-translation1" : 0.0
                    },
                    "animationTracks" : {

                    }
                  },
                  {
                    "id" : 428,
                    "_type" : "IMFile",
                    "src" : 9,
                    "trackNumber" : 0,
                    "trimStartSum" : 60,
                    "attributes" : {
                      "ident" : "memoryranger_without_gun_transparent_cropped"
                    },
                    "parameters" : {
                      "translation0" : 63.0914826492151,
                      "translation1" : -59.5323627656172,
                      "scale0" : 0.263435668617673,
                      "scale1" : 0.263435668617673
                    },
                    "effects" : [

                    ],
                    "start" : 330,
                    "duration" : 1,
                    "mediaStart" : 0,
                    "mediaDuration" : 1,
                    "scalar" : 1,
                    "metadata" : {
                      "clipSpeedAttribute" : false,
                      "default-scale0" : 1.0,
                      "default-scale1" : 1.0,
                      "default-translation0" : 0.0,
                      "default-translation1" : 0.0
                    },
                    "animationTracks" : {

                    }
                  },
                  {
                    "id" : 429,
                    "_type" : "IMFile",
                    "src" : 9,
                    "trackNumber" : 0,
                    "trimStartSum" : 60,
                    "attributes" : {
                      "ident" : "memoryranger_without_gun_transparent_cropped"
                    },
                    "parameters" : {
                      "translation0" : 63.0914826492151,
                      "translation1" : -59.5323627656172,
                      "scale0" : 0.263435668617673,
                      "scale1" : 0.263435668617673
                    },
                    "effects" : [

                    ],
                    "start" : 331,
                    "duration" : 1,
                    "mediaStart" : 0,
                    "mediaDuration" : 1,
                    "scalar" : 1,
                    "metadata" : {
                      "clipSpeedAttribute" : false,
                      "default-scale0" : 1.0,
                      "default-scale1" : 1.0,
                      "default-translation0" : 0.0,
                      "default-translation1" : 0.0
                    },
                    "animationTracks" : {

                    }
                  },
                  {
                    "id" : 430,
                    "_type" : "IMFile",
                    "src" : 9,
                    "trackNumber" : 0,
                    "trimStartSum" : 60,
                    "attributes" : {
                      "ident" : "memoryranger_without_gun_transparent_cropped"
                    },
                    "parameters" : {
                      "translation0" : 63.0914826492151,
                      "translation1" : -59.5323627656172,
                      "scale0" : 0.263435668617673,
                      "scale1" : 0.263435668617673
                    },
                    "effects" : [

                    ],
                    "start" : 332,
                    "duration" : 1,
                    "mediaStart" : 0,
                    "mediaDuration" : 1,
                    "scalar" : 1,
                    "metadata" : {
                      "clipSpeedAttribute" : false,
                      "default-scale0" : 1.0,
                      "default-scale1" : 1.0,
                      "default-translation0" : 0.0,
                      "default-translation1" : 0.0
                    },
                    "animationTracks" : {

                    }
                  },
                  {
                    "id" : 431,
                    "_type" : "IMFile",
                    "src" : 9,
                    "trackNumber" : 0,
                    "trimStartSum" : 60,
                    "attributes" : {
                      "ident" : "memoryranger_without_gun_transparent_cropped"
                    },
                    "parameters" : {
                      "translation0" : 63.0914826491589,
                      "translation1" : -110.695153463266,
                      "scale0" : 0.263435668617673,
                      "scale1" : 0.263435668617673
                    },
                    "effects" : [

                    ],
                    "start" : 333,
                    "duration" : 1,
                    "mediaStart" : 0,
                    "mediaDuration" : 1,
                    "scalar" : 1,
                    "metadata" : {
                      "clipSpeedAttribute" : false,
                      "default-scale0" : 1.0,
                      "default-scale1" : 1.0,
                      "default-translation0" : 0.0,
                      "default-translation1" : 0.0
                    },
                    "animationTracks" : {

                    }
                  },
                  {
                    "id" : 432,
                    "_type" : "IMFile",
                    "src" : 9,
                    "trackNumber" : 0,
                    "trimStartSum" : 60,
                    "attributes" : {
                      "ident" : "memoryranger_without_gun_transparent_cropped"
                    },
                    "parameters" : {
                      "translation0" : 139.835668695688,
                      "translation1" : -282.788176719093,
                      "scale0" : 0.263435668617673,
                      "scale1" : 0.263435668617673
                    },
                    "effects" : [

                    ],
                    "start" : 334,
                    "duration" : 1,
                    "mediaStart" : 0,
                    "mediaDuration" : 1,
                    "scalar" : 1,
                    "metadata" : {
                      "clipSpeedAttribute" : false,
                      "default-scale0" : 1.0,
                      "default-scale1" : 1.0,
                      "default-translation0" : 0.0,
                      "default-translation1" : 0.0
                    },
                    "animationTracks" : {

                    }
                  },
                  {
                    "id" : 433,
                    "_type" : "IMFile",
                    "src" : 9,
                    "trackNumber" : 0,
                    "trimStartSum" : 60,
                    "attributes" : {
                      "ident" : "memoryranger_without_gun_transparent_cropped"
                    },
                    "parameters" : {
                      "translation0" : 230.533343114305,
                      "translation1" : -387.439339509821,
                      "scale0" : 0.263435668617673,
                      "scale1" : 0.263435668617673
                    },
                    "effects" : [

                    ],
                    "start" : 335,
                    "duration" : 1,
                    "mediaStart" : 0,
                    "mediaDuration" : 1,
                    "scalar" : 1,
                    "metadata" : {
                      "clipSpeedAttribute" : false,
                      "default-scale0" : 1.0,
                      "default-scale1" : 1.0,
                      "default-translation0" : 0.0,
                      "default-translation1" : 0.0
                    },
                    "animationTracks" : {

                    }
                  },
                  {
                    "id" : 434,
                    "_type" : "IMFile",
                    "src" : 9,
                    "trackNumber" : 0,
                    "trimStartSum" : 60,
                    "attributes" : {
                      "ident" : "memoryranger_without_gun_transparent_cropped"
                    },
                    "parameters" : {
                      "translation0" : 284.021715207361,
                      "translation1" : -413.020734858611,
                      "scale0" : 0.263435668617673,
                      "scale1" : 0.263435668617673
                    },
                    "effects" : [

                    ],
                    "start" : 336,
                    "duration" : 1,
                    "mediaStart" : 0,
                    "mediaDuration" : 1,
                    "scalar" : 1,
                    "metadata" : {
                      "clipSpeedAttribute" : false,
                      "default-scale0" : 1.0,
                      "default-scale1" : 1.0,
                      "default-translation0" : 0.0,
                      "default-translation1" : 0.0
                    },
                    "animationTracks" : {

                    }
                  },
                  {
                    "id" : 435,
                    "_type" : "IMFile",
                    "src" : 9,
                    "trackNumber" : 0,
                    "trimStartSum" : 60,
                    "attributes" : {
                      "ident" : "memoryranger_without_gun_transparent_cropped"
                    },
                    "parameters" : {
                      "translation0" : 284.021715207361,
                      "translation1" : -413.020734858611,
                      "scale0" : 0.263435668617673,
                      "scale1" : 0.263435668617673
                    },
                    "effects" : [

                    ],
                    "start" : 337,
                    "duration" : 1,
                    "mediaStart" : 0,
                    "mediaDuration" : 1,
                    "scalar" : 1,
                    "metadata" : {
                      "clipSpeedAttribute" : false,
                      "default-scale0" : 1.0,
                      "default-scale1" : 1.0,
                      "default-translation0" : 0.0,
                      "default-translation1" : 0.0
                    },
                    "animationTracks" : {

                    }
                  },
                  {
                    "id" : 436,
                    "_type" : "IMFile",
                    "src" : 9,
                    "trackNumber" : 0,
                    "trimStartSum" : 60,
                    "attributes" : {
                      "ident" : "memoryranger_without_gun_transparent_cropped"
                    },
                    "parameters" : {
                      "translation0" : 284.021715207361,
                      "translation1" : -413.020734858611,
                      "scale0" : 0.263435668617673,
                      "scale1" : 0.263435668617673
                    },
                    "effects" : [

                    ],
                    "start" : 338,
                    "duration" : 1,
                    "mediaStart" : 0,
                    "mediaDuration" : 1,
                    "scalar" : 1,
                    "metadata" : {
                      "clipSpeedAttribute" : false,
                      "default-scale0" : 1.0,
                      "default-scale1" : 1.0,
                      "default-translation0" : 0.0,
                      "default-translation1" : 0.0
                    },
                    "animationTracks" : {

                    }
                  },
                  {
                    "id" : 437,
                    "_type" : "IMFile",
                    "src" : 9,
                    "trackNumber" : 0,
                    "trimStartSum" : 60,
                    "attributes" : {
                      "ident" : "memoryranger_without_gun_transparent_cropped"
                    },
                    "parameters" : {
                      "translation0" : 309.603110556242,
                      "translation1" : -452.555618579534,
                      "scale0" : 0.263435668617673,
                      "scale1" : 0.263435668617673
                    },
                    "effects" : [

                    ],
                    "start" : 339,
                    "duration" : 1,
                    "mediaStart" : 0,
                    "mediaDuration" : 1,
                    "scalar" : 1,
                    "metadata" : {
                      "clipSpeedAttribute" : false,
                      "default-scale0" : 1.0,
                      "default-scale1" : 1.0,
                      "default-translation0" : 0.0,
                      "default-translation1" : 0.0
                    },
                    "animationTracks" : {

                    }
                  },
                  {
                    "id" : 438,
                    "_type" : "IMFile",
                    "src" : 9,
                    "trackNumber" : 0,
                    "trimStartSum" : 60,
                    "attributes" : {
                      "ident" : "memoryranger_without_gun_transparent_cropped"
                    },
                    "parameters" : {
                      "translation0" : 325.88218032367,
                      "translation1" : -506.043990672591,
                      "scale0" : 0.263435668617673,
                      "scale1" : 0.263435668617673
                    },
                    "effects" : [

                    ],
                    "start" : 340,
                    "duration" : 1,
                    "mediaStart" : 0,
                    "mediaDuration" : 1,
                    "scalar" : 1,
                    "metadata" : {
                      "clipSpeedAttribute" : false,
                      "default-scale0" : 1.0,
                      "default-scale1" : 1.0,
                      "default-translation0" : 0.0,
                      "default-translation1" : 0.0
                    },
                    "animationTracks" : {

                    }
                  },
                  {
                    "id" : 439,
                    "_type" : "IMFile",
                    "src" : 9,
                    "trackNumber" : 0,
                    "trimStartSum" : 33,
                    "attributes" : {
                      "ident" : "memoryranger_without_gun_transparent_cropped"
                    },
                    "parameters" : {
                      "translation0" : 335.184505905077,
                      "translation1" : -526.9742232307,
                      "scale0" : 0.263435668617673,
                      "scale1" : 0.263435668617673
                    },
                    "effects" : [

                    ],
                    "start" : 341,
                    "duration" : 28,
                    "mediaStart" : 0,
                    "mediaDuration" : 1,
                    "scalar" : 1,
                    "metadata" : {
                      "clipSpeedAttribute" : false,
                      "default-scale0" : 1.0,
                      "default-scale1" : 1.0,
                      "default-translation0" : 0.0,
                      "default-translation1" : 0.0
                    },
                    "animationTracks" : {

                    }
                  },
                  {
                    "id" : 440,
                    "_type" : "IMFile",
                    "src" : 9,
                    "trackNumber" : 0,
                    "trimStartSum" : 33,
                    "attributes" : {
                      "ident" : "memoryranger_without_gun_transparent_cropped"
                    },
                    "parameters" : {
                      "translation0" : 335.184505905077,
                      "translation1" : -526.9742232307,
                      "scale0" : 0.263435668617673,
                      "scale1" : 0.263435668617673
                    },
                    "effects" : [

                    ],
                    "start" : 461,
                    "duration" : 16,
                    "mediaStart" : 0,
                    "mediaDuration" : 1,
                    "scalar" : 1,
                    "metadata" : {
                      "clipSpeedAttribute" : false,
                      "default-scale0" : 1.0,
                      "default-scale1" : 1.0,
                      "default-translation0" : 0.0,
                      "default-translation1" : 0.0
                    },
                    "animationTracks" : {

                    }
                  },
                  {
                    "id" : 441,
                    "_type" : "Callout",
                    "def" : {
                      "kind" : "remix",
                      "shape" : "text-rectangle",
                      "style" : "basic",
                      "fill-color-blue" : 0.270588235294118,
                      "fill-color-green" : 0.243137254901961,
                      "fill-color-opacity" : 1.0,
                      "fill-color-red" : 0.211764705882353,
                      "height" : 129.294117647127,
                      "line-spacing" : 0.0,
                      "stroke-color-blue" : 0.890196078431372,
                      "stroke-color-green" : 0.870588235294118,
                      "stroke-color-opacity" : 1.0,
                      "stroke-color-red" : 0.847058823529412,
                      "stroke-width" : 2.0,
                      "tail-x" : -322.794117646963,
                      "tail-y" : 34.8529411764282,
                      "width" : 2380.2148586715,
                      "word-wrap" : 1.0,
                      "fill-style" : "solid",
                      "horizontal-alignment" : "center",
                      "resize-behavior" : "resizeText",
                      "stroke-style" : "solid",
                      "text" : "The researcher is creating a new file 'secret_formula.txt'",
                      "vertical-alignment" : "center",
                      "font" : {
                        "color-blue" : 0.266666666666667,
                        "color-green" : 0.231372549019608,
                        "color-opacity" : 1.0,
                        "color-red" : 0.184313725490196,
                        "size" : 64.0,
                        "tracking" : 0.0,
                        "name" : "Montserrat",
                        "weight" : "Regular"
                      },
                      "textAttributes" : {
                        "type" : "textAttributeList",
                        "keyframes" : [
                          {
                            "endTime" : 0,
                            "time" : 0,
                            "value" : [{"name":"fontWeight","rangeEnd":58,"rangeStart":0,"value":400,"valueType":"int"},{"name":"fontSize","rangeEnd":58,"rangeStart":0,"value":80,"valueType":"double"},{"name":"underline","rangeEnd":58,"rangeStart":0,"value":0,"valueType":"int"},{"name":"fontName","rangeEnd":58,"rangeStart":0,"value":"Montserrat","valueType":"string"},{"name":"fontItalic","rangeEnd":58,"rangeStart":0,"value":0,"valueType":"int"},{"name":"fgColor","rangeEnd":58,"rangeStart":0,"value":"(255,255,255,255)","valueType":"color"},{"name":"strikethrough","rangeEnd":58,"rangeStart":0,"value":0,"valueType":"int"}],
                            "duration" : 0
                          }
                        ]
                      }
                    },
                    "attributes" : {
                      "autoRotateText" : true
                    },
                    "parameters" : {
                      "translation0" : -1.71212377608754e-10,
                      "translation1" : -592.215073529575
                    },
                    "effects" : [
                        {
                          "effectName" : "DropShadow",
                          "category" : "categoryVisualEffects",
                          "parameters" : {
                            "angle" : 5.49778714378214,
                            "blur" : 10.0,
                            "color-alpha" : 1.0,
                            "color-blue" : 0.1216,
                            "color-green" : 0.1216,
                            "color-red" : 0.1216,
                            "enabled" : 1,
                            "offset" : 10.0,
                            "opacity" : 0.4
                          }
                        }
                    ],
                    "start" : 508,
                    "duration" : 90,
                    "mediaStart" : 3,
                    "mediaDuration" : 90,
                    "scalar" : 1,
                    "metadata" : {
                      "WinSubProjectDisplayName" : "",
                      "clipSpeedAttribute" : false,
                      "default-HAlign" : "center",
                      "default-LineSpace" : 0.0,
                      "default-VAlign" : "center",
                      "default-fill-color-blue" : 1.0,
                      "default-fill-color-green" : 1.0,
                      "default-fill-color-red" : 1.0,
                      "default-stroke-color-blue" : 0.56078431372549,
                      "default-stroke-color-green" : 0.686274509803922,
                      "default-stroke-color-red" : 0.0196078431372549,
                      "default-text-attributes" : "[{\"name\":\"fontSize\",\"rangeEnd\":32,\"rangeStart\":0,\"value\":64,\"valueType\":\"double\"},{\"name\":\"fgColor\",\"rangeEnd\":32,\"rangeStart\":0,\"value\":\"(255,255,255,255)\",\"valueType\":\"color\"},{\"name\":\"fontWeight\",\"rangeEnd\":32,\"rangeStart\":0,\"value\":400,\"valueType\":\"int\"},{\"name\":\"fontName\",\"rangeEnd\":32,\"rangeStart\":0,\"value\":\"Montserrat\",\"valueType\":\"string\"},{\"name\":\"fontItalic\",\"rangeEnd\":32,\"rangeStart\":0,\"value\":0,\"valueType\":\"int\"},{\"name\":\"strikethrough\",\"rangeEnd\":32,\"rangeStart\":0,\"value\":0,\"valueType\":\"int\"},{\"name\":\"underline\",\"rangeEnd\":32,\"rangeStart\":0,\"value\":0,\"valueType\":\"int\"}]",
                      "default-translation0" : 0.0,
                      "default-translation1" : 0.0
                    },
                    "animationTracks" : {

                    }
                  },
                  {
                    "id" : 442,
                    "_type" : "Callout",
                    "def" : {
                      "kind" : "remix",
                      "shape" : "text-rectangle",
                      "style" : "basic",
                      "fill-color-blue" : 0.270588235294118,
                      "fill-color-green" : 0.243137254901961,
                      "fill-color-opacity" : 1.0,
                      "fill-color-red" : 0.211764705882353,
                      "height" : 126.666666666661,
                      "line-spacing" : 0.0,
                      "stroke-color-blue" : 0.890196078431372,
                      "stroke-color-green" : 0.870588235294118,
                      "stroke-color-opacity" : 1.0,
                      "stroke-color-red" : 0.847058823529412,
                      "stroke-width" : 2.0,
                      "tail-x" : -406.249999999963,
                      "tail-y" : 3.33333333331352,
                      "width" : 337.500000000259,
                      "word-wrap" : 1.0,
                      "fill-style" : "solid",
                      "horizontal-alignment" : "center",
                      "resize-behavior" : "resizeText",
                      "stroke-style" : "solid",
                      "text" : "Done",
                      "vertical-alignment" : "center",
                      "font" : {
                        "color-blue" : 0.266666666666667,
                        "color-green" : 0.231372549019608,
                        "color-opacity" : 1.0,
                        "color-red" : 0.184313725490196,
                        "size" : 64.0,
                        "tracking" : 0.0,
                        "name" : "Montserrat",
                        "weight" : "Regular"
                      },
                      "textAttributes" : {
                        "type" : "textAttributeList",
                        "keyframes" : [
                          {
                            "endTime" : 0,
                            "time" : 0,
                            "value" : [{"name":"underline","rangeEnd":4,"rangeStart":0,"value":0,"valueType":"int"},{"name":"fgColor","rangeEnd":4,"rangeStart":0,"value":"(255,255,255,255)","valueType":"color"},{"name":"fontName","rangeEnd":4,"rangeStart":0,"value":"Montserrat","valueType":"string"},{"name":"fontSize","rangeEnd":4,"rangeStart":0,"value":80,"valueType":"double"},{"name":"strikethrough","rangeEnd":4,"rangeStart":0,"value":0,"valueType":"int"},{"name":"fontItalic","rangeEnd":4,"rangeStart":0,"value":0,"valueType":"int"},{"name":"fontWeight","rangeEnd":4,"rangeStart":0,"value":400,"valueType":"int"}],
                            "duration" : 0
                          }
                        ]
                      }
                    },
                    "attributes" : {
                      "autoRotateText" : true
                    },
                    "parameters" : {
                      "translation0" : 1.77777792487177e-11,
                      "translation1" : -581.28370098058
                    },
                    "effects" : [
                        {
                          "effectName" : "DropShadow",
                          "category" : "categoryVisualEffects",
                          "parameters" : {
                            "angle" : 5.49778714378214,
                            "blur" : 10.0,
                            "color-alpha" : 1.0,
                            "color-blue" : 0.1216,
                            "color-green" : 0.1216,
                            "color-red" : 0.1216,
                            "enabled" : 1,
                            "offset" : 10.0,
                            "opacity" : 0.4
                          }
                        }
                    ],
                    "start" : 635,
                    "duration" : 60,
                    "mediaStart" : 28,
                    "mediaDuration" : 60,
                    "scalar" : 1,
                    "metadata" : {
                      "WinSubProjectDisplayName" : "",
                      "clipSpeedAttribute" : false,
                      "default-HAlign" : "center",
                      "default-LineSpace" : 0.0,
                      "default-VAlign" : "center",
                      "default-fill-color-blue" : 1.0,
                      "default-fill-color-green" : 1.0,
                      "default-fill-color-red" : 1.0,
                      "default-scale0" : 1.0,
                      "default-scale1" : 1.0,
                      "default-stroke-color-blue" : 0.56078431372549,
                      "default-stroke-color-green" : 0.686274509803922,
                      "default-stroke-color-red" : 0.0196078431372549,
                      "default-text-attributes" : "[{\"name\":\"fontSize\",\"rangeEnd\":32,\"rangeStart\":0,\"value\":64,\"valueType\":\"double\"},{\"name\":\"fgColor\",\"rangeEnd\":32,\"rangeStart\":0,\"value\":\"(255,255,255,255)\",\"valueType\":\"color\"},{\"name\":\"fontWeight\",\"rangeEnd\":32,\"rangeStart\":0,\"value\":400,\"valueType\":\"int\"},{\"name\":\"fontName\",\"rangeEnd\":32,\"rangeStart\":0,\"value\":\"Montserrat\",\"valueType\":\"string\"},{\"name\":\"fontItalic\",\"rangeEnd\":32,\"rangeStart\":0,\"value\":0,\"valueType\":\"int\"},{\"name\":\"strikethrough\",\"rangeEnd\":32,\"rangeStart\":0,\"value\":0,\"valueType\":\"int\"},{\"name\":\"underline\",\"rangeEnd\":32,\"rangeStart\":0,\"value\":0,\"valueType\":\"int\"}]",
                      "default-translation0" : 0.0,
                      "default-translation1" : 0.0
                    },
                    "animationTracks" : {

                    }
                  },
                  {
                    "id" : 443,
                    "_type" : "Callout",
                    "def" : {
                      "kind" : "remix",
                      "shape" : "text-rectangle",
                      "style" : "basic",
                      "fill-color-blue" : 0.270588235294118,
                      "fill-color-green" : 0.243137254901961,
                      "fill-color-opacity" : 1.0,
                      "fill-color-red" : 0.211764705882353,
                      "height" : 126.352941176711,
                      "line-spacing" : 0.0,
                      "stroke-color-blue" : 0.890196078431372,
                      "stroke-color-green" : 0.870588235294118,
                      "stroke-color-opacity" : 1.0,
                      "stroke-color-red" : 0.847058823529412,
                      "stroke-width" : 2.0,
                      "tail-x" : -942.842187171698,
                      "tail-y" : 35.6985294116966,
                      "width" : 2251.72739036578,
                      "word-wrap" : 1.0,
                      "fill-style" : "solid",
                      "horizontal-alignment" : "center",
                      "resize-behavior" : "resizeText",
                      "stroke-style" : "solid",
                      "text" : "The researcher is saving a new secret formula",
                      "vertical-alignment" : "center",
                      "font" : {
                        "color-blue" : 0.266666666666667,
                        "color-green" : 0.231372549019608,
                        "color-opacity" : 1.0,
                        "color-red" : 0.184313725490196,
                        "size" : 64.0,
                        "tracking" : 0.0,
                        "name" : "Montserrat",
                        "weight" : "Regular"
                      },
                      "textAttributes" : {
                        "type" : "textAttributeList",
                        "keyframes" : [
                          {
                            "endTime" : 0,
                            "time" : 0,
                            "value" : [{"name":"fontWeight","rangeEnd":45,"rangeStart":0,"value":400,"valueType":"int"},{"name":"fontSize","rangeEnd":45,"rangeStart":0,"value":80,"valueType":"double"},{"name":"strikethrough","rangeEnd":45,"rangeStart":0,"value":0,"valueType":"int"},{"name":"fgColor","rangeEnd":45,"rangeStart":0,"value":"(255,255,255,255)","valueType":"color"},{"name":"fontName","rangeEnd":45,"rangeStart":0,"value":"Montserrat","valueType":"string"},{"name":"underline","rangeEnd":45,"rangeStart":0,"value":0,"valueType":"int"},{"name":"fontItalic","rangeEnd":45,"rangeStart":0,"value":0,"valueType":"int"}],
                            "duration" : 0
                          }
                        ]
                      }
                    },
                    "attributes" : {
                      "autoRotateText" : true
                    },
                    "parameters" : {
                      "translation0" : -1.31194610730745e-10,
                      "translation1" : -587.178308823639
                    },
                    "effects" : [
                        {
                          "effectName" : "DropShadow",
                          "category" : "categoryVisualEffects",
                          "parameters" : {
                            "angle" : 5.49778714378214,
                            "blur" : 10.0,
                            "color-alpha" : 1.0,
                            "color-blue" : 0.1216,
                            "color-green" : 0.1216,
                            "color-red" : 0.1216,
                            "enabled" : 1,
                            "offset" : 10.0,
                            "opacity" : 0.4
                          }
                        }
                    ],
                    "start" : 705,
                    "duration" : 101,
                    "mediaStart" : -2,
                    "mediaDuration" : 101,
                    "scalar" : 1,
                    "metadata" : {
                      "WinSubProjectDisplayName" : "",
                      "clipSpeedAttribute" : false,
                      "default-HAlign" : "center",
                      "default-LineSpace" : 0.0,
                      "default-VAlign" : "center",
                      "default-fill-color-blue" : 1.0,
                      "default-fill-color-green" : 1.0,
                      "default-fill-color-red" : 1.0,
                      "default-stroke-color-blue" : 0.56078431372549,
                      "default-stroke-color-green" : 0.686274509803922,
                      "default-stroke-color-red" : 0.0196078431372549,
                      "default-text-attributes" : "[{\"name\":\"fontSize\",\"rangeEnd\":32,\"rangeStart\":0,\"value\":64,\"valueType\":\"double\"},{\"name\":\"fgColor\",\"rangeEnd\":32,\"rangeStart\":0,\"value\":\"(255,255,255,255)\",\"valueType\":\"color\"},{\"name\":\"fontWeight\",\"rangeEnd\":32,\"rangeStart\":0,\"value\":400,\"valueType\":\"int\"},{\"name\":\"fontName\",\"rangeEnd\":32,\"rangeStart\":0,\"value\":\"Montserrat\",\"valueType\":\"string\"},{\"name\":\"fontItalic\",\"rangeEnd\":32,\"rangeStart\":0,\"value\":0,\"valueType\":\"int\"},{\"name\":\"strikethrough\",\"rangeEnd\":32,\"rangeStart\":0,\"value\":0,\"valueType\":\"int\"},{\"name\":\"underline\",\"rangeEnd\":32,\"rangeStart\":0,\"value\":0,\"valueType\":\"int\"}]",
                      "default-translation0" : 0.0,
                      "default-translation1" : 0.0
                    },
                    "animationTracks" : {

                    }
                  },
                  {
                    "id" : 444,
                    "_type" : "Callout",
                    "def" : {
                      "kind" : "remix",
                      "shape" : "text-rectangle",
                      "style" : "basic",
                      "fill-color-blue" : 0.270588235294118,
                      "fill-color-green" : 0.243137254901961,
                      "fill-color-opacity" : 1.0,
                      "fill-color-red" : 0.211764705882353,
                      "height" : 126.666666666661,
                      "line-spacing" : 0.0,
                      "stroke-color-blue" : 0.890196078431372,
                      "stroke-color-green" : 0.870588235294118,
                      "stroke-color-opacity" : 1.0,
                      "stroke-color-red" : 0.847058823529412,
                      "stroke-width" : 2.0,
                      "tail-x" : -406.249999999963,
                      "tail-y" : 3.33333333331352,
                      "width" : 337.500000000259,
                      "word-wrap" : 1.0,
                      "fill-style" : "solid",
                      "horizontal-alignment" : "center",
                      "resize-behavior" : "resizeText",
                      "stroke-style" : "solid",
                      "text" : "Done",
                      "vertical-alignment" : "center",
                      "font" : {
                        "color-blue" : 0.266666666666667,
                        "color-green" : 0.231372549019608,
                        "color-opacity" : 1.0,
                        "color-red" : 0.184313725490196,
                        "size" : 64.0,
                        "tracking" : 0.0,
                        "name" : "Montserrat",
                        "weight" : "Regular"
                      },
                      "textAttributes" : {
                        "type" : "textAttributeList",
                        "keyframes" : [
                          {
                            "endTime" : 0,
                            "time" : 0,
                            "value" : [{"name":"underline","rangeEnd":4,"rangeStart":0,"value":0,"valueType":"int"},{"name":"fgColor","rangeEnd":4,"rangeStart":0,"value":"(255,255,255,255)","valueType":"color"},{"name":"fontName","rangeEnd":4,"rangeStart":0,"value":"Montserrat","valueType":"string"},{"name":"fontSize","rangeEnd":4,"rangeStart":0,"value":80,"valueType":"double"},{"name":"strikethrough","rangeEnd":4,"rangeStart":0,"value":0,"valueType":"int"},{"name":"fontItalic","rangeEnd":4,"rangeStart":0,"value":0,"valueType":"int"},{"name":"fontWeight","rangeEnd":4,"rangeStart":0,"value":400,"valueType":"int"}],
                            "duration" : 0
                          }
                        ]
                      }
                    },
                    "attributes" : {
                      "autoRotateText" : true
                    },
                    "parameters" : {
                      "translation0" : 1.77777792487177e-11,
                      "translation1" : -610.695465686593
                    },
                    "effects" : [
                        {
                          "effectName" : "DropShadow",
                          "category" : "categoryVisualEffects",
                          "parameters" : {
                            "angle" : 5.49778714378214,
                            "blur" : 10.0,
                            "color-alpha" : 1.0,
                            "color-blue" : 0.1216,
                            "color-green" : 0.1216,
                            "color-red" : 0.1216,
                            "enabled" : 1,
                            "offset" : 10.0,
                            "opacity" : 0.4
                          }
                        }
                    ],
                    "start" : 806,
                    "duration" : 57,
                    "mediaStart" : 38,
                    "mediaDuration" : 57,
                    "scalar" : 1,
                    "metadata" : {
                      "WinSubProjectDisplayName" : "",
                      "clipSpeedAttribute" : false,
                      "default-HAlign" : "center",
                      "default-LineSpace" : 0.0,
                      "default-VAlign" : "center",
                      "default-fill-color-blue" : 1.0,
                      "default-fill-color-green" : 1.0,
                      "default-fill-color-red" : 1.0,
                      "default-scale0" : 1.0,
                      "default-scale1" : 1.0,
                      "default-stroke-color-blue" : 0.56078431372549,
                      "default-stroke-color-green" : 0.686274509803922,
                      "default-stroke-color-red" : 0.0196078431372549,
                      "default-text-attributes" : "[{\"name\":\"fontSize\",\"rangeEnd\":32,\"rangeStart\":0,\"value\":64,\"valueType\":\"double\"},{\"name\":\"fgColor\",\"rangeEnd\":32,\"rangeStart\":0,\"value\":\"(255,255,255,255)\",\"valueType\":\"color\"},{\"name\":\"fontWeight\",\"rangeEnd\":32,\"rangeStart\":0,\"value\":400,\"valueType\":\"int\"},{\"name\":\"fontName\",\"rangeEnd\":32,\"rangeStart\":0,\"value\":\"Montserrat\",\"valueType\":\"string\"},{\"name\":\"fontItalic\",\"rangeEnd\":32,\"rangeStart\":0,\"value\":0,\"valueType\":\"int\"},{\"name\":\"strikethrough\",\"rangeEnd\":32,\"rangeStart\":0,\"value\":0,\"valueType\":\"int\"},{\"name\":\"underline\",\"rangeEnd\":32,\"rangeStart\":0,\"value\":0,\"valueType\":\"int\"}]",
                      "default-translation0" : 0.0,
                      "default-translation1" : 0.0
                    },
                    "animationTracks" : {

                    }
                  },
                  {
                    "id" : 445,
                    "_type" : "Callout",
                    "def" : {
                      "kind" : "remix",
                      "shape" : "text-rectangle",
                      "style" : "basic",
                      "fill-color-blue" : 0.270588235294118,
                      "fill-color-green" : 0.243137254901961,
                      "fill-color-opacity" : 1.0,
                      "fill-color-red" : 0.211764705882353,
                      "height" : 124.583333333219,
                      "line-spacing" : 0.0,
                      "stroke-color-blue" : 0.890196078431372,
                      "stroke-color-green" : 0.870588235294118,
                      "stroke-color-opacity" : 1.0,
                      "stroke-color-red" : 0.847058823529412,
                      "stroke-width" : 2.0,
                      "tail-x" : -55.8333333332519,
                      "tail-y" : -7.29166666660954,
                      "width" : 946.041666666676,
                      "word-wrap" : 1.0,
                      "fill-style" : "solid",
                      "horizontal-alignment" : "center",
                      "resize-behavior" : "resizeText",
                      "stroke-style" : "solid",
                      "text" : "Checking the data",
                      "vertical-alignment" : "center",
                      "font" : {
                        "color-blue" : 0.266666666666667,
                        "color-green" : 0.231372549019608,
                        "color-opacity" : 1.0,
                        "color-red" : 0.184313725490196,
                        "size" : 64.0,
                        "tracking" : 0.0,
                        "name" : "Montserrat",
                        "weight" : "Regular"
                      },
                      "textAttributes" : {
                        "type" : "textAttributeList",
                        "keyframes" : [
                          {
                            "endTime" : 0,
                            "time" : 0,
                            "value" : [{"name":"fontWeight","rangeEnd":17,"rangeStart":0,"value":400,"valueType":"int"},{"name":"underline","rangeEnd":17,"rangeStart":0,"value":0,"valueType":"int"},{"name":"fgColor","rangeEnd":17,"rangeStart":0,"value":"(255,255,255,255)","valueType":"color"},{"name":"strikethrough","rangeEnd":17,"rangeStart":0,"value":0,"valueType":"int"},{"name":"fontItalic","rangeEnd":17,"rangeStart":0,"value":0,"valueType":"int"},{"name":"fontSize","rangeEnd":17,"rangeStart":0,"value":80,"valueType":"double"},{"name":"fontName","rangeEnd":17,"rangeStart":0,"value":"Montserrat","valueType":"string"}],
                            "duration" : 0
                          }
                        ]
                      }
                    },
                    "attributes" : {
                      "autoRotateText" : true
                    },
                    "parameters" : {
                      "translation0" : -2.00941485672956e-10,
                      "translation1" : -619.286151960812
                    },
                    "effects" : [
                        {
                          "effectName" : "DropShadow",
                          "category" : "categoryVisualEffects",
                          "parameters" : {
                            "angle" : 5.49778714378214,
                            "blur" : 10.0,
                            "color-alpha" : 1.0,
                            "color-blue" : 0.1216,
                            "color-green" : 0.1216,
                            "color-red" : 0.1216,
                            "enabled" : 1,
                            "offset" : 10.0,
                            "opacity" : 0.4
                          }
                        }
                    ],
                    "start" : 867,
                    "duration" : 61,
                    "mediaStart" : 0,
                    "mediaDuration" : 61,
                    "scalar" : 1,
                    "metadata" : {
                      "WinSubProjectDisplayName" : "",
                      "clipSpeedAttribute" : false,
                      "default-HAlign" : "center",
                      "default-LineSpace" : 0.0,
                      "default-VAlign" : "center",
                      "default-fill-color-blue" : 1.0,
                      "default-fill-color-green" : 1.0,
                      "default-fill-color-red" : 1.0,
                      "default-stroke-color-blue" : 0.56078431372549,
                      "default-stroke-color-green" : 0.686274509803922,
                      "default-stroke-color-red" : 0.0196078431372549,
                      "default-text-attributes" : "[{\"name\":\"fontSize\",\"rangeEnd\":32,\"rangeStart\":0,\"value\":64,\"valueType\":\"double\"},{\"name\":\"fgColor\",\"rangeEnd\":32,\"rangeStart\":0,\"value\":\"(255,255,255,255)\",\"valueType\":\"color\"},{\"name\":\"fontWeight\",\"rangeEnd\":32,\"rangeStart\":0,\"value\":400,\"valueType\":\"int\"},{\"name\":\"fontName\",\"rangeEnd\":32,\"rangeStart\":0,\"value\":\"Montserrat\",\"valueType\":\"string\"},{\"name\":\"fontItalic\",\"rangeEnd\":32,\"rangeStart\":0,\"value\":0,\"valueType\":\"int\"},{\"name\":\"strikethrough\",\"rangeEnd\":32,\"rangeStart\":0,\"value\":0,\"valueType\":\"int\"},{\"name\":\"underline\",\"rangeEnd\":32,\"rangeStart\":0,\"value\":0,\"valueType\":\"int\"}]",
                      "default-translation0" : 0.0,
                      "default-translation1" : 0.0
                    },
                    "animationTracks" : {

                    }
                  },
                  {
                    "id" : 446,
                    "_type" : "Callout",
                    "def" : {
                      "kind" : "remix",
                      "shape" : "text-rectangle",
                      "style" : "basic",
                      "fill-color-blue" : 0.270588235294118,
                      "fill-color-green" : 0.243137254901961,
                      "fill-color-opacity" : 1.0,
                      "fill-color-red" : 0.211764705882353,
                      "height" : 106.249999999895,
                      "line-spacing" : 0.0,
                      "stroke-color-blue" : 0.890196078431372,
                      "stroke-color-green" : 0.870588235294118,
                      "stroke-color-opacity" : 1.0,
                      "stroke-color-red" : 0.847058823529412,
                      "stroke-width" : 2.0,
                      "tail-x" : -462.499999999966,
                      "tail-y" : 1.8750000000523,
                      "width" : 1759.3750000001,
                      "word-wrap" : 1.0,
                      "fill-style" : "solid",
                      "horizontal-alignment" : "center",
                      "resize-behavior" : "resizeText",
                      "stroke-style" : "solid",
                      "text" : "The secret formula has been saved",
                      "vertical-alignment" : "center",
                      "font" : {
                        "color-blue" : 0.266666666666667,
                        "color-green" : 0.231372549019608,
                        "color-opacity" : 1.0,
                        "color-red" : 0.184313725490196,
                        "size" : 64.0,
                        "tracking" : 0.0,
                        "name" : "Montserrat",
                        "weight" : "Regular"
                      },
                      "textAttributes" : {
                        "type" : "textAttributeList",
                        "keyframes" : [
                          {
                            "endTime" : 0,
                            "time" : 0,
                            "value" : [{"name":"fontName","rangeEnd":33,"rangeStart":0,"value":"Montserrat","valueType":"string"},{"name":"fontSize","rangeEnd":33,"rangeStart":0,"value":80,"valueType":"double"},{"name":"fontItalic","rangeEnd":33,"rangeStart":0,"value":0,"valueType":"int"},{"name":"strikethrough","rangeEnd":33,"rangeStart":0,"value":0,"valueType":"int"},{"name":"kerning","rangeEnd":33,"rangeStart":0,"value":0,"valueType":"double"},{"name":"fontWeight","rangeEnd":33,"rangeStart":0,"value":400,"valueType":"int"},{"name":"underline","rangeEnd":33,"rangeStart":0,"value":0,"valueType":"int"},{"name":"fgColor","rangeEnd":33,"rangeStart":0,"value":"(255,255,255,255)","valueType":"color"}],
                            "duration" : 0
                          }
                        ]
                      }
                    },
                    "attributes" : {
                      "autoRotateText" : true
                    },
                    "parameters" : {
                      "translation0" : -32.0312500000662,
                      "translation1" : -623.943014706115
                    },
                    "effects" : [
                        {
                          "effectName" : "DropShadow",
                          "category" : "categoryVisualEffects",
                          "parameters" : {
                            "angle" : 5.49778714378214,
                            "blur" : 10.0,
                            "color-alpha" : 1.0,
                            "color-blue" : 0.1216,
                            "color-green" : 0.1216,
                            "color-red" : 0.1216,
                            "enabled" : 1,
                            "offset" : 10.0,
                            "opacity" : 0.4
                          }
                        }
                    ],
                    "start" : 936,
                    "duration" : 187,
                    "mediaStart" : 14,
                    "mediaDuration" : 187,
                    "scalar" : 1,
                    "metadata" : {
                      "WinSubProjectDisplayName" : "",
                      "clipSpeedAttribute" : false,
                      "default-HAlign" : "center",
                      "default-LineSpace" : 0.0,
                      "default-VAlign" : "center",
                      "default-fill-color-blue" : 1.0,
                      "default-fill-color-green" : 1.0,
                      "default-fill-color-red" : 1.0,
                      "default-stroke-color-blue" : 0.56078431372549,
                      "default-stroke-color-green" : 0.686274509803922,
                      "default-stroke-color-red" : 0.0196078431372549,
                      "default-text-attributes" : "[{\"name\":\"fontSize\",\"rangeEnd\":32,\"rangeStart\":0,\"value\":64,\"valueType\":\"double\"},{\"name\":\"fgColor\",\"rangeEnd\":32,\"rangeStart\":0,\"value\":\"(255,255,255,255)\",\"valueType\":\"color\"},{\"name\":\"fontWeight\",\"rangeEnd\":32,\"rangeStart\":0,\"value\":400,\"valueType\":\"int\"},{\"name\":\"fontName\",\"rangeEnd\":32,\"rangeStart\":0,\"value\":\"Montserrat\",\"valueType\":\"string\"},{\"name\":\"fontItalic\",\"rangeEnd\":32,\"rangeStart\":0,\"value\":0,\"valueType\":\"int\"},{\"name\":\"strikethrough\",\"rangeEnd\":32,\"rangeStart\":0,\"value\":0,\"valueType\":\"int\"},{\"name\":\"underline\",\"rangeEnd\":32,\"rangeStart\":0,\"value\":0,\"valueType\":\"int\"}]",
                      "default-translation0" : 0.0,
                      "default-translation1" : 0.0
                    },
                    "animationTracks" : {

                    }
                  },
                  {
                    "id" : 447,
                    "_type" : "Callout",
                    "def" : {
                      "kind" : "remix",
                      "shape" : "text-rectangle",
                      "style" : "basic",
                      "fill-color-blue" : 0.270588235294118,
                      "fill-color-green" : 0.243137254901961,
                      "fill-color-opacity" : 1.0,
                      "fill-color-red" : 0.211764705882353,
                      "height" : 132.235294117883,
                      "line-spacing" : 0.0,
                      "stroke-color-blue" : 0.890196078431372,
                      "stroke-color-green" : 0.870588235294118,
                      "stroke-color-opacity" : 1.0,
                      "stroke-color-red" : 0.847058823529412,
                      "stroke-width" : 2.0,
                      "tail-x" : -833.088235294024,
                      "tail-y" : 32.7573529411108,
                      "width" : 1859.11072664584,
                      "word-wrap" : 1.0,
                      "fill-style" : "solid",
                      "horizontal-alignment" : "center",
                      "resize-behavior" : "resizeText",
                      "stroke-style" : "solid",
                      "text" : "The researcher is having tea.",
                      "vertical-alignment" : "center",
                      "font" : {
                        "color-blue" : 0.266666666666667,
                        "color-green" : 0.231372549019608,
                        "color-opacity" : 1.0,
                        "color-red" : 0.184313725490196,
                        "size" : 64.0,
                        "tracking" : 0.0,
                        "name" : "Montserrat",
                        "weight" : "Regular"
                      },
                      "textAttributes" : {
                        "type" : "textAttributeList",
                        "keyframes" : [
                          {
                            "endTime" : 0,
                            "time" : 0,
                            "value" : [{"name":"underline","rangeEnd":29,"rangeStart":0,"value":0,"valueType":"int"},{"name":"fontSize","rangeEnd":29,"rangeStart":0,"value":80,"valueType":"double"},{"name":"fontName","rangeEnd":29,"rangeStart":0,"value":"Montserrat","valueType":"string"},{"name":"fontWeight","rangeEnd":29,"rangeStart":0,"value":400,"valueType":"int"},{"name":"fgColor","rangeEnd":29,"rangeStart":0,"value":"(255,255,255,255)","valueType":"color"},{"name":"strikethrough","rangeEnd":29,"rangeStart":0,"value":0,"valueType":"int"},{"name":"fontItalic","rangeEnd":29,"rangeStart":0,"value":0,"valueType":"int"}],
                            "duration" : 0
                          }
                        ]
                      }
                    },
                    "attributes" : {
                      "autoRotateText" : true
                    },
                    "parameters" : {
                      "translation0" : -9.12336872715969e-11,
                      "translation1" : -590.119485294299
                    },
                    "effects" : [
                        {
                          "effectName" : "DropShadow",
                          "category" : "categoryVisualEffects",
                          "parameters" : {
                            "angle" : 5.49778714378214,
                            "blur" : 10.0,
                            "color-alpha" : 1.0,
                            "color-blue" : 0.1216,
                            "color-green" : 0.1216,
                            "color-red" : 0.1216,
                            "enabled" : 1,
                            "offset" : 10.0,
                            "opacity" : 0.4
                          }
                        }
                    ],
                    "start" : 1159,
                    "duration" : 74,
                    "mediaStart" : 31,
                    "mediaDuration" : 74,
                    "scalar" : 1,
                    "metadata" : {
                      "WinSubProjectDisplayName" : "",
                      "clipSpeedAttribute" : false,
                      "default-HAlign" : "center",
                      "default-LineSpace" : 0.0,
                      "default-VAlign" : "center",
                      "default-fill-color-blue" : 1.0,
                      "default-fill-color-green" : 1.0,
                      "default-fill-color-red" : 1.0,
                      "default-scale0" : 1.0,
                      "default-scale1" : 1.0,
                      "default-stroke-color-blue" : 0.56078431372549,
                      "default-stroke-color-green" : 0.686274509803922,
                      "default-stroke-color-red" : 0.0196078431372549,
                      "default-text-attributes" : "[{\"name\":\"fontSize\",\"rangeEnd\":32,\"rangeStart\":0,\"value\":64,\"valueType\":\"double\"},{\"name\":\"fgColor\",\"rangeEnd\":32,\"rangeStart\":0,\"value\":\"(255,255,255,255)\",\"valueType\":\"color\"},{\"name\":\"fontWeight\",\"rangeEnd\":32,\"rangeStart\":0,\"value\":400,\"valueType\":\"int\"},{\"name\":\"fontName\",\"rangeEnd\":32,\"rangeStart\":0,\"value\":\"Montserrat\",\"valueType\":\"string\"},{\"name\":\"fontItalic\",\"rangeEnd\":32,\"rangeStart\":0,\"value\":0,\"valueType\":\"int\"},{\"name\":\"strikethrough\",\"rangeEnd\":32,\"rangeStart\":0,\"value\":0,\"valueType\":\"int\"},{\"name\":\"underline\",\"rangeEnd\":32,\"rangeStart\":0,\"value\":0,\"valueType\":\"int\"}]",
                      "default-translation0" : 0.0,
                      "default-translation1" : 0.0
                    },
                    "animationTracks" : {

                    }
                  },
                  {
                    "id" : 448,
                    "_type" : "Callout",
                    "def" : {
                      "kind" : "remix",
                      "shape" : "text-rectangle",
                      "style" : "basic",
                      "fill-color-blue" : 0.270588235294118,
                      "fill-color-green" : 0.243137254901961,
                      "fill-color-opacity" : 1.0,
                      "fill-color-red" : 0.211764705882353,
                      "height" : 152.823529411936,
                      "line-spacing" : 0.0,
                      "stroke-color-blue" : 0.890196078431372,
                      "stroke-color-green" : 0.870588235294118,
                      "stroke-color-opacity" : 1.0,
                      "stroke-color-red" : 0.847058823529412,
                      "stroke-width" : 2.0,
                      "tail-x" : -931.617647058732,
                      "tail-y" : 22.4632352940843,
                      "width" : 2274.17647059171,
                      "word-wrap" : 1.0,
                      "fill-style" : "solid",
                      "horizontal-alignment" : "center",
                      "resize-behavior" : "resizeText",
                      "stroke-style" : "solid",
                      "text" : "The attacker is launching the app, which loads its driver",
                      "vertical-alignment" : "center",
                      "font" : {
                        "color-blue" : 0.266666666666667,
                        "color-green" : 0.231372549019608,
                        "color-opacity" : 1.0,
                        "color-red" : 0.184313725490196,
                        "size" : 64.0,
                        "tracking" : 0.0,
                        "name" : "Montserrat",
                        "weight" : "Regular"
                      },
                      "textAttributes" : {
                        "type" : "textAttributeList",
                        "keyframes" : [
                          {
                            "endTime" : 0,
                            "time" : 0,
                            "value" : [{"name":"underline","rangeEnd":57,"rangeStart":0,"value":0,"valueType":"int"},{"name":"fontSize","rangeEnd":57,"rangeStart":0,"value":80,"valueType":"double"},{"name":"fontWeight","rangeEnd":57,"rangeStart":0,"value":400,"valueType":"int"},{"name":"strikethrough","rangeEnd":57,"rangeStart":0,"value":0,"valueType":"int"},{"name":"fontItalic","rangeEnd":57,"rangeStart":0,"value":0,"valueType":"int"},{"name":"fgColor","rangeEnd":57,"rangeStart":0,"value":"(255,255,255,255)","valueType":"color"},{"name":"fontName","rangeEnd":57,"rangeStart":0,"value":"Montserrat","valueType":"string"}],
                            "duration" : 0
                          }
                        ]
                      }
                    },
                    "attributes" : {
                      "autoRotateText" : true
                    },
                    "parameters" : {
                      "translation0" : -1.23918653116561e-11,
                      "translation1" : -582.766544117689
                    },
                    "effects" : [
                        {
                          "effectName" : "DropShadow",
                          "category" : "categoryVisualEffects",
                          "parameters" : {
                            "angle" : 5.49778714378214,
                            "blur" : 10.0,
                            "color-alpha" : 1.0,
                            "color-blue" : 0.1216,
                            "color-green" : 0.1216,
                            "color-red" : 0.1216,
                            "enabled" : 1,
                            "offset" : 10.0,
                            "opacity" : 0.4
                          }
                        }
                    ],
                    "start" : 1265,
                    "duration" : 103,
                    "mediaStart" : -30,
                    "mediaDuration" : 103,
                    "scalar" : 1,
                    "metadata" : {
                      "WinSubProjectDisplayName" : "",
                      "clipSpeedAttribute" : false,
                      "default-HAlign" : "center",
                      "default-LineSpace" : 0.0,
                      "default-VAlign" : "center",
                      "default-fill-color-blue" : 1.0,
                      "default-fill-color-green" : 1.0,
                      "default-fill-color-red" : 1.0,
                      "default-stroke-color-blue" : 0.56078431372549,
                      "default-stroke-color-green" : 0.686274509803922,
                      "default-stroke-color-red" : 0.0196078431372549,
                      "default-text-attributes" : "[{\"name\":\"fontSize\",\"rangeEnd\":32,\"rangeStart\":0,\"value\":64,\"valueType\":\"double\"},{\"name\":\"fgColor\",\"rangeEnd\":32,\"rangeStart\":0,\"value\":\"(255,255,255,255)\",\"valueType\":\"color\"},{\"name\":\"fontWeight\",\"rangeEnd\":32,\"rangeStart\":0,\"value\":400,\"valueType\":\"int\"},{\"name\":\"fontName\",\"rangeEnd\":32,\"rangeStart\":0,\"value\":\"Montserrat\",\"valueType\":\"string\"},{\"name\":\"fontItalic\",\"rangeEnd\":32,\"rangeStart\":0,\"value\":0,\"valueType\":\"int\"},{\"name\":\"strikethrough\",\"rangeEnd\":32,\"rangeStart\":0,\"value\":0,\"valueType\":\"int\"},{\"name\":\"underline\",\"rangeEnd\":32,\"rangeStart\":0,\"value\":0,\"valueType\":\"int\"}]",
                      "default-translation0" : 0.0,
                      "default-translation1" : 0.0
                    },
                    "animationTracks" : {

                    }
                  },
                  {
                    "id" : 449,
                    "_type" : "Callout",
                    "def" : {
                      "kind" : "remix",
                      "shape" : "text-rectangle",
                      "style" : "basic",
                      "fill-color-blue" : 0.270588235294118,
                      "fill-color-green" : 0.243137254901961,
                      "fill-color-opacity" : 1.0,
                      "fill-color-red" : 0.211764705882353,
                      "height" : 152.823529411936,
                      "line-spacing" : 0.0,
                      "stroke-color-blue" : 0.890196078431372,
                      "stroke-color-green" : 0.870588235294118,
                      "stroke-color-opacity" : 1.0,
                      "stroke-color-red" : 0.847058823529412,
                      "stroke-width" : 2.0,
                      "tail-x" : -884.558823529268,
                      "tail-y" : 22.4632352940843,
                      "width" : 1327.11764706212,
                      "word-wrap" : 1.0,
                      "fill-style" : "solid",
                      "horizontal-alignment" : "center",
                      "resize-behavior" : "resizeText",
                      "stroke-style" : "solid",
                      "text" : "The attacker's app is loaded ",
                      "vertical-alignment" : "center",
                      "font" : {
                        "color-blue" : 0.266666666666667,
                        "color-green" : 0.231372549019608,
                        "color-opacity" : 1.0,
                        "color-red" : 0.184313725490196,
                        "size" : 64.0,
                        "tracking" : 0.0,
                        "name" : "Montserrat",
                        "weight" : "Regular"
                      },
                      "textAttributes" : {
                        "type" : "textAttributeList",
                        "keyframes" : [
                          {
                            "endTime" : 0,
                            "time" : 0,
                            "value" : [{"name":"fontWeight","rangeEnd":29,"rangeStart":0,"value":400,"valueType":"int"},{"name":"fontItalic","rangeEnd":29,"rangeStart":0,"value":0,"valueType":"int"},{"name":"fgColor","rangeEnd":29,"rangeStart":0,"value":"(255,255,255,255)","valueType":"color"},{"name":"strikethrough","rangeEnd":29,"rangeStart":0,"value":0,"valueType":"int"},{"name":"fontName","rangeEnd":29,"rangeStart":0,"value":"Montserrat","valueType":"string"},{"name":"fontSize","rangeEnd":29,"rangeStart":0,"value":80,"valueType":"double"},{"name":"underline","rangeEnd":29,"rangeStart":0,"value":0,"valueType":"int"},{"name":"kerning","rangeEnd":29,"rangeStart":0,"value":0,"valueType":"double"}],
                            "duration" : 0
                          }
                        ]
                      }
                    },
                    "attributes" : {
                      "autoRotateText" : true
                    },
                    "parameters" : {
                      "translation0" : -1.92557081390987e-11,
                      "translation1" : -579.825367647103
                    },
                    "effects" : [
                        {
                          "effectName" : "DropShadow",
                          "category" : "categoryVisualEffects",
                          "parameters" : {
                            "angle" : 5.49778714378214,
                            "blur" : 10.0,
                            "color-alpha" : 1.0,
                            "color-blue" : 0.1216,
                            "color-green" : 0.1216,
                            "color-red" : 0.1216,
                            "enabled" : 1,
                            "offset" : 10.0,
                            "opacity" : 0.4
                          }
                        }
                    ],
                    "start" : 1371,
                    "duration" : 68,
                    "mediaStart" : -30,
                    "mediaDuration" : 68,
                    "scalar" : 1,
                    "metadata" : {
                      "WinSubProjectDisplayName" : "",
                      "clipSpeedAttribute" : false,
                      "default-HAlign" : "center",
                      "default-LineSpace" : 0.0,
                      "default-VAlign" : "center",
                      "default-fill-color-blue" : 1.0,
                      "default-fill-color-green" : 1.0,
                      "default-fill-color-red" : 1.0,
                      "default-stroke-color-blue" : 0.56078431372549,
                      "default-stroke-color-green" : 0.686274509803922,
                      "default-stroke-color-red" : 0.0196078431372549,
                      "default-text-attributes" : "[{\"name\":\"fontSize\",\"rangeEnd\":32,\"rangeStart\":0,\"value\":64,\"valueType\":\"double\"},{\"name\":\"fgColor\",\"rangeEnd\":32,\"rangeStart\":0,\"value\":\"(255,255,255,255)\",\"valueType\":\"color\"},{\"name\":\"fontWeight\",\"rangeEnd\":32,\"rangeStart\":0,\"value\":400,\"valueType\":\"int\"},{\"name\":\"fontName\",\"rangeEnd\":32,\"rangeStart\":0,\"value\":\"Montserrat\",\"valueType\":\"string\"},{\"name\":\"fontItalic\",\"rangeEnd\":32,\"rangeStart\":0,\"value\":0,\"valueType\":\"int\"},{\"name\":\"strikethrough\",\"rangeEnd\":32,\"rangeStart\":0,\"value\":0,\"valueType\":\"int\"},{\"name\":\"underline\",\"rangeEnd\":32,\"rangeStart\":0,\"value\":0,\"valueType\":\"int\"}]",
                      "default-translation0" : 0.0,
                      "default-translation1" : 0.0
                    },
                    "animationTracks" : {

                    }
                  },
                  {
                    "id" : 450,
                    "_type" : "Callout",
                    "def" : {
                      "kind" : "remix",
                      "shape" : "text-rectangle",
                      "style" : "basic",
                      "fill-color-blue" : 0.270588235294118,
                      "fill-color-green" : 0.243137254901961,
                      "fill-color-opacity" : 1.0,
                      "fill-color-red" : 0.211764705882353,
                      "height" : 164.588235294193,
                      "line-spacing" : 0.0,
                      "stroke-color-blue" : 0.890196078431372,
                      "stroke-color-green" : 0.870588235294118,
                      "stroke-color-opacity" : 1.0,
                      "stroke-color-red" : 0.847058823529412,
                      "stroke-width" : 2.0,
                      "tail-x" : -687.49999999985,
                      "tail-y" : 16.5808823529556,
                      "width" : 2438.88235294452,
                      "word-wrap" : 1.0,
                      "fill-style" : "solid",
                      "horizontal-alignment" : "center",
                      "resize-behavior" : "resizeText",
                      "stroke-style" : "solid",
                      "text" : "The attacker is trying to open the secret file using ZwCreateFile",
                      "vertical-alignment" : "center",
                      "font" : {
                        "color-blue" : 0.266666666666667,
                        "color-green" : 0.231372549019608,
                        "color-opacity" : 1.0,
                        "color-red" : 0.184313725490196,
                        "size" : 64.0,
                        "tracking" : 0.0,
                        "name" : "Montserrat",
                        "weight" : "Regular"
                      },
                      "textAttributes" : {
                        "type" : "textAttributeList",
                        "keyframes" : [
                          {
                            "endTime" : 0,
                            "time" : 0,
                            "value" : [{"name":"strikethrough","rangeEnd":65,"rangeStart":0,"value":0,"valueType":"int"},{"name":"fontItalic","rangeEnd":65,"rangeStart":0,"value":0,"valueType":"int"},{"name":"fontSize","rangeEnd":65,"rangeStart":0,"value":75,"valueType":"double"},{"name":"fgColor","rangeEnd":65,"rangeStart":0,"value":"(255,255,255,255)","valueType":"color"},{"name":"fontName","rangeEnd":65,"rangeStart":0,"value":"Montserrat","valueType":"string"},{"name":"fontWeight","rangeEnd":65,"rangeStart":0,"value":400,"valueType":"int"},{"name":"underline","rangeEnd":65,"rangeStart":0,"value":0,"valueType":"int"}],
                            "duration" : 0
                          }
                        ]
                      }
                    },
                    "attributes" : {
                      "autoRotateText" : true
                    },
                    "parameters" : {
                      "translation0" : 21.7941679109165,
                      "translation1" : -579.825367647146
                    },
                    "effects" : [
                        {
                          "effectName" : "DropShadow",
                          "category" : "categoryVisualEffects",
                          "parameters" : {
                            "angle" : 5.49778714378214,
                            "blur" : 10.0,
                            "color-alpha" : 1.0,
                            "color-blue" : 0.1216,
                            "color-green" : 0.1216,
                            "color-red" : 0.1216,
                            "enabled" : 1,
                            "offset" : 10.0,
                            "opacity" : 0.4
                          }
                        }
                    ],
                    "start" : 1489,
                    "duration" : 90,
                    "mediaStart" : -18,
                    "mediaDuration" : 90,
                    "scalar" : 1,
                    "metadata" : {
                      "WinSubProjectDisplayName" : "",
                      "clipSpeedAttribute" : false,
                      "default-HAlign" : "center",
                      "default-LineSpace" : 0.0,
                      "default-VAlign" : "center",
                      "default-fill-color-blue" : 1.0,
                      "default-fill-color-green" : 1.0,
                      "default-fill-color-red" : 1.0,
                      "default-scale0" : 1.0,
                      "default-scale1" : 1.0,
                      "default-stroke-color-blue" : 0.56078431372549,
                      "default-stroke-color-green" : 0.686274509803922,
                      "default-stroke-color-red" : 0.0196078431372549,
                      "default-text-attributes" : "[{\"name\":\"fontSize\",\"rangeEnd\":32,\"rangeStart\":0,\"value\":64,\"valueType\":\"double\"},{\"name\":\"fgColor\",\"rangeEnd\":32,\"rangeStart\":0,\"value\":\"(255,255,255,255)\",\"valueType\":\"color\"},{\"name\":\"fontWeight\",\"rangeEnd\":32,\"rangeStart\":0,\"value\":400,\"valueType\":\"int\"},{\"name\":\"fontName\",\"rangeEnd\":32,\"rangeStart\":0,\"value\":\"Montserrat\",\"valueType\":\"string\"},{\"name\":\"fontItalic\",\"rangeEnd\":32,\"rangeStart\":0,\"value\":0,\"valueType\":\"int\"},{\"name\":\"strikethrough\",\"rangeEnd\":32,\"rangeStart\":0,\"value\":0,\"valueType\":\"int\"},{\"name\":\"underline\",\"rangeEnd\":32,\"rangeStart\":0,\"value\":0,\"valueType\":\"int\"}]",
                      "default-translation0" : 0.0,
                      "default-translation1" : 0.0
                    },
                    "animationTracks" : {

                    }
                  },
                  {
                    "id" : 451,
                    "_type" : "Callout",
                    "def" : {
                      "kind" : "remix",
                      "shape" : "text-rectangle",
                      "style" : "basic",
                      "fill-color-blue" : 0.2,
                      "fill-color-green" : 0.4,
                      "fill-color-opacity" : 1.0,
                      "fill-color-red" : 0.0,
                      "height" : 190.705882353224,
                      "line-spacing" : 0.0,
                      "stroke-color-blue" : 0.890196078431372,
                      "stroke-color-green" : 0.870588235294118,
                      "stroke-color-opacity" : 1.0,
                      "stroke-color-red" : 0.847058823529412,
                      "stroke-width" : 2.0,
                      "tail-x" : -2.20588235284424,
                      "tail-y" : 15.3553921567579,
                      "width" : 2029.81682799838,
                      "word-wrap" : 1.0,
                      "fill-style" : "solid",
                      "horizontal-alignment" : "center",
                      "resize-behavior" : "resizeText",
                      "stroke-style" : "solid",
                      "text" : "The attacker fails to open the secret file and \rgets 0xC0000043 or STATUS_SHARING_VIOLATION",
                      "vertical-alignment" : "center",
                      "font" : {
                        "color-blue" : 0.266666666666667,
                        "color-green" : 0.231372549019608,
                        "color-opacity" : 1.0,
                        "color-red" : 0.184313725490196,
                        "size" : 64.0,
                        "tracking" : 0.0,
                        "name" : "Montserrat",
                        "weight" : "Regular"
                      },
                      "textAttributes" : {
                        "type" : "textAttributeList",
                        "keyframes" : [
                          {
                            "endTime" : 0,
                            "time" : 0,
                            "value" : [{"name":"fontSize","rangeEnd":91,"rangeStart":0,"value":75,"valueType":"double"},{"name":"fontName","rangeEnd":91,"rangeStart":0,"value":"Montserrat","valueType":"string"},{"name":"fontItalic","rangeEnd":91,"rangeStart":0,"value":0,"valueType":"int"},{"name":"fgColor","rangeEnd":91,"rangeStart":0,"value":"(255,255,255,255)","valueType":"color"},{"name":"strikethrough","rangeEnd":91,"rangeStart":0,"value":0,"valueType":"int"},{"name":"fontWeight","rangeEnd":91,"rangeStart":0,"value":400,"valueType":"int"},{"name":"underline","rangeEnd":91,"rangeStart":0,"value":0,"valueType":"int"}],
                            "duration" : 0
                          }
                        ]
                      }
                    },
                    "attributes" : {
                      "autoRotateText" : true
                    },
                    "parameters" : {
                      "translation0" : -32.0312398280225,
                      "translation1" : -608.011642156888
                    },
                    "effects" : [
                        {
                          "effectName" : "DropShadow",
                          "category" : "categoryVisualEffects",
                          "parameters" : {
                            "angle" : 5.49778714378214,
                            "blur" : 10.0,
                            "color-alpha" : 1.0,
                            "color-blue" : 0.1216,
                            "color-green" : 0.1216,
                            "color-red" : 0.1216,
                            "enabled" : 1,
                            "offset" : 10.0,
                            "opacity" : 0.4
                          }
                        }
                    ],
                    "start" : 1612,
                    "duration" : 152,
                    "mediaStart" : -21,
                    "mediaDuration" : 152,
                    "scalar" : 1,
                    "metadata" : {
                      "WinSubProjectDisplayName" : "",
                      "clipSpeedAttribute" : false,
                      "default-HAlign" : "center",
                      "default-LineSpace" : 0.0,
                      "default-VAlign" : "center",
                      "default-fill-color-blue" : 1.0,
                      "default-fill-color-green" : 1.0,
                      "default-fill-color-red" : 1.0,
                      "default-scale0" : 1.0,
                      "default-scale1" : 1.0,
                      "default-stroke-color-blue" : 0.56078431372549,
                      "default-stroke-color-green" : 0.686274509803922,
                      "default-stroke-color-red" : 0.0196078431372549,
                      "default-text-attributes" : "[{\"name\":\"fontSize\",\"rangeEnd\":32,\"rangeStart\":0,\"value\":64,\"valueType\":\"double\"},{\"name\":\"fgColor\",\"rangeEnd\":32,\"rangeStart\":0,\"value\":\"(255,255,255,255)\",\"valueType\":\"color\"},{\"name\":\"fontWeight\",\"rangeEnd\":32,\"rangeStart\":0,\"value\":400,\"valueType\":\"int\"},{\"name\":\"fontName\",\"rangeEnd\":32,\"rangeStart\":0,\"value\":\"Montserrat\",\"valueType\":\"string\"},{\"name\":\"fontItalic\",\"rangeEnd\":32,\"rangeStart\":0,\"value\":0,\"valueType\":\"int\"},{\"name\":\"strikethrough\",\"rangeEnd\":32,\"rangeStart\":0,\"value\":0,\"valueType\":\"int\"},{\"name\":\"underline\",\"rangeEnd\":32,\"rangeStart\":0,\"value\":0,\"valueType\":\"int\"}]",
                      "default-translation0" : 0.0,
                      "default-translation1" : 0.0
                    },
                    "animationTracks" : {

                    }
                  },
                  {
                    "id" : 452,
                    "_type" : "Callout",
                    "def" : {
                      "kind" : "remix",
                      "shape" : "text-rectangle",
                      "style" : "basic",
                      "fill-color-blue" : 0.270588235294118,
                      "fill-color-green" : 0.243137254901961,
                      "fill-color-opacity" : 1.0,
                      "fill-color-red" : 0.211764705882353,
                      "height" : 146.941176470643,
                      "line-spacing" : 0.0,
                      "stroke-color-blue" : 0.890196078431372,
                      "stroke-color-green" : 0.870588235294118,
                      "stroke-color-opacity" : 1.0,
                      "stroke-color-red" : 0.847058823529412,
                      "stroke-width" : 2.0,
                      "tail-x" : -1041.02941176454,
                      "tail-y" : 25.4044117647309,
                      "width" : 2291.8549019642,
                      "word-wrap" : 1.0,
                      "fill-style" : "solid",
                      "horizontal-alignment" : "center",
                      "resize-behavior" : "resizeText",
                      "stroke-style" : "solid",
                      "text" : "The attacker is trying to Hijack the NTFS data structures",
                      "vertical-alignment" : "center",
                      "font" : {
                        "color-blue" : 0.266666666666667,
                        "color-green" : 0.231372549019608,
                        "color-opacity" : 1.0,
                        "color-red" : 0.184313725490196,
                        "size" : 64.0,
                        "tracking" : 0.0,
                        "name" : "Montserrat",
                        "weight" : "Regular"
                      },
                      "textAttributes" : {
                        "type" : "textAttributeList",
                        "keyframes" : [
                          {
                            "endTime" : 0,
                            "time" : 0,
                            "value" : [{"name":"fontName","rangeEnd":57,"rangeStart":0,"value":"Montserrat","valueType":"string"},{"name":"fgColor","rangeEnd":57,"rangeStart":0,"value":"(255,255,255,255)","valueType":"color"},{"name":"fontSize","rangeEnd":57,"rangeStart":0,"value":80,"valueType":"double"},{"name":"kerning","rangeEnd":57,"rangeStart":0,"value":0,"valueType":"double"},{"name":"fontItalic","rangeEnd":57,"rangeStart":0,"value":0,"valueType":"int"},{"name":"fontWeight","rangeEnd":57,"rangeStart":0,"value":400,"valueType":"int"},{"name":"strikethrough","rangeEnd":57,"rangeStart":0,"value":0,"valueType":"int"},{"name":"underline","rangeEnd":57,"rangeStart":0,"value":0,"valueType":"int"}],
                            "duration" : 0
                          }
                        ]
                      }
                    },
                    "attributes" : {
                      "autoRotateText" : true
                    },
                    "parameters" : {
                      "translation0" : -8.0831341620069e-11,
                      "translation1" : -601.761642157176
                    },
                    "effects" : [
                        {
                          "effectName" : "DropShadow",
                          "category" : "categoryVisualEffects",
                          "parameters" : {
                            "angle" : 5.49778714378214,
                            "blur" : 10.0,
                            "color-alpha" : 1.0,
                            "color-blue" : 0.1216,
                            "color-green" : 0.1216,
                            "color-red" : 0.1216,
                            "enabled" : 1,
                            "offset" : 10.0,
                            "opacity" : 0.4
                          }
                        }
                    ],
                    "start" : 1765,
                    "duration" : 97,
                    "mediaStart" : -86,
                    "mediaDuration" : 97,
                    "scalar" : 1,
                    "metadata" : {
                      "WinSubProjectDisplayName" : "",
                      "clipSpeedAttribute" : false,
                      "default-HAlign" : "center",
                      "default-LineSpace" : 0.0,
                      "default-VAlign" : "center",
                      "default-fill-color-blue" : 1.0,
                      "default-fill-color-green" : 1.0,
                      "default-fill-color-red" : 1.0,
                      "default-scale0" : 1.0,
                      "default-scale1" : 1.0,
                      "default-stroke-color-blue" : 0.56078431372549,
                      "default-stroke-color-green" : 0.686274509803922,
                      "default-stroke-color-red" : 0.0196078431372549,
                      "default-text-attributes" : "[{\"name\":\"fontSize\",\"rangeEnd\":32,\"rangeStart\":0,\"value\":64,\"valueType\":\"double\"},{\"name\":\"fgColor\",\"rangeEnd\":32,\"rangeStart\":0,\"value\":\"(255,255,255,255)\",\"valueType\":\"color\"},{\"name\":\"fontWeight\",\"rangeEnd\":32,\"rangeStart\":0,\"value\":400,\"valueType\":\"int\"},{\"name\":\"fontName\",\"rangeEnd\":32,\"rangeStart\":0,\"value\":\"Montserrat\",\"valueType\":\"string\"},{\"name\":\"fontItalic\",\"rangeEnd\":32,\"rangeStart\":0,\"value\":0,\"valueType\":\"int\"},{\"name\":\"strikethrough\",\"rangeEnd\":32,\"rangeStart\":0,\"value\":0,\"valueType\":\"int\"},{\"name\":\"underline\",\"rangeEnd\":32,\"rangeStart\":0,\"value\":0,\"valueType\":\"int\"}]",
                      "default-translation0" : 0.0,
                      "default-translation1" : 0.0
                    },
                    "animationTracks" : {

                    }
                  },
                  {
                    "id" : 453,
                    "_type" : "Callout",
                    "def" : {
                      "kind" : "remix",
                      "shape" : "text-rectangle",
                      "style" : "basic",
                      "fill-color-blue" : 0.270588235294118,
                      "fill-color-green" : 0.243137254901961,
                      "fill-color-opacity" : 1.0,
                      "fill-color-red" : 0.211764705882353,
                      "height" : 138.117647059101,
                      "line-spacing" : 0.0,
                      "stroke-color-blue" : 0.890196078431372,
                      "stroke-color-green" : 0.870588235294118,
                      "stroke-color-opacity" : 1.0,
                      "stroke-color-red" : 0.847058823529412,
                      "stroke-width" : 2.0,
                      "tail-x" : -903.676470588141,
                      "tail-y" : 29.816176470502,
                      "width" : 2330.05882353289,
                      "word-wrap" : 1.0,
                      "fill-style" : "solid",
                      "horizontal-alignment" : "center",
                      "resize-behavior" : "resizeText",
                      "stroke-style" : "solid",
                      "text" : "The attacker is copying the pointer to the FILE_OBJECT",
                      "vertical-alignment" : "center",
                      "font" : {
                        "color-blue" : 0.266666666666667,
                        "color-green" : 0.231372549019608,
                        "color-opacity" : 1.0,
                        "color-red" : 0.184313725490196,
                        "size" : 64.0,
                        "tracking" : 0.0,
                        "name" : "Montserrat",
                        "weight" : "Regular"
                      },
                      "textAttributes" : {
                        "type" : "textAttributeList",
                        "keyframes" : [
                          {
                            "endTime" : 0,
                            "time" : 0,
                            "value" : [{"name":"underline","rangeEnd":54,"rangeStart":0,"value":0,"valueType":"int"},{"name":"fontName","rangeEnd":54,"rangeStart":0,"value":"Montserrat","valueType":"string"},{"name":"fontWeight","rangeEnd":54,"rangeStart":0,"value":400,"valueType":"int"},{"name":"fontSize","rangeEnd":54,"rangeStart":0,"value":80,"valueType":"double"},{"name":"kerning","rangeEnd":54,"rangeStart":0,"value":0,"valueType":"double"},{"name":"strikethrough","rangeEnd":54,"rangeStart":0,"value":0,"valueType":"int"},{"name":"fontItalic","rangeEnd":54,"rangeStart":0,"value":0,"valueType":"int"},{"name":"fgColor","rangeEnd":54,"rangeStart":0,"value":"(255,255,255,255)","valueType":"color"}],
                            "duration" : 0
                          }
                        ]
                      }
                    },
                    "attributes" : {
                      "autoRotateText" : true
                    },
                    "parameters" : {
                      "translation0" : -8.33324520499445e-11,
                      "translation1" : -601.884191176458
                    },
                    "effects" : [
                        {
                          "effectName" : "DropShadow",
                          "category" : "categoryVisualEffects",
                          "parameters" : {
                            "angle" : 5.49778714378214,
                            "blur" : 10.0,
                            "color-alpha" : 1.0,
                            "color-blue" : 0.1216,
                            "color-green" : 0.1216,
                            "color-red" : 0.1216,
                            "enabled" : 1,
                            "offset" : 10.0,
                            "opacity" : 0.4
                          }
                        }
                    ],
                    "start" : 1916,
                    "duration" : 101,
                    "mediaStart" : -86,
                    "mediaDuration" : 101,
                    "scalar" : 1,
                    "metadata" : {
                      "WinSubProjectDisplayName" : "",
                      "clipSpeedAttribute" : false,
                      "default-HAlign" : "center",
                      "default-LineSpace" : 0.0,
                      "default-VAlign" : "center",
                      "default-fill-color-blue" : 1.0,
                      "default-fill-color-green" : 1.0,
                      "default-fill-color-red" : 1.0,
                      "default-scale0" : 1.0,
                      "default-scale1" : 1.0,
                      "default-stroke-color-blue" : 0.56078431372549,
                      "default-stroke-color-green" : 0.686274509803922,
                      "default-stroke-color-red" : 0.0196078431372549,
                      "default-text-attributes" : "[{\"name\":\"fontSize\",\"rangeEnd\":32,\"rangeStart\":0,\"value\":64,\"valueType\":\"double\"},{\"name\":\"fgColor\",\"rangeEnd\":32,\"rangeStart\":0,\"value\":\"(255,255,255,255)\",\"valueType\":\"color\"},{\"name\":\"fontWeight\",\"rangeEnd\":32,\"rangeStart\":0,\"value\":400,\"valueType\":\"int\"},{\"name\":\"fontName\",\"rangeEnd\":32,\"rangeStart\":0,\"value\":\"Montserrat\",\"valueType\":\"string\"},{\"name\":\"fontItalic\",\"rangeEnd\":32,\"rangeStart\":0,\"value\":0,\"valueType\":\"int\"},{\"name\":\"strikethrough\",\"rangeEnd\":32,\"rangeStart\":0,\"value\":0,\"valueType\":\"int\"},{\"name\":\"underline\",\"rangeEnd\":32,\"rangeStart\":0,\"value\":0,\"valueType\":\"int\"}]",
                      "default-translation0" : 0.0,
                      "default-translation1" : 0.0
                    },
                    "animationTracks" : {

                    }
                  },
                  {
                    "id" : 454,
                    "_type" : "Callout",
                    "def" : {
                      "kind" : "remix",
                      "shape" : "text-rectangle",
                      "style" : "basic",
                      "fill-color-blue" : 0.270588235294118,
                      "fill-color-green" : 0.243137254901961,
                      "fill-color-opacity" : 1.0,
                      "fill-color-red" : 0.211764705882353,
                      "height" : 102.823529411536,
                      "line-spacing" : 0.0,
                      "stroke-color-blue" : 0.890196078431372,
                      "stroke-color-green" : 0.870588235294118,
                      "stroke-color-opacity" : 1.0,
                      "stroke-color-red" : 0.847058823529412,
                      "stroke-width" : 2.0,
                      "tail-x" : -877.205882352857,
                      "tail-y" : -2.53676470597329,
                      "width" : 2217.82352941496,
                      "word-wrap" : 1.0,
                      "fill-style" : "solid",
                      "horizontal-alignment" : "center",
                      "resize-behavior" : "resizeText",
                      "stroke-style" : "solid",
                      "text" : "The attacker is trying to access the secret file",
                      "vertical-alignment" : "center",
                      "font" : {
                        "color-blue" : 0.266666666666667,
                        "color-green" : 0.231372549019608,
                        "color-opacity" : 1.0,
                        "color-red" : 0.184313725490196,
                        "size" : 64.0,
                        "tracking" : 0.0,
                        "name" : "Montserrat",
                        "weight" : "Regular"
                      },
                      "textAttributes" : {
                        "type" : "textAttributeList",
                        "keyframes" : [
                          {
                            "endTime" : 0,
                            "time" : 0,
                            "value" : [{"name":"fgColor","rangeEnd":48,"rangeStart":0,"value":"(255,255,255,255)","valueType":"color"},{"name":"fontItalic","rangeEnd":48,"rangeStart":0,"value":0,"valueType":"int"},{"name":"fontWeight","rangeEnd":48,"rangeStart":0,"value":400,"valueType":"int"},{"name":"strikethrough","rangeEnd":48,"rangeStart":0,"value":0,"valueType":"int"},{"name":"underline","rangeEnd":48,"rangeStart":0,"value":0,"valueType":"int"},{"name":"fontSize","rangeEnd":48,"rangeStart":0,"value":80,"valueType":"double"},{"name":"fontName","rangeEnd":48,"rangeStart":0,"value":"Montserrat","valueType":"string"}],
                            "duration" : 0
                          }
                        ]
                      }
                    },
                    "attributes" : {
                      "autoRotateText" : true
                    },
                    "parameters" : {
                      "translation0" : -8.17408363218419e-11,
                      "translation1" : -653.882351594655
                    },
                    "effects" : [
                        {
                          "effectName" : "DropShadow",
                          "category" : "categoryVisualEffects",
                          "parameters" : {
                            "angle" : 5.49778714378214,
                            "blur" : 10.0,
                            "color-alpha" : 1.0,
                            "color-blue" : 0.1216,
                            "color-green" : 0.1216,
                            "color-red" : 0.1216,
                            "enabled" : 1,
                            "offset" : 10.0,
                            "opacity" : 0.4
                          }
                        }
                    ],
                    "start" : 2068,
                    "duration" : 92,
                    "mediaStart" : -86,
                    "mediaDuration" : 92,
                    "scalar" : 1,
                    "metadata" : {
                      "WinSubProjectDisplayName" : "",
                      "clipSpeedAttribute" : false,
                      "default-HAlign" : "center",
                      "default-LineSpace" : 0.0,
                      "default-VAlign" : "center",
                      "default-fill-color-blue" : 1.0,
                      "default-fill-color-green" : 1.0,
                      "default-fill-color-red" : 1.0,
                      "default-scale0" : 1.0,
                      "default-scale1" : 1.0,
                      "default-stroke-color-blue" : 0.56078431372549,
                      "default-stroke-color-green" : 0.686274509803922,
                      "default-stroke-color-red" : 0.0196078431372549,
                      "default-text-attributes" : "[{\"name\":\"fontSize\",\"rangeEnd\":32,\"rangeStart\":0,\"value\":64,\"valueType\":\"double\"},{\"name\":\"fgColor\",\"rangeEnd\":32,\"rangeStart\":0,\"value\":\"(255,255,255,255)\",\"valueType\":\"color\"},{\"name\":\"fontWeight\",\"rangeEnd\":32,\"rangeStart\":0,\"value\":400,\"valueType\":\"int\"},{\"name\":\"fontName\",\"rangeEnd\":32,\"rangeStart\":0,\"value\":\"Montserrat\",\"valueType\":\"string\"},{\"name\":\"fontItalic\",\"rangeEnd\":32,\"rangeStart\":0,\"value\":0,\"valueType\":\"int\"},{\"name\":\"strikethrough\",\"rangeEnd\":32,\"rangeStart\":0,\"value\":0,\"valueType\":\"int\"},{\"name\":\"underline\",\"rangeEnd\":32,\"rangeStart\":0,\"value\":0,\"valueType\":\"int\"}]",
                      "default-translation0" : 0.0,
                      "default-translation1" : 0.0
                    },
                    "animationTracks" : {

                    }
                  },
                  {
                    "id" : 455,
                    "_type" : "Callout",
                    "def" : {
                      "kind" : "remix",
                      "shape" : "text-rectangle",
                      "style" : "basic",
                      "fill-color-blue" : 0.2,
                      "fill-color-green" : 0.4,
                      "fill-color-opacity" : 1.0,
                      "fill-color-red" : 0.0,
                      "height" : 181.882352941206,
                      "line-spacing" : 0.0,
                      "stroke-color-blue" : 0.890196078431372,
                      "stroke-color-green" : 0.870588235294118,
                      "stroke-color-opacity" : 1.0,
                      "stroke-color-red" : 0.847058823529412,
                      "stroke-width" : 2.0,
                      "tail-x" : -844.85294117638,
                      "tail-y" : 19.7671568627669,
                      "width" : 1902.25614296495,
                      "word-wrap" : 1.0,
                      "fill-style" : "solid",
                      "horizontal-alignment" : "center",
                      "resize-behavior" : "resizeText",
                      "stroke-style" : "solid",
                      "text" : "The attacker fails to gain an access. \rMemoryRanger prevents Handle Hijacking Attack.",
                      "vertical-alignment" : "center",
                      "font" : {
                        "color-blue" : 0.266666666666667,
                        "color-green" : 0.231372549019608,
                        "color-opacity" : 1.0,
                        "color-red" : 0.184313725490196,
                        "size" : 64.0,
                        "tracking" : 0.0,
                        "name" : "Montserrat",
                        "weight" : "Regular"
                      },
                      "textAttributes" : {
                        "type" : "textAttributeList",
                        "keyframes" : [
                          {
                            "endTime" : 0,
                            "time" : 0,
                            "value" : [{"name":"fontWeight","rangeEnd":85,"rangeStart":0,"value":400,"valueType":"int"},{"name":"fontName","rangeEnd":85,"rangeStart":0,"value":"Montserrat","valueType":"string"},{"name":"fontSize","rangeEnd":85,"rangeStart":0,"value":75,"valueType":"double"},{"name":"fontItalic","rangeEnd":85,"rangeStart":0,"value":0,"valueType":"int"},{"name":"strikethrough","rangeEnd":85,"rangeStart":0,"value":0,"valueType":"int"},{"name":"fgColor","rangeEnd":85,"rangeStart":0,"value":"(255,255,255,255)","valueType":"color"},{"name":"underline","rangeEnd":85,"rangeStart":0,"value":0,"valueType":"int"}],
                            "duration" : 0
                          }
                        ]
                      }
                    },
                    "attributes" : {
                      "autoRotateText" : true
                    },
                    "parameters" : {
                      "translation0" : -5.41149347554892e-11,
                      "translation1" : -597.717524509857
                    },
                    "effects" : [
                        {
                          "effectName" : "DropShadow",
                          "category" : "categoryVisualEffects",
                          "parameters" : {
                            "angle" : 5.49778714378214,
                            "blur" : 10.0,
                            "color-alpha" : 1.0,
                            "color-blue" : 0.1216,
                            "color-green" : 0.1216,
                            "color-red" : 0.1216,
                            "enabled" : 1,
                            "offset" : 10.0,
                            "opacity" : 0.4
                          }
                        }
                    ],
                    "start" : 2160,
                    "duration" : 171,
                    "mediaStart" : -52,
                    "mediaDuration" : 171,
                    "scalar" : 1,
                    "metadata" : {
                      "WinSubProjectDisplayName" : "",
                      "clipSpeedAttribute" : false,
                      "default-HAlign" : "center",
                      "default-LineSpace" : 0.0,
                      "default-VAlign" : "center",
                      "default-fill-color-blue" : 1.0,
                      "default-fill-color-green" : 1.0,
                      "default-fill-color-red" : 1.0,
                      "default-scale0" : 1.0,
                      "default-scale1" : 1.0,
                      "default-stroke-color-blue" : 0.56078431372549,
                      "default-stroke-color-green" : 0.686274509803922,
                      "default-stroke-color-red" : 0.0196078431372549,
                      "default-text-attributes" : "[{\"name\":\"fontSize\",\"rangeEnd\":32,\"rangeStart\":0,\"value\":64,\"valueType\":\"double\"},{\"name\":\"fgColor\",\"rangeEnd\":32,\"rangeStart\":0,\"value\":\"(255,255,255,255)\",\"valueType\":\"color\"},{\"name\":\"fontWeight\",\"rangeEnd\":32,\"rangeStart\":0,\"value\":400,\"valueType\":\"int\"},{\"name\":\"fontName\",\"rangeEnd\":32,\"rangeStart\":0,\"value\":\"Montserrat\",\"valueType\":\"string\"},{\"name\":\"fontItalic\",\"rangeEnd\":32,\"rangeStart\":0,\"value\":0,\"valueType\":\"int\"},{\"name\":\"strikethrough\",\"rangeEnd\":32,\"rangeStart\":0,\"value\":0,\"valueType\":\"int\"},{\"name\":\"underline\",\"rangeEnd\":32,\"rangeStart\":0,\"value\":0,\"valueType\":\"int\"}]",
                      "default-translation0" : 0.0,
                      "default-translation1" : 0.0
                    },
                    "animationTracks" : {

                    }
                  },
                  {
                    "id" : 456,
                    "_type" : "Callout",
                    "def" : {
                      "kind" : "remix",
                      "shape" : "text-rectangle",
                      "style" : "basic",
                      "fill-color-blue" : 0.270588235294118,
                      "fill-color-green" : 0.243137254901961,
                      "fill-color-opacity" : 1.0,
                      "fill-color-red" : 0.211764705882353,
                      "height" : 141.058823529371,
                      "line-spacing" : 0.0,
                      "stroke-color-blue" : 0.890196078431372,
                      "stroke-color-green" : 0.870588235294118,
                      "stroke-color-opacity" : 1.0,
                      "stroke-color-red" : 0.847058823529412,
                      "stroke-width" : 2.0,
                      "tail-x" : -452.205882352904,
                      "tail-y" : -4.00735294129533,
                      "width" : 1722.72318339354,
                      "word-wrap" : 1.0,
                      "fill-style" : "solid",
                      "horizontal-alignment" : "center",
                      "resize-behavior" : "resizeText",
                      "stroke-style" : "solid",
                      "text" : "The attacker is trying to read the data",
                      "vertical-alignment" : "center",
                      "font" : {
                        "color-blue" : 0.266666666666667,
                        "color-green" : 0.231372549019608,
                        "color-opacity" : 1.0,
                        "color-red" : 0.184313725490196,
                        "size" : 64.0,
                        "tracking" : 0.0,
                        "name" : "Montserrat",
                        "weight" : "Regular"
                      },
                      "textAttributes" : {
                        "type" : "textAttributeList",
                        "keyframes" : [
                          {
                            "endTime" : 0,
                            "time" : 0,
                            "value" : [{"name":"fgColor","rangeEnd":39,"rangeStart":0,"value":"(255,255,255,255)","valueType":"color"},{"name":"strikethrough","rangeEnd":39,"rangeStart":0,"value":0,"valueType":"int"},{"name":"fontItalic","rangeEnd":39,"rangeStart":0,"value":0,"valueType":"int"},{"name":"fontSize","rangeEnd":39,"rangeStart":0,"value":80,"valueType":"double"},{"name":"fontName","rangeEnd":39,"rangeStart":0,"value":"Montserrat","valueType":"string"},{"name":"underline","rangeEnd":39,"rangeStart":0,"value":0,"valueType":"int"},{"name":"fontWeight","rangeEnd":39,"rangeStart":0,"value":400,"valueType":"int"}],
                            "duration" : 0
                          }
                        ]
                      }
                    },
                    "attributes" : {
                      "autoRotateText" : true
                    },
                    "parameters" : {
                      "translation0" : -1.47846179743283e-11,
                      "translation1" : -613.933823529152
                    },
                    "effects" : [
                        {
                          "effectName" : "DropShadow",
                          "category" : "categoryVisualEffects",
                          "parameters" : {
                            "angle" : 5.49778714378214,
                            "blur" : 10.0,
                            "color-alpha" : 1.0,
                            "color-blue" : 0.1216,
                            "color-green" : 0.1216,
                            "color-red" : 0.1216,
                            "enabled" : 1,
                            "offset" : 10.0,
                            "opacity" : 0.4
                          }
                        }
                    ],
                    "start" : 2331,
                    "duration" : 62,
                    "mediaStart" : -96,
                    "mediaDuration" : 62,
                    "scalar" : 1,
                    "metadata" : {
                      "WinSubProjectDisplayName" : "",
                      "clipSpeedAttribute" : false,
                      "default-HAlign" : "center",
                      "default-LineSpace" : 0.0,
                      "default-VAlign" : "center",
                      "default-fill-color-blue" : 1.0,
                      "default-fill-color-green" : 1.0,
                      "default-fill-color-red" : 1.0,
                      "default-scale0" : 1.0,
                      "default-scale1" : 1.0,
                      "default-stroke-color-blue" : 0.56078431372549,
                      "default-stroke-color-green" : 0.686274509803922,
                      "default-stroke-color-red" : 0.0196078431372549,
                      "default-text-attributes" : "[{\"name\":\"fontSize\",\"rangeEnd\":32,\"rangeStart\":0,\"value\":64,\"valueType\":\"double\"},{\"name\":\"fgColor\",\"rangeEnd\":32,\"rangeStart\":0,\"value\":\"(255,255,255,255)\",\"valueType\":\"color\"},{\"name\":\"fontWeight\",\"rangeEnd\":32,\"rangeStart\":0,\"value\":400,\"valueType\":\"int\"},{\"name\":\"fontName\",\"rangeEnd\":32,\"rangeStart\":0,\"value\":\"Montserrat\",\"valueType\":\"string\"},{\"name\":\"fontItalic\",\"rangeEnd\":32,\"rangeStart\":0,\"value\":0,\"valueType\":\"int\"},{\"name\":\"strikethrough\",\"rangeEnd\":32,\"rangeStart\":0,\"value\":0,\"valueType\":\"int\"},{\"name\":\"underline\",\"rangeEnd\":32,\"rangeStart\":0,\"value\":0,\"valueType\":\"int\"}]",
                      "default-translation0" : 0.0,
                      "default-translation1" : 0.0
                    },
                    "animationTracks" : {

                    }
                  },
                  {
                    "id" : 457,
                    "_type" : "Callout",
                    "def" : {
                      "kind" : "remix",
                      "shape" : "text-rectangle",
                      "style" : "basic",
                      "fill-color-blue" : 0.2,
                      "fill-color-green" : 0.4,
                      "fill-color-opacity" : 1.0,
                      "fill-color-red" : 0.0,
                      "height" : 126.352941176627,
                      "line-spacing" : 0.0,
                      "stroke-color-blue" : 0.890196078431372,
                      "stroke-color-green" : 0.870588235294118,
                      "stroke-color-opacity" : 1.0,
                      "stroke-color-red" : 0.847058823529412,
                      "stroke-width" : 2.0,
                      "tail-x" : 53.6764705883562,
                      "tail-y" : 34.0318627450485,
                      "width" : 1819.52024155792,
                      "word-wrap" : 1.0,
                      "fill-style" : "solid",
                      "horizontal-alignment" : "center",
                      "resize-behavior" : "resizeText",
                      "stroke-style" : "solid",
                      "text" : "The attacker fails to read the secret data.",
                      "vertical-alignment" : "center",
                      "font" : {
                        "color-blue" : 0.266666666666667,
                        "color-green" : 0.231372549019608,
                        "color-opacity" : 1.0,
                        "color-red" : 0.184313725490196,
                        "size" : 64.0,
                        "tracking" : 0.0,
                        "name" : "Montserrat",
                        "weight" : "Regular"
                      },
                      "textAttributes" : {
                        "type" : "textAttributeList",
                        "keyframes" : [
                          {
                            "endTime" : 0,
                            "time" : 0,
                            "value" : [{"name":"fontItalic","rangeEnd":43,"rangeStart":0,"value":0,"valueType":"int"},{"name":"fontName","rangeEnd":43,"rangeStart":0,"value":"Montserrat","valueType":"string"},{"name":"strikethrough","rangeEnd":43,"rangeStart":0,"value":0,"valueType":"int"},{"name":"fontWeight","rangeEnd":43,"rangeStart":0,"value":400,"valueType":"int"},{"name":"fgColor","rangeEnd":43,"rangeStart":0,"value":"(255,255,255,255)","valueType":"color"},{"name":"underline","rangeEnd":43,"rangeStart":0,"value":0,"valueType":"int"},{"name":"fontSize","rangeEnd":43,"rangeStart":0,"value":80,"valueType":"double"}],
                            "duration" : 0
                          }
                        ]
                      }
                    },
                    "attributes" : {
                      "autoRotateText" : true
                    },
                    "parameters" : {
                      "translation0" : -9.55537871050183e-11,
                      "translation1" : -623.74693627467
                    },
                    "effects" : [
                        {
                          "effectName" : "DropShadow",
                          "category" : "categoryVisualEffects",
                          "parameters" : {
                            "angle" : 5.49778714378214,
                            "blur" : 10.0,
                            "color-alpha" : 1.0,
                            "color-blue" : 0.1216,
                            "color-green" : 0.1216,
                            "color-red" : 0.1216,
                            "enabled" : 1,
                            "offset" : 10.0,
                            "opacity" : 0.4
                          }
                        }
                    ],
                    "start" : 2393,
                    "duration" : 91,
                    "mediaStart" : -37,
                    "mediaDuration" : 91,
                    "scalar" : 1,
                    "metadata" : {
                      "WinSubProjectDisplayName" : "",
                      "clipSpeedAttribute" : false,
                      "default-HAlign" : "center",
                      "default-LineSpace" : 0.0,
                      "default-VAlign" : "center",
                      "default-fill-color-blue" : 1.0,
                      "default-fill-color-green" : 1.0,
                      "default-fill-color-red" : 1.0,
                      "default-scale0" : 1.0,
                      "default-scale1" : 1.0,
                      "default-stroke-color-blue" : 0.56078431372549,
                      "default-stroke-color-green" : 0.686274509803922,
                      "default-stroke-color-red" : 0.0196078431372549,
                      "default-text-attributes" : "[{\"name\":\"fontSize\",\"rangeEnd\":32,\"rangeStart\":0,\"value\":64,\"valueType\":\"double\"},{\"name\":\"fgColor\",\"rangeEnd\":32,\"rangeStart\":0,\"value\":\"(255,255,255,255)\",\"valueType\":\"color\"},{\"name\":\"fontWeight\",\"rangeEnd\":32,\"rangeStart\":0,\"value\":400,\"valueType\":\"int\"},{\"name\":\"fontName\",\"rangeEnd\":32,\"rangeStart\":0,\"value\":\"Montserrat\",\"valueType\":\"string\"},{\"name\":\"fontItalic\",\"rangeEnd\":32,\"rangeStart\":0,\"value\":0,\"valueType\":\"int\"},{\"name\":\"strikethrough\",\"rangeEnd\":32,\"rangeStart\":0,\"value\":0,\"valueType\":\"int\"},{\"name\":\"underline\",\"rangeEnd\":32,\"rangeStart\":0,\"value\":0,\"valueType\":\"int\"}]",
                      "default-translation0" : 0.0,
                      "default-translation1" : 0.0
                    },
                    "animationTracks" : {

                    }
                  },
                  {
                    "id" : 458,
                    "_type" : "Callout",
                    "def" : {
                      "kind" : "remix",
                      "shape" : "text-rectangle",
                      "style" : "basic",
                      "fill-color-blue" : 0.270588235294118,
                      "fill-color-green" : 0.243137254901961,
                      "fill-color-opacity" : 1.0,
                      "fill-color-red" : 0.211764705882353,
                      "height" : 135.176470588371,
                      "line-spacing" : 0.0,
                      "stroke-color-blue" : 0.890196078431372,
                      "stroke-color-green" : 0.870588235294118,
                      "stroke-color-opacity" : 1.0,
                      "stroke-color-red" : 0.847058823529412,
                      "stroke-width" : 2.0,
                      "tail-x" : -966.911764705783,
                      "tail-y" : 57.7573529411723,
                      "width" : 2203.58823529761,
                      "word-wrap" : 1.0,
                      "fill-style" : "solid",
                      "horizontal-alignment" : "center",
                      "resize-behavior" : "resizeText",
                      "stroke-style" : "solid",
                      "text" : "The attacker is trying to overwrite the secret file",
                      "vertical-alignment" : "center",
                      "font" : {
                        "color-blue" : 0.266666666666667,
                        "color-green" : 0.231372549019608,
                        "color-opacity" : 1.0,
                        "color-red" : 0.184313725490196,
                        "size" : 64.0,
                        "tracking" : 0.0,
                        "name" : "Montserrat",
                        "weight" : "Regular"
                      },
                      "textAttributes" : {
                        "type" : "textAttributeList",
                        "keyframes" : [
                          {
                            "endTime" : 0,
                            "time" : 0,
                            "value" : [{"name":"fontItalic","rangeEnd":51,"rangeStart":0,"value":0,"valueType":"int"},{"name":"fontName","rangeEnd":51,"rangeStart":0,"value":"Montserrat","valueType":"string"},{"name":"strikethrough","rangeEnd":51,"rangeStart":0,"value":0,"valueType":"int"},{"name":"fontWeight","rangeEnd":51,"rangeStart":0,"value":400,"valueType":"int"},{"name":"underline","rangeEnd":51,"rangeStart":0,"value":0,"valueType":"int"},{"name":"fgColor","rangeEnd":51,"rangeStart":0,"value":"(255,255,255,255)","valueType":"color"},{"name":"fontSize","rangeEnd":51,"rangeStart":0,"value":80,"valueType":"double"}],
                            "duration" : 0
                          }
                        ]
                      }
                    },
                    "attributes" : {
                      "autoRotateText" : true
                    },
                    "parameters" : {
                      "translation0" : 1.77351466845721e-11,
                      "translation1" : -621.001838235581
                    },
                    "effects" : [
                        {
                          "effectName" : "DropShadow",
                          "category" : "categoryVisualEffects",
                          "parameters" : {
                            "angle" : 5.49778714378214,
                            "blur" : 10.0,
                            "color-alpha" : 1.0,
                            "color-blue" : 0.1216,
                            "color-green" : 0.1216,
                            "color-red" : 0.1216,
                            "enabled" : 1,
                            "offset" : 10.0,
                            "opacity" : 0.4
                          }
                        }
                    ],
                    "start" : 2489,
                    "duration" : 100,
                    "mediaStart" : -86,
                    "mediaDuration" : 100,
                    "scalar" : 1,
                    "metadata" : {
                      "WinSubProjectDisplayName" : "",
                      "clipSpeedAttribute" : false,
                      "default-HAlign" : "center",
                      "default-LineSpace" : 0.0,
                      "default-VAlign" : "center",
                      "default-fill-color-blue" : 1.0,
                      "default-fill-color-green" : 1.0,
                      "default-fill-color-red" : 1.0,
                      "default-scale0" : 1.0,
                      "default-scale1" : 1.0,
                      "default-stroke-color-blue" : 0.56078431372549,
                      "default-stroke-color-green" : 0.686274509803922,
                      "default-stroke-color-red" : 0.0196078431372549,
                      "default-text-attributes" : "[{\"name\":\"fontSize\",\"rangeEnd\":32,\"rangeStart\":0,\"value\":64,\"valueType\":\"double\"},{\"name\":\"fgColor\",\"rangeEnd\":32,\"rangeStart\":0,\"value\":\"(255,255,255,255)\",\"valueType\":\"color\"},{\"name\":\"fontWeight\",\"rangeEnd\":32,\"rangeStart\":0,\"value\":400,\"valueType\":\"int\"},{\"name\":\"fontName\",\"rangeEnd\":32,\"rangeStart\":0,\"value\":\"Montserrat\",\"valueType\":\"string\"},{\"name\":\"fontItalic\",\"rangeEnd\":32,\"rangeStart\":0,\"value\":0,\"valueType\":\"int\"},{\"name\":\"strikethrough\",\"rangeEnd\":32,\"rangeStart\":0,\"value\":0,\"valueType\":\"int\"},{\"name\":\"underline\",\"rangeEnd\":32,\"rangeStart\":0,\"value\":0,\"valueType\":\"int\"}]",
                      "default-translation0" : 0.0,
                      "default-translation1" : 0.0
                    },
                    "animationTracks" : {

                    }
                  },
                  {
                    "id" : 459,
                    "_type" : "Callout",
                    "def" : {
                      "kind" : "remix",
                      "shape" : "text-rectangle",
                      "style" : "basic",
                      "fill-color-blue" : 0.270588235294118,
                      "fill-color-green" : 0.243137254901961,
                      "fill-color-opacity" : 1.0,
                      "fill-color-red" : 0.211764705882353,
                      "height" : 141.058823529442,
                      "line-spacing" : 0.0,
                      "stroke-color-blue" : 0.890196078431372,
                      "stroke-color-green" : 0.870588235294118,
                      "stroke-color-opacity" : 1.0,
                      "stroke-color-red" : 0.847058823529412,
                      "stroke-width" : 2.0,
                      "tail-x" : -912.499999999842,
                      "tail-y" : 28.3455882353315,
                      "width" : 2312.41176470949,
                      "word-wrap" : 1.0,
                      "fill-style" : "solid",
                      "horizontal-alignment" : "center",
                      "resize-behavior" : "resizeText",
                      "stroke-style" : "solid",
                      "text" : "Okay, now the researcher decides to check the secret file",
                      "vertical-alignment" : "center",
                      "font" : {
                        "color-blue" : 0.266666666666667,
                        "color-green" : 0.231372549019608,
                        "color-opacity" : 1.0,
                        "color-red" : 0.184313725490196,
                        "size" : 64.0,
                        "tracking" : 0.0,
                        "name" : "Montserrat",
                        "weight" : "Regular"
                      },
                      "textAttributes" : {
                        "type" : "textAttributeList",
                        "keyframes" : [
                          {
                            "endTime" : 0,
                            "time" : 0,
                            "value" : [{"name":"fontName","rangeEnd":57,"rangeStart":0,"value":"Montserrat","valueType":"string"},{"name":"fgColor","rangeEnd":57,"rangeStart":0,"value":"(255,255,255,255)","valueType":"color"},{"name":"underline","rangeEnd":57,"rangeStart":0,"value":0,"valueType":"int"},{"name":"fontWeight","rangeEnd":57,"rangeStart":0,"value":400,"valueType":"int"},{"name":"fontItalic","rangeEnd":57,"rangeStart":0,"value":0,"valueType":"int"},{"name":"fontSize","rangeEnd":57,"rangeStart":0,"value":80,"valueType":"double"},{"name":"strikethrough","rangeEnd":57,"rangeStart":0,"value":0,"valueType":"int"}],
                            "duration" : 0
                          }
                        ]
                      }
                    },
                    "attributes" : {
                      "autoRotateText" : true
                    },
                    "parameters" : {
                      "translation0" : -5.84350345889106e-11,
                      "translation1" : -617.117647058791
                    },
                    "effects" : [
                        {
                          "effectName" : "DropShadow",
                          "category" : "categoryVisualEffects",
                          "parameters" : {
                            "angle" : 5.49778714378214,
                            "blur" : 10.0,
                            "color-alpha" : 1.0,
                            "color-blue" : 0.1216,
                            "color-green" : 0.1216,
                            "color-red" : 0.1216,
                            "enabled" : 1,
                            "offset" : 10.0,
                            "opacity" : 0.4
                          }
                        }
                    ],
                    "start" : 2622,
                    "duration" : 131,
                    "mediaStart" : -86,
                    "mediaDuration" : 131,
                    "scalar" : 1,
                    "metadata" : {
                      "WinSubProjectDisplayName" : "",
                      "clipSpeedAttribute" : false,
                      "default-HAlign" : "center",
                      "default-LineSpace" : 0.0,
                      "default-VAlign" : "center",
                      "default-fill-color-blue" : 1.0,
                      "default-fill-color-green" : 1.0,
                      "default-fill-color-red" : 1.0,
                      "default-scale0" : 1.0,
                      "default-scale1" : 1.0,
                      "default-stroke-color-blue" : 0.56078431372549,
                      "default-stroke-color-green" : 0.686274509803922,
                      "default-stroke-color-red" : 0.0196078431372549,
                      "default-text-attributes" : "[{\"name\":\"fontSize\",\"rangeEnd\":32,\"rangeStart\":0,\"value\":64,\"valueType\":\"double\"},{\"name\":\"fgColor\",\"rangeEnd\":32,\"rangeStart\":0,\"value\":\"(255,255,255,255)\",\"valueType\":\"color\"},{\"name\":\"fontWeight\",\"rangeEnd\":32,\"rangeStart\":0,\"value\":400,\"valueType\":\"int\"},{\"name\":\"fontName\",\"rangeEnd\":32,\"rangeStart\":0,\"value\":\"Montserrat\",\"valueType\":\"string\"},{\"name\":\"fontItalic\",\"rangeEnd\":32,\"rangeStart\":0,\"value\":0,\"valueType\":\"int\"},{\"name\":\"strikethrough\",\"rangeEnd\":32,\"rangeStart\":0,\"value\":0,\"valueType\":\"int\"},{\"name\":\"underline\",\"rangeEnd\":32,\"rangeStart\":0,\"value\":0,\"valueType\":\"int\"}]",
                      "default-translation0" : 0.0,
                      "default-translation1" : 0.0
                    },
                    "animationTracks" : {

                    }
                  },
                  {
                    "id" : 460,
                    "_type" : "Callout",
                    "def" : {
                      "kind" : "remix",
                      "shape" : "text-rectangle",
                      "style" : "basic",
                      "fill-color-blue" : 0.270588235294118,
                      "fill-color-green" : 0.243137254901961,
                      "fill-color-opacity" : 1.0,
                      "fill-color-red" : 0.211764705882353,
                      "height" : 102.823529412038,
                      "line-spacing" : 0.0,
                      "stroke-color-blue" : 0.890196078431372,
                      "stroke-color-green" : 0.870588235294118,
                      "stroke-color-opacity" : 1.0,
                      "stroke-color-red" : 0.847058823529412,
                      "stroke-width" : 2.0,
                      "tail-x" : 103.676470588357,
                      "tail-y" : 47.4632352940331,
                      "width" : 1946.46020761524,
                      "word-wrap" : 1.0,
                      "fill-style" : "solid",
                      "horizontal-alignment" : "center",
                      "resize-behavior" : "resizeText",
                      "stroke-style" : "solid",
                      "text" : "The researcher is checking the secret file again",
                      "vertical-alignment" : "center",
                      "font" : {
                        "color-blue" : 0.266666666666667,
                        "color-green" : 0.231372549019608,
                        "color-opacity" : 1.0,
                        "color-red" : 0.184313725490196,
                        "size" : 64.0,
                        "tracking" : 0.0,
                        "name" : "Montserrat",
                        "weight" : "Regular"
                      },
                      "textAttributes" : {
                        "type" : "textAttributeList",
                        "keyframes" : [
                          {
                            "endTime" : 0,
                            "time" : 0,
                            "value" : [{"name":"fontWeight","rangeEnd":48,"rangeStart":0,"value":400,"valueType":"int"},{"name":"fgColor","rangeEnd":48,"rangeStart":0,"value":"(255,255,255,255)","valueType":"color"},{"name":"strikethrough","rangeEnd":48,"rangeStart":0,"value":0,"valueType":"int"},{"name":"fontSize","rangeEnd":48,"rangeStart":0,"value":80,"valueType":"double"},{"name":"underline","rangeEnd":48,"rangeStart":0,"value":0,"valueType":"int"},{"name":"fontName","rangeEnd":48,"rangeStart":0,"value":"Montserrat","valueType":"string"},{"name":"fontItalic","rangeEnd":48,"rangeStart":0,"value":0,"valueType":"int"}],
                            "duration" : 0
                          }
                        ]
                      }
                    },
                    "attributes" : {
                      "autoRotateText" : true
                    },
                    "parameters" : {
                      "translation0" : -1.12663656182121e-10,
                      "translation1" : -625.413602941152
                    },
                    "effects" : [
                        {
                          "effectName" : "DropShadow",
                          "category" : "categoryVisualEffects",
                          "parameters" : {
                            "angle" : 5.49778714378214,
                            "blur" : 10.0,
                            "color-alpha" : 1.0,
                            "color-blue" : 0.1216,
                            "color-green" : 0.1216,
                            "color-red" : 0.1216,
                            "enabled" : 1,
                            "offset" : 10.0,
                            "opacity" : 0.4
                          }
                        }
                    ],
                    "start" : 2786,
                    "duration" : 55,
                    "mediaStart" : -63,
                    "mediaDuration" : 55,
                    "scalar" : 1,
                    "metadata" : {
                      "WinSubProjectDisplayName" : "",
                      "clipSpeedAttribute" : false,
                      "default-HAlign" : "center",
                      "default-LineSpace" : 0.0,
                      "default-VAlign" : "center",
                      "default-fill-color-blue" : 1.0,
                      "default-fill-color-green" : 1.0,
                      "default-fill-color-red" : 1.0,
                      "default-scale0" : 1.0,
                      "default-scale1" : 1.0,
                      "default-stroke-color-blue" : 0.56078431372549,
                      "default-stroke-color-green" : 0.686274509803922,
                      "default-stroke-color-red" : 0.0196078431372549,
                      "default-text-attributes" : "[{\"name\":\"fontSize\",\"rangeEnd\":32,\"rangeStart\":0,\"value\":64,\"valueType\":\"double\"},{\"name\":\"fgColor\",\"rangeEnd\":32,\"rangeStart\":0,\"value\":\"(255,255,255,255)\",\"valueType\":\"color\"},{\"name\":\"fontWeight\",\"rangeEnd\":32,\"rangeStart\":0,\"value\":400,\"valueType\":\"int\"},{\"name\":\"fontName\",\"rangeEnd\":32,\"rangeStart\":0,\"value\":\"Montserrat\",\"valueType\":\"string\"},{\"name\":\"fontItalic\",\"rangeEnd\":32,\"rangeStart\":0,\"value\":0,\"valueType\":\"int\"},{\"name\":\"strikethrough\",\"rangeEnd\":32,\"rangeStart\":0,\"value\":0,\"valueType\":\"int\"},{\"name\":\"underline\",\"rangeEnd\":32,\"rangeStart\":0,\"value\":0,\"valueType\":\"int\"}]",
                      "default-translation0" : 0.0,
                      "default-translation1" : 0.0
                    },
                    "animationTracks" : {

                    }
                  },
                  {
                    "id" : 461,
                    "_type" : "Callout",
                    "def" : {
                      "kind" : "remix",
                      "shape" : "text-rectangle",
                      "style" : "basic",
                      "fill-color-blue" : 0.2,
                      "fill-color-green" : 0.4,
                      "fill-color-opacity" : 1.0,
                      "fill-color-red" : 0.0,
                      "height" : 111.647058823651,
                      "line-spacing" : 0.0,
                      "stroke-color-blue" : 0.890196078431372,
                      "stroke-color-green" : 0.870588235294118,
                      "stroke-color-opacity" : 1.0,
                      "stroke-color-red" : 0.847058823529412,
                      "stroke-width" : 2.0,
                      "tail-x" : -125.735294117577,
                      "tail-y" : -9.88970588238141,
                      "width" : 1748.94463667907,
                      "word-wrap" : 1.0,
                      "fill-style" : "solid",
                      "horizontal-alignment" : "center",
                      "resize-behavior" : "resizeText",
                      "stroke-style" : "solid",
                      "text" : "The secret formula has been protected",
                      "vertical-alignment" : "center",
                      "font" : {
                        "color-blue" : 0.266666666666667,
                        "color-green" : 0.231372549019608,
                        "color-opacity" : 1.0,
                        "color-red" : 0.184313725490196,
                        "size" : 64.0,
                        "tracking" : 0.0,
                        "name" : "Montserrat",
                        "weight" : "Regular"
                      },
                      "textAttributes" : {
                        "type" : "textAttributeList",
                        "keyframes" : [
                          {
                            "endTime" : 0,
                            "time" : 0,
                            "value" : [{"name":"fontItalic","rangeEnd":37,"rangeStart":0,"value":0,"valueType":"int"},{"name":"strikethrough","rangeEnd":37,"rangeStart":0,"value":0,"valueType":"int"},{"name":"fontSize","rangeEnd":37,"rangeStart":0,"value":80,"valueType":"double"},{"name":"fontName","rangeEnd":37,"rangeStart":0,"value":"Montserrat","valueType":"string"},{"name":"underline","rangeEnd":37,"rangeStart":0,"value":0,"valueType":"int"},{"name":"fontWeight","rangeEnd":37,"rangeStart":0,"value":400,"valueType":"int"},{"name":"fgColor","rangeEnd":37,"rangeStart":0,"value":"(255,255,255,255)","valueType":"color"}],
                            "duration" : 0
                          }
                        ]
                      }
                    },
                    "attributes" : {
                      "autoRotateText" : true
                    },
                    "parameters" : {
                      "translation0" : -23.9714843155239,
                      "translation1" : -486.132694938152
                    },
                    "effects" : [
                        {
                          "effectName" : "DropShadow",
                          "category" : "categoryVisualEffects",
                          "parameters" : {
                            "angle" : 5.49778714378214,
                            "blur" : 10.0,
                            "color-alpha" : 1.0,
                            "color-blue" : 0.1216,
                            "color-green" : 0.1216,
                            "color-red" : 0.1216,
                            "enabled" : 1,
                            "offset" : 10.0,
                            "opacity" : 0.4
                          }
                        }
                    ],
                    "start" : 2841,
                    "duration" : 234,
                    "mediaStart" : -37,
                    "mediaDuration" : 234,
                    "scalar" : 1,
                    "metadata" : {
                      "WinSubProjectDisplayName" : "",
                      "clipSpeedAttribute" : false,
                      "default-HAlign" : "center",
                      "default-LineSpace" : 0.0,
                      "default-VAlign" : "center",
                      "default-fill-color-blue" : 1.0,
                      "default-fill-color-green" : 1.0,
                      "default-fill-color-red" : 1.0,
                      "default-scale0" : 1.0,
                      "default-scale1" : 1.0,
                      "default-stroke-color-blue" : 0.56078431372549,
                      "default-stroke-color-green" : 0.686274509803922,
                      "default-stroke-color-red" : 0.0196078431372549,
                      "default-text-attributes" : "[{\"name\":\"fontSize\",\"rangeEnd\":32,\"rangeStart\":0,\"value\":64,\"valueType\":\"double\"},{\"name\":\"fgColor\",\"rangeEnd\":32,\"rangeStart\":0,\"value\":\"(255,255,255,255)\",\"valueType\":\"color\"},{\"name\":\"fontWeight\",\"rangeEnd\":32,\"rangeStart\":0,\"value\":400,\"valueType\":\"int\"},{\"name\":\"fontName\",\"rangeEnd\":32,\"rangeStart\":0,\"value\":\"Montserrat\",\"valueType\":\"string\"},{\"name\":\"fontItalic\",\"rangeEnd\":32,\"rangeStart\":0,\"value\":0,\"valueType\":\"int\"},{\"name\":\"strikethrough\",\"rangeEnd\":32,\"rangeStart\":0,\"value\":0,\"valueType\":\"int\"},{\"name\":\"underline\",\"rangeEnd\":32,\"rangeStart\":0,\"value\":0,\"valueType\":\"int\"}]",
                      "default-translation0" : 0.0,
                      "default-translation1" : 0.0
                    },
                    "animationTracks" : {

                    }
                  },
                  {
                    "id" : 462,
                    "_type" : "Callout",
                    "def" : {
                      "kind" : "remix",
                      "shape" : "text-rectangle",
                      "style" : "basic",
                      "fill-color-blue" : 0.270588235294118,
                      "fill-color-green" : 0.243137254901961,
                      "fill-color-opacity" : 1.0,
                      "fill-color-red" : 0.211764705882353,
                      "height" : 117.529411764971,
                      "line-spacing" : 0.0,
                      "stroke-color-blue" : 0.890196078431372,
                      "stroke-color-green" : 0.870588235294118,
                      "stroke-color-opacity" : 1.0,
                      "stroke-color-red" : 0.847058823529412,
                      "stroke-width" : 2.0,
                      "tail-x" : 113.970588235428,
                      "tail-y" : 40.1102941175666,
                      "width" : 2425.87197232107,
                      "word-wrap" : 1.0,
                      "fill-style" : "solid",
                      "horizontal-alignment" : "center",
                      "resize-behavior" : "resizeText",
                      "stroke-style" : "solid",
                      "text" : "Let us close both opened files and compare their content",
                      "vertical-alignment" : "center",
                      "font" : {
                        "color-blue" : 0.266666666666667,
                        "color-green" : 0.231372549019608,
                        "color-opacity" : 1.0,
                        "color-red" : 0.184313725490196,
                        "size" : 64.0,
                        "tracking" : 0.0,
                        "name" : "Montserrat",
                        "weight" : "Regular"
                      },
                      "textAttributes" : {
                        "type" : "textAttributeList",
                        "keyframes" : [
                          {
                            "endTime" : 0,
                            "time" : 0,
                            "value" : [{"name":"underline","rangeEnd":56,"rangeStart":0,"value":0,"valueType":"int"},{"name":"fontName","rangeEnd":56,"rangeStart":0,"value":"Montserrat","valueType":"string"},{"name":"strikethrough","rangeEnd":56,"rangeStart":0,"value":0,"valueType":"int"},{"name":"kerning","rangeEnd":56,"rangeStart":0,"value":0,"valueType":"double"},{"name":"fontItalic","rangeEnd":56,"rangeStart":0,"value":0,"valueType":"int"},{"name":"fontSize","rangeEnd":56,"rangeStart":0,"value":80,"valueType":"double"},{"name":"fgColor","rangeEnd":56,"rangeStart":0,"value":"(255,255,255,255)","valueType":"color"},{"name":"fontWeight","rangeEnd":56,"rangeStart":0,"value":400,"valueType":"int"}],
                            "duration" : 0
                          }
                        ]
                      }
                    },
                    "attributes" : {
                      "autoRotateText" : true
                    },
                    "parameters" : {
                      "translation0" : -10.2941176471841,
                      "translation1" : -618.060661764685
                    },
                    "effects" : [
                        {
                          "effectName" : "DropShadow",
                          "category" : "categoryVisualEffects",
                          "parameters" : {
                            "angle" : 5.49778714378214,
                            "blur" : 10.0,
                            "color-alpha" : 1.0,
                            "color-blue" : 0.1216,
                            "color-green" : 0.1216,
                            "color-red" : 0.1216,
                            "enabled" : 1,
                            "offset" : 10.0,
                            "opacity" : 0.4
                          }
                        }
                    ],
                    "start" : 3075,
                    "duration" : 231,
                    "mediaStart" : -63,
                    "mediaDuration" : 231,
                    "scalar" : 1,
                    "metadata" : {
                      "WinSubProjectDisplayName" : "",
                      "clipSpeedAttribute" : false,
                      "default-HAlign" : "center",
                      "default-LineSpace" : 0.0,
                      "default-VAlign" : "center",
                      "default-fill-color-blue" : 1.0,
                      "default-fill-color-green" : 1.0,
                      "default-fill-color-red" : 1.0,
                      "default-scale0" : 1.0,
                      "default-scale1" : 1.0,
                      "default-stroke-color-blue" : 0.56078431372549,
                      "default-stroke-color-green" : 0.686274509803922,
                      "default-stroke-color-red" : 0.0196078431372549,
                      "default-text-attributes" : "[{\"name\":\"fontSize\",\"rangeEnd\":32,\"rangeStart\":0,\"value\":64,\"valueType\":\"double\"},{\"name\":\"fgColor\",\"rangeEnd\":32,\"rangeStart\":0,\"value\":\"(255,255,255,255)\",\"valueType\":\"color\"},{\"name\":\"fontWeight\",\"rangeEnd\":32,\"rangeStart\":0,\"value\":400,\"valueType\":\"int\"},{\"name\":\"fontName\",\"rangeEnd\":32,\"rangeStart\":0,\"value\":\"Montserrat\",\"valueType\":\"string\"},{\"name\":\"fontItalic\",\"rangeEnd\":32,\"rangeStart\":0,\"value\":0,\"valueType\":\"int\"},{\"name\":\"strikethrough\",\"rangeEnd\":32,\"rangeStart\":0,\"value\":0,\"valueType\":\"int\"},{\"name\":\"underline\",\"rangeEnd\":32,\"rangeStart\":0,\"value\":0,\"valueType\":\"int\"}]",
                      "default-translation0" : 0.0,
                      "default-translation1" : 0.0
                    },
                    "animationTracks" : {

                    }
                  },
                  {
                    "id" : 463,
                    "_type" : "IMFile",
                    "src" : 9,
                    "trackNumber" : 0,
                    "trimStartSum" : 19,
                    "attributes" : {
                      "ident" : "memoryranger_without_gun_transparent_cropped"
                    },
                    "parameters" : {
                      "translation0" : 353.826696656192,
                      "translation1" : -536.548691315748,
                      "scale0" : 0.233232299264211,
                      "scale1" : 0.233232299264211
                    },
                    "effects" : [

                    ],
                    "start" : 3306,
                    "duration" : 121,
                    "mediaStart" : 0,
                    "mediaDuration" : 1,
                    "scalar" : 1,
                    "metadata" : {
                      "clipSpeedAttribute" : false,
                      "default-scale0" : 1.0,
                      "default-scale1" : 1.0,
                      "default-translation0" : 0.0,
                      "default-translation1" : 0.0
                    },
                    "animationTracks" : {

                    }
                  },
                  {
                    "id" : 464,
                    "_type" : "Callout",
                    "def" : {
                      "kind" : "remix",
                      "shape" : "shape-rectangle",
                      "style" : "basic",
                      "fill-color-blue" : 0.0,
                      "fill-color-green" : 0.0,
                      "fill-color-opacity" : 0.0,
                      "fill-color-red" : 0.0,
                      "height" : 1425.00002748117,
                      "stroke-color-blue" : 0.2,
                      "stroke-color-green" : 0.4,
                      "stroke-color-opacity" : 1.0,
                      "stroke-color-red" : 0.0,
                      "stroke-width" : 20.0,
                      "width" : 2544.99998028906,
                      "fill-style" : "solid",
                      "horizontal-alignment" : "center",
                      "stroke-style" : "solid",
                      "vertical-alignment" : "center",
                      "textAttributes" : {
                        "type" : "textAttributeList",
                        "keyframes" : [
                          {
                            "endTime" : 0,
                            "time" : 0,
                            "value" : null,
                            "duration" : 0
                          }
                        ]
                      }
                    },
                    "attributes" : {
                      "autoRotateText" : true
                    },
                    "parameters" : {
                      "translation0" : -9.53778567236441e-07,
                      "translation1" : -1.62496047693139e-05
                    },
                    "effects" : [
                        {
                          "effectName" : "DropShadow",
                          "category" : "categoryVisualEffects",
                          "parameters" : {
                            "angle" : 5.49778714378214,
                            "blur" : 10.0,
                            "color-alpha" : 1.0,
                            "color-blue" : 0.1216,
                            "color-green" : 0.1216,
                            "color-red" : 0.1216,
                            "enabled" : 1,
                            "offset" : 10.0,
                            "opacity" : 0.4
                          }
                        }
                    ],
                    "start" : 3784,
                    "duration" : 265,
                    "mediaStart" : 32,
                    "mediaDuration" : 265,
                    "scalar" : 1,
                    "metadata" : {
                      "WinSubProjectDisplayName" : "",
                      "clipSpeedAttribute" : false,
                      "default-callout-shape" : "shape-rectangle",
                      "default-stroke-color-blue" : 0.0,
                      "default-stroke-color-green" : 0.0,
                      "default-stroke-color-red" : 0.0,
                      "default-stroke-width" : 6.0,
                      "default-translation0" : 0.0,
                      "default-translation1" : 0.0
                    },
                    "animationTracks" : {

                    }
                  }
                ]
              },
              {
                "trackIndex" : 4,
                "medias" : [
                  {
                    "id" : 465,
                    "_type" : "Callout",
                    "def" : {
                      "kind" : "remix",
                      "shape" : "text",
                      "style" : "basic",
                      "height" : 116.307797537571,
                      "line-spacing" : 0.0,
                      "width" : 1968.09522058886,
                      "word-wrap" : 1.0,
                      "horizontal-alignment" : "center",
                      "resize-behavior" : "resizeText",
                      "text" : "2020",
                      "vertical-alignment" : "center",
                      "font" : {
                        "color-blue" : 1.0,
                        "color-green" : 1.0,
                        "color-red" : 1.0,
                        "size" : 96.0,
                        "tracking" : 0.0,
                        "name" : "Montserrat",
                        "weight" : "Regular"
                      },
                      "textAttributes" : {
                        "type" : "textAttributeList",
                        "keyframes" : [
                          {
                            "endTime" : 0,
                            "time" : 0,
                            "value" : [{"name":"fontItalic","rangeEnd":4,"rangeStart":0,"value":0,"valueType":"int"},{"name":"kerning","rangeEnd":4,"rangeStart":0,"value":0,"valueType":"double"},{"name":"fgColor","rangeEnd":4,"rangeStart":0,"value":"(255,255,255,255)","valueType":"color"},{"name":"fontName","rangeEnd":4,"rangeStart":0,"value":"Montserrat","valueType":"string"},{"name":"underline","rangeEnd":4,"rangeStart":0,"value":0,"valueType":"int"},{"name":"strikethrough","rangeEnd":4,"rangeStart":0,"value":0,"valueType":"int"},{"name":"fontWeight","rangeEnd":4,"rangeStart":0,"value":400,"valueType":"int"},{"name":"fontSize","rangeEnd":4,"rangeStart":0,"value":78,"valueType":"double"}],
                            "duration" : 0
                          }
                        ]
                      }
                    },
                    "attributes" : {
                      "autoRotateText" : true
                    },
                    "parameters" : {
                      "translation0" : 0.4523897057332,
                      "translation1" : -630.663898598455
                    },
                    "effects" : [
                        {
                          "effectName" : "DropShadow",
                          "category" : "categoryVisualEffects",
                          "parameters" : {
                            "angle" : 5.49778714378214,
                            "blur" : 10.0,
                            "color-alpha" : 1.0,
                            "color-blue" : 0.1216,
                            "color-green" : 0.1216,
                            "color-red" : 0.1216,
                            "enabled" : 1,
                            "offset" : 10.0,
                            "opacity" : 0.4
                          }
                        }
                    ],
                    "start" : 0,
                    "duration" : 150,
                    "mediaStart" : 0,
                    "mediaDuration" : 150,
                    "scalar" : 1,
                    "metadata" : {
                      "WinSubProjectDisplayName" : "",
                      "clipSpeedAttribute" : false,
                      "default-HAlign" : "center",
                      "default-LineSpace" : 0.0,
                      "default-VAlign" : "center",
                      "default-text-attributes" : "[{\"name\":\"strikethrough\",\"rangeEnd\":76,\"rangeStart\":0,\"value\":0,\"valueType\":\"int\"},{\"name\":\"fontItalic\",\"rangeEnd\":76,\"rangeStart\":0,\"value\":0,\"valueType\":\"int\"},{\"name\":\"fontName\",\"rangeEnd\":76,\"rangeStart\":0,\"value\":\"Montserrat\",\"valueType\":\"string\"},{\"name\":\"fgColor\",\"rangeEnd\":76,\"rangeStart\":0,\"value\":\"(255,255,255,255)\",\"valueType\":\"color\"},{\"name\":\"fontSize\",\"rangeEnd\":76,\"rangeStart\":0,\"value\":59,\"valueType\":\"double\"},{\"name\":\"underline\",\"rangeEnd\":76,\"rangeStart\":0,\"value\":0,\"valueType\":\"int\"},{\"name\":\"fontWeight\",\"rangeEnd\":76,\"rangeStart\":0,\"value\":400,\"valueType\":\"int\"}]",
                      "default-translation0" : 0.0,
                      "default-translation1" : 0.0
                    },
                    "animationTracks" : {

                    }
                  },
                  {
                    "id" : 466,
                    "_type" : "Callout",
                    "def" : {
                      "kind" : "remix",
                      "shape" : "shape-rectangle",
                      "style" : "basic",
                      "fill-color-blue" : 0.0,
                      "fill-color-green" : 0.0,
                      "fill-color-opacity" : 0.0,
                      "fill-color-red" : 0.0,
                      "height" : 101.960784313853,
                      "stroke-color-blue" : 0.0,
                      "stroke-color-green" : 0.0,
                      "stroke-color-opacity" : 1.0,
                      "stroke-color-red" : 1.0,
                      "stroke-width" : 15.0,
                      "width" : 600.430796050728,
                      "fill-style" : "solid",
                      "horizontal-alignment" : "center",
                      "stroke-style" : "solid",
                      "vertical-alignment" : "center",
                      "textAttributes" : {
                        "type" : "textAttributeList",
                        "keyframes" : [
                          {
                            "endTime" : 0,
                            "time" : 0,
                            "value" : null,
                            "duration" : 0
                          }
                        ]
                      }
                    },
                    "attributes" : {
                      "autoRotateText" : true
                    },
                    "parameters" : {
                      "translation0" : -982.892455284428,
                      "translation1" : 109.607843137627
                    },
                    "effects" : [
                        {
                          "effectName" : "DropShadow",
                          "category" : "categoryVisualEffects",
                          "parameters" : {
                            "angle" : 5.49778714378214,
                            "blur" : 10.0,
                            "color-alpha" : 1.0,
                            "color-blue" : 0.1216,
                            "color-green" : 0.1216,
                            "color-red" : 0.1216,
                            "enabled" : 1,
                            "offset" : 10.0,
                            "opacity" : 0.4
                          }
                        }
                    ],
                    "start" : 508,
                    "duration" : 90,
                    "mediaStart" : 0,
                    "mediaDuration" : 90,
                    "scalar" : 1,
                    "metadata" : {
                      "WinSubProjectDisplayName" : "",
                      "clipSpeedAttribute" : false,
                      "default-callout-shape" : "shape-rectangle",
                      "default-scale0" : 1.0,
                      "default-scale1" : 1.0,
                      "default-stroke-color-red" : 0.0,
                      "default-stroke-width" : 6.0,
                      "default-translation0" : 0.0,
                      "default-translation1" : 0.0
                    },
                    "animationTracks" : {

                    }
                  },
                  {
                    "id" : 467,
                    "_type" : "Callout",
                    "def" : {
                      "kind" : "remix",
                      "shape" : "shape-rectangle",
                      "style" : "basic",
                      "fill-color-blue" : 0.0,
                      "fill-color-green" : 0.0,
                      "fill-color-opacity" : 0.0,
                      "fill-color-red" : 0.0,
                      "height" : 135.122549019623,
                      "stroke-color-blue" : 0.0,
                      "stroke-color-green" : 0.0,
                      "stroke-color-opacity" : 1.0,
                      "stroke-color-red" : 1.0,
                      "stroke-width" : 15.0,
                      "width" : 1312.00796568598,
                      "fill-style" : "solid",
                      "horizontal-alignment" : "center",
                      "stroke-style" : "solid",
                      "vertical-alignment" : "center",
                      "textAttributes" : {
                        "type" : "textAttributeList",
                        "keyframes" : [
                          {
                            "endTime" : 0,
                            "time" : 0,
                            "value" : null,
                            "duration" : 0
                          }
                        ]
                      }
                    },
                    "attributes" : {
                      "autoRotateText" : true
                    },
                    "parameters" : {
                      "translation0" : -597.378370098672,
                      "translation1" : 372.610294117893
                    },
                    "effects" : [
                        {
                          "effectName" : "DropShadow",
                          "category" : "categoryVisualEffects",
                          "parameters" : {
                            "angle" : 5.49778714378214,
                            "blur" : 10.0,
                            "color-alpha" : 1.0,
                            "color-blue" : 0.1216,
                            "color-green" : 0.1216,
                            "color-red" : 0.1216,
                            "enabled" : 1,
                            "offset" : 10.0,
                            "opacity" : 0.4
                          }
                        }
                    ],
                    "start" : 635,
                    "duration" : 60,
                    "mediaStart" : 10,
                    "mediaDuration" : 60,
                    "scalar" : 1,
                    "metadata" : {
                      "WinSubProjectDisplayName" : "",
                      "clipSpeedAttribute" : false,
                      "default-callout-shape" : "shape-rectangle",
                      "default-stroke-color-red" : 0.0,
                      "default-stroke-width" : 6.0,
                      "default-translation0" : 0.0,
                      "default-translation1" : 0.0
                    },
                    "animationTracks" : {

                    }
                  },
                  {
                    "id" : 468,
                    "_type" : "Callout",
                    "def" : {
                      "kind" : "remix",
                      "shape" : "shape-rectangle",
                      "style" : "basic",
                      "fill-color-blue" : 0.0,
                      "fill-color-green" : 0.0,
                      "fill-color-opacity" : 0.0,
                      "fill-color-red" : 0.0,
                      "height" : 101.960784313853,
                      "stroke-color-blue" : 0.0,
                      "stroke-color-green" : 0.0,
                      "stroke-color-opacity" : 1.0,
                      "stroke-color-red" : 1.0,
                      "stroke-width" : 15.0,
                      "width" : 1005.81773806158,
                      "fill-style" : "solid",
                      "horizontal-alignment" : "center",
                      "stroke-style" : "solid",
                      "vertical-alignment" : "center",
                      "textAttributes" : {
                        "type" : "textAttributeList",
                        "keyframes" : [
                          {
                            "endTime" : 0,
                            "time" : 0,
                            "value" : null,
                            "duration" : 0
                          }
                        ]
                      }
                    },
                    "attributes" : {
                      "autoRotateText" : true
                    },
                    "parameters" : {
                      "translation0" : -778.973494082982,
                      "translation1" : -238.799019607497
                    },
                    "effects" : [
                        {
                          "effectName" : "DropShadow",
                          "category" : "categoryVisualEffects",
                          "parameters" : {
                            "angle" : 5.49778714378214,
                            "blur" : 10.0,
                            "color-alpha" : 1.0,
                            "color-blue" : 0.1216,
                            "color-green" : 0.1216,
                            "color-red" : 0.1216,
                            "enabled" : 1,
                            "offset" : 10.0,
                            "opacity" : 0.4
                          }
                        }
                    ],
                    "start" : 705,
                    "duration" : 101,
                    "mediaStart" : -48,
                    "mediaDuration" : 101,
                    "scalar" : 1,
                    "metadata" : {
                      "WinSubProjectDisplayName" : "",
                      "clipSpeedAttribute" : false,
                      "default-callout-shape" : "shape-rectangle",
                      "default-stroke-color-red" : 0.0,
                      "default-stroke-width" : 6.0,
                      "default-translation0" : 0.0,
                      "default-translation1" : 0.0
                    },
                    "animationTracks" : {

                    }
                  },
                  {
                    "id" : 469,
                    "_type" : "Callout",
                    "def" : {
                      "kind" : "remix",
                      "shape" : "shape-rectangle",
                      "style" : "basic",
                      "fill-color-blue" : 0.0,
                      "fill-color-green" : 0.0,
                      "fill-color-opacity" : 0.0,
                      "fill-color-red" : 0.0,
                      "height" : 85.2941176470775,
                      "stroke-color-blue" : 0.0,
                      "stroke-color-green" : 0.0,
                      "stroke-color-opacity" : 1.0,
                      "stroke-color-red" : 1.0,
                      "stroke-width" : 15.0,
                      "width" : 265.483466054813,
                      "fill-style" : "solid",
                      "horizontal-alignment" : "center",
                      "stroke-style" : "solid",
                      "vertical-alignment" : "center",
                      "textAttributes" : {
                        "type" : "textAttributeList",
                        "keyframes" : [
                          {
                            "endTime" : 0,
                            "time" : 0,
                            "value" : null,
                            "duration" : 0
                          }
                        ]
                      }
                    },
                    "attributes" : {
                      "autoRotateText" : true
                    },
                    "parameters" : {
                      "translation0" : -1149.14063008637,
                      "translation1" : -472.622549019123
                    },
                    "effects" : [
                        {
                          "effectName" : "DropShadow",
                          "category" : "categoryVisualEffects",
                          "parameters" : {
                            "angle" : 5.49778714378214,
                            "blur" : 10.0,
                            "color-alpha" : 1.0,
                            "color-blue" : 0.1216,
                            "color-green" : 0.1216,
                            "color-red" : 0.1216,
                            "enabled" : 1,
                            "offset" : 10.0,
                            "opacity" : 0.4
                          }
                        }
                    ],
                    "start" : 867,
                    "duration" : 31,
                    "mediaStart" : -48,
                    "mediaDuration" : 31,
                    "scalar" : 1,
                    "metadata" : {
                      "WinSubProjectDisplayName" : "",
                      "clipSpeedAttribute" : false,
                      "default-callout-shape" : "shape-rectangle",
                      "default-stroke-color-red" : 0.0,
                      "default-stroke-width" : 6.0,
                      "default-translation0" : 0.0,
                      "default-translation1" : 0.0
                    },
                    "animationTracks" : {

                    }
                  },
                  {
                    "id" : 470,
                    "_type" : "Callout",
                    "def" : {
                      "kind" : "remix",
                      "shape" : "shape-rectangle",
                      "style" : "basic",
                      "fill-color-blue" : 0.0,
                      "fill-color-green" : 0.0,
                      "fill-color-opacity" : 0.0,
                      "fill-color-red" : 0.0,
                      "height" : 131.323529411904,
                      "stroke-color-blue" : 0.0,
                      "stroke-color-green" : 0.0,
                      "stroke-color-opacity" : 1.0,
                      "stroke-color-red" : 1.0,
                      "stroke-width" : 15.0,
                      "width" : 1653.69914215631,
                      "fill-style" : "solid",
                      "horizontal-alignment" : "center",
                      "stroke-style" : "solid",
                      "vertical-alignment" : "center",
                      "textAttributes" : {
                        "type" : "textAttributeList",
                        "keyframes" : [
                          {
                            "endTime" : 0,
                            "time" : 0,
                            "value" : null,
                            "duration" : 0
                          }
                        ]
                      }
                    },
                    "attributes" : {
                      "autoRotateText" : true
                    },
                    "parameters" : {
                      "translation0" : -430.94454656948,
                      "translation1" : 131.127450980721
                    },
                    "effects" : [
                        {
                          "effectName" : "DropShadow",
                          "category" : "categoryVisualEffects",
                          "parameters" : {
                            "angle" : 5.49778714378214,
                            "blur" : 10.0,
                            "color-alpha" : 1.0,
                            "color-blue" : 0.1216,
                            "color-green" : 0.1216,
                            "color-red" : 0.1216,
                            "enabled" : 1,
                            "offset" : 10.0,
                            "opacity" : 0.4
                          }
                        }
                    ],
                    "start" : 936,
                    "duration" : 187,
                    "mediaStart" : 14,
                    "mediaDuration" : 187,
                    "scalar" : 1,
                    "metadata" : {
                      "WinSubProjectDisplayName" : "",
                      "clipSpeedAttribute" : false,
                      "default-callout-shape" : "shape-rectangle",
                      "default-stroke-color-red" : 0.0,
                      "default-stroke-width" : 6.0,
                      "default-translation0" : 0.0,
                      "default-translation1" : 0.0
                    },
                    "animationTracks" : {

                    }
                  },
                  {
                    "id" : 471,
                    "_type" : "Callout",
                    "def" : {
                      "kind" : "remix",
                      "shape" : "shape-rectangle",
                      "style" : "basic",
                      "fill-color-blue" : 0.0,
                      "fill-color-green" : 0.0,
                      "fill-color-opacity" : 0.0,
                      "fill-color-red" : 0.0,
                      "height" : 98.7254901961718,
                      "stroke-color-blue" : 0.0,
                      "stroke-color-green" : 0.0,
                      "stroke-color-opacity" : 1.0,
                      "stroke-color-red" : 1.0,
                      "stroke-width" : 15.0,
                      "width" : 677.976885168362,
                      "fill-style" : "solid",
                      "horizontal-alignment" : "center",
                      "stroke-style" : "solid",
                      "vertical-alignment" : "center",
                      "textAttributes" : {
                        "type" : "textAttributeList",
                        "keyframes" : [
                          {
                            "endTime" : 0,
                            "time" : 0,
                            "value" : null,
                            "duration" : 0
                          }
                        ]
                      }
                    },
                    "attributes" : {
                      "autoRotateText" : true
                    },
                    "parameters" : {
                      "translation0" : -939.393906766374,
                      "translation1" : -284.626616603717
                    },
                    "effects" : [
                        {
                          "effectName" : "DropShadow",
                          "category" : "categoryVisualEffects",
                          "parameters" : {
                            "angle" : 5.49778714378214,
                            "blur" : 10.0,
                            "color-alpha" : 1.0,
                            "color-blue" : 0.1216,
                            "color-green" : 0.1216,
                            "color-red" : 0.1216,
                            "enabled" : 1,
                            "offset" : 10.0,
                            "opacity" : 0.4
                          }
                        }
                    ],
                    "start" : 1489,
                    "duration" : 90,
                    "mediaStart" : -4,
                    "mediaDuration" : 90,
                    "scalar" : 1,
                    "metadata" : {
                      "WinSubProjectDisplayName" : "",
                      "clipSpeedAttribute" : false,
                      "default-callout-shape" : "shape-rectangle",
                      "default-scale0" : 1.0,
                      "default-scale1" : 1.0,
                      "default-stroke-color-red" : 0.0,
                      "default-stroke-width" : 6.0,
                      "default-translation0" : 0.0,
                      "default-translation1" : 0.0
                    },
                    "animationTracks" : {

                    }
                  },
                  {
                    "id" : 472,
                    "_type" : "Callout",
                    "def" : {
                      "kind" : "remix",
                      "shape" : "shape-rectangle",
                      "style" : "basic",
                      "fill-color-blue" : 0.0,
                      "fill-color-green" : 0.0,
                      "fill-color-opacity" : 0.0,
                      "fill-color-red" : 0.0,
                      "height" : 98.7254901961718,
                      "stroke-color-blue" : 0.0,
                      "stroke-color-green" : 0.0,
                      "stroke-color-opacity" : 1.0,
                      "stroke-color-red" : 1.0,
                      "stroke-width" : 15.0,
                      "width" : 1299.53247548979,
                      "fill-style" : "solid",
                      "horizontal-alignment" : "center",
                      "stroke-style" : "solid",
                      "vertical-alignment" : "center",
                      "textAttributes" : {
                        "type" : "textAttributeList",
                        "keyframes" : [
                          {
                            "endTime" : 0,
                            "time" : 0,
                            "value" : null,
                            "duration" : 0
                          }
                        ]
                      }
                    },
                    "attributes" : {
                      "autoRotateText" : true
                    },
                    "parameters" : {
                      "translation0" : -519.792582193825,
                      "translation1" : 513.235294118085
                    },
                    "effects" : [
                        {
                          "effectName" : "DropShadow",
                          "category" : "categoryVisualEffects",
                          "parameters" : {
                            "angle" : 5.49778714378214,
                            "blur" : 10.0,
                            "color-alpha" : 1.0,
                            "color-blue" : 0.1216,
                            "color-green" : 0.1216,
                            "color-red" : 0.1216,
                            "enabled" : 1,
                            "offset" : 10.0,
                            "opacity" : 0.4
                          }
                        }
                    ],
                    "start" : 1612,
                    "duration" : 152,
                    "mediaStart" : -4,
                    "mediaDuration" : 152,
                    "scalar" : 1,
                    "metadata" : {
                      "WinSubProjectDisplayName" : "",
                      "clipSpeedAttribute" : false,
                      "default-callout-shape" : "shape-rectangle",
                      "default-stroke-color-red" : 0.0,
                      "default-stroke-width" : 6.0,
                      "default-translation0" : 0.0,
                      "default-translation1" : 0.0
                    },
                    "animationTracks" : {

                    }
                  },
                  {
                    "id" : 473,
                    "_type" : "Callout",
                    "def" : {
                      "kind" : "remix",
                      "shape" : "shape-rectangle",
                      "style" : "basic",
                      "fill-color-blue" : 0.0,
                      "fill-color-green" : 0.0,
                      "fill-color-opacity" : 0.0,
                      "fill-color-red" : 0.0,
                      "height" : 90.1225490197079,
                      "stroke-color-blue" : 0.0,
                      "stroke-color-green" : 0.0,
                      "stroke-color-opacity" : 1.0,
                      "stroke-color-red" : 1.0,
                      "stroke-width" : 15.0,
                      "width" : 1728.39411764662,
                      "fill-style" : "solid",
                      "horizontal-alignment" : "center",
                      "stroke-style" : "solid",
                      "vertical-alignment" : "center",
                      "textAttributes" : {
                        "type" : "textAttributeList",
                        "keyframes" : [
                          {
                            "endTime" : 0,
                            "time" : 0,
                            "value" : null,
                            "duration" : 0
                          }
                        ]
                      }
                    },
                    "attributes" : {
                      "autoRotateText" : true
                    },
                    "parameters" : {
                      "translation0" : -370.667647058781,
                      "translation1" : 619.595588235852
                    },
                    "effects" : [
                        {
                          "effectName" : "DropShadow",
                          "category" : "categoryVisualEffects",
                          "parameters" : {
                            "angle" : 5.49778714378214,
                            "blur" : 10.0,
                            "color-alpha" : 1.0,
                            "color-blue" : 0.1216,
                            "color-green" : 0.1216,
                            "color-red" : 0.1216,
                            "enabled" : 1,
                            "offset" : 10.0,
                            "opacity" : 0.4
                          }
                        }
                    ],
                    "start" : 2160,
                    "duration" : 171,
                    "mediaStart" : -29,
                    "mediaDuration" : 171,
                    "scalar" : 1,
                    "metadata" : {
                      "WinSubProjectDisplayName" : "",
                      "clipSpeedAttribute" : false,
                      "default-callout-shape" : "shape-rectangle",
                      "default-stroke-color-red" : 0.0,
                      "default-stroke-width" : 6.0,
                      "default-translation0" : 0.0,
                      "default-translation1" : 0.0
                    },
                    "animationTracks" : {

                    }
                  },
                  {
                    "id" : 474,
                    "_type" : "Callout",
                    "def" : {
                      "kind" : "remix",
                      "shape" : "shape-rectangle",
                      "style" : "basic",
                      "fill-color-blue" : 0.0,
                      "fill-color-green" : 0.0,
                      "fill-color-opacity" : 0.0,
                      "fill-color-red" : 0.0,
                      "height" : 88.5294117647836,
                      "stroke-color-blue" : 0.0,
                      "stroke-color-green" : 0.0,
                      "stroke-color-opacity" : 1.0,
                      "stroke-color-red" : 1.0,
                      "stroke-width" : 15.0,
                      "width" : 266.62941176436,
                      "fill-style" : "solid",
                      "horizontal-alignment" : "center",
                      "stroke-style" : "solid",
                      "vertical-alignment" : "center",
                      "textAttributes" : {
                        "type" : "textAttributeList",
                        "keyframes" : [
                          {
                            "endTime" : 0,
                            "time" : 0,
                            "value" : null,
                            "duration" : 0
                          }
                        ]
                      }
                    },
                    "attributes" : {
                      "autoRotateText" : true
                    },
                    "parameters" : {
                      "translation0" : -1148.60882352945,
                      "translation1" : -454.117647058261
                    },
                    "effects" : [
                        {
                          "effectName" : "DropShadow",
                          "category" : "categoryVisualEffects",
                          "parameters" : {
                            "angle" : 5.49778714378214,
                            "blur" : 10.0,
                            "color-alpha" : 1.0,
                            "color-blue" : 0.1216,
                            "color-green" : 0.1216,
                            "color-red" : 0.1216,
                            "enabled" : 1,
                            "offset" : 10.0,
                            "opacity" : 0.4
                          }
                        }
                    ],
                    "start" : 2341,
                    "duration" : 30,
                    "mediaStart" : -14,
                    "mediaDuration" : 30,
                    "scalar" : 1,
                    "metadata" : {
                      "WinSubProjectDisplayName" : "",
                      "clipSpeedAttribute" : false,
                      "default-callout-shape" : "shape-rectangle",
                      "default-stroke-color-red" : 0.0,
                      "default-stroke-width" : 6.0,
                      "default-translation0" : 0.0,
                      "default-translation1" : 0.0
                    },
                    "animationTracks" : {

                    }
                  },
                  {
                    "id" : 475,
                    "_type" : "Callout",
                    "def" : {
                      "kind" : "remix",
                      "shape" : "shape-rectangle",
                      "style" : "basic",
                      "fill-color-blue" : 0.0,
                      "fill-color-green" : 0.0,
                      "fill-color-opacity" : 0.0,
                      "fill-color-red" : 0.0,
                      "height" : 97.5980392159855,
                      "stroke-color-blue" : 0.0,
                      "stroke-color-green" : 0.0,
                      "stroke-color-opacity" : 1.0,
                      "stroke-color-red" : 1.0,
                      "stroke-width" : 15.0,
                      "width" : 983.37559239931,
                      "fill-style" : "solid",
                      "horizontal-alignment" : "center",
                      "stroke-style" : "solid",
                      "vertical-alignment" : "center",
                      "textAttributes" : {
                        "type" : "textAttributeList",
                        "keyframes" : [
                          {
                            "endTime" : 0,
                            "time" : 0,
                            "value" : null,
                            "duration" : 0
                          }
                        ]
                      }
                    },
                    "attributes" : {
                      "autoRotateText" : true
                    },
                    "parameters" : {
                      "translation0" : -746.469046200337,
                      "translation1" : 565.735294117938
                    },
                    "effects" : [
                        {
                          "effectName" : "DropShadow",
                          "category" : "categoryVisualEffects",
                          "parameters" : {
                            "angle" : 5.49778714378214,
                            "blur" : 10.0,
                            "color-alpha" : 1.0,
                            "color-blue" : 0.1216,
                            "color-green" : 0.1216,
                            "color-red" : 0.1216,
                            "enabled" : 1,
                            "offset" : 10.0,
                            "opacity" : 0.4
                          }
                        }
                    ],
                    "start" : 2393,
                    "duration" : 91,
                    "mediaStart" : -14,
                    "mediaDuration" : 91,
                    "scalar" : 1,
                    "metadata" : {
                      "WinSubProjectDisplayName" : "",
                      "clipSpeedAttribute" : false,
                      "default-callout-shape" : "shape-rectangle",
                      "default-stroke-color-red" : 0.0,
                      "default-stroke-width" : 6.0,
                      "default-translation0" : 0.0,
                      "default-translation1" : 0.0
                    },
                    "animationTracks" : {

                    }
                  },
                  {
                    "id" : 476,
                    "_type" : "Callout",
                    "def" : {
                      "kind" : "remix",
                      "shape" : "shape-rectangle",
                      "style" : "basic",
                      "fill-color-blue" : 0.0,
                      "fill-color-green" : 0.0,
                      "fill-color-opacity" : 0.0,
                      "fill-color-red" : 0.0,
                      "height" : 83.0147058825024,
                      "stroke-color-blue" : 0.0,
                      "stroke-color-green" : 0.0,
                      "stroke-color-opacity" : 1.0,
                      "stroke-color-red" : 1.0,
                      "stroke-width" : 15.0,
                      "width" : 1024.3069649483,
                      "fill-style" : "solid",
                      "horizontal-alignment" : "center",
                      "stroke-style" : "solid",
                      "vertical-alignment" : "center",
                      "textAttributes" : {
                        "type" : "textAttributeList",
                        "keyframes" : [
                          {
                            "endTime" : 0,
                            "time" : 0,
                            "value" : null,
                            "duration" : 0
                          }
                        ]
                      }
                    },
                    "attributes" : {
                      "autoRotateText" : true
                    },
                    "parameters" : {
                      "translation0" : -767.179830514123,
                      "translation1" : -448.174019607538
                    },
                    "effects" : [
                        {
                          "effectName" : "DropShadow",
                          "category" : "categoryVisualEffects",
                          "parameters" : {
                            "angle" : 5.49778714378214,
                            "blur" : 10.0,
                            "color-alpha" : 1.0,
                            "color-blue" : 0.1216,
                            "color-green" : 0.1216,
                            "color-red" : 0.1216,
                            "enabled" : 1,
                            "offset" : 10.0,
                            "opacity" : 0.4
                          }
                        }
                    ],
                    "start" : 2489,
                    "duration" : 100,
                    "mediaStart" : -14,
                    "mediaDuration" : 100,
                    "scalar" : 1,
                    "metadata" : {
                      "WinSubProjectDisplayName" : "",
                      "clipSpeedAttribute" : false,
                      "default-callout-shape" : "shape-rectangle",
                      "default-stroke-color-red" : 0.0,
                      "default-stroke-width" : 6.0,
                      "default-translation0" : 0.0,
                      "default-translation1" : 0.0
                    },
                    "animationTracks" : {

                    }
                  },
                  {
                    "id" : 477,
                    "_type" : "Callout",
                    "def" : {
                      "kind" : "remix",
                      "shape" : "shape-rectangle",
                      "style" : "basic",
                      "fill-color-blue" : 0.0,
                      "fill-color-green" : 0.0,
                      "fill-color-opacity" : 0.0,
                      "fill-color-red" : 0.0,
                      "height" : 93.504900688554,
                      "stroke-color-blue" : 0.0,
                      "stroke-color-green" : 0.0,
                      "stroke-color-opacity" : 1.0,
                      "stroke-color-red" : 1.0,
                      "stroke-width" : 15.0,
                      "width" : 1538.1473179991,
                      "fill-style" : "solid",
                      "horizontal-alignment" : "center",
                      "stroke-style" : "solid",
                      "vertical-alignment" : "center",
                      "textAttributes" : {
                        "type" : "textAttributeList",
                        "keyframes" : [
                          {
                            "endTime" : 0,
                            "time" : 0,
                            "value" : null,
                            "duration" : 0
                          }
                        ]
                      }
                    },
                    "attributes" : {
                      "autoRotateText" : true
                    },
                    "parameters" : {
                      "translation0" : -461.759587567767,
                      "translation1" : 70.5269601487303
                    },
                    "effects" : [
                        {
                          "effectName" : "DropShadow",
                          "category" : "categoryVisualEffects",
                          "parameters" : {
                            "angle" : 5.49778714378214,
                            "blur" : 10.0,
                            "color-alpha" : 1.0,
                            "color-blue" : 0.1216,
                            "color-green" : 0.1216,
                            "color-red" : 0.1216,
                            "enabled" : 1,
                            "offset" : 10.0,
                            "opacity" : 0.4
                          }
                        }
                    ],
                    "start" : 2841,
                    "duration" : 234,
                    "mediaStart" : 2,
                    "mediaDuration" : 234,
                    "scalar" : 1,
                    "metadata" : {
                      "WinSubProjectDisplayName" : "",
                      "clipSpeedAttribute" : false,
                      "default-callout-shape" : "shape-rectangle",
                      "default-scale0" : 1.0,
                      "default-scale1" : 1.0,
                      "default-stroke-color-red" : 0.0,
                      "default-stroke-width" : 6.0,
                      "default-translation0" : 0.0,
                      "default-translation1" : 0.0
                    },
                    "animationTracks" : {

                    }
                  },
                  {
                    "id" : 478,
                    "_type" : "Callout",
                    "def" : {
                      "kind" : "remix",
                      "shape" : "shape-rectangle",
                      "style" : "basic",
                      "fill-color-blue" : 0.0,
                      "fill-color-green" : 0.0,
                      "fill-color-opacity" : 0.0,
                      "fill-color-red" : 0.0,
                      "height" : 456.092440566816,
                      "stroke-color-blue" : 0.0,
                      "stroke-color-green" : 0.0,
                      "stroke-color-opacity" : 1.0,
                      "stroke-color-red" : 1.0,
                      "stroke-width" : 25.0,
                      "width" : 1750.24571472788,
                      "fill-style" : "solid",
                      "horizontal-alignment" : "center",
                      "stroke-style" : "solid",
                      "vertical-alignment" : "center",
                      "textAttributes" : {
                        "type" : "textAttributeList",
                        "keyframes" : [
                          {
                            "endTime" : 0,
                            "time" : 0,
                            "value" : null,
                            "duration" : 0
                          }
                        ]
                      }
                    },
                    "attributes" : {
                      "autoRotateText" : true
                    },
                    "parameters" : {
                      "translation0" : 81.7895701063891,
                      "translation1" : -159.296216691143
                    },
                    "effects" : [
                        {
                          "effectName" : "DropShadow",
                          "category" : "categoryVisualEffects",
                          "parameters" : {
                            "angle" : 5.49778714378214,
                            "blur" : 10.0,
                            "color-alpha" : 1.0,
                            "color-blue" : 0.1216,
                            "color-green" : 0.1216,
                            "color-red" : 0.1216,
                            "enabled" : 1,
                            "offset" : 10.0,
                            "opacity" : 0.4
                          }
                        }
                    ],
                    "start" : 3474,
                    "duration" : 263,
                    "mediaStart" : 2,
                    "mediaDuration" : 263,
                    "scalar" : 1,
                    "metadata" : {
                      "WinSubProjectDisplayName" : "",
                      "clipSpeedAttribute" : false,
                      "default-callout-shape" : "shape-rectangle",
                      "default-scale0" : 1.0,
                      "default-scale1" : 1.0,
                      "default-stroke-color-red" : 0.0,
                      "default-stroke-width" : 6.0,
                      "default-translation0" : 0.0,
                      "default-translation1" : 0.0
                    },
                    "animationTracks" : {

                    }
                  },
                  {
                    "id" : 479,
                    "_type" : "Callout",
                    "def" : {
                      "kind" : "remix",
                      "shape" : "text-rectangle",
                      "style" : "basic",
                      "fill-color-blue" : 0.2,
                      "fill-color-green" : 0.4,
                      "fill-color-opacity" : 1.0,
                      "fill-color-red" : 0.0,
                      "height" : 117.833333333218,
                      "line-spacing" : 0.0,
                      "stroke-color-blue" : 0.890196078431372,
                      "stroke-color-green" : 0.870588235294118,
                      "stroke-color-opacity" : 1.0,
                      "stroke-color-red" : 0.847058823529412,
                      "stroke-width" : 2.0,
                      "tail-x" : -832.499999999924,
                      "tail-y" : -7.29166666680905,
                      "width" : 1124.69431279903,
                      "word-wrap" : 1.0,
                      "fill-style" : "solid",
                      "horizontal-alignment" : "center",
                      "resize-behavior" : "resizeText",
                      "stroke-style" : "solid",
                      "text" : "The OS is protected!",
                      "vertical-alignment" : "center",
                      "font" : {
                        "color-blue" : 0.266666666666667,
                        "color-green" : 0.231372549019608,
                        "color-opacity" : 1.0,
                        "color-red" : 0.184313725490196,
                        "size" : 64.0,
                        "tracking" : 0.0,
                        "name" : "Montserrat",
                        "weight" : "Regular"
                      },
                      "textAttributes" : {
                        "type" : "textAttributeList",
                        "keyframes" : [
                          {
                            "endTime" : 0,
                            "time" : 0,
                            "value" : [{"name":"underline","rangeEnd":20,"rangeStart":0,"value":0,"valueType":"int"},{"name":"fontName","rangeEnd":20,"rangeStart":0,"value":"Montserrat","valueType":"string"},{"name":"fontItalic","rangeEnd":20,"rangeStart":0,"value":0,"valueType":"int"},{"name":"strikethrough","rangeEnd":20,"rangeStart":0,"value":0,"valueType":"int"},{"name":"fontWeight","rangeEnd":20,"rangeStart":0,"value":400,"valueType":"int"},{"name":"fgColor","rangeEnd":20,"rangeStart":0,"value":"(255,255,255,255)","valueType":"color"},{"name":"fontSize","rangeEnd":20,"rangeStart":0,"value":80,"valueType":"double"}],
                            "duration" : 0
                          }
                        ]
                      }
                    },
                    "attributes" : {
                      "autoRotateText" : true
                    },
                    "parameters" : {
                      "translation0" : -8.97815155570812e-11,
                      "translation1" : -601.246936274415
                    },
                    "effects" : [
                        {
                          "effectName" : "DropShadow",
                          "category" : "categoryVisualEffects",
                          "parameters" : {
                            "angle" : 5.49778714378214,
                            "blur" : 10.0,
                            "color-alpha" : 1.0,
                            "color-blue" : 0.1216,
                            "color-green" : 0.1216,
                            "color-red" : 0.1216,
                            "enabled" : 1,
                            "offset" : 10.0,
                            "opacity" : 0.4
                          }
                        }
                    ],
                    "start" : 3784,
                    "duration" : 265,
                    "mediaStart" : -6,
                    "mediaDuration" : 265,
                    "scalar" : 1,
                    "metadata" : {
                      "WinSubProjectDisplayName" : "",
                      "clipSpeedAttribute" : false,
                      "default-HAlign" : "center",
                      "default-LineSpace" : 0.0,
                      "default-VAlign" : "center",
                      "default-fill-color-blue" : 1.0,
                      "default-fill-color-green" : 1.0,
                      "default-fill-color-red" : 1.0,
                      "default-scale0" : 1.0,
                      "default-scale1" : 1.0,
                      "default-stroke-color-blue" : 0.56078431372549,
                      "default-stroke-color-green" : 0.686274509803922,
                      "default-stroke-color-red" : 0.0196078431372549,
                      "default-text-attributes" : "[{\"name\":\"fontSize\",\"rangeEnd\":32,\"rangeStart\":0,\"value\":64,\"valueType\":\"double\"},{\"name\":\"fgColor\",\"rangeEnd\":32,\"rangeStart\":0,\"value\":\"(255,255,255,255)\",\"valueType\":\"color\"},{\"name\":\"fontWeight\",\"rangeEnd\":32,\"rangeStart\":0,\"value\":400,\"valueType\":\"int\"},{\"name\":\"fontName\",\"rangeEnd\":32,\"rangeStart\":0,\"value\":\"Montserrat\",\"valueType\":\"string\"},{\"name\":\"fontItalic\",\"rangeEnd\":32,\"rangeStart\":0,\"value\":0,\"valueType\":\"int\"},{\"name\":\"strikethrough\",\"rangeEnd\":32,\"rangeStart\":0,\"value\":0,\"valueType\":\"int\"},{\"name\":\"underline\",\"rangeEnd\":32,\"rangeStart\":0,\"value\":0,\"valueType\":\"int\"}]",
                      "default-translation0" : 0.0,
                      "default-translation1" : 0.0
                    },
                    "animationTracks" : {

                    }
                  }
                ]
              },
              {
                "trackIndex" : 5,
                "medias" : [
                  {
                    "id" : 480,
                    "_type" : "Callout",
                    "def" : {
                      "kind" : "remix",
                      "shape" : "text-rectangle",
                      "style" : "basic",
                      "fill-color-blue" : 0.270588235294118,
                      "fill-color-green" : 0.243137254901961,
                      "fill-color-opacity" : 1.0,
                      "fill-color-red" : 0.211764705882353,
                      "height" : 149.882352941234,
                      "line-spacing" : 0.0,
                      "stroke-color-blue" : 0.890196078431372,
                      "stroke-color-green" : 0.870588235294118,
                      "stroke-color-opacity" : 1.0,
                      "stroke-color-red" : 0.847058823529412,
                      "stroke-width" : 2.0,
                      "tail-x" : -492.031249999747,
                      "tail-y" : 2.05882352938322,
                      "width" : 2367.74305555569,
                      "word-wrap" : 1.0,
                      "fill-style" : "solid",
                      "horizontal-alignment" : "center",
                      "resize-behavior" : "resizeText",
                      "stroke-style" : "solid",
                      "text" : "Launching MemoryRanger to protect the kernel memory",
                      "vertical-alignment" : "center",
                      "font" : {
                        "color-blue" : 0.266666666666667,
                        "color-green" : 0.231372549019608,
                        "color-opacity" : 1.0,
                        "color-red" : 0.184313725490196,
                        "size" : 64.0,
                        "tracking" : 0.0,
                        "name" : "Montserrat",
                        "weight" : "Regular"
                      },
                      "textAttributes" : {
                        "type" : "textAttributeList",
                        "keyframes" : [
                          {
                            "endTime" : 0,
                            "time" : 0,
                            "value" : [{"name":"underline","rangeEnd":51,"rangeStart":0,"value":0,"valueType":"int"},{"name":"fontWeight","rangeEnd":51,"rangeStart":0,"value":400,"valueType":"int"},{"name":"fontSize","rangeEnd":51,"rangeStart":0,"value":80,"valueType":"double"},{"name":"strikethrough","rangeEnd":51,"rangeStart":0,"value":0,"valueType":"int"},{"name":"fgColor","rangeEnd":51,"rangeStart":0,"value":"(255,255,255,255)","valueType":"color"},{"name":"fontName","rangeEnd":51,"rangeStart":0,"value":"Montserrat","valueType":"string"},{"name":"fontItalic","rangeEnd":51,"rangeStart":0,"value":0,"valueType":"int"}],
                            "duration" : 0
                          }
                        ]
                      }
                    },
                    "attributes" : {
                      "autoRotateText" : true
                    },
                    "parameters" : {
                      "translation0" : -1.28049570946587e-10,
                      "translation1" : -585.891544117808
                    },
                    "effects" : [
                        {
                          "effectName" : "DropShadow",
                          "category" : "categoryVisualEffects",
                          "parameters" : {
                            "angle" : 5.49778714378214,
                            "blur" : 10.0,
                            "color-alpha" : 1.0,
                            "color-blue" : 0.1216,
                            "color-green" : 0.1216,
                            "color-red" : 0.1216,
                            "enabled" : 1,
                            "offset" : 10.0,
                            "opacity" : 0.4
                          }
                        }
                    ],
                    "start" : 169,
                    "duration" : 91,
                    "mediaStart" : -24,
                    "mediaDuration" : 91,
                    "scalar" : 1,
                    "metadata" : {
                      "WinSubProjectDisplayName" : "",
                      "clipSpeedAttribute" : false,
                      "default-HAlign" : "center",
                      "default-LineSpace" : 0.0,
                      "default-VAlign" : "center",
                      "default-fill-color-blue" : 1.0,
                      "default-fill-color-green" : 1.0,
                      "default-fill-color-red" : 1.0,
                      "default-stroke-color-blue" : 0.56078431372549,
                      "default-stroke-color-green" : 0.686274509803922,
                      "default-stroke-color-red" : 0.0196078431372549,
                      "default-text-attributes" : "[{\"name\":\"fontSize\",\"rangeEnd\":32,\"rangeStart\":0,\"value\":64,\"valueType\":\"double\"},{\"name\":\"fgColor\",\"rangeEnd\":32,\"rangeStart\":0,\"value\":\"(255,255,255,255)\",\"valueType\":\"color\"},{\"name\":\"fontWeight\",\"rangeEnd\":32,\"rangeStart\":0,\"value\":400,\"valueType\":\"int\"},{\"name\":\"fontName\",\"rangeEnd\":32,\"rangeStart\":0,\"value\":\"Montserrat\",\"valueType\":\"string\"},{\"name\":\"fontItalic\",\"rangeEnd\":32,\"rangeStart\":0,\"value\":0,\"valueType\":\"int\"},{\"name\":\"strikethrough\",\"rangeEnd\":32,\"rangeStart\":0,\"value\":0,\"valueType\":\"int\"},{\"name\":\"underline\",\"rangeEnd\":32,\"rangeStart\":0,\"value\":0,\"valueType\":\"int\"}]",
                      "default-translation0" : 0.0,
                      "default-translation1" : 0.0
                    },
                    "animationTracks" : {

                    }
                  },
                  {
                    "id" : 481,
                    "_type" : "Callout",
                    "def" : {
                      "kind" : "remix",
                      "shape" : "text-rectangle",
                      "style" : "basic",
                      "fill-color-blue" : 0.270588235294118,
                      "fill-color-green" : 0.243137254901961,
                      "fill-color-opacity" : 1.0,
                      "fill-color-red" : 0.211764705882353,
                      "height" : 111.034313725598,
                      "line-spacing" : 0.0,
                      "stroke-color-blue" : 0.890196078431372,
                      "stroke-color-green" : 0.870588235294118,
                      "stroke-color-opacity" : 1.0,
                      "stroke-color-red" : 0.847058823529412,
                      "stroke-width" : 2.0,
                      "tail-x" : -492.031249999747,
                      "tail-y" : 21.4828431372011,
                      "width" : 2367.74305555569,
                      "word-wrap" : 1.0,
                      "fill-style" : "solid",
                      "horizontal-alignment" : "center",
                      "resize-behavior" : "resizeText",
                      "stroke-style" : "solid",
                      "text" : "MemoryRanger is ready to prevent memory attacks!",
                      "vertical-alignment" : "center",
                      "font" : {
                        "color-blue" : 0.266666666666667,
                        "color-green" : 0.231372549019608,
                        "color-opacity" : 1.0,
                        "color-red" : 0.184313725490196,
                        "size" : 64.0,
                        "tracking" : 0.0,
                        "name" : "Montserrat",
                        "weight" : "Regular"
                      },
                      "textAttributes" : {
                        "type" : "textAttributeList",
                        "keyframes" : [
                          {
                            "endTime" : 0,
                            "time" : 0,
                            "value" : [{"name":"fontSize","rangeEnd":48,"rangeStart":0,"value":80,"valueType":"double"},{"name":"fontName","rangeEnd":48,"rangeStart":0,"value":"Montserrat","valueType":"string"},{"name":"fgColor","rangeEnd":48,"rangeStart":0,"value":"(255,255,255,255)","valueType":"color"},{"name":"underline","rangeEnd":48,"rangeStart":0,"value":0,"valueType":"int"},{"name":"strikethrough","rangeEnd":48,"rangeStart":0,"value":0,"valueType":"int"},{"name":"fontWeight","rangeEnd":48,"rangeStart":0,"value":400,"valueType":"int"},{"name":"fontItalic","rangeEnd":48,"rangeStart":0,"value":0,"valueType":"int"}],
                            "duration" : 0
                          }
                        ]
                      }
                    },
                    "attributes" : {
                      "autoRotateText" : true
                    },
                    "parameters" : {
                      "translation0" : -1.28049570946587e-10,
                      "translation1" : -641.835171568756
                    },
                    "effects" : [
                        {
                          "effectName" : "DropShadow",
                          "category" : "categoryVisualEffects",
                          "parameters" : {
                            "angle" : 5.49778714378214,
                            "blur" : 10.0,
                            "color-alpha" : 1.0,
                            "color-blue" : 0.1216,
                            "color-green" : 0.1216,
                            "color-red" : 0.1216,
                            "enabled" : 1,
                            "offset" : 10.0,
                            "opacity" : 0.4
                          }
                        }
                    ],
                    "start" : 268,
                    "duration" : 91,
                    "mediaStart" : -24,
                    "mediaDuration" : 91,
                    "scalar" : 1,
                    "metadata" : {
                      "WinSubProjectDisplayName" : "",
                      "clipSpeedAttribute" : false,
                      "default-HAlign" : "center",
                      "default-LineSpace" : 0.0,
                      "default-VAlign" : "center",
                      "default-fill-color-blue" : 1.0,
                      "default-fill-color-green" : 1.0,
                      "default-fill-color-red" : 1.0,
                      "default-stroke-color-blue" : 0.56078431372549,
                      "default-stroke-color-green" : 0.686274509803922,
                      "default-stroke-color-red" : 0.0196078431372549,
                      "default-text-attributes" : "[{\"name\":\"fontSize\",\"rangeEnd\":32,\"rangeStart\":0,\"value\":64,\"valueType\":\"double\"},{\"name\":\"fgColor\",\"rangeEnd\":32,\"rangeStart\":0,\"value\":\"(255,255,255,255)\",\"valueType\":\"color\"},{\"name\":\"fontWeight\",\"rangeEnd\":32,\"rangeStart\":0,\"value\":400,\"valueType\":\"int\"},{\"name\":\"fontName\",\"rangeEnd\":32,\"rangeStart\":0,\"value\":\"Montserrat\",\"valueType\":\"string\"},{\"name\":\"fontItalic\",\"rangeEnd\":32,\"rangeStart\":0,\"value\":0,\"valueType\":\"int\"},{\"name\":\"strikethrough\",\"rangeEnd\":32,\"rangeStart\":0,\"value\":0,\"valueType\":\"int\"},{\"name\":\"underline\",\"rangeEnd\":32,\"rangeStart\":0,\"value\":0,\"valueType\":\"int\"}]",
                      "default-translation0" : 0.0,
                      "default-translation1" : 0.0
                    },
                    "animationTracks" : {

                    }
                  },
                  {
                    "id" : 482,
                    "_type" : "Callout",
                    "def" : {
                      "kind" : "remix",
                      "shape" : "text-rectangle",
                      "style" : "basic",
                      "fill-color-blue" : 0.270588235294118,
                      "fill-color-green" : 0.243137254901961,
                      "fill-color-opacity" : 1.0,
                      "fill-color-red" : 0.211764705882353,
                      "height" : 194.0,
                      "line-spacing" : 0.0,
                      "stroke-color-blue" : 0.890196078431372,
                      "stroke-color-green" : 0.870588235294118,
                      "stroke-color-opacity" : 1.0,
                      "stroke-color-red" : 0.847058823529412,
                      "stroke-width" : 2.0,
                      "tail-x" : -540.364583333164,
                      "tail-y" : -20.0,
                      "width" : 2242.72083333326,
                      "word-wrap" : 1.0,
                      "fill-style" : "solid",
                      "horizontal-alignment" : "center",
                      "resize-behavior" : "resizeText",
                      "stroke-style" : "solid",
                      "text" : "The researcher is launching the app,\rwhich loads a driver.",
                      "vertical-alignment" : "center",
                      "font" : {
                        "color-blue" : 0.266666666666667,
                        "color-green" : 0.231372549019608,
                        "color-opacity" : 1.0,
                        "color-red" : 0.184313725490196,
                        "size" : 64.0,
                        "tracking" : 0.0,
                        "name" : "Montserrat",
                        "weight" : "Regular"
                      },
                      "textAttributes" : {
                        "type" : "textAttributeList",
                        "keyframes" : [
                          {
                            "endTime" : 0,
                            "time" : 0,
                            "value" : [{"name":"fontWeight","rangeEnd":58,"rangeStart":0,"value":400,"valueType":"int"},{"name":"fgColor","rangeEnd":58,"rangeStart":0,"value":"(255,255,255,255)","valueType":"color"},{"name":"fontSize","rangeEnd":58,"rangeStart":0,"value":80,"valueType":"double"},{"name":"fontName","rangeEnd":58,"rangeStart":0,"value":"Montserrat","valueType":"string"},{"name":"underline","rangeEnd":58,"rangeStart":0,"value":0,"valueType":"int"},{"name":"strikethrough","rangeEnd":58,"rangeStart":0,"value":0,"valueType":"int"},{"name":"fontItalic","rangeEnd":58,"rangeStart":0,"value":0,"valueType":"int"}],
                            "duration" : 0
                          }
                        ]
                      }
                    },
                    "attributes" : {
                      "autoRotateText" : true
                    },
                    "parameters" : {
                      "translation0" : 5.32551780452195e-11,
                      "translation1" : -537.36213235302
                    },
                    "effects" : [
                        {
                          "effectName" : "DropShadow",
                          "category" : "categoryVisualEffects",
                          "parameters" : {
                            "angle" : 5.49778714378214,
                            "blur" : 10.0,
                            "color-alpha" : 1.0,
                            "color-blue" : 0.1216,
                            "color-green" : 0.1216,
                            "color-red" : 0.1216,
                            "enabled" : 1,
                            "offset" : 10.0,
                            "opacity" : 0.4
                          }
                        }
                    ],
                    "start" : 369,
                    "duration" : 91,
                    "mediaStart" : -24,
                    "mediaDuration" : 91,
                    "scalar" : 1,
                    "metadata" : {
                      "WinSubProjectDisplayName" : "",
                      "clipSpeedAttribute" : false,
                      "default-HAlign" : "center",
                      "default-LineSpace" : 0.0,
                      "default-VAlign" : "center",
                      "default-fill-color-blue" : 1.0,
                      "default-fill-color-green" : 1.0,
                      "default-fill-color-red" : 1.0,
                      "default-stroke-color-blue" : 0.56078431372549,
                      "default-stroke-color-green" : 0.686274509803922,
                      "default-stroke-color-red" : 0.0196078431372549,
                      "default-text-attributes" : "[{\"name\":\"fontSize\",\"rangeEnd\":32,\"rangeStart\":0,\"value\":64,\"valueType\":\"double\"},{\"name\":\"fgColor\",\"rangeEnd\":32,\"rangeStart\":0,\"value\":\"(255,255,255,255)\",\"valueType\":\"color\"},{\"name\":\"fontWeight\",\"rangeEnd\":32,\"rangeStart\":0,\"value\":400,\"valueType\":\"int\"},{\"name\":\"fontName\",\"rangeEnd\":32,\"rangeStart\":0,\"value\":\"Montserrat\",\"valueType\":\"string\"},{\"name\":\"fontItalic\",\"rangeEnd\":32,\"rangeStart\":0,\"value\":0,\"valueType\":\"int\"},{\"name\":\"strikethrough\",\"rangeEnd\":32,\"rangeStart\":0,\"value\":0,\"valueType\":\"int\"},{\"name\":\"underline\",\"rangeEnd\":32,\"rangeStart\":0,\"value\":0,\"valueType\":\"int\"}]",
                      "default-translation0" : 0.0,
                      "default-translation1" : 0.0
                    },
                    "animationTracks" : {

                    }
                  },
                  {
                    "id" : 483,
                    "_type" : "IMFile",
                    "src" : 7,
                    "trackNumber" : 0,
                    "trimStartSum" : 0,
                    "attributes" : {
                      "ident" : "4 new_idea_half_nobackground_mirror"
                    },
                    "parameters" : {
                      "translation0" : 989.805429917146,
                      "translation1" : -120.842975379554,
                      "scale0" : 1.45208645186012,
                      "scale1" : 1.45208645186012
                    },
                    "effects" : [

                    ],
                    "start" : 508,
                    "duration" : 621,
                    "mediaStart" : 0,
                    "mediaDuration" : 1,
                    "scalar" : 1,
                    "metadata" : {
                      "clipSpeedAttribute" : false,
                      "default-scale0" : 1.0,
                      "default-scale1" : 1.0,
                      "default-translation0" : -0.5,
                      "default-translation1" : -0.5
                    },
                    "animationTracks" : {

                    }
                  },
                  {
                    "id" : 484,
                    "_type" : "IMFile",
                    "src" : 8,
                    "trackNumber" : 0,
                    "trimStartSum" : 0,
                    "attributes" : {
                      "ident" : "256"
                    },
                    "parameters" : {
                      "translation0" : 1006.49066439214,
                      "translation1" : -213.468084245911,
                      "scale0" : 1.83394281242791,
                      "scale1" : 1.83394281242791
                    },
                    "effects" : [

                    ],
                    "start" : 1489,
                    "duration" : 379,
                    "mediaStart" : 0,
                    "mediaDuration" : 1,
                    "scalar" : 1,
                    "metadata" : {
                      "clipSpeedAttribute" : false,
                      "default-scale0" : 1.0,
                      "default-scale1" : 1.0,
                      "default-translation0" : 0.0,
                      "default-translation1" : 0.0
                    },
                    "animationTracks" : {

                    }
                  },
                  {
                    "id" : 485,
                    "_type" : "IMFile",
                    "src" : 8,
                    "trackNumber" : 0,
                    "trimStartSum" : -3,
                    "attributes" : {
                      "ident" : "256"
                    },
                    "parameters" : {
                      "translation0" : 1006.49066439214,
                      "translation1" : -213.468084245911,
                      "scale0" : 1.83394281242791,
                      "scale1" : 1.83394281242791
                    },
                    "effects" : [

                    ],
                    "start" : 2066,
                    "duration" : 586,
                    "mediaStart" : 0,
                    "mediaDuration" : 1,
                    "scalar" : 1,
                    "metadata" : {
                      "clipSpeedAttribute" : false,
                      "default-scale0" : 1.0,
                      "default-scale1" : 1.0,
                      "default-translation0" : 0.0,
                      "default-translation1" : 0.0
                    },
                    "animationTracks" : {

                    }
                  },
                  {
                    "id" : 486,
                    "_type" : "Callout",
                    "def" : {
                      "kind" : "remix",
                      "shape" : "shape-rectangle",
                      "style" : "basic",
                      "fill-color-blue" : 0.0,
                      "fill-color-green" : 0.0,
                      "fill-color-opacity" : 0.0,
                      "fill-color-red" : 0.0,
                      "height" : 81.0049006885118,
                      "stroke-color-blue" : 0.0,
                      "stroke-color-green" : 0.0,
                      "stroke-color-opacity" : 1.0,
                      "stroke-color-red" : 1.0,
                      "stroke-width" : 15.0,
                      "width" : 1538.14736474936,
                      "fill-style" : "solid",
                      "horizontal-alignment" : "center",
                      "stroke-style" : "solid",
                      "vertical-alignment" : "center",
                      "textAttributes" : {
                        "type" : "textAttributeList",
                        "keyframes" : [
                          {
                            "endTime" : 0,
                            "time" : 0,
                            "value" : null,
                            "duration" : 0
                          }
                        ]
                      }
                    },
                    "attributes" : {
                      "autoRotateText" : true
                    },
                    "parameters" : {
                      "translation0" : -461.759604882718,
                      "translation1" : 666.850489560542
                    },
                    "effects" : [
                        {
                          "effectName" : "DropShadow",
                          "category" : "categoryVisualEffects",
                          "parameters" : {
                            "angle" : 5.49778714378214,
                            "blur" : 10.0,
                            "color-alpha" : 1.0,
                            "color-blue" : 0.1216,
                            "color-green" : 0.1216,
                            "color-red" : 0.1216,
                            "enabled" : 1,
                            "offset" : 10.0,
                            "opacity" : 0.4
                          }
                        }
                    ],
                    "start" : 2841,
                    "duration" : 234,
                    "mediaStart" : 2,
                    "mediaDuration" : 234,
                    "scalar" : 1,
                    "metadata" : {
                      "WinSubProjectDisplayName" : "",
                      "clipSpeedAttribute" : false,
                      "default-callout-shape" : "shape-rectangle",
                      "default-scale0" : 1.0,
                      "default-scale1" : 1.0,
                      "default-stroke-color-red" : 0.0,
                      "default-stroke-width" : 6.0,
                      "default-translation0" : 0.0,
                      "default-translation1" : 0.0
                    },
                    "animationTracks" : {

                    }
                  },
                  {
                    "id" : 487,
                    "_type" : "Callout",
                    "def" : {
                      "kind" : "remix",
                      "shape" : "shape-rectangle",
                      "style" : "basic",
                      "fill-color-blue" : 0.0,
                      "fill-color-green" : 0.0,
                      "fill-color-opacity" : 0.0,
                      "fill-color-red" : 0.0,
                      "height" : 456.092440566816,
                      "stroke-color-blue" : 0.0,
                      "stroke-color-green" : 0.0,
                      "stroke-color-opacity" : 1.0,
                      "stroke-color-red" : 1.0,
                      "stroke-width" : 25.0,
                      "width" : 1750.24571472788,
                      "fill-style" : "solid",
                      "horizontal-alignment" : "center",
                      "stroke-style" : "solid",
                      "vertical-alignment" : "center",
                      "textAttributes" : {
                        "type" : "textAttributeList",
                        "keyframes" : [
                          {
                            "endTime" : 0,
                            "time" : 0,
                            "value" : null,
                            "duration" : 0
                          }
                        ]
                      }
                    },
                    "attributes" : {
                      "autoRotateText" : true
                    },
                    "parameters" : {
                      "translation0" : -364.04376322691,
                      "translation1" : 463.620449975482
                    },
                    "effects" : [
                        {
                          "effectName" : "DropShadow",
                          "category" : "categoryVisualEffects",
                          "parameters" : {
                            "angle" : 5.49778714378214,
                            "blur" : 10.0,
                            "color-alpha" : 1.0,
                            "color-blue" : 0.1216,
                            "color-green" : 0.1216,
                            "color-red" : 0.1216,
                            "enabled" : 1,
                            "offset" : 10.0,
                            "opacity" : 0.4
                          }
                        }
                    ],
                    "start" : 3474,
                    "duration" : 263,
                    "mediaStart" : 2,
                    "mediaDuration" : 263,
                    "scalar" : 1,
                    "metadata" : {
                      "WinSubProjectDisplayName" : "",
                      "clipSpeedAttribute" : false,
                      "default-callout-shape" : "shape-rectangle",
                      "default-scale0" : 1.0,
                      "default-scale1" : 1.0,
                      "default-stroke-color-red" : 0.0,
                      "default-stroke-width" : 6.0,
                      "default-translation0" : 0.0,
                      "default-translation1" : 0.0
                    },
                    "animationTracks" : {

                    }
                  },
                  {
                    "id" : 488,
                    "_type" : "AMFile",
                    "src" : 2,
                    "trackNumber" : 0,
                    "attributes" : {
                      "ident" : "Henry Jackman, Matthew Margeson - Rescuing Harry",
                      "gain" : 1.0,
                      "mixToMono" : false
                    },
                      "channelNumber" : "0,1",
                    "parameters" : {
                      "volume" : {
                        "type" : "double",
                        "keyframes" : [
                          {
                            "endTime" : 0,
                            "time" : 0,
                            "value" : 1.0,
                            "duration" : 0
                          },
                          {
                            "endTime" : 1638,
                            "time" : 1638,
                            "value" : 1.0,
                            "duration" : 0
                          },
                          {
                            "endTime" : 1639,
                            "time" : 1639,
                            "value" : 0.0,
                            "duration" : 0
                          },
                          {
                            "endTime" : 1677,
                            "time" : 1677,
                            "value" : 1.0,
                            "duration" : 0
                          },
                          {
                            "endTime" : 1812,
                            "time" : 1812,
                            "value" : 1.0,
                            "duration" : 0
                          },
                          {
                            "endTime" : 1846,
                            "time" : 1846,
                            "value" : 0.141287284144429,
                            "duration" : 0
                          },
                          {
                            "endTime" : 1905,
                            "time" : 1905,
                            "value" : 1.14128728414443,
                            "duration" : 0
                          }
                        ]
                      }
                    },
                    "effects" : [

                    ],
                    "start" : 3843,
                    "duration" : 206,
                    "mediaStart" : 1639,
                    "mediaDuration" : 206,
                    "scalar" : 1,
                    "metadata" : {
                      "clipSpeedAttribute" : false
                    },
                    "animationTracks" : {

                    }
                  }
                ]
              },
              {
                "trackIndex" : 6,
                "medias" : [
                  {
                    "id" : 489,
                    "_type" : "AMFile",
                    "src" : 2,
                    "trackNumber" : 0,
                    "attributes" : {
                      "ident" : "Henry Jackman, Matthew Margeson - Rescuing Harry",
                      "gain" : 1.0,
                      "mixToMono" : false
                    },
                      "channelNumber" : "0,1",
                    "parameters" : {
                      "volume" : {
                        "type" : "double",
                        "keyframes" : [
                          {
                            "endTime" : 0,
                            "time" : 0,
                            "value" : 1.0,
                            "duration" : 0
                          },
                          {
                            "endTime" : 1663,
                            "time" : 1663,
                            "value" : 1.0,
                            "duration" : 0
                          },
                          {
                            "endTime" : 1664,
                            "time" : 1664,
                            "value" : 0.0,
                            "duration" : 0
                          },
                          {
                            "endTime" : 1675,
                            "time" : 1675,
                            "value" : 1.0,
                            "duration" : 0
                          },
                          {
                            "endTime" : 1717,
                            "time" : 1717,
                            "value" : 1.0,
                            "duration" : 0
                          },
                          {
                            "endTime" : 1729,
                            "time" : 1729,
                            "value" : 0.0,
                            "duration" : 0
                          },
                          {
                            "endTime" : 1756,
                            "time" : 1756,
                            "value" : 1.0,
                            "duration" : 0
                          }
                        ]
                      }
                    },
                    "effects" : [

                    ],
                    "start" : 2841,
                    "duration" : 65,
                    "mediaStart" : 1664,
                    "mediaDuration" : 65,
                    "scalar" : 1,
                    "metadata" : {
                      "clipSpeedAttribute" : false
                    },
                    "animationTracks" : {

                    }
                  },
                  {
                    "id" : 490,
                    "_type" : "Callout",
                    "def" : {
                      "kind" : "remix",
                      "shape" : "text-rectangle",
                      "style" : "basic",
                      "fill-color-blue" : 0.2,
                      "fill-color-green" : 0.4,
                      "fill-color-opacity" : 1.0,
                      "fill-color-red" : 0.0,
                      "height" : 111.647058823651,
                      "line-spacing" : 0.0,
                      "stroke-color-blue" : 0.890196078431372,
                      "stroke-color-green" : 0.870588235294118,
                      "stroke-color-opacity" : 1.0,
                      "stroke-color-red" : 0.847058823529412,
                      "stroke-width" : 2.0,
                      "tail-x" : -124.572503420017,
                      "tail-y" : -9.88970588238141,
                      "width" : 1895.45626458638,
                      "word-wrap" : 1.0,
                      "fill-style" : "solid",
                      "horizontal-alignment" : "center",
                      "resize-behavior" : "resizeText",
                      "stroke-style" : "solid",
                      "text" : "MemoryRanger protects the file structures",
                      "vertical-alignment" : "center",
                      "font" : {
                        "color-blue" : 0.266666666666667,
                        "color-green" : 0.231372549019608,
                        "color-opacity" : 1.0,
                        "color-red" : 0.184313725490196,
                        "size" : 64.0,
                        "tracking" : 0.0,
                        "name" : "Montserrat",
                        "weight" : "Regular"
                      },
                      "textAttributes" : {
                        "type" : "textAttributeList",
                        "keyframes" : [
                          {
                            "endTime" : 0,
                            "time" : 0,
                            "value" : [{"name":"fontItalic","rangeEnd":41,"rangeStart":0,"value":0,"valueType":"int"},{"name":"strikethrough","rangeEnd":41,"rangeStart":0,"value":0,"valueType":"int"},{"name":"fontWeight","rangeEnd":41,"rangeStart":0,"value":400,"valueType":"int"},{"name":"fgColor","rangeEnd":41,"rangeStart":0,"value":"(255,255,255,255)","valueType":"color"},{"name":"underline","rangeEnd":41,"rangeStart":0,"value":0,"valueType":"int"},{"name":"fontName","rangeEnd":41,"rangeStart":0,"value":"Montserrat","valueType":"string"},{"name":"kerning","rangeEnd":41,"rangeStart":0,"value":0,"valueType":"double"},{"name":"fontSize","rangeEnd":41,"rangeStart":0,"value":80,"valueType":"double"}],
                            "duration" : 0
                          }
                        ]
                      }
                    },
                    "attributes" : {
                      "autoRotateText" : true
                    },
                    "parameters" : {
                      "translation0" : -23.9714843155019,
                      "translation1" : -637.295485635744
                    },
                    "effects" : [
                        {
                          "effectName" : "DropShadow",
                          "category" : "categoryVisualEffects",
                          "parameters" : {
                            "angle" : 5.49778714378214,
                            "blur" : 10.0,
                            "color-alpha" : 1.0,
                            "color-blue" : 0.1216,
                            "color-green" : 0.1216,
                            "color-red" : 0.1216,
                            "enabled" : 1,
                            "offset" : 10.0,
                            "opacity" : 0.4
                          }
                        }
                    ],
                    "start" : 2982,
                    "duration" : 93,
                    "mediaStart" : -37,
                    "mediaDuration" : 93,
                    "scalar" : 1,
                    "metadata" : {
                      "WinSubProjectDisplayName" : "",
                      "clipSpeedAttribute" : false,
                      "default-HAlign" : "center",
                      "default-LineSpace" : 0.0,
                      "default-VAlign" : "center",
                      "default-fill-color-blue" : 1.0,
                      "default-fill-color-green" : 1.0,
                      "default-fill-color-red" : 1.0,
                      "default-scale0" : 1.0,
                      "default-scale1" : 1.0,
                      "default-stroke-color-blue" : 0.56078431372549,
                      "default-stroke-color-green" : 0.686274509803922,
                      "default-stroke-color-red" : 0.0196078431372549,
                      "default-text-attributes" : "[{\"name\":\"fontSize\",\"rangeEnd\":32,\"rangeStart\":0,\"value\":64,\"valueType\":\"double\"},{\"name\":\"fgColor\",\"rangeEnd\":32,\"rangeStart\":0,\"value\":\"(255,255,255,255)\",\"valueType\":\"color\"},{\"name\":\"fontWeight\",\"rangeEnd\":32,\"rangeStart\":0,\"value\":400,\"valueType\":\"int\"},{\"name\":\"fontName\",\"rangeEnd\":32,\"rangeStart\":0,\"value\":\"Montserrat\",\"valueType\":\"string\"},{\"name\":\"fontItalic\",\"rangeEnd\":32,\"rangeStart\":0,\"value\":0,\"valueType\":\"int\"},{\"name\":\"strikethrough\",\"rangeEnd\":32,\"rangeStart\":0,\"value\":0,\"valueType\":\"int\"},{\"name\":\"underline\",\"rangeEnd\":32,\"rangeStart\":0,\"value\":0,\"valueType\":\"int\"}]",
                      "default-translation0" : 0.0,
                      "default-translation1" : 0.0
                    },
                    "animationTracks" : {

                    }
                  },
                  {
                    "id" : 491,
                    "_type" : "Callout",
                    "def" : {
                      "kind" : "remix",
                      "shape" : "text-rectangle",
                      "style" : "basic",
                      "fill-color-blue" : 0.2,
                      "fill-color-green" : 0.4,
                      "fill-color-opacity" : 1.0,
                      "fill-color-red" : 0.0,
                      "height" : 111.930232557989,
                      "line-spacing" : 0.0,
                      "stroke-color-blue" : 0.890196078431372,
                      "stroke-color-green" : 0.870588235294118,
                      "stroke-color-opacity" : 1.0,
                      "stroke-color-red" : 0.847058823529412,
                      "stroke-width" : 2.0,
                      "tail-x" : -846.453488372144,
                      "tail-y" : -78.2951609272893,
                      "width" : 1930.26088462669,
                      "word-wrap" : 1.0,
                      "fill-style" : "solid",
                      "horizontal-alignment" : "center",
                      "resize-behavior" : "resizeText",
                      "stroke-style" : "solid",
                      "text" : "The secret formula is in the secret file. ",
                      "vertical-alignment" : "center",
                      "font" : {
                        "color-blue" : 0.266666666666667,
                        "color-green" : 0.231372549019608,
                        "color-opacity" : 1.0,
                        "color-red" : 0.184313725490196,
                        "size" : 64.0,
                        "tracking" : 0.0,
                        "name" : "Montserrat",
                        "weight" : "Regular"
                      },
                      "textAttributes" : {
                        "type" : "textAttributeList",
                        "keyframes" : [
                          {
                            "endTime" : 0,
                            "time" : 0,
                            "value" : [{"name":"fontName","rangeEnd":42,"rangeStart":0,"value":"Montserrat","valueType":"string"},{"name":"kerning","rangeEnd":42,"rangeStart":0,"value":0,"valueType":"double"},{"name":"fontSize","rangeEnd":42,"rangeStart":0,"value":80,"valueType":"double"},{"name":"fontItalic","rangeEnd":42,"rangeStart":0,"value":0,"valueType":"int"},{"name":"fontWeight","rangeEnd":42,"rangeStart":0,"value":400,"valueType":"int"},{"name":"strikethrough","rangeEnd":42,"rangeStart":0,"value":0,"valueType":"int"},{"name":"underline","rangeEnd":42,"rangeStart":0,"value":0,"valueType":"int"},{"name":"fgColor","rangeEnd":42,"rangeStart":0,"value":"(255,255,255,255)","valueType":"color"}],
                            "duration" : 0
                          }
                        ]
                      }
                    },
                    "attributes" : {
                      "autoRotateText" : true
                    },
                    "parameters" : {
                      "translation0" : 81.7895701064864,
                      "translation1" : -490.708558292853
                    },
                    "effects" : [
                        {
                          "effectName" : "DropShadow",
                          "category" : "categoryVisualEffects",
                          "parameters" : {
                            "angle" : 5.49778714378214,
                            "blur" : 10.0,
                            "color-alpha" : 1.0,
                            "color-blue" : 0.1216,
                            "color-green" : 0.1216,
                            "color-red" : 0.1216,
                            "enabled" : 1,
                            "offset" : 10.0,
                            "opacity" : 0.4
                          }
                        }
                    ],
                    "start" : 3474,
                    "duration" : 263,
                    "mediaStart" : -4,
                    "mediaDuration" : 263,
                    "scalar" : 1,
                    "metadata" : {
                      "WinSubProjectDisplayName" : "",
                      "clipSpeedAttribute" : false,
                      "default-HAlign" : "center",
                      "default-LineSpace" : 0.0,
                      "default-VAlign" : "center",
                      "default-fill-color-blue" : 1.0,
                      "default-fill-color-green" : 1.0,
                      "default-fill-color-red" : 1.0,
                      "default-scale0" : 1.0,
                      "default-scale1" : 1.0,
                      "default-stroke-color-blue" : 0.56078431372549,
                      "default-stroke-color-green" : 0.686274509803922,
                      "default-stroke-color-red" : 0.0196078431372549,
                      "default-text-attributes" : "[{\"name\":\"fontSize\",\"rangeEnd\":32,\"rangeStart\":0,\"value\":64,\"valueType\":\"double\"},{\"name\":\"fgColor\",\"rangeEnd\":32,\"rangeStart\":0,\"value\":\"(255,255,255,255)\",\"valueType\":\"color\"},{\"name\":\"fontWeight\",\"rangeEnd\":32,\"rangeStart\":0,\"value\":400,\"valueType\":\"int\"},{\"name\":\"fontName\",\"rangeEnd\":32,\"rangeStart\":0,\"value\":\"Montserrat\",\"valueType\":\"string\"},{\"name\":\"fontItalic\",\"rangeEnd\":32,\"rangeStart\":0,\"value\":0,\"valueType\":\"int\"},{\"name\":\"strikethrough\",\"rangeEnd\":32,\"rangeStart\":0,\"value\":0,\"valueType\":\"int\"},{\"name\":\"underline\",\"rangeEnd\":32,\"rangeStart\":0,\"value\":0,\"valueType\":\"int\"}]",
                      "default-translation0" : 0.0,
                      "default-translation1" : 0.0
                    },
                    "animationTracks" : {

                    }
                  },
                  {
                    "id" : 492,
                    "_type" : "IMFile",
                    "src" : 9,
                    "trackNumber" : 0,
                    "trimStartSum" : -90,
                    "attributes" : {
                      "ident" : "memoryranger_without_gun_transparent_cropped"
                    },
                    "parameters" : {
                      "translation0" : -9.53888616095355e-07,
                      "translation1" : -328.374725584083,
                      "scale0" : 0.567548866978405,
                      "scale1" : 0.567548866978405
                    },
                    "effects" : [

                    ],
                    "start" : 3784,
                    "duration" : 265,
                    "mediaStart" : 0,
                    "mediaDuration" : 1,
                    "scalar" : 1,
                    "metadata" : {
                      "clipSpeedAttribute" : false,
                      "default-scale0" : 1.0,
                      "default-scale1" : 1.0,
                      "default-translation0" : 0.0,
                      "default-translation1" : 0.0
                    },
                    "animationTracks" : {

                    }
                  }
                ]
              },
              {
                "trackIndex" : 7,
                "medias" : [
                  {
                    "id" : 493,
                    "_type" : "IMFile",
                    "src" : 7,
                    "trackNumber" : 0,
                    "trimStartSum" : -7,
                    "attributes" : {
                      "ident" : "4 new_idea_half_nobackground_mirror"
                    },
                    "parameters" : {
                      "translation0" : 917.465004385294,
                      "translation1" : -114.459996656169,
                      "scale0" : 1.45208645186012,
                      "scale1" : 1.45208645186012
                    },
                    "effects" : [

                    ],
                    "start" : 2785,
                    "duration" : 56,
                    "mediaStart" : 0,
                    "mediaDuration" : 1,
                    "scalar" : 1,
                    "metadata" : {
                      "clipSpeedAttribute" : false,
                      "default-scale0" : 1.0,
                      "default-scale1" : 1.0,
                      "default-translation0" : -0.5,
                      "default-translation1" : -0.5
                    },
                    "animationTracks" : {

                    }
                  },
                  {
                    "id" : 494,
                    "_type" : "IMFile",
                    "src" : 6,
                    "trackNumber" : 0,
                    "trimStartSum" : 0,
                    "attributes" : {
                      "ident" : "happy_with_sleeves"
                    },
                    "parameters" : {
                      "translation0" : 712.594611533529,
                      "translation1" : 86.1464523117382,
                      "scale0" : 2.10162475080402,
                      "scale1" : 2.10162475080402
                    },
                    "effects" : [
                        {
                          "effectName" : "Colorize",
                          "category" : "categoryVisualEffects",
                          "parameters" : {
                            "amount" : 1.0,
                            "color-alpha" : 1.0,
                            "color-blue" : 0.156862745098039,
                            "color-green" : 0.36078431372549,
                            "color-red" : 0.568627450980392,
                            "enabled" : 1,
                            "mode" : 0
                          },
                          "metadata" : {
                            "default-colorize-b" : 0.0,
                            "default-colorize-g" : 1.0,
                            "default-colorize-r" : 0.0
                          }
                        }
                    ],
                    "start" : 2841,
                    "duration" : 234,
                    "mediaStart" : 0,
                    "mediaDuration" : 1,
                    "scalar" : 1,
                    "metadata" : {
                      "clipSpeedAttribute" : false,
                      "default-scale0" : 1.0,
                      "default-scale1" : 1.0,
                      "default-translation0" : -0.5,
                      "default-translation1" : -0.5
                    },
                    "animationTracks" : {

                    }
                  },
                  {
                    "id" : 495,
                    "_type" : "Callout",
                    "def" : {
                      "kind" : "remix",
                      "shape" : "text-rectangle",
                      "style" : "basic",
                      "fill-color-blue" : 0.2,
                      "fill-color-green" : 0.4,
                      "fill-color-opacity" : 1.0,
                      "fill-color-red" : 0.0,
                      "height" : 102.627906976679,
                      "line-spacing" : 0.0,
                      "stroke-color-blue" : 0.890196078431372,
                      "stroke-color-green" : 0.870588235294118,
                      "stroke-color-opacity" : 1.0,
                      "stroke-color-red" : 0.847058823529412,
                      "stroke-width" : 2.0,
                      "tail-x" : -846.453488372144,
                      "tail-y" : 54.2629786076207,
                      "width" : 1930.26088462669,
                      "word-wrap" : 1.0,
                      "fill-style" : "solid",
                      "horizontal-alignment" : "center",
                      "resize-behavior" : "resizeText",
                      "stroke-style" : "solid",
                      "text" : "The attacker's input is saved in the file hijacker.",
                      "vertical-alignment" : "center",
                      "font" : {
                        "color-blue" : 0.266666666666667,
                        "color-green" : 0.231372549019608,
                        "color-opacity" : 1.0,
                        "color-red" : 0.184313725490196,
                        "size" : 64.0,
                        "tracking" : 0.0,
                        "name" : "Montserrat",
                        "weight" : "Regular"
                      },
                      "textAttributes" : {
                        "type" : "textAttributeList",
                        "keyframes" : [
                          {
                            "endTime" : 0,
                            "time" : 0,
                            "value" : [{"name":"strikethrough","rangeEnd":51,"rangeStart":0,"value":0,"valueType":"int"},{"name":"fontItalic","rangeEnd":51,"rangeStart":0,"value":0,"valueType":"int"},{"name":"fontSize","rangeEnd":51,"rangeStart":0,"value":80,"valueType":"double"},{"name":"fontName","rangeEnd":51,"rangeStart":0,"value":"Montserrat","valueType":"string"},{"name":"fontWeight","rangeEnd":51,"rangeStart":0,"value":400,"valueType":"int"},{"name":"underline","rangeEnd":51,"rangeStart":0,"value":0,"valueType":"int"},{"name":"fgColor","rangeEnd":51,"rangeStart":0,"value":"(255,255,255,255)","valueType":"color"},{"name":"kerning","rangeEnd":51,"rangeStart":0,"value":0,"valueType":"double"}],
                            "duration" : 0
                          }
                        ]
                      }
                    },
                    "attributes" : {
                      "autoRotateText" : true
                    },
                    "parameters" : {
                      "translation0" : 81.7895701064864,
                      "translation1" : -627.917860618528
                    },
                    "effects" : [
                        {
                          "effectName" : "DropShadow",
                          "category" : "categoryVisualEffects",
                          "parameters" : {
                            "angle" : 5.49778714378214,
                            "blur" : 10.0,
                            "color-alpha" : 1.0,
                            "color-blue" : 0.1216,
                            "color-green" : 0.1216,
                            "color-red" : 0.1216,
                            "enabled" : 1,
                            "offset" : 10.0,
                            "opacity" : 0.4
                          }
                        }
                    ],
                    "start" : 3615,
                    "duration" : 122,
                    "mediaStart" : -6,
                    "mediaDuration" : 122,
                    "scalar" : 1,
                    "metadata" : {
                      "WinSubProjectDisplayName" : "",
                      "clipSpeedAttribute" : false,
                      "default-HAlign" : "center",
                      "default-LineSpace" : 0.0,
                      "default-VAlign" : "center",
                      "default-fill-color-blue" : 1.0,
                      "default-fill-color-green" : 1.0,
                      "default-fill-color-red" : 1.0,
                      "default-scale0" : 1.0,
                      "default-scale1" : 1.0,
                      "default-stroke-color-blue" : 0.56078431372549,
                      "default-stroke-color-green" : 0.686274509803922,
                      "default-stroke-color-red" : 0.0196078431372549,
                      "default-text-attributes" : "[{\"name\":\"fontSize\",\"rangeEnd\":32,\"rangeStart\":0,\"value\":64,\"valueType\":\"double\"},{\"name\":\"fgColor\",\"rangeEnd\":32,\"rangeStart\":0,\"value\":\"(255,255,255,255)\",\"valueType\":\"color\"},{\"name\":\"fontWeight\",\"rangeEnd\":32,\"rangeStart\":0,\"value\":400,\"valueType\":\"int\"},{\"name\":\"fontName\",\"rangeEnd\":32,\"rangeStart\":0,\"value\":\"Montserrat\",\"valueType\":\"string\"},{\"name\":\"fontItalic\",\"rangeEnd\":32,\"rangeStart\":0,\"value\":0,\"valueType\":\"int\"},{\"name\":\"strikethrough\",\"rangeEnd\":32,\"rangeStart\":0,\"value\":0,\"valueType\":\"int\"},{\"name\":\"underline\",\"rangeEnd\":32,\"rangeStart\":0,\"value\":0,\"valueType\":\"int\"}]",
                      "default-translation0" : 0.0,
                      "default-translation1" : 0.0
                    },
                    "animationTracks" : {

                    }
                  }
                ]
              },
              {
                "trackIndex" : 8,
                "medias" : [
                  {
                    "id" : 496,
                    "_type" : "IMFile",
                    "src" : 9,
                    "trackNumber" : 0,
                    "trimStartSum" : -3,
                    "attributes" : {
                      "ident" : "memoryranger_without_gun_transparent_cropped"
                    },
                    "parameters" : {
                      "translation0" : -1.28093091689152e-11,
                      "translation1" : -224.516300649046,
                      "scale0" : 0.569301739419622,
                      "scale1" : 0.569301739419622
                    },
                    "effects" : [

                    ],
                    "start" : 2982,
                    "duration" : 93,
                    "mediaStart" : 0,
                    "mediaDuration" : 1,
                    "scalar" : 1,
                    "metadata" : {
                      "clipSpeedAttribute" : false,
                      "default-scale0" : 1.0,
                      "default-scale1" : 1.0,
                      "default-translation0" : 0.0,
                      "default-translation1" : 0.0
                    },
                    "animationTracks" : {

                    }
                  }
                ]
              },
              {
                "trackIndex" : 9,
                "medias" : [
                ]
              },
              {
                "trackIndex" : 10,
                "medias" : [
                ]
              },
              {
                "trackIndex" : 11,
                "medias" : [
                ]
              },
              {
                "trackIndex" : 12,
                "medias" : [
                ]
              },
              {
                "trackIndex" : 13,
                "medias" : [
                ]
              },
              {
                "trackIndex" : 14,
                "medias" : [
                ]
              },
              {
                "trackIndex" : 15,
                "medias" : [
                ]
              },
              {
                "trackIndex" : 16,
                "medias" : [
                ]
              }
            ]
          }
        }
      ]
    },
    "trackAttributes" : [
      {
        "ident" : "",
        "audioMuted" : false,
        "videoHidden" : false,
        "magnetic" : false,
        "matte" : 0,
        "metadata" : {
          "IsLocked" : "False",
          "WinTrackHeight" : "56"
        }
      },
      {
        "ident" : "",
        "audioMuted" : true,
        "videoHidden" : true,
        "magnetic" : false,
        "matte" : 0,
        "metadata" : {
          "IsLocked" : "False",
          "WinTrackHeight" : "56"
        }
      },
      {
        "ident" : "",
        "audioMuted" : false,
        "videoHidden" : false,
        "magnetic" : false,
        "matte" : 0,
        "metadata" : {
          "IsLocked" : "False",
          "WinTrackHeight" : "56"
        }
      },
      {
        "ident" : "",
        "audioMuted" : false,
        "videoHidden" : false,
        "magnetic" : false,
        "matte" : 0,
        "metadata" : {
          "IsLocked" : "False",
          "WinTrackHeight" : "56"
        }
      },
      {
        "ident" : "",
        "audioMuted" : false,
        "videoHidden" : false,
        "magnetic" : false,
        "matte" : 0,
        "metadata" : {
          "IsLocked" : "False",
          "WinTrackHeight" : "56"
        }
      },
      {
        "ident" : "",
        "audioMuted" : false,
        "videoHidden" : false,
        "magnetic" : false,
        "matte" : 0,
        "metadata" : {
          "IsLocked" : "False",
          "WinTrackHeight" : "56"
        }
      },
      {
        "ident" : "",
        "audioMuted" : false,
        "videoHidden" : false,
        "magnetic" : false,
        "matte" : 0,
        "metadata" : {
          "IsLocked" : "False",
          "WinTrackHeight" : "56"
        }
      },
      {
        "ident" : "",
        "audioMuted" : false,
        "videoHidden" : false,
        "magnetic" : false,
        "matte" : 0,
        "metadata" : {
          "IsLocked" : "False",
          "WinTrackHeight" : "56"
        }
      },
      {
        "ident" : "",
        "audioMuted" : false,
        "videoHidden" : false,
        "magnetic" : false,
        "matte" : 0,
        "metadata" : {
          "IsLocked" : "False",
          "WinTrackHeight" : "56"
        }
      },
      {
        "ident" : "",
        "audioMuted" : false,
        "videoHidden" : false,
        "magnetic" : false,
        "matte" : 0,
        "metadata" : {
          "IsLocked" : "False",
          "WinTrackHeight" : "56"
        }
      },
      {
        "ident" : "",
        "audioMuted" : false,
        "videoHidden" : false,
        "magnetic" : false,
        "matte" : 0,
        "metadata" : {
          "IsLocked" : "False",
          "WinTrackHeight" : "56"
        }
      },
      {
        "ident" : "",
        "audioMuted" : false,
        "videoHidden" : false,
        "magnetic" : false,
        "matte" : 0,
        "metadata" : {
          "IsLocked" : "False",
          "WinTrackHeight" : "56"
        }
      },
      {
        "ident" : "",
        "audioMuted" : false,
        "videoHidden" : false,
        "magnetic" : false,
        "matte" : 0,
        "metadata" : {
          "IsLocked" : "False",
          "WinTrackHeight" : "56"
        }
      },
      {
        "ident" : "",
        "audioMuted" : false,
        "videoHidden" : false,
        "magnetic" : false,
        "matte" : 0,
        "metadata" : {
          "IsLocked" : "False",
          "WinTrackHeight" : "56"
        }
      },
      {
        "ident" : "",
        "audioMuted" : false,
        "videoHidden" : false,
        "magnetic" : false,
        "matte" : 0,
        "metadata" : {
          "IsLocked" : "False",
          "WinTrackHeight" : "56"
        }
      },
      {
        "ident" : "",
        "audioMuted" : false,
        "videoHidden" : false,
        "magnetic" : false,
        "matte" : 0,
        "metadata" : {
          "IsLocked" : "False",
          "WinTrackHeight" : "56"
        }
      },
      {
        "ident" : "",
        "audioMuted" : false,
        "videoHidden" : false,
        "magnetic" : false,
        "matte" : 0,
        "metadata" : {
          "IsLocked" : "False",
          "WinTrackHeight" : "56"
        }
      }
    ],
    "captionAttributes" : {
      "enabled" : true,
      "fontName" : "Arial",
      "fontSize" : 64,
      "backgroundColor" : [ 0, 0, 0, 191],
      "foregroundColor" : [ 255, 255, 255, 255],
      "lang" : "en",
      "alignment" : 0,
      "defaultFontSize" : true,
      "opacity" : 0.5,
      "backgroundEnabled" : true,
      "backgroundOnlyAroundText" : true
    },
    "backgroundColor" : [ 0, 0, 0, 255]
  },
  "metadata" : {
    "AutoSaveFile" : "",
    "CanvasZoom" : 47,
    "Date" : "2019-10-10 11:18:32 AM",
    "Fit" : 1,
    "IsAutoSave" : "0",
    "Language" : "ENU",
    "ProfileName" : "",
    "ProjectDimensionsChanged" : "1",
    "Title" : "4. PREVENTION OF HIJACKING NTFS STRUCTURES",
    "audioNarrationNotes" : "",
    "calloutStyle" : "Basic",
    "canvasDetached" : "False",
    "canvasPositionHeight" : "0",
    "canvasPositionLeft" : "0",
    "canvasPositionTop" : "0",
    "canvasPositionWidth" : "0"
  }
}
