{
  "title" : "",
  "description" : "",
  "author" : "",
  "targetLoudness" : -18.0,
  "shouldApplyLoudnessNormalization" : false,
  "videoFormatFrameRate" : 30,
  "audioFormatSampleRate" : 44100,
  "width" : 2560.0,
  "height" : 1440.0,
  "version" : "3.0",
  "editRate" : 30,
  "authoringClientName" :  {
    "name" : "Camtasia",
    "platform" : "Windows",
    "version" : "19.0"
  },
  "sourceBin" : [
    {
      "id" : 1,
      "src" : "K:\\Dropbox\\_Pubs&Confs\\20\\Kernel-Hijacking-Is-Not-an-Option\\video-demos\\hijacking_ntfs_structs\\MSDN 0xC0000043.png",
      "rect" : [0, 0, 2560, 1440],
      "lastMod" : "20190817T193317",
      "sourceTracks" : [
        {
          "range" : [0, 1],
          "type" : 1,
          "editRate" : 10000000,
          "trackRect" : [0, 0, 2560, 1440],
          "sampleRate" : 0,
          "bitDepth" : 24,
          "numChannels" : 0,
          "integratedLUFS" : 100.0,
          "peakLevel" : -1.0,
          "metaData" : ""
        }
      ],
      "metadata" : {
        "timeAdded" : "20200614T104642.171651"
      }
    },
    {
      "id" : 2,
      "src" : "C:\\hijacking_is_not_an_option_raw\\hijacking_ntfs_structs\\hijacking_ntfs_structs_attack.trec",
      "rect" : [0, 0, 2560, 1440],
      "lastMod" : "20200224T111748",
      "sourceTracks" : [
        {
          "range" : [0, 1283510],
          "type" : 0,
          "editRate" : 30,
          "trackRect" : [0, 0, 2560, 1440],
          "sampleRate" : 17,
          "bitDepth" : 0,
          "numChannels" : 0,
          "integratedLUFS" : 100.0,
          "peakLevel" : -1.0,
          "metaData" : "2b7b6a00-7a1f-11e2-83d0-0017f200be7f;2b7b6aef-7a1f-11e2-83d0-0017f200be7f;2b7b6af0-7a1f-11e2-83d0-0017f200be7f;2b7b6af1-7a1f-11e2-83d0-0017f200be7f;2b7b6af2-7a1f-11e2-83d0-0017f200be7f;2b7b6af3-7a1f-11e2-83d0-0017f200be7f;2b7b6af5-7a1f-11e2-83d0-0017f200be7f;2b7b6af6-7a1f-11e2-83d0-0017f200be7f;2b7b6af7-7a1f-11e2-83d0-0017f200be7f;2b7b6af8-7a1f-11e2-83d0-0017f200be7f;2b7b6af9-7a1f-11e2-83d0-0017f200be7f;2b7b6afa-7a1f-11e2-83d0-0017f200be7f;"
        }
      ],
      "metadata" : {
        "timeAdded" : "20200614T162218.570417"
      }
    },
    {
      "id" : 3,
      "src" : "K:\\Dropbox\\_Pubs&Confs\\20\\Kernel-Hijacking-Is-Not-an-Option\\video-demos\\_sounds\\Cinematic_Sound_Effects_Impacts_HD-youtube-C7monbiQkZo-251-320--sec 37-40.mp3",
      "rect" : [0, 0, 0, 0],
      "lastMod" : "20180519T160240",
      "sourceTracks" : [
        {
          "range" : [0, 415440000],
          "type" : 2,
          "editRate" : 10000000,
          "trackRect" : [0, 0, 0, 0],
          "sampleRate" : 48000,
          "bitDepth" : 0,
          "numChannels" : 2,
          "integratedLUFS" : -13.9486652596205,
          "peakLevel" : 1.11620581150055,
          "metaData" : ""
        }
      ],
      "metadata" : {
        "timeAdded" : "20200706T131255.610412"
      }
    },
    {
      "id" : 4,
      "src" : "K:\\Dropbox\\_Pubs&Confs\\20\\Kernel-Hijacking-Is-Not-an-Option\\video-demos\\_sounds\\Neizvesten+Saundtrek+k+fil+mu+RODINA+ZhDET+NEVYPOLNIMOE+ZAD_muzlishko.ru_.mp3",
      "rect" : [0, 0, 0, 0],
      "lastMod" : "20181120T102825",
      "sourceTracks" : [
        {
          "range" : [0, 1697400000],
          "type" : 2,
          "editRate" : 10000000,
          "trackRect" : [0, 0, 0, 0],
          "sampleRate" : 32000,
          "bitDepth" : 0,
          "numChannels" : 2,
          "integratedLUFS" : -10.3265153700026,
          "peakLevel" : 1.12320291996002,
          "metaData" : ""
        }
      ],
      "metadata" : {
        "timeAdded" : "20200706T131255.613404"
      }
    },
    {
      "id" : 5,
      "src" : "K:\\Dropbox\\_Pubs&Confs\\20\\Kernel-Hijacking-Is-Not-an-Option\\video-demos\\_sounds\\Ticking clock.mp3",
      "rect" : [0, 0, 0, 0],
      "lastMod" : "20181127T124442",
      "sourceTracks" : [
        {
          "range" : [0, 381125833],
          "type" : 2,
          "editRate" : 10000000,
          "trackRect" : [0, 0, 0, 0],
          "sampleRate" : 44100,
          "bitDepth" : 0,
          "numChannels" : 2,
          "integratedLUFS" : -21.5714887318495,
          "peakLevel" : 0.678971886634827,
          "metaData" : ""
        }
      ],
      "metadata" : {
        "timeAdded" : "20200706T131255.617427"
      }
    },
    {
      "id" : 6,
      "src" : "C:\\Users\\igork\\Documents\\Camtasia\\Rec 07-06-20_001.trec",
      "rect" : [0, 0, 2560, 1440],
      "lastMod" : "20200706T134038",
      "sourceTracks" : [
        {
          "range" : [0, 175],
          "type" : 0,
          "editRate" : 1,
          "trackRect" : [0, 0, 2560, 1440],
          "sampleRate" : 1,
          "bitDepth" : 0,
          "numChannels" : 0,
          "integratedLUFS" : 100.0,
          "peakLevel" : -1.0,
          "metaData" : "2b7b6a00-7a1f-11e2-83d0-0017f200be7f;2b7b6aef-7a1f-11e2-83d0-0017f200be7f;2b7b6af0-7a1f-11e2-83d0-0017f200be7f;2b7b6af1-7a1f-11e2-83d0-0017f200be7f;2b7b6af2-7a1f-11e2-83d0-0017f200be7f;2b7b6af3-7a1f-11e2-83d0-0017f200be7f;2b7b6af5-7a1f-11e2-83d0-0017f200be7f;2b7b6af6-7a1f-11e2-83d0-0017f200be7f;2b7b6af7-7a1f-11e2-83d0-0017f200be7f;2b7b6af8-7a1f-11e2-83d0-0017f200be7f;2b7b6af9-7a1f-11e2-83d0-0017f200be7f;2b7b6afa-7a1f-11e2-83d0-0017f200be7f;"
        },
        {
          "range" : [0, 7674880],
          "type" : 2,
          "editRate" : 44100,
          "trackRect" : [0, 0, 0, 0],
          "sampleRate" : 44100,
          "bitDepth" : 16,
          "numChannels" : 2,
          "integratedLUFS" : -21.6341686720282,
          "peakLevel" : 0.81097412109375,
          "metaData" : ""
        }
      ],
      "metadata" : {
        "timeAdded" : "20200706T134038.562640"
      }
    },
    {
      "id" : 7,
      "src" : "K:\\Dropbox\\_Pubs&Confs\\20\\Kernel-Hijacking-Is-Not-an-Option\\Kernel Hijacking-Is-Not-an-Option - picts\\znayka - for demos\\new_idea\\4 new_idea_half_nobackground_mirror.png",
      "rect" : [0, 0, 509, 511],
      "lastMod" : "20200711T155043",
      "sourceTracks" : [
        {
          "range" : [0, 1],
          "type" : 1,
          "editRate" : 10000000,
          "trackRect" : [0, 0, 509, 511],
          "sampleRate" : 0,
          "bitDepth" : 32,
          "numChannels" : 0,
          "integratedLUFS" : 100.0,
          "peakLevel" : -1.0,
          "metaData" : ""
        }
      ],
      "metadata" : {
        "timeAdded" : "20200712T124819.949965"
      }
    },
    {
      "id" : 8,
      "src" : "K:\\Dropbox\\_Pubs&Confs\\20\\Kernel-Hijacking-Is-Not-an-Option\\Kernel Hijacking-Is-Not-an-Option - picts\\znayka - for demos\\problem\\Problem_original.png",
      "rect" : [0, 0, 512, 512],
      "lastMod" : "20200709T173146",
      "sourceTracks" : [
        {
          "range" : [0, 1],
          "type" : 1,
          "editRate" : 10000000,
          "trackRect" : [0, 0, 512, 512],
          "sampleRate" : 0,
          "bitDepth" : 8,
          "numChannels" : 0,
          "integratedLUFS" : 100.0,
          "peakLevel" : -1.0,
          "metaData" : ""
        }
      ],
      "metadata" : {
        "timeAdded" : "20200712T124827.221275"
      }
    },
    {
      "id" : 9,
      "src" : "K:\\Dropbox\\_Pubs&Confs\\20\\Kernel-Hijacking-Is-Not-an-Option\\Kernel Hijacking-Is-Not-an-Option - picts\\znayka - for demos\\pirat\\256.png",
      "rect" : [0, 0, 256, 256],
      "lastMod" : "20190311T095112",
      "sourceTracks" : [
        {
          "range" : [0, 1],
          "type" : 1,
          "editRate" : 10000000,
          "trackRect" : [0, 0, 256, 256],
          "sampleRate" : 0,
          "bitDepth" : 32,
          "numChannels" : 0,
          "integratedLUFS" : 100.0,
          "peakLevel" : -1.0,
          "metaData" : ""
        }
      ],
      "metadata" : {
        "timeAdded" : "20200712T124838.451983"
      }
    },
    {
      "id" : 10,
      "src" : "K:\\Dropbox\\_Pubs&Confs\\20\\Kernel-Hijacking-Is-Not-an-Option\\Kernel Hijacking-Is-Not-an-Option - picts\\znayka - for demos\\pirat\\ezgif-3-86c503cbd005.gif",
      "rect" : [0, 0, 54, 56],
      "lastMod" : "20190420T183621",
      "sourceTracks" : [
        {
          "range" : [0, 27],
          "type" : 0,
          "editRate" : 30,
          "trackRect" : [0, 0, 54, 56],
          "sampleRate" : 30,
          "bitDepth" : 8,
          "numChannels" : 0,
          "integratedLUFS" : 100.0,
          "peakLevel" : -1.0,
          "metaData" : ""
        }
      ],
      "metadata" : {
        "timeAdded" : "20200712T124838.458930"
      }
    },
    {
      "id" : 11,
      "src" : "C:\\Users\\igork\\Documents\\Camtasia\\Rec 07-12-20_004.trec",
      "rect" : [0, 0, 2560, 1440],
      "lastMod" : "20200712T131511",
      "sourceTracks" : [
        {
          "range" : [0, 151],
          "type" : 0,
          "editRate" : 1,
          "trackRect" : [0, 0, 2560, 1440],
          "sampleRate" : 1,
          "bitDepth" : 0,
          "numChannels" : 0,
          "integratedLUFS" : 100.0,
          "peakLevel" : -1.0,
          "metaData" : "2b7b6a00-7a1f-11e2-83d0-0017f200be7f;2b7b6aef-7a1f-11e2-83d0-0017f200be7f;2b7b6af0-7a1f-11e2-83d0-0017f200be7f;2b7b6af1-7a1f-11e2-83d0-0017f200be7f;2b7b6af2-7a1f-11e2-83d0-0017f200be7f;2b7b6af3-7a1f-11e2-83d0-0017f200be7f;2b7b6af5-7a1f-11e2-83d0-0017f200be7f;2b7b6af6-7a1f-11e2-83d0-0017f200be7f;2b7b6af7-7a1f-11e2-83d0-0017f200be7f;2b7b6af8-7a1f-11e2-83d0-0017f200be7f;2b7b6af9-7a1f-11e2-83d0-0017f200be7f;2b7b6afa-7a1f-11e2-83d0-0017f200be7f;"
        },
        {
          "range" : [0, 6616064],
          "type" : 2,
          "editRate" : 44100,
          "trackRect" : [0, 0, 0, 0],
          "sampleRate" : 44100,
          "bitDepth" : 16,
          "numChannels" : 2,
          "integratedLUFS" : -16.4316980346557,
          "peakLevel" : 1.0,
          "metaData" : ""
        }
      ],
      "metadata" : {
        "timeAdded" : "20200712T131511.861187"
      }
    },
    {
      "id" : 12,
      "src" : "C:\\Users\\igork\\Documents\\Camtasia\\Rec 07-23-20.trec",
      "rect" : [0, 0, 2560, 1440],
      "lastMod" : "20200723T103058",
      "sourceTracks" : [
        {
          "range" : [0, 11],
          "type" : 0,
          "editRate" : 1,
          "trackRect" : [0, 0, 2560, 1440],
          "sampleRate" : 1,
          "bitDepth" : 0,
          "numChannels" : 0,
          "integratedLUFS" : 100.0,
          "peakLevel" : -1.0,
          "metaData" : "2b7b6a00-7a1f-11e2-83d0-0017f200be7f;2b7b6aef-7a1f-11e2-83d0-0017f200be7f;2b7b6af0-7a1f-11e2-83d0-0017f200be7f;2b7b6af1-7a1f-11e2-83d0-0017f200be7f;2b7b6af2-7a1f-11e2-83d0-0017f200be7f;2b7b6af3-7a1f-11e2-83d0-0017f200be7f;2b7b6af5-7a1f-11e2-83d0-0017f200be7f;2b7b6af6-7a1f-11e2-83d0-0017f200be7f;2b7b6af7-7a1f-11e2-83d0-0017f200be7f;2b7b6af8-7a1f-11e2-83d0-0017f200be7f;2b7b6af9-7a1f-11e2-83d0-0017f200be7f;2b7b6afa-7a1f-11e2-83d0-0017f200be7f;"
        },
        {
          "range" : [0, 442368],
          "type" : 2,
          "editRate" : 44100,
          "trackRect" : [0, 0, 0, 0],
          "sampleRate" : 44100,
          "bitDepth" : 16,
          "numChannels" : 2,
          "integratedLUFS" : -18.0227655055739,
          "peakLevel" : 0.798675537109375,
          "metaData" : ""
        }
      ],
      "metadata" : {
        "timeAdded" : "20200723T111306.134976"
      }
    }
  ],
  "timeline" : {
    "id" : 13,
    "sceneTrack" : {
      "scenes" : [
        {
          "duration" : 127.633333333333,
          "title" : "",
          "type" : "",
          "csml" : {
            "tracks" : [
              {
                "trackIndex" : 0,
                "medias" : [
                  {
                    "id" : 14,
                    "_type" : "AMFile",
                    "src" : 11,
                    "trackNumber" : 1,
                    "attributes" : {
                      "ident" : "Rec 07-12-20_004",
                      "gain" : 1.0,
                      "mixToMono" : false
                    },
                      "channelNumber" : "0,1",
                    "parameters" : {
                      "volume" : 1.26822157434404
                    },
                    "effects" : [

                    ],
                    "start" : 163,
                    "duration" : 62,
                    "mediaStart" : 139,
                    "mediaDuration" : 62,
                    "scalar" : 1,
                    "metadata" : {
                      "clipSpeedAttribute" : false
                    },
                    "animationTracks" : {

                    }
                  },
                  {
                    "id" : 15,
                    "_type" : "AMFile",
                    "src" : 11,
                    "trackNumber" : 1,
                    "attributes" : {
                      "ident" : "Rec 07-12-20_004",
                      "gain" : 1.0,
                      "mixToMono" : false
                    },
                      "channelNumber" : "0,1",
                    "parameters" : {
                      "volume" : 1.26822157434404
                    },
                    "effects" : [

                    ],
                    "start" : 259,
                    "duration" : 48,
                    "mediaStart" : 201,
                    "mediaDuration" : 48,
                    "scalar" : 1,
                    "metadata" : {
                      "clipSpeedAttribute" : false
                    },
                    "animationTracks" : {

                    }
                  },
                  {
                    "id" : 16,
                    "_type" : "AMFile",
                    "src" : 11,
                    "trackNumber" : 1,
                    "attributes" : {
                      "ident" : "Rec 07-12-20_004",
                      "gain" : 1.0,
                      "mixToMono" : false
                    },
                      "channelNumber" : "0,1",
                    "parameters" : {
                      "volume" : 1.26822157434404
                    },
                    "effects" : [

                    ],
                    "start" : 395,
                    "duration" : 94,
                    "mediaStart" : 342,
                    "mediaDuration" : 94,
                    "scalar" : 1,
                    "metadata" : {
                      "clipSpeedAttribute" : false
                    },
                    "animationTracks" : {

                    }
                  },
                  {
                    "id" : 17,
                    "_type" : "AMFile",
                    "src" : 11,
                    "trackNumber" : 1,
                    "attributes" : {
                      "ident" : "Rec 07-12-20_004",
                      "gain" : 1.0,
                      "mixToMono" : false
                    },
                      "channelNumber" : "0,1",
                    "parameters" : {
                      "volume" : 1.26822157434404
                    },
                    "effects" : [

                    ],
                    "start" : 584,
                    "duration" : 65,
                    "mediaStart" : 551,
                    "mediaDuration" : 65,
                    "scalar" : 1,
                    "metadata" : {
                      "clipSpeedAttribute" : false
                    },
                    "animationTracks" : {

                    }
                  },
                  {
                    "id" : 18,
                    "_type" : "AMFile",
                    "src" : 12,
                    "trackNumber" : 1,
                    "attributes" : {
                      "ident" : "Rec 07-23-20",
                      "gain" : 1.0,
                      "mixToMono" : false
                    },
                      "channelNumber" : "0,1",
                    "parameters" : {
                      "volume" : 1.6180758017493
                    },
                    "effects" : [

                    ],
                    "start" : 735,
                    "duration" : 78,
                    "mediaStart" : 190,
                    "mediaDuration" : 78,
                    "scalar" : 1,
                    "metadata" : {
                      "clipSpeedAttribute" : false
                    },
                    "animationTracks" : {

                    }
                  },
                  {
                    "id" : 19,
                    "_type" : "AMFile",
                    "src" : 11,
                    "trackNumber" : 1,
                    "attributes" : {
                      "ident" : "Rec 07-12-20_004",
                      "gain" : 1.0,
                      "mixToMono" : false
                    },
                      "channelNumber" : "0,1",
                    "parameters" : {
                      "volume" : 1.26822157434404
                    },
                    "effects" : [

                    ],
                    "start" : 855,
                    "duration" : 58,
                    "mediaStart" : 1019,
                    "mediaDuration" : 58,
                    "scalar" : 1,
                    "metadata" : {
                      "clipSpeedAttribute" : false
                    },
                    "animationTracks" : {

                    }
                  },
                  {
                    "id" : 20,
                    "_type" : "AMFile",
                    "src" : 11,
                    "trackNumber" : 1,
                    "attributes" : {
                      "ident" : "Rec 07-12-20_004",
                      "gain" : 1.0,
                      "mixToMono" : false
                    },
                      "channelNumber" : "0,1",
                    "parameters" : {
                      "volume" : 1.26822157434404
                    },
                    "effects" : [

                    ],
                    "start" : 961,
                    "duration" : 268,
                    "mediaStart" : 1116,
                    "mediaDuration" : 268,
                    "scalar" : 1,
                    "metadata" : {
                      "clipSpeedAttribute" : false
                    },
                    "animationTracks" : {

                    }
                  },
                  {
                    "id" : 21,
                    "_type" : "AMFile",
                    "src" : 11,
                    "trackNumber" : 1,
                    "attributes" : {
                      "ident" : "Rec 07-12-20_004",
                      "gain" : 1.0,
                      "mixToMono" : false
                    },
                      "channelNumber" : "0,1",
                    "parameters" : {
                      "volume" : 1.26822157434404
                    },
                    "effects" : [

                    ],
                    "start" : 1237,
                    "duration" : 73,
                    "mediaStart" : 1403,
                    "mediaDuration" : 73,
                    "scalar" : 1,
                    "metadata" : {
                      "clipSpeedAttribute" : false
                    },
                    "animationTracks" : {

                    }
                  },
                  {
                    "id" : 22,
                    "_type" : "AMFile",
                    "src" : 11,
                    "trackNumber" : 1,
                    "attributes" : {
                      "ident" : "Rec 07-12-20_004",
                      "gain" : 1.0,
                      "mixToMono" : false
                    },
                      "channelNumber" : "0,1",
                    "parameters" : {
                      "volume" : 1.26822157434404
                    },
                    "effects" : [

                    ],
                    "start" : 1323,
                    "duration" : 92,
                    "mediaStart" : 1573,
                    "mediaDuration" : 92,
                    "scalar" : 1,
                    "metadata" : {
                      "clipSpeedAttribute" : false
                    },
                    "animationTracks" : {

                    }
                  },
                  {
                    "id" : 23,
                    "_type" : "AMFile",
                    "src" : 11,
                    "trackNumber" : 1,
                    "attributes" : {
                      "ident" : "Rec 07-12-20_004",
                      "gain" : 1.0,
                      "mixToMono" : false
                    },
                      "channelNumber" : "0,1",
                    "parameters" : {
                      "volume" : 1.26822157434404
                    },
                    "effects" : [

                    ],
                    "start" : 1459,
                    "duration" : 624,
                    "mediaStart" : 1758,
                    "mediaDuration" : 624,
                    "scalar" : 1,
                    "metadata" : {
                      "clipSpeedAttribute" : false
                    },
                    "animationTracks" : {

                    }
                  },
                  {
                    "id" : 24,
                    "_type" : "AMFile",
                    "src" : 11,
                    "trackNumber" : 1,
                    "attributes" : {
                      "ident" : "Rec 07-12-20_004",
                      "gain" : 1.0,
                      "mixToMono" : false
                    },
                      "channelNumber" : "0,1",
                    "parameters" : {
                      "volume" : 1.26822157434404
                    },
                    "effects" : [

                    ],
                    "start" : 2086,
                    "duration" : 96,
                    "mediaStart" : 2653,
                    "mediaDuration" : 96,
                    "scalar" : 1,
                    "metadata" : {
                      "clipSpeedAttribute" : false
                    },
                    "animationTracks" : {

                    }
                  },
                  {
                    "id" : 25,
                    "_type" : "AMFile",
                    "src" : 11,
                    "trackNumber" : 1,
                    "attributes" : {
                      "ident" : "Rec 07-12-20_004",
                      "gain" : 1.0,
                      "mixToMono" : false
                    },
                      "channelNumber" : "0,1",
                    "parameters" : {
                      "volume" : 1.26822157434404
                    },
                    "effects" : [

                    ],
                    "start" : 2195,
                    "duration" : 205,
                    "mediaStart" : 2833,
                    "mediaDuration" : 205,
                    "scalar" : 1,
                    "metadata" : {
                      "clipSpeedAttribute" : false
                    },
                    "animationTracks" : {

                    }
                  },
                  {
                    "id" : 26,
                    "_type" : "AMFile",
                    "src" : 11,
                    "trackNumber" : 1,
                    "attributes" : {
                      "ident" : "Rec 07-12-20_004",
                      "gain" : 1.0,
                      "mixToMono" : false
                    },
                      "channelNumber" : "0,1",
                    "parameters" : {
                      "volume" : 1.26822157434404
                    },
                    "effects" : [

                    ],
                    "start" : 2436,
                    "duration" : 57,
                    "mediaStart" : 3038,
                    "mediaDuration" : 57,
                    "scalar" : 1,
                    "metadata" : {
                      "clipSpeedAttribute" : false
                    },
                    "animationTracks" : {

                    }
                  },
                  {
                    "id" : 27,
                    "_type" : "AMFile",
                    "src" : 11,
                    "trackNumber" : 1,
                    "attributes" : {
                      "ident" : "Rec 07-12-20_004",
                      "gain" : 1.0,
                      "mixToMono" : false
                    },
                      "channelNumber" : "0,1",
                    "parameters" : {
                      "volume" : 1.26822157434404
                    },
                    "effects" : [

                    ],
                    "start" : 2594,
                    "duration" : 167,
                    "mediaStart" : 3127,
                    "mediaDuration" : 167,
                    "scalar" : 1,
                    "metadata" : {
                      "clipSpeedAttribute" : false
                    },
                    "animationTracks" : {

                    }
                  },
                  {
                    "id" : 28,
                    "_type" : "AMFile",
                    "src" : 11,
                    "trackNumber" : 1,
                    "attributes" : {
                      "ident" : "Rec 07-12-20_004",
                      "gain" : 1.0,
                      "mixToMono" : false
                    },
                      "channelNumber" : "0,1",
                    "parameters" : {
                      "volume" : 1.26822157434404
                    },
                    "effects" : [

                    ],
                    "start" : 2813,
                    "duration" : 119,
                    "mediaStart" : 3407,
                    "mediaDuration" : 119,
                    "scalar" : 1,
                    "metadata" : {
                      "clipSpeedAttribute" : false
                    },
                    "animationTracks" : {

                    }
                  },
                  {
                    "id" : 29,
                    "_type" : "AMFile",
                    "src" : 11,
                    "trackNumber" : 1,
                    "attributes" : {
                      "ident" : "Rec 07-12-20_004",
                      "gain" : 1.0,
                      "mixToMono" : false
                    },
                      "channelNumber" : "0,1",
                    "parameters" : {
                      "volume" : 1.26822157434404
                    },
                    "effects" : [

                    ],
                    "start" : 3054,
                    "duration" : 96,
                    "mediaStart" : 3565,
                    "mediaDuration" : 96,
                    "scalar" : 1,
                    "metadata" : {
                      "clipSpeedAttribute" : false
                    },
                    "animationTracks" : {

                    }
                  },
                  {
                    "id" : 30,
                    "_type" : "AMFile",
                    "src" : 6,
                    "trackNumber" : 1,
                    "attributes" : {
                      "ident" : "Rec 07-06-20_001",
                      "gain" : 1.0,
                      "mixToMono" : false
                    },
                      "channelNumber" : "0,1",
                    "parameters" : {
                      "volume" : 2.3177842565598
                    },
                    "effects" : [

                    ],
                    "start" : 3198,
                    "duration" : 74,
                    "mediaStart" : 4581,
                    "mediaDuration" : 74,
                    "scalar" : 1,
                    "metadata" : {
                      "clipSpeedAttribute" : false
                    },
                    "animationTracks" : {

                    }
                  },
                  {
                    "id" : 31,
                    "_type" : "AMFile",
                    "src" : 11,
                    "trackNumber" : 1,
                    "attributes" : {
                      "ident" : "Rec 07-12-20_004",
                      "gain" : 1.0,
                      "mixToMono" : false
                    },
                      "channelNumber" : "0,1",
                    "parameters" : {
                      "volume" : 1.26822157434404
                    },
                    "effects" : [

                    ],
                    "start" : 3467,
                    "duration" : 110,
                    "mediaStart" : 3954,
                    "mediaDuration" : 110,
                    "scalar" : 1,
                    "metadata" : {
                      "clipSpeedAttribute" : false
                    },
                    "animationTracks" : {

                    }
                  },
                  {
                    "id" : 32,
                    "_type" : "AMFile",
                    "src" : 11,
                    "trackNumber" : 1,
                    "attributes" : {
                      "ident" : "Rec 07-12-20_004",
                      "gain" : 1.0,
                      "mixToMono" : false
                    },
                      "channelNumber" : "0,1",
                    "parameters" : {
                      "volume" : 1.26822157434404
                    },
                    "effects" : [

                    ],
                    "start" : 3595,
                    "duration" : 122,
                    "mediaStart" : 4299,
                    "mediaDuration" : 122,
                    "scalar" : 1,
                    "metadata" : {
                      "clipSpeedAttribute" : false
                    },
                    "animationTracks" : {

                    }
                  }
                ]
              },
              {
                "trackIndex" : 1,
                "medias" : [
                  {
                    "id" : 33,
                    "_type" : "AMFile",
                    "src" : 6,
                    "trackNumber" : 1,
                    "attributes" : {
                      "ident" : "Rec 07-06-20_001",
                      "gain" : 1.0,
                      "mixToMono" : false
                    },
                      "channelNumber" : "0,1",
                    "parameters" : {
                      "volume" : 2.3177842565598
                    },
                    "effects" : [

                    ],
                    "start" : 155,
                    "duration" : 970,
                    "mediaStart" : 325,
                    "mediaDuration" : 970,
                    "scalar" : 1,
                    "metadata" : {
                      "clipSpeedAttribute" : false
                    },
                    "animationTracks" : {

                    }
                  },
                  {
                    "id" : 34,
                    "_type" : "AMFile",
                    "src" : 6,
                    "trackNumber" : 1,
                    "attributes" : {
                      "ident" : "Rec 07-06-20_001",
                      "gain" : 1.0,
                      "mixToMono" : false
                    },
                      "channelNumber" : "0,1",
                    "parameters" : {
                      "volume" : 2.3177842565598
                    },
                    "effects" : [

                    ],
                    "start" : 1144,
                    "duration" : 153,
                    "mediaStart" : 1434,
                    "mediaDuration" : 153,
                    "scalar" : 1,
                    "metadata" : {
                      "clipSpeedAttribute" : false
                    },
                    "animationTracks" : {

                    }
                  },
                  {
                    "id" : 35,
                    "_type" : "AMFile",
                    "src" : 6,
                    "trackNumber" : 1,
                    "attributes" : {
                      "ident" : "Rec 07-06-20_001",
                      "gain" : 1.0,
                      "mixToMono" : false
                    },
                      "channelNumber" : "0,1",
                    "parameters" : {
                      "volume" : 2.3177842565598
                    },
                    "effects" : [

                    ],
                    "start" : 1319,
                    "duration" : 106,
                    "mediaStart" : 1647,
                    "mediaDuration" : 106,
                    "scalar" : 1,
                    "metadata" : {
                      "clipSpeedAttribute" : false
                    },
                    "animationTracks" : {

                    }
                  },
                  {
                    "id" : 36,
                    "_type" : "AMFile",
                    "src" : 6,
                    "trackNumber" : 1,
                    "attributes" : {
                      "ident" : "Rec 07-06-20_001",
                      "gain" : 1.0,
                      "mixToMono" : false
                    },
                      "channelNumber" : "0,1",
                    "parameters" : {
                      "volume" : 2.3177842565598
                    },
                    "effects" : [

                    ],
                    "start" : 1459,
                    "duration" : 345,
                    "mediaStart" : 1910,
                    "mediaDuration" : 345,
                    "scalar" : 1,
                    "metadata" : {
                      "clipSpeedAttribute" : false
                    },
                    "animationTracks" : {

                    }
                  },
                  {
                    "id" : 37,
                    "_type" : "AMFile",
                    "src" : 6,
                    "trackNumber" : 1,
                    "attributes" : {
                      "ident" : "Rec 07-06-20_001",
                      "gain" : 1.0,
                      "mixToMono" : false
                    },
                      "channelNumber" : "0,1",
                    "parameters" : {
                      "volume" : 2.3177842565598
                    },
                    "effects" : [

                    ],
                    "start" : 1839,
                    "duration" : 282,
                    "mediaStart" : 2459,
                    "mediaDuration" : 282,
                    "scalar" : 1,
                    "metadata" : {
                      "clipSpeedAttribute" : false
                    },
                    "animationTracks" : {

                    }
                  },
                  {
                    "id" : 38,
                    "_type" : "AMFile",
                    "src" : 6,
                    "trackNumber" : 1,
                    "attributes" : {
                      "ident" : "Rec 07-06-20_001",
                      "gain" : 1.0,
                      "mixToMono" : false
                    },
                      "channelNumber" : "0,1",
                    "parameters" : {
                      "volume" : 2.3177842565598
                    },
                    "effects" : [

                    ],
                    "start" : 2121,
                    "duration" : 103,
                    "mediaStart" : 2763,
                    "mediaDuration" : 103,
                    "scalar" : 1,
                    "metadata" : {
                      "clipSpeedAttribute" : false
                    },
                    "animationTracks" : {

                    }
                  },
                  {
                    "id" : 39,
                    "_type" : "AMFile",
                    "src" : 6,
                    "trackNumber" : 1,
                    "attributes" : {
                      "ident" : "Rec 07-06-20_001",
                      "gain" : 1.0,
                      "mixToMono" : false
                    },
                      "channelNumber" : "0,1",
                    "parameters" : {
                      "volume" : 2.3177842565598
                    },
                    "effects" : [

                    ],
                    "start" : 2224,
                    "duration" : 212,
                    "mediaStart" : 3179,
                    "mediaDuration" : 212,
                    "scalar" : 1,
                    "metadata" : {
                      "clipSpeedAttribute" : false
                    },
                    "animationTracks" : {

                    }
                  },
                  {
                    "id" : 40,
                    "_type" : "AMFile",
                    "src" : 6,
                    "trackNumber" : 1,
                    "attributes" : {
                      "ident" : "Rec 07-06-20_001",
                      "gain" : 1.0,
                      "mixToMono" : false
                    },
                      "channelNumber" : "0,1",
                    "parameters" : {
                      "volume" : 2.3177842565598
                    },
                    "effects" : [

                    ],
                    "start" : 2436,
                    "duration" : 73,
                    "mediaStart" : 3623,
                    "mediaDuration" : 73,
                    "scalar" : 1,
                    "metadata" : {
                      "clipSpeedAttribute" : false
                    },
                    "animationTracks" : {

                    }
                  },
                  {
                    "id" : 41,
                    "_type" : "AMFile",
                    "src" : 6,
                    "trackNumber" : 1,
                    "attributes" : {
                      "ident" : "Rec 07-06-20_001",
                      "gain" : 1.0,
                      "mixToMono" : false
                    },
                      "channelNumber" : "0,1",
                    "parameters" : {
                      "volume" : 2.3177842565598
                    },
                    "effects" : [

                    ],
                    "start" : 2593,
                    "duration" : 67,
                    "mediaStart" : 3736,
                    "mediaDuration" : 67,
                    "scalar" : 1,
                    "metadata" : {
                      "clipSpeedAttribute" : false
                    },
                    "animationTracks" : {

                    }
                  },
                  {
                    "id" : 42,
                    "_type" : "AMFile",
                    "src" : 6,
                    "trackNumber" : 1,
                    "attributes" : {
                      "ident" : "Rec 07-06-20_001",
                      "gain" : 1.0,
                      "mixToMono" : false
                    },
                      "channelNumber" : "0,1",
                    "parameters" : {
                      "volume" : 2.3177842565598
                    },
                    "effects" : [

                    ],
                    "start" : 2665,
                    "duration" : 268,
                    "mediaStart" : 3940,
                    "mediaDuration" : 268,
                    "scalar" : 1,
                    "metadata" : {
                      "clipSpeedAttribute" : false
                    },
                    "animationTracks" : {

                    }
                  },
                  {
                    "id" : 43,
                    "_type" : "AMFile",
                    "src" : 6,
                    "trackNumber" : 1,
                    "attributes" : {
                      "ident" : "Rec 07-06-20_001",
                      "gain" : 1.0,
                      "mixToMono" : false
                    },
                      "channelNumber" : "0,1",
                    "parameters" : {
                      "volume" : 2.3177842565598
                    },
                    "effects" : [

                    ],
                    "start" : 3054,
                    "duration" : 81,
                    "mediaStart" : 4424,
                    "mediaDuration" : 81,
                    "scalar" : 1,
                    "metadata" : {
                      "clipSpeedAttribute" : false
                    },
                    "animationTracks" : {

                    }
                  },
                  {
                    "id" : 44,
                    "_type" : "AMFile",
                    "src" : 6,
                    "trackNumber" : 1,
                    "attributes" : {
                      "ident" : "Rec 07-06-20_001",
                      "gain" : 1.0,
                      "mixToMono" : false
                    },
                      "channelNumber" : "0,1",
                    "parameters" : {
                      "volume" : 2.3177842565598
                    },
                    "effects" : [

                    ],
                    "start" : 3467,
                    "duration" : 243,
                    "mediaStart" : 4890,
                    "mediaDuration" : 243,
                    "scalar" : 1,
                    "metadata" : {
                      "clipSpeedAttribute" : false
                    },
                    "animationTracks" : {

                    }
                  }
                ]
              },
              {
                "trackIndex" : 2,
                "medias" : [
                  {
                    "id" : 45,
                    "_type" : "Callout",
                    "def" : {
                      "kind" : "remix",
                      "shape" : "text",
                      "style" : "basic",
                      "height" : 330.58928571408,
                      "line-spacing" : 0.0,
                      "width" : 2559.9999999999,
                      "word-wrap" : 1.0,
                      "horizontal-alignment" : "center",
                      "resize-behavior" : "resizeText",
                      "text" : "HIJACKING NTFS STRUCTURES",
                      "vertical-alignment" : "center",
                      "font" : {
                        "color-blue" : 1.0,
                        "color-green" : 1.0,
                        "color-red" : 1.0,
                        "size" : 96.0,
                        "tracking" : 0.0,
                        "name" : "Montserrat",
                        "weight" : "Regular"
                      },
                      "textAttributes" : {
                        "type" : "textAttributeList",
                        "keyframes" : [
                          {
                            "endTime" : 0,
                            "time" : 0,
                            "value" : [{"name":"strikethrough","rangeEnd":25,"rangeStart":0,"value":0,"valueType":"int"},{"name":"fgColor","rangeEnd":25,"rangeStart":0,"value":"(255,255,255,255)","valueType":"color"},{"name":"fontWeight","rangeEnd":25,"rangeStart":0,"value":400,"valueType":"int"},{"name":"fontItalic","rangeEnd":25,"rangeStart":0,"value":0,"valueType":"int"},{"name":"underline","rangeEnd":25,"rangeStart":0,"value":0,"valueType":"int"},{"name":"fontSize","rangeEnd":25,"rangeStart":0,"value":170,"valueType":"double"},{"name":"fontName","rangeEnd":25,"rangeStart":0,"value":"Rockwell","valueType":"string"},{"name":"kerning","rangeEnd":25,"rangeStart":0,"value":0,"valueType":"double"}],
                            "duration" : 0
                          }
                        ]
                      }
                    },
                    "attributes" : {
                      "autoRotateText" : true
                    },
                    "parameters" : {
                      "translation0" : -1.4388490399142e-11,
                      "translation1" : 30.2053571428019
                    },
                    "effects" : [
                        {
                          "effectName" : "DropShadow",
                          "category" : "categoryVisualEffects",
                          "parameters" : {
                            "angle" : 5.49778714378214,
                            "blur" : 10.0,
                            "color-alpha" : 1.0,
                            "color-blue" : 0.1216,
                            "color-green" : 0.1216,
                            "color-red" : 0.1216,
                            "enabled" : 1,
                            "offset" : 10.0,
                            "opacity" : 0.4
                          }
                        }
                    ],
                    "start" : 0,
                    "duration" : 150,
                    "mediaStart" : 0,
                    "mediaDuration" : 150,
                    "scalar" : 1,
                    "metadata" : {
                      "WinSubProjectDisplayName" : "",
                      "clipSpeedAttribute" : false,
                      "default-HAlign" : "center",
                      "default-LineSpace" : 0.0,
                      "default-VAlign" : "center",
                      "default-text-attributes" : "[{\"name\":\"underline\",\"rangeEnd\":16,\"rangeStart\":0,\"value\":0,\"valueType\":\"int\"},{\"name\":\"strikethrough\",\"rangeEnd\":16,\"rangeStart\":0,\"value\":0,\"valueType\":\"int\"},{\"name\":\"fontWeight\",\"rangeEnd\":16,\"rangeStart\":0,\"value\":400,\"valueType\":\"int\"},{\"name\":\"fontSize\",\"rangeEnd\":16,\"rangeStart\":0,\"value\":96,\"valueType\":\"double\"},{\"name\":\"fontName\",\"rangeEnd\":16,\"rangeStart\":0,\"value\":\"Montserrat\",\"valueType\":\"string\"},{\"name\":\"fgColor\",\"rangeEnd\":16,\"rangeStart\":0,\"value\":\"(255,255,255,255)\",\"valueType\":\"color\"},{\"name\":\"fontItalic\",\"rangeEnd\":16,\"rangeStart\":0,\"value\":0,\"valueType\":\"int\"}]",
                      "default-translation0" : 0.0,
                      "default-translation1" : 0.0
                    },
                    "animationTracks" : {

                    }
                  },
                  {
                    "id" : 46,
                    "_type" : "ScreenVMFile",
                    "src" : 2,
                    "trackNumber" : 0,
                    "attributes" : {
                      "ident" : "hijacking_ntfs_structs_attack"
                    },
                    "parameters" : {
                      "cursorScale" : {
                        "type" : "double",
                        "defaultValue" : 1.0,
                        "interp" : "linr"
                      },
                      "cursorOpacity" : {
                        "type" : "double",
                        "defaultValue" : 1.0,
                        "interp" : "linr"
                      }
                    },
                    "effects" : [
                        {
                          "effectName" : "CursorHilight",
                          "category" : "categoryCursorEffects",
                          "parameters" : {
                            "blur" : 0.1,
                            "color-alpha" : 0.75,
                            "color-blue" : 0.0,
                            "color-green" : 1.0,
                            "color-red" : 1.0,
                            "radius" : 50.0
                          }
                        }
                    ],
                    "start" : 150,
                    "duration" : 50,
                    "mediaStart" : 31,
                    "mediaDuration" : 50,
                    "scalar" : 1,
                    "metadata" : {
                      "AutoAppliedSmartFocus" : "False",
                      "clipSpeedAttribute" : false
                    },
                    "animationTracks" : {

                    }
                  },
                  {
                    "id" : 47,
                    "_type" : "ScreenVMFile",
                    "src" : 2,
                    "trackNumber" : 0,
                    "attributes" : {
                      "ident" : "hijacking_ntfs_structs_attack"
                    },
                    "parameters" : {
                      "cursorScale" : {
                        "type" : "double",
                        "defaultValue" : 1.0,
                        "interp" : "linr"
                      },
                      "cursorOpacity" : {
                        "type" : "double",
                        "defaultValue" : 1.0,
                        "interp" : "linr"
                      }
                    },
                    "effects" : [
                        {
                          "effectName" : "CursorHilight",
                          "category" : "categoryCursorEffects",
                          "parameters" : {
                            "blur" : 0.1,
                            "color-alpha" : 0.75,
                            "color-blue" : 0.0,
                            "color-green" : 1.0,
                            "color-red" : 1.0,
                            "radius" : 50.0
                          }
                        }
                    ],
                    "start" : 200,
                    "duration" : 35,
                    "mediaStart" : 81,
                    "mediaDuration" : 56,
                    "scalar" : "5/8",
                    "metadata" : {
                      "AutoAppliedSmartFocus" : "False",
                      "clipSpeedAttribute" : true
                    },
                    "animationTracks" : {

                    }
                  },
                  {
                    "id" : 48,
                    "_type" : "StitchedMedia",
                    "minMediaStart" : 0,
                    "attributes" : {
                      "ident" : "hijacking_ntfs_structs_attack",
                      "gain" : 1.0,
                      "mixToMono" : false
                    },
                    "parameters" : {
                      "translation0" : {
                        "type" : "double",
                        "defaultValue" : 0.0,
                        "keyframes" : [
                          {
                            "endTime" : 184,
                            "time" : 142,
                            "value" : 4331.31223731553,
                            "duration" : 42
                          },
                          {
                            "endTime" : 287,
                            "time" : 257,
                            "value" : 5.6843418860808e-13,
                            "duration" : 30
                          }
                        ]
                      },
                      "translation1" : {
                        "type" : "double",
                        "defaultValue" : 0.0,
                        "keyframes" : [
                          {
                            "endTime" : 184,
                            "time" : 142,
                            "value" : -2019.69283971535,
                            "duration" : 42
                          },
                          {
                            "endTime" : 287,
                            "time" : 257,
                            "value" : -2.8421709430404e-13,
                            "duration" : 30
                          }
                        ]
                      },
                      "scale0" : {
                        "type" : "double",
                        "defaultValue" : 1.0,
                        "keyframes" : [
                          {
                            "endTime" : 184,
                            "time" : 142,
                            "value" : 4.54918320506327,
                            "duration" : 42
                          },
                          {
                            "endTime" : 287,
                            "time" : 257,
                            "value" : 0.999999977775835,
                            "duration" : 30
                          }
                        ]
                      },
                      "scale1" : {
                        "type" : "double",
                        "defaultValue" : 1.0,
                        "keyframes" : [
                          {
                            "endTime" : 184,
                            "time" : 142,
                            "value" : 4.54918308493868,
                            "duration" : 42
                          },
                          {
                            "endTime" : 287,
                            "time" : 257,
                            "value" : 1.0,
                            "duration" : 30
                          }
                        ]
                      },
                      "cursorOpacity" : 1.0,
                      "cursorScale" : 1.0
                    },
                    "medias" : [
                        {
                          "id" : 49,
                          "_type" : "ScreenVMFile",
                          "src" : 2,
                          "trackNumber" : 0,
                          "attributes" : {
                            "ident" : "hijacking_ntfs_structs_attack"
                          },
                          "parameters" : {
                            "cursorScale" : {
                              "type" : "double",
                              "defaultValue" : 0.0,
                              "interp" : "linr"
                            },
                            "cursorOpacity" : {
                              "type" : "double",
                              "defaultValue" : 0.0,
                              "interp" : "linr"
                            }
                          },
                          "effects" : [

                          ],
                          "start" : 0,
                          "duration" : 212,
                          "mediaStart" : 0,
                          "mediaDuration" : 212,
                          "scalar" : 1,
                          "metadata" : {
                            "AutoAppliedSmartFocus" : "False",
                            "clipSpeedAttribute" : false,
                            "default-scale0" : 1.0,
                            "default-scale1" : 1.0,
                            "default-translation0" : 0.0,
                            "default-translation1" : 0.0
                          },
                          "animationTracks" : {

                          }
                        },
                        {
                          "id" : 50,
                          "_type" : "ScreenIMFile",
                          "src" : 2,
                          "trackNumber" : 0,
                          "trimStartSum" : 0,
                          "attributes" : {
                            "ident" : "hijacking_ntfs_structs_attack"
                          },
                          "parameters" : {
                            "cursorOpacity" : 0.0,
                            "cursorScale" : 0.0
                          },
                          "effects" : [

                          ],
                          "start" : 212,
                          "duration" : 45,
                          "mediaStart" : 211,
                          "mediaDuration" : 1,
                          "scalar" : 1,
                          "metadata" : {
                            "AutoAppliedSmartFocus" : "False"
                          },
                          "animationTracks" : {

                          }
                        },
                        {
                          "id" : 51,
                          "_type" : "ScreenVMFile",
                          "src" : 2,
                          "trackNumber" : 0,
                          "attributes" : {
                            "ident" : "hijacking_ntfs_structs_attack"
                          },
                          "parameters" : {
                            "cursorScale" : {
                              "type" : "double",
                              "defaultValue" : 0.0,
                              "interp" : "linr"
                            },
                            "cursorOpacity" : {
                              "type" : "double",
                              "defaultValue" : 0.0,
                              "interp" : "linr"
                            }
                          },
                          "effects" : [

                          ],
                          "start" : 257,
                          "duration" : 1283298,
                          "mediaStart" : 212,
                          "mediaDuration" : 1283298,
                          "scalar" : 1,
                          "metadata" : {
                            "AutoAppliedSmartFocus" : "False",
                            "clipSpeedAttribute" : false,
                            "default-scale0" : 1.0,
                            "default-scale1" : 1.0,
                            "default-translation0" : 0.0,
                            "default-translation1" : 0.0
                          },
                          "animationTracks" : {

                          }
                        }
                    ],
                    "effects" : [
                        {
                          "effectName" : "CursorHilight",
                          "category" : "categoryCursorEffects",
                          "parameters" : {
                            "blur" : 0.1,
                            "color-alpha" : 0.75,
                            "color-blue" : 0.0,
                            "color-green" : 1.0,
                            "color-red" : 1.0,
                            "radius" : 50.0
                          }
                        }
                    ],
                    "start" : 235,
                    "duration" : 250,
                    "mediaStart" : 137,
                    "mediaDuration" : 250,
                    "scalar" : 1,
                    "metadata" : {
                      "AutoAppliedSmartFocus" : "False",
                      "clipSpeedAttribute" : false,
                      "default-scale0" : 2.97908896792882,
                      "default-scale1" : 2.97908903413659,
                      "default-translation0" : 2394.63734621524,
                      "default-translation1" : -1346.98364875011
                    },
                    "animationTracks" : {
                      "visual" : [
                        {
                          "endTime" : 184,
                          "duration" : 42,
                          "range" : [ 142, 42]
                        },
                        {
                          "endTime" : 287,
                          "duration" : 30,
                          "range" : [ 257, 30]
                        }
                      ]
                    }
                  },
                  {
                    "id" : 52,
                    "_type" : "StitchedMedia",
                    "minMediaStart" : 0,
                    "attributes" : {
                      "ident" : "hijacking_ntfs_structs_attack",
                      "gain" : 1.0,
                      "mixToMono" : false
                    },
                    "parameters" : {
                      "translation0" : {
                        "type" : "double",
                        "defaultValue" : 0.0,
                        "keyframes" : [
                          {
                            "endTime" : 172,
                            "time" : 142,
                            "value" : 4331.31223731553,
                            "duration" : 30
                          },
                          {
                            "endTime" : 287,
                            "time" : 257,
                            "value" : 5.6843418860808e-13,
                            "duration" : 30
                          },
                          {
                            "endTime" : 864,
                            "time" : 834,
                            "value" : 1642.08129557305,
                            "duration" : 30
                          }
                        ]
                      },
                      "translation1" : {
                        "type" : "double",
                        "defaultValue" : 0.0,
                        "keyframes" : [
                          {
                            "endTime" : 172,
                            "time" : 142,
                            "value" : -2019.69283971535,
                            "duration" : 30
                          },
                          {
                            "endTime" : 287,
                            "time" : 257,
                            "value" : -2.8421709430404e-13,
                            "duration" : 30
                          },
                          {
                            "endTime" : 864,
                            "time" : 834,
                            "value" : -847.258560431146,
                            "duration" : 30
                          }
                        ]
                      },
                      "scale0" : {
                        "type" : "double",
                        "defaultValue" : 1.0,
                        "keyframes" : [
                          {
                            "endTime" : 172,
                            "time" : 142,
                            "value" : 4.54918320506327,
                            "duration" : 30
                          },
                          {
                            "endTime" : 287,
                            "time" : 257,
                            "value" : 0.999999977775835,
                            "duration" : 30
                          },
                          {
                            "endTime" : 864,
                            "time" : 834,
                            "value" : 2.33593993169021,
                            "duration" : 30
                          }
                        ]
                      },
                      "scale1" : {
                        "type" : "double",
                        "defaultValue" : 1.0,
                        "keyframes" : [
                          {
                            "endTime" : 172,
                            "time" : 142,
                            "value" : 4.54918308493868,
                            "duration" : 30
                          },
                          {
                            "endTime" : 287,
                            "time" : 257,
                            "value" : 1.0,
                            "duration" : 30
                          },
                          {
                            "endTime" : 864,
                            "time" : 834,
                            "value" : 2.33593997834513,
                            "duration" : 30
                          }
                        ]
                      },
                      "cursorOpacity" : 1.0,
                      "cursorScale" : 1.0
                    },
                    "medias" : [
                        {
                          "id" : 53,
                          "_type" : "ScreenVMFile",
                          "src" : 2,
                          "trackNumber" : 0,
                          "attributes" : {
                            "ident" : "hijacking_ntfs_structs_attack"
                          },
                          "parameters" : {
                            "cursorScale" : {
                              "type" : "double",
                              "defaultValue" : 0.0,
                              "interp" : "linr"
                            },
                            "cursorOpacity" : {
                              "type" : "double",
                              "defaultValue" : 0.0,
                              "interp" : "linr"
                            }
                          },
                          "effects" : [

                          ],
                          "start" : 0,
                          "duration" : 212,
                          "mediaStart" : 0,
                          "mediaDuration" : 212,
                          "scalar" : 1,
                          "metadata" : {
                            "AutoAppliedSmartFocus" : "False",
                            "clipSpeedAttribute" : false,
                            "default-scale0" : 1.0,
                            "default-scale1" : 1.0,
                            "default-translation0" : 0.0,
                            "default-translation1" : 0.0
                          },
                          "animationTracks" : {

                          }
                        },
                        {
                          "id" : 54,
                          "_type" : "ScreenIMFile",
                          "src" : 2,
                          "trackNumber" : 0,
                          "trimStartSum" : 0,
                          "attributes" : {
                            "ident" : "hijacking_ntfs_structs_attack"
                          },
                          "parameters" : {
                            "cursorOpacity" : 0.0,
                            "cursorScale" : 0.0
                          },
                          "effects" : [

                          ],
                          "start" : 212,
                          "duration" : 45,
                          "mediaStart" : 211,
                          "mediaDuration" : 1,
                          "scalar" : 1,
                          "metadata" : {
                            "AutoAppliedSmartFocus" : "False"
                          },
                          "animationTracks" : {

                          }
                        },
                        {
                          "id" : 55,
                          "_type" : "ScreenVMFile",
                          "src" : 2,
                          "trackNumber" : 0,
                          "attributes" : {
                            "ident" : "hijacking_ntfs_structs_attack"
                          },
                          "parameters" : {
                            "cursorScale" : {
                              "type" : "double",
                              "defaultValue" : 0.0,
                              "interp" : "linr"
                            },
                            "cursorOpacity" : {
                              "type" : "double",
                              "defaultValue" : 0.0,
                              "interp" : "linr"
                            }
                          },
                          "effects" : [

                          ],
                          "start" : 257,
                          "duration" : 1283298,
                          "mediaStart" : 212,
                          "mediaDuration" : 1283298,
                          "scalar" : 1,
                          "metadata" : {
                            "AutoAppliedSmartFocus" : "False",
                            "clipSpeedAttribute" : false,
                            "default-scale0" : 1.0,
                            "default-scale1" : 1.0,
                            "default-translation0" : 0.0,
                            "default-translation1" : 0.0
                          },
                          "animationTracks" : {

                          }
                        }
                    ],
                    "effects" : [
                        {
                          "effectName" : "CursorHilight",
                          "category" : "categoryCursorEffects",
                          "parameters" : {
                            "blur" : 0.1,
                            "color-alpha" : 0.75,
                            "color-blue" : 0.0,
                            "color-green" : 1.0,
                            "color-red" : 1.0,
                            "radius" : 50.0
                          }
                        }
                    ],
                    "start" : 485,
                    "duration" : 48,
                    "mediaStart" : 658,
                    "mediaDuration" : 48,
                    "scalar" : 1,
                    "metadata" : {
                      "AutoAppliedSmartFocus" : "False",
                      "clipSpeedAttribute" : false,
                      "default-scale0" : 2.97908896792882,
                      "default-scale1" : 2.97908903413659,
                      "default-translation0" : 2394.63734621524,
                      "default-translation1" : -1346.98364875011
                    },
                    "animationTracks" : {
                      "visual" : [
                        {
                          "endTime" : 172,
                          "duration" : 30,
                          "range" : [ 142, 30]
                        },
                        {
                          "endTime" : 287,
                          "duration" : 30,
                          "range" : [ 257, 30]
                        },
                        {
                          "endTime" : 864,
                          "duration" : 30,
                          "range" : [ 834, 30]
                        }
                      ]
                    }
                  },
                  {
                    "id" : 56,
                    "_type" : "StitchedMedia",
                    "minMediaStart" : 0,
                    "attributes" : {
                      "ident" : "hijacking_ntfs_structs_attack",
                      "gain" : 1.0,
                      "mixToMono" : false
                    },
                    "parameters" : {
                      "translation0" : {
                        "type" : "double",
                        "defaultValue" : 0.0,
                        "keyframes" : [
                          {
                            "endTime" : 172,
                            "time" : 142,
                            "value" : 4331.31223731553,
                            "duration" : 30
                          },
                          {
                            "endTime" : 287,
                            "time" : 257,
                            "value" : 5.6843418860808e-13,
                            "duration" : 30
                          },
                          {
                            "endTime" : 864,
                            "time" : 834,
                            "value" : 1642.08129557305,
                            "duration" : 30
                          }
                        ]
                      },
                      "translation1" : {
                        "type" : "double",
                        "defaultValue" : 0.0,
                        "keyframes" : [
                          {
                            "endTime" : 172,
                            "time" : 142,
                            "value" : -2019.69283971535,
                            "duration" : 30
                          },
                          {
                            "endTime" : 287,
                            "time" : 257,
                            "value" : -2.8421709430404e-13,
                            "duration" : 30
                          },
                          {
                            "endTime" : 864,
                            "time" : 834,
                            "value" : -847.258560431146,
                            "duration" : 30
                          }
                        ]
                      },
                      "scale0" : {
                        "type" : "double",
                        "defaultValue" : 1.0,
                        "keyframes" : [
                          {
                            "endTime" : 172,
                            "time" : 142,
                            "value" : 4.54918320506327,
                            "duration" : 30
                          },
                          {
                            "endTime" : 287,
                            "time" : 257,
                            "value" : 0.999999977775835,
                            "duration" : 30
                          },
                          {
                            "endTime" : 864,
                            "time" : 834,
                            "value" : 2.33593993169021,
                            "duration" : 30
                          }
                        ]
                      },
                      "scale1" : {
                        "type" : "double",
                        "defaultValue" : 1.0,
                        "keyframes" : [
                          {
                            "endTime" : 172,
                            "time" : 142,
                            "value" : 4.54918308493868,
                            "duration" : 30
                          },
                          {
                            "endTime" : 287,
                            "time" : 257,
                            "value" : 1.0,
                            "duration" : 30
                          },
                          {
                            "endTime" : 864,
                            "time" : 834,
                            "value" : 2.33593997834513,
                            "duration" : 30
                          }
                        ]
                      },
                      "cursorOpacity" : 1.0,
                      "cursorScale" : 1.0
                    },
                    "medias" : [
                        {
                          "id" : 57,
                          "_type" : "ScreenVMFile",
                          "src" : 2,
                          "trackNumber" : 0,
                          "attributes" : {
                            "ident" : "hijacking_ntfs_structs_attack"
                          },
                          "parameters" : {
                            "cursorScale" : {
                              "type" : "double",
                              "defaultValue" : 0.0,
                              "interp" : "linr"
                            },
                            "cursorOpacity" : {
                              "type" : "double",
                              "defaultValue" : 0.0,
                              "interp" : "linr"
                            }
                          },
                          "effects" : [

                          ],
                          "start" : 0,
                          "duration" : 212,
                          "mediaStart" : 0,
                          "mediaDuration" : 212,
                          "scalar" : 1,
                          "metadata" : {
                            "AutoAppliedSmartFocus" : "False",
                            "clipSpeedAttribute" : false,
                            "default-scale0" : 1.0,
                            "default-scale1" : 1.0,
                            "default-translation0" : 0.0,
                            "default-translation1" : 0.0
                          },
                          "animationTracks" : {

                          }
                        },
                        {
                          "id" : 58,
                          "_type" : "ScreenIMFile",
                          "src" : 2,
                          "trackNumber" : 0,
                          "trimStartSum" : 0,
                          "attributes" : {
                            "ident" : "hijacking_ntfs_structs_attack"
                          },
                          "parameters" : {
                            "cursorOpacity" : 0.0,
                            "cursorScale" : 0.0
                          },
                          "effects" : [

                          ],
                          "start" : 212,
                          "duration" : 45,
                          "mediaStart" : 211,
                          "mediaDuration" : 1,
                          "scalar" : 1,
                          "metadata" : {
                            "AutoAppliedSmartFocus" : "False"
                          },
                          "animationTracks" : {

                          }
                        },
                        {
                          "id" : 59,
                          "_type" : "ScreenVMFile",
                          "src" : 2,
                          "trackNumber" : 0,
                          "attributes" : {
                            "ident" : "hijacking_ntfs_structs_attack"
                          },
                          "parameters" : {
                            "cursorScale" : {
                              "type" : "double",
                              "defaultValue" : 0.0,
                              "interp" : "linr"
                            },
                            "cursorOpacity" : {
                              "type" : "double",
                              "defaultValue" : 0.0,
                              "interp" : "linr"
                            }
                          },
                          "effects" : [

                          ],
                          "start" : 257,
                          "duration" : 1283298,
                          "mediaStart" : 212,
                          "mediaDuration" : 1283298,
                          "scalar" : 1,
                          "metadata" : {
                            "AutoAppliedSmartFocus" : "False",
                            "clipSpeedAttribute" : false,
                            "default-scale0" : 1.0,
                            "default-scale1" : 1.0,
                            "default-translation0" : 0.0,
                            "default-translation1" : 0.0
                          },
                          "animationTracks" : {

                          }
                        }
                    ],
                    "effects" : [
                        {
                          "effectName" : "CursorHilight",
                          "category" : "categoryCursorEffects",
                          "parameters" : {
                            "blur" : 0.1,
                            "color-alpha" : 0.75,
                            "color-blue" : 0.0,
                            "color-green" : 1.0,
                            "color-red" : 1.0,
                            "radius" : 50.0
                          }
                        }
                    ],
                    "start" : 533,
                    "duration" : 47,
                    "mediaStart" : 706,
                    "mediaDuration" : 124,
                    "scalar" : "47/124",
                    "metadata" : {
                      "AutoAppliedSmartFocus" : "False",
                      "clipSpeedAttribute" : true,
                      "default-scale0" : 2.97908896792882,
                      "default-scale1" : 2.97908903413659,
                      "default-translation0" : 2394.63734621524,
                      "default-translation1" : -1346.98364875011
                    },
                    "animationTracks" : {
                      "visual" : [
                        {
                          "endTime" : 172,
                          "duration" : 30,
                          "range" : [ 142, 30]
                        },
                        {
                          "endTime" : 287,
                          "duration" : 30,
                          "range" : [ 257, 30]
                        },
                        {
                          "endTime" : 864,
                          "duration" : 30,
                          "range" : [ 834, 30]
                        }
                      ]
                    }
                  },
                  {
                    "id" : 60,
                    "_type" : "StitchedMedia",
                    "minMediaStart" : 0,
                    "attributes" : {
                      "ident" : "hijacking_ntfs_structs_attack",
                      "gain" : 1.0,
                      "mixToMono" : false
                    },
                    "parameters" : {
                      "translation0" : {
                        "type" : "double",
                        "defaultValue" : 0.0,
                        "keyframes" : [
                          {
                            "endTime" : 172,
                            "time" : 142,
                            "value" : 4331.31223731553,
                            "duration" : 30
                          },
                          {
                            "endTime" : 287,
                            "time" : 257,
                            "value" : 5.6843418860808e-13,
                            "duration" : 30
                          },
                          {
                            "endTime" : 864,
                            "time" : 834,
                            "value" : 1642.08129557305,
                            "duration" : 30
                          }
                        ]
                      },
                      "translation1" : {
                        "type" : "double",
                        "defaultValue" : 0.0,
                        "keyframes" : [
                          {
                            "endTime" : 172,
                            "time" : 142,
                            "value" : -2019.69283971535,
                            "duration" : 30
                          },
                          {
                            "endTime" : 287,
                            "time" : 257,
                            "value" : -2.8421709430404e-13,
                            "duration" : 30
                          },
                          {
                            "endTime" : 864,
                            "time" : 834,
                            "value" : -847.258560431146,
                            "duration" : 30
                          }
                        ]
                      },
                      "scale0" : {
                        "type" : "double",
                        "defaultValue" : 1.0,
                        "keyframes" : [
                          {
                            "endTime" : 172,
                            "time" : 142,
                            "value" : 4.54918320506327,
                            "duration" : 30
                          },
                          {
                            "endTime" : 287,
                            "time" : 257,
                            "value" : 0.999999977775835,
                            "duration" : 30
                          },
                          {
                            "endTime" : 864,
                            "time" : 834,
                            "value" : 2.33593993169021,
                            "duration" : 30
                          }
                        ]
                      },
                      "scale1" : {
                        "type" : "double",
                        "defaultValue" : 1.0,
                        "keyframes" : [
                          {
                            "endTime" : 172,
                            "time" : 142,
                            "value" : 4.54918308493868,
                            "duration" : 30
                          },
                          {
                            "endTime" : 287,
                            "time" : 257,
                            "value" : 1.0,
                            "duration" : 30
                          },
                          {
                            "endTime" : 864,
                            "time" : 834,
                            "value" : 2.33593997834513,
                            "duration" : 30
                          }
                        ]
                      },
                      "cursorOpacity" : 1.0,
                      "cursorScale" : 1.0
                    },
                    "medias" : [
                        {
                          "id" : 61,
                          "_type" : "ScreenVMFile",
                          "src" : 2,
                          "trackNumber" : 0,
                          "attributes" : {
                            "ident" : "hijacking_ntfs_structs_attack"
                          },
                          "parameters" : {
                            "cursorScale" : {
                              "type" : "double",
                              "defaultValue" : 0.0,
                              "interp" : "linr"
                            },
                            "cursorOpacity" : {
                              "type" : "double",
                              "defaultValue" : 0.0,
                              "interp" : "linr"
                            }
                          },
                          "effects" : [

                          ],
                          "start" : 0,
                          "duration" : 212,
                          "mediaStart" : 0,
                          "mediaDuration" : 212,
                          "scalar" : 1,
                          "metadata" : {
                            "AutoAppliedSmartFocus" : "False",
                            "clipSpeedAttribute" : false,
                            "default-scale0" : 1.0,
                            "default-scale1" : 1.0,
                            "default-translation0" : 0.0,
                            "default-translation1" : 0.0
                          },
                          "animationTracks" : {

                          }
                        },
                        {
                          "id" : 62,
                          "_type" : "ScreenIMFile",
                          "src" : 2,
                          "trackNumber" : 0,
                          "trimStartSum" : 0,
                          "attributes" : {
                            "ident" : "hijacking_ntfs_structs_attack"
                          },
                          "parameters" : {
                            "cursorOpacity" : 0.0,
                            "cursorScale" : 0.0
                          },
                          "effects" : [

                          ],
                          "start" : 212,
                          "duration" : 45,
                          "mediaStart" : 211,
                          "mediaDuration" : 1,
                          "scalar" : 1,
                          "metadata" : {
                            "AutoAppliedSmartFocus" : "False"
                          },
                          "animationTracks" : {

                          }
                        },
                        {
                          "id" : 63,
                          "_type" : "ScreenVMFile",
                          "src" : 2,
                          "trackNumber" : 0,
                          "attributes" : {
                            "ident" : "hijacking_ntfs_structs_attack"
                          },
                          "parameters" : {
                            "cursorScale" : {
                              "type" : "double",
                              "defaultValue" : 0.0,
                              "interp" : "linr"
                            },
                            "cursorOpacity" : {
                              "type" : "double",
                              "defaultValue" : 0.0,
                              "interp" : "linr"
                            }
                          },
                          "effects" : [

                          ],
                          "start" : 257,
                          "duration" : 1283298,
                          "mediaStart" : 212,
                          "mediaDuration" : 1283298,
                          "scalar" : 1,
                          "metadata" : {
                            "AutoAppliedSmartFocus" : "False",
                            "clipSpeedAttribute" : false,
                            "default-scale0" : 1.0,
                            "default-scale1" : 1.0,
                            "default-translation0" : 0.0,
                            "default-translation1" : 0.0
                          },
                          "animationTracks" : {

                          }
                        }
                    ],
                    "effects" : [
                        {
                          "effectName" : "CursorHilight",
                          "category" : "categoryCursorEffects",
                          "parameters" : {
                            "blur" : 0.1,
                            "color-alpha" : 0.75,
                            "color-blue" : 0.0,
                            "color-green" : 1.0,
                            "color-red" : 1.0,
                            "radius" : 50.0
                          }
                        }
                    ],
                    "start" : 580,
                    "duration" : 40,
                    "mediaStart" : 830,
                    "mediaDuration" : 40,
                    "scalar" : 1,
                    "metadata" : {
                      "AutoAppliedSmartFocus" : "False",
                      "clipSpeedAttribute" : false,
                      "default-scale0" : 2.97908896792882,
                      "default-scale1" : 2.97908903413659,
                      "default-translation0" : 2394.63734621524,
                      "default-translation1" : -1346.98364875011
                    },
                    "animationTracks" : {
                      "visual" : [
                        {
                          "endTime" : 172,
                          "duration" : 30,
                          "range" : [ 142, 30]
                        },
                        {
                          "endTime" : 287,
                          "duration" : 30,
                          "range" : [ 257, 30]
                        },
                        {
                          "endTime" : 864,
                          "duration" : 30,
                          "range" : [ 834, 30]
                        }
                      ]
                    }
                  },
                  {
                    "id" : 64,
                    "_type" : "StitchedMedia",
                    "minMediaStart" : 0,
                    "attributes" : {
                      "ident" : "hijacking_ntfs_structs_attack",
                      "gain" : 1.0,
                      "mixToMono" : false
                    },
                    "parameters" : {
                      "translation0" : {
                        "type" : "double",
                        "defaultValue" : 0.0,
                        "keyframes" : [
                          {
                            "endTime" : 172,
                            "time" : 142,
                            "value" : 4331.31223731553,
                            "duration" : 30
                          },
                          {
                            "endTime" : 287,
                            "time" : 257,
                            "value" : 5.6843418860808e-13,
                            "duration" : 30
                          },
                          {
                            "endTime" : 864,
                            "time" : 834,
                            "value" : 1642.1,
                            "duration" : 30
                          }
                        ]
                      },
                      "translation1" : {
                        "type" : "double",
                        "defaultValue" : 0.0,
                        "keyframes" : [
                          {
                            "endTime" : 172,
                            "time" : 142,
                            "value" : -2019.69283971535,
                            "duration" : 30
                          },
                          {
                            "endTime" : 287,
                            "time" : 257,
                            "value" : -2.8421709430404e-13,
                            "duration" : 30
                          },
                          {
                            "endTime" : 864,
                            "time" : 834,
                            "value" : -847.3,
                            "duration" : 30
                          }
                        ]
                      },
                      "scale0" : {
                        "type" : "double",
                        "defaultValue" : 1.0,
                        "keyframes" : [
                          {
                            "endTime" : 172,
                            "time" : 142,
                            "value" : 4.54918320506327,
                            "duration" : 30
                          },
                          {
                            "endTime" : 287,
                            "time" : 257,
                            "value" : 0.999999977775835,
                            "duration" : 30
                          },
                          {
                            "endTime" : 864,
                            "time" : 834,
                            "value" : 2.33593993169021,
                            "duration" : 30
                          }
                        ]
                      },
                      "scale1" : {
                        "type" : "double",
                        "defaultValue" : 1.0,
                        "keyframes" : [
                          {
                            "endTime" : 172,
                            "time" : 142,
                            "value" : 4.54918308493868,
                            "duration" : 30
                          },
                          {
                            "endTime" : 287,
                            "time" : 257,
                            "value" : 1.0,
                            "duration" : 30
                          },
                          {
                            "endTime" : 864,
                            "time" : 834,
                            "value" : 2.33593997834513,
                            "duration" : 30
                          }
                        ]
                      },
                      "cursorOpacity" : 1.0,
                      "cursorScale" : 1.0
                    },
                    "medias" : [
                        {
                          "id" : 65,
                          "_type" : "ScreenVMFile",
                          "src" : 2,
                          "trackNumber" : 0,
                          "attributes" : {
                            "ident" : "hijacking_ntfs_structs_attack"
                          },
                          "parameters" : {
                            "cursorScale" : {
                              "type" : "double",
                              "defaultValue" : 0.0,
                              "interp" : "linr"
                            },
                            "cursorOpacity" : {
                              "type" : "double",
                              "defaultValue" : 0.0,
                              "interp" : "linr"
                            }
                          },
                          "effects" : [

                          ],
                          "start" : 0,
                          "duration" : 212,
                          "mediaStart" : 0,
                          "mediaDuration" : 212,
                          "scalar" : 1,
                          "metadata" : {
                            "AutoAppliedSmartFocus" : "False",
                            "clipSpeedAttribute" : false,
                            "default-scale0" : 1.0,
                            "default-scale1" : 1.0,
                            "default-translation0" : 0.0,
                            "default-translation1" : 0.0
                          },
                          "animationTracks" : {

                          }
                        },
                        {
                          "id" : 66,
                          "_type" : "ScreenIMFile",
                          "src" : 2,
                          "trackNumber" : 0,
                          "trimStartSum" : 0,
                          "attributes" : {
                            "ident" : "hijacking_ntfs_structs_attack"
                          },
                          "parameters" : {
                            "cursorOpacity" : 0.0,
                            "cursorScale" : 0.0
                          },
                          "effects" : [

                          ],
                          "start" : 212,
                          "duration" : 45,
                          "mediaStart" : 211,
                          "mediaDuration" : 1,
                          "scalar" : 1,
                          "metadata" : {
                            "AutoAppliedSmartFocus" : "False"
                          },
                          "animationTracks" : {

                          }
                        },
                        {
                          "id" : 67,
                          "_type" : "ScreenVMFile",
                          "src" : 2,
                          "trackNumber" : 0,
                          "attributes" : {
                            "ident" : "hijacking_ntfs_structs_attack"
                          },
                          "parameters" : {
                            "cursorScale" : {
                              "type" : "double",
                              "defaultValue" : 0.0,
                              "interp" : "linr"
                            },
                            "cursorOpacity" : {
                              "type" : "double",
                              "defaultValue" : 0.0,
                              "interp" : "linr"
                            }
                          },
                          "effects" : [

                          ],
                          "start" : 257,
                          "duration" : 1283298,
                          "mediaStart" : 212,
                          "mediaDuration" : 1283298,
                          "scalar" : 1,
                          "metadata" : {
                            "AutoAppliedSmartFocus" : "False",
                            "clipSpeedAttribute" : false,
                            "default-scale0" : 1.0,
                            "default-scale1" : 1.0,
                            "default-translation0" : 0.0,
                            "default-translation1" : 0.0
                          },
                          "animationTracks" : {

                          }
                        }
                    ],
                    "effects" : [
                        {
                          "effectName" : "CursorHilight",
                          "category" : "categoryCursorEffects",
                          "parameters" : {
                            "blur" : 0.1,
                            "color-alpha" : 0.75,
                            "color-blue" : 0.0,
                            "color-green" : 1.0,
                            "color-red" : 1.0,
                            "radius" : 50.0
                          }
                        }
                    ],
                    "start" : 620,
                    "duration" : 73,
                    "mediaStart" : 870,
                    "mediaDuration" : 269,
                    "scalar" : "73/269",
                    "metadata" : {
                      "AutoAppliedSmartFocus" : "False",
                      "clipSpeedAttribute" : true,
                      "default-scale0" : 2.97908896792882,
                      "default-scale1" : 2.97908903413659,
                      "default-translation0" : 2394.63734621524,
                      "default-translation1" : -1346.98364875011
                    },
                    "animationTracks" : {
                      "visual" : [
                        {
                          "endTime" : 172,
                          "duration" : 30,
                          "range" : [ 142, 30]
                        },
                        {
                          "endTime" : 287,
                          "duration" : 30,
                          "range" : [ 257, 30]
                        },
                        {
                          "endTime" : 864,
                          "duration" : 30,
                          "range" : [ 834, 30]
                        }
                      ]
                    }
                  },
                  {
                    "id" : 68,
                    "_type" : "StitchedMedia",
                    "minMediaStart" : 0,
                    "attributes" : {
                      "ident" : "hijacking_ntfs_structs_attack",
                      "gain" : 1.0,
                      "mixToMono" : false
                    },
                    "parameters" : {
                      "translation0" : {
                        "type" : "double",
                        "defaultValue" : 0.0,
                        "keyframes" : [
                          {
                            "endTime" : 172,
                            "time" : 142,
                            "value" : 4331.31223731553,
                            "duration" : 30
                          },
                          {
                            "endTime" : 287,
                            "time" : 257,
                            "value" : 5.6843418860808e-13,
                            "duration" : 30
                          },
                          {
                            "endTime" : 864,
                            "time" : 834,
                            "value" : 1642.08129557305,
                            "duration" : 30
                          },
                          {
                            "endTime" : 1197,
                            "time" : 1139,
                            "value" : 1642.08139278021,
                            "duration" : 58
                          }
                        ]
                      },
                      "translation1" : {
                        "type" : "double",
                        "defaultValue" : 0.0,
                        "keyframes" : [
                          {
                            "endTime" : 172,
                            "time" : 142,
                            "value" : -2019.69283971535,
                            "duration" : 30
                          },
                          {
                            "endTime" : 287,
                            "time" : 257,
                            "value" : -2.8421709430404e-13,
                            "duration" : 30
                          },
                          {
                            "endTime" : 864,
                            "time" : 834,
                            "value" : -847.3,
                            "duration" : 30
                          },
                          {
                            "endTime" : 1197,
                            "time" : 1139,
                            "value" : -267.3,
                            "duration" : 58
                          }
                        ]
                      },
                      "scale0" : {
                        "type" : "double",
                        "defaultValue" : 1.0,
                        "keyframes" : [
                          {
                            "endTime" : 172,
                            "time" : 142,
                            "value" : 4.54918320506327,
                            "duration" : 30
                          },
                          {
                            "endTime" : 287,
                            "time" : 257,
                            "value" : 0.999999977775835,
                            "duration" : 30
                          },
                          {
                            "endTime" : 864,
                            "time" : 834,
                            "value" : 2.33593993169021,
                            "duration" : 30
                          },
                          {
                            "endTime" : 1197,
                            "time" : 1139,
                            "value" : 2.33593999314883,
                            "duration" : 58
                          }
                        ]
                      },
                      "scale1" : {
                        "type" : "double",
                        "defaultValue" : 1.0,
                        "keyframes" : [
                          {
                            "endTime" : 172,
                            "time" : 142,
                            "value" : 4.54918308493868,
                            "duration" : 30
                          },
                          {
                            "endTime" : 287,
                            "time" : 257,
                            "value" : 1.0,
                            "duration" : 30
                          },
                          {
                            "endTime" : 864,
                            "time" : 834,
                            "value" : 2.33593997834513,
                            "duration" : 30
                          }
                        ]
                      },
                      "cursorOpacity" : 1.0,
                      "cursorScale" : 1.0
                    },
                    "medias" : [
                        {
                          "id" : 69,
                          "_type" : "ScreenVMFile",
                          "src" : 2,
                          "trackNumber" : 0,
                          "attributes" : {
                            "ident" : "hijacking_ntfs_structs_attack"
                          },
                          "parameters" : {
                            "cursorScale" : {
                              "type" : "double",
                              "defaultValue" : 0.0,
                              "interp" : "linr"
                            },
                            "cursorOpacity" : {
                              "type" : "double",
                              "defaultValue" : 0.0,
                              "interp" : "linr"
                            }
                          },
                          "effects" : [

                          ],
                          "start" : 0,
                          "duration" : 212,
                          "mediaStart" : 0,
                          "mediaDuration" : 212,
                          "scalar" : 1,
                          "metadata" : {
                            "AutoAppliedSmartFocus" : "False",
                            "clipSpeedAttribute" : false,
                            "default-scale0" : 1.0,
                            "default-scale1" : 1.0,
                            "default-translation0" : 0.0,
                            "default-translation1" : 0.0
                          },
                          "animationTracks" : {

                          }
                        },
                        {
                          "id" : 70,
                          "_type" : "ScreenIMFile",
                          "src" : 2,
                          "trackNumber" : 0,
                          "trimStartSum" : 0,
                          "attributes" : {
                            "ident" : "hijacking_ntfs_structs_attack"
                          },
                          "parameters" : {
                            "cursorOpacity" : 0.0,
                            "cursorScale" : 0.0
                          },
                          "effects" : [

                          ],
                          "start" : 212,
                          "duration" : 45,
                          "mediaStart" : 211,
                          "mediaDuration" : 1,
                          "scalar" : 1,
                          "metadata" : {
                            "AutoAppliedSmartFocus" : "False"
                          },
                          "animationTracks" : {

                          }
                        },
                        {
                          "id" : 71,
                          "_type" : "ScreenVMFile",
                          "src" : 2,
                          "trackNumber" : 0,
                          "attributes" : {
                            "ident" : "hijacking_ntfs_structs_attack"
                          },
                          "parameters" : {
                            "cursorScale" : {
                              "type" : "double",
                              "defaultValue" : 0.0,
                              "interp" : "linr"
                            },
                            "cursorOpacity" : {
                              "type" : "double",
                              "defaultValue" : 0.0,
                              "interp" : "linr"
                            }
                          },
                          "effects" : [

                          ],
                          "start" : 257,
                          "duration" : 1283298,
                          "mediaStart" : 212,
                          "mediaDuration" : 1283298,
                          "scalar" : 1,
                          "metadata" : {
                            "AutoAppliedSmartFocus" : "False",
                            "clipSpeedAttribute" : false,
                            "default-scale0" : 1.0,
                            "default-scale1" : 1.0,
                            "default-translation0" : 0.0,
                            "default-translation1" : 0.0
                          },
                          "animationTracks" : {

                          }
                        }
                    ],
                    "effects" : [
                        {
                          "effectName" : "CursorHilight",
                          "category" : "categoryCursorEffects",
                          "parameters" : {
                            "blur" : 0.1,
                            "color-alpha" : 0.75,
                            "color-blue" : 0.0,
                            "color-green" : 1.0,
                            "color-red" : 1.0,
                            "radius" : 50.0
                          }
                        }
                    ],
                    "start" : 693,
                    "duration" : 61,
                    "mediaStart" : 1139,
                    "mediaDuration" : 61,
                    "scalar" : 1,
                    "metadata" : {
                      "AutoAppliedSmartFocus" : "False",
                      "clipSpeedAttribute" : false,
                      "default-scale0" : 2.97908896792882,
                      "default-scale1" : 2.97908903413659,
                      "default-translation0" : 2394.63734621524,
                      "default-translation1" : -1346.98364875011
                    },
                    "animationTracks" : {
                      "visual" : [
                        {
                          "endTime" : 172,
                          "duration" : 30,
                          "range" : [ 142, 30]
                        },
                        {
                          "endTime" : 287,
                          "duration" : 30,
                          "range" : [ 257, 30]
                        },
                        {
                          "endTime" : 864,
                          "duration" : 30,
                          "range" : [ 834, 30]
                        },
                        {
                          "endTime" : 1197,
                          "duration" : 58,
                          "range" : [ 1139, 58]
                        }
                      ]
                    }
                  },
                  {
                    "id" : 72,
                    "_type" : "StitchedMedia",
                    "minMediaStart" : 0,
                    "attributes" : {
                      "ident" : "hijacking_ntfs_structs_attack",
                      "gain" : 1.0,
                      "mixToMono" : false
                    },
                    "parameters" : {
                      "translation0" : {
                        "type" : "double",
                        "defaultValue" : 0.0,
                        "keyframes" : [
                          {
                            "endTime" : 172,
                            "time" : 142,
                            "value" : 4331.31223731553,
                            "duration" : 30
                          },
                          {
                            "endTime" : 287,
                            "time" : 257,
                            "value" : 5.6843418860808e-13,
                            "duration" : 30
                          },
                          {
                            "endTime" : 864,
                            "time" : 834,
                            "value" : 1642.08129557305,
                            "duration" : 30
                          },
                          {
                            "endTime" : 1197,
                            "time" : 1139,
                            "value" : 1642.08139278021,
                            "duration" : 58
                          }
                        ]
                      },
                      "translation1" : {
                        "type" : "double",
                        "defaultValue" : 0.0,
                        "keyframes" : [
                          {
                            "endTime" : 172,
                            "time" : 142,
                            "value" : -2019.69283971535,
                            "duration" : 30
                          },
                          {
                            "endTime" : 287,
                            "time" : 257,
                            "value" : -2.8421709430404e-13,
                            "duration" : 30
                          },
                          {
                            "endTime" : 864,
                            "time" : 834,
                            "value" : -847.3,
                            "duration" : 30
                          },
                          {
                            "endTime" : 1197,
                            "time" : 1139,
                            "value" : -267.3,
                            "duration" : 58
                          }
                        ]
                      },
                      "scale0" : {
                        "type" : "double",
                        "defaultValue" : 1.0,
                        "keyframes" : [
                          {
                            "endTime" : 172,
                            "time" : 142,
                            "value" : 4.54918320506327,
                            "duration" : 30
                          },
                          {
                            "endTime" : 287,
                            "time" : 257,
                            "value" : 0.999999977775835,
                            "duration" : 30
                          },
                          {
                            "endTime" : 864,
                            "time" : 834,
                            "value" : 2.33593993169021,
                            "duration" : 30
                          },
                          {
                            "endTime" : 1197,
                            "time" : 1139,
                            "value" : 2.33593999314883,
                            "duration" : 58
                          }
                        ]
                      },
                      "scale1" : {
                        "type" : "double",
                        "defaultValue" : 1.0,
                        "keyframes" : [
                          {
                            "endTime" : 172,
                            "time" : 142,
                            "value" : 4.54918308493868,
                            "duration" : 30
                          },
                          {
                            "endTime" : 287,
                            "time" : 257,
                            "value" : 1.0,
                            "duration" : 30
                          },
                          {
                            "endTime" : 864,
                            "time" : 834,
                            "value" : 2.33593997834513,
                            "duration" : 30
                          }
                        ]
                      },
                      "cursorOpacity" : 1.0,
                      "cursorScale" : 1.0
                    },
                    "medias" : [
                        {
                          "id" : 73,
                          "_type" : "ScreenVMFile",
                          "src" : 2,
                          "trackNumber" : 0,
                          "attributes" : {
                            "ident" : "hijacking_ntfs_structs_attack"
                          },
                          "parameters" : {
                            "cursorScale" : {
                              "type" : "double",
                              "defaultValue" : 0.0,
                              "interp" : "linr"
                            },
                            "cursorOpacity" : {
                              "type" : "double",
                              "defaultValue" : 0.0,
                              "interp" : "linr"
                            }
                          },
                          "effects" : [

                          ],
                          "start" : 0,
                          "duration" : 212,
                          "mediaStart" : 0,
                          "mediaDuration" : 212,
                          "scalar" : 1,
                          "metadata" : {
                            "AutoAppliedSmartFocus" : "False",
                            "clipSpeedAttribute" : false,
                            "default-scale0" : 1.0,
                            "default-scale1" : 1.0,
                            "default-translation0" : 0.0,
                            "default-translation1" : 0.0
                          },
                          "animationTracks" : {

                          }
                        },
                        {
                          "id" : 74,
                          "_type" : "ScreenIMFile",
                          "src" : 2,
                          "trackNumber" : 0,
                          "trimStartSum" : 0,
                          "attributes" : {
                            "ident" : "hijacking_ntfs_structs_attack"
                          },
                          "parameters" : {
                            "cursorOpacity" : 0.0,
                            "cursorScale" : 0.0
                          },
                          "effects" : [

                          ],
                          "start" : 212,
                          "duration" : 45,
                          "mediaStart" : 211,
                          "mediaDuration" : 1,
                          "scalar" : 1,
                          "metadata" : {
                            "AutoAppliedSmartFocus" : "False"
                          },
                          "animationTracks" : {

                          }
                        },
                        {
                          "id" : 75,
                          "_type" : "ScreenVMFile",
                          "src" : 2,
                          "trackNumber" : 0,
                          "attributes" : {
                            "ident" : "hijacking_ntfs_structs_attack"
                          },
                          "parameters" : {
                            "cursorScale" : {
                              "type" : "double",
                              "defaultValue" : 0.0,
                              "interp" : "linr"
                            },
                            "cursorOpacity" : {
                              "type" : "double",
                              "defaultValue" : 0.0,
                              "interp" : "linr"
                            }
                          },
                          "effects" : [

                          ],
                          "start" : 257,
                          "duration" : 1283298,
                          "mediaStart" : 212,
                          "mediaDuration" : 1283298,
                          "scalar" : 1,
                          "metadata" : {
                            "AutoAppliedSmartFocus" : "False",
                            "clipSpeedAttribute" : false,
                            "default-scale0" : 1.0,
                            "default-scale1" : 1.0,
                            "default-translation0" : 0.0,
                            "default-translation1" : 0.0
                          },
                          "animationTracks" : {

                          }
                        }
                    ],
                    "effects" : [
                        {
                          "effectName" : "CursorHilight",
                          "category" : "categoryCursorEffects",
                          "parameters" : {
                            "blur" : 0.1,
                            "color-alpha" : 0.75,
                            "color-blue" : 0.0,
                            "color-green" : 1.0,
                            "color-red" : 1.0,
                            "radius" : 50.0
                          }
                        }
                    ],
                    "start" : 754,
                    "duration" : 91,
                    "mediaStart" : 1200,
                    "mediaDuration" : 457,
                    "scalar" : "91/457",
                    "metadata" : {
                      "AutoAppliedSmartFocus" : "False",
                      "clipSpeedAttribute" : true,
                      "default-scale0" : 2.97908896792882,
                      "default-scale1" : 2.97908903413659,
                      "default-translation0" : 2394.63734621524,
                      "default-translation1" : -1346.98364875011
                    },
                    "animationTracks" : {
                      "visual" : [
                        {
                          "endTime" : 172,
                          "duration" : 30,
                          "range" : [ 142, 30]
                        },
                        {
                          "endTime" : 287,
                          "duration" : 30,
                          "range" : [ 257, 30]
                        },
                        {
                          "endTime" : 864,
                          "duration" : 30,
                          "range" : [ 834, 30]
                        },
                        {
                          "endTime" : 1197,
                          "duration" : 58,
                          "range" : [ 1139, 58]
                        }
                      ]
                    }
                  },
                  {
                    "id" : 76,
                    "_type" : "StitchedMedia",
                    "minMediaStart" : 0,
                    "attributes" : {
                      "ident" : "hijacking_ntfs_structs_attack",
                      "gain" : 1.0,
                      "mixToMono" : false
                    },
                    "parameters" : {
                      "translation0" : {
                        "type" : "double",
                        "defaultValue" : 0.0,
                        "keyframes" : [
                          {
                            "endTime" : 172,
                            "time" : 142,
                            "value" : 4331.31223731553,
                            "duration" : 30
                          },
                          {
                            "endTime" : 287,
                            "time" : 257,
                            "value" : 5.6843418860808e-13,
                            "duration" : 30
                          },
                          {
                            "endTime" : 864,
                            "time" : 834,
                            "value" : 1642.08129557305,
                            "duration" : 30
                          },
                          {
                            "endTime" : 1197,
                            "time" : 1139,
                            "value" : 1642.08139278021,
                            "duration" : 58
                          }
                        ]
                      },
                      "translation1" : {
                        "type" : "double",
                        "defaultValue" : 0.0,
                        "keyframes" : [
                          {
                            "endTime" : 172,
                            "time" : 142,
                            "value" : -2019.69283971535,
                            "duration" : 30
                          },
                          {
                            "endTime" : 287,
                            "time" : 257,
                            "value" : -2.8421709430404e-13,
                            "duration" : 30
                          },
                          {
                            "endTime" : 864,
                            "time" : 834,
                            "value" : -847.3,
                            "duration" : 30
                          },
                          {
                            "endTime" : 1197,
                            "time" : 1139,
                            "value" : -267.3,
                            "duration" : 58
                          }
                        ]
                      },
                      "scale0" : {
                        "type" : "double",
                        "defaultValue" : 1.0,
                        "keyframes" : [
                          {
                            "endTime" : 172,
                            "time" : 142,
                            "value" : 4.54918320506327,
                            "duration" : 30
                          },
                          {
                            "endTime" : 287,
                            "time" : 257,
                            "value" : 0.999999977775835,
                            "duration" : 30
                          },
                          {
                            "endTime" : 864,
                            "time" : 834,
                            "value" : 2.33593993169021,
                            "duration" : 30
                          },
                          {
                            "endTime" : 1197,
                            "time" : 1139,
                            "value" : 2.33593999314883,
                            "duration" : 58
                          }
                        ]
                      },
                      "scale1" : {
                        "type" : "double",
                        "defaultValue" : 1.0,
                        "keyframes" : [
                          {
                            "endTime" : 172,
                            "time" : 142,
                            "value" : 4.54918308493868,
                            "duration" : 30
                          },
                          {
                            "endTime" : 287,
                            "time" : 257,
                            "value" : 1.0,
                            "duration" : 30
                          },
                          {
                            "endTime" : 864,
                            "time" : 834,
                            "value" : 2.33593997834513,
                            "duration" : 30
                          }
                        ]
                      },
                      "cursorOpacity" : 1.0,
                      "cursorScale" : 1.0
                    },
                    "medias" : [
                        {
                          "id" : 77,
                          "_type" : "ScreenVMFile",
                          "src" : 2,
                          "trackNumber" : 0,
                          "attributes" : {
                            "ident" : "hijacking_ntfs_structs_attack"
                          },
                          "parameters" : {
                            "cursorScale" : {
                              "type" : "double",
                              "defaultValue" : 0.0,
                              "interp" : "linr"
                            },
                            "cursorOpacity" : {
                              "type" : "double",
                              "defaultValue" : 0.0,
                              "interp" : "linr"
                            }
                          },
                          "effects" : [

                          ],
                          "start" : 0,
                          "duration" : 212,
                          "mediaStart" : 0,
                          "mediaDuration" : 212,
                          "scalar" : 1,
                          "metadata" : {
                            "AutoAppliedSmartFocus" : "False",
                            "clipSpeedAttribute" : false,
                            "default-scale0" : 1.0,
                            "default-scale1" : 1.0,
                            "default-translation0" : 0.0,
                            "default-translation1" : 0.0
                          },
                          "animationTracks" : {

                          }
                        },
                        {
                          "id" : 78,
                          "_type" : "ScreenIMFile",
                          "src" : 2,
                          "trackNumber" : 0,
                          "trimStartSum" : 0,
                          "attributes" : {
                            "ident" : "hijacking_ntfs_structs_attack"
                          },
                          "parameters" : {
                            "cursorOpacity" : 0.0,
                            "cursorScale" : 0.0
                          },
                          "effects" : [

                          ],
                          "start" : 212,
                          "duration" : 45,
                          "mediaStart" : 211,
                          "mediaDuration" : 1,
                          "scalar" : 1,
                          "metadata" : {
                            "AutoAppliedSmartFocus" : "False"
                          },
                          "animationTracks" : {

                          }
                        },
                        {
                          "id" : 79,
                          "_type" : "ScreenVMFile",
                          "src" : 2,
                          "trackNumber" : 0,
                          "attributes" : {
                            "ident" : "hijacking_ntfs_structs_attack"
                          },
                          "parameters" : {
                            "cursorScale" : {
                              "type" : "double",
                              "defaultValue" : 0.0,
                              "interp" : "linr"
                            },
                            "cursorOpacity" : {
                              "type" : "double",
                              "defaultValue" : 0.0,
                              "interp" : "linr"
                            }
                          },
                          "effects" : [

                          ],
                          "start" : 257,
                          "duration" : 1283298,
                          "mediaStart" : 212,
                          "mediaDuration" : 1283298,
                          "scalar" : 1,
                          "metadata" : {
                            "AutoAppliedSmartFocus" : "False",
                            "clipSpeedAttribute" : false,
                            "default-scale0" : 1.0,
                            "default-scale1" : 1.0,
                            "default-translation0" : 0.0,
                            "default-translation1" : 0.0
                          },
                          "animationTracks" : {

                          }
                        }
                    ],
                    "effects" : [
                        {
                          "effectName" : "CursorHilight",
                          "category" : "categoryCursorEffects",
                          "parameters" : {
                            "blur" : 0.1,
                            "color-alpha" : 0.75,
                            "color-blue" : 0.0,
                            "color-green" : 1.0,
                            "color-red" : 1.0,
                            "radius" : 50.0
                          }
                        }
                    ],
                    "start" : 845,
                    "duration" : 38,
                    "mediaStart" : 1657,
                    "mediaDuration" : 38,
                    "scalar" : 1,
                    "metadata" : {
                      "AutoAppliedSmartFocus" : "False",
                      "clipSpeedAttribute" : false,
                      "default-scale0" : 2.97908896792882,
                      "default-scale1" : 2.97908903413659,
                      "default-translation0" : 2394.63734621524,
                      "default-translation1" : -1346.98364875011
                    },
                    "animationTracks" : {
                      "visual" : [
                        {
                          "endTime" : 172,
                          "duration" : 30,
                          "range" : [ 142, 30]
                        },
                        {
                          "endTime" : 287,
                          "duration" : 30,
                          "range" : [ 257, 30]
                        },
                        {
                          "endTime" : 864,
                          "duration" : 30,
                          "range" : [ 834, 30]
                        },
                        {
                          "endTime" : 1197,
                          "duration" : 58,
                          "range" : [ 1139, 58]
                        }
                      ]
                    }
                  },
                  {
                    "id" : 80,
                    "_type" : "StitchedMedia",
                    "minMediaStart" : 0,
                    "attributes" : {
                      "ident" : "hijacking_ntfs_structs_attack",
                      "gain" : 1.0,
                      "mixToMono" : false
                    },
                    "parameters" : {
                      "translation0" : {
                        "type" : "double",
                        "defaultValue" : 0.0,
                        "keyframes" : [
                          {
                            "endTime" : 172,
                            "time" : 142,
                            "value" : 4331.31223731553,
                            "duration" : 30
                          },
                          {
                            "endTime" : 287,
                            "time" : 257,
                            "value" : 5.6843418860808e-13,
                            "duration" : 30
                          },
                          {
                            "endTime" : 864,
                            "time" : 834,
                            "value" : 1642.08129557305,
                            "duration" : 30
                          },
                          {
                            "endTime" : 1197,
                            "time" : 1139,
                            "value" : 1642.08139278021,
                            "duration" : 58
                          },
                          {
                            "endTime" : 1910,
                            "time" : 1849,
                            "value" : -1.13686837721616e-13,
                            "duration" : 61
                          }
                        ]
                      },
                      "translation1" : {
                        "type" : "double",
                        "defaultValue" : 0.0,
                        "keyframes" : [
                          {
                            "endTime" : 172,
                            "time" : 142,
                            "value" : -2019.69283971535,
                            "duration" : 30
                          },
                          {
                            "endTime" : 287,
                            "time" : 257,
                            "value" : -2.8421709430404e-13,
                            "duration" : 30
                          },
                          {
                            "endTime" : 864,
                            "time" : 834,
                            "value" : -847.3,
                            "duration" : 30
                          },
                          {
                            "endTime" : 1197,
                            "time" : 1139,
                            "value" : -267.3,
                            "duration" : 58
                          },
                          {
                            "endTime" : 1910,
                            "time" : 1849,
                            "value" : 0.0,
                            "duration" : 61
                          }
                        ]
                      },
                      "scale0" : {
                        "type" : "double",
                        "defaultValue" : 1.0,
                        "keyframes" : [
                          {
                            "endTime" : 172,
                            "time" : 142,
                            "value" : 4.54918320506327,
                            "duration" : 30
                          },
                          {
                            "endTime" : 287,
                            "time" : 257,
                            "value" : 0.999999977775835,
                            "duration" : 30
                          },
                          {
                            "endTime" : 864,
                            "time" : 834,
                            "value" : 2.33593993169021,
                            "duration" : 30
                          },
                          {
                            "endTime" : 1197,
                            "time" : 1139,
                            "value" : 2.33593999314883,
                            "duration" : 58
                          },
                          {
                            "endTime" : 1910,
                            "time" : 1849,
                            "value" : 1.0,
                            "duration" : 61
                          }
                        ]
                      },
                      "scale1" : {
                        "type" : "double",
                        "defaultValue" : 1.0,
                        "keyframes" : [
                          {
                            "endTime" : 172,
                            "time" : 142,
                            "value" : 4.54918308493868,
                            "duration" : 30
                          },
                          {
                            "endTime" : 287,
                            "time" : 257,
                            "value" : 1.0,
                            "duration" : 30
                          },
                          {
                            "endTime" : 864,
                            "time" : 834,
                            "value" : 2.33593997834513,
                            "duration" : 30
                          },
                          {
                            "endTime" : 1910,
                            "time" : 1849,
                            "value" : 0.999999993662637,
                            "duration" : 61
                          }
                        ]
                      },
                      "cursorOpacity" : 1.0,
                      "cursorScale" : 1.0
                    },
                    "medias" : [
                        {
                          "id" : 81,
                          "_type" : "ScreenVMFile",
                          "src" : 2,
                          "trackNumber" : 0,
                          "attributes" : {
                            "ident" : "hijacking_ntfs_structs_attack"
                          },
                          "parameters" : {
                            "cursorScale" : {
                              "type" : "double",
                              "defaultValue" : 0.0,
                              "interp" : "linr"
                            },
                            "cursorOpacity" : {
                              "type" : "double",
                              "defaultValue" : 0.0,
                              "interp" : "linr"
                            }
                          },
                          "effects" : [

                          ],
                          "start" : 0,
                          "duration" : 212,
                          "mediaStart" : 0,
                          "mediaDuration" : 212,
                          "scalar" : 1,
                          "metadata" : {
                            "AutoAppliedSmartFocus" : "False",
                            "clipSpeedAttribute" : false,
                            "default-scale0" : 1.0,
                            "default-scale1" : 1.0,
                            "default-translation0" : 0.0,
                            "default-translation1" : 0.0
                          },
                          "animationTracks" : {

                          }
                        },
                        {
                          "id" : 82,
                          "_type" : "ScreenIMFile",
                          "src" : 2,
                          "trackNumber" : 0,
                          "trimStartSum" : 0,
                          "attributes" : {
                            "ident" : "hijacking_ntfs_structs_attack"
                          },
                          "parameters" : {
                            "cursorOpacity" : 0.0,
                            "cursorScale" : 0.0
                          },
                          "effects" : [

                          ],
                          "start" : 212,
                          "duration" : 45,
                          "mediaStart" : 211,
                          "mediaDuration" : 1,
                          "scalar" : 1,
                          "metadata" : {
                            "AutoAppliedSmartFocus" : "False"
                          },
                          "animationTracks" : {

                          }
                        },
                        {
                          "id" : 83,
                          "_type" : "ScreenVMFile",
                          "src" : 2,
                          "trackNumber" : 0,
                          "attributes" : {
                            "ident" : "hijacking_ntfs_structs_attack"
                          },
                          "parameters" : {
                            "cursorScale" : {
                              "type" : "double",
                              "defaultValue" : 0.0,
                              "interp" : "linr"
                            },
                            "cursorOpacity" : {
                              "type" : "double",
                              "defaultValue" : 0.0,
                              "interp" : "linr"
                            }
                          },
                          "effects" : [

                          ],
                          "start" : 257,
                          "duration" : 1542,
                          "mediaStart" : 212,
                          "mediaDuration" : 1542,
                          "scalar" : 1,
                          "metadata" : {
                            "AutoAppliedSmartFocus" : "False",
                            "clipSpeedAttribute" : false,
                            "default-scale0" : 1.0,
                            "default-scale1" : 1.0,
                            "default-translation0" : 0.0,
                            "default-translation1" : 0.0
                          },
                          "animationTracks" : {

                          }
                        },
                        {
                          "id" : 84,
                          "_type" : "ScreenIMFile",
                          "src" : 2,
                          "trackNumber" : 0,
                          "trimStartSum" : 0,
                          "attributes" : {
                            "ident" : "hijacking_ntfs_structs_attack"
                          },
                          "parameters" : {
                            "cursorOpacity" : 0.0,
                            "cursorScale" : 0.0
                          },
                          "effects" : [

                          ],
                          "start" : 1799,
                          "duration" : 150,
                          "mediaStart" : 1754,
                          "mediaDuration" : 1,
                          "scalar" : 1,
                          "metadata" : {
                            "AutoAppliedSmartFocus" : "False"
                          },
                          "animationTracks" : {

                          }
                        },
                        {
                          "id" : 85,
                          "_type" : "ScreenVMFile",
                          "src" : 2,
                          "trackNumber" : 0,
                          "attributes" : {
                            "ident" : "hijacking_ntfs_structs_attack"
                          },
                          "parameters" : {
                            "cursorScale" : {
                              "type" : "double",
                              "defaultValue" : 0.0,
                              "interp" : "linr"
                            },
                            "cursorOpacity" : {
                              "type" : "double",
                              "defaultValue" : 0.0,
                              "interp" : "linr"
                            }
                          },
                          "effects" : [

                          ],
                          "start" : 1949,
                          "duration" : 1281756,
                          "mediaStart" : 1754,
                          "mediaDuration" : 1281756,
                          "scalar" : 1,
                          "metadata" : {
                            "AutoAppliedSmartFocus" : "False",
                            "clipSpeedAttribute" : false,
                            "default-scale0" : 1.0,
                            "default-scale1" : 1.0,
                            "default-translation0" : 0.0,
                            "default-translation1" : 0.0
                          },
                          "animationTracks" : {

                          }
                        }
                    ],
                    "effects" : [
                        {
                          "effectName" : "CursorHilight",
                          "category" : "categoryCursorEffects",
                          "parameters" : {
                            "blur" : 0.1,
                            "color-alpha" : 0.75,
                            "color-blue" : 0.0,
                            "color-green" : 1.0,
                            "color-red" : 1.0,
                            "radius" : 50.0
                          }
                        }
                    ],
                    "start" : 883,
                    "duration" : 133,
                    "mediaStart" : 1695,
                    "mediaDuration" : 133,
                    "scalar" : 1,
                    "metadata" : {
                      "AutoAppliedSmartFocus" : "False",
                      "clipSpeedAttribute" : true
                    },
                    "animationTracks" : {
                      "visual" : [
                        {
                          "endTime" : 172,
                          "duration" : 30,
                          "range" : [ 142, 30]
                        },
                        {
                          "endTime" : 287,
                          "duration" : 30,
                          "range" : [ 257, 30]
                        },
                        {
                          "endTime" : 864,
                          "duration" : 30,
                          "range" : [ 834, 30]
                        },
                        {
                          "endTime" : 1197,
                          "duration" : 58,
                          "range" : [ 1139, 58]
                        },
                        {
                          "endTime" : 1910,
                          "duration" : 61,
                          "range" : [ 1849, 61]
                        }
                      ]
                    }
                  },
                  {
                    "id" : 86,
                    "_type" : "StitchedMedia",
                    "minMediaStart" : 0,
                    "attributes" : {
                      "ident" : "hijacking_ntfs_structs_attack",
                      "gain" : 1.0,
                      "mixToMono" : false
                    },
                    "parameters" : {
                      "translation0" : {
                        "type" : "double",
                        "defaultValue" : 0.0,
                        "keyframes" : [
                          {
                            "endTime" : 172,
                            "time" : 142,
                            "value" : 4331.31223731553,
                            "duration" : 30
                          },
                          {
                            "endTime" : 287,
                            "time" : 257,
                            "value" : 5.6843418860808e-13,
                            "duration" : 30
                          },
                          {
                            "endTime" : 864,
                            "time" : 834,
                            "value" : 1642.08129557305,
                            "duration" : 30
                          },
                          {
                            "endTime" : 1197,
                            "time" : 1139,
                            "value" : 1642.08139278021,
                            "duration" : 58
                          }
                        ]
                      },
                      "translation1" : {
                        "type" : "double",
                        "defaultValue" : 0.0,
                        "keyframes" : [
                          {
                            "endTime" : 172,
                            "time" : 142,
                            "value" : -2019.69283971535,
                            "duration" : 30
                          },
                          {
                            "endTime" : 287,
                            "time" : 257,
                            "value" : -2.8421709430404e-13,
                            "duration" : 30
                          },
                          {
                            "endTime" : 864,
                            "time" : 834,
                            "value" : -847.3,
                            "duration" : 30
                          },
                          {
                            "endTime" : 1197,
                            "time" : 1139,
                            "value" : -267.3,
                            "duration" : 58
                          }
                        ]
                      },
                      "scale0" : {
                        "type" : "double",
                        "defaultValue" : 1.0,
                        "keyframes" : [
                          {
                            "endTime" : 172,
                            "time" : 142,
                            "value" : 4.54918320506327,
                            "duration" : 30
                          },
                          {
                            "endTime" : 287,
                            "time" : 257,
                            "value" : 0.999999977775835,
                            "duration" : 30
                          },
                          {
                            "endTime" : 864,
                            "time" : 834,
                            "value" : 2.33593993169021,
                            "duration" : 30
                          },
                          {
                            "endTime" : 1197,
                            "time" : 1139,
                            "value" : 2.33593999314883,
                            "duration" : 58
                          }
                        ]
                      },
                      "scale1" : {
                        "type" : "double",
                        "defaultValue" : 1.0,
                        "keyframes" : [
                          {
                            "endTime" : 172,
                            "time" : 142,
                            "value" : 4.54918308493868,
                            "duration" : 30
                          },
                          {
                            "endTime" : 287,
                            "time" : 257,
                            "value" : 1.0,
                            "duration" : 30
                          },
                          {
                            "endTime" : 864,
                            "time" : 834,
                            "value" : 2.33593997834513,
                            "duration" : 30
                          }
                        ]
                      },
                      "cursorOpacity" : 1.0,
                      "cursorScale" : 1.0
                    },
                    "medias" : [
                        {
                          "id" : 87,
                          "_type" : "ScreenVMFile",
                          "src" : 2,
                          "trackNumber" : 0,
                          "attributes" : {
                            "ident" : "hijacking_ntfs_structs_attack"
                          },
                          "parameters" : {
                            "cursorScale" : {
                              "type" : "double",
                              "defaultValue" : 0.0,
                              "interp" : "linr"
                            },
                            "cursorOpacity" : {
                              "type" : "double",
                              "defaultValue" : 0.0,
                              "interp" : "linr"
                            }
                          },
                          "effects" : [

                          ],
                          "start" : 0,
                          "duration" : 212,
                          "mediaStart" : 0,
                          "mediaDuration" : 212,
                          "scalar" : 1,
                          "metadata" : {
                            "AutoAppliedSmartFocus" : "False",
                            "clipSpeedAttribute" : false,
                            "default-scale0" : 1.0,
                            "default-scale1" : 1.0,
                            "default-translation0" : 0.0,
                            "default-translation1" : 0.0
                          },
                          "animationTracks" : {

                          }
                        },
                        {
                          "id" : 88,
                          "_type" : "ScreenIMFile",
                          "src" : 2,
                          "trackNumber" : 0,
                          "trimStartSum" : 0,
                          "attributes" : {
                            "ident" : "hijacking_ntfs_structs_attack"
                          },
                          "parameters" : {
                            "cursorOpacity" : 0.0,
                            "cursorScale" : 0.0
                          },
                          "effects" : [

                          ],
                          "start" : 212,
                          "duration" : 45,
                          "mediaStart" : 211,
                          "mediaDuration" : 1,
                          "scalar" : 1,
                          "metadata" : {
                            "AutoAppliedSmartFocus" : "False"
                          },
                          "animationTracks" : {

                          }
                        },
                        {
                          "id" : 89,
                          "_type" : "ScreenVMFile",
                          "src" : 2,
                          "trackNumber" : 0,
                          "attributes" : {
                            "ident" : "hijacking_ntfs_structs_attack"
                          },
                          "parameters" : {
                            "cursorScale" : {
                              "type" : "double",
                              "defaultValue" : 0.0,
                              "interp" : "linr"
                            },
                            "cursorOpacity" : {
                              "type" : "double",
                              "defaultValue" : 0.0,
                              "interp" : "linr"
                            }
                          },
                          "effects" : [

                          ],
                          "start" : 257,
                          "duration" : 1542,
                          "mediaStart" : 212,
                          "mediaDuration" : 1542,
                          "scalar" : 1,
                          "metadata" : {
                            "AutoAppliedSmartFocus" : "False",
                            "clipSpeedAttribute" : false,
                            "default-scale0" : 1.0,
                            "default-scale1" : 1.0,
                            "default-translation0" : 0.0,
                            "default-translation1" : 0.0
                          },
                          "animationTracks" : {

                          }
                        },
                        {
                          "id" : 90,
                          "_type" : "ScreenIMFile",
                          "src" : 2,
                          "trackNumber" : 0,
                          "trimStartSum" : 0,
                          "attributes" : {
                            "ident" : "hijacking_ntfs_structs_attack"
                          },
                          "parameters" : {
                            "cursorOpacity" : 0.0,
                            "cursorScale" : 0.0
                          },
                          "effects" : [

                          ],
                          "start" : 1799,
                          "duration" : 150,
                          "mediaStart" : 1754,
                          "mediaDuration" : 1,
                          "scalar" : 1,
                          "metadata" : {
                            "AutoAppliedSmartFocus" : "False"
                          },
                          "animationTracks" : {

                          }
                        },
                        {
                          "id" : 91,
                          "_type" : "ScreenVMFile",
                          "src" : 2,
                          "trackNumber" : 0,
                          "attributes" : {
                            "ident" : "hijacking_ntfs_structs_attack"
                          },
                          "parameters" : {
                            "cursorScale" : {
                              "type" : "double",
                              "defaultValue" : 0.0,
                              "interp" : "linr"
                            },
                            "cursorOpacity" : {
                              "type" : "double",
                              "defaultValue" : 0.0,
                              "interp" : "linr"
                            }
                          },
                          "effects" : [

                          ],
                          "start" : 1949,
                          "duration" : 1281756,
                          "mediaStart" : 1754,
                          "mediaDuration" : 1281756,
                          "scalar" : 1,
                          "metadata" : {
                            "AutoAppliedSmartFocus" : "False",
                            "clipSpeedAttribute" : false,
                            "default-scale0" : 1.0,
                            "default-scale1" : 1.0,
                            "default-translation0" : 0.0,
                            "default-translation1" : 0.0
                          },
                          "animationTracks" : {

                          }
                        }
                    ],
                    "effects" : [
                        {
                          "effectName" : "CursorHilight",
                          "category" : "categoryCursorEffects",
                          "parameters" : {
                            "blur" : 0.1,
                            "color-alpha" : 0.75,
                            "color-blue" : 0.0,
                            "color-green" : 1.0,
                            "color-red" : 1.0,
                            "radius" : 50.0
                          }
                        }
                    ],
                    "start" : 1016,
                    "duration" : 109,
                    "mediaStart" : 1828,
                    "mediaDuration" : 109,
                    "scalar" : 1,
                    "metadata" : {
                      "AutoAppliedSmartFocus" : "False",
                      "clipSpeedAttribute" : false
                    },
                    "animationTracks" : {
                      "visual" : [
                        {
                          "endTime" : 172,
                          "duration" : 30,
                          "range" : [ 142, 30]
                        },
                        {
                          "endTime" : 287,
                          "duration" : 30,
                          "range" : [ 257, 30]
                        },
                        {
                          "endTime" : 864,
                          "duration" : 30,
                          "range" : [ 834, 30]
                        },
                        {
                          "endTime" : 1197,
                          "duration" : 58,
                          "range" : [ 1139, 58]
                        }
                      ]
                    }
                  },
                  {
                    "id" : 92,
                    "_type" : "StitchedMedia",
                    "minMediaStart" : 0,
                    "attributes" : {
                      "ident" : "hijacking_ntfs_structs_attack",
                      "gain" : 1.0,
                      "mixToMono" : false
                    },
                    "parameters" : {
                      "translation0" : {
                        "type" : "double",
                        "defaultValue" : 0.0,
                        "keyframes" : [
                          {
                            "endTime" : 172,
                            "time" : 142,
                            "value" : 4331.31223731553,
                            "duration" : 30
                          },
                          {
                            "endTime" : 287,
                            "time" : 257,
                            "value" : 5.6843418860808e-13,
                            "duration" : 30
                          },
                          {
                            "endTime" : 864,
                            "time" : 834,
                            "value" : 1642.08129557305,
                            "duration" : 30
                          },
                          {
                            "endTime" : 1197,
                            "time" : 1139,
                            "value" : 1642.08139278021,
                            "duration" : 58
                          },
                          {
                            "endTime" : 1910,
                            "time" : 1849,
                            "value" : -1.13686837721616e-13,
                            "duration" : 61
                          }
                        ]
                      },
                      "translation1" : {
                        "type" : "double",
                        "defaultValue" : 0.0,
                        "keyframes" : [
                          {
                            "endTime" : 172,
                            "time" : 142,
                            "value" : -2019.69283971535,
                            "duration" : 30
                          },
                          {
                            "endTime" : 287,
                            "time" : 257,
                            "value" : -2.8421709430404e-13,
                            "duration" : 30
                          },
                          {
                            "endTime" : 864,
                            "time" : 834,
                            "value" : -847.3,
                            "duration" : 30
                          },
                          {
                            "endTime" : 1197,
                            "time" : 1139,
                            "value" : -267.3,
                            "duration" : 58
                          },
                          {
                            "endTime" : 1910,
                            "time" : 1849,
                            "value" : 0.0,
                            "duration" : 61
                          }
                        ]
                      },
                      "scale0" : {
                        "type" : "double",
                        "defaultValue" : 1.0,
                        "keyframes" : [
                          {
                            "endTime" : 172,
                            "time" : 142,
                            "value" : 4.54918320506327,
                            "duration" : 30
                          },
                          {
                            "endTime" : 287,
                            "time" : 257,
                            "value" : 0.999999977775835,
                            "duration" : 30
                          },
                          {
                            "endTime" : 864,
                            "time" : 834,
                            "value" : 2.33593993169021,
                            "duration" : 30
                          },
                          {
                            "endTime" : 1197,
                            "time" : 1139,
                            "value" : 2.33593999314883,
                            "duration" : 58
                          },
                          {
                            "endTime" : 1910,
                            "time" : 1849,
                            "value" : 1.0,
                            "duration" : 61
                          }
                        ]
                      },
                      "scale1" : {
                        "type" : "double",
                        "defaultValue" : 1.0,
                        "keyframes" : [
                          {
                            "endTime" : 172,
                            "time" : 142,
                            "value" : 4.54918308493868,
                            "duration" : 30
                          },
                          {
                            "endTime" : 287,
                            "time" : 257,
                            "value" : 1.0,
                            "duration" : 30
                          },
                          {
                            "endTime" : 864,
                            "time" : 834,
                            "value" : 2.33593997834513,
                            "duration" : 30
                          },
                          {
                            "endTime" : 1910,
                            "time" : 1849,
                            "value" : 0.999999993662637,
                            "duration" : 61
                          }
                        ]
                      },
                      "cursorOpacity" : 1.0,
                      "cursorScale" : 1.0
                    },
                    "medias" : [
                        {
                          "id" : 93,
                          "_type" : "ScreenVMFile",
                          "src" : 2,
                          "trackNumber" : 0,
                          "attributes" : {
                            "ident" : "hijacking_ntfs_structs_attack"
                          },
                          "parameters" : {
                            "cursorScale" : {
                              "type" : "double",
                              "defaultValue" : 0.0,
                              "interp" : "linr"
                            },
                            "cursorOpacity" : {
                              "type" : "double",
                              "defaultValue" : 0.0,
                              "interp" : "linr"
                            }
                          },
                          "effects" : [

                          ],
                          "start" : 0,
                          "duration" : 212,
                          "mediaStart" : 0,
                          "mediaDuration" : 212,
                          "scalar" : 1,
                          "metadata" : {
                            "AutoAppliedSmartFocus" : "False",
                            "clipSpeedAttribute" : false,
                            "default-scale0" : 1.0,
                            "default-scale1" : 1.0,
                            "default-translation0" : 0.0,
                            "default-translation1" : 0.0
                          },
                          "animationTracks" : {

                          }
                        },
                        {
                          "id" : 94,
                          "_type" : "ScreenIMFile",
                          "src" : 2,
                          "trackNumber" : 0,
                          "trimStartSum" : 0,
                          "attributes" : {
                            "ident" : "hijacking_ntfs_structs_attack"
                          },
                          "parameters" : {
                            "cursorOpacity" : 0.0,
                            "cursorScale" : 0.0
                          },
                          "effects" : [

                          ],
                          "start" : 212,
                          "duration" : 45,
                          "mediaStart" : 211,
                          "mediaDuration" : 1,
                          "scalar" : 1,
                          "metadata" : {
                            "AutoAppliedSmartFocus" : "False"
                          },
                          "animationTracks" : {

                          }
                        },
                        {
                          "id" : 95,
                          "_type" : "ScreenVMFile",
                          "src" : 2,
                          "trackNumber" : 0,
                          "attributes" : {
                            "ident" : "hijacking_ntfs_structs_attack"
                          },
                          "parameters" : {
                            "cursorScale" : {
                              "type" : "double",
                              "defaultValue" : 0.0,
                              "interp" : "linr"
                            },
                            "cursorOpacity" : {
                              "type" : "double",
                              "defaultValue" : 0.0,
                              "interp" : "linr"
                            }
                          },
                          "effects" : [

                          ],
                          "start" : 257,
                          "duration" : 1542,
                          "mediaStart" : 212,
                          "mediaDuration" : 1542,
                          "scalar" : 1,
                          "metadata" : {
                            "AutoAppliedSmartFocus" : "False",
                            "clipSpeedAttribute" : false,
                            "default-scale0" : 1.0,
                            "default-scale1" : 1.0,
                            "default-translation0" : 0.0,
                            "default-translation1" : 0.0
                          },
                          "animationTracks" : {

                          }
                        },
                        {
                          "id" : 96,
                          "_type" : "ScreenIMFile",
                          "src" : 2,
                          "trackNumber" : 0,
                          "trimStartSum" : 0,
                          "attributes" : {
                            "ident" : "hijacking_ntfs_structs_attack"
                          },
                          "parameters" : {
                            "cursorOpacity" : 0.0,
                            "cursorScale" : 0.0
                          },
                          "effects" : [

                          ],
                          "start" : 1799,
                          "duration" : 150,
                          "mediaStart" : 1754,
                          "mediaDuration" : 1,
                          "scalar" : 1,
                          "metadata" : {
                            "AutoAppliedSmartFocus" : "False"
                          },
                          "animationTracks" : {

                          }
                        },
                        {
                          "id" : 97,
                          "_type" : "ScreenVMFile",
                          "src" : 2,
                          "trackNumber" : 0,
                          "attributes" : {
                            "ident" : "hijacking_ntfs_structs_attack"
                          },
                          "parameters" : {
                            "cursorScale" : {
                              "type" : "double",
                              "defaultValue" : 0.0,
                              "interp" : "linr"
                            },
                            "cursorOpacity" : {
                              "type" : "double",
                              "defaultValue" : 0.0,
                              "interp" : "linr"
                            }
                          },
                          "effects" : [

                          ],
                          "start" : 1949,
                          "duration" : 1281756,
                          "mediaStart" : 1754,
                          "mediaDuration" : 1281756,
                          "scalar" : 1,
                          "metadata" : {
                            "AutoAppliedSmartFocus" : "False",
                            "clipSpeedAttribute" : false,
                            "default-scale0" : 1.0,
                            "default-scale1" : 1.0,
                            "default-translation0" : 0.0,
                            "default-translation1" : 0.0
                          },
                          "animationTracks" : {

                          }
                        }
                    ],
                    "effects" : [
                        {
                          "effectName" : "CursorHilight",
                          "category" : "categoryCursorEffects",
                          "parameters" : {
                            "blur" : 0.1,
                            "color-alpha" : 0.75,
                            "color-blue" : 0.0,
                            "color-green" : 1.0,
                            "color-red" : 1.0,
                            "radius" : 50.0
                          }
                        }
                    ],
                    "start" : 1125,
                    "duration" : 149,
                    "mediaStart" : 1844,
                    "mediaDuration" : 149,
                    "scalar" : 1,
                    "metadata" : {
                      "AutoAppliedSmartFocus" : "False",
                      "clipSpeedAttribute" : true
                    },
                    "animationTracks" : {
                      "visual" : [
                        {
                          "endTime" : 172,
                          "duration" : 30,
                          "range" : [ 142, 30]
                        },
                        {
                          "endTime" : 287,
                          "duration" : 30,
                          "range" : [ 257, 30]
                        },
                        {
                          "endTime" : 864,
                          "duration" : 30,
                          "range" : [ 834, 30]
                        },
                        {
                          "endTime" : 1197,
                          "duration" : 58,
                          "range" : [ 1139, 58]
                        },
                        {
                          "endTime" : 1910,
                          "duration" : 61,
                          "range" : [ 1849, 61]
                        }
                      ]
                    }
                  },
                  {
                    "id" : 98,
                    "_type" : "StitchedMedia",
                    "minMediaStart" : 0,
                    "attributes" : {
                      "ident" : "hijacking_ntfs_structs_attack",
                      "gain" : 1.0,
                      "mixToMono" : false
                    },
                    "parameters" : {
                      "translation0" : {
                        "type" : "double",
                        "defaultValue" : 0.0,
                        "keyframes" : [
                          {
                            "endTime" : 172,
                            "time" : 142,
                            "value" : 4331.31223731553,
                            "duration" : 30
                          },
                          {
                            "endTime" : 287,
                            "time" : 257,
                            "value" : 5.6843418860808e-13,
                            "duration" : 30
                          },
                          {
                            "endTime" : 864,
                            "time" : 834,
                            "value" : 1642.08129557305,
                            "duration" : 30
                          },
                          {
                            "endTime" : 1197,
                            "time" : 1139,
                            "value" : 1642.08139278021,
                            "duration" : 58
                          },
                          {
                            "endTime" : 1910,
                            "time" : 1849,
                            "value" : -1.13686837721616e-13,
                            "duration" : 61
                          }
                        ]
                      },
                      "translation1" : {
                        "type" : "double",
                        "defaultValue" : 0.0,
                        "keyframes" : [
                          {
                            "endTime" : 172,
                            "time" : 142,
                            "value" : -2019.69283971535,
                            "duration" : 30
                          },
                          {
                            "endTime" : 287,
                            "time" : 257,
                            "value" : -2.8421709430404e-13,
                            "duration" : 30
                          },
                          {
                            "endTime" : 864,
                            "time" : 834,
                            "value" : -847.3,
                            "duration" : 30
                          },
                          {
                            "endTime" : 1197,
                            "time" : 1139,
                            "value" : -267.3,
                            "duration" : 58
                          },
                          {
                            "endTime" : 1910,
                            "time" : 1849,
                            "value" : 0.0,
                            "duration" : 61
                          }
                        ]
                      },
                      "scale0" : {
                        "type" : "double",
                        "defaultValue" : 1.0,
                        "keyframes" : [
                          {
                            "endTime" : 172,
                            "time" : 142,
                            "value" : 4.54918320506327,
                            "duration" : 30
                          },
                          {
                            "endTime" : 287,
                            "time" : 257,
                            "value" : 0.999999977775835,
                            "duration" : 30
                          },
                          {
                            "endTime" : 864,
                            "time" : 834,
                            "value" : 2.33593993169021,
                            "duration" : 30
                          },
                          {
                            "endTime" : 1197,
                            "time" : 1139,
                            "value" : 2.33593999314883,
                            "duration" : 58
                          },
                          {
                            "endTime" : 1910,
                            "time" : 1849,
                            "value" : 1.0,
                            "duration" : 61
                          }
                        ]
                      },
                      "scale1" : {
                        "type" : "double",
                        "defaultValue" : 1.0,
                        "keyframes" : [
                          {
                            "endTime" : 172,
                            "time" : 142,
                            "value" : 4.54918308493868,
                            "duration" : 30
                          },
                          {
                            "endTime" : 287,
                            "time" : 257,
                            "value" : 1.0,
                            "duration" : 30
                          },
                          {
                            "endTime" : 864,
                            "time" : 834,
                            "value" : 2.33593997834513,
                            "duration" : 30
                          },
                          {
                            "endTime" : 1910,
                            "time" : 1849,
                            "value" : 0.999999993662637,
                            "duration" : 61
                          }
                        ]
                      },
                      "cursorOpacity" : 1.0,
                      "cursorScale" : 1.0
                    },
                    "medias" : [
                        {
                          "id" : 99,
                          "_type" : "ScreenVMFile",
                          "src" : 2,
                          "trackNumber" : 0,
                          "attributes" : {
                            "ident" : "hijacking_ntfs_structs_attack"
                          },
                          "parameters" : {
                            "cursorScale" : {
                              "type" : "double",
                              "defaultValue" : 0.0,
                              "interp" : "linr"
                            },
                            "cursorOpacity" : {
                              "type" : "double",
                              "defaultValue" : 0.0,
                              "interp" : "linr"
                            }
                          },
                          "effects" : [

                          ],
                          "start" : 0,
                          "duration" : 212,
                          "mediaStart" : 0,
                          "mediaDuration" : 212,
                          "scalar" : 1,
                          "metadata" : {
                            "AutoAppliedSmartFocus" : "False",
                            "clipSpeedAttribute" : false,
                            "default-scale0" : 1.0,
                            "default-scale1" : 1.0,
                            "default-translation0" : 0.0,
                            "default-translation1" : 0.0
                          },
                          "animationTracks" : {

                          }
                        },
                        {
                          "id" : 100,
                          "_type" : "ScreenIMFile",
                          "src" : 2,
                          "trackNumber" : 0,
                          "trimStartSum" : 0,
                          "attributes" : {
                            "ident" : "hijacking_ntfs_structs_attack"
                          },
                          "parameters" : {
                            "cursorOpacity" : 0.0,
                            "cursorScale" : 0.0
                          },
                          "effects" : [

                          ],
                          "start" : 212,
                          "duration" : 45,
                          "mediaStart" : 211,
                          "mediaDuration" : 1,
                          "scalar" : 1,
                          "metadata" : {
                            "AutoAppliedSmartFocus" : "False"
                          },
                          "animationTracks" : {

                          }
                        },
                        {
                          "id" : 101,
                          "_type" : "ScreenVMFile",
                          "src" : 2,
                          "trackNumber" : 0,
                          "attributes" : {
                            "ident" : "hijacking_ntfs_structs_attack"
                          },
                          "parameters" : {
                            "cursorScale" : {
                              "type" : "double",
                              "defaultValue" : 0.0,
                              "interp" : "linr"
                            },
                            "cursorOpacity" : {
                              "type" : "double",
                              "defaultValue" : 0.0,
                              "interp" : "linr"
                            }
                          },
                          "effects" : [

                          ],
                          "start" : 257,
                          "duration" : 1542,
                          "mediaStart" : 212,
                          "mediaDuration" : 1542,
                          "scalar" : 1,
                          "metadata" : {
                            "AutoAppliedSmartFocus" : "False",
                            "clipSpeedAttribute" : false,
                            "default-scale0" : 1.0,
                            "default-scale1" : 1.0,
                            "default-translation0" : 0.0,
                            "default-translation1" : 0.0
                          },
                          "animationTracks" : {

                          }
                        },
                        {
                          "id" : 102,
                          "_type" : "ScreenIMFile",
                          "src" : 2,
                          "trackNumber" : 0,
                          "trimStartSum" : 0,
                          "attributes" : {
                            "ident" : "hijacking_ntfs_structs_attack"
                          },
                          "parameters" : {
                            "cursorOpacity" : 0.0,
                            "cursorScale" : 0.0
                          },
                          "effects" : [

                          ],
                          "start" : 1799,
                          "duration" : 150,
                          "mediaStart" : 1754,
                          "mediaDuration" : 1,
                          "scalar" : 1,
                          "metadata" : {
                            "AutoAppliedSmartFocus" : "False"
                          },
                          "animationTracks" : {

                          }
                        },
                        {
                          "id" : 103,
                          "_type" : "ScreenVMFile",
                          "src" : 2,
                          "trackNumber" : 0,
                          "attributes" : {
                            "ident" : "hijacking_ntfs_structs_attack"
                          },
                          "parameters" : {
                            "cursorScale" : {
                              "type" : "double",
                              "defaultValue" : 0.0,
                              "interp" : "linr"
                            },
                            "cursorOpacity" : {
                              "type" : "double",
                              "defaultValue" : 0.0,
                              "interp" : "linr"
                            }
                          },
                          "effects" : [

                          ],
                          "start" : 1949,
                          "duration" : 1281756,
                          "mediaStart" : 1754,
                          "mediaDuration" : 1281756,
                          "scalar" : 1,
                          "metadata" : {
                            "AutoAppliedSmartFocus" : "False",
                            "clipSpeedAttribute" : false,
                            "default-scale0" : 1.0,
                            "default-scale1" : 1.0,
                            "default-translation0" : 0.0,
                            "default-translation1" : 0.0
                          },
                          "animationTracks" : {

                          }
                        }
                    ],
                    "effects" : [
                        {
                          "effectName" : "CursorHilight",
                          "category" : "categoryCursorEffects",
                          "parameters" : {
                            "blur" : 0.1,
                            "color-alpha" : 0.75,
                            "color-blue" : 0.0,
                            "color-green" : 1.0,
                            "color-red" : 1.0,
                            "radius" : 50.0
                          }
                        }
                    ],
                    "start" : 1274,
                    "duration" : 185,
                    "mediaStart" : 1993,
                    "mediaDuration" : "13774/49",
                    "scalar" : "9065/13774",
                    "metadata" : {
                      "AutoAppliedSmartFocus" : "False",
                      "clipSpeedAttribute" : true
                    },
                    "animationTracks" : {
                      "visual" : [
                        {
                          "endTime" : 172,
                          "duration" : 30,
                          "range" : [ 142, 30]
                        },
                        {
                          "endTime" : 287,
                          "duration" : 30,
                          "range" : [ 257, 30]
                        },
                        {
                          "endTime" : 864,
                          "duration" : 30,
                          "range" : [ 834, 30]
                        },
                        {
                          "endTime" : 1197,
                          "duration" : 58,
                          "range" : [ 1139, 58]
                        },
                        {
                          "endTime" : 1910,
                          "duration" : 61,
                          "range" : [ 1849, 61]
                        }
                      ]
                    }
                  },
                  {
                    "id" : 104,
                    "_type" : "StitchedMedia",
                    "minMediaStart" : 0,
                    "attributes" : {
                      "ident" : "hijacking_ntfs_structs_attack",
                      "gain" : 1.0,
                      "mixToMono" : false
                    },
                    "parameters" : {
                      "translation0" : {
                        "type" : "double",
                        "defaultValue" : 0.0,
                        "keyframes" : [
                          {
                            "endTime" : 172,
                            "time" : 142,
                            "value" : 4331.31223731553,
                            "duration" : 30
                          },
                          {
                            "endTime" : 287,
                            "time" : 257,
                            "value" : 5.6843418860808e-13,
                            "duration" : 30
                          },
                          {
                            "endTime" : 864,
                            "time" : 834,
                            "value" : 1642.08129557305,
                            "duration" : 30
                          },
                          {
                            "endTime" : 1197,
                            "time" : 1139,
                            "value" : 1642.08139278021,
                            "duration" : 58
                          },
                          {
                            "endTime" : 1910,
                            "time" : 1849,
                            "value" : -1.13686837721616e-13,
                            "duration" : 61
                          },
                          {
                            "endTime" : "114510/49",
                            "time" : 2277,
                            "value" : -820.380233071137,
                            "duration" : "2937/49"
                          }
                        ]
                      },
                      "translation1" : {
                        "type" : "double",
                        "defaultValue" : 0.0,
                        "keyframes" : [
                          {
                            "endTime" : 172,
                            "time" : 142,
                            "value" : -2019.69283971535,
                            "duration" : 30
                          },
                          {
                            "endTime" : 287,
                            "time" : 257,
                            "value" : -2.8421709430404e-13,
                            "duration" : 30
                          },
                          {
                            "endTime" : 864,
                            "time" : 834,
                            "value" : -847.3,
                            "duration" : 30
                          },
                          {
                            "endTime" : 1197,
                            "time" : 1139,
                            "value" : -267.3,
                            "duration" : 58
                          },
                          {
                            "endTime" : 1910,
                            "time" : 1849,
                            "value" : 0.0,
                            "duration" : 61
                          },
                          {
                            "endTime" : "114510/49",
                            "time" : 2277,
                            "value" : 209.75628680721,
                            "duration" : "2937/49"
                          }
                        ]
                      },
                      "scale0" : {
                        "type" : "double",
                        "defaultValue" : 1.0,
                        "keyframes" : [
                          {
                            "endTime" : 172,
                            "time" : 142,
                            "value" : 4.54918320506327,
                            "duration" : 30
                          },
                          {
                            "endTime" : 287,
                            "time" : 257,
                            "value" : 0.999999977775835,
                            "duration" : 30
                          },
                          {
                            "endTime" : 864,
                            "time" : 834,
                            "value" : 2.33593993169021,
                            "duration" : 30
                          },
                          {
                            "endTime" : 1197,
                            "time" : 1139,
                            "value" : 2.33593999314883,
                            "duration" : 58
                          },
                          {
                            "endTime" : 1910,
                            "time" : 1849,
                            "value" : 1.0,
                            "duration" : 61
                          },
                          {
                            "endTime" : "114510/49",
                            "time" : 2277,
                            "value" : 2.0985722162939,
                            "duration" : "2937/49"
                          }
                        ]
                      },
                      "scale1" : {
                        "type" : "double",
                        "defaultValue" : 1.0,
                        "keyframes" : [
                          {
                            "endTime" : 172,
                            "time" : 142,
                            "value" : 4.54918308493868,
                            "duration" : 30
                          },
                          {
                            "endTime" : 287,
                            "time" : 257,
                            "value" : 1.0,
                            "duration" : 30
                          },
                          {
                            "endTime" : 864,
                            "time" : 834,
                            "value" : 2.33593997834513,
                            "duration" : 30
                          },
                          {
                            "endTime" : 1910,
                            "time" : 1849,
                            "value" : 0.999999993662637,
                            "duration" : 61
                          },
                          {
                            "endTime" : "114510/49",
                            "time" : 2277,
                            "value" : 2.09857179682057,
                            "duration" : "2937/49"
                          }
                        ]
                      },
                      "cursorOpacity" : 1.0,
                      "cursorScale" : 1.0
                    },
                    "medias" : [
                        {
                          "id" : 105,
                          "_type" : "ScreenVMFile",
                          "src" : 2,
                          "trackNumber" : 0,
                          "attributes" : {
                            "ident" : "hijacking_ntfs_structs_attack"
                          },
                          "parameters" : {
                            "cursorScale" : {
                              "type" : "double",
                              "defaultValue" : 0.0,
                              "interp" : "linr"
                            },
                            "cursorOpacity" : {
                              "type" : "double",
                              "defaultValue" : 0.0,
                              "interp" : "linr"
                            }
                          },
                          "effects" : [

                          ],
                          "start" : 0,
                          "duration" : 212,
                          "mediaStart" : 0,
                          "mediaDuration" : 212,
                          "scalar" : 1,
                          "metadata" : {
                            "AutoAppliedSmartFocus" : "False",
                            "clipSpeedAttribute" : false,
                            "default-scale0" : 1.0,
                            "default-scale1" : 1.0,
                            "default-translation0" : 0.0,
                            "default-translation1" : 0.0
                          },
                          "animationTracks" : {

                          }
                        },
                        {
                          "id" : 106,
                          "_type" : "ScreenIMFile",
                          "src" : 2,
                          "trackNumber" : 0,
                          "trimStartSum" : 0,
                          "attributes" : {
                            "ident" : "hijacking_ntfs_structs_attack"
                          },
                          "parameters" : {
                            "cursorOpacity" : 0.0,
                            "cursorScale" : 0.0
                          },
                          "effects" : [

                          ],
                          "start" : 212,
                          "duration" : 45,
                          "mediaStart" : 211,
                          "mediaDuration" : 1,
                          "scalar" : 1,
                          "metadata" : {
                            "AutoAppliedSmartFocus" : "False"
                          },
                          "animationTracks" : {

                          }
                        },
                        {
                          "id" : 107,
                          "_type" : "ScreenVMFile",
                          "src" : 2,
                          "trackNumber" : 0,
                          "attributes" : {
                            "ident" : "hijacking_ntfs_structs_attack"
                          },
                          "parameters" : {
                            "cursorScale" : {
                              "type" : "double",
                              "defaultValue" : 0.0,
                              "interp" : "linr"
                            },
                            "cursorOpacity" : {
                              "type" : "double",
                              "defaultValue" : 0.0,
                              "interp" : "linr"
                            }
                          },
                          "effects" : [

                          ],
                          "start" : 257,
                          "duration" : 1542,
                          "mediaStart" : 212,
                          "mediaDuration" : 1542,
                          "scalar" : 1,
                          "metadata" : {
                            "AutoAppliedSmartFocus" : "False",
                            "clipSpeedAttribute" : false,
                            "default-scale0" : 1.0,
                            "default-scale1" : 1.0,
                            "default-translation0" : 0.0,
                            "default-translation1" : 0.0
                          },
                          "animationTracks" : {

                          }
                        },
                        {
                          "id" : 108,
                          "_type" : "ScreenIMFile",
                          "src" : 2,
                          "trackNumber" : 0,
                          "trimStartSum" : 0,
                          "attributes" : {
                            "ident" : "hijacking_ntfs_structs_attack"
                          },
                          "parameters" : {
                            "cursorOpacity" : 0.0,
                            "cursorScale" : 0.0
                          },
                          "effects" : [

                          ],
                          "start" : 1799,
                          "duration" : 150,
                          "mediaStart" : 1754,
                          "mediaDuration" : 1,
                          "scalar" : 1,
                          "metadata" : {
                            "AutoAppliedSmartFocus" : "False"
                          },
                          "animationTracks" : {

                          }
                        },
                        {
                          "id" : 109,
                          "_type" : "ScreenVMFile",
                          "src" : 2,
                          "trackNumber" : 0,
                          "attributes" : {
                            "ident" : "hijacking_ntfs_structs_attack"
                          },
                          "parameters" : {
                            "cursorScale" : {
                              "type" : "double",
                              "defaultValue" : 0.0,
                              "interp" : "linr"
                            },
                            "cursorOpacity" : {
                              "type" : "double",
                              "defaultValue" : 0.0,
                              "interp" : "linr"
                            }
                          },
                          "effects" : [

                          ],
                          "start" : 1949,
                          "duration" : 1281756,
                          "mediaStart" : 1754,
                          "mediaDuration" : 1281756,
                          "scalar" : 1,
                          "metadata" : {
                            "AutoAppliedSmartFocus" : "False",
                            "clipSpeedAttribute" : false,
                            "default-scale0" : 1.0,
                            "default-scale1" : 1.0,
                            "default-translation0" : 0.0,
                            "default-translation1" : 0.0
                          },
                          "animationTracks" : {

                          }
                        }
                    ],
                    "effects" : [
                        {
                          "effectName" : "CursorHilight",
                          "category" : "categoryCursorEffects",
                          "parameters" : {
                            "blur" : 0.1,
                            "color-alpha" : 0.75,
                            "color-blue" : 0.0,
                            "color-green" : 1.0,
                            "color-red" : 1.0,
                            "radius" : 50.0
                          }
                        }
                    ],
                    "start" : 1459,
                    "duration" : 98,
                    "mediaStart" : 2277,
                    "mediaDuration" : 267,
                    "scalar" : "98/267",
                    "metadata" : {
                      "AutoAppliedSmartFocus" : "False",
                      "clipSpeedAttribute" : true,
                      "default-scale0" : 1.0,
                      "default-scale1" : 0.999999993662637,
                      "default-translation0" : -1.13686837721616e-13,
                      "default-translation1" : 0.0
                    },
                    "animationTracks" : {
                      "visual" : [
                        {
                          "endTime" : 172,
                          "duration" : 30,
                          "range" : [ 142, 30]
                        },
                        {
                          "endTime" : 287,
                          "duration" : 30,
                          "range" : [ 257, 30]
                        },
                        {
                          "endTime" : 864,
                          "duration" : 30,
                          "range" : [ 834, 30]
                        },
                        {
                          "endTime" : 1197,
                          "duration" : 58,
                          "range" : [ 1139, 58]
                        },
                        {
                          "endTime" : 1910,
                          "duration" : 61,
                          "range" : [ 1849, 61]
                        },
                        {
                          "endTime" : "114510/49",
                          "duration" : "2937/49",
                          "range" : [ 2277, "2937/49"]
                        }
                      ]
                    }
                  },
                  {
                    "id" : 110,
                    "_type" : "StitchedMedia",
                    "minMediaStart" : 0,
                    "attributes" : {
                      "ident" : "hijacking_ntfs_structs_attack",
                      "gain" : 1.0,
                      "mixToMono" : false
                    },
                    "parameters" : {
                      "translation0" : {
                        "type" : "double",
                        "defaultValue" : 0.0,
                        "keyframes" : [
                          {
                            "endTime" : 172,
                            "time" : 142,
                            "value" : 4331.31223731553,
                            "duration" : 30
                          },
                          {
                            "endTime" : 287,
                            "time" : 257,
                            "value" : 5.6843418860808e-13,
                            "duration" : 30
                          },
                          {
                            "endTime" : 864,
                            "time" : 834,
                            "value" : 1642.08129557305,
                            "duration" : 30
                          },
                          {
                            "endTime" : 1197,
                            "time" : 1139,
                            "value" : 1642.08139278021,
                            "duration" : 58
                          },
                          {
                            "endTime" : 1910,
                            "time" : 1849,
                            "value" : -1.13686837721616e-13,
                            "duration" : 61
                          },
                          {
                            "endTime" : 2325,
                            "time" : 2277,
                            "value" : -820.380233071137,
                            "duration" : 48
                          },
                          {
                            "endTime" : 2579,
                            "time" : 2544,
                            "value" : -820.380080286275,
                            "duration" : 35
                          }
                        ]
                      },
                      "translation1" : {
                        "type" : "double",
                        "defaultValue" : 0.0,
                        "keyframes" : [
                          {
                            "endTime" : 172,
                            "time" : 142,
                            "value" : -2019.69283971535,
                            "duration" : 30
                          },
                          {
                            "endTime" : 287,
                            "time" : 257,
                            "value" : -2.8421709430404e-13,
                            "duration" : 30
                          },
                          {
                            "endTime" : 864,
                            "time" : 834,
                            "value" : -847.3,
                            "duration" : 30
                          },
                          {
                            "endTime" : 1197,
                            "time" : 1139,
                            "value" : -267.3,
                            "duration" : 58
                          },
                          {
                            "endTime" : 1910,
                            "time" : 1849,
                            "value" : 0.0,
                            "duration" : 61
                          },
                          {
                            "endTime" : 2325,
                            "time" : 2277,
                            "value" : 209.75628680721,
                            "duration" : 48
                          },
                          {
                            "endTime" : 2579,
                            "time" : 2544,
                            "value" : 624.692359618563,
                            "duration" : 35
                          }
                        ]
                      },
                      "scale0" : {
                        "type" : "double",
                        "defaultValue" : 1.0,
                        "keyframes" : [
                          {
                            "endTime" : 172,
                            "time" : 142,
                            "value" : 4.54918320506327,
                            "duration" : 30
                          },
                          {
                            "endTime" : 287,
                            "time" : 257,
                            "value" : 0.999999977775835,
                            "duration" : 30
                          },
                          {
                            "endTime" : 864,
                            "time" : 834,
                            "value" : 2.33593993169021,
                            "duration" : 30
                          },
                          {
                            "endTime" : 1197,
                            "time" : 1139,
                            "value" : 2.33593999314883,
                            "duration" : 58
                          },
                          {
                            "endTime" : 1910,
                            "time" : 1849,
                            "value" : 1.0,
                            "duration" : 61
                          },
                          {
                            "endTime" : 2325,
                            "time" : 2277,
                            "value" : 2.0985722162939,
                            "duration" : 48
                          },
                          {
                            "endTime" : 2579,
                            "time" : 2544,
                            "value" : 2.09857267425397,
                            "duration" : 35
                          }
                        ]
                      },
                      "scale1" : {
                        "type" : "double",
                        "defaultValue" : 1.0,
                        "keyframes" : [
                          {
                            "endTime" : 172,
                            "time" : 142,
                            "value" : 4.54918308493868,
                            "duration" : 30
                          },
                          {
                            "endTime" : 287,
                            "time" : 257,
                            "value" : 1.0,
                            "duration" : 30
                          },
                          {
                            "endTime" : 864,
                            "time" : 834,
                            "value" : 2.33593997834513,
                            "duration" : 30
                          },
                          {
                            "endTime" : 1910,
                            "time" : 1849,
                            "value" : 0.999999993662637,
                            "duration" : 61
                          },
                          {
                            "endTime" : 2325,
                            "time" : 2277,
                            "value" : 2.09857179682057,
                            "duration" : 48
                          }
                        ]
                      },
                      "cursorOpacity" : 1.0,
                      "cursorScale" : 1.0
                    },
                    "medias" : [
                        {
                          "id" : 111,
                          "_type" : "ScreenVMFile",
                          "src" : 2,
                          "trackNumber" : 0,
                          "attributes" : {
                            "ident" : "hijacking_ntfs_structs_attack"
                          },
                          "parameters" : {
                            "cursorScale" : {
                              "type" : "double",
                              "defaultValue" : 0.0,
                              "interp" : "linr"
                            },
                            "cursorOpacity" : {
                              "type" : "double",
                              "defaultValue" : 0.0,
                              "interp" : "linr"
                            }
                          },
                          "effects" : [

                          ],
                          "start" : 0,
                          "duration" : 212,
                          "mediaStart" : 0,
                          "mediaDuration" : 212,
                          "scalar" : 1,
                          "metadata" : {
                            "AutoAppliedSmartFocus" : "False",
                            "clipSpeedAttribute" : false,
                            "default-scale0" : 1.0,
                            "default-scale1" : 1.0,
                            "default-translation0" : 0.0,
                            "default-translation1" : 0.0
                          },
                          "animationTracks" : {

                          }
                        },
                        {
                          "id" : 112,
                          "_type" : "ScreenIMFile",
                          "src" : 2,
                          "trackNumber" : 0,
                          "trimStartSum" : 0,
                          "attributes" : {
                            "ident" : "hijacking_ntfs_structs_attack"
                          },
                          "parameters" : {
                            "cursorOpacity" : 0.0,
                            "cursorScale" : 0.0
                          },
                          "effects" : [

                          ],
                          "start" : 212,
                          "duration" : 45,
                          "mediaStart" : 211,
                          "mediaDuration" : 1,
                          "scalar" : 1,
                          "metadata" : {
                            "AutoAppliedSmartFocus" : "False"
                          },
                          "animationTracks" : {

                          }
                        },
                        {
                          "id" : 113,
                          "_type" : "ScreenVMFile",
                          "src" : 2,
                          "trackNumber" : 0,
                          "attributes" : {
                            "ident" : "hijacking_ntfs_structs_attack"
                          },
                          "parameters" : {
                            "cursorScale" : {
                              "type" : "double",
                              "defaultValue" : 0.0,
                              "interp" : "linr"
                            },
                            "cursorOpacity" : {
                              "type" : "double",
                              "defaultValue" : 0.0,
                              "interp" : "linr"
                            }
                          },
                          "effects" : [

                          ],
                          "start" : 257,
                          "duration" : 1542,
                          "mediaStart" : 212,
                          "mediaDuration" : 1542,
                          "scalar" : 1,
                          "metadata" : {
                            "AutoAppliedSmartFocus" : "False",
                            "clipSpeedAttribute" : false,
                            "default-scale0" : 1.0,
                            "default-scale1" : 1.0,
                            "default-translation0" : 0.0,
                            "default-translation1" : 0.0
                          },
                          "animationTracks" : {

                          }
                        },
                        {
                          "id" : 114,
                          "_type" : "ScreenIMFile",
                          "src" : 2,
                          "trackNumber" : 0,
                          "trimStartSum" : 0,
                          "attributes" : {
                            "ident" : "hijacking_ntfs_structs_attack"
                          },
                          "parameters" : {
                            "cursorOpacity" : 0.0,
                            "cursorScale" : 0.0
                          },
                          "effects" : [

                          ],
                          "start" : 1799,
                          "duration" : 150,
                          "mediaStart" : 1754,
                          "mediaDuration" : 1,
                          "scalar" : 1,
                          "metadata" : {
                            "AutoAppliedSmartFocus" : "False"
                          },
                          "animationTracks" : {

                          }
                        },
                        {
                          "id" : 115,
                          "_type" : "ScreenVMFile",
                          "src" : 2,
                          "trackNumber" : 0,
                          "attributes" : {
                            "ident" : "hijacking_ntfs_structs_attack"
                          },
                          "parameters" : {
                            "cursorScale" : {
                              "type" : "double",
                              "defaultValue" : 0.0,
                              "interp" : "linr"
                            },
                            "cursorOpacity" : {
                              "type" : "double",
                              "defaultValue" : 0.0,
                              "interp" : "linr"
                            }
                          },
                          "effects" : [

                          ],
                          "start" : 1949,
                          "duration" : 634,
                          "mediaStart" : 1754,
                          "mediaDuration" : 634,
                          "scalar" : 1,
                          "metadata" : {
                            "AutoAppliedSmartFocus" : "False",
                            "clipSpeedAttribute" : false,
                            "default-scale0" : 1.0,
                            "default-scale1" : 1.0,
                            "default-translation0" : 0.0,
                            "default-translation1" : 0.0
                          },
                          "animationTracks" : {

                          }
                        },
                        {
                          "id" : 116,
                          "_type" : "ScreenIMFile",
                          "src" : 2,
                          "trackNumber" : 0,
                          "trimStartSum" : 0,
                          "attributes" : {
                            "ident" : "hijacking_ntfs_structs_attack"
                          },
                          "parameters" : {
                            "cursorOpacity" : 0.0,
                            "cursorScale" : 0.0
                          },
                          "effects" : [

                          ],
                          "start" : 2583,
                          "duration" : 300,
                          "mediaStart" : 2388,
                          "mediaDuration" : 1,
                          "scalar" : 1,
                          "metadata" : {
                            "AutoAppliedSmartFocus" : "False"
                          },
                          "animationTracks" : {

                          }
                        },
                        {
                          "id" : 117,
                          "_type" : "ScreenVMFile",
                          "src" : 2,
                          "trackNumber" : 0,
                          "attributes" : {
                            "ident" : "hijacking_ntfs_structs_attack"
                          },
                          "parameters" : {
                            "cursorScale" : {
                              "type" : "double",
                              "defaultValue" : 0.0,
                              "interp" : "linr"
                            },
                            "cursorOpacity" : {
                              "type" : "double",
                              "defaultValue" : 0.0,
                              "interp" : "linr"
                            }
                          },
                          "effects" : [

                          ],
                          "start" : 2883,
                          "duration" : 1281122,
                          "mediaStart" : 2388,
                          "mediaDuration" : 1281122,
                          "scalar" : 1,
                          "metadata" : {
                            "AutoAppliedSmartFocus" : "False",
                            "clipSpeedAttribute" : false,
                            "default-scale0" : 1.0,
                            "default-scale1" : 1.0,
                            "default-translation0" : 0.0,
                            "default-translation1" : 0.0
                          },
                          "animationTracks" : {

                          }
                        }
                    ],
                    "effects" : [
                        {
                          "effectName" : "CursorHilight",
                          "category" : "categoryCursorEffects",
                          "parameters" : {
                            "blur" : 0.1,
                            "color-alpha" : 0.75,
                            "color-blue" : 0.0,
                            "color-green" : 1.0,
                            "color-red" : 1.0,
                            "radius" : 50.0
                          }
                        }
                    ],
                    "start" : 1557,
                    "duration" : 282,
                    "mediaStart" : 2544,
                    "mediaDuration" : 282,
                    "scalar" : 1,
                    "metadata" : {
                      "AutoAppliedSmartFocus" : "False",
                      "clipSpeedAttribute" : false
                    },
                    "animationTracks" : {
                      "visual" : [
                        {
                          "endTime" : 172,
                          "duration" : 30,
                          "range" : [ 142, 30]
                        },
                        {
                          "endTime" : 287,
                          "duration" : 30,
                          "range" : [ 257, 30]
                        },
                        {
                          "endTime" : 864,
                          "duration" : 30,
                          "range" : [ 834, 30]
                        },
                        {
                          "endTime" : 1197,
                          "duration" : 58,
                          "range" : [ 1139, 58]
                        },
                        {
                          "endTime" : 1910,
                          "duration" : 61,
                          "range" : [ 1849, 61]
                        },
                        {
                          "endTime" : 2325,
                          "duration" : 48,
                          "range" : [ 2277, 48]
                        },
                        {
                          "endTime" : 2579,
                          "duration" : 35,
                          "range" : [ 2544, 35]
                        }
                      ]
                    }
                  },
                  {
                    "id" : 118,
                    "_type" : "StitchedMedia",
                    "minMediaStart" : 0,
                    "attributes" : {
                      "ident" : "hijacking_ntfs_structs_attack",
                      "gain" : 1.0,
                      "mixToMono" : false
                    },
                    "parameters" : {
                      "translation0" : {
                        "type" : "double",
                        "defaultValue" : 0.0,
                        "keyframes" : [
                          {
                            "endTime" : 172,
                            "time" : 142,
                            "value" : 4331.31223731553,
                            "duration" : 30
                          },
                          {
                            "endTime" : 287,
                            "time" : 257,
                            "value" : 5.6843418860808e-13,
                            "duration" : 30
                          },
                          {
                            "endTime" : 864,
                            "time" : 834,
                            "value" : 1642.08129557305,
                            "duration" : 30
                          },
                          {
                            "endTime" : 1197,
                            "time" : 1139,
                            "value" : 1642.08139278021,
                            "duration" : 58
                          },
                          {
                            "endTime" : 1910,
                            "time" : 1849,
                            "value" : -1.13686837721616e-13,
                            "duration" : 61
                          },
                          {
                            "endTime" : 2325,
                            "time" : 2277,
                            "value" : -820.380233071137,
                            "duration" : 48
                          },
                          {
                            "endTime" : 2579,
                            "time" : 2544,
                            "value" : -820.380080286275,
                            "duration" : 35
                          }
                        ]
                      },
                      "translation1" : {
                        "type" : "double",
                        "defaultValue" : 0.0,
                        "keyframes" : [
                          {
                            "endTime" : 172,
                            "time" : 142,
                            "value" : -2019.69283971535,
                            "duration" : 30
                          },
                          {
                            "endTime" : 287,
                            "time" : 257,
                            "value" : -2.8421709430404e-13,
                            "duration" : 30
                          },
                          {
                            "endTime" : 864,
                            "time" : 834,
                            "value" : -847.3,
                            "duration" : 30
                          },
                          {
                            "endTime" : 1197,
                            "time" : 1139,
                            "value" : -267.3,
                            "duration" : 58
                          },
                          {
                            "endTime" : 1910,
                            "time" : 1849,
                            "value" : 0.0,
                            "duration" : 61
                          },
                          {
                            "endTime" : 2325,
                            "time" : 2277,
                            "value" : 209.75628680721,
                            "duration" : 48
                          },
                          {
                            "endTime" : 2579,
                            "time" : 2544,
                            "value" : 624.692359618563,
                            "duration" : 35
                          }
                        ]
                      },
                      "scale0" : {
                        "type" : "double",
                        "defaultValue" : 1.0,
                        "keyframes" : [
                          {
                            "endTime" : 172,
                            "time" : 142,
                            "value" : 4.54918320506327,
                            "duration" : 30
                          },
                          {
                            "endTime" : 287,
                            "time" : 257,
                            "value" : 0.999999977775835,
                            "duration" : 30
                          },
                          {
                            "endTime" : 864,
                            "time" : 834,
                            "value" : 2.33593993169021,
                            "duration" : 30
                          },
                          {
                            "endTime" : 1197,
                            "time" : 1139,
                            "value" : 2.33593999314883,
                            "duration" : 58
                          },
                          {
                            "endTime" : 1910,
                            "time" : 1849,
                            "value" : 1.0,
                            "duration" : 61
                          },
                          {
                            "endTime" : 2325,
                            "time" : 2277,
                            "value" : 2.0985722162939,
                            "duration" : 48
                          },
                          {
                            "endTime" : 2579,
                            "time" : 2544,
                            "value" : 2.09857267425397,
                            "duration" : 35
                          }
                        ]
                      },
                      "scale1" : {
                        "type" : "double",
                        "defaultValue" : 1.0,
                        "keyframes" : [
                          {
                            "endTime" : 172,
                            "time" : 142,
                            "value" : 4.54918308493868,
                            "duration" : 30
                          },
                          {
                            "endTime" : 287,
                            "time" : 257,
                            "value" : 1.0,
                            "duration" : 30
                          },
                          {
                            "endTime" : 864,
                            "time" : 834,
                            "value" : 2.33593997834513,
                            "duration" : 30
                          },
                          {
                            "endTime" : 1910,
                            "time" : 1849,
                            "value" : 0.999999993662637,
                            "duration" : 61
                          },
                          {
                            "endTime" : 2325,
                            "time" : 2277,
                            "value" : 2.09857179682057,
                            "duration" : 48
                          }
                        ]
                      },
                      "cursorOpacity" : 1.0,
                      "cursorScale" : 1.0
                    },
                    "medias" : [
                        {
                          "id" : 119,
                          "_type" : "ScreenVMFile",
                          "src" : 2,
                          "trackNumber" : 0,
                          "attributes" : {
                            "ident" : "hijacking_ntfs_structs_attack"
                          },
                          "parameters" : {
                            "cursorScale" : {
                              "type" : "double",
                              "defaultValue" : 0.0,
                              "interp" : "linr"
                            },
                            "cursorOpacity" : {
                              "type" : "double",
                              "defaultValue" : 0.0,
                              "interp" : "linr"
                            }
                          },
                          "effects" : [

                          ],
                          "start" : 0,
                          "duration" : 212,
                          "mediaStart" : 0,
                          "mediaDuration" : 212,
                          "scalar" : 1,
                          "metadata" : {
                            "AutoAppliedSmartFocus" : "False",
                            "clipSpeedAttribute" : false,
                            "default-scale0" : 1.0,
                            "default-scale1" : 1.0,
                            "default-translation0" : 0.0,
                            "default-translation1" : 0.0
                          },
                          "animationTracks" : {

                          }
                        },
                        {
                          "id" : 120,
                          "_type" : "ScreenIMFile",
                          "src" : 2,
                          "trackNumber" : 0,
                          "trimStartSum" : 0,
                          "attributes" : {
                            "ident" : "hijacking_ntfs_structs_attack"
                          },
                          "parameters" : {
                            "cursorOpacity" : 0.0,
                            "cursorScale" : 0.0
                          },
                          "effects" : [

                          ],
                          "start" : 212,
                          "duration" : 45,
                          "mediaStart" : 211,
                          "mediaDuration" : 1,
                          "scalar" : 1,
                          "metadata" : {
                            "AutoAppliedSmartFocus" : "False"
                          },
                          "animationTracks" : {

                          }
                        },
                        {
                          "id" : 121,
                          "_type" : "ScreenVMFile",
                          "src" : 2,
                          "trackNumber" : 0,
                          "attributes" : {
                            "ident" : "hijacking_ntfs_structs_attack"
                          },
                          "parameters" : {
                            "cursorScale" : {
                              "type" : "double",
                              "defaultValue" : 0.0,
                              "interp" : "linr"
                            },
                            "cursorOpacity" : {
                              "type" : "double",
                              "defaultValue" : 0.0,
                              "interp" : "linr"
                            }
                          },
                          "effects" : [

                          ],
                          "start" : 257,
                          "duration" : 1542,
                          "mediaStart" : 212,
                          "mediaDuration" : 1542,
                          "scalar" : 1,
                          "metadata" : {
                            "AutoAppliedSmartFocus" : "False",
                            "clipSpeedAttribute" : false,
                            "default-scale0" : 1.0,
                            "default-scale1" : 1.0,
                            "default-translation0" : 0.0,
                            "default-translation1" : 0.0
                          },
                          "animationTracks" : {

                          }
                        },
                        {
                          "id" : 122,
                          "_type" : "ScreenIMFile",
                          "src" : 2,
                          "trackNumber" : 0,
                          "trimStartSum" : 0,
                          "attributes" : {
                            "ident" : "hijacking_ntfs_structs_attack"
                          },
                          "parameters" : {
                            "cursorOpacity" : 0.0,
                            "cursorScale" : 0.0
                          },
                          "effects" : [

                          ],
                          "start" : 1799,
                          "duration" : 150,
                          "mediaStart" : 1754,
                          "mediaDuration" : 1,
                          "scalar" : 1,
                          "metadata" : {
                            "AutoAppliedSmartFocus" : "False"
                          },
                          "animationTracks" : {

                          }
                        },
                        {
                          "id" : 123,
                          "_type" : "ScreenVMFile",
                          "src" : 2,
                          "trackNumber" : 0,
                          "attributes" : {
                            "ident" : "hijacking_ntfs_structs_attack"
                          },
                          "parameters" : {
                            "cursorScale" : {
                              "type" : "double",
                              "defaultValue" : 0.0,
                              "interp" : "linr"
                            },
                            "cursorOpacity" : {
                              "type" : "double",
                              "defaultValue" : 0.0,
                              "interp" : "linr"
                            }
                          },
                          "effects" : [

                          ],
                          "start" : 1949,
                          "duration" : 634,
                          "mediaStart" : 1754,
                          "mediaDuration" : 634,
                          "scalar" : 1,
                          "metadata" : {
                            "AutoAppliedSmartFocus" : "False",
                            "clipSpeedAttribute" : false,
                            "default-scale0" : 1.0,
                            "default-scale1" : 1.0,
                            "default-translation0" : 0.0,
                            "default-translation1" : 0.0
                          },
                          "animationTracks" : {

                          }
                        },
                        {
                          "id" : 124,
                          "_type" : "ScreenIMFile",
                          "src" : 2,
                          "trackNumber" : 0,
                          "trimStartSum" : 0,
                          "attributes" : {
                            "ident" : "hijacking_ntfs_structs_attack"
                          },
                          "parameters" : {
                            "cursorOpacity" : 0.0,
                            "cursorScale" : 0.0
                          },
                          "effects" : [

                          ],
                          "start" : 2583,
                          "duration" : 300,
                          "mediaStart" : 2388,
                          "mediaDuration" : 1,
                          "scalar" : 1,
                          "metadata" : {
                            "AutoAppliedSmartFocus" : "False"
                          },
                          "animationTracks" : {

                          }
                        },
                        {
                          "id" : 125,
                          "_type" : "ScreenVMFile",
                          "src" : 2,
                          "trackNumber" : 0,
                          "attributes" : {
                            "ident" : "hijacking_ntfs_structs_attack"
                          },
                          "parameters" : {
                            "cursorScale" : {
                              "type" : "double",
                              "defaultValue" : 0.0,
                              "interp" : "linr"
                            },
                            "cursorOpacity" : {
                              "type" : "double",
                              "defaultValue" : 0.0,
                              "interp" : "linr"
                            }
                          },
                          "effects" : [

                          ],
                          "start" : 2883,
                          "duration" : 1281122,
                          "mediaStart" : 2388,
                          "mediaDuration" : 1281122,
                          "scalar" : 1,
                          "metadata" : {
                            "AutoAppliedSmartFocus" : "False",
                            "clipSpeedAttribute" : false,
                            "default-scale0" : 1.0,
                            "default-scale1" : 1.0,
                            "default-translation0" : 0.0,
                            "default-translation1" : 0.0
                          },
                          "animationTracks" : {

                          }
                        }
                    ],
                    "effects" : [
                        {
                          "effectName" : "CursorHilight",
                          "category" : "categoryCursorEffects",
                          "parameters" : {
                            "blur" : 0.1,
                            "color-alpha" : 0.75,
                            "color-blue" : 0.0,
                            "color-green" : 1.0,
                            "color-red" : 1.0,
                            "radius" : 50.0
                          }
                        }
                    ],
                    "start" : 1839,
                    "duration" : 97,
                    "mediaStart" : 2930,
                    "mediaDuration" : 162,
                    "scalar" : "97/162",
                    "metadata" : {
                      "AutoAppliedSmartFocus" : "False",
                      "clipSpeedAttribute" : true
                    },
                    "animationTracks" : {
                      "visual" : [
                        {
                          "endTime" : 172,
                          "duration" : 30,
                          "range" : [ 142, 30]
                        },
                        {
                          "endTime" : 287,
                          "duration" : 30,
                          "range" : [ 257, 30]
                        },
                        {
                          "endTime" : 864,
                          "duration" : 30,
                          "range" : [ 834, 30]
                        },
                        {
                          "endTime" : 1197,
                          "duration" : 58,
                          "range" : [ 1139, 58]
                        },
                        {
                          "endTime" : 1910,
                          "duration" : 61,
                          "range" : [ 1849, 61]
                        },
                        {
                          "endTime" : 2325,
                          "duration" : 48,
                          "range" : [ 2277, 48]
                        },
                        {
                          "endTime" : 2579,
                          "duration" : 35,
                          "range" : [ 2544, 35]
                        }
                      ]
                    }
                  },
                  {
                    "id" : 126,
                    "_type" : "StitchedMedia",
                    "minMediaStart" : 0,
                    "attributes" : {
                      "ident" : "hijacking_ntfs_structs_attack",
                      "gain" : 1.0,
                      "mixToMono" : false
                    },
                    "parameters" : {
                      "translation0" : {
                        "type" : "double",
                        "defaultValue" : 0.0,
                        "keyframes" : [
                          {
                            "endTime" : 172,
                            "time" : 142,
                            "value" : 4331.31223731553,
                            "duration" : 30
                          },
                          {
                            "endTime" : 287,
                            "time" : 257,
                            "value" : 5.6843418860808e-13,
                            "duration" : 30
                          },
                          {
                            "endTime" : 864,
                            "time" : 834,
                            "value" : 1642.08129557305,
                            "duration" : 30
                          },
                          {
                            "endTime" : 1197,
                            "time" : 1139,
                            "value" : 1642.08139278021,
                            "duration" : 58
                          },
                          {
                            "endTime" : 1910,
                            "time" : 1849,
                            "value" : -1.13686837721616e-13,
                            "duration" : 61
                          },
                          {
                            "endTime" : 2325,
                            "time" : 2277,
                            "value" : -820.380233071137,
                            "duration" : 48
                          },
                          {
                            "endTime" : 2579,
                            "time" : 2544,
                            "value" : -820.380080286275,
                            "duration" : 35
                          },
                          {
                            "endTime" : 3146,
                            "time" : 3116,
                            "value" : 1.13686837721616e-13,
                            "duration" : 30
                          },
                          {
                            "endTime" : 3188,
                            "time" : 3158,
                            "value" : 1538.24538555511,
                            "duration" : 30
                          }
                        ]
                      },
                      "translation1" : {
                        "type" : "double",
                        "defaultValue" : 0.0,
                        "keyframes" : [
                          {
                            "endTime" : 172,
                            "time" : 142,
                            "value" : -2019.69283971535,
                            "duration" : 30
                          },
                          {
                            "endTime" : 287,
                            "time" : 257,
                            "value" : -2.8421709430404e-13,
                            "duration" : 30
                          },
                          {
                            "endTime" : 864,
                            "time" : 834,
                            "value" : -847.3,
                            "duration" : 30
                          },
                          {
                            "endTime" : 1197,
                            "time" : 1139,
                            "value" : -267.3,
                            "duration" : 58
                          },
                          {
                            "endTime" : 1910,
                            "time" : 1849,
                            "value" : 0.0,
                            "duration" : 61
                          },
                          {
                            "endTime" : 2325,
                            "time" : 2277,
                            "value" : 209.75628680721,
                            "duration" : 48
                          },
                          {
                            "endTime" : 2579,
                            "time" : 2544,
                            "value" : 624.692359618563,
                            "duration" : 35
                          },
                          {
                            "endTime" : 3146,
                            "time" : 3116,
                            "value" : 5.6843418860808e-14,
                            "duration" : 30
                          },
                          {
                            "endTime" : 3188,
                            "time" : 3158,
                            "value" : -719.227511644581,
                            "duration" : 30
                          }
                        ]
                      },
                      "scale0" : {
                        "type" : "double",
                        "defaultValue" : 1.0,
                        "keyframes" : [
                          {
                            "endTime" : 172,
                            "time" : 142,
                            "value" : 4.54918320506327,
                            "duration" : 30
                          },
                          {
                            "endTime" : 287,
                            "time" : 257,
                            "value" : 0.999999977775835,
                            "duration" : 30
                          },
                          {
                            "endTime" : 864,
                            "time" : 834,
                            "value" : 2.33593993169021,
                            "duration" : 30
                          },
                          {
                            "endTime" : 1197,
                            "time" : 1139,
                            "value" : 2.33593999314883,
                            "duration" : 58
                          },
                          {
                            "endTime" : 1910,
                            "time" : 1849,
                            "value" : 1.0,
                            "duration" : 61
                          },
                          {
                            "endTime" : 2325,
                            "time" : 2277,
                            "value" : 2.0985722162939,
                            "duration" : 48
                          },
                          {
                            "endTime" : 2579,
                            "time" : 2544,
                            "value" : 2.09857267425397,
                            "duration" : 35
                          },
                          {
                            "endTime" : 3146,
                            "time" : 3116,
                            "value" : 1.0,
                            "duration" : 30
                          },
                          {
                            "endTime" : 3188,
                            "time" : 3158,
                            "value" : 2.23217820442702,
                            "duration" : 30
                          }
                        ]
                      },
                      "scale1" : {
                        "type" : "double",
                        "defaultValue" : 1.0,
                        "keyframes" : [
                          {
                            "endTime" : 172,
                            "time" : 142,
                            "value" : 4.54918308493868,
                            "duration" : 30
                          },
                          {
                            "endTime" : 287,
                            "time" : 257,
                            "value" : 1.0,
                            "duration" : 30
                          },
                          {
                            "endTime" : 864,
                            "time" : 834,
                            "value" : 2.33593997834513,
                            "duration" : 30
                          },
                          {
                            "endTime" : 1910,
                            "time" : 1849,
                            "value" : 0.999999993662637,
                            "duration" : 61
                          },
                          {
                            "endTime" : 2325,
                            "time" : 2277,
                            "value" : 2.09857179682057,
                            "duration" : 48
                          },
                          {
                            "endTime" : 3146,
                            "time" : 3116,
                            "value" : 0.99999958189039,
                            "duration" : 30
                          },
                          {
                            "endTime" : 3188,
                            "time" : 3158,
                            "value" : 2.23217799209587,
                            "duration" : 30
                          }
                        ]
                      },
                      "cursorOpacity" : 1.0,
                      "cursorScale" : 1.0
                    },
                    "medias" : [
                        {
                          "id" : 127,
                          "_type" : "ScreenVMFile",
                          "src" : 2,
                          "trackNumber" : 0,
                          "attributes" : {
                            "ident" : "hijacking_ntfs_structs_attack"
                          },
                          "parameters" : {
                            "cursorScale" : {
                              "type" : "double",
                              "defaultValue" : 0.0,
                              "interp" : "linr"
                            },
                            "cursorOpacity" : {
                              "type" : "double",
                              "defaultValue" : 0.0,
                              "interp" : "linr"
                            }
                          },
                          "effects" : [

                          ],
                          "start" : 0,
                          "duration" : 212,
                          "mediaStart" : 0,
                          "mediaDuration" : 212,
                          "scalar" : 1,
                          "metadata" : {
                            "AutoAppliedSmartFocus" : "False",
                            "clipSpeedAttribute" : false,
                            "default-scale0" : 1.0,
                            "default-scale1" : 1.0,
                            "default-translation0" : 0.0,
                            "default-translation1" : 0.0
                          },
                          "animationTracks" : {

                          }
                        },
                        {
                          "id" : 128,
                          "_type" : "ScreenIMFile",
                          "src" : 2,
                          "trackNumber" : 0,
                          "trimStartSum" : 0,
                          "attributes" : {
                            "ident" : "hijacking_ntfs_structs_attack"
                          },
                          "parameters" : {
                            "cursorOpacity" : 0.0,
                            "cursorScale" : 0.0
                          },
                          "effects" : [

                          ],
                          "start" : 212,
                          "duration" : 45,
                          "mediaStart" : 211,
                          "mediaDuration" : 1,
                          "scalar" : 1,
                          "metadata" : {
                            "AutoAppliedSmartFocus" : "False"
                          },
                          "animationTracks" : {

                          }
                        },
                        {
                          "id" : 129,
                          "_type" : "ScreenVMFile",
                          "src" : 2,
                          "trackNumber" : 0,
                          "attributes" : {
                            "ident" : "hijacking_ntfs_structs_attack"
                          },
                          "parameters" : {
                            "cursorScale" : {
                              "type" : "double",
                              "defaultValue" : 0.0,
                              "interp" : "linr"
                            },
                            "cursorOpacity" : {
                              "type" : "double",
                              "defaultValue" : 0.0,
                              "interp" : "linr"
                            }
                          },
                          "effects" : [

                          ],
                          "start" : 257,
                          "duration" : 1542,
                          "mediaStart" : 212,
                          "mediaDuration" : 1542,
                          "scalar" : 1,
                          "metadata" : {
                            "AutoAppliedSmartFocus" : "False",
                            "clipSpeedAttribute" : false,
                            "default-scale0" : 1.0,
                            "default-scale1" : 1.0,
                            "default-translation0" : 0.0,
                            "default-translation1" : 0.0
                          },
                          "animationTracks" : {

                          }
                        },
                        {
                          "id" : 130,
                          "_type" : "ScreenIMFile",
                          "src" : 2,
                          "trackNumber" : 0,
                          "trimStartSum" : 0,
                          "attributes" : {
                            "ident" : "hijacking_ntfs_structs_attack"
                          },
                          "parameters" : {
                            "cursorOpacity" : 0.0,
                            "cursorScale" : 0.0
                          },
                          "effects" : [

                          ],
                          "start" : 1799,
                          "duration" : 150,
                          "mediaStart" : 1754,
                          "mediaDuration" : 1,
                          "scalar" : 1,
                          "metadata" : {
                            "AutoAppliedSmartFocus" : "False"
                          },
                          "animationTracks" : {

                          }
                        },
                        {
                          "id" : 131,
                          "_type" : "ScreenVMFile",
                          "src" : 2,
                          "trackNumber" : 0,
                          "attributes" : {
                            "ident" : "hijacking_ntfs_structs_attack"
                          },
                          "parameters" : {
                            "cursorScale" : {
                              "type" : "double",
                              "defaultValue" : 0.0,
                              "interp" : "linr"
                            },
                            "cursorOpacity" : {
                              "type" : "double",
                              "defaultValue" : 0.0,
                              "interp" : "linr"
                            }
                          },
                          "effects" : [

                          ],
                          "start" : 1949,
                          "duration" : 634,
                          "mediaStart" : 1754,
                          "mediaDuration" : 634,
                          "scalar" : 1,
                          "metadata" : {
                            "AutoAppliedSmartFocus" : "False",
                            "clipSpeedAttribute" : false,
                            "default-scale0" : 1.0,
                            "default-scale1" : 1.0,
                            "default-translation0" : 0.0,
                            "default-translation1" : 0.0
                          },
                          "animationTracks" : {

                          }
                        },
                        {
                          "id" : 132,
                          "_type" : "ScreenIMFile",
                          "src" : 2,
                          "trackNumber" : 0,
                          "trimStartSum" : 0,
                          "attributes" : {
                            "ident" : "hijacking_ntfs_structs_attack"
                          },
                          "parameters" : {
                            "cursorOpacity" : 0.0,
                            "cursorScale" : 0.0
                          },
                          "effects" : [

                          ],
                          "start" : 2583,
                          "duration" : 300,
                          "mediaStart" : 2388,
                          "mediaDuration" : 1,
                          "scalar" : 1,
                          "metadata" : {
                            "AutoAppliedSmartFocus" : "False"
                          },
                          "animationTracks" : {

                          }
                        },
                        {
                          "id" : 133,
                          "_type" : "ScreenVMFile",
                          "src" : 2,
                          "trackNumber" : 0,
                          "attributes" : {
                            "ident" : "hijacking_ntfs_structs_attack"
                          },
                          "parameters" : {
                            "cursorScale" : {
                              "type" : "double",
                              "defaultValue" : 0.0,
                              "interp" : "linr"
                            },
                            "cursorOpacity" : {
                              "type" : "double",
                              "defaultValue" : 0.0,
                              "interp" : "linr"
                            }
                          },
                          "effects" : [

                          ],
                          "start" : 2883,
                          "duration" : 1281122,
                          "mediaStart" : 2388,
                          "mediaDuration" : 1281122,
                          "scalar" : 1,
                          "metadata" : {
                            "AutoAppliedSmartFocus" : "False",
                            "clipSpeedAttribute" : false,
                            "default-scale0" : 1.0,
                            "default-scale1" : 1.0,
                            "default-translation0" : 0.0,
                            "default-translation1" : 0.0
                          },
                          "animationTracks" : {

                          }
                        }
                    ],
                    "effects" : [
                        {
                          "effectName" : "CursorHilight",
                          "category" : "categoryCursorEffects",
                          "parameters" : {
                            "blur" : 0.1,
                            "color-alpha" : 0.75,
                            "color-blue" : 0.0,
                            "color-green" : 1.0,
                            "color-red" : 1.0,
                            "radius" : 50.0
                          }
                        }
                    ],
                    "start" : 1936,
                    "duration" : 102,
                    "mediaStart" : 3092,
                    "mediaDuration" : 102,
                    "scalar" : 1,
                    "metadata" : {
                      "AutoAppliedSmartFocus" : "False",
                      "clipSpeedAttribute" : false,
                      "default-scale0" : 2.09857267425397,
                      "default-scale1" : 2.09857179682057,
                      "default-translation0" : -820.380080286275,
                      "default-translation1" : 624.692359618563
                    },
                    "animationTracks" : {
                      "visual" : [
                        {
                          "endTime" : 172,
                          "duration" : 30,
                          "range" : [ 142, 30]
                        },
                        {
                          "endTime" : 287,
                          "duration" : 30,
                          "range" : [ 257, 30]
                        },
                        {
                          "endTime" : 864,
                          "duration" : 30,
                          "range" : [ 834, 30]
                        },
                        {
                          "endTime" : 1197,
                          "duration" : 58,
                          "range" : [ 1139, 58]
                        },
                        {
                          "endTime" : 1910,
                          "duration" : 61,
                          "range" : [ 1849, 61]
                        },
                        {
                          "endTime" : 2325,
                          "duration" : 48,
                          "range" : [ 2277, 48]
                        },
                        {
                          "endTime" : 2579,
                          "duration" : 35,
                          "range" : [ 2544, 35]
                        },
                        {
                          "endTime" : 3146,
                          "duration" : 30,
                          "range" : [ 3116, 30]
                        },
                        {
                          "endTime" : 3188,
                          "duration" : 30,
                          "range" : [ 3158, 30]
                        }
                      ]
                    }
                  },
                  {
                    "id" : 134,
                    "_type" : "StitchedMedia",
                    "minMediaStart" : 0,
                    "attributes" : {
                      "ident" : "hijacking_ntfs_structs_attack",
                      "gain" : 1.0,
                      "mixToMono" : false
                    },
                    "parameters" : {
                      "translation0" : {
                        "type" : "double",
                        "defaultValue" : 0.0,
                        "keyframes" : [
                          {
                            "endTime" : 172,
                            "time" : 142,
                            "value" : 4331.31223731553,
                            "duration" : 30
                          },
                          {
                            "endTime" : 287,
                            "time" : 257,
                            "value" : 5.6843418860808e-13,
                            "duration" : 30
                          },
                          {
                            "endTime" : 864,
                            "time" : 834,
                            "value" : 1642.08129557305,
                            "duration" : 30
                          },
                          {
                            "endTime" : 1197,
                            "time" : 1139,
                            "value" : 1642.08139278021,
                            "duration" : 58
                          },
                          {
                            "endTime" : 1910,
                            "time" : 1849,
                            "value" : -1.13686837721616e-13,
                            "duration" : 61
                          },
                          {
                            "endTime" : 2325,
                            "time" : 2277,
                            "value" : -820.380233071137,
                            "duration" : 48
                          },
                          {
                            "endTime" : 2579,
                            "time" : 2544,
                            "value" : -820.380080286275,
                            "duration" : 35
                          },
                          {
                            "endTime" : 3146,
                            "time" : 3116,
                            "value" : 1.13686837721616e-13,
                            "duration" : 30
                          },
                          {
                            "endTime" : 3188,
                            "time" : 3158,
                            "value" : 1538.24538555511,
                            "duration" : 30
                          }
                        ]
                      },
                      "translation1" : {
                        "type" : "double",
                        "defaultValue" : 0.0,
                        "keyframes" : [
                          {
                            "endTime" : 172,
                            "time" : 142,
                            "value" : -2019.69283971535,
                            "duration" : 30
                          },
                          {
                            "endTime" : 287,
                            "time" : 257,
                            "value" : -2.8421709430404e-13,
                            "duration" : 30
                          },
                          {
                            "endTime" : 864,
                            "time" : 834,
                            "value" : -847.3,
                            "duration" : 30
                          },
                          {
                            "endTime" : 1197,
                            "time" : 1139,
                            "value" : -267.3,
                            "duration" : 58
                          },
                          {
                            "endTime" : 1910,
                            "time" : 1849,
                            "value" : 0.0,
                            "duration" : 61
                          },
                          {
                            "endTime" : 2325,
                            "time" : 2277,
                            "value" : 209.75628680721,
                            "duration" : 48
                          },
                          {
                            "endTime" : 2579,
                            "time" : 2544,
                            "value" : 624.692359618563,
                            "duration" : 35
                          },
                          {
                            "endTime" : 3146,
                            "time" : 3116,
                            "value" : 5.6843418860808e-14,
                            "duration" : 30
                          },
                          {
                            "endTime" : 3188,
                            "time" : 3158,
                            "value" : -719.227511644581,
                            "duration" : 30
                          }
                        ]
                      },
                      "scale0" : {
                        "type" : "double",
                        "defaultValue" : 1.0,
                        "keyframes" : [
                          {
                            "endTime" : 172,
                            "time" : 142,
                            "value" : 4.54918320506327,
                            "duration" : 30
                          },
                          {
                            "endTime" : 287,
                            "time" : 257,
                            "value" : 0.999999977775835,
                            "duration" : 30
                          },
                          {
                            "endTime" : 864,
                            "time" : 834,
                            "value" : 2.33593993169021,
                            "duration" : 30
                          },
                          {
                            "endTime" : 1197,
                            "time" : 1139,
                            "value" : 2.33593999314883,
                            "duration" : 58
                          },
                          {
                            "endTime" : 1910,
                            "time" : 1849,
                            "value" : 1.0,
                            "duration" : 61
                          },
                          {
                            "endTime" : 2325,
                            "time" : 2277,
                            "value" : 2.0985722162939,
                            "duration" : 48
                          },
                          {
                            "endTime" : 2579,
                            "time" : 2544,
                            "value" : 2.09857267425397,
                            "duration" : 35
                          },
                          {
                            "endTime" : 3146,
                            "time" : 3116,
                            "value" : 1.0,
                            "duration" : 30
                          },
                          {
                            "endTime" : 3188,
                            "time" : 3158,
                            "value" : 2.23217820442702,
                            "duration" : 30
                          }
                        ]
                      },
                      "scale1" : {
                        "type" : "double",
                        "defaultValue" : 1.0,
                        "keyframes" : [
                          {
                            "endTime" : 172,
                            "time" : 142,
                            "value" : 4.54918308493868,
                            "duration" : 30
                          },
                          {
                            "endTime" : 287,
                            "time" : 257,
                            "value" : 1.0,
                            "duration" : 30
                          },
                          {
                            "endTime" : 864,
                            "time" : 834,
                            "value" : 2.33593997834513,
                            "duration" : 30
                          },
                          {
                            "endTime" : 1910,
                            "time" : 1849,
                            "value" : 0.999999993662637,
                            "duration" : 61
                          },
                          {
                            "endTime" : 2325,
                            "time" : 2277,
                            "value" : 2.09857179682057,
                            "duration" : 48
                          },
                          {
                            "endTime" : 3146,
                            "time" : 3116,
                            "value" : 0.99999958189039,
                            "duration" : 30
                          },
                          {
                            "endTime" : 3188,
                            "time" : 3158,
                            "value" : 2.23217799209587,
                            "duration" : 30
                          }
                        ]
                      },
                      "cursorOpacity" : 1.0,
                      "cursorScale" : 1.0
                    },
                    "medias" : [
                        {
                          "id" : 135,
                          "_type" : "ScreenVMFile",
                          "src" : 2,
                          "trackNumber" : 0,
                          "attributes" : {
                            "ident" : "hijacking_ntfs_structs_attack"
                          },
                          "parameters" : {
                            "cursorScale" : {
                              "type" : "double",
                              "defaultValue" : 0.0,
                              "interp" : "linr"
                            },
                            "cursorOpacity" : {
                              "type" : "double",
                              "defaultValue" : 0.0,
                              "interp" : "linr"
                            }
                          },
                          "effects" : [

                          ],
                          "start" : 0,
                          "duration" : 212,
                          "mediaStart" : 0,
                          "mediaDuration" : 212,
                          "scalar" : 1,
                          "metadata" : {
                            "AutoAppliedSmartFocus" : "False",
                            "clipSpeedAttribute" : false,
                            "default-scale0" : 1.0,
                            "default-scale1" : 1.0,
                            "default-translation0" : 0.0,
                            "default-translation1" : 0.0
                          },
                          "animationTracks" : {

                          }
                        },
                        {
                          "id" : 136,
                          "_type" : "ScreenIMFile",
                          "src" : 2,
                          "trackNumber" : 0,
                          "trimStartSum" : 0,
                          "attributes" : {
                            "ident" : "hijacking_ntfs_structs_attack"
                          },
                          "parameters" : {
                            "cursorOpacity" : 0.0,
                            "cursorScale" : 0.0
                          },
                          "effects" : [

                          ],
                          "start" : 212,
                          "duration" : 45,
                          "mediaStart" : 211,
                          "mediaDuration" : 1,
                          "scalar" : 1,
                          "metadata" : {
                            "AutoAppliedSmartFocus" : "False"
                          },
                          "animationTracks" : {

                          }
                        },
                        {
                          "id" : 137,
                          "_type" : "ScreenVMFile",
                          "src" : 2,
                          "trackNumber" : 0,
                          "attributes" : {
                            "ident" : "hijacking_ntfs_structs_attack"
                          },
                          "parameters" : {
                            "cursorScale" : {
                              "type" : "double",
                              "defaultValue" : 0.0,
                              "interp" : "linr"
                            },
                            "cursorOpacity" : {
                              "type" : "double",
                              "defaultValue" : 0.0,
                              "interp" : "linr"
                            }
                          },
                          "effects" : [

                          ],
                          "start" : 257,
                          "duration" : 1542,
                          "mediaStart" : 212,
                          "mediaDuration" : 1542,
                          "scalar" : 1,
                          "metadata" : {
                            "AutoAppliedSmartFocus" : "False",
                            "clipSpeedAttribute" : false,
                            "default-scale0" : 1.0,
                            "default-scale1" : 1.0,
                            "default-translation0" : 0.0,
                            "default-translation1" : 0.0
                          },
                          "animationTracks" : {

                          }
                        },
                        {
                          "id" : 138,
                          "_type" : "ScreenIMFile",
                          "src" : 2,
                          "trackNumber" : 0,
                          "trimStartSum" : 0,
                          "attributes" : {
                            "ident" : "hijacking_ntfs_structs_attack"
                          },
                          "parameters" : {
                            "cursorOpacity" : 0.0,
                            "cursorScale" : 0.0
                          },
                          "effects" : [

                          ],
                          "start" : 1799,
                          "duration" : 150,
                          "mediaStart" : 1754,
                          "mediaDuration" : 1,
                          "scalar" : 1,
                          "metadata" : {
                            "AutoAppliedSmartFocus" : "False"
                          },
                          "animationTracks" : {

                          }
                        },
                        {
                          "id" : 139,
                          "_type" : "ScreenVMFile",
                          "src" : 2,
                          "trackNumber" : 0,
                          "attributes" : {
                            "ident" : "hijacking_ntfs_structs_attack"
                          },
                          "parameters" : {
                            "cursorScale" : {
                              "type" : "double",
                              "defaultValue" : 0.0,
                              "interp" : "linr"
                            },
                            "cursorOpacity" : {
                              "type" : "double",
                              "defaultValue" : 0.0,
                              "interp" : "linr"
                            }
                          },
                          "effects" : [

                          ],
                          "start" : 1949,
                          "duration" : 634,
                          "mediaStart" : 1754,
                          "mediaDuration" : 634,
                          "scalar" : 1,
                          "metadata" : {
                            "AutoAppliedSmartFocus" : "False",
                            "clipSpeedAttribute" : false,
                            "default-scale0" : 1.0,
                            "default-scale1" : 1.0,
                            "default-translation0" : 0.0,
                            "default-translation1" : 0.0
                          },
                          "animationTracks" : {

                          }
                        },
                        {
                          "id" : 140,
                          "_type" : "ScreenIMFile",
                          "src" : 2,
                          "trackNumber" : 0,
                          "trimStartSum" : 0,
                          "attributes" : {
                            "ident" : "hijacking_ntfs_structs_attack"
                          },
                          "parameters" : {
                            "cursorOpacity" : 0.0,
                            "cursorScale" : 0.0
                          },
                          "effects" : [

                          ],
                          "start" : 2583,
                          "duration" : 300,
                          "mediaStart" : 2388,
                          "mediaDuration" : 1,
                          "scalar" : 1,
                          "metadata" : {
                            "AutoAppliedSmartFocus" : "False"
                          },
                          "animationTracks" : {

                          }
                        },
                        {
                          "id" : 141,
                          "_type" : "ScreenVMFile",
                          "src" : 2,
                          "trackNumber" : 0,
                          "attributes" : {
                            "ident" : "hijacking_ntfs_structs_attack"
                          },
                          "parameters" : {
                            "cursorScale" : {
                              "type" : "double",
                              "defaultValue" : 0.0,
                              "interp" : "linr"
                            },
                            "cursorOpacity" : {
                              "type" : "double",
                              "defaultValue" : 0.0,
                              "interp" : "linr"
                            }
                          },
                          "effects" : [

                          ],
                          "start" : 2883,
                          "duration" : 1281122,
                          "mediaStart" : 2388,
                          "mediaDuration" : 1281122,
                          "scalar" : 1,
                          "metadata" : {
                            "AutoAppliedSmartFocus" : "False",
                            "clipSpeedAttribute" : false,
                            "default-scale0" : 1.0,
                            "default-scale1" : 1.0,
                            "default-translation0" : 0.0,
                            "default-translation1" : 0.0
                          },
                          "animationTracks" : {

                          }
                        }
                    ],
                    "effects" : [
                        {
                          "effectName" : "CursorHilight",
                          "category" : "categoryCursorEffects",
                          "parameters" : {
                            "blur" : 0.1,
                            "color-alpha" : 0.75,
                            "color-blue" : 0.0,
                            "color-green" : 1.0,
                            "color-red" : 1.0,
                            "radius" : 50.0
                          }
                        }
                    ],
                    "start" : 2038,
                    "duration" : 48,
                    "mediaStart" : 3194,
                    "mediaDuration" : 96,
                    "scalar" : "1/2",
                    "metadata" : {
                      "AutoAppliedSmartFocus" : "False",
                      "clipSpeedAttribute" : true,
                      "default-scale0" : 2.09857267425397,
                      "default-scale1" : 2.09857179682057,
                      "default-translation0" : -820.380080286275,
                      "default-translation1" : 624.692359618563
                    },
                    "animationTracks" : {
                      "visual" : [
                        {
                          "endTime" : 172,
                          "duration" : 30,
                          "range" : [ 142, 30]
                        },
                        {
                          "endTime" : 287,
                          "duration" : 30,
                          "range" : [ 257, 30]
                        },
                        {
                          "endTime" : 864,
                          "duration" : 30,
                          "range" : [ 834, 30]
                        },
                        {
                          "endTime" : 1197,
                          "duration" : 58,
                          "range" : [ 1139, 58]
                        },
                        {
                          "endTime" : 1910,
                          "duration" : 61,
                          "range" : [ 1849, 61]
                        },
                        {
                          "endTime" : 2325,
                          "duration" : 48,
                          "range" : [ 2277, 48]
                        },
                        {
                          "endTime" : 2579,
                          "duration" : 35,
                          "range" : [ 2544, 35]
                        },
                        {
                          "endTime" : 3146,
                          "duration" : 30,
                          "range" : [ 3116, 30]
                        },
                        {
                          "endTime" : 3188,
                          "duration" : 30,
                          "range" : [ 3158, 30]
                        }
                      ]
                    }
                  },
                  {
                    "id" : 142,
                    "_type" : "StitchedMedia",
                    "minMediaStart" : 0,
                    "attributes" : {
                      "ident" : "hijacking_ntfs_structs_attack",
                      "gain" : 1.0,
                      "mixToMono" : false
                    },
                    "parameters" : {
                      "translation0" : {
                        "type" : "double",
                        "defaultValue" : 0.0,
                        "keyframes" : [
                          {
                            "endTime" : 172,
                            "time" : 142,
                            "value" : 4331.31223731553,
                            "duration" : 30
                          },
                          {
                            "endTime" : 287,
                            "time" : 257,
                            "value" : 5.6843418860808e-13,
                            "duration" : 30
                          },
                          {
                            "endTime" : 864,
                            "time" : 834,
                            "value" : 1642.08129557305,
                            "duration" : 30
                          },
                          {
                            "endTime" : 1197,
                            "time" : 1139,
                            "value" : 1642.08139278021,
                            "duration" : 58
                          },
                          {
                            "endTime" : 1910,
                            "time" : 1849,
                            "value" : -1.13686837721616e-13,
                            "duration" : 61
                          },
                          {
                            "endTime" : 2325,
                            "time" : 2277,
                            "value" : -820.380233071137,
                            "duration" : 48
                          },
                          {
                            "endTime" : 2579,
                            "time" : 2544,
                            "value" : -820.380080286275,
                            "duration" : 35
                          },
                          {
                            "endTime" : 3133,
                            "time" : 3103,
                            "value" : 1.13686837721616e-13,
                            "duration" : 30
                          },
                          {
                            "endTime" : 3188,
                            "time" : 3158,
                            "value" : 1538.24538555511,
                            "duration" : 30
                          },
                          {
                            "endTime" : 3320,
                            "time" : 3290,
                            "value" : -3.41060513164848e-13,
                            "duration" : 30
                          },
                          {
                            "endTime" : 3366,
                            "time" : 3336,
                            "value" : -820.4,
                            "duration" : 30
                          }
                        ]
                      },
                      "translation1" : {
                        "type" : "double",
                        "defaultValue" : 0.0,
                        "keyframes" : [
                          {
                            "endTime" : 172,
                            "time" : 142,
                            "value" : -2019.69283971535,
                            "duration" : 30
                          },
                          {
                            "endTime" : 287,
                            "time" : 257,
                            "value" : -2.8421709430404e-13,
                            "duration" : 30
                          },
                          {
                            "endTime" : 864,
                            "time" : 834,
                            "value" : -847.3,
                            "duration" : 30
                          },
                          {
                            "endTime" : 1197,
                            "time" : 1139,
                            "value" : -267.3,
                            "duration" : 58
                          },
                          {
                            "endTime" : 1910,
                            "time" : 1849,
                            "value" : 0.0,
                            "duration" : 61
                          },
                          {
                            "endTime" : 2325,
                            "time" : 2277,
                            "value" : 209.75628680721,
                            "duration" : 48
                          },
                          {
                            "endTime" : 2579,
                            "time" : 2544,
                            "value" : 624.692359618563,
                            "duration" : 35
                          },
                          {
                            "endTime" : 3133,
                            "time" : 3103,
                            "value" : 5.6843418860808e-14,
                            "duration" : 30
                          },
                          {
                            "endTime" : 3188,
                            "time" : 3158,
                            "value" : -719.227511644581,
                            "duration" : 30
                          },
                          {
                            "endTime" : 3320,
                            "time" : 3290,
                            "value" : 1.13686837721616e-13,
                            "duration" : 30
                          },
                          {
                            "endTime" : 3366,
                            "time" : 3336,
                            "value" : 624.7,
                            "duration" : 30
                          }
                        ]
                      },
                      "scale0" : {
                        "type" : "double",
                        "defaultValue" : 1.0,
                        "keyframes" : [
                          {
                            "endTime" : 172,
                            "time" : 142,
                            "value" : 4.54918320506327,
                            "duration" : 30
                          },
                          {
                            "endTime" : 287,
                            "time" : 257,
                            "value" : 0.999999977775835,
                            "duration" : 30
                          },
                          {
                            "endTime" : 864,
                            "time" : 834,
                            "value" : 2.33593993169021,
                            "duration" : 30
                          },
                          {
                            "endTime" : 1197,
                            "time" : 1139,
                            "value" : 2.33593999314883,
                            "duration" : 58
                          },
                          {
                            "endTime" : 1910,
                            "time" : 1849,
                            "value" : 1.0,
                            "duration" : 61
                          },
                          {
                            "endTime" : 2325,
                            "time" : 2277,
                            "value" : 2.0985722162939,
                            "duration" : 48
                          },
                          {
                            "endTime" : 2579,
                            "time" : 2544,
                            "value" : 2.09857267425397,
                            "duration" : 35
                          },
                          {
                            "endTime" : 3133,
                            "time" : 3103,
                            "value" : 1.0,
                            "duration" : 30
                          },
                          {
                            "endTime" : 3188,
                            "time" : 3158,
                            "value" : 2.23217820442702,
                            "duration" : 30
                          },
                          {
                            "endTime" : 3320,
                            "time" : 3290,
                            "value" : 1.0,
                            "duration" : 30
                          },
                          {
                            "endTime" : 3366,
                            "time" : 3336,
                            "value" : 2.09899992295191,
                            "duration" : 30
                          }
                        ]
                      },
                      "scale1" : {
                        "type" : "double",
                        "defaultValue" : 1.0,
                        "keyframes" : [
                          {
                            "endTime" : 172,
                            "time" : 142,
                            "value" : 4.54918308493868,
                            "duration" : 30
                          },
                          {
                            "endTime" : 287,
                            "time" : 257,
                            "value" : 1.0,
                            "duration" : 30
                          },
                          {
                            "endTime" : 864,
                            "time" : 834,
                            "value" : 2.33593997834513,
                            "duration" : 30
                          },
                          {
                            "endTime" : 1910,
                            "time" : 1849,
                            "value" : 0.999999993662637,
                            "duration" : 61
                          },
                          {
                            "endTime" : 2325,
                            "time" : 2277,
                            "value" : 2.09857179682057,
                            "duration" : 48
                          },
                          {
                            "endTime" : 3133,
                            "time" : 3103,
                            "value" : 0.99999958189039,
                            "duration" : 30
                          },
                          {
                            "endTime" : 3188,
                            "time" : 3158,
                            "value" : 2.23217799209587,
                            "duration" : 30
                          },
                          {
                            "endTime" : 3320,
                            "time" : 3290,
                            "value" : 0.999999904877152,
                            "duration" : 30
                          },
                          {
                            "endTime" : 3366,
                            "time" : 3336,
                            "value" : 2.099,
                            "duration" : 30
                          }
                        ]
                      },
                      "cursorOpacity" : 1.0,
                      "cursorScale" : 1.0
                    },
                    "medias" : [
                        {
                          "id" : 143,
                          "_type" : "ScreenVMFile",
                          "src" : 2,
                          "trackNumber" : 0,
                          "attributes" : {
                            "ident" : "hijacking_ntfs_structs_attack"
                          },
                          "parameters" : {
                            "cursorScale" : {
                              "type" : "double",
                              "defaultValue" : 0.0,
                              "interp" : "linr"
                            },
                            "cursorOpacity" : {
                              "type" : "double",
                              "defaultValue" : 0.0,
                              "interp" : "linr"
                            }
                          },
                          "effects" : [

                          ],
                          "start" : 0,
                          "duration" : 212,
                          "mediaStart" : 0,
                          "mediaDuration" : 212,
                          "scalar" : 1,
                          "metadata" : {
                            "AutoAppliedSmartFocus" : "False",
                            "clipSpeedAttribute" : false,
                            "default-scale0" : 1.0,
                            "default-scale1" : 1.0,
                            "default-translation0" : 0.0,
                            "default-translation1" : 0.0
                          },
                          "animationTracks" : {

                          }
                        },
                        {
                          "id" : 144,
                          "_type" : "ScreenIMFile",
                          "src" : 2,
                          "trackNumber" : 0,
                          "trimStartSum" : 0,
                          "attributes" : {
                            "ident" : "hijacking_ntfs_structs_attack"
                          },
                          "parameters" : {
                            "cursorOpacity" : 0.0,
                            "cursorScale" : 0.0
                          },
                          "effects" : [

                          ],
                          "start" : 212,
                          "duration" : 45,
                          "mediaStart" : 211,
                          "mediaDuration" : 1,
                          "scalar" : 1,
                          "metadata" : {
                            "AutoAppliedSmartFocus" : "False"
                          },
                          "animationTracks" : {

                          }
                        },
                        {
                          "id" : 145,
                          "_type" : "ScreenVMFile",
                          "src" : 2,
                          "trackNumber" : 0,
                          "attributes" : {
                            "ident" : "hijacking_ntfs_structs_attack"
                          },
                          "parameters" : {
                            "cursorScale" : {
                              "type" : "double",
                              "defaultValue" : 0.0,
                              "interp" : "linr"
                            },
                            "cursorOpacity" : {
                              "type" : "double",
                              "defaultValue" : 0.0,
                              "interp" : "linr"
                            }
                          },
                          "effects" : [

                          ],
                          "start" : 257,
                          "duration" : 1542,
                          "mediaStart" : 212,
                          "mediaDuration" : 1542,
                          "scalar" : 1,
                          "metadata" : {
                            "AutoAppliedSmartFocus" : "False",
                            "clipSpeedAttribute" : false,
                            "default-scale0" : 1.0,
                            "default-scale1" : 1.0,
                            "default-translation0" : 0.0,
                            "default-translation1" : 0.0
                          },
                          "animationTracks" : {

                          }
                        },
                        {
                          "id" : 146,
                          "_type" : "ScreenIMFile",
                          "src" : 2,
                          "trackNumber" : 0,
                          "trimStartSum" : 0,
                          "attributes" : {
                            "ident" : "hijacking_ntfs_structs_attack"
                          },
                          "parameters" : {
                            "cursorOpacity" : 0.0,
                            "cursorScale" : 0.0
                          },
                          "effects" : [

                          ],
                          "start" : 1799,
                          "duration" : 150,
                          "mediaStart" : 1754,
                          "mediaDuration" : 1,
                          "scalar" : 1,
                          "metadata" : {
                            "AutoAppliedSmartFocus" : "False"
                          },
                          "animationTracks" : {

                          }
                        },
                        {
                          "id" : 147,
                          "_type" : "ScreenVMFile",
                          "src" : 2,
                          "trackNumber" : 0,
                          "attributes" : {
                            "ident" : "hijacking_ntfs_structs_attack"
                          },
                          "parameters" : {
                            "cursorScale" : {
                              "type" : "double",
                              "defaultValue" : 0.0,
                              "interp" : "linr"
                            },
                            "cursorOpacity" : {
                              "type" : "double",
                              "defaultValue" : 0.0,
                              "interp" : "linr"
                            }
                          },
                          "effects" : [

                          ],
                          "start" : 1949,
                          "duration" : 634,
                          "mediaStart" : 1754,
                          "mediaDuration" : 634,
                          "scalar" : 1,
                          "metadata" : {
                            "AutoAppliedSmartFocus" : "False",
                            "clipSpeedAttribute" : false,
                            "default-scale0" : 1.0,
                            "default-scale1" : 1.0,
                            "default-translation0" : 0.0,
                            "default-translation1" : 0.0
                          },
                          "animationTracks" : {

                          }
                        },
                        {
                          "id" : 148,
                          "_type" : "ScreenIMFile",
                          "src" : 2,
                          "trackNumber" : 0,
                          "trimStartSum" : 0,
                          "attributes" : {
                            "ident" : "hijacking_ntfs_structs_attack"
                          },
                          "parameters" : {
                            "cursorOpacity" : 0.0,
                            "cursorScale" : 0.0
                          },
                          "effects" : [

                          ],
                          "start" : 2583,
                          "duration" : 300,
                          "mediaStart" : 2388,
                          "mediaDuration" : 1,
                          "scalar" : 1,
                          "metadata" : {
                            "AutoAppliedSmartFocus" : "False"
                          },
                          "animationTracks" : {

                          }
                        },
                        {
                          "id" : 149,
                          "_type" : "ScreenVMFile",
                          "src" : 2,
                          "trackNumber" : 0,
                          "attributes" : {
                            "ident" : "hijacking_ntfs_structs_attack"
                          },
                          "parameters" : {
                            "cursorScale" : {
                              "type" : "double",
                              "defaultValue" : 0.0,
                              "interp" : "linr"
                            },
                            "cursorOpacity" : {
                              "type" : "double",
                              "defaultValue" : 0.0,
                              "interp" : "linr"
                            }
                          },
                          "effects" : [

                          ],
                          "start" : 2883,
                          "duration" : 1281122,
                          "mediaStart" : 2388,
                          "mediaDuration" : 1281122,
                          "scalar" : 1,
                          "metadata" : {
                            "AutoAppliedSmartFocus" : "False",
                            "clipSpeedAttribute" : false,
                            "default-scale0" : 1.0,
                            "default-scale1" : 1.0,
                            "default-translation0" : 0.0,
                            "default-translation1" : 0.0
                          },
                          "animationTracks" : {

                          }
                        }
                    ],
                    "effects" : [
                        {
                          "effectName" : "CursorHilight",
                          "category" : "categoryCursorEffects",
                          "parameters" : {
                            "blur" : 0.1,
                            "color-alpha" : 0.75,
                            "color-blue" : 0.0,
                            "color-green" : 1.0,
                            "color-red" : 1.0,
                            "radius" : 50.0
                          }
                        }
                    ],
                    "start" : 2086,
                    "duration" : 264,
                    "mediaStart" : 3290,
                    "mediaDuration" : 264,
                    "scalar" : 1,
                    "metadata" : {
                      "AutoAppliedSmartFocus" : "False",
                      "clipSpeedAttribute" : false,
                      "default-scale0" : 2.09857267425397,
                      "default-scale1" : 2.09857179682057,
                      "default-translation0" : -820.380080286275,
                      "default-translation1" : 624.692359618563
                    },
                    "animationTracks" : {
                      "visual" : [
                        {
                          "endTime" : 172,
                          "duration" : 30,
                          "range" : [ 142, 30]
                        },
                        {
                          "endTime" : 287,
                          "duration" : 30,
                          "range" : [ 257, 30]
                        },
                        {
                          "endTime" : 864,
                          "duration" : 30,
                          "range" : [ 834, 30]
                        },
                        {
                          "endTime" : 1197,
                          "duration" : 58,
                          "range" : [ 1139, 58]
                        },
                        {
                          "endTime" : 1910,
                          "duration" : 61,
                          "range" : [ 1849, 61]
                        },
                        {
                          "endTime" : 2325,
                          "duration" : 48,
                          "range" : [ 2277, 48]
                        },
                        {
                          "endTime" : 2579,
                          "duration" : 35,
                          "range" : [ 2544, 35]
                        },
                        {
                          "endTime" : 3133,
                          "duration" : 30,
                          "range" : [ 3103, 30]
                        },
                        {
                          "endTime" : 3188,
                          "duration" : 30,
                          "range" : [ 3158, 30]
                        },
                        {
                          "endTime" : 3320,
                          "duration" : 30,
                          "range" : [ 3290, 30]
                        },
                        {
                          "endTime" : 3366,
                          "duration" : 30,
                          "range" : [ 3336, 30]
                        }
                      ]
                    }
                  },
                  {
                    "id" : 150,
                    "_type" : "StitchedMedia",
                    "minMediaStart" : 0,
                    "attributes" : {
                      "ident" : "hijacking_ntfs_structs_attack",
                      "gain" : 1.0,
                      "mixToMono" : false
                    },
                    "parameters" : {
                      "translation0" : {
                        "type" : "double",
                        "defaultValue" : 0.0,
                        "keyframes" : [
                          {
                            "endTime" : 172,
                            "time" : 142,
                            "value" : 4331.31223731553,
                            "duration" : 30
                          },
                          {
                            "endTime" : 287,
                            "time" : 257,
                            "value" : 5.6843418860808e-13,
                            "duration" : 30
                          },
                          {
                            "endTime" : 864,
                            "time" : 834,
                            "value" : 1642.08129557305,
                            "duration" : 30
                          },
                          {
                            "endTime" : 1197,
                            "time" : 1139,
                            "value" : 1642.08139278021,
                            "duration" : 58
                          },
                          {
                            "endTime" : 1910,
                            "time" : 1849,
                            "value" : -1.13686837721616e-13,
                            "duration" : 61
                          },
                          {
                            "endTime" : 2325,
                            "time" : 2277,
                            "value" : -820.380233071137,
                            "duration" : 48
                          },
                          {
                            "endTime" : 2579,
                            "time" : 2544,
                            "value" : -820.380080286275,
                            "duration" : 35
                          },
                          {
                            "endTime" : 3133,
                            "time" : 3103,
                            "value" : 1.13686837721616e-13,
                            "duration" : 30
                          },
                          {
                            "endTime" : 3188,
                            "time" : 3158,
                            "value" : 1538.24538555511,
                            "duration" : 30
                          },
                          {
                            "endTime" : 3320,
                            "time" : 3290,
                            "value" : -3.41060513164848e-13,
                            "duration" : 30
                          },
                          {
                            "endTime" : 3366,
                            "time" : 3336,
                            "value" : -820.4,
                            "duration" : 30
                          }
                        ]
                      },
                      "translation1" : {
                        "type" : "double",
                        "defaultValue" : 0.0,
                        "keyframes" : [
                          {
                            "endTime" : 172,
                            "time" : 142,
                            "value" : -2019.69283971535,
                            "duration" : 30
                          },
                          {
                            "endTime" : 287,
                            "time" : 257,
                            "value" : -2.8421709430404e-13,
                            "duration" : 30
                          },
                          {
                            "endTime" : 864,
                            "time" : 834,
                            "value" : -847.3,
                            "duration" : 30
                          },
                          {
                            "endTime" : 1197,
                            "time" : 1139,
                            "value" : -267.3,
                            "duration" : 58
                          },
                          {
                            "endTime" : 1910,
                            "time" : 1849,
                            "value" : 0.0,
                            "duration" : 61
                          },
                          {
                            "endTime" : 2325,
                            "time" : 2277,
                            "value" : 209.75628680721,
                            "duration" : 48
                          },
                          {
                            "endTime" : 2579,
                            "time" : 2544,
                            "value" : 624.692359618563,
                            "duration" : 35
                          },
                          {
                            "endTime" : 3133,
                            "time" : 3103,
                            "value" : 5.6843418860808e-14,
                            "duration" : 30
                          },
                          {
                            "endTime" : 3188,
                            "time" : 3158,
                            "value" : -719.227511644581,
                            "duration" : 30
                          },
                          {
                            "endTime" : 3320,
                            "time" : 3290,
                            "value" : 1.13686837721616e-13,
                            "duration" : 30
                          },
                          {
                            "endTime" : 3366,
                            "time" : 3336,
                            "value" : 624.7,
                            "duration" : 30
                          }
                        ]
                      },
                      "scale0" : {
                        "type" : "double",
                        "defaultValue" : 1.0,
                        "keyframes" : [
                          {
                            "endTime" : 172,
                            "time" : 142,
                            "value" : 4.54918320506327,
                            "duration" : 30
                          },
                          {
                            "endTime" : 287,
                            "time" : 257,
                            "value" : 0.999999977775835,
                            "duration" : 30
                          },
                          {
                            "endTime" : 864,
                            "time" : 834,
                            "value" : 2.33593993169021,
                            "duration" : 30
                          },
                          {
                            "endTime" : 1197,
                            "time" : 1139,
                            "value" : 2.33593999314883,
                            "duration" : 58
                          },
                          {
                            "endTime" : 1910,
                            "time" : 1849,
                            "value" : 1.0,
                            "duration" : 61
                          },
                          {
                            "endTime" : 2325,
                            "time" : 2277,
                            "value" : 2.0985722162939,
                            "duration" : 48
                          },
                          {
                            "endTime" : 2579,
                            "time" : 2544,
                            "value" : 2.09857267425397,
                            "duration" : 35
                          },
                          {
                            "endTime" : 3133,
                            "time" : 3103,
                            "value" : 1.0,
                            "duration" : 30
                          },
                          {
                            "endTime" : 3188,
                            "time" : 3158,
                            "value" : 2.23217820442702,
                            "duration" : 30
                          },
                          {
                            "endTime" : 3320,
                            "time" : 3290,
                            "value" : 1.0,
                            "duration" : 30
                          },
                          {
                            "endTime" : 3366,
                            "time" : 3336,
                            "value" : 2.09899992295191,
                            "duration" : 30
                          }
                        ]
                      },
                      "scale1" : {
                        "type" : "double",
                        "defaultValue" : 1.0,
                        "keyframes" : [
                          {
                            "endTime" : 172,
                            "time" : 142,
                            "value" : 4.54918308493868,
                            "duration" : 30
                          },
                          {
                            "endTime" : 287,
                            "time" : 257,
                            "value" : 1.0,
                            "duration" : 30
                          },
                          {
                            "endTime" : 864,
                            "time" : 834,
                            "value" : 2.33593997834513,
                            "duration" : 30
                          },
                          {
                            "endTime" : 1910,
                            "time" : 1849,
                            "value" : 0.999999993662637,
                            "duration" : 61
                          },
                          {
                            "endTime" : 2325,
                            "time" : 2277,
                            "value" : 2.09857179682057,
                            "duration" : 48
                          },
                          {
                            "endTime" : 3133,
                            "time" : 3103,
                            "value" : 0.99999958189039,
                            "duration" : 30
                          },
                          {
                            "endTime" : 3188,
                            "time" : 3158,
                            "value" : 2.23217799209587,
                            "duration" : 30
                          },
                          {
                            "endTime" : 3320,
                            "time" : 3290,
                            "value" : 0.999999904877152,
                            "duration" : 30
                          },
                          {
                            "endTime" : 3366,
                            "time" : 3336,
                            "value" : 2.099,
                            "duration" : 30
                          }
                        ]
                      },
                      "cursorOpacity" : 1.0,
                      "cursorScale" : 1.0
                    },
                    "medias" : [
                        {
                          "id" : 151,
                          "_type" : "ScreenVMFile",
                          "src" : 2,
                          "trackNumber" : 0,
                          "attributes" : {
                            "ident" : "hijacking_ntfs_structs_attack"
                          },
                          "parameters" : {
                            "cursorScale" : {
                              "type" : "double",
                              "defaultValue" : 0.0,
                              "interp" : "linr"
                            },
                            "cursorOpacity" : {
                              "type" : "double",
                              "defaultValue" : 0.0,
                              "interp" : "linr"
                            }
                          },
                          "effects" : [

                          ],
                          "start" : 0,
                          "duration" : 212,
                          "mediaStart" : 0,
                          "mediaDuration" : 212,
                          "scalar" : 1,
                          "metadata" : {
                            "AutoAppliedSmartFocus" : "False",
                            "clipSpeedAttribute" : false,
                            "default-scale0" : 1.0,
                            "default-scale1" : 1.0,
                            "default-translation0" : 0.0,
                            "default-translation1" : 0.0
                          },
                          "animationTracks" : {

                          }
                        },
                        {
                          "id" : 152,
                          "_type" : "ScreenIMFile",
                          "src" : 2,
                          "trackNumber" : 0,
                          "trimStartSum" : 0,
                          "attributes" : {
                            "ident" : "hijacking_ntfs_structs_attack"
                          },
                          "parameters" : {
                            "cursorOpacity" : 0.0,
                            "cursorScale" : 0.0
                          },
                          "effects" : [

                          ],
                          "start" : 212,
                          "duration" : 45,
                          "mediaStart" : 211,
                          "mediaDuration" : 1,
                          "scalar" : 1,
                          "metadata" : {
                            "AutoAppliedSmartFocus" : "False"
                          },
                          "animationTracks" : {

                          }
                        },
                        {
                          "id" : 153,
                          "_type" : "ScreenVMFile",
                          "src" : 2,
                          "trackNumber" : 0,
                          "attributes" : {
                            "ident" : "hijacking_ntfs_structs_attack"
                          },
                          "parameters" : {
                            "cursorScale" : {
                              "type" : "double",
                              "defaultValue" : 0.0,
                              "interp" : "linr"
                            },
                            "cursorOpacity" : {
                              "type" : "double",
                              "defaultValue" : 0.0,
                              "interp" : "linr"
                            }
                          },
                          "effects" : [

                          ],
                          "start" : 257,
                          "duration" : 1542,
                          "mediaStart" : 212,
                          "mediaDuration" : 1542,
                          "scalar" : 1,
                          "metadata" : {
                            "AutoAppliedSmartFocus" : "False",
                            "clipSpeedAttribute" : false,
                            "default-scale0" : 1.0,
                            "default-scale1" : 1.0,
                            "default-translation0" : 0.0,
                            "default-translation1" : 0.0
                          },
                          "animationTracks" : {

                          }
                        },
                        {
                          "id" : 154,
                          "_type" : "ScreenIMFile",
                          "src" : 2,
                          "trackNumber" : 0,
                          "trimStartSum" : 0,
                          "attributes" : {
                            "ident" : "hijacking_ntfs_structs_attack"
                          },
                          "parameters" : {
                            "cursorOpacity" : 0.0,
                            "cursorScale" : 0.0
                          },
                          "effects" : [

                          ],
                          "start" : 1799,
                          "duration" : 150,
                          "mediaStart" : 1754,
                          "mediaDuration" : 1,
                          "scalar" : 1,
                          "metadata" : {
                            "AutoAppliedSmartFocus" : "False"
                          },
                          "animationTracks" : {

                          }
                        },
                        {
                          "id" : 155,
                          "_type" : "ScreenVMFile",
                          "src" : 2,
                          "trackNumber" : 0,
                          "attributes" : {
                            "ident" : "hijacking_ntfs_structs_attack"
                          },
                          "parameters" : {
                            "cursorScale" : {
                              "type" : "double",
                              "defaultValue" : 0.0,
                              "interp" : "linr"
                            },
                            "cursorOpacity" : {
                              "type" : "double",
                              "defaultValue" : 0.0,
                              "interp" : "linr"
                            }
                          },
                          "effects" : [

                          ],
                          "start" : 1949,
                          "duration" : 634,
                          "mediaStart" : 1754,
                          "mediaDuration" : 634,
                          "scalar" : 1,
                          "metadata" : {
                            "AutoAppliedSmartFocus" : "False",
                            "clipSpeedAttribute" : false,
                            "default-scale0" : 1.0,
                            "default-scale1" : 1.0,
                            "default-translation0" : 0.0,
                            "default-translation1" : 0.0
                          },
                          "animationTracks" : {

                          }
                        },
                        {
                          "id" : 156,
                          "_type" : "ScreenIMFile",
                          "src" : 2,
                          "trackNumber" : 0,
                          "trimStartSum" : 0,
                          "attributes" : {
                            "ident" : "hijacking_ntfs_structs_attack"
                          },
                          "parameters" : {
                            "cursorOpacity" : 0.0,
                            "cursorScale" : 0.0
                          },
                          "effects" : [

                          ],
                          "start" : 2583,
                          "duration" : 300,
                          "mediaStart" : 2388,
                          "mediaDuration" : 1,
                          "scalar" : 1,
                          "metadata" : {
                            "AutoAppliedSmartFocus" : "False"
                          },
                          "animationTracks" : {

                          }
                        },
                        {
                          "id" : 157,
                          "_type" : "ScreenVMFile",
                          "src" : 2,
                          "trackNumber" : 0,
                          "attributes" : {
                            "ident" : "hijacking_ntfs_structs_attack"
                          },
                          "parameters" : {
                            "cursorScale" : {
                              "type" : "double",
                              "defaultValue" : 0.0,
                              "interp" : "linr"
                            },
                            "cursorOpacity" : {
                              "type" : "double",
                              "defaultValue" : 0.0,
                              "interp" : "linr"
                            }
                          },
                          "effects" : [

                          ],
                          "start" : 2883,
                          "duration" : 673,
                          "mediaStart" : 2388,
                          "mediaDuration" : 673,
                          "scalar" : 1,
                          "metadata" : {
                            "AutoAppliedSmartFocus" : "False",
                            "clipSpeedAttribute" : false,
                            "default-scale0" : 1.0,
                            "default-scale1" : 1.0,
                            "default-translation0" : 0.0,
                            "default-translation1" : 0.0
                          },
                          "animationTracks" : {

                          }
                        },
                        {
                          "id" : 158,
                          "_type" : "ScreenIMFile",
                          "src" : 2,
                          "trackNumber" : 0,
                          "trimStartSum" : 0,
                          "attributes" : {
                            "ident" : "hijacking_ntfs_structs_attack"
                          },
                          "parameters" : {
                            "cursorOpacity" : 0.0,
                            "cursorScale" : 0.0
                          },
                          "effects" : [

                          ],
                          "start" : 3556,
                          "duration" : 75,
                          "mediaStart" : 3061,
                          "mediaDuration" : 1,
                          "scalar" : 1,
                          "metadata" : {
                            "AutoAppliedSmartFocus" : "False"
                          },
                          "animationTracks" : {

                          }
                        },
                        {
                          "id" : 159,
                          "_type" : "ScreenVMFile",
                          "src" : 2,
                          "trackNumber" : 0,
                          "attributes" : {
                            "ident" : "hijacking_ntfs_structs_attack"
                          },
                          "parameters" : {
                            "cursorScale" : {
                              "type" : "double",
                              "defaultValue" : 0.0,
                              "interp" : "linr"
                            },
                            "cursorOpacity" : {
                              "type" : "double",
                              "defaultValue" : 0.0,
                              "interp" : "linr"
                            }
                          },
                          "effects" : [

                          ],
                          "start" : 3631,
                          "duration" : 1280449,
                          "mediaStart" : 3061,
                          "mediaDuration" : 1280449,
                          "scalar" : 1,
                          "metadata" : {
                            "AutoAppliedSmartFocus" : "False",
                            "clipSpeedAttribute" : false,
                            "default-scale0" : 1.0,
                            "default-scale1" : 1.0,
                            "default-translation0" : 0.0,
                            "default-translation1" : 0.0
                          },
                          "animationTracks" : {

                          }
                        }
                    ],
                    "effects" : [
                        {
                          "effectName" : "CursorHilight",
                          "category" : "categoryCursorEffects",
                          "parameters" : {
                            "blur" : 0.1,
                            "color-alpha" : 0.75,
                            "color-blue" : 0.0,
                            "color-green" : 1.0,
                            "color-red" : 1.0,
                            "radius" : 50.0
                          }
                        }
                    ],
                    "start" : 2350,
                    "duration" : 86,
                    "mediaStart" : 3554,
                    "mediaDuration" : 86,
                    "scalar" : 1,
                    "metadata" : {
                      "AutoAppliedSmartFocus" : "False",
                      "clipSpeedAttribute" : false
                    },
                    "animationTracks" : {
                      "visual" : [
                        {
                          "endTime" : 172,
                          "duration" : 30,
                          "range" : [ 142, 30]
                        },
                        {
                          "endTime" : 287,
                          "duration" : 30,
                          "range" : [ 257, 30]
                        },
                        {
                          "endTime" : 864,
                          "duration" : 30,
                          "range" : [ 834, 30]
                        },
                        {
                          "endTime" : 1197,
                          "duration" : 58,
                          "range" : [ 1139, 58]
                        },
                        {
                          "endTime" : 1910,
                          "duration" : 61,
                          "range" : [ 1849, 61]
                        },
                        {
                          "endTime" : 2325,
                          "duration" : 48,
                          "range" : [ 2277, 48]
                        },
                        {
                          "endTime" : 2579,
                          "duration" : 35,
                          "range" : [ 2544, 35]
                        },
                        {
                          "endTime" : 3133,
                          "duration" : 30,
                          "range" : [ 3103, 30]
                        },
                        {
                          "endTime" : 3188,
                          "duration" : 30,
                          "range" : [ 3158, 30]
                        },
                        {
                          "endTime" : 3320,
                          "duration" : 30,
                          "range" : [ 3290, 30]
                        },
                        {
                          "endTime" : 3366,
                          "duration" : 30,
                          "range" : [ 3336, 30]
                        }
                      ]
                    }
                  },
                  {
                    "id" : 160,
                    "_type" : "StitchedMedia",
                    "minMediaStart" : 0,
                    "attributes" : {
                      "ident" : "hijacking_ntfs_structs_attack",
                      "gain" : 1.0,
                      "mixToMono" : false
                    },
                    "parameters" : {
                      "translation0" : {
                        "type" : "double",
                        "defaultValue" : 0.0,
                        "keyframes" : [
                          {
                            "endTime" : 172,
                            "time" : 142,
                            "value" : 4331.31223731553,
                            "duration" : 30
                          },
                          {
                            "endTime" : 287,
                            "time" : 257,
                            "value" : 5.6843418860808e-13,
                            "duration" : 30
                          },
                          {
                            "endTime" : 864,
                            "time" : 834,
                            "value" : 1642.08129557305,
                            "duration" : 30
                          },
                          {
                            "endTime" : 1197,
                            "time" : 1139,
                            "value" : 1642.08139278021,
                            "duration" : 58
                          },
                          {
                            "endTime" : 1910,
                            "time" : 1849,
                            "value" : -1.13686837721616e-13,
                            "duration" : 61
                          },
                          {
                            "endTime" : 2325,
                            "time" : 2277,
                            "value" : -820.380233071137,
                            "duration" : 48
                          },
                          {
                            "endTime" : 2579,
                            "time" : 2544,
                            "value" : -820.380080286275,
                            "duration" : 35
                          },
                          {
                            "endTime" : 3133,
                            "time" : 3103,
                            "value" : 1.13686837721616e-13,
                            "duration" : 30
                          },
                          {
                            "endTime" : 3188,
                            "time" : 3158,
                            "value" : 1538.24538555511,
                            "duration" : 30
                          },
                          {
                            "endTime" : 3320,
                            "time" : 3290,
                            "value" : -3.41060513164848e-13,
                            "duration" : 30
                          },
                          {
                            "endTime" : 3366,
                            "time" : 3336,
                            "value" : -820.4,
                            "duration" : 30
                          }
                        ]
                      },
                      "translation1" : {
                        "type" : "double",
                        "defaultValue" : 0.0,
                        "keyframes" : [
                          {
                            "endTime" : 172,
                            "time" : 142,
                            "value" : -2019.69283971535,
                            "duration" : 30
                          },
                          {
                            "endTime" : 287,
                            "time" : 257,
                            "value" : -2.8421709430404e-13,
                            "duration" : 30
                          },
                          {
                            "endTime" : 864,
                            "time" : 834,
                            "value" : -847.3,
                            "duration" : 30
                          },
                          {
                            "endTime" : 1197,
                            "time" : 1139,
                            "value" : -267.3,
                            "duration" : 58
                          },
                          {
                            "endTime" : 1910,
                            "time" : 1849,
                            "value" : 0.0,
                            "duration" : 61
                          },
                          {
                            "endTime" : 2325,
                            "time" : 2277,
                            "value" : 209.75628680721,
                            "duration" : 48
                          },
                          {
                            "endTime" : 2579,
                            "time" : 2544,
                            "value" : 624.692359618563,
                            "duration" : 35
                          },
                          {
                            "endTime" : 3133,
                            "time" : 3103,
                            "value" : 5.6843418860808e-14,
                            "duration" : 30
                          },
                          {
                            "endTime" : 3188,
                            "time" : 3158,
                            "value" : -719.227511644581,
                            "duration" : 30
                          },
                          {
                            "endTime" : 3320,
                            "time" : 3290,
                            "value" : 1.13686837721616e-13,
                            "duration" : 30
                          },
                          {
                            "endTime" : 3366,
                            "time" : 3336,
                            "value" : 624.7,
                            "duration" : 30
                          }
                        ]
                      },
                      "scale0" : {
                        "type" : "double",
                        "defaultValue" : 1.0,
                        "keyframes" : [
                          {
                            "endTime" : 172,
                            "time" : 142,
                            "value" : 4.54918320506327,
                            "duration" : 30
                          },
                          {
                            "endTime" : 287,
                            "time" : 257,
                            "value" : 0.999999977775835,
                            "duration" : 30
                          },
                          {
                            "endTime" : 864,
                            "time" : 834,
                            "value" : 2.33593993169021,
                            "duration" : 30
                          },
                          {
                            "endTime" : 1197,
                            "time" : 1139,
                            "value" : 2.33593999314883,
                            "duration" : 58
                          },
                          {
                            "endTime" : 1910,
                            "time" : 1849,
                            "value" : 1.0,
                            "duration" : 61
                          },
                          {
                            "endTime" : 2325,
                            "time" : 2277,
                            "value" : 2.0985722162939,
                            "duration" : 48
                          },
                          {
                            "endTime" : 2579,
                            "time" : 2544,
                            "value" : 2.09857267425397,
                            "duration" : 35
                          },
                          {
                            "endTime" : 3133,
                            "time" : 3103,
                            "value" : 1.0,
                            "duration" : 30
                          },
                          {
                            "endTime" : 3188,
                            "time" : 3158,
                            "value" : 2.23217820442702,
                            "duration" : 30
                          },
                          {
                            "endTime" : 3320,
                            "time" : 3290,
                            "value" : 1.0,
                            "duration" : 30
                          },
                          {
                            "endTime" : 3366,
                            "time" : 3336,
                            "value" : 2.09899992295191,
                            "duration" : 30
                          }
                        ]
                      },
                      "scale1" : {
                        "type" : "double",
                        "defaultValue" : 1.0,
                        "keyframes" : [
                          {
                            "endTime" : 172,
                            "time" : 142,
                            "value" : 4.54918308493868,
                            "duration" : 30
                          },
                          {
                            "endTime" : 287,
                            "time" : 257,
                            "value" : 1.0,
                            "duration" : 30
                          },
                          {
                            "endTime" : 864,
                            "time" : 834,
                            "value" : 2.33593997834513,
                            "duration" : 30
                          },
                          {
                            "endTime" : 1910,
                            "time" : 1849,
                            "value" : 0.999999993662637,
                            "duration" : 61
                          },
                          {
                            "endTime" : 2325,
                            "time" : 2277,
                            "value" : 2.09857179682057,
                            "duration" : 48
                          },
                          {
                            "endTime" : 3133,
                            "time" : 3103,
                            "value" : 0.99999958189039,
                            "duration" : 30
                          },
                          {
                            "endTime" : 3188,
                            "time" : 3158,
                            "value" : 2.23217799209587,
                            "duration" : 30
                          },
                          {
                            "endTime" : 3320,
                            "time" : 3290,
                            "value" : 0.999999904877152,
                            "duration" : 30
                          },
                          {
                            "endTime" : 3366,
                            "time" : 3336,
                            "value" : 2.099,
                            "duration" : 30
                          }
                        ]
                      },
                      "cursorOpacity" : 1.0,
                      "cursorScale" : 1.0
                    },
                    "medias" : [
                        {
                          "id" : 161,
                          "_type" : "ScreenVMFile",
                          "src" : 2,
                          "trackNumber" : 0,
                          "attributes" : {
                            "ident" : "hijacking_ntfs_structs_attack"
                          },
                          "parameters" : {
                            "cursorScale" : {
                              "type" : "double",
                              "defaultValue" : 0.0,
                              "interp" : "linr"
                            },
                            "cursorOpacity" : {
                              "type" : "double",
                              "defaultValue" : 0.0,
                              "interp" : "linr"
                            }
                          },
                          "effects" : [

                          ],
                          "start" : 0,
                          "duration" : 212,
                          "mediaStart" : 0,
                          "mediaDuration" : 212,
                          "scalar" : 1,
                          "metadata" : {
                            "AutoAppliedSmartFocus" : "False",
                            "clipSpeedAttribute" : false,
                            "default-scale0" : 1.0,
                            "default-scale1" : 1.0,
                            "default-translation0" : 0.0,
                            "default-translation1" : 0.0
                          },
                          "animationTracks" : {

                          }
                        },
                        {
                          "id" : 162,
                          "_type" : "ScreenIMFile",
                          "src" : 2,
                          "trackNumber" : 0,
                          "trimStartSum" : 0,
                          "attributes" : {
                            "ident" : "hijacking_ntfs_structs_attack"
                          },
                          "parameters" : {
                            "cursorOpacity" : 0.0,
                            "cursorScale" : 0.0
                          },
                          "effects" : [

                          ],
                          "start" : 212,
                          "duration" : 45,
                          "mediaStart" : 211,
                          "mediaDuration" : 1,
                          "scalar" : 1,
                          "metadata" : {
                            "AutoAppliedSmartFocus" : "False"
                          },
                          "animationTracks" : {

                          }
                        },
                        {
                          "id" : 163,
                          "_type" : "ScreenVMFile",
                          "src" : 2,
                          "trackNumber" : 0,
                          "attributes" : {
                            "ident" : "hijacking_ntfs_structs_attack"
                          },
                          "parameters" : {
                            "cursorScale" : {
                              "type" : "double",
                              "defaultValue" : 0.0,
                              "interp" : "linr"
                            },
                            "cursorOpacity" : {
                              "type" : "double",
                              "defaultValue" : 0.0,
                              "interp" : "linr"
                            }
                          },
                          "effects" : [

                          ],
                          "start" : 257,
                          "duration" : 1542,
                          "mediaStart" : 212,
                          "mediaDuration" : 1542,
                          "scalar" : 1,
                          "metadata" : {
                            "AutoAppliedSmartFocus" : "False",
                            "clipSpeedAttribute" : false,
                            "default-scale0" : 1.0,
                            "default-scale1" : 1.0,
                            "default-translation0" : 0.0,
                            "default-translation1" : 0.0
                          },
                          "animationTracks" : {

                          }
                        },
                        {
                          "id" : 164,
                          "_type" : "ScreenIMFile",
                          "src" : 2,
                          "trackNumber" : 0,
                          "trimStartSum" : 0,
                          "attributes" : {
                            "ident" : "hijacking_ntfs_structs_attack"
                          },
                          "parameters" : {
                            "cursorOpacity" : 0.0,
                            "cursorScale" : 0.0
                          },
                          "effects" : [

                          ],
                          "start" : 1799,
                          "duration" : 150,
                          "mediaStart" : 1754,
                          "mediaDuration" : 1,
                          "scalar" : 1,
                          "metadata" : {
                            "AutoAppliedSmartFocus" : "False"
                          },
                          "animationTracks" : {

                          }
                        },
                        {
                          "id" : 165,
                          "_type" : "ScreenVMFile",
                          "src" : 2,
                          "trackNumber" : 0,
                          "attributes" : {
                            "ident" : "hijacking_ntfs_structs_attack"
                          },
                          "parameters" : {
                            "cursorScale" : {
                              "type" : "double",
                              "defaultValue" : 0.0,
                              "interp" : "linr"
                            },
                            "cursorOpacity" : {
                              "type" : "double",
                              "defaultValue" : 0.0,
                              "interp" : "linr"
                            }
                          },
                          "effects" : [

                          ],
                          "start" : 1949,
                          "duration" : 634,
                          "mediaStart" : 1754,
                          "mediaDuration" : 634,
                          "scalar" : 1,
                          "metadata" : {
                            "AutoAppliedSmartFocus" : "False",
                            "clipSpeedAttribute" : false,
                            "default-scale0" : 1.0,
                            "default-scale1" : 1.0,
                            "default-translation0" : 0.0,
                            "default-translation1" : 0.0
                          },
                          "animationTracks" : {

                          }
                        },
                        {
                          "id" : 166,
                          "_type" : "ScreenIMFile",
                          "src" : 2,
                          "trackNumber" : 0,
                          "trimStartSum" : 0,
                          "attributes" : {
                            "ident" : "hijacking_ntfs_structs_attack"
                          },
                          "parameters" : {
                            "cursorOpacity" : 0.0,
                            "cursorScale" : 0.0
                          },
                          "effects" : [

                          ],
                          "start" : 2583,
                          "duration" : 300,
                          "mediaStart" : 2388,
                          "mediaDuration" : 1,
                          "scalar" : 1,
                          "metadata" : {
                            "AutoAppliedSmartFocus" : "False"
                          },
                          "animationTracks" : {

                          }
                        },
                        {
                          "id" : 167,
                          "_type" : "ScreenVMFile",
                          "src" : 2,
                          "trackNumber" : 0,
                          "attributes" : {
                            "ident" : "hijacking_ntfs_structs_attack"
                          },
                          "parameters" : {
                            "cursorScale" : {
                              "type" : "double",
                              "defaultValue" : 0.0,
                              "interp" : "linr"
                            },
                            "cursorOpacity" : {
                              "type" : "double",
                              "defaultValue" : 0.0,
                              "interp" : "linr"
                            }
                          },
                          "effects" : [

                          ],
                          "start" : 2883,
                          "duration" : 1281122,
                          "mediaStart" : 2388,
                          "mediaDuration" : 1281122,
                          "scalar" : 1,
                          "metadata" : {
                            "AutoAppliedSmartFocus" : "False",
                            "clipSpeedAttribute" : false,
                            "default-scale0" : 1.0,
                            "default-scale1" : 1.0,
                            "default-translation0" : 0.0,
                            "default-translation1" : 0.0
                          },
                          "animationTracks" : {

                          }
                        }
                    ],
                    "effects" : [
                        {
                          "effectName" : "CursorHilight",
                          "category" : "categoryCursorEffects",
                          "parameters" : {
                            "blur" : 0.1,
                            "color-alpha" : 0.75,
                            "color-blue" : 0.0,
                            "color-green" : 1.0,
                            "color-red" : 1.0,
                            "radius" : 50.0
                          }
                        }
                    ],
                    "start" : 2436,
                    "duration" : 65,
                    "mediaStart" : 3565,
                    "mediaDuration" : 92,
                    "scalar" : "65/92",
                    "metadata" : {
                      "AutoAppliedSmartFocus" : "False",
                      "clipSpeedAttribute" : true,
                      "default-scale0" : 2.09857267425397,
                      "default-scale1" : 2.09857179682057,
                      "default-translation0" : -820.380080286275,
                      "default-translation1" : 624.692359618563
                    },
                    "animationTracks" : {
                      "visual" : [
                        {
                          "endTime" : 172,
                          "duration" : 30,
                          "range" : [ 142, 30]
                        },
                        {
                          "endTime" : 287,
                          "duration" : 30,
                          "range" : [ 257, 30]
                        },
                        {
                          "endTime" : 864,
                          "duration" : 30,
                          "range" : [ 834, 30]
                        },
                        {
                          "endTime" : 1197,
                          "duration" : 58,
                          "range" : [ 1139, 58]
                        },
                        {
                          "endTime" : 1910,
                          "duration" : 61,
                          "range" : [ 1849, 61]
                        },
                        {
                          "endTime" : 2325,
                          "duration" : 48,
                          "range" : [ 2277, 48]
                        },
                        {
                          "endTime" : 2579,
                          "duration" : 35,
                          "range" : [ 2544, 35]
                        },
                        {
                          "endTime" : 3133,
                          "duration" : 30,
                          "range" : [ 3103, 30]
                        },
                        {
                          "endTime" : 3188,
                          "duration" : 30,
                          "range" : [ 3158, 30]
                        },
                        {
                          "endTime" : 3320,
                          "duration" : 30,
                          "range" : [ 3290, 30]
                        },
                        {
                          "endTime" : 3366,
                          "duration" : 30,
                          "range" : [ 3336, 30]
                        }
                      ]
                    }
                  },
                  {
                    "id" : 168,
                    "_type" : "StitchedMedia",
                    "minMediaStart" : 0,
                    "attributes" : {
                      "ident" : "hijacking_ntfs_structs_attack",
                      "gain" : 1.0,
                      "mixToMono" : false
                    },
                    "parameters" : {
                      "translation0" : {
                        "type" : "double",
                        "defaultValue" : 0.0,
                        "keyframes" : [
                          {
                            "endTime" : 172,
                            "time" : 142,
                            "value" : 4331.31223731553,
                            "duration" : 30
                          },
                          {
                            "endTime" : 287,
                            "time" : 257,
                            "value" : 5.6843418860808e-13,
                            "duration" : 30
                          },
                          {
                            "endTime" : 864,
                            "time" : 834,
                            "value" : 1642.08129557305,
                            "duration" : 30
                          },
                          {
                            "endTime" : 1197,
                            "time" : 1139,
                            "value" : 1642.08139278021,
                            "duration" : 58
                          },
                          {
                            "endTime" : 1910,
                            "time" : 1849,
                            "value" : -1.13686837721616e-13,
                            "duration" : 61
                          },
                          {
                            "endTime" : 2325,
                            "time" : 2277,
                            "value" : -820.380233071137,
                            "duration" : 48
                          },
                          {
                            "endTime" : 2579,
                            "time" : 2544,
                            "value" : -820.380080286275,
                            "duration" : 35
                          },
                          {
                            "endTime" : 3133,
                            "time" : 3103,
                            "value" : 1.13686837721616e-13,
                            "duration" : 30
                          },
                          {
                            "endTime" : 3188,
                            "time" : 3158,
                            "value" : 1538.24538555511,
                            "duration" : 30
                          },
                          {
                            "endTime" : 3320,
                            "time" : 3290,
                            "value" : -3.41060513164848e-13,
                            "duration" : 30
                          },
                          {
                            "endTime" : 3366,
                            "time" : 3336,
                            "value" : -820.4,
                            "duration" : 30
                          }
                        ]
                      },
                      "translation1" : {
                        "type" : "double",
                        "defaultValue" : 0.0,
                        "keyframes" : [
                          {
                            "endTime" : 172,
                            "time" : 142,
                            "value" : -2019.69283971535,
                            "duration" : 30
                          },
                          {
                            "endTime" : 287,
                            "time" : 257,
                            "value" : -2.8421709430404e-13,
                            "duration" : 30
                          },
                          {
                            "endTime" : 864,
                            "time" : 834,
                            "value" : -847.3,
                            "duration" : 30
                          },
                          {
                            "endTime" : 1197,
                            "time" : 1139,
                            "value" : -267.3,
                            "duration" : 58
                          },
                          {
                            "endTime" : 1910,
                            "time" : 1849,
                            "value" : 0.0,
                            "duration" : 61
                          },
                          {
                            "endTime" : 2325,
                            "time" : 2277,
                            "value" : 209.75628680721,
                            "duration" : 48
                          },
                          {
                            "endTime" : 2579,
                            "time" : 2544,
                            "value" : 624.692359618563,
                            "duration" : 35
                          },
                          {
                            "endTime" : 3133,
                            "time" : 3103,
                            "value" : 5.6843418860808e-14,
                            "duration" : 30
                          },
                          {
                            "endTime" : 3188,
                            "time" : 3158,
                            "value" : -719.227511644581,
                            "duration" : 30
                          },
                          {
                            "endTime" : 3320,
                            "time" : 3290,
                            "value" : 1.13686837721616e-13,
                            "duration" : 30
                          },
                          {
                            "endTime" : 3366,
                            "time" : 3336,
                            "value" : 624.7,
                            "duration" : 30
                          }
                        ]
                      },
                      "scale0" : {
                        "type" : "double",
                        "defaultValue" : 1.0,
                        "keyframes" : [
                          {
                            "endTime" : 172,
                            "time" : 142,
                            "value" : 4.54918320506327,
                            "duration" : 30
                          },
                          {
                            "endTime" : 287,
                            "time" : 257,
                            "value" : 0.999999977775835,
                            "duration" : 30
                          },
                          {
                            "endTime" : 864,
                            "time" : 834,
                            "value" : 2.33593993169021,
                            "duration" : 30
                          },
                          {
                            "endTime" : 1197,
                            "time" : 1139,
                            "value" : 2.33593999314883,
                            "duration" : 58
                          },
                          {
                            "endTime" : 1910,
                            "time" : 1849,
                            "value" : 1.0,
                            "duration" : 61
                          },
                          {
                            "endTime" : 2325,
                            "time" : 2277,
                            "value" : 2.0985722162939,
                            "duration" : 48
                          },
                          {
                            "endTime" : 2579,
                            "time" : 2544,
                            "value" : 2.09857267425397,
                            "duration" : 35
                          },
                          {
                            "endTime" : 3133,
                            "time" : 3103,
                            "value" : 1.0,
                            "duration" : 30
                          },
                          {
                            "endTime" : 3188,
                            "time" : 3158,
                            "value" : 2.23217820442702,
                            "duration" : 30
                          },
                          {
                            "endTime" : 3320,
                            "time" : 3290,
                            "value" : 1.0,
                            "duration" : 30
                          },
                          {
                            "endTime" : 3366,
                            "time" : 3336,
                            "value" : 2.09899992295191,
                            "duration" : 30
                          }
                        ]
                      },
                      "scale1" : {
                        "type" : "double",
                        "defaultValue" : 1.0,
                        "keyframes" : [
                          {
                            "endTime" : 172,
                            "time" : 142,
                            "value" : 4.54918308493868,
                            "duration" : 30
                          },
                          {
                            "endTime" : 287,
                            "time" : 257,
                            "value" : 1.0,
                            "duration" : 30
                          },
                          {
                            "endTime" : 864,
                            "time" : 834,
                            "value" : 2.33593997834513,
                            "duration" : 30
                          },
                          {
                            "endTime" : 1910,
                            "time" : 1849,
                            "value" : 0.999999993662637,
                            "duration" : 61
                          },
                          {
                            "endTime" : 2325,
                            "time" : 2277,
                            "value" : 2.09857179682057,
                            "duration" : 48
                          },
                          {
                            "endTime" : 3133,
                            "time" : 3103,
                            "value" : 0.99999958189039,
                            "duration" : 30
                          },
                          {
                            "endTime" : 3188,
                            "time" : 3158,
                            "value" : 2.23217799209587,
                            "duration" : 30
                          },
                          {
                            "endTime" : 3320,
                            "time" : 3290,
                            "value" : 0.999999904877152,
                            "duration" : 30
                          },
                          {
                            "endTime" : 3366,
                            "time" : 3336,
                            "value" : 2.099,
                            "duration" : 30
                          }
                        ]
                      },
                      "cursorOpacity" : 1.0,
                      "cursorScale" : 1.0
                    },
                    "medias" : [
                        {
                          "id" : 169,
                          "_type" : "ScreenVMFile",
                          "src" : 2,
                          "trackNumber" : 0,
                          "attributes" : {
                            "ident" : "hijacking_ntfs_structs_attack"
                          },
                          "parameters" : {
                            "cursorScale" : {
                              "type" : "double",
                              "defaultValue" : 0.0,
                              "interp" : "linr"
                            },
                            "cursorOpacity" : {
                              "type" : "double",
                              "defaultValue" : 0.0,
                              "interp" : "linr"
                            }
                          },
                          "effects" : [

                          ],
                          "start" : 0,
                          "duration" : 212,
                          "mediaStart" : 0,
                          "mediaDuration" : 212,
                          "scalar" : 1,
                          "metadata" : {
                            "AutoAppliedSmartFocus" : "False",
                            "clipSpeedAttribute" : false,
                            "default-scale0" : 1.0,
                            "default-scale1" : 1.0,
                            "default-translation0" : 0.0,
                            "default-translation1" : 0.0
                          },
                          "animationTracks" : {

                          }
                        },
                        {
                          "id" : 170,
                          "_type" : "ScreenIMFile",
                          "src" : 2,
                          "trackNumber" : 0,
                          "trimStartSum" : 0,
                          "attributes" : {
                            "ident" : "hijacking_ntfs_structs_attack"
                          },
                          "parameters" : {
                            "cursorOpacity" : 0.0,
                            "cursorScale" : 0.0
                          },
                          "effects" : [

                          ],
                          "start" : 212,
                          "duration" : 45,
                          "mediaStart" : 211,
                          "mediaDuration" : 1,
                          "scalar" : 1,
                          "metadata" : {
                            "AutoAppliedSmartFocus" : "False"
                          },
                          "animationTracks" : {

                          }
                        },
                        {
                          "id" : 171,
                          "_type" : "ScreenVMFile",
                          "src" : 2,
                          "trackNumber" : 0,
                          "attributes" : {
                            "ident" : "hijacking_ntfs_structs_attack"
                          },
                          "parameters" : {
                            "cursorScale" : {
                              "type" : "double",
                              "defaultValue" : 0.0,
                              "interp" : "linr"
                            },
                            "cursorOpacity" : {
                              "type" : "double",
                              "defaultValue" : 0.0,
                              "interp" : "linr"
                            }
                          },
                          "effects" : [

                          ],
                          "start" : 257,
                          "duration" : 1542,
                          "mediaStart" : 212,
                          "mediaDuration" : 1542,
                          "scalar" : 1,
                          "metadata" : {
                            "AutoAppliedSmartFocus" : "False",
                            "clipSpeedAttribute" : false,
                            "default-scale0" : 1.0,
                            "default-scale1" : 1.0,
                            "default-translation0" : 0.0,
                            "default-translation1" : 0.0
                          },
                          "animationTracks" : {

                          }
                        },
                        {
                          "id" : 172,
                          "_type" : "ScreenIMFile",
                          "src" : 2,
                          "trackNumber" : 0,
                          "trimStartSum" : 0,
                          "attributes" : {
                            "ident" : "hijacking_ntfs_structs_attack"
                          },
                          "parameters" : {
                            "cursorOpacity" : 0.0,
                            "cursorScale" : 0.0
                          },
                          "effects" : [

                          ],
                          "start" : 1799,
                          "duration" : 150,
                          "mediaStart" : 1754,
                          "mediaDuration" : 1,
                          "scalar" : 1,
                          "metadata" : {
                            "AutoAppliedSmartFocus" : "False"
                          },
                          "animationTracks" : {

                          }
                        },
                        {
                          "id" : 173,
                          "_type" : "ScreenVMFile",
                          "src" : 2,
                          "trackNumber" : 0,
                          "attributes" : {
                            "ident" : "hijacking_ntfs_structs_attack"
                          },
                          "parameters" : {
                            "cursorScale" : {
                              "type" : "double",
                              "defaultValue" : 0.0,
                              "interp" : "linr"
                            },
                            "cursorOpacity" : {
                              "type" : "double",
                              "defaultValue" : 0.0,
                              "interp" : "linr"
                            }
                          },
                          "effects" : [

                          ],
                          "start" : 1949,
                          "duration" : 634,
                          "mediaStart" : 1754,
                          "mediaDuration" : 634,
                          "scalar" : 1,
                          "metadata" : {
                            "AutoAppliedSmartFocus" : "False",
                            "clipSpeedAttribute" : false,
                            "default-scale0" : 1.0,
                            "default-scale1" : 1.0,
                            "default-translation0" : 0.0,
                            "default-translation1" : 0.0
                          },
                          "animationTracks" : {

                          }
                        },
                        {
                          "id" : 174,
                          "_type" : "ScreenIMFile",
                          "src" : 2,
                          "trackNumber" : 0,
                          "trimStartSum" : 0,
                          "attributes" : {
                            "ident" : "hijacking_ntfs_structs_attack"
                          },
                          "parameters" : {
                            "cursorOpacity" : 0.0,
                            "cursorScale" : 0.0
                          },
                          "effects" : [

                          ],
                          "start" : 2583,
                          "duration" : 300,
                          "mediaStart" : 2388,
                          "mediaDuration" : 1,
                          "scalar" : 1,
                          "metadata" : {
                            "AutoAppliedSmartFocus" : "False"
                          },
                          "animationTracks" : {

                          }
                        },
                        {
                          "id" : 175,
                          "_type" : "ScreenVMFile",
                          "src" : 2,
                          "trackNumber" : 0,
                          "attributes" : {
                            "ident" : "hijacking_ntfs_structs_attack"
                          },
                          "parameters" : {
                            "cursorScale" : {
                              "type" : "double",
                              "defaultValue" : 0.0,
                              "interp" : "linr"
                            },
                            "cursorOpacity" : {
                              "type" : "double",
                              "defaultValue" : 0.0,
                              "interp" : "linr"
                            }
                          },
                          "effects" : [

                          ],
                          "start" : 2883,
                          "duration" : 903,
                          "mediaStart" : 2388,
                          "mediaDuration" : 903,
                          "scalar" : 1,
                          "metadata" : {
                            "AutoAppliedSmartFocus" : "False",
                            "clipSpeedAttribute" : false,
                            "default-scale0" : 1.0,
                            "default-scale1" : 1.0,
                            "default-translation0" : 0.0,
                            "default-translation1" : 0.0
                          },
                          "animationTracks" : {

                          }
                        },
                        {
                          "id" : 176,
                          "_type" : "ScreenIMFile",
                          "src" : 2,
                          "trackNumber" : 0,
                          "trimStartSum" : 0,
                          "attributes" : {
                            "ident" : "hijacking_ntfs_structs_attack"
                          },
                          "parameters" : {
                            "cursorOpacity" : 0.0,
                            "cursorScale" : 0.0
                          },
                          "effects" : [

                          ],
                          "start" : 3786,
                          "duration" : 30,
                          "mediaStart" : 3291,
                          "mediaDuration" : 1,
                          "scalar" : 1,
                          "metadata" : {
                            "AutoAppliedSmartFocus" : "False"
                          },
                          "animationTracks" : {

                          }
                        },
                        {
                          "id" : 177,
                          "_type" : "ScreenVMFile",
                          "src" : 2,
                          "trackNumber" : 0,
                          "attributes" : {
                            "ident" : "hijacking_ntfs_structs_attack"
                          },
                          "parameters" : {
                            "cursorScale" : {
                              "type" : "double",
                              "defaultValue" : 0.0,
                              "interp" : "linr"
                            },
                            "cursorOpacity" : {
                              "type" : "double",
                              "defaultValue" : 0.0,
                              "interp" : "linr"
                            }
                          },
                          "effects" : [

                          ],
                          "start" : 3816,
                          "duration" : 1280219,
                          "mediaStart" : 3291,
                          "mediaDuration" : 1280219,
                          "scalar" : 1,
                          "metadata" : {
                            "AutoAppliedSmartFocus" : "False",
                            "clipSpeedAttribute" : false,
                            "default-scale0" : 1.0,
                            "default-scale1" : 1.0,
                            "default-translation0" : 0.0,
                            "default-translation1" : 0.0
                          },
                          "animationTracks" : {

                          }
                        }
                    ],
                    "effects" : [
                        {
                          "effectName" : "CursorHilight",
                          "category" : "categoryCursorEffects",
                          "parameters" : {
                            "blur" : 0.1,
                            "color-alpha" : 0.75,
                            "color-blue" : 0.0,
                            "color-green" : 1.0,
                            "color-red" : 1.0,
                            "radius" : 50.0
                          }
                        }
                    ],
                    "start" : 2501,
                    "duration" : 164,
                    "mediaStart" : 3657,
                    "mediaDuration" : 164,
                    "scalar" : 1,
                    "metadata" : {
                      "AutoAppliedSmartFocus" : "False",
                      "clipSpeedAttribute" : false
                    },
                    "animationTracks" : {
                      "visual" : [
                        {
                          "endTime" : 172,
                          "duration" : 30,
                          "range" : [ 142, 30]
                        },
                        {
                          "endTime" : 287,
                          "duration" : 30,
                          "range" : [ 257, 30]
                        },
                        {
                          "endTime" : 864,
                          "duration" : 30,
                          "range" : [ 834, 30]
                        },
                        {
                          "endTime" : 1197,
                          "duration" : 58,
                          "range" : [ 1139, 58]
                        },
                        {
                          "endTime" : 1910,
                          "duration" : 61,
                          "range" : [ 1849, 61]
                        },
                        {
                          "endTime" : 2325,
                          "duration" : 48,
                          "range" : [ 2277, 48]
                        },
                        {
                          "endTime" : 2579,
                          "duration" : 35,
                          "range" : [ 2544, 35]
                        },
                        {
                          "endTime" : 3133,
                          "duration" : 30,
                          "range" : [ 3103, 30]
                        },
                        {
                          "endTime" : 3188,
                          "duration" : 30,
                          "range" : [ 3158, 30]
                        },
                        {
                          "endTime" : 3320,
                          "duration" : 30,
                          "range" : [ 3290, 30]
                        },
                        {
                          "endTime" : 3366,
                          "duration" : 30,
                          "range" : [ 3336, 30]
                        }
                      ]
                    }
                  },
                  {
                    "id" : 178,
                    "_type" : "StitchedMedia",
                    "minMediaStart" : 0,
                    "attributes" : {
                      "ident" : "hijacking_ntfs_structs_attack",
                      "gain" : 1.0,
                      "mixToMono" : false
                    },
                    "parameters" : {
                      "translation0" : {
                        "type" : "double",
                        "defaultValue" : 0.0,
                        "keyframes" : [
                          {
                            "endTime" : 172,
                            "time" : 142,
                            "value" : 4331.31223731553,
                            "duration" : 30
                          },
                          {
                            "endTime" : 287,
                            "time" : 257,
                            "value" : 5.6843418860808e-13,
                            "duration" : 30
                          },
                          {
                            "endTime" : 864,
                            "time" : 834,
                            "value" : 1642.08129557305,
                            "duration" : 30
                          },
                          {
                            "endTime" : 1197,
                            "time" : 1139,
                            "value" : 1642.08139278021,
                            "duration" : 58
                          },
                          {
                            "endTime" : 1910,
                            "time" : 1849,
                            "value" : -1.13686837721616e-13,
                            "duration" : 61
                          },
                          {
                            "endTime" : 2325,
                            "time" : 2277,
                            "value" : -820.380233071137,
                            "duration" : 48
                          },
                          {
                            "endTime" : 2579,
                            "time" : 2544,
                            "value" : -820.380080286275,
                            "duration" : 35
                          },
                          {
                            "endTime" : 3133,
                            "time" : 3103,
                            "value" : 1.13686837721616e-13,
                            "duration" : 30
                          },
                          {
                            "endTime" : 3188,
                            "time" : 3158,
                            "value" : 1538.24538555511,
                            "duration" : 30
                          },
                          {
                            "endTime" : 3320,
                            "time" : 3290,
                            "value" : -3.41060513164848e-13,
                            "duration" : 30
                          },
                          {
                            "endTime" : 3366,
                            "time" : 3336,
                            "value" : -820.4,
                            "duration" : 30
                          }
                        ]
                      },
                      "translation1" : {
                        "type" : "double",
                        "defaultValue" : 0.0,
                        "keyframes" : [
                          {
                            "endTime" : 172,
                            "time" : 142,
                            "value" : -2019.69283971535,
                            "duration" : 30
                          },
                          {
                            "endTime" : 287,
                            "time" : 257,
                            "value" : -2.8421709430404e-13,
                            "duration" : 30
                          },
                          {
                            "endTime" : 864,
                            "time" : 834,
                            "value" : -847.3,
                            "duration" : 30
                          },
                          {
                            "endTime" : 1197,
                            "time" : 1139,
                            "value" : -267.3,
                            "duration" : 58
                          },
                          {
                            "endTime" : 1910,
                            "time" : 1849,
                            "value" : 0.0,
                            "duration" : 61
                          },
                          {
                            "endTime" : 2325,
                            "time" : 2277,
                            "value" : 209.75628680721,
                            "duration" : 48
                          },
                          {
                            "endTime" : 2579,
                            "time" : 2544,
                            "value" : 624.692359618563,
                            "duration" : 35
                          },
                          {
                            "endTime" : 3133,
                            "time" : 3103,
                            "value" : 5.6843418860808e-14,
                            "duration" : 30
                          },
                          {
                            "endTime" : 3188,
                            "time" : 3158,
                            "value" : -719.227511644581,
                            "duration" : 30
                          },
                          {
                            "endTime" : 3320,
                            "time" : 3290,
                            "value" : 1.13686837721616e-13,
                            "duration" : 30
                          },
                          {
                            "endTime" : 3366,
                            "time" : 3336,
                            "value" : 624.7,
                            "duration" : 30
                          }
                        ]
                      },
                      "scale0" : {
                        "type" : "double",
                        "defaultValue" : 1.0,
                        "keyframes" : [
                          {
                            "endTime" : 172,
                            "time" : 142,
                            "value" : 4.54918320506327,
                            "duration" : 30
                          },
                          {
                            "endTime" : 287,
                            "time" : 257,
                            "value" : 0.999999977775835,
                            "duration" : 30
                          },
                          {
                            "endTime" : 864,
                            "time" : 834,
                            "value" : 2.33593993169021,
                            "duration" : 30
                          },
                          {
                            "endTime" : 1197,
                            "time" : 1139,
                            "value" : 2.33593999314883,
                            "duration" : 58
                          },
                          {
                            "endTime" : 1910,
                            "time" : 1849,
                            "value" : 1.0,
                            "duration" : 61
                          },
                          {
                            "endTime" : 2325,
                            "time" : 2277,
                            "value" : 2.0985722162939,
                            "duration" : 48
                          },
                          {
                            "endTime" : 2579,
                            "time" : 2544,
                            "value" : 2.09857267425397,
                            "duration" : 35
                          },
                          {
                            "endTime" : 3133,
                            "time" : 3103,
                            "value" : 1.0,
                            "duration" : 30
                          },
                          {
                            "endTime" : 3188,
                            "time" : 3158,
                            "value" : 2.23217820442702,
                            "duration" : 30
                          },
                          {
                            "endTime" : 3320,
                            "time" : 3290,
                            "value" : 1.0,
                            "duration" : 30
                          },
                          {
                            "endTime" : 3366,
                            "time" : 3336,
                            "value" : 2.09899992295191,
                            "duration" : 30
                          }
                        ]
                      },
                      "scale1" : {
                        "type" : "double",
                        "defaultValue" : 1.0,
                        "keyframes" : [
                          {
                            "endTime" : 172,
                            "time" : 142,
                            "value" : 4.54918308493868,
                            "duration" : 30
                          },
                          {
                            "endTime" : 287,
                            "time" : 257,
                            "value" : 1.0,
                            "duration" : 30
                          },
                          {
                            "endTime" : 864,
                            "time" : 834,
                            "value" : 2.33593997834513,
                            "duration" : 30
                          },
                          {
                            "endTime" : 1910,
                            "time" : 1849,
                            "value" : 0.999999993662637,
                            "duration" : 61
                          },
                          {
                            "endTime" : 2325,
                            "time" : 2277,
                            "value" : 2.09857179682057,
                            "duration" : 48
                          },
                          {
                            "endTime" : 3133,
                            "time" : 3103,
                            "value" : 0.99999958189039,
                            "duration" : 30
                          },
                          {
                            "endTime" : 3188,
                            "time" : 3158,
                            "value" : 2.23217799209587,
                            "duration" : 30
                          },
                          {
                            "endTime" : 3320,
                            "time" : 3290,
                            "value" : 0.999999904877152,
                            "duration" : 30
                          },
                          {
                            "endTime" : 3366,
                            "time" : 3336,
                            "value" : 2.099,
                            "duration" : 30
                          }
                        ]
                      },
                      "cursorOpacity" : 1.0,
                      "cursorScale" : 1.0
                    },
                    "medias" : [
                        {
                          "id" : 179,
                          "_type" : "ScreenVMFile",
                          "src" : 2,
                          "trackNumber" : 0,
                          "attributes" : {
                            "ident" : "hijacking_ntfs_structs_attack"
                          },
                          "parameters" : {
                            "cursorScale" : {
                              "type" : "double",
                              "defaultValue" : 0.0,
                              "interp" : "linr"
                            },
                            "cursorOpacity" : {
                              "type" : "double",
                              "defaultValue" : 0.0,
                              "interp" : "linr"
                            }
                          },
                          "effects" : [

                          ],
                          "start" : 0,
                          "duration" : 212,
                          "mediaStart" : 0,
                          "mediaDuration" : 212,
                          "scalar" : 1,
                          "metadata" : {
                            "AutoAppliedSmartFocus" : "False",
                            "clipSpeedAttribute" : false,
                            "default-scale0" : 1.0,
                            "default-scale1" : 1.0,
                            "default-translation0" : 0.0,
                            "default-translation1" : 0.0
                          },
                          "animationTracks" : {

                          }
                        },
                        {
                          "id" : 180,
                          "_type" : "ScreenIMFile",
                          "src" : 2,
                          "trackNumber" : 0,
                          "trimStartSum" : 0,
                          "attributes" : {
                            "ident" : "hijacking_ntfs_structs_attack"
                          },
                          "parameters" : {
                            "cursorOpacity" : 0.0,
                            "cursorScale" : 0.0
                          },
                          "effects" : [

                          ],
                          "start" : 212,
                          "duration" : 45,
                          "mediaStart" : 211,
                          "mediaDuration" : 1,
                          "scalar" : 1,
                          "metadata" : {
                            "AutoAppliedSmartFocus" : "False"
                          },
                          "animationTracks" : {

                          }
                        },
                        {
                          "id" : 181,
                          "_type" : "ScreenVMFile",
                          "src" : 2,
                          "trackNumber" : 0,
                          "attributes" : {
                            "ident" : "hijacking_ntfs_structs_attack"
                          },
                          "parameters" : {
                            "cursorScale" : {
                              "type" : "double",
                              "defaultValue" : 0.0,
                              "interp" : "linr"
                            },
                            "cursorOpacity" : {
                              "type" : "double",
                              "defaultValue" : 0.0,
                              "interp" : "linr"
                            }
                          },
                          "effects" : [

                          ],
                          "start" : 257,
                          "duration" : 1542,
                          "mediaStart" : 212,
                          "mediaDuration" : 1542,
                          "scalar" : 1,
                          "metadata" : {
                            "AutoAppliedSmartFocus" : "False",
                            "clipSpeedAttribute" : false,
                            "default-scale0" : 1.0,
                            "default-scale1" : 1.0,
                            "default-translation0" : 0.0,
                            "default-translation1" : 0.0
                          },
                          "animationTracks" : {

                          }
                        },
                        {
                          "id" : 182,
                          "_type" : "ScreenIMFile",
                          "src" : 2,
                          "trackNumber" : 0,
                          "trimStartSum" : 0,
                          "attributes" : {
                            "ident" : "hijacking_ntfs_structs_attack"
                          },
                          "parameters" : {
                            "cursorOpacity" : 0.0,
                            "cursorScale" : 0.0
                          },
                          "effects" : [

                          ],
                          "start" : 1799,
                          "duration" : 150,
                          "mediaStart" : 1754,
                          "mediaDuration" : 1,
                          "scalar" : 1,
                          "metadata" : {
                            "AutoAppliedSmartFocus" : "False"
                          },
                          "animationTracks" : {

                          }
                        },
                        {
                          "id" : 183,
                          "_type" : "ScreenVMFile",
                          "src" : 2,
                          "trackNumber" : 0,
                          "attributes" : {
                            "ident" : "hijacking_ntfs_structs_attack"
                          },
                          "parameters" : {
                            "cursorScale" : {
                              "type" : "double",
                              "defaultValue" : 0.0,
                              "interp" : "linr"
                            },
                            "cursorOpacity" : {
                              "type" : "double",
                              "defaultValue" : 0.0,
                              "interp" : "linr"
                            }
                          },
                          "effects" : [

                          ],
                          "start" : 1949,
                          "duration" : 634,
                          "mediaStart" : 1754,
                          "mediaDuration" : 634,
                          "scalar" : 1,
                          "metadata" : {
                            "AutoAppliedSmartFocus" : "False",
                            "clipSpeedAttribute" : false,
                            "default-scale0" : 1.0,
                            "default-scale1" : 1.0,
                            "default-translation0" : 0.0,
                            "default-translation1" : 0.0
                          },
                          "animationTracks" : {

                          }
                        },
                        {
                          "id" : 184,
                          "_type" : "ScreenIMFile",
                          "src" : 2,
                          "trackNumber" : 0,
                          "trimStartSum" : 0,
                          "attributes" : {
                            "ident" : "hijacking_ntfs_structs_attack"
                          },
                          "parameters" : {
                            "cursorOpacity" : 0.0,
                            "cursorScale" : 0.0
                          },
                          "effects" : [

                          ],
                          "start" : 2583,
                          "duration" : 300,
                          "mediaStart" : 2388,
                          "mediaDuration" : 1,
                          "scalar" : 1,
                          "metadata" : {
                            "AutoAppliedSmartFocus" : "False"
                          },
                          "animationTracks" : {

                          }
                        },
                        {
                          "id" : 185,
                          "_type" : "ScreenVMFile",
                          "src" : 2,
                          "trackNumber" : 0,
                          "attributes" : {
                            "ident" : "hijacking_ntfs_structs_attack"
                          },
                          "parameters" : {
                            "cursorScale" : {
                              "type" : "double",
                              "defaultValue" : 0.0,
                              "interp" : "linr"
                            },
                            "cursorOpacity" : {
                              "type" : "double",
                              "defaultValue" : 0.0,
                              "interp" : "linr"
                            }
                          },
                          "effects" : [

                          ],
                          "start" : 2883,
                          "duration" : 1281122,
                          "mediaStart" : 2388,
                          "mediaDuration" : 1281122,
                          "scalar" : 1,
                          "metadata" : {
                            "AutoAppliedSmartFocus" : "False",
                            "clipSpeedAttribute" : false,
                            "default-scale0" : 1.0,
                            "default-scale1" : 1.0,
                            "default-translation0" : 0.0,
                            "default-translation1" : 0.0
                          },
                          "animationTracks" : {

                          }
                        }
                    ],
                    "effects" : [
                        {
                          "effectName" : "CursorHilight",
                          "category" : "categoryCursorEffects",
                          "parameters" : {
                            "blur" : 0.1,
                            "color-alpha" : 0.75,
                            "color-blue" : 0.0,
                            "color-green" : 1.0,
                            "color-red" : 1.0,
                            "radius" : 50.0
                          }
                        }
                    ],
                    "start" : 2665,
                    "duration" : 108,
                    "mediaStart" : 3791,
                    "mediaDuration" : 486,
                    "scalar" : "2/9",
                    "metadata" : {
                      "AutoAppliedSmartFocus" : "False",
                      "clipSpeedAttribute" : true,
                      "default-scale0" : 2.09857267425397,
                      "default-scale1" : 2.09857179682057,
                      "default-translation0" : -820.380080286275,
                      "default-translation1" : 624.692359618563
                    },
                    "animationTracks" : {
                      "visual" : [
                        {
                          "endTime" : 172,
                          "duration" : 30,
                          "range" : [ 142, 30]
                        },
                        {
                          "endTime" : 287,
                          "duration" : 30,
                          "range" : [ 257, 30]
                        },
                        {
                          "endTime" : 864,
                          "duration" : 30,
                          "range" : [ 834, 30]
                        },
                        {
                          "endTime" : 1197,
                          "duration" : 58,
                          "range" : [ 1139, 58]
                        },
                        {
                          "endTime" : 1910,
                          "duration" : 61,
                          "range" : [ 1849, 61]
                        },
                        {
                          "endTime" : 2325,
                          "duration" : 48,
                          "range" : [ 2277, 48]
                        },
                        {
                          "endTime" : 2579,
                          "duration" : 35,
                          "range" : [ 2544, 35]
                        },
                        {
                          "endTime" : 3133,
                          "duration" : 30,
                          "range" : [ 3103, 30]
                        },
                        {
                          "endTime" : 3188,
                          "duration" : 30,
                          "range" : [ 3158, 30]
                        },
                        {
                          "endTime" : 3320,
                          "duration" : 30,
                          "range" : [ 3290, 30]
                        },
                        {
                          "endTime" : 3366,
                          "duration" : 30,
                          "range" : [ 3336, 30]
                        }
                      ]
                    }
                  },
                  {
                    "id" : 186,
                    "_type" : "StitchedMedia",
                    "minMediaStart" : 0,
                    "attributes" : {
                      "ident" : "hijacking_ntfs_structs_attack",
                      "gain" : 1.0,
                      "mixToMono" : false
                    },
                    "parameters" : {
                      "translation0" : {
                        "type" : "double",
                        "defaultValue" : 0.0,
                        "keyframes" : [
                          {
                            "endTime" : 172,
                            "time" : 142,
                            "value" : 4331.31223731553,
                            "duration" : 30
                          },
                          {
                            "endTime" : 287,
                            "time" : 257,
                            "value" : 5.6843418860808e-13,
                            "duration" : 30
                          },
                          {
                            "endTime" : 864,
                            "time" : 834,
                            "value" : 1642.08129557305,
                            "duration" : 30
                          },
                          {
                            "endTime" : 1197,
                            "time" : 1139,
                            "value" : 1642.08139278021,
                            "duration" : 58
                          },
                          {
                            "endTime" : 1910,
                            "time" : 1849,
                            "value" : -1.13686837721616e-13,
                            "duration" : 61
                          },
                          {
                            "endTime" : 2325,
                            "time" : 2277,
                            "value" : -820.380233071137,
                            "duration" : 48
                          },
                          {
                            "endTime" : 2579,
                            "time" : 2544,
                            "value" : -820.380080286275,
                            "duration" : 35
                          },
                          {
                            "endTime" : 3133,
                            "time" : 3103,
                            "value" : 1.13686837721616e-13,
                            "duration" : 30
                          },
                          {
                            "endTime" : 3188,
                            "time" : 3158,
                            "value" : 1538.24538555511,
                            "duration" : 30
                          },
                          {
                            "endTime" : 3320,
                            "time" : 3290,
                            "value" : -3.41060513164848e-13,
                            "duration" : 30
                          },
                          {
                            "endTime" : 3366,
                            "time" : 3336,
                            "value" : -820.4,
                            "duration" : 30
                          },
                          {
                            "endTime" : 4386,
                            "time" : 4332,
                            "value" : 0.0,
                            "duration" : 54
                          },
                          {
                            "endTime" : 4438,
                            "time" : 4386,
                            "value" : 792.004557302207,
                            "duration" : 52
                          }
                        ]
                      },
                      "translation1" : {
                        "type" : "double",
                        "defaultValue" : 0.0,
                        "keyframes" : [
                          {
                            "endTime" : 172,
                            "time" : 142,
                            "value" : -2019.69283971535,
                            "duration" : 30
                          },
                          {
                            "endTime" : 287,
                            "time" : 257,
                            "value" : -2.8421709430404e-13,
                            "duration" : 30
                          },
                          {
                            "endTime" : 864,
                            "time" : 834,
                            "value" : -847.3,
                            "duration" : 30
                          },
                          {
                            "endTime" : 1197,
                            "time" : 1139,
                            "value" : -267.3,
                            "duration" : 58
                          },
                          {
                            "endTime" : 1910,
                            "time" : 1849,
                            "value" : 0.0,
                            "duration" : 61
                          },
                          {
                            "endTime" : 2325,
                            "time" : 2277,
                            "value" : 209.75628680721,
                            "duration" : 48
                          },
                          {
                            "endTime" : 2579,
                            "time" : 2544,
                            "value" : 624.692359618563,
                            "duration" : 35
                          },
                          {
                            "endTime" : 3133,
                            "time" : 3103,
                            "value" : 5.6843418860808e-14,
                            "duration" : 30
                          },
                          {
                            "endTime" : 3188,
                            "time" : 3158,
                            "value" : -719.227511644581,
                            "duration" : 30
                          },
                          {
                            "endTime" : 3320,
                            "time" : 3290,
                            "value" : 1.13686837721616e-13,
                            "duration" : 30
                          },
                          {
                            "endTime" : 3366,
                            "time" : 3336,
                            "value" : 624.7,
                            "duration" : 30
                          },
                          {
                            "endTime" : 4386,
                            "time" : 4332,
                            "value" : -5.6843418860808e-14,
                            "duration" : 54
                          },
                          {
                            "endTime" : 4438,
                            "time" : 4386,
                            "value" : -373.259040323895,
                            "duration" : 52
                          }
                        ]
                      },
                      "scale0" : {
                        "type" : "double",
                        "defaultValue" : 1.0,
                        "keyframes" : [
                          {
                            "endTime" : 172,
                            "time" : 142,
                            "value" : 4.54918320506327,
                            "duration" : 30
                          },
                          {
                            "endTime" : 287,
                            "time" : 257,
                            "value" : 0.999999977775835,
                            "duration" : 30
                          },
                          {
                            "endTime" : 864,
                            "time" : 834,
                            "value" : 2.33593993169021,
                            "duration" : 30
                          },
                          {
                            "endTime" : 1197,
                            "time" : 1139,
                            "value" : 2.33593999314883,
                            "duration" : 58
                          },
                          {
                            "endTime" : 1910,
                            "time" : 1849,
                            "value" : 1.0,
                            "duration" : 61
                          },
                          {
                            "endTime" : 2325,
                            "time" : 2277,
                            "value" : 2.0985722162939,
                            "duration" : 48
                          },
                          {
                            "endTime" : 2579,
                            "time" : 2544,
                            "value" : 2.09857267425397,
                            "duration" : 35
                          },
                          {
                            "endTime" : 3133,
                            "time" : 3103,
                            "value" : 1.0,
                            "duration" : 30
                          },
                          {
                            "endTime" : 3188,
                            "time" : 3158,
                            "value" : 2.23217820442702,
                            "duration" : 30
                          },
                          {
                            "endTime" : 3320,
                            "time" : 3290,
                            "value" : 1.0,
                            "duration" : 30
                          },
                          {
                            "endTime" : 3366,
                            "time" : 3336,
                            "value" : 2.09899992295191,
                            "duration" : 30
                          },
                          {
                            "endTime" : 4386,
                            "time" : 4332,
                            "value" : 0.999999963292952,
                            "duration" : 54
                          },
                          {
                            "endTime" : 4438,
                            "time" : 4386,
                            "value" : 1.65638039364711,
                            "duration" : 52
                          }
                        ]
                      },
                      "scale1" : {
                        "type" : "double",
                        "defaultValue" : 1.0,
                        "keyframes" : [
                          {
                            "endTime" : 172,
                            "time" : 142,
                            "value" : 4.54918308493868,
                            "duration" : 30
                          },
                          {
                            "endTime" : 287,
                            "time" : 257,
                            "value" : 1.0,
                            "duration" : 30
                          },
                          {
                            "endTime" : 864,
                            "time" : 834,
                            "value" : 2.33593997834513,
                            "duration" : 30
                          },
                          {
                            "endTime" : 1910,
                            "time" : 1849,
                            "value" : 0.999999993662637,
                            "duration" : 61
                          },
                          {
                            "endTime" : 2325,
                            "time" : 2277,
                            "value" : 2.09857179682057,
                            "duration" : 48
                          },
                          {
                            "endTime" : 3133,
                            "time" : 3103,
                            "value" : 0.99999958189039,
                            "duration" : 30
                          },
                          {
                            "endTime" : 3188,
                            "time" : 3158,
                            "value" : 2.23217799209587,
                            "duration" : 30
                          },
                          {
                            "endTime" : 3320,
                            "time" : 3290,
                            "value" : 0.999999904877152,
                            "duration" : 30
                          },
                          {
                            "endTime" : 3366,
                            "time" : 3336,
                            "value" : 2.099,
                            "duration" : 30
                          },
                          {
                            "endTime" : 4386,
                            "time" : 4332,
                            "value" : 0.999999999999999,
                            "duration" : 54
                          },
                          {
                            "endTime" : 4438,
                            "time" : 4386,
                            "value" : 1.65638046384701,
                            "duration" : 52
                          }
                        ]
                      },
                      "cursorOpacity" : 1.0,
                      "cursorScale" : 1.0
                    },
                    "medias" : [
                        {
                          "id" : 187,
                          "_type" : "ScreenVMFile",
                          "src" : 2,
                          "trackNumber" : 0,
                          "attributes" : {
                            "ident" : "hijacking_ntfs_structs_attack"
                          },
                          "parameters" : {
                            "cursorScale" : {
                              "type" : "double",
                              "defaultValue" : 0.0,
                              "interp" : "linr"
                            },
                            "cursorOpacity" : {
                              "type" : "double",
                              "defaultValue" : 0.0,
                              "interp" : "linr"
                            }
                          },
                          "effects" : [

                          ],
                          "start" : 0,
                          "duration" : 212,
                          "mediaStart" : 0,
                          "mediaDuration" : 212,
                          "scalar" : 1,
                          "metadata" : {
                            "AutoAppliedSmartFocus" : "False",
                            "clipSpeedAttribute" : false,
                            "default-scale0" : 1.0,
                            "default-scale1" : 1.0,
                            "default-translation0" : 0.0,
                            "default-translation1" : 0.0
                          },
                          "animationTracks" : {

                          }
                        },
                        {
                          "id" : 188,
                          "_type" : "ScreenIMFile",
                          "src" : 2,
                          "trackNumber" : 0,
                          "trimStartSum" : 0,
                          "attributes" : {
                            "ident" : "hijacking_ntfs_structs_attack"
                          },
                          "parameters" : {
                            "cursorOpacity" : 0.0,
                            "cursorScale" : 0.0
                          },
                          "effects" : [

                          ],
                          "start" : 212,
                          "duration" : 45,
                          "mediaStart" : 211,
                          "mediaDuration" : 1,
                          "scalar" : 1,
                          "metadata" : {
                            "AutoAppliedSmartFocus" : "False"
                          },
                          "animationTracks" : {

                          }
                        },
                        {
                          "id" : 189,
                          "_type" : "ScreenVMFile",
                          "src" : 2,
                          "trackNumber" : 0,
                          "attributes" : {
                            "ident" : "hijacking_ntfs_structs_attack"
                          },
                          "parameters" : {
                            "cursorScale" : {
                              "type" : "double",
                              "defaultValue" : 0.0,
                              "interp" : "linr"
                            },
                            "cursorOpacity" : {
                              "type" : "double",
                              "defaultValue" : 0.0,
                              "interp" : "linr"
                            }
                          },
                          "effects" : [

                          ],
                          "start" : 257,
                          "duration" : 1542,
                          "mediaStart" : 212,
                          "mediaDuration" : 1542,
                          "scalar" : 1,
                          "metadata" : {
                            "AutoAppliedSmartFocus" : "False",
                            "clipSpeedAttribute" : false,
                            "default-scale0" : 1.0,
                            "default-scale1" : 1.0,
                            "default-translation0" : 0.0,
                            "default-translation1" : 0.0
                          },
                          "animationTracks" : {

                          }
                        },
                        {
                          "id" : 190,
                          "_type" : "ScreenIMFile",
                          "src" : 2,
                          "trackNumber" : 0,
                          "trimStartSum" : 0,
                          "attributes" : {
                            "ident" : "hijacking_ntfs_structs_attack"
                          },
                          "parameters" : {
                            "cursorOpacity" : 0.0,
                            "cursorScale" : 0.0
                          },
                          "effects" : [

                          ],
                          "start" : 1799,
                          "duration" : 150,
                          "mediaStart" : 1754,
                          "mediaDuration" : 1,
                          "scalar" : 1,
                          "metadata" : {
                            "AutoAppliedSmartFocus" : "False"
                          },
                          "animationTracks" : {

                          }
                        },
                        {
                          "id" : 191,
                          "_type" : "ScreenVMFile",
                          "src" : 2,
                          "trackNumber" : 0,
                          "attributes" : {
                            "ident" : "hijacking_ntfs_structs_attack"
                          },
                          "parameters" : {
                            "cursorScale" : {
                              "type" : "double",
                              "defaultValue" : 0.0,
                              "interp" : "linr"
                            },
                            "cursorOpacity" : {
                              "type" : "double",
                              "defaultValue" : 0.0,
                              "interp" : "linr"
                            }
                          },
                          "effects" : [

                          ],
                          "start" : 1949,
                          "duration" : 634,
                          "mediaStart" : 1754,
                          "mediaDuration" : 634,
                          "scalar" : 1,
                          "metadata" : {
                            "AutoAppliedSmartFocus" : "False",
                            "clipSpeedAttribute" : false,
                            "default-scale0" : 1.0,
                            "default-scale1" : 1.0,
                            "default-translation0" : 0.0,
                            "default-translation1" : 0.0
                          },
                          "animationTracks" : {

                          }
                        },
                        {
                          "id" : 192,
                          "_type" : "ScreenIMFile",
                          "src" : 2,
                          "trackNumber" : 0,
                          "trimStartSum" : 0,
                          "attributes" : {
                            "ident" : "hijacking_ntfs_structs_attack"
                          },
                          "parameters" : {
                            "cursorOpacity" : 0.0,
                            "cursorScale" : 0.0
                          },
                          "effects" : [

                          ],
                          "start" : 2583,
                          "duration" : 300,
                          "mediaStart" : 2388,
                          "mediaDuration" : 1,
                          "scalar" : 1,
                          "metadata" : {
                            "AutoAppliedSmartFocus" : "False"
                          },
                          "animationTracks" : {

                          }
                        },
                        {
                          "id" : 193,
                          "_type" : "ScreenVMFile",
                          "src" : 2,
                          "trackNumber" : 0,
                          "attributes" : {
                            "ident" : "hijacking_ntfs_structs_attack"
                          },
                          "parameters" : {
                            "cursorScale" : {
                              "type" : "double",
                              "defaultValue" : 0.0,
                              "interp" : "linr"
                            },
                            "cursorOpacity" : {
                              "type" : "double",
                              "defaultValue" : 0.0,
                              "interp" : "linr"
                            }
                          },
                          "effects" : [

                          ],
                          "start" : 2883,
                          "duration" : 1725,
                          "mediaStart" : 2388,
                          "mediaDuration" : 1725,
                          "scalar" : 1,
                          "metadata" : {
                            "AutoAppliedSmartFocus" : "False",
                            "clipSpeedAttribute" : false,
                            "default-scale0" : 1.0,
                            "default-scale1" : 1.0,
                            "default-translation0" : 0.0,
                            "default-translation1" : 0.0
                          },
                          "animationTracks" : {

                          }
                        },
                        {
                          "id" : 194,
                          "_type" : "ScreenIMFile",
                          "src" : 2,
                          "trackNumber" : 0,
                          "trimStartSum" : 0,
                          "attributes" : {
                            "ident" : "hijacking_ntfs_structs_attack"
                          },
                          "parameters" : {
                            "cursorOpacity" : 0.0,
                            "cursorScale" : 0.0
                          },
                          "effects" : [

                          ],
                          "start" : 4608,
                          "duration" : 30,
                          "mediaStart" : 4113,
                          "mediaDuration" : 1,
                          "scalar" : 1,
                          "metadata" : {
                            "AutoAppliedSmartFocus" : "False"
                          },
                          "animationTracks" : {

                          }
                        },
                        {
                          "id" : 195,
                          "_type" : "ScreenVMFile",
                          "src" : 2,
                          "trackNumber" : 0,
                          "attributes" : {
                            "ident" : "hijacking_ntfs_structs_attack"
                          },
                          "parameters" : {
                            "cursorScale" : {
                              "type" : "double",
                              "defaultValue" : 0.0,
                              "interp" : "linr"
                            },
                            "cursorOpacity" : {
                              "type" : "double",
                              "defaultValue" : 0.0,
                              "interp" : "linr"
                            }
                          },
                          "effects" : [

                          ],
                          "start" : 4638,
                          "duration" : 1279397,
                          "mediaStart" : 4113,
                          "mediaDuration" : 1279397,
                          "scalar" : 1,
                          "metadata" : {
                            "AutoAppliedSmartFocus" : "False",
                            "clipSpeedAttribute" : false,
                            "default-scale0" : 1.0,
                            "default-scale1" : 1.0,
                            "default-translation0" : 0.0,
                            "default-translation1" : 0.0
                          },
                          "animationTracks" : {

                          }
                        }
                    ],
                    "effects" : [
                        {
                          "effectName" : "CursorHilight",
                          "category" : "categoryCursorEffects",
                          "parameters" : {
                            "blur" : 0.1,
                            "color-alpha" : 0.75,
                            "color-blue" : 0.0,
                            "color-green" : 1.0,
                            "color-red" : 1.0,
                            "radius" : 50.0
                          }
                        }
                    ],
                    "start" : 2773,
                    "duration" : 362,
                    "mediaStart" : 4277,
                    "mediaDuration" : 362,
                    "scalar" : 1,
                    "metadata" : {
                      "AutoAppliedSmartFocus" : "False",
                      "clipSpeedAttribute" : false
                    },
                    "animationTracks" : {
                      "visual" : [
                        {
                          "endTime" : 172,
                          "duration" : 30,
                          "range" : [ 142, 30]
                        },
                        {
                          "endTime" : 287,
                          "duration" : 30,
                          "range" : [ 257, 30]
                        },
                        {
                          "endTime" : 864,
                          "duration" : 30,
                          "range" : [ 834, 30]
                        },
                        {
                          "endTime" : 1197,
                          "duration" : 58,
                          "range" : [ 1139, 58]
                        },
                        {
                          "endTime" : 1910,
                          "duration" : 61,
                          "range" : [ 1849, 61]
                        },
                        {
                          "endTime" : 2325,
                          "duration" : 48,
                          "range" : [ 2277, 48]
                        },
                        {
                          "endTime" : 2579,
                          "duration" : 35,
                          "range" : [ 2544, 35]
                        },
                        {
                          "endTime" : 3133,
                          "duration" : 30,
                          "range" : [ 3103, 30]
                        },
                        {
                          "endTime" : 3188,
                          "duration" : 30,
                          "range" : [ 3158, 30]
                        },
                        {
                          "endTime" : 3320,
                          "duration" : 30,
                          "range" : [ 3290, 30]
                        },
                        {
                          "endTime" : 3366,
                          "duration" : 30,
                          "range" : [ 3336, 30]
                        },
                        {
                          "endTime" : 4386,
                          "duration" : 54,
                          "range" : [ 4332, 54]
                        },
                        {
                          "endTime" : 4438,
                          "duration" : 52,
                          "range" : [ 4386, 52]
                        }
                      ]
                    }
                  },
                  {
                    "id" : 196,
                    "_type" : "StitchedMedia",
                    "minMediaStart" : 0,
                    "attributes" : {
                      "ident" : "hijacking_ntfs_structs_attack",
                      "gain" : 1.0,
                      "mixToMono" : false
                    },
                    "parameters" : {
                      "translation0" : {
                        "type" : "double",
                        "defaultValue" : 0.0,
                        "keyframes" : [
                          {
                            "endTime" : 172,
                            "time" : 142,
                            "value" : 4331.31223731553,
                            "duration" : 30
                          },
                          {
                            "endTime" : 287,
                            "time" : 257,
                            "value" : 5.6843418860808e-13,
                            "duration" : 30
                          },
                          {
                            "endTime" : 864,
                            "time" : 834,
                            "value" : 1642.08129557305,
                            "duration" : 30
                          },
                          {
                            "endTime" : 1197,
                            "time" : 1139,
                            "value" : 1642.08139278021,
                            "duration" : 58
                          },
                          {
                            "endTime" : 1910,
                            "time" : 1849,
                            "value" : -1.13686837721616e-13,
                            "duration" : 61
                          },
                          {
                            "endTime" : 2325,
                            "time" : 2277,
                            "value" : -820.380233071137,
                            "duration" : 48
                          },
                          {
                            "endTime" : 2579,
                            "time" : 2544,
                            "value" : -820.380080286275,
                            "duration" : 35
                          },
                          {
                            "endTime" : 3133,
                            "time" : 3103,
                            "value" : 1.13686837721616e-13,
                            "duration" : 30
                          },
                          {
                            "endTime" : 3188,
                            "time" : 3158,
                            "value" : 1538.24538555511,
                            "duration" : 30
                          },
                          {
                            "endTime" : 3320,
                            "time" : 3290,
                            "value" : -3.41060513164848e-13,
                            "duration" : 30
                          },
                          {
                            "endTime" : 3366,
                            "time" : 3336,
                            "value" : -820.4,
                            "duration" : 30
                          },
                          {
                            "endTime" : 4386,
                            "time" : 4332,
                            "value" : 0.0,
                            "duration" : 54
                          },
                          {
                            "endTime" : 4438,
                            "time" : 4386,
                            "value" : 792.004557302207,
                            "duration" : 52
                          },
                          {
                            "endTime" : 4698,
                            "time" : 4660,
                            "value" : 2.8421709430404e-13,
                            "duration" : 38
                          }
                        ]
                      },
                      "translation1" : {
                        "type" : "double",
                        "defaultValue" : 0.0,
                        "keyframes" : [
                          {
                            "endTime" : 172,
                            "time" : 142,
                            "value" : -2019.69283971535,
                            "duration" : 30
                          },
                          {
                            "endTime" : 287,
                            "time" : 257,
                            "value" : -2.8421709430404e-13,
                            "duration" : 30
                          },
                          {
                            "endTime" : 864,
                            "time" : 834,
                            "value" : -847.3,
                            "duration" : 30
                          },
                          {
                            "endTime" : 1197,
                            "time" : 1139,
                            "value" : -267.3,
                            "duration" : 58
                          },
                          {
                            "endTime" : 1910,
                            "time" : 1849,
                            "value" : 0.0,
                            "duration" : 61
                          },
                          {
                            "endTime" : 2325,
                            "time" : 2277,
                            "value" : 209.75628680721,
                            "duration" : 48
                          },
                          {
                            "endTime" : 2579,
                            "time" : 2544,
                            "value" : 624.692359618563,
                            "duration" : 35
                          },
                          {
                            "endTime" : 3133,
                            "time" : 3103,
                            "value" : 5.6843418860808e-14,
                            "duration" : 30
                          },
                          {
                            "endTime" : 3188,
                            "time" : 3158,
                            "value" : -719.227511644581,
                            "duration" : 30
                          },
                          {
                            "endTime" : 3320,
                            "time" : 3290,
                            "value" : 1.13686837721616e-13,
                            "duration" : 30
                          },
                          {
                            "endTime" : 3366,
                            "time" : 3336,
                            "value" : 624.7,
                            "duration" : 30
                          },
                          {
                            "endTime" : 4386,
                            "time" : 4332,
                            "value" : -5.6843418860808e-14,
                            "duration" : 54
                          },
                          {
                            "endTime" : 4438,
                            "time" : 4386,
                            "value" : -373.259040323895,
                            "duration" : 52
                          },
                          {
                            "endTime" : 4698,
                            "time" : 4660,
                            "value" : 5.6843418860808e-14,
                            "duration" : 38
                          }
                        ]
                      },
                      "scale0" : {
                        "type" : "double",
                        "defaultValue" : 1.0,
                        "keyframes" : [
                          {
                            "endTime" : 172,
                            "time" : 142,
                            "value" : 4.54918320506327,
                            "duration" : 30
                          },
                          {
                            "endTime" : 287,
                            "time" : 257,
                            "value" : 0.999999977775835,
                            "duration" : 30
                          },
                          {
                            "endTime" : 864,
                            "time" : 834,
                            "value" : 2.33593993169021,
                            "duration" : 30
                          },
                          {
                            "endTime" : 1197,
                            "time" : 1139,
                            "value" : 2.33593999314883,
                            "duration" : 58
                          },
                          {
                            "endTime" : 1910,
                            "time" : 1849,
                            "value" : 1.0,
                            "duration" : 61
                          },
                          {
                            "endTime" : 2325,
                            "time" : 2277,
                            "value" : 2.0985722162939,
                            "duration" : 48
                          },
                          {
                            "endTime" : 2579,
                            "time" : 2544,
                            "value" : 2.09857267425397,
                            "duration" : 35
                          },
                          {
                            "endTime" : 3133,
                            "time" : 3103,
                            "value" : 1.0,
                            "duration" : 30
                          },
                          {
                            "endTime" : 3188,
                            "time" : 3158,
                            "value" : 2.23217820442702,
                            "duration" : 30
                          },
                          {
                            "endTime" : 3320,
                            "time" : 3290,
                            "value" : 1.0,
                            "duration" : 30
                          },
                          {
                            "endTime" : 3366,
                            "time" : 3336,
                            "value" : 2.09899992295191,
                            "duration" : 30
                          },
                          {
                            "endTime" : 4386,
                            "time" : 4332,
                            "value" : 0.999999963292952,
                            "duration" : 54
                          },
                          {
                            "endTime" : 4438,
                            "time" : 4386,
                            "value" : 1.65638039364711,
                            "duration" : 52
                          },
                          {
                            "endTime" : 4698,
                            "time" : 4660,
                            "value" : 0.999999957618492,
                            "duration" : 38
                          }
                        ]
                      },
                      "scale1" : {
                        "type" : "double",
                        "defaultValue" : 1.0,
                        "keyframes" : [
                          {
                            "endTime" : 172,
                            "time" : 142,
                            "value" : 4.54918308493868,
                            "duration" : 30
                          },
                          {
                            "endTime" : 287,
                            "time" : 257,
                            "value" : 1.0,
                            "duration" : 30
                          },
                          {
                            "endTime" : 864,
                            "time" : 834,
                            "value" : 2.33593997834513,
                            "duration" : 30
                          },
                          {
                            "endTime" : 1910,
                            "time" : 1849,
                            "value" : 0.999999993662637,
                            "duration" : 61
                          },
                          {
                            "endTime" : 2325,
                            "time" : 2277,
                            "value" : 2.09857179682057,
                            "duration" : 48
                          },
                          {
                            "endTime" : 3133,
                            "time" : 3103,
                            "value" : 0.99999958189039,
                            "duration" : 30
                          },
                          {
                            "endTime" : 3188,
                            "time" : 3158,
                            "value" : 2.23217799209587,
                            "duration" : 30
                          },
                          {
                            "endTime" : 3320,
                            "time" : 3290,
                            "value" : 0.999999904877152,
                            "duration" : 30
                          },
                          {
                            "endTime" : 3366,
                            "time" : 3336,
                            "value" : 2.099,
                            "duration" : 30
                          },
                          {
                            "endTime" : 4386,
                            "time" : 4332,
                            "value" : 0.999999999999999,
                            "duration" : 54
                          },
                          {
                            "endTime" : 4438,
                            "time" : 4386,
                            "value" : 1.65638046384701,
                            "duration" : 52
                          },
                          {
                            "endTime" : 4698,
                            "time" : 4660,
                            "value" : 1.0,
                            "duration" : 38
                          }
                        ]
                      },
                      "cursorOpacity" : 1.0,
                      "cursorScale" : 1.0
                    },
                    "medias" : [
                        {
                          "id" : 197,
                          "_type" : "ScreenVMFile",
                          "src" : 2,
                          "trackNumber" : 0,
                          "attributes" : {
                            "ident" : "hijacking_ntfs_structs_attack"
                          },
                          "parameters" : {
                            "cursorScale" : {
                              "type" : "double",
                              "defaultValue" : 0.0,
                              "interp" : "linr"
                            },
                            "cursorOpacity" : {
                              "type" : "double",
                              "defaultValue" : 0.0,
                              "interp" : "linr"
                            }
                          },
                          "effects" : [

                          ],
                          "start" : 0,
                          "duration" : 212,
                          "mediaStart" : 0,
                          "mediaDuration" : 212,
                          "scalar" : 1,
                          "metadata" : {
                            "AutoAppliedSmartFocus" : "False",
                            "clipSpeedAttribute" : false,
                            "default-scale0" : 1.0,
                            "default-scale1" : 1.0,
                            "default-translation0" : 0.0,
                            "default-translation1" : 0.0
                          },
                          "animationTracks" : {

                          }
                        },
                        {
                          "id" : 198,
                          "_type" : "ScreenIMFile",
                          "src" : 2,
                          "trackNumber" : 0,
                          "trimStartSum" : 0,
                          "attributes" : {
                            "ident" : "hijacking_ntfs_structs_attack"
                          },
                          "parameters" : {
                            "cursorOpacity" : 0.0,
                            "cursorScale" : 0.0
                          },
                          "effects" : [

                          ],
                          "start" : 212,
                          "duration" : 45,
                          "mediaStart" : 211,
                          "mediaDuration" : 1,
                          "scalar" : 1,
                          "metadata" : {
                            "AutoAppliedSmartFocus" : "False"
                          },
                          "animationTracks" : {

                          }
                        },
                        {
                          "id" : 199,
                          "_type" : "ScreenVMFile",
                          "src" : 2,
                          "trackNumber" : 0,
                          "attributes" : {
                            "ident" : "hijacking_ntfs_structs_attack"
                          },
                          "parameters" : {
                            "cursorScale" : {
                              "type" : "double",
                              "defaultValue" : 0.0,
                              "interp" : "linr"
                            },
                            "cursorOpacity" : {
                              "type" : "double",
                              "defaultValue" : 0.0,
                              "interp" : "linr"
                            }
                          },
                          "effects" : [

                          ],
                          "start" : 257,
                          "duration" : 1542,
                          "mediaStart" : 212,
                          "mediaDuration" : 1542,
                          "scalar" : 1,
                          "metadata" : {
                            "AutoAppliedSmartFocus" : "False",
                            "clipSpeedAttribute" : false,
                            "default-scale0" : 1.0,
                            "default-scale1" : 1.0,
                            "default-translation0" : 0.0,
                            "default-translation1" : 0.0
                          },
                          "animationTracks" : {

                          }
                        },
                        {
                          "id" : 200,
                          "_type" : "ScreenIMFile",
                          "src" : 2,
                          "trackNumber" : 0,
                          "trimStartSum" : 0,
                          "attributes" : {
                            "ident" : "hijacking_ntfs_structs_attack"
                          },
                          "parameters" : {
                            "cursorOpacity" : 0.0,
                            "cursorScale" : 0.0
                          },
                          "effects" : [

                          ],
                          "start" : 1799,
                          "duration" : 150,
                          "mediaStart" : 1754,
                          "mediaDuration" : 1,
                          "scalar" : 1,
                          "metadata" : {
                            "AutoAppliedSmartFocus" : "False"
                          },
                          "animationTracks" : {

                          }
                        },
                        {
                          "id" : 201,
                          "_type" : "ScreenVMFile",
                          "src" : 2,
                          "trackNumber" : 0,
                          "attributes" : {
                            "ident" : "hijacking_ntfs_structs_attack"
                          },
                          "parameters" : {
                            "cursorScale" : {
                              "type" : "double",
                              "defaultValue" : 0.0,
                              "interp" : "linr"
                            },
                            "cursorOpacity" : {
                              "type" : "double",
                              "defaultValue" : 0.0,
                              "interp" : "linr"
                            }
                          },
                          "effects" : [

                          ],
                          "start" : 1949,
                          "duration" : 634,
                          "mediaStart" : 1754,
                          "mediaDuration" : 634,
                          "scalar" : 1,
                          "metadata" : {
                            "AutoAppliedSmartFocus" : "False",
                            "clipSpeedAttribute" : false,
                            "default-scale0" : 1.0,
                            "default-scale1" : 1.0,
                            "default-translation0" : 0.0,
                            "default-translation1" : 0.0
                          },
                          "animationTracks" : {

                          }
                        },
                        {
                          "id" : 202,
                          "_type" : "ScreenIMFile",
                          "src" : 2,
                          "trackNumber" : 0,
                          "trimStartSum" : 0,
                          "attributes" : {
                            "ident" : "hijacking_ntfs_structs_attack"
                          },
                          "parameters" : {
                            "cursorOpacity" : 0.0,
                            "cursorScale" : 0.0
                          },
                          "effects" : [

                          ],
                          "start" : 2583,
                          "duration" : 300,
                          "mediaStart" : 2388,
                          "mediaDuration" : 1,
                          "scalar" : 1,
                          "metadata" : {
                            "AutoAppliedSmartFocus" : "False"
                          },
                          "animationTracks" : {

                          }
                        },
                        {
                          "id" : 203,
                          "_type" : "ScreenVMFile",
                          "src" : 2,
                          "trackNumber" : 0,
                          "attributes" : {
                            "ident" : "hijacking_ntfs_structs_attack"
                          },
                          "parameters" : {
                            "cursorScale" : {
                              "type" : "double",
                              "defaultValue" : 0.0,
                              "interp" : "linr"
                            },
                            "cursorOpacity" : {
                              "type" : "double",
                              "defaultValue" : 0.0,
                              "interp" : "linr"
                            }
                          },
                          "effects" : [

                          ],
                          "start" : 2883,
                          "duration" : 1281122,
                          "mediaStart" : 2388,
                          "mediaDuration" : 1281122,
                          "scalar" : 1,
                          "metadata" : {
                            "AutoAppliedSmartFocus" : "False",
                            "clipSpeedAttribute" : false,
                            "default-scale0" : 1.0,
                            "default-scale1" : 1.0,
                            "default-translation0" : 0.0,
                            "default-translation1" : 0.0
                          },
                          "animationTracks" : {

                          }
                        }
                    ],
                    "effects" : [
                        {
                          "effectName" : "CursorHilight",
                          "category" : "categoryCursorEffects",
                          "parameters" : {
                            "blur" : 0.1,
                            "color-alpha" : 0.75,
                            "color-blue" : 0.0,
                            "color-green" : 1.0,
                            "color-red" : 1.0,
                            "radius" : 50.0
                          }
                        }
                    ],
                    "start" : 3135,
                    "duration" : 45,
                    "mediaStart" : 4660,
                    "mediaDuration" : 45,
                    "scalar" : 1,
                    "metadata" : {
                      "AutoAppliedSmartFocus" : "False",
                      "clipSpeedAttribute" : false,
                      "default-scale0" : 2.09857267425397,
                      "default-scale1" : 2.09857179682057,
                      "default-translation0" : -820.380080286275,
                      "default-translation1" : 624.692359618563
                    },
                    "animationTracks" : {
                      "visual" : [
                        {
                          "endTime" : 172,
                          "duration" : 30,
                          "range" : [ 142, 30]
                        },
                        {
                          "endTime" : 287,
                          "duration" : 30,
                          "range" : [ 257, 30]
                        },
                        {
                          "endTime" : 864,
                          "duration" : 30,
                          "range" : [ 834, 30]
                        },
                        {
                          "endTime" : 1197,
                          "duration" : 58,
                          "range" : [ 1139, 58]
                        },
                        {
                          "endTime" : 1910,
                          "duration" : 61,
                          "range" : [ 1849, 61]
                        },
                        {
                          "endTime" : 2325,
                          "duration" : 48,
                          "range" : [ 2277, 48]
                        },
                        {
                          "endTime" : 2579,
                          "duration" : 35,
                          "range" : [ 2544, 35]
                        },
                        {
                          "endTime" : 3133,
                          "duration" : 30,
                          "range" : [ 3103, 30]
                        },
                        {
                          "endTime" : 3188,
                          "duration" : 30,
                          "range" : [ 3158, 30]
                        },
                        {
                          "endTime" : 3320,
                          "duration" : 30,
                          "range" : [ 3290, 30]
                        },
                        {
                          "endTime" : 3366,
                          "duration" : 30,
                          "range" : [ 3336, 30]
                        },
                        {
                          "endTime" : 4386,
                          "duration" : 54,
                          "range" : [ 4332, 54]
                        },
                        {
                          "endTime" : 4438,
                          "duration" : 52,
                          "range" : [ 4386, 52]
                        },
                        {
                          "endTime" : 4698,
                          "duration" : 38,
                          "range" : [ 4660, 38]
                        }
                      ]
                    }
                  },
                  {
                    "id" : 204,
                    "_type" : "StitchedMedia",
                    "minMediaStart" : 0,
                    "attributes" : {
                      "ident" : "hijacking_ntfs_structs_attack",
                      "gain" : 1.0,
                      "mixToMono" : false
                    },
                    "parameters" : {
                      "translation0" : {
                        "type" : "double",
                        "defaultValue" : 0.0,
                        "keyframes" : [
                          {
                            "endTime" : 172,
                            "time" : 142,
                            "value" : 4331.31223731553,
                            "duration" : 30
                          },
                          {
                            "endTime" : 287,
                            "time" : 257,
                            "value" : 5.6843418860808e-13,
                            "duration" : 30
                          },
                          {
                            "endTime" : 864,
                            "time" : 834,
                            "value" : 1642.08129557305,
                            "duration" : 30
                          },
                          {
                            "endTime" : 1197,
                            "time" : 1139,
                            "value" : 1642.08139278021,
                            "duration" : 58
                          },
                          {
                            "endTime" : 1910,
                            "time" : 1849,
                            "value" : -1.13686837721616e-13,
                            "duration" : 61
                          },
                          {
                            "endTime" : 2325,
                            "time" : 2277,
                            "value" : -820.380233071137,
                            "duration" : 48
                          },
                          {
                            "endTime" : 2579,
                            "time" : 2544,
                            "value" : -820.380080286275,
                            "duration" : 35
                          },
                          {
                            "endTime" : 3133,
                            "time" : 3103,
                            "value" : 1.13686837721616e-13,
                            "duration" : 30
                          },
                          {
                            "endTime" : 3188,
                            "time" : 3158,
                            "value" : 1538.24538555511,
                            "duration" : 30
                          },
                          {
                            "endTime" : 3320,
                            "time" : 3290,
                            "value" : -3.41060513164848e-13,
                            "duration" : 30
                          },
                          {
                            "endTime" : 3366,
                            "time" : 3336,
                            "value" : -820.4,
                            "duration" : 30
                          },
                          {
                            "endTime" : 4386,
                            "time" : 4332,
                            "value" : 0.0,
                            "duration" : 54
                          },
                          {
                            "endTime" : 4438,
                            "time" : 4386,
                            "value" : 792.004557302207,
                            "duration" : 52
                          },
                          {
                            "endTime" : 4698,
                            "time" : 4660,
                            "value" : 2.8421709430404e-13,
                            "duration" : 38
                          }
                        ]
                      },
                      "translation1" : {
                        "type" : "double",
                        "defaultValue" : 0.0,
                        "keyframes" : [
                          {
                            "endTime" : 172,
                            "time" : 142,
                            "value" : -2019.69283971535,
                            "duration" : 30
                          },
                          {
                            "endTime" : 287,
                            "time" : 257,
                            "value" : -2.8421709430404e-13,
                            "duration" : 30
                          },
                          {
                            "endTime" : 864,
                            "time" : 834,
                            "value" : -847.3,
                            "duration" : 30
                          },
                          {
                            "endTime" : 1197,
                            "time" : 1139,
                            "value" : -267.3,
                            "duration" : 58
                          },
                          {
                            "endTime" : 1910,
                            "time" : 1849,
                            "value" : 0.0,
                            "duration" : 61
                          },
                          {
                            "endTime" : 2325,
                            "time" : 2277,
                            "value" : 209.75628680721,
                            "duration" : 48
                          },
                          {
                            "endTime" : 2579,
                            "time" : 2544,
                            "value" : 624.692359618563,
                            "duration" : 35
                          },
                          {
                            "endTime" : 3133,
                            "time" : 3103,
                            "value" : 5.6843418860808e-14,
                            "duration" : 30
                          },
                          {
                            "endTime" : 3188,
                            "time" : 3158,
                            "value" : -719.227511644581,
                            "duration" : 30
                          },
                          {
                            "endTime" : 3320,
                            "time" : 3290,
                            "value" : 1.13686837721616e-13,
                            "duration" : 30
                          },
                          {
                            "endTime" : 3366,
                            "time" : 3336,
                            "value" : 624.7,
                            "duration" : 30
                          },
                          {
                            "endTime" : 4386,
                            "time" : 4332,
                            "value" : -5.6843418860808e-14,
                            "duration" : 54
                          },
                          {
                            "endTime" : 4438,
                            "time" : 4386,
                            "value" : -373.259040323895,
                            "duration" : 52
                          },
                          {
                            "endTime" : 4698,
                            "time" : 4660,
                            "value" : 5.6843418860808e-14,
                            "duration" : 38
                          }
                        ]
                      },
                      "scale0" : {
                        "type" : "double",
                        "defaultValue" : 1.0,
                        "keyframes" : [
                          {
                            "endTime" : 172,
                            "time" : 142,
                            "value" : 4.54918320506327,
                            "duration" : 30
                          },
                          {
                            "endTime" : 287,
                            "time" : 257,
                            "value" : 0.999999977775835,
                            "duration" : 30
                          },
                          {
                            "endTime" : 864,
                            "time" : 834,
                            "value" : 2.33593993169021,
                            "duration" : 30
                          },
                          {
                            "endTime" : 1197,
                            "time" : 1139,
                            "value" : 2.33593999314883,
                            "duration" : 58
                          },
                          {
                            "endTime" : 1910,
                            "time" : 1849,
                            "value" : 1.0,
                            "duration" : 61
                          },
                          {
                            "endTime" : 2325,
                            "time" : 2277,
                            "value" : 2.0985722162939,
                            "duration" : 48
                          },
                          {
                            "endTime" : 2579,
                            "time" : 2544,
                            "value" : 2.09857267425397,
                            "duration" : 35
                          },
                          {
                            "endTime" : 3133,
                            "time" : 3103,
                            "value" : 1.0,
                            "duration" : 30
                          },
                          {
                            "endTime" : 3188,
                            "time" : 3158,
                            "value" : 2.23217820442702,
                            "duration" : 30
                          },
                          {
                            "endTime" : 3320,
                            "time" : 3290,
                            "value" : 1.0,
                            "duration" : 30
                          },
                          {
                            "endTime" : 3366,
                            "time" : 3336,
                            "value" : 2.09899992295191,
                            "duration" : 30
                          },
                          {
                            "endTime" : 4386,
                            "time" : 4332,
                            "value" : 0.999999963292952,
                            "duration" : 54
                          },
                          {
                            "endTime" : 4438,
                            "time" : 4386,
                            "value" : 1.65638039364711,
                            "duration" : 52
                          },
                          {
                            "endTime" : 4698,
                            "time" : 4660,
                            "value" : 0.999999957618492,
                            "duration" : 38
                          }
                        ]
                      },
                      "scale1" : {
                        "type" : "double",
                        "defaultValue" : 1.0,
                        "keyframes" : [
                          {
                            "endTime" : 172,
                            "time" : 142,
                            "value" : 4.54918308493868,
                            "duration" : 30
                          },
                          {
                            "endTime" : 287,
                            "time" : 257,
                            "value" : 1.0,
                            "duration" : 30
                          },
                          {
                            "endTime" : 864,
                            "time" : 834,
                            "value" : 2.33593997834513,
                            "duration" : 30
                          },
                          {
                            "endTime" : 1910,
                            "time" : 1849,
                            "value" : 0.999999993662637,
                            "duration" : 61
                          },
                          {
                            "endTime" : 2325,
                            "time" : 2277,
                            "value" : 2.09857179682057,
                            "duration" : 48
                          },
                          {
                            "endTime" : 3133,
                            "time" : 3103,
                            "value" : 0.99999958189039,
                            "duration" : 30
                          },
                          {
                            "endTime" : 3188,
                            "time" : 3158,
                            "value" : 2.23217799209587,
                            "duration" : 30
                          },
                          {
                            "endTime" : 3320,
                            "time" : 3290,
                            "value" : 0.999999904877152,
                            "duration" : 30
                          },
                          {
                            "endTime" : 3366,
                            "time" : 3336,
                            "value" : 2.099,
                            "duration" : 30
                          },
                          {
                            "endTime" : 4386,
                            "time" : 4332,
                            "value" : 0.999999999999999,
                            "duration" : 54
                          },
                          {
                            "endTime" : 4438,
                            "time" : 4386,
                            "value" : 1.65638046384701,
                            "duration" : 52
                          },
                          {
                            "endTime" : 4698,
                            "time" : 4660,
                            "value" : 1.0,
                            "duration" : 38
                          }
                        ]
                      },
                      "cursorOpacity" : 1.0,
                      "cursorScale" : 1.0
                    },
                    "medias" : [
                        {
                          "id" : 205,
                          "_type" : "ScreenVMFile",
                          "src" : 2,
                          "trackNumber" : 0,
                          "attributes" : {
                            "ident" : "hijacking_ntfs_structs_attack"
                          },
                          "parameters" : {
                            "cursorScale" : {
                              "type" : "double",
                              "defaultValue" : 0.0,
                              "interp" : "linr"
                            },
                            "cursorOpacity" : {
                              "type" : "double",
                              "defaultValue" : 0.0,
                              "interp" : "linr"
                            }
                          },
                          "effects" : [

                          ],
                          "start" : 0,
                          "duration" : 212,
                          "mediaStart" : 0,
                          "mediaDuration" : 212,
                          "scalar" : 1,
                          "metadata" : {
                            "AutoAppliedSmartFocus" : "False",
                            "clipSpeedAttribute" : false,
                            "default-scale0" : 1.0,
                            "default-scale1" : 1.0,
                            "default-translation0" : 0.0,
                            "default-translation1" : 0.0
                          },
                          "animationTracks" : {

                          }
                        },
                        {
                          "id" : 206,
                          "_type" : "ScreenIMFile",
                          "src" : 2,
                          "trackNumber" : 0,
                          "trimStartSum" : 0,
                          "attributes" : {
                            "ident" : "hijacking_ntfs_structs_attack"
                          },
                          "parameters" : {
                            "cursorOpacity" : 0.0,
                            "cursorScale" : 0.0
                          },
                          "effects" : [

                          ],
                          "start" : 212,
                          "duration" : 45,
                          "mediaStart" : 211,
                          "mediaDuration" : 1,
                          "scalar" : 1,
                          "metadata" : {
                            "AutoAppliedSmartFocus" : "False"
                          },
                          "animationTracks" : {

                          }
                        },
                        {
                          "id" : 207,
                          "_type" : "ScreenVMFile",
                          "src" : 2,
                          "trackNumber" : 0,
                          "attributes" : {
                            "ident" : "hijacking_ntfs_structs_attack"
                          },
                          "parameters" : {
                            "cursorScale" : {
                              "type" : "double",
                              "defaultValue" : 0.0,
                              "interp" : "linr"
                            },
                            "cursorOpacity" : {
                              "type" : "double",
                              "defaultValue" : 0.0,
                              "interp" : "linr"
                            }
                          },
                          "effects" : [

                          ],
                          "start" : 257,
                          "duration" : 1542,
                          "mediaStart" : 212,
                          "mediaDuration" : 1542,
                          "scalar" : 1,
                          "metadata" : {
                            "AutoAppliedSmartFocus" : "False",
                            "clipSpeedAttribute" : false,
                            "default-scale0" : 1.0,
                            "default-scale1" : 1.0,
                            "default-translation0" : 0.0,
                            "default-translation1" : 0.0
                          },
                          "animationTracks" : {

                          }
                        },
                        {
                          "id" : 208,
                          "_type" : "ScreenIMFile",
                          "src" : 2,
                          "trackNumber" : 0,
                          "trimStartSum" : 0,
                          "attributes" : {
                            "ident" : "hijacking_ntfs_structs_attack"
                          },
                          "parameters" : {
                            "cursorOpacity" : 0.0,
                            "cursorScale" : 0.0
                          },
                          "effects" : [

                          ],
                          "start" : 1799,
                          "duration" : 150,
                          "mediaStart" : 1754,
                          "mediaDuration" : 1,
                          "scalar" : 1,
                          "metadata" : {
                            "AutoAppliedSmartFocus" : "False"
                          },
                          "animationTracks" : {

                          }
                        },
                        {
                          "id" : 209,
                          "_type" : "ScreenVMFile",
                          "src" : 2,
                          "trackNumber" : 0,
                          "attributes" : {
                            "ident" : "hijacking_ntfs_structs_attack"
                          },
                          "parameters" : {
                            "cursorScale" : {
                              "type" : "double",
                              "defaultValue" : 0.0,
                              "interp" : "linr"
                            },
                            "cursorOpacity" : {
                              "type" : "double",
                              "defaultValue" : 0.0,
                              "interp" : "linr"
                            }
                          },
                          "effects" : [

                          ],
                          "start" : 1949,
                          "duration" : 634,
                          "mediaStart" : 1754,
                          "mediaDuration" : 634,
                          "scalar" : 1,
                          "metadata" : {
                            "AutoAppliedSmartFocus" : "False",
                            "clipSpeedAttribute" : false,
                            "default-scale0" : 1.0,
                            "default-scale1" : 1.0,
                            "default-translation0" : 0.0,
                            "default-translation1" : 0.0
                          },
                          "animationTracks" : {

                          }
                        },
                        {
                          "id" : 210,
                          "_type" : "ScreenIMFile",
                          "src" : 2,
                          "trackNumber" : 0,
                          "trimStartSum" : 0,
                          "attributes" : {
                            "ident" : "hijacking_ntfs_structs_attack"
                          },
                          "parameters" : {
                            "cursorOpacity" : 0.0,
                            "cursorScale" : 0.0
                          },
                          "effects" : [

                          ],
                          "start" : 2583,
                          "duration" : 300,
                          "mediaStart" : 2388,
                          "mediaDuration" : 1,
                          "scalar" : 1,
                          "metadata" : {
                            "AutoAppliedSmartFocus" : "False"
                          },
                          "animationTracks" : {

                          }
                        },
                        {
                          "id" : 211,
                          "_type" : "ScreenVMFile",
                          "src" : 2,
                          "trackNumber" : 0,
                          "attributes" : {
                            "ident" : "hijacking_ntfs_structs_attack"
                          },
                          "parameters" : {
                            "cursorScale" : {
                              "type" : "double",
                              "defaultValue" : 0.0,
                              "interp" : "linr"
                            },
                            "cursorOpacity" : {
                              "type" : "double",
                              "defaultValue" : 0.0,
                              "interp" : "linr"
                            }
                          },
                          "effects" : [

                          ],
                          "start" : 2883,
                          "duration" : 1928,
                          "mediaStart" : 2388,
                          "mediaDuration" : 1928,
                          "scalar" : 1,
                          "metadata" : {
                            "AutoAppliedSmartFocus" : "False",
                            "clipSpeedAttribute" : false,
                            "default-scale0" : 1.0,
                            "default-scale1" : 1.0,
                            "default-translation0" : 0.0,
                            "default-translation1" : 0.0
                          },
                          "animationTracks" : {

                          }
                        },
                        {
                          "id" : 212,
                          "_type" : "ScreenVMFile",
                          "src" : 2,
                          "trackNumber" : 0,
                          "attributes" : {
                            "ident" : "hijacking_ntfs_structs_attack"
                          },
                          "parameters" : {
                            "cursorScale" : {
                              "type" : "double",
                              "defaultValue" : 0.0,
                              "interp" : "linr"
                            },
                            "cursorOpacity" : {
                              "type" : "double",
                              "defaultValue" : 0.0,
                              "interp" : "linr"
                            }
                          },
                          "effects" : [

                          ],
                          "start" : 4811,
                          "duration" : 1279131,
                          "mediaStart" : 4379,
                          "mediaDuration" : 1279131,
                          "scalar" : 1,
                          "metadata" : {
                            "AutoAppliedSmartFocus" : "False",
                            "clipSpeedAttribute" : false,
                            "default-scale0" : 1.0,
                            "default-scale1" : 1.0,
                            "default-translation0" : 0.0,
                            "default-translation1" : 0.0
                          },
                          "animationTracks" : {

                          }
                        }
                    ],
                    "effects" : [
                        {
                          "effectName" : "CursorHilight",
                          "category" : "categoryCursorEffects",
                          "parameters" : {
                            "blur" : 0.1,
                            "color-alpha" : 0.75,
                            "color-blue" : 0.0,
                            "color-green" : 1.0,
                            "color-red" : 1.0,
                            "radius" : 50.0
                          }
                        }
                    ],
                    "start" : 3180,
                    "duration" : 104,
                    "mediaStart" : 4705,
                    "mediaDuration" : 190,
                    "scalar" : "52/95",
                    "metadata" : {
                      "AutoAppliedSmartFocus" : "False",
                      "clipSpeedAttribute" : true
                    },
                    "animationTracks" : {
                      "visual" : [
                        {
                          "endTime" : 172,
                          "duration" : 30,
                          "range" : [ 142, 30]
                        },
                        {
                          "endTime" : 287,
                          "duration" : 30,
                          "range" : [ 257, 30]
                        },
                        {
                          "endTime" : 864,
                          "duration" : 30,
                          "range" : [ 834, 30]
                        },
                        {
                          "endTime" : 1197,
                          "duration" : 58,
                          "range" : [ 1139, 58]
                        },
                        {
                          "endTime" : 1910,
                          "duration" : 61,
                          "range" : [ 1849, 61]
                        },
                        {
                          "endTime" : 2325,
                          "duration" : 48,
                          "range" : [ 2277, 48]
                        },
                        {
                          "endTime" : 2579,
                          "duration" : 35,
                          "range" : [ 2544, 35]
                        },
                        {
                          "endTime" : 3133,
                          "duration" : 30,
                          "range" : [ 3103, 30]
                        },
                        {
                          "endTime" : 3188,
                          "duration" : 30,
                          "range" : [ 3158, 30]
                        },
                        {
                          "endTime" : 3320,
                          "duration" : 30,
                          "range" : [ 3290, 30]
                        },
                        {
                          "endTime" : 3366,
                          "duration" : 30,
                          "range" : [ 3336, 30]
                        },
                        {
                          "endTime" : 4386,
                          "duration" : 54,
                          "range" : [ 4332, 54]
                        },
                        {
                          "endTime" : 4438,
                          "duration" : 52,
                          "range" : [ 4386, 52]
                        },
                        {
                          "endTime" : 4698,
                          "duration" : 38,
                          "range" : [ 4660, 38]
                        }
                      ]
                    }
                  },
                  {
                    "id" : 213,
                    "_type" : "StitchedMedia",
                    "minMediaStart" : 0,
                    "attributes" : {
                      "ident" : "hijacking_ntfs_structs_attack",
                      "gain" : 1.0,
                      "mixToMono" : false
                    },
                    "parameters" : {
                      "cursorOpacity" : 1.0,
                      "cursorScale" : 1.0
                    },
                    "medias" : [
                        {
                          "id" : 214,
                          "_type" : "ScreenVMFile",
                          "src" : 2,
                          "trackNumber" : 0,
                          "attributes" : {
                            "ident" : "hijacking_ntfs_structs_attack"
                          },
                          "parameters" : {
                            "cursorScale" : {
                              "type" : "double",
                              "defaultValue" : 0.0,
                              "interp" : "linr"
                            },
                            "cursorOpacity" : {
                              "type" : "double",
                              "defaultValue" : 0.0,
                              "interp" : "linr"
                            }
                          },
                          "effects" : [

                          ],
                          "start" : 0,
                          "duration" : 573195,
                          "mediaStart" : 0,
                          "mediaDuration" : 573195,
                          "scalar" : 1,
                          "metadata" : {
                            "AutoAppliedSmartFocus" : "False",
                            "clipSpeedAttribute" : false
                          },
                          "animationTracks" : {

                          }
                        },
                        {
                          "id" : 215,
                          "_type" : "ScreenVMFile",
                          "src" : 2,
                          "trackNumber" : 0,
                          "attributes" : {
                            "ident" : "hijacking_ntfs_structs_attack"
                          },
                          "parameters" : {
                            "cursorScale" : {
                              "type" : "double",
                              "defaultValue" : 0.0,
                              "interp" : "linr"
                            },
                            "cursorOpacity" : {
                              "type" : "double",
                              "defaultValue" : 0.0,
                              "interp" : "linr"
                            }
                          },
                          "effects" : [

                          ],
                          "start" : 573195,
                          "duration" : 272129,
                          "mediaStart" : 1011381,
                          "mediaDuration" : 272129,
                          "scalar" : 1,
                          "metadata" : {
                            "AutoAppliedSmartFocus" : "False",
                            "clipSpeedAttribute" : false
                          },
                          "animationTracks" : {

                          }
                        }
                    ],
                    "effects" : [
                        {
                          "effectName" : "CursorHilight",
                          "category" : "categoryCursorEffects",
                          "parameters" : {
                            "blur" : 0.1,
                            "color-alpha" : 0.75,
                            "color-blue" : 0.0,
                            "color-green" : 1.0,
                            "color-red" : 1.0,
                            "radius" : 50.0
                          }
                        }
                    ],
                    "start" : 3284,
                    "duration" : 168,
                    "mediaStart" : 4463,
                    "mediaDuration" : "140387688/167",
                    "scalar" : "167/835641",
                    "metadata" : {
                      "AutoAppliedSmartFocus" : "False",
                      "clipSpeedAttribute" : true,
                      "default-translation0" : 0.0
                    },
                    "animationTracks" : {

                    }
                  },
                  {
                    "id" : 216,
                    "_type" : "StitchedMedia",
                    "minMediaStart" : 0,
                    "attributes" : {
                      "ident" : "hijacking_ntfs_structs_attack",
                      "gain" : 1.0,
                      "mixToMono" : false
                    },
                    "parameters" : {
                      "cursorOpacity" : 1.0,
                      "cursorScale" : 1.0
                    },
                    "medias" : [
                        {
                          "id" : 217,
                          "_type" : "ScreenVMFile",
                          "src" : 2,
                          "trackNumber" : 0,
                          "attributes" : {
                            "ident" : "hijacking_ntfs_structs_attack"
                          },
                          "parameters" : {
                            "cursorScale" : {
                              "type" : "double",
                              "defaultValue" : 0.0,
                              "interp" : "linr"
                            },
                            "cursorOpacity" : {
                              "type" : "double",
                              "defaultValue" : 0.0,
                              "interp" : "linr"
                            }
                          },
                          "effects" : [

                          ],
                          "start" : 0,
                          "duration" : 1278509,
                          "mediaStart" : 0,
                          "mediaDuration" : 1278509,
                          "scalar" : 1,
                          "metadata" : {
                            "AutoAppliedSmartFocus" : "False",
                            "clipSpeedAttribute" : false
                          },
                          "animationTracks" : {

                          }
                        },
                        {
                          "id" : 218,
                          "_type" : "ScreenIMFile",
                          "src" : 2,
                          "trackNumber" : 0,
                          "trimStartSum" : 0,
                          "attributes" : {
                            "ident" : "hijacking_ntfs_structs_attack"
                          },
                          "parameters" : {
                            "cursorOpacity" : 0.0,
                            "cursorScale" : 0.0
                          },
                          "effects" : [

                          ],
                          "start" : 1278509,
                          "duration" : 90,
                          "mediaStart" : 1278508,
                          "mediaDuration" : 1,
                          "scalar" : 1,
                          "metadata" : {
                            "AutoAppliedSmartFocus" : "False"
                          },
                          "animationTracks" : {

                          }
                        },
                        {
                          "id" : 219,
                          "_type" : "ScreenVMFile",
                          "src" : 2,
                          "trackNumber" : 0,
                          "attributes" : {
                            "ident" : "hijacking_ntfs_structs_attack"
                          },
                          "parameters" : {
                            "cursorScale" : {
                              "type" : "double",
                              "defaultValue" : 0.0,
                              "interp" : "linr"
                            },
                            "cursorOpacity" : {
                              "type" : "double",
                              "defaultValue" : 0.0,
                              "interp" : "linr"
                            }
                          },
                          "effects" : [

                          ],
                          "start" : 1278599,
                          "duration" : 5,
                          "mediaStart" : 1278509,
                          "mediaDuration" : 5,
                          "scalar" : 1,
                          "metadata" : {
                            "AutoAppliedSmartFocus" : "False",
                            "clipSpeedAttribute" : false
                          },
                          "animationTracks" : {

                          }
                        },
                        {
                          "id" : 220,
                          "_type" : "ScreenIMFile",
                          "src" : 2,
                          "trackNumber" : 0,
                          "trimStartSum" : 0,
                          "attributes" : {
                            "ident" : "hijacking_ntfs_structs_attack"
                          },
                          "parameters" : {
                            "cursorOpacity" : 0.0,
                            "cursorScale" : 0.0
                          },
                          "effects" : [

                          ],
                          "start" : 1278604,
                          "duration" : 60,
                          "mediaStart" : 1278514,
                          "mediaDuration" : 1,
                          "scalar" : 1,
                          "metadata" : {
                            "AutoAppliedSmartFocus" : "False"
                          },
                          "animationTracks" : {

                          }
                        },
                        {
                          "id" : 221,
                          "_type" : "ScreenVMFile",
                          "src" : 2,
                          "trackNumber" : 0,
                          "attributes" : {
                            "ident" : "hijacking_ntfs_structs_attack"
                          },
                          "parameters" : {
                            "cursorScale" : {
                              "type" : "double",
                              "defaultValue" : 0.0,
                              "interp" : "linr"
                            },
                            "cursorOpacity" : {
                              "type" : "double",
                              "defaultValue" : 0.0,
                              "interp" : "linr"
                            }
                          },
                          "effects" : [

                          ],
                          "start" : 1278664,
                          "duration" : 4996,
                          "mediaStart" : 1278514,
                          "mediaDuration" : 4996,
                          "scalar" : 1,
                          "metadata" : {
                            "AutoAppliedSmartFocus" : "False",
                            "clipSpeedAttribute" : false
                          },
                          "animationTracks" : {

                          }
                        }
                    ],
                    "effects" : [
                        {
                          "effectName" : "CursorHilight",
                          "category" : "categoryCursorEffects",
                          "parameters" : {
                            "blur" : 0.1,
                            "color-alpha" : 0.75,
                            "color-blue" : 0.0,
                            "color-green" : 1.0,
                            "color-red" : 1.0,
                            "radius" : 50.0
                          }
                        }
                    ],
                    "start" : 3452,
                    "duration" : 377,
                    "mediaStart" : 1278290,
                    "mediaDuration" : 377,
                    "scalar" : 1,
                    "metadata" : {
                      "AutoAppliedSmartFocus" : "False",
                      "clipSpeedAttribute" : false
                    },
                    "animationTracks" : {

                    }
                  }
                ]
              },
              {
                "trackIndex" : 3,
                "medias" : [
                  {
                    "id" : 222,
                    "_type" : "Callout",
                    "def" : {
                      "kind" : "remix",
                      "shape" : "text",
                      "style" : "basic",
                      "height" : 255.142857142714,
                      "line-spacing" : 0.0,
                      "width" : 1941.78750000088,
                      "word-wrap" : 1.0,
                      "horizontal-alignment" : "center",
                      "resize-behavior" : "resizeText",
                      "text" : "Reading and overwriting the file opened\r without sharing permission",
                      "vertical-alignment" : "center",
                      "font" : {
                        "color-blue" : 1.0,
                        "color-green" : 1.0,
                        "color-red" : 1.0,
                        "size" : 96.0,
                        "tracking" : 0.0,
                        "name" : "Montserrat",
                        "weight" : "Regular"
                      },
                      "textAttributes" : {
                        "type" : "textAttributeList",
                        "keyframes" : [
                          {
                            "endTime" : 0,
                            "time" : 0,
                            "value" : [{"name":"fontSize","rangeEnd":67,"rangeStart":0,"value":89,"valueType":"double"},{"name":"underline","rangeEnd":67,"rangeStart":0,"value":0,"valueType":"int"},{"name":"fgColor","rangeEnd":67,"rangeStart":0,"value":"(255,255,255,255)","valueType":"color"},{"name":"fontWeight","rangeEnd":67,"rangeStart":0,"value":400,"valueType":"int"},{"name":"fontItalic","rangeEnd":67,"rangeStart":0,"value":0,"valueType":"int"},{"name":"fontName","rangeEnd":67,"rangeStart":0,"value":"Montserrat","valueType":"string"},{"name":"strikethrough","rangeEnd":67,"rangeStart":0,"value":0,"valueType":"int"}],
                            "duration" : 0
                          }
                        ]
                      }
                    },
                    "attributes" : {
                      "autoRotateText" : true
                    },
                    "parameters" : {
                      "translation0" : 0.106249999582143,
                      "translation1" : -328.723214286274
                    },
                    "effects" : [
                        {
                          "effectName" : "DropShadow",
                          "category" : "categoryVisualEffects",
                          "parameters" : {
                            "angle" : 5.49778714378214,
                            "blur" : 10.0,
                            "color-alpha" : 1.0,
                            "color-blue" : 0.1216,
                            "color-green" : 0.1216,
                            "color-red" : 0.1216,
                            "enabled" : 1,
                            "offset" : 10.0,
                            "opacity" : 0.4
                          }
                        }
                    ],
                    "start" : 0,
                    "duration" : 150,
                    "mediaStart" : 0,
                    "mediaDuration" : 150,
                    "scalar" : 1,
                    "metadata" : {
                      "WinSubProjectDisplayName" : "",
                      "clipSpeedAttribute" : false,
                      "default-HAlign" : "center",
                      "default-LineSpace" : 0.0,
                      "default-VAlign" : "center",
                      "default-text-attributes" : "[{\"name\":\"strikethrough\",\"rangeEnd\":76,\"rangeStart\":0,\"value\":0,\"valueType\":\"int\"},{\"name\":\"fontItalic\",\"rangeEnd\":76,\"rangeStart\":0,\"value\":0,\"valueType\":\"int\"},{\"name\":\"fontName\",\"rangeEnd\":76,\"rangeStart\":0,\"value\":\"Montserrat\",\"valueType\":\"string\"},{\"name\":\"fgColor\",\"rangeEnd\":76,\"rangeStart\":0,\"value\":\"(255,255,255,255)\",\"valueType\":\"color\"},{\"name\":\"fontSize\",\"rangeEnd\":76,\"rangeStart\":0,\"value\":59,\"valueType\":\"double\"},{\"name\":\"underline\",\"rangeEnd\":76,\"rangeStart\":0,\"value\":0,\"valueType\":\"int\"},{\"name\":\"fontWeight\",\"rangeEnd\":76,\"rangeStart\":0,\"value\":400,\"valueType\":\"int\"}]",
                      "default-translation0" : 0.0,
                      "default-translation1" : 0.0
                    },
                    "animationTracks" : {

                    }
                  },
                  {
                    "id" : 223,
                    "_type" : "Callout",
                    "def" : {
                      "kind" : "remix",
                      "shape" : "text-rectangle",
                      "style" : "basic",
                      "fill-color-blue" : 0.270588235294118,
                      "fill-color-green" : 0.243137254901961,
                      "fill-color-opacity" : 1.0,
                      "fill-color-red" : 0.211764705882353,
                      "height" : 139.714285714328,
                      "line-spacing" : 0.0,
                      "stroke-color-blue" : 0.890196078431372,
                      "stroke-color-green" : 0.870588235294118,
                      "stroke-color-opacity" : 1.0,
                      "stroke-color-red" : 0.847058823529412,
                      "stroke-width" : 2.0,
                      "tail-x" : -540.364583333164,
                      "tail-y" : -37.1428571428358,
                      "width" : 2011.51249999993,
                      "word-wrap" : 1.0,
                      "fill-style" : "solid",
                      "horizontal-alignment" : "center",
                      "resize-behavior" : "resizeText",
                      "stroke-style" : "solid",
                      "text" : "Checking the Windows version via calling winver",
                      "vertical-alignment" : "center",
                      "font" : {
                        "color-blue" : 0.266666666666667,
                        "color-green" : 0.231372549019608,
                        "color-opacity" : 1.0,
                        "color-red" : 0.184313725490196,
                        "size" : 64.0,
                        "tracking" : 0.0,
                        "name" : "Montserrat",
                        "weight" : "Regular"
                      },
                      "textAttributes" : {
                        "type" : "textAttributeList",
                        "keyframes" : [
                          {
                            "endTime" : 0,
                            "time" : 0,
                            "value" : [{"name":"fontSize","rangeEnd":47,"rangeStart":0,"value":80,"valueType":"double"},{"name":"fontName","rangeEnd":47,"rangeStart":0,"value":"Montserrat","valueType":"string"},{"name":"strikethrough","rangeEnd":47,"rangeStart":0,"value":0,"valueType":"int"},{"name":"kerning","rangeEnd":47,"rangeStart":0,"value":0,"valueType":"double"},{"name":"fgColor","rangeEnd":47,"rangeStart":0,"value":"(255,255,255,255)","valueType":"color"},{"name":"underline","rangeEnd":47,"rangeStart":0,"value":0,"valueType":"int"},{"name":"fontWeight","rangeEnd":47,"rangeStart":0,"value":400,"valueType":"int"},{"name":"fontItalic","rangeEnd":47,"rangeStart":0,"value":0,"valueType":"int"}],
                            "duration" : 0
                          }
                        ]
                      }
                    },
                    "attributes" : {
                      "autoRotateText" : true
                    },
                    "parameters" : {
                      "translation0" : 5.51310108676262e-11,
                      "translation1" : -545.513392857376
                    },
                    "effects" : [
                        {
                          "effectName" : "DropShadow",
                          "category" : "categoryVisualEffects",
                          "parameters" : {
                            "angle" : 5.49778714378214,
                            "blur" : 10.0,
                            "color-alpha" : 1.0,
                            "color-blue" : 0.1216,
                            "color-green" : 0.1216,
                            "color-red" : 0.1216,
                            "enabled" : 1,
                            "offset" : 10.0,
                            "opacity" : 0.4
                          }
                        }
                    ],
                    "start" : 163,
                    "duration" : 72,
                    "mediaStart" : -11,
                    "mediaDuration" : 72,
                    "scalar" : 1,
                    "metadata" : {
                      "WinSubProjectDisplayName" : "",
                      "clipSpeedAttribute" : false,
                      "default-HAlign" : "center",
                      "default-LineSpace" : 0.0,
                      "default-VAlign" : "center",
                      "default-fill-color-blue" : 1.0,
                      "default-fill-color-green" : 1.0,
                      "default-fill-color-red" : 1.0,
                      "default-scale0" : 1.0,
                      "default-scale1" : 1.0,
                      "default-stroke-color-blue" : 0.56078431372549,
                      "default-stroke-color-green" : 0.686274509803922,
                      "default-stroke-color-red" : 0.0196078431372549,
                      "default-text-attributes" : "[{\"name\":\"fontSize\",\"rangeEnd\":32,\"rangeStart\":0,\"value\":64,\"valueType\":\"double\"},{\"name\":\"fgColor\",\"rangeEnd\":32,\"rangeStart\":0,\"value\":\"(255,255,255,255)\",\"valueType\":\"color\"},{\"name\":\"fontWeight\",\"rangeEnd\":32,\"rangeStart\":0,\"value\":400,\"valueType\":\"int\"},{\"name\":\"fontName\",\"rangeEnd\":32,\"rangeStart\":0,\"value\":\"Montserrat\",\"valueType\":\"string\"},{\"name\":\"fontItalic\",\"rangeEnd\":32,\"rangeStart\":0,\"value\":0,\"valueType\":\"int\"},{\"name\":\"strikethrough\",\"rangeEnd\":32,\"rangeStart\":0,\"value\":0,\"valueType\":\"int\"},{\"name\":\"underline\",\"rangeEnd\":32,\"rangeStart\":0,\"value\":0,\"valueType\":\"int\"}]",
                      "default-translation0" : 0.0,
                      "default-translation1" : 0.0
                    },
                    "animationTracks" : {

                    }
                  },
                  {
                    "id" : 224,
                    "_type" : "Callout",
                    "def" : {
                      "kind" : "remix",
                      "shape" : "text-rectangle",
                      "style" : "basic",
                      "fill-color-blue" : 0.270588235294118,
                      "fill-color-green" : 0.243137254901961,
                      "fill-color-opacity" : 1.0,
                      "fill-color-red" : 0.211764705882353,
                      "height" : 150.0,
                      "line-spacing" : 0.0,
                      "stroke-color-blue" : 0.890196078431372,
                      "stroke-color-green" : 0.870588235294118,
                      "stroke-color-opacity" : 1.0,
                      "stroke-color-red" : 0.847058823529412,
                      "stroke-width" : 2.0,
                      "tail-x" : -540.364583333164,
                      "tail-y" : -20.0,
                      "width" : 1734.06249999994,
                      "word-wrap" : 1.0,
                      "fill-style" : "solid",
                      "horizontal-alignment" : "center",
                      "resize-behavior" : "resizeText",
                      "stroke-style" : "solid",
                      "text" : "We have the final version 1903",
                      "vertical-alignment" : "center",
                      "font" : {
                        "color-blue" : 0.266666666666667,
                        "color-green" : 0.231372549019608,
                        "color-opacity" : 1.0,
                        "color-red" : 0.184313725490196,
                        "size" : 64.0,
                        "tracking" : 0.0,
                        "name" : "Montserrat",
                        "weight" : "Regular"
                      },
                      "textAttributes" : {
                        "type" : "textAttributeList",
                        "keyframes" : [
                          {
                            "endTime" : 0,
                            "time" : 0,
                            "value" : [{"name":"fontSize","rangeEnd":30,"rangeStart":0,"value":80,"valueType":"double"},{"name":"fontItalic","rangeEnd":30,"rangeStart":0,"value":0,"valueType":"int"},{"name":"fontWeight","rangeEnd":30,"rangeStart":0,"value":400,"valueType":"int"},{"name":"fgColor","rangeEnd":30,"rangeStart":0,"value":"(255,255,255,255)","valueType":"color"},{"name":"strikethrough","rangeEnd":30,"rangeStart":0,"value":0,"valueType":"int"},{"name":"fontName","rangeEnd":30,"rangeStart":0,"value":"Montserrat","valueType":"string"},{"name":"underline","rangeEnd":30,"rangeStart":0,"value":0,"valueType":"int"},{"name":"kerning","rangeEnd":30,"rangeStart":0,"value":0,"valueType":"double"}],
                            "duration" : 0
                          }
                        ]
                      }
                    },
                    "attributes" : {
                      "autoRotateText" : true
                    },
                    "parameters" : {
                      "translation0" : -59.9999999999848,
                      "translation1" : -615.370535714687
                    },
                    "effects" : [
                        {
                          "effectName" : "DropShadow",
                          "category" : "categoryVisualEffects",
                          "parameters" : {
                            "angle" : 5.49778714378214,
                            "blur" : 10.0,
                            "color-alpha" : 1.0,
                            "color-blue" : 0.1216,
                            "color-green" : 0.1216,
                            "color-red" : 0.1216,
                            "enabled" : 1,
                            "offset" : 10.0,
                            "opacity" : 0.4
                          }
                        }
                    ],
                    "start" : 282,
                    "duration" : 73,
                    "mediaStart" : -12,
                    "mediaDuration" : 73,
                    "scalar" : 1,
                    "metadata" : {
                      "WinSubProjectDisplayName" : "",
                      "clipSpeedAttribute" : false,
                      "default-HAlign" : "center",
                      "default-LineSpace" : 0.0,
                      "default-VAlign" : "center",
                      "default-fill-color-blue" : 1.0,
                      "default-fill-color-green" : 1.0,
                      "default-fill-color-red" : 1.0,
                      "default-scale0" : 1.0,
                      "default-scale1" : 1.0,
                      "default-stroke-color-blue" : 0.56078431372549,
                      "default-stroke-color-green" : 0.686274509803922,
                      "default-stroke-color-red" : 0.0196078431372549,
                      "default-text-attributes" : "[{\"name\":\"fontSize\",\"rangeEnd\":32,\"rangeStart\":0,\"value\":64,\"valueType\":\"double\"},{\"name\":\"fgColor\",\"rangeEnd\":32,\"rangeStart\":0,\"value\":\"(255,255,255,255)\",\"valueType\":\"color\"},{\"name\":\"fontWeight\",\"rangeEnd\":32,\"rangeStart\":0,\"value\":400,\"valueType\":\"int\"},{\"name\":\"fontName\",\"rangeEnd\":32,\"rangeStart\":0,\"value\":\"Montserrat\",\"valueType\":\"string\"},{\"name\":\"fontItalic\",\"rangeEnd\":32,\"rangeStart\":0,\"value\":0,\"valueType\":\"int\"},{\"name\":\"strikethrough\",\"rangeEnd\":32,\"rangeStart\":0,\"value\":0,\"valueType\":\"int\"},{\"name\":\"underline\",\"rangeEnd\":32,\"rangeStart\":0,\"value\":0,\"valueType\":\"int\"}]",
                      "default-translation0" : 0.0,
                      "default-translation1" : 0.0
                    },
                    "animationTracks" : {

                    }
                  },
                  {
                    "id" : 225,
                    "_type" : "Callout",
                    "def" : {
                      "kind" : "remix",
                      "shape" : "text-rectangle",
                      "style" : "basic",
                      "fill-color-blue" : 0.270588235294118,
                      "fill-color-green" : 0.243137254901961,
                      "fill-color-opacity" : 1.0,
                      "fill-color-red" : 0.211764705882353,
                      "height" : 194.0,
                      "line-spacing" : 0.0,
                      "stroke-color-blue" : 0.890196078431372,
                      "stroke-color-green" : 0.870588235294118,
                      "stroke-color-opacity" : 1.0,
                      "stroke-color-red" : 0.847058823529412,
                      "stroke-width" : 2.0,
                      "tail-x" : -540.364583333164,
                      "tail-y" : -20.0,
                      "width" : 2242.72083333326,
                      "word-wrap" : 1.0,
                      "fill-style" : "solid",
                      "horizontal-alignment" : "center",
                      "resize-behavior" : "resizeText",
                      "stroke-style" : "solid",
                      "text" : "The researcher is launching the app,\rwhich loads a driver.",
                      "vertical-alignment" : "center",
                      "font" : {
                        "color-blue" : 0.266666666666667,
                        "color-green" : 0.231372549019608,
                        "color-opacity" : 1.0,
                        "color-red" : 0.184313725490196,
                        "size" : 64.0,
                        "tracking" : 0.0,
                        "name" : "Montserrat",
                        "weight" : "Regular"
                      },
                      "textAttributes" : {
                        "type" : "textAttributeList",
                        "keyframes" : [
                          {
                            "endTime" : 0,
                            "time" : 0,
                            "value" : [{"name":"fontSize","rangeEnd":58,"rangeStart":0,"value":80,"valueType":"double"},{"name":"fontName","rangeEnd":58,"rangeStart":0,"value":"Montserrat","valueType":"string"},{"name":"fontItalic","rangeEnd":58,"rangeStart":0,"value":0,"valueType":"int"},{"name":"underline","rangeEnd":58,"rangeStart":0,"value":0,"valueType":"int"},{"name":"strikethrough","rangeEnd":58,"rangeStart":0,"value":0,"valueType":"int"},{"name":"fgColor","rangeEnd":58,"rangeStart":0,"value":"(255,255,255,255)","valueType":"color"},{"name":"fontWeight","rangeEnd":58,"rangeStart":0,"value":400,"valueType":"int"}],
                            "duration" : 0
                          }
                        ]
                      }
                    },
                    "attributes" : {
                      "autoRotateText" : true
                    },
                    "parameters" : {
                      "translation0" : 34.4047619045587,
                      "translation1" : -539.799107143004
                    },
                    "effects" : [
                        {
                          "effectName" : "DropShadow",
                          "category" : "categoryVisualEffects",
                          "parameters" : {
                            "angle" : 5.49778714378214,
                            "blur" : 10.0,
                            "color-alpha" : 1.0,
                            "color-blue" : 0.1216,
                            "color-green" : 0.1216,
                            "color-red" : 0.1216,
                            "enabled" : 1,
                            "offset" : 10.0,
                            "opacity" : 0.4
                          }
                        }
                    ],
                    "start" : 405,
                    "duration" : 91,
                    "mediaStart" : -24,
                    "mediaDuration" : 91,
                    "scalar" : 1,
                    "metadata" : {
                      "WinSubProjectDisplayName" : "",
                      "clipSpeedAttribute" : false,
                      "default-HAlign" : "center",
                      "default-LineSpace" : 0.0,
                      "default-VAlign" : "center",
                      "default-fill-color-blue" : 1.0,
                      "default-fill-color-green" : 1.0,
                      "default-fill-color-red" : 1.0,
                      "default-stroke-color-blue" : 0.56078431372549,
                      "default-stroke-color-green" : 0.686274509803922,
                      "default-stroke-color-red" : 0.0196078431372549,
                      "default-text-attributes" : "[{\"name\":\"fontSize\",\"rangeEnd\":32,\"rangeStart\":0,\"value\":64,\"valueType\":\"double\"},{\"name\":\"fgColor\",\"rangeEnd\":32,\"rangeStart\":0,\"value\":\"(255,255,255,255)\",\"valueType\":\"color\"},{\"name\":\"fontWeight\",\"rangeEnd\":32,\"rangeStart\":0,\"value\":400,\"valueType\":\"int\"},{\"name\":\"fontName\",\"rangeEnd\":32,\"rangeStart\":0,\"value\":\"Montserrat\",\"valueType\":\"string\"},{\"name\":\"fontItalic\",\"rangeEnd\":32,\"rangeStart\":0,\"value\":0,\"valueType\":\"int\"},{\"name\":\"strikethrough\",\"rangeEnd\":32,\"rangeStart\":0,\"value\":0,\"valueType\":\"int\"},{\"name\":\"underline\",\"rangeEnd\":32,\"rangeStart\":0,\"value\":0,\"valueType\":\"int\"}]",
                      "default-translation0" : 0.0,
                      "default-translation1" : 0.0
                    },
                    "animationTracks" : {

                    }
                  },
                  {
                    "id" : 226,
                    "_type" : "Callout",
                    "def" : {
                      "kind" : "remix",
                      "shape" : "text-rectangle",
                      "style" : "basic",
                      "fill-color-blue" : 0.270588235294118,
                      "fill-color-green" : 0.243137254901961,
                      "fill-color-opacity" : 1.0,
                      "fill-color-red" : 0.211764705882353,
                      "height" : 139.714285714274,
                      "line-spacing" : 0.0,
                      "stroke-color-blue" : 0.890196078431372,
                      "stroke-color-green" : 0.870588235294118,
                      "stroke-color-opacity" : 1.0,
                      "stroke-color-red" : 0.847058823529412,
                      "stroke-width" : 2.0,
                      "tail-x" : -453.928571428609,
                      "tail-y" : 29.6428571428547,
                      "width" : 2299.62662337759,
                      "word-wrap" : 1.0,
                      "fill-style" : "solid",
                      "horizontal-alignment" : "center",
                      "resize-behavior" : "resizeText",
                      "stroke-style" : "solid",
                      "text" : "The researcher is creating a new file 'secret_formula.txt'",
                      "vertical-alignment" : "center",
                      "font" : {
                        "color-blue" : 0.266666666666667,
                        "color-green" : 0.231372549019608,
                        "color-opacity" : 1.0,
                        "color-red" : 0.184313725490196,
                        "size" : 64.0,
                        "tracking" : 0.0,
                        "name" : "Montserrat",
                        "weight" : "Regular"
                      },
                      "textAttributes" : {
                        "type" : "textAttributeList",
                        "keyframes" : [
                          {
                            "endTime" : 0,
                            "time" : 0,
                            "value" : [{"name":"fgColor","rangeEnd":58,"rangeStart":0,"value":"(255,255,255,255)","valueType":"color"},{"name":"fontSize","rangeEnd":58,"rangeStart":0,"value":80,"valueType":"double"},{"name":"kerning","rangeEnd":58,"rangeStart":0,"value":0,"valueType":"double"},{"name":"fontWeight","rangeEnd":58,"rangeStart":0,"value":400,"valueType":"int"},{"name":"strikethrough","rangeEnd":58,"rangeStart":0,"value":0,"valueType":"int"},{"name":"underline","rangeEnd":58,"rangeStart":0,"value":0,"valueType":"int"},{"name":"fontItalic","rangeEnd":58,"rangeStart":0,"value":0,"valueType":"int"},{"name":"fontName","rangeEnd":58,"rangeStart":0,"value":"Montserrat","valueType":"string"}],
                            "duration" : 0
                          }
                        ]
                      }
                    },
                    "attributes" : {
                      "autoRotateText" : true
                    },
                    "parameters" : {
                      "translation0" : -52.0312499999964,
                      "translation1" : -612.29910714291
                    },
                    "effects" : [
                        {
                          "effectName" : "DropShadow",
                          "category" : "categoryVisualEffects",
                          "parameters" : {
                            "angle" : 5.49778714378214,
                            "blur" : 10.0,
                            "color-alpha" : 1.0,
                            "color-blue" : 0.1216,
                            "color-green" : 0.1216,
                            "color-red" : 0.1216,
                            "enabled" : 1,
                            "offset" : 10.0,
                            "opacity" : 0.4
                          }
                        }
                    ],
                    "start" : 614,
                    "duration" : 79,
                    "mediaStart" : -8,
                    "mediaDuration" : 79,
                    "scalar" : 1,
                    "metadata" : {
                      "WinSubProjectDisplayName" : "",
                      "clipSpeedAttribute" : false,
                      "default-HAlign" : "center",
                      "default-LineSpace" : 0.0,
                      "default-VAlign" : "center",
                      "default-fill-color-blue" : 1.0,
                      "default-fill-color-green" : 1.0,
                      "default-fill-color-red" : 1.0,
                      "default-scale0" : 1.0,
                      "default-scale1" : 1.0,
                      "default-stroke-color-blue" : 0.56078431372549,
                      "default-stroke-color-green" : 0.686274509803922,
                      "default-stroke-color-red" : 0.0196078431372549,
                      "default-text-attributes" : "[{\"name\":\"fontSize\",\"rangeEnd\":32,\"rangeStart\":0,\"value\":64,\"valueType\":\"double\"},{\"name\":\"fgColor\",\"rangeEnd\":32,\"rangeStart\":0,\"value\":\"(255,255,255,255)\",\"valueType\":\"color\"},{\"name\":\"fontWeight\",\"rangeEnd\":32,\"rangeStart\":0,\"value\":400,\"valueType\":\"int\"},{\"name\":\"fontName\",\"rangeEnd\":32,\"rangeStart\":0,\"value\":\"Montserrat\",\"valueType\":\"string\"},{\"name\":\"fontItalic\",\"rangeEnd\":32,\"rangeStart\":0,\"value\":0,\"valueType\":\"int\"},{\"name\":\"strikethrough\",\"rangeEnd\":32,\"rangeStart\":0,\"value\":0,\"valueType\":\"int\"},{\"name\":\"underline\",\"rangeEnd\":32,\"rangeStart\":0,\"value\":0,\"valueType\":\"int\"}]",
                      "default-translation0" : 0.0,
                      "default-translation1" : 0.0
                    },
                    "animationTracks" : {

                    }
                  },
                  {
                    "id" : 227,
                    "_type" : "Callout",
                    "def" : {
                      "kind" : "remix",
                      "shape" : "text-rectangle",
                      "style" : "basic",
                      "fill-color-blue" : 0.270588235294118,
                      "fill-color-green" : 0.243137254901961,
                      "fill-color-opacity" : 1.0,
                      "fill-color-red" : 0.211764705882353,
                      "height" : 126.666666666661,
                      "line-spacing" : 0.0,
                      "stroke-color-blue" : 0.890196078431372,
                      "stroke-color-green" : 0.870588235294118,
                      "stroke-color-opacity" : 1.0,
                      "stroke-color-red" : 0.847058823529412,
                      "stroke-width" : 2.0,
                      "tail-x" : -406.249999999963,
                      "tail-y" : 3.33333333331352,
                      "width" : 337.500000000259,
                      "word-wrap" : 1.0,
                      "fill-style" : "solid",
                      "horizontal-alignment" : "center",
                      "resize-behavior" : "resizeText",
                      "stroke-style" : "solid",
                      "text" : "Done",
                      "vertical-alignment" : "center",
                      "font" : {
                        "color-blue" : 0.266666666666667,
                        "color-green" : 0.231372549019608,
                        "color-opacity" : 1.0,
                        "color-red" : 0.184313725490196,
                        "size" : 64.0,
                        "tracking" : 0.0,
                        "name" : "Montserrat",
                        "weight" : "Regular"
                      },
                      "textAttributes" : {
                        "type" : "textAttributeList",
                        "keyframes" : [
                          {
                            "endTime" : 0,
                            "time" : 0,
                            "value" : [{"name":"fontWeight","rangeEnd":4,"rangeStart":0,"value":400,"valueType":"int"},{"name":"underline","rangeEnd":4,"rangeStart":0,"value":0,"valueType":"int"},{"name":"fontName","rangeEnd":4,"rangeStart":0,"value":"Montserrat","valueType":"string"},{"name":"fontSize","rangeEnd":4,"rangeStart":0,"value":80,"valueType":"double"},{"name":"fgColor","rangeEnd":4,"rangeStart":0,"value":"(255,255,255,255)","valueType":"color"},{"name":"fontItalic","rangeEnd":4,"rangeStart":0,"value":0,"valueType":"int"},{"name":"strikethrough","rangeEnd":4,"rangeStart":0,"value":0,"valueType":"int"}],
                            "duration" : 0
                          }
                        ]
                      }
                    },
                    "attributes" : {
                      "autoRotateText" : true
                    },
                    "parameters" : {
                      "translation0" : -1.10318865154113e-10,
                      "translation1" : -617.418154762405
                    },
                    "effects" : [
                        {
                          "effectName" : "DropShadow",
                          "category" : "categoryVisualEffects",
                          "parameters" : {
                            "angle" : 5.49778714378214,
                            "blur" : 10.0,
                            "color-alpha" : 1.0,
                            "color-blue" : 0.1216,
                            "color-green" : 0.1216,
                            "color-red" : 0.1216,
                            "enabled" : 1,
                            "offset" : 10.0,
                            "opacity" : 0.4
                          }
                        }
                    ],
                    "start" : 693,
                    "duration" : 58,
                    "mediaStart" : 38,
                    "mediaDuration" : 58,
                    "scalar" : 1,
                    "metadata" : {
                      "WinSubProjectDisplayName" : "",
                      "clipSpeedAttribute" : false,
                      "default-HAlign" : "center",
                      "default-LineSpace" : 0.0,
                      "default-VAlign" : "center",
                      "default-fill-color-blue" : 1.0,
                      "default-fill-color-green" : 1.0,
                      "default-fill-color-red" : 1.0,
                      "default-scale0" : 1.0,
                      "default-scale1" : 1.0,
                      "default-stroke-color-blue" : 0.56078431372549,
                      "default-stroke-color-green" : 0.686274509803922,
                      "default-stroke-color-red" : 0.0196078431372549,
                      "default-text-attributes" : "[{\"name\":\"fontSize\",\"rangeEnd\":32,\"rangeStart\":0,\"value\":64,\"valueType\":\"double\"},{\"name\":\"fgColor\",\"rangeEnd\":32,\"rangeStart\":0,\"value\":\"(255,255,255,255)\",\"valueType\":\"color\"},{\"name\":\"fontWeight\",\"rangeEnd\":32,\"rangeStart\":0,\"value\":400,\"valueType\":\"int\"},{\"name\":\"fontName\",\"rangeEnd\":32,\"rangeStart\":0,\"value\":\"Montserrat\",\"valueType\":\"string\"},{\"name\":\"fontItalic\",\"rangeEnd\":32,\"rangeStart\":0,\"value\":0,\"valueType\":\"int\"},{\"name\":\"strikethrough\",\"rangeEnd\":32,\"rangeStart\":0,\"value\":0,\"valueType\":\"int\"},{\"name\":\"underline\",\"rangeEnd\":32,\"rangeStart\":0,\"value\":0,\"valueType\":\"int\"}]",
                      "default-translation0" : 0.0,
                      "default-translation1" : 0.0
                    },
                    "animationTracks" : {

                    }
                  },
                  {
                    "id" : 228,
                    "_type" : "Callout",
                    "def" : {
                      "kind" : "remix",
                      "shape" : "text-rectangle",
                      "style" : "basic",
                      "fill-color-blue" : 0.270588235294118,
                      "fill-color-green" : 0.243137254901961,
                      "fill-color-opacity" : 1.0,
                      "fill-color-red" : 0.211764705882353,
                      "height" : 145.428571428425,
                      "line-spacing" : 0.0,
                      "stroke-color-blue" : 0.890196078431372,
                      "stroke-color-green" : 0.870588235294118,
                      "stroke-color-opacity" : 1.0,
                      "stroke-color-red" : 0.847058823529412,
                      "stroke-width" : 2.0,
                      "tail-x" : -921.071428571424,
                      "tail-y" : 26.1607142858396,
                      "width" : 2295.26890756632,
                      "word-wrap" : 1.0,
                      "fill-style" : "solid",
                      "horizontal-alignment" : "center",
                      "resize-behavior" : "resizeText",
                      "stroke-style" : "solid",
                      "text" : "The researcher is saving a new secret formula",
                      "vertical-alignment" : "center",
                      "font" : {
                        "color-blue" : 0.266666666666667,
                        "color-green" : 0.231372549019608,
                        "color-opacity" : 1.0,
                        "color-red" : 0.184313725490196,
                        "size" : 64.0,
                        "tracking" : 0.0,
                        "name" : "Montserrat",
                        "weight" : "Regular"
                      },
                      "textAttributes" : {
                        "type" : "textAttributeList",
                        "keyframes" : [
                          {
                            "endTime" : 0,
                            "time" : 0,
                            "value" : [{"name":"underline","rangeEnd":45,"rangeStart":0,"value":0,"valueType":"int"},{"name":"fontName","rangeEnd":45,"rangeStart":0,"value":"Montserrat","valueType":"string"},{"name":"strikethrough","rangeEnd":45,"rangeStart":0,"value":0,"valueType":"int"},{"name":"fgColor","rangeEnd":45,"rangeStart":0,"value":"(255,255,255,255)","valueType":"color"},{"name":"fontWeight","rangeEnd":45,"rangeStart":0,"value":400,"valueType":"int"},{"name":"fontSize","rangeEnd":45,"rangeStart":0,"value":80,"valueType":"double"},{"name":"fontItalic","rangeEnd":45,"rangeStart":0,"value":0,"valueType":"int"}],
                            "duration" : 0
                          }
                        ]
                      }
                    },
                    "attributes" : {
                      "autoRotateText" : true
                    },
                    "parameters" : {
                      "translation0" : -1.05046638054773e-10,
                      "translation1" : -615.857142857512
                    },
                    "effects" : [

                    ],
                    "start" : 751,
                    "duration" : 94,
                    "mediaStart" : 0,
                    "mediaDuration" : 94,
                    "scalar" : 1,
                    "metadata" : {
                      "WinSubProjectDisplayName" : "",
                      "clipSpeedAttribute" : false,
                      "default-HAlign" : "center",
                      "default-LineSpace" : 0.0,
                      "default-VAlign" : "center",
                      "default-fill-color-blue" : 1.0,
                      "default-fill-color-green" : 1.0,
                      "default-fill-color-red" : 1.0,
                      "default-scale0" : 1.0,
                      "default-scale1" : 1.0,
                      "default-stroke-color-blue" : 0.56078431372549,
                      "default-stroke-color-green" : 0.686274509803922,
                      "default-stroke-color-red" : 0.0196078431372549,
                      "default-text-attributes" : "[{\"name\":\"fontSize\",\"rangeEnd\":32,\"rangeStart\":0,\"value\":64,\"valueType\":\"double\"},{\"name\":\"fgColor\",\"rangeEnd\":32,\"rangeStart\":0,\"value\":\"(255,255,255,255)\",\"valueType\":\"color\"},{\"name\":\"fontWeight\",\"rangeEnd\":32,\"rangeStart\":0,\"value\":400,\"valueType\":\"int\"},{\"name\":\"fontName\",\"rangeEnd\":32,\"rangeStart\":0,\"value\":\"Montserrat\",\"valueType\":\"string\"},{\"name\":\"fontItalic\",\"rangeEnd\":32,\"rangeStart\":0,\"value\":0,\"valueType\":\"int\"},{\"name\":\"strikethrough\",\"rangeEnd\":32,\"rangeStart\":0,\"value\":0,\"valueType\":\"int\"},{\"name\":\"underline\",\"rangeEnd\":32,\"rangeStart\":0,\"value\":0,\"valueType\":\"int\"}]",
                      "default-translation0" : 0.0,
                      "default-translation1" : 0.0
                    },
                    "animationTracks" : {

                    }
                  },
                  {
                    "id" : 229,
                    "_type" : "Callout",
                    "def" : {
                      "kind" : "remix",
                      "shape" : "text-rectangle",
                      "style" : "basic",
                      "fill-color-blue" : 0.270588235294118,
                      "fill-color-green" : 0.243137254901961,
                      "fill-color-opacity" : 1.0,
                      "fill-color-red" : 0.211764705882353,
                      "height" : 120.535714285313,
                      "line-spacing" : 0.0,
                      "stroke-color-blue" : 0.890196078431372,
                      "stroke-color-green" : 0.870588235294118,
                      "stroke-color-opacity" : 1.0,
                      "stroke-color-red" : 0.847058823529412,
                      "stroke-width" : 2.0,
                      "tail-x" : 76.0714285713867,
                      "tail-y" : -5.26785714265661,
                      "width" : 419.37500000019,
                      "word-wrap" : 1.0,
                      "fill-style" : "solid",
                      "horizontal-alignment" : "center",
                      "resize-behavior" : "resizeText",
                      "stroke-style" : "solid",
                      "text" : "Done",
                      "vertical-alignment" : "center",
                      "font" : {
                        "color-blue" : 0.266666666666667,
                        "color-green" : 0.231372549019608,
                        "color-opacity" : 1.0,
                        "color-red" : 0.184313725490196,
                        "size" : 64.0,
                        "tracking" : 0.0,
                        "name" : "Montserrat",
                        "weight" : "Regular"
                      },
                      "textAttributes" : {
                        "type" : "textAttributeList",
                        "keyframes" : [
                          {
                            "endTime" : 0,
                            "time" : 0,
                            "value" : [{"name":"strikethrough","rangeEnd":4,"rangeStart":0,"value":0,"valueType":"int"},{"name":"fontSize","rangeEnd":4,"rangeStart":0,"value":80,"valueType":"double"},{"name":"fontName","rangeEnd":4,"rangeStart":0,"value":"Montserrat","valueType":"string"},{"name":"underline","rangeEnd":4,"rangeStart":0,"value":0,"valueType":"int"},{"name":"fgColor","rangeEnd":4,"rangeStart":0,"value":"(255,255,255,255)","valueType":"color"},{"name":"fontItalic","rangeEnd":4,"rangeStart":0,"value":0,"valueType":"int"},{"name":"fontWeight","rangeEnd":4,"rangeStart":0,"value":400,"valueType":"int"}],
                            "duration" : 0
                          }
                        ]
                      }
                    },
                    "attributes" : {
                      "autoRotateText" : true
                    },
                    "parameters" : {
                      "translation0" : -137.936507936448,
                      "translation1" : -620.24553571478
                    },
                    "effects" : [
                        {
                          "effectName" : "DropShadow",
                          "category" : "categoryVisualEffects",
                          "parameters" : {
                            "angle" : 5.49778714378214,
                            "blur" : 10.0,
                            "color-alpha" : 1.0,
                            "color-blue" : 0.1216,
                            "color-green" : 0.1216,
                            "color-red" : 0.1216,
                            "enabled" : 1,
                            "offset" : 10.0,
                            "opacity" : 0.4
                          }
                        }
                    ],
                    "start" : 845,
                    "duration" : 38,
                    "mediaStart" : -3,
                    "mediaDuration" : 38,
                    "scalar" : 1,
                    "metadata" : {
                      "WinSubProjectDisplayName" : "",
                      "clipSpeedAttribute" : false,
                      "default-HAlign" : "center",
                      "default-LineSpace" : 0.0,
                      "default-VAlign" : "center",
                      "default-fill-color-blue" : 1.0,
                      "default-fill-color-green" : 1.0,
                      "default-fill-color-red" : 1.0,
                      "default-stroke-color-blue" : 0.56078431372549,
                      "default-stroke-color-green" : 0.686274509803922,
                      "default-stroke-color-red" : 0.0196078431372549,
                      "default-text-attributes" : "[{\"name\":\"fontSize\",\"rangeEnd\":32,\"rangeStart\":0,\"value\":64,\"valueType\":\"double\"},{\"name\":\"fgColor\",\"rangeEnd\":32,\"rangeStart\":0,\"value\":\"(255,255,255,255)\",\"valueType\":\"color\"},{\"name\":\"fontWeight\",\"rangeEnd\":32,\"rangeStart\":0,\"value\":400,\"valueType\":\"int\"},{\"name\":\"fontName\",\"rangeEnd\":32,\"rangeStart\":0,\"value\":\"Montserrat\",\"valueType\":\"string\"},{\"name\":\"fontItalic\",\"rangeEnd\":32,\"rangeStart\":0,\"value\":0,\"valueType\":\"int\"},{\"name\":\"strikethrough\",\"rangeEnd\":32,\"rangeStart\":0,\"value\":0,\"valueType\":\"int\"},{\"name\":\"underline\",\"rangeEnd\":32,\"rangeStart\":0,\"value\":0,\"valueType\":\"int\"}]",
                      "default-translation0" : 0.0,
                      "default-translation1" : 0.0
                    },
                    "animationTracks" : {

                    }
                  },
                  {
                    "id" : 230,
                    "_type" : "Callout",
                    "def" : {
                      "kind" : "remix",
                      "shape" : "text-rectangle",
                      "style" : "basic",
                      "fill-color-blue" : 0.270588235294118,
                      "fill-color-green" : 0.243137254901961,
                      "fill-color-opacity" : 1.0,
                      "fill-color-red" : 0.211764705882353,
                      "height" : 124.583333333219,
                      "line-spacing" : 0.0,
                      "stroke-color-blue" : 0.890196078431372,
                      "stroke-color-green" : 0.870588235294118,
                      "stroke-color-opacity" : 1.0,
                      "stroke-color-red" : 0.847058823529412,
                      "stroke-width" : 2.0,
                      "tail-x" : -55.8333333332519,
                      "tail-y" : -7.29166666660954,
                      "width" : 946.041666666676,
                      "word-wrap" : 1.0,
                      "fill-style" : "solid",
                      "horizontal-alignment" : "center",
                      "resize-behavior" : "resizeText",
                      "stroke-style" : "solid",
                      "text" : "Checking the data",
                      "vertical-alignment" : "center",
                      "font" : {
                        "color-blue" : 0.266666666666667,
                        "color-green" : 0.231372549019608,
                        "color-opacity" : 1.0,
                        "color-red" : 0.184313725490196,
                        "size" : 64.0,
                        "tracking" : 0.0,
                        "name" : "Montserrat",
                        "weight" : "Regular"
                      },
                      "textAttributes" : {
                        "type" : "textAttributeList",
                        "keyframes" : [
                          {
                            "endTime" : 0,
                            "time" : 0,
                            "value" : [{"name":"underline","rangeEnd":17,"rangeStart":0,"value":0,"valueType":"int"},{"name":"fontName","rangeEnd":17,"rangeStart":0,"value":"Montserrat","valueType":"string"},{"name":"fontSize","rangeEnd":17,"rangeStart":0,"value":80,"valueType":"double"},{"name":"fgColor","rangeEnd":17,"rangeStart":0,"value":"(255,255,255,255)","valueType":"color"},{"name":"strikethrough","rangeEnd":17,"rangeStart":0,"value":0,"valueType":"int"},{"name":"fontItalic","rangeEnd":17,"rangeStart":0,"value":0,"valueType":"int"},{"name":"fontWeight","rangeEnd":17,"rangeStart":0,"value":400,"valueType":"int"}],
                            "duration" : 0
                          }
                        ]
                      }
                    },
                    "attributes" : {
                      "autoRotateText" : true
                    },
                    "parameters" : {
                      "translation0" : -2.00941485672956e-10,
                      "translation1" : -614.412202381115
                    },
                    "effects" : [
                        {
                          "effectName" : "DropShadow",
                          "category" : "categoryVisualEffects",
                          "parameters" : {
                            "angle" : 5.49778714378214,
                            "blur" : 10.0,
                            "color-alpha" : 1.0,
                            "color-blue" : 0.1216,
                            "color-green" : 0.1216,
                            "color-red" : 0.1216,
                            "enabled" : 1,
                            "offset" : 10.0,
                            "opacity" : 0.4
                          }
                        }
                    ],
                    "start" : 883,
                    "duration" : 63,
                    "mediaStart" : 0,
                    "mediaDuration" : 63,
                    "scalar" : 1,
                    "metadata" : {
                      "WinSubProjectDisplayName" : "",
                      "clipSpeedAttribute" : false,
                      "default-HAlign" : "center",
                      "default-LineSpace" : 0.0,
                      "default-VAlign" : "center",
                      "default-fill-color-blue" : 1.0,
                      "default-fill-color-green" : 1.0,
                      "default-fill-color-red" : 1.0,
                      "default-stroke-color-blue" : 0.56078431372549,
                      "default-stroke-color-green" : 0.686274509803922,
                      "default-stroke-color-red" : 0.0196078431372549,
                      "default-text-attributes" : "[{\"name\":\"fontSize\",\"rangeEnd\":32,\"rangeStart\":0,\"value\":64,\"valueType\":\"double\"},{\"name\":\"fgColor\",\"rangeEnd\":32,\"rangeStart\":0,\"value\":\"(255,255,255,255)\",\"valueType\":\"color\"},{\"name\":\"fontWeight\",\"rangeEnd\":32,\"rangeStart\":0,\"value\":400,\"valueType\":\"int\"},{\"name\":\"fontName\",\"rangeEnd\":32,\"rangeStart\":0,\"value\":\"Montserrat\",\"valueType\":\"string\"},{\"name\":\"fontItalic\",\"rangeEnd\":32,\"rangeStart\":0,\"value\":0,\"valueType\":\"int\"},{\"name\":\"strikethrough\",\"rangeEnd\":32,\"rangeStart\":0,\"value\":0,\"valueType\":\"int\"},{\"name\":\"underline\",\"rangeEnd\":32,\"rangeStart\":0,\"value\":0,\"valueType\":\"int\"}]",
                      "default-translation0" : 0.0,
                      "default-translation1" : 0.0
                    },
                    "animationTracks" : {

                    }
                  },
                  {
                    "id" : 231,
                    "_type" : "Callout",
                    "def" : {
                      "kind" : "remix",
                      "shape" : "text-rectangle",
                      "style" : "basic",
                      "fill-color-blue" : 0.270588235294118,
                      "fill-color-green" : 0.243137254901961,
                      "fill-color-opacity" : 1.0,
                      "fill-color-red" : 0.211764705882353,
                      "height" : 106.249999999895,
                      "line-spacing" : 0.0,
                      "stroke-color-blue" : 0.890196078431372,
                      "stroke-color-green" : 0.870588235294118,
                      "stroke-color-opacity" : 1.0,
                      "stroke-color-red" : 0.847058823529412,
                      "stroke-width" : 2.0,
                      "tail-x" : -462.499999999966,
                      "tail-y" : 1.8750000000523,
                      "width" : 1759.3750000001,
                      "word-wrap" : 1.0,
                      "fill-style" : "solid",
                      "horizontal-alignment" : "center",
                      "resize-behavior" : "resizeText",
                      "stroke-style" : "solid",
                      "text" : "The secret formula has been saved.",
                      "vertical-alignment" : "center",
                      "font" : {
                        "color-blue" : 0.266666666666667,
                        "color-green" : 0.231372549019608,
                        "color-opacity" : 1.0,
                        "color-red" : 0.184313725490196,
                        "size" : 64.0,
                        "tracking" : 0.0,
                        "name" : "Montserrat",
                        "weight" : "Regular"
                      },
                      "textAttributes" : {
                        "type" : "textAttributeList",
                        "keyframes" : [
                          {
                            "endTime" : 0,
                            "time" : 0,
                            "value" : [{"name":"fontName","rangeEnd":34,"rangeStart":0,"value":"Montserrat","valueType":"string"},{"name":"fgColor","rangeEnd":34,"rangeStart":0,"value":"(255,255,255,255)","valueType":"color"},{"name":"fontItalic","rangeEnd":34,"rangeStart":0,"value":0,"valueType":"int"},{"name":"fontWeight","rangeEnd":34,"rangeStart":0,"value":400,"valueType":"int"},{"name":"fontSize","rangeEnd":34,"rangeStart":0,"value":80,"valueType":"double"},{"name":"underline","rangeEnd":34,"rangeStart":0,"value":0,"valueType":"int"},{"name":"strikethrough","rangeEnd":34,"rangeStart":0,"value":0,"valueType":"int"}],
                            "duration" : 0
                          }
                        ]
                      }
                    },
                    "attributes" : {
                      "autoRotateText" : true
                    },
                    "parameters" : {
                      "translation0" : -7.93676235844032e-12,
                      "translation1" : -627.388392857574
                    },
                    "effects" : [
                        {
                          "effectName" : "DropShadow",
                          "category" : "categoryVisualEffects",
                          "parameters" : {
                            "angle" : 5.49778714378214,
                            "blur" : 10.0,
                            "color-alpha" : 1.0,
                            "color-blue" : 0.1216,
                            "color-green" : 0.1216,
                            "color-red" : 0.1216,
                            "enabled" : 1,
                            "offset" : 10.0,
                            "opacity" : 0.4
                          }
                        }
                    ],
                    "start" : 946,
                    "duration" : 179,
                    "mediaStart" : 8,
                    "mediaDuration" : 179,
                    "scalar" : 1,
                    "metadata" : {
                      "WinSubProjectDisplayName" : "",
                      "clipSpeedAttribute" : false,
                      "default-HAlign" : "center",
                      "default-LineSpace" : 0.0,
                      "default-VAlign" : "center",
                      "default-fill-color-blue" : 1.0,
                      "default-fill-color-green" : 1.0,
                      "default-fill-color-red" : 1.0,
                      "default-scale0" : 1.0,
                      "default-scale1" : 1.0,
                      "default-stroke-color-blue" : 0.56078431372549,
                      "default-stroke-color-green" : 0.686274509803922,
                      "default-stroke-color-red" : 0.0196078431372549,
                      "default-text-attributes" : "[{\"name\":\"fontSize\",\"rangeEnd\":32,\"rangeStart\":0,\"value\":64,\"valueType\":\"double\"},{\"name\":\"fgColor\",\"rangeEnd\":32,\"rangeStart\":0,\"value\":\"(255,255,255,255)\",\"valueType\":\"color\"},{\"name\":\"fontWeight\",\"rangeEnd\":32,\"rangeStart\":0,\"value\":400,\"valueType\":\"int\"},{\"name\":\"fontName\",\"rangeEnd\":32,\"rangeStart\":0,\"value\":\"Montserrat\",\"valueType\":\"string\"},{\"name\":\"fontItalic\",\"rangeEnd\":32,\"rangeStart\":0,\"value\":0,\"valueType\":\"int\"},{\"name\":\"strikethrough\",\"rangeEnd\":32,\"rangeStart\":0,\"value\":0,\"valueType\":\"int\"},{\"name\":\"underline\",\"rangeEnd\":32,\"rangeStart\":0,\"value\":0,\"valueType\":\"int\"}]",
                      "default-translation0" : 0.0,
                      "default-translation1" : 0.0
                    },
                    "animationTracks" : {

                    }
                  },
                  {
                    "id" : 232,
                    "_type" : "Callout",
                    "def" : {
                      "kind" : "remix",
                      "shape" : "text-rectangle",
                      "style" : "basic",
                      "fill-color-blue" : 0.270588235294118,
                      "fill-color-green" : 0.243137254901961,
                      "fill-color-opacity" : 1.0,
                      "fill-color-red" : 0.211764705882353,
                      "height" : 106.249999999895,
                      "line-spacing" : 0.0,
                      "stroke-color-blue" : 0.890196078431372,
                      "stroke-color-green" : 0.870588235294118,
                      "stroke-color-opacity" : 1.0,
                      "stroke-color-red" : 0.847058823529412,
                      "stroke-width" : 2.0,
                      "tail-x" : -462.499999999966,
                      "tail-y" : 1.8750000000523,
                      "width" : 1759.3750000001,
                      "word-wrap" : 1.0,
                      "fill-style" : "solid",
                      "horizontal-alignment" : "center",
                      "resize-behavior" : "resizeText",
                      "stroke-style" : "solid",
                      "text" : "The researcher is having tea.",
                      "vertical-alignment" : "center",
                      "font" : {
                        "color-blue" : 0.266666666666667,
                        "color-green" : 0.231372549019608,
                        "color-opacity" : 1.0,
                        "color-red" : 0.184313725490196,
                        "size" : 64.0,
                        "tracking" : 0.0,
                        "name" : "Montserrat",
                        "weight" : "Regular"
                      },
                      "textAttributes" : {
                        "type" : "textAttributeList",
                        "keyframes" : [
                          {
                            "endTime" : 0,
                            "time" : 0,
                            "value" : [{"name":"underline","rangeEnd":29,"rangeStart":0,"value":0,"valueType":"int"},{"name":"fontWeight","rangeEnd":29,"rangeStart":0,"value":400,"valueType":"int"},{"name":"fgColor","rangeEnd":29,"rangeStart":0,"value":"(255,255,255,255)","valueType":"color"},{"name":"fontName","rangeEnd":29,"rangeStart":0,"value":"Montserrat","valueType":"string"},{"name":"strikethrough","rangeEnd":29,"rangeStart":0,"value":0,"valueType":"int"},{"name":"fontSize","rangeEnd":29,"rangeStart":0,"value":80,"valueType":"double"},{"name":"fontItalic","rangeEnd":29,"rangeStart":0,"value":0,"valueType":"int"}],
                            "duration" : 0
                          }
                        ]
                      }
                    },
                    "attributes" : {
                      "autoRotateText" : true
                    },
                    "parameters" : {
                      "translation0" : -9.11626329980209e-11,
                      "translation1" : -621.674107143272
                    },
                    "effects" : [
                        {
                          "effectName" : "DropShadow",
                          "category" : "categoryVisualEffects",
                          "parameters" : {
                            "angle" : 5.49778714378214,
                            "blur" : 10.0,
                            "color-alpha" : 1.0,
                            "color-blue" : 0.1216,
                            "color-green" : 0.1216,
                            "color-red" : 0.1216,
                            "enabled" : 1,
                            "offset" : 10.0,
                            "opacity" : 0.4
                          }
                        }
                    ],
                    "start" : 1191,
                    "duration" : 77,
                    "mediaStart" : 39,
                    "mediaDuration" : 77,
                    "scalar" : 1,
                    "metadata" : {
                      "WinSubProjectDisplayName" : "",
                      "clipSpeedAttribute" : false,
                      "default-HAlign" : "center",
                      "default-LineSpace" : 0.0,
                      "default-VAlign" : "center",
                      "default-fill-color-blue" : 1.0,
                      "default-fill-color-green" : 1.0,
                      "default-fill-color-red" : 1.0,
                      "default-stroke-color-blue" : 0.56078431372549,
                      "default-stroke-color-green" : 0.686274509803922,
                      "default-stroke-color-red" : 0.0196078431372549,
                      "default-text-attributes" : "[{\"name\":\"fontSize\",\"rangeEnd\":32,\"rangeStart\":0,\"value\":64,\"valueType\":\"double\"},{\"name\":\"fgColor\",\"rangeEnd\":32,\"rangeStart\":0,\"value\":\"(255,255,255,255)\",\"valueType\":\"color\"},{\"name\":\"fontWeight\",\"rangeEnd\":32,\"rangeStart\":0,\"value\":400,\"valueType\":\"int\"},{\"name\":\"fontName\",\"rangeEnd\":32,\"rangeStart\":0,\"value\":\"Montserrat\",\"valueType\":\"string\"},{\"name\":\"fontItalic\",\"rangeEnd\":32,\"rangeStart\":0,\"value\":0,\"valueType\":\"int\"},{\"name\":\"strikethrough\",\"rangeEnd\":32,\"rangeStart\":0,\"value\":0,\"valueType\":\"int\"},{\"name\":\"underline\",\"rangeEnd\":32,\"rangeStart\":0,\"value\":0,\"valueType\":\"int\"}]",
                      "default-translation0" : 0.0,
                      "default-translation1" : 0.0
                    },
                    "animationTracks" : {

                    }
                  },
                  {
                    "id" : 233,
                    "_type" : "Callout",
                    "def" : {
                      "kind" : "remix",
                      "shape" : "text-rectangle",
                      "style" : "basic",
                      "fill-color-blue" : 0.270588235294118,
                      "fill-color-green" : 0.243137254901961,
                      "fill-color-opacity" : 1.0,
                      "fill-color-red" : 0.211764705882353,
                      "height" : 136.857142856973,
                      "line-spacing" : 0.0,
                      "stroke-color-blue" : 0.890196078431372,
                      "stroke-color-green" : 0.870588235294118,
                      "stroke-color-opacity" : 1.0,
                      "stroke-color-red" : 0.847058823529412,
                      "stroke-width" : 2.0,
                      "tail-x" : -901.071428571436,
                      "tail-y" : 30.4464285715659,
                      "width" : 2335.2689075663,
                      "word-wrap" : 1.0,
                      "fill-style" : "solid",
                      "horizontal-alignment" : "center",
                      "resize-behavior" : "resizeText",
                      "stroke-style" : "solid",
                      "text" : "The attacker is launching the app, which loads its driver",
                      "vertical-alignment" : "center",
                      "font" : {
                        "color-blue" : 0.266666666666667,
                        "color-green" : 0.231372549019608,
                        "color-opacity" : 1.0,
                        "color-red" : 0.184313725490196,
                        "size" : 64.0,
                        "tracking" : 0.0,
                        "name" : "Montserrat",
                        "weight" : "Regular"
                      },
                      "textAttributes" : {
                        "type" : "textAttributeList",
                        "keyframes" : [
                          {
                            "endTime" : 0,
                            "time" : 0,
                            "value" : [{"name":"fontSize","rangeEnd":57,"rangeStart":0,"value":80,"valueType":"double"},{"name":"kerning","rangeEnd":57,"rangeStart":0,"value":0,"valueType":"double"},{"name":"fontItalic","rangeEnd":57,"rangeStart":0,"value":0,"valueType":"int"},{"name":"fontWeight","rangeEnd":57,"rangeStart":0,"value":400,"valueType":"int"},{"name":"strikethrough","rangeEnd":57,"rangeStart":0,"value":0,"valueType":"int"},{"name":"underline","rangeEnd":57,"rangeStart":0,"value":0,"valueType":"int"},{"name":"fgColor","rangeEnd":57,"rangeStart":0,"value":"(255,255,255,255)","valueType":"color"},{"name":"fontName","rangeEnd":57,"rangeStart":0,"value":"Montserrat","valueType":"string"}],
                            "duration" : 0
                          }
                        ]
                      }
                    },
                    "attributes" : {
                      "autoRotateText" : true
                    },
                    "parameters" : {
                      "translation0" : -7.65112417866476e-11,
                      "translation1" : -614.428571428914
                    },
                    "effects" : [
                        {
                          "effectName" : "DropShadow",
                          "category" : "categoryVisualEffects",
                          "parameters" : {
                            "angle" : 5.49778714378214,
                            "blur" : 10.0,
                            "color-alpha" : 1.0,
                            "color-blue" : 0.1216,
                            "color-green" : 0.1216,
                            "color-red" : 0.1216,
                            "enabled" : 1,
                            "offset" : 10.0,
                            "opacity" : 0.4
                          }
                        }
                    ],
                    "start" : 1274,
                    "duration" : 97,
                    "mediaStart" : -41,
                    "mediaDuration" : 97,
                    "scalar" : 1,
                    "metadata" : {
                      "WinSubProjectDisplayName" : "",
                      "clipSpeedAttribute" : false,
                      "default-HAlign" : "center",
                      "default-LineSpace" : 0.0,
                      "default-VAlign" : "center",
                      "default-fill-color-blue" : 1.0,
                      "default-fill-color-green" : 1.0,
                      "default-fill-color-red" : 1.0,
                      "default-stroke-color-blue" : 0.56078431372549,
                      "default-stroke-color-green" : 0.686274509803922,
                      "default-stroke-color-red" : 0.0196078431372549,
                      "default-text-attributes" : "[{\"name\":\"fontSize\",\"rangeEnd\":32,\"rangeStart\":0,\"value\":64,\"valueType\":\"double\"},{\"name\":\"fgColor\",\"rangeEnd\":32,\"rangeStart\":0,\"value\":\"(255,255,255,255)\",\"valueType\":\"color\"},{\"name\":\"fontWeight\",\"rangeEnd\":32,\"rangeStart\":0,\"value\":400,\"valueType\":\"int\"},{\"name\":\"fontName\",\"rangeEnd\":32,\"rangeStart\":0,\"value\":\"Montserrat\",\"valueType\":\"string\"},{\"name\":\"fontItalic\",\"rangeEnd\":32,\"rangeStart\":0,\"value\":0,\"valueType\":\"int\"},{\"name\":\"strikethrough\",\"rangeEnd\":32,\"rangeStart\":0,\"value\":0,\"valueType\":\"int\"},{\"name\":\"underline\",\"rangeEnd\":32,\"rangeStart\":0,\"value\":0,\"valueType\":\"int\"}]",
                      "default-translation0" : 0.0,
                      "default-translation1" : 0.0
                    },
                    "animationTracks" : {

                    }
                  },
                  {
                    "id" : 234,
                    "_type" : "Callout",
                    "def" : {
                      "kind" : "remix",
                      "shape" : "text-rectangle",
                      "style" : "basic",
                      "fill-color-blue" : 0.270588235294118,
                      "fill-color-green" : 0.243137254901961,
                      "fill-color-opacity" : 1.0,
                      "fill-color-red" : 0.211764705882353,
                      "height" : 145.428571428374,
                      "line-spacing" : 0.0,
                      "stroke-color-blue" : 0.890196078431372,
                      "stroke-color-green" : 0.870588235294118,
                      "stroke-color-opacity" : 1.0,
                      "stroke-color-red" : 0.847058823529412,
                      "stroke-width" : 2.0,
                      "tail-x" : -892.499999999965,
                      "tail-y" : 26.1607142858651,
                      "width" : 2483.84033613794,
                      "word-wrap" : 1.0,
                      "fill-style" : "solid",
                      "horizontal-alignment" : "center",
                      "resize-behavior" : "resizeText",
                      "stroke-style" : "solid",
                      "text" : "The attacker is trying to open the secret file using ZwCreateFile",
                      "vertical-alignment" : "center",
                      "font" : {
                        "color-blue" : 0.266666666666667,
                        "color-green" : 0.231372549019608,
                        "color-opacity" : 1.0,
                        "color-red" : 0.184313725490196,
                        "size" : 64.0,
                        "tracking" : 0.0,
                        "name" : "Montserrat",
                        "weight" : "Regular"
                      },
                      "textAttributes" : {
                        "type" : "textAttributeList",
                        "keyframes" : [
                          {
                            "endTime" : 0,
                            "time" : 0,
                            "value" : [{"name":"underline","rangeEnd":65,"rangeStart":0,"value":0,"valueType":"int"},{"name":"fontItalic","rangeEnd":65,"rangeStart":0,"value":0,"valueType":"int"},{"name":"fontName","rangeEnd":65,"rangeStart":0,"value":"Montserrat","valueType":"string"},{"name":"fontSize","rangeEnd":65,"rangeStart":0,"value":76,"valueType":"double"},{"name":"strikethrough","rangeEnd":65,"rangeStart":0,"value":0,"valueType":"int"},{"name":"fontWeight","rangeEnd":65,"rangeStart":0,"value":400,"valueType":"int"},{"name":"fgColor","rangeEnd":65,"rangeStart":0,"value":"(255,255,255,255)","valueType":"color"}],
                            "duration" : 0
                          }
                        ]
                      }
                    },
                    "attributes" : {
                      "autoRotateText" : true
                    },
                    "parameters" : {
                      "translation0" : -2.06821226811371e-11,
                      "translation1" : -615.857141767424
                    },
                    "effects" : [
                        {
                          "effectName" : "DropShadow",
                          "category" : "categoryVisualEffects",
                          "parameters" : {
                            "angle" : 5.49778714378214,
                            "blur" : 10.0,
                            "color-alpha" : 1.0,
                            "color-blue" : 0.1216,
                            "color-green" : 0.1216,
                            "color-red" : 0.1216,
                            "enabled" : 1,
                            "offset" : 10.0,
                            "opacity" : 0.4
                          }
                        }
                    ],
                    "start" : 1481,
                    "duration" : 92,
                    "mediaStart" : -15,
                    "mediaDuration" : 92,
                    "scalar" : 1,
                    "metadata" : {
                      "WinSubProjectDisplayName" : "",
                      "clipSpeedAttribute" : false,
                      "default-HAlign" : "center",
                      "default-LineSpace" : 0.0,
                      "default-VAlign" : "center",
                      "default-fill-color-blue" : 1.0,
                      "default-fill-color-green" : 1.0,
                      "default-fill-color-red" : 1.0,
                      "default-stroke-color-blue" : 0.56078431372549,
                      "default-stroke-color-green" : 0.686274509803922,
                      "default-stroke-color-red" : 0.0196078431372549,
                      "default-text-attributes" : "[{\"name\":\"fontSize\",\"rangeEnd\":32,\"rangeStart\":0,\"value\":64,\"valueType\":\"double\"},{\"name\":\"fgColor\",\"rangeEnd\":32,\"rangeStart\":0,\"value\":\"(255,255,255,255)\",\"valueType\":\"color\"},{\"name\":\"fontWeight\",\"rangeEnd\":32,\"rangeStart\":0,\"value\":400,\"valueType\":\"int\"},{\"name\":\"fontName\",\"rangeEnd\":32,\"rangeStart\":0,\"value\":\"Montserrat\",\"valueType\":\"string\"},{\"name\":\"fontItalic\",\"rangeEnd\":32,\"rangeStart\":0,\"value\":0,\"valueType\":\"int\"},{\"name\":\"strikethrough\",\"rangeEnd\":32,\"rangeStart\":0,\"value\":0,\"valueType\":\"int\"},{\"name\":\"underline\",\"rangeEnd\":32,\"rangeStart\":0,\"value\":0,\"valueType\":\"int\"}]",
                      "default-translation0" : 0.0,
                      "default-translation1" : 0.0
                    },
                    "animationTracks" : {

                    }
                  },
                  {
                    "id" : 235,
                    "_type" : "Callout",
                    "def" : {
                      "kind" : "remix",
                      "shape" : "text-rectangle",
                      "style" : "basic",
                      "fill-color-blue" : 0.2,
                      "fill-color-green" : 0.4,
                      "fill-color-opacity" : 1.0,
                      "fill-color-red" : 0.0,
                      "height" : 204.571428571274,
                      "line-spacing" : 0.0,
                      "stroke-color-blue" : 0.890196078431372,
                      "stroke-color-green" : 0.870588235294118,
                      "stroke-color-opacity" : 1.0,
                      "stroke-color-red" : 0.847058823529412,
                      "stroke-width" : 2.0,
                      "tail-x" : -23.9285714285793,
                      "tail-y" : 8.42261904773302,
                      "width" : 2073.26220614985,
                      "word-wrap" : 1.0,
                      "fill-style" : "solid",
                      "horizontal-alignment" : "center",
                      "resize-behavior" : "resizeText",
                      "stroke-style" : "solid",
                      "text" : "The attacker fails to open the secret file and \rgets 0xC0000043 or STATUS_SHARING_VIOLATION",
                      "vertical-alignment" : "center",
                      "font" : {
                        "color-blue" : 0.266666666666667,
                        "color-green" : 0.231372549019608,
                        "color-opacity" : 1.0,
                        "color-red" : 0.184313725490196,
                        "size" : 64.0,
                        "tracking" : 0.0,
                        "name" : "Montserrat",
                        "weight" : "Regular"
                      },
                      "textAttributes" : {
                        "type" : "textAttributeList",
                        "keyframes" : [
                          {
                            "endTime" : 0,
                            "time" : 0,
                            "value" : [{"name":"fontWeight","rangeEnd":91,"rangeStart":0,"value":400,"valueType":"int"},{"name":"fgColor","rangeEnd":91,"rangeStart":0,"value":"(255,255,255,255)","valueType":"color"},{"name":"fontItalic","rangeEnd":91,"rangeStart":0,"value":0,"valueType":"int"},{"name":"fontName","rangeEnd":91,"rangeStart":0,"value":"Montserrat","valueType":"string"},{"name":"underline","rangeEnd":91,"rangeStart":0,"value":0,"valueType":"int"},{"name":"strikethrough","rangeEnd":91,"rangeStart":0,"value":0,"valueType":"int"},{"name":"fontSize","rangeEnd":91,"rangeStart":0,"value":75,"valueType":"double"}],
                            "duration" : 0
                          }
                        ]
                      }
                    },
                    "attributes" : {
                      "autoRotateText" : true
                    },
                    "parameters" : {
                      "translation0" : -62.0312499999958,
                      "translation1" : -582.5074404765
                    },
                    "effects" : [
                        {
                          "effectName" : "DropShadow",
                          "category" : "categoryVisualEffects",
                          "parameters" : {
                            "angle" : 5.49778714378214,
                            "blur" : 10.0,
                            "color-alpha" : 1.0,
                            "color-blue" : 0.1216,
                            "color-green" : 0.1216,
                            "color-red" : 0.1216,
                            "enabled" : 1,
                            "offset" : 10.0,
                            "opacity" : 0.4
                          }
                        }
                    ],
                    "start" : 1592,
                    "duration" : 149,
                    "mediaStart" : -14,
                    "mediaDuration" : 149,
                    "scalar" : 1,
                    "metadata" : {
                      "WinSubProjectDisplayName" : "",
                      "clipSpeedAttribute" : false,
                      "default-HAlign" : "center",
                      "default-LineSpace" : 0.0,
                      "default-VAlign" : "center",
                      "default-fill-color-blue" : 1.0,
                      "default-fill-color-green" : 1.0,
                      "default-fill-color-red" : 1.0,
                      "default-scale0" : 1.0,
                      "default-scale1" : 1.0,
                      "default-stroke-color-blue" : 0.56078431372549,
                      "default-stroke-color-green" : 0.686274509803922,
                      "default-stroke-color-red" : 0.0196078431372549,
                      "default-text-attributes" : "[{\"name\":\"fontSize\",\"rangeEnd\":32,\"rangeStart\":0,\"value\":64,\"valueType\":\"double\"},{\"name\":\"fgColor\",\"rangeEnd\":32,\"rangeStart\":0,\"value\":\"(255,255,255,255)\",\"valueType\":\"color\"},{\"name\":\"fontWeight\",\"rangeEnd\":32,\"rangeStart\":0,\"value\":400,\"valueType\":\"int\"},{\"name\":\"fontName\",\"rangeEnd\":32,\"rangeStart\":0,\"value\":\"Montserrat\",\"valueType\":\"string\"},{\"name\":\"fontItalic\",\"rangeEnd\":32,\"rangeStart\":0,\"value\":0,\"valueType\":\"int\"},{\"name\":\"strikethrough\",\"rangeEnd\":32,\"rangeStart\":0,\"value\":0,\"valueType\":\"int\"},{\"name\":\"underline\",\"rangeEnd\":32,\"rangeStart\":0,\"value\":0,\"valueType\":\"int\"}]",
                      "default-translation0" : 0.0,
                      "default-translation1" : 0.0
                    },
                    "animationTracks" : {

                    }
                  },
                  {
                    "id" : 236,
                    "_type" : "Callout",
                    "def" : {
                      "kind" : "remix",
                      "shape" : "text-rectangle",
                      "style" : "basic",
                      "fill-color-blue" : 0.270588235294118,
                      "fill-color-green" : 0.243137254901961,
                      "fill-color-opacity" : 1.0,
                      "fill-color-red" : 0.211764705882353,
                      "height" : 113.999999999909,
                      "line-spacing" : 0.0,
                      "stroke-color-blue" : 0.890196078431372,
                      "stroke-color-green" : 0.870588235294118,
                      "stroke-color-opacity" : 1.0,
                      "stroke-color-red" : 0.847058823529412,
                      "stroke-width" : 2.0,
                      "tail-x" : 100.855663516278,
                      "tail-y" : 41.8750000000979,
                      "width" : 2202.20239846126,
                      "word-wrap" : 1.0,
                      "fill-style" : "solid",
                      "horizontal-alignment" : "center",
                      "resize-behavior" : "resizeText",
                      "stroke-style" : "solid",
                      "text" : "The attacker is trying Hijacking NTFS data structures",
                      "vertical-alignment" : "center",
                      "font" : {
                        "color-blue" : 0.266666666666667,
                        "color-green" : 0.231372549019608,
                        "color-opacity" : 1.0,
                        "color-red" : 0.184313725490196,
                        "size" : 64.0,
                        "tracking" : 0.0,
                        "name" : "Montserrat",
                        "weight" : "Regular"
                      },
                      "textAttributes" : {
                        "type" : "textAttributeList",
                        "keyframes" : [
                          {
                            "endTime" : 0,
                            "time" : 0,
                            "value" : [{"name":"fgColor","rangeEnd":53,"rangeStart":0,"value":"(255,255,255,255)","valueType":"color"},{"name":"fontItalic","rangeEnd":53,"rangeStart":0,"value":0,"valueType":"int"},{"name":"kerning","rangeEnd":53,"rangeStart":0,"value":0,"valueType":"double"},{"name":"underline","rangeEnd":53,"rangeStart":0,"value":0,"valueType":"int"},{"name":"strikethrough","rangeEnd":53,"rangeStart":0,"value":0,"valueType":"int"},{"name":"fontName","rangeEnd":53,"rangeStart":0,"value":"Montserrat","valueType":"string"},{"name":"fontWeight","rangeEnd":53,"rangeStart":0,"value":400,"valueType":"int"},{"name":"fontSize","rangeEnd":53,"rangeStart":0,"value":80,"valueType":"double"}],
                            "duration" : 0
                          }
                        ]
                      }
                    },
                    "attributes" : {
                      "autoRotateText" : true
                    },
                    "parameters" : {
                      "translation0" : -7.62128138376283e-11,
                      "translation1" : -613.102678571784
                    },
                    "effects" : [
                        {
                          "effectName" : "DropShadow",
                          "category" : "categoryVisualEffects",
                          "parameters" : {
                            "angle" : 5.49778714378214,
                            "blur" : 10.0,
                            "color-alpha" : 1.0,
                            "color-blue" : 0.1216,
                            "color-green" : 0.1216,
                            "color-red" : 0.1216,
                            "enabled" : 1,
                            "offset" : 10.0,
                            "opacity" : 0.4
                          }
                        }
                    ],
                    "start" : 1843,
                    "duration" : 93,
                    "mediaStart" : -86,
                    "mediaDuration" : 93,
                    "scalar" : 1,
                    "metadata" : {
                      "WinSubProjectDisplayName" : "",
                      "clipSpeedAttribute" : false,
                      "default-HAlign" : "center",
                      "default-LineSpace" : 0.0,
                      "default-VAlign" : "center",
                      "default-fill-color-blue" : 1.0,
                      "default-fill-color-green" : 1.0,
                      "default-fill-color-red" : 1.0,
                      "default-scale0" : 1.0,
                      "default-scale1" : 1.0,
                      "default-stroke-color-blue" : 0.56078431372549,
                      "default-stroke-color-green" : 0.686274509803922,
                      "default-stroke-color-red" : 0.0196078431372549,
                      "default-text-attributes" : "[{\"name\":\"fontSize\",\"rangeEnd\":32,\"rangeStart\":0,\"value\":64,\"valueType\":\"double\"},{\"name\":\"fgColor\",\"rangeEnd\":32,\"rangeStart\":0,\"value\":\"(255,255,255,255)\",\"valueType\":\"color\"},{\"name\":\"fontWeight\",\"rangeEnd\":32,\"rangeStart\":0,\"value\":400,\"valueType\":\"int\"},{\"name\":\"fontName\",\"rangeEnd\":32,\"rangeStart\":0,\"value\":\"Montserrat\",\"valueType\":\"string\"},{\"name\":\"fontItalic\",\"rangeEnd\":32,\"rangeStart\":0,\"value\":0,\"valueType\":\"int\"},{\"name\":\"strikethrough\",\"rangeEnd\":32,\"rangeStart\":0,\"value\":0,\"valueType\":\"int\"},{\"name\":\"underline\",\"rangeEnd\":32,\"rangeStart\":0,\"value\":0,\"valueType\":\"int\"}]",
                      "default-translation0" : 0.0,
                      "default-translation1" : 0.0
                    },
                    "animationTracks" : {

                    }
                  },
                  {
                    "id" : 237,
                    "_type" : "Callout",
                    "def" : {
                      "kind" : "remix",
                      "shape" : "text-rectangle",
                      "style" : "basic",
                      "fill-color-blue" : 0.270588235294118,
                      "fill-color-green" : 0.243137254901961,
                      "fill-color-opacity" : 1.0,
                      "fill-color-red" : 0.211764705882353,
                      "height" : 131.14285714279,
                      "line-spacing" : 0.0,
                      "stroke-color-blue" : 0.890196078431372,
                      "stroke-color-green" : 0.870588235294118,
                      "stroke-color-opacity" : 1.0,
                      "stroke-color-red" : 0.847058823529412,
                      "stroke-width" : 2.0,
                      "tail-x" : -939.542146106441,
                      "tail-y" : 33.3035714286571,
                      "width" : 2429.35319977919,
                      "word-wrap" : 1.0,
                      "fill-style" : "solid",
                      "horizontal-alignment" : "center",
                      "resize-behavior" : "resizeText",
                      "stroke-style" : "solid",
                      "text" : "The attacker is copying the pointer to the FILE_OBJECT",
                      "vertical-alignment" : "center",
                      "font" : {
                        "color-blue" : 0.266666666666667,
                        "color-green" : 0.231372549019608,
                        "color-opacity" : 1.0,
                        "color-red" : 0.184313725490196,
                        "size" : 64.0,
                        "tracking" : 0.0,
                        "name" : "Montserrat",
                        "weight" : "Regular"
                      },
                      "textAttributes" : {
                        "type" : "textAttributeList",
                        "keyframes" : [
                          {
                            "endTime" : 0,
                            "time" : 0,
                            "value" : [{"name":"fgColor","rangeEnd":54,"rangeStart":0,"value":"(255,255,255,255)","valueType":"color"},{"name":"fontSize","rangeEnd":54,"rangeStart":0,"value":80,"valueType":"double"},{"name":"fontWeight","rangeEnd":54,"rangeStart":0,"value":400,"valueType":"int"},{"name":"fontName","rangeEnd":54,"rangeStart":0,"value":"Montserrat","valueType":"string"},{"name":"fontItalic","rangeEnd":54,"rangeStart":0,"value":0,"valueType":"int"},{"name":"strikethrough","rangeEnd":54,"rangeStart":0,"value":0,"valueType":"int"},{"name":"kerning","rangeEnd":54,"rangeStart":0,"value":0,"valueType":"double"},{"name":"underline","rangeEnd":54,"rangeStart":0,"value":0,"valueType":"int"}],
                            "duration" : 0
                          }
                        ]
                      }
                    },
                    "attributes" : {
                      "autoRotateText" : true
                    },
                    "parameters" : {
                      "translation0" : -14.3864253221465,
                      "translation1" : -621.674107143232
                    },
                    "effects" : [
                        {
                          "effectName" : "DropShadow",
                          "category" : "categoryVisualEffects",
                          "parameters" : {
                            "angle" : 5.49778714378214,
                            "blur" : 10.0,
                            "color-alpha" : 1.0,
                            "color-blue" : 0.1216,
                            "color-green" : 0.1216,
                            "color-red" : 0.1216,
                            "enabled" : 1,
                            "offset" : 10.0,
                            "opacity" : 0.4
                          }
                        }
                    ],
                    "start" : 1960,
                    "duration" : 126,
                    "mediaStart" : -86,
                    "mediaDuration" : 126,
                    "scalar" : 1,
                    "metadata" : {
                      "WinSubProjectDisplayName" : "",
                      "clipSpeedAttribute" : false,
                      "default-HAlign" : "center",
                      "default-LineSpace" : 0.0,
                      "default-VAlign" : "center",
                      "default-fill-color-blue" : 1.0,
                      "default-fill-color-green" : 1.0,
                      "default-fill-color-red" : 1.0,
                      "default-scale0" : 1.0,
                      "default-scale1" : 1.0,
                      "default-stroke-color-blue" : 0.56078431372549,
                      "default-stroke-color-green" : 0.686274509803922,
                      "default-stroke-color-red" : 0.0196078431372549,
                      "default-text-attributes" : "[{\"name\":\"fontSize\",\"rangeEnd\":32,\"rangeStart\":0,\"value\":64,\"valueType\":\"double\"},{\"name\":\"fgColor\",\"rangeEnd\":32,\"rangeStart\":0,\"value\":\"(255,255,255,255)\",\"valueType\":\"color\"},{\"name\":\"fontWeight\",\"rangeEnd\":32,\"rangeStart\":0,\"value\":400,\"valueType\":\"int\"},{\"name\":\"fontName\",\"rangeEnd\":32,\"rangeStart\":0,\"value\":\"Montserrat\",\"valueType\":\"string\"},{\"name\":\"fontItalic\",\"rangeEnd\":32,\"rangeStart\":0,\"value\":0,\"valueType\":\"int\"},{\"name\":\"strikethrough\",\"rangeEnd\":32,\"rangeStart\":0,\"value\":0,\"valueType\":\"int\"},{\"name\":\"underline\",\"rangeEnd\":32,\"rangeStart\":0,\"value\":0,\"valueType\":\"int\"}]",
                      "default-translation0" : 0.0,
                      "default-translation1" : 0.0
                    },
                    "animationTracks" : {

                    }
                  },
                  {
                    "id" : 238,
                    "_type" : "Callout",
                    "def" : {
                      "kind" : "remix",
                      "shape" : "text-rectangle",
                      "style" : "basic",
                      "fill-color-blue" : 0.270588235294118,
                      "fill-color-green" : 0.243137254901961,
                      "fill-color-opacity" : 1.0,
                      "fill-color-red" : 0.211764705882353,
                      "height" : 133.999999999889,
                      "line-spacing" : 0.0,
                      "stroke-color-blue" : 0.890196078431372,
                      "stroke-color-green" : 0.870588235294118,
                      "stroke-color-opacity" : 1.0,
                      "stroke-color-red" : 0.847058823529412,
                      "stroke-width" : 2.0,
                      "tail-x" : -939.642857142901,
                      "tail-y" : 31.8750000001077,
                      "width" : 2258.12605042337,
                      "word-wrap" : 1.0,
                      "fill-style" : "solid",
                      "horizontal-alignment" : "center",
                      "resize-behavior" : "resizeText",
                      "stroke-style" : "solid",
                      "text" : "The attacker is trying to access the secret file",
                      "vertical-alignment" : "center",
                      "font" : {
                        "color-blue" : 0.266666666666667,
                        "color-green" : 0.231372549019608,
                        "color-opacity" : 1.0,
                        "color-red" : 0.184313725490196,
                        "size" : 64.0,
                        "tracking" : 0.0,
                        "name" : "Montserrat",
                        "weight" : "Regular"
                      },
                      "textAttributes" : {
                        "type" : "textAttributeList",
                        "keyframes" : [
                          {
                            "endTime" : 0,
                            "time" : 0,
                            "value" : [{"name":"strikethrough","rangeEnd":48,"rangeStart":0,"value":0,"valueType":"int"},{"name":"fontWeight","rangeEnd":48,"rangeStart":0,"value":400,"valueType":"int"},{"name":"fontName","rangeEnd":48,"rangeStart":0,"value":"Montserrat","valueType":"string"},{"name":"fontSize","rangeEnd":48,"rangeStart":0,"value":80,"valueType":"double"},{"name":"underline","rangeEnd":48,"rangeStart":0,"value":0,"valueType":"int"},{"name":"fgColor","rangeEnd":48,"rangeStart":0,"value":"(255,255,255,255)","valueType":"color"},{"name":"fontItalic","rangeEnd":48,"rangeStart":0,"value":0,"valueType":"int"}],
                            "duration" : 0
                          }
                        ]
                      }
                    },
                    "attributes" : {
                      "autoRotateText" : true
                    },
                    "parameters" : {
                      "translation0" : -8.18545231595635e-12,
                      "translation1" : -620.245535714634
                    },
                    "effects" : [
                        {
                          "effectName" : "DropShadow",
                          "category" : "categoryVisualEffects",
                          "parameters" : {
                            "angle" : 5.49778714378214,
                            "blur" : 10.0,
                            "color-alpha" : 1.0,
                            "color-blue" : 0.1216,
                            "color-green" : 0.1216,
                            "color-red" : 0.1216,
                            "enabled" : 1,
                            "offset" : 10.0,
                            "opacity" : 0.4
                          }
                        }
                    ],
                    "start" : 2164,
                    "duration" : 86,
                    "mediaStart" : -86,
                    "mediaDuration" : 86,
                    "scalar" : 1,
                    "metadata" : {
                      "WinSubProjectDisplayName" : "",
                      "clipSpeedAttribute" : false,
                      "default-HAlign" : "center",
                      "default-LineSpace" : 0.0,
                      "default-VAlign" : "center",
                      "default-fill-color-blue" : 1.0,
                      "default-fill-color-green" : 1.0,
                      "default-fill-color-red" : 1.0,
                      "default-scale0" : 1.0,
                      "default-scale1" : 1.0,
                      "default-stroke-color-blue" : 0.56078431372549,
                      "default-stroke-color-green" : 0.686274509803922,
                      "default-stroke-color-red" : 0.0196078431372549,
                      "default-text-attributes" : "[{\"name\":\"fontSize\",\"rangeEnd\":32,\"rangeStart\":0,\"value\":64,\"valueType\":\"double\"},{\"name\":\"fgColor\",\"rangeEnd\":32,\"rangeStart\":0,\"value\":\"(255,255,255,255)\",\"valueType\":\"color\"},{\"name\":\"fontWeight\",\"rangeEnd\":32,\"rangeStart\":0,\"value\":400,\"valueType\":\"int\"},{\"name\":\"fontName\",\"rangeEnd\":32,\"rangeStart\":0,\"value\":\"Montserrat\",\"valueType\":\"string\"},{\"name\":\"fontItalic\",\"rangeEnd\":32,\"rangeStart\":0,\"value\":0,\"valueType\":\"int\"},{\"name\":\"strikethrough\",\"rangeEnd\":32,\"rangeStart\":0,\"value\":0,\"valueType\":\"int\"},{\"name\":\"underline\",\"rangeEnd\":32,\"rangeStart\":0,\"value\":0,\"valueType\":\"int\"}]",
                      "default-translation0" : 0.0,
                      "default-translation1" : 0.0
                    },
                    "animationTracks" : {

                    }
                  },
                  {
                    "id" : 239,
                    "_type" : "Callout",
                    "def" : {
                      "kind" : "remix",
                      "shape" : "text-rectangle",
                      "style" : "basic",
                      "fill-color-blue" : 0.0,
                      "fill-color-green" : 0.0,
                      "fill-color-opacity" : 1.0,
                      "fill-color-red" : 0.6,
                      "height" : 106.249999999895,
                      "line-spacing" : 0.0,
                      "stroke-color-blue" : 0.890196078431372,
                      "stroke-color-green" : 0.870588235294118,
                      "stroke-color-opacity" : 1.0,
                      "stroke-color-red" : 0.847058823529412,
                      "stroke-width" : 2.0,
                      "tail-x" : -462.499999999966,
                      "tail-y" : 1.8750000000523,
                      "width" : 1759.3750000001,
                      "word-wrap" : 1.0,
                      "fill-style" : "solid",
                      "horizontal-alignment" : "center",
                      "resize-behavior" : "resizeText",
                      "stroke-style" : "solid",
                      "text" : "The secret file has been hijacked!",
                      "vertical-alignment" : "center",
                      "font" : {
                        "color-blue" : 0.266666666666667,
                        "color-green" : 0.231372549019608,
                        "color-opacity" : 1.0,
                        "color-red" : 0.184313725490196,
                        "size" : 64.0,
                        "tracking" : 0.0,
                        "name" : "Montserrat",
                        "weight" : "Regular"
                      },
                      "textAttributes" : {
                        "type" : "textAttributeList",
                        "keyframes" : [
                          {
                            "endTime" : 0,
                            "time" : 0,
                            "value" : [{"name":"strikethrough","rangeEnd":34,"rangeStart":0,"value":0,"valueType":"int"},{"name":"fontSize","rangeEnd":34,"rangeStart":0,"value":80,"valueType":"double"},{"name":"fontName","rangeEnd":34,"rangeStart":0,"value":"Montserrat","valueType":"string"},{"name":"underline","rangeEnd":34,"rangeStart":0,"value":0,"valueType":"int"},{"name":"fontWeight","rangeEnd":34,"rangeStart":0,"value":400,"valueType":"int"},{"name":"fontItalic","rangeEnd":34,"rangeStart":0,"value":0,"valueType":"int"},{"name":"fgColor","rangeEnd":34,"rangeStart":0,"value":"(255,255,255,255)","valueType":"color"}],
                            "duration" : 0
                          }
                        ]
                      }
                    },
                    "attributes" : {
                      "autoRotateText" : true
                    },
                    "parameters" : {
                      "translation0" : -4.55457893622224e-11,
                      "translation1" : -618.816964285938
                    },
                    "effects" : [
                        {
                          "effectName" : "DropShadow",
                          "category" : "categoryVisualEffects",
                          "parameters" : {
                            "angle" : 5.49778714378214,
                            "blur" : 10.0,
                            "color-alpha" : 1.0,
                            "color-blue" : 0.1216,
                            "color-green" : 0.1216,
                            "color-red" : 0.1216,
                            "enabled" : 1,
                            "offset" : 10.0,
                            "opacity" : 0.4
                          }
                        }
                    ],
                    "start" : 2262,
                    "duration" : 174,
                    "mediaStart" : -85,
                    "mediaDuration" : 174,
                    "scalar" : 1,
                    "metadata" : {
                      "WinSubProjectDisplayName" : "",
                      "clipSpeedAttribute" : false,
                      "default-HAlign" : "center",
                      "default-LineSpace" : 0.0,
                      "default-VAlign" : "center",
                      "default-fill-color-blue" : 1.0,
                      "default-fill-color-green" : 1.0,
                      "default-fill-color-red" : 1.0,
                      "default-scale0" : 1.0,
                      "default-scale1" : 1.0,
                      "default-stroke-color-blue" : 0.56078431372549,
                      "default-stroke-color-green" : 0.686274509803922,
                      "default-stroke-color-red" : 0.0196078431372549,
                      "default-text-attributes" : "[{\"name\":\"fontSize\",\"rangeEnd\":32,\"rangeStart\":0,\"value\":64,\"valueType\":\"double\"},{\"name\":\"fgColor\",\"rangeEnd\":32,\"rangeStart\":0,\"value\":\"(255,255,255,255)\",\"valueType\":\"color\"},{\"name\":\"fontWeight\",\"rangeEnd\":32,\"rangeStart\":0,\"value\":400,\"valueType\":\"int\"},{\"name\":\"fontName\",\"rangeEnd\":32,\"rangeStart\":0,\"value\":\"Montserrat\",\"valueType\":\"string\"},{\"name\":\"fontItalic\",\"rangeEnd\":32,\"rangeStart\":0,\"value\":0,\"valueType\":\"int\"},{\"name\":\"strikethrough\",\"rangeEnd\":32,\"rangeStart\":0,\"value\":0,\"valueType\":\"int\"},{\"name\":\"underline\",\"rangeEnd\":32,\"rangeStart\":0,\"value\":0,\"valueType\":\"int\"}]",
                      "default-translation0" : 0.0,
                      "default-translation1" : 0.0
                    },
                    "animationTracks" : {

                    }
                  },
                  {
                    "id" : 240,
                    "_type" : "Callout",
                    "def" : {
                      "kind" : "remix",
                      "shape" : "text-rectangle",
                      "style" : "basic",
                      "fill-color-blue" : 0.270588235294118,
                      "fill-color-green" : 0.243137254901961,
                      "fill-color-opacity" : 1.0,
                      "fill-color-red" : 0.211764705882353,
                      "height" : 106.249999999895,
                      "line-spacing" : 0.0,
                      "stroke-color-blue" : 0.890196078431372,
                      "stroke-color-green" : 0.870588235294118,
                      "stroke-color-opacity" : 1.0,
                      "stroke-color-red" : 0.847058823529412,
                      "stroke-width" : 2.0,
                      "tail-x" : -398.214285714247,
                      "tail-y" : 1.8750000000523,
                      "width" : 1887.94642857154,
                      "word-wrap" : 1.0,
                      "fill-style" : "solid",
                      "horizontal-alignment" : "center",
                      "resize-behavior" : "resizeText",
                      "stroke-style" : "solid",
                      "text" : "The attacker is trying to read the secret file",
                      "vertical-alignment" : "center",
                      "font" : {
                        "color-blue" : 0.266666666666667,
                        "color-green" : 0.231372549019608,
                        "color-opacity" : 1.0,
                        "color-red" : 0.184313725490196,
                        "size" : 64.0,
                        "tracking" : 0.0,
                        "name" : "Montserrat",
                        "weight" : "Regular"
                      },
                      "textAttributes" : {
                        "type" : "textAttributeList",
                        "keyframes" : [
                          {
                            "endTime" : 0,
                            "time" : 0,
                            "value" : [{"name":"fontName","rangeEnd":46,"rangeStart":0,"value":"Montserrat","valueType":"string"},{"name":"fontSize","rangeEnd":46,"rangeStart":0,"value":80,"valueType":"double"},{"name":"underline","rangeEnd":46,"rangeStart":0,"value":0,"valueType":"int"},{"name":"fontWeight","rangeEnd":46,"rangeStart":0,"value":400,"valueType":"int"},{"name":"fontItalic","rangeEnd":46,"rangeStart":0,"value":0,"valueType":"int"},{"name":"strikethrough","rangeEnd":46,"rangeStart":0,"value":0,"valueType":"int"},{"name":"fgColor","rangeEnd":46,"rangeStart":0,"value":"(255,255,255,255)","valueType":"color"}],
                            "duration" : 0
                          }
                        ]
                      }
                    },
                    "attributes" : {
                      "autoRotateText" : true
                    },
                    "parameters" : {
                      "translation0" : -96.3169642857854,
                      "translation1" : -621.67410714309
                    },
                    "effects" : [
                        {
                          "effectName" : "DropShadow",
                          "category" : "categoryVisualEffects",
                          "parameters" : {
                            "angle" : 5.49778714378214,
                            "blur" : 10.0,
                            "color-alpha" : 1.0,
                            "color-blue" : 0.1216,
                            "color-green" : 0.1216,
                            "color-red" : 0.1216,
                            "enabled" : 1,
                            "offset" : 10.0,
                            "opacity" : 0.4
                          }
                        }
                    ],
                    "start" : 2436,
                    "duration" : 65,
                    "mediaStart" : -86,
                    "mediaDuration" : 65,
                    "scalar" : 1,
                    "metadata" : {
                      "WinSubProjectDisplayName" : "",
                      "clipSpeedAttribute" : false,
                      "default-HAlign" : "center",
                      "default-LineSpace" : 0.0,
                      "default-VAlign" : "center",
                      "default-fill-color-blue" : 1.0,
                      "default-fill-color-green" : 1.0,
                      "default-fill-color-red" : 1.0,
                      "default-scale0" : 1.0,
                      "default-scale1" : 1.0,
                      "default-stroke-color-blue" : 0.56078431372549,
                      "default-stroke-color-green" : 0.686274509803922,
                      "default-stroke-color-red" : 0.0196078431372549,
                      "default-text-attributes" : "[{\"name\":\"fontSize\",\"rangeEnd\":32,\"rangeStart\":0,\"value\":64,\"valueType\":\"double\"},{\"name\":\"fgColor\",\"rangeEnd\":32,\"rangeStart\":0,\"value\":\"(255,255,255,255)\",\"valueType\":\"color\"},{\"name\":\"fontWeight\",\"rangeEnd\":32,\"rangeStart\":0,\"value\":400,\"valueType\":\"int\"},{\"name\":\"fontName\",\"rangeEnd\":32,\"rangeStart\":0,\"value\":\"Montserrat\",\"valueType\":\"string\"},{\"name\":\"fontItalic\",\"rangeEnd\":32,\"rangeStart\":0,\"value\":0,\"valueType\":\"int\"},{\"name\":\"strikethrough\",\"rangeEnd\":32,\"rangeStart\":0,\"value\":0,\"valueType\":\"int\"},{\"name\":\"underline\",\"rangeEnd\":32,\"rangeStart\":0,\"value\":0,\"valueType\":\"int\"}]",
                      "default-translation0" : 0.0,
                      "default-translation1" : 0.0
                    },
                    "animationTracks" : {

                    }
                  },
                  {
                    "id" : 241,
                    "_type" : "Callout",
                    "def" : {
                      "kind" : "remix",
                      "shape" : "text-rectangle",
                      "style" : "basic",
                      "fill-color-blue" : 0.0,
                      "fill-color-green" : 0.0,
                      "fill-color-opacity" : 1.0,
                      "fill-color-red" : 0.6,
                      "height" : 106.249999999895,
                      "line-spacing" : 0.0,
                      "stroke-color-blue" : 0.890196078431372,
                      "stroke-color-green" : 0.870588235294118,
                      "stroke-color-opacity" : 1.0,
                      "stroke-color-red" : 0.847058823529412,
                      "stroke-width" : 2.0,
                      "tail-x" : -462.499999999966,
                      "tail-y" : 1.8750000000523,
                      "width" : 1759.3750000001,
                      "word-wrap" : 1.0,
                      "fill-style" : "solid",
                      "horizontal-alignment" : "center",
                      "resize-behavior" : "resizeText",
                      "stroke-style" : "solid",
                      "text" : "The attacker has read the secret formula!",
                      "vertical-alignment" : "center",
                      "font" : {
                        "color-blue" : 0.266666666666667,
                        "color-green" : 0.231372549019608,
                        "color-opacity" : 1.0,
                        "color-red" : 0.184313725490196,
                        "size" : 64.0,
                        "tracking" : 0.0,
                        "name" : "Montserrat",
                        "weight" : "Regular"
                      },
                      "textAttributes" : {
                        "type" : "textAttributeList",
                        "keyframes" : [
                          {
                            "endTime" : 0,
                            "time" : 0,
                            "value" : [{"name":"strikethrough","rangeEnd":41,"rangeStart":0,"value":0,"valueType":"int"},{"name":"fontWeight","rangeEnd":41,"rangeStart":0,"value":400,"valueType":"int"},{"name":"fgColor","rangeEnd":41,"rangeStart":0,"value":"(255,255,255,255)","valueType":"color"},{"name":"underline","rangeEnd":41,"rangeStart":0,"value":0,"valueType":"int"},{"name":"fontName","rangeEnd":41,"rangeStart":0,"value":"Montserrat","valueType":"string"},{"name":"fontSize","rangeEnd":41,"rangeStart":0,"value":80,"valueType":"double"},{"name":"fontItalic","rangeEnd":41,"rangeStart":0,"value":0,"valueType":"int"}],
                            "duration" : 0
                          }
                        ]
                      }
                    },
                    "attributes" : {
                      "autoRotateText" : true
                    },
                    "parameters" : {
                      "translation0" : -32.0312500000662,
                      "translation1" : -618.816964285938
                    },
                    "effects" : [
                        {
                          "effectName" : "DropShadow",
                          "category" : "categoryVisualEffects",
                          "parameters" : {
                            "angle" : 5.49778714378214,
                            "blur" : 10.0,
                            "color-alpha" : 1.0,
                            "color-blue" : 0.1216,
                            "color-green" : 0.1216,
                            "color-red" : 0.1216,
                            "enabled" : 1,
                            "offset" : 10.0,
                            "opacity" : 0.4
                          }
                        }
                    ],
                    "start" : 2509,
                    "duration" : 151,
                    "mediaStart" : -85,
                    "mediaDuration" : 151,
                    "scalar" : 1,
                    "metadata" : {
                      "WinSubProjectDisplayName" : "",
                      "clipSpeedAttribute" : false,
                      "default-HAlign" : "center",
                      "default-LineSpace" : 0.0,
                      "default-VAlign" : "center",
                      "default-fill-color-blue" : 1.0,
                      "default-fill-color-green" : 1.0,
                      "default-fill-color-red" : 1.0,
                      "default-scale0" : 1.0,
                      "default-scale1" : 1.0,
                      "default-stroke-color-blue" : 0.56078431372549,
                      "default-stroke-color-green" : 0.686274509803922,
                      "default-stroke-color-red" : 0.0196078431372549,
                      "default-text-attributes" : "[{\"name\":\"fontSize\",\"rangeEnd\":32,\"rangeStart\":0,\"value\":64,\"valueType\":\"double\"},{\"name\":\"fgColor\",\"rangeEnd\":32,\"rangeStart\":0,\"value\":\"(255,255,255,255)\",\"valueType\":\"color\"},{\"name\":\"fontWeight\",\"rangeEnd\":32,\"rangeStart\":0,\"value\":400,\"valueType\":\"int\"},{\"name\":\"fontName\",\"rangeEnd\":32,\"rangeStart\":0,\"value\":\"Montserrat\",\"valueType\":\"string\"},{\"name\":\"fontItalic\",\"rangeEnd\":32,\"rangeStart\":0,\"value\":0,\"valueType\":\"int\"},{\"name\":\"strikethrough\",\"rangeEnd\":32,\"rangeStart\":0,\"value\":0,\"valueType\":\"int\"},{\"name\":\"underline\",\"rangeEnd\":32,\"rangeStart\":0,\"value\":0,\"valueType\":\"int\"}]",
                      "default-translation0" : 0.0,
                      "default-translation1" : 0.0
                    },
                    "animationTracks" : {

                    }
                  },
                  {
                    "id" : 242,
                    "_type" : "Callout",
                    "def" : {
                      "kind" : "remix",
                      "shape" : "text-rectangle",
                      "style" : "basic",
                      "fill-color-blue" : 0.270588235294118,
                      "fill-color-green" : 0.243137254901961,
                      "fill-color-opacity" : 1.0,
                      "fill-color-red" : 0.211764705882353,
                      "height" : 125.428571428404,
                      "line-spacing" : 0.0,
                      "stroke-color-blue" : 0.890196078431372,
                      "stroke-color-green" : 0.870588235294118,
                      "stroke-color-opacity" : 1.0,
                      "stroke-color-red" : 0.847058823529412,
                      "stroke-width" : 2.0,
                      "tail-x" : -215.357142857117,
                      "tail-y" : 36.1607142858501,
                      "width" : 2164.72637055139,
                      "word-wrap" : 1.0,
                      "fill-style" : "solid",
                      "horizontal-alignment" : "center",
                      "resize-behavior" : "resizeText",
                      "stroke-style" : "solid",
                      "text" : "The attacker is trying to overwrite the file",
                      "vertical-alignment" : "center",
                      "font" : {
                        "color-blue" : 0.266666666666667,
                        "color-green" : 0.231372549019608,
                        "color-opacity" : 1.0,
                        "color-red" : 0.184313725490196,
                        "size" : 64.0,
                        "tracking" : 0.0,
                        "name" : "Montserrat",
                        "weight" : "Regular"
                      },
                      "textAttributes" : {
                        "type" : "textAttributeList",
                        "keyframes" : [
                          {
                            "endTime" : 0,
                            "time" : 0,
                            "value" : [{"name":"fgColor","rangeEnd":44,"rangeStart":0,"value":"(255,255,255,255)","valueType":"color"},{"name":"kerning","rangeEnd":44,"rangeStart":0,"value":0,"valueType":"double"},{"name":"underline","rangeEnd":44,"rangeStart":0,"value":0,"valueType":"int"},{"name":"strikethrough","rangeEnd":44,"rangeStart":0,"value":0,"valueType":"int"},{"name":"fontItalic","rangeEnd":44,"rangeStart":0,"value":0,"valueType":"int"},{"name":"fontSize","rangeEnd":44,"rangeStart":0,"value":80,"valueType":"double"},{"name":"fontWeight","rangeEnd":44,"rangeStart":0,"value":400,"valueType":"int"},{"name":"fontName","rangeEnd":44,"rangeStart":0,"value":"Montserrat","valueType":"string"}],
                            "duration" : 0
                          }
                        ]
                      }
                    },
                    "attributes" : {
                      "autoRotateText" : true
                    },
                    "parameters" : {
                      "translation0" : -9.37916411203332e-11,
                      "translation1" : -621.674107143253
                    },
                    "effects" : [
                        {
                          "effectName" : "DropShadow",
                          "category" : "categoryVisualEffects",
                          "parameters" : {
                            "angle" : 5.49778714378214,
                            "blur" : 10.0,
                            "color-alpha" : 1.0,
                            "color-blue" : 0.1216,
                            "color-green" : 0.1216,
                            "color-red" : 0.1216,
                            "enabled" : 1,
                            "offset" : 10.0,
                            "opacity" : 0.4
                          }
                        }
                    ],
                    "start" : 2665,
                    "duration" : 108,
                    "mediaStart" : -86,
                    "mediaDuration" : 108,
                    "scalar" : 1,
                    "metadata" : {
                      "WinSubProjectDisplayName" : "",
                      "clipSpeedAttribute" : false,
                      "default-HAlign" : "center",
                      "default-LineSpace" : 0.0,
                      "default-VAlign" : "center",
                      "default-fill-color-blue" : 1.0,
                      "default-fill-color-green" : 1.0,
                      "default-fill-color-red" : 1.0,
                      "default-scale0" : 1.0,
                      "default-scale1" : 1.0,
                      "default-stroke-color-blue" : 0.56078431372549,
                      "default-stroke-color-green" : 0.686274509803922,
                      "default-stroke-color-red" : 0.0196078431372549,
                      "default-text-attributes" : "[{\"name\":\"fontSize\",\"rangeEnd\":32,\"rangeStart\":0,\"value\":64,\"valueType\":\"double\"},{\"name\":\"fgColor\",\"rangeEnd\":32,\"rangeStart\":0,\"value\":\"(255,255,255,255)\",\"valueType\":\"color\"},{\"name\":\"fontWeight\",\"rangeEnd\":32,\"rangeStart\":0,\"value\":400,\"valueType\":\"int\"},{\"name\":\"fontName\",\"rangeEnd\":32,\"rangeStart\":0,\"value\":\"Montserrat\",\"valueType\":\"string\"},{\"name\":\"fontItalic\",\"rangeEnd\":32,\"rangeStart\":0,\"value\":0,\"valueType\":\"int\"},{\"name\":\"strikethrough\",\"rangeEnd\":32,\"rangeStart\":0,\"value\":0,\"valueType\":\"int\"},{\"name\":\"underline\",\"rangeEnd\":32,\"rangeStart\":0,\"value\":0,\"valueType\":\"int\"}]",
                      "default-translation0" : 0.0,
                      "default-translation1" : 0.0
                    },
                    "animationTracks" : {

                    }
                  },
                  {
                    "id" : 243,
                    "_type" : "Callout",
                    "def" : {
                      "kind" : "remix",
                      "shape" : "text-rectangle",
                      "style" : "basic",
                      "fill-color-blue" : 0.270588235294118,
                      "fill-color-green" : 0.243137254901961,
                      "fill-color-opacity" : 1.0,
                      "fill-color-red" : 0.211764705882353,
                      "height" : 125.428571428586,
                      "line-spacing" : 0.0,
                      "stroke-color-blue" : 0.890196078431372,
                      "stroke-color-green" : 0.870588235294118,
                      "stroke-color-opacity" : 1.0,
                      "stroke-color-red" : 0.847058823529412,
                      "stroke-width" : 2.0,
                      "tail-x" : -1235.35714285716,
                      "tail-y" : 36.1607142857591,
                      "width" : 2415.26890756648,
                      "word-wrap" : 1.0,
                      "fill-style" : "solid",
                      "horizontal-alignment" : "center",
                      "resize-behavior" : "resizeText",
                      "stroke-style" : "solid",
                      "text" : "Okay, now the researcher decides to check the file again",
                      "vertical-alignment" : "center",
                      "font" : {
                        "color-blue" : 0.266666666666667,
                        "color-green" : 0.231372549019608,
                        "color-opacity" : 1.0,
                        "color-red" : 0.184313725490196,
                        "size" : 64.0,
                        "tracking" : 0.0,
                        "name" : "Montserrat",
                        "weight" : "Regular"
                      },
                      "textAttributes" : {
                        "type" : "textAttributeList",
                        "keyframes" : [
                          {
                            "endTime" : 0,
                            "time" : 0,
                            "value" : [{"name":"fontWeight","rangeEnd":56,"rangeStart":0,"value":400,"valueType":"int"},{"name":"kerning","rangeEnd":56,"rangeStart":0,"value":0,"valueType":"double"},{"name":"fontSize","rangeEnd":56,"rangeStart":0,"value":80,"valueType":"double"},{"name":"underline","rangeEnd":56,"rangeStart":0,"value":0,"valueType":"int"},{"name":"fgColor","rangeEnd":56,"rangeStart":0,"value":"(255,255,255,255)","valueType":"color"},{"name":"strikethrough","rangeEnd":56,"rangeStart":0,"value":0,"valueType":"int"},{"name":"fontName","rangeEnd":56,"rangeStart":0,"value":"Montserrat","valueType":"string"},{"name":"fontItalic","rangeEnd":56,"rangeStart":0,"value":0,"valueType":"int"}],
                            "duration" : 0
                          }
                        ]
                      }
                    },
                    "attributes" : {
                      "autoRotateText" : true
                    },
                    "parameters" : {
                      "translation0" : 6.64108767978178e-11,
                      "translation1" : -623.00000000056
                    },
                    "effects" : [
                        {
                          "effectName" : "DropShadow",
                          "category" : "categoryVisualEffects",
                          "parameters" : {
                            "angle" : 5.49778714378214,
                            "blur" : 10.0,
                            "color-alpha" : 1.0,
                            "color-blue" : 0.1216,
                            "color-green" : 0.1216,
                            "color-red" : 0.1216,
                            "enabled" : 1,
                            "offset" : 10.0,
                            "opacity" : 0.4
                          }
                        }
                    ],
                    "start" : 2798,
                    "duration" : 84,
                    "mediaStart" : -105,
                    "mediaDuration" : 84,
                    "scalar" : 1,
                    "metadata" : {
                      "WinSubProjectDisplayName" : "",
                      "clipSpeedAttribute" : false,
                      "default-HAlign" : "center",
                      "default-LineSpace" : 0.0,
                      "default-VAlign" : "center",
                      "default-fill-color-blue" : 1.0,
                      "default-fill-color-green" : 1.0,
                      "default-fill-color-red" : 1.0,
                      "default-scale0" : 1.0,
                      "default-scale1" : 1.0,
                      "default-stroke-color-blue" : 0.56078431372549,
                      "default-stroke-color-green" : 0.686274509803922,
                      "default-stroke-color-red" : 0.0196078431372549,
                      "default-text-attributes" : "[{\"name\":\"fontSize\",\"rangeEnd\":32,\"rangeStart\":0,\"value\":64,\"valueType\":\"double\"},{\"name\":\"fgColor\",\"rangeEnd\":32,\"rangeStart\":0,\"value\":\"(255,255,255,255)\",\"valueType\":\"color\"},{\"name\":\"fontWeight\",\"rangeEnd\":32,\"rangeStart\":0,\"value\":400,\"valueType\":\"int\"},{\"name\":\"fontName\",\"rangeEnd\":32,\"rangeStart\":0,\"value\":\"Montserrat\",\"valueType\":\"string\"},{\"name\":\"fontItalic\",\"rangeEnd\":32,\"rangeStart\":0,\"value\":0,\"valueType\":\"int\"},{\"name\":\"strikethrough\",\"rangeEnd\":32,\"rangeStart\":0,\"value\":0,\"valueType\":\"int\"},{\"name\":\"underline\",\"rangeEnd\":32,\"rangeStart\":0,\"value\":0,\"valueType\":\"int\"}]",
                      "default-translation0" : 0.0,
                      "default-translation1" : 0.0
                    },
                    "animationTracks" : {

                    }
                  },
                  {
                    "id" : 244,
                    "_type" : "Callout",
                    "def" : {
                      "kind" : "remix",
                      "shape" : "text-rectangle",
                      "style" : "basic",
                      "fill-color-blue" : 0.270588235294118,
                      "fill-color-green" : 0.243137254901961,
                      "fill-color-opacity" : 1.0,
                      "fill-color-red" : 0.211764705882353,
                      "height" : 109.227963525426,
                      "line-spacing" : 0.0,
                      "stroke-color-blue" : 0.890196078431372,
                      "stroke-color-green" : 0.870588235294118,
                      "stroke-color-opacity" : 1.0,
                      "stroke-color-red" : 0.847058823529412,
                      "stroke-width" : 2.0,
                      "tail-x" : -768.214285714354,
                      "tail-y" : 7.34612462034417,
                      "width" : 2306.34621849094,
                      "word-wrap" : 1.0,
                      "fill-style" : "solid",
                      "horizontal-alignment" : "center",
                      "resize-behavior" : "resizeText",
                      "stroke-style" : "solid",
                      "text" : "The researcher is reading the file with secret formula again",
                      "vertical-alignment" : "center",
                      "font" : {
                        "color-blue" : 0.266666666666667,
                        "color-green" : 0.231372549019608,
                        "color-opacity" : 1.0,
                        "color-red" : 0.184313725490196,
                        "size" : 64.0,
                        "tracking" : 0.0,
                        "name" : "Montserrat",
                        "weight" : "Regular"
                      },
                      "textAttributes" : {
                        "type" : "textAttributeList",
                        "keyframes" : [
                          {
                            "endTime" : 0,
                            "time" : 0,
                            "value" : [{"name":"kerning","rangeEnd":60,"rangeStart":0,"value":0,"valueType":"double"},{"name":"fontItalic","rangeEnd":60,"rangeStart":0,"value":0,"valueType":"int"},{"name":"fontWeight","rangeEnd":60,"rangeStart":0,"value":400,"valueType":"int"},{"name":"strikethrough","rangeEnd":60,"rangeStart":0,"value":0,"valueType":"int"},{"name":"fontName","rangeEnd":60,"rangeStart":0,"value":"Montserrat","valueType":"string"},{"name":"fgColor","rangeEnd":60,"rangeStart":0,"value":"(255,255,255,255)","valueType":"color"},{"name":"underline","rangeEnd":60,"rangeStart":0,"value":0,"valueType":"int"},{"name":"fontSize","rangeEnd":60,"rangeStart":0,"value":75,"valueType":"double"}],
                            "duration" : 0
                          }
                        ]
                      }
                    },
                    "attributes" : {
                      "autoRotateText" : true
                    },
                    "parameters" : {
                      "translation0" : -1.12322595668957e-10,
                      "translation1" : -633.471126799906
                    },
                    "effects" : [
                        {
                          "effectName" : "DropShadow",
                          "category" : "categoryVisualEffects",
                          "parameters" : {
                            "angle" : 5.49778714378214,
                            "blur" : 10.0,
                            "color-alpha" : 1.0,
                            "color-blue" : 0.1216,
                            "color-green" : 0.1216,
                            "color-red" : 0.1216,
                            "enabled" : 1,
                            "offset" : 10.0,
                            "opacity" : 0.4
                          }
                        }
                    ],
                    "start" : 2908,
                    "duration" : 76,
                    "mediaStart" : -56,
                    "mediaDuration" : 76,
                    "scalar" : 1,
                    "metadata" : {
                      "WinSubProjectDisplayName" : "",
                      "clipSpeedAttribute" : false,
                      "default-HAlign" : "center",
                      "default-LineSpace" : 0.0,
                      "default-VAlign" : "center",
                      "default-fill-color-blue" : 1.0,
                      "default-fill-color-green" : 1.0,
                      "default-fill-color-red" : 1.0,
                      "default-scale0" : 1.0,
                      "default-scale1" : 1.0,
                      "default-stroke-color-blue" : 0.56078431372549,
                      "default-stroke-color-green" : 0.686274509803922,
                      "default-stroke-color-red" : 0.0196078431372549,
                      "default-text-attributes" : "[{\"name\":\"fontSize\",\"rangeEnd\":32,\"rangeStart\":0,\"value\":64,\"valueType\":\"double\"},{\"name\":\"fgColor\",\"rangeEnd\":32,\"rangeStart\":0,\"value\":\"(255,255,255,255)\",\"valueType\":\"color\"},{\"name\":\"fontWeight\",\"rangeEnd\":32,\"rangeStart\":0,\"value\":400,\"valueType\":\"int\"},{\"name\":\"fontName\",\"rangeEnd\":32,\"rangeStart\":0,\"value\":\"Montserrat\",\"valueType\":\"string\"},{\"name\":\"fontItalic\",\"rangeEnd\":32,\"rangeStart\":0,\"value\":0,\"valueType\":\"int\"},{\"name\":\"strikethrough\",\"rangeEnd\":32,\"rangeStart\":0,\"value\":0,\"valueType\":\"int\"},{\"name\":\"underline\",\"rangeEnd\":32,\"rangeStart\":0,\"value\":0,\"valueType\":\"int\"}]",
                      "default-translation0" : 0.0,
                      "default-translation1" : 0.0
                    },
                    "animationTracks" : {

                    }
                  },
                  {
                    "id" : 245,
                    "_type" : "Callout",
                    "def" : {
                      "kind" : "remix",
                      "shape" : "text-rectangle",
                      "style" : "basic",
                      "fill-color-blue" : 0.0,
                      "fill-color-green" : 0.0,
                      "fill-color-opacity" : 1.0,
                      "fill-color-red" : 0.6,
                      "height" : 106.249999999895,
                      "line-spacing" : 0.0,
                      "stroke-color-blue" : 0.890196078431372,
                      "stroke-color-green" : 0.870588235294118,
                      "stroke-color-opacity" : 1.0,
                      "stroke-color-red" : 0.847058823529412,
                      "stroke-width" : 2.0,
                      "tail-x" : -462.499999999966,
                      "tail-y" : 1.8750000000523,
                      "width" : 1759.3750000001,
                      "word-wrap" : 1.0,
                      "fill-style" : "solid",
                      "horizontal-alignment" : "center",
                      "resize-behavior" : "resizeText",
                      "stroke-style" : "solid",
                      "text" : "The secret formula has been modified!",
                      "vertical-alignment" : "center",
                      "font" : {
                        "color-blue" : 0.266666666666667,
                        "color-green" : 0.231372549019608,
                        "color-opacity" : 1.0,
                        "color-red" : 0.184313725490196,
                        "size" : 64.0,
                        "tracking" : 0.0,
                        "name" : "Montserrat",
                        "weight" : "Regular"
                      },
                      "textAttributes" : {
                        "type" : "textAttributeList",
                        "keyframes" : [
                          {
                            "endTime" : 0,
                            "time" : 0,
                            "value" : [{"name":"fontItalic","rangeEnd":37,"rangeStart":0,"value":0,"valueType":"int"},{"name":"fontWeight","rangeEnd":37,"rangeStart":0,"value":400,"valueType":"int"},{"name":"fgColor","rangeEnd":37,"rangeStart":0,"value":"(255,255,255,255)","valueType":"color"},{"name":"strikethrough","rangeEnd":37,"rangeStart":0,"value":0,"valueType":"int"},{"name":"fontSize","rangeEnd":37,"rangeStart":0,"value":80,"valueType":"double"},{"name":"fontName","rangeEnd":37,"rangeStart":0,"value":"Montserrat","valueType":"string"},{"name":"underline","rangeEnd":37,"rangeStart":0,"value":0,"valueType":"int"}],
                            "duration" : 0
                          }
                        ]
                      }
                    },
                    "attributes" : {
                      "autoRotateText" : true
                    },
                    "parameters" : {
                      "translation0" : -9.11484221433057e-11,
                      "translation1" : -636.567724164371
                    },
                    "effects" : [
                        {
                          "effectName" : "DropShadow",
                          "category" : "categoryVisualEffects",
                          "parameters" : {
                            "angle" : 5.49778714378214,
                            "blur" : 10.0,
                            "color-alpha" : 1.0,
                            "color-blue" : 0.1216,
                            "color-green" : 0.1216,
                            "color-red" : 0.1216,
                            "enabled" : 1,
                            "offset" : 10.0,
                            "opacity" : 0.4
                          }
                        }
                    ],
                    "start" : 2984,
                    "duration" : 151,
                    "mediaStart" : -85,
                    "mediaDuration" : 151,
                    "scalar" : 1,
                    "metadata" : {
                      "WinSubProjectDisplayName" : "",
                      "clipSpeedAttribute" : false,
                      "default-HAlign" : "center",
                      "default-LineSpace" : 0.0,
                      "default-VAlign" : "center",
                      "default-fill-color-blue" : 1.0,
                      "default-fill-color-green" : 1.0,
                      "default-fill-color-red" : 1.0,
                      "default-scale0" : 1.0,
                      "default-scale1" : 1.0,
                      "default-stroke-color-blue" : 0.56078431372549,
                      "default-stroke-color-green" : 0.686274509803922,
                      "default-stroke-color-red" : 0.0196078431372549,
                      "default-text-attributes" : "[{\"name\":\"fontSize\",\"rangeEnd\":32,\"rangeStart\":0,\"value\":64,\"valueType\":\"double\"},{\"name\":\"fgColor\",\"rangeEnd\":32,\"rangeStart\":0,\"value\":\"(255,255,255,255)\",\"valueType\":\"color\"},{\"name\":\"fontWeight\",\"rangeEnd\":32,\"rangeStart\":0,\"value\":400,\"valueType\":\"int\"},{\"name\":\"fontName\",\"rangeEnd\":32,\"rangeStart\":0,\"value\":\"Montserrat\",\"valueType\":\"string\"},{\"name\":\"fontItalic\",\"rangeEnd\":32,\"rangeStart\":0,\"value\":0,\"valueType\":\"int\"},{\"name\":\"strikethrough\",\"rangeEnd\":32,\"rangeStart\":0,\"value\":0,\"valueType\":\"int\"},{\"name\":\"underline\",\"rangeEnd\":32,\"rangeStart\":0,\"value\":0,\"valueType\":\"int\"}]",
                      "default-translation0" : 0.0,
                      "default-translation1" : 0.0
                    },
                    "animationTracks" : {

                    }
                  },
                  {
                    "id" : 246,
                    "_type" : "Callout",
                    "def" : {
                      "kind" : "remix",
                      "shape" : "text-rectangle",
                      "style" : "basic",
                      "fill-color-blue" : 0.270588235294118,
                      "fill-color-green" : 0.243137254901961,
                      "fill-color-opacity" : 1.0,
                      "fill-color-red" : 0.211764705882353,
                      "height" : 125.003039513863,
                      "line-spacing" : 0.0,
                      "stroke-color-blue" : 0.890196078431372,
                      "stroke-color-green" : 0.870588235294118,
                      "stroke-color-opacity" : 1.0,
                      "stroke-color-red" : 0.847058823529412,
                      "stroke-width" : 2.0,
                      "tail-x" : -296.785714285785,
                      "tail-y" : -23.6265197565607,
                      "width" : 2031.68788656329,
                      "word-wrap" : 1.0,
                      "fill-style" : "solid",
                      "horizontal-alignment" : "center",
                      "resize-behavior" : "resizeText",
                      "stroke-style" : "solid",
                      "text" : "Let us wait for PatchGuard reaction, e.g. BSOD",
                      "vertical-alignment" : "center",
                      "font" : {
                        "color-blue" : 0.266666666666667,
                        "color-green" : 0.231372549019608,
                        "color-opacity" : 1.0,
                        "color-red" : 0.184313725490196,
                        "size" : 64.0,
                        "tracking" : 0.0,
                        "name" : "Montserrat",
                        "weight" : "Regular"
                      },
                      "textAttributes" : {
                        "type" : "textAttributeList",
                        "keyframes" : [
                          {
                            "endTime" : 0,
                            "time" : 0,
                            "value" : [{"name":"underline","rangeEnd":46,"rangeStart":0,"value":0,"valueType":"int"},{"name":"fontWeight","rangeEnd":46,"rangeStart":0,"value":400,"valueType":"int"},{"name":"fgColor","rangeEnd":46,"rangeStart":0,"value":"(255,255,255,255)","valueType":"color"},{"name":"strikethrough","rangeEnd":46,"rangeStart":0,"value":0,"valueType":"int"},{"name":"fontName","rangeEnd":46,"rangeStart":0,"value":"Montserrat","valueType":"string"},{"name":"fontSize","rangeEnd":46,"rangeStart":0,"value":80,"valueType":"double"},{"name":"fontItalic","rangeEnd":46,"rangeStart":0,"value":0,"valueType":"int"}],
                            "duration" : 0
                          }
                        ]
                      }
                    },
                    "attributes" : {
                      "autoRotateText" : true
                    },
                    "parameters" : {
                      "translation0" : 1.41540112963412e-11,
                      "translation1" : -564.744015958318
                    },
                    "effects" : [
                        {
                          "effectName" : "DropShadow",
                          "category" : "categoryVisualEffects",
                          "parameters" : {
                            "angle" : 5.49778714378214,
                            "blur" : 10.0,
                            "color-alpha" : 1.0,
                            "color-blue" : 0.1216,
                            "color-green" : 0.1216,
                            "color-red" : 0.1216,
                            "enabled" : 1,
                            "offset" : 10.0,
                            "opacity" : 0.4
                          }
                        }
                    ],
                    "start" : 3180,
                    "duration" : 272,
                    "mediaStart" : -56,
                    "mediaDuration" : 272,
                    "scalar" : 1,
                    "metadata" : {
                      "WinSubProjectDisplayName" : "",
                      "clipSpeedAttribute" : false,
                      "default-HAlign" : "center",
                      "default-LineSpace" : 0.0,
                      "default-VAlign" : "center",
                      "default-fill-color-blue" : 1.0,
                      "default-fill-color-green" : 1.0,
                      "default-fill-color-red" : 1.0,
                      "default-scale0" : 1.0,
                      "default-scale1" : 1.0,
                      "default-stroke-color-blue" : 0.56078431372549,
                      "default-stroke-color-green" : 0.686274509803922,
                      "default-stroke-color-red" : 0.0196078431372549,
                      "default-text-attributes" : "[{\"name\":\"fontSize\",\"rangeEnd\":32,\"rangeStart\":0,\"value\":64,\"valueType\":\"double\"},{\"name\":\"fgColor\",\"rangeEnd\":32,\"rangeStart\":0,\"value\":\"(255,255,255,255)\",\"valueType\":\"color\"},{\"name\":\"fontWeight\",\"rangeEnd\":32,\"rangeStart\":0,\"value\":400,\"valueType\":\"int\"},{\"name\":\"fontName\",\"rangeEnd\":32,\"rangeStart\":0,\"value\":\"Montserrat\",\"valueType\":\"string\"},{\"name\":\"fontItalic\",\"rangeEnd\":32,\"rangeStart\":0,\"value\":0,\"valueType\":\"int\"},{\"name\":\"strikethrough\",\"rangeEnd\":32,\"rangeStart\":0,\"value\":0,\"valueType\":\"int\"},{\"name\":\"underline\",\"rangeEnd\":32,\"rangeStart\":0,\"value\":0,\"valueType\":\"int\"}]",
                      "default-translation0" : 0.0,
                      "default-translation1" : 0.0
                    },
                    "animationTracks" : {

                    }
                  },
                  {
                    "id" : 247,
                    "_type" : "Callout",
                    "def" : {
                      "kind" : "remix",
                      "shape" : "text-rectangle",
                      "style" : "basic",
                      "fill-color-blue" : 0.0,
                      "fill-color-green" : 0.0,
                      "fill-color-opacity" : 1.0,
                      "fill-color-red" : 0.6,
                      "height" : 121.963525835812,
                      "line-spacing" : 0.0,
                      "stroke-color-blue" : 0.890196078431372,
                      "stroke-color-green" : 0.870588235294118,
                      "stroke-color-opacity" : 1.0,
                      "stroke-color-red" : 0.847058823529412,
                      "stroke-width" : 2.0,
                      "tail-x" : -1061.0714285715,
                      "tail-y" : 37.8932370821466,
                      "width" : 2015.26890756618,
                      "word-wrap" : 1.0,
                      "fill-style" : "solid",
                      "horizontal-alignment" : "center",
                      "resize-behavior" : "resizeText",
                      "stroke-style" : "solid",
                      "text" : "7 hours have passed - a BSOD hasn't appeared",
                      "vertical-alignment" : "center",
                      "font" : {
                        "color-blue" : 0.266666666666667,
                        "color-green" : 0.231372549019608,
                        "color-opacity" : 1.0,
                        "color-red" : 0.184313725490196,
                        "size" : 64.0,
                        "tracking" : 0.0,
                        "name" : "Montserrat",
                        "weight" : "Regular"
                      },
                      "textAttributes" : {
                        "type" : "textAttributeList",
                        "keyframes" : [
                          {
                            "endTime" : 0,
                            "time" : 0,
                            "value" : [{"name":"kerning","rangeEnd":44,"rangeStart":0,"value":0,"valueType":"double"},{"name":"fontSize","rangeEnd":44,"rangeStart":0,"value":80,"valueType":"double"},{"name":"fontName","rangeEnd":44,"rangeStart":0,"value":"Montserrat","valueType":"string"},{"name":"fontItalic","rangeEnd":44,"rangeStart":0,"value":0,"valueType":"int"},{"name":"fontWeight","rangeEnd":44,"rangeStart":0,"value":400,"valueType":"int"},{"name":"fgColor","rangeEnd":44,"rangeStart":0,"value":"(255,255,255,255)","valueType":"color"},{"name":"underline","rangeEnd":44,"rangeStart":0,"value":0,"valueType":"int"},{"name":"strikethrough","rangeEnd":44,"rangeStart":0,"value":0,"valueType":"int"}],
                            "duration" : 0
                          }
                        ]
                      }
                    },
                    "attributes" : {
                      "autoRotateText" : true
                    },
                    "parameters" : {
                      "translation0" : 3.49998719333462,
                      "translation1" : -614.8352013685
                    },
                    "effects" : [
                        {
                          "effectName" : "DropShadow",
                          "category" : "categoryVisualEffects",
                          "parameters" : {
                            "angle" : 5.49778714378214,
                            "blur" : 10.0,
                            "color-alpha" : 1.0,
                            "color-blue" : 0.1216,
                            "color-green" : 0.1216,
                            "color-red" : 0.1216,
                            "enabled" : 1,
                            "offset" : 10.0,
                            "opacity" : 0.4
                          }
                        }
                    ],
                    "start" : 3467,
                    "duration" : 99,
                    "mediaStart" : -85,
                    "mediaDuration" : 99,
                    "scalar" : 1,
                    "metadata" : {
                      "WinSubProjectDisplayName" : "",
                      "clipSpeedAttribute" : false,
                      "default-HAlign" : "center",
                      "default-LineSpace" : 0.0,
                      "default-VAlign" : "center",
                      "default-fill-color-blue" : 1.0,
                      "default-fill-color-green" : 1.0,
                      "default-fill-color-red" : 1.0,
                      "default-scale0" : 1.0,
                      "default-scale1" : 1.0,
                      "default-stroke-color-blue" : 0.56078431372549,
                      "default-stroke-color-green" : 0.686274509803922,
                      "default-stroke-color-red" : 0.0196078431372549,
                      "default-text-attributes" : "[{\"name\":\"fontSize\",\"rangeEnd\":32,\"rangeStart\":0,\"value\":64,\"valueType\":\"double\"},{\"name\":\"fgColor\",\"rangeEnd\":32,\"rangeStart\":0,\"value\":\"(255,255,255,255)\",\"valueType\":\"color\"},{\"name\":\"fontWeight\",\"rangeEnd\":32,\"rangeStart\":0,\"value\":400,\"valueType\":\"int\"},{\"name\":\"fontName\",\"rangeEnd\":32,\"rangeStart\":0,\"value\":\"Montserrat\",\"valueType\":\"string\"},{\"name\":\"fontItalic\",\"rangeEnd\":32,\"rangeStart\":0,\"value\":0,\"valueType\":\"int\"},{\"name\":\"strikethrough\",\"rangeEnd\":32,\"rangeStart\":0,\"value\":0,\"valueType\":\"int\"},{\"name\":\"underline\",\"rangeEnd\":32,\"rangeStart\":0,\"value\":0,\"valueType\":\"int\"}]",
                      "default-translation0" : 0.0,
                      "default-translation1" : 0.0
                    },
                    "animationTracks" : {

                    }
                  },
                  {
                    "id" : 248,
                    "_type" : "Callout",
                    "def" : {
                      "kind" : "remix",
                      "shape" : "shape-rectangle",
                      "style" : "basic",
                      "fill-color-blue" : 0.0,
                      "fill-color-green" : 0.0,
                      "fill-color-opacity" : 0.0,
                      "fill-color-red" : 0.0,
                      "height" : 1425.00002748123,
                      "stroke-color-blue" : 0.0,
                      "stroke-color-green" : 0.0,
                      "stroke-color-opacity" : 1.0,
                      "stroke-color-red" : 1.0,
                      "stroke-width" : 15.0,
                      "width" : 2544.99998124294,
                      "fill-style" : "solid",
                      "horizontal-alignment" : "center",
                      "stroke-style" : "solid",
                      "vertical-alignment" : "center",
                      "textAttributes" : {
                        "type" : "textAttributeList",
                        "keyframes" : [
                          {
                            "endTime" : 0,
                            "time" : 0,
                            "value" : null,
                            "duration" : 0
                          }
                        ]
                      }
                    },
                    "attributes" : {
                      "autoRotateText" : true
                    },
                    "parameters" : {
                      "translation0" : -4.76887748845911e-07,
                      "translation1" : -1.62496922513355e-05
                    },
                    "effects" : [
                        {
                          "effectName" : "DropShadow",
                          "category" : "categoryVisualEffects",
                          "parameters" : {
                            "angle" : 5.49778714378214,
                            "blur" : 10.0,
                            "color-alpha" : 1.0,
                            "color-blue" : 0.1216,
                            "color-green" : 0.1216,
                            "color-red" : 0.1216,
                            "enabled" : 1,
                            "offset" : 10.0,
                            "opacity" : 0.4
                          }
                        }
                    ],
                    "start" : 3603,
                    "duration" : 226,
                    "mediaStart" : 2,
                    "mediaDuration" : 226,
                    "scalar" : 1,
                    "metadata" : {
                      "WinSubProjectDisplayName" : "",
                      "clipSpeedAttribute" : false,
                      "default-callout-shape" : "shape-rectangle",
                      "default-stroke-color-red" : 0.0,
                      "default-stroke-width" : 6.0,
                      "default-translation0" : 0.0,
                      "default-translation1" : 0.0
                    },
                    "animationTracks" : {

                    }
                  }
                ]
              },
              {
                "trackIndex" : 4,
                "medias" : [
                  {
                    "id" : 249,
                    "_type" : "AMFile",
                    "src" : 4,
                    "trackNumber" : 0,
                    "attributes" : {
                      "ident" : "Neizvesten+Saundtrek+k+fil+mu+RODINA+ZhDET+NEVYPOLNIMOE+ZAD_muzlishko.ru_",
                      "gain" : 1.0,
                      "mixToMono" : false
                    },
                      "channelNumber" : "0,1",
                    "effects" : [

                    ],
                    "start" : 0,
                    "duration" : 155,
                    "mediaStart" : 124,
                    "mediaDuration" : 155,
                    "scalar" : 1,
                    "metadata" : {
                      "clipSpeedAttribute" : false
                    },
                    "animationTracks" : {

                    }
                  },
                  {
                    "id" : 250,
                    "_type" : "Callout",
                    "def" : {
                      "kind" : "remix",
                      "shape" : "shape-rectangle",
                      "style" : "basic",
                      "fill-color-blue" : 0.0,
                      "fill-color-green" : 0.0,
                      "fill-color-opacity" : 0.0,
                      "fill-color-red" : 0.0,
                      "height" : 158.095238095488,
                      "stroke-color-blue" : 0.0,
                      "stroke-color-green" : 0.0,
                      "stroke-color-opacity" : 1.0,
                      "stroke-color-red" : 1.0,
                      "stroke-width" : 15.0,
                      "width" : 822.515794992489,
                      "fill-style" : "solid",
                      "horizontal-alignment" : "center",
                      "stroke-style" : "solid",
                      "vertical-alignment" : "center",
                      "textAttributes" : {
                        "type" : "textAttributeList",
                        "keyframes" : [
                          {
                            "endTime" : 0,
                            "time" : 0,
                            "value" : null,
                            "duration" : 0
                          }
                        ]
                      }
                    },
                    "attributes" : {
                      "autoRotateText" : true
                    },
                    "parameters" : {
                      "translation0" : {
                        "type" : "double",
                        "defaultValue" : -634.177298105891,
                        "keyframes" : [
                          {
                            "endTime" : -3,
                            "time" : -28,
                            "value" : -293.803984297279,
                            "duration" : 25
                          }
                        ]
                      },
                      "translation1" : {
                        "type" : "double",
                        "defaultValue" : 17.0459579182643,
                        "keyframes" : [
                          {
                            "endTime" : -3,
                            "time" : -28,
                            "value" : 63.2326260587061,
                            "duration" : 25
                          }
                        ]
                      },
                      "scale0" : {
                        "type" : "double",
                        "defaultValue" : 1.0,
                        "keyframes" : [
                          {
                            "endTime" : -3,
                            "time" : -28,
                            "value" : 1.52703838456561,
                            "duration" : 25
                          }
                        ]
                      },
                      "scale1" : {
                        "type" : "double",
                        "defaultValue" : 1.0,
                        "keyframes" : [
                          {
                            "endTime" : -3,
                            "time" : -28,
                            "value" : 1.52703831030587,
                            "duration" : 25
                          }
                        ]
                      }
                    },
                    "effects" : [
                        {
                          "effectName" : "DropShadow",
                          "category" : "categoryVisualEffects",
                          "parameters" : {
                            "angle" : {
                              "type" : "double",
                              "defaultValue" : 5.49778714378214,
                              "uiHints" : {
                                "userInterfaceType" : 0,
                                "unitType" : 0
                              },
                              "keyframes" : [
                                {
                                  "endTime" : -3,
                                  "time" : -28,
                                  "value" : 5.49778714378214,
                                  "duration" : 25
                                }
                              ]
                            },
                            "blur" : 10.0,
                            "color-alpha" : 1.0,
                            "color-blue" : 0.1216,
                            "color-green" : 0.1216,
                            "color-red" : 0.1216,
                            "enabled" : 1,
                            "offset" : 10.0,
                            "opacity" : 0.4
                          }
                        }
                    ],
                    "start" : 282,
                    "duration" : 73,
                    "mediaStart" : 14,
                    "mediaDuration" : 73,
                    "scalar" : 1,
                    "metadata" : {
                      "WinSubProjectDisplayName" : "",
                      "clipSpeedAttribute" : false,
                      "default-callout-shape" : "shape-rectangle",
                      "default-scale0" : 1.0,
                      "default-scale1" : 1.0,
                      "default-stroke-color-red" : 0.0,
                      "default-stroke-width" : 6.0,
                      "default-translation0" : 0.0,
                      "default-translation1" : 0.0
                    },
                    "animationTracks" : {
                      "visual" : [
                        {
                          "endTime" : -3,
                          "duration" : 25,
                          "range" : [ -28, 25]
                        }
                      ]
                    }
                  },
                  {
                    "id" : 251,
                    "_type" : "Callout",
                    "def" : {
                      "kind" : "remix",
                      "shape" : "shape-rectangle",
                      "style" : "basic",
                      "fill-color-blue" : 0.0,
                      "fill-color-green" : 0.0,
                      "fill-color-opacity" : 0.0,
                      "fill-color-red" : 0.0,
                      "height" : 88.8888888889758,
                      "stroke-color-blue" : 0.117647058823529,
                      "stroke-color-green" : 0.847058823529412,
                      "stroke-color-opacity" : 1.0,
                      "stroke-color-red" : 0.219607843137255,
                      "stroke-width" : 15.0,
                      "width" : 709.266830472216,
                      "fill-style" : "solid",
                      "horizontal-alignment" : "center",
                      "stroke-style" : "solid",
                      "vertical-alignment" : "center",
                      "textAttributes" : {
                        "type" : "textAttributeList",
                        "keyframes" : [
                          {
                            "endTime" : 0,
                            "time" : 0,
                            "value" : null,
                            "duration" : 0
                          }
                        ]
                      }
                    },
                    "attributes" : {
                      "autoRotateText" : true
                    },
                    "parameters" : {
                      "translation0" : -920.070349991438,
                      "translation1" : -7.80779984743228
                    },
                    "effects" : [
                        {
                          "effectName" : "DropShadow",
                          "category" : "categoryVisualEffects",
                          "parameters" : {
                            "angle" : 5.49778714378214,
                            "blur" : 10.0,
                            "color-alpha" : 1.0,
                            "color-blue" : 0.1216,
                            "color-green" : 0.1216,
                            "color-red" : 0.1216,
                            "enabled" : 1,
                            "offset" : 10.0,
                            "opacity" : 0.4
                          }
                        }
                    ],
                    "start" : 614,
                    "duration" : 79,
                    "mediaStart" : -1,
                    "mediaDuration" : 79,
                    "scalar" : 1,
                    "metadata" : {
                      "WinSubProjectDisplayName" : "",
                      "clipSpeedAttribute" : false,
                      "default-callout-shape" : "shape-rectangle",
                      "default-scale0" : 1.0,
                      "default-scale1" : 1.0,
                      "default-stroke-color-blue" : 0.0,
                      "default-stroke-color-green" : 0.0,
                      "default-stroke-color-red" : 0.0,
                      "default-stroke-width" : 6.0,
                      "default-translation0" : 0.0,
                      "default-translation1" : 0.0
                    },
                    "animationTracks" : {

                    }
                  },
                  {
                    "id" : 252,
                    "_type" : "Callout",
                    "def" : {
                      "kind" : "remix",
                      "shape" : "shape-rectangle",
                      "style" : "basic",
                      "fill-color-blue" : 0.0,
                      "fill-color-green" : 0.0,
                      "fill-color-opacity" : 0.0,
                      "fill-color-red" : 0.0,
                      "height" : 103.8044579533,
                      "stroke-color-blue" : 0.117647058823529,
                      "stroke-color-green" : 0.847058823529412,
                      "stroke-color-opacity" : 1.0,
                      "stroke-color-red" : 0.219607843137255,
                      "stroke-width" : 15.0,
                      "width" : 1198.14500400907,
                      "fill-style" : "solid",
                      "horizontal-alignment" : "center",
                      "stroke-style" : "solid",
                      "vertical-alignment" : "center",
                      "textAttributes" : {
                        "type" : "textAttributeList",
                        "keyframes" : [
                          {
                            "endTime" : 0,
                            "time" : 0,
                            "value" : null,
                            "duration" : 0
                          }
                        ]
                      }
                    },
                    "attributes" : {
                      "autoRotateText" : true
                    },
                    "parameters" : {
                      "translation0" : -678.558665886119,
                      "translation1" : -213.703140830295
                    },
                    "effects" : [
                        {
                          "effectName" : "DropShadow",
                          "category" : "categoryVisualEffects",
                          "parameters" : {
                            "angle" : 5.49778714378214,
                            "blur" : 10.0,
                            "color-alpha" : 1.0,
                            "color-blue" : 0.1216,
                            "color-green" : 0.1216,
                            "color-red" : 0.1216,
                            "enabled" : 1,
                            "offset" : 10.0,
                            "opacity" : 0.4
                          }
                        }
                    ],
                    "start" : 755,
                    "duration" : 90,
                    "mediaStart" : -1,
                    "mediaDuration" : 90,
                    "scalar" : 1,
                    "metadata" : {
                      "WinSubProjectDisplayName" : "",
                      "clipSpeedAttribute" : false,
                      "default-callout-shape" : "shape-rectangle",
                      "default-scale0" : 1.0,
                      "default-scale1" : 1.0,
                      "default-stroke-color-blue" : 0.0,
                      "default-stroke-color-green" : 0.0,
                      "default-stroke-color-red" : 0.0,
                      "default-stroke-width" : 6.0,
                      "default-translation0" : 0.0,
                      "default-translation1" : 0.0
                    },
                    "animationTracks" : {

                    }
                  },
                  {
                    "id" : 253,
                    "_type" : "Callout",
                    "def" : {
                      "kind" : "remix",
                      "shape" : "shape-rectangle",
                      "style" : "basic",
                      "fill-color-blue" : 0.0,
                      "fill-color-green" : 0.0,
                      "fill-color-opacity" : 0.0,
                      "fill-color-red" : 0.0,
                      "height" : 103.8044579533,
                      "stroke-color-blue" : 0.117647058823529,
                      "stroke-color-green" : 0.847058823529412,
                      "stroke-color-opacity" : 1.0,
                      "stroke-color-red" : 0.219607843137255,
                      "stroke-width" : 15.0,
                      "width" : 1934.31521677515,
                      "fill-style" : "solid",
                      "horizontal-alignment" : "center",
                      "stroke-style" : "solid",
                      "vertical-alignment" : "center",
                      "textAttributes" : {
                        "type" : "textAttributeList",
                        "keyframes" : [
                          {
                            "endTime" : 0,
                            "time" : 0,
                            "value" : null,
                            "duration" : 0
                          }
                        ]
                      }
                    },
                    "attributes" : {
                      "autoRotateText" : true
                    },
                    "parameters" : {
                      "translation0" : -272.175687162631,
                      "translation1" : 237.360688956947
                    },
                    "effects" : [
                        {
                          "effectName" : "DropShadow",
                          "category" : "categoryVisualEffects",
                          "parameters" : {
                            "angle" : 5.49778714378214,
                            "blur" : 10.0,
                            "color-alpha" : 1.0,
                            "color-blue" : 0.1216,
                            "color-green" : 0.1216,
                            "color-red" : 0.1216,
                            "enabled" : 1,
                            "offset" : 10.0,
                            "opacity" : 0.4
                          }
                        }
                    ],
                    "start" : 946,
                    "duration" : 179,
                    "mediaStart" : -5,
                    "mediaDuration" : 179,
                    "scalar" : 1,
                    "metadata" : {
                      "WinSubProjectDisplayName" : "",
                      "clipSpeedAttribute" : false,
                      "default-callout-shape" : "shape-rectangle",
                      "default-scale0" : 1.0,
                      "default-scale1" : 1.0,
                      "default-stroke-color-blue" : 0.0,
                      "default-stroke-color-green" : 0.0,
                      "default-stroke-color-red" : 0.0,
                      "default-stroke-width" : 6.0,
                      "default-translation0" : 0.0,
                      "default-translation1" : 0.0
                    },
                    "animationTracks" : {

                    }
                  },
                  {
                    "id" : 254,
                    "_type" : "Callout",
                    "def" : {
                      "kind" : "remix",
                      "shape" : "shape-rectangle",
                      "style" : "basic",
                      "fill-color-blue" : 0.0,
                      "fill-color-green" : 0.0,
                      "fill-color-opacity" : 0.0,
                      "fill-color-red" : 0.0,
                      "height" : 94.0919122033315,
                      "stroke-color-blue" : 0.0,
                      "stroke-color-green" : 0.0,
                      "stroke-color-opacity" : 1.0,
                      "stroke-color-red" : 1.0,
                      "stroke-width" : 15.0,
                      "width" : 646.690233942609,
                      "fill-style" : "solid",
                      "horizontal-alignment" : "center",
                      "stroke-style" : "solid",
                      "vertical-alignment" : "center",
                      "textAttributes" : {
                        "type" : "textAttributeList",
                        "keyframes" : [
                          {
                            "endTime" : 0,
                            "time" : 0,
                            "value" : null,
                            "duration" : 0
                          }
                        ]
                      }
                    },
                    "attributes" : {
                      "autoRotateText" : true
                    },
                    "parameters" : {
                      "translation0" : -960.04081879876,
                      "translation1" : -212.895900730411
                    },
                    "effects" : [
                        {
                          "effectName" : "DropShadow",
                          "category" : "categoryVisualEffects",
                          "parameters" : {
                            "angle" : 5.49778714378214,
                            "blur" : 10.0,
                            "color-alpha" : 1.0,
                            "color-blue" : 0.1216,
                            "color-green" : 0.1216,
                            "color-red" : 0.1216,
                            "enabled" : 1,
                            "offset" : 10.0,
                            "opacity" : 0.4
                          }
                        }
                    ],
                    "start" : 1481,
                    "duration" : 78,
                    "mediaStart" : 0,
                    "mediaDuration" : 78,
                    "scalar" : 1,
                    "metadata" : {
                      "WinSubProjectDisplayName" : "",
                      "clipSpeedAttribute" : false,
                      "default-callout-shape" : "shape-rectangle",
                      "default-stroke-color-red" : 0.0,
                      "default-stroke-width" : 6.0,
                      "default-translation0" : 0.0,
                      "default-translation1" : 0.0
                    },
                    "animationTracks" : {

                    }
                  },
                  {
                    "id" : 255,
                    "_type" : "Callout",
                    "def" : {
                      "kind" : "remix",
                      "shape" : "shape-rectangle",
                      "style" : "basic",
                      "fill-color-blue" : 0.0,
                      "fill-color-green" : 0.0,
                      "fill-color-opacity" : 0.0,
                      "fill-color-red" : 0.0,
                      "height" : 88.8888888889758,
                      "stroke-color-blue" : 0.0,
                      "stroke-color-green" : 0.0,
                      "stroke-color-opacity" : 1.0,
                      "stroke-color-red" : 1.0,
                      "stroke-width" : 15.0,
                      "width" : 1253.45287698402,
                      "fill-style" : "solid",
                      "horizontal-alignment" : "center",
                      "stroke-style" : "solid",
                      "vertical-alignment" : "center",
                      "textAttributes" : {
                        "type" : "textAttributeList",
                        "keyframes" : [
                          {
                            "endTime" : 0,
                            "time" : 0,
                            "value" : null,
                            "duration" : 0
                          }
                        ]
                      }
                    },
                    "attributes" : {
                      "autoRotateText" : true
                    },
                    "parameters" : {
                      "translation0" : -580.535466270377,
                      "translation1" : 461.959642013093
                    },
                    "effects" : [
                        {
                          "effectName" : "DropShadow",
                          "category" : "categoryVisualEffects",
                          "parameters" : {
                            "angle" : 5.49778714378214,
                            "blur" : 10.0,
                            "color-alpha" : 1.0,
                            "color-blue" : 0.1216,
                            "color-green" : 0.1216,
                            "color-red" : 0.1216,
                            "enabled" : 1,
                            "offset" : 10.0,
                            "opacity" : 0.4
                          }
                        }
                    ],
                    "start" : 1592,
                    "duration" : 90,
                    "mediaStart" : 0,
                    "mediaDuration" : 90,
                    "scalar" : 1,
                    "metadata" : {
                      "WinSubProjectDisplayName" : "",
                      "clipSpeedAttribute" : false,
                      "default-callout-shape" : "shape-rectangle",
                      "default-scale0" : 1.0,
                      "default-scale1" : 1.0,
                      "default-stroke-color-red" : 0.0,
                      "default-stroke-width" : 6.0,
                      "default-translation0" : 0.0,
                      "default-translation1" : 0.0
                    },
                    "animationTracks" : {

                    }
                  },
                  {
                    "id" : 256,
                    "_type" : "IMFile",
                    "src" : 1,
                    "trackNumber" : 0,
                    "trimStartSum" : 0,
                    "attributes" : {
                      "ident" : "MSDN 0xC0000043"
                    },
                    "parameters" : {
                      "translation0" : {
                        "type" : "double",
                        "defaultValue" : 2.12443396208073e-10,
                        "keyframes" : [
                          {
                            "endTime" : 65,
                            "time" : 36,
                            "value" : -49.1773375653712,
                            "duration" : 29
                          }
                        ]
                      },
                      "translation1" : {
                        "type" : "double",
                        "defaultValue" : 1.92392768383343e-10,
                        "keyframes" : [
                          {
                            "endTime" : 65,
                            "time" : 36,
                            "value" : -218.749066433541,
                            "duration" : 29
                          }
                        ]
                      },
                      "scale0" : {
                        "type" : "double",
                        "defaultValue" : 0.999999999999939,
                        "keyframes" : [
                          {
                            "endTime" : 65,
                            "time" : 36,
                            "value" : 1.4089804054429,
                            "duration" : 29
                          }
                        ]
                      },
                      "scale1" : {
                        "type" : "double",
                        "defaultValue" : 0.999999999999939,
                        "keyframes" : [
                          {
                            "endTime" : 65,
                            "time" : 36,
                            "value" : 1.40898058344648,
                            "duration" : 29
                          }
                        ]
                      }
                    },
                    "effects" : [
                        {
                          "_type" : "GenericBehaviorEffect",
                          "effectName" : "fade",
                          "start" : 0,
                          "duration" : 150                        ,
                          "in" : {
                            "attributes" : {
                              "name" : "hinge",
                              "type" : 0,
                              "characterOrder" : 6,
                              "offsetBetweenCharacters" : "3/2",
                              "suggestedDurationPerCharacter" : "3599/100",
                              "overlapProportion" : "1/3",
                              "movement" : 0,
                              "springDamping" : 5.0,
                              "springStiffness" : 50.0,
                              "bounceBounciness" : 0.45
                            },
                            "parameters" : {
                              "direction" : {
                                "type" : "int",
                                "valueBounds" : {
                                  "minValue" : 0,
                                  "maxValue" : 3,
                                  "defaultValue" : 3
                                },
                                "uiHints" : {
                                  "userInterfaceType" : 2,
                                  "unitType" : 0
                                },
                                "keyframes" : [
                                  {
                                    "endTime" : 0,
                                    "time" : 0,
                                    "value" : 1,
                                    "duration" : 0
                                  }
                                ]
                              }
                            }
                          
                          },
                          "center" : {
                            "attributes" : {
                              "name" : "none",
                              "type" : 0,
                              "characterOrder" : 6,
                              "offsetBetweenCharacters" : 0,
                              "secondsPerLoop" : 1,
                              "numberOfLoops" : -1,
                              "delayBetweenLoops" : 0,
                              "offsetBetweenCharacters" : 0
                            }
                          
                          },
                          "out" : {
                            "attributes" : {
                              "name" : "fadeOut",
                              "type" : 0,
                              "characterOrder" : 6,
                              "offsetBetweenCharacters" : "3/2",
                              "suggestedDurationPerCharacter" : 30,
                              "overlapProportion" : 0,
                              "movement" : 0,
                              "springDamping" : 5.0,
                              "springStiffness" : 50.0,
                              "bounceBounciness" : 0.45
                            }
                          
                          },
                          "metadata" : {
                            "default-behavior-in-direction" : 3,
                            "default-behavior-in-duration" : 73.5,
                            "default-behavior-in-movement" : 30.0,
                            "default-behavior-in-style" : "fadeIn"
                          }
                        }
                    ],
                    "start" : 1682,
                    "duration" : 150,
                    "mediaStart" : 0,
                    "mediaDuration" : 1,
                    "scalar" : 1,
                    "metadata" : {
                      "WinSubProjectDisplayName" : "",
                      "clipSpeedAttribute" : false,
                      "default-scale0" : 0.75,
                      "default-scale1" : 0.75,
                      "default-translation0" : 0.0,
                      "default-translation1" : 0.0
                    },
                    "animationTracks" : {
                      "visual" : [
                        {
                          "endTime" : 65,
                          "duration" : 29,
                          "range" : [ 36, 29]
                        }
                      ]
                    }
                  },
                  {
                    "id" : 257,
                    "_type" : "Callout",
                    "def" : {
                      "kind" : "remix",
                      "shape" : "shape-rectangle",
                      "style" : "basic",
                      "fill-color-blue" : 1.0,
                      "fill-color-green" : 1.0,
                      "fill-color-opacity" : 0.0,
                      "fill-color-red" : 1.0,
                      "height" : 186.666666666782,
                      "stroke-color-blue" : 0.2,
                      "stroke-color-green" : 0.2,
                      "stroke-color-opacity" : 1.0,
                      "stroke-color-red" : 1.0,
                      "stroke-width" : 15.0,
                      "width" : 2124.06047372894,
                      "fill-style" : "solid",
                      "horizontal-alignment" : "center",
                      "stroke-style" : "solid",
                      "vertical-alignment" : "center",
                      "textAttributes" : {
                        "type" : "textAttributeList",
                        "keyframes" : [
                          {
                            "endTime" : 0,
                            "time" : 0,
                            "value" : null,
                            "duration" : 0
                          }
                        ]
                      }
                    },
                    "attributes" : {
                      "autoRotateText" : true
                    },
                    "parameters" : {
                      "translation0" : -189.842758663511,
                      "translation1" : 510.039682540069
                    },
                    "effects" : [
                        {
                          "effectName" : "DropShadow",
                          "category" : "categoryVisualEffects",
                          "parameters" : {
                            "angle" : 5.49778714378214,
                            "blur" : 10.0,
                            "color-alpha" : 1.0,
                            "color-blue" : 0.1216,
                            "color-green" : 0.1216,
                            "color-red" : 0.1216,
                            "enabled" : 1,
                            "offset" : 10.0,
                            "opacity" : 0.4
                          }
                        }
                    ],
                    "start" : 2262,
                    "duration" : 174,
                    "mediaStart" : 2,
                    "mediaDuration" : 174,
                    "scalar" : 1,
                    "metadata" : {
                      "WinSubProjectDisplayName" : "",
                      "clipSpeedAttribute" : false,
                      "default-callout-shape" : "shape-rectangle",
                      "default-fill-color-blue" : 0.0,
                      "default-fill-color-green" : 0.0,
                      "default-fill-color-red" : 0.0,
                      "default-stroke-color-blue" : 0.0,
                      "default-stroke-color-green" : 0.0,
                      "default-stroke-color-red" : 0.0,
                      "default-stroke-width" : 6.0,
                      "default-translation0" : 0.0,
                      "default-translation1" : 0.0
                    },
                    "animationTracks" : {

                    }
                  },
                  {
                    "id" : 258,
                    "_type" : "Callout",
                    "def" : {
                      "kind" : "remix",
                      "shape" : "shape-rectangle",
                      "style" : "basic",
                      "fill-color-blue" : 0.0,
                      "fill-color-green" : 0.0,
                      "fill-color-opacity" : 0.0,
                      "fill-color-red" : 0.0,
                      "height" : 83.3333333333413,
                      "stroke-color-blue" : 0.0,
                      "stroke-color-green" : 0.0,
                      "stroke-color-opacity" : 1.0,
                      "stroke-color-red" : 1.0,
                      "stroke-width" : 12.0,
                      "width" : 181.56841777426,
                      "fill-style" : "solid",
                      "horizontal-alignment" : "center",
                      "stroke-style" : "solid",
                      "vertical-alignment" : "center",
                      "textAttributes" : {
                        "type" : "textAttributeList",
                        "keyframes" : [
                          {
                            "endTime" : 0,
                            "time" : 0,
                            "value" : null,
                            "duration" : 0
                          }
                        ]
                      }
                    },
                    "attributes" : {
                      "autoRotateText" : true
                    },
                    "parameters" : {
                      "translation0" : -1190.9381717471,
                      "translation1" : -446.803445445727
                    },
                    "effects" : [
                        {
                          "effectName" : "DropShadow",
                          "category" : "categoryVisualEffects",
                          "parameters" : {
                            "angle" : 5.49778714378214,
                            "blur" : 10.0,
                            "color-alpha" : 1.0,
                            "color-blue" : 0.1216,
                            "color-green" : 0.1216,
                            "color-red" : 0.1216,
                            "enabled" : 1,
                            "offset" : 10.0,
                            "opacity" : 0.4
                          }
                        }
                    ],
                    "start" : 2436,
                    "duration" : 54,
                    "mediaStart" : 0,
                    "mediaDuration" : 54,
                    "scalar" : 1,
                    "metadata" : {
                      "WinSubProjectDisplayName" : "",
                      "clipSpeedAttribute" : false,
                      "default-callout-shape" : "shape-rectangle",
                      "default-stroke-color-red" : 0.0,
                      "default-stroke-width" : 6.0,
                      "default-translation0" : 0.0,
                      "default-translation1" : 0.0
                    },
                    "animationTracks" : {

                    }
                  },
                  {
                    "id" : 259,
                    "_type" : "Callout",
                    "def" : {
                      "kind" : "remix",
                      "shape" : "shape-rectangle",
                      "style" : "basic",
                      "fill-color-blue" : 0.0,
                      "fill-color-green" : 0.0,
                      "fill-color-opacity" : 0.0,
                      "fill-color-red" : 0.0,
                      "height" : 92.3015873016311,
                      "stroke-color-blue" : 0.0,
                      "stroke-color-green" : 0.0,
                      "stroke-color-opacity" : 1.0,
                      "stroke-color-red" : 1.0,
                      "stroke-width" : 12.0,
                      "width" : 1734.41317409824,
                      "fill-style" : "solid",
                      "horizontal-alignment" : "center",
                      "stroke-style" : "solid",
                      "vertical-alignment" : "center",
                      "textAttributes" : {
                        "type" : "textAttributeList",
                        "keyframes" : [
                          {
                            "endTime" : 0,
                            "time" : 0,
                            "value" : null,
                            "duration" : 0
                          }
                        ]
                      }
                    },
                    "attributes" : {
                      "autoRotateText" : true
                    },
                    "parameters" : {
                      "translation0" : -376.729900542405,
                      "translation1" : 513.412698413274
                    },
                    "effects" : [
                        {
                          "effectName" : "DropShadow",
                          "category" : "categoryVisualEffects",
                          "parameters" : {
                            "angle" : 5.49778714378214,
                            "blur" : 10.0,
                            "color-alpha" : 1.0,
                            "color-blue" : 0.1216,
                            "color-green" : 0.1216,
                            "color-red" : 0.1216,
                            "enabled" : 1,
                            "offset" : 10.0,
                            "opacity" : 0.4
                          }
                        }
                    ],
                    "start" : 2509,
                    "duration" : 151,
                    "mediaStart" : 2,
                    "mediaDuration" : 151,
                    "scalar" : 1,
                    "metadata" : {
                      "WinSubProjectDisplayName" : "",
                      "clipSpeedAttribute" : false,
                      "default-callout-shape" : "shape-rectangle",
                      "default-stroke-color-red" : 0.0,
                      "default-stroke-width" : 6.0,
                      "default-translation0" : 0.0,
                      "default-translation1" : 0.0
                    },
                    "animationTracks" : {

                    }
                  },
                  {
                    "id" : 260,
                    "_type" : "Callout",
                    "def" : {
                      "kind" : "remix",
                      "shape" : "shape-rectangle",
                      "style" : "basic",
                      "fill-color-blue" : 0.0,
                      "fill-color-green" : 0.0,
                      "fill-color-opacity" : 0.0,
                      "fill-color-red" : 0.0,
                      "height" : 83.3333333333413,
                      "stroke-color-blue" : 0.0,
                      "stroke-color-green" : 0.0,
                      "stroke-color-opacity" : 1.0,
                      "stroke-color-red" : 1.0,
                      "stroke-width" : 12.0,
                      "width" : 1225.75446428587,
                      "fill-style" : "solid",
                      "horizontal-alignment" : "center",
                      "stroke-style" : "solid",
                      "vertical-alignment" : "center",
                      "textAttributes" : {
                        "type" : "textAttributeList",
                        "keyframes" : [
                          {
                            "endTime" : 0,
                            "time" : 0,
                            "value" : null,
                            "duration" : 0
                          }
                        ]
                      }
                    },
                    "attributes" : {
                      "autoRotateText" : true
                    },
                    "parameters" : {
                      "translation0" : -666.519567095912,
                      "translation1" : -442.152282655047
                    },
                    "effects" : [
                        {
                          "effectName" : "DropShadow",
                          "category" : "categoryVisualEffects",
                          "parameters" : {
                            "angle" : 5.49778714378214,
                            "blur" : 10.0,
                            "color-alpha" : 1.0,
                            "color-blue" : 0.1216,
                            "color-green" : 0.1216,
                            "color-red" : 0.1216,
                            "enabled" : 1,
                            "offset" : 10.0,
                            "opacity" : 0.4
                          }
                        }
                    ],
                    "start" : 2665,
                    "duration" : 108,
                    "mediaStart" : 0,
                    "mediaDuration" : 108,
                    "scalar" : 1,
                    "metadata" : {
                      "WinSubProjectDisplayName" : "",
                      "clipSpeedAttribute" : false,
                      "default-callout-shape" : "shape-rectangle",
                      "default-stroke-color-red" : 0.0,
                      "default-stroke-width" : 6.0,
                      "default-translation0" : 0.0,
                      "default-translation1" : 0.0
                    },
                    "animationTracks" : {

                    }
                  },
                  {
                    "id" : 261,
                    "_type" : "Callout",
                    "def" : {
                      "kind" : "remix",
                      "shape" : "shape-rectangle",
                      "style" : "basic",
                      "fill-color-blue" : 0.0,
                      "fill-color-green" : 0.0,
                      "fill-color-opacity" : 0.0,
                      "fill-color-red" : 0.0,
                      "height" : 104.042551920483,
                      "stroke-color-blue" : 0.0,
                      "stroke-color-green" : 0.0,
                      "stroke-color-opacity" : 1.0,
                      "stroke-color-red" : 1.0,
                      "stroke-width" : 15.0,
                      "width" : 1435.77416645807,
                      "fill-style" : "solid",
                      "horizontal-alignment" : "center",
                      "stroke-style" : "solid",
                      "vertical-alignment" : "center",
                      "textAttributes" : {
                        "type" : "textAttributeList",
                        "keyframes" : [
                          {
                            "endTime" : 0,
                            "time" : 0,
                            "value" : null,
                            "duration" : 0
                          }
                        ]
                      }
                    },
                    "attributes" : {
                      "autoRotateText" : true
                    },
                    "parameters" : {
                      "translation0" : -561.081488118023,
                      "translation1" : -0.113981126916263
                    },
                    "effects" : [
                        {
                          "effectName" : "DropShadow",
                          "category" : "categoryVisualEffects",
                          "parameters" : {
                            "angle" : 5.49778714378214,
                            "blur" : 10.0,
                            "color-alpha" : 1.0,
                            "color-blue" : 0.1216,
                            "color-green" : 0.1216,
                            "color-red" : 0.1216,
                            "enabled" : 1,
                            "offset" : 10.0,
                            "opacity" : 0.4
                          }
                        }
                    ],
                    "start" : 2984,
                    "duration" : 151,
                    "mediaStart" : 2,
                    "mediaDuration" : 151,
                    "scalar" : 1,
                    "metadata" : {
                      "WinSubProjectDisplayName" : "",
                      "clipSpeedAttribute" : false,
                      "default-callout-shape" : "shape-rectangle",
                      "default-stroke-color-red" : 0.0,
                      "default-stroke-width" : 6.0,
                      "default-translation0" : 0.0,
                      "default-translation1" : 0.0
                    },
                    "animationTracks" : {

                    }
                  },
                  {
                    "id" : 262,
                    "_type" : "Callout",
                    "def" : {
                      "kind" : "remix",
                      "shape" : "shape-rectangle",
                      "style" : "basic",
                      "fill-color-blue" : 0.0,
                      "fill-color-green" : 0.0,
                      "fill-color-opacity" : 0.0,
                      "fill-color-red" : 0.0,
                      "height" : 261.190476190871,
                      "stroke-color-blue" : 0.0,
                      "stroke-color-green" : 0.0,
                      "stroke-color-opacity" : 1.0,
                      "stroke-color-red" : 1.0,
                      "stroke-width" : 15.0,
                      "width" : 461.285687220513,
                      "fill-style" : "solid",
                      "horizontal-alignment" : "center",
                      "stroke-style" : "solid",
                      "vertical-alignment" : "center",
                      "textAttributes" : {
                        "type" : "textAttributeList",
                        "keyframes" : [
                          {
                            "endTime" : 0,
                            "time" : 0,
                            "value" : null,
                            "duration" : 0
                          }
                        ]
                      }
                    },
                    "attributes" : {
                      "autoRotateText" : true
                    },
                    "parameters" : {
                      "translation0" : -477.196041820348,
                      "translation1" : -291.646403241561
                    },
                    "effects" : [
                        {
                          "effectName" : "DropShadow",
                          "category" : "categoryVisualEffects",
                          "parameters" : {
                            "angle" : 5.49778714378214,
                            "blur" : 10.0,
                            "color-alpha" : 1.0,
                            "color-blue" : 0.1216,
                            "color-green" : 0.1216,
                            "color-red" : 0.1216,
                            "enabled" : 1,
                            "offset" : 10.0,
                            "opacity" : 0.4
                          }
                        }
                    ],
                    "start" : 3284,
                    "duration" : 173,
                    "mediaStart" : -60,
                    "mediaDuration" : 173,
                    "scalar" : 1,
                    "metadata" : {
                      "WinSubProjectDisplayName" : "",
                      "clipSpeedAttribute" : false,
                      "default-callout-shape" : "shape-rectangle",
                      "default-stroke-color-red" : 0.0,
                      "default-stroke-width" : 6.0,
                      "default-translation0" : 0.0,
                      "default-translation1" : 0.0
                    },
                    "animationTracks" : {

                    }
                  },
                  {
                    "id" : 263,
                    "_type" : "Callout",
                    "def" : {
                      "kind" : "remix",
                      "shape" : "text-rectangle",
                      "style" : "basic",
                      "fill-color-blue" : 0.0,
                      "fill-color-green" : 0.0,
                      "fill-color-opacity" : 1.0,
                      "fill-color-red" : 0.6,
                      "height" : 127.617021276464,
                      "line-spacing" : 0.0,
                      "stroke-color-blue" : 0.890196078431372,
                      "stroke-color-green" : 0.870588235294118,
                      "stroke-color-opacity" : 1.0,
                      "stroke-color-red" : 0.847058823529412,
                      "stroke-width" : 2.0,
                      "tail-x" : -433.333333333223,
                      "tail-y" : 41.7331560283921,
                      "width" : 1445.53658536953,
                      "word-wrap" : 1.0,
                      "fill-style" : "solid",
                      "horizontal-alignment" : "center",
                      "resize-behavior" : "resizeText",
                      "stroke-style" : "solid",
                      "text" : "The OS is not protected!",
                      "vertical-alignment" : "center",
                      "font" : {
                        "color-blue" : 0.266666666666667,
                        "color-green" : 0.231372549019608,
                        "color-opacity" : 1.0,
                        "color-red" : 0.184313725490196,
                        "size" : 64.0,
                        "tracking" : 0.0,
                        "name" : "Montserrat",
                        "weight" : "Regular"
                      },
                      "textAttributes" : {
                        "type" : "textAttributeList",
                        "keyframes" : [
                          {
                            "endTime" : 0,
                            "time" : 0,
                            "value" : [{"name":"fontSize","rangeEnd":24,"rangeStart":0,"value":80,"valueType":"double"},{"name":"fgColor","rangeEnd":24,"rangeStart":0,"value":"(255,255,255,255)","valueType":"color"},{"name":"kerning","rangeEnd":24,"rangeStart":0,"value":0,"valueType":"double"},{"name":"fontWeight","rangeEnd":24,"rangeStart":0,"value":400,"valueType":"int"},{"name":"strikethrough","rangeEnd":24,"rangeStart":0,"value":0,"valueType":"int"},{"name":"fontName","rangeEnd":24,"rangeStart":0,"value":"Montserrat","valueType":"string"},{"name":"underline","rangeEnd":24,"rangeStart":0,"value":0,"valueType":"int"},{"name":"fontItalic","rangeEnd":24,"rangeStart":0,"value":0,"valueType":"int"}],
                            "duration" : 0
                          }
                        ]
                      }
                    },
                    "attributes" : {
                      "autoRotateText" : true
                    },
                    "parameters" : {
                      "translation0" : -7.33479943448856e-11,
                      "translation1" : -551.18535326289
                    },
                    "effects" : [
                        {
                          "effectName" : "DropShadow",
                          "category" : "categoryVisualEffects",
                          "parameters" : {
                            "angle" : 5.49778714378214,
                            "blur" : 10.0,
                            "color-alpha" : 1.0,
                            "color-blue" : 0.1216,
                            "color-green" : 0.1216,
                            "color-red" : 0.1216,
                            "enabled" : 1,
                            "offset" : 10.0,
                            "opacity" : 0.4
                          }
                        }
                    ],
                    "start" : 3603,
                    "duration" : 226,
                    "mediaStart" : -85,
                    "mediaDuration" : 226,
                    "scalar" : 1,
                    "metadata" : {
                      "WinSubProjectDisplayName" : "",
                      "clipSpeedAttribute" : false,
                      "default-HAlign" : "center",
                      "default-LineSpace" : 0.0,
                      "default-VAlign" : "center",
                      "default-fill-color-blue" : 1.0,
                      "default-fill-color-green" : 1.0,
                      "default-fill-color-red" : 1.0,
                      "default-scale0" : 1.0,
                      "default-scale1" : 1.0,
                      "default-stroke-color-blue" : 0.56078431372549,
                      "default-stroke-color-green" : 0.686274509803922,
                      "default-stroke-color-red" : 0.0196078431372549,
                      "default-text-attributes" : "[{\"name\":\"fontSize\",\"rangeEnd\":32,\"rangeStart\":0,\"value\":64,\"valueType\":\"double\"},{\"name\":\"fgColor\",\"rangeEnd\":32,\"rangeStart\":0,\"value\":\"(255,255,255,255)\",\"valueType\":\"color\"},{\"name\":\"fontWeight\",\"rangeEnd\":32,\"rangeStart\":0,\"value\":400,\"valueType\":\"int\"},{\"name\":\"fontName\",\"rangeEnd\":32,\"rangeStart\":0,\"value\":\"Montserrat\",\"valueType\":\"string\"},{\"name\":\"fontItalic\",\"rangeEnd\":32,\"rangeStart\":0,\"value\":0,\"valueType\":\"int\"},{\"name\":\"strikethrough\",\"rangeEnd\":32,\"rangeStart\":0,\"value\":0,\"valueType\":\"int\"},{\"name\":\"underline\",\"rangeEnd\":32,\"rangeStart\":0,\"value\":0,\"valueType\":\"int\"}]",
                      "default-translation0" : 0.0,
                      "default-translation1" : 0.0
                    },
                    "animationTracks" : {

                    }
                  }
                ]
              },
              {
                "trackIndex" : 5,
                "medias" : [
                  {
                    "id" : 264,
                    "_type" : "IMFile",
                    "src" : 7,
                    "trackNumber" : 0,
                    "trimStartSum" : -36,
                    "attributes" : {
                      "ident" : "4 new_idea_half_nobackground_mirror"
                    },
                    "parameters" : {
                      "translation0" : 907.359554908294,
                      "translation1" : -136.895348837182,
                      "scale0" : 1.4642060710874,
                      "scale1" : 1.4642060710874
                    },
                    "effects" : [

                    ],
                    "start" : 614,
                    "duration" : 511,
                    "mediaStart" : 0,
                    "mediaDuration" : 1,
                    "scalar" : 1,
                    "metadata" : {
                      "clipSpeedAttribute" : false,
                      "default-scale0" : 1.0,
                      "default-scale1" : 1.0,
                      "default-translation0" : -0.5,
                      "default-translation1" : -0.5
                    },
                    "animationTracks" : {

                    }
                  },
                  {
                    "id" : 265,
                    "_type" : "Callout",
                    "def" : {
                      "kind" : "remix",
                      "shape" : "shape-rectangle",
                      "style" : "basic",
                      "fill-color-blue" : 0.0,
                      "fill-color-green" : 0.0,
                      "fill-color-opacity" : 0.0,
                      "fill-color-red" : 0.0,
                      "height" : 198.095238095269,
                      "stroke-color-blue" : 0.0,
                      "stroke-color-green" : 0.0,
                      "stroke-color-opacity" : 1.0,
                      "stroke-color-red" : 1.0,
                      "stroke-width" : 15.0,
                      "width" : 2455.99255952402,
                      "fill-style" : "solid",
                      "horizontal-alignment" : "center",
                      "stroke-style" : "solid",
                      "vertical-alignment" : "center",
                      "textAttributes" : {
                        "type" : "textAttributeList",
                        "keyframes" : [
                          {
                            "endTime" : 0,
                            "time" : 0,
                            "value" : null,
                            "duration" : 0
                          }
                        ]
                      }
                    },
                    "attributes" : {
                      "autoRotateText" : true
                    },
                    "parameters" : {
                      "translation0" : 7.40104166625372,
                      "translation1" : -255.595238094984
                    },
                    "effects" : [
                        {
                          "effectName" : "DropShadow",
                          "category" : "categoryVisualEffects",
                          "parameters" : {
                            "angle" : 5.49778714378214,
                            "blur" : 10.0,
                            "color-alpha" : 1.0,
                            "color-blue" : 0.1216,
                            "color-green" : 0.1216,
                            "color-red" : 0.1216,
                            "enabled" : 1,
                            "offset" : 10.0,
                            "opacity" : 0.4
                          }
                        }
                    ],
                    "start" : 1747,
                    "duration" : 71,
                    "mediaStart" : 0,
                    "mediaDuration" : 71,
                    "scalar" : 1,
                    "metadata" : {
                      "WinSubProjectDisplayName" : "",
                      "clipSpeedAttribute" : false,
                      "default-callout-shape" : "shape-rectangle",
                      "default-stroke-color-red" : 0.0,
                      "default-stroke-width" : 6.0,
                      "default-translation0" : 0.0,
                      "default-translation1" : 0.0
                    },
                    "animationTracks" : {

                    }
                  },
                  {
                    "id" : 266,
                    "_type" : "AMFile",
                    "src" : 3,
                    "trackNumber" : 0,
                    "attributes" : {
                      "ident" : "Cinematic_Sound_Effects_Impacts_HD-youtube-C7monbiQkZo-251-320--sec 37-40",
                      "gain" : 1.0,
                      "mixToMono" : false
                    },
                      "channelNumber" : "0,1",
                    "effects" : [

                    ],
                    "start" : 2514,
                    "duration" : 90,
                    "mediaStart" : 1139,
                    "mediaDuration" : 90,
                    "scalar" : 1,
                    "metadata" : {
                      "clipSpeedAttribute" : false
                    },
                    "animationTracks" : {

                    }
                  },
                  {
                    "id" : 267,
                    "_type" : "Callout",
                    "def" : {
                      "kind" : "remix",
                      "shape" : "shape-rectangle",
                      "style" : "basic",
                      "fill-color-blue" : 0.0,
                      "fill-color-green" : 0.0,
                      "fill-color-opacity" : 0.0,
                      "fill-color-red" : 0.0,
                      "height" : 108.059777102362,
                      "stroke-color-blue" : 0.0,
                      "stroke-color-green" : 0.0,
                      "stroke-color-opacity" : 1.0,
                      "stroke-color-red" : 1.0,
                      "stroke-width" : 15.0,
                      "width" : 1442.82585507285,
                      "fill-style" : "solid",
                      "horizontal-alignment" : "center",
                      "stroke-style" : "solid",
                      "vertical-alignment" : "center",
                      "textAttributes" : {
                        "type" : "textAttributeList",
                        "keyframes" : [
                          {
                            "endTime" : 0,
                            "time" : 0,
                            "value" : null,
                            "duration" : 0
                          }
                        ]
                      }
                    },
                    "attributes" : {
                      "autoRotateText" : true
                    },
                    "parameters" : {
                      "translation0" : -564.607298104705,
                      "translation1" : 551.585612969132
                    },
                    "effects" : [
                        {
                          "effectName" : "DropShadow",
                          "category" : "categoryVisualEffects",
                          "parameters" : {
                            "angle" : 5.49778714378214,
                            "blur" : 10.0,
                            "color-alpha" : 1.0,
                            "color-blue" : 0.1216,
                            "color-green" : 0.1216,
                            "color-red" : 0.1216,
                            "enabled" : 1,
                            "offset" : 10.0,
                            "opacity" : 0.4
                          }
                        }
                    ],
                    "start" : 2984,
                    "duration" : 151,
                    "mediaStart" : 2,
                    "mediaDuration" : 151,
                    "scalar" : 1,
                    "metadata" : {
                      "WinSubProjectDisplayName" : "",
                      "clipSpeedAttribute" : false,
                      "default-callout-shape" : "shape-rectangle",
                      "default-stroke-color-red" : 0.0,
                      "default-stroke-width" : 6.0,
                      "default-translation0" : 0.0,
                      "default-translation1" : 0.0
                    },
                    "animationTracks" : {

                    }
                  },
                  {
                    "id" : 268,
                    "_type" : "AMFile",
                    "src" : 5,
                    "trackNumber" : 0,
                    "attributes" : {
                      "ident" : "Ticking clock",
                      "gain" : 1.0,
                      "mixToMono" : false
                    },
                      "channelNumber" : "0,1",
                    "parameters" : {
                      "volume" : 0.596546310832024
                    },
                    "effects" : [

                    ],
                    "start" : 3284,
                    "duration" : 173,
                    "mediaStart" : 0,
                    "mediaDuration" : 173,
                    "scalar" : 1,
                    "metadata" : {
                      "clipSpeedAttribute" : false
                    },
                    "animationTracks" : {

                    }
                  },
                  {
                    "id" : 269,
                    "_type" : "AMFile",
                    "src" : 3,
                    "trackNumber" : 0,
                    "attributes" : {
                      "ident" : "Cinematic_Sound_Effects_Impacts_HD-youtube-C7monbiQkZo-251-320--sec 37-40",
                      "gain" : 1.0,
                      "mixToMono" : false
                    },
                      "channelNumber" : "0,1",
                    "parameters" : {
                      "volume" : {
                        "type" : "double",
                        "keyframes" : [
                          {
                            "endTime" : 0,
                            "time" : 0,
                            "value" : 1.0,
                            "duration" : 0
                          },
                          {
                            "endTime" : 732,
                            "time" : 732,
                            "value" : 1.0,
                            "duration" : 0
                          },
                          {
                            "endTime" : 757,
                            "time" : 757,
                            "value" : 0.0,
                            "duration" : 0
                          },
                          {
                            "endTime" : 758,
                            "time" : 758,
                            "value" : 1.0,
                            "duration" : 0
                          }
                        ]
                      }
                    },
                    "effects" : [

                    ],
                    "start" : 3663,
                    "duration" : 166,
                    "mediaStart" : 591,
                    "mediaDuration" : 166,
                    "scalar" : 1,
                    "metadata" : {
                      "clipSpeedAttribute" : false
                    },
                    "animationTracks" : {

                    }
                  }
                ]
              },
              {
                "trackIndex" : 6,
                "medias" : [
                  {
                    "id" : 270,
                    "_type" : "Callout",
                    "def" : {
                      "kind" : "remix",
                      "shape" : "text-rectangle",
                      "style" : "basic",
                      "fill-color-blue" : 0.2,
                      "fill-color-green" : 0.4,
                      "fill-color-opacity" : 1.0,
                      "fill-color-red" : 0.0,
                      "height" : 137.999999999927,
                      "line-spacing" : 0.0,
                      "stroke-color-blue" : 0.890196078431372,
                      "stroke-color-green" : 0.870588235294118,
                      "stroke-color-opacity" : 1.0,
                      "stroke-color-red" : 0.847058823529412,
                      "stroke-width" : 2.0,
                      "tail-x" : -44.2805753761204,
                      "tail-y" : 75.9940476191278,
                      "width" : 2398.27248396897,
                      "word-wrap" : 1.0,
                      "fill-style" : "solid",
                      "horizontal-alignment" : "center",
                      "resize-behavior" : "resizeText",
                      "stroke-style" : "solid",
                      "text" : "The attacker gets 0xC0000043 or STATUS_SHARING_VIOLATION",
                      "vertical-alignment" : "center",
                      "font" : {
                        "color-blue" : 0.266666666666667,
                        "color-green" : 0.231372549019608,
                        "color-opacity" : 1.0,
                        "color-red" : 0.184313725490196,
                        "size" : 64.0,
                        "tracking" : 0.0,
                        "name" : "Montserrat",
                        "weight" : "Regular"
                      },
                      "textAttributes" : {
                        "type" : "textAttributeList",
                        "keyframes" : [
                          {
                            "endTime" : 0,
                            "time" : 0,
                            "value" : [{"name":"kerning","rangeEnd":56,"rangeStart":0,"value":0,"valueType":"double"},{"name":"fgColor","rangeEnd":56,"rangeStart":0,"value":"(255,255,255,255)","valueType":"color"},{"name":"fontWeight","rangeEnd":56,"rangeStart":0,"value":400,"valueType":"int"},{"name":"underline","rangeEnd":56,"rangeStart":0,"value":0,"valueType":"int"},{"name":"strikethrough","rangeEnd":56,"rangeStart":0,"value":0,"valueType":"int"},{"name":"fontSize","rangeEnd":56,"rangeStart":0,"value":75,"valueType":"double"},{"name":"fontName","rangeEnd":56,"rangeStart":0,"value":"Montserrat","valueType":"string"},{"name":"fontItalic","rangeEnd":56,"rangeStart":0,"value":0,"valueType":"int"}],
                            "duration" : 0
                          }
                        ]
                      }
                    },
                    "attributes" : {
                      "autoRotateText" : true
                    },
                    "parameters" : {
                      "translation0" : -28.9590542400004,
                      "translation1" : -578.650297619623
                    },
                    "effects" : [
                        {
                          "effectName" : "DropShadow",
                          "category" : "categoryVisualEffects",
                          "parameters" : {
                            "angle" : 5.49778714378214,
                            "blur" : 10.0,
                            "color-alpha" : 1.0,
                            "color-blue" : 0.1216,
                            "color-green" : 0.1216,
                            "color-red" : 0.1216,
                            "enabled" : 1,
                            "offset" : 10.0,
                            "opacity" : 0.4
                          }
                        }
                    ],
                    "start" : 1747,
                    "duration" : 71,
                    "mediaStart" : -14,
                    "mediaDuration" : 71,
                    "scalar" : 1,
                    "metadata" : {
                      "WinSubProjectDisplayName" : "",
                      "clipSpeedAttribute" : false,
                      "default-HAlign" : "center",
                      "default-LineSpace" : 0.0,
                      "default-VAlign" : "center",
                      "default-fill-color-blue" : 1.0,
                      "default-fill-color-green" : 1.0,
                      "default-fill-color-red" : 1.0,
                      "default-scale0" : 1.0,
                      "default-scale1" : 1.0,
                      "default-stroke-color-blue" : 0.56078431372549,
                      "default-stroke-color-green" : 0.686274509803922,
                      "default-stroke-color-red" : 0.0196078431372549,
                      "default-text-attributes" : "[{\"name\":\"fontSize\",\"rangeEnd\":32,\"rangeStart\":0,\"value\":64,\"valueType\":\"double\"},{\"name\":\"fgColor\",\"rangeEnd\":32,\"rangeStart\":0,\"value\":\"(255,255,255,255)\",\"valueType\":\"color\"},{\"name\":\"fontWeight\",\"rangeEnd\":32,\"rangeStart\":0,\"value\":400,\"valueType\":\"int\"},{\"name\":\"fontName\",\"rangeEnd\":32,\"rangeStart\":0,\"value\":\"Montserrat\",\"valueType\":\"string\"},{\"name\":\"fontItalic\",\"rangeEnd\":32,\"rangeStart\":0,\"value\":0,\"valueType\":\"int\"},{\"name\":\"strikethrough\",\"rangeEnd\":32,\"rangeStart\":0,\"value\":0,\"valueType\":\"int\"},{\"name\":\"underline\",\"rangeEnd\":32,\"rangeStart\":0,\"value\":0,\"valueType\":\"int\"}]",
                      "default-translation0" : 0.0,
                      "default-translation1" : 0.0
                    },
                    "animationTracks" : {

                    }
                  },
                  {
                    "id" : 271,
                    "_type" : "IMFile",
                    "src" : 9,
                    "trackNumber" : 0,
                    "trimStartSum" : 0,
                    "attributes" : {
                      "ident" : "256"
                    },
                    "parameters" : {
                      "translation0" : 1006.94342388315,
                      "translation1" : -213.953488372086,
                      "scale0" : 1.83575581395354,
                      "scale1" : 1.83575581395354
                    },
                    "effects" : [

                    ],
                    "start" : 2162,
                    "duration" : 666,
                    "mediaStart" : 0,
                    "mediaDuration" : 1,
                    "scalar" : 1,
                    "metadata" : {
                      "clipSpeedAttribute" : false,
                      "default-scale0" : 1.0,
                      "default-scale1" : 1.0,
                      "default-translation0" : 0.0,
                      "default-translation1" : 0.0
                    },
                    "animationTracks" : {

                    }
                  },
                  {
                    "id" : 272,
                    "_type" : "AMFile",
                    "src" : 3,
                    "trackNumber" : 0,
                    "attributes" : {
                      "ident" : "Cinematic_Sound_Effects_Impacts_HD-youtube-C7monbiQkZo-251-320--sec 37-40",
                      "gain" : 1.0,
                      "mixToMono" : false
                    },
                      "channelNumber" : "0,1",
                    "effects" : [

                    ],
                    "start" : 2976,
                    "duration" : 90,
                    "mediaStart" : 1139,
                    "mediaDuration" : 90,
                    "scalar" : 1,
                    "metadata" : {
                      "clipSpeedAttribute" : false
                    },
                    "animationTracks" : {

                    }
                  },
                  {
                    "id" : 273,
                    "_type" : "IMFile",
                    "src" : 9,
                    "trackNumber" : 0,
                    "trimStartSum" : 0,
                    "attributes" : {
                      "ident" : "256"
                    },
                    "parameters" : {
                      "translation0" : -23.2558144304471,
                      "translation1" : -316.279069767475,
                      "scale0" : 1.52688953488312,
                      "scale1" : 1.52688953488312
                    },
                    "effects" : [

                    ],
                    "start" : 3603,
                    "duration" : 226,
                    "mediaStart" : 0,
                    "mediaDuration" : 1,
                    "scalar" : 1,
                    "metadata" : {
                      "clipSpeedAttribute" : false,
                      "default-scale0" : 1.0,
                      "default-scale1" : 1.0,
                      "default-translation0" : 0.0,
                      "default-translation1" : 0.0
                    },
                    "animationTracks" : {

                    }
                  }
                ],
                "transitions" : [
                  {
                    "name" : "Fade",
                    "duration" : 60,
                    "trivial" : false,
                    "reverse" : false,
                    "useAudioPreRoll" : true,
                    "useVisualPreRoll" : true,
                    "rightMedia" : 273
                  }
                ]
              },
              {
                "trackIndex" : 7,
                "medias" : [
                  {
                    "id" : 274,
                    "_type" : "IMFile",
                    "src" : 9,
                    "trackNumber" : 0,
                    "trimStartSum" : 0,
                    "attributes" : {
                      "ident" : "256"
                    },
                    "parameters" : {
                      "translation0" : 1006.94342388315,
                      "translation1" : -269.767441860499,
                      "scale0" : 1.83575581395354,
                      "scale1" : 1.83575581395354
                    },
                    "effects" : [

                    ],
                    "start" : 1486,
                    "duration" : 208,
                    "mediaStart" : 0,
                    "mediaDuration" : 1,
                    "scalar" : 1,
                    "metadata" : {
                      "clipSpeedAttribute" : false,
                      "default-scale0" : 1.0,
                      "default-scale1" : 1.0,
                      "default-translation0" : 0.0,
                      "default-translation1" : 0.0
                    },
                    "animationTracks" : {

                    }
                  },
                  {
                    "id" : 275,
                    "_type" : "IMFile",
                    "src" : 9,
                    "trackNumber" : 0,
                    "trimStartSum" : 0,
                    "attributes" : {
                      "ident" : "256"
                    },
                    "parameters" : {
                      "translation0" : 1006.94342388315,
                      "translation1" : -213.953488372086,
                      "scale0" : 1.83575581395354,
                      "scale1" : 1.83575581395354
                    },
                    "effects" : [

                    ],
                    "start" : 1832,
                    "duration" : 130,
                    "mediaStart" : 0,
                    "mediaDuration" : 1,
                    "scalar" : 1,
                    "metadata" : {
                      "clipSpeedAttribute" : false,
                      "default-scale0" : 1.0,
                      "default-scale1" : 1.0,
                      "default-translation0" : 0.0,
                      "default-translation1" : 0.0
                    },
                    "animationTracks" : {

                    }
                  },
                  {
                    "id" : 276,
                    "_type" : "VMFile",
                    "src" : 10,
                    "trackNumber" : 0,
                    "attributes" : {
                      "ident" : "ezgif-3-86c503cbd005"
                    },
                    "parameters" : {
                      "translation0" : 1075.58139534877,
                      "translation1" : -197.67441860467,
                      "scale0" : 0.6,
                      "scale1" : 0.6
                    },
                    "effects" : [

                    ],
                    "start" : 2508,
                    "duration" : 27,
                    "mediaStart" : 0,
                    "mediaDuration" : 27,
                    "scalar" : 1,
                    "metadata" : {
                      "clipSpeedAttribute" : false,
                      "default-scale0" : 1.0,
                      "default-scale1" : 1.0,
                      "default-translation0" : 0.0,
                      "default-translation1" : 0.0
                    },
                    "animationTracks" : {

                    }
                  },
                  {
                    "id" : 277,
                    "_type" : "VMFile",
                    "src" : 10,
                    "trackNumber" : 0,
                    "attributes" : {
                      "ident" : "ezgif-3-86c503cbd005"
                    },
                    "parameters" : {
                      "translation0" : 1075.58139534877,
                      "translation1" : -197.67441860467,
                      "scale0" : 0.6,
                      "scale1" : 0.6
                    },
                    "effects" : [

                    ],
                    "start" : 2535,
                    "duration" : 27,
                    "mediaStart" : 0,
                    "mediaDuration" : 27,
                    "scalar" : 1,
                    "metadata" : {
                      "clipSpeedAttribute" : false,
                      "default-scale0" : 1.0,
                      "default-scale1" : 1.0,
                      "default-translation0" : 0.0,
                      "default-translation1" : 0.0
                    },
                    "animationTracks" : {

                    }
                  },
                  {
                    "id" : 278,
                    "_type" : "VMFile",
                    "src" : 10,
                    "trackNumber" : 0,
                    "attributes" : {
                      "ident" : "ezgif-3-86c503cbd005"
                    },
                    "parameters" : {
                      "translation0" : 1075.58139534877,
                      "translation1" : -197.67441860467,
                      "scale0" : 0.6,
                      "scale1" : 0.6
                    },
                    "effects" : [

                    ],
                    "start" : 2562,
                    "duration" : 27,
                    "mediaStart" : 0,
                    "mediaDuration" : 27,
                    "scalar" : 1,
                    "metadata" : {
                      "clipSpeedAttribute" : false,
                      "default-scale0" : 1.0,
                      "default-scale1" : 1.0,
                      "default-translation0" : 0.0,
                      "default-translation1" : 0.0
                    },
                    "animationTracks" : {

                    }
                  },
                  {
                    "id" : 279,
                    "_type" : "VMFile",
                    "src" : 10,
                    "trackNumber" : 0,
                    "attributes" : {
                      "ident" : "ezgif-3-86c503cbd005"
                    },
                    "parameters" : {
                      "translation0" : 1075.58139534877,
                      "translation1" : -197.67441860467,
                      "scale0" : 0.6,
                      "scale1" : 0.6
                    },
                    "effects" : [

                    ],
                    "start" : 2589,
                    "duration" : 27,
                    "mediaStart" : 0,
                    "mediaDuration" : 27,
                    "scalar" : 1,
                    "metadata" : {
                      "clipSpeedAttribute" : false,
                      "default-scale0" : 1.0,
                      "default-scale1" : 1.0,
                      "default-translation0" : 0.0,
                      "default-translation1" : 0.0
                    },
                    "animationTracks" : {

                    }
                  },
                  {
                    "id" : 280,
                    "_type" : "VMFile",
                    "src" : 10,
                    "trackNumber" : 0,
                    "attributes" : {
                      "ident" : "ezgif-3-86c503cbd005"
                    },
                    "parameters" : {
                      "translation0" : 1075.58139534877,
                      "translation1" : -197.67441860467,
                      "scale0" : 0.6,
                      "scale1" : 0.6
                    },
                    "effects" : [

                    ],
                    "start" : 2616,
                    "duration" : 27,
                    "mediaStart" : 0,
                    "mediaDuration" : 27,
                    "scalar" : 1,
                    "metadata" : {
                      "clipSpeedAttribute" : false,
                      "default-scale0" : 1.0,
                      "default-scale1" : 1.0,
                      "default-translation0" : 0.0,
                      "default-translation1" : 0.0
                    },
                    "animationTracks" : {

                    }
                  },
                  {
                    "id" : 281,
                    "_type" : "VMFile",
                    "src" : 10,
                    "trackNumber" : 0,
                    "attributes" : {
                      "ident" : "ezgif-3-86c503cbd005"
                    },
                    "parameters" : {
                      "translation0" : 1075.58139534877,
                      "translation1" : -197.67441860467,
                      "scale0" : 0.6,
                      "scale1" : 0.6
                    },
                    "effects" : [

                    ],
                    "start" : 2643,
                    "duration" : 27,
                    "mediaStart" : 0,
                    "mediaDuration" : 27,
                    "scalar" : 1,
                    "metadata" : {
                      "clipSpeedAttribute" : false,
                      "default-scale0" : 1.0,
                      "default-scale1" : 1.0,
                      "default-translation0" : 0.0,
                      "default-translation1" : 0.0
                    },
                    "animationTracks" : {

                    }
                  },
                  {
                    "id" : 282,
                    "_type" : "IMFile",
                    "src" : 7,
                    "trackNumber" : 0,
                    "trimStartSum" : -37,
                    "attributes" : {
                      "ident" : "4 new_idea_half_nobackground_mirror"
                    },
                    "parameters" : {
                      "translation0" : 686.429322350103,
                      "translation1" : -171.779069767426,
                      "scale0" : 1.4642060710874,
                      "scale1" : 1.4642060710874
                    },
                    "effects" : [

                    ],
                    "start" : 2933,
                    "duration" : 45,
                    "mediaStart" : 0,
                    "mediaDuration" : 1,
                    "scalar" : 1,
                    "metadata" : {
                      "clipSpeedAttribute" : false,
                      "default-scale0" : 1.0,
                      "default-scale1" : 1.0,
                      "default-translation0" : -0.5,
                      "default-translation1" : -0.5
                    },
                    "animationTracks" : {

                    }
                  },
                  {
                    "id" : 283,
                    "_type" : "IMFile",
                    "src" : 8,
                    "trackNumber" : 0,
                    "trimStartSum" : 0,
                    "attributes" : {
                      "ident" : "Problem_original"
                    },
                    "parameters" : {
                      "translation0" : 499.999999999898,
                      "translation1" : -139.13621480463,
                      "scale0" : 1.71765988372095,
                      "scale1" : 1.71765988372095
                    },
                    "effects" : [

                    ],
                    "start" : 2978,
                    "duration" : 157,
                    "mediaStart" : 0,
                    "mediaDuration" : 1,
                    "scalar" : 1,
                    "metadata" : {
                      "clipSpeedAttribute" : false,
                      "default-scale0" : 1.0,
                      "default-scale1" : 1.0,
                      "default-translation0" : 0.0,
                      "default-translation1" : 0.0
                    },
                    "animationTracks" : {

                    }
                  },
                  {
                    "id" : 284,
                    "_type" : "VMFile",
                    "src" : 10,
                    "trackNumber" : 0,
                    "attributes" : {
                      "ident" : "ezgif-3-86c503cbd005"
                    },
                    "parameters" : {
                      "translation0" : 38.3720930233241,
                      "translation1" : -299.999999999989,
                      "scale0" : 0.55,
                      "scale1" : 0.55
                    },
                    "effects" : [

                    ],
                    "start" : 3717,
                    "duration" : 27,
                    "mediaStart" : 0,
                    "mediaDuration" : 27,
                    "scalar" : 1,
                    "metadata" : {
                      "clipSpeedAttribute" : false,
                      "default-scale0" : 1.0,
                      "default-scale1" : 1.0,
                      "default-translation0" : 0.0,
                      "default-translation1" : 0.0
                    },
                    "animationTracks" : {

                    }
                  },
                  {
                    "id" : 285,
                    "_type" : "VMFile",
                    "src" : 10,
                    "trackNumber" : 0,
                    "attributes" : {
                      "ident" : "ezgif-3-86c503cbd005"
                    },
                    "parameters" : {
                      "translation0" : 38.3720930233241,
                      "translation1" : -299.999999999989,
                      "scale0" : 0.55,
                      "scale1" : 0.55
                    },
                    "effects" : [

                    ],
                    "start" : 3744,
                    "duration" : 27,
                    "mediaStart" : 0,
                    "mediaDuration" : 27,
                    "scalar" : 1,
                    "metadata" : {
                      "clipSpeedAttribute" : false,
                      "default-scale0" : 1.0,
                      "default-scale1" : 1.0,
                      "default-translation0" : 0.0,
                      "default-translation1" : 0.0
                    },
                    "animationTracks" : {

                    }
                  },
                  {
                    "id" : 286,
                    "_type" : "VMFile",
                    "src" : 10,
                    "trackNumber" : 0,
                    "attributes" : {
                      "ident" : "ezgif-3-86c503cbd005"
                    },
                    "parameters" : {
                      "translation0" : 38.3720930233241,
                      "translation1" : -299.999999999989,
                      "scale0" : 0.55,
                      "scale1" : 0.55
                    },
                    "effects" : [

                    ],
                    "start" : 3771,
                    "duration" : 27,
                    "mediaStart" : 0,
                    "mediaDuration" : 27,
                    "scalar" : 1,
                    "metadata" : {
                      "clipSpeedAttribute" : false,
                      "default-scale0" : 1.0,
                      "default-scale1" : 1.0,
                      "default-translation0" : 0.0,
                      "default-translation1" : 0.0
                    },
                    "animationTracks" : {

                    }
                  },
                  {
                    "id" : 287,
                    "_type" : "VMFile",
                    "src" : 10,
                    "trackNumber" : 0,
                    "attributes" : {
                      "ident" : "ezgif-3-86c503cbd005"
                    },
                    "parameters" : {
                      "translation0" : 38.3720930233241,
                      "translation1" : -299.999999999989,
                      "scale0" : 0.55,
                      "scale1" : 0.55
                    },
                    "effects" : [

                    ],
                    "start" : 3798,
                    "duration" : 27,
                    "mediaStart" : 0,
                    "mediaDuration" : 27,
                    "scalar" : 1,
                    "metadata" : {
                      "clipSpeedAttribute" : false,
                      "default-scale0" : 1.0,
                      "default-scale1" : 1.0,
                      "default-translation0" : 0.0,
                      "default-translation1" : 0.0
                    },
                    "animationTracks" : {

                    }
                  },
                  {
                    "id" : 288,
                    "_type" : "VMFile",
                    "src" : 10,
                    "trackNumber" : 0,
                    "attributes" : {
                      "ident" : "ezgif-3-86c503cbd005"
                    },
                    "parameters" : {
                      "translation0" : 38.3720930233241,
                      "translation1" : -299.999999999989,
                      "scale0" : 0.55,
                      "scale1" : 0.55
                    },
                    "effects" : [

                    ],
                    "start" : 3825,
                    "duration" : 3,
                    "mediaStart" : 0,
                    "mediaDuration" : 3,
                    "scalar" : 1,
                    "metadata" : {
                      "clipSpeedAttribute" : false,
                      "default-scale0" : 1.0,
                      "default-scale1" : 1.0,
                      "default-translation0" : 0.0,
                      "default-translation1" : 0.0
                    },
                    "animationTracks" : {

                    }
                  }
                ]
              },
              {
                "trackIndex" : 8,
                "medias" : [
                  {
                    "id" : 289,
                    "_type" : "VMFile",
                    "src" : 10,
                    "trackNumber" : 0,
                    "attributes" : {
                      "ident" : "ezgif-3-86c503cbd005"
                    },
                    "parameters" : {
                      "translation0" : 938.37209302323,
                      "translation1" : -197.67441860467,
                      "scale0" : 0.6,
                      "scale1" : 0.6
                    },
                    "effects" : [

                    ],
                    "start" : 2508,
                    "duration" : 27,
                    "mediaStart" : 0,
                    "mediaDuration" : 27,
                    "scalar" : 1,
                    "metadata" : {
                      "clipSpeedAttribute" : false,
                      "default-scale0" : 1.0,
                      "default-scale1" : 1.0,
                      "default-translation0" : 0.0,
                      "default-translation1" : 0.0
                    },
                    "animationTracks" : {

                    }
                  },
                  {
                    "id" : 290,
                    "_type" : "VMFile",
                    "src" : 10,
                    "trackNumber" : 0,
                    "attributes" : {
                      "ident" : "ezgif-3-86c503cbd005"
                    },
                    "parameters" : {
                      "translation0" : 938.37209302323,
                      "translation1" : -197.67441860467,
                      "scale0" : 0.6,
                      "scale1" : 0.6
                    },
                    "effects" : [

                    ],
                    "start" : 2535,
                    "duration" : 27,
                    "mediaStart" : 0,
                    "mediaDuration" : 27,
                    "scalar" : 1,
                    "metadata" : {
                      "clipSpeedAttribute" : false,
                      "default-scale0" : 1.0,
                      "default-scale1" : 1.0,
                      "default-translation0" : 0.0,
                      "default-translation1" : 0.0
                    },
                    "animationTracks" : {

                    }
                  },
                  {
                    "id" : 291,
                    "_type" : "VMFile",
                    "src" : 10,
                    "trackNumber" : 0,
                    "attributes" : {
                      "ident" : "ezgif-3-86c503cbd005"
                    },
                    "parameters" : {
                      "translation0" : 938.37209302323,
                      "translation1" : -197.67441860467,
                      "scale0" : 0.6,
                      "scale1" : 0.6
                    },
                    "effects" : [

                    ],
                    "start" : 2562,
                    "duration" : 27,
                    "mediaStart" : 0,
                    "mediaDuration" : 27,
                    "scalar" : 1,
                    "metadata" : {
                      "clipSpeedAttribute" : false,
                      "default-scale0" : 1.0,
                      "default-scale1" : 1.0,
                      "default-translation0" : 0.0,
                      "default-translation1" : 0.0
                    },
                    "animationTracks" : {

                    }
                  },
                  {
                    "id" : 292,
                    "_type" : "VMFile",
                    "src" : 10,
                    "trackNumber" : 0,
                    "attributes" : {
                      "ident" : "ezgif-3-86c503cbd005"
                    },
                    "parameters" : {
                      "translation0" : 938.37209302323,
                      "translation1" : -197.67441860467,
                      "scale0" : 0.6,
                      "scale1" : 0.6
                    },
                    "effects" : [

                    ],
                    "start" : 2589,
                    "duration" : 27,
                    "mediaStart" : 0,
                    "mediaDuration" : 27,
                    "scalar" : 1,
                    "metadata" : {
                      "clipSpeedAttribute" : false,
                      "default-scale0" : 1.0,
                      "default-scale1" : 1.0,
                      "default-translation0" : 0.0,
                      "default-translation1" : 0.0
                    },
                    "animationTracks" : {

                    }
                  },
                  {
                    "id" : 293,
                    "_type" : "VMFile",
                    "src" : 10,
                    "trackNumber" : 0,
                    "attributes" : {
                      "ident" : "ezgif-3-86c503cbd005"
                    },
                    "parameters" : {
                      "translation0" : 938.37209302323,
                      "translation1" : -197.67441860467,
                      "scale0" : 0.6,
                      "scale1" : 0.6
                    },
                    "effects" : [

                    ],
                    "start" : 2616,
                    "duration" : 27,
                    "mediaStart" : 0,
                    "mediaDuration" : 27,
                    "scalar" : 1,
                    "metadata" : {
                      "clipSpeedAttribute" : false,
                      "default-scale0" : 1.0,
                      "default-scale1" : 1.0,
                      "default-translation0" : 0.0,
                      "default-translation1" : 0.0
                    },
                    "animationTracks" : {

                    }
                  },
                  {
                    "id" : 294,
                    "_type" : "VMFile",
                    "src" : 10,
                    "trackNumber" : 0,
                    "attributes" : {
                      "ident" : "ezgif-3-86c503cbd005"
                    },
                    "parameters" : {
                      "translation0" : 938.37209302323,
                      "translation1" : -197.67441860467,
                      "scale0" : 0.6,
                      "scale1" : 0.6
                    },
                    "effects" : [

                    ],
                    "start" : 2643,
                    "duration" : 27,
                    "mediaStart" : 0,
                    "mediaDuration" : 27,
                    "scalar" : 1,
                    "metadata" : {
                      "clipSpeedAttribute" : false,
                      "default-scale0" : 1.0,
                      "default-scale1" : 1.0,
                      "default-translation0" : 0.0,
                      "default-translation1" : 0.0
                    },
                    "animationTracks" : {

                    }
                  },
                  {
                    "id" : 295,
                    "_type" : "VMFile",
                    "src" : 10,
                    "trackNumber" : 0,
                    "attributes" : {
                      "ident" : "ezgif-3-86c503cbd005"
                    },
                    "parameters" : {
                      "translation0" : -77.9069767441262,
                      "translation1" : -299.999999999989,
                      "scale0" : 0.55,
                      "scale1" : 0.55
                    },
                    "effects" : [

                    ],
                    "start" : 3717,
                    "duration" : 27,
                    "mediaStart" : 0,
                    "mediaDuration" : 27,
                    "scalar" : 1,
                    "metadata" : {
                      "clipSpeedAttribute" : false,
                      "default-scale0" : 1.0,
                      "default-scale1" : 1.0,
                      "default-translation0" : 0.0,
                      "default-translation1" : 0.0
                    },
                    "animationTracks" : {

                    }
                  },
                  {
                    "id" : 296,
                    "_type" : "VMFile",
                    "src" : 10,
                    "trackNumber" : 0,
                    "attributes" : {
                      "ident" : "ezgif-3-86c503cbd005"
                    },
                    "parameters" : {
                      "translation0" : -77.9069767441262,
                      "translation1" : -299.999999999989,
                      "scale0" : 0.55,
                      "scale1" : 0.55
                    },
                    "effects" : [

                    ],
                    "start" : 3744,
                    "duration" : 27,
                    "mediaStart" : 0,
                    "mediaDuration" : 27,
                    "scalar" : 1,
                    "metadata" : {
                      "clipSpeedAttribute" : false,
                      "default-scale0" : 1.0,
                      "default-scale1" : 1.0,
                      "default-translation0" : 0.0,
                      "default-translation1" : 0.0
                    },
                    "animationTracks" : {

                    }
                  },
                  {
                    "id" : 297,
                    "_type" : "VMFile",
                    "src" : 10,
                    "trackNumber" : 0,
                    "attributes" : {
                      "ident" : "ezgif-3-86c503cbd005"
                    },
                    "parameters" : {
                      "translation0" : -77.9069767441262,
                      "translation1" : -299.999999999989,
                      "scale0" : 0.55,
                      "scale1" : 0.55
                    },
                    "effects" : [

                    ],
                    "start" : 3771,
                    "duration" : 27,
                    "mediaStart" : 0,
                    "mediaDuration" : 27,
                    "scalar" : 1,
                    "metadata" : {
                      "clipSpeedAttribute" : false,
                      "default-scale0" : 1.0,
                      "default-scale1" : 1.0,
                      "default-translation0" : 0.0,
                      "default-translation1" : 0.0
                    },
                    "animationTracks" : {

                    }
                  },
                  {
                    "id" : 298,
                    "_type" : "VMFile",
                    "src" : 10,
                    "trackNumber" : 0,
                    "attributes" : {
                      "ident" : "ezgif-3-86c503cbd005"
                    },
                    "parameters" : {
                      "translation0" : -77.9069767441262,
                      "translation1" : -299.999999999989,
                      "scale0" : 0.55,
                      "scale1" : 0.55
                    },
                    "effects" : [

                    ],
                    "start" : 3798,
                    "duration" : 27,
                    "mediaStart" : 0,
                    "mediaDuration" : 27,
                    "scalar" : 1,
                    "metadata" : {
                      "clipSpeedAttribute" : false,
                      "default-scale0" : 1.0,
                      "default-scale1" : 1.0,
                      "default-translation0" : 0.0,
                      "default-translation1" : 0.0
                    },
                    "animationTracks" : {

                    }
                  },
                  {
                    "id" : 299,
                    "_type" : "VMFile",
                    "src" : 10,
                    "trackNumber" : 0,
                    "attributes" : {
                      "ident" : "ezgif-3-86c503cbd005"
                    },
                    "parameters" : {
                      "translation0" : -77.9069767441262,
                      "translation1" : -299.999999999989,
                      "scale0" : 0.55,
                      "scale1" : 0.55
                    },
                    "effects" : [

                    ],
                    "start" : 3825,
                    "duration" : 3,
                    "mediaStart" : 0,
                    "mediaDuration" : 3,
                    "scalar" : 1,
                    "metadata" : {
                      "clipSpeedAttribute" : false,
                      "default-scale0" : 1.0,
                      "default-scale1" : 1.0,
                      "default-translation0" : 0.0,
                      "default-translation1" : 0.0
                    },
                    "animationTracks" : {

                    }
                  }
                ]
              },
              {
                "trackIndex" : 9,
                "medias" : [
                ]
              },
              {
                "trackIndex" : 10,
                "medias" : [
                ]
              },
              {
                "trackIndex" : 11,
                "medias" : [
                ]
              }
            ]
          }
        }
      ]
    },
    "trackAttributes" : [
      {
        "ident" : "",
        "audioMuted" : false,
        "videoHidden" : false,
        "magnetic" : false,
        "matte" : 0,
        "metadata" : {
          "IsLocked" : "False",
          "WinTrackHeight" : "56"
        }
      },
      {
        "ident" : "",
        "audioMuted" : true,
        "videoHidden" : true,
        "magnetic" : false,
        "matte" : 0,
        "metadata" : {
          "IsLocked" : "False",
          "WinTrackHeight" : "56"
        }
      },
      {
        "ident" : "",
        "audioMuted" : false,
        "videoHidden" : false,
        "magnetic" : false,
        "matte" : 0,
        "metadata" : {
          "IsLocked" : "False",
          "WinTrackHeight" : "56"
        }
      },
      {
        "ident" : "",
        "audioMuted" : false,
        "videoHidden" : false,
        "magnetic" : false,
        "matte" : 0,
        "metadata" : {
          "IsLocked" : "False",
          "WinTrackHeight" : "56"
        }
      },
      {
        "ident" : "",
        "audioMuted" : false,
        "videoHidden" : false,
        "magnetic" : false,
        "matte" : 0,
        "metadata" : {
          "IsLocked" : "False",
          "WinTrackHeight" : "56"
        }
      },
      {
        "ident" : "",
        "audioMuted" : false,
        "videoHidden" : false,
        "magnetic" : false,
        "matte" : 0,
        "metadata" : {
          "IsLocked" : "False",
          "WinTrackHeight" : "56"
        }
      },
      {
        "ident" : "",
        "audioMuted" : false,
        "videoHidden" : false,
        "magnetic" : false,
        "matte" : 0,
        "metadata" : {
          "IsLocked" : "False",
          "WinTrackHeight" : "56"
        }
      },
      {
        "ident" : "",
        "audioMuted" : false,
        "videoHidden" : false,
        "magnetic" : false,
        "matte" : 0,
        "metadata" : {
          "IsLocked" : "False",
          "WinTrackHeight" : "56"
        }
      },
      {
        "ident" : "",
        "audioMuted" : false,
        "videoHidden" : false,
        "magnetic" : false,
        "matte" : 0,
        "metadata" : {
          "IsLocked" : "False",
          "WinTrackHeight" : "56"
        }
      },
      {
        "ident" : "",
        "audioMuted" : false,
        "videoHidden" : false,
        "magnetic" : false,
        "matte" : 0,
        "metadata" : {
          "IsLocked" : "False",
          "WinTrackHeight" : "56"
        }
      },
      {
        "ident" : "",
        "audioMuted" : false,
        "videoHidden" : false,
        "magnetic" : false,
        "matte" : 0,
        "metadata" : {
          "IsLocked" : "False",
          "WinTrackHeight" : "56"
        }
      },
      {
        "ident" : "",
        "audioMuted" : false,
        "videoHidden" : false,
        "magnetic" : false,
        "matte" : 0,
        "metadata" : {
          "IsLocked" : "False",
          "WinTrackHeight" : "56"
        }
      }
    ],
    "captionAttributes" : {
      "enabled" : true,
      "fontName" : "Arial",
      "fontSize" : 85,
      "backgroundColor" : [ 0, 0, 0, 191],
      "foregroundColor" : [ 255, 255, 255, 255],
      "lang" : "en",
      "alignment" : 0,
      "defaultFontSize" : true,
      "opacity" : 0.5,
      "backgroundEnabled" : true,
      "backgroundOnlyAroundText" : true
    },
    "backgroundColor" : [ 0, 0, 0, 255]
  },
  "metadata" : {
    "AutoSaveFile" : "",
    "CanvasZoom" : 47,
    "Date" : "2019-10-07 05:42:42 PM",
    "Fit" : 1,
    "IsAutoSave" : "0",
    "Language" : "ENU",
    "ProfileName" : "",
    "ProjectDimensionsChanged" : "1",
    "Title" : "3. HIJACKING NTFS STRUCTURES",
    "audioNarrationNotes" : "",
    "calloutStyle" : "Basic",
    "canvasDetached" : "False",
    "canvasPositionHeight" : "0",
    "canvasPositionLeft" : "0",
    "canvasPositionTop" : "0",
    "canvasPositionWidth" : "0"
  }
}
