{
  "title" : "",
  "description" : "",
  "author" : "",
  "targetLoudness" : -18.0,
  "shouldApplyLoudnessNormalization" : false,
  "videoFormatFrameRate" : 30,
  "audioFormatSampleRate" : 44100,
  "width" : 2560.0,
  "height" : 1440.0,
  "version" : "3.0",
  "editRate" : 30,
  "authoringClientName" :  {
    "name" : "Camtasia",
    "platform" : "Windows",
    "version" : "19.0"
  },
  "sourceBin" : [
    {
      "id" : 1,
      "src" : "C:\\hijacking_is_not_an_option_raw\\handle_hijacking\\handle_hijacking_attack_prevention.trec",
      "rect" : [0, 0, 2560, 1440],
      "lastMod" : "20191005T100729",
      "sourceTracks" : [
        {
          "range" : [0, 6869],
          "type" : 0,
          "editRate" : 30,
          "trackRect" : [0, 0, 2560, 1440],
          "sampleRate" : 28,
          "bitDepth" : 0,
          "numChannels" : 0,
          "integratedLUFS" : 100.0,
          "peakLevel" : -1.0,
          "metaData" : "2b7b6a00-7a1f-11e2-83d0-0017f200be7f;2b7b6aef-7a1f-11e2-83d0-0017f200be7f;2b7b6af0-7a1f-11e2-83d0-0017f200be7f;2b7b6af1-7a1f-11e2-83d0-0017f200be7f;2b7b6af2-7a1f-11e2-83d0-0017f200be7f;2b7b6af3-7a1f-11e2-83d0-0017f200be7f;2b7b6af5-7a1f-11e2-83d0-0017f200be7f;2b7b6af6-7a1f-11e2-83d0-0017f200be7f;2b7b6af7-7a1f-11e2-83d0-0017f200be7f;2b7b6af8-7a1f-11e2-83d0-0017f200be7f;2b7b6af9-7a1f-11e2-83d0-0017f200be7f;2b7b6afa-7a1f-11e2-83d0-0017f200be7f;"
        }
      ],
      "metadata" : {
        "timeAdded" : "20200614T105650.754835"
      }
    },
    {
      "id" : 2,
      "src" : "K:\\Dropbox\\_Pubs&Confs\\20\\Kernel-Hijacking-Is-Not-an-Option\\video-demos\\_sounds\\Cinematic_Sound_Effects_Impacts_HD-youtube-C7monbiQkZo-251-320--sec 37-40.mp3",
      "rect" : [0, 0, 0, 0],
      "lastMod" : "20180519T160240",
      "sourceTracks" : [
        {
          "range" : [0, 415440000],
          "type" : 2,
          "editRate" : 10000000,
          "trackRect" : [0, 0, 0, 0],
          "sampleRate" : 48000,
          "bitDepth" : 0,
          "numChannels" : 2,
          "integratedLUFS" : -13.9486652596205,
          "peakLevel" : 1.11620581150055,
          "metaData" : ""
        }
      ],
      "metadata" : {
        "timeAdded" : "20200706T103712.748180"
      }
    },
    {
      "id" : 3,
      "src" : "K:\\Dropbox\\_Pubs&Confs\\20\\Kernel-Hijacking-Is-Not-an-Option\\video-demos\\_sounds\\Henry Jackman, Matthew Margeson - Rescuing Harry.mp3",
      "rect" : [0, 0, 0, 0],
      "lastMod" : "20181121T204035",
      "sourceTracks" : [
        {
          "range" : [0, 1050382500],
          "type" : 2,
          "editRate" : 10000000,
          "trackRect" : [0, 0, 0, 0],
          "sampleRate" : 44100,
          "bitDepth" : 0,
          "numChannels" : 2,
          "integratedLUFS" : -13.0967857406684,
          "peakLevel" : 1.06144344806671,
          "metaData" : ""
        }
      ],
      "metadata" : {
        "timeAdded" : "20200706T103712.752168"
      }
    },
    {
      "id" : 4,
      "src" : "K:\\Dropbox\\_Pubs&Confs\\20\\Kernel-Hijacking-Is-Not-an-Option\\video-demos\\_sounds\\Neizvesten+Saundtrek+k+fil+mu+RODINA+ZhDET+NEVYPOLNIMOE+ZAD_muzlishko.ru_.mp3",
      "rect" : [0, 0, 0, 0],
      "lastMod" : "20181120T102825",
      "sourceTracks" : [
        {
          "range" : [0, 1697400000],
          "type" : 2,
          "editRate" : 10000000,
          "trackRect" : [0, 0, 0, 0],
          "sampleRate" : 32000,
          "bitDepth" : 0,
          "numChannels" : 2,
          "integratedLUFS" : -10.3265153700026,
          "peakLevel" : 1.12320291996002,
          "metaData" : ""
        }
      ],
      "metadata" : {
        "timeAdded" : "20200706T103712.754198"
      }
    },
    {
      "id" : 5,
      "src" : "C:\\Users\\igork\\Documents\\Camtasia\\Rec 07-06-20.trec",
      "rect" : [0, 0, 2560, 1440],
      "lastMod" : "20200706T111548",
      "sourceTracks" : [
        {
          "range" : [0, 214],
          "type" : 0,
          "editRate" : 1,
          "trackRect" : [0, 0, 2560, 1440],
          "sampleRate" : 1,
          "bitDepth" : 0,
          "numChannels" : 0,
          "integratedLUFS" : 100.0,
          "peakLevel" : -1.0,
          "metaData" : "2b7b6a00-7a1f-11e2-83d0-0017f200be7f;2b7b6aef-7a1f-11e2-83d0-0017f200be7f;2b7b6af0-7a1f-11e2-83d0-0017f200be7f;2b7b6af1-7a1f-11e2-83d0-0017f200be7f;2b7b6af2-7a1f-11e2-83d0-0017f200be7f;2b7b6af3-7a1f-11e2-83d0-0017f200be7f;2b7b6af5-7a1f-11e2-83d0-0017f200be7f;2b7b6af6-7a1f-11e2-83d0-0017f200be7f;2b7b6af7-7a1f-11e2-83d0-0017f200be7f;2b7b6af8-7a1f-11e2-83d0-0017f200be7f;2b7b6af9-7a1f-11e2-83d0-0017f200be7f;2b7b6afa-7a1f-11e2-83d0-0017f200be7f;"
        },
        {
          "range" : [0, 9416704],
          "type" : 2,
          "editRate" : 44100,
          "trackRect" : [0, 0, 0, 0],
          "sampleRate" : 44100,
          "bitDepth" : 16,
          "numChannels" : 2,
          "integratedLUFS" : -26.7429843821679,
          "peakLevel" : 0.715606689453125,
          "metaData" : ""
        }
      ],
      "metadata" : {
        "timeAdded" : "20200706T111548.762506"
      }
    },
    {
      "id" : 6,
      "src" : "K:\\Dropbox\\_Pubs&Confs\\20\\Kernel-Hijacking-Is-Not-an-Option\\video-demos\\_sounds\\winner_game.mp3",
      "rect" : [0, 0, 0, 0],
      "lastMod" : "20200709T190319",
      "sourceTracks" : [
        {
          "range" : [0, 105600000],
          "type" : 2,
          "editRate" : 10000000,
          "trackRect" : [0, 0, 0, 0],
          "sampleRate" : 24000,
          "bitDepth" : 0,
          "numChannels" : 2,
          "integratedLUFS" : 100.0,
          "peakLevel" : -1.0,
          "metaData" : ""
        }
      ],
      "metadata" : {
        "timeAdded" : "20200711T211716.209255"
      }
    },
    {
      "id" : 7,
      "src" : "K:\\Dropbox\\_Pubs&Confs\\20\\Kernel-Hijacking-Is-Not-an-Option\\Kernel Hijacking-Is-Not-an-Option - picts\\znayka - for demos\\happy\\happy_with_sleeves.png",
      "rect" : [0, 0, 429, 371],
      "lastMod" : "20200712T112708",
      "sourceTracks" : [
        {
          "range" : [0, 1],
          "type" : 1,
          "editRate" : 10000000,
          "trackRect" : [0, 0, 429, 371],
          "sampleRate" : 0,
          "bitDepth" : 32,
          "numChannels" : 0,
          "integratedLUFS" : 100.0,
          "peakLevel" : -1.0,
          "metaData" : ""
        }
      ],
      "metadata" : {
        "timeAdded" : "20200712T112923.633283"
      }
    },
    {
      "id" : 8,
      "src" : "K:\\Dropbox\\_Pubs&Confs\\20\\Kernel-Hijacking-Is-Not-an-Option\\Kernel Hijacking-Is-Not-an-Option - picts\\znayka - for demos\\new_idea\\4 new_idea_half_nobackground_mirror.png",
      "rect" : [0, 0, 509, 511],
      "lastMod" : "20200711T155043",
      "sourceTracks" : [
        {
          "range" : [0, 1],
          "type" : 1,
          "editRate" : 10000000,
          "trackRect" : [0, 0, 509, 511],
          "sampleRate" : 0,
          "bitDepth" : 32,
          "numChannels" : 0,
          "integratedLUFS" : 100.0,
          "peakLevel" : -1.0,
          "metaData" : ""
        }
      ],
      "metadata" : {
        "timeAdded" : "20200712T112932.391884"
      }
    },
    {
      "id" : 9,
      "src" : "K:\\Dropbox\\_Pubs&Confs\\20\\Kernel-Hijacking-Is-Not-an-Option\\Kernel Hijacking-Is-Not-an-Option - picts\\znayka - for demos\\pirat\\256.png",
      "rect" : [0, 0, 256, 256],
      "lastMod" : "20190311T095112",
      "sourceTracks" : [
        {
          "range" : [0, 1],
          "type" : 1,
          "editRate" : 10000000,
          "trackRect" : [0, 0, 256, 256],
          "sampleRate" : 0,
          "bitDepth" : 32,
          "numChannels" : 0,
          "integratedLUFS" : 100.0,
          "peakLevel" : -1.0,
          "metaData" : ""
        }
      ],
      "metadata" : {
        "timeAdded" : "20200712T112941.045082"
      }
    },
    {
      "id" : 10,
      "src" : "K:\\Dropbox\\_Pubs&Confs\\20\\Kernel-Hijacking-Is-Not-an-Option\\Kernel Hijacking-Is-Not-an-Option - picts\\znayka - for demos\\ranger\\memoryranger_without_gun_transparent_cropped.png",
      "rect" : [0, 0, 738, 634],
      "lastMod" : "20200711T151211",
      "sourceTracks" : [
        {
          "range" : [0, 1],
          "type" : 1,
          "editRate" : 10000000,
          "trackRect" : [0, 0, 738, 634],
          "sampleRate" : 0,
          "bitDepth" : 32,
          "numChannels" : 0,
          "integratedLUFS" : 100.0,
          "peakLevel" : -1.0,
          "metaData" : ""
        }
      ],
      "metadata" : {
        "timeAdded" : "20200712T114139.432859"
      }
    },
    {
      "id" : 11,
      "src" : "C:\\Users\\igork\\Documents\\Camtasia\\Rec 07-12-20_002.trec",
      "rect" : [0, 0, 2560, 1440],
      "lastMod" : "20200712T115745",
      "sourceTracks" : [
        {
          "range" : [0, 193],
          "type" : 0,
          "editRate" : 1,
          "trackRect" : [0, 0, 2560, 1440],
          "sampleRate" : 1,
          "bitDepth" : 0,
          "numChannels" : 0,
          "integratedLUFS" : 100.0,
          "peakLevel" : -1.0,
          "metaData" : "2b7b6a00-7a1f-11e2-83d0-0017f200be7f;2b7b6aef-7a1f-11e2-83d0-0017f200be7f;2b7b6af0-7a1f-11e2-83d0-0017f200be7f;2b7b6af1-7a1f-11e2-83d0-0017f200be7f;2b7b6af2-7a1f-11e2-83d0-0017f200be7f;2b7b6af3-7a1f-11e2-83d0-0017f200be7f;2b7b6af5-7a1f-11e2-83d0-0017f200be7f;2b7b6af6-7a1f-11e2-83d0-0017f200be7f;2b7b6af7-7a1f-11e2-83d0-0017f200be7f;2b7b6af8-7a1f-11e2-83d0-0017f200be7f;2b7b6af9-7a1f-11e2-83d0-0017f200be7f;2b7b6afa-7a1f-11e2-83d0-0017f200be7f;"
        },
        {
          "range" : [0, 8468480],
          "type" : 2,
          "editRate" : 44100,
          "trackRect" : [0, 0, 0, 0],
          "sampleRate" : 44100,
          "bitDepth" : 16,
          "numChannels" : 2,
          "integratedLUFS" : -17.3612998647846,
          "peakLevel" : 1.0,
          "metaData" : ""
        }
      ],
      "metadata" : {
        "timeAdded" : "20200712T115745.849837"
      }
    },
    {
      "id" : 12,
      "src" : "C:\\Users\\igork\\Documents\\Camtasia\\Rec 07-23-20.trec",
      "rect" : [0, 0, 2560, 1440],
      "lastMod" : "20200723T103058",
      "sourceTracks" : [
        {
          "range" : [0, 11],
          "type" : 0,
          "editRate" : 1,
          "trackRect" : [0, 0, 2560, 1440],
          "sampleRate" : 1,
          "bitDepth" : 0,
          "numChannels" : 0,
          "integratedLUFS" : 100.0,
          "peakLevel" : -1.0,
          "metaData" : "2b7b6a00-7a1f-11e2-83d0-0017f200be7f;2b7b6aef-7a1f-11e2-83d0-0017f200be7f;2b7b6af0-7a1f-11e2-83d0-0017f200be7f;2b7b6af1-7a1f-11e2-83d0-0017f200be7f;2b7b6af2-7a1f-11e2-83d0-0017f200be7f;2b7b6af3-7a1f-11e2-83d0-0017f200be7f;2b7b6af5-7a1f-11e2-83d0-0017f200be7f;2b7b6af6-7a1f-11e2-83d0-0017f200be7f;2b7b6af7-7a1f-11e2-83d0-0017f200be7f;2b7b6af8-7a1f-11e2-83d0-0017f200be7f;2b7b6af9-7a1f-11e2-83d0-0017f200be7f;2b7b6afa-7a1f-11e2-83d0-0017f200be7f;"
        },
        {
          "range" : [0, 442368],
          "type" : 2,
          "editRate" : 44100,
          "trackRect" : [0, 0, 0, 0],
          "sampleRate" : 44100,
          "bitDepth" : 16,
          "numChannels" : 2,
          "integratedLUFS" : -18.0227655055739,
          "peakLevel" : 0.798675537109375,
          "metaData" : ""
        }
      ],
      "metadata" : {
        "timeAdded" : "20200723T105717.524361"
      }
    }
  ],
  "timeline" : {
    "id" : 13,
    "sceneTrack" : {
      "scenes" : [
        {
          "duration" : 156.166666666667,
          "title" : "",
          "type" : "",
          "csml" : {
            "tracks" : [
              {
                "trackIndex" : 0,
                "medias" : [
                  {
                    "id" : 14,
                    "_type" : "AMFile",
                    "src" : 4,
                    "trackNumber" : 0,
                    "attributes" : {
                      "ident" : "Neizvesten+Saundtrek+k+fil+mu+RODINA+ZhDET+NEVYPOLNIMOE+ZAD_muzlishko.ru_",
                      "gain" : 1.0,
                      "mixToMono" : false
                    },
                      "channelNumber" : "0,1",
                    "effects" : [

                    ],
                    "start" : 0,
                    "duration" : 149,
                    "mediaStart" : 135,
                    "mediaDuration" : 149,
                    "scalar" : 1,
                    "metadata" : {
                      "clipSpeedAttribute" : false
                    },
                    "animationTracks" : {

                    }
                  },
                  {
                    "id" : 15,
                    "_type" : "AMFile",
                    "src" : 11,
                    "trackNumber" : 1,
                    "attributes" : {
                      "ident" : "Rec 07-12-20_002",
                      "gain" : 1.0,
                      "mixToMono" : false
                    },
                      "channelNumber" : "0,1",
                    "parameters" : {
                      "volume" : 1.96793002915454
                    },
                    "effects" : [

                    ],
                    "start" : 150,
                    "duration" : 122,
                    "mediaStart" : 812,
                    "mediaDuration" : 122,
                    "scalar" : 1,
                    "metadata" : {
                      "clipSpeedAttribute" : false
                    },
                    "animationTracks" : {

                    }
                  },
                  {
                    "id" : 16,
                    "_type" : "AMFile",
                    "src" : 11,
                    "trackNumber" : 1,
                    "attributes" : {
                      "ident" : "Rec 07-12-20_002",
                      "gain" : 1.0,
                      "mixToMono" : false
                    },
                      "channelNumber" : "0,1",
                    "parameters" : {
                      "volume" : 1.96793002915454
                    },
                    "effects" : [

                    ],
                    "start" : 348,
                    "duration" : 99,
                    "mediaStart" : 983,
                    "mediaDuration" : 99,
                    "scalar" : 1,
                    "metadata" : {
                      "clipSpeedAttribute" : false
                    },
                    "animationTracks" : {

                    }
                  },
                  {
                    "id" : 17,
                    "_type" : "AMFile",
                    "src" : 11,
                    "trackNumber" : 1,
                    "attributes" : {
                      "ident" : "Rec 07-12-20_002",
                      "gain" : 1.0,
                      "mixToMono" : false
                    },
                      "channelNumber" : "0,1",
                    "parameters" : {
                      "volume" : 1.96793002915454
                    },
                    "effects" : [

                    ],
                    "start" : 557,
                    "duration" : 245,
                    "mediaStart" : 1213,
                    "mediaDuration" : 245,
                    "scalar" : 1,
                    "metadata" : {
                      "clipSpeedAttribute" : false
                    },
                    "animationTracks" : {

                    }
                  },
                  {
                    "id" : 18,
                    "_type" : "AMFile",
                    "src" : 12,
                    "trackNumber" : 1,
                    "attributes" : {
                      "ident" : "Rec 07-23-20",
                      "gain" : 1.0,
                      "mixToMono" : false
                    },
                      "channelNumber" : "0,1",
                    "parameters" : {
                      "volume" : 1.6180758017493
                    },
                    "effects" : [

                    ],
                    "start" : 946,
                    "duration" : 81,
                    "mediaStart" : 186,
                    "mediaDuration" : 81,
                    "scalar" : 1,
                    "metadata" : {
                      "clipSpeedAttribute" : false
                    },
                    "animationTracks" : {

                    }
                  },
                  {
                    "id" : 19,
                    "_type" : "AMFile",
                    "src" : 11,
                    "trackNumber" : 1,
                    "attributes" : {
                      "ident" : "Rec 07-12-20_002",
                      "gain" : 1.0,
                      "mixToMono" : false
                    },
                      "channelNumber" : "0,1",
                    "parameters" : {
                      "volume" : 1.96793002915454
                    },
                    "effects" : [

                    ],
                    "start" : 1125,
                    "duration" : 424,
                    "mediaStart" : 2024,
                    "mediaDuration" : 424,
                    "scalar" : 1,
                    "metadata" : {
                      "clipSpeedAttribute" : false
                    },
                    "animationTracks" : {

                    }
                  },
                  {
                    "id" : 20,
                    "_type" : "AMFile",
                    "src" : 5,
                    "trackNumber" : 1,
                    "attributes" : {
                      "ident" : "Rec 07-06-20",
                      "gain" : 1.0,
                      "mixToMono" : false
                    },
                      "channelNumber" : "0,1",
                    "parameters" : {
                      "volume" : 4.76676384839653
                    },
                    "effects" : [

                    ],
                    "start" : 1556,
                    "duration" : 87,
                    "mediaStart" : 2013,
                    "mediaDuration" : 87,
                    "scalar" : 1,
                    "metadata" : {
                      "clipSpeedAttribute" : false
                    },
                    "animationTracks" : {

                    }
                  },
                  {
                    "id" : 21,
                    "_type" : "AMFile",
                    "src" : 11,
                    "trackNumber" : 1,
                    "attributes" : {
                      "ident" : "Rec 07-12-20_002",
                      "gain" : 1.0,
                      "mixToMono" : false
                    },
                      "channelNumber" : "0,1",
                    "parameters" : {
                      "volume" : 1.96793002915454
                    },
                    "effects" : [

                    ],
                    "start" : 1643,
                    "duration" : 91,
                    "mediaStart" : 2542,
                    "mediaDuration" : 91,
                    "scalar" : 1,
                    "metadata" : {
                      "clipSpeedAttribute" : false
                    },
                    "animationTracks" : {

                    }
                  },
                  {
                    "id" : 22,
                    "_type" : "AMFile",
                    "src" : 11,
                    "trackNumber" : 1,
                    "attributes" : {
                      "ident" : "Rec 07-12-20_002",
                      "gain" : 1.0,
                      "mixToMono" : false
                    },
                      "channelNumber" : "0,1",
                    "parameters" : {
                      "volume" : 1.96793002915454
                    },
                    "effects" : [

                    ],
                    "start" : 1823,
                    "duration" : 320,
                    "mediaStart" : 2682,
                    "mediaDuration" : 320,
                    "scalar" : 1,
                    "metadata" : {
                      "clipSpeedAttribute" : false
                    },
                    "animationTracks" : {

                    }
                  },
                  {
                    "id" : 23,
                    "_type" : "AMFile",
                    "src" : 11,
                    "trackNumber" : 1,
                    "attributes" : {
                      "ident" : "Rec 07-12-20_002",
                      "gain" : 1.0,
                      "mixToMono" : false
                    },
                      "channelNumber" : "0,1",
                    "parameters" : {
                      "volume" : 1.96793002915454
                    },
                    "effects" : [

                    ],
                    "start" : 2160,
                    "duration" : 528,
                    "mediaStart" : 3032,
                    "mediaDuration" : 528,
                    "scalar" : 1,
                    "metadata" : {
                      "clipSpeedAttribute" : false
                    },
                    "animationTracks" : {

                    }
                  },
                  {
                    "id" : 24,
                    "_type" : "AMFile",
                    "src" : 11,
                    "trackNumber" : 1,
                    "attributes" : {
                      "ident" : "Rec 07-12-20_002",
                      "gain" : 1.0,
                      "mixToMono" : false
                    },
                      "channelNumber" : "0,1",
                    "parameters" : {
                      "volume" : 1.96793002915454
                    },
                    "effects" : [

                    ],
                    "start" : 2709,
                    "duration" : 71,
                    "mediaStart" : 3671,
                    "mediaDuration" : 71,
                    "scalar" : 1,
                    "metadata" : {
                      "clipSpeedAttribute" : false
                    },
                    "animationTracks" : {

                    }
                  },
                  {
                    "id" : 25,
                    "_type" : "AMFile",
                    "src" : 11,
                    "trackNumber" : 1,
                    "attributes" : {
                      "ident" : "Rec 07-12-20_002",
                      "gain" : 1.0,
                      "mixToMono" : false
                    },
                      "channelNumber" : "0,1",
                    "parameters" : {
                      "volume" : 1.96793002915454
                    },
                    "effects" : [

                    ],
                    "start" : 2804,
                    "duration" : 51,
                    "mediaStart" : 3844,
                    "mediaDuration" : 51,
                    "scalar" : 1,
                    "metadata" : {
                      "clipSpeedAttribute" : false
                    },
                    "animationTracks" : {

                    }
                  },
                  {
                    "id" : 26,
                    "_type" : "AMFile",
                    "src" : 11,
                    "trackNumber" : 1,
                    "attributes" : {
                      "ident" : "Rec 07-12-20_002",
                      "gain" : 1.0,
                      "mixToMono" : false
                    },
                      "channelNumber" : "0,1",
                    "parameters" : {
                      "volume" : 1.96793002915454
                    },
                    "effects" : [

                    ],
                    "start" : 2904,
                    "duration" : 84,
                    "mediaStart" : 3971,
                    "mediaDuration" : 84,
                    "scalar" : 1,
                    "metadata" : {
                      "clipSpeedAttribute" : false
                    },
                    "animationTracks" : {

                    }
                  },
                  {
                    "id" : 27,
                    "_type" : "AMFile",
                    "src" : 11,
                    "trackNumber" : 1,
                    "attributes" : {
                      "ident" : "Rec 07-12-20_002",
                      "gain" : 1.0,
                      "mixToMono" : false
                    },
                      "channelNumber" : "0,1",
                    "parameters" : {
                      "volume" : 1.96793002915454
                    },
                    "effects" : [

                    ],
                    "start" : 3047,
                    "duration" : 131,
                    "mediaStart" : 4212,
                    "mediaDuration" : 131,
                    "scalar" : 1,
                    "metadata" : {
                      "clipSpeedAttribute" : false
                    },
                    "animationTracks" : {

                    }
                  },
                  {
                    "id" : 28,
                    "_type" : "AMFile",
                    "src" : 11,
                    "trackNumber" : 1,
                    "attributes" : {
                      "ident" : "Rec 07-12-20_002",
                      "gain" : 1.0,
                      "mixToMono" : false
                    },
                      "channelNumber" : "0,1",
                    "parameters" : {
                      "volume" : 1.96793002915454
                    },
                    "effects" : [

                    ],
                    "start" : 3405,
                    "duration" : 1001,
                    "mediaStart" : 4443,
                    "mediaDuration" : 1001,
                    "scalar" : 1,
                    "metadata" : {
                      "clipSpeedAttribute" : false
                    },
                    "animationTracks" : {

                    }
                  }
                ]
              },
              {
                "trackIndex" : 1,
                "medias" : [
                  {
                    "id" : 29,
                    "_type" : "AMFile",
                    "src" : 5,
                    "trackNumber" : 1,
                    "attributes" : {
                      "ident" : "Rec 07-06-20",
                      "gain" : 1.0,
                      "mixToMono" : false
                    },
                      "channelNumber" : "0,1",
                    "parameters" : {
                      "volume" : 2.90087463556853
                    },
                    "effects" : [

                    ],
                    "start" : 149,
                    "duration" : 154,
                    "mediaStart" : 160,
                    "mediaDuration" : 154,
                    "scalar" : 1,
                    "metadata" : {
                      "clipSpeedAttribute" : false
                    },
                    "animationTracks" : {

                    }
                  },
                  {
                    "id" : 30,
                    "_type" : "AMFile",
                    "src" : 5,
                    "trackNumber" : 1,
                    "attributes" : {
                      "ident" : "Rec 07-06-20",
                      "gain" : 1.0,
                      "mixToMono" : false
                    },
                      "channelNumber" : "0,1",
                    "parameters" : {
                      "volume" : 2.90087463556853
                    },
                    "effects" : [

                    ],
                    "start" : 363,
                    "duration" : 92,
                    "mediaStart" : 314,
                    "mediaDuration" : 92,
                    "scalar" : 1,
                    "metadata" : {
                      "clipSpeedAttribute" : false
                    },
                    "animationTracks" : {

                    }
                  },
                  {
                    "id" : 31,
                    "_type" : "AMFile",
                    "src" : 5,
                    "trackNumber" : 1,
                    "attributes" : {
                      "ident" : "Rec 07-06-20",
                      "gain" : 1.0,
                      "mixToMono" : false
                    },
                      "channelNumber" : "0,1",
                    "parameters" : {
                      "volume" : 2.90087463556853
                    },
                    "effects" : [

                    ],
                    "start" : 564,
                    "duration" : 240,
                    "mediaStart" : 575,
                    "mediaDuration" : 240,
                    "scalar" : 1,
                    "metadata" : {
                      "clipSpeedAttribute" : false
                    },
                    "animationTracks" : {

                    }
                  },
                  {
                    "id" : 32,
                    "_type" : "AMFile",
                    "src" : 5,
                    "trackNumber" : 1,
                    "attributes" : {
                      "ident" : "Rec 07-06-20",
                      "gain" : 1.0,
                      "mixToMono" : false
                    },
                      "channelNumber" : "0,1",
                    "parameters" : {
                      "volume" : 2.90087463556853
                    },
                    "effects" : [

                    ],
                    "start" : 947,
                    "duration" : 56,
                    "mediaStart" : 1132,
                    "mediaDuration" : 56,
                    "scalar" : 1,
                    "metadata" : {
                      "clipSpeedAttribute" : false
                    },
                    "animationTracks" : {

                    }
                  },
                  {
                    "id" : 33,
                    "_type" : "AMFile",
                    "src" : 5,
                    "trackNumber" : 1,
                    "attributes" : {
                      "ident" : "Rec 07-06-20",
                      "gain" : 1.0,
                      "mixToMono" : false
                    },
                      "channelNumber" : "0,1",
                    "parameters" : {
                      "volume" : 2.90087463556853
                    },
                    "effects" : [

                    ],
                    "start" : 1152,
                    "duration" : 258,
                    "mediaStart" : 1291,
                    "mediaDuration" : 258,
                    "scalar" : 1,
                    "metadata" : {
                      "clipSpeedAttribute" : false
                    },
                    "animationTracks" : {

                    }
                  },
                  {
                    "id" : 34,
                    "_type" : "AMFile",
                    "src" : 5,
                    "trackNumber" : 1,
                    "attributes" : {
                      "ident" : "Rec 07-06-20",
                      "gain" : 1.0,
                      "mixToMono" : false
                    },
                      "channelNumber" : "0,1",
                    "parameters" : {
                      "volume" : 2.90087463556853
                    },
                    "effects" : [

                    ],
                    "start" : 1444,
                    "duration" : 78,
                    "mediaStart" : 1935,
                    "mediaDuration" : 78,
                    "scalar" : 1,
                    "metadata" : {
                      "clipSpeedAttribute" : false
                    },
                    "animationTracks" : {

                    }
                  },
                  {
                    "id" : 35,
                    "_type" : "AMFile",
                    "src" : 5,
                    "trackNumber" : 1,
                    "attributes" : {
                      "ident" : "Rec 07-06-20",
                      "gain" : 1.0,
                      "mixToMono" : false
                    },
                      "channelNumber" : "0,1",
                    "parameters" : {
                      "volume" : 2.90087463556853
                    },
                    "effects" : [

                    ],
                    "start" : 1522,
                    "duration" : 87,
                    "mediaStart" : 2013,
                    "mediaDuration" : 87,
                    "scalar" : 1,
                    "metadata" : {
                      "clipSpeedAttribute" : false
                    },
                    "animationTracks" : {

                    }
                  },
                  {
                    "id" : 36,
                    "_type" : "AMFile",
                    "src" : 5,
                    "trackNumber" : 1,
                    "attributes" : {
                      "ident" : "Rec 07-06-20",
                      "gain" : 1.0,
                      "mixToMono" : false
                    },
                      "channelNumber" : "0,1",
                    "parameters" : {
                      "volume" : 2.90087463556853
                    },
                    "effects" : [

                    ],
                    "start" : 1622,
                    "duration" : 95,
                    "mediaStart" : 2200,
                    "mediaDuration" : 95,
                    "scalar" : 1,
                    "metadata" : {
                      "clipSpeedAttribute" : false
                    },
                    "animationTracks" : {

                    }
                  },
                  {
                    "id" : 37,
                    "_type" : "AMFile",
                    "src" : 5,
                    "trackNumber" : 1,
                    "attributes" : {
                      "ident" : "Rec 07-06-20",
                      "gain" : 1.0,
                      "mixToMono" : false
                    },
                      "channelNumber" : "0,1",
                    "parameters" : {
                      "volume" : 2.90087463556853
                    },
                    "effects" : [

                    ],
                    "start" : 1823,
                    "duration" : 327,
                    "mediaStart" : 2426,
                    "mediaDuration" : 327,
                    "scalar" : 1,
                    "metadata" : {
                      "clipSpeedAttribute" : false
                    },
                    "animationTracks" : {

                    }
                  },
                  {
                    "id" : 38,
                    "_type" : "AMFile",
                    "src" : 5,
                    "trackNumber" : 1,
                    "attributes" : {
                      "ident" : "Rec 07-06-20",
                      "gain" : 1.0,
                      "mixToMono" : false
                    },
                      "channelNumber" : "0,1",
                    "parameters" : {
                      "volume" : 2.90087463556853
                    },
                    "effects" : [

                    ],
                    "start" : 2161,
                    "duration" : 316,
                    "mediaStart" : 2783,
                    "mediaDuration" : 316,
                    "scalar" : 1,
                    "metadata" : {
                      "clipSpeedAttribute" : false
                    },
                    "animationTracks" : {

                    }
                  },
                  {
                    "id" : 39,
                    "_type" : "AMFile",
                    "src" : 5,
                    "trackNumber" : 1,
                    "attributes" : {
                      "ident" : "Rec 07-06-20",
                      "gain" : 1.0,
                      "mixToMono" : false
                    },
                      "channelNumber" : "0,1",
                    "parameters" : {
                      "volume" : 2.90087463556853
                    },
                    "effects" : [

                    ],
                    "start" : 2561,
                    "duration" : 144,
                    "mediaStart" : 3222,
                    "mediaDuration" : 144,
                    "scalar" : 1,
                    "metadata" : {
                      "clipSpeedAttribute" : false
                    },
                    "animationTracks" : {

                    }
                  },
                  {
                    "id" : 40,
                    "_type" : "AMFile",
                    "src" : 5,
                    "trackNumber" : 1,
                    "attributes" : {
                      "ident" : "Rec 07-06-20",
                      "gain" : 1.0,
                      "mixToMono" : false
                    },
                      "channelNumber" : "0,1",
                    "parameters" : {
                      "volume" : 2.90087463556853
                    },
                    "effects" : [

                    ],
                    "start" : 2709,
                    "duration" : 154,
                    "mediaStart" : 3386,
                    "mediaDuration" : 154,
                    "scalar" : 1,
                    "metadata" : {
                      "clipSpeedAttribute" : false
                    },
                    "animationTracks" : {

                    }
                  },
                  {
                    "id" : 41,
                    "_type" : "AMFile",
                    "src" : 5,
                    "trackNumber" : 1,
                    "attributes" : {
                      "ident" : "Rec 07-06-20",
                      "gain" : 1.0,
                      "mixToMono" : false
                    },
                      "channelNumber" : "0,1",
                    "parameters" : {
                      "volume" : 2.90087463556853
                    },
                    "effects" : [

                    ],
                    "start" : 2915,
                    "duration" : 78,
                    "mediaStart" : 3906,
                    "mediaDuration" : 78,
                    "scalar" : 1,
                    "metadata" : {
                      "clipSpeedAttribute" : false
                    },
                    "animationTracks" : {

                    }
                  },
                  {
                    "id" : 42,
                    "_type" : "AMFile",
                    "src" : 5,
                    "trackNumber" : 1,
                    "attributes" : {
                      "ident" : "Rec 07-06-20",
                      "gain" : 1.0,
                      "mixToMono" : false
                    },
                      "channelNumber" : "0,1",
                    "parameters" : {
                      "volume" : 2.90087463556853
                    },
                    "effects" : [

                    ],
                    "start" : 3046,
                    "duration" : 163,
                    "mediaStart" : 4085,
                    "mediaDuration" : 163,
                    "scalar" : 1,
                    "metadata" : {
                      "clipSpeedAttribute" : false
                    },
                    "animationTracks" : {

                    }
                  },
                  {
                    "id" : 43,
                    "_type" : "AMFile",
                    "src" : 5,
                    "trackNumber" : 1,
                    "attributes" : {
                      "ident" : "Rec 07-06-20",
                      "gain" : 1.0,
                      "mixToMono" : false
                    },
                      "channelNumber" : "0,1",
                    "parameters" : {
                      "volume" : 2.90087463556853
                    },
                    "effects" : [

                    ],
                    "start" : 3406,
                    "duration" : 229,
                    "mediaStart" : 4572,
                    "mediaDuration" : 229,
                    "scalar" : 1,
                    "metadata" : {
                      "clipSpeedAttribute" : false
                    },
                    "animationTracks" : {

                    }
                  },
                  {
                    "id" : 44,
                    "_type" : "AMFile",
                    "src" : 5,
                    "trackNumber" : 1,
                    "attributes" : {
                      "ident" : "Rec 07-06-20",
                      "gain" : 1.0,
                      "mixToMono" : false
                    },
                      "channelNumber" : "0,1",
                    "parameters" : {
                      "volume" : 2.90087463556853
                    },
                    "effects" : [

                    ],
                    "start" : 3641,
                    "duration" : 177,
                    "mediaStart" : 4894,
                    "mediaDuration" : 177,
                    "scalar" : 1,
                    "metadata" : {
                      "clipSpeedAttribute" : false
                    },
                    "animationTracks" : {

                    }
                  },
                  {
                    "id" : 45,
                    "_type" : "AMFile",
                    "src" : 5,
                    "trackNumber" : 1,
                    "attributes" : {
                      "ident" : "Rec 07-06-20",
                      "gain" : 1.0,
                      "mixToMono" : false
                    },
                      "channelNumber" : "0,1",
                    "parameters" : {
                      "volume" : 2.90087463556853
                    },
                    "effects" : [

                    ],
                    "start" : 4134,
                    "duration" : 316,
                    "mediaStart" : 5410,
                    "mediaDuration" : 316,
                    "scalar" : 1,
                    "metadata" : {
                      "clipSpeedAttribute" : false
                    },
                    "animationTracks" : {

                    }
                  }
                ]
              },
              {
                "trackIndex" : 2,
                "medias" : [
                  {
                    "id" : 46,
                    "_type" : "Callout",
                    "def" : {
                      "kind" : "remix",
                      "shape" : "text",
                      "style" : "basic",
                      "height" : 328.0,
                      "line-spacing" : 0.0,
                      "width" : 2560.47933278574,
                      "word-wrap" : 1.0,
                      "horizontal-alignment" : "center",
                      "resize-behavior" : "resizeText",
                      "text" : "THE PREVENTION OF HANDLE HIJACKING",
                      "vertical-alignment" : "center",
                      "font" : {
                        "color-blue" : 1.0,
                        "color-green" : 1.0,
                        "color-red" : 1.0,
                        "size" : 96.0,
                        "tracking" : 0.0,
                        "name" : "Montserrat",
                        "weight" : "Regular"
                      },
                      "textAttributes" : {
                        "type" : "textAttributeList",
                        "keyframes" : [
                          {
                            "endTime" : 0,
                            "time" : 0,
                            "value" : [{"name":"fontItalic","rangeEnd":34,"rangeStart":0,"value":0,"valueType":"int"},{"name":"fontWeight","rangeEnd":34,"rangeStart":0,"value":400,"valueType":"int"},{"name":"kerning","rangeEnd":34,"rangeStart":0,"value":0,"valueType":"double"},{"name":"fontName","rangeEnd":34,"rangeStart":0,"value":"Rockwell Condensed","valueType":"string"},{"name":"strikethrough","rangeEnd":34,"rangeStart":0,"value":0,"valueType":"int"},{"name":"fgColor","rangeEnd":34,"rangeStart":0,"value":"(255,255,255,255)","valueType":"color"},{"name":"underline","rangeEnd":34,"rangeStart":0,"value":0,"valueType":"int"},{"name":"fontSize","rangeEnd":34,"rangeStart":0,"value":180,"valueType":"double"}],
                            "duration" : 0
                          }
                        ]
                      }
                    },
                    "attributes" : {
                      "autoRotateText" : true
                    },
                    "parameters" : {
                      "translation0" : 0.0207095838021303,
                      "translation1" : 65.5625035902495
                    },
                    "effects" : [
                        {
                          "effectName" : "DropShadow",
                          "category" : "categoryVisualEffects",
                          "parameters" : {
                            "angle" : 5.49778714378214,
                            "blur" : 10.0,
                            "color-alpha" : 1.0,
                            "color-blue" : 0.1216,
                            "color-green" : 0.1216,
                            "color-red" : 0.1216,
                            "enabled" : 1,
                            "offset" : 10.0,
                            "opacity" : 0.4
                          }
                        }
                    ],
                    "start" : 0,
                    "duration" : 150,
                    "mediaStart" : 0,
                    "mediaDuration" : 150,
                    "scalar" : 1,
                    "metadata" : {
                      "WinSubProjectDisplayName" : "",
                      "clipSpeedAttribute" : false,
                      "default-HAlign" : "center",
                      "default-LineSpace" : 0.0,
                      "default-VAlign" : "center",
                      "default-text-attributes" : "[{\"name\":\"underline\",\"rangeEnd\":16,\"rangeStart\":0,\"value\":0,\"valueType\":\"int\"},{\"name\":\"strikethrough\",\"rangeEnd\":16,\"rangeStart\":0,\"value\":0,\"valueType\":\"int\"},{\"name\":\"fontWeight\",\"rangeEnd\":16,\"rangeStart\":0,\"value\":400,\"valueType\":\"int\"},{\"name\":\"fontSize\",\"rangeEnd\":16,\"rangeStart\":0,\"value\":96,\"valueType\":\"double\"},{\"name\":\"fontName\",\"rangeEnd\":16,\"rangeStart\":0,\"value\":\"Montserrat\",\"valueType\":\"string\"},{\"name\":\"fgColor\",\"rangeEnd\":16,\"rangeStart\":0,\"value\":\"(255,255,255,255)\",\"valueType\":\"color\"},{\"name\":\"fontItalic\",\"rangeEnd\":16,\"rangeStart\":0,\"value\":0,\"valueType\":\"int\"}]",
                      "default-translation0" : 0.0,
                      "default-translation1" : 0.0
                    },
                    "animationTracks" : {

                    }
                  },
                  {
                    "id" : 47,
                    "_type" : "ScreenVMFile",
                    "src" : 1,
                    "trackNumber" : 0,
                    "attributes" : {
                      "ident" : "handle_hijacking_attack_prevention"
                    },
                    "parameters" : {
                      "cursorScale" : {
                        "type" : "double",
                        "defaultValue" : 1.0,
                        "interp" : "linr"
                      },
                      "cursorOpacity" : {
                        "type" : "double",
                        "defaultValue" : 1.0,
                        "interp" : "linr"
                      }
                    },
                    "effects" : [
                        {
                          "effectName" : "CursorHilight",
                          "category" : "categoryCursorEffects",
                          "parameters" : {
                            "blur" : 0.1,
                            "color-alpha" : 0.75,
                            "color-blue" : 0.0,
                            "color-green" : 1.0,
                            "color-red" : 1.0,
                            "radius" : 50.0
                          }
                        }
                    ],
                    "start" : 150,
                    "duration" : 40,
                    "mediaStart" : 91,
                    "mediaDuration" : 118,
                    "scalar" : "20/59",
                    "metadata" : {
                      "AutoAppliedSmartFocus" : "False",
                      "clipSpeedAttribute" : true
                    },
                    "animationTracks" : {

                    }
                  },
                  {
                    "id" : 48,
                    "_type" : "StitchedMedia",
                    "minMediaStart" : 0,
                    "attributes" : {
                      "ident" : "handle_hijacking_attack_prevention",
                      "gain" : 1.0,
                      "mixToMono" : false
                    },
                    "parameters" : {
                      "translation0" : {
                        "type" : "double",
                        "defaultValue" : 0.0,
                        "keyframes" : [
                          {
                            "endTime" : 242,
                            "time" : 212,
                            "value" : 4445.6304568441,
                            "duration" : 30
                          },
                          {
                            "endTime" : 332,
                            "time" : 302,
                            "value" : -7.95807864051312e-13,
                            "duration" : 30
                          }
                        ]
                      },
                      "translation1" : {
                        "type" : "double",
                        "defaultValue" : 0.0,
                        "keyframes" : [
                          {
                            "endTime" : 242,
                            "time" : 212,
                            "value" : -2101.5592739797,
                            "duration" : 30
                          },
                          {
                            "endTime" : 332,
                            "time" : 302,
                            "value" : 4.54747350886464e-13,
                            "duration" : 30
                          }
                        ]
                      },
                      "scale0" : {
                        "type" : "double",
                        "defaultValue" : 1.0,
                        "keyframes" : [
                          {
                            "endTime" : 242,
                            "time" : 212,
                            "value" : 4.90967434857952,
                            "duration" : 30
                          },
                          {
                            "endTime" : 332,
                            "time" : 302,
                            "value" : 0.99999957889657,
                            "duration" : 30
                          }
                        ]
                      },
                      "scale1" : {
                        "type" : "double",
                        "defaultValue" : 1.0,
                        "keyframes" : [
                          {
                            "endTime" : 242,
                            "time" : 212,
                            "value" : 4.90967641606111,
                            "duration" : 30
                          },
                          {
                            "endTime" : 332,
                            "time" : 302,
                            "value" : 1.0,
                            "duration" : 30
                          }
                        ]
                      },
                      "cursorOpacity" : 1.0,
                      "cursorScale" : 1.0
                    },
                    "medias" : [
                        {
                          "id" : 49,
                          "_type" : "ScreenVMFile",
                          "src" : 1,
                          "trackNumber" : 0,
                          "attributes" : {
                            "ident" : "handle_hijacking_attack_prevention"
                          },
                          "parameters" : {
                            "cursorScale" : {
                              "type" : "double",
                              "defaultValue" : 0.0,
                              "interp" : "linr"
                            },
                            "cursorOpacity" : {
                              "type" : "double",
                              "defaultValue" : 0.0,
                              "interp" : "linr"
                            }
                          },
                          "effects" : [

                          ],
                          "start" : 0,
                          "duration" : 271,
                          "mediaStart" : 0,
                          "mediaDuration" : 271,
                          "scalar" : 1,
                          "metadata" : {
                            "AutoAppliedSmartFocus" : "False",
                            "clipSpeedAttribute" : false,
                            "default-scale0" : 1.0,
                            "default-scale1" : 1.0,
                            "default-translation0" : 0.0,
                            "default-translation1" : 0.0
                          },
                          "animationTracks" : {

                          }
                        },
                        {
                          "id" : 50,
                          "_type" : "ScreenIMFile",
                          "src" : 1,
                          "trackNumber" : 0,
                          "trimStartSum" : 0,
                          "attributes" : {
                            "ident" : "handle_hijacking_attack_prevention"
                          },
                          "parameters" : {
                            "cursorOpacity" : 0.0,
                            "cursorScale" : 0.0
                          },
                          "effects" : [

                          ],
                          "start" : 271,
                          "duration" : 30,
                          "mediaStart" : 270,
                          "mediaDuration" : 1,
                          "scalar" : 1,
                          "metadata" : {
                            "AutoAppliedSmartFocus" : "False"
                          },
                          "animationTracks" : {

                          }
                        },
                        {
                          "id" : 51,
                          "_type" : "ScreenVMFile",
                          "src" : 1,
                          "trackNumber" : 0,
                          "attributes" : {
                            "ident" : "handle_hijacking_attack_prevention"
                          },
                          "parameters" : {
                            "cursorScale" : {
                              "type" : "double",
                              "defaultValue" : 0.0,
                              "interp" : "linr"
                            },
                            "cursorOpacity" : {
                              "type" : "double",
                              "defaultValue" : 0.0,
                              "interp" : "linr"
                            }
                          },
                          "effects" : [

                          ],
                          "start" : 301,
                          "duration" : 6598,
                          "mediaStart" : 271,
                          "mediaDuration" : 6598,
                          "scalar" : 1,
                          "metadata" : {
                            "AutoAppliedSmartFocus" : "False",
                            "clipSpeedAttribute" : false,
                            "default-scale0" : 1.0,
                            "default-scale1" : 1.0,
                            "default-translation0" : 0.0,
                            "default-translation1" : 0.0
                          },
                          "animationTracks" : {

                          }
                        }
                    ],
                    "effects" : [
                        {
                          "effectName" : "CursorHilight",
                          "category" : "categoryCursorEffects",
                          "parameters" : {
                            "blur" : 0.1,
                            "color-alpha" : 0.75,
                            "color-blue" : 0.0,
                            "color-green" : 1.0,
                            "color-red" : 1.0,
                            "radius" : 50.0
                          }
                        }
                    ],
                    "start" : 190,
                    "duration" : 158,
                    "mediaStart" : 209,
                    "mediaDuration" : 158,
                    "scalar" : 1,
                    "metadata" : {
                      "AutoAppliedSmartFocus" : "False",
                      "clipSpeedAttribute" : false
                    },
                    "animationTracks" : {
                      "visual" : [
                        {
                          "endTime" : 242,
                          "duration" : 30,
                          "range" : [ 212, 30]
                        },
                        {
                          "endTime" : 332,
                          "duration" : 30,
                          "range" : [ 302, 30]
                        }
                      ]
                    }
                  },
                  {
                    "id" : 52,
                    "_type" : "ScreenVMFile",
                    "src" : 1,
                    "trackNumber" : 0,
                    "attributes" : {
                      "ident" : "handle_hijacking_attack_prevention"
                    },
                    "parameters" : {
                      "translation0" : {
                        "type" : "double",
                        "defaultValue" : 0.0,
                        "interp" : "eioe",
                        "keyframes" : [
                          {
                            "endTime" : 242,
                            "time" : 212,
                            "value" : 4445.6304568441,
                            "duration" : 30
                          },
                          {
                            "endTime" : 332,
                            "time" : 302,
                            "value" : -7.95807864051312e-13,
                            "duration" : 30
                          }
                        ]
                      },
                      "translation1" : {
                        "type" : "double",
                        "defaultValue" : 0.0,
                        "interp" : "eioe",
                        "keyframes" : [
                          {
                            "endTime" : 242,
                            "time" : 212,
                            "value" : -2101.5592739797,
                            "duration" : 30
                          },
                          {
                            "endTime" : 332,
                            "time" : 302,
                            "value" : 4.54747350886464e-13,
                            "duration" : 30
                          }
                        ]
                      },
                      "scale0" : {
                        "type" : "double",
                        "defaultValue" : 1.0,
                        "interp" : "eioe",
                        "keyframes" : [
                          {
                            "endTime" : 242,
                            "time" : 212,
                            "value" : 4.90967434857952,
                            "duration" : 30
                          },
                          {
                            "endTime" : 332,
                            "time" : 302,
                            "value" : 0.99999957889657,
                            "duration" : 30
                          }
                        ]
                      },
                      "scale1" : {
                        "type" : "double",
                        "defaultValue" : 1.0,
                        "interp" : "eioe",
                        "keyframes" : [
                          {
                            "endTime" : 242,
                            "time" : 212,
                            "value" : 4.90967641606111,
                            "duration" : 30
                          },
                          {
                            "endTime" : 332,
                            "time" : 302,
                            "value" : 1.0,
                            "duration" : 30
                          }
                        ]
                      },
                      "cursorScale" : {
                        "type" : "double",
                        "defaultValue" : 1.0,
                        "interp" : "linr"
                      },
                      "cursorOpacity" : {
                        "type" : "double",
                        "defaultValue" : 1.0,
                        "interp" : "linr"
                      }
                    },
                    "effects" : [
                        {
                          "effectName" : "CursorHilight",
                          "category" : "categoryCursorEffects",
                          "parameters" : {
                            "blur" : 0.1,
                            "color-alpha" : 0.75,
                            "color-blue" : 0.0,
                            "color-green" : 1.0,
                            "color-red" : 1.0,
                            "radius" : 50.0
                          }
                        }
                    ],
                    "start" : 348,
                    "duration" : 91,
                    "mediaStart" : 337,
                    "mediaDuration" : 224,
                    "scalar" : "13/32",
                    "metadata" : {
                      "AutoAppliedSmartFocus" : "False",
                      "clipSpeedAttribute" : true,
                      "default-scale0" : 1.0,
                      "default-scale1" : 1.0,
                      "default-translation0" : 0.0,
                      "default-translation1" : 0.0
                    },
                    "animationTracks" : {
                      "visual" : [
                        {
                          "endTime" : 242,
                          "duration" : 30,
                          "range" : [ 212, 30]
                        },
                        {
                          "endTime" : 332,
                          "duration" : 30,
                          "range" : [ 302, 30]
                        }
                      ]
                    }
                  },
                  {
                    "id" : 53,
                    "_type" : "ScreenVMFile",
                    "src" : 1,
                    "trackNumber" : 0,
                    "attributes" : {
                      "ident" : "handle_hijacking_attack_prevention"
                    },
                    "parameters" : {
                      "translation0" : {
                        "type" : "double",
                        "defaultValue" : 0.0,
                        "interp" : "eioe",
                        "keyframes" : [
                          {
                            "endTime" : 242,
                            "time" : 212,
                            "value" : 4445.6304568441,
                            "duration" : 30
                          },
                          {
                            "endTime" : 332,
                            "time" : 302,
                            "value" : -7.95807864051312e-13,
                            "duration" : 30
                          },
                          {
                            "endTime" : 1240,
                            "time" : 1210,
                            "value" : 1813.23805555168,
                            "duration" : 30
                          }
                        ]
                      },
                      "translation1" : {
                        "type" : "double",
                        "defaultValue" : 0.0,
                        "interp" : "eioe",
                        "keyframes" : [
                          {
                            "endTime" : 242,
                            "time" : 212,
                            "value" : -2101.5592739797,
                            "duration" : 30
                          },
                          {
                            "endTime" : 332,
                            "time" : 302,
                            "value" : 4.54747350886464e-13,
                            "duration" : 30
                          },
                          {
                            "endTime" : 1240,
                            "time" : 1210,
                            "value" : -64.2133379783955,
                            "duration" : 30
                          }
                        ]
                      },
                      "scale0" : {
                        "type" : "double",
                        "defaultValue" : 1.0,
                        "interp" : "eioe",
                        "keyframes" : [
                          {
                            "endTime" : 242,
                            "time" : 212,
                            "value" : 4.90967434857952,
                            "duration" : 30
                          },
                          {
                            "endTime" : 332,
                            "time" : 302,
                            "value" : 0.99999957889657,
                            "duration" : 30
                          },
                          {
                            "endTime" : 1240,
                            "time" : 1210,
                            "value" : 2.93925764732581,
                            "duration" : 30
                          }
                        ]
                      },
                      "scale1" : {
                        "type" : "double",
                        "defaultValue" : 1.0,
                        "interp" : "eioe",
                        "keyframes" : [
                          {
                            "endTime" : 242,
                            "time" : 212,
                            "value" : 4.90967641606111,
                            "duration" : 30
                          },
                          {
                            "endTime" : 332,
                            "time" : 302,
                            "value" : 1.0,
                            "duration" : 30
                          },
                          {
                            "endTime" : 1240,
                            "time" : 1210,
                            "value" : 2.9392594718793,
                            "duration" : 30
                          }
                        ]
                      },
                      "cursorScale" : {
                        "type" : "double",
                        "defaultValue" : 1.0,
                        "interp" : "linr"
                      },
                      "cursorOpacity" : {
                        "type" : "double",
                        "defaultValue" : 1.0,
                        "interp" : "linr"
                      }
                    },
                    "effects" : [
                        {
                          "effectName" : "CursorHilight",
                          "category" : "categoryCursorEffects",
                          "parameters" : {
                            "blur" : 0.1,
                            "color-alpha" : 0.75,
                            "color-blue" : 0.0,
                            "color-green" : 1.0,
                            "color-red" : 1.0,
                            "radius" : 50.0
                          }
                        }
                    ],
                    "start" : 439,
                    "duration" : 102,
                    "mediaStart" : 561,
                    "mediaDuration" : 102,
                    "scalar" : 1,
                    "metadata" : {
                      "AutoAppliedSmartFocus" : "False",
                      "clipSpeedAttribute" : false,
                      "default-scale0" : 1.0,
                      "default-scale1" : 1.0,
                      "default-translation0" : 0.0,
                      "default-translation1" : 0.0
                    },
                    "animationTracks" : {
                      "visual" : [
                        {
                          "endTime" : 242,
                          "duration" : 30,
                          "range" : [ 212, 30]
                        },
                        {
                          "endTime" : 332,
                          "duration" : 30,
                          "range" : [ 302, 30]
                        },
                        {
                          "endTime" : 1240,
                          "duration" : 30,
                          "range" : [ 1210, 30]
                        }
                      ]
                    }
                  },
                  {
                    "id" : 54,
                    "_type" : "ScreenVMFile",
                    "src" : 1,
                    "trackNumber" : 0,
                    "attributes" : {
                      "ident" : "handle_hijacking_attack_prevention"
                    },
                    "parameters" : {
                      "translation0" : {
                        "type" : "double",
                        "defaultValue" : 0.0,
                        "interp" : "eioe",
                        "keyframes" : [
                          {
                            "endTime" : 242,
                            "time" : 212,
                            "value" : 4445.6304568441,
                            "duration" : 30
                          },
                          {
                            "endTime" : 332,
                            "time" : 302,
                            "value" : -7.95807864051312e-13,
                            "duration" : 30
                          },
                          {
                            "endTime" : 1240,
                            "time" : 1210,
                            "value" : 1813.23805555168,
                            "duration" : 30
                          }
                        ]
                      },
                      "translation1" : {
                        "type" : "double",
                        "defaultValue" : 0.0,
                        "interp" : "eioe",
                        "keyframes" : [
                          {
                            "endTime" : 242,
                            "time" : 212,
                            "value" : -2101.5592739797,
                            "duration" : 30
                          },
                          {
                            "endTime" : 332,
                            "time" : 302,
                            "value" : 4.54747350886464e-13,
                            "duration" : 30
                          },
                          {
                            "endTime" : 1240,
                            "time" : 1210,
                            "value" : -64.2133379783955,
                            "duration" : 30
                          }
                        ]
                      },
                      "scale0" : {
                        "type" : "double",
                        "defaultValue" : 1.0,
                        "interp" : "eioe",
                        "keyframes" : [
                          {
                            "endTime" : 242,
                            "time" : 212,
                            "value" : 4.90967434857952,
                            "duration" : 30
                          },
                          {
                            "endTime" : 332,
                            "time" : 302,
                            "value" : 0.99999957889657,
                            "duration" : 30
                          },
                          {
                            "endTime" : 1240,
                            "time" : 1210,
                            "value" : 2.93925764732581,
                            "duration" : 30
                          }
                        ]
                      },
                      "scale1" : {
                        "type" : "double",
                        "defaultValue" : 1.0,
                        "interp" : "eioe",
                        "keyframes" : [
                          {
                            "endTime" : 242,
                            "time" : 212,
                            "value" : 4.90967641606111,
                            "duration" : 30
                          },
                          {
                            "endTime" : 332,
                            "time" : 302,
                            "value" : 1.0,
                            "duration" : 30
                          },
                          {
                            "endTime" : 1240,
                            "time" : 1210,
                            "value" : 2.9392594718793,
                            "duration" : 30
                          }
                        ]
                      },
                      "cursorScale" : {
                        "type" : "double",
                        "defaultValue" : 1.0,
                        "interp" : "linr"
                      },
                      "cursorOpacity" : {
                        "type" : "double",
                        "defaultValue" : 1.0,
                        "interp" : "linr"
                      }
                    },
                    "effects" : [
                        {
                          "effectName" : "CursorHilight",
                          "category" : "categoryCursorEffects",
                          "parameters" : {
                            "blur" : 0.1,
                            "color-alpha" : 0.75,
                            "color-blue" : 0.0,
                            "color-green" : 1.0,
                            "color-red" : 1.0,
                            "radius" : 50.0
                          }
                        }
                    ],
                    "start" : 541,
                    "duration" : 55,
                    "mediaStart" : 663,
                    "mediaDuration" : 136,
                    "scalar" : "55/136",
                    "metadata" : {
                      "AutoAppliedSmartFocus" : "False",
                      "clipSpeedAttribute" : true,
                      "default-scale0" : 1.0,
                      "default-scale1" : 1.0,
                      "default-translation0" : 0.0,
                      "default-translation1" : 0.0
                    },
                    "animationTracks" : {
                      "visual" : [
                        {
                          "endTime" : 242,
                          "duration" : 30,
                          "range" : [ 212, 30]
                        },
                        {
                          "endTime" : 332,
                          "duration" : 30,
                          "range" : [ 302, 30]
                        },
                        {
                          "endTime" : 1240,
                          "duration" : 30,
                          "range" : [ 1210, 30]
                        }
                      ]
                    }
                  },
                  {
                    "id" : 55,
                    "_type" : "ScreenVMFile",
                    "src" : 1,
                    "trackNumber" : 0,
                    "attributes" : {
                      "ident" : "handle_hijacking_attack_prevention"
                    },
                    "parameters" : {
                      "translation0" : {
                        "type" : "double",
                        "defaultValue" : 0.0,
                        "interp" : "eioe",
                        "keyframes" : [
                          {
                            "endTime" : 242,
                            "time" : 212,
                            "value" : 4445.6304568441,
                            "duration" : 30
                          },
                          {
                            "endTime" : 332,
                            "time" : 302,
                            "value" : -7.95807864051312e-13,
                            "duration" : 30
                          },
                          {
                            "endTime" : 1240,
                            "time" : 1210,
                            "value" : 1813.23805555168,
                            "duration" : 30
                          }
                        ]
                      },
                      "translation1" : {
                        "type" : "double",
                        "defaultValue" : 0.0,
                        "interp" : "eioe",
                        "keyframes" : [
                          {
                            "endTime" : 242,
                            "time" : 212,
                            "value" : -2101.5592739797,
                            "duration" : 30
                          },
                          {
                            "endTime" : 332,
                            "time" : 302,
                            "value" : 4.54747350886464e-13,
                            "duration" : 30
                          },
                          {
                            "endTime" : 1240,
                            "time" : 1210,
                            "value" : -64.2133379783955,
                            "duration" : 30
                          }
                        ]
                      },
                      "scale0" : {
                        "type" : "double",
                        "defaultValue" : 1.0,
                        "interp" : "eioe",
                        "keyframes" : [
                          {
                            "endTime" : 242,
                            "time" : 212,
                            "value" : 4.90967434857952,
                            "duration" : 30
                          },
                          {
                            "endTime" : 332,
                            "time" : 302,
                            "value" : 0.99999957889657,
                            "duration" : 30
                          },
                          {
                            "endTime" : 1240,
                            "time" : 1210,
                            "value" : 2.93925764732581,
                            "duration" : 30
                          }
                        ]
                      },
                      "scale1" : {
                        "type" : "double",
                        "defaultValue" : 1.0,
                        "interp" : "eioe",
                        "keyframes" : [
                          {
                            "endTime" : 242,
                            "time" : 212,
                            "value" : 4.90967641606111,
                            "duration" : 30
                          },
                          {
                            "endTime" : 332,
                            "time" : 302,
                            "value" : 1.0,
                            "duration" : 30
                          },
                          {
                            "endTime" : 1240,
                            "time" : 1210,
                            "value" : 2.9392594718793,
                            "duration" : 30
                          }
                        ]
                      },
                      "cursorScale" : {
                        "type" : "double",
                        "defaultValue" : 1.0,
                        "interp" : "linr"
                      },
                      "cursorOpacity" : {
                        "type" : "double",
                        "defaultValue" : 1.0,
                        "interp" : "linr"
                      }
                    },
                    "effects" : [
                        {
                          "effectName" : "CursorHilight",
                          "category" : "categoryCursorEffects",
                          "parameters" : {
                            "blur" : 0.1,
                            "color-alpha" : 0.75,
                            "color-blue" : 0.0,
                            "color-green" : 1.0,
                            "color-red" : 1.0,
                            "radius" : 50.0
                          }
                        }
                    ],
                    "start" : 596,
                    "duration" : 125,
                    "mediaStart" : 799,
                    "mediaDuration" : 370,
                    "scalar" : "25/74",
                    "metadata" : {
                      "AutoAppliedSmartFocus" : "False",
                      "clipSpeedAttribute" : true,
                      "default-scale0" : 1.0,
                      "default-scale1" : 1.0,
                      "default-translation0" : 0.0,
                      "default-translation1" : 0.0
                    },
                    "animationTracks" : {
                      "visual" : [
                        {
                          "endTime" : 242,
                          "duration" : 30,
                          "range" : [ 212, 30]
                        },
                        {
                          "endTime" : 332,
                          "duration" : 30,
                          "range" : [ 302, 30]
                        },
                        {
                          "endTime" : 1240,
                          "duration" : 30,
                          "range" : [ 1210, 30]
                        }
                      ]
                    }
                  },
                  {
                    "id" : 56,
                    "_type" : "ScreenVMFile",
                    "src" : 1,
                    "trackNumber" : 0,
                    "attributes" : {
                      "ident" : "handle_hijacking_attack_prevention"
                    },
                    "parameters" : {
                      "translation0" : {
                        "type" : "double",
                        "defaultValue" : 0.0,
                        "interp" : "eioe",
                        "keyframes" : [
                          {
                            "endTime" : 242,
                            "time" : 212,
                            "value" : 4445.6304568441,
                            "duration" : 30
                          },
                          {
                            "endTime" : 332,
                            "time" : 302,
                            "value" : -7.95807864051312e-13,
                            "duration" : 30
                          },
                          {
                            "endTime" : 1240,
                            "time" : 1210,
                            "value" : 1769.1,
                            "duration" : 30
                          }
                        ]
                      },
                      "translation1" : {
                        "type" : "double",
                        "defaultValue" : 0.0,
                        "interp" : "eioe",
                        "keyframes" : [
                          {
                            "endTime" : 242,
                            "time" : 212,
                            "value" : -2101.5592739797,
                            "duration" : 30
                          },
                          {
                            "endTime" : 332,
                            "time" : 302,
                            "value" : 4.54747350886464e-13,
                            "duration" : 30
                          },
                          {
                            "endTime" : 1240,
                            "time" : 1210,
                            "value" : -64.2,
                            "duration" : 30
                          }
                        ]
                      },
                      "scale0" : {
                        "type" : "double",
                        "defaultValue" : 1.0,
                        "interp" : "eioe",
                        "keyframes" : [
                          {
                            "endTime" : 242,
                            "time" : 212,
                            "value" : 4.90967434857952,
                            "duration" : 30
                          },
                          {
                            "endTime" : 332,
                            "time" : 302,
                            "value" : 0.99999957889657,
                            "duration" : 30
                          },
                          {
                            "endTime" : 1240,
                            "time" : 1210,
                            "value" : 2.93925764732581,
                            "duration" : 30
                          }
                        ]
                      },
                      "scale1" : {
                        "type" : "double",
                        "defaultValue" : 1.0,
                        "interp" : "eioe",
                        "keyframes" : [
                          {
                            "endTime" : 242,
                            "time" : 212,
                            "value" : 4.90967641606111,
                            "duration" : 30
                          },
                          {
                            "endTime" : 332,
                            "time" : 302,
                            "value" : 1.0,
                            "duration" : 30
                          },
                          {
                            "endTime" : 1240,
                            "time" : 1210,
                            "value" : 2.9392594718793,
                            "duration" : 30
                          }
                        ]
                      },
                      "cursorScale" : {
                        "type" : "double",
                        "defaultValue" : 1.0,
                        "interp" : "linr"
                      },
                      "cursorOpacity" : {
                        "type" : "double",
                        "defaultValue" : 1.0,
                        "interp" : "linr"
                      }
                    },
                    "effects" : [
                        {
                          "effectName" : "CursorHilight",
                          "category" : "categoryCursorEffects",
                          "parameters" : {
                            "blur" : 0.1,
                            "color-alpha" : 0.75,
                            "color-blue" : 0.0,
                            "color-green" : 1.0,
                            "color-red" : 1.0,
                            "radius" : 50.0
                          }
                        }
                    ],
                    "start" : 721,
                    "duration" : 35,
                    "mediaStart" : 1207,
                    "mediaDuration" : 35,
                    "scalar" : 1,
                    "metadata" : {
                      "AutoAppliedSmartFocus" : "False",
                      "clipSpeedAttribute" : false,
                      "default-scale0" : 1.0,
                      "default-scale1" : 1.0,
                      "default-translation0" : 0.0,
                      "default-translation1" : 0.0
                    },
                    "animationTracks" : {
                      "visual" : [
                        {
                          "endTime" : 242,
                          "duration" : 30,
                          "range" : [ 212, 30]
                        },
                        {
                          "endTime" : 332,
                          "duration" : 30,
                          "range" : [ 302, 30]
                        },
                        {
                          "endTime" : 1240,
                          "duration" : 30,
                          "range" : [ 1210, 30]
                        }
                      ]
                    }
                  },
                  {
                    "id" : 57,
                    "_type" : "ScreenVMFile",
                    "src" : 1,
                    "trackNumber" : 0,
                    "attributes" : {
                      "ident" : "handle_hijacking_attack_prevention"
                    },
                    "parameters" : {
                      "translation0" : {
                        "type" : "double",
                        "defaultValue" : 0.0,
                        "interp" : "eioe",
                        "keyframes" : [
                          {
                            "endTime" : 242,
                            "time" : 212,
                            "value" : 4445.6304568441,
                            "duration" : 30
                          },
                          {
                            "endTime" : 332,
                            "time" : 302,
                            "value" : -7.95807864051312e-13,
                            "duration" : 30
                          },
                          {
                            "endTime" : 1240,
                            "time" : 1210,
                            "value" : 1769.1,
                            "duration" : 30
                          }
                        ]
                      },
                      "translation1" : {
                        "type" : "double",
                        "defaultValue" : 0.0,
                        "interp" : "eioe",
                        "keyframes" : [
                          {
                            "endTime" : 242,
                            "time" : 212,
                            "value" : -2101.5592739797,
                            "duration" : 30
                          },
                          {
                            "endTime" : 332,
                            "time" : 302,
                            "value" : 4.54747350886464e-13,
                            "duration" : 30
                          },
                          {
                            "endTime" : 1240,
                            "time" : 1210,
                            "value" : -64.2133379783955,
                            "duration" : 30
                          }
                        ]
                      },
                      "scale0" : {
                        "type" : "double",
                        "defaultValue" : 1.0,
                        "interp" : "eioe",
                        "keyframes" : [
                          {
                            "endTime" : 242,
                            "time" : 212,
                            "value" : 4.90967434857952,
                            "duration" : 30
                          },
                          {
                            "endTime" : 332,
                            "time" : 302,
                            "value" : 0.99999957889657,
                            "duration" : 30
                          },
                          {
                            "endTime" : 1240,
                            "time" : 1210,
                            "value" : 2.93925764732581,
                            "duration" : 30
                          }
                        ]
                      },
                      "scale1" : {
                        "type" : "double",
                        "defaultValue" : 1.0,
                        "interp" : "eioe",
                        "keyframes" : [
                          {
                            "endTime" : 242,
                            "time" : 212,
                            "value" : 4.90967641606111,
                            "duration" : 30
                          },
                          {
                            "endTime" : 332,
                            "time" : 302,
                            "value" : 1.0,
                            "duration" : 30
                          },
                          {
                            "endTime" : 1240,
                            "time" : 1210,
                            "value" : 2.9392594718793,
                            "duration" : 30
                          }
                        ]
                      },
                      "cursorScale" : {
                        "type" : "double",
                        "defaultValue" : 1.0,
                        "interp" : "linr"
                      },
                      "cursorOpacity" : {
                        "type" : "double",
                        "defaultValue" : 1.0,
                        "interp" : "linr"
                      }
                    },
                    "effects" : [

                    ],
                    "start" : 756,
                    "duration" : 90,
                    "mediaStart" : 1242,
                    "mediaDuration" : 221,
                    "scalar" : "90/221",
                    "metadata" : {
                      "AutoAppliedSmartFocus" : "False",
                      "clipSpeedAttribute" : true,
                      "default-scale0" : 1.0,
                      "default-scale1" : 1.0,
                      "default-translation0" : 0.0,
                      "default-translation1" : 0.0
                    },
                    "animationTracks" : {
                      "visual" : [
                        {
                          "endTime" : 242,
                          "duration" : 30,
                          "range" : [ 212, 30]
                        },
                        {
                          "endTime" : 332,
                          "duration" : 30,
                          "range" : [ 302, 30]
                        },
                        {
                          "endTime" : 1240,
                          "duration" : 30,
                          "range" : [ 1210, 30]
                        }
                      ]
                    }
                  },
                  {
                    "id" : 58,
                    "_type" : "ScreenVMFile",
                    "src" : 1,
                    "trackNumber" : 0,
                    "attributes" : {
                      "ident" : "handle_hijacking_attack_prevention"
                    },
                    "parameters" : {
                      "translation0" : {
                        "type" : "double",
                        "defaultValue" : 0.0,
                        "interp" : "eioe",
                        "keyframes" : [
                          {
                            "endTime" : 242,
                            "time" : 212,
                            "value" : 4445.6304568441,
                            "duration" : 30
                          },
                          {
                            "endTime" : 332,
                            "time" : 302,
                            "value" : -7.95807864051312e-13,
                            "duration" : 30
                          },
                          {
                            "endTime" : 1240,
                            "time" : 1210,
                            "value" : 1769.1,
                            "duration" : 30
                          },
                          {
                            "endTime" : 1493,
                            "time" : 1463,
                            "value" : 1769.1,
                            "duration" : 30
                          }
                        ]
                      },
                      "translation1" : {
                        "type" : "double",
                        "defaultValue" : 0.0,
                        "interp" : "eioe",
                        "keyframes" : [
                          {
                            "endTime" : 242,
                            "time" : 212,
                            "value" : -2101.5592739797,
                            "duration" : 30
                          },
                          {
                            "endTime" : 332,
                            "time" : 302,
                            "value" : 4.54747350886464e-13,
                            "duration" : 30
                          },
                          {
                            "endTime" : 1240,
                            "time" : 1210,
                            "value" : 0.0,
                            "duration" : 30
                          },
                          {
                            "endTime" : 1493,
                            "time" : 1463,
                            "value" : 764.586721975313,
                            "duration" : 30
                          }
                        ]
                      },
                      "scale0" : {
                        "type" : "double",
                        "defaultValue" : 1.0,
                        "interp" : "eioe",
                        "keyframes" : [
                          {
                            "endTime" : 242,
                            "time" : 212,
                            "value" : 4.90967434857952,
                            "duration" : 30
                          },
                          {
                            "endTime" : 332,
                            "time" : 302,
                            "value" : 0.99999957889657,
                            "duration" : 30
                          },
                          {
                            "endTime" : 1240,
                            "time" : 1210,
                            "value" : 2.93925764732581,
                            "duration" : 30
                          },
                          {
                            "endTime" : 1493,
                            "time" : 1463,
                            "value" : 2.93925755430459,
                            "duration" : 30
                          }
                        ]
                      },
                      "scale1" : {
                        "type" : "double",
                        "defaultValue" : 1.0,
                        "interp" : "eioe",
                        "keyframes" : [
                          {
                            "endTime" : 242,
                            "time" : 212,
                            "value" : 4.90967641606111,
                            "duration" : 30
                          },
                          {
                            "endTime" : 332,
                            "time" : 302,
                            "value" : 1.0,
                            "duration" : 30
                          },
                          {
                            "endTime" : 1240,
                            "time" : 1210,
                            "value" : 2.9392594718793,
                            "duration" : 30
                          }
                        ]
                      },
                      "cursorScale" : {
                        "type" : "double",
                        "defaultValue" : 1.0,
                        "interp" : "linr"
                      },
                      "cursorOpacity" : {
                        "type" : "double",
                        "defaultValue" : 1.0,
                        "interp" : "linr"
                      }
                    },
                    "effects" : [
                        {
                          "effectName" : "CursorHilight",
                          "category" : "categoryCursorEffects",
                          "parameters" : {
                            "blur" : 0.1,
                            "color-alpha" : 0.75,
                            "color-blue" : 0.0,
                            "color-green" : 1.0,
                            "color-red" : 1.0,
                            "radius" : 50.0
                          }
                        }
                    ],
                    "start" : 846,
                    "duration" : 101,
                    "mediaStart" : 1463,
                    "mediaDuration" : 101,
                    "scalar" : 1,
                    "metadata" : {
                      "AutoAppliedSmartFocus" : "False",
                      "clipSpeedAttribute" : false,
                      "default-scale0" : 1.0,
                      "default-scale1" : 1.0,
                      "default-translation0" : 0.0,
                      "default-translation1" : 0.0
                    },
                    "animationTracks" : {
                      "visual" : [
                        {
                          "endTime" : 242,
                          "duration" : 30,
                          "range" : [ 212, 30]
                        },
                        {
                          "endTime" : 332,
                          "duration" : 30,
                          "range" : [ 302, 30]
                        },
                        {
                          "endTime" : 1240,
                          "duration" : 30,
                          "range" : [ 1210, 30]
                        },
                        {
                          "endTime" : 1493,
                          "duration" : 30,
                          "range" : [ 1463, 30]
                        }
                      ]
                    }
                  },
                  {
                    "id" : 59,
                    "_type" : "ScreenVMFile",
                    "src" : 1,
                    "trackNumber" : 0,
                    "attributes" : {
                      "ident" : "handle_hijacking_attack_prevention"
                    },
                    "parameters" : {
                      "translation0" : {
                        "type" : "double",
                        "defaultValue" : 0.0,
                        "interp" : "eioe",
                        "keyframes" : [
                          {
                            "endTime" : 242,
                            "time" : 212,
                            "value" : 4445.6304568441,
                            "duration" : 30
                          },
                          {
                            "endTime" : 332,
                            "time" : 302,
                            "value" : -7.95807864051312e-13,
                            "duration" : 30
                          },
                          {
                            "endTime" : 1240,
                            "time" : 1210,
                            "value" : 1813.23805555168,
                            "duration" : 30
                          },
                          {
                            "endTime" : 1493,
                            "time" : 1463,
                            "value" : 1769.1,
                            "duration" : 30
                          }
                        ]
                      },
                      "translation1" : {
                        "type" : "double",
                        "defaultValue" : 0.0,
                        "interp" : "eioe",
                        "keyframes" : [
                          {
                            "endTime" : 242,
                            "time" : 212,
                            "value" : -2101.5592739797,
                            "duration" : 30
                          },
                          {
                            "endTime" : 332,
                            "time" : 302,
                            "value" : 4.54747350886464e-13,
                            "duration" : 30
                          },
                          {
                            "endTime" : 1240,
                            "time" : 1210,
                            "value" : 0.0,
                            "duration" : 30
                          },
                          {
                            "endTime" : 1493,
                            "time" : 1463,
                            "value" : 764.586721975313,
                            "duration" : 30
                          }
                        ]
                      },
                      "scale0" : {
                        "type" : "double",
                        "defaultValue" : 1.0,
                        "interp" : "eioe",
                        "keyframes" : [
                          {
                            "endTime" : 242,
                            "time" : 212,
                            "value" : 4.90967434857952,
                            "duration" : 30
                          },
                          {
                            "endTime" : 332,
                            "time" : 302,
                            "value" : 0.99999957889657,
                            "duration" : 30
                          },
                          {
                            "endTime" : 1240,
                            "time" : 1210,
                            "value" : 2.93925764732581,
                            "duration" : 30
                          },
                          {
                            "endTime" : 1493,
                            "time" : 1463,
                            "value" : 2.93925755430459,
                            "duration" : 30
                          }
                        ]
                      },
                      "scale1" : {
                        "type" : "double",
                        "defaultValue" : 1.0,
                        "interp" : "eioe",
                        "keyframes" : [
                          {
                            "endTime" : 242,
                            "time" : 212,
                            "value" : 4.90967641606111,
                            "duration" : 30
                          },
                          {
                            "endTime" : 332,
                            "time" : 302,
                            "value" : 1.0,
                            "duration" : 30
                          },
                          {
                            "endTime" : 1240,
                            "time" : 1210,
                            "value" : 2.9392594718793,
                            "duration" : 30
                          }
                        ]
                      },
                      "cursorScale" : {
                        "type" : "double",
                        "defaultValue" : 1.0,
                        "interp" : "linr"
                      },
                      "cursorOpacity" : {
                        "type" : "double",
                        "defaultValue" : 1.0,
                        "interp" : "linr"
                      }
                    },
                    "effects" : [
                        {
                          "effectName" : "CursorHilight",
                          "category" : "categoryCursorEffects",
                          "parameters" : {
                            "blur" : 0.1,
                            "color-alpha" : 0.75,
                            "color-blue" : 0.0,
                            "color-green" : 1.0,
                            "color-red" : 1.0,
                            "radius" : 50.0
                          }
                        }
                    ],
                    "start" : 947,
                    "duration" : 101,
                    "mediaStart" : 1564,
                    "mediaDuration" : 439,
                    "scalar" : "101/439",
                    "metadata" : {
                      "AutoAppliedSmartFocus" : "False",
                      "clipSpeedAttribute" : true,
                      "default-scale0" : 1.0,
                      "default-scale1" : 1.0,
                      "default-translation0" : 0.0,
                      "default-translation1" : 0.0
                    },
                    "animationTracks" : {
                      "visual" : [
                        {
                          "endTime" : 242,
                          "duration" : 30,
                          "range" : [ 212, 30]
                        },
                        {
                          "endTime" : 332,
                          "duration" : 30,
                          "range" : [ 302, 30]
                        },
                        {
                          "endTime" : 1240,
                          "duration" : 30,
                          "range" : [ 1210, 30]
                        },
                        {
                          "endTime" : 1493,
                          "duration" : 30,
                          "range" : [ 1463, 30]
                        }
                      ]
                    }
                  },
                  {
                    "id" : 60,
                    "_type" : "ScreenVMFile",
                    "src" : 1,
                    "trackNumber" : 0,
                    "attributes" : {
                      "ident" : "handle_hijacking_attack_prevention"
                    },
                    "parameters" : {
                      "translation0" : {
                        "type" : "double",
                        "defaultValue" : 0.0,
                        "interp" : "eioe",
                        "keyframes" : [
                          {
                            "endTime" : 242,
                            "time" : 212,
                            "value" : 4445.6304568441,
                            "duration" : 30
                          },
                          {
                            "endTime" : 332,
                            "time" : 302,
                            "value" : -7.95807864051312e-13,
                            "duration" : 30
                          },
                          {
                            "endTime" : 1240,
                            "time" : 1210,
                            "value" : 1813.23805555168,
                            "duration" : 30
                          },
                          {
                            "endTime" : 1493,
                            "time" : 1463,
                            "value" : 1769.1,
                            "duration" : 30
                          },
                          {
                            "endTime" : 2029,
                            "time" : 2003,
                            "value" : 1769.08221838715,
                            "duration" : 26
                          }
                        ]
                      },
                      "translation1" : {
                        "type" : "double",
                        "defaultValue" : 0.0,
                        "interp" : "eioe",
                        "keyframes" : [
                          {
                            "endTime" : 242,
                            "time" : 212,
                            "value" : -2101.5592739797,
                            "duration" : 30
                          },
                          {
                            "endTime" : 332,
                            "time" : 302,
                            "value" : 4.54747350886464e-13,
                            "duration" : 30
                          },
                          {
                            "endTime" : 1240,
                            "time" : 1210,
                            "value" : 0.0,
                            "duration" : 30
                          },
                          {
                            "endTime" : 1493,
                            "time" : 1463,
                            "value" : 764.586721975313,
                            "duration" : 30
                          },
                          {
                            "endTime" : 2029,
                            "time" : 2003,
                            "value" : 955.733402469141,
                            "duration" : 26
                          }
                        ]
                      },
                      "scale0" : {
                        "type" : "double",
                        "defaultValue" : 1.0,
                        "interp" : "eioe",
                        "keyframes" : [
                          {
                            "endTime" : 242,
                            "time" : 212,
                            "value" : 4.90967434857952,
                            "duration" : 30
                          },
                          {
                            "endTime" : 332,
                            "time" : 302,
                            "value" : 0.99999957889657,
                            "duration" : 30
                          },
                          {
                            "endTime" : 1240,
                            "time" : 1210,
                            "value" : 2.93925764732581,
                            "duration" : 30
                          },
                          {
                            "endTime" : 1493,
                            "time" : 1463,
                            "value" : 2.93925755430459,
                            "duration" : 30
                          },
                          {
                            "endTime" : 2029,
                            "time" : 2003,
                            "value" : 2.93925746128338,
                            "duration" : 26
                          }
                        ]
                      },
                      "scale1" : {
                        "type" : "double",
                        "defaultValue" : 1.0,
                        "interp" : "eioe",
                        "keyframes" : [
                          {
                            "endTime" : 242,
                            "time" : 212,
                            "value" : 4.90967641606111,
                            "duration" : 30
                          },
                          {
                            "endTime" : 332,
                            "time" : 302,
                            "value" : 1.0,
                            "duration" : 30
                          },
                          {
                            "endTime" : 1240,
                            "time" : 1210,
                            "value" : 2.9392594718793,
                            "duration" : 30
                          },
                          {
                            "endTime" : 2029,
                            "time" : 2003,
                            "value" : 2.9392594718793,
                            "duration" : 26
                          }
                        ]
                      },
                      "cursorScale" : {
                        "type" : "double",
                        "defaultValue" : 1.0,
                        "interp" : "linr"
                      },
                      "cursorOpacity" : {
                        "type" : "double",
                        "defaultValue" : 1.0,
                        "interp" : "linr"
                      }
                    },
                    "effects" : [
                        {
                          "effectName" : "CursorHilight",
                          "category" : "categoryCursorEffects",
                          "parameters" : {
                            "blur" : 0.1,
                            "color-alpha" : 0.75,
                            "color-blue" : 0.0,
                            "color-green" : 1.0,
                            "color-red" : 1.0,
                            "radius" : 50.0
                          }
                        }
                    ],
                    "start" : 1048,
                    "duration" : 181,
                    "mediaStart" : 2003,
                    "mediaDuration" : 181,
                    "scalar" : 1,
                    "metadata" : {
                      "AutoAppliedSmartFocus" : "False",
                      "clipSpeedAttribute" : false,
                      "default-scale0" : 1.0,
                      "default-scale1" : 1.0,
                      "default-translation0" : 0.0,
                      "default-translation1" : 0.0
                    },
                    "animationTracks" : {
                      "visual" : [
                        {
                          "endTime" : 242,
                          "duration" : 30,
                          "range" : [ 212, 30]
                        },
                        {
                          "endTime" : 332,
                          "duration" : 30,
                          "range" : [ 302, 30]
                        },
                        {
                          "endTime" : 1240,
                          "duration" : 30,
                          "range" : [ 1210, 30]
                        },
                        {
                          "endTime" : 1493,
                          "duration" : 30,
                          "range" : [ 1463, 30]
                        },
                        {
                          "endTime" : 2029,
                          "duration" : 26,
                          "range" : [ 2003, 26]
                        }
                      ]
                    }
                  },
                  {
                    "id" : 61,
                    "_type" : "ScreenVMFile",
                    "src" : 1,
                    "trackNumber" : 0,
                    "attributes" : {
                      "ident" : "handle_hijacking_attack_prevention"
                    },
                    "parameters" : {
                      "translation0" : {
                        "type" : "double",
                        "defaultValue" : 0.0,
                        "interp" : "eioe",
                        "keyframes" : [
                          {
                            "endTime" : 242,
                            "time" : 212,
                            "value" : 4445.6304568441,
                            "duration" : 30
                          },
                          {
                            "endTime" : 332,
                            "time" : 302,
                            "value" : -7.95807864051312e-13,
                            "duration" : 30
                          },
                          {
                            "endTime" : 1240,
                            "time" : 1210,
                            "value" : 1813.23805555168,
                            "duration" : 30
                          },
                          {
                            "endTime" : 1493,
                            "time" : 1463,
                            "value" : 1769.1,
                            "duration" : 30
                          },
                          {
                            "endTime" : 2029,
                            "time" : 2003,
                            "value" : 1769.08221838715,
                            "duration" : 26
                          },
                          {
                            "endTime" : 2418,
                            "time" : 2388,
                            "value" : -1.13686837721616e-13,
                            "duration" : 30
                          }
                        ]
                      },
                      "translation1" : {
                        "type" : "double",
                        "defaultValue" : 0.0,
                        "interp" : "eioe",
                        "keyframes" : [
                          {
                            "endTime" : 242,
                            "time" : 212,
                            "value" : -2101.5592739797,
                            "duration" : 30
                          },
                          {
                            "endTime" : 332,
                            "time" : 302,
                            "value" : 4.54747350886464e-13,
                            "duration" : 30
                          },
                          {
                            "endTime" : 1240,
                            "time" : 1210,
                            "value" : 0.0,
                            "duration" : 30
                          },
                          {
                            "endTime" : 1493,
                            "time" : 1463,
                            "value" : 764.586721975313,
                            "duration" : 30
                          },
                          {
                            "endTime" : 2029,
                            "time" : 2003,
                            "value" : 955.733402469141,
                            "duration" : 26
                          },
                          {
                            "endTime" : 2418,
                            "time" : 2388,
                            "value" : -5.6843418860808e-14,
                            "duration" : 30
                          }
                        ]
                      },
                      "scale0" : {
                        "type" : "double",
                        "defaultValue" : 1.0,
                        "interp" : "eioe",
                        "keyframes" : [
                          {
                            "endTime" : 242,
                            "time" : 212,
                            "value" : 4.90967434857952,
                            "duration" : 30
                          },
                          {
                            "endTime" : 332,
                            "time" : 302,
                            "value" : 0.99999957889657,
                            "duration" : 30
                          },
                          {
                            "endTime" : 1240,
                            "time" : 1210,
                            "value" : 2.93925764732581,
                            "duration" : 30
                          },
                          {
                            "endTime" : 1493,
                            "time" : 1463,
                            "value" : 2.93925755430459,
                            "duration" : 30
                          },
                          {
                            "endTime" : 2029,
                            "time" : 2003,
                            "value" : 2.93925746128338,
                            "duration" : 26
                          },
                          {
                            "endTime" : 2418,
                            "time" : 2388,
                            "value" : 0.999999315951539,
                            "duration" : 30
                          }
                        ]
                      },
                      "scale1" : {
                        "type" : "double",
                        "defaultValue" : 1.0,
                        "interp" : "eioe",
                        "keyframes" : [
                          {
                            "endTime" : 242,
                            "time" : 212,
                            "value" : 4.90967641606111,
                            "duration" : 30
                          },
                          {
                            "endTime" : 332,
                            "time" : 302,
                            "value" : 1.0,
                            "duration" : 30
                          },
                          {
                            "endTime" : 1240,
                            "time" : 1210,
                            "value" : 2.9392594718793,
                            "duration" : 30
                          },
                          {
                            "endTime" : 2029,
                            "time" : 2003,
                            "value" : 2.9392594718793,
                            "duration" : 26
                          },
                          {
                            "endTime" : 2418,
                            "time" : 2388,
                            "value" : 1.0,
                            "duration" : 30
                          }
                        ]
                      },
                      "cursorScale" : {
                        "type" : "double",
                        "defaultValue" : 1.0,
                        "interp" : "linr"
                      },
                      "cursorOpacity" : {
                        "type" : "double",
                        "defaultValue" : 1.0,
                        "interp" : "linr"
                      }
                    },
                    "effects" : [
                        {
                          "effectName" : "CursorHilight",
                          "category" : "categoryCursorEffects",
                          "parameters" : {
                            "blur" : 0.1,
                            "color-alpha" : 0.75,
                            "color-blue" : 0.0,
                            "color-green" : 1.0,
                            "color-red" : 1.0,
                            "radius" : 50.0
                          }
                        }
                    ],
                    "start" : 1229,
                    "duration" : 34,
                    "mediaStart" : 2184,
                    "mediaDuration" : 192,
                    "scalar" : "17/96",
                    "metadata" : {
                      "AutoAppliedSmartFocus" : "False",
                      "clipSpeedAttribute" : true,
                      "default-scale0" : 1.0,
                      "default-scale1" : 1.0,
                      "default-translation0" : 0.0,
                      "default-translation1" : 0.0
                    },
                    "animationTracks" : {
                      "visual" : [
                        {
                          "endTime" : 242,
                          "duration" : 30,
                          "range" : [ 212, 30]
                        },
                        {
                          "endTime" : 332,
                          "duration" : 30,
                          "range" : [ 302, 30]
                        },
                        {
                          "endTime" : 1240,
                          "duration" : 30,
                          "range" : [ 1210, 30]
                        },
                        {
                          "endTime" : 1493,
                          "duration" : 30,
                          "range" : [ 1463, 30]
                        },
                        {
                          "endTime" : 2029,
                          "duration" : 26,
                          "range" : [ 2003, 26]
                        },
                        {
                          "endTime" : 2418,
                          "duration" : 30,
                          "range" : [ 2388, 30]
                        }
                      ]
                    }
                  },
                  {
                    "id" : 62,
                    "_type" : "StitchedMedia",
                    "minMediaStart" : 0,
                    "attributes" : {
                      "ident" : "handle_hijacking_attack_prevention",
                      "gain" : 1.0,
                      "mixToMono" : false
                    },
                    "parameters" : {
                      "translation0" : {
                        "type" : "double",
                        "defaultValue" : 0.0,
                        "keyframes" : [
                          {
                            "endTime" : 242,
                            "time" : 212,
                            "value" : 4445.6304568441,
                            "duration" : 30
                          },
                          {
                            "endTime" : 332,
                            "time" : 302,
                            "value" : -7.95807864051312e-13,
                            "duration" : 30
                          },
                          {
                            "endTime" : 1240,
                            "time" : 1210,
                            "value" : 1813.23805555168,
                            "duration" : 30
                          },
                          {
                            "endTime" : 1493,
                            "time" : 1463,
                            "value" : 1769.1,
                            "duration" : 30
                          },
                          {
                            "endTime" : 2029,
                            "time" : 2003,
                            "value" : 1769.08221838715,
                            "duration" : 26
                          },
                          {
                            "endTime" : 2568,
                            "time" : 2538,
                            "value" : -1.13686837721616e-13,
                            "duration" : 30
                          }
                        ]
                      },
                      "translation1" : {
                        "type" : "double",
                        "defaultValue" : 0.0,
                        "keyframes" : [
                          {
                            "endTime" : 242,
                            "time" : 212,
                            "value" : -2101.5592739797,
                            "duration" : 30
                          },
                          {
                            "endTime" : 332,
                            "time" : 302,
                            "value" : 4.54747350886464e-13,
                            "duration" : 30
                          },
                          {
                            "endTime" : 1240,
                            "time" : 1210,
                            "value" : 0.0,
                            "duration" : 30
                          },
                          {
                            "endTime" : 1493,
                            "time" : 1463,
                            "value" : 764.586721975313,
                            "duration" : 30
                          },
                          {
                            "endTime" : 2029,
                            "time" : 2003,
                            "value" : 955.733402469141,
                            "duration" : 26
                          },
                          {
                            "endTime" : 2568,
                            "time" : 2538,
                            "value" : -5.6843418860808e-14,
                            "duration" : 30
                          }
                        ]
                      },
                      "scale0" : {
                        "type" : "double",
                        "defaultValue" : 1.0,
                        "keyframes" : [
                          {
                            "endTime" : 242,
                            "time" : 212,
                            "value" : 4.90967434857952,
                            "duration" : 30
                          },
                          {
                            "endTime" : 332,
                            "time" : 302,
                            "value" : 0.99999957889657,
                            "duration" : 30
                          },
                          {
                            "endTime" : 1240,
                            "time" : 1210,
                            "value" : 2.93925764732581,
                            "duration" : 30
                          },
                          {
                            "endTime" : 1493,
                            "time" : 1463,
                            "value" : 2.93925755430459,
                            "duration" : 30
                          },
                          {
                            "endTime" : 2029,
                            "time" : 2003,
                            "value" : 2.93925746128338,
                            "duration" : 26
                          },
                          {
                            "endTime" : 2568,
                            "time" : 2538,
                            "value" : 0.999999315951539,
                            "duration" : 30
                          }
                        ]
                      },
                      "scale1" : {
                        "type" : "double",
                        "defaultValue" : 1.0,
                        "keyframes" : [
                          {
                            "endTime" : 242,
                            "time" : 212,
                            "value" : 4.90967641606111,
                            "duration" : 30
                          },
                          {
                            "endTime" : 332,
                            "time" : 302,
                            "value" : 1.0,
                            "duration" : 30
                          },
                          {
                            "endTime" : 1240,
                            "time" : 1210,
                            "value" : 2.9392594718793,
                            "duration" : 30
                          },
                          {
                            "endTime" : 2029,
                            "time" : 2003,
                            "value" : 2.9392594718793,
                            "duration" : 26
                          },
                          {
                            "endTime" : 2568,
                            "time" : 2538,
                            "value" : 1.0,
                            "duration" : 30
                          }
                        ]
                      },
                      "cursorOpacity" : 1.0,
                      "cursorScale" : 1.0
                    },
                    "medias" : [
                        {
                          "id" : 63,
                          "_type" : "ScreenVMFile",
                          "src" : 1,
                          "trackNumber" : 0,
                          "attributes" : {
                            "ident" : "handle_hijacking_attack_prevention"
                          },
                          "parameters" : {
                            "cursorScale" : {
                              "type" : "double",
                              "defaultValue" : 0.0,
                              "interp" : "linr"
                            },
                            "cursorOpacity" : {
                              "type" : "double",
                              "defaultValue" : 0.0,
                              "interp" : "linr"
                            }
                          },
                          "effects" : [

                          ],
                          "start" : 0,
                          "duration" : 2383,
                          "mediaStart" : 0,
                          "mediaDuration" : 2383,
                          "scalar" : 1,
                          "metadata" : {
                            "AutoAppliedSmartFocus" : "False",
                            "clipSpeedAttribute" : false,
                            "default-scale0" : 1.0,
                            "default-scale1" : 1.0,
                            "default-translation0" : 0.0,
                            "default-translation1" : 0.0
                          },
                          "animationTracks" : {

                          }
                        },
                        {
                          "id" : 64,
                          "_type" : "ScreenIMFile",
                          "src" : 1,
                          "trackNumber" : 0,
                          "trimStartSum" : 0,
                          "attributes" : {
                            "ident" : "handle_hijacking_attack_prevention"
                          },
                          "parameters" : {
                            "cursorOpacity" : 0.0,
                            "cursorScale" : 0.0
                          },
                          "effects" : [

                          ],
                          "start" : 2383,
                          "duration" : 150,
                          "mediaStart" : 2382,
                          "mediaDuration" : 1,
                          "scalar" : 1,
                          "metadata" : {
                            "AutoAppliedSmartFocus" : "False"
                          },
                          "animationTracks" : {

                          }
                        },
                        {
                          "id" : 65,
                          "_type" : "ScreenVMFile",
                          "src" : 1,
                          "trackNumber" : 0,
                          "attributes" : {
                            "ident" : "handle_hijacking_attack_prevention"
                          },
                          "parameters" : {
                            "cursorScale" : {
                              "type" : "double",
                              "defaultValue" : 0.0,
                              "interp" : "linr"
                            },
                            "cursorOpacity" : {
                              "type" : "double",
                              "defaultValue" : 0.0,
                              "interp" : "linr"
                            }
                          },
                          "effects" : [

                          ],
                          "start" : 2533,
                          "duration" : 4486,
                          "mediaStart" : 2383,
                          "mediaDuration" : 4486,
                          "scalar" : 1,
                          "metadata" : {
                            "AutoAppliedSmartFocus" : "False",
                            "clipSpeedAttribute" : false,
                            "default-scale0" : 1.0,
                            "default-scale1" : 1.0,
                            "default-translation0" : 0.0,
                            "default-translation1" : 0.0
                          },
                          "animationTracks" : {

                          }
                        }
                    ],
                    "effects" : [
                        {
                          "effectName" : "CursorHilight",
                          "category" : "categoryCursorEffects",
                          "parameters" : {
                            "blur" : 0.1,
                            "color-alpha" : 0.75,
                            "color-blue" : 0.0,
                            "color-green" : 1.0,
                            "color-red" : 1.0,
                            "radius" : 50.0
                          }
                        }
                    ],
                    "start" : 1263,
                    "duration" : 147,
                    "mediaStart" : 2376,
                    "mediaDuration" : 147,
                    "scalar" : 1,
                    "metadata" : {
                      "AutoAppliedSmartFocus" : "False",
                      "clipSpeedAttribute" : false
                    },
                    "animationTracks" : {
                      "visual" : [
                        {
                          "endTime" : 242,
                          "duration" : 30,
                          "range" : [ 212, 30]
                        },
                        {
                          "endTime" : 332,
                          "duration" : 30,
                          "range" : [ 302, 30]
                        },
                        {
                          "endTime" : 1240,
                          "duration" : 30,
                          "range" : [ 1210, 30]
                        },
                        {
                          "endTime" : 1493,
                          "duration" : 30,
                          "range" : [ 1463, 30]
                        },
                        {
                          "endTime" : 2029,
                          "duration" : 26,
                          "range" : [ 2003, 26]
                        },
                        {
                          "endTime" : 2568,
                          "duration" : 30,
                          "range" : [ 2538, 30]
                        }
                      ]
                    }
                  },
                  {
                    "id" : 66,
                    "_type" : "StitchedMedia",
                    "minMediaStart" : 0,
                    "attributes" : {
                      "ident" : "handle_hijacking_attack_prevention",
                      "gain" : 1.0,
                      "mixToMono" : false
                    },
                    "parameters" : {
                      "translation0" : {
                        "type" : "double",
                        "defaultValue" : 0.0,
                        "keyframes" : [
                          {
                            "endTime" : 242,
                            "time" : 212,
                            "value" : 4445.6304568441,
                            "duration" : 30
                          },
                          {
                            "endTime" : 332,
                            "time" : 302,
                            "value" : -7.95807864051312e-13,
                            "duration" : 30
                          },
                          {
                            "endTime" : 1240,
                            "time" : 1210,
                            "value" : 1813.23805555168,
                            "duration" : 30
                          },
                          {
                            "endTime" : 1493,
                            "time" : 1463,
                            "value" : 1769.1,
                            "duration" : 30
                          },
                          {
                            "endTime" : 2029,
                            "time" : 2003,
                            "value" : 1769.08221838715,
                            "duration" : 26
                          },
                          {
                            "endTime" : 2478,
                            "time" : 2448,
                            "value" : -1.13686837721616e-13,
                            "duration" : 30
                          }
                        ]
                      },
                      "translation1" : {
                        "type" : "double",
                        "defaultValue" : 0.0,
                        "keyframes" : [
                          {
                            "endTime" : 242,
                            "time" : 212,
                            "value" : -2101.5592739797,
                            "duration" : 30
                          },
                          {
                            "endTime" : 332,
                            "time" : 302,
                            "value" : 4.54747350886464e-13,
                            "duration" : 30
                          },
                          {
                            "endTime" : 1240,
                            "time" : 1210,
                            "value" : 0.0,
                            "duration" : 30
                          },
                          {
                            "endTime" : 1493,
                            "time" : 1463,
                            "value" : 764.586721975313,
                            "duration" : 30
                          },
                          {
                            "endTime" : 2029,
                            "time" : 2003,
                            "value" : 955.733402469141,
                            "duration" : 26
                          },
                          {
                            "endTime" : 2478,
                            "time" : 2448,
                            "value" : -5.6843418860808e-14,
                            "duration" : 30
                          }
                        ]
                      },
                      "scale0" : {
                        "type" : "double",
                        "defaultValue" : 1.0,
                        "keyframes" : [
                          {
                            "endTime" : 242,
                            "time" : 212,
                            "value" : 4.90967434857952,
                            "duration" : 30
                          },
                          {
                            "endTime" : 332,
                            "time" : 302,
                            "value" : 0.99999957889657,
                            "duration" : 30
                          },
                          {
                            "endTime" : 1240,
                            "time" : 1210,
                            "value" : 2.93925764732581,
                            "duration" : 30
                          },
                          {
                            "endTime" : 1493,
                            "time" : 1463,
                            "value" : 2.93925755430459,
                            "duration" : 30
                          },
                          {
                            "endTime" : 2029,
                            "time" : 2003,
                            "value" : 2.93925746128338,
                            "duration" : 26
                          },
                          {
                            "endTime" : 2478,
                            "time" : 2448,
                            "value" : 0.999999315951539,
                            "duration" : 30
                          }
                        ]
                      },
                      "scale1" : {
                        "type" : "double",
                        "defaultValue" : 1.0,
                        "keyframes" : [
                          {
                            "endTime" : 242,
                            "time" : 212,
                            "value" : 4.90967641606111,
                            "duration" : 30
                          },
                          {
                            "endTime" : 332,
                            "time" : 302,
                            "value" : 1.0,
                            "duration" : 30
                          },
                          {
                            "endTime" : 1240,
                            "time" : 1210,
                            "value" : 2.9392594718793,
                            "duration" : 30
                          },
                          {
                            "endTime" : 2029,
                            "time" : 2003,
                            "value" : 2.9392594718793,
                            "duration" : 26
                          },
                          {
                            "endTime" : 2478,
                            "time" : 2448,
                            "value" : 1.0,
                            "duration" : 30
                          }
                        ]
                      },
                      "cursorOpacity" : 1.0,
                      "cursorScale" : 1.0
                    },
                    "medias" : [
                        {
                          "id" : 67,
                          "_type" : "ScreenVMFile",
                          "src" : 1,
                          "trackNumber" : 0,
                          "attributes" : {
                            "ident" : "handle_hijacking_attack_prevention"
                          },
                          "parameters" : {
                            "cursorScale" : {
                              "type" : "double",
                              "defaultValue" : 0.0,
                              "interp" : "linr"
                            },
                            "cursorOpacity" : {
                              "type" : "double",
                              "defaultValue" : 0.0,
                              "interp" : "linr"
                            }
                          },
                          "effects" : [

                          ],
                          "start" : 0,
                          "duration" : 2383,
                          "mediaStart" : 0,
                          "mediaDuration" : 2383,
                          "scalar" : 1,
                          "metadata" : {
                            "AutoAppliedSmartFocus" : "False",
                            "clipSpeedAttribute" : false,
                            "default-scale0" : 1.0,
                            "default-scale1" : 1.0,
                            "default-translation0" : 0.0,
                            "default-translation1" : 0.0
                          },
                          "animationTracks" : {

                          }
                        },
                        {
                          "id" : 68,
                          "_type" : "ScreenIMFile",
                          "src" : 1,
                          "trackNumber" : 0,
                          "trimStartSum" : 0,
                          "attributes" : {
                            "ident" : "handle_hijacking_attack_prevention"
                          },
                          "parameters" : {
                            "cursorOpacity" : 0.0,
                            "cursorScale" : 0.0
                          },
                          "effects" : [

                          ],
                          "start" : 2383,
                          "duration" : 60,
                          "mediaStart" : 2382,
                          "mediaDuration" : 1,
                          "scalar" : 1,
                          "metadata" : {
                            "AutoAppliedSmartFocus" : "False"
                          },
                          "animationTracks" : {

                          }
                        },
                        {
                          "id" : 69,
                          "_type" : "ScreenVMFile",
                          "src" : 1,
                          "trackNumber" : 0,
                          "attributes" : {
                            "ident" : "handle_hijacking_attack_prevention"
                          },
                          "parameters" : {
                            "cursorScale" : {
                              "type" : "double",
                              "defaultValue" : 0.0,
                              "interp" : "linr"
                            },
                            "cursorOpacity" : {
                              "type" : "double",
                              "defaultValue" : 0.0,
                              "interp" : "linr"
                            }
                          },
                          "effects" : [

                          ],
                          "start" : 2443,
                          "duration" : 106,
                          "mediaStart" : 2383,
                          "mediaDuration" : 106,
                          "scalar" : 1,
                          "metadata" : {
                            "AutoAppliedSmartFocus" : "False",
                            "clipSpeedAttribute" : false,
                            "default-scale0" : 1.0,
                            "default-scale1" : 1.0,
                            "default-translation0" : 0.0,
                            "default-translation1" : 0.0
                          },
                          "animationTracks" : {

                          }
                        },
                        {
                          "id" : 70,
                          "_type" : "ScreenIMFile",
                          "src" : 1,
                          "trackNumber" : 0,
                          "trimStartSum" : 0,
                          "attributes" : {
                            "ident" : "handle_hijacking_attack_prevention"
                          },
                          "parameters" : {
                            "cursorOpacity" : 0.0,
                            "cursorScale" : 0.0
                          },
                          "effects" : [

                          ],
                          "start" : 2549,
                          "duration" : 90,
                          "mediaStart" : 2489,
                          "mediaDuration" : 1,
                          "scalar" : 1,
                          "metadata" : {
                            "AutoAppliedSmartFocus" : "False"
                          },
                          "animationTracks" : {

                          }
                        },
                        {
                          "id" : 71,
                          "_type" : "ScreenVMFile",
                          "src" : 1,
                          "trackNumber" : 0,
                          "attributes" : {
                            "ident" : "handle_hijacking_attack_prevention"
                          },
                          "parameters" : {
                            "cursorScale" : {
                              "type" : "double",
                              "defaultValue" : 0.0,
                              "interp" : "linr"
                            },
                            "cursorOpacity" : {
                              "type" : "double",
                              "defaultValue" : 0.0,
                              "interp" : "linr"
                            }
                          },
                          "effects" : [

                          ],
                          "start" : 2639,
                          "duration" : 4380,
                          "mediaStart" : 2489,
                          "mediaDuration" : 4380,
                          "scalar" : 1,
                          "metadata" : {
                            "AutoAppliedSmartFocus" : "False",
                            "clipSpeedAttribute" : false,
                            "default-scale0" : 1.0,
                            "default-scale1" : 1.0,
                            "default-translation0" : 0.0,
                            "default-translation1" : 0.0
                          },
                          "animationTracks" : {

                          }
                        }
                    ],
                    "effects" : [
                        {
                          "effectName" : "CursorHilight",
                          "category" : "categoryCursorEffects",
                          "parameters" : {
                            "blur" : 0.1,
                            "color-alpha" : 0.75,
                            "color-blue" : 0.0,
                            "color-green" : 1.0,
                            "color-red" : 1.0,
                            "radius" : 50.0
                          }
                        }
                    ],
                    "start" : 1410,
                    "duration" : 203,
                    "mediaStart" : 2444,
                    "mediaDuration" : 203,
                    "scalar" : 1,
                    "metadata" : {
                      "AutoAppliedSmartFocus" : "False",
                      "clipSpeedAttribute" : false
                    },
                    "animationTracks" : {
                      "visual" : [
                        {
                          "endTime" : 242,
                          "duration" : 30,
                          "range" : [ 212, 30]
                        },
                        {
                          "endTime" : 332,
                          "duration" : 30,
                          "range" : [ 302, 30]
                        },
                        {
                          "endTime" : 1240,
                          "duration" : 30,
                          "range" : [ 1210, 30]
                        },
                        {
                          "endTime" : 1493,
                          "duration" : 30,
                          "range" : [ 1463, 30]
                        },
                        {
                          "endTime" : 2029,
                          "duration" : 26,
                          "range" : [ 2003, 26]
                        },
                        {
                          "endTime" : 2478,
                          "duration" : 30,
                          "range" : [ 2448, 30]
                        }
                      ]
                    }
                  },
                  {
                    "id" : 72,
                    "_type" : "StitchedMedia",
                    "minMediaStart" : 0,
                    "attributes" : {
                      "ident" : "handle_hijacking_attack_prevention",
                      "gain" : 1.0,
                      "mixToMono" : false
                    },
                    "parameters" : {
                      "translation0" : {
                        "type" : "double",
                        "defaultValue" : 0.0,
                        "keyframes" : [
                          {
                            "endTime" : 242,
                            "time" : 212,
                            "value" : 4445.6304568441,
                            "duration" : 30
                          },
                          {
                            "endTime" : 332,
                            "time" : 302,
                            "value" : -7.95807864051312e-13,
                            "duration" : 30
                          },
                          {
                            "endTime" : 1240,
                            "time" : 1210,
                            "value" : 1813.23805555168,
                            "duration" : 30
                          },
                          {
                            "endTime" : 1493,
                            "time" : 1463,
                            "value" : 1769.1,
                            "duration" : 30
                          },
                          {
                            "endTime" : 2029,
                            "time" : 2003,
                            "value" : 1769.08221838715,
                            "duration" : 26
                          },
                          {
                            "endTime" : 2478,
                            "time" : 2448,
                            "value" : -1.13686837721616e-13,
                            "duration" : 30
                          }
                        ]
                      },
                      "translation1" : {
                        "type" : "double",
                        "defaultValue" : 0.0,
                        "keyframes" : [
                          {
                            "endTime" : 242,
                            "time" : 212,
                            "value" : -2101.5592739797,
                            "duration" : 30
                          },
                          {
                            "endTime" : 332,
                            "time" : 302,
                            "value" : 4.54747350886464e-13,
                            "duration" : 30
                          },
                          {
                            "endTime" : 1240,
                            "time" : 1210,
                            "value" : 0.0,
                            "duration" : 30
                          },
                          {
                            "endTime" : 1493,
                            "time" : 1463,
                            "value" : 764.586721975313,
                            "duration" : 30
                          },
                          {
                            "endTime" : 2029,
                            "time" : 2003,
                            "value" : 955.733402469141,
                            "duration" : 26
                          },
                          {
                            "endTime" : 2478,
                            "time" : 2448,
                            "value" : -5.6843418860808e-14,
                            "duration" : 30
                          }
                        ]
                      },
                      "scale0" : {
                        "type" : "double",
                        "defaultValue" : 1.0,
                        "keyframes" : [
                          {
                            "endTime" : 242,
                            "time" : 212,
                            "value" : 4.90967434857952,
                            "duration" : 30
                          },
                          {
                            "endTime" : 332,
                            "time" : 302,
                            "value" : 0.99999957889657,
                            "duration" : 30
                          },
                          {
                            "endTime" : 1240,
                            "time" : 1210,
                            "value" : 2.93925764732581,
                            "duration" : 30
                          },
                          {
                            "endTime" : 1493,
                            "time" : 1463,
                            "value" : 2.93925755430459,
                            "duration" : 30
                          },
                          {
                            "endTime" : 2029,
                            "time" : 2003,
                            "value" : 2.93925746128338,
                            "duration" : 26
                          },
                          {
                            "endTime" : 2478,
                            "time" : 2448,
                            "value" : 0.999999315951539,
                            "duration" : 30
                          }
                        ]
                      },
                      "scale1" : {
                        "type" : "double",
                        "defaultValue" : 1.0,
                        "keyframes" : [
                          {
                            "endTime" : 242,
                            "time" : 212,
                            "value" : 4.90967641606111,
                            "duration" : 30
                          },
                          {
                            "endTime" : 332,
                            "time" : 302,
                            "value" : 1.0,
                            "duration" : 30
                          },
                          {
                            "endTime" : 1240,
                            "time" : 1210,
                            "value" : 2.9392594718793,
                            "duration" : 30
                          },
                          {
                            "endTime" : 2029,
                            "time" : 2003,
                            "value" : 2.9392594718793,
                            "duration" : 26
                          },
                          {
                            "endTime" : 2478,
                            "time" : 2448,
                            "value" : 1.0,
                            "duration" : 30
                          }
                        ]
                      },
                      "cursorOpacity" : 1.0,
                      "cursorScale" : 1.0
                    },
                    "medias" : [
                        {
                          "id" : 73,
                          "_type" : "ScreenVMFile",
                          "src" : 1,
                          "trackNumber" : 0,
                          "attributes" : {
                            "ident" : "handle_hijacking_attack_prevention"
                          },
                          "parameters" : {
                            "cursorScale" : {
                              "type" : "double",
                              "defaultValue" : 0.0,
                              "interp" : "linr"
                            },
                            "cursorOpacity" : {
                              "type" : "double",
                              "defaultValue" : 0.0,
                              "interp" : "linr"
                            }
                          },
                          "effects" : [

                          ],
                          "start" : 0,
                          "duration" : 2383,
                          "mediaStart" : 0,
                          "mediaDuration" : 2383,
                          "scalar" : 1,
                          "metadata" : {
                            "AutoAppliedSmartFocus" : "False",
                            "clipSpeedAttribute" : false,
                            "default-scale0" : 1.0,
                            "default-scale1" : 1.0,
                            "default-translation0" : 0.0,
                            "default-translation1" : 0.0
                          },
                          "animationTracks" : {

                          }
                        },
                        {
                          "id" : 74,
                          "_type" : "ScreenIMFile",
                          "src" : 1,
                          "trackNumber" : 0,
                          "trimStartSum" : 0,
                          "attributes" : {
                            "ident" : "handle_hijacking_attack_prevention"
                          },
                          "parameters" : {
                            "cursorOpacity" : 0.0,
                            "cursorScale" : 0.0
                          },
                          "effects" : [

                          ],
                          "start" : 2383,
                          "duration" : 60,
                          "mediaStart" : 2382,
                          "mediaDuration" : 1,
                          "scalar" : 1,
                          "metadata" : {
                            "AutoAppliedSmartFocus" : "False"
                          },
                          "animationTracks" : {

                          }
                        },
                        {
                          "id" : 75,
                          "_type" : "ScreenVMFile",
                          "src" : 1,
                          "trackNumber" : 0,
                          "attributes" : {
                            "ident" : "handle_hijacking_attack_prevention"
                          },
                          "parameters" : {
                            "cursorScale" : {
                              "type" : "double",
                              "defaultValue" : 0.0,
                              "interp" : "linr"
                            },
                            "cursorOpacity" : {
                              "type" : "double",
                              "defaultValue" : 0.0,
                              "interp" : "linr"
                            }
                          },
                          "effects" : [

                          ],
                          "start" : 2443,
                          "duration" : 4486,
                          "mediaStart" : 2383,
                          "mediaDuration" : 4486,
                          "scalar" : 1,
                          "metadata" : {
                            "AutoAppliedSmartFocus" : "False",
                            "clipSpeedAttribute" : false,
                            "default-scale0" : 1.0,
                            "default-scale1" : 1.0,
                            "default-translation0" : 0.0,
                            "default-translation1" : 0.0
                          },
                          "animationTracks" : {

                          }
                        }
                    ],
                    "effects" : [
                        {
                          "effectName" : "CursorHilight",
                          "category" : "categoryCursorEffects",
                          "parameters" : {
                            "blur" : 0.1,
                            "color-alpha" : 0.75,
                            "color-blue" : 0.0,
                            "color-green" : 1.0,
                            "color-red" : 1.0,
                            "radius" : 50.0
                          }
                        }
                    ],
                    "start" : 1613,
                    "duration" : 112,
                    "mediaStart" : 2557,
                    "mediaDuration" : 405,
                    "scalar" : "112/405",
                    "metadata" : {
                      "AutoAppliedSmartFocus" : "False",
                      "clipSpeedAttribute" : true
                    },
                    "animationTracks" : {
                      "visual" : [
                        {
                          "endTime" : 242,
                          "duration" : 30,
                          "range" : [ 212, 30]
                        },
                        {
                          "endTime" : 332,
                          "duration" : 30,
                          "range" : [ 302, 30]
                        },
                        {
                          "endTime" : 1240,
                          "duration" : 30,
                          "range" : [ 1210, 30]
                        },
                        {
                          "endTime" : 1493,
                          "duration" : 30,
                          "range" : [ 1463, 30]
                        },
                        {
                          "endTime" : 2029,
                          "duration" : 26,
                          "range" : [ 2003, 26]
                        },
                        {
                          "endTime" : 2478,
                          "duration" : 30,
                          "range" : [ 2448, 30]
                        }
                      ]
                    }
                  },
                  {
                    "id" : 76,
                    "_type" : "StitchedMedia",
                    "minMediaStart" : 0,
                    "attributes" : {
                      "ident" : "handle_hijacking_attack_prevention",
                      "gain" : 1.0,
                      "mixToMono" : false
                    },
                    "parameters" : {
                      "translation0" : {
                        "type" : "double",
                        "defaultValue" : 0.0,
                        "keyframes" : [
                          {
                            "endTime" : 242,
                            "time" : 212,
                            "value" : 4445.6304568441,
                            "duration" : 30
                          },
                          {
                            "endTime" : 332,
                            "time" : 302,
                            "value" : -7.95807864051312e-13,
                            "duration" : 30
                          },
                          {
                            "endTime" : 1240,
                            "time" : 1210,
                            "value" : 1813.23805555168,
                            "duration" : 30
                          },
                          {
                            "endTime" : 1493,
                            "time" : 1463,
                            "value" : 1769.1,
                            "duration" : 30
                          },
                          {
                            "endTime" : 2029,
                            "time" : 2003,
                            "value" : 1769.08221838715,
                            "duration" : 26
                          },
                          {
                            "endTime" : 2478,
                            "time" : 2448,
                            "value" : -1.13686837721616e-13,
                            "duration" : 30
                          },
                          {
                            "endTime" : 3060,
                            "time" : 3030,
                            "value" : -927.066246510699,
                            "duration" : 30
                          }
                        ]
                      },
                      "translation1" : {
                        "type" : "double",
                        "defaultValue" : 0.0,
                        "keyframes" : [
                          {
                            "endTime" : 242,
                            "time" : 212,
                            "value" : -2101.5592739797,
                            "duration" : 30
                          },
                          {
                            "endTime" : 332,
                            "time" : 302,
                            "value" : 4.54747350886464e-13,
                            "duration" : 30
                          },
                          {
                            "endTime" : 1240,
                            "time" : 1210,
                            "value" : 0.0,
                            "duration" : 30
                          },
                          {
                            "endTime" : 1493,
                            "time" : 1463,
                            "value" : 764.586721975313,
                            "duration" : 30
                          },
                          {
                            "endTime" : 2029,
                            "time" : 2003,
                            "value" : 955.733402469141,
                            "duration" : 26
                          },
                          {
                            "endTime" : 2478,
                            "time" : 2448,
                            "value" : -5.6843418860808e-14,
                            "duration" : 30
                          },
                          {
                            "endTime" : 3060,
                            "time" : 3030,
                            "value" : 51.6923109282546,
                            "duration" : 30
                          }
                        ]
                      },
                      "scale0" : {
                        "type" : "double",
                        "defaultValue" : 1.0,
                        "keyframes" : [
                          {
                            "endTime" : 242,
                            "time" : 212,
                            "value" : 4.90967434857952,
                            "duration" : 30
                          },
                          {
                            "endTime" : 332,
                            "time" : 302,
                            "value" : 0.99999957889657,
                            "duration" : 30
                          },
                          {
                            "endTime" : 1240,
                            "time" : 1210,
                            "value" : 2.93925764732581,
                            "duration" : 30
                          },
                          {
                            "endTime" : 1493,
                            "time" : 1463,
                            "value" : 2.93925755430459,
                            "duration" : 30
                          },
                          {
                            "endTime" : 2029,
                            "time" : 2003,
                            "value" : 2.93925746128338,
                            "duration" : 26
                          },
                          {
                            "endTime" : 2478,
                            "time" : 2448,
                            "value" : 0.999999315951539,
                            "duration" : 30
                          },
                          {
                            "endTime" : 3060,
                            "time" : 3030,
                            "value" : 2.54358807927679,
                            "duration" : 30
                          }
                        ]
                      },
                      "scale1" : {
                        "type" : "double",
                        "defaultValue" : 1.0,
                        "keyframes" : [
                          {
                            "endTime" : 242,
                            "time" : 212,
                            "value" : 4.90967641606111,
                            "duration" : 30
                          },
                          {
                            "endTime" : 332,
                            "time" : 302,
                            "value" : 1.0,
                            "duration" : 30
                          },
                          {
                            "endTime" : 1240,
                            "time" : 1210,
                            "value" : 2.9392594718793,
                            "duration" : 30
                          },
                          {
                            "endTime" : 2029,
                            "time" : 2003,
                            "value" : 2.9392594718793,
                            "duration" : 26
                          },
                          {
                            "endTime" : 2478,
                            "time" : 2448,
                            "value" : 1.0,
                            "duration" : 30
                          },
                          {
                            "endTime" : 3060,
                            "time" : 3030,
                            "value" : 2.54358990281888,
                            "duration" : 30
                          }
                        ]
                      },
                      "cursorOpacity" : 1.0,
                      "cursorScale" : 1.0
                    },
                    "medias" : [
                        {
                          "id" : 77,
                          "_type" : "ScreenVMFile",
                          "src" : 1,
                          "trackNumber" : 0,
                          "attributes" : {
                            "ident" : "handle_hijacking_attack_prevention"
                          },
                          "parameters" : {
                            "cursorScale" : {
                              "type" : "double",
                              "defaultValue" : 0.0,
                              "interp" : "linr"
                            },
                            "cursorOpacity" : {
                              "type" : "double",
                              "defaultValue" : 0.0,
                              "interp" : "linr"
                            }
                          },
                          "effects" : [

                          ],
                          "start" : 0,
                          "duration" : 2383,
                          "mediaStart" : 0,
                          "mediaDuration" : 2383,
                          "scalar" : 1,
                          "metadata" : {
                            "AutoAppliedSmartFocus" : "False",
                            "clipSpeedAttribute" : false,
                            "default-scale0" : 1.0,
                            "default-scale1" : 1.0,
                            "default-translation0" : 0.0,
                            "default-translation1" : 0.0
                          },
                          "animationTracks" : {

                          }
                        },
                        {
                          "id" : 78,
                          "_type" : "ScreenIMFile",
                          "src" : 1,
                          "trackNumber" : 0,
                          "trimStartSum" : 0,
                          "attributes" : {
                            "ident" : "handle_hijacking_attack_prevention"
                          },
                          "parameters" : {
                            "cursorOpacity" : 0.0,
                            "cursorScale" : 0.0
                          },
                          "effects" : [

                          ],
                          "start" : 2383,
                          "duration" : 60,
                          "mediaStart" : 2382,
                          "mediaDuration" : 1,
                          "scalar" : 1,
                          "metadata" : {
                            "AutoAppliedSmartFocus" : "False"
                          },
                          "animationTracks" : {

                          }
                        },
                        {
                          "id" : 79,
                          "_type" : "ScreenVMFile",
                          "src" : 1,
                          "trackNumber" : 0,
                          "attributes" : {
                            "ident" : "handle_hijacking_attack_prevention"
                          },
                          "parameters" : {
                            "cursorScale" : {
                              "type" : "double",
                              "defaultValue" : 0.0,
                              "interp" : "linr"
                            },
                            "cursorOpacity" : {
                              "type" : "double",
                              "defaultValue" : 0.0,
                              "interp" : "linr"
                            }
                          },
                          "effects" : [

                          ],
                          "start" : 2443,
                          "duration" : 4486,
                          "mediaStart" : 2383,
                          "mediaDuration" : 4486,
                          "scalar" : 1,
                          "metadata" : {
                            "AutoAppliedSmartFocus" : "False",
                            "clipSpeedAttribute" : false,
                            "default-scale0" : 1.0,
                            "default-scale1" : 1.0,
                            "default-translation0" : 0.0,
                            "default-translation1" : 0.0
                          },
                          "animationTracks" : {

                          }
                        }
                    ],
                    "effects" : [
                        {
                          "effectName" : "CursorHilight",
                          "category" : "categoryCursorEffects",
                          "parameters" : {
                            "blur" : 0.1,
                            "color-alpha" : 0.75,
                            "color-blue" : 0.0,
                            "color-green" : 1.0,
                            "color-red" : 1.0,
                            "radius" : 50.0
                          }
                        }
                    ],
                    "start" : 1725,
                    "duration" : 99,
                    "mediaStart" : 2962,
                    "mediaDuration" : 99,
                    "scalar" : 1,
                    "metadata" : {
                      "AutoAppliedSmartFocus" : "False",
                      "clipSpeedAttribute" : false,
                      "default-scale0" : 0.999999315951539,
                      "default-scale1" : 1.0,
                      "default-translation0" : -1.13686837721616e-13,
                      "default-translation1" : -5.6843418860808e-14
                    },
                    "animationTracks" : {
                      "visual" : [
                        {
                          "endTime" : 242,
                          "duration" : 30,
                          "range" : [ 212, 30]
                        },
                        {
                          "endTime" : 332,
                          "duration" : 30,
                          "range" : [ 302, 30]
                        },
                        {
                          "endTime" : 1240,
                          "duration" : 30,
                          "range" : [ 1210, 30]
                        },
                        {
                          "endTime" : 1493,
                          "duration" : 30,
                          "range" : [ 1463, 30]
                        },
                        {
                          "endTime" : 2029,
                          "duration" : 26,
                          "range" : [ 2003, 26]
                        },
                        {
                          "endTime" : 2478,
                          "duration" : 30,
                          "range" : [ 2448, 30]
                        },
                        {
                          "endTime" : 3060,
                          "duration" : 30,
                          "range" : [ 3030, 30]
                        }
                      ]
                    }
                  },
                  {
                    "id" : 80,
                    "_type" : "StitchedMedia",
                    "minMediaStart" : 0,
                    "attributes" : {
                      "ident" : "handle_hijacking_attack_prevention",
                      "gain" : 1.0,
                      "mixToMono" : false
                    },
                    "parameters" : {
                      "translation0" : {
                        "type" : "double",
                        "defaultValue" : 0.0,
                        "keyframes" : [
                          {
                            "endTime" : 242,
                            "time" : 212,
                            "value" : 4445.6304568441,
                            "duration" : 30
                          },
                          {
                            "endTime" : 332,
                            "time" : 302,
                            "value" : -7.95807864051312e-13,
                            "duration" : 30
                          },
                          {
                            "endTime" : 1240,
                            "time" : 1210,
                            "value" : 1813.23805555168,
                            "duration" : 30
                          },
                          {
                            "endTime" : 1493,
                            "time" : 1463,
                            "value" : 1769.1,
                            "duration" : 30
                          },
                          {
                            "endTime" : 2029,
                            "time" : 2003,
                            "value" : 1769.08221838715,
                            "duration" : 26
                          },
                          {
                            "endTime" : 2478,
                            "time" : 2448,
                            "value" : -1.13686837721616e-13,
                            "duration" : 30
                          },
                          {
                            "endTime" : 3060,
                            "time" : 3030,
                            "value" : -927.066246510699,
                            "duration" : 30
                          }
                        ]
                      },
                      "translation1" : {
                        "type" : "double",
                        "defaultValue" : 0.0,
                        "keyframes" : [
                          {
                            "endTime" : 242,
                            "time" : 212,
                            "value" : -2101.5592739797,
                            "duration" : 30
                          },
                          {
                            "endTime" : 332,
                            "time" : 302,
                            "value" : 4.54747350886464e-13,
                            "duration" : 30
                          },
                          {
                            "endTime" : 1240,
                            "time" : 1210,
                            "value" : 0.0,
                            "duration" : 30
                          },
                          {
                            "endTime" : 1493,
                            "time" : 1463,
                            "value" : 764.586721975313,
                            "duration" : 30
                          },
                          {
                            "endTime" : 2029,
                            "time" : 2003,
                            "value" : 955.733402469141,
                            "duration" : 26
                          },
                          {
                            "endTime" : 2478,
                            "time" : 2448,
                            "value" : -5.6843418860808e-14,
                            "duration" : 30
                          },
                          {
                            "endTime" : 3060,
                            "time" : 3030,
                            "value" : 51.6923109282546,
                            "duration" : 30
                          }
                        ]
                      },
                      "scale0" : {
                        "type" : "double",
                        "defaultValue" : 1.0,
                        "keyframes" : [
                          {
                            "endTime" : 242,
                            "time" : 212,
                            "value" : 4.90967434857952,
                            "duration" : 30
                          },
                          {
                            "endTime" : 332,
                            "time" : 302,
                            "value" : 0.99999957889657,
                            "duration" : 30
                          },
                          {
                            "endTime" : 1240,
                            "time" : 1210,
                            "value" : 2.93925764732581,
                            "duration" : 30
                          },
                          {
                            "endTime" : 1493,
                            "time" : 1463,
                            "value" : 2.93925755430459,
                            "duration" : 30
                          },
                          {
                            "endTime" : 2029,
                            "time" : 2003,
                            "value" : 2.93925746128338,
                            "duration" : 26
                          },
                          {
                            "endTime" : 2478,
                            "time" : 2448,
                            "value" : 0.999999315951539,
                            "duration" : 30
                          },
                          {
                            "endTime" : 3060,
                            "time" : 3030,
                            "value" : 2.54358807927679,
                            "duration" : 30
                          }
                        ]
                      },
                      "scale1" : {
                        "type" : "double",
                        "defaultValue" : 1.0,
                        "keyframes" : [
                          {
                            "endTime" : 242,
                            "time" : 212,
                            "value" : 4.90967641606111,
                            "duration" : 30
                          },
                          {
                            "endTime" : 332,
                            "time" : 302,
                            "value" : 1.0,
                            "duration" : 30
                          },
                          {
                            "endTime" : 1240,
                            "time" : 1210,
                            "value" : 2.9392594718793,
                            "duration" : 30
                          },
                          {
                            "endTime" : 2029,
                            "time" : 2003,
                            "value" : 2.9392594718793,
                            "duration" : 26
                          },
                          {
                            "endTime" : 2478,
                            "time" : 2448,
                            "value" : 1.0,
                            "duration" : 30
                          },
                          {
                            "endTime" : 3060,
                            "time" : 3030,
                            "value" : 2.54358990281888,
                            "duration" : 30
                          }
                        ]
                      },
                      "cursorOpacity" : 1.0,
                      "cursorScale" : 1.0
                    },
                    "medias" : [
                        {
                          "id" : 81,
                          "_type" : "ScreenVMFile",
                          "src" : 1,
                          "trackNumber" : 0,
                          "attributes" : {
                            "ident" : "handle_hijacking_attack_prevention"
                          },
                          "parameters" : {
                            "cursorScale" : {
                              "type" : "double",
                              "defaultValue" : 0.0,
                              "interp" : "linr"
                            },
                            "cursorOpacity" : {
                              "type" : "double",
                              "defaultValue" : 0.0,
                              "interp" : "linr"
                            }
                          },
                          "effects" : [

                          ],
                          "start" : 0,
                          "duration" : 2383,
                          "mediaStart" : 0,
                          "mediaDuration" : 2383,
                          "scalar" : 1,
                          "metadata" : {
                            "AutoAppliedSmartFocus" : "False",
                            "clipSpeedAttribute" : false,
                            "default-scale0" : 1.0,
                            "default-scale1" : 1.0,
                            "default-translation0" : 0.0,
                            "default-translation1" : 0.0
                          },
                          "animationTracks" : {

                          }
                        },
                        {
                          "id" : 82,
                          "_type" : "ScreenIMFile",
                          "src" : 1,
                          "trackNumber" : 0,
                          "trimStartSum" : 0,
                          "attributes" : {
                            "ident" : "handle_hijacking_attack_prevention"
                          },
                          "parameters" : {
                            "cursorOpacity" : 0.0,
                            "cursorScale" : 0.0
                          },
                          "effects" : [

                          ],
                          "start" : 2383,
                          "duration" : 60,
                          "mediaStart" : 2382,
                          "mediaDuration" : 1,
                          "scalar" : 1,
                          "metadata" : {
                            "AutoAppliedSmartFocus" : "False"
                          },
                          "animationTracks" : {

                          }
                        },
                        {
                          "id" : 83,
                          "_type" : "ScreenVMFile",
                          "src" : 1,
                          "trackNumber" : 0,
                          "attributes" : {
                            "ident" : "handle_hijacking_attack_prevention"
                          },
                          "parameters" : {
                            "cursorScale" : {
                              "type" : "double",
                              "defaultValue" : 0.0,
                              "interp" : "linr"
                            },
                            "cursorOpacity" : {
                              "type" : "double",
                              "defaultValue" : 0.0,
                              "interp" : "linr"
                            }
                          },
                          "effects" : [

                          ],
                          "start" : 2443,
                          "duration" : 4486,
                          "mediaStart" : 2383,
                          "mediaDuration" : 4486,
                          "scalar" : 1,
                          "metadata" : {
                            "AutoAppliedSmartFocus" : "False",
                            "clipSpeedAttribute" : false,
                            "default-scale0" : 1.0,
                            "default-scale1" : 1.0,
                            "default-translation0" : 0.0,
                            "default-translation1" : 0.0
                          },
                          "animationTracks" : {

                          }
                        }
                    ],
                    "effects" : [
                        {
                          "effectName" : "CursorHilight",
                          "category" : "categoryCursorEffects",
                          "parameters" : {
                            "blur" : 0.1,
                            "color-alpha" : 0.75,
                            "color-blue" : 0.0,
                            "color-green" : 1.0,
                            "color-red" : 1.0,
                            "radius" : 50.0
                          }
                        }
                    ],
                    "start" : 1824,
                    "duration" : 89,
                    "mediaStart" : 3061,
                    "mediaDuration" : 279,
                    "scalar" : "89/279",
                    "metadata" : {
                      "AutoAppliedSmartFocus" : "False",
                      "clipSpeedAttribute" : true,
                      "default-scale0" : 0.999999315951539,
                      "default-scale1" : 1.0,
                      "default-translation0" : -1.13686837721616e-13,
                      "default-translation1" : -5.6843418860808e-14
                    },
                    "animationTracks" : {
                      "visual" : [
                        {
                          "endTime" : 242,
                          "duration" : 30,
                          "range" : [ 212, 30]
                        },
                        {
                          "endTime" : 332,
                          "duration" : 30,
                          "range" : [ 302, 30]
                        },
                        {
                          "endTime" : 1240,
                          "duration" : 30,
                          "range" : [ 1210, 30]
                        },
                        {
                          "endTime" : 1493,
                          "duration" : 30,
                          "range" : [ 1463, 30]
                        },
                        {
                          "endTime" : 2029,
                          "duration" : 26,
                          "range" : [ 2003, 26]
                        },
                        {
                          "endTime" : 2478,
                          "duration" : 30,
                          "range" : [ 2448, 30]
                        },
                        {
                          "endTime" : 3060,
                          "duration" : 30,
                          "range" : [ 3030, 30]
                        }
                      ]
                    }
                  },
                  {
                    "id" : 84,
                    "_type" : "StitchedMedia",
                    "minMediaStart" : 0,
                    "attributes" : {
                      "ident" : "handle_hijacking_attack_prevention",
                      "gain" : 1.0,
                      "mixToMono" : false
                    },
                    "parameters" : {
                      "translation0" : {
                        "type" : "double",
                        "defaultValue" : 0.0,
                        "keyframes" : [
                          {
                            "endTime" : 242,
                            "time" : 212,
                            "value" : 4445.6304568441,
                            "duration" : 30
                          },
                          {
                            "endTime" : 332,
                            "time" : 302,
                            "value" : -7.95807864051312e-13,
                            "duration" : 30
                          },
                          {
                            "endTime" : 1240,
                            "time" : 1210,
                            "value" : 1813.23805555168,
                            "duration" : 30
                          },
                          {
                            "endTime" : 1493,
                            "time" : 1463,
                            "value" : 1769.1,
                            "duration" : 30
                          },
                          {
                            "endTime" : 2029,
                            "time" : 2003,
                            "value" : 1769.08221838715,
                            "duration" : 26
                          },
                          {
                            "endTime" : 2478,
                            "time" : 2448,
                            "value" : -1.13686837721616e-13,
                            "duration" : 30
                          },
                          {
                            "endTime" : 3060,
                            "time" : 3030,
                            "value" : -927.066246510699,
                            "duration" : 30
                          },
                          {
                            "endTime" : 3378,
                            "time" : 3348,
                            "value" : -927.1,
                            "duration" : 30
                          }
                        ]
                      },
                      "translation1" : {
                        "type" : "double",
                        "defaultValue" : 0.0,
                        "keyframes" : [
                          {
                            "endTime" : 242,
                            "time" : 212,
                            "value" : -2101.5592739797,
                            "duration" : 30
                          },
                          {
                            "endTime" : 332,
                            "time" : 302,
                            "value" : 4.54747350886464e-13,
                            "duration" : 30
                          },
                          {
                            "endTime" : 1240,
                            "time" : 1210,
                            "value" : 0.0,
                            "duration" : 30
                          },
                          {
                            "endTime" : 1493,
                            "time" : 1463,
                            "value" : 764.586721975313,
                            "duration" : 30
                          },
                          {
                            "endTime" : 2029,
                            "time" : 2003,
                            "value" : 955.733402469141,
                            "duration" : 26
                          },
                          {
                            "endTime" : 2478,
                            "time" : 2448,
                            "value" : -5.6843418860808e-14,
                            "duration" : 30
                          },
                          {
                            "endTime" : 3060,
                            "time" : 3030,
                            "value" : 51.6923109282546,
                            "duration" : 30
                          },
                          {
                            "endTime" : 3378,
                            "time" : 3348,
                            "value" : 793.192387394355,
                            "duration" : 30
                          }
                        ]
                      },
                      "scale0" : {
                        "type" : "double",
                        "defaultValue" : 1.0,
                        "keyframes" : [
                          {
                            "endTime" : 242,
                            "time" : 212,
                            "value" : 4.90967434857952,
                            "duration" : 30
                          },
                          {
                            "endTime" : 332,
                            "time" : 302,
                            "value" : 0.99999957889657,
                            "duration" : 30
                          },
                          {
                            "endTime" : 1240,
                            "time" : 1210,
                            "value" : 2.93925764732581,
                            "duration" : 30
                          },
                          {
                            "endTime" : 1493,
                            "time" : 1463,
                            "value" : 2.93925755430459,
                            "duration" : 30
                          },
                          {
                            "endTime" : 2029,
                            "time" : 2003,
                            "value" : 2.93925746128338,
                            "duration" : 26
                          },
                          {
                            "endTime" : 2478,
                            "time" : 2448,
                            "value" : 0.999999315951539,
                            "duration" : 30
                          },
                          {
                            "endTime" : 3060,
                            "time" : 3030,
                            "value" : 2.54358807927679,
                            "duration" : 30
                          },
                          {
                            "endTime" : 3378,
                            "time" : 3348,
                            "value" : 2.5435882186022,
                            "duration" : 30
                          }
                        ]
                      },
                      "scale1" : {
                        "type" : "double",
                        "defaultValue" : 1.0,
                        "keyframes" : [
                          {
                            "endTime" : 242,
                            "time" : 212,
                            "value" : 4.90967641606111,
                            "duration" : 30
                          },
                          {
                            "endTime" : 332,
                            "time" : 302,
                            "value" : 1.0,
                            "duration" : 30
                          },
                          {
                            "endTime" : 1240,
                            "time" : 1210,
                            "value" : 2.9392594718793,
                            "duration" : 30
                          },
                          {
                            "endTime" : 2029,
                            "time" : 2003,
                            "value" : 2.9392594718793,
                            "duration" : 26
                          },
                          {
                            "endTime" : 2478,
                            "time" : 2448,
                            "value" : 1.0,
                            "duration" : 30
                          },
                          {
                            "endTime" : 3060,
                            "time" : 3030,
                            "value" : 2.54358990281888,
                            "duration" : 30
                          }
                        ]
                      },
                      "cursorOpacity" : 1.0,
                      "cursorScale" : 1.0
                    },
                    "medias" : [
                        {
                          "id" : 85,
                          "_type" : "ScreenVMFile",
                          "src" : 1,
                          "trackNumber" : 0,
                          "attributes" : {
                            "ident" : "handle_hijacking_attack_prevention"
                          },
                          "parameters" : {
                            "cursorScale" : {
                              "type" : "double",
                              "defaultValue" : 0.0,
                              "interp" : "linr"
                            },
                            "cursorOpacity" : {
                              "type" : "double",
                              "defaultValue" : 0.0,
                              "interp" : "linr"
                            }
                          },
                          "effects" : [

                          ],
                          "start" : 0,
                          "duration" : 2383,
                          "mediaStart" : 0,
                          "mediaDuration" : 2383,
                          "scalar" : 1,
                          "metadata" : {
                            "AutoAppliedSmartFocus" : "False",
                            "clipSpeedAttribute" : false,
                            "default-scale0" : 1.0,
                            "default-scale1" : 1.0,
                            "default-translation0" : 0.0,
                            "default-translation1" : 0.0
                          },
                          "animationTracks" : {

                          }
                        },
                        {
                          "id" : 86,
                          "_type" : "ScreenIMFile",
                          "src" : 1,
                          "trackNumber" : 0,
                          "trimStartSum" : 0,
                          "attributes" : {
                            "ident" : "handle_hijacking_attack_prevention"
                          },
                          "parameters" : {
                            "cursorOpacity" : 0.0,
                            "cursorScale" : 0.0
                          },
                          "effects" : [

                          ],
                          "start" : 2383,
                          "duration" : 60,
                          "mediaStart" : 2382,
                          "mediaDuration" : 1,
                          "scalar" : 1,
                          "metadata" : {
                            "AutoAppliedSmartFocus" : "False"
                          },
                          "animationTracks" : {

                          }
                        },
                        {
                          "id" : 87,
                          "_type" : "ScreenVMFile",
                          "src" : 1,
                          "trackNumber" : 0,
                          "attributes" : {
                            "ident" : "handle_hijacking_attack_prevention"
                          },
                          "parameters" : {
                            "cursorScale" : {
                              "type" : "double",
                              "defaultValue" : 0.0,
                              "interp" : "linr"
                            },
                            "cursorOpacity" : {
                              "type" : "double",
                              "defaultValue" : 0.0,
                              "interp" : "linr"
                            }
                          },
                          "effects" : [

                          ],
                          "start" : 2443,
                          "duration" : 4486,
                          "mediaStart" : 2383,
                          "mediaDuration" : 4486,
                          "scalar" : 1,
                          "metadata" : {
                            "AutoAppliedSmartFocus" : "False",
                            "clipSpeedAttribute" : false,
                            "default-scale0" : 1.0,
                            "default-scale1" : 1.0,
                            "default-translation0" : 0.0,
                            "default-translation1" : 0.0
                          },
                          "animationTracks" : {

                          }
                        }
                    ],
                    "effects" : [
                        {
                          "effectName" : "CursorHilight",
                          "category" : "categoryCursorEffects",
                          "parameters" : {
                            "blur" : 0.1,
                            "color-alpha" : 0.75,
                            "color-blue" : 0.0,
                            "color-green" : 1.0,
                            "color-red" : 1.0,
                            "radius" : 50.0
                          }
                        }
                    ],
                    "start" : 1913,
                    "duration" : 42,
                    "mediaStart" : 3340,
                    "mediaDuration" : 42,
                    "scalar" : 1,
                    "metadata" : {
                      "AutoAppliedSmartFocus" : "False",
                      "clipSpeedAttribute" : false,
                      "default-scale0" : 0.999999315951539,
                      "default-scale1" : 1.0,
                      "default-translation0" : -1.13686837721616e-13,
                      "default-translation1" : -5.6843418860808e-14
                    },
                    "animationTracks" : {
                      "visual" : [
                        {
                          "endTime" : 242,
                          "duration" : 30,
                          "range" : [ 212, 30]
                        },
                        {
                          "endTime" : 332,
                          "duration" : 30,
                          "range" : [ 302, 30]
                        },
                        {
                          "endTime" : 1240,
                          "duration" : 30,
                          "range" : [ 1210, 30]
                        },
                        {
                          "endTime" : 1493,
                          "duration" : 30,
                          "range" : [ 1463, 30]
                        },
                        {
                          "endTime" : 2029,
                          "duration" : 26,
                          "range" : [ 2003, 26]
                        },
                        {
                          "endTime" : 2478,
                          "duration" : 30,
                          "range" : [ 2448, 30]
                        },
                        {
                          "endTime" : 3060,
                          "duration" : 30,
                          "range" : [ 3030, 30]
                        },
                        {
                          "endTime" : 3378,
                          "duration" : 30,
                          "range" : [ 3348, 30]
                        }
                      ]
                    }
                  },
                  {
                    "id" : 88,
                    "_type" : "StitchedMedia",
                    "minMediaStart" : 0,
                    "attributes" : {
                      "ident" : "handle_hijacking_attack_prevention",
                      "gain" : 1.0,
                      "mixToMono" : false
                    },
                    "parameters" : {
                      "translation0" : {
                        "type" : "double",
                        "defaultValue" : 0.0,
                        "keyframes" : [
                          {
                            "endTime" : 242,
                            "time" : 212,
                            "value" : 4445.6304568441,
                            "duration" : 30
                          },
                          {
                            "endTime" : 332,
                            "time" : 302,
                            "value" : -7.95807864051312e-13,
                            "duration" : 30
                          },
                          {
                            "endTime" : 1240,
                            "time" : 1210,
                            "value" : 1813.23805555168,
                            "duration" : 30
                          },
                          {
                            "endTime" : 1493,
                            "time" : 1463,
                            "value" : 1769.1,
                            "duration" : 30
                          },
                          {
                            "endTime" : 2029,
                            "time" : 2003,
                            "value" : 1769.08221838715,
                            "duration" : 26
                          },
                          {
                            "endTime" : 2478,
                            "time" : 2448,
                            "value" : -1.13686837721616e-13,
                            "duration" : 30
                          },
                          {
                            "endTime" : 3060,
                            "time" : 3030,
                            "value" : -927.066246510699,
                            "duration" : 30
                          },
                          {
                            "endTime" : 3378,
                            "time" : 3348,
                            "value" : -927.1,
                            "duration" : 30
                          }
                        ]
                      },
                      "translation1" : {
                        "type" : "double",
                        "defaultValue" : 0.0,
                        "keyframes" : [
                          {
                            "endTime" : 242,
                            "time" : 212,
                            "value" : -2101.5592739797,
                            "duration" : 30
                          },
                          {
                            "endTime" : 332,
                            "time" : 302,
                            "value" : 4.54747350886464e-13,
                            "duration" : 30
                          },
                          {
                            "endTime" : 1240,
                            "time" : 1210,
                            "value" : 0.0,
                            "duration" : 30
                          },
                          {
                            "endTime" : 1493,
                            "time" : 1463,
                            "value" : 764.586721975313,
                            "duration" : 30
                          },
                          {
                            "endTime" : 2029,
                            "time" : 2003,
                            "value" : 955.733402469141,
                            "duration" : 26
                          },
                          {
                            "endTime" : 2478,
                            "time" : 2448,
                            "value" : -5.6843418860808e-14,
                            "duration" : 30
                          },
                          {
                            "endTime" : 3060,
                            "time" : 3030,
                            "value" : 51.6923109282546,
                            "duration" : 30
                          },
                          {
                            "endTime" : 3378,
                            "time" : 3348,
                            "value" : 793.192387394355,
                            "duration" : 30
                          }
                        ]
                      },
                      "scale0" : {
                        "type" : "double",
                        "defaultValue" : 1.0,
                        "keyframes" : [
                          {
                            "endTime" : 242,
                            "time" : 212,
                            "value" : 4.90967434857952,
                            "duration" : 30
                          },
                          {
                            "endTime" : 332,
                            "time" : 302,
                            "value" : 0.99999957889657,
                            "duration" : 30
                          },
                          {
                            "endTime" : 1240,
                            "time" : 1210,
                            "value" : 2.93925764732581,
                            "duration" : 30
                          },
                          {
                            "endTime" : 1493,
                            "time" : 1463,
                            "value" : 2.93925755430459,
                            "duration" : 30
                          },
                          {
                            "endTime" : 2029,
                            "time" : 2003,
                            "value" : 2.93925746128338,
                            "duration" : 26
                          },
                          {
                            "endTime" : 2478,
                            "time" : 2448,
                            "value" : 0.999999315951539,
                            "duration" : 30
                          },
                          {
                            "endTime" : 3060,
                            "time" : 3030,
                            "value" : 2.54358807927679,
                            "duration" : 30
                          },
                          {
                            "endTime" : 3378,
                            "time" : 3348,
                            "value" : 2.5435882186022,
                            "duration" : 30
                          }
                        ]
                      },
                      "scale1" : {
                        "type" : "double",
                        "defaultValue" : 1.0,
                        "keyframes" : [
                          {
                            "endTime" : 242,
                            "time" : 212,
                            "value" : 4.90967641606111,
                            "duration" : 30
                          },
                          {
                            "endTime" : 332,
                            "time" : 302,
                            "value" : 1.0,
                            "duration" : 30
                          },
                          {
                            "endTime" : 1240,
                            "time" : 1210,
                            "value" : 2.9392594718793,
                            "duration" : 30
                          },
                          {
                            "endTime" : 2029,
                            "time" : 2003,
                            "value" : 2.9392594718793,
                            "duration" : 26
                          },
                          {
                            "endTime" : 2478,
                            "time" : 2448,
                            "value" : 1.0,
                            "duration" : 30
                          },
                          {
                            "endTime" : 3060,
                            "time" : 3030,
                            "value" : 2.54358990281888,
                            "duration" : 30
                          }
                        ]
                      },
                      "cursorOpacity" : 1.0,
                      "cursorScale" : 1.0
                    },
                    "medias" : [
                        {
                          "id" : 89,
                          "_type" : "ScreenVMFile",
                          "src" : 1,
                          "trackNumber" : 0,
                          "attributes" : {
                            "ident" : "handle_hijacking_attack_prevention"
                          },
                          "parameters" : {
                            "cursorScale" : {
                              "type" : "double",
                              "defaultValue" : 0.0,
                              "interp" : "linr"
                            },
                            "cursorOpacity" : {
                              "type" : "double",
                              "defaultValue" : 0.0,
                              "interp" : "linr"
                            }
                          },
                          "effects" : [

                          ],
                          "start" : 0,
                          "duration" : 2383,
                          "mediaStart" : 0,
                          "mediaDuration" : 2383,
                          "scalar" : 1,
                          "metadata" : {
                            "AutoAppliedSmartFocus" : "False",
                            "clipSpeedAttribute" : false,
                            "default-scale0" : 1.0,
                            "default-scale1" : 1.0,
                            "default-translation0" : 0.0,
                            "default-translation1" : 0.0
                          },
                          "animationTracks" : {

                          }
                        },
                        {
                          "id" : 90,
                          "_type" : "ScreenIMFile",
                          "src" : 1,
                          "trackNumber" : 0,
                          "trimStartSum" : 0,
                          "attributes" : {
                            "ident" : "handle_hijacking_attack_prevention"
                          },
                          "parameters" : {
                            "cursorOpacity" : 0.0,
                            "cursorScale" : 0.0
                          },
                          "effects" : [

                          ],
                          "start" : 2383,
                          "duration" : 60,
                          "mediaStart" : 2382,
                          "mediaDuration" : 1,
                          "scalar" : 1,
                          "metadata" : {
                            "AutoAppliedSmartFocus" : "False"
                          },
                          "animationTracks" : {

                          }
                        },
                        {
                          "id" : 91,
                          "_type" : "ScreenVMFile",
                          "src" : 1,
                          "trackNumber" : 0,
                          "attributes" : {
                            "ident" : "handle_hijacking_attack_prevention"
                          },
                          "parameters" : {
                            "cursorScale" : {
                              "type" : "double",
                              "defaultValue" : 0.0,
                              "interp" : "linr"
                            },
                            "cursorOpacity" : {
                              "type" : "double",
                              "defaultValue" : 0.0,
                              "interp" : "linr"
                            }
                          },
                          "effects" : [

                          ],
                          "start" : 2443,
                          "duration" : 4486,
                          "mediaStart" : 2383,
                          "mediaDuration" : 4486,
                          "scalar" : 1,
                          "metadata" : {
                            "AutoAppliedSmartFocus" : "False",
                            "clipSpeedAttribute" : false,
                            "default-scale0" : 1.0,
                            "default-scale1" : 1.0,
                            "default-translation0" : 0.0,
                            "default-translation1" : 0.0
                          },
                          "animationTracks" : {

                          }
                        }
                    ],
                    "effects" : [
                        {
                          "effectName" : "CursorHilight",
                          "category" : "categoryCursorEffects",
                          "parameters" : {
                            "blur" : 0.1,
                            "color-alpha" : 0.75,
                            "color-blue" : 0.0,
                            "color-green" : 1.0,
                            "color-red" : 1.0,
                            "radius" : 50.0
                          }
                        }
                    ],
                    "start" : 1955,
                    "duration" : 13,
                    "mediaStart" : 3382,
                    "mediaDuration" : 24,
                    "scalar" : "13/24",
                    "metadata" : {
                      "AutoAppliedSmartFocus" : "False",
                      "clipSpeedAttribute" : true,
                      "default-scale0" : 0.999999315951539,
                      "default-scale1" : 1.0,
                      "default-translation0" : -1.13686837721616e-13,
                      "default-translation1" : -5.6843418860808e-14
                    },
                    "animationTracks" : {
                      "visual" : [
                        {
                          "endTime" : 242,
                          "duration" : 30,
                          "range" : [ 212, 30]
                        },
                        {
                          "endTime" : 332,
                          "duration" : 30,
                          "range" : [ 302, 30]
                        },
                        {
                          "endTime" : 1240,
                          "duration" : 30,
                          "range" : [ 1210, 30]
                        },
                        {
                          "endTime" : 1493,
                          "duration" : 30,
                          "range" : [ 1463, 30]
                        },
                        {
                          "endTime" : 2029,
                          "duration" : 26,
                          "range" : [ 2003, 26]
                        },
                        {
                          "endTime" : 2478,
                          "duration" : 30,
                          "range" : [ 2448, 30]
                        },
                        {
                          "endTime" : 3060,
                          "duration" : 30,
                          "range" : [ 3030, 30]
                        },
                        {
                          "endTime" : 3378,
                          "duration" : 30,
                          "range" : [ 3348, 30]
                        }
                      ]
                    }
                  },
                  {
                    "id" : 92,
                    "_type" : "StitchedMedia",
                    "minMediaStart" : 0,
                    "attributes" : {
                      "ident" : "handle_hijacking_attack_prevention",
                      "gain" : 1.0,
                      "mixToMono" : false
                    },
                    "parameters" : {
                      "translation0" : {
                        "type" : "double",
                        "defaultValue" : 0.0,
                        "keyframes" : [
                          {
                            "endTime" : 242,
                            "time" : 212,
                            "value" : 4445.6304568441,
                            "duration" : 30
                          },
                          {
                            "endTime" : 332,
                            "time" : 302,
                            "value" : -7.95807864051312e-13,
                            "duration" : 30
                          },
                          {
                            "endTime" : 1240,
                            "time" : 1210,
                            "value" : 1813.23805555168,
                            "duration" : 30
                          },
                          {
                            "endTime" : 1493,
                            "time" : 1463,
                            "value" : 1769.1,
                            "duration" : 30
                          },
                          {
                            "endTime" : 2029,
                            "time" : 2003,
                            "value" : 1769.08221838715,
                            "duration" : 26
                          },
                          {
                            "endTime" : 2478,
                            "time" : 2448,
                            "value" : -1.13686837721616e-13,
                            "duration" : 30
                          },
                          {
                            "endTime" : 3060,
                            "time" : 3030,
                            "value" : -927.066246510699,
                            "duration" : 30
                          },
                          {
                            "endTime" : 3378,
                            "time" : 3348,
                            "value" : -927.1,
                            "duration" : 30
                          }
                        ]
                      },
                      "translation1" : {
                        "type" : "double",
                        "defaultValue" : 0.0,
                        "keyframes" : [
                          {
                            "endTime" : 242,
                            "time" : 212,
                            "value" : -2101.5592739797,
                            "duration" : 30
                          },
                          {
                            "endTime" : 332,
                            "time" : 302,
                            "value" : 4.54747350886464e-13,
                            "duration" : 30
                          },
                          {
                            "endTime" : 1240,
                            "time" : 1210,
                            "value" : 0.0,
                            "duration" : 30
                          },
                          {
                            "endTime" : 1493,
                            "time" : 1463,
                            "value" : 764.586721975313,
                            "duration" : 30
                          },
                          {
                            "endTime" : 2029,
                            "time" : 2003,
                            "value" : 955.733402469141,
                            "duration" : 26
                          },
                          {
                            "endTime" : 2478,
                            "time" : 2448,
                            "value" : -5.6843418860808e-14,
                            "duration" : 30
                          },
                          {
                            "endTime" : 3060,
                            "time" : 3030,
                            "value" : 51.6923109282546,
                            "duration" : 30
                          },
                          {
                            "endTime" : 3378,
                            "time" : 3348,
                            "value" : 793.192387394355,
                            "duration" : 30
                          }
                        ]
                      },
                      "scale0" : {
                        "type" : "double",
                        "defaultValue" : 1.0,
                        "keyframes" : [
                          {
                            "endTime" : 242,
                            "time" : 212,
                            "value" : 4.90967434857952,
                            "duration" : 30
                          },
                          {
                            "endTime" : 332,
                            "time" : 302,
                            "value" : 0.99999957889657,
                            "duration" : 30
                          },
                          {
                            "endTime" : 1240,
                            "time" : 1210,
                            "value" : 2.93925764732581,
                            "duration" : 30
                          },
                          {
                            "endTime" : 1493,
                            "time" : 1463,
                            "value" : 2.93925755430459,
                            "duration" : 30
                          },
                          {
                            "endTime" : 2029,
                            "time" : 2003,
                            "value" : 2.93925746128338,
                            "duration" : 26
                          },
                          {
                            "endTime" : 2478,
                            "time" : 2448,
                            "value" : 0.999999315951539,
                            "duration" : 30
                          },
                          {
                            "endTime" : 3060,
                            "time" : 3030,
                            "value" : 2.54358807927679,
                            "duration" : 30
                          },
                          {
                            "endTime" : 3378,
                            "time" : 3348,
                            "value" : 2.5435882186022,
                            "duration" : 30
                          }
                        ]
                      },
                      "scale1" : {
                        "type" : "double",
                        "defaultValue" : 1.0,
                        "keyframes" : [
                          {
                            "endTime" : 242,
                            "time" : 212,
                            "value" : 4.90967641606111,
                            "duration" : 30
                          },
                          {
                            "endTime" : 332,
                            "time" : 302,
                            "value" : 1.0,
                            "duration" : 30
                          },
                          {
                            "endTime" : 1240,
                            "time" : 1210,
                            "value" : 2.9392594718793,
                            "duration" : 30
                          },
                          {
                            "endTime" : 2029,
                            "time" : 2003,
                            "value" : 2.9392594718793,
                            "duration" : 26
                          },
                          {
                            "endTime" : 2478,
                            "time" : 2448,
                            "value" : 1.0,
                            "duration" : 30
                          },
                          {
                            "endTime" : 3060,
                            "time" : 3030,
                            "value" : 2.54358990281888,
                            "duration" : 30
                          }
                        ]
                      },
                      "cursorOpacity" : 1.0,
                      "cursorScale" : 1.0
                    },
                    "medias" : [
                        {
                          "id" : 93,
                          "_type" : "ScreenVMFile",
                          "src" : 1,
                          "trackNumber" : 0,
                          "attributes" : {
                            "ident" : "handle_hijacking_attack_prevention"
                          },
                          "parameters" : {
                            "cursorScale" : {
                              "type" : "double",
                              "defaultValue" : 0.0,
                              "interp" : "linr"
                            },
                            "cursorOpacity" : {
                              "type" : "double",
                              "defaultValue" : 0.0,
                              "interp" : "linr"
                            }
                          },
                          "effects" : [

                          ],
                          "start" : 0,
                          "duration" : 2383,
                          "mediaStart" : 0,
                          "mediaDuration" : 2383,
                          "scalar" : 1,
                          "metadata" : {
                            "AutoAppliedSmartFocus" : "False",
                            "clipSpeedAttribute" : false,
                            "default-scale0" : 1.0,
                            "default-scale1" : 1.0,
                            "default-translation0" : 0.0,
                            "default-translation1" : 0.0
                          },
                          "animationTracks" : {

                          }
                        },
                        {
                          "id" : 94,
                          "_type" : "ScreenIMFile",
                          "src" : 1,
                          "trackNumber" : 0,
                          "trimStartSum" : 0,
                          "attributes" : {
                            "ident" : "handle_hijacking_attack_prevention"
                          },
                          "parameters" : {
                            "cursorOpacity" : 0.0,
                            "cursorScale" : 0.0
                          },
                          "effects" : [

                          ],
                          "start" : 2383,
                          "duration" : 60,
                          "mediaStart" : 2382,
                          "mediaDuration" : 1,
                          "scalar" : 1,
                          "metadata" : {
                            "AutoAppliedSmartFocus" : "False"
                          },
                          "animationTracks" : {

                          }
                        },
                        {
                          "id" : 95,
                          "_type" : "ScreenVMFile",
                          "src" : 1,
                          "trackNumber" : 0,
                          "attributes" : {
                            "ident" : "handle_hijacking_attack_prevention"
                          },
                          "parameters" : {
                            "cursorScale" : {
                              "type" : "double",
                              "defaultValue" : 0.0,
                              "interp" : "linr"
                            },
                            "cursorOpacity" : {
                              "type" : "double",
                              "defaultValue" : 0.0,
                              "interp" : "linr"
                            }
                          },
                          "effects" : [

                          ],
                          "start" : 2443,
                          "duration" : 1049,
                          "mediaStart" : 2383,
                          "mediaDuration" : 1049,
                          "scalar" : 1,
                          "metadata" : {
                            "AutoAppliedSmartFocus" : "False",
                            "clipSpeedAttribute" : false,
                            "default-scale0" : 1.0,
                            "default-scale1" : 1.0,
                            "default-translation0" : 0.0,
                            "default-translation1" : 0.0
                          },
                          "animationTracks" : {

                          }
                        },
                        {
                          "id" : 96,
                          "_type" : "ScreenIMFile",
                          "src" : 1,
                          "trackNumber" : 0,
                          "trimStartSum" : 0,
                          "attributes" : {
                            "ident" : "handle_hijacking_attack_prevention"
                          },
                          "parameters" : {
                            "cursorOpacity" : 0.0,
                            "cursorScale" : 0.0
                          },
                          "effects" : [

                          ],
                          "start" : 3492,
                          "duration" : 90,
                          "mediaStart" : 3432,
                          "mediaDuration" : 1,
                          "scalar" : 1,
                          "metadata" : {
                            "AutoAppliedSmartFocus" : "False"
                          },
                          "animationTracks" : {

                          }
                        },
                        {
                          "id" : 97,
                          "_type" : "ScreenVMFile",
                          "src" : 1,
                          "trackNumber" : 0,
                          "attributes" : {
                            "ident" : "handle_hijacking_attack_prevention"
                          },
                          "parameters" : {
                            "cursorScale" : {
                              "type" : "double",
                              "defaultValue" : 0.0,
                              "interp" : "linr"
                            },
                            "cursorOpacity" : {
                              "type" : "double",
                              "defaultValue" : 0.0,
                              "interp" : "linr"
                            }
                          },
                          "effects" : [

                          ],
                          "start" : 3582,
                          "duration" : 3437,
                          "mediaStart" : 3432,
                          "mediaDuration" : 3437,
                          "scalar" : 1,
                          "metadata" : {
                            "AutoAppliedSmartFocus" : "False",
                            "clipSpeedAttribute" : false,
                            "default-scale0" : 1.0,
                            "default-scale1" : 1.0,
                            "default-translation0" : 0.0,
                            "default-translation1" : 0.0
                          },
                          "animationTracks" : {

                          }
                        }
                    ],
                    "effects" : [
                        {
                          "effectName" : "CursorHilight",
                          "category" : "categoryCursorEffects",
                          "parameters" : {
                            "blur" : 0.1,
                            "color-alpha" : 0.75,
                            "color-blue" : 0.0,
                            "color-green" : 1.0,
                            "color-red" : 1.0,
                            "radius" : 50.0
                          }
                        }
                    ],
                    "start" : 1968,
                    "duration" : 182,
                    "mediaStart" : 3406,
                    "mediaDuration" : 182,
                    "scalar" : 1,
                    "metadata" : {
                      "AutoAppliedSmartFocus" : "False",
                      "clipSpeedAttribute" : false
                    },
                    "animationTracks" : {
                      "visual" : [
                        {
                          "endTime" : 242,
                          "duration" : 30,
                          "range" : [ 212, 30]
                        },
                        {
                          "endTime" : 332,
                          "duration" : 30,
                          "range" : [ 302, 30]
                        },
                        {
                          "endTime" : 1240,
                          "duration" : 30,
                          "range" : [ 1210, 30]
                        },
                        {
                          "endTime" : 1493,
                          "duration" : 30,
                          "range" : [ 1463, 30]
                        },
                        {
                          "endTime" : 2029,
                          "duration" : 26,
                          "range" : [ 2003, 26]
                        },
                        {
                          "endTime" : 2478,
                          "duration" : 30,
                          "range" : [ 2448, 30]
                        },
                        {
                          "endTime" : 3060,
                          "duration" : 30,
                          "range" : [ 3030, 30]
                        },
                        {
                          "endTime" : 3378,
                          "duration" : 30,
                          "range" : [ 3348, 30]
                        }
                      ]
                    }
                  },
                  {
                    "id" : 98,
                    "_type" : "StitchedMedia",
                    "minMediaStart" : 0,
                    "attributes" : {
                      "ident" : "handle_hijacking_attack_prevention",
                      "gain" : 1.0,
                      "mixToMono" : false
                    },
                    "parameters" : {
                      "translation0" : {
                        "type" : "double",
                        "defaultValue" : 0.0,
                        "keyframes" : [
                          {
                            "endTime" : 242,
                            "time" : 212,
                            "value" : 4445.6304568441,
                            "duration" : 30
                          },
                          {
                            "endTime" : 332,
                            "time" : 302,
                            "value" : -7.95807864051312e-13,
                            "duration" : 30
                          },
                          {
                            "endTime" : 1240,
                            "time" : 1210,
                            "value" : 1813.23805555168,
                            "duration" : 30
                          },
                          {
                            "endTime" : 1493,
                            "time" : 1463,
                            "value" : 1769.1,
                            "duration" : 30
                          },
                          {
                            "endTime" : 2029,
                            "time" : 2003,
                            "value" : 1769.08221838715,
                            "duration" : 26
                          },
                          {
                            "endTime" : 2478,
                            "time" : 2448,
                            "value" : -1.13686837721616e-13,
                            "duration" : 30
                          },
                          {
                            "endTime" : 3060,
                            "time" : 3030,
                            "value" : -927.066246510699,
                            "duration" : 30
                          },
                          {
                            "endTime" : 3378,
                            "time" : 3348,
                            "value" : -927.1,
                            "duration" : 30
                          }
                        ]
                      },
                      "translation1" : {
                        "type" : "double",
                        "defaultValue" : 0.0,
                        "keyframes" : [
                          {
                            "endTime" : 242,
                            "time" : 212,
                            "value" : -2101.5592739797,
                            "duration" : 30
                          },
                          {
                            "endTime" : 332,
                            "time" : 302,
                            "value" : 4.54747350886464e-13,
                            "duration" : 30
                          },
                          {
                            "endTime" : 1240,
                            "time" : 1210,
                            "value" : 0.0,
                            "duration" : 30
                          },
                          {
                            "endTime" : 1493,
                            "time" : 1463,
                            "value" : 764.586721975313,
                            "duration" : 30
                          },
                          {
                            "endTime" : 2029,
                            "time" : 2003,
                            "value" : 955.733402469141,
                            "duration" : 26
                          },
                          {
                            "endTime" : 2478,
                            "time" : 2448,
                            "value" : -5.6843418860808e-14,
                            "duration" : 30
                          },
                          {
                            "endTime" : 3060,
                            "time" : 3030,
                            "value" : 51.6923109282546,
                            "duration" : 30
                          },
                          {
                            "endTime" : 3378,
                            "time" : 3348,
                            "value" : 793.192387394355,
                            "duration" : 30
                          }
                        ]
                      },
                      "scale0" : {
                        "type" : "double",
                        "defaultValue" : 1.0,
                        "keyframes" : [
                          {
                            "endTime" : 242,
                            "time" : 212,
                            "value" : 4.90967434857952,
                            "duration" : 30
                          },
                          {
                            "endTime" : 332,
                            "time" : 302,
                            "value" : 0.99999957889657,
                            "duration" : 30
                          },
                          {
                            "endTime" : 1240,
                            "time" : 1210,
                            "value" : 2.93925764732581,
                            "duration" : 30
                          },
                          {
                            "endTime" : 1493,
                            "time" : 1463,
                            "value" : 2.93925755430459,
                            "duration" : 30
                          },
                          {
                            "endTime" : 2029,
                            "time" : 2003,
                            "value" : 2.93925746128338,
                            "duration" : 26
                          },
                          {
                            "endTime" : 2478,
                            "time" : 2448,
                            "value" : 0.999999315951539,
                            "duration" : 30
                          },
                          {
                            "endTime" : 3060,
                            "time" : 3030,
                            "value" : 2.54358807927679,
                            "duration" : 30
                          },
                          {
                            "endTime" : 3378,
                            "time" : 3348,
                            "value" : 2.5435882186022,
                            "duration" : 30
                          }
                        ]
                      },
                      "scale1" : {
                        "type" : "double",
                        "defaultValue" : 1.0,
                        "keyframes" : [
                          {
                            "endTime" : 242,
                            "time" : 212,
                            "value" : 4.90967641606111,
                            "duration" : 30
                          },
                          {
                            "endTime" : 332,
                            "time" : 302,
                            "value" : 1.0,
                            "duration" : 30
                          },
                          {
                            "endTime" : 1240,
                            "time" : 1210,
                            "value" : 2.9392594718793,
                            "duration" : 30
                          },
                          {
                            "endTime" : 2029,
                            "time" : 2003,
                            "value" : 2.9392594718793,
                            "duration" : 26
                          },
                          {
                            "endTime" : 2478,
                            "time" : 2448,
                            "value" : 1.0,
                            "duration" : 30
                          },
                          {
                            "endTime" : 3060,
                            "time" : 3030,
                            "value" : 2.54358990281888,
                            "duration" : 30
                          }
                        ]
                      },
                      "cursorOpacity" : 1.0,
                      "cursorScale" : 1.0
                    },
                    "medias" : [
                        {
                          "id" : 99,
                          "_type" : "ScreenVMFile",
                          "src" : 1,
                          "trackNumber" : 0,
                          "attributes" : {
                            "ident" : "handle_hijacking_attack_prevention"
                          },
                          "parameters" : {
                            "cursorScale" : {
                              "type" : "double",
                              "defaultValue" : 0.0,
                              "interp" : "linr"
                            },
                            "cursorOpacity" : {
                              "type" : "double",
                              "defaultValue" : 0.0,
                              "interp" : "linr"
                            }
                          },
                          "effects" : [

                          ],
                          "start" : 0,
                          "duration" : 2383,
                          "mediaStart" : 0,
                          "mediaDuration" : 2383,
                          "scalar" : 1,
                          "metadata" : {
                            "AutoAppliedSmartFocus" : "False",
                            "clipSpeedAttribute" : false,
                            "default-scale0" : 1.0,
                            "default-scale1" : 1.0,
                            "default-translation0" : 0.0,
                            "default-translation1" : 0.0
                          },
                          "animationTracks" : {

                          }
                        },
                        {
                          "id" : 100,
                          "_type" : "ScreenIMFile",
                          "src" : 1,
                          "trackNumber" : 0,
                          "trimStartSum" : 0,
                          "attributes" : {
                            "ident" : "handle_hijacking_attack_prevention"
                          },
                          "parameters" : {
                            "cursorOpacity" : 0.0,
                            "cursorScale" : 0.0
                          },
                          "effects" : [

                          ],
                          "start" : 2383,
                          "duration" : 60,
                          "mediaStart" : 2382,
                          "mediaDuration" : 1,
                          "scalar" : 1,
                          "metadata" : {
                            "AutoAppliedSmartFocus" : "False"
                          },
                          "animationTracks" : {

                          }
                        },
                        {
                          "id" : 101,
                          "_type" : "ScreenVMFile",
                          "src" : 1,
                          "trackNumber" : 0,
                          "attributes" : {
                            "ident" : "handle_hijacking_attack_prevention"
                          },
                          "parameters" : {
                            "cursorScale" : {
                              "type" : "double",
                              "defaultValue" : 0.0,
                              "interp" : "linr"
                            },
                            "cursorOpacity" : {
                              "type" : "double",
                              "defaultValue" : 0.0,
                              "interp" : "linr"
                            }
                          },
                          "effects" : [

                          ],
                          "start" : 2443,
                          "duration" : 4486,
                          "mediaStart" : 2383,
                          "mediaDuration" : 4486,
                          "scalar" : 1,
                          "metadata" : {
                            "AutoAppliedSmartFocus" : "False",
                            "clipSpeedAttribute" : false,
                            "default-scale0" : 1.0,
                            "default-scale1" : 1.0,
                            "default-translation0" : 0.0,
                            "default-translation1" : 0.0
                          },
                          "animationTracks" : {

                          }
                        }
                    ],
                    "effects" : [
                        {
                          "effectName" : "CursorHilight",
                          "category" : "categoryCursorEffects",
                          "parameters" : {
                            "blur" : 0.1,
                            "color-alpha" : 0.75,
                            "color-blue" : 0.0,
                            "color-green" : 1.0,
                            "color-red" : 1.0,
                            "radius" : 50.0
                          }
                        }
                    ],
                    "start" : 2150,
                    "duration" : 98,
                    "mediaStart" : 3546,
                    "mediaDuration" : 157,
                    "scalar" : "98/157",
                    "metadata" : {
                      "AutoAppliedSmartFocus" : "False",
                      "clipSpeedAttribute" : true,
                      "default-scale0" : 0.999999315951539,
                      "default-scale1" : 1.0,
                      "default-translation0" : -1.13686837721616e-13,
                      "default-translation1" : -5.6843418860808e-14
                    },
                    "animationTracks" : {
                      "visual" : [
                        {
                          "endTime" : 242,
                          "duration" : 30,
                          "range" : [ 212, 30]
                        },
                        {
                          "endTime" : 332,
                          "duration" : 30,
                          "range" : [ 302, 30]
                        },
                        {
                          "endTime" : 1240,
                          "duration" : 30,
                          "range" : [ 1210, 30]
                        },
                        {
                          "endTime" : 1493,
                          "duration" : 30,
                          "range" : [ 1463, 30]
                        },
                        {
                          "endTime" : 2029,
                          "duration" : 26,
                          "range" : [ 2003, 26]
                        },
                        {
                          "endTime" : 2478,
                          "duration" : 30,
                          "range" : [ 2448, 30]
                        },
                        {
                          "endTime" : 3060,
                          "duration" : 30,
                          "range" : [ 3030, 30]
                        },
                        {
                          "endTime" : 3378,
                          "duration" : 30,
                          "range" : [ 3348, 30]
                        }
                      ]
                    }
                  },
                  {
                    "id" : 102,
                    "_type" : "StitchedMedia",
                    "minMediaStart" : 0,
                    "attributes" : {
                      "ident" : "handle_hijacking_attack_prevention",
                      "gain" : 1.0,
                      "mixToMono" : false
                    },
                    "parameters" : {
                      "translation0" : {
                        "type" : "double",
                        "defaultValue" : 0.0,
                        "keyframes" : [
                          {
                            "endTime" : 242,
                            "time" : 212,
                            "value" : 4445.6304568441,
                            "duration" : 30
                          },
                          {
                            "endTime" : 332,
                            "time" : 302,
                            "value" : -7.95807864051312e-13,
                            "duration" : 30
                          },
                          {
                            "endTime" : 1240,
                            "time" : 1210,
                            "value" : 1813.23805555168,
                            "duration" : 30
                          },
                          {
                            "endTime" : 1493,
                            "time" : 1463,
                            "value" : 1769.1,
                            "duration" : 30
                          },
                          {
                            "endTime" : 2029,
                            "time" : 2003,
                            "value" : 1769.08221838715,
                            "duration" : 26
                          },
                          {
                            "endTime" : 2478,
                            "time" : 2448,
                            "value" : -1.13686837721616e-13,
                            "duration" : 30
                          },
                          {
                            "endTime" : 3060,
                            "time" : 3030,
                            "value" : -927.066246510699,
                            "duration" : 30
                          },
                          {
                            "endTime" : 3378,
                            "time" : 3348,
                            "value" : -927.1,
                            "duration" : 30
                          },
                          {
                            "endTime" : 3752,
                            "time" : 3703,
                            "value" : 1.13686837721616e-13,
                            "duration" : 49
                          },
                          {
                            "endTime" : 3826,
                            "time" : 3780,
                            "value" : 2190.48664188307,
                            "duration" : 46
                          },
                          {
                            "endTime" : 3943,
                            "time" : 3913,
                            "value" : 2.27373675443232e-13,
                            "duration" : 30
                          }
                        ]
                      },
                      "translation1" : {
                        "type" : "double",
                        "defaultValue" : 0.0,
                        "keyframes" : [
                          {
                            "endTime" : 242,
                            "time" : 212,
                            "value" : -2101.5592739797,
                            "duration" : 30
                          },
                          {
                            "endTime" : 332,
                            "time" : 302,
                            "value" : 4.54747350886464e-13,
                            "duration" : 30
                          },
                          {
                            "endTime" : 1240,
                            "time" : 1210,
                            "value" : 0.0,
                            "duration" : 30
                          },
                          {
                            "endTime" : 1493,
                            "time" : 1463,
                            "value" : 764.586721975313,
                            "duration" : 30
                          },
                          {
                            "endTime" : 2029,
                            "time" : 2003,
                            "value" : 955.733402469141,
                            "duration" : 26
                          },
                          {
                            "endTime" : 2478,
                            "time" : 2448,
                            "value" : -5.6843418860808e-14,
                            "duration" : 30
                          },
                          {
                            "endTime" : 3060,
                            "time" : 3030,
                            "value" : 51.6923109282546,
                            "duration" : 30
                          },
                          {
                            "endTime" : 3378,
                            "time" : 3348,
                            "value" : 793.192387394355,
                            "duration" : 30
                          },
                          {
                            "endTime" : 3752,
                            "time" : 3703,
                            "value" : 0.0,
                            "duration" : 49
                          },
                          {
                            "endTime" : 3826,
                            "time" : 3780,
                            "value" : 525.407539085336,
                            "duration" : 46
                          },
                          {
                            "endTime" : 3943,
                            "time" : 3913,
                            "value" : -8.5265128291212e-14,
                            "duration" : 30
                          }
                        ]
                      },
                      "scale0" : {
                        "type" : "double",
                        "defaultValue" : 1.0,
                        "keyframes" : [
                          {
                            "endTime" : 242,
                            "time" : 212,
                            "value" : 4.90967434857952,
                            "duration" : 30
                          },
                          {
                            "endTime" : 332,
                            "time" : 302,
                            "value" : 0.99999957889657,
                            "duration" : 30
                          },
                          {
                            "endTime" : 1240,
                            "time" : 1210,
                            "value" : 2.93925764732581,
                            "duration" : 30
                          },
                          {
                            "endTime" : 1493,
                            "time" : 1463,
                            "value" : 2.93925755430459,
                            "duration" : 30
                          },
                          {
                            "endTime" : 2029,
                            "time" : 2003,
                            "value" : 2.93925746128338,
                            "duration" : 26
                          },
                          {
                            "endTime" : 2478,
                            "time" : 2448,
                            "value" : 0.999999315951539,
                            "duration" : 30
                          },
                          {
                            "endTime" : 3060,
                            "time" : 3030,
                            "value" : 2.54358807927679,
                            "duration" : 30
                          },
                          {
                            "endTime" : 3378,
                            "time" : 3348,
                            "value" : 2.5435882186022,
                            "duration" : 30
                          },
                          {
                            "endTime" : 3752,
                            "time" : 3703,
                            "value" : 0.999999337858405,
                            "duration" : 49
                          },
                          {
                            "endTime" : 3826,
                            "time" : 3780,
                            "value" : 3.2977262743969,
                            "duration" : 46
                          },
                          {
                            "endTime" : 3943,
                            "time" : 3913,
                            "value" : 0.999999616666313,
                            "duration" : 30
                          }
                        ]
                      },
                      "scale1" : {
                        "type" : "double",
                        "defaultValue" : 1.0,
                        "keyframes" : [
                          {
                            "endTime" : 242,
                            "time" : 212,
                            "value" : 4.90967641606111,
                            "duration" : 30
                          },
                          {
                            "endTime" : 332,
                            "time" : 302,
                            "value" : 1.0,
                            "duration" : 30
                          },
                          {
                            "endTime" : 1240,
                            "time" : 1210,
                            "value" : 2.9392594718793,
                            "duration" : 30
                          },
                          {
                            "endTime" : 2029,
                            "time" : 2003,
                            "value" : 2.9392594718793,
                            "duration" : 26
                          },
                          {
                            "endTime" : 2478,
                            "time" : 2448,
                            "value" : 1.0,
                            "duration" : 30
                          },
                          {
                            "endTime" : 3060,
                            "time" : 3030,
                            "value" : 2.54358990281888,
                            "duration" : 30
                          },
                          {
                            "endTime" : 3752,
                            "time" : 3703,
                            "value" : 1.0,
                            "duration" : 49
                          },
                          {
                            "endTime" : 3826,
                            "time" : 3780,
                            "value" : 3.29772753852696,
                            "duration" : 46
                          },
                          {
                            "endTime" : 3943,
                            "time" : 3913,
                            "value" : 1.0,
                            "duration" : 30
                          }
                        ]
                      },
                      "cursorOpacity" : 1.0,
                      "cursorScale" : 1.0
                    },
                    "medias" : [
                        {
                          "id" : 103,
                          "_type" : "ScreenVMFile",
                          "src" : 1,
                          "trackNumber" : 0,
                          "attributes" : {
                            "ident" : "handle_hijacking_attack_prevention"
                          },
                          "parameters" : {
                            "cursorScale" : {
                              "type" : "double",
                              "defaultValue" : 0.0,
                              "interp" : "linr"
                            },
                            "cursorOpacity" : {
                              "type" : "double",
                              "defaultValue" : 0.0,
                              "interp" : "linr"
                            }
                          },
                          "effects" : [

                          ],
                          "start" : 0,
                          "duration" : 2383,
                          "mediaStart" : 0,
                          "mediaDuration" : 2383,
                          "scalar" : 1,
                          "metadata" : {
                            "AutoAppliedSmartFocus" : "False",
                            "clipSpeedAttribute" : false,
                            "default-scale0" : 1.0,
                            "default-scale1" : 1.0,
                            "default-translation0" : 0.0,
                            "default-translation1" : 0.0
                          },
                          "animationTracks" : {

                          }
                        },
                        {
                          "id" : 104,
                          "_type" : "ScreenIMFile",
                          "src" : 1,
                          "trackNumber" : 0,
                          "trimStartSum" : 0,
                          "attributes" : {
                            "ident" : "handle_hijacking_attack_prevention"
                          },
                          "parameters" : {
                            "cursorOpacity" : 0.0,
                            "cursorScale" : 0.0
                          },
                          "effects" : [

                          ],
                          "start" : 2383,
                          "duration" : 60,
                          "mediaStart" : 2382,
                          "mediaDuration" : 1,
                          "scalar" : 1,
                          "metadata" : {
                            "AutoAppliedSmartFocus" : "False"
                          },
                          "animationTracks" : {

                          }
                        },
                        {
                          "id" : 105,
                          "_type" : "ScreenVMFile",
                          "src" : 1,
                          "trackNumber" : 0,
                          "attributes" : {
                            "ident" : "handle_hijacking_attack_prevention"
                          },
                          "parameters" : {
                            "cursorScale" : {
                              "type" : "double",
                              "defaultValue" : 0.0,
                              "interp" : "linr"
                            },
                            "cursorOpacity" : {
                              "type" : "double",
                              "defaultValue" : 0.0,
                              "interp" : "linr"
                            }
                          },
                          "effects" : [

                          ],
                          "start" : 2443,
                          "duration" : 4486,
                          "mediaStart" : 2383,
                          "mediaDuration" : 4486,
                          "scalar" : 1,
                          "metadata" : {
                            "AutoAppliedSmartFocus" : "False",
                            "clipSpeedAttribute" : false,
                            "default-scale0" : 1.0,
                            "default-scale1" : 1.0,
                            "default-translation0" : 0.0,
                            "default-translation1" : 0.0
                          },
                          "animationTracks" : {

                          }
                        }
                    ],
                    "effects" : [
                        {
                          "effectName" : "CursorHilight",
                          "category" : "categoryCursorEffects",
                          "parameters" : {
                            "blur" : 0.1,
                            "color-alpha" : 0.75,
                            "color-blue" : 0.0,
                            "color-green" : 1.0,
                            "color-red" : 1.0,
                            "radius" : 50.0
                          }
                        }
                    ],
                    "start" : 2248,
                    "duration" : 125,
                    "mediaStart" : 3703,
                    "mediaDuration" : 125,
                    "scalar" : 1,
                    "metadata" : {
                      "AutoAppliedSmartFocus" : "False",
                      "clipSpeedAttribute" : false,
                      "default-scale0" : 0.999999315951539,
                      "default-scale1" : 1.0,
                      "default-translation0" : -1.13686837721616e-13,
                      "default-translation1" : -5.6843418860808e-14
                    },
                    "animationTracks" : {
                      "visual" : [
                        {
                          "endTime" : 242,
                          "duration" : 30,
                          "range" : [ 212, 30]
                        },
                        {
                          "endTime" : 332,
                          "duration" : 30,
                          "range" : [ 302, 30]
                        },
                        {
                          "endTime" : 1240,
                          "duration" : 30,
                          "range" : [ 1210, 30]
                        },
                        {
                          "endTime" : 1493,
                          "duration" : 30,
                          "range" : [ 1463, 30]
                        },
                        {
                          "endTime" : 2029,
                          "duration" : 26,
                          "range" : [ 2003, 26]
                        },
                        {
                          "endTime" : 2478,
                          "duration" : 30,
                          "range" : [ 2448, 30]
                        },
                        {
                          "endTime" : 3060,
                          "duration" : 30,
                          "range" : [ 3030, 30]
                        },
                        {
                          "endTime" : 3378,
                          "duration" : 30,
                          "range" : [ 3348, 30]
                        },
                        {
                          "endTime" : 3752,
                          "duration" : 49,
                          "range" : [ 3703, 49]
                        },
                        {
                          "endTime" : 3826,
                          "duration" : 46,
                          "range" : [ 3780, 46]
                        },
                        {
                          "endTime" : 3943,
                          "duration" : 30,
                          "range" : [ 3913, 30]
                        }
                      ]
                    }
                  },
                  {
                    "id" : 106,
                    "_type" : "StitchedMedia",
                    "minMediaStart" : 0,
                    "attributes" : {
                      "ident" : "handle_hijacking_attack_prevention",
                      "gain" : 1.0,
                      "mixToMono" : false
                    },
                    "parameters" : {
                      "translation0" : {
                        "type" : "double",
                        "defaultValue" : 0.0,
                        "keyframes" : [
                          {
                            "endTime" : 242,
                            "time" : 212,
                            "value" : 4445.6304568441,
                            "duration" : 30
                          },
                          {
                            "endTime" : 332,
                            "time" : 302,
                            "value" : -7.95807864051312e-13,
                            "duration" : 30
                          },
                          {
                            "endTime" : 1240,
                            "time" : 1210,
                            "value" : 1813.23805555168,
                            "duration" : 30
                          },
                          {
                            "endTime" : 1493,
                            "time" : 1463,
                            "value" : 1769.1,
                            "duration" : 30
                          },
                          {
                            "endTime" : 2029,
                            "time" : 2003,
                            "value" : 1769.08221838715,
                            "duration" : 26
                          },
                          {
                            "endTime" : 2478,
                            "time" : 2448,
                            "value" : -1.13686837721616e-13,
                            "duration" : 30
                          },
                          {
                            "endTime" : 3060,
                            "time" : 3030,
                            "value" : -927.066246510699,
                            "duration" : 30
                          },
                          {
                            "endTime" : 3378,
                            "time" : 3348,
                            "value" : -927.1,
                            "duration" : 30
                          },
                          {
                            "endTime" : 3752,
                            "time" : 3703,
                            "value" : 1.13686837721616e-13,
                            "duration" : 49
                          },
                          {
                            "endTime" : 3826,
                            "time" : 3780,
                            "value" : 2190.48664188307,
                            "duration" : 46
                          },
                          {
                            "endTime" : 3943,
                            "time" : 3913,
                            "value" : 2.27373675443232e-13,
                            "duration" : 30
                          }
                        ]
                      },
                      "translation1" : {
                        "type" : "double",
                        "defaultValue" : 0.0,
                        "keyframes" : [
                          {
                            "endTime" : 242,
                            "time" : 212,
                            "value" : -2101.5592739797,
                            "duration" : 30
                          },
                          {
                            "endTime" : 332,
                            "time" : 302,
                            "value" : 4.54747350886464e-13,
                            "duration" : 30
                          },
                          {
                            "endTime" : 1240,
                            "time" : 1210,
                            "value" : 0.0,
                            "duration" : 30
                          },
                          {
                            "endTime" : 1493,
                            "time" : 1463,
                            "value" : 764.586721975313,
                            "duration" : 30
                          },
                          {
                            "endTime" : 2029,
                            "time" : 2003,
                            "value" : 955.733402469141,
                            "duration" : 26
                          },
                          {
                            "endTime" : 2478,
                            "time" : 2448,
                            "value" : -5.6843418860808e-14,
                            "duration" : 30
                          },
                          {
                            "endTime" : 3060,
                            "time" : 3030,
                            "value" : 51.6923109282546,
                            "duration" : 30
                          },
                          {
                            "endTime" : 3378,
                            "time" : 3348,
                            "value" : 793.192387394355,
                            "duration" : 30
                          },
                          {
                            "endTime" : 3752,
                            "time" : 3703,
                            "value" : 0.0,
                            "duration" : 49
                          },
                          {
                            "endTime" : 3826,
                            "time" : 3780,
                            "value" : 525.407539085336,
                            "duration" : 46
                          },
                          {
                            "endTime" : 3943,
                            "time" : 3913,
                            "value" : -8.5265128291212e-14,
                            "duration" : 30
                          }
                        ]
                      },
                      "scale0" : {
                        "type" : "double",
                        "defaultValue" : 1.0,
                        "keyframes" : [
                          {
                            "endTime" : 242,
                            "time" : 212,
                            "value" : 4.90967434857952,
                            "duration" : 30
                          },
                          {
                            "endTime" : 332,
                            "time" : 302,
                            "value" : 0.99999957889657,
                            "duration" : 30
                          },
                          {
                            "endTime" : 1240,
                            "time" : 1210,
                            "value" : 2.93925764732581,
                            "duration" : 30
                          },
                          {
                            "endTime" : 1493,
                            "time" : 1463,
                            "value" : 2.93925755430459,
                            "duration" : 30
                          },
                          {
                            "endTime" : 2029,
                            "time" : 2003,
                            "value" : 2.93925746128338,
                            "duration" : 26
                          },
                          {
                            "endTime" : 2478,
                            "time" : 2448,
                            "value" : 0.999999315951539,
                            "duration" : 30
                          },
                          {
                            "endTime" : 3060,
                            "time" : 3030,
                            "value" : 2.54358807927679,
                            "duration" : 30
                          },
                          {
                            "endTime" : 3378,
                            "time" : 3348,
                            "value" : 2.5435882186022,
                            "duration" : 30
                          },
                          {
                            "endTime" : 3752,
                            "time" : 3703,
                            "value" : 0.999999337858405,
                            "duration" : 49
                          },
                          {
                            "endTime" : 3826,
                            "time" : 3780,
                            "value" : 3.2977262743969,
                            "duration" : 46
                          },
                          {
                            "endTime" : 3943,
                            "time" : 3913,
                            "value" : 0.999999616666313,
                            "duration" : 30
                          }
                        ]
                      },
                      "scale1" : {
                        "type" : "double",
                        "defaultValue" : 1.0,
                        "keyframes" : [
                          {
                            "endTime" : 242,
                            "time" : 212,
                            "value" : 4.90967641606111,
                            "duration" : 30
                          },
                          {
                            "endTime" : 332,
                            "time" : 302,
                            "value" : 1.0,
                            "duration" : 30
                          },
                          {
                            "endTime" : 1240,
                            "time" : 1210,
                            "value" : 2.9392594718793,
                            "duration" : 30
                          },
                          {
                            "endTime" : 2029,
                            "time" : 2003,
                            "value" : 2.9392594718793,
                            "duration" : 26
                          },
                          {
                            "endTime" : 2478,
                            "time" : 2448,
                            "value" : 1.0,
                            "duration" : 30
                          },
                          {
                            "endTime" : 3060,
                            "time" : 3030,
                            "value" : 2.54358990281888,
                            "duration" : 30
                          },
                          {
                            "endTime" : 3752,
                            "time" : 3703,
                            "value" : 1.0,
                            "duration" : 49
                          },
                          {
                            "endTime" : 3826,
                            "time" : 3780,
                            "value" : 3.29772753852696,
                            "duration" : 46
                          },
                          {
                            "endTime" : 3943,
                            "time" : 3913,
                            "value" : 1.0,
                            "duration" : 30
                          }
                        ]
                      },
                      "cursorOpacity" : 1.0,
                      "cursorScale" : 1.0
                    },
                    "medias" : [
                        {
                          "id" : 107,
                          "_type" : "ScreenVMFile",
                          "src" : 1,
                          "trackNumber" : 0,
                          "attributes" : {
                            "ident" : "handle_hijacking_attack_prevention"
                          },
                          "parameters" : {
                            "cursorScale" : {
                              "type" : "double",
                              "defaultValue" : 0.0,
                              "interp" : "linr"
                            },
                            "cursorOpacity" : {
                              "type" : "double",
                              "defaultValue" : 0.0,
                              "interp" : "linr"
                            }
                          },
                          "effects" : [

                          ],
                          "start" : 0,
                          "duration" : 2383,
                          "mediaStart" : 0,
                          "mediaDuration" : 2383,
                          "scalar" : 1,
                          "metadata" : {
                            "AutoAppliedSmartFocus" : "False",
                            "clipSpeedAttribute" : false,
                            "default-scale0" : 1.0,
                            "default-scale1" : 1.0,
                            "default-translation0" : 0.0,
                            "default-translation1" : 0.0
                          },
                          "animationTracks" : {

                          }
                        },
                        {
                          "id" : 108,
                          "_type" : "ScreenIMFile",
                          "src" : 1,
                          "trackNumber" : 0,
                          "trimStartSum" : 0,
                          "attributes" : {
                            "ident" : "handle_hijacking_attack_prevention"
                          },
                          "parameters" : {
                            "cursorOpacity" : 0.0,
                            "cursorScale" : 0.0
                          },
                          "effects" : [

                          ],
                          "start" : 2383,
                          "duration" : 60,
                          "mediaStart" : 2382,
                          "mediaDuration" : 1,
                          "scalar" : 1,
                          "metadata" : {
                            "AutoAppliedSmartFocus" : "False"
                          },
                          "animationTracks" : {

                          }
                        },
                        {
                          "id" : 109,
                          "_type" : "ScreenVMFile",
                          "src" : 1,
                          "trackNumber" : 0,
                          "attributes" : {
                            "ident" : "handle_hijacking_attack_prevention"
                          },
                          "parameters" : {
                            "cursorScale" : {
                              "type" : "double",
                              "defaultValue" : 0.0,
                              "interp" : "linr"
                            },
                            "cursorOpacity" : {
                              "type" : "double",
                              "defaultValue" : 0.0,
                              "interp" : "linr"
                            }
                          },
                          "effects" : [

                          ],
                          "start" : 2443,
                          "duration" : 4486,
                          "mediaStart" : 2383,
                          "mediaDuration" : 4486,
                          "scalar" : 1,
                          "metadata" : {
                            "AutoAppliedSmartFocus" : "False",
                            "clipSpeedAttribute" : false,
                            "default-scale0" : 1.0,
                            "default-scale1" : 1.0,
                            "default-translation0" : 0.0,
                            "default-translation1" : 0.0
                          },
                          "animationTracks" : {

                          }
                        }
                    ],
                    "effects" : [
                        {
                          "effectName" : "CursorHilight",
                          "category" : "categoryCursorEffects",
                          "parameters" : {
                            "blur" : 0.1,
                            "color-alpha" : 0.75,
                            "color-blue" : 0.0,
                            "color-green" : 1.0,
                            "color-red" : 1.0,
                            "radius" : 50.0
                          }
                        }
                    ],
                    "start" : 2373,
                    "duration" : 36,
                    "mediaStart" : 3828,
                    "mediaDuration" : 84,
                    "scalar" : "3/7",
                    "metadata" : {
                      "AutoAppliedSmartFocus" : "False",
                      "clipSpeedAttribute" : true,
                      "default-scale0" : 0.999999315951539,
                      "default-scale1" : 1.0,
                      "default-translation0" : -1.13686837721616e-13,
                      "default-translation1" : -5.6843418860808e-14
                    },
                    "animationTracks" : {
                      "visual" : [
                        {
                          "endTime" : 242,
                          "duration" : 30,
                          "range" : [ 212, 30]
                        },
                        {
                          "endTime" : 332,
                          "duration" : 30,
                          "range" : [ 302, 30]
                        },
                        {
                          "endTime" : 1240,
                          "duration" : 30,
                          "range" : [ 1210, 30]
                        },
                        {
                          "endTime" : 1493,
                          "duration" : 30,
                          "range" : [ 1463, 30]
                        },
                        {
                          "endTime" : 2029,
                          "duration" : 26,
                          "range" : [ 2003, 26]
                        },
                        {
                          "endTime" : 2478,
                          "duration" : 30,
                          "range" : [ 2448, 30]
                        },
                        {
                          "endTime" : 3060,
                          "duration" : 30,
                          "range" : [ 3030, 30]
                        },
                        {
                          "endTime" : 3378,
                          "duration" : 30,
                          "range" : [ 3348, 30]
                        },
                        {
                          "endTime" : 3752,
                          "duration" : 49,
                          "range" : [ 3703, 49]
                        },
                        {
                          "endTime" : 3826,
                          "duration" : 46,
                          "range" : [ 3780, 46]
                        },
                        {
                          "endTime" : 3943,
                          "duration" : 30,
                          "range" : [ 3913, 30]
                        }
                      ]
                    }
                  },
                  {
                    "id" : 110,
                    "_type" : "StitchedMedia",
                    "minMediaStart" : 0,
                    "attributes" : {
                      "ident" : "handle_hijacking_attack_prevention",
                      "gain" : 1.0,
                      "mixToMono" : false
                    },
                    "parameters" : {
                      "translation0" : {
                        "type" : "double",
                        "defaultValue" : 0.0,
                        "keyframes" : [
                          {
                            "endTime" : 242,
                            "time" : 212,
                            "value" : 4445.6304568441,
                            "duration" : 30
                          },
                          {
                            "endTime" : 332,
                            "time" : 302,
                            "value" : -7.95807864051312e-13,
                            "duration" : 30
                          },
                          {
                            "endTime" : 1240,
                            "time" : 1210,
                            "value" : 1813.23805555168,
                            "duration" : 30
                          },
                          {
                            "endTime" : 1493,
                            "time" : 1463,
                            "value" : 1769.1,
                            "duration" : 30
                          },
                          {
                            "endTime" : 2029,
                            "time" : 2003,
                            "value" : 1769.08221838715,
                            "duration" : 26
                          },
                          {
                            "endTime" : 2478,
                            "time" : 2448,
                            "value" : -1.13686837721616e-13,
                            "duration" : 30
                          },
                          {
                            "endTime" : 3060,
                            "time" : 3030,
                            "value" : -927.066246510699,
                            "duration" : 30
                          },
                          {
                            "endTime" : 3378,
                            "time" : 3348,
                            "value" : -927.1,
                            "duration" : 30
                          },
                          {
                            "endTime" : 3752,
                            "time" : 3703,
                            "value" : 1.13686837721616e-13,
                            "duration" : 49
                          },
                          {
                            "endTime" : 3826,
                            "time" : 3780,
                            "value" : 2190.48664188307,
                            "duration" : 46
                          },
                          {
                            "endTime" : 3943,
                            "time" : 3913,
                            "value" : 2.27373675443232e-13,
                            "duration" : 30
                          },
                          {
                            "endTime" : 3982,
                            "time" : 3952,
                            "value" : -927.1,
                            "duration" : 30
                          }
                        ]
                      },
                      "translation1" : {
                        "type" : "double",
                        "defaultValue" : 0.0,
                        "keyframes" : [
                          {
                            "endTime" : 242,
                            "time" : 212,
                            "value" : -2101.5592739797,
                            "duration" : 30
                          },
                          {
                            "endTime" : 332,
                            "time" : 302,
                            "value" : 4.54747350886464e-13,
                            "duration" : 30
                          },
                          {
                            "endTime" : 1240,
                            "time" : 1210,
                            "value" : 0.0,
                            "duration" : 30
                          },
                          {
                            "endTime" : 1493,
                            "time" : 1463,
                            "value" : 764.586721975313,
                            "duration" : 30
                          },
                          {
                            "endTime" : 2029,
                            "time" : 2003,
                            "value" : 955.733402469141,
                            "duration" : 26
                          },
                          {
                            "endTime" : 2478,
                            "time" : 2448,
                            "value" : -5.6843418860808e-14,
                            "duration" : 30
                          },
                          {
                            "endTime" : 3060,
                            "time" : 3030,
                            "value" : 51.6923109282546,
                            "duration" : 30
                          },
                          {
                            "endTime" : 3378,
                            "time" : 3348,
                            "value" : 793.192387394355,
                            "duration" : 30
                          },
                          {
                            "endTime" : 3752,
                            "time" : 3703,
                            "value" : 0.0,
                            "duration" : 49
                          },
                          {
                            "endTime" : 3826,
                            "time" : 3780,
                            "value" : 525.407539085336,
                            "duration" : 46
                          },
                          {
                            "endTime" : 3943,
                            "time" : 3913,
                            "value" : -8.5265128291212e-14,
                            "duration" : 30
                          },
                          {
                            "endTime" : 3982,
                            "time" : 3952,
                            "value" : 693.2,
                            "duration" : 30
                          }
                        ]
                      },
                      "scale0" : {
                        "type" : "double",
                        "defaultValue" : 1.0,
                        "keyframes" : [
                          {
                            "endTime" : 242,
                            "time" : 212,
                            "value" : 4.90967434857952,
                            "duration" : 30
                          },
                          {
                            "endTime" : 332,
                            "time" : 302,
                            "value" : 0.99999957889657,
                            "duration" : 30
                          },
                          {
                            "endTime" : 1240,
                            "time" : 1210,
                            "value" : 2.93925764732581,
                            "duration" : 30
                          },
                          {
                            "endTime" : 1493,
                            "time" : 1463,
                            "value" : 2.93925755430459,
                            "duration" : 30
                          },
                          {
                            "endTime" : 2029,
                            "time" : 2003,
                            "value" : 2.93925746128338,
                            "duration" : 26
                          },
                          {
                            "endTime" : 2478,
                            "time" : 2448,
                            "value" : 0.999999315951539,
                            "duration" : 30
                          },
                          {
                            "endTime" : 3060,
                            "time" : 3030,
                            "value" : 2.54358807927679,
                            "duration" : 30
                          },
                          {
                            "endTime" : 3378,
                            "time" : 3348,
                            "value" : 2.5435882186022,
                            "duration" : 30
                          },
                          {
                            "endTime" : 3752,
                            "time" : 3703,
                            "value" : 0.999999337858405,
                            "duration" : 49
                          },
                          {
                            "endTime" : 3826,
                            "time" : 3780,
                            "value" : 3.2977262743969,
                            "duration" : 46
                          },
                          {
                            "endTime" : 3943,
                            "time" : 3913,
                            "value" : 0.999999616666313,
                            "duration" : 30
                          },
                          {
                            "endTime" : 3982,
                            "time" : 3952,
                            "value" : 2.5439982822715,
                            "duration" : 30
                          }
                        ]
                      },
                      "scale1" : {
                        "type" : "double",
                        "defaultValue" : 1.0,
                        "keyframes" : [
                          {
                            "endTime" : 242,
                            "time" : 212,
                            "value" : 4.90967641606111,
                            "duration" : 30
                          },
                          {
                            "endTime" : 332,
                            "time" : 302,
                            "value" : 1.0,
                            "duration" : 30
                          },
                          {
                            "endTime" : 1240,
                            "time" : 1210,
                            "value" : 2.9392594718793,
                            "duration" : 30
                          },
                          {
                            "endTime" : 2029,
                            "time" : 2003,
                            "value" : 2.9392594718793,
                            "duration" : 26
                          },
                          {
                            "endTime" : 2478,
                            "time" : 2448,
                            "value" : 1.0,
                            "duration" : 30
                          },
                          {
                            "endTime" : 3060,
                            "time" : 3030,
                            "value" : 2.54358990281888,
                            "duration" : 30
                          },
                          {
                            "endTime" : 3752,
                            "time" : 3703,
                            "value" : 1.0,
                            "duration" : 49
                          },
                          {
                            "endTime" : 3826,
                            "time" : 3780,
                            "value" : 3.29772753852696,
                            "duration" : 46
                          },
                          {
                            "endTime" : 3943,
                            "time" : 3913,
                            "value" : 1.0,
                            "duration" : 30
                          },
                          {
                            "endTime" : 3982,
                            "time" : 3952,
                            "value" : 2.544,
                            "duration" : 30
                          }
                        ]
                      },
                      "cursorOpacity" : 1.0,
                      "cursorScale" : 1.0
                    },
                    "medias" : [
                        {
                          "id" : 111,
                          "_type" : "ScreenVMFile",
                          "src" : 1,
                          "trackNumber" : 0,
                          "attributes" : {
                            "ident" : "handle_hijacking_attack_prevention"
                          },
                          "parameters" : {
                            "cursorScale" : {
                              "type" : "double",
                              "defaultValue" : 0.0,
                              "interp" : "linr"
                            },
                            "cursorOpacity" : {
                              "type" : "double",
                              "defaultValue" : 0.0,
                              "interp" : "linr"
                            }
                          },
                          "effects" : [

                          ],
                          "start" : 0,
                          "duration" : 2383,
                          "mediaStart" : 0,
                          "mediaDuration" : 2383,
                          "scalar" : 1,
                          "metadata" : {
                            "AutoAppliedSmartFocus" : "False",
                            "clipSpeedAttribute" : false,
                            "default-scale0" : 1.0,
                            "default-scale1" : 1.0,
                            "default-translation0" : 0.0,
                            "default-translation1" : 0.0
                          },
                          "animationTracks" : {

                          }
                        },
                        {
                          "id" : 112,
                          "_type" : "ScreenIMFile",
                          "src" : 1,
                          "trackNumber" : 0,
                          "trimStartSum" : 0,
                          "attributes" : {
                            "ident" : "handle_hijacking_attack_prevention"
                          },
                          "parameters" : {
                            "cursorOpacity" : 0.0,
                            "cursorScale" : 0.0
                          },
                          "effects" : [

                          ],
                          "start" : 2383,
                          "duration" : 60,
                          "mediaStart" : 2382,
                          "mediaDuration" : 1,
                          "scalar" : 1,
                          "metadata" : {
                            "AutoAppliedSmartFocus" : "False"
                          },
                          "animationTracks" : {

                          }
                        },
                        {
                          "id" : 113,
                          "_type" : "ScreenVMFile",
                          "src" : 1,
                          "trackNumber" : 0,
                          "attributes" : {
                            "ident" : "handle_hijacking_attack_prevention"
                          },
                          "parameters" : {
                            "cursorScale" : {
                              "type" : "double",
                              "defaultValue" : 0.0,
                              "interp" : "linr"
                            },
                            "cursorOpacity" : {
                              "type" : "double",
                              "defaultValue" : 0.0,
                              "interp" : "linr"
                            }
                          },
                          "effects" : [

                          ],
                          "start" : 2443,
                          "duration" : 4486,
                          "mediaStart" : 2383,
                          "mediaDuration" : 4486,
                          "scalar" : 1,
                          "metadata" : {
                            "AutoAppliedSmartFocus" : "False",
                            "clipSpeedAttribute" : false,
                            "default-scale0" : 1.0,
                            "default-scale1" : 1.0,
                            "default-translation0" : 0.0,
                            "default-translation1" : 0.0
                          },
                          "animationTracks" : {

                          }
                        }
                    ],
                    "effects" : [
                        {
                          "effectName" : "CursorHilight",
                          "category" : "categoryCursorEffects",
                          "parameters" : {
                            "blur" : 0.1,
                            "color-alpha" : 0.75,
                            "color-blue" : 0.0,
                            "color-green" : 1.0,
                            "color-red" : 1.0,
                            "radius" : 50.0
                          }
                        }
                    ],
                    "start" : 2409,
                    "duration" : 123,
                    "mediaStart" : 3912,
                    "mediaDuration" : 123,
                    "scalar" : 1,
                    "metadata" : {
                      "AutoAppliedSmartFocus" : "False",
                      "clipSpeedAttribute" : false,
                      "default-scale0" : 0.999999315951539,
                      "default-scale1" : 1.0,
                      "default-translation0" : -1.13686837721616e-13,
                      "default-translation1" : -5.6843418860808e-14
                    },
                    "animationTracks" : {
                      "visual" : [
                        {
                          "endTime" : 242,
                          "duration" : 30,
                          "range" : [ 212, 30]
                        },
                        {
                          "endTime" : 332,
                          "duration" : 30,
                          "range" : [ 302, 30]
                        },
                        {
                          "endTime" : 1240,
                          "duration" : 30,
                          "range" : [ 1210, 30]
                        },
                        {
                          "endTime" : 1493,
                          "duration" : 30,
                          "range" : [ 1463, 30]
                        },
                        {
                          "endTime" : 2029,
                          "duration" : 26,
                          "range" : [ 2003, 26]
                        },
                        {
                          "endTime" : 2478,
                          "duration" : 30,
                          "range" : [ 2448, 30]
                        },
                        {
                          "endTime" : 3060,
                          "duration" : 30,
                          "range" : [ 3030, 30]
                        },
                        {
                          "endTime" : 3378,
                          "duration" : 30,
                          "range" : [ 3348, 30]
                        },
                        {
                          "endTime" : 3752,
                          "duration" : 49,
                          "range" : [ 3703, 49]
                        },
                        {
                          "endTime" : 3826,
                          "duration" : 46,
                          "range" : [ 3780, 46]
                        },
                        {
                          "endTime" : 3943,
                          "duration" : 30,
                          "range" : [ 3913, 30]
                        },
                        {
                          "endTime" : 3982,
                          "duration" : 30,
                          "range" : [ 3952, 30]
                        }
                      ]
                    }
                  },
                  {
                    "id" : 114,
                    "_type" : "StitchedMedia",
                    "minMediaStart" : 0,
                    "attributes" : {
                      "ident" : "handle_hijacking_attack_prevention",
                      "gain" : 1.0,
                      "mixToMono" : false
                    },
                    "parameters" : {
                      "translation0" : {
                        "type" : "double",
                        "defaultValue" : 0.0,
                        "keyframes" : [
                          {
                            "endTime" : 242,
                            "time" : 212,
                            "value" : 4445.6304568441,
                            "duration" : 30
                          },
                          {
                            "endTime" : 332,
                            "time" : 302,
                            "value" : -7.95807864051312e-13,
                            "duration" : 30
                          },
                          {
                            "endTime" : 1240,
                            "time" : 1210,
                            "value" : 1813.23805555168,
                            "duration" : 30
                          },
                          {
                            "endTime" : 1493,
                            "time" : 1463,
                            "value" : 1769.1,
                            "duration" : 30
                          },
                          {
                            "endTime" : 2029,
                            "time" : 2003,
                            "value" : 1769.08221838715,
                            "duration" : 26
                          },
                          {
                            "endTime" : 2478,
                            "time" : 2448,
                            "value" : -1.13686837721616e-13,
                            "duration" : 30
                          },
                          {
                            "endTime" : 3060,
                            "time" : 3030,
                            "value" : -927.066246510699,
                            "duration" : 30
                          },
                          {
                            "endTime" : 3378,
                            "time" : 3348,
                            "value" : -927.1,
                            "duration" : 30
                          },
                          {
                            "endTime" : 3752,
                            "time" : 3703,
                            "value" : 1.13686837721616e-13,
                            "duration" : 49
                          },
                          {
                            "endTime" : 3826,
                            "time" : 3780,
                            "value" : 2190.48664188307,
                            "duration" : 46
                          },
                          {
                            "endTime" : 3943,
                            "time" : 3913,
                            "value" : 2.27373675443232e-13,
                            "duration" : 30
                          },
                          {
                            "endTime" : 3982,
                            "time" : 3952,
                            "value" : -927.1,
                            "duration" : 30
                          }
                        ]
                      },
                      "translation1" : {
                        "type" : "double",
                        "defaultValue" : 0.0,
                        "keyframes" : [
                          {
                            "endTime" : 242,
                            "time" : 212,
                            "value" : -2101.5592739797,
                            "duration" : 30
                          },
                          {
                            "endTime" : 332,
                            "time" : 302,
                            "value" : 4.54747350886464e-13,
                            "duration" : 30
                          },
                          {
                            "endTime" : 1240,
                            "time" : 1210,
                            "value" : 0.0,
                            "duration" : 30
                          },
                          {
                            "endTime" : 1493,
                            "time" : 1463,
                            "value" : 764.586721975313,
                            "duration" : 30
                          },
                          {
                            "endTime" : 2029,
                            "time" : 2003,
                            "value" : 955.733402469141,
                            "duration" : 26
                          },
                          {
                            "endTime" : 2478,
                            "time" : 2448,
                            "value" : -5.6843418860808e-14,
                            "duration" : 30
                          },
                          {
                            "endTime" : 3060,
                            "time" : 3030,
                            "value" : 51.6923109282546,
                            "duration" : 30
                          },
                          {
                            "endTime" : 3378,
                            "time" : 3348,
                            "value" : 793.192387394355,
                            "duration" : 30
                          },
                          {
                            "endTime" : 3752,
                            "time" : 3703,
                            "value" : 0.0,
                            "duration" : 49
                          },
                          {
                            "endTime" : 3826,
                            "time" : 3780,
                            "value" : 525.407539085336,
                            "duration" : 46
                          },
                          {
                            "endTime" : 3943,
                            "time" : 3913,
                            "value" : -8.5265128291212e-14,
                            "duration" : 30
                          },
                          {
                            "endTime" : 3982,
                            "time" : 3952,
                            "value" : 693.2,
                            "duration" : 30
                          }
                        ]
                      },
                      "scale0" : {
                        "type" : "double",
                        "defaultValue" : 1.0,
                        "keyframes" : [
                          {
                            "endTime" : 242,
                            "time" : 212,
                            "value" : 4.90967434857952,
                            "duration" : 30
                          },
                          {
                            "endTime" : 332,
                            "time" : 302,
                            "value" : 0.99999957889657,
                            "duration" : 30
                          },
                          {
                            "endTime" : 1240,
                            "time" : 1210,
                            "value" : 2.93925764732581,
                            "duration" : 30
                          },
                          {
                            "endTime" : 1493,
                            "time" : 1463,
                            "value" : 2.93925755430459,
                            "duration" : 30
                          },
                          {
                            "endTime" : 2029,
                            "time" : 2003,
                            "value" : 2.93925746128338,
                            "duration" : 26
                          },
                          {
                            "endTime" : 2478,
                            "time" : 2448,
                            "value" : 0.999999315951539,
                            "duration" : 30
                          },
                          {
                            "endTime" : 3060,
                            "time" : 3030,
                            "value" : 2.54358807927679,
                            "duration" : 30
                          },
                          {
                            "endTime" : 3378,
                            "time" : 3348,
                            "value" : 2.5435882186022,
                            "duration" : 30
                          },
                          {
                            "endTime" : 3752,
                            "time" : 3703,
                            "value" : 0.999999337858405,
                            "duration" : 49
                          },
                          {
                            "endTime" : 3826,
                            "time" : 3780,
                            "value" : 3.2977262743969,
                            "duration" : 46
                          },
                          {
                            "endTime" : 3943,
                            "time" : 3913,
                            "value" : 0.999999616666313,
                            "duration" : 30
                          },
                          {
                            "endTime" : 3982,
                            "time" : 3952,
                            "value" : 2.5439982822715,
                            "duration" : 30
                          }
                        ]
                      },
                      "scale1" : {
                        "type" : "double",
                        "defaultValue" : 1.0,
                        "keyframes" : [
                          {
                            "endTime" : 242,
                            "time" : 212,
                            "value" : 4.90967641606111,
                            "duration" : 30
                          },
                          {
                            "endTime" : 332,
                            "time" : 302,
                            "value" : 1.0,
                            "duration" : 30
                          },
                          {
                            "endTime" : 1240,
                            "time" : 1210,
                            "value" : 2.9392594718793,
                            "duration" : 30
                          },
                          {
                            "endTime" : 2029,
                            "time" : 2003,
                            "value" : 2.9392594718793,
                            "duration" : 26
                          },
                          {
                            "endTime" : 2478,
                            "time" : 2448,
                            "value" : 1.0,
                            "duration" : 30
                          },
                          {
                            "endTime" : 3060,
                            "time" : 3030,
                            "value" : 2.54358990281888,
                            "duration" : 30
                          },
                          {
                            "endTime" : 3752,
                            "time" : 3703,
                            "value" : 1.0,
                            "duration" : 49
                          },
                          {
                            "endTime" : 3826,
                            "time" : 3780,
                            "value" : 3.29772753852696,
                            "duration" : 46
                          },
                          {
                            "endTime" : 3943,
                            "time" : 3913,
                            "value" : 1.0,
                            "duration" : 30
                          },
                          {
                            "endTime" : 3982,
                            "time" : 3952,
                            "value" : 2.544,
                            "duration" : 30
                          }
                        ]
                      },
                      "cursorOpacity" : 1.0,
                      "cursorScale" : 1.0
                    },
                    "medias" : [
                        {
                          "id" : 115,
                          "_type" : "ScreenVMFile",
                          "src" : 1,
                          "trackNumber" : 0,
                          "attributes" : {
                            "ident" : "handle_hijacking_attack_prevention"
                          },
                          "parameters" : {
                            "cursorScale" : {
                              "type" : "double",
                              "defaultValue" : 0.0,
                              "interp" : "linr"
                            },
                            "cursorOpacity" : {
                              "type" : "double",
                              "defaultValue" : 0.0,
                              "interp" : "linr"
                            }
                          },
                          "effects" : [

                          ],
                          "start" : 0,
                          "duration" : 2383,
                          "mediaStart" : 0,
                          "mediaDuration" : 2383,
                          "scalar" : 1,
                          "metadata" : {
                            "AutoAppliedSmartFocus" : "False",
                            "clipSpeedAttribute" : false,
                            "default-scale0" : 1.0,
                            "default-scale1" : 1.0,
                            "default-translation0" : 0.0,
                            "default-translation1" : 0.0
                          },
                          "animationTracks" : {

                          }
                        },
                        {
                          "id" : 116,
                          "_type" : "ScreenIMFile",
                          "src" : 1,
                          "trackNumber" : 0,
                          "trimStartSum" : 0,
                          "attributes" : {
                            "ident" : "handle_hijacking_attack_prevention"
                          },
                          "parameters" : {
                            "cursorOpacity" : 0.0,
                            "cursorScale" : 0.0
                          },
                          "effects" : [

                          ],
                          "start" : 2383,
                          "duration" : 60,
                          "mediaStart" : 2382,
                          "mediaDuration" : 1,
                          "scalar" : 1,
                          "metadata" : {
                            "AutoAppliedSmartFocus" : "False"
                          },
                          "animationTracks" : {

                          }
                        },
                        {
                          "id" : 117,
                          "_type" : "ScreenVMFile",
                          "src" : 1,
                          "trackNumber" : 0,
                          "attributes" : {
                            "ident" : "handle_hijacking_attack_prevention"
                          },
                          "parameters" : {
                            "cursorScale" : {
                              "type" : "double",
                              "defaultValue" : 0.0,
                              "interp" : "linr"
                            },
                            "cursorOpacity" : {
                              "type" : "double",
                              "defaultValue" : 0.0,
                              "interp" : "linr"
                            }
                          },
                          "effects" : [

                          ],
                          "start" : 2443,
                          "duration" : 4486,
                          "mediaStart" : 2383,
                          "mediaDuration" : 4486,
                          "scalar" : 1,
                          "metadata" : {
                            "AutoAppliedSmartFocus" : "False",
                            "clipSpeedAttribute" : false,
                            "default-scale0" : 1.0,
                            "default-scale1" : 1.0,
                            "default-translation0" : 0.0,
                            "default-translation1" : 0.0
                          },
                          "animationTracks" : {

                          }
                        }
                    ],
                    "effects" : [
                        {
                          "effectName" : "CursorHilight",
                          "category" : "categoryCursorEffects",
                          "parameters" : {
                            "blur" : 0.1,
                            "color-alpha" : 0.75,
                            "color-blue" : 0.0,
                            "color-green" : 1.0,
                            "color-red" : 1.0,
                            "radius" : 50.0
                          }
                        }
                    ],
                    "start" : 2532,
                    "duration" : 29,
                    "mediaStart" : 4035,
                    "mediaDuration" : 138,
                    "scalar" : "29/138",
                    "metadata" : {
                      "AutoAppliedSmartFocus" : "False",
                      "clipSpeedAttribute" : true,
                      "default-scale0" : 0.999999315951539,
                      "default-scale1" : 1.0,
                      "default-translation0" : -1.13686837721616e-13,
                      "default-translation1" : -5.6843418860808e-14
                    },
                    "animationTracks" : {
                      "visual" : [
                        {
                          "endTime" : 242,
                          "duration" : 30,
                          "range" : [ 212, 30]
                        },
                        {
                          "endTime" : 332,
                          "duration" : 30,
                          "range" : [ 302, 30]
                        },
                        {
                          "endTime" : 1240,
                          "duration" : 30,
                          "range" : [ 1210, 30]
                        },
                        {
                          "endTime" : 1493,
                          "duration" : 30,
                          "range" : [ 1463, 30]
                        },
                        {
                          "endTime" : 2029,
                          "duration" : 26,
                          "range" : [ 2003, 26]
                        },
                        {
                          "endTime" : 2478,
                          "duration" : 30,
                          "range" : [ 2448, 30]
                        },
                        {
                          "endTime" : 3060,
                          "duration" : 30,
                          "range" : [ 3030, 30]
                        },
                        {
                          "endTime" : 3378,
                          "duration" : 30,
                          "range" : [ 3348, 30]
                        },
                        {
                          "endTime" : 3752,
                          "duration" : 49,
                          "range" : [ 3703, 49]
                        },
                        {
                          "endTime" : 3826,
                          "duration" : 46,
                          "range" : [ 3780, 46]
                        },
                        {
                          "endTime" : 3943,
                          "duration" : 30,
                          "range" : [ 3913, 30]
                        },
                        {
                          "endTime" : 3982,
                          "duration" : 30,
                          "range" : [ 3952, 30]
                        }
                      ]
                    }
                  },
                  {
                    "id" : 118,
                    "_type" : "StitchedMedia",
                    "minMediaStart" : 0,
                    "attributes" : {
                      "ident" : "handle_hijacking_attack_prevention",
                      "gain" : 1.0,
                      "mixToMono" : false
                    },
                    "parameters" : {
                      "translation0" : {
                        "type" : "double",
                        "defaultValue" : 0.0,
                        "keyframes" : [
                          {
                            "endTime" : 242,
                            "time" : 212,
                            "value" : 4445.6304568441,
                            "duration" : 30
                          },
                          {
                            "endTime" : 332,
                            "time" : 302,
                            "value" : -7.95807864051312e-13,
                            "duration" : 30
                          },
                          {
                            "endTime" : 1240,
                            "time" : 1210,
                            "value" : 1813.23805555168,
                            "duration" : 30
                          },
                          {
                            "endTime" : 1493,
                            "time" : 1463,
                            "value" : 1769.1,
                            "duration" : 30
                          },
                          {
                            "endTime" : 2029,
                            "time" : 2003,
                            "value" : 1769.08221838715,
                            "duration" : 26
                          },
                          {
                            "endTime" : 2478,
                            "time" : 2448,
                            "value" : -1.13686837721616e-13,
                            "duration" : 30
                          },
                          {
                            "endTime" : 3060,
                            "time" : 3030,
                            "value" : -927.066246510699,
                            "duration" : 30
                          },
                          {
                            "endTime" : 3378,
                            "time" : 3348,
                            "value" : -927.1,
                            "duration" : 30
                          },
                          {
                            "endTime" : 3752,
                            "time" : 3703,
                            "value" : 1.13686837721616e-13,
                            "duration" : 49
                          },
                          {
                            "endTime" : 3826,
                            "time" : 3780,
                            "value" : 2190.48664188307,
                            "duration" : 46
                          },
                          {
                            "endTime" : 3943,
                            "time" : 3913,
                            "value" : 2.27373675443232e-13,
                            "duration" : 30
                          },
                          {
                            "endTime" : 3982,
                            "time" : 3952,
                            "value" : -927.1,
                            "duration" : 30
                          },
                          {
                            "endTime" : 4315,
                            "time" : 4281,
                            "value" : -927.1,
                            "duration" : 34
                          }
                        ]
                      },
                      "translation1" : {
                        "type" : "double",
                        "defaultValue" : 0.0,
                        "keyframes" : [
                          {
                            "endTime" : 242,
                            "time" : 212,
                            "value" : -2101.5592739797,
                            "duration" : 30
                          },
                          {
                            "endTime" : 332,
                            "time" : 302,
                            "value" : 4.54747350886464e-13,
                            "duration" : 30
                          },
                          {
                            "endTime" : 1240,
                            "time" : 1210,
                            "value" : 0.0,
                            "duration" : 30
                          },
                          {
                            "endTime" : 1493,
                            "time" : 1463,
                            "value" : 764.586721975313,
                            "duration" : 30
                          },
                          {
                            "endTime" : 2029,
                            "time" : 2003,
                            "value" : 955.733402469141,
                            "duration" : 26
                          },
                          {
                            "endTime" : 2478,
                            "time" : 2448,
                            "value" : -5.6843418860808e-14,
                            "duration" : 30
                          },
                          {
                            "endTime" : 3060,
                            "time" : 3030,
                            "value" : 51.6923109282546,
                            "duration" : 30
                          },
                          {
                            "endTime" : 3378,
                            "time" : 3348,
                            "value" : 793.192387394355,
                            "duration" : 30
                          },
                          {
                            "endTime" : 3752,
                            "time" : 3703,
                            "value" : 0.0,
                            "duration" : 49
                          },
                          {
                            "endTime" : 3826,
                            "time" : 3780,
                            "value" : 525.407539085336,
                            "duration" : 46
                          },
                          {
                            "endTime" : 3943,
                            "time" : 3913,
                            "value" : -8.5265128291212e-14,
                            "duration" : 30
                          },
                          {
                            "endTime" : 3982,
                            "time" : 3952,
                            "value" : 693.2,
                            "duration" : 30
                          },
                          {
                            "endTime" : 4315,
                            "time" : 4281,
                            "value" : 796.601448181272,
                            "duration" : 34
                          }
                        ]
                      },
                      "scale0" : {
                        "type" : "double",
                        "defaultValue" : 1.0,
                        "keyframes" : [
                          {
                            "endTime" : 242,
                            "time" : 212,
                            "value" : 4.90967434857952,
                            "duration" : 30
                          },
                          {
                            "endTime" : 332,
                            "time" : 302,
                            "value" : 0.99999957889657,
                            "duration" : 30
                          },
                          {
                            "endTime" : 1240,
                            "time" : 1210,
                            "value" : 2.93925764732581,
                            "duration" : 30
                          },
                          {
                            "endTime" : 1493,
                            "time" : 1463,
                            "value" : 2.93925755430459,
                            "duration" : 30
                          },
                          {
                            "endTime" : 2029,
                            "time" : 2003,
                            "value" : 2.93925746128338,
                            "duration" : 26
                          },
                          {
                            "endTime" : 2478,
                            "time" : 2448,
                            "value" : 0.999999315951539,
                            "duration" : 30
                          },
                          {
                            "endTime" : 3060,
                            "time" : 3030,
                            "value" : 2.54358807927679,
                            "duration" : 30
                          },
                          {
                            "endTime" : 3378,
                            "time" : 3348,
                            "value" : 2.5435882186022,
                            "duration" : 30
                          },
                          {
                            "endTime" : 3752,
                            "time" : 3703,
                            "value" : 0.999999337858405,
                            "duration" : 49
                          },
                          {
                            "endTime" : 3826,
                            "time" : 3780,
                            "value" : 3.2977262743969,
                            "duration" : 46
                          },
                          {
                            "endTime" : 3943,
                            "time" : 3913,
                            "value" : 0.999999616666313,
                            "duration" : 30
                          },
                          {
                            "endTime" : 3982,
                            "time" : 3952,
                            "value" : 2.5439982822715,
                            "duration" : 30
                          },
                          {
                            "endTime" : 4315,
                            "time" : 4281,
                            "value" : 2.54399842552367,
                            "duration" : 34
                          }
                        ]
                      },
                      "scale1" : {
                        "type" : "double",
                        "defaultValue" : 1.0,
                        "keyframes" : [
                          {
                            "endTime" : 242,
                            "time" : 212,
                            "value" : 4.90967641606111,
                            "duration" : 30
                          },
                          {
                            "endTime" : 332,
                            "time" : 302,
                            "value" : 1.0,
                            "duration" : 30
                          },
                          {
                            "endTime" : 1240,
                            "time" : 1210,
                            "value" : 2.9392594718793,
                            "duration" : 30
                          },
                          {
                            "endTime" : 2029,
                            "time" : 2003,
                            "value" : 2.9392594718793,
                            "duration" : 26
                          },
                          {
                            "endTime" : 2478,
                            "time" : 2448,
                            "value" : 1.0,
                            "duration" : 30
                          },
                          {
                            "endTime" : 3060,
                            "time" : 3030,
                            "value" : 2.54358990281888,
                            "duration" : 30
                          },
                          {
                            "endTime" : 3752,
                            "time" : 3703,
                            "value" : 1.0,
                            "duration" : 49
                          },
                          {
                            "endTime" : 3826,
                            "time" : 3780,
                            "value" : 3.29772753852696,
                            "duration" : 46
                          },
                          {
                            "endTime" : 3943,
                            "time" : 3913,
                            "value" : 1.0,
                            "duration" : 30
                          },
                          {
                            "endTime" : 3982,
                            "time" : 3952,
                            "value" : 2.544,
                            "duration" : 30
                          },
                          {
                            "endTime" : 4315,
                            "time" : 4281,
                            "value" : 2.54399958577061,
                            "duration" : 34
                          }
                        ]
                      },
                      "cursorOpacity" : 1.0,
                      "cursorScale" : 1.0
                    },
                    "medias" : [
                        {
                          "id" : 119,
                          "_type" : "ScreenVMFile",
                          "src" : 1,
                          "trackNumber" : 0,
                          "attributes" : {
                            "ident" : "handle_hijacking_attack_prevention"
                          },
                          "parameters" : {
                            "cursorScale" : {
                              "type" : "double",
                              "defaultValue" : 0.0,
                              "interp" : "linr"
                            },
                            "cursorOpacity" : {
                              "type" : "double",
                              "defaultValue" : 0.0,
                              "interp" : "linr"
                            }
                          },
                          "effects" : [

                          ],
                          "start" : 0,
                          "duration" : 2383,
                          "mediaStart" : 0,
                          "mediaDuration" : 2383,
                          "scalar" : 1,
                          "metadata" : {
                            "AutoAppliedSmartFocus" : "False",
                            "clipSpeedAttribute" : false,
                            "default-scale0" : 1.0,
                            "default-scale1" : 1.0,
                            "default-translation0" : 0.0,
                            "default-translation1" : 0.0
                          },
                          "animationTracks" : {

                          }
                        },
                        {
                          "id" : 120,
                          "_type" : "ScreenIMFile",
                          "src" : 1,
                          "trackNumber" : 0,
                          "trimStartSum" : 0,
                          "attributes" : {
                            "ident" : "handle_hijacking_attack_prevention"
                          },
                          "parameters" : {
                            "cursorOpacity" : 0.0,
                            "cursorScale" : 0.0
                          },
                          "effects" : [

                          ],
                          "start" : 2383,
                          "duration" : 60,
                          "mediaStart" : 2382,
                          "mediaDuration" : 1,
                          "scalar" : 1,
                          "metadata" : {
                            "AutoAppliedSmartFocus" : "False"
                          },
                          "animationTracks" : {

                          }
                        },
                        {
                          "id" : 121,
                          "_type" : "ScreenVMFile",
                          "src" : 1,
                          "trackNumber" : 0,
                          "attributes" : {
                            "ident" : "handle_hijacking_attack_prevention"
                          },
                          "parameters" : {
                            "cursorScale" : {
                              "type" : "double",
                              "defaultValue" : 0.0,
                              "interp" : "linr"
                            },
                            "cursorOpacity" : {
                              "type" : "double",
                              "defaultValue" : 0.0,
                              "interp" : "linr"
                            }
                          },
                          "effects" : [

                          ],
                          "start" : 2443,
                          "duration" : 1815,
                          "mediaStart" : 2383,
                          "mediaDuration" : 1815,
                          "scalar" : 1,
                          "metadata" : {
                            "AutoAppliedSmartFocus" : "False",
                            "clipSpeedAttribute" : false,
                            "default-scale0" : 1.0,
                            "default-scale1" : 1.0,
                            "default-translation0" : 0.0,
                            "default-translation1" : 0.0
                          },
                          "animationTracks" : {

                          }
                        },
                        {
                          "id" : 122,
                          "_type" : "ScreenIMFile",
                          "src" : 1,
                          "trackNumber" : 0,
                          "trimStartSum" : 0,
                          "attributes" : {
                            "ident" : "handle_hijacking_attack_prevention"
                          },
                          "parameters" : {
                            "cursorOpacity" : 0.0,
                            "cursorScale" : 0.0
                          },
                          "effects" : [

                          ],
                          "start" : 4258,
                          "duration" : 18,
                          "mediaStart" : 4198,
                          "mediaDuration" : 1,
                          "scalar" : 1,
                          "metadata" : {
                            "AutoAppliedSmartFocus" : "False"
                          },
                          "animationTracks" : {

                          }
                        },
                        {
                          "id" : 123,
                          "_type" : "ScreenVMFile",
                          "src" : 1,
                          "trackNumber" : 0,
                          "attributes" : {
                            "ident" : "handle_hijacking_attack_prevention"
                          },
                          "parameters" : {
                            "cursorScale" : {
                              "type" : "double",
                              "defaultValue" : 0.0,
                              "interp" : "linr"
                            },
                            "cursorOpacity" : {
                              "type" : "double",
                              "defaultValue" : 0.0,
                              "interp" : "linr"
                            }
                          },
                          "effects" : [

                          ],
                          "start" : 4276,
                          "duration" : 2671,
                          "mediaStart" : 4198,
                          "mediaDuration" : 2671,
                          "scalar" : 1,
                          "metadata" : {
                            "AutoAppliedSmartFocus" : "False",
                            "clipSpeedAttribute" : false,
                            "default-scale0" : 1.0,
                            "default-scale1" : 1.0,
                            "default-translation0" : 0.0,
                            "default-translation1" : 0.0
                          },
                          "animationTracks" : {

                          }
                        }
                    ],
                    "effects" : [
                        {
                          "effectName" : "CursorHilight",
                          "category" : "categoryCursorEffects",
                          "parameters" : {
                            "blur" : 0.1,
                            "color-alpha" : 0.75,
                            "color-blue" : 0.0,
                            "color-green" : 1.0,
                            "color-red" : 1.0,
                            "radius" : 50.0
                          }
                        }
                    ],
                    "start" : 2561,
                    "duration" : 148,
                    "mediaStart" : 4173,
                    "mediaDuration" : 148,
                    "scalar" : 1,
                    "metadata" : {
                      "AutoAppliedSmartFocus" : "False",
                      "clipSpeedAttribute" : false
                    },
                    "animationTracks" : {
                      "visual" : [
                        {
                          "endTime" : 242,
                          "duration" : 30,
                          "range" : [ 212, 30]
                        },
                        {
                          "endTime" : 332,
                          "duration" : 30,
                          "range" : [ 302, 30]
                        },
                        {
                          "endTime" : 1240,
                          "duration" : 30,
                          "range" : [ 1210, 30]
                        },
                        {
                          "endTime" : 1493,
                          "duration" : 30,
                          "range" : [ 1463, 30]
                        },
                        {
                          "endTime" : 2029,
                          "duration" : 26,
                          "range" : [ 2003, 26]
                        },
                        {
                          "endTime" : 2478,
                          "duration" : 30,
                          "range" : [ 2448, 30]
                        },
                        {
                          "endTime" : 3060,
                          "duration" : 30,
                          "range" : [ 3030, 30]
                        },
                        {
                          "endTime" : 3378,
                          "duration" : 30,
                          "range" : [ 3348, 30]
                        },
                        {
                          "endTime" : 3752,
                          "duration" : 49,
                          "range" : [ 3703, 49]
                        },
                        {
                          "endTime" : 3826,
                          "duration" : 46,
                          "range" : [ 3780, 46]
                        },
                        {
                          "endTime" : 3943,
                          "duration" : 30,
                          "range" : [ 3913, 30]
                        },
                        {
                          "endTime" : 3982,
                          "duration" : 30,
                          "range" : [ 3952, 30]
                        },
                        {
                          "endTime" : 4315,
                          "duration" : 34,
                          "range" : [ 4281, 34]
                        }
                      ]
                    }
                  },
                  {
                    "id" : 124,
                    "_type" : "StitchedMedia",
                    "minMediaStart" : 0,
                    "attributes" : {
                      "ident" : "handle_hijacking_attack_prevention",
                      "gain" : 1.0,
                      "mixToMono" : false
                    },
                    "parameters" : {
                      "translation0" : {
                        "type" : "double",
                        "defaultValue" : 0.0,
                        "keyframes" : [
                          {
                            "endTime" : 242,
                            "time" : 212,
                            "value" : 4445.6304568441,
                            "duration" : 30
                          },
                          {
                            "endTime" : 332,
                            "time" : 302,
                            "value" : -7.95807864051312e-13,
                            "duration" : 30
                          },
                          {
                            "endTime" : 1240,
                            "time" : 1210,
                            "value" : 1813.23805555168,
                            "duration" : 30
                          },
                          {
                            "endTime" : 1493,
                            "time" : 1463,
                            "value" : 1769.1,
                            "duration" : 30
                          },
                          {
                            "endTime" : 2029,
                            "time" : 2003,
                            "value" : 1769.08221838715,
                            "duration" : 26
                          },
                          {
                            "endTime" : 2478,
                            "time" : 2448,
                            "value" : -1.13686837721616e-13,
                            "duration" : 30
                          },
                          {
                            "endTime" : 3060,
                            "time" : 3030,
                            "value" : -927.066246510699,
                            "duration" : 30
                          },
                          {
                            "endTime" : 3378,
                            "time" : 3348,
                            "value" : -927.1,
                            "duration" : 30
                          },
                          {
                            "endTime" : 3752,
                            "time" : 3703,
                            "value" : 1.13686837721616e-13,
                            "duration" : 49
                          },
                          {
                            "endTime" : 3826,
                            "time" : 3780,
                            "value" : 2190.48664188307,
                            "duration" : 46
                          },
                          {
                            "endTime" : 3943,
                            "time" : 3913,
                            "value" : 2.27373675443232e-13,
                            "duration" : 30
                          },
                          {
                            "endTime" : 3982,
                            "time" : 3952,
                            "value" : -927.1,
                            "duration" : 30
                          },
                          {
                            "endTime" : 4297,
                            "time" : 4263,
                            "value" : -927.1,
                            "duration" : 34
                          }
                        ]
                      },
                      "translation1" : {
                        "type" : "double",
                        "defaultValue" : 0.0,
                        "keyframes" : [
                          {
                            "endTime" : 242,
                            "time" : 212,
                            "value" : -2101.5592739797,
                            "duration" : 30
                          },
                          {
                            "endTime" : 332,
                            "time" : 302,
                            "value" : 4.54747350886464e-13,
                            "duration" : 30
                          },
                          {
                            "endTime" : 1240,
                            "time" : 1210,
                            "value" : 0.0,
                            "duration" : 30
                          },
                          {
                            "endTime" : 1493,
                            "time" : 1463,
                            "value" : 764.586721975313,
                            "duration" : 30
                          },
                          {
                            "endTime" : 2029,
                            "time" : 2003,
                            "value" : 955.733402469141,
                            "duration" : 26
                          },
                          {
                            "endTime" : 2478,
                            "time" : 2448,
                            "value" : -5.6843418860808e-14,
                            "duration" : 30
                          },
                          {
                            "endTime" : 3060,
                            "time" : 3030,
                            "value" : 51.6923109282546,
                            "duration" : 30
                          },
                          {
                            "endTime" : 3378,
                            "time" : 3348,
                            "value" : 793.192387394355,
                            "duration" : 30
                          },
                          {
                            "endTime" : 3752,
                            "time" : 3703,
                            "value" : 0.0,
                            "duration" : 49
                          },
                          {
                            "endTime" : 3826,
                            "time" : 3780,
                            "value" : 525.407539085336,
                            "duration" : 46
                          },
                          {
                            "endTime" : 3943,
                            "time" : 3913,
                            "value" : -8.5265128291212e-14,
                            "duration" : 30
                          },
                          {
                            "endTime" : 3982,
                            "time" : 3952,
                            "value" : 693.2,
                            "duration" : 30
                          },
                          {
                            "endTime" : 4297,
                            "time" : 4263,
                            "value" : 796.601448181272,
                            "duration" : 34
                          }
                        ]
                      },
                      "scale0" : {
                        "type" : "double",
                        "defaultValue" : 1.0,
                        "keyframes" : [
                          {
                            "endTime" : 242,
                            "time" : 212,
                            "value" : 4.90967434857952,
                            "duration" : 30
                          },
                          {
                            "endTime" : 332,
                            "time" : 302,
                            "value" : 0.99999957889657,
                            "duration" : 30
                          },
                          {
                            "endTime" : 1240,
                            "time" : 1210,
                            "value" : 2.93925764732581,
                            "duration" : 30
                          },
                          {
                            "endTime" : 1493,
                            "time" : 1463,
                            "value" : 2.93925755430459,
                            "duration" : 30
                          },
                          {
                            "endTime" : 2029,
                            "time" : 2003,
                            "value" : 2.93925746128338,
                            "duration" : 26
                          },
                          {
                            "endTime" : 2478,
                            "time" : 2448,
                            "value" : 0.999999315951539,
                            "duration" : 30
                          },
                          {
                            "endTime" : 3060,
                            "time" : 3030,
                            "value" : 2.54358807927679,
                            "duration" : 30
                          },
                          {
                            "endTime" : 3378,
                            "time" : 3348,
                            "value" : 2.5435882186022,
                            "duration" : 30
                          },
                          {
                            "endTime" : 3752,
                            "time" : 3703,
                            "value" : 0.999999337858405,
                            "duration" : 49
                          },
                          {
                            "endTime" : 3826,
                            "time" : 3780,
                            "value" : 3.2977262743969,
                            "duration" : 46
                          },
                          {
                            "endTime" : 3943,
                            "time" : 3913,
                            "value" : 0.999999616666313,
                            "duration" : 30
                          },
                          {
                            "endTime" : 3982,
                            "time" : 3952,
                            "value" : 2.5439982822715,
                            "duration" : 30
                          },
                          {
                            "endTime" : 4297,
                            "time" : 4263,
                            "value" : 2.54399842552367,
                            "duration" : 34
                          }
                        ]
                      },
                      "scale1" : {
                        "type" : "double",
                        "defaultValue" : 1.0,
                        "keyframes" : [
                          {
                            "endTime" : 242,
                            "time" : 212,
                            "value" : 4.90967641606111,
                            "duration" : 30
                          },
                          {
                            "endTime" : 332,
                            "time" : 302,
                            "value" : 1.0,
                            "duration" : 30
                          },
                          {
                            "endTime" : 1240,
                            "time" : 1210,
                            "value" : 2.9392594718793,
                            "duration" : 30
                          },
                          {
                            "endTime" : 2029,
                            "time" : 2003,
                            "value" : 2.9392594718793,
                            "duration" : 26
                          },
                          {
                            "endTime" : 2478,
                            "time" : 2448,
                            "value" : 1.0,
                            "duration" : 30
                          },
                          {
                            "endTime" : 3060,
                            "time" : 3030,
                            "value" : 2.54358990281888,
                            "duration" : 30
                          },
                          {
                            "endTime" : 3752,
                            "time" : 3703,
                            "value" : 1.0,
                            "duration" : 49
                          },
                          {
                            "endTime" : 3826,
                            "time" : 3780,
                            "value" : 3.29772753852696,
                            "duration" : 46
                          },
                          {
                            "endTime" : 3943,
                            "time" : 3913,
                            "value" : 1.0,
                            "duration" : 30
                          },
                          {
                            "endTime" : 3982,
                            "time" : 3952,
                            "value" : 2.544,
                            "duration" : 30
                          },
                          {
                            "endTime" : 4297,
                            "time" : 4263,
                            "value" : 2.54399958577061,
                            "duration" : 34
                          }
                        ]
                      },
                      "cursorOpacity" : 1.0,
                      "cursorScale" : 1.0
                    },
                    "medias" : [
                        {
                          "id" : 125,
                          "_type" : "ScreenVMFile",
                          "src" : 1,
                          "trackNumber" : 0,
                          "attributes" : {
                            "ident" : "handle_hijacking_attack_prevention"
                          },
                          "parameters" : {
                            "cursorScale" : {
                              "type" : "double",
                              "defaultValue" : 0.0,
                              "interp" : "linr"
                            },
                            "cursorOpacity" : {
                              "type" : "double",
                              "defaultValue" : 0.0,
                              "interp" : "linr"
                            }
                          },
                          "effects" : [

                          ],
                          "start" : 0,
                          "duration" : 2383,
                          "mediaStart" : 0,
                          "mediaDuration" : 2383,
                          "scalar" : 1,
                          "metadata" : {
                            "AutoAppliedSmartFocus" : "False",
                            "clipSpeedAttribute" : false,
                            "default-scale0" : 1.0,
                            "default-scale1" : 1.0,
                            "default-translation0" : 0.0,
                            "default-translation1" : 0.0
                          },
                          "animationTracks" : {

                          }
                        },
                        {
                          "id" : 126,
                          "_type" : "ScreenIMFile",
                          "src" : 1,
                          "trackNumber" : 0,
                          "trimStartSum" : 0,
                          "attributes" : {
                            "ident" : "handle_hijacking_attack_prevention"
                          },
                          "parameters" : {
                            "cursorOpacity" : 0.0,
                            "cursorScale" : 0.0
                          },
                          "effects" : [

                          ],
                          "start" : 2383,
                          "duration" : 60,
                          "mediaStart" : 2382,
                          "mediaDuration" : 1,
                          "scalar" : 1,
                          "metadata" : {
                            "AutoAppliedSmartFocus" : "False"
                          },
                          "animationTracks" : {

                          }
                        },
                        {
                          "id" : 127,
                          "_type" : "ScreenVMFile",
                          "src" : 1,
                          "trackNumber" : 0,
                          "attributes" : {
                            "ident" : "handle_hijacking_attack_prevention"
                          },
                          "parameters" : {
                            "cursorScale" : {
                              "type" : "double",
                              "defaultValue" : 0.0,
                              "interp" : "linr"
                            },
                            "cursorOpacity" : {
                              "type" : "double",
                              "defaultValue" : 0.0,
                              "interp" : "linr"
                            }
                          },
                          "effects" : [

                          ],
                          "start" : 2443,
                          "duration" : 4486,
                          "mediaStart" : 2383,
                          "mediaDuration" : 4486,
                          "scalar" : 1,
                          "metadata" : {
                            "AutoAppliedSmartFocus" : "False",
                            "clipSpeedAttribute" : false,
                            "default-scale0" : 1.0,
                            "default-scale1" : 1.0,
                            "default-translation0" : 0.0,
                            "default-translation1" : 0.0
                          },
                          "animationTracks" : {

                          }
                        }
                    ],
                    "effects" : [
                        {
                          "effectName" : "CursorHilight",
                          "category" : "categoryCursorEffects",
                          "parameters" : {
                            "blur" : 0.1,
                            "color-alpha" : 0.75,
                            "color-blue" : 0.0,
                            "color-green" : 1.0,
                            "color-red" : 1.0,
                            "radius" : 50.0
                          }
                        }
                    ],
                    "start" : 2709,
                    "duration" : 53,
                    "mediaStart" : 4356,
                    "mediaDuration" : 53,
                    "scalar" : 1,
                    "metadata" : {
                      "AutoAppliedSmartFocus" : "False",
                      "clipSpeedAttribute" : false,
                      "default-scale0" : 0.999999315951539,
                      "default-scale1" : 1.0,
                      "default-translation0" : -1.13686837721616e-13,
                      "default-translation1" : -5.6843418860808e-14
                    },
                    "animationTracks" : {
                      "visual" : [
                        {
                          "endTime" : 242,
                          "duration" : 30,
                          "range" : [ 212, 30]
                        },
                        {
                          "endTime" : 332,
                          "duration" : 30,
                          "range" : [ 302, 30]
                        },
                        {
                          "endTime" : 1240,
                          "duration" : 30,
                          "range" : [ 1210, 30]
                        },
                        {
                          "endTime" : 1493,
                          "duration" : 30,
                          "range" : [ 1463, 30]
                        },
                        {
                          "endTime" : 2029,
                          "duration" : 26,
                          "range" : [ 2003, 26]
                        },
                        {
                          "endTime" : 2478,
                          "duration" : 30,
                          "range" : [ 2448, 30]
                        },
                        {
                          "endTime" : 3060,
                          "duration" : 30,
                          "range" : [ 3030, 30]
                        },
                        {
                          "endTime" : 3378,
                          "duration" : 30,
                          "range" : [ 3348, 30]
                        },
                        {
                          "endTime" : 3752,
                          "duration" : 49,
                          "range" : [ 3703, 49]
                        },
                        {
                          "endTime" : 3826,
                          "duration" : 46,
                          "range" : [ 3780, 46]
                        },
                        {
                          "endTime" : 3943,
                          "duration" : 30,
                          "range" : [ 3913, 30]
                        },
                        {
                          "endTime" : 3982,
                          "duration" : 30,
                          "range" : [ 3952, 30]
                        },
                        {
                          "endTime" : 4297,
                          "duration" : 34,
                          "range" : [ 4263, 34]
                        }
                      ]
                    }
                  },
                  {
                    "id" : 128,
                    "_type" : "StitchedMedia",
                    "minMediaStart" : 0,
                    "attributes" : {
                      "ident" : "handle_hijacking_attack_prevention",
                      "gain" : 1.0,
                      "mixToMono" : false
                    },
                    "parameters" : {
                      "translation0" : {
                        "type" : "double",
                        "defaultValue" : 0.0,
                        "keyframes" : [
                          {
                            "endTime" : 242,
                            "time" : 212,
                            "value" : 4445.6304568441,
                            "duration" : 30
                          },
                          {
                            "endTime" : 332,
                            "time" : 302,
                            "value" : -7.95807864051312e-13,
                            "duration" : 30
                          },
                          {
                            "endTime" : 1240,
                            "time" : 1210,
                            "value" : 1813.23805555168,
                            "duration" : 30
                          },
                          {
                            "endTime" : 1493,
                            "time" : 1463,
                            "value" : 1769.1,
                            "duration" : 30
                          },
                          {
                            "endTime" : 2029,
                            "time" : 2003,
                            "value" : 1769.08221838715,
                            "duration" : 26
                          },
                          {
                            "endTime" : 2478,
                            "time" : 2448,
                            "value" : -1.13686837721616e-13,
                            "duration" : 30
                          },
                          {
                            "endTime" : 3060,
                            "time" : 3030,
                            "value" : -927.066246510699,
                            "duration" : 30
                          },
                          {
                            "endTime" : 3378,
                            "time" : 3348,
                            "value" : -927.1,
                            "duration" : 30
                          },
                          {
                            "endTime" : 3752,
                            "time" : 3703,
                            "value" : 1.13686837721616e-13,
                            "duration" : 49
                          },
                          {
                            "endTime" : 3826,
                            "time" : 3780,
                            "value" : 2190.48664188307,
                            "duration" : 46
                          },
                          {
                            "endTime" : 3943,
                            "time" : 3913,
                            "value" : 2.27373675443232e-13,
                            "duration" : 30
                          },
                          {
                            "endTime" : 3982,
                            "time" : 3952,
                            "value" : -927.1,
                            "duration" : 30
                          },
                          {
                            "endTime" : 4297,
                            "time" : 4263,
                            "value" : -927.1,
                            "duration" : 34
                          }
                        ]
                      },
                      "translation1" : {
                        "type" : "double",
                        "defaultValue" : 0.0,
                        "keyframes" : [
                          {
                            "endTime" : 242,
                            "time" : 212,
                            "value" : -2101.5592739797,
                            "duration" : 30
                          },
                          {
                            "endTime" : 332,
                            "time" : 302,
                            "value" : 4.54747350886464e-13,
                            "duration" : 30
                          },
                          {
                            "endTime" : 1240,
                            "time" : 1210,
                            "value" : 0.0,
                            "duration" : 30
                          },
                          {
                            "endTime" : 1493,
                            "time" : 1463,
                            "value" : 764.586721975313,
                            "duration" : 30
                          },
                          {
                            "endTime" : 2029,
                            "time" : 2003,
                            "value" : 955.733402469141,
                            "duration" : 26
                          },
                          {
                            "endTime" : 2478,
                            "time" : 2448,
                            "value" : -5.6843418860808e-14,
                            "duration" : 30
                          },
                          {
                            "endTime" : 3060,
                            "time" : 3030,
                            "value" : 51.6923109282546,
                            "duration" : 30
                          },
                          {
                            "endTime" : 3378,
                            "time" : 3348,
                            "value" : 793.192387394355,
                            "duration" : 30
                          },
                          {
                            "endTime" : 3752,
                            "time" : 3703,
                            "value" : 0.0,
                            "duration" : 49
                          },
                          {
                            "endTime" : 3826,
                            "time" : 3780,
                            "value" : 525.407539085336,
                            "duration" : 46
                          },
                          {
                            "endTime" : 3943,
                            "time" : 3913,
                            "value" : -8.5265128291212e-14,
                            "duration" : 30
                          },
                          {
                            "endTime" : 3982,
                            "time" : 3952,
                            "value" : 693.2,
                            "duration" : 30
                          },
                          {
                            "endTime" : 4297,
                            "time" : 4263,
                            "value" : 796.601448181272,
                            "duration" : 34
                          }
                        ]
                      },
                      "scale0" : {
                        "type" : "double",
                        "defaultValue" : 1.0,
                        "keyframes" : [
                          {
                            "endTime" : 242,
                            "time" : 212,
                            "value" : 4.90967434857952,
                            "duration" : 30
                          },
                          {
                            "endTime" : 332,
                            "time" : 302,
                            "value" : 0.99999957889657,
                            "duration" : 30
                          },
                          {
                            "endTime" : 1240,
                            "time" : 1210,
                            "value" : 2.93925764732581,
                            "duration" : 30
                          },
                          {
                            "endTime" : 1493,
                            "time" : 1463,
                            "value" : 2.93925755430459,
                            "duration" : 30
                          },
                          {
                            "endTime" : 2029,
                            "time" : 2003,
                            "value" : 2.93925746128338,
                            "duration" : 26
                          },
                          {
                            "endTime" : 2478,
                            "time" : 2448,
                            "value" : 0.999999315951539,
                            "duration" : 30
                          },
                          {
                            "endTime" : 3060,
                            "time" : 3030,
                            "value" : 2.54358807927679,
                            "duration" : 30
                          },
                          {
                            "endTime" : 3378,
                            "time" : 3348,
                            "value" : 2.5435882186022,
                            "duration" : 30
                          },
                          {
                            "endTime" : 3752,
                            "time" : 3703,
                            "value" : 0.999999337858405,
                            "duration" : 49
                          },
                          {
                            "endTime" : 3826,
                            "time" : 3780,
                            "value" : 3.2977262743969,
                            "duration" : 46
                          },
                          {
                            "endTime" : 3943,
                            "time" : 3913,
                            "value" : 0.999999616666313,
                            "duration" : 30
                          },
                          {
                            "endTime" : 3982,
                            "time" : 3952,
                            "value" : 2.5439982822715,
                            "duration" : 30
                          },
                          {
                            "endTime" : 4297,
                            "time" : 4263,
                            "value" : 2.54399842552367,
                            "duration" : 34
                          }
                        ]
                      },
                      "scale1" : {
                        "type" : "double",
                        "defaultValue" : 1.0,
                        "keyframes" : [
                          {
                            "endTime" : 242,
                            "time" : 212,
                            "value" : 4.90967641606111,
                            "duration" : 30
                          },
                          {
                            "endTime" : 332,
                            "time" : 302,
                            "value" : 1.0,
                            "duration" : 30
                          },
                          {
                            "endTime" : 1240,
                            "time" : 1210,
                            "value" : 2.9392594718793,
                            "duration" : 30
                          },
                          {
                            "endTime" : 2029,
                            "time" : 2003,
                            "value" : 2.9392594718793,
                            "duration" : 26
                          },
                          {
                            "endTime" : 2478,
                            "time" : 2448,
                            "value" : 1.0,
                            "duration" : 30
                          },
                          {
                            "endTime" : 3060,
                            "time" : 3030,
                            "value" : 2.54358990281888,
                            "duration" : 30
                          },
                          {
                            "endTime" : 3752,
                            "time" : 3703,
                            "value" : 1.0,
                            "duration" : 49
                          },
                          {
                            "endTime" : 3826,
                            "time" : 3780,
                            "value" : 3.29772753852696,
                            "duration" : 46
                          },
                          {
                            "endTime" : 3943,
                            "time" : 3913,
                            "value" : 1.0,
                            "duration" : 30
                          },
                          {
                            "endTime" : 3982,
                            "time" : 3952,
                            "value" : 2.544,
                            "duration" : 30
                          },
                          {
                            "endTime" : 4297,
                            "time" : 4263,
                            "value" : 2.54399958577061,
                            "duration" : 34
                          }
                        ]
                      },
                      "cursorOpacity" : 1.0,
                      "cursorScale" : 1.0
                    },
                    "medias" : [
                        {
                          "id" : 129,
                          "_type" : "ScreenVMFile",
                          "src" : 1,
                          "trackNumber" : 0,
                          "attributes" : {
                            "ident" : "handle_hijacking_attack_prevention"
                          },
                          "parameters" : {
                            "cursorScale" : {
                              "type" : "double",
                              "defaultValue" : 0.0,
                              "interp" : "linr"
                            },
                            "cursorOpacity" : {
                              "type" : "double",
                              "defaultValue" : 0.0,
                              "interp" : "linr"
                            }
                          },
                          "effects" : [

                          ],
                          "start" : 0,
                          "duration" : 2383,
                          "mediaStart" : 0,
                          "mediaDuration" : 2383,
                          "scalar" : 1,
                          "metadata" : {
                            "AutoAppliedSmartFocus" : "False",
                            "clipSpeedAttribute" : false,
                            "default-scale0" : 1.0,
                            "default-scale1" : 1.0,
                            "default-translation0" : 0.0,
                            "default-translation1" : 0.0
                          },
                          "animationTracks" : {

                          }
                        },
                        {
                          "id" : 130,
                          "_type" : "ScreenIMFile",
                          "src" : 1,
                          "trackNumber" : 0,
                          "trimStartSum" : 0,
                          "attributes" : {
                            "ident" : "handle_hijacking_attack_prevention"
                          },
                          "parameters" : {
                            "cursorOpacity" : 0.0,
                            "cursorScale" : 0.0
                          },
                          "effects" : [

                          ],
                          "start" : 2383,
                          "duration" : 60,
                          "mediaStart" : 2382,
                          "mediaDuration" : 1,
                          "scalar" : 1,
                          "metadata" : {
                            "AutoAppliedSmartFocus" : "False"
                          },
                          "animationTracks" : {

                          }
                        },
                        {
                          "id" : 131,
                          "_type" : "ScreenVMFile",
                          "src" : 1,
                          "trackNumber" : 0,
                          "attributes" : {
                            "ident" : "handle_hijacking_attack_prevention"
                          },
                          "parameters" : {
                            "cursorScale" : {
                              "type" : "double",
                              "defaultValue" : 0.0,
                              "interp" : "linr"
                            },
                            "cursorOpacity" : {
                              "type" : "double",
                              "defaultValue" : 0.0,
                              "interp" : "linr"
                            }
                          },
                          "effects" : [

                          ],
                          "start" : 2443,
                          "duration" : 4486,
                          "mediaStart" : 2383,
                          "mediaDuration" : 4486,
                          "scalar" : 1,
                          "metadata" : {
                            "AutoAppliedSmartFocus" : "False",
                            "clipSpeedAttribute" : false,
                            "default-scale0" : 1.0,
                            "default-scale1" : 1.0,
                            "default-translation0" : 0.0,
                            "default-translation1" : 0.0
                          },
                          "animationTracks" : {

                          }
                        }
                    ],
                    "effects" : [
                        {
                          "effectName" : "CursorHilight",
                          "category" : "categoryCursorEffects",
                          "parameters" : {
                            "blur" : 0.1,
                            "color-alpha" : 0.75,
                            "color-blue" : 0.0,
                            "color-green" : 1.0,
                            "color-red" : 1.0,
                            "radius" : 50.0
                          }
                        }
                    ],
                    "start" : 2762,
                    "duration" : 38,
                    "mediaStart" : 4409,
                    "mediaDuration" : 143,
                    "scalar" : "38/143",
                    "metadata" : {
                      "AutoAppliedSmartFocus" : "False",
                      "clipSpeedAttribute" : true,
                      "default-scale0" : 0.999999315951539,
                      "default-scale1" : 1.0,
                      "default-translation0" : -1.13686837721616e-13,
                      "default-translation1" : -5.6843418860808e-14
                    },
                    "animationTracks" : {
                      "visual" : [
                        {
                          "endTime" : 242,
                          "duration" : 30,
                          "range" : [ 212, 30]
                        },
                        {
                          "endTime" : 332,
                          "duration" : 30,
                          "range" : [ 302, 30]
                        },
                        {
                          "endTime" : 1240,
                          "duration" : 30,
                          "range" : [ 1210, 30]
                        },
                        {
                          "endTime" : 1493,
                          "duration" : 30,
                          "range" : [ 1463, 30]
                        },
                        {
                          "endTime" : 2029,
                          "duration" : 26,
                          "range" : [ 2003, 26]
                        },
                        {
                          "endTime" : 2478,
                          "duration" : 30,
                          "range" : [ 2448, 30]
                        },
                        {
                          "endTime" : 3060,
                          "duration" : 30,
                          "range" : [ 3030, 30]
                        },
                        {
                          "endTime" : 3378,
                          "duration" : 30,
                          "range" : [ 3348, 30]
                        },
                        {
                          "endTime" : 3752,
                          "duration" : 49,
                          "range" : [ 3703, 49]
                        },
                        {
                          "endTime" : 3826,
                          "duration" : 46,
                          "range" : [ 3780, 46]
                        },
                        {
                          "endTime" : 3943,
                          "duration" : 30,
                          "range" : [ 3913, 30]
                        },
                        {
                          "endTime" : 3982,
                          "duration" : 30,
                          "range" : [ 3952, 30]
                        },
                        {
                          "endTime" : 4297,
                          "duration" : 34,
                          "range" : [ 4263, 34]
                        }
                      ]
                    }
                  },
                  {
                    "id" : 132,
                    "_type" : "StitchedMedia",
                    "minMediaStart" : 0,
                    "attributes" : {
                      "ident" : "handle_hijacking_attack_prevention",
                      "gain" : 1.0,
                      "mixToMono" : false
                    },
                    "parameters" : {
                      "translation0" : {
                        "type" : "double",
                        "defaultValue" : 0.0,
                        "keyframes" : [
                          {
                            "endTime" : 242,
                            "time" : 212,
                            "value" : 4445.6304568441,
                            "duration" : 30
                          },
                          {
                            "endTime" : 332,
                            "time" : 302,
                            "value" : -7.95807864051312e-13,
                            "duration" : 30
                          },
                          {
                            "endTime" : 1240,
                            "time" : 1210,
                            "value" : 1813.23805555168,
                            "duration" : 30
                          },
                          {
                            "endTime" : 1493,
                            "time" : 1463,
                            "value" : 1769.1,
                            "duration" : 30
                          },
                          {
                            "endTime" : 2029,
                            "time" : 2003,
                            "value" : 1769.08221838715,
                            "duration" : 26
                          },
                          {
                            "endTime" : 2478,
                            "time" : 2448,
                            "value" : -1.13686837721616e-13,
                            "duration" : 30
                          },
                          {
                            "endTime" : 3060,
                            "time" : 3030,
                            "value" : -927.066246510699,
                            "duration" : 30
                          },
                          {
                            "endTime" : 3378,
                            "time" : 3348,
                            "value" : -927.1,
                            "duration" : 30
                          },
                          {
                            "endTime" : 3752,
                            "time" : 3703,
                            "value" : 1.13686837721616e-13,
                            "duration" : 49
                          },
                          {
                            "endTime" : 3826,
                            "time" : 3780,
                            "value" : 2190.48664188307,
                            "duration" : 46
                          },
                          {
                            "endTime" : 3943,
                            "time" : 3913,
                            "value" : 2.27373675443232e-13,
                            "duration" : 30
                          },
                          {
                            "endTime" : 3982,
                            "time" : 3952,
                            "value" : -927.1,
                            "duration" : 30
                          },
                          {
                            "endTime" : 4297,
                            "time" : 4263,
                            "value" : -927.1,
                            "duration" : 34
                          }
                        ]
                      },
                      "translation1" : {
                        "type" : "double",
                        "defaultValue" : 0.0,
                        "keyframes" : [
                          {
                            "endTime" : 242,
                            "time" : 212,
                            "value" : -2101.5592739797,
                            "duration" : 30
                          },
                          {
                            "endTime" : 332,
                            "time" : 302,
                            "value" : 4.54747350886464e-13,
                            "duration" : 30
                          },
                          {
                            "endTime" : 1240,
                            "time" : 1210,
                            "value" : 0.0,
                            "duration" : 30
                          },
                          {
                            "endTime" : 1493,
                            "time" : 1463,
                            "value" : 764.586721975313,
                            "duration" : 30
                          },
                          {
                            "endTime" : 2029,
                            "time" : 2003,
                            "value" : 955.733402469141,
                            "duration" : 26
                          },
                          {
                            "endTime" : 2478,
                            "time" : 2448,
                            "value" : -5.6843418860808e-14,
                            "duration" : 30
                          },
                          {
                            "endTime" : 3060,
                            "time" : 3030,
                            "value" : 51.6923109282546,
                            "duration" : 30
                          },
                          {
                            "endTime" : 3378,
                            "time" : 3348,
                            "value" : 793.192387394355,
                            "duration" : 30
                          },
                          {
                            "endTime" : 3752,
                            "time" : 3703,
                            "value" : 0.0,
                            "duration" : 49
                          },
                          {
                            "endTime" : 3826,
                            "time" : 3780,
                            "value" : 525.407539085336,
                            "duration" : 46
                          },
                          {
                            "endTime" : 3943,
                            "time" : 3913,
                            "value" : -8.5265128291212e-14,
                            "duration" : 30
                          },
                          {
                            "endTime" : 3982,
                            "time" : 3952,
                            "value" : 693.2,
                            "duration" : 30
                          },
                          {
                            "endTime" : 4297,
                            "time" : 4263,
                            "value" : 796.601448181272,
                            "duration" : 34
                          }
                        ]
                      },
                      "scale0" : {
                        "type" : "double",
                        "defaultValue" : 1.0,
                        "keyframes" : [
                          {
                            "endTime" : 242,
                            "time" : 212,
                            "value" : 4.90967434857952,
                            "duration" : 30
                          },
                          {
                            "endTime" : 332,
                            "time" : 302,
                            "value" : 0.99999957889657,
                            "duration" : 30
                          },
                          {
                            "endTime" : 1240,
                            "time" : 1210,
                            "value" : 2.93925764732581,
                            "duration" : 30
                          },
                          {
                            "endTime" : 1493,
                            "time" : 1463,
                            "value" : 2.93925755430459,
                            "duration" : 30
                          },
                          {
                            "endTime" : 2029,
                            "time" : 2003,
                            "value" : 2.93925746128338,
                            "duration" : 26
                          },
                          {
                            "endTime" : 2478,
                            "time" : 2448,
                            "value" : 0.999999315951539,
                            "duration" : 30
                          },
                          {
                            "endTime" : 3060,
                            "time" : 3030,
                            "value" : 2.54358807927679,
                            "duration" : 30
                          },
                          {
                            "endTime" : 3378,
                            "time" : 3348,
                            "value" : 2.5435882186022,
                            "duration" : 30
                          },
                          {
                            "endTime" : 3752,
                            "time" : 3703,
                            "value" : 0.999999337858405,
                            "duration" : 49
                          },
                          {
                            "endTime" : 3826,
                            "time" : 3780,
                            "value" : 3.2977262743969,
                            "duration" : 46
                          },
                          {
                            "endTime" : 3943,
                            "time" : 3913,
                            "value" : 0.999999616666313,
                            "duration" : 30
                          },
                          {
                            "endTime" : 3982,
                            "time" : 3952,
                            "value" : 2.5439982822715,
                            "duration" : 30
                          },
                          {
                            "endTime" : 4297,
                            "time" : 4263,
                            "value" : 2.54399842552367,
                            "duration" : 34
                          }
                        ]
                      },
                      "scale1" : {
                        "type" : "double",
                        "defaultValue" : 1.0,
                        "keyframes" : [
                          {
                            "endTime" : 242,
                            "time" : 212,
                            "value" : 4.90967641606111,
                            "duration" : 30
                          },
                          {
                            "endTime" : 332,
                            "time" : 302,
                            "value" : 1.0,
                            "duration" : 30
                          },
                          {
                            "endTime" : 1240,
                            "time" : 1210,
                            "value" : 2.9392594718793,
                            "duration" : 30
                          },
                          {
                            "endTime" : 2029,
                            "time" : 2003,
                            "value" : 2.9392594718793,
                            "duration" : 26
                          },
                          {
                            "endTime" : 2478,
                            "time" : 2448,
                            "value" : 1.0,
                            "duration" : 30
                          },
                          {
                            "endTime" : 3060,
                            "time" : 3030,
                            "value" : 2.54358990281888,
                            "duration" : 30
                          },
                          {
                            "endTime" : 3752,
                            "time" : 3703,
                            "value" : 1.0,
                            "duration" : 49
                          },
                          {
                            "endTime" : 3826,
                            "time" : 3780,
                            "value" : 3.29772753852696,
                            "duration" : 46
                          },
                          {
                            "endTime" : 3943,
                            "time" : 3913,
                            "value" : 1.0,
                            "duration" : 30
                          },
                          {
                            "endTime" : 3982,
                            "time" : 3952,
                            "value" : 2.544,
                            "duration" : 30
                          },
                          {
                            "endTime" : 4297,
                            "time" : 4263,
                            "value" : 2.54399958577061,
                            "duration" : 34
                          }
                        ]
                      },
                      "cursorOpacity" : 1.0,
                      "cursorScale" : 1.0
                    },
                    "medias" : [
                        {
                          "id" : 133,
                          "_type" : "ScreenVMFile",
                          "src" : 1,
                          "trackNumber" : 0,
                          "attributes" : {
                            "ident" : "handle_hijacking_attack_prevention"
                          },
                          "parameters" : {
                            "cursorScale" : {
                              "type" : "double",
                              "defaultValue" : 0.0,
                              "interp" : "linr"
                            },
                            "cursorOpacity" : {
                              "type" : "double",
                              "defaultValue" : 0.0,
                              "interp" : "linr"
                            }
                          },
                          "effects" : [

                          ],
                          "start" : 0,
                          "duration" : 2383,
                          "mediaStart" : 0,
                          "mediaDuration" : 2383,
                          "scalar" : 1,
                          "metadata" : {
                            "AutoAppliedSmartFocus" : "False",
                            "clipSpeedAttribute" : false,
                            "default-scale0" : 1.0,
                            "default-scale1" : 1.0,
                            "default-translation0" : 0.0,
                            "default-translation1" : 0.0
                          },
                          "animationTracks" : {

                          }
                        },
                        {
                          "id" : 134,
                          "_type" : "ScreenIMFile",
                          "src" : 1,
                          "trackNumber" : 0,
                          "trimStartSum" : 0,
                          "attributes" : {
                            "ident" : "handle_hijacking_attack_prevention"
                          },
                          "parameters" : {
                            "cursorOpacity" : 0.0,
                            "cursorScale" : 0.0
                          },
                          "effects" : [

                          ],
                          "start" : 2383,
                          "duration" : 60,
                          "mediaStart" : 2382,
                          "mediaDuration" : 1,
                          "scalar" : 1,
                          "metadata" : {
                            "AutoAppliedSmartFocus" : "False"
                          },
                          "animationTracks" : {

                          }
                        },
                        {
                          "id" : 135,
                          "_type" : "ScreenVMFile",
                          "src" : 1,
                          "trackNumber" : 0,
                          "attributes" : {
                            "ident" : "handle_hijacking_attack_prevention"
                          },
                          "parameters" : {
                            "cursorScale" : {
                              "type" : "double",
                              "defaultValue" : 0.0,
                              "interp" : "linr"
                            },
                            "cursorOpacity" : {
                              "type" : "double",
                              "defaultValue" : 0.0,
                              "interp" : "linr"
                            }
                          },
                          "effects" : [

                          ],
                          "start" : 2443,
                          "duration" : 2141,
                          "mediaStart" : 2383,
                          "mediaDuration" : 2141,
                          "scalar" : 1,
                          "metadata" : {
                            "AutoAppliedSmartFocus" : "False",
                            "clipSpeedAttribute" : false,
                            "default-scale0" : 1.0,
                            "default-scale1" : 1.0,
                            "default-translation0" : 0.0,
                            "default-translation1" : 0.0
                          },
                          "animationTracks" : {

                          }
                        },
                        {
                          "id" : 136,
                          "_type" : "ScreenIMFile",
                          "src" : 1,
                          "trackNumber" : 0,
                          "trimStartSum" : 0,
                          "attributes" : {
                            "ident" : "handle_hijacking_attack_prevention"
                          },
                          "parameters" : {
                            "cursorOpacity" : 0.0,
                            "cursorScale" : 0.0
                          },
                          "effects" : [

                          ],
                          "start" : 4584,
                          "duration" : 60,
                          "mediaStart" : 4524,
                          "mediaDuration" : 1,
                          "scalar" : 1,
                          "metadata" : {
                            "AutoAppliedSmartFocus" : "False"
                          },
                          "animationTracks" : {

                          }
                        },
                        {
                          "id" : 137,
                          "_type" : "ScreenVMFile",
                          "src" : 1,
                          "trackNumber" : 0,
                          "attributes" : {
                            "ident" : "handle_hijacking_attack_prevention"
                          },
                          "parameters" : {
                            "cursorScale" : {
                              "type" : "double",
                              "defaultValue" : 0.0,
                              "interp" : "linr"
                            },
                            "cursorOpacity" : {
                              "type" : "double",
                              "defaultValue" : 0.0,
                              "interp" : "linr"
                            }
                          },
                          "effects" : [

                          ],
                          "start" : 4644,
                          "duration" : 233,
                          "mediaStart" : 4524,
                          "mediaDuration" : 233,
                          "scalar" : 1,
                          "metadata" : {
                            "AutoAppliedSmartFocus" : "False",
                            "clipSpeedAttribute" : false,
                            "default-scale0" : 1.0,
                            "default-scale1" : 1.0,
                            "default-translation0" : 0.0,
                            "default-translation1" : 0.0
                          },
                          "animationTracks" : {

                          }
                        },
                        {
                          "id" : 138,
                          "_type" : "ScreenVMFile",
                          "src" : 1,
                          "trackNumber" : 0,
                          "attributes" : {
                            "ident" : "handle_hijacking_attack_prevention"
                          },
                          "parameters" : {
                            "cursorScale" : {
                              "type" : "double",
                              "defaultValue" : 0.0,
                              "interp" : "linr"
                            },
                            "cursorOpacity" : {
                              "type" : "double",
                              "defaultValue" : 0.0,
                              "interp" : "linr"
                            }
                          },
                          "effects" : [

                          ],
                          "start" : 4877,
                          "duration" : 2062,
                          "mediaStart" : 4807,
                          "mediaDuration" : 2062,
                          "scalar" : 1,
                          "metadata" : {
                            "AutoAppliedSmartFocus" : "False",
                            "clipSpeedAttribute" : false,
                            "default-scale0" : 1.0,
                            "default-scale1" : 1.0,
                            "default-translation0" : 0.0,
                            "default-translation1" : 0.0
                          },
                          "animationTracks" : {

                          }
                        }
                    ],
                    "effects" : [
                        {
                          "effectName" : "CursorHilight",
                          "category" : "categoryCursorEffects",
                          "parameters" : {
                            "blur" : 0.1,
                            "color-alpha" : 0.75,
                            "color-blue" : 0.0,
                            "color-green" : 1.0,
                            "color-red" : 1.0,
                            "radius" : 50.0
                          }
                        }
                    ],
                    "start" : 2800,
                    "duration" : 115,
                    "mediaStart" : 4552,
                    "mediaDuration" : 115,
                    "scalar" : 1,
                    "metadata" : {
                      "AutoAppliedSmartFocus" : "False",
                      "clipSpeedAttribute" : false
                    },
                    "animationTracks" : {
                      "visual" : [
                        {
                          "endTime" : 242,
                          "duration" : 30,
                          "range" : [ 212, 30]
                        },
                        {
                          "endTime" : 332,
                          "duration" : 30,
                          "range" : [ 302, 30]
                        },
                        {
                          "endTime" : 1240,
                          "duration" : 30,
                          "range" : [ 1210, 30]
                        },
                        {
                          "endTime" : 1493,
                          "duration" : 30,
                          "range" : [ 1463, 30]
                        },
                        {
                          "endTime" : 2029,
                          "duration" : 26,
                          "range" : [ 2003, 26]
                        },
                        {
                          "endTime" : 2478,
                          "duration" : 30,
                          "range" : [ 2448, 30]
                        },
                        {
                          "endTime" : 3060,
                          "duration" : 30,
                          "range" : [ 3030, 30]
                        },
                        {
                          "endTime" : 3378,
                          "duration" : 30,
                          "range" : [ 3348, 30]
                        },
                        {
                          "endTime" : 3752,
                          "duration" : 49,
                          "range" : [ 3703, 49]
                        },
                        {
                          "endTime" : 3826,
                          "duration" : 46,
                          "range" : [ 3780, 46]
                        },
                        {
                          "endTime" : 3943,
                          "duration" : 30,
                          "range" : [ 3913, 30]
                        },
                        {
                          "endTime" : 3982,
                          "duration" : 30,
                          "range" : [ 3952, 30]
                        },
                        {
                          "endTime" : 4297,
                          "duration" : 34,
                          "range" : [ 4263, 34]
                        }
                      ]
                    }
                  },
                  {
                    "id" : 139,
                    "_type" : "StitchedMedia",
                    "minMediaStart" : 0,
                    "attributes" : {
                      "ident" : "handle_hijacking_attack_prevention",
                      "gain" : 1.0,
                      "mixToMono" : false
                    },
                    "parameters" : {
                      "translation0" : {
                        "type" : "double",
                        "defaultValue" : 0.0,
                        "keyframes" : [
                          {
                            "endTime" : 242,
                            "time" : 212,
                            "value" : 4445.6304568441,
                            "duration" : 30
                          },
                          {
                            "endTime" : 332,
                            "time" : 302,
                            "value" : -7.95807864051312e-13,
                            "duration" : 30
                          },
                          {
                            "endTime" : 1240,
                            "time" : 1210,
                            "value" : 1813.23805555168,
                            "duration" : 30
                          },
                          {
                            "endTime" : 1493,
                            "time" : 1463,
                            "value" : 1769.1,
                            "duration" : 30
                          },
                          {
                            "endTime" : 2029,
                            "time" : 2003,
                            "value" : 1769.08221838715,
                            "duration" : 26
                          },
                          {
                            "endTime" : 2478,
                            "time" : 2448,
                            "value" : -1.13686837721616e-13,
                            "duration" : 30
                          },
                          {
                            "endTime" : 3060,
                            "time" : 3030,
                            "value" : -927.066246510699,
                            "duration" : 30
                          },
                          {
                            "endTime" : 3378,
                            "time" : 3348,
                            "value" : -927.1,
                            "duration" : 30
                          },
                          {
                            "endTime" : 3752,
                            "time" : 3703,
                            "value" : 1.13686837721616e-13,
                            "duration" : 49
                          },
                          {
                            "endTime" : 3826,
                            "time" : 3780,
                            "value" : 2190.48664188307,
                            "duration" : 46
                          },
                          {
                            "endTime" : 3943,
                            "time" : 3913,
                            "value" : 2.27373675443232e-13,
                            "duration" : 30
                          },
                          {
                            "endTime" : 3982,
                            "time" : 3952,
                            "value" : -927.1,
                            "duration" : 30
                          },
                          {
                            "endTime" : 4297,
                            "time" : 4263,
                            "value" : -927.1,
                            "duration" : 34
                          }
                        ]
                      },
                      "translation1" : {
                        "type" : "double",
                        "defaultValue" : 0.0,
                        "keyframes" : [
                          {
                            "endTime" : 242,
                            "time" : 212,
                            "value" : -2101.5592739797,
                            "duration" : 30
                          },
                          {
                            "endTime" : 332,
                            "time" : 302,
                            "value" : 4.54747350886464e-13,
                            "duration" : 30
                          },
                          {
                            "endTime" : 1240,
                            "time" : 1210,
                            "value" : 0.0,
                            "duration" : 30
                          },
                          {
                            "endTime" : 1493,
                            "time" : 1463,
                            "value" : 764.586721975313,
                            "duration" : 30
                          },
                          {
                            "endTime" : 2029,
                            "time" : 2003,
                            "value" : 955.733402469141,
                            "duration" : 26
                          },
                          {
                            "endTime" : 2478,
                            "time" : 2448,
                            "value" : -5.6843418860808e-14,
                            "duration" : 30
                          },
                          {
                            "endTime" : 3060,
                            "time" : 3030,
                            "value" : 51.6923109282546,
                            "duration" : 30
                          },
                          {
                            "endTime" : 3378,
                            "time" : 3348,
                            "value" : 793.192387394355,
                            "duration" : 30
                          },
                          {
                            "endTime" : 3752,
                            "time" : 3703,
                            "value" : 0.0,
                            "duration" : 49
                          },
                          {
                            "endTime" : 3826,
                            "time" : 3780,
                            "value" : 525.407539085336,
                            "duration" : 46
                          },
                          {
                            "endTime" : 3943,
                            "time" : 3913,
                            "value" : -8.5265128291212e-14,
                            "duration" : 30
                          },
                          {
                            "endTime" : 3982,
                            "time" : 3952,
                            "value" : 693.2,
                            "duration" : 30
                          },
                          {
                            "endTime" : 4297,
                            "time" : 4263,
                            "value" : 796.601448181272,
                            "duration" : 34
                          }
                        ]
                      },
                      "scale0" : {
                        "type" : "double",
                        "defaultValue" : 1.0,
                        "keyframes" : [
                          {
                            "endTime" : 242,
                            "time" : 212,
                            "value" : 4.90967434857952,
                            "duration" : 30
                          },
                          {
                            "endTime" : 332,
                            "time" : 302,
                            "value" : 0.99999957889657,
                            "duration" : 30
                          },
                          {
                            "endTime" : 1240,
                            "time" : 1210,
                            "value" : 2.93925764732581,
                            "duration" : 30
                          },
                          {
                            "endTime" : 1493,
                            "time" : 1463,
                            "value" : 2.93925755430459,
                            "duration" : 30
                          },
                          {
                            "endTime" : 2029,
                            "time" : 2003,
                            "value" : 2.93925746128338,
                            "duration" : 26
                          },
                          {
                            "endTime" : 2478,
                            "time" : 2448,
                            "value" : 0.999999315951539,
                            "duration" : 30
                          },
                          {
                            "endTime" : 3060,
                            "time" : 3030,
                            "value" : 2.54358807927679,
                            "duration" : 30
                          },
                          {
                            "endTime" : 3378,
                            "time" : 3348,
                            "value" : 2.5435882186022,
                            "duration" : 30
                          },
                          {
                            "endTime" : 3752,
                            "time" : 3703,
                            "value" : 0.999999337858405,
                            "duration" : 49
                          },
                          {
                            "endTime" : 3826,
                            "time" : 3780,
                            "value" : 3.2977262743969,
                            "duration" : 46
                          },
                          {
                            "endTime" : 3943,
                            "time" : 3913,
                            "value" : 0.999999616666313,
                            "duration" : 30
                          },
                          {
                            "endTime" : 3982,
                            "time" : 3952,
                            "value" : 2.5439982822715,
                            "duration" : 30
                          },
                          {
                            "endTime" : 4297,
                            "time" : 4263,
                            "value" : 2.54399842552367,
                            "duration" : 34
                          }
                        ]
                      },
                      "scale1" : {
                        "type" : "double",
                        "defaultValue" : 1.0,
                        "keyframes" : [
                          {
                            "endTime" : 242,
                            "time" : 212,
                            "value" : 4.90967641606111,
                            "duration" : 30
                          },
                          {
                            "endTime" : 332,
                            "time" : 302,
                            "value" : 1.0,
                            "duration" : 30
                          },
                          {
                            "endTime" : 1240,
                            "time" : 1210,
                            "value" : 2.9392594718793,
                            "duration" : 30
                          },
                          {
                            "endTime" : 2029,
                            "time" : 2003,
                            "value" : 2.9392594718793,
                            "duration" : 26
                          },
                          {
                            "endTime" : 2478,
                            "time" : 2448,
                            "value" : 1.0,
                            "duration" : 30
                          },
                          {
                            "endTime" : 3060,
                            "time" : 3030,
                            "value" : 2.54358990281888,
                            "duration" : 30
                          },
                          {
                            "endTime" : 3752,
                            "time" : 3703,
                            "value" : 1.0,
                            "duration" : 49
                          },
                          {
                            "endTime" : 3826,
                            "time" : 3780,
                            "value" : 3.29772753852696,
                            "duration" : 46
                          },
                          {
                            "endTime" : 3943,
                            "time" : 3913,
                            "value" : 1.0,
                            "duration" : 30
                          },
                          {
                            "endTime" : 3982,
                            "time" : 3952,
                            "value" : 2.544,
                            "duration" : 30
                          },
                          {
                            "endTime" : 4297,
                            "time" : 4263,
                            "value" : 2.54399958577061,
                            "duration" : 34
                          }
                        ]
                      },
                      "cursorOpacity" : 1.0,
                      "cursorScale" : 1.0
                    },
                    "medias" : [
                        {
                          "id" : 140,
                          "_type" : "ScreenVMFile",
                          "src" : 1,
                          "trackNumber" : 0,
                          "attributes" : {
                            "ident" : "handle_hijacking_attack_prevention"
                          },
                          "parameters" : {
                            "cursorScale" : {
                              "type" : "double",
                              "defaultValue" : 0.0,
                              "interp" : "linr"
                            },
                            "cursorOpacity" : {
                              "type" : "double",
                              "defaultValue" : 0.0,
                              "interp" : "linr"
                            }
                          },
                          "effects" : [

                          ],
                          "start" : 0,
                          "duration" : 2383,
                          "mediaStart" : 0,
                          "mediaDuration" : 2383,
                          "scalar" : 1,
                          "metadata" : {
                            "AutoAppliedSmartFocus" : "False",
                            "clipSpeedAttribute" : false,
                            "default-scale0" : 1.0,
                            "default-scale1" : 1.0,
                            "default-translation0" : 0.0,
                            "default-translation1" : 0.0
                          },
                          "animationTracks" : {

                          }
                        },
                        {
                          "id" : 141,
                          "_type" : "ScreenIMFile",
                          "src" : 1,
                          "trackNumber" : 0,
                          "trimStartSum" : 0,
                          "attributes" : {
                            "ident" : "handle_hijacking_attack_prevention"
                          },
                          "parameters" : {
                            "cursorOpacity" : 0.0,
                            "cursorScale" : 0.0
                          },
                          "effects" : [

                          ],
                          "start" : 2383,
                          "duration" : 60,
                          "mediaStart" : 2382,
                          "mediaDuration" : 1,
                          "scalar" : 1,
                          "metadata" : {
                            "AutoAppliedSmartFocus" : "False"
                          },
                          "animationTracks" : {

                          }
                        },
                        {
                          "id" : 142,
                          "_type" : "ScreenVMFile",
                          "src" : 1,
                          "trackNumber" : 0,
                          "attributes" : {
                            "ident" : "handle_hijacking_attack_prevention"
                          },
                          "parameters" : {
                            "cursorScale" : {
                              "type" : "double",
                              "defaultValue" : 0.0,
                              "interp" : "linr"
                            },
                            "cursorOpacity" : {
                              "type" : "double",
                              "defaultValue" : 0.0,
                              "interp" : "linr"
                            }
                          },
                          "effects" : [

                          ],
                          "start" : 2443,
                          "duration" : 2141,
                          "mediaStart" : 2383,
                          "mediaDuration" : 2141,
                          "scalar" : 1,
                          "metadata" : {
                            "AutoAppliedSmartFocus" : "False",
                            "clipSpeedAttribute" : false,
                            "default-scale0" : 1.0,
                            "default-scale1" : 1.0,
                            "default-translation0" : 0.0,
                            "default-translation1" : 0.0
                          },
                          "animationTracks" : {

                          }
                        },
                        {
                          "id" : 143,
                          "_type" : "ScreenIMFile",
                          "src" : 1,
                          "trackNumber" : 0,
                          "trimStartSum" : 0,
                          "attributes" : {
                            "ident" : "handle_hijacking_attack_prevention"
                          },
                          "parameters" : {
                            "cursorOpacity" : 0.0,
                            "cursorScale" : 0.0
                          },
                          "effects" : [

                          ],
                          "start" : 4584,
                          "duration" : 60,
                          "mediaStart" : 4524,
                          "mediaDuration" : 1,
                          "scalar" : 1,
                          "metadata" : {
                            "AutoAppliedSmartFocus" : "False"
                          },
                          "animationTracks" : {

                          }
                        },
                        {
                          "id" : 144,
                          "_type" : "ScreenVMFile",
                          "src" : 1,
                          "trackNumber" : 0,
                          "attributes" : {
                            "ident" : "handle_hijacking_attack_prevention"
                          },
                          "parameters" : {
                            "cursorScale" : {
                              "type" : "double",
                              "defaultValue" : 0.0,
                              "interp" : "linr"
                            },
                            "cursorOpacity" : {
                              "type" : "double",
                              "defaultValue" : 0.0,
                              "interp" : "linr"
                            }
                          },
                          "effects" : [

                          ],
                          "start" : 4644,
                          "duration" : 233,
                          "mediaStart" : 4524,
                          "mediaDuration" : 233,
                          "scalar" : 1,
                          "metadata" : {
                            "AutoAppliedSmartFocus" : "False",
                            "clipSpeedAttribute" : false,
                            "default-scale0" : 1.0,
                            "default-scale1" : 1.0,
                            "default-translation0" : 0.0,
                            "default-translation1" : 0.0
                          },
                          "animationTracks" : {

                          }
                        },
                        {
                          "id" : 145,
                          "_type" : "ScreenVMFile",
                          "src" : 1,
                          "trackNumber" : 0,
                          "attributes" : {
                            "ident" : "handle_hijacking_attack_prevention"
                          },
                          "parameters" : {
                            "cursorScale" : {
                              "type" : "double",
                              "defaultValue" : 0.0,
                              "interp" : "linr"
                            },
                            "cursorOpacity" : {
                              "type" : "double",
                              "defaultValue" : 0.0,
                              "interp" : "linr"
                            }
                          },
                          "effects" : [

                          ],
                          "start" : 4877,
                          "duration" : 2062,
                          "mediaStart" : 4807,
                          "mediaDuration" : 2062,
                          "scalar" : 1,
                          "metadata" : {
                            "AutoAppliedSmartFocus" : "False",
                            "clipSpeedAttribute" : false,
                            "default-scale0" : 1.0,
                            "default-scale1" : 1.0,
                            "default-translation0" : 0.0,
                            "default-translation1" : 0.0
                          },
                          "animationTracks" : {

                          }
                        }
                    ],
                    "effects" : [
                        {
                          "effectName" : "CursorHilight",
                          "category" : "categoryCursorEffects",
                          "parameters" : {
                            "blur" : 0.1,
                            "color-alpha" : 0.75,
                            "color-blue" : 0.0,
                            "color-green" : 1.0,
                            "color-red" : 1.0,
                            "radius" : 50.0
                          }
                        }
                    ],
                    "start" : 2915,
                    "duration" : 100,
                    "mediaStart" : 4667,
                    "mediaDuration" : 373,
                    "scalar" : "100/373",
                    "metadata" : {
                      "AutoAppliedSmartFocus" : "False",
                      "clipSpeedAttribute" : true
                    },
                    "animationTracks" : {
                      "visual" : [
                        {
                          "endTime" : 242,
                          "duration" : 30,
                          "range" : [ 212, 30]
                        },
                        {
                          "endTime" : 332,
                          "duration" : 30,
                          "range" : [ 302, 30]
                        },
                        {
                          "endTime" : 1240,
                          "duration" : 30,
                          "range" : [ 1210, 30]
                        },
                        {
                          "endTime" : 1493,
                          "duration" : 30,
                          "range" : [ 1463, 30]
                        },
                        {
                          "endTime" : 2029,
                          "duration" : 26,
                          "range" : [ 2003, 26]
                        },
                        {
                          "endTime" : 2478,
                          "duration" : 30,
                          "range" : [ 2448, 30]
                        },
                        {
                          "endTime" : 3060,
                          "duration" : 30,
                          "range" : [ 3030, 30]
                        },
                        {
                          "endTime" : 3378,
                          "duration" : 30,
                          "range" : [ 3348, 30]
                        },
                        {
                          "endTime" : 3752,
                          "duration" : 49,
                          "range" : [ 3703, 49]
                        },
                        {
                          "endTime" : 3826,
                          "duration" : 46,
                          "range" : [ 3780, 46]
                        },
                        {
                          "endTime" : 3943,
                          "duration" : 30,
                          "range" : [ 3913, 30]
                        },
                        {
                          "endTime" : 3982,
                          "duration" : 30,
                          "range" : [ 3952, 30]
                        },
                        {
                          "endTime" : 4297,
                          "duration" : 34,
                          "range" : [ 4263, 34]
                        }
                      ]
                    }
                  },
                  {
                    "id" : 146,
                    "_type" : "StitchedMedia",
                    "minMediaStart" : 0,
                    "attributes" : {
                      "ident" : "handle_hijacking_attack_prevention",
                      "gain" : 1.0,
                      "mixToMono" : false
                    },
                    "parameters" : {
                      "translation0" : {
                        "type" : "double",
                        "defaultValue" : 0.0,
                        "keyframes" : [
                          {
                            "endTime" : 242,
                            "time" : 212,
                            "value" : 4445.6304568441,
                            "duration" : 30
                          },
                          {
                            "endTime" : 332,
                            "time" : 302,
                            "value" : -7.95807864051312e-13,
                            "duration" : 30
                          },
                          {
                            "endTime" : 1240,
                            "time" : 1210,
                            "value" : 1813.23805555168,
                            "duration" : 30
                          },
                          {
                            "endTime" : 1493,
                            "time" : 1463,
                            "value" : 1769.1,
                            "duration" : 30
                          },
                          {
                            "endTime" : 2029,
                            "time" : 2003,
                            "value" : 1769.08221838715,
                            "duration" : 26
                          },
                          {
                            "endTime" : 2478,
                            "time" : 2448,
                            "value" : -1.13686837721616e-13,
                            "duration" : 30
                          },
                          {
                            "endTime" : 3060,
                            "time" : 3030,
                            "value" : -927.066246510699,
                            "duration" : 30
                          },
                          {
                            "endTime" : 3378,
                            "time" : 3348,
                            "value" : -927.1,
                            "duration" : 30
                          },
                          {
                            "endTime" : 3752,
                            "time" : 3703,
                            "value" : 1.13686837721616e-13,
                            "duration" : 49
                          },
                          {
                            "endTime" : 3826,
                            "time" : 3780,
                            "value" : 2190.48664188307,
                            "duration" : 46
                          },
                          {
                            "endTime" : 3943,
                            "time" : 3913,
                            "value" : 2.27373675443232e-13,
                            "duration" : 30
                          },
                          {
                            "endTime" : 3982,
                            "time" : 3952,
                            "value" : -927.1,
                            "duration" : 30
                          },
                          {
                            "endTime" : 4297,
                            "time" : 4263,
                            "value" : -927.1,
                            "duration" : 34
                          }
                        ]
                      },
                      "translation1" : {
                        "type" : "double",
                        "defaultValue" : 0.0,
                        "keyframes" : [
                          {
                            "endTime" : 242,
                            "time" : 212,
                            "value" : -2101.5592739797,
                            "duration" : 30
                          },
                          {
                            "endTime" : 332,
                            "time" : 302,
                            "value" : 4.54747350886464e-13,
                            "duration" : 30
                          },
                          {
                            "endTime" : 1240,
                            "time" : 1210,
                            "value" : 0.0,
                            "duration" : 30
                          },
                          {
                            "endTime" : 1493,
                            "time" : 1463,
                            "value" : 764.586721975313,
                            "duration" : 30
                          },
                          {
                            "endTime" : 2029,
                            "time" : 2003,
                            "value" : 955.733402469141,
                            "duration" : 26
                          },
                          {
                            "endTime" : 2478,
                            "time" : 2448,
                            "value" : -5.6843418860808e-14,
                            "duration" : 30
                          },
                          {
                            "endTime" : 3060,
                            "time" : 3030,
                            "value" : 51.6923109282546,
                            "duration" : 30
                          },
                          {
                            "endTime" : 3378,
                            "time" : 3348,
                            "value" : 793.192387394355,
                            "duration" : 30
                          },
                          {
                            "endTime" : 3752,
                            "time" : 3703,
                            "value" : 0.0,
                            "duration" : 49
                          },
                          {
                            "endTime" : 3826,
                            "time" : 3780,
                            "value" : 525.407539085336,
                            "duration" : 46
                          },
                          {
                            "endTime" : 3943,
                            "time" : 3913,
                            "value" : -8.5265128291212e-14,
                            "duration" : 30
                          },
                          {
                            "endTime" : 3982,
                            "time" : 3952,
                            "value" : 693.2,
                            "duration" : 30
                          },
                          {
                            "endTime" : 4297,
                            "time" : 4263,
                            "value" : 796.601448181272,
                            "duration" : 34
                          }
                        ]
                      },
                      "scale0" : {
                        "type" : "double",
                        "defaultValue" : 1.0,
                        "keyframes" : [
                          {
                            "endTime" : 242,
                            "time" : 212,
                            "value" : 4.90967434857952,
                            "duration" : 30
                          },
                          {
                            "endTime" : 332,
                            "time" : 302,
                            "value" : 0.99999957889657,
                            "duration" : 30
                          },
                          {
                            "endTime" : 1240,
                            "time" : 1210,
                            "value" : 2.93925764732581,
                            "duration" : 30
                          },
                          {
                            "endTime" : 1493,
                            "time" : 1463,
                            "value" : 2.93925755430459,
                            "duration" : 30
                          },
                          {
                            "endTime" : 2029,
                            "time" : 2003,
                            "value" : 2.93925746128338,
                            "duration" : 26
                          },
                          {
                            "endTime" : 2478,
                            "time" : 2448,
                            "value" : 0.999999315951539,
                            "duration" : 30
                          },
                          {
                            "endTime" : 3060,
                            "time" : 3030,
                            "value" : 2.54358807927679,
                            "duration" : 30
                          },
                          {
                            "endTime" : 3378,
                            "time" : 3348,
                            "value" : 2.5435882186022,
                            "duration" : 30
                          },
                          {
                            "endTime" : 3752,
                            "time" : 3703,
                            "value" : 0.999999337858405,
                            "duration" : 49
                          },
                          {
                            "endTime" : 3826,
                            "time" : 3780,
                            "value" : 3.2977262743969,
                            "duration" : 46
                          },
                          {
                            "endTime" : 3943,
                            "time" : 3913,
                            "value" : 0.999999616666313,
                            "duration" : 30
                          },
                          {
                            "endTime" : 3982,
                            "time" : 3952,
                            "value" : 2.5439982822715,
                            "duration" : 30
                          },
                          {
                            "endTime" : 4297,
                            "time" : 4263,
                            "value" : 2.54399842552367,
                            "duration" : 34
                          }
                        ]
                      },
                      "scale1" : {
                        "type" : "double",
                        "defaultValue" : 1.0,
                        "keyframes" : [
                          {
                            "endTime" : 242,
                            "time" : 212,
                            "value" : 4.90967641606111,
                            "duration" : 30
                          },
                          {
                            "endTime" : 332,
                            "time" : 302,
                            "value" : 1.0,
                            "duration" : 30
                          },
                          {
                            "endTime" : 1240,
                            "time" : 1210,
                            "value" : 2.9392594718793,
                            "duration" : 30
                          },
                          {
                            "endTime" : 2029,
                            "time" : 2003,
                            "value" : 2.9392594718793,
                            "duration" : 26
                          },
                          {
                            "endTime" : 2478,
                            "time" : 2448,
                            "value" : 1.0,
                            "duration" : 30
                          },
                          {
                            "endTime" : 3060,
                            "time" : 3030,
                            "value" : 2.54358990281888,
                            "duration" : 30
                          },
                          {
                            "endTime" : 3752,
                            "time" : 3703,
                            "value" : 1.0,
                            "duration" : 49
                          },
                          {
                            "endTime" : 3826,
                            "time" : 3780,
                            "value" : 3.29772753852696,
                            "duration" : 46
                          },
                          {
                            "endTime" : 3943,
                            "time" : 3913,
                            "value" : 1.0,
                            "duration" : 30
                          },
                          {
                            "endTime" : 3982,
                            "time" : 3952,
                            "value" : 2.544,
                            "duration" : 30
                          },
                          {
                            "endTime" : 4297,
                            "time" : 4263,
                            "value" : 2.54399958577061,
                            "duration" : 34
                          }
                        ]
                      },
                      "cursorOpacity" : 1.0,
                      "cursorScale" : 1.0
                    },
                    "medias" : [
                        {
                          "id" : 147,
                          "_type" : "ScreenVMFile",
                          "src" : 1,
                          "trackNumber" : 0,
                          "attributes" : {
                            "ident" : "handle_hijacking_attack_prevention"
                          },
                          "parameters" : {
                            "cursorScale" : {
                              "type" : "double",
                              "defaultValue" : 0.0,
                              "interp" : "linr"
                            },
                            "cursorOpacity" : {
                              "type" : "double",
                              "defaultValue" : 0.0,
                              "interp" : "linr"
                            }
                          },
                          "effects" : [

                          ],
                          "start" : 0,
                          "duration" : 2383,
                          "mediaStart" : 0,
                          "mediaDuration" : 2383,
                          "scalar" : 1,
                          "metadata" : {
                            "AutoAppliedSmartFocus" : "False",
                            "clipSpeedAttribute" : false,
                            "default-scale0" : 1.0,
                            "default-scale1" : 1.0,
                            "default-translation0" : 0.0,
                            "default-translation1" : 0.0
                          },
                          "animationTracks" : {

                          }
                        },
                        {
                          "id" : 148,
                          "_type" : "ScreenIMFile",
                          "src" : 1,
                          "trackNumber" : 0,
                          "trimStartSum" : 0,
                          "attributes" : {
                            "ident" : "handle_hijacking_attack_prevention"
                          },
                          "parameters" : {
                            "cursorOpacity" : 0.0,
                            "cursorScale" : 0.0
                          },
                          "effects" : [

                          ],
                          "start" : 2383,
                          "duration" : 60,
                          "mediaStart" : 2382,
                          "mediaDuration" : 1,
                          "scalar" : 1,
                          "metadata" : {
                            "AutoAppliedSmartFocus" : "False"
                          },
                          "animationTracks" : {

                          }
                        },
                        {
                          "id" : 149,
                          "_type" : "ScreenVMFile",
                          "src" : 1,
                          "trackNumber" : 0,
                          "attributes" : {
                            "ident" : "handle_hijacking_attack_prevention"
                          },
                          "parameters" : {
                            "cursorScale" : {
                              "type" : "double",
                              "defaultValue" : 0.0,
                              "interp" : "linr"
                            },
                            "cursorOpacity" : {
                              "type" : "double",
                              "defaultValue" : 0.0,
                              "interp" : "linr"
                            }
                          },
                          "effects" : [

                          ],
                          "start" : 2443,
                          "duration" : 2141,
                          "mediaStart" : 2383,
                          "mediaDuration" : 2141,
                          "scalar" : 1,
                          "metadata" : {
                            "AutoAppliedSmartFocus" : "False",
                            "clipSpeedAttribute" : false,
                            "default-scale0" : 1.0,
                            "default-scale1" : 1.0,
                            "default-translation0" : 0.0,
                            "default-translation1" : 0.0
                          },
                          "animationTracks" : {

                          }
                        },
                        {
                          "id" : 150,
                          "_type" : "ScreenIMFile",
                          "src" : 1,
                          "trackNumber" : 0,
                          "trimStartSum" : 0,
                          "attributes" : {
                            "ident" : "handle_hijacking_attack_prevention"
                          },
                          "parameters" : {
                            "cursorOpacity" : 0.0,
                            "cursorScale" : 0.0
                          },
                          "effects" : [

                          ],
                          "start" : 4584,
                          "duration" : 60,
                          "mediaStart" : 4524,
                          "mediaDuration" : 1,
                          "scalar" : 1,
                          "metadata" : {
                            "AutoAppliedSmartFocus" : "False"
                          },
                          "animationTracks" : {

                          }
                        },
                        {
                          "id" : 151,
                          "_type" : "ScreenVMFile",
                          "src" : 1,
                          "trackNumber" : 0,
                          "attributes" : {
                            "ident" : "handle_hijacking_attack_prevention"
                          },
                          "parameters" : {
                            "cursorScale" : {
                              "type" : "double",
                              "defaultValue" : 0.0,
                              "interp" : "linr"
                            },
                            "cursorOpacity" : {
                              "type" : "double",
                              "defaultValue" : 0.0,
                              "interp" : "linr"
                            }
                          },
                          "effects" : [

                          ],
                          "start" : 4644,
                          "duration" : 233,
                          "mediaStart" : 4524,
                          "mediaDuration" : 233,
                          "scalar" : 1,
                          "metadata" : {
                            "AutoAppliedSmartFocus" : "False",
                            "clipSpeedAttribute" : false,
                            "default-scale0" : 1.0,
                            "default-scale1" : 1.0,
                            "default-translation0" : 0.0,
                            "default-translation1" : 0.0
                          },
                          "animationTracks" : {

                          }
                        },
                        {
                          "id" : 152,
                          "_type" : "ScreenVMFile",
                          "src" : 1,
                          "trackNumber" : 0,
                          "attributes" : {
                            "ident" : "handle_hijacking_attack_prevention"
                          },
                          "parameters" : {
                            "cursorScale" : {
                              "type" : "double",
                              "defaultValue" : 0.0,
                              "interp" : "linr"
                            },
                            "cursorOpacity" : {
                              "type" : "double",
                              "defaultValue" : 0.0,
                              "interp" : "linr"
                            }
                          },
                          "effects" : [

                          ],
                          "start" : 4877,
                          "duration" : 2062,
                          "mediaStart" : 4807,
                          "mediaDuration" : 2062,
                          "scalar" : 1,
                          "metadata" : {
                            "AutoAppliedSmartFocus" : "False",
                            "clipSpeedAttribute" : false,
                            "default-scale0" : 1.0,
                            "default-scale1" : 1.0,
                            "default-translation0" : 0.0,
                            "default-translation1" : 0.0
                          },
                          "animationTracks" : {

                          }
                        }
                    ],
                    "effects" : [
                        {
                          "effectName" : "CursorHilight",
                          "category" : "categoryCursorEffects",
                          "parameters" : {
                            "blur" : 0.1,
                            "color-alpha" : 0.75,
                            "color-blue" : 0.0,
                            "color-green" : 1.0,
                            "color-red" : 1.0,
                            "radius" : 50.0
                          }
                        }
                    ],
                    "start" : 3015,
                    "duration" : 31,
                    "mediaStart" : 5040,
                    "mediaDuration" : 91,
                    "scalar" : "31/91",
                    "metadata" : {
                      "AutoAppliedSmartFocus" : "False",
                      "clipSpeedAttribute" : true
                    },
                    "animationTracks" : {
                      "visual" : [
                        {
                          "endTime" : 242,
                          "duration" : 30,
                          "range" : [ 212, 30]
                        },
                        {
                          "endTime" : 332,
                          "duration" : 30,
                          "range" : [ 302, 30]
                        },
                        {
                          "endTime" : 1240,
                          "duration" : 30,
                          "range" : [ 1210, 30]
                        },
                        {
                          "endTime" : 1493,
                          "duration" : 30,
                          "range" : [ 1463, 30]
                        },
                        {
                          "endTime" : 2029,
                          "duration" : 26,
                          "range" : [ 2003, 26]
                        },
                        {
                          "endTime" : 2478,
                          "duration" : 30,
                          "range" : [ 2448, 30]
                        },
                        {
                          "endTime" : 3060,
                          "duration" : 30,
                          "range" : [ 3030, 30]
                        },
                        {
                          "endTime" : 3378,
                          "duration" : 30,
                          "range" : [ 3348, 30]
                        },
                        {
                          "endTime" : 3752,
                          "duration" : 49,
                          "range" : [ 3703, 49]
                        },
                        {
                          "endTime" : 3826,
                          "duration" : 46,
                          "range" : [ 3780, 46]
                        },
                        {
                          "endTime" : 3943,
                          "duration" : 30,
                          "range" : [ 3913, 30]
                        },
                        {
                          "endTime" : 3982,
                          "duration" : 30,
                          "range" : [ 3952, 30]
                        },
                        {
                          "endTime" : 4297,
                          "duration" : 34,
                          "range" : [ 4263, 34]
                        }
                      ]
                    }
                  },
                  {
                    "id" : 153,
                    "_type" : "StitchedMedia",
                    "minMediaStart" : 0,
                    "attributes" : {
                      "ident" : "handle_hijacking_attack_prevention",
                      "gain" : 1.0,
                      "mixToMono" : false
                    },
                    "parameters" : {
                      "translation0" : {
                        "type" : "double",
                        "defaultValue" : 0.0,
                        "keyframes" : [
                          {
                            "endTime" : 242,
                            "time" : 212,
                            "value" : 4445.6304568441,
                            "duration" : 30
                          },
                          {
                            "endTime" : 332,
                            "time" : 302,
                            "value" : -7.95807864051312e-13,
                            "duration" : 30
                          },
                          {
                            "endTime" : 1240,
                            "time" : 1210,
                            "value" : 1813.23805555168,
                            "duration" : 30
                          },
                          {
                            "endTime" : 1493,
                            "time" : 1463,
                            "value" : 1769.1,
                            "duration" : 30
                          },
                          {
                            "endTime" : 2029,
                            "time" : 2003,
                            "value" : 1769.08221838715,
                            "duration" : 26
                          },
                          {
                            "endTime" : 2478,
                            "time" : 2448,
                            "value" : -1.13686837721616e-13,
                            "duration" : 30
                          },
                          {
                            "endTime" : 3060,
                            "time" : 3030,
                            "value" : -927.066246510699,
                            "duration" : 30
                          },
                          {
                            "endTime" : 3378,
                            "time" : 3348,
                            "value" : -927.1,
                            "duration" : 30
                          },
                          {
                            "endTime" : 3752,
                            "time" : 3703,
                            "value" : 1.13686837721616e-13,
                            "duration" : 49
                          },
                          {
                            "endTime" : 3826,
                            "time" : 3780,
                            "value" : 2190.48664188307,
                            "duration" : 46
                          },
                          {
                            "endTime" : 3943,
                            "time" : 3913,
                            "value" : 2.27373675443232e-13,
                            "duration" : 30
                          },
                          {
                            "endTime" : 3982,
                            "time" : 3952,
                            "value" : -927.1,
                            "duration" : 30
                          },
                          {
                            "endTime" : 4297,
                            "time" : 4263,
                            "value" : -927.1,
                            "duration" : 34
                          },
                          {
                            "endTime" : 5256,
                            "time" : 5216,
                            "value" : 5.6843418860808e-14,
                            "duration" : 40
                          },
                          {
                            "endTime" : 5301,
                            "time" : 5260,
                            "value" : 680.367023205802,
                            "duration" : 41
                          }
                        ]
                      },
                      "translation1" : {
                        "type" : "double",
                        "defaultValue" : 0.0,
                        "keyframes" : [
                          {
                            "endTime" : 242,
                            "time" : 212,
                            "value" : -2101.5592739797,
                            "duration" : 30
                          },
                          {
                            "endTime" : 332,
                            "time" : 302,
                            "value" : 4.54747350886464e-13,
                            "duration" : 30
                          },
                          {
                            "endTime" : 1240,
                            "time" : 1210,
                            "value" : 0.0,
                            "duration" : 30
                          },
                          {
                            "endTime" : 1493,
                            "time" : 1463,
                            "value" : 764.586721975313,
                            "duration" : 30
                          },
                          {
                            "endTime" : 2029,
                            "time" : 2003,
                            "value" : 955.733402469141,
                            "duration" : 26
                          },
                          {
                            "endTime" : 2478,
                            "time" : 2448,
                            "value" : -5.6843418860808e-14,
                            "duration" : 30
                          },
                          {
                            "endTime" : 3060,
                            "time" : 3030,
                            "value" : 51.6923109282546,
                            "duration" : 30
                          },
                          {
                            "endTime" : 3378,
                            "time" : 3348,
                            "value" : 793.192387394355,
                            "duration" : 30
                          },
                          {
                            "endTime" : 3752,
                            "time" : 3703,
                            "value" : 0.0,
                            "duration" : 49
                          },
                          {
                            "endTime" : 3826,
                            "time" : 3780,
                            "value" : 525.407539085336,
                            "duration" : 46
                          },
                          {
                            "endTime" : 3943,
                            "time" : 3913,
                            "value" : -8.5265128291212e-14,
                            "duration" : 30
                          },
                          {
                            "endTime" : 3982,
                            "time" : 3952,
                            "value" : 693.2,
                            "duration" : 30
                          },
                          {
                            "endTime" : 4297,
                            "time" : 4263,
                            "value" : 796.601448181272,
                            "duration" : 34
                          },
                          {
                            "endTime" : 5256,
                            "time" : 5216,
                            "value" : 0.0,
                            "duration" : 40
                          },
                          {
                            "endTime" : 5301,
                            "time" : 5260,
                            "value" : 382.706644741061,
                            "duration" : 41
                          }
                        ]
                      },
                      "scale0" : {
                        "type" : "double",
                        "defaultValue" : 1.0,
                        "keyframes" : [
                          {
                            "endTime" : 242,
                            "time" : 212,
                            "value" : 4.90967434857952,
                            "duration" : 30
                          },
                          {
                            "endTime" : 332,
                            "time" : 302,
                            "value" : 0.99999957889657,
                            "duration" : 30
                          },
                          {
                            "endTime" : 1240,
                            "time" : 1210,
                            "value" : 2.93925764732581,
                            "duration" : 30
                          },
                          {
                            "endTime" : 1493,
                            "time" : 1463,
                            "value" : 2.93925755430459,
                            "duration" : 30
                          },
                          {
                            "endTime" : 2029,
                            "time" : 2003,
                            "value" : 2.93925746128338,
                            "duration" : 26
                          },
                          {
                            "endTime" : 2478,
                            "time" : 2448,
                            "value" : 0.999999315951539,
                            "duration" : 30
                          },
                          {
                            "endTime" : 3060,
                            "time" : 3030,
                            "value" : 2.54358807927679,
                            "duration" : 30
                          },
                          {
                            "endTime" : 3378,
                            "time" : 3348,
                            "value" : 2.5435882186022,
                            "duration" : 30
                          },
                          {
                            "endTime" : 3752,
                            "time" : 3703,
                            "value" : 0.999999337858405,
                            "duration" : 49
                          },
                          {
                            "endTime" : 3826,
                            "time" : 3780,
                            "value" : 3.2977262743969,
                            "duration" : 46
                          },
                          {
                            "endTime" : 3943,
                            "time" : 3913,
                            "value" : 0.999999616666313,
                            "duration" : 30
                          },
                          {
                            "endTime" : 3982,
                            "time" : 3952,
                            "value" : 2.5439982822715,
                            "duration" : 30
                          },
                          {
                            "endTime" : 4297,
                            "time" : 4263,
                            "value" : 2.54399842552367,
                            "duration" : 34
                          },
                          {
                            "endTime" : 5256,
                            "time" : 5216,
                            "value" : 0.999999543928019,
                            "duration" : 40
                          },
                          {
                            "endTime" : 5301,
                            "time" : 5260,
                            "value" : 1.83827164662978,
                            "duration" : 41
                          }
                        ]
                      },
                      "scale1" : {
                        "type" : "double",
                        "defaultValue" : 1.0,
                        "keyframes" : [
                          {
                            "endTime" : 242,
                            "time" : 212,
                            "value" : 4.90967641606111,
                            "duration" : 30
                          },
                          {
                            "endTime" : 332,
                            "time" : 302,
                            "value" : 1.0,
                            "duration" : 30
                          },
                          {
                            "endTime" : 1240,
                            "time" : 1210,
                            "value" : 2.9392594718793,
                            "duration" : 30
                          },
                          {
                            "endTime" : 2029,
                            "time" : 2003,
                            "value" : 2.9392594718793,
                            "duration" : 26
                          },
                          {
                            "endTime" : 2478,
                            "time" : 2448,
                            "value" : 1.0,
                            "duration" : 30
                          },
                          {
                            "endTime" : 3060,
                            "time" : 3030,
                            "value" : 2.54358990281888,
                            "duration" : 30
                          },
                          {
                            "endTime" : 3752,
                            "time" : 3703,
                            "value" : 1.0,
                            "duration" : 49
                          },
                          {
                            "endTime" : 3826,
                            "time" : 3780,
                            "value" : 3.29772753852696,
                            "duration" : 46
                          },
                          {
                            "endTime" : 3943,
                            "time" : 3913,
                            "value" : 1.0,
                            "duration" : 30
                          },
                          {
                            "endTime" : 3982,
                            "time" : 3952,
                            "value" : 2.544,
                            "duration" : 30
                          },
                          {
                            "endTime" : 4297,
                            "time" : 4263,
                            "value" : 2.54399958577061,
                            "duration" : 34
                          },
                          {
                            "endTime" : 5256,
                            "time" : 5216,
                            "value" : 1.0,
                            "duration" : 40
                          },
                          {
                            "endTime" : 5301,
                            "time" : 5260,
                            "value" : 1.83827268333693,
                            "duration" : 41
                          }
                        ]
                      },
                      "cursorOpacity" : 1.0,
                      "cursorScale" : 1.0
                    },
                    "medias" : [
                        {
                          "id" : 154,
                          "_type" : "ScreenVMFile",
                          "src" : 1,
                          "trackNumber" : 0,
                          "attributes" : {
                            "ident" : "handle_hijacking_attack_prevention"
                          },
                          "parameters" : {
                            "cursorScale" : {
                              "type" : "double",
                              "defaultValue" : 0.0,
                              "interp" : "linr"
                            },
                            "cursorOpacity" : {
                              "type" : "double",
                              "defaultValue" : 0.0,
                              "interp" : "linr"
                            }
                          },
                          "effects" : [

                          ],
                          "start" : 0,
                          "duration" : 2383,
                          "mediaStart" : 0,
                          "mediaDuration" : 2383,
                          "scalar" : 1,
                          "metadata" : {
                            "AutoAppliedSmartFocus" : "False",
                            "clipSpeedAttribute" : false,
                            "default-scale0" : 1.0,
                            "default-scale1" : 1.0,
                            "default-translation0" : 0.0,
                            "default-translation1" : 0.0
                          },
                          "animationTracks" : {

                          }
                        },
                        {
                          "id" : 155,
                          "_type" : "ScreenIMFile",
                          "src" : 1,
                          "trackNumber" : 0,
                          "trimStartSum" : 0,
                          "attributes" : {
                            "ident" : "handle_hijacking_attack_prevention"
                          },
                          "parameters" : {
                            "cursorOpacity" : 0.0,
                            "cursorScale" : 0.0
                          },
                          "effects" : [

                          ],
                          "start" : 2383,
                          "duration" : 60,
                          "mediaStart" : 2382,
                          "mediaDuration" : 1,
                          "scalar" : 1,
                          "metadata" : {
                            "AutoAppliedSmartFocus" : "False"
                          },
                          "animationTracks" : {

                          }
                        },
                        {
                          "id" : 156,
                          "_type" : "ScreenVMFile",
                          "src" : 1,
                          "trackNumber" : 0,
                          "attributes" : {
                            "ident" : "handle_hijacking_attack_prevention"
                          },
                          "parameters" : {
                            "cursorScale" : {
                              "type" : "double",
                              "defaultValue" : 0.0,
                              "interp" : "linr"
                            },
                            "cursorOpacity" : {
                              "type" : "double",
                              "defaultValue" : 0.0,
                              "interp" : "linr"
                            }
                          },
                          "effects" : [

                          ],
                          "start" : 2443,
                          "duration" : 2141,
                          "mediaStart" : 2383,
                          "mediaDuration" : 2141,
                          "scalar" : 1,
                          "metadata" : {
                            "AutoAppliedSmartFocus" : "False",
                            "clipSpeedAttribute" : false,
                            "default-scale0" : 1.0,
                            "default-scale1" : 1.0,
                            "default-translation0" : 0.0,
                            "default-translation1" : 0.0
                          },
                          "animationTracks" : {

                          }
                        },
                        {
                          "id" : 157,
                          "_type" : "ScreenIMFile",
                          "src" : 1,
                          "trackNumber" : 0,
                          "trimStartSum" : 0,
                          "attributes" : {
                            "ident" : "handle_hijacking_attack_prevention"
                          },
                          "parameters" : {
                            "cursorOpacity" : 0.0,
                            "cursorScale" : 0.0
                          },
                          "effects" : [

                          ],
                          "start" : 4584,
                          "duration" : 60,
                          "mediaStart" : 4524,
                          "mediaDuration" : 1,
                          "scalar" : 1,
                          "metadata" : {
                            "AutoAppliedSmartFocus" : "False"
                          },
                          "animationTracks" : {

                          }
                        },
                        {
                          "id" : 158,
                          "_type" : "ScreenVMFile",
                          "src" : 1,
                          "trackNumber" : 0,
                          "attributes" : {
                            "ident" : "handle_hijacking_attack_prevention"
                          },
                          "parameters" : {
                            "cursorScale" : {
                              "type" : "double",
                              "defaultValue" : 0.0,
                              "interp" : "linr"
                            },
                            "cursorOpacity" : {
                              "type" : "double",
                              "defaultValue" : 0.0,
                              "interp" : "linr"
                            }
                          },
                          "effects" : [

                          ],
                          "start" : 4644,
                          "duration" : 233,
                          "mediaStart" : 4524,
                          "mediaDuration" : 233,
                          "scalar" : 1,
                          "metadata" : {
                            "AutoAppliedSmartFocus" : "False",
                            "clipSpeedAttribute" : false,
                            "default-scale0" : 1.0,
                            "default-scale1" : 1.0,
                            "default-translation0" : 0.0,
                            "default-translation1" : 0.0
                          },
                          "animationTracks" : {

                          }
                        },
                        {
                          "id" : 159,
                          "_type" : "ScreenVMFile",
                          "src" : 1,
                          "trackNumber" : 0,
                          "attributes" : {
                            "ident" : "handle_hijacking_attack_prevention"
                          },
                          "parameters" : {
                            "cursorScale" : {
                              "type" : "double",
                              "defaultValue" : 0.0,
                              "interp" : "linr"
                            },
                            "cursorOpacity" : {
                              "type" : "double",
                              "defaultValue" : 0.0,
                              "interp" : "linr"
                            }
                          },
                          "effects" : [

                          ],
                          "start" : 4877,
                          "duration" : 2062,
                          "mediaStart" : 4807,
                          "mediaDuration" : 2062,
                          "scalar" : 1,
                          "metadata" : {
                            "AutoAppliedSmartFocus" : "False",
                            "clipSpeedAttribute" : false,
                            "default-scale0" : 1.0,
                            "default-scale1" : 1.0,
                            "default-translation0" : 0.0,
                            "default-translation1" : 0.0
                          },
                          "animationTracks" : {

                          }
                        }
                    ],
                    "effects" : [
                        {
                          "effectName" : "CursorHilight",
                          "category" : "categoryCursorEffects",
                          "parameters" : {
                            "blur" : 0.1,
                            "color-alpha" : 0.75,
                            "color-blue" : 0.0,
                            "color-green" : 1.0,
                            "color-red" : 1.0,
                            "radius" : 50.0
                          }
                        }
                    ],
                    "start" : 3046,
                    "duration" : 212,
                    "mediaStart" : 5131,
                    "mediaDuration" : 212,
                    "scalar" : 1,
                    "metadata" : {
                      "AutoAppliedSmartFocus" : "False",
                      "clipSpeedAttribute" : false,
                      "default-scale0" : 2.54399842552367,
                      "default-scale1" : 2.54399958577061,
                      "default-translation0" : -927.1,
                      "default-translation1" : 796.601448181272
                    },
                    "animationTracks" : {
                      "visual" : [
                        {
                          "endTime" : 242,
                          "duration" : 30,
                          "range" : [ 212, 30]
                        },
                        {
                          "endTime" : 332,
                          "duration" : 30,
                          "range" : [ 302, 30]
                        },
                        {
                          "endTime" : 1240,
                          "duration" : 30,
                          "range" : [ 1210, 30]
                        },
                        {
                          "endTime" : 1493,
                          "duration" : 30,
                          "range" : [ 1463, 30]
                        },
                        {
                          "endTime" : 2029,
                          "duration" : 26,
                          "range" : [ 2003, 26]
                        },
                        {
                          "endTime" : 2478,
                          "duration" : 30,
                          "range" : [ 2448, 30]
                        },
                        {
                          "endTime" : 3060,
                          "duration" : 30,
                          "range" : [ 3030, 30]
                        },
                        {
                          "endTime" : 3378,
                          "duration" : 30,
                          "range" : [ 3348, 30]
                        },
                        {
                          "endTime" : 3752,
                          "duration" : 49,
                          "range" : [ 3703, 49]
                        },
                        {
                          "endTime" : 3826,
                          "duration" : 46,
                          "range" : [ 3780, 46]
                        },
                        {
                          "endTime" : 3943,
                          "duration" : 30,
                          "range" : [ 3913, 30]
                        },
                        {
                          "endTime" : 3982,
                          "duration" : 30,
                          "range" : [ 3952, 30]
                        },
                        {
                          "endTime" : 4297,
                          "duration" : 34,
                          "range" : [ 4263, 34]
                        },
                        {
                          "endTime" : 5256,
                          "duration" : 40,
                          "range" : [ 5216, 40]
                        },
                        {
                          "endTime" : 5301,
                          "duration" : 41,
                          "range" : [ 5260, 41]
                        }
                      ]
                    }
                  },
                  {
                    "id" : 160,
                    "_type" : "StitchedMedia",
                    "minMediaStart" : 0,
                    "attributes" : {
                      "ident" : "handle_hijacking_attack_prevention",
                      "gain" : 1.0,
                      "mixToMono" : false
                    },
                    "parameters" : {
                      "translation0" : {
                        "type" : "double",
                        "defaultValue" : 0.0,
                        "keyframes" : [
                          {
                            "endTime" : 242,
                            "time" : 212,
                            "value" : 4445.6304568441,
                            "duration" : 30
                          },
                          {
                            "endTime" : 332,
                            "time" : 302,
                            "value" : -7.95807864051312e-13,
                            "duration" : 30
                          },
                          {
                            "endTime" : 1240,
                            "time" : 1210,
                            "value" : 1813.23805555168,
                            "duration" : 30
                          },
                          {
                            "endTime" : 1493,
                            "time" : 1463,
                            "value" : 1769.1,
                            "duration" : 30
                          },
                          {
                            "endTime" : 2029,
                            "time" : 2003,
                            "value" : 1769.08221838715,
                            "duration" : 26
                          },
                          {
                            "endTime" : 2478,
                            "time" : 2448,
                            "value" : -1.13686837721616e-13,
                            "duration" : 30
                          },
                          {
                            "endTime" : 3060,
                            "time" : 3030,
                            "value" : -927.066246510699,
                            "duration" : 30
                          },
                          {
                            "endTime" : 3378,
                            "time" : 3348,
                            "value" : -927.1,
                            "duration" : 30
                          },
                          {
                            "endTime" : 3752,
                            "time" : 3703,
                            "value" : 1.13686837721616e-13,
                            "duration" : 49
                          },
                          {
                            "endTime" : 3826,
                            "time" : 3780,
                            "value" : 2190.48664188307,
                            "duration" : 46
                          },
                          {
                            "endTime" : 3943,
                            "time" : 3913,
                            "value" : 2.27373675443232e-13,
                            "duration" : 30
                          },
                          {
                            "endTime" : 3982,
                            "time" : 3952,
                            "value" : -927.1,
                            "duration" : 30
                          },
                          {
                            "endTime" : 4297,
                            "time" : 4263,
                            "value" : -927.1,
                            "duration" : 34
                          },
                          {
                            "endTime" : 5256,
                            "time" : 5216,
                            "value" : 5.6843418860808e-14,
                            "duration" : 40
                          },
                          {
                            "endTime" : 5301,
                            "time" : 5260,
                            "value" : 680.367023205802,
                            "duration" : 41
                          }
                        ]
                      },
                      "translation1" : {
                        "type" : "double",
                        "defaultValue" : 0.0,
                        "keyframes" : [
                          {
                            "endTime" : 242,
                            "time" : 212,
                            "value" : -2101.5592739797,
                            "duration" : 30
                          },
                          {
                            "endTime" : 332,
                            "time" : 302,
                            "value" : 4.54747350886464e-13,
                            "duration" : 30
                          },
                          {
                            "endTime" : 1240,
                            "time" : 1210,
                            "value" : 0.0,
                            "duration" : 30
                          },
                          {
                            "endTime" : 1493,
                            "time" : 1463,
                            "value" : 764.586721975313,
                            "duration" : 30
                          },
                          {
                            "endTime" : 2029,
                            "time" : 2003,
                            "value" : 955.733402469141,
                            "duration" : 26
                          },
                          {
                            "endTime" : 2478,
                            "time" : 2448,
                            "value" : -5.6843418860808e-14,
                            "duration" : 30
                          },
                          {
                            "endTime" : 3060,
                            "time" : 3030,
                            "value" : 51.6923109282546,
                            "duration" : 30
                          },
                          {
                            "endTime" : 3378,
                            "time" : 3348,
                            "value" : 793.192387394355,
                            "duration" : 30
                          },
                          {
                            "endTime" : 3752,
                            "time" : 3703,
                            "value" : 0.0,
                            "duration" : 49
                          },
                          {
                            "endTime" : 3826,
                            "time" : 3780,
                            "value" : 525.407539085336,
                            "duration" : 46
                          },
                          {
                            "endTime" : 3943,
                            "time" : 3913,
                            "value" : -8.5265128291212e-14,
                            "duration" : 30
                          },
                          {
                            "endTime" : 3982,
                            "time" : 3952,
                            "value" : 693.2,
                            "duration" : 30
                          },
                          {
                            "endTime" : 4297,
                            "time" : 4263,
                            "value" : 796.601448181272,
                            "duration" : 34
                          },
                          {
                            "endTime" : 5256,
                            "time" : 5216,
                            "value" : 0.0,
                            "duration" : 40
                          },
                          {
                            "endTime" : 5301,
                            "time" : 5260,
                            "value" : 382.706644741061,
                            "duration" : 41
                          }
                        ]
                      },
                      "scale0" : {
                        "type" : "double",
                        "defaultValue" : 1.0,
                        "keyframes" : [
                          {
                            "endTime" : 242,
                            "time" : 212,
                            "value" : 4.90967434857952,
                            "duration" : 30
                          },
                          {
                            "endTime" : 332,
                            "time" : 302,
                            "value" : 0.99999957889657,
                            "duration" : 30
                          },
                          {
                            "endTime" : 1240,
                            "time" : 1210,
                            "value" : 2.93925764732581,
                            "duration" : 30
                          },
                          {
                            "endTime" : 1493,
                            "time" : 1463,
                            "value" : 2.93925755430459,
                            "duration" : 30
                          },
                          {
                            "endTime" : 2029,
                            "time" : 2003,
                            "value" : 2.93925746128338,
                            "duration" : 26
                          },
                          {
                            "endTime" : 2478,
                            "time" : 2448,
                            "value" : 0.999999315951539,
                            "duration" : 30
                          },
                          {
                            "endTime" : 3060,
                            "time" : 3030,
                            "value" : 2.54358807927679,
                            "duration" : 30
                          },
                          {
                            "endTime" : 3378,
                            "time" : 3348,
                            "value" : 2.5435882186022,
                            "duration" : 30
                          },
                          {
                            "endTime" : 3752,
                            "time" : 3703,
                            "value" : 0.999999337858405,
                            "duration" : 49
                          },
                          {
                            "endTime" : 3826,
                            "time" : 3780,
                            "value" : 3.2977262743969,
                            "duration" : 46
                          },
                          {
                            "endTime" : 3943,
                            "time" : 3913,
                            "value" : 0.999999616666313,
                            "duration" : 30
                          },
                          {
                            "endTime" : 3982,
                            "time" : 3952,
                            "value" : 2.5439982822715,
                            "duration" : 30
                          },
                          {
                            "endTime" : 4297,
                            "time" : 4263,
                            "value" : 2.54399842552367,
                            "duration" : 34
                          },
                          {
                            "endTime" : 5256,
                            "time" : 5216,
                            "value" : 0.999999543928019,
                            "duration" : 40
                          },
                          {
                            "endTime" : 5301,
                            "time" : 5260,
                            "value" : 1.83827164662978,
                            "duration" : 41
                          }
                        ]
                      },
                      "scale1" : {
                        "type" : "double",
                        "defaultValue" : 1.0,
                        "keyframes" : [
                          {
                            "endTime" : 242,
                            "time" : 212,
                            "value" : 4.90967641606111,
                            "duration" : 30
                          },
                          {
                            "endTime" : 332,
                            "time" : 302,
                            "value" : 1.0,
                            "duration" : 30
                          },
                          {
                            "endTime" : 1240,
                            "time" : 1210,
                            "value" : 2.9392594718793,
                            "duration" : 30
                          },
                          {
                            "endTime" : 2029,
                            "time" : 2003,
                            "value" : 2.9392594718793,
                            "duration" : 26
                          },
                          {
                            "endTime" : 2478,
                            "time" : 2448,
                            "value" : 1.0,
                            "duration" : 30
                          },
                          {
                            "endTime" : 3060,
                            "time" : 3030,
                            "value" : 2.54358990281888,
                            "duration" : 30
                          },
                          {
                            "endTime" : 3752,
                            "time" : 3703,
                            "value" : 1.0,
                            "duration" : 49
                          },
                          {
                            "endTime" : 3826,
                            "time" : 3780,
                            "value" : 3.29772753852696,
                            "duration" : 46
                          },
                          {
                            "endTime" : 3943,
                            "time" : 3913,
                            "value" : 1.0,
                            "duration" : 30
                          },
                          {
                            "endTime" : 3982,
                            "time" : 3952,
                            "value" : 2.544,
                            "duration" : 30
                          },
                          {
                            "endTime" : 4297,
                            "time" : 4263,
                            "value" : 2.54399958577061,
                            "duration" : 34
                          },
                          {
                            "endTime" : 5256,
                            "time" : 5216,
                            "value" : 1.0,
                            "duration" : 40
                          },
                          {
                            "endTime" : 5301,
                            "time" : 5260,
                            "value" : 1.83827268333693,
                            "duration" : 41
                          }
                        ]
                      },
                      "cursorOpacity" : 1.0,
                      "cursorScale" : 1.0
                    },
                    "medias" : [
                        {
                          "id" : 161,
                          "_type" : "ScreenVMFile",
                          "src" : 1,
                          "trackNumber" : 0,
                          "attributes" : {
                            "ident" : "handle_hijacking_attack_prevention"
                          },
                          "parameters" : {
                            "cursorScale" : {
                              "type" : "double",
                              "defaultValue" : 0.0,
                              "interp" : "linr"
                            },
                            "cursorOpacity" : {
                              "type" : "double",
                              "defaultValue" : 0.0,
                              "interp" : "linr"
                            }
                          },
                          "effects" : [

                          ],
                          "start" : 0,
                          "duration" : 2383,
                          "mediaStart" : 0,
                          "mediaDuration" : 2383,
                          "scalar" : 1,
                          "metadata" : {
                            "AutoAppliedSmartFocus" : "False",
                            "clipSpeedAttribute" : false,
                            "default-scale0" : 1.0,
                            "default-scale1" : 1.0,
                            "default-translation0" : 0.0,
                            "default-translation1" : 0.0
                          },
                          "animationTracks" : {

                          }
                        },
                        {
                          "id" : 162,
                          "_type" : "ScreenIMFile",
                          "src" : 1,
                          "trackNumber" : 0,
                          "trimStartSum" : 0,
                          "attributes" : {
                            "ident" : "handle_hijacking_attack_prevention"
                          },
                          "parameters" : {
                            "cursorOpacity" : 0.0,
                            "cursorScale" : 0.0
                          },
                          "effects" : [

                          ],
                          "start" : 2383,
                          "duration" : 60,
                          "mediaStart" : 2382,
                          "mediaDuration" : 1,
                          "scalar" : 1,
                          "metadata" : {
                            "AutoAppliedSmartFocus" : "False"
                          },
                          "animationTracks" : {

                          }
                        },
                        {
                          "id" : 163,
                          "_type" : "ScreenVMFile",
                          "src" : 1,
                          "trackNumber" : 0,
                          "attributes" : {
                            "ident" : "handle_hijacking_attack_prevention"
                          },
                          "parameters" : {
                            "cursorScale" : {
                              "type" : "double",
                              "defaultValue" : 0.0,
                              "interp" : "linr"
                            },
                            "cursorOpacity" : {
                              "type" : "double",
                              "defaultValue" : 0.0,
                              "interp" : "linr"
                            }
                          },
                          "effects" : [

                          ],
                          "start" : 2443,
                          "duration" : 2141,
                          "mediaStart" : 2383,
                          "mediaDuration" : 2141,
                          "scalar" : 1,
                          "metadata" : {
                            "AutoAppliedSmartFocus" : "False",
                            "clipSpeedAttribute" : false,
                            "default-scale0" : 1.0,
                            "default-scale1" : 1.0,
                            "default-translation0" : 0.0,
                            "default-translation1" : 0.0
                          },
                          "animationTracks" : {

                          }
                        },
                        {
                          "id" : 164,
                          "_type" : "ScreenIMFile",
                          "src" : 1,
                          "trackNumber" : 0,
                          "trimStartSum" : 0,
                          "attributes" : {
                            "ident" : "handle_hijacking_attack_prevention"
                          },
                          "parameters" : {
                            "cursorOpacity" : 0.0,
                            "cursorScale" : 0.0
                          },
                          "effects" : [

                          ],
                          "start" : 4584,
                          "duration" : 60,
                          "mediaStart" : 4524,
                          "mediaDuration" : 1,
                          "scalar" : 1,
                          "metadata" : {
                            "AutoAppliedSmartFocus" : "False"
                          },
                          "animationTracks" : {

                          }
                        },
                        {
                          "id" : 165,
                          "_type" : "ScreenVMFile",
                          "src" : 1,
                          "trackNumber" : 0,
                          "attributes" : {
                            "ident" : "handle_hijacking_attack_prevention"
                          },
                          "parameters" : {
                            "cursorScale" : {
                              "type" : "double",
                              "defaultValue" : 0.0,
                              "interp" : "linr"
                            },
                            "cursorOpacity" : {
                              "type" : "double",
                              "defaultValue" : 0.0,
                              "interp" : "linr"
                            }
                          },
                          "effects" : [

                          ],
                          "start" : 4644,
                          "duration" : 233,
                          "mediaStart" : 4524,
                          "mediaDuration" : 233,
                          "scalar" : 1,
                          "metadata" : {
                            "AutoAppliedSmartFocus" : "False",
                            "clipSpeedAttribute" : false,
                            "default-scale0" : 1.0,
                            "default-scale1" : 1.0,
                            "default-translation0" : 0.0,
                            "default-translation1" : 0.0
                          },
                          "animationTracks" : {

                          }
                        },
                        {
                          "id" : 166,
                          "_type" : "ScreenVMFile",
                          "src" : 1,
                          "trackNumber" : 0,
                          "attributes" : {
                            "ident" : "handle_hijacking_attack_prevention"
                          },
                          "parameters" : {
                            "cursorScale" : {
                              "type" : "double",
                              "defaultValue" : 0.0,
                              "interp" : "linr"
                            },
                            "cursorOpacity" : {
                              "type" : "double",
                              "defaultValue" : 0.0,
                              "interp" : "linr"
                            }
                          },
                          "effects" : [

                          ],
                          "start" : 4877,
                          "duration" : 2062,
                          "mediaStart" : 4807,
                          "mediaDuration" : 2062,
                          "scalar" : 1,
                          "metadata" : {
                            "AutoAppliedSmartFocus" : "False",
                            "clipSpeedAttribute" : false,
                            "default-scale0" : 1.0,
                            "default-scale1" : 1.0,
                            "default-translation0" : 0.0,
                            "default-translation1" : 0.0
                          },
                          "animationTracks" : {

                          }
                        }
                    ],
                    "effects" : [
                        {
                          "effectName" : "CursorHilight",
                          "category" : "categoryCursorEffects",
                          "parameters" : {
                            "blur" : 0.1,
                            "color-alpha" : 0.75,
                            "color-blue" : 0.0,
                            "color-green" : 1.0,
                            "color-red" : 1.0,
                            "radius" : 50.0
                          }
                        }
                    ],
                    "start" : 3258,
                    "duration" : 22,
                    "mediaStart" : 5343,
                    "mediaDuration" : 47,
                    "scalar" : "22/47",
                    "metadata" : {
                      "AutoAppliedSmartFocus" : "False",
                      "clipSpeedAttribute" : true,
                      "default-scale0" : 2.54399842552367,
                      "default-scale1" : 2.54399958577061,
                      "default-translation0" : -927.1,
                      "default-translation1" : 796.601448181272
                    },
                    "animationTracks" : {
                      "visual" : [
                        {
                          "endTime" : 242,
                          "duration" : 30,
                          "range" : [ 212, 30]
                        },
                        {
                          "endTime" : 332,
                          "duration" : 30,
                          "range" : [ 302, 30]
                        },
                        {
                          "endTime" : 1240,
                          "duration" : 30,
                          "range" : [ 1210, 30]
                        },
                        {
                          "endTime" : 1493,
                          "duration" : 30,
                          "range" : [ 1463, 30]
                        },
                        {
                          "endTime" : 2029,
                          "duration" : 26,
                          "range" : [ 2003, 26]
                        },
                        {
                          "endTime" : 2478,
                          "duration" : 30,
                          "range" : [ 2448, 30]
                        },
                        {
                          "endTime" : 3060,
                          "duration" : 30,
                          "range" : [ 3030, 30]
                        },
                        {
                          "endTime" : 3378,
                          "duration" : 30,
                          "range" : [ 3348, 30]
                        },
                        {
                          "endTime" : 3752,
                          "duration" : 49,
                          "range" : [ 3703, 49]
                        },
                        {
                          "endTime" : 3826,
                          "duration" : 46,
                          "range" : [ 3780, 46]
                        },
                        {
                          "endTime" : 3943,
                          "duration" : 30,
                          "range" : [ 3913, 30]
                        },
                        {
                          "endTime" : 3982,
                          "duration" : 30,
                          "range" : [ 3952, 30]
                        },
                        {
                          "endTime" : 4297,
                          "duration" : 34,
                          "range" : [ 4263, 34]
                        },
                        {
                          "endTime" : 5256,
                          "duration" : 40,
                          "range" : [ 5216, 40]
                        },
                        {
                          "endTime" : 5301,
                          "duration" : 41,
                          "range" : [ 5260, 41]
                        }
                      ]
                    }
                  },
                  {
                    "id" : 167,
                    "_type" : "StitchedMedia",
                    "minMediaStart" : 0,
                    "attributes" : {
                      "ident" : "handle_hijacking_attack_prevention",
                      "gain" : 1.0,
                      "mixToMono" : false
                    },
                    "parameters" : {
                      "translation0" : {
                        "type" : "double",
                        "defaultValue" : 0.0,
                        "keyframes" : [
                          {
                            "endTime" : 242,
                            "time" : 212,
                            "value" : 4445.6304568441,
                            "duration" : 30
                          },
                          {
                            "endTime" : 332,
                            "time" : 302,
                            "value" : -7.95807864051312e-13,
                            "duration" : 30
                          },
                          {
                            "endTime" : 1240,
                            "time" : 1210,
                            "value" : 1813.23805555168,
                            "duration" : 30
                          },
                          {
                            "endTime" : 1493,
                            "time" : 1463,
                            "value" : 1769.1,
                            "duration" : 30
                          },
                          {
                            "endTime" : 2029,
                            "time" : 2003,
                            "value" : 1769.08221838715,
                            "duration" : 26
                          },
                          {
                            "endTime" : 2478,
                            "time" : 2448,
                            "value" : -1.13686837721616e-13,
                            "duration" : 30
                          },
                          {
                            "endTime" : 3060,
                            "time" : 3030,
                            "value" : -927.066246510699,
                            "duration" : 30
                          },
                          {
                            "endTime" : 3378,
                            "time" : 3348,
                            "value" : -927.1,
                            "duration" : 30
                          },
                          {
                            "endTime" : 3752,
                            "time" : 3703,
                            "value" : 1.13686837721616e-13,
                            "duration" : 49
                          },
                          {
                            "endTime" : 3826,
                            "time" : 3780,
                            "value" : 2190.48664188307,
                            "duration" : 46
                          },
                          {
                            "endTime" : 3943,
                            "time" : 3913,
                            "value" : 2.27373675443232e-13,
                            "duration" : 30
                          },
                          {
                            "endTime" : 3982,
                            "time" : 3952,
                            "value" : -927.1,
                            "duration" : 30
                          },
                          {
                            "endTime" : 4297,
                            "time" : 4263,
                            "value" : -927.1,
                            "duration" : 34
                          },
                          {
                            "endTime" : 5256,
                            "time" : 5216,
                            "value" : 5.6843418860808e-14,
                            "duration" : 40
                          },
                          {
                            "endTime" : 5301,
                            "time" : 5260,
                            "value" : 680.367023205802,
                            "duration" : 41
                          },
                          {
                            "endTime" : 5424,
                            "time" : 5394,
                            "value" : 1794.65403755581,
                            "duration" : 30
                          },
                          {
                            "endTime" : 5546,
                            "time" : 5516,
                            "value" : -3.41060513164848e-13,
                            "duration" : 30
                          },
                          {
                            "endTime" : 5613,
                            "time" : 5583,
                            "value" : -877.024502523768,
                            "duration" : 30
                          }
                        ]
                      },
                      "translation1" : {
                        "type" : "double",
                        "defaultValue" : 0.0,
                        "keyframes" : [
                          {
                            "endTime" : 242,
                            "time" : 212,
                            "value" : -2101.5592739797,
                            "duration" : 30
                          },
                          {
                            "endTime" : 332,
                            "time" : 302,
                            "value" : 4.54747350886464e-13,
                            "duration" : 30
                          },
                          {
                            "endTime" : 1240,
                            "time" : 1210,
                            "value" : 0.0,
                            "duration" : 30
                          },
                          {
                            "endTime" : 1493,
                            "time" : 1463,
                            "value" : 764.586721975313,
                            "duration" : 30
                          },
                          {
                            "endTime" : 2029,
                            "time" : 2003,
                            "value" : 955.733402469141,
                            "duration" : 26
                          },
                          {
                            "endTime" : 2478,
                            "time" : 2448,
                            "value" : -5.6843418860808e-14,
                            "duration" : 30
                          },
                          {
                            "endTime" : 3060,
                            "time" : 3030,
                            "value" : 51.6923109282546,
                            "duration" : 30
                          },
                          {
                            "endTime" : 3378,
                            "time" : 3348,
                            "value" : 793.192387394355,
                            "duration" : 30
                          },
                          {
                            "endTime" : 3752,
                            "time" : 3703,
                            "value" : 0.0,
                            "duration" : 49
                          },
                          {
                            "endTime" : 3826,
                            "time" : 3780,
                            "value" : 525.407539085336,
                            "duration" : 46
                          },
                          {
                            "endTime" : 3943,
                            "time" : 3913,
                            "value" : -8.5265128291212e-14,
                            "duration" : 30
                          },
                          {
                            "endTime" : 3982,
                            "time" : 3952,
                            "value" : 693.2,
                            "duration" : 30
                          },
                          {
                            "endTime" : 4297,
                            "time" : 4263,
                            "value" : 796.601448181272,
                            "duration" : 34
                          },
                          {
                            "endTime" : 5256,
                            "time" : 5216,
                            "value" : 0.0,
                            "duration" : 40
                          },
                          {
                            "endTime" : 5301,
                            "time" : 5260,
                            "value" : 382.706644741061,
                            "duration" : 41
                          },
                          {
                            "endTime" : 5424,
                            "time" : 5394,
                            "value" : 175.346948293544,
                            "duration" : 30
                          },
                          {
                            "endTime" : 5546,
                            "time" : 5516,
                            "value" : -1.27897692436818e-13,
                            "duration" : 30
                          },
                          {
                            "endTime" : 5613,
                            "time" : 5583,
                            "value" : 908.758378625847,
                            "duration" : 30
                          }
                        ]
                      },
                      "scale0" : {
                        "type" : "double",
                        "defaultValue" : 1.0,
                        "keyframes" : [
                          {
                            "endTime" : 242,
                            "time" : 212,
                            "value" : 4.90967434857952,
                            "duration" : 30
                          },
                          {
                            "endTime" : 332,
                            "time" : 302,
                            "value" : 0.99999957889657,
                            "duration" : 30
                          },
                          {
                            "endTime" : 1240,
                            "time" : 1210,
                            "value" : 2.93925764732581,
                            "duration" : 30
                          },
                          {
                            "endTime" : 1493,
                            "time" : 1463,
                            "value" : 2.93925755430459,
                            "duration" : 30
                          },
                          {
                            "endTime" : 2029,
                            "time" : 2003,
                            "value" : 2.93925746128338,
                            "duration" : 26
                          },
                          {
                            "endTime" : 2478,
                            "time" : 2448,
                            "value" : 0.999999315951539,
                            "duration" : 30
                          },
                          {
                            "endTime" : 3060,
                            "time" : 3030,
                            "value" : 2.54358807927679,
                            "duration" : 30
                          },
                          {
                            "endTime" : 3378,
                            "time" : 3348,
                            "value" : 2.5435882186022,
                            "duration" : 30
                          },
                          {
                            "endTime" : 3752,
                            "time" : 3703,
                            "value" : 0.999999337858405,
                            "duration" : 49
                          },
                          {
                            "endTime" : 3826,
                            "time" : 3780,
                            "value" : 3.2977262743969,
                            "duration" : 46
                          },
                          {
                            "endTime" : 3943,
                            "time" : 3913,
                            "value" : 0.999999616666313,
                            "duration" : 30
                          },
                          {
                            "endTime" : 3982,
                            "time" : 3952,
                            "value" : 2.5439982822715,
                            "duration" : 30
                          },
                          {
                            "endTime" : 4297,
                            "time" : 4263,
                            "value" : 2.54399842552367,
                            "duration" : 34
                          },
                          {
                            "endTime" : 5256,
                            "time" : 5216,
                            "value" : 0.999999543928019,
                            "duration" : 40
                          },
                          {
                            "endTime" : 5301,
                            "time" : 5260,
                            "value" : 1.83827164662978,
                            "duration" : 41
                          },
                          {
                            "endTime" : 5424,
                            "time" : 5394,
                            "value" : 2.9999982078393,
                            "duration" : 30
                          },
                          {
                            "endTime" : 5546,
                            "time" : 5516,
                            "value" : 0.999999402613099,
                            "duration" : 30
                          },
                          {
                            "endTime" : 5613,
                            "time" : 5583,
                            "value" : 2.83915222221324,
                            "duration" : 30
                          }
                        ]
                      },
                      "scale1" : {
                        "type" : "double",
                        "defaultValue" : 1.0,
                        "keyframes" : [
                          {
                            "endTime" : 242,
                            "time" : 212,
                            "value" : 4.90967641606111,
                            "duration" : 30
                          },
                          {
                            "endTime" : 332,
                            "time" : 302,
                            "value" : 1.0,
                            "duration" : 30
                          },
                          {
                            "endTime" : 1240,
                            "time" : 1210,
                            "value" : 2.9392594718793,
                            "duration" : 30
                          },
                          {
                            "endTime" : 2029,
                            "time" : 2003,
                            "value" : 2.9392594718793,
                            "duration" : 26
                          },
                          {
                            "endTime" : 2478,
                            "time" : 2448,
                            "value" : 1.0,
                            "duration" : 30
                          },
                          {
                            "endTime" : 3060,
                            "time" : 3030,
                            "value" : 2.54358990281888,
                            "duration" : 30
                          },
                          {
                            "endTime" : 3752,
                            "time" : 3703,
                            "value" : 1.0,
                            "duration" : 49
                          },
                          {
                            "endTime" : 3826,
                            "time" : 3780,
                            "value" : 3.29772753852696,
                            "duration" : 46
                          },
                          {
                            "endTime" : 3943,
                            "time" : 3913,
                            "value" : 1.0,
                            "duration" : 30
                          },
                          {
                            "endTime" : 3982,
                            "time" : 3952,
                            "value" : 2.544,
                            "duration" : 30
                          },
                          {
                            "endTime" : 4297,
                            "time" : 4263,
                            "value" : 2.54399958577061,
                            "duration" : 34
                          },
                          {
                            "endTime" : 5256,
                            "time" : 5216,
                            "value" : 1.0,
                            "duration" : 40
                          },
                          {
                            "endTime" : 5301,
                            "time" : 5260,
                            "value" : 1.83827268333693,
                            "duration" : 41
                          },
                          {
                            "endTime" : 5424,
                            "time" : 5394,
                            "value" : 3.0,
                            "duration" : 30
                          },
                          {
                            "endTime" : 5546,
                            "time" : 5516,
                            "value" : 1.0,
                            "duration" : 30
                          },
                          {
                            "endTime" : 5613,
                            "time" : 5583,
                            "value" : 2.83915442049899,
                            "duration" : 30
                          }
                        ]
                      },
                      "cursorOpacity" : 1.0,
                      "cursorScale" : 1.0
                    },
                    "medias" : [
                        {
                          "id" : 168,
                          "_type" : "ScreenVMFile",
                          "src" : 1,
                          "trackNumber" : 0,
                          "attributes" : {
                            "ident" : "handle_hijacking_attack_prevention"
                          },
                          "parameters" : {
                            "cursorScale" : {
                              "type" : "double",
                              "defaultValue" : 0.0,
                              "interp" : "linr"
                            },
                            "cursorOpacity" : {
                              "type" : "double",
                              "defaultValue" : 0.0,
                              "interp" : "linr"
                            }
                          },
                          "effects" : [

                          ],
                          "start" : 0,
                          "duration" : 2383,
                          "mediaStart" : 0,
                          "mediaDuration" : 2383,
                          "scalar" : 1,
                          "metadata" : {
                            "AutoAppliedSmartFocus" : "False",
                            "clipSpeedAttribute" : false,
                            "default-scale0" : 1.0,
                            "default-scale1" : 1.0,
                            "default-translation0" : 0.0,
                            "default-translation1" : 0.0
                          },
                          "animationTracks" : {

                          }
                        },
                        {
                          "id" : 169,
                          "_type" : "ScreenIMFile",
                          "src" : 1,
                          "trackNumber" : 0,
                          "trimStartSum" : 0,
                          "attributes" : {
                            "ident" : "handle_hijacking_attack_prevention"
                          },
                          "parameters" : {
                            "cursorOpacity" : 0.0,
                            "cursorScale" : 0.0
                          },
                          "effects" : [

                          ],
                          "start" : 2383,
                          "duration" : 60,
                          "mediaStart" : 2382,
                          "mediaDuration" : 1,
                          "scalar" : 1,
                          "metadata" : {
                            "AutoAppliedSmartFocus" : "False"
                          },
                          "animationTracks" : {

                          }
                        },
                        {
                          "id" : 170,
                          "_type" : "ScreenVMFile",
                          "src" : 1,
                          "trackNumber" : 0,
                          "attributes" : {
                            "ident" : "handle_hijacking_attack_prevention"
                          },
                          "parameters" : {
                            "cursorScale" : {
                              "type" : "double",
                              "defaultValue" : 0.0,
                              "interp" : "linr"
                            },
                            "cursorOpacity" : {
                              "type" : "double",
                              "defaultValue" : 0.0,
                              "interp" : "linr"
                            }
                          },
                          "effects" : [

                          ],
                          "start" : 2443,
                          "duration" : 2141,
                          "mediaStart" : 2383,
                          "mediaDuration" : 2141,
                          "scalar" : 1,
                          "metadata" : {
                            "AutoAppliedSmartFocus" : "False",
                            "clipSpeedAttribute" : false,
                            "default-scale0" : 1.0,
                            "default-scale1" : 1.0,
                            "default-translation0" : 0.0,
                            "default-translation1" : 0.0
                          },
                          "animationTracks" : {

                          }
                        },
                        {
                          "id" : 171,
                          "_type" : "ScreenIMFile",
                          "src" : 1,
                          "trackNumber" : 0,
                          "trimStartSum" : 0,
                          "attributes" : {
                            "ident" : "handle_hijacking_attack_prevention"
                          },
                          "parameters" : {
                            "cursorOpacity" : 0.0,
                            "cursorScale" : 0.0
                          },
                          "effects" : [

                          ],
                          "start" : 4584,
                          "duration" : 60,
                          "mediaStart" : 4524,
                          "mediaDuration" : 1,
                          "scalar" : 1,
                          "metadata" : {
                            "AutoAppliedSmartFocus" : "False"
                          },
                          "animationTracks" : {

                          }
                        },
                        {
                          "id" : 172,
                          "_type" : "ScreenVMFile",
                          "src" : 1,
                          "trackNumber" : 0,
                          "attributes" : {
                            "ident" : "handle_hijacking_attack_prevention"
                          },
                          "parameters" : {
                            "cursorScale" : {
                              "type" : "double",
                              "defaultValue" : 0.0,
                              "interp" : "linr"
                            },
                            "cursorOpacity" : {
                              "type" : "double",
                              "defaultValue" : 0.0,
                              "interp" : "linr"
                            }
                          },
                          "effects" : [

                          ],
                          "start" : 4644,
                          "duration" : 233,
                          "mediaStart" : 4524,
                          "mediaDuration" : 233,
                          "scalar" : 1,
                          "metadata" : {
                            "AutoAppliedSmartFocus" : "False",
                            "clipSpeedAttribute" : false,
                            "default-scale0" : 1.0,
                            "default-scale1" : 1.0,
                            "default-translation0" : 0.0,
                            "default-translation1" : 0.0
                          },
                          "animationTracks" : {

                          }
                        },
                        {
                          "id" : 173,
                          "_type" : "ScreenVMFile",
                          "src" : 1,
                          "trackNumber" : 0,
                          "attributes" : {
                            "ident" : "handle_hijacking_attack_prevention"
                          },
                          "parameters" : {
                            "cursorScale" : {
                              "type" : "double",
                              "defaultValue" : 0.0,
                              "interp" : "linr"
                            },
                            "cursorOpacity" : {
                              "type" : "double",
                              "defaultValue" : 0.0,
                              "interp" : "linr"
                            }
                          },
                          "effects" : [

                          ],
                          "start" : 4877,
                          "duration" : 581,
                          "mediaStart" : 4807,
                          "mediaDuration" : 581,
                          "scalar" : 1,
                          "metadata" : {
                            "AutoAppliedSmartFocus" : "False",
                            "clipSpeedAttribute" : false,
                            "default-scale0" : 1.0,
                            "default-scale1" : 1.0,
                            "default-translation0" : 0.0,
                            "default-translation1" : 0.0
                          },
                          "animationTracks" : {

                          }
                        },
                        {
                          "id" : 174,
                          "_type" : "ScreenIMFile",
                          "src" : 1,
                          "trackNumber" : 0,
                          "trimStartSum" : 0,
                          "attributes" : {
                            "ident" : "handle_hijacking_attack_prevention"
                          },
                          "parameters" : {
                            "cursorOpacity" : 0.0,
                            "cursorScale" : 0.0
                          },
                          "effects" : [

                          ],
                          "start" : 5458,
                          "duration" : 60,
                          "mediaStart" : 5388,
                          "mediaDuration" : 1,
                          "scalar" : 1,
                          "metadata" : {
                            "AutoAppliedSmartFocus" : "False"
                          },
                          "animationTracks" : {

                          }
                        },
                        {
                          "id" : 175,
                          "_type" : "ScreenVMFile",
                          "src" : 1,
                          "trackNumber" : 0,
                          "attributes" : {
                            "ident" : "handle_hijacking_attack_prevention"
                          },
                          "parameters" : {
                            "cursorScale" : {
                              "type" : "double",
                              "defaultValue" : 0.0,
                              "interp" : "linr"
                            },
                            "cursorOpacity" : {
                              "type" : "double",
                              "defaultValue" : 0.0,
                              "interp" : "linr"
                            }
                          },
                          "effects" : [

                          ],
                          "start" : 5518,
                          "duration" : 1481,
                          "mediaStart" : 5388,
                          "mediaDuration" : 1481,
                          "scalar" : 1,
                          "metadata" : {
                            "AutoAppliedSmartFocus" : "False",
                            "clipSpeedAttribute" : false,
                            "default-scale0" : 1.0,
                            "default-scale1" : 1.0,
                            "default-translation0" : 0.0,
                            "default-translation1" : 0.0
                          },
                          "animationTracks" : {

                          }
                        }
                    ],
                    "effects" : [
                        {
                          "effectName" : "CursorHilight",
                          "category" : "categoryCursorEffects",
                          "parameters" : {
                            "blur" : 0.1,
                            "color-alpha" : 0.75,
                            "color-blue" : 0.0,
                            "color-green" : 1.0,
                            "color-red" : 1.0,
                            "radius" : 50.0
                          }
                        }
                    ],
                    "start" : 3280,
                    "duration" : 86,
                    "mediaStart" : 5390,
                    "mediaDuration" : 86,
                    "scalar" : 1,
                    "metadata" : {
                      "AutoAppliedSmartFocus" : "False",
                      "clipSpeedAttribute" : false,
                      "default-scale0" : 2.9999982078393,
                      "default-scale1" : 3.0,
                      "default-translation0" : 1794.65403755581,
                      "default-translation1" : 175.346948293544
                    },
                    "animationTracks" : {
                      "visual" : [
                        {
                          "endTime" : 242,
                          "duration" : 30,
                          "range" : [ 212, 30]
                        },
                        {
                          "endTime" : 332,
                          "duration" : 30,
                          "range" : [ 302, 30]
                        },
                        {
                          "endTime" : 1240,
                          "duration" : 30,
                          "range" : [ 1210, 30]
                        },
                        {
                          "endTime" : 1493,
                          "duration" : 30,
                          "range" : [ 1463, 30]
                        },
                        {
                          "endTime" : 2029,
                          "duration" : 26,
                          "range" : [ 2003, 26]
                        },
                        {
                          "endTime" : 2478,
                          "duration" : 30,
                          "range" : [ 2448, 30]
                        },
                        {
                          "endTime" : 3060,
                          "duration" : 30,
                          "range" : [ 3030, 30]
                        },
                        {
                          "endTime" : 3378,
                          "duration" : 30,
                          "range" : [ 3348, 30]
                        },
                        {
                          "endTime" : 3752,
                          "duration" : 49,
                          "range" : [ 3703, 49]
                        },
                        {
                          "endTime" : 3826,
                          "duration" : 46,
                          "range" : [ 3780, 46]
                        },
                        {
                          "endTime" : 3943,
                          "duration" : 30,
                          "range" : [ 3913, 30]
                        },
                        {
                          "endTime" : 3982,
                          "duration" : 30,
                          "range" : [ 3952, 30]
                        },
                        {
                          "endTime" : 4297,
                          "duration" : 34,
                          "range" : [ 4263, 34]
                        },
                        {
                          "endTime" : 5256,
                          "duration" : 40,
                          "range" : [ 5216, 40]
                        },
                        {
                          "endTime" : 5301,
                          "duration" : 41,
                          "range" : [ 5260, 41]
                        },
                        {
                          "endTime" : 5424,
                          "duration" : 30,
                          "range" : [ 5394, 30]
                        },
                        {
                          "endTime" : 5546,
                          "duration" : 30,
                          "range" : [ 5516, 30]
                        },
                        {
                          "endTime" : 5613,
                          "duration" : 30,
                          "range" : [ 5583, 30]
                        }
                      ]
                    }
                  },
                  {
                    "id" : 176,
                    "_type" : "StitchedMedia",
                    "minMediaStart" : 0,
                    "attributes" : {
                      "ident" : "handle_hijacking_attack_prevention",
                      "gain" : 1.0,
                      "mixToMono" : false
                    },
                    "parameters" : {
                      "translation0" : {
                        "type" : "double",
                        "defaultValue" : 0.0,
                        "keyframes" : [
                          {
                            "endTime" : 242,
                            "time" : 212,
                            "value" : 4445.6304568441,
                            "duration" : 30
                          },
                          {
                            "endTime" : 332,
                            "time" : 302,
                            "value" : -7.95807864051312e-13,
                            "duration" : 30
                          },
                          {
                            "endTime" : 1240,
                            "time" : 1210,
                            "value" : 1813.23805555168,
                            "duration" : 30
                          },
                          {
                            "endTime" : 1493,
                            "time" : 1463,
                            "value" : 1769.1,
                            "duration" : 30
                          },
                          {
                            "endTime" : 2029,
                            "time" : 2003,
                            "value" : 1769.08221838715,
                            "duration" : 26
                          },
                          {
                            "endTime" : 2478,
                            "time" : 2448,
                            "value" : -1.13686837721616e-13,
                            "duration" : 30
                          },
                          {
                            "endTime" : 3060,
                            "time" : 3030,
                            "value" : -927.066246510699,
                            "duration" : 30
                          },
                          {
                            "endTime" : 3378,
                            "time" : 3348,
                            "value" : -927.1,
                            "duration" : 30
                          },
                          {
                            "endTime" : 3752,
                            "time" : 3703,
                            "value" : 1.13686837721616e-13,
                            "duration" : 49
                          },
                          {
                            "endTime" : 3826,
                            "time" : 3780,
                            "value" : 2190.48664188307,
                            "duration" : 46
                          },
                          {
                            "endTime" : 3943,
                            "time" : 3913,
                            "value" : 2.27373675443232e-13,
                            "duration" : 30
                          },
                          {
                            "endTime" : 3982,
                            "time" : 3952,
                            "value" : -927.1,
                            "duration" : 30
                          },
                          {
                            "endTime" : 4297,
                            "time" : 4263,
                            "value" : -927.1,
                            "duration" : 34
                          },
                          {
                            "endTime" : 5256,
                            "time" : 5216,
                            "value" : 5.6843418860808e-14,
                            "duration" : 40
                          },
                          {
                            "endTime" : 5301,
                            "time" : 5260,
                            "value" : 680.367023205802,
                            "duration" : 41
                          },
                          {
                            "endTime" : 5424,
                            "time" : 5394,
                            "value" : 1794.65403755581,
                            "duration" : 30
                          },
                          {
                            "endTime" : 5723,
                            "time" : 5708,
                            "value" : 1778.70155722198,
                            "duration" : 15
                          },
                          {
                            "endTime" : 5751,
                            "time" : 5723,
                            "value" : -3.41060513164848e-13,
                            "duration" : 28
                          },
                          {
                            "endTime" : 5818,
                            "time" : 5788,
                            "value" : -877.024502523768,
                            "duration" : 30
                          }
                        ]
                      },
                      "translation1" : {
                        "type" : "double",
                        "defaultValue" : 0.0,
                        "keyframes" : [
                          {
                            "endTime" : 242,
                            "time" : 212,
                            "value" : -2101.5592739797,
                            "duration" : 30
                          },
                          {
                            "endTime" : 332,
                            "time" : 302,
                            "value" : 4.54747350886464e-13,
                            "duration" : 30
                          },
                          {
                            "endTime" : 1240,
                            "time" : 1210,
                            "value" : 0.0,
                            "duration" : 30
                          },
                          {
                            "endTime" : 1493,
                            "time" : 1463,
                            "value" : 764.586721975313,
                            "duration" : 30
                          },
                          {
                            "endTime" : 2029,
                            "time" : 2003,
                            "value" : 955.733402469141,
                            "duration" : 26
                          },
                          {
                            "endTime" : 2478,
                            "time" : 2448,
                            "value" : -5.6843418860808e-14,
                            "duration" : 30
                          },
                          {
                            "endTime" : 3060,
                            "time" : 3030,
                            "value" : 51.6923109282546,
                            "duration" : 30
                          },
                          {
                            "endTime" : 3378,
                            "time" : 3348,
                            "value" : 793.192387394355,
                            "duration" : 30
                          },
                          {
                            "endTime" : 3752,
                            "time" : 3703,
                            "value" : 0.0,
                            "duration" : 49
                          },
                          {
                            "endTime" : 3826,
                            "time" : 3780,
                            "value" : 525.407539085336,
                            "duration" : 46
                          },
                          {
                            "endTime" : 3943,
                            "time" : 3913,
                            "value" : -8.5265128291212e-14,
                            "duration" : 30
                          },
                          {
                            "endTime" : 3982,
                            "time" : 3952,
                            "value" : 693.2,
                            "duration" : 30
                          },
                          {
                            "endTime" : 4297,
                            "time" : 4263,
                            "value" : 796.601448181272,
                            "duration" : 34
                          },
                          {
                            "endTime" : 5256,
                            "time" : 5216,
                            "value" : 0.0,
                            "duration" : 40
                          },
                          {
                            "endTime" : 5301,
                            "time" : 5260,
                            "value" : 382.706644741061,
                            "duration" : 41
                          },
                          {
                            "endTime" : 5424,
                            "time" : 5394,
                            "value" : 175.346948293544,
                            "duration" : 30
                          },
                          {
                            "endTime" : 5723,
                            "time" : 5708,
                            "value" : 173.788308753157,
                            "duration" : 15
                          },
                          {
                            "endTime" : 5751,
                            "time" : 5723,
                            "value" : -1.27897692436818e-13,
                            "duration" : 28
                          },
                          {
                            "endTime" : 5818,
                            "time" : 5788,
                            "value" : 908.758378625847,
                            "duration" : 30
                          }
                        ]
                      },
                      "scale0" : {
                        "type" : "double",
                        "defaultValue" : 1.0,
                        "keyframes" : [
                          {
                            "endTime" : 242,
                            "time" : 212,
                            "value" : 4.90967434857952,
                            "duration" : 30
                          },
                          {
                            "endTime" : 332,
                            "time" : 302,
                            "value" : 0.99999957889657,
                            "duration" : 30
                          },
                          {
                            "endTime" : 1240,
                            "time" : 1210,
                            "value" : 2.93925764732581,
                            "duration" : 30
                          },
                          {
                            "endTime" : 1493,
                            "time" : 1463,
                            "value" : 2.93925755430459,
                            "duration" : 30
                          },
                          {
                            "endTime" : 2029,
                            "time" : 2003,
                            "value" : 2.93925746128338,
                            "duration" : 26
                          },
                          {
                            "endTime" : 2478,
                            "time" : 2448,
                            "value" : 0.999999315951539,
                            "duration" : 30
                          },
                          {
                            "endTime" : 3060,
                            "time" : 3030,
                            "value" : 2.54358807927679,
                            "duration" : 30
                          },
                          {
                            "endTime" : 3378,
                            "time" : 3348,
                            "value" : 2.5435882186022,
                            "duration" : 30
                          },
                          {
                            "endTime" : 3752,
                            "time" : 3703,
                            "value" : 0.999999337858405,
                            "duration" : 49
                          },
                          {
                            "endTime" : 3826,
                            "time" : 3780,
                            "value" : 3.2977262743969,
                            "duration" : 46
                          },
                          {
                            "endTime" : 3943,
                            "time" : 3913,
                            "value" : 0.999999616666313,
                            "duration" : 30
                          },
                          {
                            "endTime" : 3982,
                            "time" : 3952,
                            "value" : 2.5439982822715,
                            "duration" : 30
                          },
                          {
                            "endTime" : 4297,
                            "time" : 4263,
                            "value" : 2.54399842552367,
                            "duration" : 34
                          },
                          {
                            "endTime" : 5256,
                            "time" : 5216,
                            "value" : 0.999999543928019,
                            "duration" : 40
                          },
                          {
                            "endTime" : 5301,
                            "time" : 5260,
                            "value" : 1.83827164662978,
                            "duration" : 41
                          },
                          {
                            "endTime" : 5424,
                            "time" : 5394,
                            "value" : 2.9999982078393,
                            "duration" : 30
                          },
                          {
                            "endTime" : 5723,
                            "time" : 5708,
                            "value" : 2.98222044068173,
                            "duration" : 15
                          },
                          {
                            "endTime" : 5751,
                            "time" : 5723,
                            "value" : 0.999999402613099,
                            "duration" : 28
                          },
                          {
                            "endTime" : 5818,
                            "time" : 5788,
                            "value" : 2.83915222221324,
                            "duration" : 30
                          }
                        ]
                      },
                      "scale1" : {
                        "type" : "double",
                        "defaultValue" : 1.0,
                        "keyframes" : [
                          {
                            "endTime" : 242,
                            "time" : 212,
                            "value" : 4.90967641606111,
                            "duration" : 30
                          },
                          {
                            "endTime" : 332,
                            "time" : 302,
                            "value" : 1.0,
                            "duration" : 30
                          },
                          {
                            "endTime" : 1240,
                            "time" : 1210,
                            "value" : 2.9392594718793,
                            "duration" : 30
                          },
                          {
                            "endTime" : 2029,
                            "time" : 2003,
                            "value" : 2.9392594718793,
                            "duration" : 26
                          },
                          {
                            "endTime" : 2478,
                            "time" : 2448,
                            "value" : 1.0,
                            "duration" : 30
                          },
                          {
                            "endTime" : 3060,
                            "time" : 3030,
                            "value" : 2.54358990281888,
                            "duration" : 30
                          },
                          {
                            "endTime" : 3752,
                            "time" : 3703,
                            "value" : 1.0,
                            "duration" : 49
                          },
                          {
                            "endTime" : 3826,
                            "time" : 3780,
                            "value" : 3.29772753852696,
                            "duration" : 46
                          },
                          {
                            "endTime" : 3943,
                            "time" : 3913,
                            "value" : 1.0,
                            "duration" : 30
                          },
                          {
                            "endTime" : 3982,
                            "time" : 3952,
                            "value" : 2.544,
                            "duration" : 30
                          },
                          {
                            "endTime" : 4297,
                            "time" : 4263,
                            "value" : 2.54399958577061,
                            "duration" : 34
                          },
                          {
                            "endTime" : 5256,
                            "time" : 5216,
                            "value" : 1.0,
                            "duration" : 40
                          },
                          {
                            "endTime" : 5301,
                            "time" : 5260,
                            "value" : 1.83827268333693,
                            "duration" : 41
                          },
                          {
                            "endTime" : 5424,
                            "time" : 5394,
                            "value" : 3.0,
                            "duration" : 30
                          },
                          {
                            "endTime" : 5723,
                            "time" : 5708,
                            "value" : 2.98222222222222,
                            "duration" : 15
                          },
                          {
                            "endTime" : 5751,
                            "time" : 5723,
                            "value" : 1.0,
                            "duration" : 28
                          },
                          {
                            "endTime" : 5818,
                            "time" : 5788,
                            "value" : 2.83915442049899,
                            "duration" : 30
                          }
                        ]
                      },
                      "cursorOpacity" : 1.0,
                      "cursorScale" : 1.0
                    },
                    "medias" : [
                        {
                          "id" : 177,
                          "_type" : "ScreenVMFile",
                          "src" : 1,
                          "trackNumber" : 0,
                          "attributes" : {
                            "ident" : "handle_hijacking_attack_prevention"
                          },
                          "parameters" : {
                            "cursorScale" : {
                              "type" : "double",
                              "defaultValue" : 0.0,
                              "interp" : "linr"
                            },
                            "cursorOpacity" : {
                              "type" : "double",
                              "defaultValue" : 0.0,
                              "interp" : "linr"
                            }
                          },
                          "effects" : [

                          ],
                          "start" : 0,
                          "duration" : 2383,
                          "mediaStart" : 0,
                          "mediaDuration" : 2383,
                          "scalar" : 1,
                          "metadata" : {
                            "AutoAppliedSmartFocus" : "False",
                            "clipSpeedAttribute" : false,
                            "default-scale0" : 1.0,
                            "default-scale1" : 1.0,
                            "default-translation0" : 0.0,
                            "default-translation1" : 0.0
                          },
                          "animationTracks" : {

                          }
                        },
                        {
                          "id" : 178,
                          "_type" : "ScreenIMFile",
                          "src" : 1,
                          "trackNumber" : 0,
                          "trimStartSum" : 0,
                          "attributes" : {
                            "ident" : "handle_hijacking_attack_prevention"
                          },
                          "parameters" : {
                            "cursorOpacity" : 0.0,
                            "cursorScale" : 0.0
                          },
                          "effects" : [

                          ],
                          "start" : 2383,
                          "duration" : 60,
                          "mediaStart" : 2382,
                          "mediaDuration" : 1,
                          "scalar" : 1,
                          "metadata" : {
                            "AutoAppliedSmartFocus" : "False"
                          },
                          "animationTracks" : {

                          }
                        },
                        {
                          "id" : 179,
                          "_type" : "ScreenVMFile",
                          "src" : 1,
                          "trackNumber" : 0,
                          "attributes" : {
                            "ident" : "handle_hijacking_attack_prevention"
                          },
                          "parameters" : {
                            "cursorScale" : {
                              "type" : "double",
                              "defaultValue" : 0.0,
                              "interp" : "linr"
                            },
                            "cursorOpacity" : {
                              "type" : "double",
                              "defaultValue" : 0.0,
                              "interp" : "linr"
                            }
                          },
                          "effects" : [

                          ],
                          "start" : 2443,
                          "duration" : 2141,
                          "mediaStart" : 2383,
                          "mediaDuration" : 2141,
                          "scalar" : 1,
                          "metadata" : {
                            "AutoAppliedSmartFocus" : "False",
                            "clipSpeedAttribute" : false,
                            "default-scale0" : 1.0,
                            "default-scale1" : 1.0,
                            "default-translation0" : 0.0,
                            "default-translation1" : 0.0
                          },
                          "animationTracks" : {

                          }
                        },
                        {
                          "id" : 180,
                          "_type" : "ScreenIMFile",
                          "src" : 1,
                          "trackNumber" : 0,
                          "trimStartSum" : 0,
                          "attributes" : {
                            "ident" : "handle_hijacking_attack_prevention"
                          },
                          "parameters" : {
                            "cursorOpacity" : 0.0,
                            "cursorScale" : 0.0
                          },
                          "effects" : [

                          ],
                          "start" : 4584,
                          "duration" : 60,
                          "mediaStart" : 4524,
                          "mediaDuration" : 1,
                          "scalar" : 1,
                          "metadata" : {
                            "AutoAppliedSmartFocus" : "False"
                          },
                          "animationTracks" : {

                          }
                        },
                        {
                          "id" : 181,
                          "_type" : "ScreenVMFile",
                          "src" : 1,
                          "trackNumber" : 0,
                          "attributes" : {
                            "ident" : "handle_hijacking_attack_prevention"
                          },
                          "parameters" : {
                            "cursorScale" : {
                              "type" : "double",
                              "defaultValue" : 0.0,
                              "interp" : "linr"
                            },
                            "cursorOpacity" : {
                              "type" : "double",
                              "defaultValue" : 0.0,
                              "interp" : "linr"
                            }
                          },
                          "effects" : [

                          ],
                          "start" : 4644,
                          "duration" : 233,
                          "mediaStart" : 4524,
                          "mediaDuration" : 233,
                          "scalar" : 1,
                          "metadata" : {
                            "AutoAppliedSmartFocus" : "False",
                            "clipSpeedAttribute" : false,
                            "default-scale0" : 1.0,
                            "default-scale1" : 1.0,
                            "default-translation0" : 0.0,
                            "default-translation1" : 0.0
                          },
                          "animationTracks" : {

                          }
                        },
                        {
                          "id" : 182,
                          "_type" : "ScreenVMFile",
                          "src" : 1,
                          "trackNumber" : 0,
                          "attributes" : {
                            "ident" : "handle_hijacking_attack_prevention"
                          },
                          "parameters" : {
                            "cursorScale" : {
                              "type" : "double",
                              "defaultValue" : 0.0,
                              "interp" : "linr"
                            },
                            "cursorOpacity" : {
                              "type" : "double",
                              "defaultValue" : 0.0,
                              "interp" : "linr"
                            }
                          },
                          "effects" : [

                          ],
                          "start" : 4877,
                          "duration" : 581,
                          "mediaStart" : 4807,
                          "mediaDuration" : 581,
                          "scalar" : 1,
                          "metadata" : {
                            "AutoAppliedSmartFocus" : "False",
                            "clipSpeedAttribute" : false,
                            "default-scale0" : 1.0,
                            "default-scale1" : 1.0,
                            "default-translation0" : 0.0,
                            "default-translation1" : 0.0
                          },
                          "animationTracks" : {

                          }
                        },
                        {
                          "id" : 183,
                          "_type" : "ScreenIMFile",
                          "src" : 1,
                          "trackNumber" : 0,
                          "trimStartSum" : 0,
                          "attributes" : {
                            "ident" : "handle_hijacking_attack_prevention"
                          },
                          "parameters" : {
                            "cursorOpacity" : 0.0,
                            "cursorScale" : 0.0
                          },
                          "effects" : [

                          ],
                          "start" : 5458,
                          "duration" : 265,
                          "mediaStart" : 5388,
                          "mediaDuration" : 1,
                          "scalar" : 1,
                          "metadata" : {
                            "AutoAppliedSmartFocus" : "False"
                          },
                          "animationTracks" : {

                          }
                        },
                        {
                          "id" : 184,
                          "_type" : "ScreenVMFile",
                          "src" : 1,
                          "trackNumber" : 0,
                          "attributes" : {
                            "ident" : "handle_hijacking_attack_prevention"
                          },
                          "parameters" : {
                            "cursorScale" : {
                              "type" : "double",
                              "defaultValue" : 0.0,
                              "interp" : "linr"
                            },
                            "cursorOpacity" : {
                              "type" : "double",
                              "defaultValue" : 0.0,
                              "interp" : "linr"
                            }
                          },
                          "effects" : [

                          ],
                          "start" : 5723,
                          "duration" : 1481,
                          "mediaStart" : 5388,
                          "mediaDuration" : 1481,
                          "scalar" : 1,
                          "metadata" : {
                            "AutoAppliedSmartFocus" : "False",
                            "clipSpeedAttribute" : false,
                            "default-scale0" : 1.0,
                            "default-scale1" : 1.0,
                            "default-translation0" : 0.0,
                            "default-translation1" : 0.0
                          },
                          "animationTracks" : {

                          }
                        }
                    ],
                    "effects" : [
                        {
                          "effectName" : "CursorHilight",
                          "category" : "categoryCursorEffects",
                          "parameters" : {
                            "blur" : 0.1,
                            "color-alpha" : 0.75,
                            "color-blue" : 0.0,
                            "color-green" : 1.0,
                            "color-red" : 1.0,
                            "radius" : 50.0
                          }
                        }
                    ],
                    "start" : 3366,
                    "duration" : 210,
                    "mediaStart" : 5476,
                    "mediaDuration" : 210,
                    "scalar" : 1,
                    "metadata" : {
                      "AutoAppliedSmartFocus" : "False",
                      "clipSpeedAttribute" : false
                    },
                    "animationTracks" : {
                      "visual" : [
                        {
                          "endTime" : 242,
                          "duration" : 30,
                          "range" : [ 212, 30]
                        },
                        {
                          "endTime" : 332,
                          "duration" : 30,
                          "range" : [ 302, 30]
                        },
                        {
                          "endTime" : 1240,
                          "duration" : 30,
                          "range" : [ 1210, 30]
                        },
                        {
                          "endTime" : 1493,
                          "duration" : 30,
                          "range" : [ 1463, 30]
                        },
                        {
                          "endTime" : 2029,
                          "duration" : 26,
                          "range" : [ 2003, 26]
                        },
                        {
                          "endTime" : 2478,
                          "duration" : 30,
                          "range" : [ 2448, 30]
                        },
                        {
                          "endTime" : 3060,
                          "duration" : 30,
                          "range" : [ 3030, 30]
                        },
                        {
                          "endTime" : 3378,
                          "duration" : 30,
                          "range" : [ 3348, 30]
                        },
                        {
                          "endTime" : 3752,
                          "duration" : 49,
                          "range" : [ 3703, 49]
                        },
                        {
                          "endTime" : 3826,
                          "duration" : 46,
                          "range" : [ 3780, 46]
                        },
                        {
                          "endTime" : 3943,
                          "duration" : 30,
                          "range" : [ 3913, 30]
                        },
                        {
                          "endTime" : 3982,
                          "duration" : 30,
                          "range" : [ 3952, 30]
                        },
                        {
                          "endTime" : 4297,
                          "duration" : 34,
                          "range" : [ 4263, 34]
                        },
                        {
                          "endTime" : 5256,
                          "duration" : 40,
                          "range" : [ 5216, 40]
                        },
                        {
                          "endTime" : 5301,
                          "duration" : 41,
                          "range" : [ 5260, 41]
                        },
                        {
                          "endTime" : 5424,
                          "duration" : 30,
                          "range" : [ 5394, 30]
                        },
                        {
                          "endTime" : 5723,
                          "duration" : 15,
                          "range" : [ 5708, 15]
                        },
                        {
                          "endTime" : 5751,
                          "duration" : 28,
                          "range" : [ 5723, 28]
                        },
                        {
                          "endTime" : 5818,
                          "duration" : 30,
                          "range" : [ 5788, 30]
                        }
                      ]
                    }
                  },
                  {
                    "id" : 185,
                    "_type" : "StitchedMedia",
                    "minMediaStart" : 0,
                    "attributes" : {
                      "ident" : "handle_hijacking_attack_prevention",
                      "gain" : 1.0,
                      "mixToMono" : false
                    },
                    "parameters" : {
                      "translation0" : {
                        "type" : "double",
                        "defaultValue" : 0.0,
                        "keyframes" : [
                          {
                            "endTime" : 242,
                            "time" : 212,
                            "value" : 4445.6304568441,
                            "duration" : 30
                          },
                          {
                            "endTime" : 332,
                            "time" : 302,
                            "value" : -7.95807864051312e-13,
                            "duration" : 30
                          },
                          {
                            "endTime" : 1240,
                            "time" : 1210,
                            "value" : 1813.23805555168,
                            "duration" : 30
                          },
                          {
                            "endTime" : 1493,
                            "time" : 1463,
                            "value" : 1769.1,
                            "duration" : 30
                          },
                          {
                            "endTime" : 2029,
                            "time" : 2003,
                            "value" : 1769.08221838715,
                            "duration" : 26
                          },
                          {
                            "endTime" : 2478,
                            "time" : 2448,
                            "value" : -1.13686837721616e-13,
                            "duration" : 30
                          },
                          {
                            "endTime" : 3060,
                            "time" : 3030,
                            "value" : -927.066246510699,
                            "duration" : 30
                          },
                          {
                            "endTime" : 3378,
                            "time" : 3348,
                            "value" : -927.1,
                            "duration" : 30
                          },
                          {
                            "endTime" : 3752,
                            "time" : 3703,
                            "value" : 1.13686837721616e-13,
                            "duration" : 49
                          },
                          {
                            "endTime" : 3826,
                            "time" : 3780,
                            "value" : 2190.48664188307,
                            "duration" : 46
                          },
                          {
                            "endTime" : 3943,
                            "time" : 3913,
                            "value" : 2.27373675443232e-13,
                            "duration" : 30
                          },
                          {
                            "endTime" : 3982,
                            "time" : 3952,
                            "value" : -927.1,
                            "duration" : 30
                          },
                          {
                            "endTime" : 4297,
                            "time" : 4263,
                            "value" : -927.1,
                            "duration" : 34
                          },
                          {
                            "endTime" : 5256,
                            "time" : 5216,
                            "value" : 5.6843418860808e-14,
                            "duration" : 40
                          },
                          {
                            "endTime" : 5301,
                            "time" : 5260,
                            "value" : 680.367023205802,
                            "duration" : 41
                          },
                          {
                            "endTime" : 5424,
                            "time" : 5394,
                            "value" : 1794.65403755581,
                            "duration" : 30
                          },
                          {
                            "endTime" : 5546,
                            "time" : 5516,
                            "value" : -3.41060513164848e-13,
                            "duration" : 30
                          },
                          {
                            "endTime" : 5613,
                            "time" : 5583,
                            "value" : -877.024502523768,
                            "duration" : 30
                          }
                        ]
                      },
                      "translation1" : {
                        "type" : "double",
                        "defaultValue" : 0.0,
                        "keyframes" : [
                          {
                            "endTime" : 242,
                            "time" : 212,
                            "value" : -2101.5592739797,
                            "duration" : 30
                          },
                          {
                            "endTime" : 332,
                            "time" : 302,
                            "value" : 4.54747350886464e-13,
                            "duration" : 30
                          },
                          {
                            "endTime" : 1240,
                            "time" : 1210,
                            "value" : 0.0,
                            "duration" : 30
                          },
                          {
                            "endTime" : 1493,
                            "time" : 1463,
                            "value" : 764.586721975313,
                            "duration" : 30
                          },
                          {
                            "endTime" : 2029,
                            "time" : 2003,
                            "value" : 955.733402469141,
                            "duration" : 26
                          },
                          {
                            "endTime" : 2478,
                            "time" : 2448,
                            "value" : -5.6843418860808e-14,
                            "duration" : 30
                          },
                          {
                            "endTime" : 3060,
                            "time" : 3030,
                            "value" : 51.6923109282546,
                            "duration" : 30
                          },
                          {
                            "endTime" : 3378,
                            "time" : 3348,
                            "value" : 793.192387394355,
                            "duration" : 30
                          },
                          {
                            "endTime" : 3752,
                            "time" : 3703,
                            "value" : 0.0,
                            "duration" : 49
                          },
                          {
                            "endTime" : 3826,
                            "time" : 3780,
                            "value" : 525.407539085336,
                            "duration" : 46
                          },
                          {
                            "endTime" : 3943,
                            "time" : 3913,
                            "value" : -8.5265128291212e-14,
                            "duration" : 30
                          },
                          {
                            "endTime" : 3982,
                            "time" : 3952,
                            "value" : 693.2,
                            "duration" : 30
                          },
                          {
                            "endTime" : 4297,
                            "time" : 4263,
                            "value" : 796.601448181272,
                            "duration" : 34
                          },
                          {
                            "endTime" : 5256,
                            "time" : 5216,
                            "value" : 0.0,
                            "duration" : 40
                          },
                          {
                            "endTime" : 5301,
                            "time" : 5260,
                            "value" : 382.706644741061,
                            "duration" : 41
                          },
                          {
                            "endTime" : 5424,
                            "time" : 5394,
                            "value" : 175.346948293544,
                            "duration" : 30
                          },
                          {
                            "endTime" : 5546,
                            "time" : 5516,
                            "value" : -1.27897692436818e-13,
                            "duration" : 30
                          },
                          {
                            "endTime" : 5613,
                            "time" : 5583,
                            "value" : 908.758378625847,
                            "duration" : 30
                          }
                        ]
                      },
                      "scale0" : {
                        "type" : "double",
                        "defaultValue" : 1.0,
                        "keyframes" : [
                          {
                            "endTime" : 242,
                            "time" : 212,
                            "value" : 4.90967434857952,
                            "duration" : 30
                          },
                          {
                            "endTime" : 332,
                            "time" : 302,
                            "value" : 0.99999957889657,
                            "duration" : 30
                          },
                          {
                            "endTime" : 1240,
                            "time" : 1210,
                            "value" : 2.93925764732581,
                            "duration" : 30
                          },
                          {
                            "endTime" : 1493,
                            "time" : 1463,
                            "value" : 2.93925755430459,
                            "duration" : 30
                          },
                          {
                            "endTime" : 2029,
                            "time" : 2003,
                            "value" : 2.93925746128338,
                            "duration" : 26
                          },
                          {
                            "endTime" : 2478,
                            "time" : 2448,
                            "value" : 0.999999315951539,
                            "duration" : 30
                          },
                          {
                            "endTime" : 3060,
                            "time" : 3030,
                            "value" : 2.54358807927679,
                            "duration" : 30
                          },
                          {
                            "endTime" : 3378,
                            "time" : 3348,
                            "value" : 2.5435882186022,
                            "duration" : 30
                          },
                          {
                            "endTime" : 3752,
                            "time" : 3703,
                            "value" : 0.999999337858405,
                            "duration" : 49
                          },
                          {
                            "endTime" : 3826,
                            "time" : 3780,
                            "value" : 3.2977262743969,
                            "duration" : 46
                          },
                          {
                            "endTime" : 3943,
                            "time" : 3913,
                            "value" : 0.999999616666313,
                            "duration" : 30
                          },
                          {
                            "endTime" : 3982,
                            "time" : 3952,
                            "value" : 2.5439982822715,
                            "duration" : 30
                          },
                          {
                            "endTime" : 4297,
                            "time" : 4263,
                            "value" : 2.54399842552367,
                            "duration" : 34
                          },
                          {
                            "endTime" : 5256,
                            "time" : 5216,
                            "value" : 0.999999543928019,
                            "duration" : 40
                          },
                          {
                            "endTime" : 5301,
                            "time" : 5260,
                            "value" : 1.83827164662978,
                            "duration" : 41
                          },
                          {
                            "endTime" : 5424,
                            "time" : 5394,
                            "value" : 2.9999982078393,
                            "duration" : 30
                          },
                          {
                            "endTime" : 5546,
                            "time" : 5516,
                            "value" : 0.999999402613099,
                            "duration" : 30
                          },
                          {
                            "endTime" : 5613,
                            "time" : 5583,
                            "value" : 2.83915222221324,
                            "duration" : 30
                          }
                        ]
                      },
                      "scale1" : {
                        "type" : "double",
                        "defaultValue" : 1.0,
                        "keyframes" : [
                          {
                            "endTime" : 242,
                            "time" : 212,
                            "value" : 4.90967641606111,
                            "duration" : 30
                          },
                          {
                            "endTime" : 332,
                            "time" : 302,
                            "value" : 1.0,
                            "duration" : 30
                          },
                          {
                            "endTime" : 1240,
                            "time" : 1210,
                            "value" : 2.9392594718793,
                            "duration" : 30
                          },
                          {
                            "endTime" : 2029,
                            "time" : 2003,
                            "value" : 2.9392594718793,
                            "duration" : 26
                          },
                          {
                            "endTime" : 2478,
                            "time" : 2448,
                            "value" : 1.0,
                            "duration" : 30
                          },
                          {
                            "endTime" : 3060,
                            "time" : 3030,
                            "value" : 2.54358990281888,
                            "duration" : 30
                          },
                          {
                            "endTime" : 3752,
                            "time" : 3703,
                            "value" : 1.0,
                            "duration" : 49
                          },
                          {
                            "endTime" : 3826,
                            "time" : 3780,
                            "value" : 3.29772753852696,
                            "duration" : 46
                          },
                          {
                            "endTime" : 3943,
                            "time" : 3913,
                            "value" : 1.0,
                            "duration" : 30
                          },
                          {
                            "endTime" : 3982,
                            "time" : 3952,
                            "value" : 2.544,
                            "duration" : 30
                          },
                          {
                            "endTime" : 4297,
                            "time" : 4263,
                            "value" : 2.54399958577061,
                            "duration" : 34
                          },
                          {
                            "endTime" : 5256,
                            "time" : 5216,
                            "value" : 1.0,
                            "duration" : 40
                          },
                          {
                            "endTime" : 5301,
                            "time" : 5260,
                            "value" : 1.83827268333693,
                            "duration" : 41
                          },
                          {
                            "endTime" : 5424,
                            "time" : 5394,
                            "value" : 3.0,
                            "duration" : 30
                          },
                          {
                            "endTime" : 5546,
                            "time" : 5516,
                            "value" : 1.0,
                            "duration" : 30
                          },
                          {
                            "endTime" : 5613,
                            "time" : 5583,
                            "value" : 2.83915442049899,
                            "duration" : 30
                          }
                        ]
                      },
                      "cursorOpacity" : 1.0,
                      "cursorScale" : 1.0
                    },
                    "medias" : [
                        {
                          "id" : 186,
                          "_type" : "ScreenVMFile",
                          "src" : 1,
                          "trackNumber" : 0,
                          "attributes" : {
                            "ident" : "handle_hijacking_attack_prevention"
                          },
                          "parameters" : {
                            "cursorScale" : {
                              "type" : "double",
                              "defaultValue" : 0.0,
                              "interp" : "linr"
                            },
                            "cursorOpacity" : {
                              "type" : "double",
                              "defaultValue" : 0.0,
                              "interp" : "linr"
                            }
                          },
                          "effects" : [

                          ],
                          "start" : 0,
                          "duration" : 2383,
                          "mediaStart" : 0,
                          "mediaDuration" : 2383,
                          "scalar" : 1,
                          "metadata" : {
                            "AutoAppliedSmartFocus" : "False",
                            "clipSpeedAttribute" : false,
                            "default-scale0" : 1.0,
                            "default-scale1" : 1.0,
                            "default-translation0" : 0.0,
                            "default-translation1" : 0.0
                          },
                          "animationTracks" : {

                          }
                        },
                        {
                          "id" : 187,
                          "_type" : "ScreenIMFile",
                          "src" : 1,
                          "trackNumber" : 0,
                          "trimStartSum" : 0,
                          "attributes" : {
                            "ident" : "handle_hijacking_attack_prevention"
                          },
                          "parameters" : {
                            "cursorOpacity" : 0.0,
                            "cursorScale" : 0.0
                          },
                          "effects" : [

                          ],
                          "start" : 2383,
                          "duration" : 60,
                          "mediaStart" : 2382,
                          "mediaDuration" : 1,
                          "scalar" : 1,
                          "metadata" : {
                            "AutoAppliedSmartFocus" : "False"
                          },
                          "animationTracks" : {

                          }
                        },
                        {
                          "id" : 188,
                          "_type" : "ScreenVMFile",
                          "src" : 1,
                          "trackNumber" : 0,
                          "attributes" : {
                            "ident" : "handle_hijacking_attack_prevention"
                          },
                          "parameters" : {
                            "cursorScale" : {
                              "type" : "double",
                              "defaultValue" : 0.0,
                              "interp" : "linr"
                            },
                            "cursorOpacity" : {
                              "type" : "double",
                              "defaultValue" : 0.0,
                              "interp" : "linr"
                            }
                          },
                          "effects" : [

                          ],
                          "start" : 2443,
                          "duration" : 2141,
                          "mediaStart" : 2383,
                          "mediaDuration" : 2141,
                          "scalar" : 1,
                          "metadata" : {
                            "AutoAppliedSmartFocus" : "False",
                            "clipSpeedAttribute" : false,
                            "default-scale0" : 1.0,
                            "default-scale1" : 1.0,
                            "default-translation0" : 0.0,
                            "default-translation1" : 0.0
                          },
                          "animationTracks" : {

                          }
                        },
                        {
                          "id" : 189,
                          "_type" : "ScreenIMFile",
                          "src" : 1,
                          "trackNumber" : 0,
                          "trimStartSum" : 0,
                          "attributes" : {
                            "ident" : "handle_hijacking_attack_prevention"
                          },
                          "parameters" : {
                            "cursorOpacity" : 0.0,
                            "cursorScale" : 0.0
                          },
                          "effects" : [

                          ],
                          "start" : 4584,
                          "duration" : 60,
                          "mediaStart" : 4524,
                          "mediaDuration" : 1,
                          "scalar" : 1,
                          "metadata" : {
                            "AutoAppliedSmartFocus" : "False"
                          },
                          "animationTracks" : {

                          }
                        },
                        {
                          "id" : 190,
                          "_type" : "ScreenVMFile",
                          "src" : 1,
                          "trackNumber" : 0,
                          "attributes" : {
                            "ident" : "handle_hijacking_attack_prevention"
                          },
                          "parameters" : {
                            "cursorScale" : {
                              "type" : "double",
                              "defaultValue" : 0.0,
                              "interp" : "linr"
                            },
                            "cursorOpacity" : {
                              "type" : "double",
                              "defaultValue" : 0.0,
                              "interp" : "linr"
                            }
                          },
                          "effects" : [

                          ],
                          "start" : 4644,
                          "duration" : 233,
                          "mediaStart" : 4524,
                          "mediaDuration" : 233,
                          "scalar" : 1,
                          "metadata" : {
                            "AutoAppliedSmartFocus" : "False",
                            "clipSpeedAttribute" : false,
                            "default-scale0" : 1.0,
                            "default-scale1" : 1.0,
                            "default-translation0" : 0.0,
                            "default-translation1" : 0.0
                          },
                          "animationTracks" : {

                          }
                        },
                        {
                          "id" : 191,
                          "_type" : "ScreenVMFile",
                          "src" : 1,
                          "trackNumber" : 0,
                          "attributes" : {
                            "ident" : "handle_hijacking_attack_prevention"
                          },
                          "parameters" : {
                            "cursorScale" : {
                              "type" : "double",
                              "defaultValue" : 0.0,
                              "interp" : "linr"
                            },
                            "cursorOpacity" : {
                              "type" : "double",
                              "defaultValue" : 0.0,
                              "interp" : "linr"
                            }
                          },
                          "effects" : [

                          ],
                          "start" : 4877,
                          "duration" : 581,
                          "mediaStart" : 4807,
                          "mediaDuration" : 581,
                          "scalar" : 1,
                          "metadata" : {
                            "AutoAppliedSmartFocus" : "False",
                            "clipSpeedAttribute" : false,
                            "default-scale0" : 1.0,
                            "default-scale1" : 1.0,
                            "default-translation0" : 0.0,
                            "default-translation1" : 0.0
                          },
                          "animationTracks" : {

                          }
                        },
                        {
                          "id" : 192,
                          "_type" : "ScreenIMFile",
                          "src" : 1,
                          "trackNumber" : 0,
                          "trimStartSum" : 0,
                          "attributes" : {
                            "ident" : "handle_hijacking_attack_prevention"
                          },
                          "parameters" : {
                            "cursorOpacity" : 0.0,
                            "cursorScale" : 0.0
                          },
                          "effects" : [

                          ],
                          "start" : 5458,
                          "duration" : 60,
                          "mediaStart" : 5388,
                          "mediaDuration" : 1,
                          "scalar" : 1,
                          "metadata" : {
                            "AutoAppliedSmartFocus" : "False"
                          },
                          "animationTracks" : {

                          }
                        },
                        {
                          "id" : 193,
                          "_type" : "ScreenVMFile",
                          "src" : 1,
                          "trackNumber" : 0,
                          "attributes" : {
                            "ident" : "handle_hijacking_attack_prevention"
                          },
                          "parameters" : {
                            "cursorScale" : {
                              "type" : "double",
                              "defaultValue" : 0.0,
                              "interp" : "linr"
                            },
                            "cursorOpacity" : {
                              "type" : "double",
                              "defaultValue" : 0.0,
                              "interp" : "linr"
                            }
                          },
                          "effects" : [

                          ],
                          "start" : 5518,
                          "duration" : 1481,
                          "mediaStart" : 5388,
                          "mediaDuration" : 1481,
                          "scalar" : 1,
                          "metadata" : {
                            "AutoAppliedSmartFocus" : "False",
                            "clipSpeedAttribute" : false,
                            "default-scale0" : 1.0,
                            "default-scale1" : 1.0,
                            "default-translation0" : 0.0,
                            "default-translation1" : 0.0
                          },
                          "animationTracks" : {

                          }
                        }
                    ],
                    "effects" : [
                        {
                          "effectName" : "CursorHilight",
                          "category" : "categoryCursorEffects",
                          "parameters" : {
                            "blur" : 0.1,
                            "color-alpha" : 0.75,
                            "color-blue" : 0.0,
                            "color-green" : 1.0,
                            "color-red" : 1.0,
                            "radius" : 50.0
                          }
                        }
                    ],
                    "start" : 3576,
                    "duration" : 138,
                    "mediaStart" : 5481,
                    "mediaDuration" : 138,
                    "scalar" : 1,
                    "metadata" : {
                      "AutoAppliedSmartFocus" : "False",
                      "clipSpeedAttribute" : false,
                      "default-scale0" : 2.9999982078393,
                      "default-scale1" : 3.0,
                      "default-translation0" : 1794.65403755581,
                      "default-translation1" : 175.346948293544
                    },
                    "animationTracks" : {
                      "visual" : [
                        {
                          "endTime" : 242,
                          "duration" : 30,
                          "range" : [ 212, 30]
                        },
                        {
                          "endTime" : 332,
                          "duration" : 30,
                          "range" : [ 302, 30]
                        },
                        {
                          "endTime" : 1240,
                          "duration" : 30,
                          "range" : [ 1210, 30]
                        },
                        {
                          "endTime" : 1493,
                          "duration" : 30,
                          "range" : [ 1463, 30]
                        },
                        {
                          "endTime" : 2029,
                          "duration" : 26,
                          "range" : [ 2003, 26]
                        },
                        {
                          "endTime" : 2478,
                          "duration" : 30,
                          "range" : [ 2448, 30]
                        },
                        {
                          "endTime" : 3060,
                          "duration" : 30,
                          "range" : [ 3030, 30]
                        },
                        {
                          "endTime" : 3378,
                          "duration" : 30,
                          "range" : [ 3348, 30]
                        },
                        {
                          "endTime" : 3752,
                          "duration" : 49,
                          "range" : [ 3703, 49]
                        },
                        {
                          "endTime" : 3826,
                          "duration" : 46,
                          "range" : [ 3780, 46]
                        },
                        {
                          "endTime" : 3943,
                          "duration" : 30,
                          "range" : [ 3913, 30]
                        },
                        {
                          "endTime" : 3982,
                          "duration" : 30,
                          "range" : [ 3952, 30]
                        },
                        {
                          "endTime" : 4297,
                          "duration" : 34,
                          "range" : [ 4263, 34]
                        },
                        {
                          "endTime" : 5256,
                          "duration" : 40,
                          "range" : [ 5216, 40]
                        },
                        {
                          "endTime" : 5301,
                          "duration" : 41,
                          "range" : [ 5260, 41]
                        },
                        {
                          "endTime" : 5424,
                          "duration" : 30,
                          "range" : [ 5394, 30]
                        },
                        {
                          "endTime" : 5546,
                          "duration" : 30,
                          "range" : [ 5516, 30]
                        },
                        {
                          "endTime" : 5613,
                          "duration" : 30,
                          "range" : [ 5583, 30]
                        }
                      ]
                    }
                  },
                  {
                    "id" : 194,
                    "_type" : "StitchedMedia",
                    "minMediaStart" : 0,
                    "attributes" : {
                      "ident" : "handle_hijacking_attack_prevention",
                      "gain" : 1.0,
                      "mixToMono" : false
                    },
                    "parameters" : {
                      "translation0" : {
                        "type" : "double",
                        "defaultValue" : 0.0,
                        "keyframes" : [
                          {
                            "endTime" : 242,
                            "time" : 212,
                            "value" : 4445.6304568441,
                            "duration" : 30
                          },
                          {
                            "endTime" : 332,
                            "time" : 302,
                            "value" : -7.95807864051312e-13,
                            "duration" : 30
                          },
                          {
                            "endTime" : 1240,
                            "time" : 1210,
                            "value" : 1813.23805555168,
                            "duration" : 30
                          },
                          {
                            "endTime" : 1493,
                            "time" : 1463,
                            "value" : 1769.1,
                            "duration" : 30
                          },
                          {
                            "endTime" : 2029,
                            "time" : 2003,
                            "value" : 1769.08221838715,
                            "duration" : 26
                          },
                          {
                            "endTime" : 2478,
                            "time" : 2448,
                            "value" : -1.13686837721616e-13,
                            "duration" : 30
                          },
                          {
                            "endTime" : 3060,
                            "time" : 3030,
                            "value" : -927.066246510699,
                            "duration" : 30
                          },
                          {
                            "endTime" : 3378,
                            "time" : 3348,
                            "value" : -927.1,
                            "duration" : 30
                          },
                          {
                            "endTime" : 3752,
                            "time" : 3703,
                            "value" : 1.13686837721616e-13,
                            "duration" : 49
                          },
                          {
                            "endTime" : 3826,
                            "time" : 3780,
                            "value" : 2190.48664188307,
                            "duration" : 46
                          },
                          {
                            "endTime" : 3943,
                            "time" : 3913,
                            "value" : 2.27373675443232e-13,
                            "duration" : 30
                          },
                          {
                            "endTime" : 3982,
                            "time" : 3952,
                            "value" : -927.1,
                            "duration" : 30
                          },
                          {
                            "endTime" : 4297,
                            "time" : 4263,
                            "value" : -927.1,
                            "duration" : 34
                          },
                          {
                            "endTime" : 5256,
                            "time" : 5216,
                            "value" : 5.6843418860808e-14,
                            "duration" : 40
                          },
                          {
                            "endTime" : 5301,
                            "time" : 5260,
                            "value" : 680.367023205802,
                            "duration" : 41
                          },
                          {
                            "endTime" : 5424,
                            "time" : 5394,
                            "value" : 1794.65403755581,
                            "duration" : 30
                          },
                          {
                            "endTime" : 5546,
                            "time" : 5516,
                            "value" : -3.41060513164848e-13,
                            "duration" : 30
                          },
                          {
                            "endTime" : 5613,
                            "time" : 5583,
                            "value" : -877.024502523768,
                            "duration" : 30
                          }
                        ]
                      },
                      "translation1" : {
                        "type" : "double",
                        "defaultValue" : 0.0,
                        "keyframes" : [
                          {
                            "endTime" : 242,
                            "time" : 212,
                            "value" : -2101.5592739797,
                            "duration" : 30
                          },
                          {
                            "endTime" : 332,
                            "time" : 302,
                            "value" : 4.54747350886464e-13,
                            "duration" : 30
                          },
                          {
                            "endTime" : 1240,
                            "time" : 1210,
                            "value" : 0.0,
                            "duration" : 30
                          },
                          {
                            "endTime" : 1493,
                            "time" : 1463,
                            "value" : 764.586721975313,
                            "duration" : 30
                          },
                          {
                            "endTime" : 2029,
                            "time" : 2003,
                            "value" : 955.733402469141,
                            "duration" : 26
                          },
                          {
                            "endTime" : 2478,
                            "time" : 2448,
                            "value" : -5.6843418860808e-14,
                            "duration" : 30
                          },
                          {
                            "endTime" : 3060,
                            "time" : 3030,
                            "value" : 51.6923109282546,
                            "duration" : 30
                          },
                          {
                            "endTime" : 3378,
                            "time" : 3348,
                            "value" : 793.192387394355,
                            "duration" : 30
                          },
                          {
                            "endTime" : 3752,
                            "time" : 3703,
                            "value" : 0.0,
                            "duration" : 49
                          },
                          {
                            "endTime" : 3826,
                            "time" : 3780,
                            "value" : 525.407539085336,
                            "duration" : 46
                          },
                          {
                            "endTime" : 3943,
                            "time" : 3913,
                            "value" : -8.5265128291212e-14,
                            "duration" : 30
                          },
                          {
                            "endTime" : 3982,
                            "time" : 3952,
                            "value" : 693.2,
                            "duration" : 30
                          },
                          {
                            "endTime" : 4297,
                            "time" : 4263,
                            "value" : 796.601448181272,
                            "duration" : 34
                          },
                          {
                            "endTime" : 5256,
                            "time" : 5216,
                            "value" : 0.0,
                            "duration" : 40
                          },
                          {
                            "endTime" : 5301,
                            "time" : 5260,
                            "value" : 382.706644741061,
                            "duration" : 41
                          },
                          {
                            "endTime" : 5424,
                            "time" : 5394,
                            "value" : 175.346948293544,
                            "duration" : 30
                          },
                          {
                            "endTime" : 5546,
                            "time" : 5516,
                            "value" : -1.27897692436818e-13,
                            "duration" : 30
                          },
                          {
                            "endTime" : 5613,
                            "time" : 5583,
                            "value" : 908.758378625847,
                            "duration" : 30
                          }
                        ]
                      },
                      "scale0" : {
                        "type" : "double",
                        "defaultValue" : 1.0,
                        "keyframes" : [
                          {
                            "endTime" : 242,
                            "time" : 212,
                            "value" : 4.90967434857952,
                            "duration" : 30
                          },
                          {
                            "endTime" : 332,
                            "time" : 302,
                            "value" : 0.99999957889657,
                            "duration" : 30
                          },
                          {
                            "endTime" : 1240,
                            "time" : 1210,
                            "value" : 2.93925764732581,
                            "duration" : 30
                          },
                          {
                            "endTime" : 1493,
                            "time" : 1463,
                            "value" : 2.93925755430459,
                            "duration" : 30
                          },
                          {
                            "endTime" : 2029,
                            "time" : 2003,
                            "value" : 2.93925746128338,
                            "duration" : 26
                          },
                          {
                            "endTime" : 2478,
                            "time" : 2448,
                            "value" : 0.999999315951539,
                            "duration" : 30
                          },
                          {
                            "endTime" : 3060,
                            "time" : 3030,
                            "value" : 2.54358807927679,
                            "duration" : 30
                          },
                          {
                            "endTime" : 3378,
                            "time" : 3348,
                            "value" : 2.5435882186022,
                            "duration" : 30
                          },
                          {
                            "endTime" : 3752,
                            "time" : 3703,
                            "value" : 0.999999337858405,
                            "duration" : 49
                          },
                          {
                            "endTime" : 3826,
                            "time" : 3780,
                            "value" : 3.2977262743969,
                            "duration" : 46
                          },
                          {
                            "endTime" : 3943,
                            "time" : 3913,
                            "value" : 0.999999616666313,
                            "duration" : 30
                          },
                          {
                            "endTime" : 3982,
                            "time" : 3952,
                            "value" : 2.5439982822715,
                            "duration" : 30
                          },
                          {
                            "endTime" : 4297,
                            "time" : 4263,
                            "value" : 2.54399842552367,
                            "duration" : 34
                          },
                          {
                            "endTime" : 5256,
                            "time" : 5216,
                            "value" : 0.999999543928019,
                            "duration" : 40
                          },
                          {
                            "endTime" : 5301,
                            "time" : 5260,
                            "value" : 1.83827164662978,
                            "duration" : 41
                          },
                          {
                            "endTime" : 5424,
                            "time" : 5394,
                            "value" : 2.9999982078393,
                            "duration" : 30
                          },
                          {
                            "endTime" : 5546,
                            "time" : 5516,
                            "value" : 0.999999402613099,
                            "duration" : 30
                          },
                          {
                            "endTime" : 5613,
                            "time" : 5583,
                            "value" : 2.83915222221324,
                            "duration" : 30
                          }
                        ]
                      },
                      "scale1" : {
                        "type" : "double",
                        "defaultValue" : 1.0,
                        "keyframes" : [
                          {
                            "endTime" : 242,
                            "time" : 212,
                            "value" : 4.90967641606111,
                            "duration" : 30
                          },
                          {
                            "endTime" : 332,
                            "time" : 302,
                            "value" : 1.0,
                            "duration" : 30
                          },
                          {
                            "endTime" : 1240,
                            "time" : 1210,
                            "value" : 2.9392594718793,
                            "duration" : 30
                          },
                          {
                            "endTime" : 2029,
                            "time" : 2003,
                            "value" : 2.9392594718793,
                            "duration" : 26
                          },
                          {
                            "endTime" : 2478,
                            "time" : 2448,
                            "value" : 1.0,
                            "duration" : 30
                          },
                          {
                            "endTime" : 3060,
                            "time" : 3030,
                            "value" : 2.54358990281888,
                            "duration" : 30
                          },
                          {
                            "endTime" : 3752,
                            "time" : 3703,
                            "value" : 1.0,
                            "duration" : 49
                          },
                          {
                            "endTime" : 3826,
                            "time" : 3780,
                            "value" : 3.29772753852696,
                            "duration" : 46
                          },
                          {
                            "endTime" : 3943,
                            "time" : 3913,
                            "value" : 1.0,
                            "duration" : 30
                          },
                          {
                            "endTime" : 3982,
                            "time" : 3952,
                            "value" : 2.544,
                            "duration" : 30
                          },
                          {
                            "endTime" : 4297,
                            "time" : 4263,
                            "value" : 2.54399958577061,
                            "duration" : 34
                          },
                          {
                            "endTime" : 5256,
                            "time" : 5216,
                            "value" : 1.0,
                            "duration" : 40
                          },
                          {
                            "endTime" : 5301,
                            "time" : 5260,
                            "value" : 1.83827268333693,
                            "duration" : 41
                          },
                          {
                            "endTime" : 5424,
                            "time" : 5394,
                            "value" : 3.0,
                            "duration" : 30
                          },
                          {
                            "endTime" : 5546,
                            "time" : 5516,
                            "value" : 1.0,
                            "duration" : 30
                          },
                          {
                            "endTime" : 5613,
                            "time" : 5583,
                            "value" : 2.83915442049899,
                            "duration" : 30
                          }
                        ]
                      },
                      "cursorOpacity" : 1.0,
                      "cursorScale" : 1.0
                    },
                    "medias" : [
                        {
                          "id" : 195,
                          "_type" : "ScreenVMFile",
                          "src" : 1,
                          "trackNumber" : 0,
                          "attributes" : {
                            "ident" : "handle_hijacking_attack_prevention"
                          },
                          "parameters" : {
                            "cursorScale" : {
                              "type" : "double",
                              "defaultValue" : 0.0,
                              "interp" : "linr"
                            },
                            "cursorOpacity" : {
                              "type" : "double",
                              "defaultValue" : 0.0,
                              "interp" : "linr"
                            }
                          },
                          "effects" : [

                          ],
                          "start" : 0,
                          "duration" : 2383,
                          "mediaStart" : 0,
                          "mediaDuration" : 2383,
                          "scalar" : 1,
                          "metadata" : {
                            "AutoAppliedSmartFocus" : "False",
                            "clipSpeedAttribute" : false,
                            "default-scale0" : 1.0,
                            "default-scale1" : 1.0,
                            "default-translation0" : 0.0,
                            "default-translation1" : 0.0
                          },
                          "animationTracks" : {

                          }
                        },
                        {
                          "id" : 196,
                          "_type" : "ScreenIMFile",
                          "src" : 1,
                          "trackNumber" : 0,
                          "trimStartSum" : 0,
                          "attributes" : {
                            "ident" : "handle_hijacking_attack_prevention"
                          },
                          "parameters" : {
                            "cursorOpacity" : 0.0,
                            "cursorScale" : 0.0
                          },
                          "effects" : [

                          ],
                          "start" : 2383,
                          "duration" : 60,
                          "mediaStart" : 2382,
                          "mediaDuration" : 1,
                          "scalar" : 1,
                          "metadata" : {
                            "AutoAppliedSmartFocus" : "False"
                          },
                          "animationTracks" : {

                          }
                        },
                        {
                          "id" : 197,
                          "_type" : "ScreenVMFile",
                          "src" : 1,
                          "trackNumber" : 0,
                          "attributes" : {
                            "ident" : "handle_hijacking_attack_prevention"
                          },
                          "parameters" : {
                            "cursorScale" : {
                              "type" : "double",
                              "defaultValue" : 0.0,
                              "interp" : "linr"
                            },
                            "cursorOpacity" : {
                              "type" : "double",
                              "defaultValue" : 0.0,
                              "interp" : "linr"
                            }
                          },
                          "effects" : [

                          ],
                          "start" : 2443,
                          "duration" : 2141,
                          "mediaStart" : 2383,
                          "mediaDuration" : 2141,
                          "scalar" : 1,
                          "metadata" : {
                            "AutoAppliedSmartFocus" : "False",
                            "clipSpeedAttribute" : false,
                            "default-scale0" : 1.0,
                            "default-scale1" : 1.0,
                            "default-translation0" : 0.0,
                            "default-translation1" : 0.0
                          },
                          "animationTracks" : {

                          }
                        },
                        {
                          "id" : 198,
                          "_type" : "ScreenIMFile",
                          "src" : 1,
                          "trackNumber" : 0,
                          "trimStartSum" : 0,
                          "attributes" : {
                            "ident" : "handle_hijacking_attack_prevention"
                          },
                          "parameters" : {
                            "cursorOpacity" : 0.0,
                            "cursorScale" : 0.0
                          },
                          "effects" : [

                          ],
                          "start" : 4584,
                          "duration" : 60,
                          "mediaStart" : 4524,
                          "mediaDuration" : 1,
                          "scalar" : 1,
                          "metadata" : {
                            "AutoAppliedSmartFocus" : "False"
                          },
                          "animationTracks" : {

                          }
                        },
                        {
                          "id" : 199,
                          "_type" : "ScreenVMFile",
                          "src" : 1,
                          "trackNumber" : 0,
                          "attributes" : {
                            "ident" : "handle_hijacking_attack_prevention"
                          },
                          "parameters" : {
                            "cursorScale" : {
                              "type" : "double",
                              "defaultValue" : 0.0,
                              "interp" : "linr"
                            },
                            "cursorOpacity" : {
                              "type" : "double",
                              "defaultValue" : 0.0,
                              "interp" : "linr"
                            }
                          },
                          "effects" : [

                          ],
                          "start" : 4644,
                          "duration" : 233,
                          "mediaStart" : 4524,
                          "mediaDuration" : 233,
                          "scalar" : 1,
                          "metadata" : {
                            "AutoAppliedSmartFocus" : "False",
                            "clipSpeedAttribute" : false,
                            "default-scale0" : 1.0,
                            "default-scale1" : 1.0,
                            "default-translation0" : 0.0,
                            "default-translation1" : 0.0
                          },
                          "animationTracks" : {

                          }
                        },
                        {
                          "id" : 200,
                          "_type" : "ScreenVMFile",
                          "src" : 1,
                          "trackNumber" : 0,
                          "attributes" : {
                            "ident" : "handle_hijacking_attack_prevention"
                          },
                          "parameters" : {
                            "cursorScale" : {
                              "type" : "double",
                              "defaultValue" : 0.0,
                              "interp" : "linr"
                            },
                            "cursorOpacity" : {
                              "type" : "double",
                              "defaultValue" : 0.0,
                              "interp" : "linr"
                            }
                          },
                          "effects" : [

                          ],
                          "start" : 4877,
                          "duration" : 581,
                          "mediaStart" : 4807,
                          "mediaDuration" : 581,
                          "scalar" : 1,
                          "metadata" : {
                            "AutoAppliedSmartFocus" : "False",
                            "clipSpeedAttribute" : false,
                            "default-scale0" : 1.0,
                            "default-scale1" : 1.0,
                            "default-translation0" : 0.0,
                            "default-translation1" : 0.0
                          },
                          "animationTracks" : {

                          }
                        },
                        {
                          "id" : 201,
                          "_type" : "ScreenIMFile",
                          "src" : 1,
                          "trackNumber" : 0,
                          "trimStartSum" : 0,
                          "attributes" : {
                            "ident" : "handle_hijacking_attack_prevention"
                          },
                          "parameters" : {
                            "cursorOpacity" : 0.0,
                            "cursorScale" : 0.0
                          },
                          "effects" : [

                          ],
                          "start" : 5458,
                          "duration" : 60,
                          "mediaStart" : 5388,
                          "mediaDuration" : 1,
                          "scalar" : 1,
                          "metadata" : {
                            "AutoAppliedSmartFocus" : "False"
                          },
                          "animationTracks" : {

                          }
                        },
                        {
                          "id" : 202,
                          "_type" : "ScreenVMFile",
                          "src" : 1,
                          "trackNumber" : 0,
                          "attributes" : {
                            "ident" : "handle_hijacking_attack_prevention"
                          },
                          "parameters" : {
                            "cursorScale" : {
                              "type" : "double",
                              "defaultValue" : 0.0,
                              "interp" : "linr"
                            },
                            "cursorOpacity" : {
                              "type" : "double",
                              "defaultValue" : 0.0,
                              "interp" : "linr"
                            }
                          },
                          "effects" : [

                          ],
                          "start" : 5518,
                          "duration" : 1481,
                          "mediaStart" : 5388,
                          "mediaDuration" : 1481,
                          "scalar" : 1,
                          "metadata" : {
                            "AutoAppliedSmartFocus" : "False",
                            "clipSpeedAttribute" : false,
                            "default-scale0" : 1.0,
                            "default-scale1" : 1.0,
                            "default-translation0" : 0.0,
                            "default-translation1" : 0.0
                          },
                          "animationTracks" : {

                          }
                        }
                    ],
                    "effects" : [
                        {
                          "effectName" : "CursorHilight",
                          "category" : "categoryCursorEffects",
                          "parameters" : {
                            "blur" : 0.1,
                            "color-alpha" : 0.75,
                            "color-blue" : 0.0,
                            "color-green" : 1.0,
                            "color-red" : 1.0,
                            "radius" : 50.0
                          }
                        }
                    ],
                    "start" : 3714,
                    "duration" : 35,
                    "mediaStart" : 5619,
                    "mediaDuration" : 35,
                    "scalar" : 1,
                    "metadata" : {
                      "AutoAppliedSmartFocus" : "False",
                      "clipSpeedAttribute" : false,
                      "default-scale0" : 2.9999982078393,
                      "default-scale1" : 3.0,
                      "default-translation0" : 1794.65403755581,
                      "default-translation1" : 175.346948293544
                    },
                    "animationTracks" : {
                      "visual" : [
                        {
                          "endTime" : 242,
                          "duration" : 30,
                          "range" : [ 212, 30]
                        },
                        {
                          "endTime" : 332,
                          "duration" : 30,
                          "range" : [ 302, 30]
                        },
                        {
                          "endTime" : 1240,
                          "duration" : 30,
                          "range" : [ 1210, 30]
                        },
                        {
                          "endTime" : 1493,
                          "duration" : 30,
                          "range" : [ 1463, 30]
                        },
                        {
                          "endTime" : 2029,
                          "duration" : 26,
                          "range" : [ 2003, 26]
                        },
                        {
                          "endTime" : 2478,
                          "duration" : 30,
                          "range" : [ 2448, 30]
                        },
                        {
                          "endTime" : 3060,
                          "duration" : 30,
                          "range" : [ 3030, 30]
                        },
                        {
                          "endTime" : 3378,
                          "duration" : 30,
                          "range" : [ 3348, 30]
                        },
                        {
                          "endTime" : 3752,
                          "duration" : 49,
                          "range" : [ 3703, 49]
                        },
                        {
                          "endTime" : 3826,
                          "duration" : 46,
                          "range" : [ 3780, 46]
                        },
                        {
                          "endTime" : 3943,
                          "duration" : 30,
                          "range" : [ 3913, 30]
                        },
                        {
                          "endTime" : 3982,
                          "duration" : 30,
                          "range" : [ 3952, 30]
                        },
                        {
                          "endTime" : 4297,
                          "duration" : 34,
                          "range" : [ 4263, 34]
                        },
                        {
                          "endTime" : 5256,
                          "duration" : 40,
                          "range" : [ 5216, 40]
                        },
                        {
                          "endTime" : 5301,
                          "duration" : 41,
                          "range" : [ 5260, 41]
                        },
                        {
                          "endTime" : 5424,
                          "duration" : 30,
                          "range" : [ 5394, 30]
                        },
                        {
                          "endTime" : 5546,
                          "duration" : 30,
                          "range" : [ 5516, 30]
                        },
                        {
                          "endTime" : 5613,
                          "duration" : 30,
                          "range" : [ 5583, 30]
                        }
                      ]
                    }
                  },
                  {
                    "id" : 203,
                    "_type" : "StitchedMedia",
                    "minMediaStart" : 0,
                    "attributes" : {
                      "ident" : "handle_hijacking_attack_prevention",
                      "gain" : 1.0,
                      "mixToMono" : false
                    },
                    "parameters" : {
                      "translation0" : {
                        "type" : "double",
                        "defaultValue" : 0.0,
                        "keyframes" : [
                          {
                            "endTime" : 242,
                            "time" : 212,
                            "value" : 4445.6304568441,
                            "duration" : 30
                          },
                          {
                            "endTime" : 332,
                            "time" : 302,
                            "value" : -7.95807864051312e-13,
                            "duration" : 30
                          },
                          {
                            "endTime" : 1240,
                            "time" : 1210,
                            "value" : 1813.23805555168,
                            "duration" : 30
                          },
                          {
                            "endTime" : 1493,
                            "time" : 1463,
                            "value" : 1769.1,
                            "duration" : 30
                          },
                          {
                            "endTime" : 2029,
                            "time" : 2003,
                            "value" : 1769.08221838715,
                            "duration" : 26
                          },
                          {
                            "endTime" : 2478,
                            "time" : 2448,
                            "value" : -1.13686837721616e-13,
                            "duration" : 30
                          },
                          {
                            "endTime" : 3060,
                            "time" : 3030,
                            "value" : -927.066246510699,
                            "duration" : 30
                          },
                          {
                            "endTime" : 3378,
                            "time" : 3348,
                            "value" : -927.1,
                            "duration" : 30
                          },
                          {
                            "endTime" : 3752,
                            "time" : 3703,
                            "value" : 1.13686837721616e-13,
                            "duration" : 49
                          },
                          {
                            "endTime" : 3826,
                            "time" : 3780,
                            "value" : 2190.48664188307,
                            "duration" : 46
                          },
                          {
                            "endTime" : 3943,
                            "time" : 3913,
                            "value" : 2.27373675443232e-13,
                            "duration" : 30
                          },
                          {
                            "endTime" : 3982,
                            "time" : 3952,
                            "value" : -927.1,
                            "duration" : 30
                          },
                          {
                            "endTime" : 4297,
                            "time" : 4263,
                            "value" : -927.1,
                            "duration" : 34
                          },
                          {
                            "endTime" : 5256,
                            "time" : 5216,
                            "value" : 5.6843418860808e-14,
                            "duration" : 40
                          },
                          {
                            "endTime" : 5301,
                            "time" : 5260,
                            "value" : 680.367023205802,
                            "duration" : 41
                          },
                          {
                            "endTime" : 5424,
                            "time" : 5394,
                            "value" : 1794.65403755581,
                            "duration" : 30
                          },
                          {
                            "endTime" : 5546,
                            "time" : 5516,
                            "value" : -3.41060513164848e-13,
                            "duration" : 30
                          },
                          {
                            "endTime" : 5613,
                            "time" : 5583,
                            "value" : -877.024502523768,
                            "duration" : 30
                          }
                        ]
                      },
                      "translation1" : {
                        "type" : "double",
                        "defaultValue" : 0.0,
                        "keyframes" : [
                          {
                            "endTime" : 242,
                            "time" : 212,
                            "value" : -2101.5592739797,
                            "duration" : 30
                          },
                          {
                            "endTime" : 332,
                            "time" : 302,
                            "value" : 4.54747350886464e-13,
                            "duration" : 30
                          },
                          {
                            "endTime" : 1240,
                            "time" : 1210,
                            "value" : 0.0,
                            "duration" : 30
                          },
                          {
                            "endTime" : 1493,
                            "time" : 1463,
                            "value" : 764.586721975313,
                            "duration" : 30
                          },
                          {
                            "endTime" : 2029,
                            "time" : 2003,
                            "value" : 955.733402469141,
                            "duration" : 26
                          },
                          {
                            "endTime" : 2478,
                            "time" : 2448,
                            "value" : -5.6843418860808e-14,
                            "duration" : 30
                          },
                          {
                            "endTime" : 3060,
                            "time" : 3030,
                            "value" : 51.6923109282546,
                            "duration" : 30
                          },
                          {
                            "endTime" : 3378,
                            "time" : 3348,
                            "value" : 793.192387394355,
                            "duration" : 30
                          },
                          {
                            "endTime" : 3752,
                            "time" : 3703,
                            "value" : 0.0,
                            "duration" : 49
                          },
                          {
                            "endTime" : 3826,
                            "time" : 3780,
                            "value" : 525.407539085336,
                            "duration" : 46
                          },
                          {
                            "endTime" : 3943,
                            "time" : 3913,
                            "value" : -8.5265128291212e-14,
                            "duration" : 30
                          },
                          {
                            "endTime" : 3982,
                            "time" : 3952,
                            "value" : 693.2,
                            "duration" : 30
                          },
                          {
                            "endTime" : 4297,
                            "time" : 4263,
                            "value" : 796.601448181272,
                            "duration" : 34
                          },
                          {
                            "endTime" : 5256,
                            "time" : 5216,
                            "value" : 0.0,
                            "duration" : 40
                          },
                          {
                            "endTime" : 5301,
                            "time" : 5260,
                            "value" : 382.706644741061,
                            "duration" : 41
                          },
                          {
                            "endTime" : 5424,
                            "time" : 5394,
                            "value" : 175.346948293544,
                            "duration" : 30
                          },
                          {
                            "endTime" : 5546,
                            "time" : 5516,
                            "value" : -1.27897692436818e-13,
                            "duration" : 30
                          },
                          {
                            "endTime" : 5613,
                            "time" : 5583,
                            "value" : 908.758378625847,
                            "duration" : 30
                          }
                        ]
                      },
                      "scale0" : {
                        "type" : "double",
                        "defaultValue" : 1.0,
                        "keyframes" : [
                          {
                            "endTime" : 242,
                            "time" : 212,
                            "value" : 4.90967434857952,
                            "duration" : 30
                          },
                          {
                            "endTime" : 332,
                            "time" : 302,
                            "value" : 0.99999957889657,
                            "duration" : 30
                          },
                          {
                            "endTime" : 1240,
                            "time" : 1210,
                            "value" : 2.93925764732581,
                            "duration" : 30
                          },
                          {
                            "endTime" : 1493,
                            "time" : 1463,
                            "value" : 2.93925755430459,
                            "duration" : 30
                          },
                          {
                            "endTime" : 2029,
                            "time" : 2003,
                            "value" : 2.93925746128338,
                            "duration" : 26
                          },
                          {
                            "endTime" : 2478,
                            "time" : 2448,
                            "value" : 0.999999315951539,
                            "duration" : 30
                          },
                          {
                            "endTime" : 3060,
                            "time" : 3030,
                            "value" : 2.54358807927679,
                            "duration" : 30
                          },
                          {
                            "endTime" : 3378,
                            "time" : 3348,
                            "value" : 2.5435882186022,
                            "duration" : 30
                          },
                          {
                            "endTime" : 3752,
                            "time" : 3703,
                            "value" : 0.999999337858405,
                            "duration" : 49
                          },
                          {
                            "endTime" : 3826,
                            "time" : 3780,
                            "value" : 3.2977262743969,
                            "duration" : 46
                          },
                          {
                            "endTime" : 3943,
                            "time" : 3913,
                            "value" : 0.999999616666313,
                            "duration" : 30
                          },
                          {
                            "endTime" : 3982,
                            "time" : 3952,
                            "value" : 2.5439982822715,
                            "duration" : 30
                          },
                          {
                            "endTime" : 4297,
                            "time" : 4263,
                            "value" : 2.54399842552367,
                            "duration" : 34
                          },
                          {
                            "endTime" : 5256,
                            "time" : 5216,
                            "value" : 0.999999543928019,
                            "duration" : 40
                          },
                          {
                            "endTime" : 5301,
                            "time" : 5260,
                            "value" : 1.83827164662978,
                            "duration" : 41
                          },
                          {
                            "endTime" : 5424,
                            "time" : 5394,
                            "value" : 2.9999982078393,
                            "duration" : 30
                          },
                          {
                            "endTime" : 5546,
                            "time" : 5516,
                            "value" : 0.999999402613099,
                            "duration" : 30
                          },
                          {
                            "endTime" : 5613,
                            "time" : 5583,
                            "value" : 2.83915222221324,
                            "duration" : 30
                          }
                        ]
                      },
                      "scale1" : {
                        "type" : "double",
                        "defaultValue" : 1.0,
                        "keyframes" : [
                          {
                            "endTime" : 242,
                            "time" : 212,
                            "value" : 4.90967641606111,
                            "duration" : 30
                          },
                          {
                            "endTime" : 332,
                            "time" : 302,
                            "value" : 1.0,
                            "duration" : 30
                          },
                          {
                            "endTime" : 1240,
                            "time" : 1210,
                            "value" : 2.9392594718793,
                            "duration" : 30
                          },
                          {
                            "endTime" : 2029,
                            "time" : 2003,
                            "value" : 2.9392594718793,
                            "duration" : 26
                          },
                          {
                            "endTime" : 2478,
                            "time" : 2448,
                            "value" : 1.0,
                            "duration" : 30
                          },
                          {
                            "endTime" : 3060,
                            "time" : 3030,
                            "value" : 2.54358990281888,
                            "duration" : 30
                          },
                          {
                            "endTime" : 3752,
                            "time" : 3703,
                            "value" : 1.0,
                            "duration" : 49
                          },
                          {
                            "endTime" : 3826,
                            "time" : 3780,
                            "value" : 3.29772753852696,
                            "duration" : 46
                          },
                          {
                            "endTime" : 3943,
                            "time" : 3913,
                            "value" : 1.0,
                            "duration" : 30
                          },
                          {
                            "endTime" : 3982,
                            "time" : 3952,
                            "value" : 2.544,
                            "duration" : 30
                          },
                          {
                            "endTime" : 4297,
                            "time" : 4263,
                            "value" : 2.54399958577061,
                            "duration" : 34
                          },
                          {
                            "endTime" : 5256,
                            "time" : 5216,
                            "value" : 1.0,
                            "duration" : 40
                          },
                          {
                            "endTime" : 5301,
                            "time" : 5260,
                            "value" : 1.83827268333693,
                            "duration" : 41
                          },
                          {
                            "endTime" : 5424,
                            "time" : 5394,
                            "value" : 3.0,
                            "duration" : 30
                          },
                          {
                            "endTime" : 5546,
                            "time" : 5516,
                            "value" : 1.0,
                            "duration" : 30
                          },
                          {
                            "endTime" : 5613,
                            "time" : 5583,
                            "value" : 2.83915442049899,
                            "duration" : 30
                          }
                        ]
                      },
                      "cursorOpacity" : 1.0,
                      "cursorScale" : 1.0
                    },
                    "medias" : [
                        {
                          "id" : 204,
                          "_type" : "ScreenVMFile",
                          "src" : 1,
                          "trackNumber" : 0,
                          "attributes" : {
                            "ident" : "handle_hijacking_attack_prevention"
                          },
                          "parameters" : {
                            "cursorScale" : {
                              "type" : "double",
                              "defaultValue" : 0.0,
                              "interp" : "linr"
                            },
                            "cursorOpacity" : {
                              "type" : "double",
                              "defaultValue" : 0.0,
                              "interp" : "linr"
                            }
                          },
                          "effects" : [

                          ],
                          "start" : 0,
                          "duration" : 2383,
                          "mediaStart" : 0,
                          "mediaDuration" : 2383,
                          "scalar" : 1,
                          "metadata" : {
                            "AutoAppliedSmartFocus" : "False",
                            "clipSpeedAttribute" : false,
                            "default-scale0" : 1.0,
                            "default-scale1" : 1.0,
                            "default-translation0" : 0.0,
                            "default-translation1" : 0.0
                          },
                          "animationTracks" : {

                          }
                        },
                        {
                          "id" : 205,
                          "_type" : "ScreenIMFile",
                          "src" : 1,
                          "trackNumber" : 0,
                          "trimStartSum" : 0,
                          "attributes" : {
                            "ident" : "handle_hijacking_attack_prevention"
                          },
                          "parameters" : {
                            "cursorOpacity" : 0.0,
                            "cursorScale" : 0.0
                          },
                          "effects" : [

                          ],
                          "start" : 2383,
                          "duration" : 60,
                          "mediaStart" : 2382,
                          "mediaDuration" : 1,
                          "scalar" : 1,
                          "metadata" : {
                            "AutoAppliedSmartFocus" : "False"
                          },
                          "animationTracks" : {

                          }
                        },
                        {
                          "id" : 206,
                          "_type" : "ScreenVMFile",
                          "src" : 1,
                          "trackNumber" : 0,
                          "attributes" : {
                            "ident" : "handle_hijacking_attack_prevention"
                          },
                          "parameters" : {
                            "cursorScale" : {
                              "type" : "double",
                              "defaultValue" : 0.0,
                              "interp" : "linr"
                            },
                            "cursorOpacity" : {
                              "type" : "double",
                              "defaultValue" : 0.0,
                              "interp" : "linr"
                            }
                          },
                          "effects" : [

                          ],
                          "start" : 2443,
                          "duration" : 2141,
                          "mediaStart" : 2383,
                          "mediaDuration" : 2141,
                          "scalar" : 1,
                          "metadata" : {
                            "AutoAppliedSmartFocus" : "False",
                            "clipSpeedAttribute" : false,
                            "default-scale0" : 1.0,
                            "default-scale1" : 1.0,
                            "default-translation0" : 0.0,
                            "default-translation1" : 0.0
                          },
                          "animationTracks" : {

                          }
                        },
                        {
                          "id" : 207,
                          "_type" : "ScreenIMFile",
                          "src" : 1,
                          "trackNumber" : 0,
                          "trimStartSum" : 0,
                          "attributes" : {
                            "ident" : "handle_hijacking_attack_prevention"
                          },
                          "parameters" : {
                            "cursorOpacity" : 0.0,
                            "cursorScale" : 0.0
                          },
                          "effects" : [

                          ],
                          "start" : 4584,
                          "duration" : 60,
                          "mediaStart" : 4524,
                          "mediaDuration" : 1,
                          "scalar" : 1,
                          "metadata" : {
                            "AutoAppliedSmartFocus" : "False"
                          },
                          "animationTracks" : {

                          }
                        },
                        {
                          "id" : 208,
                          "_type" : "ScreenVMFile",
                          "src" : 1,
                          "trackNumber" : 0,
                          "attributes" : {
                            "ident" : "handle_hijacking_attack_prevention"
                          },
                          "parameters" : {
                            "cursorScale" : {
                              "type" : "double",
                              "defaultValue" : 0.0,
                              "interp" : "linr"
                            },
                            "cursorOpacity" : {
                              "type" : "double",
                              "defaultValue" : 0.0,
                              "interp" : "linr"
                            }
                          },
                          "effects" : [

                          ],
                          "start" : 4644,
                          "duration" : 233,
                          "mediaStart" : 4524,
                          "mediaDuration" : 233,
                          "scalar" : 1,
                          "metadata" : {
                            "AutoAppliedSmartFocus" : "False",
                            "clipSpeedAttribute" : false,
                            "default-scale0" : 1.0,
                            "default-scale1" : 1.0,
                            "default-translation0" : 0.0,
                            "default-translation1" : 0.0
                          },
                          "animationTracks" : {

                          }
                        },
                        {
                          "id" : 209,
                          "_type" : "ScreenVMFile",
                          "src" : 1,
                          "trackNumber" : 0,
                          "attributes" : {
                            "ident" : "handle_hijacking_attack_prevention"
                          },
                          "parameters" : {
                            "cursorScale" : {
                              "type" : "double",
                              "defaultValue" : 0.0,
                              "interp" : "linr"
                            },
                            "cursorOpacity" : {
                              "type" : "double",
                              "defaultValue" : 0.0,
                              "interp" : "linr"
                            }
                          },
                          "effects" : [

                          ],
                          "start" : 4877,
                          "duration" : 581,
                          "mediaStart" : 4807,
                          "mediaDuration" : 581,
                          "scalar" : 1,
                          "metadata" : {
                            "AutoAppliedSmartFocus" : "False",
                            "clipSpeedAttribute" : false,
                            "default-scale0" : 1.0,
                            "default-scale1" : 1.0,
                            "default-translation0" : 0.0,
                            "default-translation1" : 0.0
                          },
                          "animationTracks" : {

                          }
                        },
                        {
                          "id" : 210,
                          "_type" : "ScreenIMFile",
                          "src" : 1,
                          "trackNumber" : 0,
                          "trimStartSum" : 0,
                          "attributes" : {
                            "ident" : "handle_hijacking_attack_prevention"
                          },
                          "parameters" : {
                            "cursorOpacity" : 0.0,
                            "cursorScale" : 0.0
                          },
                          "effects" : [

                          ],
                          "start" : 5458,
                          "duration" : 60,
                          "mediaStart" : 5388,
                          "mediaDuration" : 1,
                          "scalar" : 1,
                          "metadata" : {
                            "AutoAppliedSmartFocus" : "False"
                          },
                          "animationTracks" : {

                          }
                        },
                        {
                          "id" : 211,
                          "_type" : "ScreenVMFile",
                          "src" : 1,
                          "trackNumber" : 0,
                          "attributes" : {
                            "ident" : "handle_hijacking_attack_prevention"
                          },
                          "parameters" : {
                            "cursorScale" : {
                              "type" : "double",
                              "defaultValue" : 0.0,
                              "interp" : "linr"
                            },
                            "cursorOpacity" : {
                              "type" : "double",
                              "defaultValue" : 0.0,
                              "interp" : "linr"
                            }
                          },
                          "effects" : [

                          ],
                          "start" : 5518,
                          "duration" : 1481,
                          "mediaStart" : 5388,
                          "mediaDuration" : 1481,
                          "scalar" : 1,
                          "metadata" : {
                            "AutoAppliedSmartFocus" : "False",
                            "clipSpeedAttribute" : false,
                            "default-scale0" : 1.0,
                            "default-scale1" : 1.0,
                            "default-translation0" : 0.0,
                            "default-translation1" : 0.0
                          },
                          "animationTracks" : {

                          }
                        }
                    ],
                    "effects" : [
                        {
                          "effectName" : "CursorHilight",
                          "category" : "categoryCursorEffects",
                          "parameters" : {
                            "blur" : 0.1,
                            "color-alpha" : 0.75,
                            "color-blue" : 0.0,
                            "color-green" : 1.0,
                            "color-red" : 1.0,
                            "radius" : 50.0
                          }
                        }
                    ],
                    "start" : 3749,
                    "duration" : 29,
                    "mediaStart" : 5654,
                    "mediaDuration" : 123,
                    "scalar" : "29/123",
                    "metadata" : {
                      "AutoAppliedSmartFocus" : "False",
                      "clipSpeedAttribute" : true,
                      "default-scale0" : 2.9999982078393,
                      "default-scale1" : 3.0,
                      "default-translation0" : 1794.65403755581,
                      "default-translation1" : 175.346948293544
                    },
                    "animationTracks" : {
                      "visual" : [
                        {
                          "endTime" : 242,
                          "duration" : 30,
                          "range" : [ 212, 30]
                        },
                        {
                          "endTime" : 332,
                          "duration" : 30,
                          "range" : [ 302, 30]
                        },
                        {
                          "endTime" : 1240,
                          "duration" : 30,
                          "range" : [ 1210, 30]
                        },
                        {
                          "endTime" : 1493,
                          "duration" : 30,
                          "range" : [ 1463, 30]
                        },
                        {
                          "endTime" : 2029,
                          "duration" : 26,
                          "range" : [ 2003, 26]
                        },
                        {
                          "endTime" : 2478,
                          "duration" : 30,
                          "range" : [ 2448, 30]
                        },
                        {
                          "endTime" : 3060,
                          "duration" : 30,
                          "range" : [ 3030, 30]
                        },
                        {
                          "endTime" : 3378,
                          "duration" : 30,
                          "range" : [ 3348, 30]
                        },
                        {
                          "endTime" : 3752,
                          "duration" : 49,
                          "range" : [ 3703, 49]
                        },
                        {
                          "endTime" : 3826,
                          "duration" : 46,
                          "range" : [ 3780, 46]
                        },
                        {
                          "endTime" : 3943,
                          "duration" : 30,
                          "range" : [ 3913, 30]
                        },
                        {
                          "endTime" : 3982,
                          "duration" : 30,
                          "range" : [ 3952, 30]
                        },
                        {
                          "endTime" : 4297,
                          "duration" : 34,
                          "range" : [ 4263, 34]
                        },
                        {
                          "endTime" : 5256,
                          "duration" : 40,
                          "range" : [ 5216, 40]
                        },
                        {
                          "endTime" : 5301,
                          "duration" : 41,
                          "range" : [ 5260, 41]
                        },
                        {
                          "endTime" : 5424,
                          "duration" : 30,
                          "range" : [ 5394, 30]
                        },
                        {
                          "endTime" : 5546,
                          "duration" : 30,
                          "range" : [ 5516, 30]
                        },
                        {
                          "endTime" : 5613,
                          "duration" : 30,
                          "range" : [ 5583, 30]
                        }
                      ]
                    }
                  },
                  {
                    "id" : 212,
                    "_type" : "StitchedMedia",
                    "minMediaStart" : 0,
                    "attributes" : {
                      "ident" : "handle_hijacking_attack_prevention",
                      "gain" : 1.0,
                      "mixToMono" : false
                    },
                    "parameters" : {
                      "translation0" : {
                        "type" : "double",
                        "defaultValue" : 0.0,
                        "keyframes" : [
                          {
                            "endTime" : 242,
                            "time" : 212,
                            "value" : 4445.6304568441,
                            "duration" : 30
                          },
                          {
                            "endTime" : 332,
                            "time" : 302,
                            "value" : -7.95807864051312e-13,
                            "duration" : 30
                          },
                          {
                            "endTime" : 1240,
                            "time" : 1210,
                            "value" : 1813.23805555168,
                            "duration" : 30
                          },
                          {
                            "endTime" : 1493,
                            "time" : 1463,
                            "value" : 1769.1,
                            "duration" : 30
                          },
                          {
                            "endTime" : 2029,
                            "time" : 2003,
                            "value" : 1769.08221838715,
                            "duration" : 26
                          },
                          {
                            "endTime" : 2478,
                            "time" : 2448,
                            "value" : -1.13686837721616e-13,
                            "duration" : 30
                          },
                          {
                            "endTime" : 3060,
                            "time" : 3030,
                            "value" : -927.066246510699,
                            "duration" : 30
                          },
                          {
                            "endTime" : 3378,
                            "time" : 3348,
                            "value" : -927.1,
                            "duration" : 30
                          },
                          {
                            "endTime" : 3752,
                            "time" : 3703,
                            "value" : 1.13686837721616e-13,
                            "duration" : 49
                          },
                          {
                            "endTime" : 3826,
                            "time" : 3780,
                            "value" : 2190.48664188307,
                            "duration" : 46
                          },
                          {
                            "endTime" : 3943,
                            "time" : 3913,
                            "value" : 2.27373675443232e-13,
                            "duration" : 30
                          },
                          {
                            "endTime" : 3982,
                            "time" : 3952,
                            "value" : -927.1,
                            "duration" : 30
                          },
                          {
                            "endTime" : 4297,
                            "time" : 4263,
                            "value" : -927.1,
                            "duration" : 34
                          },
                          {
                            "endTime" : 5256,
                            "time" : 5216,
                            "value" : 5.6843418860808e-14,
                            "duration" : 40
                          },
                          {
                            "endTime" : 5301,
                            "time" : 5260,
                            "value" : 680.367023205802,
                            "duration" : 41
                          },
                          {
                            "endTime" : 5424,
                            "time" : 5394,
                            "value" : 1794.65403755581,
                            "duration" : 30
                          },
                          {
                            "endTime" : 5546,
                            "time" : 5516,
                            "value" : -3.41060513164848e-13,
                            "duration" : 30
                          },
                          {
                            "endTime" : 5613,
                            "time" : 5583,
                            "value" : -877.024502523768,
                            "duration" : 30
                          },
                          {
                            "endTime" : 5818,
                            "time" : 5788,
                            "value" : 1.70530256582424e-13,
                            "duration" : 30
                          },
                          {
                            "endTime" : 5873,
                            "time" : 5843,
                            "value" : 1572.46260600652,
                            "duration" : 30
                          }
                        ]
                      },
                      "translation1" : {
                        "type" : "double",
                        "defaultValue" : 0.0,
                        "keyframes" : [
                          {
                            "endTime" : 242,
                            "time" : 212,
                            "value" : -2101.5592739797,
                            "duration" : 30
                          },
                          {
                            "endTime" : 332,
                            "time" : 302,
                            "value" : 4.54747350886464e-13,
                            "duration" : 30
                          },
                          {
                            "endTime" : 1240,
                            "time" : 1210,
                            "value" : 0.0,
                            "duration" : 30
                          },
                          {
                            "endTime" : 1493,
                            "time" : 1463,
                            "value" : 764.586721975313,
                            "duration" : 30
                          },
                          {
                            "endTime" : 2029,
                            "time" : 2003,
                            "value" : 955.733402469141,
                            "duration" : 26
                          },
                          {
                            "endTime" : 2478,
                            "time" : 2448,
                            "value" : -5.6843418860808e-14,
                            "duration" : 30
                          },
                          {
                            "endTime" : 3060,
                            "time" : 3030,
                            "value" : 51.6923109282546,
                            "duration" : 30
                          },
                          {
                            "endTime" : 3378,
                            "time" : 3348,
                            "value" : 793.192387394355,
                            "duration" : 30
                          },
                          {
                            "endTime" : 3752,
                            "time" : 3703,
                            "value" : 0.0,
                            "duration" : 49
                          },
                          {
                            "endTime" : 3826,
                            "time" : 3780,
                            "value" : 525.407539085336,
                            "duration" : 46
                          },
                          {
                            "endTime" : 3943,
                            "time" : 3913,
                            "value" : -8.5265128291212e-14,
                            "duration" : 30
                          },
                          {
                            "endTime" : 3982,
                            "time" : 3952,
                            "value" : 693.2,
                            "duration" : 30
                          },
                          {
                            "endTime" : 4297,
                            "time" : 4263,
                            "value" : 796.601448181272,
                            "duration" : 34
                          },
                          {
                            "endTime" : 5256,
                            "time" : 5216,
                            "value" : 0.0,
                            "duration" : 40
                          },
                          {
                            "endTime" : 5301,
                            "time" : 5260,
                            "value" : 382.706644741061,
                            "duration" : 41
                          },
                          {
                            "endTime" : 5424,
                            "time" : 5394,
                            "value" : 175.346948293544,
                            "duration" : 30
                          },
                          {
                            "endTime" : 5546,
                            "time" : 5516,
                            "value" : -1.27897692436818e-13,
                            "duration" : 30
                          },
                          {
                            "endTime" : 5613,
                            "time" : 5583,
                            "value" : 908.758378625847,
                            "duration" : 30
                          },
                          {
                            "endTime" : 5818,
                            "time" : 5788,
                            "value" : -2.27373675443232e-13,
                            "duration" : 30
                          },
                          {
                            "endTime" : 5873,
                            "time" : 5843,
                            "value" : 862.287656103343,
                            "duration" : 30
                          }
                        ]
                      },
                      "scale0" : {
                        "type" : "double",
                        "defaultValue" : 1.0,
                        "keyframes" : [
                          {
                            "endTime" : 242,
                            "time" : 212,
                            "value" : 4.90967434857952,
                            "duration" : 30
                          },
                          {
                            "endTime" : 332,
                            "time" : 302,
                            "value" : 0.99999957889657,
                            "duration" : 30
                          },
                          {
                            "endTime" : 1240,
                            "time" : 1210,
                            "value" : 2.93925764732581,
                            "duration" : 30
                          },
                          {
                            "endTime" : 1493,
                            "time" : 1463,
                            "value" : 2.93925755430459,
                            "duration" : 30
                          },
                          {
                            "endTime" : 2029,
                            "time" : 2003,
                            "value" : 2.93925746128338,
                            "duration" : 26
                          },
                          {
                            "endTime" : 2478,
                            "time" : 2448,
                            "value" : 0.999999315951539,
                            "duration" : 30
                          },
                          {
                            "endTime" : 3060,
                            "time" : 3030,
                            "value" : 2.54358807927679,
                            "duration" : 30
                          },
                          {
                            "endTime" : 3378,
                            "time" : 3348,
                            "value" : 2.5435882186022,
                            "duration" : 30
                          },
                          {
                            "endTime" : 3752,
                            "time" : 3703,
                            "value" : 0.999999337858405,
                            "duration" : 49
                          },
                          {
                            "endTime" : 3826,
                            "time" : 3780,
                            "value" : 3.2977262743969,
                            "duration" : 46
                          },
                          {
                            "endTime" : 3943,
                            "time" : 3913,
                            "value" : 0.999999616666313,
                            "duration" : 30
                          },
                          {
                            "endTime" : 3982,
                            "time" : 3952,
                            "value" : 2.5439982822715,
                            "duration" : 30
                          },
                          {
                            "endTime" : 4297,
                            "time" : 4263,
                            "value" : 2.54399842552367,
                            "duration" : 34
                          },
                          {
                            "endTime" : 5256,
                            "time" : 5216,
                            "value" : 0.999999543928019,
                            "duration" : 40
                          },
                          {
                            "endTime" : 5301,
                            "time" : 5260,
                            "value" : 1.83827164662978,
                            "duration" : 41
                          },
                          {
                            "endTime" : 5424,
                            "time" : 5394,
                            "value" : 2.9999982078393,
                            "duration" : 30
                          },
                          {
                            "endTime" : 5546,
                            "time" : 5516,
                            "value" : 0.999999402613099,
                            "duration" : 30
                          },
                          {
                            "endTime" : 5613,
                            "time" : 5583,
                            "value" : 2.83915222221324,
                            "duration" : 30
                          },
                          {
                            "endTime" : 5818,
                            "time" : 5788,
                            "value" : 0.99999922572519,
                            "duration" : 30
                          },
                          {
                            "endTime" : 5873,
                            "time" : 5843,
                            "value" : 2.73504203536443,
                            "duration" : 30
                          }
                        ]
                      },
                      "scale1" : {
                        "type" : "double",
                        "defaultValue" : 1.0,
                        "keyframes" : [
                          {
                            "endTime" : 242,
                            "time" : 212,
                            "value" : 4.90967641606111,
                            "duration" : 30
                          },
                          {
                            "endTime" : 332,
                            "time" : 302,
                            "value" : 1.0,
                            "duration" : 30
                          },
                          {
                            "endTime" : 1240,
                            "time" : 1210,
                            "value" : 2.9392594718793,
                            "duration" : 30
                          },
                          {
                            "endTime" : 2029,
                            "time" : 2003,
                            "value" : 2.9392594718793,
                            "duration" : 26
                          },
                          {
                            "endTime" : 2478,
                            "time" : 2448,
                            "value" : 1.0,
                            "duration" : 30
                          },
                          {
                            "endTime" : 3060,
                            "time" : 3030,
                            "value" : 2.54358990281888,
                            "duration" : 30
                          },
                          {
                            "endTime" : 3752,
                            "time" : 3703,
                            "value" : 1.0,
                            "duration" : 49
                          },
                          {
                            "endTime" : 3826,
                            "time" : 3780,
                            "value" : 3.29772753852696,
                            "duration" : 46
                          },
                          {
                            "endTime" : 3943,
                            "time" : 3913,
                            "value" : 1.0,
                            "duration" : 30
                          },
                          {
                            "endTime" : 3982,
                            "time" : 3952,
                            "value" : 2.544,
                            "duration" : 30
                          },
                          {
                            "endTime" : 4297,
                            "time" : 4263,
                            "value" : 2.54399958577061,
                            "duration" : 34
                          },
                          {
                            "endTime" : 5256,
                            "time" : 5216,
                            "value" : 1.0,
                            "duration" : 40
                          },
                          {
                            "endTime" : 5301,
                            "time" : 5260,
                            "value" : 1.83827268333693,
                            "duration" : 41
                          },
                          {
                            "endTime" : 5424,
                            "time" : 5394,
                            "value" : 3.0,
                            "duration" : 30
                          },
                          {
                            "endTime" : 5546,
                            "time" : 5516,
                            "value" : 1.0,
                            "duration" : 30
                          },
                          {
                            "endTime" : 5613,
                            "time" : 5583,
                            "value" : 2.83915442049899,
                            "duration" : 30
                          },
                          {
                            "endTime" : 5818,
                            "time" : 5788,
                            "value" : 1.0,
                            "duration" : 30
                          },
                          {
                            "endTime" : 5873,
                            "time" : 5843,
                            "value" : 2.7350442078531,
                            "duration" : 30
                          }
                        ]
                      },
                      "cursorOpacity" : 1.0,
                      "cursorScale" : 1.0
                    },
                    "medias" : [
                        {
                          "id" : 213,
                          "_type" : "ScreenVMFile",
                          "src" : 1,
                          "trackNumber" : 0,
                          "attributes" : {
                            "ident" : "handle_hijacking_attack_prevention"
                          },
                          "parameters" : {
                            "cursorScale" : {
                              "type" : "double",
                              "defaultValue" : 0.0,
                              "interp" : "linr"
                            },
                            "cursorOpacity" : {
                              "type" : "double",
                              "defaultValue" : 0.0,
                              "interp" : "linr"
                            }
                          },
                          "effects" : [

                          ],
                          "start" : 0,
                          "duration" : 2383,
                          "mediaStart" : 0,
                          "mediaDuration" : 2383,
                          "scalar" : 1,
                          "metadata" : {
                            "AutoAppliedSmartFocus" : "False",
                            "clipSpeedAttribute" : false,
                            "default-scale0" : 1.0,
                            "default-scale1" : 1.0,
                            "default-translation0" : 0.0,
                            "default-translation1" : 0.0
                          },
                          "animationTracks" : {

                          }
                        },
                        {
                          "id" : 214,
                          "_type" : "ScreenIMFile",
                          "src" : 1,
                          "trackNumber" : 0,
                          "trimStartSum" : 0,
                          "attributes" : {
                            "ident" : "handle_hijacking_attack_prevention"
                          },
                          "parameters" : {
                            "cursorOpacity" : 0.0,
                            "cursorScale" : 0.0
                          },
                          "effects" : [

                          ],
                          "start" : 2383,
                          "duration" : 60,
                          "mediaStart" : 2382,
                          "mediaDuration" : 1,
                          "scalar" : 1,
                          "metadata" : {
                            "AutoAppliedSmartFocus" : "False"
                          },
                          "animationTracks" : {

                          }
                        },
                        {
                          "id" : 215,
                          "_type" : "ScreenVMFile",
                          "src" : 1,
                          "trackNumber" : 0,
                          "attributes" : {
                            "ident" : "handle_hijacking_attack_prevention"
                          },
                          "parameters" : {
                            "cursorScale" : {
                              "type" : "double",
                              "defaultValue" : 0.0,
                              "interp" : "linr"
                            },
                            "cursorOpacity" : {
                              "type" : "double",
                              "defaultValue" : 0.0,
                              "interp" : "linr"
                            }
                          },
                          "effects" : [

                          ],
                          "start" : 2443,
                          "duration" : 2141,
                          "mediaStart" : 2383,
                          "mediaDuration" : 2141,
                          "scalar" : 1,
                          "metadata" : {
                            "AutoAppliedSmartFocus" : "False",
                            "clipSpeedAttribute" : false,
                            "default-scale0" : 1.0,
                            "default-scale1" : 1.0,
                            "default-translation0" : 0.0,
                            "default-translation1" : 0.0
                          },
                          "animationTracks" : {

                          }
                        },
                        {
                          "id" : 216,
                          "_type" : "ScreenIMFile",
                          "src" : 1,
                          "trackNumber" : 0,
                          "trimStartSum" : 0,
                          "attributes" : {
                            "ident" : "handle_hijacking_attack_prevention"
                          },
                          "parameters" : {
                            "cursorOpacity" : 0.0,
                            "cursorScale" : 0.0
                          },
                          "effects" : [

                          ],
                          "start" : 4584,
                          "duration" : 60,
                          "mediaStart" : 4524,
                          "mediaDuration" : 1,
                          "scalar" : 1,
                          "metadata" : {
                            "AutoAppliedSmartFocus" : "False"
                          },
                          "animationTracks" : {

                          }
                        },
                        {
                          "id" : 217,
                          "_type" : "ScreenVMFile",
                          "src" : 1,
                          "trackNumber" : 0,
                          "attributes" : {
                            "ident" : "handle_hijacking_attack_prevention"
                          },
                          "parameters" : {
                            "cursorScale" : {
                              "type" : "double",
                              "defaultValue" : 0.0,
                              "interp" : "linr"
                            },
                            "cursorOpacity" : {
                              "type" : "double",
                              "defaultValue" : 0.0,
                              "interp" : "linr"
                            }
                          },
                          "effects" : [

                          ],
                          "start" : 4644,
                          "duration" : 233,
                          "mediaStart" : 4524,
                          "mediaDuration" : 233,
                          "scalar" : 1,
                          "metadata" : {
                            "AutoAppliedSmartFocus" : "False",
                            "clipSpeedAttribute" : false,
                            "default-scale0" : 1.0,
                            "default-scale1" : 1.0,
                            "default-translation0" : 0.0,
                            "default-translation1" : 0.0
                          },
                          "animationTracks" : {

                          }
                        },
                        {
                          "id" : 218,
                          "_type" : "ScreenVMFile",
                          "src" : 1,
                          "trackNumber" : 0,
                          "attributes" : {
                            "ident" : "handle_hijacking_attack_prevention"
                          },
                          "parameters" : {
                            "cursorScale" : {
                              "type" : "double",
                              "defaultValue" : 0.0,
                              "interp" : "linr"
                            },
                            "cursorOpacity" : {
                              "type" : "double",
                              "defaultValue" : 0.0,
                              "interp" : "linr"
                            }
                          },
                          "effects" : [

                          ],
                          "start" : 4877,
                          "duration" : 581,
                          "mediaStart" : 4807,
                          "mediaDuration" : 581,
                          "scalar" : 1,
                          "metadata" : {
                            "AutoAppliedSmartFocus" : "False",
                            "clipSpeedAttribute" : false,
                            "default-scale0" : 1.0,
                            "default-scale1" : 1.0,
                            "default-translation0" : 0.0,
                            "default-translation1" : 0.0
                          },
                          "animationTracks" : {

                          }
                        },
                        {
                          "id" : 219,
                          "_type" : "ScreenIMFile",
                          "src" : 1,
                          "trackNumber" : 0,
                          "trimStartSum" : 0,
                          "attributes" : {
                            "ident" : "handle_hijacking_attack_prevention"
                          },
                          "parameters" : {
                            "cursorOpacity" : 0.0,
                            "cursorScale" : 0.0
                          },
                          "effects" : [

                          ],
                          "start" : 5458,
                          "duration" : 60,
                          "mediaStart" : 5388,
                          "mediaDuration" : 1,
                          "scalar" : 1,
                          "metadata" : {
                            "AutoAppliedSmartFocus" : "False"
                          },
                          "animationTracks" : {

                          }
                        },
                        {
                          "id" : 220,
                          "_type" : "ScreenVMFile",
                          "src" : 1,
                          "trackNumber" : 0,
                          "attributes" : {
                            "ident" : "handle_hijacking_attack_prevention"
                          },
                          "parameters" : {
                            "cursorScale" : {
                              "type" : "double",
                              "defaultValue" : 0.0,
                              "interp" : "linr"
                            },
                            "cursorOpacity" : {
                              "type" : "double",
                              "defaultValue" : 0.0,
                              "interp" : "linr"
                            }
                          },
                          "effects" : [

                          ],
                          "start" : 5518,
                          "duration" : 265,
                          "mediaStart" : 5388,
                          "mediaDuration" : 265,
                          "scalar" : 1,
                          "metadata" : {
                            "AutoAppliedSmartFocus" : "False",
                            "clipSpeedAttribute" : false,
                            "default-scale0" : 1.0,
                            "default-scale1" : 1.0,
                            "default-translation0" : 0.0,
                            "default-translation1" : 0.0
                          },
                          "animationTracks" : {

                          }
                        },
                        {
                          "id" : 221,
                          "_type" : "ScreenIMFile",
                          "src" : 1,
                          "trackNumber" : 0,
                          "trimStartSum" : 0,
                          "attributes" : {
                            "ident" : "handle_hijacking_attack_prevention"
                          },
                          "parameters" : {
                            "cursorOpacity" : 0.0,
                            "cursorScale" : 0.0
                          },
                          "effects" : [

                          ],
                          "start" : 5783,
                          "duration" : 60,
                          "mediaStart" : 5653,
                          "mediaDuration" : 1,
                          "scalar" : 1,
                          "metadata" : {
                            "AutoAppliedSmartFocus" : "False"
                          },
                          "animationTracks" : {

                          }
                        },
                        {
                          "id" : 222,
                          "_type" : "ScreenVMFile",
                          "src" : 1,
                          "trackNumber" : 0,
                          "attributes" : {
                            "ident" : "handle_hijacking_attack_prevention"
                          },
                          "parameters" : {
                            "cursorScale" : {
                              "type" : "double",
                              "defaultValue" : 0.0,
                              "interp" : "linr"
                            },
                            "cursorOpacity" : {
                              "type" : "double",
                              "defaultValue" : 0.0,
                              "interp" : "linr"
                            }
                          },
                          "effects" : [

                          ],
                          "start" : 5843,
                          "duration" : 1216,
                          "mediaStart" : 5653,
                          "mediaDuration" : 1216,
                          "scalar" : 1,
                          "metadata" : {
                            "AutoAppliedSmartFocus" : "False",
                            "clipSpeedAttribute" : false,
                            "default-scale0" : 1.0,
                            "default-scale1" : 1.0,
                            "default-translation0" : 0.0,
                            "default-translation1" : 0.0
                          },
                          "animationTracks" : {

                          }
                        }
                    ],
                    "effects" : [
                        {
                          "effectName" : "CursorHilight",
                          "category" : "categoryCursorEffects",
                          "parameters" : {
                            "blur" : 0.1,
                            "color-alpha" : 0.75,
                            "color-blue" : 0.0,
                            "color-green" : 1.0,
                            "color-red" : 1.0,
                            "radius" : 50.0
                          }
                        }
                    ],
                    "start" : 3778,
                    "duration" : 102,
                    "mediaStart" : 5777,
                    "mediaDuration" : 102,
                    "scalar" : 1,
                    "metadata" : {
                      "AutoAppliedSmartFocus" : "False",
                      "clipSpeedAttribute" : false,
                      "default-scale0" : 0.99999922572519,
                      "default-scale1" : 1.0,
                      "default-translation0" : 1.70530256582424e-13,
                      "default-translation1" : -2.27373675443232e-13
                    },
                    "animationTracks" : {
                      "visual" : [
                        {
                          "endTime" : 242,
                          "duration" : 30,
                          "range" : [ 212, 30]
                        },
                        {
                          "endTime" : 332,
                          "duration" : 30,
                          "range" : [ 302, 30]
                        },
                        {
                          "endTime" : 1240,
                          "duration" : 30,
                          "range" : [ 1210, 30]
                        },
                        {
                          "endTime" : 1493,
                          "duration" : 30,
                          "range" : [ 1463, 30]
                        },
                        {
                          "endTime" : 2029,
                          "duration" : 26,
                          "range" : [ 2003, 26]
                        },
                        {
                          "endTime" : 2478,
                          "duration" : 30,
                          "range" : [ 2448, 30]
                        },
                        {
                          "endTime" : 3060,
                          "duration" : 30,
                          "range" : [ 3030, 30]
                        },
                        {
                          "endTime" : 3378,
                          "duration" : 30,
                          "range" : [ 3348, 30]
                        },
                        {
                          "endTime" : 3752,
                          "duration" : 49,
                          "range" : [ 3703, 49]
                        },
                        {
                          "endTime" : 3826,
                          "duration" : 46,
                          "range" : [ 3780, 46]
                        },
                        {
                          "endTime" : 3943,
                          "duration" : 30,
                          "range" : [ 3913, 30]
                        },
                        {
                          "endTime" : 3982,
                          "duration" : 30,
                          "range" : [ 3952, 30]
                        },
                        {
                          "endTime" : 4297,
                          "duration" : 34,
                          "range" : [ 4263, 34]
                        },
                        {
                          "endTime" : 5256,
                          "duration" : 40,
                          "range" : [ 5216, 40]
                        },
                        {
                          "endTime" : 5301,
                          "duration" : 41,
                          "range" : [ 5260, 41]
                        },
                        {
                          "endTime" : 5424,
                          "duration" : 30,
                          "range" : [ 5394, 30]
                        },
                        {
                          "endTime" : 5546,
                          "duration" : 30,
                          "range" : [ 5516, 30]
                        },
                        {
                          "endTime" : 5613,
                          "duration" : 30,
                          "range" : [ 5583, 30]
                        },
                        {
                          "endTime" : 5818,
                          "duration" : 30,
                          "range" : [ 5788, 30]
                        },
                        {
                          "endTime" : 5873,
                          "duration" : 30,
                          "range" : [ 5843, 30]
                        }
                      ]
                    }
                  },
                  {
                    "id" : 223,
                    "_type" : "StitchedMedia",
                    "minMediaStart" : 0,
                    "attributes" : {
                      "ident" : "handle_hijacking_attack_prevention",
                      "gain" : 1.0,
                      "mixToMono" : false
                    },
                    "parameters" : {
                      "translation0" : {
                        "type" : "double",
                        "defaultValue" : 0.0,
                        "keyframes" : [
                          {
                            "endTime" : 242,
                            "time" : 212,
                            "value" : 4445.6304568441,
                            "duration" : 30
                          },
                          {
                            "endTime" : 332,
                            "time" : 302,
                            "value" : -7.95807864051312e-13,
                            "duration" : 30
                          },
                          {
                            "endTime" : 1240,
                            "time" : 1210,
                            "value" : 1813.23805555168,
                            "duration" : 30
                          },
                          {
                            "endTime" : 1493,
                            "time" : 1463,
                            "value" : 1769.1,
                            "duration" : 30
                          },
                          {
                            "endTime" : 2029,
                            "time" : 2003,
                            "value" : 1769.08221838715,
                            "duration" : 26
                          },
                          {
                            "endTime" : 2478,
                            "time" : 2448,
                            "value" : -1.13686837721616e-13,
                            "duration" : 30
                          },
                          {
                            "endTime" : 3060,
                            "time" : 3030,
                            "value" : -927.066246510699,
                            "duration" : 30
                          },
                          {
                            "endTime" : 3378,
                            "time" : 3348,
                            "value" : -927.1,
                            "duration" : 30
                          },
                          {
                            "endTime" : 3752,
                            "time" : 3703,
                            "value" : 1.13686837721616e-13,
                            "duration" : 49
                          },
                          {
                            "endTime" : 3826,
                            "time" : 3780,
                            "value" : 2190.48664188307,
                            "duration" : 46
                          },
                          {
                            "endTime" : 3943,
                            "time" : 3913,
                            "value" : 2.27373675443232e-13,
                            "duration" : 30
                          },
                          {
                            "endTime" : 3982,
                            "time" : 3952,
                            "value" : -927.1,
                            "duration" : 30
                          },
                          {
                            "endTime" : 4297,
                            "time" : 4263,
                            "value" : -927.1,
                            "duration" : 34
                          },
                          {
                            "endTime" : 5256,
                            "time" : 5216,
                            "value" : 5.6843418860808e-14,
                            "duration" : 40
                          },
                          {
                            "endTime" : 5301,
                            "time" : 5260,
                            "value" : 680.367023205802,
                            "duration" : 41
                          },
                          {
                            "endTime" : 5424,
                            "time" : 5394,
                            "value" : 1794.65403755581,
                            "duration" : 30
                          },
                          {
                            "endTime" : 5546,
                            "time" : 5516,
                            "value" : -3.41060513164848e-13,
                            "duration" : 30
                          },
                          {
                            "endTime" : 5613,
                            "time" : 5583,
                            "value" : -877.024502523768,
                            "duration" : 30
                          },
                          {
                            "endTime" : 5818,
                            "time" : 5788,
                            "value" : 1.70530256582424e-13,
                            "duration" : 30
                          },
                          {
                            "endTime" : 5873,
                            "time" : 5843,
                            "value" : 1572.46260600652,
                            "duration" : 30
                          }
                        ]
                      },
                      "translation1" : {
                        "type" : "double",
                        "defaultValue" : 0.0,
                        "keyframes" : [
                          {
                            "endTime" : 242,
                            "time" : 212,
                            "value" : -2101.5592739797,
                            "duration" : 30
                          },
                          {
                            "endTime" : 332,
                            "time" : 302,
                            "value" : 4.54747350886464e-13,
                            "duration" : 30
                          },
                          {
                            "endTime" : 1240,
                            "time" : 1210,
                            "value" : 0.0,
                            "duration" : 30
                          },
                          {
                            "endTime" : 1493,
                            "time" : 1463,
                            "value" : 764.586721975313,
                            "duration" : 30
                          },
                          {
                            "endTime" : 2029,
                            "time" : 2003,
                            "value" : 955.733402469141,
                            "duration" : 26
                          },
                          {
                            "endTime" : 2478,
                            "time" : 2448,
                            "value" : -5.6843418860808e-14,
                            "duration" : 30
                          },
                          {
                            "endTime" : 3060,
                            "time" : 3030,
                            "value" : 51.6923109282546,
                            "duration" : 30
                          },
                          {
                            "endTime" : 3378,
                            "time" : 3348,
                            "value" : 793.192387394355,
                            "duration" : 30
                          },
                          {
                            "endTime" : 3752,
                            "time" : 3703,
                            "value" : 0.0,
                            "duration" : 49
                          },
                          {
                            "endTime" : 3826,
                            "time" : 3780,
                            "value" : 525.407539085336,
                            "duration" : 46
                          },
                          {
                            "endTime" : 3943,
                            "time" : 3913,
                            "value" : -8.5265128291212e-14,
                            "duration" : 30
                          },
                          {
                            "endTime" : 3982,
                            "time" : 3952,
                            "value" : 693.2,
                            "duration" : 30
                          },
                          {
                            "endTime" : 4297,
                            "time" : 4263,
                            "value" : 796.601448181272,
                            "duration" : 34
                          },
                          {
                            "endTime" : 5256,
                            "time" : 5216,
                            "value" : 0.0,
                            "duration" : 40
                          },
                          {
                            "endTime" : 5301,
                            "time" : 5260,
                            "value" : 382.706644741061,
                            "duration" : 41
                          },
                          {
                            "endTime" : 5424,
                            "time" : 5394,
                            "value" : 175.346948293544,
                            "duration" : 30
                          },
                          {
                            "endTime" : 5546,
                            "time" : 5516,
                            "value" : -1.27897692436818e-13,
                            "duration" : 30
                          },
                          {
                            "endTime" : 5613,
                            "time" : 5583,
                            "value" : 908.758378625847,
                            "duration" : 30
                          },
                          {
                            "endTime" : 5818,
                            "time" : 5788,
                            "value" : -2.27373675443232e-13,
                            "duration" : 30
                          },
                          {
                            "endTime" : 5873,
                            "time" : 5843,
                            "value" : 862.287656103343,
                            "duration" : 30
                          }
                        ]
                      },
                      "scale0" : {
                        "type" : "double",
                        "defaultValue" : 1.0,
                        "keyframes" : [
                          {
                            "endTime" : 242,
                            "time" : 212,
                            "value" : 4.90967434857952,
                            "duration" : 30
                          },
                          {
                            "endTime" : 332,
                            "time" : 302,
                            "value" : 0.99999957889657,
                            "duration" : 30
                          },
                          {
                            "endTime" : 1240,
                            "time" : 1210,
                            "value" : 2.93925764732581,
                            "duration" : 30
                          },
                          {
                            "endTime" : 1493,
                            "time" : 1463,
                            "value" : 2.93925755430459,
                            "duration" : 30
                          },
                          {
                            "endTime" : 2029,
                            "time" : 2003,
                            "value" : 2.93925746128338,
                            "duration" : 26
                          },
                          {
                            "endTime" : 2478,
                            "time" : 2448,
                            "value" : 0.999999315951539,
                            "duration" : 30
                          },
                          {
                            "endTime" : 3060,
                            "time" : 3030,
                            "value" : 2.54358807927679,
                            "duration" : 30
                          },
                          {
                            "endTime" : 3378,
                            "time" : 3348,
                            "value" : 2.5435882186022,
                            "duration" : 30
                          },
                          {
                            "endTime" : 3752,
                            "time" : 3703,
                            "value" : 0.999999337858405,
                            "duration" : 49
                          },
                          {
                            "endTime" : 3826,
                            "time" : 3780,
                            "value" : 3.2977262743969,
                            "duration" : 46
                          },
                          {
                            "endTime" : 3943,
                            "time" : 3913,
                            "value" : 0.999999616666313,
                            "duration" : 30
                          },
                          {
                            "endTime" : 3982,
                            "time" : 3952,
                            "value" : 2.5439982822715,
                            "duration" : 30
                          },
                          {
                            "endTime" : 4297,
                            "time" : 4263,
                            "value" : 2.54399842552367,
                            "duration" : 34
                          },
                          {
                            "endTime" : 5256,
                            "time" : 5216,
                            "value" : 0.999999543928019,
                            "duration" : 40
                          },
                          {
                            "endTime" : 5301,
                            "time" : 5260,
                            "value" : 1.83827164662978,
                            "duration" : 41
                          },
                          {
                            "endTime" : 5424,
                            "time" : 5394,
                            "value" : 2.9999982078393,
                            "duration" : 30
                          },
                          {
                            "endTime" : 5546,
                            "time" : 5516,
                            "value" : 0.999999402613099,
                            "duration" : 30
                          },
                          {
                            "endTime" : 5613,
                            "time" : 5583,
                            "value" : 2.83915222221324,
                            "duration" : 30
                          },
                          {
                            "endTime" : 5818,
                            "time" : 5788,
                            "value" : 0.99999922572519,
                            "duration" : 30
                          },
                          {
                            "endTime" : 5873,
                            "time" : 5843,
                            "value" : 2.73504203536443,
                            "duration" : 30
                          }
                        ]
                      },
                      "scale1" : {
                        "type" : "double",
                        "defaultValue" : 1.0,
                        "keyframes" : [
                          {
                            "endTime" : 242,
                            "time" : 212,
                            "value" : 4.90967641606111,
                            "duration" : 30
                          },
                          {
                            "endTime" : 332,
                            "time" : 302,
                            "value" : 1.0,
                            "duration" : 30
                          },
                          {
                            "endTime" : 1240,
                            "time" : 1210,
                            "value" : 2.9392594718793,
                            "duration" : 30
                          },
                          {
                            "endTime" : 2029,
                            "time" : 2003,
                            "value" : 2.9392594718793,
                            "duration" : 26
                          },
                          {
                            "endTime" : 2478,
                            "time" : 2448,
                            "value" : 1.0,
                            "duration" : 30
                          },
                          {
                            "endTime" : 3060,
                            "time" : 3030,
                            "value" : 2.54358990281888,
                            "duration" : 30
                          },
                          {
                            "endTime" : 3752,
                            "time" : 3703,
                            "value" : 1.0,
                            "duration" : 49
                          },
                          {
                            "endTime" : 3826,
                            "time" : 3780,
                            "value" : 3.29772753852696,
                            "duration" : 46
                          },
                          {
                            "endTime" : 3943,
                            "time" : 3913,
                            "value" : 1.0,
                            "duration" : 30
                          },
                          {
                            "endTime" : 3982,
                            "time" : 3952,
                            "value" : 2.544,
                            "duration" : 30
                          },
                          {
                            "endTime" : 4297,
                            "time" : 4263,
                            "value" : 2.54399958577061,
                            "duration" : 34
                          },
                          {
                            "endTime" : 5256,
                            "time" : 5216,
                            "value" : 1.0,
                            "duration" : 40
                          },
                          {
                            "endTime" : 5301,
                            "time" : 5260,
                            "value" : 1.83827268333693,
                            "duration" : 41
                          },
                          {
                            "endTime" : 5424,
                            "time" : 5394,
                            "value" : 3.0,
                            "duration" : 30
                          },
                          {
                            "endTime" : 5546,
                            "time" : 5516,
                            "value" : 1.0,
                            "duration" : 30
                          },
                          {
                            "endTime" : 5613,
                            "time" : 5583,
                            "value" : 2.83915442049899,
                            "duration" : 30
                          },
                          {
                            "endTime" : 5818,
                            "time" : 5788,
                            "value" : 1.0,
                            "duration" : 30
                          },
                          {
                            "endTime" : 5873,
                            "time" : 5843,
                            "value" : 2.7350442078531,
                            "duration" : 30
                          }
                        ]
                      },
                      "cursorOpacity" : 1.0,
                      "cursorScale" : 1.0
                    },
                    "medias" : [
                        {
                          "id" : 224,
                          "_type" : "ScreenVMFile",
                          "src" : 1,
                          "trackNumber" : 0,
                          "attributes" : {
                            "ident" : "handle_hijacking_attack_prevention"
                          },
                          "parameters" : {
                            "cursorScale" : {
                              "type" : "double",
                              "defaultValue" : 0.0,
                              "interp" : "linr"
                            },
                            "cursorOpacity" : {
                              "type" : "double",
                              "defaultValue" : 0.0,
                              "interp" : "linr"
                            }
                          },
                          "effects" : [

                          ],
                          "start" : 0,
                          "duration" : 2383,
                          "mediaStart" : 0,
                          "mediaDuration" : 2383,
                          "scalar" : 1,
                          "metadata" : {
                            "AutoAppliedSmartFocus" : "False",
                            "clipSpeedAttribute" : false,
                            "default-scale0" : 1.0,
                            "default-scale1" : 1.0,
                            "default-translation0" : 0.0,
                            "default-translation1" : 0.0
                          },
                          "animationTracks" : {

                          }
                        },
                        {
                          "id" : 225,
                          "_type" : "ScreenIMFile",
                          "src" : 1,
                          "trackNumber" : 0,
                          "trimStartSum" : 0,
                          "attributes" : {
                            "ident" : "handle_hijacking_attack_prevention"
                          },
                          "parameters" : {
                            "cursorOpacity" : 0.0,
                            "cursorScale" : 0.0
                          },
                          "effects" : [

                          ],
                          "start" : 2383,
                          "duration" : 60,
                          "mediaStart" : 2382,
                          "mediaDuration" : 1,
                          "scalar" : 1,
                          "metadata" : {
                            "AutoAppliedSmartFocus" : "False"
                          },
                          "animationTracks" : {

                          }
                        },
                        {
                          "id" : 226,
                          "_type" : "ScreenVMFile",
                          "src" : 1,
                          "trackNumber" : 0,
                          "attributes" : {
                            "ident" : "handle_hijacking_attack_prevention"
                          },
                          "parameters" : {
                            "cursorScale" : {
                              "type" : "double",
                              "defaultValue" : 0.0,
                              "interp" : "linr"
                            },
                            "cursorOpacity" : {
                              "type" : "double",
                              "defaultValue" : 0.0,
                              "interp" : "linr"
                            }
                          },
                          "effects" : [

                          ],
                          "start" : 2443,
                          "duration" : 2141,
                          "mediaStart" : 2383,
                          "mediaDuration" : 2141,
                          "scalar" : 1,
                          "metadata" : {
                            "AutoAppliedSmartFocus" : "False",
                            "clipSpeedAttribute" : false,
                            "default-scale0" : 1.0,
                            "default-scale1" : 1.0,
                            "default-translation0" : 0.0,
                            "default-translation1" : 0.0
                          },
                          "animationTracks" : {

                          }
                        },
                        {
                          "id" : 227,
                          "_type" : "ScreenIMFile",
                          "src" : 1,
                          "trackNumber" : 0,
                          "trimStartSum" : 0,
                          "attributes" : {
                            "ident" : "handle_hijacking_attack_prevention"
                          },
                          "parameters" : {
                            "cursorOpacity" : 0.0,
                            "cursorScale" : 0.0
                          },
                          "effects" : [

                          ],
                          "start" : 4584,
                          "duration" : 60,
                          "mediaStart" : 4524,
                          "mediaDuration" : 1,
                          "scalar" : 1,
                          "metadata" : {
                            "AutoAppliedSmartFocus" : "False"
                          },
                          "animationTracks" : {

                          }
                        },
                        {
                          "id" : 228,
                          "_type" : "ScreenVMFile",
                          "src" : 1,
                          "trackNumber" : 0,
                          "attributes" : {
                            "ident" : "handle_hijacking_attack_prevention"
                          },
                          "parameters" : {
                            "cursorScale" : {
                              "type" : "double",
                              "defaultValue" : 0.0,
                              "interp" : "linr"
                            },
                            "cursorOpacity" : {
                              "type" : "double",
                              "defaultValue" : 0.0,
                              "interp" : "linr"
                            }
                          },
                          "effects" : [

                          ],
                          "start" : 4644,
                          "duration" : 233,
                          "mediaStart" : 4524,
                          "mediaDuration" : 233,
                          "scalar" : 1,
                          "metadata" : {
                            "AutoAppliedSmartFocus" : "False",
                            "clipSpeedAttribute" : false,
                            "default-scale0" : 1.0,
                            "default-scale1" : 1.0,
                            "default-translation0" : 0.0,
                            "default-translation1" : 0.0
                          },
                          "animationTracks" : {

                          }
                        },
                        {
                          "id" : 229,
                          "_type" : "ScreenVMFile",
                          "src" : 1,
                          "trackNumber" : 0,
                          "attributes" : {
                            "ident" : "handle_hijacking_attack_prevention"
                          },
                          "parameters" : {
                            "cursorScale" : {
                              "type" : "double",
                              "defaultValue" : 0.0,
                              "interp" : "linr"
                            },
                            "cursorOpacity" : {
                              "type" : "double",
                              "defaultValue" : 0.0,
                              "interp" : "linr"
                            }
                          },
                          "effects" : [

                          ],
                          "start" : 4877,
                          "duration" : 581,
                          "mediaStart" : 4807,
                          "mediaDuration" : 581,
                          "scalar" : 1,
                          "metadata" : {
                            "AutoAppliedSmartFocus" : "False",
                            "clipSpeedAttribute" : false,
                            "default-scale0" : 1.0,
                            "default-scale1" : 1.0,
                            "default-translation0" : 0.0,
                            "default-translation1" : 0.0
                          },
                          "animationTracks" : {

                          }
                        },
                        {
                          "id" : 230,
                          "_type" : "ScreenIMFile",
                          "src" : 1,
                          "trackNumber" : 0,
                          "trimStartSum" : 0,
                          "attributes" : {
                            "ident" : "handle_hijacking_attack_prevention"
                          },
                          "parameters" : {
                            "cursorOpacity" : 0.0,
                            "cursorScale" : 0.0
                          },
                          "effects" : [

                          ],
                          "start" : 5458,
                          "duration" : 60,
                          "mediaStart" : 5388,
                          "mediaDuration" : 1,
                          "scalar" : 1,
                          "metadata" : {
                            "AutoAppliedSmartFocus" : "False"
                          },
                          "animationTracks" : {

                          }
                        },
                        {
                          "id" : 231,
                          "_type" : "ScreenVMFile",
                          "src" : 1,
                          "trackNumber" : 0,
                          "attributes" : {
                            "ident" : "handle_hijacking_attack_prevention"
                          },
                          "parameters" : {
                            "cursorScale" : {
                              "type" : "double",
                              "defaultValue" : 0.0,
                              "interp" : "linr"
                            },
                            "cursorOpacity" : {
                              "type" : "double",
                              "defaultValue" : 0.0,
                              "interp" : "linr"
                            }
                          },
                          "effects" : [

                          ],
                          "start" : 5518,
                          "duration" : 265,
                          "mediaStart" : 5388,
                          "mediaDuration" : 265,
                          "scalar" : 1,
                          "metadata" : {
                            "AutoAppliedSmartFocus" : "False",
                            "clipSpeedAttribute" : false,
                            "default-scale0" : 1.0,
                            "default-scale1" : 1.0,
                            "default-translation0" : 0.0,
                            "default-translation1" : 0.0
                          },
                          "animationTracks" : {

                          }
                        },
                        {
                          "id" : 232,
                          "_type" : "ScreenIMFile",
                          "src" : 1,
                          "trackNumber" : 0,
                          "trimStartSum" : 0,
                          "attributes" : {
                            "ident" : "handle_hijacking_attack_prevention"
                          },
                          "parameters" : {
                            "cursorOpacity" : 0.0,
                            "cursorScale" : 0.0
                          },
                          "effects" : [

                          ],
                          "start" : 5783,
                          "duration" : 60,
                          "mediaStart" : 5653,
                          "mediaDuration" : 1,
                          "scalar" : 1,
                          "metadata" : {
                            "AutoAppliedSmartFocus" : "False"
                          },
                          "animationTracks" : {

                          }
                        },
                        {
                          "id" : 233,
                          "_type" : "ScreenVMFile",
                          "src" : 1,
                          "trackNumber" : 0,
                          "attributes" : {
                            "ident" : "handle_hijacking_attack_prevention"
                          },
                          "parameters" : {
                            "cursorScale" : {
                              "type" : "double",
                              "defaultValue" : 0.0,
                              "interp" : "linr"
                            },
                            "cursorOpacity" : {
                              "type" : "double",
                              "defaultValue" : 0.0,
                              "interp" : "linr"
                            }
                          },
                          "effects" : [

                          ],
                          "start" : 5843,
                          "duration" : 1216,
                          "mediaStart" : 5653,
                          "mediaDuration" : 1216,
                          "scalar" : 1,
                          "metadata" : {
                            "AutoAppliedSmartFocus" : "False",
                            "clipSpeedAttribute" : false,
                            "default-scale0" : 1.0,
                            "default-scale1" : 1.0,
                            "default-translation0" : 0.0,
                            "default-translation1" : 0.0
                          },
                          "animationTracks" : {

                          }
                        }
                    ],
                    "effects" : [
                        {
                          "effectName" : "CursorHilight",
                          "category" : "categoryCursorEffects",
                          "parameters" : {
                            "blur" : 0.1,
                            "color-alpha" : 0.75,
                            "color-blue" : 0.0,
                            "color-green" : 1.0,
                            "color-red" : 1.0,
                            "radius" : 50.0
                          }
                        }
                    ],
                    "start" : 3880,
                    "duration" : 27,
                    "mediaStart" : 5879,
                    "mediaDuration" : 46,
                    "scalar" : "27/46",
                    "metadata" : {
                      "AutoAppliedSmartFocus" : "False",
                      "clipSpeedAttribute" : true,
                      "default-scale0" : 0.99999922572519,
                      "default-scale1" : 1.0,
                      "default-translation0" : 1.70530256582424e-13,
                      "default-translation1" : -2.27373675443232e-13
                    },
                    "animationTracks" : {
                      "visual" : [
                        {
                          "endTime" : 242,
                          "duration" : 30,
                          "range" : [ 212, 30]
                        },
                        {
                          "endTime" : 332,
                          "duration" : 30,
                          "range" : [ 302, 30]
                        },
                        {
                          "endTime" : 1240,
                          "duration" : 30,
                          "range" : [ 1210, 30]
                        },
                        {
                          "endTime" : 1493,
                          "duration" : 30,
                          "range" : [ 1463, 30]
                        },
                        {
                          "endTime" : 2029,
                          "duration" : 26,
                          "range" : [ 2003, 26]
                        },
                        {
                          "endTime" : 2478,
                          "duration" : 30,
                          "range" : [ 2448, 30]
                        },
                        {
                          "endTime" : 3060,
                          "duration" : 30,
                          "range" : [ 3030, 30]
                        },
                        {
                          "endTime" : 3378,
                          "duration" : 30,
                          "range" : [ 3348, 30]
                        },
                        {
                          "endTime" : 3752,
                          "duration" : 49,
                          "range" : [ 3703, 49]
                        },
                        {
                          "endTime" : 3826,
                          "duration" : 46,
                          "range" : [ 3780, 46]
                        },
                        {
                          "endTime" : 3943,
                          "duration" : 30,
                          "range" : [ 3913, 30]
                        },
                        {
                          "endTime" : 3982,
                          "duration" : 30,
                          "range" : [ 3952, 30]
                        },
                        {
                          "endTime" : 4297,
                          "duration" : 34,
                          "range" : [ 4263, 34]
                        },
                        {
                          "endTime" : 5256,
                          "duration" : 40,
                          "range" : [ 5216, 40]
                        },
                        {
                          "endTime" : 5301,
                          "duration" : 41,
                          "range" : [ 5260, 41]
                        },
                        {
                          "endTime" : 5424,
                          "duration" : 30,
                          "range" : [ 5394, 30]
                        },
                        {
                          "endTime" : 5546,
                          "duration" : 30,
                          "range" : [ 5516, 30]
                        },
                        {
                          "endTime" : 5613,
                          "duration" : 30,
                          "range" : [ 5583, 30]
                        },
                        {
                          "endTime" : 5818,
                          "duration" : 30,
                          "range" : [ 5788, 30]
                        },
                        {
                          "endTime" : 5873,
                          "duration" : 30,
                          "range" : [ 5843, 30]
                        }
                      ]
                    }
                  },
                  {
                    "id" : 234,
                    "_type" : "StitchedMedia",
                    "minMediaStart" : 0,
                    "attributes" : {
                      "ident" : "handle_hijacking_attack_prevention",
                      "gain" : 1.0,
                      "mixToMono" : false
                    },
                    "parameters" : {
                      "translation0" : {
                        "type" : "double",
                        "defaultValue" : 0.0,
                        "keyframes" : [
                          {
                            "endTime" : 242,
                            "time" : 212,
                            "value" : 4445.6304568441,
                            "duration" : 30
                          },
                          {
                            "endTime" : 332,
                            "time" : 302,
                            "value" : -7.95807864051312e-13,
                            "duration" : 30
                          },
                          {
                            "endTime" : 1240,
                            "time" : 1210,
                            "value" : 1813.23805555168,
                            "duration" : 30
                          },
                          {
                            "endTime" : 1493,
                            "time" : 1463,
                            "value" : 1769.1,
                            "duration" : 30
                          },
                          {
                            "endTime" : 2029,
                            "time" : 2003,
                            "value" : 1769.08221838715,
                            "duration" : 26
                          },
                          {
                            "endTime" : 2478,
                            "time" : 2448,
                            "value" : -1.13686837721616e-13,
                            "duration" : 30
                          },
                          {
                            "endTime" : 3060,
                            "time" : 3030,
                            "value" : -927.066246510699,
                            "duration" : 30
                          },
                          {
                            "endTime" : 3378,
                            "time" : 3348,
                            "value" : -927.1,
                            "duration" : 30
                          },
                          {
                            "endTime" : 3752,
                            "time" : 3703,
                            "value" : 1.13686837721616e-13,
                            "duration" : 49
                          },
                          {
                            "endTime" : 3826,
                            "time" : 3780,
                            "value" : 2190.48664188307,
                            "duration" : 46
                          },
                          {
                            "endTime" : 3943,
                            "time" : 3913,
                            "value" : 2.27373675443232e-13,
                            "duration" : 30
                          },
                          {
                            "endTime" : 3982,
                            "time" : 3952,
                            "value" : -927.1,
                            "duration" : 30
                          },
                          {
                            "endTime" : 4297,
                            "time" : 4263,
                            "value" : -927.1,
                            "duration" : 34
                          },
                          {
                            "endTime" : 5256,
                            "time" : 5216,
                            "value" : 5.6843418860808e-14,
                            "duration" : 40
                          },
                          {
                            "endTime" : 5301,
                            "time" : 5260,
                            "value" : 680.367023205802,
                            "duration" : 41
                          },
                          {
                            "endTime" : 5424,
                            "time" : 5394,
                            "value" : 1794.65403755581,
                            "duration" : 30
                          },
                          {
                            "endTime" : 5546,
                            "time" : 5516,
                            "value" : -3.41060513164848e-13,
                            "duration" : 30
                          },
                          {
                            "endTime" : 5613,
                            "time" : 5583,
                            "value" : -877.024502523768,
                            "duration" : 30
                          },
                          {
                            "endTime" : 5818,
                            "time" : 5788,
                            "value" : 1.70530256582424e-13,
                            "duration" : 30
                          },
                          {
                            "endTime" : 5873,
                            "time" : 5843,
                            "value" : 1572.46260600652,
                            "duration" : 30
                          }
                        ]
                      },
                      "translation1" : {
                        "type" : "double",
                        "defaultValue" : 0.0,
                        "keyframes" : [
                          {
                            "endTime" : 242,
                            "time" : 212,
                            "value" : -2101.5592739797,
                            "duration" : 30
                          },
                          {
                            "endTime" : 332,
                            "time" : 302,
                            "value" : 4.54747350886464e-13,
                            "duration" : 30
                          },
                          {
                            "endTime" : 1240,
                            "time" : 1210,
                            "value" : 0.0,
                            "duration" : 30
                          },
                          {
                            "endTime" : 1493,
                            "time" : 1463,
                            "value" : 764.586721975313,
                            "duration" : 30
                          },
                          {
                            "endTime" : 2029,
                            "time" : 2003,
                            "value" : 955.733402469141,
                            "duration" : 26
                          },
                          {
                            "endTime" : 2478,
                            "time" : 2448,
                            "value" : -5.6843418860808e-14,
                            "duration" : 30
                          },
                          {
                            "endTime" : 3060,
                            "time" : 3030,
                            "value" : 51.6923109282546,
                            "duration" : 30
                          },
                          {
                            "endTime" : 3378,
                            "time" : 3348,
                            "value" : 793.192387394355,
                            "duration" : 30
                          },
                          {
                            "endTime" : 3752,
                            "time" : 3703,
                            "value" : 0.0,
                            "duration" : 49
                          },
                          {
                            "endTime" : 3826,
                            "time" : 3780,
                            "value" : 525.407539085336,
                            "duration" : 46
                          },
                          {
                            "endTime" : 3943,
                            "time" : 3913,
                            "value" : -8.5265128291212e-14,
                            "duration" : 30
                          },
                          {
                            "endTime" : 3982,
                            "time" : 3952,
                            "value" : 693.2,
                            "duration" : 30
                          },
                          {
                            "endTime" : 4297,
                            "time" : 4263,
                            "value" : 796.601448181272,
                            "duration" : 34
                          },
                          {
                            "endTime" : 5256,
                            "time" : 5216,
                            "value" : 0.0,
                            "duration" : 40
                          },
                          {
                            "endTime" : 5301,
                            "time" : 5260,
                            "value" : 382.706644741061,
                            "duration" : 41
                          },
                          {
                            "endTime" : 5424,
                            "time" : 5394,
                            "value" : 175.346948293544,
                            "duration" : 30
                          },
                          {
                            "endTime" : 5546,
                            "time" : 5516,
                            "value" : -1.27897692436818e-13,
                            "duration" : 30
                          },
                          {
                            "endTime" : 5613,
                            "time" : 5583,
                            "value" : 908.758378625847,
                            "duration" : 30
                          },
                          {
                            "endTime" : 5818,
                            "time" : 5788,
                            "value" : -2.27373675443232e-13,
                            "duration" : 30
                          },
                          {
                            "endTime" : 5873,
                            "time" : 5843,
                            "value" : 862.287656103343,
                            "duration" : 30
                          }
                        ]
                      },
                      "scale0" : {
                        "type" : "double",
                        "defaultValue" : 1.0,
                        "keyframes" : [
                          {
                            "endTime" : 242,
                            "time" : 212,
                            "value" : 4.90967434857952,
                            "duration" : 30
                          },
                          {
                            "endTime" : 332,
                            "time" : 302,
                            "value" : 0.99999957889657,
                            "duration" : 30
                          },
                          {
                            "endTime" : 1240,
                            "time" : 1210,
                            "value" : 2.93925764732581,
                            "duration" : 30
                          },
                          {
                            "endTime" : 1493,
                            "time" : 1463,
                            "value" : 2.93925755430459,
                            "duration" : 30
                          },
                          {
                            "endTime" : 2029,
                            "time" : 2003,
                            "value" : 2.93925746128338,
                            "duration" : 26
                          },
                          {
                            "endTime" : 2478,
                            "time" : 2448,
                            "value" : 0.999999315951539,
                            "duration" : 30
                          },
                          {
                            "endTime" : 3060,
                            "time" : 3030,
                            "value" : 2.54358807927679,
                            "duration" : 30
                          },
                          {
                            "endTime" : 3378,
                            "time" : 3348,
                            "value" : 2.5435882186022,
                            "duration" : 30
                          },
                          {
                            "endTime" : 3752,
                            "time" : 3703,
                            "value" : 0.999999337858405,
                            "duration" : 49
                          },
                          {
                            "endTime" : 3826,
                            "time" : 3780,
                            "value" : 3.2977262743969,
                            "duration" : 46
                          },
                          {
                            "endTime" : 3943,
                            "time" : 3913,
                            "value" : 0.999999616666313,
                            "duration" : 30
                          },
                          {
                            "endTime" : 3982,
                            "time" : 3952,
                            "value" : 2.5439982822715,
                            "duration" : 30
                          },
                          {
                            "endTime" : 4297,
                            "time" : 4263,
                            "value" : 2.54399842552367,
                            "duration" : 34
                          },
                          {
                            "endTime" : 5256,
                            "time" : 5216,
                            "value" : 0.999999543928019,
                            "duration" : 40
                          },
                          {
                            "endTime" : 5301,
                            "time" : 5260,
                            "value" : 1.83827164662978,
                            "duration" : 41
                          },
                          {
                            "endTime" : 5424,
                            "time" : 5394,
                            "value" : 2.9999982078393,
                            "duration" : 30
                          },
                          {
                            "endTime" : 5546,
                            "time" : 5516,
                            "value" : 0.999999402613099,
                            "duration" : 30
                          },
                          {
                            "endTime" : 5613,
                            "time" : 5583,
                            "value" : 2.83915222221324,
                            "duration" : 30
                          },
                          {
                            "endTime" : 5818,
                            "time" : 5788,
                            "value" : 0.99999922572519,
                            "duration" : 30
                          },
                          {
                            "endTime" : 5873,
                            "time" : 5843,
                            "value" : 2.73504203536443,
                            "duration" : 30
                          }
                        ]
                      },
                      "scale1" : {
                        "type" : "double",
                        "defaultValue" : 1.0,
                        "keyframes" : [
                          {
                            "endTime" : 242,
                            "time" : 212,
                            "value" : 4.90967641606111,
                            "duration" : 30
                          },
                          {
                            "endTime" : 332,
                            "time" : 302,
                            "value" : 1.0,
                            "duration" : 30
                          },
                          {
                            "endTime" : 1240,
                            "time" : 1210,
                            "value" : 2.9392594718793,
                            "duration" : 30
                          },
                          {
                            "endTime" : 2029,
                            "time" : 2003,
                            "value" : 2.9392594718793,
                            "duration" : 26
                          },
                          {
                            "endTime" : 2478,
                            "time" : 2448,
                            "value" : 1.0,
                            "duration" : 30
                          },
                          {
                            "endTime" : 3060,
                            "time" : 3030,
                            "value" : 2.54358990281888,
                            "duration" : 30
                          },
                          {
                            "endTime" : 3752,
                            "time" : 3703,
                            "value" : 1.0,
                            "duration" : 49
                          },
                          {
                            "endTime" : 3826,
                            "time" : 3780,
                            "value" : 3.29772753852696,
                            "duration" : 46
                          },
                          {
                            "endTime" : 3943,
                            "time" : 3913,
                            "value" : 1.0,
                            "duration" : 30
                          },
                          {
                            "endTime" : 3982,
                            "time" : 3952,
                            "value" : 2.544,
                            "duration" : 30
                          },
                          {
                            "endTime" : 4297,
                            "time" : 4263,
                            "value" : 2.54399958577061,
                            "duration" : 34
                          },
                          {
                            "endTime" : 5256,
                            "time" : 5216,
                            "value" : 1.0,
                            "duration" : 40
                          },
                          {
                            "endTime" : 5301,
                            "time" : 5260,
                            "value" : 1.83827268333693,
                            "duration" : 41
                          },
                          {
                            "endTime" : 5424,
                            "time" : 5394,
                            "value" : 3.0,
                            "duration" : 30
                          },
                          {
                            "endTime" : 5546,
                            "time" : 5516,
                            "value" : 1.0,
                            "duration" : 30
                          },
                          {
                            "endTime" : 5613,
                            "time" : 5583,
                            "value" : 2.83915442049899,
                            "duration" : 30
                          },
                          {
                            "endTime" : 5818,
                            "time" : 5788,
                            "value" : 1.0,
                            "duration" : 30
                          },
                          {
                            "endTime" : 5873,
                            "time" : 5843,
                            "value" : 2.7350442078531,
                            "duration" : 30
                          }
                        ]
                      },
                      "cursorOpacity" : 1.0,
                      "cursorScale" : 1.0
                    },
                    "medias" : [
                        {
                          "id" : 235,
                          "_type" : "ScreenVMFile",
                          "src" : 1,
                          "trackNumber" : 0,
                          "attributes" : {
                            "ident" : "handle_hijacking_attack_prevention"
                          },
                          "parameters" : {
                            "cursorScale" : {
                              "type" : "double",
                              "defaultValue" : 0.0,
                              "interp" : "linr"
                            },
                            "cursorOpacity" : {
                              "type" : "double",
                              "defaultValue" : 0.0,
                              "interp" : "linr"
                            }
                          },
                          "effects" : [

                          ],
                          "start" : 0,
                          "duration" : 2383,
                          "mediaStart" : 0,
                          "mediaDuration" : 2383,
                          "scalar" : 1,
                          "metadata" : {
                            "AutoAppliedSmartFocus" : "False",
                            "clipSpeedAttribute" : false,
                            "default-scale0" : 1.0,
                            "default-scale1" : 1.0,
                            "default-translation0" : 0.0,
                            "default-translation1" : 0.0
                          },
                          "animationTracks" : {

                          }
                        },
                        {
                          "id" : 236,
                          "_type" : "ScreenIMFile",
                          "src" : 1,
                          "trackNumber" : 0,
                          "trimStartSum" : 0,
                          "attributes" : {
                            "ident" : "handle_hijacking_attack_prevention"
                          },
                          "parameters" : {
                            "cursorOpacity" : 0.0,
                            "cursorScale" : 0.0
                          },
                          "effects" : [

                          ],
                          "start" : 2383,
                          "duration" : 60,
                          "mediaStart" : 2382,
                          "mediaDuration" : 1,
                          "scalar" : 1,
                          "metadata" : {
                            "AutoAppliedSmartFocus" : "False"
                          },
                          "animationTracks" : {

                          }
                        },
                        {
                          "id" : 237,
                          "_type" : "ScreenVMFile",
                          "src" : 1,
                          "trackNumber" : 0,
                          "attributes" : {
                            "ident" : "handle_hijacking_attack_prevention"
                          },
                          "parameters" : {
                            "cursorScale" : {
                              "type" : "double",
                              "defaultValue" : 0.0,
                              "interp" : "linr"
                            },
                            "cursorOpacity" : {
                              "type" : "double",
                              "defaultValue" : 0.0,
                              "interp" : "linr"
                            }
                          },
                          "effects" : [

                          ],
                          "start" : 2443,
                          "duration" : 2141,
                          "mediaStart" : 2383,
                          "mediaDuration" : 2141,
                          "scalar" : 1,
                          "metadata" : {
                            "AutoAppliedSmartFocus" : "False",
                            "clipSpeedAttribute" : false,
                            "default-scale0" : 1.0,
                            "default-scale1" : 1.0,
                            "default-translation0" : 0.0,
                            "default-translation1" : 0.0
                          },
                          "animationTracks" : {

                          }
                        },
                        {
                          "id" : 238,
                          "_type" : "ScreenIMFile",
                          "src" : 1,
                          "trackNumber" : 0,
                          "trimStartSum" : 0,
                          "attributes" : {
                            "ident" : "handle_hijacking_attack_prevention"
                          },
                          "parameters" : {
                            "cursorOpacity" : 0.0,
                            "cursorScale" : 0.0
                          },
                          "effects" : [

                          ],
                          "start" : 4584,
                          "duration" : 60,
                          "mediaStart" : 4524,
                          "mediaDuration" : 1,
                          "scalar" : 1,
                          "metadata" : {
                            "AutoAppliedSmartFocus" : "False"
                          },
                          "animationTracks" : {

                          }
                        },
                        {
                          "id" : 239,
                          "_type" : "ScreenVMFile",
                          "src" : 1,
                          "trackNumber" : 0,
                          "attributes" : {
                            "ident" : "handle_hijacking_attack_prevention"
                          },
                          "parameters" : {
                            "cursorScale" : {
                              "type" : "double",
                              "defaultValue" : 0.0,
                              "interp" : "linr"
                            },
                            "cursorOpacity" : {
                              "type" : "double",
                              "defaultValue" : 0.0,
                              "interp" : "linr"
                            }
                          },
                          "effects" : [

                          ],
                          "start" : 4644,
                          "duration" : 233,
                          "mediaStart" : 4524,
                          "mediaDuration" : 233,
                          "scalar" : 1,
                          "metadata" : {
                            "AutoAppliedSmartFocus" : "False",
                            "clipSpeedAttribute" : false,
                            "default-scale0" : 1.0,
                            "default-scale1" : 1.0,
                            "default-translation0" : 0.0,
                            "default-translation1" : 0.0
                          },
                          "animationTracks" : {

                          }
                        },
                        {
                          "id" : 240,
                          "_type" : "ScreenVMFile",
                          "src" : 1,
                          "trackNumber" : 0,
                          "attributes" : {
                            "ident" : "handle_hijacking_attack_prevention"
                          },
                          "parameters" : {
                            "cursorScale" : {
                              "type" : "double",
                              "defaultValue" : 0.0,
                              "interp" : "linr"
                            },
                            "cursorOpacity" : {
                              "type" : "double",
                              "defaultValue" : 0.0,
                              "interp" : "linr"
                            }
                          },
                          "effects" : [

                          ],
                          "start" : 4877,
                          "duration" : 581,
                          "mediaStart" : 4807,
                          "mediaDuration" : 581,
                          "scalar" : 1,
                          "metadata" : {
                            "AutoAppliedSmartFocus" : "False",
                            "clipSpeedAttribute" : false,
                            "default-scale0" : 1.0,
                            "default-scale1" : 1.0,
                            "default-translation0" : 0.0,
                            "default-translation1" : 0.0
                          },
                          "animationTracks" : {

                          }
                        },
                        {
                          "id" : 241,
                          "_type" : "ScreenIMFile",
                          "src" : 1,
                          "trackNumber" : 0,
                          "trimStartSum" : 0,
                          "attributes" : {
                            "ident" : "handle_hijacking_attack_prevention"
                          },
                          "parameters" : {
                            "cursorOpacity" : 0.0,
                            "cursorScale" : 0.0
                          },
                          "effects" : [

                          ],
                          "start" : 5458,
                          "duration" : 60,
                          "mediaStart" : 5388,
                          "mediaDuration" : 1,
                          "scalar" : 1,
                          "metadata" : {
                            "AutoAppliedSmartFocus" : "False"
                          },
                          "animationTracks" : {

                          }
                        },
                        {
                          "id" : 242,
                          "_type" : "ScreenVMFile",
                          "src" : 1,
                          "trackNumber" : 0,
                          "attributes" : {
                            "ident" : "handle_hijacking_attack_prevention"
                          },
                          "parameters" : {
                            "cursorScale" : {
                              "type" : "double",
                              "defaultValue" : 0.0,
                              "interp" : "linr"
                            },
                            "cursorOpacity" : {
                              "type" : "double",
                              "defaultValue" : 0.0,
                              "interp" : "linr"
                            }
                          },
                          "effects" : [

                          ],
                          "start" : 5518,
                          "duration" : 265,
                          "mediaStart" : 5388,
                          "mediaDuration" : 265,
                          "scalar" : 1,
                          "metadata" : {
                            "AutoAppliedSmartFocus" : "False",
                            "clipSpeedAttribute" : false,
                            "default-scale0" : 1.0,
                            "default-scale1" : 1.0,
                            "default-translation0" : 0.0,
                            "default-translation1" : 0.0
                          },
                          "animationTracks" : {

                          }
                        },
                        {
                          "id" : 243,
                          "_type" : "ScreenIMFile",
                          "src" : 1,
                          "trackNumber" : 0,
                          "trimStartSum" : 0,
                          "attributes" : {
                            "ident" : "handle_hijacking_attack_prevention"
                          },
                          "parameters" : {
                            "cursorOpacity" : 0.0,
                            "cursorScale" : 0.0
                          },
                          "effects" : [

                          ],
                          "start" : 5783,
                          "duration" : 60,
                          "mediaStart" : 5653,
                          "mediaDuration" : 1,
                          "scalar" : 1,
                          "metadata" : {
                            "AutoAppliedSmartFocus" : "False"
                          },
                          "animationTracks" : {

                          }
                        },
                        {
                          "id" : 244,
                          "_type" : "ScreenVMFile",
                          "src" : 1,
                          "trackNumber" : 0,
                          "attributes" : {
                            "ident" : "handle_hijacking_attack_prevention"
                          },
                          "parameters" : {
                            "cursorScale" : {
                              "type" : "double",
                              "defaultValue" : 0.0,
                              "interp" : "linr"
                            },
                            "cursorOpacity" : {
                              "type" : "double",
                              "defaultValue" : 0.0,
                              "interp" : "linr"
                            }
                          },
                          "effects" : [

                          ],
                          "start" : 5843,
                          "duration" : 1216,
                          "mediaStart" : 5653,
                          "mediaDuration" : 1216,
                          "scalar" : 1,
                          "metadata" : {
                            "AutoAppliedSmartFocus" : "False",
                            "clipSpeedAttribute" : false,
                            "default-scale0" : 1.0,
                            "default-scale1" : 1.0,
                            "default-translation0" : 0.0,
                            "default-translation1" : 0.0
                          },
                          "animationTracks" : {

                          }
                        }
                    ],
                    "effects" : [
                        {
                          "effectName" : "CursorHilight",
                          "category" : "categoryCursorEffects",
                          "parameters" : {
                            "blur" : 0.1,
                            "color-alpha" : 0.75,
                            "color-blue" : 0.0,
                            "color-green" : 1.0,
                            "color-red" : 1.0,
                            "radius" : 50.0
                          }
                        }
                    ],
                    "start" : 3907,
                    "duration" : 25,
                    "mediaStart" : 5925,
                    "mediaDuration" : 75,
                    "scalar" : "1/3",
                    "metadata" : {
                      "AutoAppliedSmartFocus" : "False",
                      "clipSpeedAttribute" : true,
                      "default-scale0" : 0.99999922572519,
                      "default-scale1" : 1.0,
                      "default-translation0" : 1.70530256582424e-13,
                      "default-translation1" : -2.27373675443232e-13
                    },
                    "animationTracks" : {
                      "visual" : [
                        {
                          "endTime" : 242,
                          "duration" : 30,
                          "range" : [ 212, 30]
                        },
                        {
                          "endTime" : 332,
                          "duration" : 30,
                          "range" : [ 302, 30]
                        },
                        {
                          "endTime" : 1240,
                          "duration" : 30,
                          "range" : [ 1210, 30]
                        },
                        {
                          "endTime" : 1493,
                          "duration" : 30,
                          "range" : [ 1463, 30]
                        },
                        {
                          "endTime" : 2029,
                          "duration" : 26,
                          "range" : [ 2003, 26]
                        },
                        {
                          "endTime" : 2478,
                          "duration" : 30,
                          "range" : [ 2448, 30]
                        },
                        {
                          "endTime" : 3060,
                          "duration" : 30,
                          "range" : [ 3030, 30]
                        },
                        {
                          "endTime" : 3378,
                          "duration" : 30,
                          "range" : [ 3348, 30]
                        },
                        {
                          "endTime" : 3752,
                          "duration" : 49,
                          "range" : [ 3703, 49]
                        },
                        {
                          "endTime" : 3826,
                          "duration" : 46,
                          "range" : [ 3780, 46]
                        },
                        {
                          "endTime" : 3943,
                          "duration" : 30,
                          "range" : [ 3913, 30]
                        },
                        {
                          "endTime" : 3982,
                          "duration" : 30,
                          "range" : [ 3952, 30]
                        },
                        {
                          "endTime" : 4297,
                          "duration" : 34,
                          "range" : [ 4263, 34]
                        },
                        {
                          "endTime" : 5256,
                          "duration" : 40,
                          "range" : [ 5216, 40]
                        },
                        {
                          "endTime" : 5301,
                          "duration" : 41,
                          "range" : [ 5260, 41]
                        },
                        {
                          "endTime" : 5424,
                          "duration" : 30,
                          "range" : [ 5394, 30]
                        },
                        {
                          "endTime" : 5546,
                          "duration" : 30,
                          "range" : [ 5516, 30]
                        },
                        {
                          "endTime" : 5613,
                          "duration" : 30,
                          "range" : [ 5583, 30]
                        },
                        {
                          "endTime" : 5818,
                          "duration" : 30,
                          "range" : [ 5788, 30]
                        },
                        {
                          "endTime" : 5873,
                          "duration" : 30,
                          "range" : [ 5843, 30]
                        }
                      ]
                    }
                  },
                  {
                    "id" : 245,
                    "_type" : "StitchedMedia",
                    "minMediaStart" : 0,
                    "attributes" : {
                      "ident" : "handle_hijacking_attack_prevention",
                      "gain" : 1.0,
                      "mixToMono" : false
                    },
                    "parameters" : {
                      "translation0" : {
                        "type" : "double",
                        "defaultValue" : 0.0,
                        "keyframes" : [
                          {
                            "endTime" : 242,
                            "time" : 212,
                            "value" : 4445.6304568441,
                            "duration" : 30
                          },
                          {
                            "endTime" : 332,
                            "time" : 302,
                            "value" : -7.95807864051312e-13,
                            "duration" : 30
                          },
                          {
                            "endTime" : 1240,
                            "time" : 1210,
                            "value" : 1813.23805555168,
                            "duration" : 30
                          },
                          {
                            "endTime" : 1493,
                            "time" : 1463,
                            "value" : 1769.1,
                            "duration" : 30
                          },
                          {
                            "endTime" : 2029,
                            "time" : 2003,
                            "value" : 1769.08221838715,
                            "duration" : 26
                          },
                          {
                            "endTime" : 2478,
                            "time" : 2448,
                            "value" : -1.13686837721616e-13,
                            "duration" : 30
                          },
                          {
                            "endTime" : 3060,
                            "time" : 3030,
                            "value" : -927.066246510699,
                            "duration" : 30
                          },
                          {
                            "endTime" : 3378,
                            "time" : 3348,
                            "value" : -927.1,
                            "duration" : 30
                          },
                          {
                            "endTime" : 3752,
                            "time" : 3703,
                            "value" : 1.13686837721616e-13,
                            "duration" : 49
                          },
                          {
                            "endTime" : 3826,
                            "time" : 3780,
                            "value" : 2190.48664188307,
                            "duration" : 46
                          },
                          {
                            "endTime" : 3943,
                            "time" : 3913,
                            "value" : 2.27373675443232e-13,
                            "duration" : 30
                          },
                          {
                            "endTime" : 3982,
                            "time" : 3952,
                            "value" : -927.1,
                            "duration" : 30
                          },
                          {
                            "endTime" : 4297,
                            "time" : 4263,
                            "value" : -927.1,
                            "duration" : 34
                          },
                          {
                            "endTime" : 5256,
                            "time" : 5216,
                            "value" : 5.6843418860808e-14,
                            "duration" : 40
                          },
                          {
                            "endTime" : 5301,
                            "time" : 5260,
                            "value" : 680.367023205802,
                            "duration" : 41
                          },
                          {
                            "endTime" : 5424,
                            "time" : 5394,
                            "value" : 1794.65403755581,
                            "duration" : 30
                          },
                          {
                            "endTime" : 5546,
                            "time" : 5516,
                            "value" : -3.41060513164848e-13,
                            "duration" : 30
                          },
                          {
                            "endTime" : 5613,
                            "time" : 5583,
                            "value" : -877.024502523768,
                            "duration" : 30
                          },
                          {
                            "endTime" : 5818,
                            "time" : 5788,
                            "value" : 1.70530256582424e-13,
                            "duration" : 30
                          },
                          {
                            "endTime" : 5873,
                            "time" : 5843,
                            "value" : 1572.46260600652,
                            "duration" : 30
                          },
                          {
                            "endTime" : 6030,
                            "time" : 6000,
                            "value" : 2.27373675443232e-13,
                            "duration" : 30
                          }
                        ]
                      },
                      "translation1" : {
                        "type" : "double",
                        "defaultValue" : 0.0,
                        "keyframes" : [
                          {
                            "endTime" : 242,
                            "time" : 212,
                            "value" : -2101.5592739797,
                            "duration" : 30
                          },
                          {
                            "endTime" : 332,
                            "time" : 302,
                            "value" : 4.54747350886464e-13,
                            "duration" : 30
                          },
                          {
                            "endTime" : 1240,
                            "time" : 1210,
                            "value" : 0.0,
                            "duration" : 30
                          },
                          {
                            "endTime" : 1493,
                            "time" : 1463,
                            "value" : 764.586721975313,
                            "duration" : 30
                          },
                          {
                            "endTime" : 2029,
                            "time" : 2003,
                            "value" : 955.733402469141,
                            "duration" : 26
                          },
                          {
                            "endTime" : 2478,
                            "time" : 2448,
                            "value" : -5.6843418860808e-14,
                            "duration" : 30
                          },
                          {
                            "endTime" : 3060,
                            "time" : 3030,
                            "value" : 51.6923109282546,
                            "duration" : 30
                          },
                          {
                            "endTime" : 3378,
                            "time" : 3348,
                            "value" : 793.192387394355,
                            "duration" : 30
                          },
                          {
                            "endTime" : 3752,
                            "time" : 3703,
                            "value" : 0.0,
                            "duration" : 49
                          },
                          {
                            "endTime" : 3826,
                            "time" : 3780,
                            "value" : 525.407539085336,
                            "duration" : 46
                          },
                          {
                            "endTime" : 3943,
                            "time" : 3913,
                            "value" : -8.5265128291212e-14,
                            "duration" : 30
                          },
                          {
                            "endTime" : 3982,
                            "time" : 3952,
                            "value" : 693.2,
                            "duration" : 30
                          },
                          {
                            "endTime" : 4297,
                            "time" : 4263,
                            "value" : 796.601448181272,
                            "duration" : 34
                          },
                          {
                            "endTime" : 5256,
                            "time" : 5216,
                            "value" : 0.0,
                            "duration" : 40
                          },
                          {
                            "endTime" : 5301,
                            "time" : 5260,
                            "value" : 382.706644741061,
                            "duration" : 41
                          },
                          {
                            "endTime" : 5424,
                            "time" : 5394,
                            "value" : 175.346948293544,
                            "duration" : 30
                          },
                          {
                            "endTime" : 5546,
                            "time" : 5516,
                            "value" : -1.27897692436818e-13,
                            "duration" : 30
                          },
                          {
                            "endTime" : 5613,
                            "time" : 5583,
                            "value" : 908.758378625847,
                            "duration" : 30
                          },
                          {
                            "endTime" : 5818,
                            "time" : 5788,
                            "value" : -2.27373675443232e-13,
                            "duration" : 30
                          },
                          {
                            "endTime" : 5873,
                            "time" : 5843,
                            "value" : 862.287656103343,
                            "duration" : 30
                          },
                          {
                            "endTime" : 6030,
                            "time" : 6000,
                            "value" : -1.13686837721616e-13,
                            "duration" : 30
                          }
                        ]
                      },
                      "scale0" : {
                        "type" : "double",
                        "defaultValue" : 1.0,
                        "keyframes" : [
                          {
                            "endTime" : 242,
                            "time" : 212,
                            "value" : 4.90967434857952,
                            "duration" : 30
                          },
                          {
                            "endTime" : 332,
                            "time" : 302,
                            "value" : 0.99999957889657,
                            "duration" : 30
                          },
                          {
                            "endTime" : 1240,
                            "time" : 1210,
                            "value" : 2.93925764732581,
                            "duration" : 30
                          },
                          {
                            "endTime" : 1493,
                            "time" : 1463,
                            "value" : 2.93925755430459,
                            "duration" : 30
                          },
                          {
                            "endTime" : 2029,
                            "time" : 2003,
                            "value" : 2.93925746128338,
                            "duration" : 26
                          },
                          {
                            "endTime" : 2478,
                            "time" : 2448,
                            "value" : 0.999999315951539,
                            "duration" : 30
                          },
                          {
                            "endTime" : 3060,
                            "time" : 3030,
                            "value" : 2.54358807927679,
                            "duration" : 30
                          },
                          {
                            "endTime" : 3378,
                            "time" : 3348,
                            "value" : 2.5435882186022,
                            "duration" : 30
                          },
                          {
                            "endTime" : 3752,
                            "time" : 3703,
                            "value" : 0.999999337858405,
                            "duration" : 49
                          },
                          {
                            "endTime" : 3826,
                            "time" : 3780,
                            "value" : 3.2977262743969,
                            "duration" : 46
                          },
                          {
                            "endTime" : 3943,
                            "time" : 3913,
                            "value" : 0.999999616666313,
                            "duration" : 30
                          },
                          {
                            "endTime" : 3982,
                            "time" : 3952,
                            "value" : 2.5439982822715,
                            "duration" : 30
                          },
                          {
                            "endTime" : 4297,
                            "time" : 4263,
                            "value" : 2.54399842552367,
                            "duration" : 34
                          },
                          {
                            "endTime" : 5256,
                            "time" : 5216,
                            "value" : 0.999999543928019,
                            "duration" : 40
                          },
                          {
                            "endTime" : 5301,
                            "time" : 5260,
                            "value" : 1.83827164662978,
                            "duration" : 41
                          },
                          {
                            "endTime" : 5424,
                            "time" : 5394,
                            "value" : 2.9999982078393,
                            "duration" : 30
                          },
                          {
                            "endTime" : 5546,
                            "time" : 5516,
                            "value" : 0.999999402613099,
                            "duration" : 30
                          },
                          {
                            "endTime" : 5613,
                            "time" : 5583,
                            "value" : 2.83915222221324,
                            "duration" : 30
                          },
                          {
                            "endTime" : 5818,
                            "time" : 5788,
                            "value" : 0.99999922572519,
                            "duration" : 30
                          },
                          {
                            "endTime" : 5873,
                            "time" : 5843,
                            "value" : 2.73504203536443,
                            "duration" : 30
                          },
                          {
                            "endTime" : 6030,
                            "time" : 6000,
                            "value" : 0.999999205684257,
                            "duration" : 30
                          }
                        ]
                      },
                      "scale1" : {
                        "type" : "double",
                        "defaultValue" : 1.0,
                        "keyframes" : [
                          {
                            "endTime" : 242,
                            "time" : 212,
                            "value" : 4.90967641606111,
                            "duration" : 30
                          },
                          {
                            "endTime" : 332,
                            "time" : 302,
                            "value" : 1.0,
                            "duration" : 30
                          },
                          {
                            "endTime" : 1240,
                            "time" : 1210,
                            "value" : 2.9392594718793,
                            "duration" : 30
                          },
                          {
                            "endTime" : 2029,
                            "time" : 2003,
                            "value" : 2.9392594718793,
                            "duration" : 26
                          },
                          {
                            "endTime" : 2478,
                            "time" : 2448,
                            "value" : 1.0,
                            "duration" : 30
                          },
                          {
                            "endTime" : 3060,
                            "time" : 3030,
                            "value" : 2.54358990281888,
                            "duration" : 30
                          },
                          {
                            "endTime" : 3752,
                            "time" : 3703,
                            "value" : 1.0,
                            "duration" : 49
                          },
                          {
                            "endTime" : 3826,
                            "time" : 3780,
                            "value" : 3.29772753852696,
                            "duration" : 46
                          },
                          {
                            "endTime" : 3943,
                            "time" : 3913,
                            "value" : 1.0,
                            "duration" : 30
                          },
                          {
                            "endTime" : 3982,
                            "time" : 3952,
                            "value" : 2.544,
                            "duration" : 30
                          },
                          {
                            "endTime" : 4297,
                            "time" : 4263,
                            "value" : 2.54399958577061,
                            "duration" : 34
                          },
                          {
                            "endTime" : 5256,
                            "time" : 5216,
                            "value" : 1.0,
                            "duration" : 40
                          },
                          {
                            "endTime" : 5301,
                            "time" : 5260,
                            "value" : 1.83827268333693,
                            "duration" : 41
                          },
                          {
                            "endTime" : 5424,
                            "time" : 5394,
                            "value" : 3.0,
                            "duration" : 30
                          },
                          {
                            "endTime" : 5546,
                            "time" : 5516,
                            "value" : 1.0,
                            "duration" : 30
                          },
                          {
                            "endTime" : 5613,
                            "time" : 5583,
                            "value" : 2.83915442049899,
                            "duration" : 30
                          },
                          {
                            "endTime" : 5818,
                            "time" : 5788,
                            "value" : 1.0,
                            "duration" : 30
                          },
                          {
                            "endTime" : 5873,
                            "time" : 5843,
                            "value" : 2.7350442078531,
                            "duration" : 30
                          },
                          {
                            "endTime" : 6030,
                            "time" : 6000,
                            "value" : 1.0,
                            "duration" : 30
                          }
                        ]
                      },
                      "cursorOpacity" : 1.0,
                      "cursorScale" : 1.0
                    },
                    "medias" : [
                        {
                          "id" : 246,
                          "_type" : "ScreenVMFile",
                          "src" : 1,
                          "trackNumber" : 0,
                          "attributes" : {
                            "ident" : "handle_hijacking_attack_prevention"
                          },
                          "parameters" : {
                            "cursorScale" : {
                              "type" : "double",
                              "defaultValue" : 0.0,
                              "interp" : "linr"
                            },
                            "cursorOpacity" : {
                              "type" : "double",
                              "defaultValue" : 0.0,
                              "interp" : "linr"
                            }
                          },
                          "effects" : [

                          ],
                          "start" : 0,
                          "duration" : 2383,
                          "mediaStart" : 0,
                          "mediaDuration" : 2383,
                          "scalar" : 1,
                          "metadata" : {
                            "AutoAppliedSmartFocus" : "False",
                            "clipSpeedAttribute" : false,
                            "default-scale0" : 1.0,
                            "default-scale1" : 1.0,
                            "default-translation0" : 0.0,
                            "default-translation1" : 0.0
                          },
                          "animationTracks" : {

                          }
                        },
                        {
                          "id" : 247,
                          "_type" : "ScreenIMFile",
                          "src" : 1,
                          "trackNumber" : 0,
                          "trimStartSum" : 0,
                          "attributes" : {
                            "ident" : "handle_hijacking_attack_prevention"
                          },
                          "parameters" : {
                            "cursorOpacity" : 0.0,
                            "cursorScale" : 0.0
                          },
                          "effects" : [

                          ],
                          "start" : 2383,
                          "duration" : 60,
                          "mediaStart" : 2382,
                          "mediaDuration" : 1,
                          "scalar" : 1,
                          "metadata" : {
                            "AutoAppliedSmartFocus" : "False"
                          },
                          "animationTracks" : {

                          }
                        },
                        {
                          "id" : 248,
                          "_type" : "ScreenVMFile",
                          "src" : 1,
                          "trackNumber" : 0,
                          "attributes" : {
                            "ident" : "handle_hijacking_attack_prevention"
                          },
                          "parameters" : {
                            "cursorScale" : {
                              "type" : "double",
                              "defaultValue" : 0.0,
                              "interp" : "linr"
                            },
                            "cursorOpacity" : {
                              "type" : "double",
                              "defaultValue" : 0.0,
                              "interp" : "linr"
                            }
                          },
                          "effects" : [

                          ],
                          "start" : 2443,
                          "duration" : 2141,
                          "mediaStart" : 2383,
                          "mediaDuration" : 2141,
                          "scalar" : 1,
                          "metadata" : {
                            "AutoAppliedSmartFocus" : "False",
                            "clipSpeedAttribute" : false,
                            "default-scale0" : 1.0,
                            "default-scale1" : 1.0,
                            "default-translation0" : 0.0,
                            "default-translation1" : 0.0
                          },
                          "animationTracks" : {

                          }
                        },
                        {
                          "id" : 249,
                          "_type" : "ScreenIMFile",
                          "src" : 1,
                          "trackNumber" : 0,
                          "trimStartSum" : 0,
                          "attributes" : {
                            "ident" : "handle_hijacking_attack_prevention"
                          },
                          "parameters" : {
                            "cursorOpacity" : 0.0,
                            "cursorScale" : 0.0
                          },
                          "effects" : [

                          ],
                          "start" : 4584,
                          "duration" : 60,
                          "mediaStart" : 4524,
                          "mediaDuration" : 1,
                          "scalar" : 1,
                          "metadata" : {
                            "AutoAppliedSmartFocus" : "False"
                          },
                          "animationTracks" : {

                          }
                        },
                        {
                          "id" : 250,
                          "_type" : "ScreenVMFile",
                          "src" : 1,
                          "trackNumber" : 0,
                          "attributes" : {
                            "ident" : "handle_hijacking_attack_prevention"
                          },
                          "parameters" : {
                            "cursorScale" : {
                              "type" : "double",
                              "defaultValue" : 0.0,
                              "interp" : "linr"
                            },
                            "cursorOpacity" : {
                              "type" : "double",
                              "defaultValue" : 0.0,
                              "interp" : "linr"
                            }
                          },
                          "effects" : [

                          ],
                          "start" : 4644,
                          "duration" : 233,
                          "mediaStart" : 4524,
                          "mediaDuration" : 233,
                          "scalar" : 1,
                          "metadata" : {
                            "AutoAppliedSmartFocus" : "False",
                            "clipSpeedAttribute" : false,
                            "default-scale0" : 1.0,
                            "default-scale1" : 1.0,
                            "default-translation0" : 0.0,
                            "default-translation1" : 0.0
                          },
                          "animationTracks" : {

                          }
                        },
                        {
                          "id" : 251,
                          "_type" : "ScreenVMFile",
                          "src" : 1,
                          "trackNumber" : 0,
                          "attributes" : {
                            "ident" : "handle_hijacking_attack_prevention"
                          },
                          "parameters" : {
                            "cursorScale" : {
                              "type" : "double",
                              "defaultValue" : 0.0,
                              "interp" : "linr"
                            },
                            "cursorOpacity" : {
                              "type" : "double",
                              "defaultValue" : 0.0,
                              "interp" : "linr"
                            }
                          },
                          "effects" : [

                          ],
                          "start" : 4877,
                          "duration" : 581,
                          "mediaStart" : 4807,
                          "mediaDuration" : 581,
                          "scalar" : 1,
                          "metadata" : {
                            "AutoAppliedSmartFocus" : "False",
                            "clipSpeedAttribute" : false,
                            "default-scale0" : 1.0,
                            "default-scale1" : 1.0,
                            "default-translation0" : 0.0,
                            "default-translation1" : 0.0
                          },
                          "animationTracks" : {

                          }
                        },
                        {
                          "id" : 252,
                          "_type" : "ScreenIMFile",
                          "src" : 1,
                          "trackNumber" : 0,
                          "trimStartSum" : 0,
                          "attributes" : {
                            "ident" : "handle_hijacking_attack_prevention"
                          },
                          "parameters" : {
                            "cursorOpacity" : 0.0,
                            "cursorScale" : 0.0
                          },
                          "effects" : [

                          ],
                          "start" : 5458,
                          "duration" : 60,
                          "mediaStart" : 5388,
                          "mediaDuration" : 1,
                          "scalar" : 1,
                          "metadata" : {
                            "AutoAppliedSmartFocus" : "False"
                          },
                          "animationTracks" : {

                          }
                        },
                        {
                          "id" : 253,
                          "_type" : "ScreenVMFile",
                          "src" : 1,
                          "trackNumber" : 0,
                          "attributes" : {
                            "ident" : "handle_hijacking_attack_prevention"
                          },
                          "parameters" : {
                            "cursorScale" : {
                              "type" : "double",
                              "defaultValue" : 0.0,
                              "interp" : "linr"
                            },
                            "cursorOpacity" : {
                              "type" : "double",
                              "defaultValue" : 0.0,
                              "interp" : "linr"
                            }
                          },
                          "effects" : [

                          ],
                          "start" : 5518,
                          "duration" : 265,
                          "mediaStart" : 5388,
                          "mediaDuration" : 265,
                          "scalar" : 1,
                          "metadata" : {
                            "AutoAppliedSmartFocus" : "False",
                            "clipSpeedAttribute" : false,
                            "default-scale0" : 1.0,
                            "default-scale1" : 1.0,
                            "default-translation0" : 0.0,
                            "default-translation1" : 0.0
                          },
                          "animationTracks" : {

                          }
                        },
                        {
                          "id" : 254,
                          "_type" : "ScreenIMFile",
                          "src" : 1,
                          "trackNumber" : 0,
                          "trimStartSum" : 0,
                          "attributes" : {
                            "ident" : "handle_hijacking_attack_prevention"
                          },
                          "parameters" : {
                            "cursorOpacity" : 0.0,
                            "cursorScale" : 0.0
                          },
                          "effects" : [

                          ],
                          "start" : 5783,
                          "duration" : 60,
                          "mediaStart" : 5653,
                          "mediaDuration" : 1,
                          "scalar" : 1,
                          "metadata" : {
                            "AutoAppliedSmartFocus" : "False"
                          },
                          "animationTracks" : {

                          }
                        },
                        {
                          "id" : 255,
                          "_type" : "ScreenVMFile",
                          "src" : 1,
                          "trackNumber" : 0,
                          "attributes" : {
                            "ident" : "handle_hijacking_attack_prevention"
                          },
                          "parameters" : {
                            "cursorScale" : {
                              "type" : "double",
                              "defaultValue" : 0.0,
                              "interp" : "linr"
                            },
                            "cursorOpacity" : {
                              "type" : "double",
                              "defaultValue" : 0.0,
                              "interp" : "linr"
                            }
                          },
                          "effects" : [

                          ],
                          "start" : 5843,
                          "duration" : 1216,
                          "mediaStart" : 5653,
                          "mediaDuration" : 1216,
                          "scalar" : 1,
                          "metadata" : {
                            "AutoAppliedSmartFocus" : "False",
                            "clipSpeedAttribute" : false,
                            "default-scale0" : 1.0,
                            "default-scale1" : 1.0,
                            "default-translation0" : 0.0,
                            "default-translation1" : 0.0
                          },
                          "animationTracks" : {

                          }
                        }
                    ],
                    "effects" : [
                        {
                          "effectName" : "CursorHilight",
                          "category" : "categoryCursorEffects",
                          "parameters" : {
                            "blur" : 0.1,
                            "color-alpha" : 0.75,
                            "color-blue" : 0.0,
                            "color-green" : 1.0,
                            "color-red" : 1.0,
                            "radius" : 50.0
                          }
                        }
                    ],
                    "start" : 3932,
                    "duration" : 36,
                    "mediaStart" : 6000,
                    "mediaDuration" : 36,
                    "scalar" : 1,
                    "metadata" : {
                      "AutoAppliedSmartFocus" : "False",
                      "clipSpeedAttribute" : false,
                      "default-scale0" : 0.99999922572519,
                      "default-scale1" : 1.0,
                      "default-translation0" : 1.70530256582424e-13,
                      "default-translation1" : -2.27373675443232e-13
                    },
                    "animationTracks" : {
                      "visual" : [
                        {
                          "endTime" : 242,
                          "duration" : 30,
                          "range" : [ 212, 30]
                        },
                        {
                          "endTime" : 332,
                          "duration" : 30,
                          "range" : [ 302, 30]
                        },
                        {
                          "endTime" : 1240,
                          "duration" : 30,
                          "range" : [ 1210, 30]
                        },
                        {
                          "endTime" : 1493,
                          "duration" : 30,
                          "range" : [ 1463, 30]
                        },
                        {
                          "endTime" : 2029,
                          "duration" : 26,
                          "range" : [ 2003, 26]
                        },
                        {
                          "endTime" : 2478,
                          "duration" : 30,
                          "range" : [ 2448, 30]
                        },
                        {
                          "endTime" : 3060,
                          "duration" : 30,
                          "range" : [ 3030, 30]
                        },
                        {
                          "endTime" : 3378,
                          "duration" : 30,
                          "range" : [ 3348, 30]
                        },
                        {
                          "endTime" : 3752,
                          "duration" : 49,
                          "range" : [ 3703, 49]
                        },
                        {
                          "endTime" : 3826,
                          "duration" : 46,
                          "range" : [ 3780, 46]
                        },
                        {
                          "endTime" : 3943,
                          "duration" : 30,
                          "range" : [ 3913, 30]
                        },
                        {
                          "endTime" : 3982,
                          "duration" : 30,
                          "range" : [ 3952, 30]
                        },
                        {
                          "endTime" : 4297,
                          "duration" : 34,
                          "range" : [ 4263, 34]
                        },
                        {
                          "endTime" : 5256,
                          "duration" : 40,
                          "range" : [ 5216, 40]
                        },
                        {
                          "endTime" : 5301,
                          "duration" : 41,
                          "range" : [ 5260, 41]
                        },
                        {
                          "endTime" : 5424,
                          "duration" : 30,
                          "range" : [ 5394, 30]
                        },
                        {
                          "endTime" : 5546,
                          "duration" : 30,
                          "range" : [ 5516, 30]
                        },
                        {
                          "endTime" : 5613,
                          "duration" : 30,
                          "range" : [ 5583, 30]
                        },
                        {
                          "endTime" : 5818,
                          "duration" : 30,
                          "range" : [ 5788, 30]
                        },
                        {
                          "endTime" : 5873,
                          "duration" : 30,
                          "range" : [ 5843, 30]
                        },
                        {
                          "endTime" : 6030,
                          "duration" : 30,
                          "range" : [ 6000, 30]
                        }
                      ]
                    }
                  },
                  {
                    "id" : 256,
                    "_type" : "StitchedMedia",
                    "minMediaStart" : 0,
                    "attributes" : {
                      "ident" : "handle_hijacking_attack_prevention",
                      "gain" : 1.0,
                      "mixToMono" : false
                    },
                    "parameters" : {
                      "translation0" : {
                        "type" : "double",
                        "defaultValue" : 0.0,
                        "keyframes" : [
                          {
                            "endTime" : 242,
                            "time" : 212,
                            "value" : 4445.6304568441,
                            "duration" : 30
                          },
                          {
                            "endTime" : 332,
                            "time" : 302,
                            "value" : -7.95807864051312e-13,
                            "duration" : 30
                          },
                          {
                            "endTime" : 1240,
                            "time" : 1210,
                            "value" : 1813.23805555168,
                            "duration" : 30
                          },
                          {
                            "endTime" : 1493,
                            "time" : 1463,
                            "value" : 1769.1,
                            "duration" : 30
                          },
                          {
                            "endTime" : 2029,
                            "time" : 2003,
                            "value" : 1769.08221838715,
                            "duration" : 26
                          },
                          {
                            "endTime" : 2478,
                            "time" : 2448,
                            "value" : -1.13686837721616e-13,
                            "duration" : 30
                          },
                          {
                            "endTime" : 3060,
                            "time" : 3030,
                            "value" : -927.066246510699,
                            "duration" : 30
                          },
                          {
                            "endTime" : 3378,
                            "time" : 3348,
                            "value" : -927.1,
                            "duration" : 30
                          },
                          {
                            "endTime" : 3752,
                            "time" : 3703,
                            "value" : 1.13686837721616e-13,
                            "duration" : 49
                          },
                          {
                            "endTime" : 3826,
                            "time" : 3780,
                            "value" : 2190.48664188307,
                            "duration" : 46
                          },
                          {
                            "endTime" : 3943,
                            "time" : 3913,
                            "value" : 2.27373675443232e-13,
                            "duration" : 30
                          },
                          {
                            "endTime" : 3982,
                            "time" : 3952,
                            "value" : -927.1,
                            "duration" : 30
                          },
                          {
                            "endTime" : 4297,
                            "time" : 4263,
                            "value" : -927.1,
                            "duration" : 34
                          },
                          {
                            "endTime" : 5256,
                            "time" : 5216,
                            "value" : 5.6843418860808e-14,
                            "duration" : 40
                          },
                          {
                            "endTime" : 5301,
                            "time" : 5260,
                            "value" : 680.367023205802,
                            "duration" : 41
                          },
                          {
                            "endTime" : 5424,
                            "time" : 5394,
                            "value" : 1794.65403755581,
                            "duration" : 30
                          },
                          {
                            "endTime" : 5546,
                            "time" : 5516,
                            "value" : -3.41060513164848e-13,
                            "duration" : 30
                          },
                          {
                            "endTime" : 5613,
                            "time" : 5583,
                            "value" : -877.024502523768,
                            "duration" : 30
                          },
                          {
                            "endTime" : 5818,
                            "time" : 5788,
                            "value" : 1.70530256582424e-13,
                            "duration" : 30
                          },
                          {
                            "endTime" : 5873,
                            "time" : 5843,
                            "value" : 1572.46260600652,
                            "duration" : 30
                          },
                          {
                            "endTime" : 6030,
                            "time" : 6000,
                            "value" : 2.27373675443232e-13,
                            "duration" : 30
                          }
                        ]
                      },
                      "translation1" : {
                        "type" : "double",
                        "defaultValue" : 0.0,
                        "keyframes" : [
                          {
                            "endTime" : 242,
                            "time" : 212,
                            "value" : -2101.5592739797,
                            "duration" : 30
                          },
                          {
                            "endTime" : 332,
                            "time" : 302,
                            "value" : 4.54747350886464e-13,
                            "duration" : 30
                          },
                          {
                            "endTime" : 1240,
                            "time" : 1210,
                            "value" : 0.0,
                            "duration" : 30
                          },
                          {
                            "endTime" : 1493,
                            "time" : 1463,
                            "value" : 764.586721975313,
                            "duration" : 30
                          },
                          {
                            "endTime" : 2029,
                            "time" : 2003,
                            "value" : 955.733402469141,
                            "duration" : 26
                          },
                          {
                            "endTime" : 2478,
                            "time" : 2448,
                            "value" : -5.6843418860808e-14,
                            "duration" : 30
                          },
                          {
                            "endTime" : 3060,
                            "time" : 3030,
                            "value" : 51.6923109282546,
                            "duration" : 30
                          },
                          {
                            "endTime" : 3378,
                            "time" : 3348,
                            "value" : 793.192387394355,
                            "duration" : 30
                          },
                          {
                            "endTime" : 3752,
                            "time" : 3703,
                            "value" : 0.0,
                            "duration" : 49
                          },
                          {
                            "endTime" : 3826,
                            "time" : 3780,
                            "value" : 525.407539085336,
                            "duration" : 46
                          },
                          {
                            "endTime" : 3943,
                            "time" : 3913,
                            "value" : -8.5265128291212e-14,
                            "duration" : 30
                          },
                          {
                            "endTime" : 3982,
                            "time" : 3952,
                            "value" : 693.2,
                            "duration" : 30
                          },
                          {
                            "endTime" : 4297,
                            "time" : 4263,
                            "value" : 796.601448181272,
                            "duration" : 34
                          },
                          {
                            "endTime" : 5256,
                            "time" : 5216,
                            "value" : 0.0,
                            "duration" : 40
                          },
                          {
                            "endTime" : 5301,
                            "time" : 5260,
                            "value" : 382.706644741061,
                            "duration" : 41
                          },
                          {
                            "endTime" : 5424,
                            "time" : 5394,
                            "value" : 175.346948293544,
                            "duration" : 30
                          },
                          {
                            "endTime" : 5546,
                            "time" : 5516,
                            "value" : -1.27897692436818e-13,
                            "duration" : 30
                          },
                          {
                            "endTime" : 5613,
                            "time" : 5583,
                            "value" : 908.758378625847,
                            "duration" : 30
                          },
                          {
                            "endTime" : 5818,
                            "time" : 5788,
                            "value" : -2.27373675443232e-13,
                            "duration" : 30
                          },
                          {
                            "endTime" : 5873,
                            "time" : 5843,
                            "value" : 862.287656103343,
                            "duration" : 30
                          },
                          {
                            "endTime" : 6030,
                            "time" : 6000,
                            "value" : -1.13686837721616e-13,
                            "duration" : 30
                          }
                        ]
                      },
                      "scale0" : {
                        "type" : "double",
                        "defaultValue" : 1.0,
                        "keyframes" : [
                          {
                            "endTime" : 242,
                            "time" : 212,
                            "value" : 4.90967434857952,
                            "duration" : 30
                          },
                          {
                            "endTime" : 332,
                            "time" : 302,
                            "value" : 0.99999957889657,
                            "duration" : 30
                          },
                          {
                            "endTime" : 1240,
                            "time" : 1210,
                            "value" : 2.93925764732581,
                            "duration" : 30
                          },
                          {
                            "endTime" : 1493,
                            "time" : 1463,
                            "value" : 2.93925755430459,
                            "duration" : 30
                          },
                          {
                            "endTime" : 2029,
                            "time" : 2003,
                            "value" : 2.93925746128338,
                            "duration" : 26
                          },
                          {
                            "endTime" : 2478,
                            "time" : 2448,
                            "value" : 0.999999315951539,
                            "duration" : 30
                          },
                          {
                            "endTime" : 3060,
                            "time" : 3030,
                            "value" : 2.54358807927679,
                            "duration" : 30
                          },
                          {
                            "endTime" : 3378,
                            "time" : 3348,
                            "value" : 2.5435882186022,
                            "duration" : 30
                          },
                          {
                            "endTime" : 3752,
                            "time" : 3703,
                            "value" : 0.999999337858405,
                            "duration" : 49
                          },
                          {
                            "endTime" : 3826,
                            "time" : 3780,
                            "value" : 3.2977262743969,
                            "duration" : 46
                          },
                          {
                            "endTime" : 3943,
                            "time" : 3913,
                            "value" : 0.999999616666313,
                            "duration" : 30
                          },
                          {
                            "endTime" : 3982,
                            "time" : 3952,
                            "value" : 2.5439982822715,
                            "duration" : 30
                          },
                          {
                            "endTime" : 4297,
                            "time" : 4263,
                            "value" : 2.54399842552367,
                            "duration" : 34
                          },
                          {
                            "endTime" : 5256,
                            "time" : 5216,
                            "value" : 0.999999543928019,
                            "duration" : 40
                          },
                          {
                            "endTime" : 5301,
                            "time" : 5260,
                            "value" : 1.83827164662978,
                            "duration" : 41
                          },
                          {
                            "endTime" : 5424,
                            "time" : 5394,
                            "value" : 2.9999982078393,
                            "duration" : 30
                          },
                          {
                            "endTime" : 5546,
                            "time" : 5516,
                            "value" : 0.999999402613099,
                            "duration" : 30
                          },
                          {
                            "endTime" : 5613,
                            "time" : 5583,
                            "value" : 2.83915222221324,
                            "duration" : 30
                          },
                          {
                            "endTime" : 5818,
                            "time" : 5788,
                            "value" : 0.99999922572519,
                            "duration" : 30
                          },
                          {
                            "endTime" : 5873,
                            "time" : 5843,
                            "value" : 2.73504203536443,
                            "duration" : 30
                          },
                          {
                            "endTime" : 6030,
                            "time" : 6000,
                            "value" : 0.999999205684257,
                            "duration" : 30
                          }
                        ]
                      },
                      "scale1" : {
                        "type" : "double",
                        "defaultValue" : 1.0,
                        "keyframes" : [
                          {
                            "endTime" : 242,
                            "time" : 212,
                            "value" : 4.90967641606111,
                            "duration" : 30
                          },
                          {
                            "endTime" : 332,
                            "time" : 302,
                            "value" : 1.0,
                            "duration" : 30
                          },
                          {
                            "endTime" : 1240,
                            "time" : 1210,
                            "value" : 2.9392594718793,
                            "duration" : 30
                          },
                          {
                            "endTime" : 2029,
                            "time" : 2003,
                            "value" : 2.9392594718793,
                            "duration" : 26
                          },
                          {
                            "endTime" : 2478,
                            "time" : 2448,
                            "value" : 1.0,
                            "duration" : 30
                          },
                          {
                            "endTime" : 3060,
                            "time" : 3030,
                            "value" : 2.54358990281888,
                            "duration" : 30
                          },
                          {
                            "endTime" : 3752,
                            "time" : 3703,
                            "value" : 1.0,
                            "duration" : 49
                          },
                          {
                            "endTime" : 3826,
                            "time" : 3780,
                            "value" : 3.29772753852696,
                            "duration" : 46
                          },
                          {
                            "endTime" : 3943,
                            "time" : 3913,
                            "value" : 1.0,
                            "duration" : 30
                          },
                          {
                            "endTime" : 3982,
                            "time" : 3952,
                            "value" : 2.544,
                            "duration" : 30
                          },
                          {
                            "endTime" : 4297,
                            "time" : 4263,
                            "value" : 2.54399958577061,
                            "duration" : 34
                          },
                          {
                            "endTime" : 5256,
                            "time" : 5216,
                            "value" : 1.0,
                            "duration" : 40
                          },
                          {
                            "endTime" : 5301,
                            "time" : 5260,
                            "value" : 1.83827268333693,
                            "duration" : 41
                          },
                          {
                            "endTime" : 5424,
                            "time" : 5394,
                            "value" : 3.0,
                            "duration" : 30
                          },
                          {
                            "endTime" : 5546,
                            "time" : 5516,
                            "value" : 1.0,
                            "duration" : 30
                          },
                          {
                            "endTime" : 5613,
                            "time" : 5583,
                            "value" : 2.83915442049899,
                            "duration" : 30
                          },
                          {
                            "endTime" : 5818,
                            "time" : 5788,
                            "value" : 1.0,
                            "duration" : 30
                          },
                          {
                            "endTime" : 5873,
                            "time" : 5843,
                            "value" : 2.7350442078531,
                            "duration" : 30
                          },
                          {
                            "endTime" : 6030,
                            "time" : 6000,
                            "value" : 1.0,
                            "duration" : 30
                          }
                        ]
                      },
                      "cursorOpacity" : 1.0,
                      "cursorScale" : 1.0
                    },
                    "medias" : [
                        {
                          "id" : 257,
                          "_type" : "ScreenVMFile",
                          "src" : 1,
                          "trackNumber" : 0,
                          "attributes" : {
                            "ident" : "handle_hijacking_attack_prevention"
                          },
                          "parameters" : {
                            "cursorScale" : {
                              "type" : "double",
                              "defaultValue" : 0.0,
                              "interp" : "linr"
                            },
                            "cursorOpacity" : {
                              "type" : "double",
                              "defaultValue" : 0.0,
                              "interp" : "linr"
                            }
                          },
                          "effects" : [

                          ],
                          "start" : 0,
                          "duration" : 2383,
                          "mediaStart" : 0,
                          "mediaDuration" : 2383,
                          "scalar" : 1,
                          "metadata" : {
                            "AutoAppliedSmartFocus" : "False",
                            "clipSpeedAttribute" : false,
                            "default-scale0" : 1.0,
                            "default-scale1" : 1.0,
                            "default-translation0" : 0.0,
                            "default-translation1" : 0.0
                          },
                          "animationTracks" : {

                          }
                        },
                        {
                          "id" : 258,
                          "_type" : "ScreenIMFile",
                          "src" : 1,
                          "trackNumber" : 0,
                          "trimStartSum" : 0,
                          "attributes" : {
                            "ident" : "handle_hijacking_attack_prevention"
                          },
                          "parameters" : {
                            "cursorOpacity" : 0.0,
                            "cursorScale" : 0.0
                          },
                          "effects" : [

                          ],
                          "start" : 2383,
                          "duration" : 60,
                          "mediaStart" : 2382,
                          "mediaDuration" : 1,
                          "scalar" : 1,
                          "metadata" : {
                            "AutoAppliedSmartFocus" : "False"
                          },
                          "animationTracks" : {

                          }
                        },
                        {
                          "id" : 259,
                          "_type" : "ScreenVMFile",
                          "src" : 1,
                          "trackNumber" : 0,
                          "attributes" : {
                            "ident" : "handle_hijacking_attack_prevention"
                          },
                          "parameters" : {
                            "cursorScale" : {
                              "type" : "double",
                              "defaultValue" : 0.0,
                              "interp" : "linr"
                            },
                            "cursorOpacity" : {
                              "type" : "double",
                              "defaultValue" : 0.0,
                              "interp" : "linr"
                            }
                          },
                          "effects" : [

                          ],
                          "start" : 2443,
                          "duration" : 2141,
                          "mediaStart" : 2383,
                          "mediaDuration" : 2141,
                          "scalar" : 1,
                          "metadata" : {
                            "AutoAppliedSmartFocus" : "False",
                            "clipSpeedAttribute" : false,
                            "default-scale0" : 1.0,
                            "default-scale1" : 1.0,
                            "default-translation0" : 0.0,
                            "default-translation1" : 0.0
                          },
                          "animationTracks" : {

                          }
                        },
                        {
                          "id" : 260,
                          "_type" : "ScreenIMFile",
                          "src" : 1,
                          "trackNumber" : 0,
                          "trimStartSum" : 0,
                          "attributes" : {
                            "ident" : "handle_hijacking_attack_prevention"
                          },
                          "parameters" : {
                            "cursorOpacity" : 0.0,
                            "cursorScale" : 0.0
                          },
                          "effects" : [

                          ],
                          "start" : 4584,
                          "duration" : 60,
                          "mediaStart" : 4524,
                          "mediaDuration" : 1,
                          "scalar" : 1,
                          "metadata" : {
                            "AutoAppliedSmartFocus" : "False"
                          },
                          "animationTracks" : {

                          }
                        },
                        {
                          "id" : 261,
                          "_type" : "ScreenVMFile",
                          "src" : 1,
                          "trackNumber" : 0,
                          "attributes" : {
                            "ident" : "handle_hijacking_attack_prevention"
                          },
                          "parameters" : {
                            "cursorScale" : {
                              "type" : "double",
                              "defaultValue" : 0.0,
                              "interp" : "linr"
                            },
                            "cursorOpacity" : {
                              "type" : "double",
                              "defaultValue" : 0.0,
                              "interp" : "linr"
                            }
                          },
                          "effects" : [

                          ],
                          "start" : 4644,
                          "duration" : 233,
                          "mediaStart" : 4524,
                          "mediaDuration" : 233,
                          "scalar" : 1,
                          "metadata" : {
                            "AutoAppliedSmartFocus" : "False",
                            "clipSpeedAttribute" : false,
                            "default-scale0" : 1.0,
                            "default-scale1" : 1.0,
                            "default-translation0" : 0.0,
                            "default-translation1" : 0.0
                          },
                          "animationTracks" : {

                          }
                        },
                        {
                          "id" : 262,
                          "_type" : "ScreenVMFile",
                          "src" : 1,
                          "trackNumber" : 0,
                          "attributes" : {
                            "ident" : "handle_hijacking_attack_prevention"
                          },
                          "parameters" : {
                            "cursorScale" : {
                              "type" : "double",
                              "defaultValue" : 0.0,
                              "interp" : "linr"
                            },
                            "cursorOpacity" : {
                              "type" : "double",
                              "defaultValue" : 0.0,
                              "interp" : "linr"
                            }
                          },
                          "effects" : [

                          ],
                          "start" : 4877,
                          "duration" : 581,
                          "mediaStart" : 4807,
                          "mediaDuration" : 581,
                          "scalar" : 1,
                          "metadata" : {
                            "AutoAppliedSmartFocus" : "False",
                            "clipSpeedAttribute" : false,
                            "default-scale0" : 1.0,
                            "default-scale1" : 1.0,
                            "default-translation0" : 0.0,
                            "default-translation1" : 0.0
                          },
                          "animationTracks" : {

                          }
                        },
                        {
                          "id" : 263,
                          "_type" : "ScreenIMFile",
                          "src" : 1,
                          "trackNumber" : 0,
                          "trimStartSum" : 0,
                          "attributes" : {
                            "ident" : "handle_hijacking_attack_prevention"
                          },
                          "parameters" : {
                            "cursorOpacity" : 0.0,
                            "cursorScale" : 0.0
                          },
                          "effects" : [

                          ],
                          "start" : 5458,
                          "duration" : 60,
                          "mediaStart" : 5388,
                          "mediaDuration" : 1,
                          "scalar" : 1,
                          "metadata" : {
                            "AutoAppliedSmartFocus" : "False"
                          },
                          "animationTracks" : {

                          }
                        },
                        {
                          "id" : 264,
                          "_type" : "ScreenVMFile",
                          "src" : 1,
                          "trackNumber" : 0,
                          "attributes" : {
                            "ident" : "handle_hijacking_attack_prevention"
                          },
                          "parameters" : {
                            "cursorScale" : {
                              "type" : "double",
                              "defaultValue" : 0.0,
                              "interp" : "linr"
                            },
                            "cursorOpacity" : {
                              "type" : "double",
                              "defaultValue" : 0.0,
                              "interp" : "linr"
                            }
                          },
                          "effects" : [

                          ],
                          "start" : 5518,
                          "duration" : 265,
                          "mediaStart" : 5388,
                          "mediaDuration" : 265,
                          "scalar" : 1,
                          "metadata" : {
                            "AutoAppliedSmartFocus" : "False",
                            "clipSpeedAttribute" : false,
                            "default-scale0" : 1.0,
                            "default-scale1" : 1.0,
                            "default-translation0" : 0.0,
                            "default-translation1" : 0.0
                          },
                          "animationTracks" : {

                          }
                        },
                        {
                          "id" : 265,
                          "_type" : "ScreenIMFile",
                          "src" : 1,
                          "trackNumber" : 0,
                          "trimStartSum" : 0,
                          "attributes" : {
                            "ident" : "handle_hijacking_attack_prevention"
                          },
                          "parameters" : {
                            "cursorOpacity" : 0.0,
                            "cursorScale" : 0.0
                          },
                          "effects" : [

                          ],
                          "start" : 5783,
                          "duration" : 60,
                          "mediaStart" : 5653,
                          "mediaDuration" : 1,
                          "scalar" : 1,
                          "metadata" : {
                            "AutoAppliedSmartFocus" : "False"
                          },
                          "animationTracks" : {

                          }
                        },
                        {
                          "id" : 266,
                          "_type" : "ScreenVMFile",
                          "src" : 1,
                          "trackNumber" : 0,
                          "attributes" : {
                            "ident" : "handle_hijacking_attack_prevention"
                          },
                          "parameters" : {
                            "cursorScale" : {
                              "type" : "double",
                              "defaultValue" : 0.0,
                              "interp" : "linr"
                            },
                            "cursorOpacity" : {
                              "type" : "double",
                              "defaultValue" : 0.0,
                              "interp" : "linr"
                            }
                          },
                          "effects" : [

                          ],
                          "start" : 5843,
                          "duration" : 1216,
                          "mediaStart" : 5653,
                          "mediaDuration" : 1216,
                          "scalar" : 1,
                          "metadata" : {
                            "AutoAppliedSmartFocus" : "False",
                            "clipSpeedAttribute" : false,
                            "default-scale0" : 1.0,
                            "default-scale1" : 1.0,
                            "default-translation0" : 0.0,
                            "default-translation1" : 0.0
                          },
                          "animationTracks" : {

                          }
                        }
                    ],
                    "effects" : [
                        {
                          "effectName" : "CursorHilight",
                          "category" : "categoryCursorEffects",
                          "parameters" : {
                            "blur" : 0.1,
                            "color-alpha" : 0.75,
                            "color-blue" : 0.0,
                            "color-green" : 1.0,
                            "color-red" : 1.0,
                            "radius" : 50.0
                          }
                        }
                    ],
                    "start" : 3968,
                    "duration" : 34,
                    "mediaStart" : 6125,
                    "mediaDuration" : 34,
                    "scalar" : 1,
                    "metadata" : {
                      "AutoAppliedSmartFocus" : "False",
                      "clipSpeedAttribute" : false,
                      "default-scale0" : 0.99999922572519,
                      "default-scale1" : 1.0,
                      "default-translation0" : 1.70530256582424e-13,
                      "default-translation1" : -2.27373675443232e-13
                    },
                    "animationTracks" : {
                      "visual" : [
                        {
                          "endTime" : 242,
                          "duration" : 30,
                          "range" : [ 212, 30]
                        },
                        {
                          "endTime" : 332,
                          "duration" : 30,
                          "range" : [ 302, 30]
                        },
                        {
                          "endTime" : 1240,
                          "duration" : 30,
                          "range" : [ 1210, 30]
                        },
                        {
                          "endTime" : 1493,
                          "duration" : 30,
                          "range" : [ 1463, 30]
                        },
                        {
                          "endTime" : 2029,
                          "duration" : 26,
                          "range" : [ 2003, 26]
                        },
                        {
                          "endTime" : 2478,
                          "duration" : 30,
                          "range" : [ 2448, 30]
                        },
                        {
                          "endTime" : 3060,
                          "duration" : 30,
                          "range" : [ 3030, 30]
                        },
                        {
                          "endTime" : 3378,
                          "duration" : 30,
                          "range" : [ 3348, 30]
                        },
                        {
                          "endTime" : 3752,
                          "duration" : 49,
                          "range" : [ 3703, 49]
                        },
                        {
                          "endTime" : 3826,
                          "duration" : 46,
                          "range" : [ 3780, 46]
                        },
                        {
                          "endTime" : 3943,
                          "duration" : 30,
                          "range" : [ 3913, 30]
                        },
                        {
                          "endTime" : 3982,
                          "duration" : 30,
                          "range" : [ 3952, 30]
                        },
                        {
                          "endTime" : 4297,
                          "duration" : 34,
                          "range" : [ 4263, 34]
                        },
                        {
                          "endTime" : 5256,
                          "duration" : 40,
                          "range" : [ 5216, 40]
                        },
                        {
                          "endTime" : 5301,
                          "duration" : 41,
                          "range" : [ 5260, 41]
                        },
                        {
                          "endTime" : 5424,
                          "duration" : 30,
                          "range" : [ 5394, 30]
                        },
                        {
                          "endTime" : 5546,
                          "duration" : 30,
                          "range" : [ 5516, 30]
                        },
                        {
                          "endTime" : 5613,
                          "duration" : 30,
                          "range" : [ 5583, 30]
                        },
                        {
                          "endTime" : 5818,
                          "duration" : 30,
                          "range" : [ 5788, 30]
                        },
                        {
                          "endTime" : 5873,
                          "duration" : 30,
                          "range" : [ 5843, 30]
                        },
                        {
                          "endTime" : 6030,
                          "duration" : 30,
                          "range" : [ 6000, 30]
                        }
                      ]
                    }
                  },
                  {
                    "id" : 267,
                    "_type" : "StitchedMedia",
                    "minMediaStart" : 0,
                    "attributes" : {
                      "ident" : "handle_hijacking_attack_prevention",
                      "gain" : 1.0,
                      "mixToMono" : false
                    },
                    "parameters" : {
                      "translation0" : {
                        "type" : "double",
                        "defaultValue" : 0.0,
                        "keyframes" : [
                          {
                            "endTime" : 242,
                            "time" : 212,
                            "value" : 4445.6304568441,
                            "duration" : 30
                          },
                          {
                            "endTime" : 332,
                            "time" : 302,
                            "value" : -7.95807864051312e-13,
                            "duration" : 30
                          },
                          {
                            "endTime" : 1240,
                            "time" : 1210,
                            "value" : 1813.23805555168,
                            "duration" : 30
                          },
                          {
                            "endTime" : 1493,
                            "time" : 1463,
                            "value" : 1769.1,
                            "duration" : 30
                          },
                          {
                            "endTime" : 2029,
                            "time" : 2003,
                            "value" : 1769.08221838715,
                            "duration" : 26
                          },
                          {
                            "endTime" : 2478,
                            "time" : 2448,
                            "value" : -1.13686837721616e-13,
                            "duration" : 30
                          },
                          {
                            "endTime" : 3060,
                            "time" : 3030,
                            "value" : -927.066246510699,
                            "duration" : 30
                          },
                          {
                            "endTime" : 3378,
                            "time" : 3348,
                            "value" : -927.1,
                            "duration" : 30
                          },
                          {
                            "endTime" : 3752,
                            "time" : 3703,
                            "value" : 1.13686837721616e-13,
                            "duration" : 49
                          },
                          {
                            "endTime" : 3826,
                            "time" : 3780,
                            "value" : 2190.48664188307,
                            "duration" : 46
                          },
                          {
                            "endTime" : 3943,
                            "time" : 3913,
                            "value" : 2.27373675443232e-13,
                            "duration" : 30
                          },
                          {
                            "endTime" : 3982,
                            "time" : 3952,
                            "value" : -927.1,
                            "duration" : 30
                          },
                          {
                            "endTime" : 4297,
                            "time" : 4263,
                            "value" : -927.1,
                            "duration" : 34
                          },
                          {
                            "endTime" : 5256,
                            "time" : 5216,
                            "value" : 5.6843418860808e-14,
                            "duration" : 40
                          },
                          {
                            "endTime" : 5301,
                            "time" : 5260,
                            "value" : 680.367023205802,
                            "duration" : 41
                          },
                          {
                            "endTime" : 5424,
                            "time" : 5394,
                            "value" : 1794.65403755581,
                            "duration" : 30
                          },
                          {
                            "endTime" : 5546,
                            "time" : 5516,
                            "value" : -3.41060513164848e-13,
                            "duration" : 30
                          },
                          {
                            "endTime" : 5613,
                            "time" : 5583,
                            "value" : -877.024502523768,
                            "duration" : 30
                          },
                          {
                            "endTime" : 5818,
                            "time" : 5788,
                            "value" : 1.70530256582424e-13,
                            "duration" : 30
                          },
                          {
                            "endTime" : 5873,
                            "time" : 5843,
                            "value" : 1572.46260600652,
                            "duration" : 30
                          },
                          {
                            "endTime" : 6030,
                            "time" : 6000,
                            "value" : 2.27373675443232e-13,
                            "duration" : 30
                          }
                        ]
                      },
                      "translation1" : {
                        "type" : "double",
                        "defaultValue" : 0.0,
                        "keyframes" : [
                          {
                            "endTime" : 242,
                            "time" : 212,
                            "value" : -2101.5592739797,
                            "duration" : 30
                          },
                          {
                            "endTime" : 332,
                            "time" : 302,
                            "value" : 4.54747350886464e-13,
                            "duration" : 30
                          },
                          {
                            "endTime" : 1240,
                            "time" : 1210,
                            "value" : 0.0,
                            "duration" : 30
                          },
                          {
                            "endTime" : 1493,
                            "time" : 1463,
                            "value" : 764.586721975313,
                            "duration" : 30
                          },
                          {
                            "endTime" : 2029,
                            "time" : 2003,
                            "value" : 955.733402469141,
                            "duration" : 26
                          },
                          {
                            "endTime" : 2478,
                            "time" : 2448,
                            "value" : -5.6843418860808e-14,
                            "duration" : 30
                          },
                          {
                            "endTime" : 3060,
                            "time" : 3030,
                            "value" : 51.6923109282546,
                            "duration" : 30
                          },
                          {
                            "endTime" : 3378,
                            "time" : 3348,
                            "value" : 793.192387394355,
                            "duration" : 30
                          },
                          {
                            "endTime" : 3752,
                            "time" : 3703,
                            "value" : 0.0,
                            "duration" : 49
                          },
                          {
                            "endTime" : 3826,
                            "time" : 3780,
                            "value" : 525.407539085336,
                            "duration" : 46
                          },
                          {
                            "endTime" : 3943,
                            "time" : 3913,
                            "value" : -8.5265128291212e-14,
                            "duration" : 30
                          },
                          {
                            "endTime" : 3982,
                            "time" : 3952,
                            "value" : 693.2,
                            "duration" : 30
                          },
                          {
                            "endTime" : 4297,
                            "time" : 4263,
                            "value" : 796.601448181272,
                            "duration" : 34
                          },
                          {
                            "endTime" : 5256,
                            "time" : 5216,
                            "value" : 0.0,
                            "duration" : 40
                          },
                          {
                            "endTime" : 5301,
                            "time" : 5260,
                            "value" : 382.706644741061,
                            "duration" : 41
                          },
                          {
                            "endTime" : 5424,
                            "time" : 5394,
                            "value" : 175.346948293544,
                            "duration" : 30
                          },
                          {
                            "endTime" : 5546,
                            "time" : 5516,
                            "value" : -1.27897692436818e-13,
                            "duration" : 30
                          },
                          {
                            "endTime" : 5613,
                            "time" : 5583,
                            "value" : 908.758378625847,
                            "duration" : 30
                          },
                          {
                            "endTime" : 5818,
                            "time" : 5788,
                            "value" : -2.27373675443232e-13,
                            "duration" : 30
                          },
                          {
                            "endTime" : 5873,
                            "time" : 5843,
                            "value" : 862.287656103343,
                            "duration" : 30
                          },
                          {
                            "endTime" : 6030,
                            "time" : 6000,
                            "value" : -1.13686837721616e-13,
                            "duration" : 30
                          }
                        ]
                      },
                      "scale0" : {
                        "type" : "double",
                        "defaultValue" : 1.0,
                        "keyframes" : [
                          {
                            "endTime" : 242,
                            "time" : 212,
                            "value" : 4.90967434857952,
                            "duration" : 30
                          },
                          {
                            "endTime" : 332,
                            "time" : 302,
                            "value" : 0.99999957889657,
                            "duration" : 30
                          },
                          {
                            "endTime" : 1240,
                            "time" : 1210,
                            "value" : 2.93925764732581,
                            "duration" : 30
                          },
                          {
                            "endTime" : 1493,
                            "time" : 1463,
                            "value" : 2.93925755430459,
                            "duration" : 30
                          },
                          {
                            "endTime" : 2029,
                            "time" : 2003,
                            "value" : 2.93925746128338,
                            "duration" : 26
                          },
                          {
                            "endTime" : 2478,
                            "time" : 2448,
                            "value" : 0.999999315951539,
                            "duration" : 30
                          },
                          {
                            "endTime" : 3060,
                            "time" : 3030,
                            "value" : 2.54358807927679,
                            "duration" : 30
                          },
                          {
                            "endTime" : 3378,
                            "time" : 3348,
                            "value" : 2.5435882186022,
                            "duration" : 30
                          },
                          {
                            "endTime" : 3752,
                            "time" : 3703,
                            "value" : 0.999999337858405,
                            "duration" : 49
                          },
                          {
                            "endTime" : 3826,
                            "time" : 3780,
                            "value" : 3.2977262743969,
                            "duration" : 46
                          },
                          {
                            "endTime" : 3943,
                            "time" : 3913,
                            "value" : 0.999999616666313,
                            "duration" : 30
                          },
                          {
                            "endTime" : 3982,
                            "time" : 3952,
                            "value" : 2.5439982822715,
                            "duration" : 30
                          },
                          {
                            "endTime" : 4297,
                            "time" : 4263,
                            "value" : 2.54399842552367,
                            "duration" : 34
                          },
                          {
                            "endTime" : 5256,
                            "time" : 5216,
                            "value" : 0.999999543928019,
                            "duration" : 40
                          },
                          {
                            "endTime" : 5301,
                            "time" : 5260,
                            "value" : 1.83827164662978,
                            "duration" : 41
                          },
                          {
                            "endTime" : 5424,
                            "time" : 5394,
                            "value" : 2.9999982078393,
                            "duration" : 30
                          },
                          {
                            "endTime" : 5546,
                            "time" : 5516,
                            "value" : 0.999999402613099,
                            "duration" : 30
                          },
                          {
                            "endTime" : 5613,
                            "time" : 5583,
                            "value" : 2.83915222221324,
                            "duration" : 30
                          },
                          {
                            "endTime" : 5818,
                            "time" : 5788,
                            "value" : 0.99999922572519,
                            "duration" : 30
                          },
                          {
                            "endTime" : 5873,
                            "time" : 5843,
                            "value" : 2.73504203536443,
                            "duration" : 30
                          },
                          {
                            "endTime" : 6030,
                            "time" : 6000,
                            "value" : 0.999999205684257,
                            "duration" : 30
                          }
                        ]
                      },
                      "scale1" : {
                        "type" : "double",
                        "defaultValue" : 1.0,
                        "keyframes" : [
                          {
                            "endTime" : 242,
                            "time" : 212,
                            "value" : 4.90967641606111,
                            "duration" : 30
                          },
                          {
                            "endTime" : 332,
                            "time" : 302,
                            "value" : 1.0,
                            "duration" : 30
                          },
                          {
                            "endTime" : 1240,
                            "time" : 1210,
                            "value" : 2.9392594718793,
                            "duration" : 30
                          },
                          {
                            "endTime" : 2029,
                            "time" : 2003,
                            "value" : 2.9392594718793,
                            "duration" : 26
                          },
                          {
                            "endTime" : 2478,
                            "time" : 2448,
                            "value" : 1.0,
                            "duration" : 30
                          },
                          {
                            "endTime" : 3060,
                            "time" : 3030,
                            "value" : 2.54358990281888,
                            "duration" : 30
                          },
                          {
                            "endTime" : 3752,
                            "time" : 3703,
                            "value" : 1.0,
                            "duration" : 49
                          },
                          {
                            "endTime" : 3826,
                            "time" : 3780,
                            "value" : 3.29772753852696,
                            "duration" : 46
                          },
                          {
                            "endTime" : 3943,
                            "time" : 3913,
                            "value" : 1.0,
                            "duration" : 30
                          },
                          {
                            "endTime" : 3982,
                            "time" : 3952,
                            "value" : 2.544,
                            "duration" : 30
                          },
                          {
                            "endTime" : 4297,
                            "time" : 4263,
                            "value" : 2.54399958577061,
                            "duration" : 34
                          },
                          {
                            "endTime" : 5256,
                            "time" : 5216,
                            "value" : 1.0,
                            "duration" : 40
                          },
                          {
                            "endTime" : 5301,
                            "time" : 5260,
                            "value" : 1.83827268333693,
                            "duration" : 41
                          },
                          {
                            "endTime" : 5424,
                            "time" : 5394,
                            "value" : 3.0,
                            "duration" : 30
                          },
                          {
                            "endTime" : 5546,
                            "time" : 5516,
                            "value" : 1.0,
                            "duration" : 30
                          },
                          {
                            "endTime" : 5613,
                            "time" : 5583,
                            "value" : 2.83915442049899,
                            "duration" : 30
                          },
                          {
                            "endTime" : 5818,
                            "time" : 5788,
                            "value" : 1.0,
                            "duration" : 30
                          },
                          {
                            "endTime" : 5873,
                            "time" : 5843,
                            "value" : 2.7350442078531,
                            "duration" : 30
                          },
                          {
                            "endTime" : 6030,
                            "time" : 6000,
                            "value" : 1.0,
                            "duration" : 30
                          }
                        ]
                      },
                      "cursorOpacity" : 1.0,
                      "cursorScale" : 1.0
                    },
                    "medias" : [
                        {
                          "id" : 268,
                          "_type" : "ScreenVMFile",
                          "src" : 1,
                          "trackNumber" : 0,
                          "attributes" : {
                            "ident" : "handle_hijacking_attack_prevention"
                          },
                          "parameters" : {
                            "cursorScale" : {
                              "type" : "double",
                              "defaultValue" : 0.0,
                              "interp" : "linr"
                            },
                            "cursorOpacity" : {
                              "type" : "double",
                              "defaultValue" : 0.0,
                              "interp" : "linr"
                            }
                          },
                          "effects" : [

                          ],
                          "start" : 0,
                          "duration" : 2383,
                          "mediaStart" : 0,
                          "mediaDuration" : 2383,
                          "scalar" : 1,
                          "metadata" : {
                            "AutoAppliedSmartFocus" : "False",
                            "clipSpeedAttribute" : false,
                            "default-scale0" : 1.0,
                            "default-scale1" : 1.0,
                            "default-translation0" : 0.0,
                            "default-translation1" : 0.0
                          },
                          "animationTracks" : {

                          }
                        },
                        {
                          "id" : 269,
                          "_type" : "ScreenIMFile",
                          "src" : 1,
                          "trackNumber" : 0,
                          "trimStartSum" : 0,
                          "attributes" : {
                            "ident" : "handle_hijacking_attack_prevention"
                          },
                          "parameters" : {
                            "cursorOpacity" : 0.0,
                            "cursorScale" : 0.0
                          },
                          "effects" : [

                          ],
                          "start" : 2383,
                          "duration" : 60,
                          "mediaStart" : 2382,
                          "mediaDuration" : 1,
                          "scalar" : 1,
                          "metadata" : {
                            "AutoAppliedSmartFocus" : "False"
                          },
                          "animationTracks" : {

                          }
                        },
                        {
                          "id" : 270,
                          "_type" : "ScreenVMFile",
                          "src" : 1,
                          "trackNumber" : 0,
                          "attributes" : {
                            "ident" : "handle_hijacking_attack_prevention"
                          },
                          "parameters" : {
                            "cursorScale" : {
                              "type" : "double",
                              "defaultValue" : 0.0,
                              "interp" : "linr"
                            },
                            "cursorOpacity" : {
                              "type" : "double",
                              "defaultValue" : 0.0,
                              "interp" : "linr"
                            }
                          },
                          "effects" : [

                          ],
                          "start" : 2443,
                          "duration" : 2141,
                          "mediaStart" : 2383,
                          "mediaDuration" : 2141,
                          "scalar" : 1,
                          "metadata" : {
                            "AutoAppliedSmartFocus" : "False",
                            "clipSpeedAttribute" : false,
                            "default-scale0" : 1.0,
                            "default-scale1" : 1.0,
                            "default-translation0" : 0.0,
                            "default-translation1" : 0.0
                          },
                          "animationTracks" : {

                          }
                        },
                        {
                          "id" : 271,
                          "_type" : "ScreenIMFile",
                          "src" : 1,
                          "trackNumber" : 0,
                          "trimStartSum" : 0,
                          "attributes" : {
                            "ident" : "handle_hijacking_attack_prevention"
                          },
                          "parameters" : {
                            "cursorOpacity" : 0.0,
                            "cursorScale" : 0.0
                          },
                          "effects" : [

                          ],
                          "start" : 4584,
                          "duration" : 60,
                          "mediaStart" : 4524,
                          "mediaDuration" : 1,
                          "scalar" : 1,
                          "metadata" : {
                            "AutoAppliedSmartFocus" : "False"
                          },
                          "animationTracks" : {

                          }
                        },
                        {
                          "id" : 272,
                          "_type" : "ScreenVMFile",
                          "src" : 1,
                          "trackNumber" : 0,
                          "attributes" : {
                            "ident" : "handle_hijacking_attack_prevention"
                          },
                          "parameters" : {
                            "cursorScale" : {
                              "type" : "double",
                              "defaultValue" : 0.0,
                              "interp" : "linr"
                            },
                            "cursorOpacity" : {
                              "type" : "double",
                              "defaultValue" : 0.0,
                              "interp" : "linr"
                            }
                          },
                          "effects" : [

                          ],
                          "start" : 4644,
                          "duration" : 233,
                          "mediaStart" : 4524,
                          "mediaDuration" : 233,
                          "scalar" : 1,
                          "metadata" : {
                            "AutoAppliedSmartFocus" : "False",
                            "clipSpeedAttribute" : false,
                            "default-scale0" : 1.0,
                            "default-scale1" : 1.0,
                            "default-translation0" : 0.0,
                            "default-translation1" : 0.0
                          },
                          "animationTracks" : {

                          }
                        },
                        {
                          "id" : 273,
                          "_type" : "ScreenVMFile",
                          "src" : 1,
                          "trackNumber" : 0,
                          "attributes" : {
                            "ident" : "handle_hijacking_attack_prevention"
                          },
                          "parameters" : {
                            "cursorScale" : {
                              "type" : "double",
                              "defaultValue" : 0.0,
                              "interp" : "linr"
                            },
                            "cursorOpacity" : {
                              "type" : "double",
                              "defaultValue" : 0.0,
                              "interp" : "linr"
                            }
                          },
                          "effects" : [

                          ],
                          "start" : 4877,
                          "duration" : 581,
                          "mediaStart" : 4807,
                          "mediaDuration" : 581,
                          "scalar" : 1,
                          "metadata" : {
                            "AutoAppliedSmartFocus" : "False",
                            "clipSpeedAttribute" : false,
                            "default-scale0" : 1.0,
                            "default-scale1" : 1.0,
                            "default-translation0" : 0.0,
                            "default-translation1" : 0.0
                          },
                          "animationTracks" : {

                          }
                        },
                        {
                          "id" : 274,
                          "_type" : "ScreenIMFile",
                          "src" : 1,
                          "trackNumber" : 0,
                          "trimStartSum" : 0,
                          "attributes" : {
                            "ident" : "handle_hijacking_attack_prevention"
                          },
                          "parameters" : {
                            "cursorOpacity" : 0.0,
                            "cursorScale" : 0.0
                          },
                          "effects" : [

                          ],
                          "start" : 5458,
                          "duration" : 60,
                          "mediaStart" : 5388,
                          "mediaDuration" : 1,
                          "scalar" : 1,
                          "metadata" : {
                            "AutoAppliedSmartFocus" : "False"
                          },
                          "animationTracks" : {

                          }
                        },
                        {
                          "id" : 275,
                          "_type" : "ScreenVMFile",
                          "src" : 1,
                          "trackNumber" : 0,
                          "attributes" : {
                            "ident" : "handle_hijacking_attack_prevention"
                          },
                          "parameters" : {
                            "cursorScale" : {
                              "type" : "double",
                              "defaultValue" : 0.0,
                              "interp" : "linr"
                            },
                            "cursorOpacity" : {
                              "type" : "double",
                              "defaultValue" : 0.0,
                              "interp" : "linr"
                            }
                          },
                          "effects" : [

                          ],
                          "start" : 5518,
                          "duration" : 265,
                          "mediaStart" : 5388,
                          "mediaDuration" : 265,
                          "scalar" : 1,
                          "metadata" : {
                            "AutoAppliedSmartFocus" : "False",
                            "clipSpeedAttribute" : false,
                            "default-scale0" : 1.0,
                            "default-scale1" : 1.0,
                            "default-translation0" : 0.0,
                            "default-translation1" : 0.0
                          },
                          "animationTracks" : {

                          }
                        },
                        {
                          "id" : 276,
                          "_type" : "ScreenIMFile",
                          "src" : 1,
                          "trackNumber" : 0,
                          "trimStartSum" : 0,
                          "attributes" : {
                            "ident" : "handle_hijacking_attack_prevention"
                          },
                          "parameters" : {
                            "cursorOpacity" : 0.0,
                            "cursorScale" : 0.0
                          },
                          "effects" : [

                          ],
                          "start" : 5783,
                          "duration" : 60,
                          "mediaStart" : 5653,
                          "mediaDuration" : 1,
                          "scalar" : 1,
                          "metadata" : {
                            "AutoAppliedSmartFocus" : "False"
                          },
                          "animationTracks" : {

                          }
                        },
                        {
                          "id" : 277,
                          "_type" : "ScreenVMFile",
                          "src" : 1,
                          "trackNumber" : 0,
                          "attributes" : {
                            "ident" : "handle_hijacking_attack_prevention"
                          },
                          "parameters" : {
                            "cursorScale" : {
                              "type" : "double",
                              "defaultValue" : 0.0,
                              "interp" : "linr"
                            },
                            "cursorOpacity" : {
                              "type" : "double",
                              "defaultValue" : 0.0,
                              "interp" : "linr"
                            }
                          },
                          "effects" : [

                          ],
                          "start" : 5843,
                          "duration" : 1216,
                          "mediaStart" : 5653,
                          "mediaDuration" : 1216,
                          "scalar" : 1,
                          "metadata" : {
                            "AutoAppliedSmartFocus" : "False",
                            "clipSpeedAttribute" : false,
                            "default-scale0" : 1.0,
                            "default-scale1" : 1.0,
                            "default-translation0" : 0.0,
                            "default-translation1" : 0.0
                          },
                          "animationTracks" : {

                          }
                        }
                    ],
                    "effects" : [
                        {
                          "effectName" : "CursorHilight",
                          "category" : "categoryCursorEffects",
                          "parameters" : {
                            "blur" : 0.1,
                            "color-alpha" : 0.75,
                            "color-blue" : 0.0,
                            "color-green" : 1.0,
                            "color-red" : 1.0,
                            "radius" : 50.0
                          }
                        }
                    ],
                    "start" : 4002,
                    "duration" : 82,
                    "mediaStart" : 6175,
                    "mediaDuration" : 401,
                    "scalar" : "82/401",
                    "metadata" : {
                      "AutoAppliedSmartFocus" : "False",
                      "clipSpeedAttribute" : true,
                      "default-scale0" : 0.99999922572519,
                      "default-scale1" : 1.0,
                      "default-translation0" : 1.70530256582424e-13,
                      "default-translation1" : -2.27373675443232e-13
                    },
                    "animationTracks" : {
                      "visual" : [
                        {
                          "endTime" : 242,
                          "duration" : 30,
                          "range" : [ 212, 30]
                        },
                        {
                          "endTime" : 332,
                          "duration" : 30,
                          "range" : [ 302, 30]
                        },
                        {
                          "endTime" : 1240,
                          "duration" : 30,
                          "range" : [ 1210, 30]
                        },
                        {
                          "endTime" : 1493,
                          "duration" : 30,
                          "range" : [ 1463, 30]
                        },
                        {
                          "endTime" : 2029,
                          "duration" : 26,
                          "range" : [ 2003, 26]
                        },
                        {
                          "endTime" : 2478,
                          "duration" : 30,
                          "range" : [ 2448, 30]
                        },
                        {
                          "endTime" : 3060,
                          "duration" : 30,
                          "range" : [ 3030, 30]
                        },
                        {
                          "endTime" : 3378,
                          "duration" : 30,
                          "range" : [ 3348, 30]
                        },
                        {
                          "endTime" : 3752,
                          "duration" : 49,
                          "range" : [ 3703, 49]
                        },
                        {
                          "endTime" : 3826,
                          "duration" : 46,
                          "range" : [ 3780, 46]
                        },
                        {
                          "endTime" : 3943,
                          "duration" : 30,
                          "range" : [ 3913, 30]
                        },
                        {
                          "endTime" : 3982,
                          "duration" : 30,
                          "range" : [ 3952, 30]
                        },
                        {
                          "endTime" : 4297,
                          "duration" : 34,
                          "range" : [ 4263, 34]
                        },
                        {
                          "endTime" : 5256,
                          "duration" : 40,
                          "range" : [ 5216, 40]
                        },
                        {
                          "endTime" : 5301,
                          "duration" : 41,
                          "range" : [ 5260, 41]
                        },
                        {
                          "endTime" : 5424,
                          "duration" : 30,
                          "range" : [ 5394, 30]
                        },
                        {
                          "endTime" : 5546,
                          "duration" : 30,
                          "range" : [ 5516, 30]
                        },
                        {
                          "endTime" : 5613,
                          "duration" : 30,
                          "range" : [ 5583, 30]
                        },
                        {
                          "endTime" : 5818,
                          "duration" : 30,
                          "range" : [ 5788, 30]
                        },
                        {
                          "endTime" : 5873,
                          "duration" : 30,
                          "range" : [ 5843, 30]
                        },
                        {
                          "endTime" : 6030,
                          "duration" : 30,
                          "range" : [ 6000, 30]
                        }
                      ]
                    }
                  },
                  {
                    "id" : 278,
                    "_type" : "StitchedMedia",
                    "minMediaStart" : 0,
                    "attributes" : {
                      "ident" : "handle_hijacking_attack_prevention",
                      "gain" : 1.0,
                      "mixToMono" : false
                    },
                    "parameters" : {
                      "translation0" : {
                        "type" : "double",
                        "defaultValue" : 0.0,
                        "keyframes" : [
                          {
                            "endTime" : 242,
                            "time" : 212,
                            "value" : 4445.6304568441,
                            "duration" : 30
                          },
                          {
                            "endTime" : 332,
                            "time" : 302,
                            "value" : -7.95807864051312e-13,
                            "duration" : 30
                          },
                          {
                            "endTime" : 1240,
                            "time" : 1210,
                            "value" : 1813.23805555168,
                            "duration" : 30
                          },
                          {
                            "endTime" : 1493,
                            "time" : 1463,
                            "value" : 1769.1,
                            "duration" : 30
                          },
                          {
                            "endTime" : 2029,
                            "time" : 2003,
                            "value" : 1769.08221838715,
                            "duration" : 26
                          },
                          {
                            "endTime" : 2478,
                            "time" : 2448,
                            "value" : -1.13686837721616e-13,
                            "duration" : 30
                          },
                          {
                            "endTime" : 3060,
                            "time" : 3030,
                            "value" : -927.066246510699,
                            "duration" : 30
                          },
                          {
                            "endTime" : 3378,
                            "time" : 3348,
                            "value" : -927.1,
                            "duration" : 30
                          },
                          {
                            "endTime" : 3752,
                            "time" : 3703,
                            "value" : 1.13686837721616e-13,
                            "duration" : 49
                          },
                          {
                            "endTime" : 3826,
                            "time" : 3780,
                            "value" : 2190.48664188307,
                            "duration" : 46
                          },
                          {
                            "endTime" : 3943,
                            "time" : 3913,
                            "value" : 2.27373675443232e-13,
                            "duration" : 30
                          },
                          {
                            "endTime" : 3982,
                            "time" : 3952,
                            "value" : -927.1,
                            "duration" : 30
                          },
                          {
                            "endTime" : 4297,
                            "time" : 4263,
                            "value" : -927.1,
                            "duration" : 34
                          },
                          {
                            "endTime" : 5256,
                            "time" : 5216,
                            "value" : 5.6843418860808e-14,
                            "duration" : 40
                          },
                          {
                            "endTime" : 5301,
                            "time" : 5260,
                            "value" : 680.367023205802,
                            "duration" : 41
                          },
                          {
                            "endTime" : 5424,
                            "time" : 5394,
                            "value" : 1794.65403755581,
                            "duration" : 30
                          },
                          {
                            "endTime" : 5546,
                            "time" : 5516,
                            "value" : -3.41060513164848e-13,
                            "duration" : 30
                          },
                          {
                            "endTime" : 5613,
                            "time" : 5583,
                            "value" : -877.024502523768,
                            "duration" : 30
                          },
                          {
                            "endTime" : 5818,
                            "time" : 5788,
                            "value" : 1.70530256582424e-13,
                            "duration" : 30
                          },
                          {
                            "endTime" : 5873,
                            "time" : 5843,
                            "value" : 1572.46260600652,
                            "duration" : 30
                          },
                          {
                            "endTime" : 6030,
                            "time" : 6000,
                            "value" : 2.27373675443232e-13,
                            "duration" : 30
                          }
                        ]
                      },
                      "translation1" : {
                        "type" : "double",
                        "defaultValue" : 0.0,
                        "keyframes" : [
                          {
                            "endTime" : 242,
                            "time" : 212,
                            "value" : -2101.5592739797,
                            "duration" : 30
                          },
                          {
                            "endTime" : 332,
                            "time" : 302,
                            "value" : 4.54747350886464e-13,
                            "duration" : 30
                          },
                          {
                            "endTime" : 1240,
                            "time" : 1210,
                            "value" : 0.0,
                            "duration" : 30
                          },
                          {
                            "endTime" : 1493,
                            "time" : 1463,
                            "value" : 764.586721975313,
                            "duration" : 30
                          },
                          {
                            "endTime" : 2029,
                            "time" : 2003,
                            "value" : 955.733402469141,
                            "duration" : 26
                          },
                          {
                            "endTime" : 2478,
                            "time" : 2448,
                            "value" : -5.6843418860808e-14,
                            "duration" : 30
                          },
                          {
                            "endTime" : 3060,
                            "time" : 3030,
                            "value" : 51.6923109282546,
                            "duration" : 30
                          },
                          {
                            "endTime" : 3378,
                            "time" : 3348,
                            "value" : 793.192387394355,
                            "duration" : 30
                          },
                          {
                            "endTime" : 3752,
                            "time" : 3703,
                            "value" : 0.0,
                            "duration" : 49
                          },
                          {
                            "endTime" : 3826,
                            "time" : 3780,
                            "value" : 525.407539085336,
                            "duration" : 46
                          },
                          {
                            "endTime" : 3943,
                            "time" : 3913,
                            "value" : -8.5265128291212e-14,
                            "duration" : 30
                          },
                          {
                            "endTime" : 3982,
                            "time" : 3952,
                            "value" : 693.2,
                            "duration" : 30
                          },
                          {
                            "endTime" : 4297,
                            "time" : 4263,
                            "value" : 796.601448181272,
                            "duration" : 34
                          },
                          {
                            "endTime" : 5256,
                            "time" : 5216,
                            "value" : 0.0,
                            "duration" : 40
                          },
                          {
                            "endTime" : 5301,
                            "time" : 5260,
                            "value" : 382.706644741061,
                            "duration" : 41
                          },
                          {
                            "endTime" : 5424,
                            "time" : 5394,
                            "value" : 175.346948293544,
                            "duration" : 30
                          },
                          {
                            "endTime" : 5546,
                            "time" : 5516,
                            "value" : -1.27897692436818e-13,
                            "duration" : 30
                          },
                          {
                            "endTime" : 5613,
                            "time" : 5583,
                            "value" : 908.758378625847,
                            "duration" : 30
                          },
                          {
                            "endTime" : 5818,
                            "time" : 5788,
                            "value" : -2.27373675443232e-13,
                            "duration" : 30
                          },
                          {
                            "endTime" : 5873,
                            "time" : 5843,
                            "value" : 862.287656103343,
                            "duration" : 30
                          },
                          {
                            "endTime" : 6030,
                            "time" : 6000,
                            "value" : -1.13686837721616e-13,
                            "duration" : 30
                          }
                        ]
                      },
                      "scale0" : {
                        "type" : "double",
                        "defaultValue" : 1.0,
                        "keyframes" : [
                          {
                            "endTime" : 242,
                            "time" : 212,
                            "value" : 4.90967434857952,
                            "duration" : 30
                          },
                          {
                            "endTime" : 332,
                            "time" : 302,
                            "value" : 0.99999957889657,
                            "duration" : 30
                          },
                          {
                            "endTime" : 1240,
                            "time" : 1210,
                            "value" : 2.93925764732581,
                            "duration" : 30
                          },
                          {
                            "endTime" : 1493,
                            "time" : 1463,
                            "value" : 2.93925755430459,
                            "duration" : 30
                          },
                          {
                            "endTime" : 2029,
                            "time" : 2003,
                            "value" : 2.93925746128338,
                            "duration" : 26
                          },
                          {
                            "endTime" : 2478,
                            "time" : 2448,
                            "value" : 0.999999315951539,
                            "duration" : 30
                          },
                          {
                            "endTime" : 3060,
                            "time" : 3030,
                            "value" : 2.54358807927679,
                            "duration" : 30
                          },
                          {
                            "endTime" : 3378,
                            "time" : 3348,
                            "value" : 2.5435882186022,
                            "duration" : 30
                          },
                          {
                            "endTime" : 3752,
                            "time" : 3703,
                            "value" : 0.999999337858405,
                            "duration" : 49
                          },
                          {
                            "endTime" : 3826,
                            "time" : 3780,
                            "value" : 3.2977262743969,
                            "duration" : 46
                          },
                          {
                            "endTime" : 3943,
                            "time" : 3913,
                            "value" : 0.999999616666313,
                            "duration" : 30
                          },
                          {
                            "endTime" : 3982,
                            "time" : 3952,
                            "value" : 2.5439982822715,
                            "duration" : 30
                          },
                          {
                            "endTime" : 4297,
                            "time" : 4263,
                            "value" : 2.54399842552367,
                            "duration" : 34
                          },
                          {
                            "endTime" : 5256,
                            "time" : 5216,
                            "value" : 0.999999543928019,
                            "duration" : 40
                          },
                          {
                            "endTime" : 5301,
                            "time" : 5260,
                            "value" : 1.83827164662978,
                            "duration" : 41
                          },
                          {
                            "endTime" : 5424,
                            "time" : 5394,
                            "value" : 2.9999982078393,
                            "duration" : 30
                          },
                          {
                            "endTime" : 5546,
                            "time" : 5516,
                            "value" : 0.999999402613099,
                            "duration" : 30
                          },
                          {
                            "endTime" : 5613,
                            "time" : 5583,
                            "value" : 2.83915222221324,
                            "duration" : 30
                          },
                          {
                            "endTime" : 5818,
                            "time" : 5788,
                            "value" : 0.99999922572519,
                            "duration" : 30
                          },
                          {
                            "endTime" : 5873,
                            "time" : 5843,
                            "value" : 2.73504203536443,
                            "duration" : 30
                          },
                          {
                            "endTime" : 6030,
                            "time" : 6000,
                            "value" : 0.999999205684257,
                            "duration" : 30
                          }
                        ]
                      },
                      "scale1" : {
                        "type" : "double",
                        "defaultValue" : 1.0,
                        "keyframes" : [
                          {
                            "endTime" : 242,
                            "time" : 212,
                            "value" : 4.90967641606111,
                            "duration" : 30
                          },
                          {
                            "endTime" : 332,
                            "time" : 302,
                            "value" : 1.0,
                            "duration" : 30
                          },
                          {
                            "endTime" : 1240,
                            "time" : 1210,
                            "value" : 2.9392594718793,
                            "duration" : 30
                          },
                          {
                            "endTime" : 2029,
                            "time" : 2003,
                            "value" : 2.9392594718793,
                            "duration" : 26
                          },
                          {
                            "endTime" : 2478,
                            "time" : 2448,
                            "value" : 1.0,
                            "duration" : 30
                          },
                          {
                            "endTime" : 3060,
                            "time" : 3030,
                            "value" : 2.54358990281888,
                            "duration" : 30
                          },
                          {
                            "endTime" : 3752,
                            "time" : 3703,
                            "value" : 1.0,
                            "duration" : 49
                          },
                          {
                            "endTime" : 3826,
                            "time" : 3780,
                            "value" : 3.29772753852696,
                            "duration" : 46
                          },
                          {
                            "endTime" : 3943,
                            "time" : 3913,
                            "value" : 1.0,
                            "duration" : 30
                          },
                          {
                            "endTime" : 3982,
                            "time" : 3952,
                            "value" : 2.544,
                            "duration" : 30
                          },
                          {
                            "endTime" : 4297,
                            "time" : 4263,
                            "value" : 2.54399958577061,
                            "duration" : 34
                          },
                          {
                            "endTime" : 5256,
                            "time" : 5216,
                            "value" : 1.0,
                            "duration" : 40
                          },
                          {
                            "endTime" : 5301,
                            "time" : 5260,
                            "value" : 1.83827268333693,
                            "duration" : 41
                          },
                          {
                            "endTime" : 5424,
                            "time" : 5394,
                            "value" : 3.0,
                            "duration" : 30
                          },
                          {
                            "endTime" : 5546,
                            "time" : 5516,
                            "value" : 1.0,
                            "duration" : 30
                          },
                          {
                            "endTime" : 5613,
                            "time" : 5583,
                            "value" : 2.83915442049899,
                            "duration" : 30
                          },
                          {
                            "endTime" : 5818,
                            "time" : 5788,
                            "value" : 1.0,
                            "duration" : 30
                          },
                          {
                            "endTime" : 5873,
                            "time" : 5843,
                            "value" : 2.7350442078531,
                            "duration" : 30
                          },
                          {
                            "endTime" : 6030,
                            "time" : 6000,
                            "value" : 1.0,
                            "duration" : 30
                          }
                        ]
                      },
                      "cursorOpacity" : 1.0,
                      "cursorScale" : 1.0
                    },
                    "medias" : [
                        {
                          "id" : 279,
                          "_type" : "ScreenVMFile",
                          "src" : 1,
                          "trackNumber" : 0,
                          "attributes" : {
                            "ident" : "handle_hijacking_attack_prevention"
                          },
                          "parameters" : {
                            "cursorScale" : {
                              "type" : "double",
                              "defaultValue" : 0.0,
                              "interp" : "linr"
                            },
                            "cursorOpacity" : {
                              "type" : "double",
                              "defaultValue" : 0.0,
                              "interp" : "linr"
                            }
                          },
                          "effects" : [

                          ],
                          "start" : 0,
                          "duration" : 2383,
                          "mediaStart" : 0,
                          "mediaDuration" : 2383,
                          "scalar" : 1,
                          "metadata" : {
                            "AutoAppliedSmartFocus" : "False",
                            "clipSpeedAttribute" : false,
                            "default-scale0" : 1.0,
                            "default-scale1" : 1.0,
                            "default-translation0" : 0.0,
                            "default-translation1" : 0.0
                          },
                          "animationTracks" : {

                          }
                        },
                        {
                          "id" : 280,
                          "_type" : "ScreenIMFile",
                          "src" : 1,
                          "trackNumber" : 0,
                          "trimStartSum" : 0,
                          "attributes" : {
                            "ident" : "handle_hijacking_attack_prevention"
                          },
                          "parameters" : {
                            "cursorOpacity" : 0.0,
                            "cursorScale" : 0.0
                          },
                          "effects" : [

                          ],
                          "start" : 2383,
                          "duration" : 60,
                          "mediaStart" : 2382,
                          "mediaDuration" : 1,
                          "scalar" : 1,
                          "metadata" : {
                            "AutoAppliedSmartFocus" : "False"
                          },
                          "animationTracks" : {

                          }
                        },
                        {
                          "id" : 281,
                          "_type" : "ScreenVMFile",
                          "src" : 1,
                          "trackNumber" : 0,
                          "attributes" : {
                            "ident" : "handle_hijacking_attack_prevention"
                          },
                          "parameters" : {
                            "cursorScale" : {
                              "type" : "double",
                              "defaultValue" : 0.0,
                              "interp" : "linr"
                            },
                            "cursorOpacity" : {
                              "type" : "double",
                              "defaultValue" : 0.0,
                              "interp" : "linr"
                            }
                          },
                          "effects" : [

                          ],
                          "start" : 2443,
                          "duration" : 2141,
                          "mediaStart" : 2383,
                          "mediaDuration" : 2141,
                          "scalar" : 1,
                          "metadata" : {
                            "AutoAppliedSmartFocus" : "False",
                            "clipSpeedAttribute" : false,
                            "default-scale0" : 1.0,
                            "default-scale1" : 1.0,
                            "default-translation0" : 0.0,
                            "default-translation1" : 0.0
                          },
                          "animationTracks" : {

                          }
                        },
                        {
                          "id" : 282,
                          "_type" : "ScreenIMFile",
                          "src" : 1,
                          "trackNumber" : 0,
                          "trimStartSum" : 0,
                          "attributes" : {
                            "ident" : "handle_hijacking_attack_prevention"
                          },
                          "parameters" : {
                            "cursorOpacity" : 0.0,
                            "cursorScale" : 0.0
                          },
                          "effects" : [

                          ],
                          "start" : 4584,
                          "duration" : 60,
                          "mediaStart" : 4524,
                          "mediaDuration" : 1,
                          "scalar" : 1,
                          "metadata" : {
                            "AutoAppliedSmartFocus" : "False"
                          },
                          "animationTracks" : {

                          }
                        },
                        {
                          "id" : 283,
                          "_type" : "ScreenVMFile",
                          "src" : 1,
                          "trackNumber" : 0,
                          "attributes" : {
                            "ident" : "handle_hijacking_attack_prevention"
                          },
                          "parameters" : {
                            "cursorScale" : {
                              "type" : "double",
                              "defaultValue" : 0.0,
                              "interp" : "linr"
                            },
                            "cursorOpacity" : {
                              "type" : "double",
                              "defaultValue" : 0.0,
                              "interp" : "linr"
                            }
                          },
                          "effects" : [

                          ],
                          "start" : 4644,
                          "duration" : 233,
                          "mediaStart" : 4524,
                          "mediaDuration" : 233,
                          "scalar" : 1,
                          "metadata" : {
                            "AutoAppliedSmartFocus" : "False",
                            "clipSpeedAttribute" : false,
                            "default-scale0" : 1.0,
                            "default-scale1" : 1.0,
                            "default-translation0" : 0.0,
                            "default-translation1" : 0.0
                          },
                          "animationTracks" : {

                          }
                        },
                        {
                          "id" : 284,
                          "_type" : "ScreenVMFile",
                          "src" : 1,
                          "trackNumber" : 0,
                          "attributes" : {
                            "ident" : "handle_hijacking_attack_prevention"
                          },
                          "parameters" : {
                            "cursorScale" : {
                              "type" : "double",
                              "defaultValue" : 0.0,
                              "interp" : "linr"
                            },
                            "cursorOpacity" : {
                              "type" : "double",
                              "defaultValue" : 0.0,
                              "interp" : "linr"
                            }
                          },
                          "effects" : [

                          ],
                          "start" : 4877,
                          "duration" : 581,
                          "mediaStart" : 4807,
                          "mediaDuration" : 581,
                          "scalar" : 1,
                          "metadata" : {
                            "AutoAppliedSmartFocus" : "False",
                            "clipSpeedAttribute" : false,
                            "default-scale0" : 1.0,
                            "default-scale1" : 1.0,
                            "default-translation0" : 0.0,
                            "default-translation1" : 0.0
                          },
                          "animationTracks" : {

                          }
                        },
                        {
                          "id" : 285,
                          "_type" : "ScreenIMFile",
                          "src" : 1,
                          "trackNumber" : 0,
                          "trimStartSum" : 0,
                          "attributes" : {
                            "ident" : "handle_hijacking_attack_prevention"
                          },
                          "parameters" : {
                            "cursorOpacity" : 0.0,
                            "cursorScale" : 0.0
                          },
                          "effects" : [

                          ],
                          "start" : 5458,
                          "duration" : 60,
                          "mediaStart" : 5388,
                          "mediaDuration" : 1,
                          "scalar" : 1,
                          "metadata" : {
                            "AutoAppliedSmartFocus" : "False"
                          },
                          "animationTracks" : {

                          }
                        },
                        {
                          "id" : 286,
                          "_type" : "ScreenVMFile",
                          "src" : 1,
                          "trackNumber" : 0,
                          "attributes" : {
                            "ident" : "handle_hijacking_attack_prevention"
                          },
                          "parameters" : {
                            "cursorScale" : {
                              "type" : "double",
                              "defaultValue" : 0.0,
                              "interp" : "linr"
                            },
                            "cursorOpacity" : {
                              "type" : "double",
                              "defaultValue" : 0.0,
                              "interp" : "linr"
                            }
                          },
                          "effects" : [

                          ],
                          "start" : 5518,
                          "duration" : 265,
                          "mediaStart" : 5388,
                          "mediaDuration" : 265,
                          "scalar" : 1,
                          "metadata" : {
                            "AutoAppliedSmartFocus" : "False",
                            "clipSpeedAttribute" : false,
                            "default-scale0" : 1.0,
                            "default-scale1" : 1.0,
                            "default-translation0" : 0.0,
                            "default-translation1" : 0.0
                          },
                          "animationTracks" : {

                          }
                        },
                        {
                          "id" : 287,
                          "_type" : "ScreenIMFile",
                          "src" : 1,
                          "trackNumber" : 0,
                          "trimStartSum" : 0,
                          "attributes" : {
                            "ident" : "handle_hijacking_attack_prevention"
                          },
                          "parameters" : {
                            "cursorOpacity" : 0.0,
                            "cursorScale" : 0.0
                          },
                          "effects" : [

                          ],
                          "start" : 5783,
                          "duration" : 60,
                          "mediaStart" : 5653,
                          "mediaDuration" : 1,
                          "scalar" : 1,
                          "metadata" : {
                            "AutoAppliedSmartFocus" : "False"
                          },
                          "animationTracks" : {

                          }
                        },
                        {
                          "id" : 288,
                          "_type" : "ScreenVMFile",
                          "src" : 1,
                          "trackNumber" : 0,
                          "attributes" : {
                            "ident" : "handle_hijacking_attack_prevention"
                          },
                          "parameters" : {
                            "cursorScale" : {
                              "type" : "double",
                              "defaultValue" : 0.0,
                              "interp" : "linr"
                            },
                            "cursorOpacity" : {
                              "type" : "double",
                              "defaultValue" : 0.0,
                              "interp" : "linr"
                            }
                          },
                          "effects" : [

                          ],
                          "start" : 5843,
                          "duration" : 1216,
                          "mediaStart" : 5653,
                          "mediaDuration" : 1216,
                          "scalar" : 1,
                          "metadata" : {
                            "AutoAppliedSmartFocus" : "False",
                            "clipSpeedAttribute" : false,
                            "default-scale0" : 1.0,
                            "default-scale1" : 1.0,
                            "default-translation0" : 0.0,
                            "default-translation1" : 0.0
                          },
                          "animationTracks" : {

                          }
                        }
                    ],
                    "effects" : [
                        {
                          "effectName" : "CursorHilight",
                          "category" : "categoryCursorEffects",
                          "parameters" : {
                            "blur" : 0.1,
                            "color-alpha" : 0.75,
                            "color-blue" : 0.0,
                            "color-green" : 1.0,
                            "color-red" : 1.0,
                            "radius" : 50.0
                          }
                        }
                    ],
                    "start" : 4084,
                    "duration" : 31,
                    "mediaStart" : 6576,
                    "mediaDuration" : 60,
                    "scalar" : "31/60",
                    "metadata" : {
                      "AutoAppliedSmartFocus" : "False",
                      "clipSpeedAttribute" : true,
                      "default-scale0" : 0.99999922572519,
                      "default-scale1" : 1.0,
                      "default-translation0" : 1.70530256582424e-13,
                      "default-translation1" : -2.27373675443232e-13
                    },
                    "animationTracks" : {
                      "visual" : [
                        {
                          "endTime" : 242,
                          "duration" : 30,
                          "range" : [ 212, 30]
                        },
                        {
                          "endTime" : 332,
                          "duration" : 30,
                          "range" : [ 302, 30]
                        },
                        {
                          "endTime" : 1240,
                          "duration" : 30,
                          "range" : [ 1210, 30]
                        },
                        {
                          "endTime" : 1493,
                          "duration" : 30,
                          "range" : [ 1463, 30]
                        },
                        {
                          "endTime" : 2029,
                          "duration" : 26,
                          "range" : [ 2003, 26]
                        },
                        {
                          "endTime" : 2478,
                          "duration" : 30,
                          "range" : [ 2448, 30]
                        },
                        {
                          "endTime" : 3060,
                          "duration" : 30,
                          "range" : [ 3030, 30]
                        },
                        {
                          "endTime" : 3378,
                          "duration" : 30,
                          "range" : [ 3348, 30]
                        },
                        {
                          "endTime" : 3752,
                          "duration" : 49,
                          "range" : [ 3703, 49]
                        },
                        {
                          "endTime" : 3826,
                          "duration" : 46,
                          "range" : [ 3780, 46]
                        },
                        {
                          "endTime" : 3943,
                          "duration" : 30,
                          "range" : [ 3913, 30]
                        },
                        {
                          "endTime" : 3982,
                          "duration" : 30,
                          "range" : [ 3952, 30]
                        },
                        {
                          "endTime" : 4297,
                          "duration" : 34,
                          "range" : [ 4263, 34]
                        },
                        {
                          "endTime" : 5256,
                          "duration" : 40,
                          "range" : [ 5216, 40]
                        },
                        {
                          "endTime" : 5301,
                          "duration" : 41,
                          "range" : [ 5260, 41]
                        },
                        {
                          "endTime" : 5424,
                          "duration" : 30,
                          "range" : [ 5394, 30]
                        },
                        {
                          "endTime" : 5546,
                          "duration" : 30,
                          "range" : [ 5516, 30]
                        },
                        {
                          "endTime" : 5613,
                          "duration" : 30,
                          "range" : [ 5583, 30]
                        },
                        {
                          "endTime" : 5818,
                          "duration" : 30,
                          "range" : [ 5788, 30]
                        },
                        {
                          "endTime" : 5873,
                          "duration" : 30,
                          "range" : [ 5843, 30]
                        },
                        {
                          "endTime" : 6030,
                          "duration" : 30,
                          "range" : [ 6000, 30]
                        }
                      ]
                    }
                  },
                  {
                    "id" : 289,
                    "_type" : "StitchedMedia",
                    "minMediaStart" : 0,
                    "attributes" : {
                      "ident" : "handle_hijacking_attack_prevention",
                      "gain" : 1.0,
                      "mixToMono" : false
                    },
                    "parameters" : {
                      "translation0" : {
                        "type" : "double",
                        "defaultValue" : 0.0,
                        "keyframes" : [
                          {
                            "endTime" : 242,
                            "time" : 212,
                            "value" : 4445.6304568441,
                            "duration" : 30
                          },
                          {
                            "endTime" : 332,
                            "time" : 302,
                            "value" : -7.95807864051312e-13,
                            "duration" : 30
                          },
                          {
                            "endTime" : 1240,
                            "time" : 1210,
                            "value" : 1813.23805555168,
                            "duration" : 30
                          },
                          {
                            "endTime" : 1493,
                            "time" : 1463,
                            "value" : 1769.1,
                            "duration" : 30
                          },
                          {
                            "endTime" : 2029,
                            "time" : 2003,
                            "value" : 1769.08221838715,
                            "duration" : 26
                          },
                          {
                            "endTime" : 2478,
                            "time" : 2448,
                            "value" : -1.13686837721616e-13,
                            "duration" : 30
                          },
                          {
                            "endTime" : 3060,
                            "time" : 3030,
                            "value" : -927.066246510699,
                            "duration" : 30
                          },
                          {
                            "endTime" : 3378,
                            "time" : 3348,
                            "value" : -927.1,
                            "duration" : 30
                          },
                          {
                            "endTime" : 3752,
                            "time" : 3703,
                            "value" : 1.13686837721616e-13,
                            "duration" : 49
                          },
                          {
                            "endTime" : 3826,
                            "time" : 3780,
                            "value" : 2190.48664188307,
                            "duration" : 46
                          },
                          {
                            "endTime" : 3943,
                            "time" : 3913,
                            "value" : 2.27373675443232e-13,
                            "duration" : 30
                          },
                          {
                            "endTime" : 3982,
                            "time" : 3952,
                            "value" : -927.1,
                            "duration" : 30
                          },
                          {
                            "endTime" : 4297,
                            "time" : 4263,
                            "value" : -927.1,
                            "duration" : 34
                          },
                          {
                            "endTime" : 5256,
                            "time" : 5216,
                            "value" : 5.6843418860808e-14,
                            "duration" : 40
                          },
                          {
                            "endTime" : 5301,
                            "time" : 5260,
                            "value" : 680.367023205802,
                            "duration" : 41
                          },
                          {
                            "endTime" : 5424,
                            "time" : 5394,
                            "value" : 1794.65403755581,
                            "duration" : 30
                          },
                          {
                            "endTime" : 5546,
                            "time" : 5516,
                            "value" : -3.41060513164848e-13,
                            "duration" : 30
                          },
                          {
                            "endTime" : 5613,
                            "time" : 5583,
                            "value" : -877.024502523768,
                            "duration" : 30
                          },
                          {
                            "endTime" : 5818,
                            "time" : 5788,
                            "value" : 1.70530256582424e-13,
                            "duration" : 30
                          },
                          {
                            "endTime" : 5873,
                            "time" : 5843,
                            "value" : 1572.46260600652,
                            "duration" : 30
                          },
                          {
                            "endTime" : 6030,
                            "time" : 6000,
                            "value" : 2.27373675443232e-13,
                            "duration" : 30
                          },
                          {
                            "endTime" : 6666,
                            "time" : 6636,
                            "value" : 2537.51151187118,
                            "duration" : 30
                          },
                          {
                            "endTime" : 7057,
                            "time" : 7027,
                            "value" : -3.41060513164848e-13,
                            "duration" : 30
                          }
                        ]
                      },
                      "translation1" : {
                        "type" : "double",
                        "defaultValue" : 0.0,
                        "keyframes" : [
                          {
                            "endTime" : 242,
                            "time" : 212,
                            "value" : -2101.5592739797,
                            "duration" : 30
                          },
                          {
                            "endTime" : 332,
                            "time" : 302,
                            "value" : 4.54747350886464e-13,
                            "duration" : 30
                          },
                          {
                            "endTime" : 1240,
                            "time" : 1210,
                            "value" : 0.0,
                            "duration" : 30
                          },
                          {
                            "endTime" : 1493,
                            "time" : 1463,
                            "value" : 764.586721975313,
                            "duration" : 30
                          },
                          {
                            "endTime" : 2029,
                            "time" : 2003,
                            "value" : 955.733402469141,
                            "duration" : 26
                          },
                          {
                            "endTime" : 2478,
                            "time" : 2448,
                            "value" : -5.6843418860808e-14,
                            "duration" : 30
                          },
                          {
                            "endTime" : 3060,
                            "time" : 3030,
                            "value" : 51.6923109282546,
                            "duration" : 30
                          },
                          {
                            "endTime" : 3378,
                            "time" : 3348,
                            "value" : 793.192387394355,
                            "duration" : 30
                          },
                          {
                            "endTime" : 3752,
                            "time" : 3703,
                            "value" : 0.0,
                            "duration" : 49
                          },
                          {
                            "endTime" : 3826,
                            "time" : 3780,
                            "value" : 525.407539085336,
                            "duration" : 46
                          },
                          {
                            "endTime" : 3943,
                            "time" : 3913,
                            "value" : -8.5265128291212e-14,
                            "duration" : 30
                          },
                          {
                            "endTime" : 3982,
                            "time" : 3952,
                            "value" : 693.2,
                            "duration" : 30
                          },
                          {
                            "endTime" : 4297,
                            "time" : 4263,
                            "value" : 796.601448181272,
                            "duration" : 34
                          },
                          {
                            "endTime" : 5256,
                            "time" : 5216,
                            "value" : 0.0,
                            "duration" : 40
                          },
                          {
                            "endTime" : 5301,
                            "time" : 5260,
                            "value" : 382.706644741061,
                            "duration" : 41
                          },
                          {
                            "endTime" : 5424,
                            "time" : 5394,
                            "value" : 175.346948293544,
                            "duration" : 30
                          },
                          {
                            "endTime" : 5546,
                            "time" : 5516,
                            "value" : -1.27897692436818e-13,
                            "duration" : 30
                          },
                          {
                            "endTime" : 5613,
                            "time" : 5583,
                            "value" : 908.758378625847,
                            "duration" : 30
                          },
                          {
                            "endTime" : 5818,
                            "time" : 5788,
                            "value" : -2.27373675443232e-13,
                            "duration" : 30
                          },
                          {
                            "endTime" : 5873,
                            "time" : 5843,
                            "value" : 862.287656103343,
                            "duration" : 30
                          },
                          {
                            "endTime" : 6030,
                            "time" : 6000,
                            "value" : -1.13686837721616e-13,
                            "duration" : 30
                          },
                          {
                            "endTime" : 6666,
                            "time" : 6636,
                            "value" : -369.59717380958,
                            "duration" : 30
                          },
                          {
                            "endTime" : 7057,
                            "time" : 7027,
                            "value" : 1.56319401867222e-13,
                            "duration" : 30
                          }
                        ]
                      },
                      "scale0" : {
                        "type" : "double",
                        "defaultValue" : 1.0,
                        "keyframes" : [
                          {
                            "endTime" : 242,
                            "time" : 212,
                            "value" : 4.90967434857952,
                            "duration" : 30
                          },
                          {
                            "endTime" : 332,
                            "time" : 302,
                            "value" : 0.99999957889657,
                            "duration" : 30
                          },
                          {
                            "endTime" : 1240,
                            "time" : 1210,
                            "value" : 2.93925764732581,
                            "duration" : 30
                          },
                          {
                            "endTime" : 1493,
                            "time" : 1463,
                            "value" : 2.93925755430459,
                            "duration" : 30
                          },
                          {
                            "endTime" : 2029,
                            "time" : 2003,
                            "value" : 2.93925746128338,
                            "duration" : 26
                          },
                          {
                            "endTime" : 2478,
                            "time" : 2448,
                            "value" : 0.999999315951539,
                            "duration" : 30
                          },
                          {
                            "endTime" : 3060,
                            "time" : 3030,
                            "value" : 2.54358807927679,
                            "duration" : 30
                          },
                          {
                            "endTime" : 3378,
                            "time" : 3348,
                            "value" : 2.5435882186022,
                            "duration" : 30
                          },
                          {
                            "endTime" : 3752,
                            "time" : 3703,
                            "value" : 0.999999337858405,
                            "duration" : 49
                          },
                          {
                            "endTime" : 3826,
                            "time" : 3780,
                            "value" : 3.2977262743969,
                            "duration" : 46
                          },
                          {
                            "endTime" : 3943,
                            "time" : 3913,
                            "value" : 0.999999616666313,
                            "duration" : 30
                          },
                          {
                            "endTime" : 3982,
                            "time" : 3952,
                            "value" : 2.5439982822715,
                            "duration" : 30
                          },
                          {
                            "endTime" : 4297,
                            "time" : 4263,
                            "value" : 2.54399842552367,
                            "duration" : 34
                          },
                          {
                            "endTime" : 5256,
                            "time" : 5216,
                            "value" : 0.999999543928019,
                            "duration" : 40
                          },
                          {
                            "endTime" : 5301,
                            "time" : 5260,
                            "value" : 1.83827164662978,
                            "duration" : 41
                          },
                          {
                            "endTime" : 5424,
                            "time" : 5394,
                            "value" : 2.9999982078393,
                            "duration" : 30
                          },
                          {
                            "endTime" : 5546,
                            "time" : 5516,
                            "value" : 0.999999402613099,
                            "duration" : 30
                          },
                          {
                            "endTime" : 5613,
                            "time" : 5583,
                            "value" : 2.83915222221324,
                            "duration" : 30
                          },
                          {
                            "endTime" : 5818,
                            "time" : 5788,
                            "value" : 0.99999922572519,
                            "duration" : 30
                          },
                          {
                            "endTime" : 5873,
                            "time" : 5843,
                            "value" : 2.73504203536443,
                            "duration" : 30
                          },
                          {
                            "endTime" : 6030,
                            "time" : 6000,
                            "value" : 0.999999205684257,
                            "duration" : 30
                          },
                          {
                            "endTime" : 6666,
                            "time" : 6636,
                            "value" : 3.54158977915607,
                            "duration" : 30
                          },
                          {
                            "endTime" : 7057,
                            "time" : 7027,
                            "value" : 0.999998899244902,
                            "duration" : 30
                          }
                        ]
                      },
                      "scale1" : {
                        "type" : "double",
                        "defaultValue" : 1.0,
                        "keyframes" : [
                          {
                            "endTime" : 242,
                            "time" : 212,
                            "value" : 4.90967641606111,
                            "duration" : 30
                          },
                          {
                            "endTime" : 332,
                            "time" : 302,
                            "value" : 1.0,
                            "duration" : 30
                          },
                          {
                            "endTime" : 1240,
                            "time" : 1210,
                            "value" : 2.9392594718793,
                            "duration" : 30
                          },
                          {
                            "endTime" : 2029,
                            "time" : 2003,
                            "value" : 2.9392594718793,
                            "duration" : 26
                          },
                          {
                            "endTime" : 2478,
                            "time" : 2448,
                            "value" : 1.0,
                            "duration" : 30
                          },
                          {
                            "endTime" : 3060,
                            "time" : 3030,
                            "value" : 2.54358990281888,
                            "duration" : 30
                          },
                          {
                            "endTime" : 3752,
                            "time" : 3703,
                            "value" : 1.0,
                            "duration" : 49
                          },
                          {
                            "endTime" : 3826,
                            "time" : 3780,
                            "value" : 3.29772753852696,
                            "duration" : 46
                          },
                          {
                            "endTime" : 3943,
                            "time" : 3913,
                            "value" : 1.0,
                            "duration" : 30
                          },
                          {
                            "endTime" : 3982,
                            "time" : 3952,
                            "value" : 2.544,
                            "duration" : 30
                          },
                          {
                            "endTime" : 4297,
                            "time" : 4263,
                            "value" : 2.54399958577061,
                            "duration" : 34
                          },
                          {
                            "endTime" : 5256,
                            "time" : 5216,
                            "value" : 1.0,
                            "duration" : 40
                          },
                          {
                            "endTime" : 5301,
                            "time" : 5260,
                            "value" : 1.83827268333693,
                            "duration" : 41
                          },
                          {
                            "endTime" : 5424,
                            "time" : 5394,
                            "value" : 3.0,
                            "duration" : 30
                          },
                          {
                            "endTime" : 5546,
                            "time" : 5516,
                            "value" : 1.0,
                            "duration" : 30
                          },
                          {
                            "endTime" : 5613,
                            "time" : 5583,
                            "value" : 2.83915442049899,
                            "duration" : 30
                          },
                          {
                            "endTime" : 5818,
                            "time" : 5788,
                            "value" : 1.0,
                            "duration" : 30
                          },
                          {
                            "endTime" : 5873,
                            "time" : 5843,
                            "value" : 2.7350442078531,
                            "duration" : 30
                          },
                          {
                            "endTime" : 6030,
                            "time" : 6000,
                            "value" : 1.0,
                            "duration" : 30
                          },
                          {
                            "endTime" : 6666,
                            "time" : 6636,
                            "value" : 3.54159367758337,
                            "duration" : 30
                          },
                          {
                            "endTime" : 7057,
                            "time" : 7027,
                            "value" : 1.0,
                            "duration" : 30
                          }
                        ]
                      },
                      "cursorOpacity" : 1.0,
                      "cursorScale" : 1.0
                    },
                    "medias" : [
                        {
                          "id" : 290,
                          "_type" : "ScreenVMFile",
                          "src" : 1,
                          "trackNumber" : 0,
                          "attributes" : {
                            "ident" : "handle_hijacking_attack_prevention"
                          },
                          "parameters" : {
                            "cursorScale" : {
                              "type" : "double",
                              "defaultValue" : 0.0,
                              "interp" : "linr"
                            },
                            "cursorOpacity" : {
                              "type" : "double",
                              "defaultValue" : 0.0,
                              "interp" : "linr"
                            }
                          },
                          "effects" : [

                          ],
                          "start" : 0,
                          "duration" : 2383,
                          "mediaStart" : 0,
                          "mediaDuration" : 2383,
                          "scalar" : 1,
                          "metadata" : {
                            "AutoAppliedSmartFocus" : "False",
                            "clipSpeedAttribute" : false,
                            "default-scale0" : 1.0,
                            "default-scale1" : 1.0,
                            "default-translation0" : 0.0,
                            "default-translation1" : 0.0
                          },
                          "animationTracks" : {

                          }
                        },
                        {
                          "id" : 291,
                          "_type" : "ScreenIMFile",
                          "src" : 1,
                          "trackNumber" : 0,
                          "trimStartSum" : 0,
                          "attributes" : {
                            "ident" : "handle_hijacking_attack_prevention"
                          },
                          "parameters" : {
                            "cursorOpacity" : 0.0,
                            "cursorScale" : 0.0
                          },
                          "effects" : [

                          ],
                          "start" : 2383,
                          "duration" : 60,
                          "mediaStart" : 2382,
                          "mediaDuration" : 1,
                          "scalar" : 1,
                          "metadata" : {
                            "AutoAppliedSmartFocus" : "False"
                          },
                          "animationTracks" : {

                          }
                        },
                        {
                          "id" : 292,
                          "_type" : "ScreenVMFile",
                          "src" : 1,
                          "trackNumber" : 0,
                          "attributes" : {
                            "ident" : "handle_hijacking_attack_prevention"
                          },
                          "parameters" : {
                            "cursorScale" : {
                              "type" : "double",
                              "defaultValue" : 0.0,
                              "interp" : "linr"
                            },
                            "cursorOpacity" : {
                              "type" : "double",
                              "defaultValue" : 0.0,
                              "interp" : "linr"
                            }
                          },
                          "effects" : [

                          ],
                          "start" : 2443,
                          "duration" : 2141,
                          "mediaStart" : 2383,
                          "mediaDuration" : 2141,
                          "scalar" : 1,
                          "metadata" : {
                            "AutoAppliedSmartFocus" : "False",
                            "clipSpeedAttribute" : false,
                            "default-scale0" : 1.0,
                            "default-scale1" : 1.0,
                            "default-translation0" : 0.0,
                            "default-translation1" : 0.0
                          },
                          "animationTracks" : {

                          }
                        },
                        {
                          "id" : 293,
                          "_type" : "ScreenIMFile",
                          "src" : 1,
                          "trackNumber" : 0,
                          "trimStartSum" : 0,
                          "attributes" : {
                            "ident" : "handle_hijacking_attack_prevention"
                          },
                          "parameters" : {
                            "cursorOpacity" : 0.0,
                            "cursorScale" : 0.0
                          },
                          "effects" : [

                          ],
                          "start" : 4584,
                          "duration" : 60,
                          "mediaStart" : 4524,
                          "mediaDuration" : 1,
                          "scalar" : 1,
                          "metadata" : {
                            "AutoAppliedSmartFocus" : "False"
                          },
                          "animationTracks" : {

                          }
                        },
                        {
                          "id" : 294,
                          "_type" : "ScreenVMFile",
                          "src" : 1,
                          "trackNumber" : 0,
                          "attributes" : {
                            "ident" : "handle_hijacking_attack_prevention"
                          },
                          "parameters" : {
                            "cursorScale" : {
                              "type" : "double",
                              "defaultValue" : 0.0,
                              "interp" : "linr"
                            },
                            "cursorOpacity" : {
                              "type" : "double",
                              "defaultValue" : 0.0,
                              "interp" : "linr"
                            }
                          },
                          "effects" : [

                          ],
                          "start" : 4644,
                          "duration" : 233,
                          "mediaStart" : 4524,
                          "mediaDuration" : 233,
                          "scalar" : 1,
                          "metadata" : {
                            "AutoAppliedSmartFocus" : "False",
                            "clipSpeedAttribute" : false,
                            "default-scale0" : 1.0,
                            "default-scale1" : 1.0,
                            "default-translation0" : 0.0,
                            "default-translation1" : 0.0
                          },
                          "animationTracks" : {

                          }
                        },
                        {
                          "id" : 295,
                          "_type" : "ScreenVMFile",
                          "src" : 1,
                          "trackNumber" : 0,
                          "attributes" : {
                            "ident" : "handle_hijacking_attack_prevention"
                          },
                          "parameters" : {
                            "cursorScale" : {
                              "type" : "double",
                              "defaultValue" : 0.0,
                              "interp" : "linr"
                            },
                            "cursorOpacity" : {
                              "type" : "double",
                              "defaultValue" : 0.0,
                              "interp" : "linr"
                            }
                          },
                          "effects" : [

                          ],
                          "start" : 4877,
                          "duration" : 581,
                          "mediaStart" : 4807,
                          "mediaDuration" : 581,
                          "scalar" : 1,
                          "metadata" : {
                            "AutoAppliedSmartFocus" : "False",
                            "clipSpeedAttribute" : false,
                            "default-scale0" : 1.0,
                            "default-scale1" : 1.0,
                            "default-translation0" : 0.0,
                            "default-translation1" : 0.0
                          },
                          "animationTracks" : {

                          }
                        },
                        {
                          "id" : 296,
                          "_type" : "ScreenIMFile",
                          "src" : 1,
                          "trackNumber" : 0,
                          "trimStartSum" : 0,
                          "attributes" : {
                            "ident" : "handle_hijacking_attack_prevention"
                          },
                          "parameters" : {
                            "cursorOpacity" : 0.0,
                            "cursorScale" : 0.0
                          },
                          "effects" : [

                          ],
                          "start" : 5458,
                          "duration" : 60,
                          "mediaStart" : 5388,
                          "mediaDuration" : 1,
                          "scalar" : 1,
                          "metadata" : {
                            "AutoAppliedSmartFocus" : "False"
                          },
                          "animationTracks" : {

                          }
                        },
                        {
                          "id" : 297,
                          "_type" : "ScreenVMFile",
                          "src" : 1,
                          "trackNumber" : 0,
                          "attributes" : {
                            "ident" : "handle_hijacking_attack_prevention"
                          },
                          "parameters" : {
                            "cursorScale" : {
                              "type" : "double",
                              "defaultValue" : 0.0,
                              "interp" : "linr"
                            },
                            "cursorOpacity" : {
                              "type" : "double",
                              "defaultValue" : 0.0,
                              "interp" : "linr"
                            }
                          },
                          "effects" : [

                          ],
                          "start" : 5518,
                          "duration" : 265,
                          "mediaStart" : 5388,
                          "mediaDuration" : 265,
                          "scalar" : 1,
                          "metadata" : {
                            "AutoAppliedSmartFocus" : "False",
                            "clipSpeedAttribute" : false,
                            "default-scale0" : 1.0,
                            "default-scale1" : 1.0,
                            "default-translation0" : 0.0,
                            "default-translation1" : 0.0
                          },
                          "animationTracks" : {

                          }
                        },
                        {
                          "id" : 298,
                          "_type" : "ScreenIMFile",
                          "src" : 1,
                          "trackNumber" : 0,
                          "trimStartSum" : 0,
                          "attributes" : {
                            "ident" : "handle_hijacking_attack_prevention"
                          },
                          "parameters" : {
                            "cursorOpacity" : 0.0,
                            "cursorScale" : 0.0
                          },
                          "effects" : [

                          ],
                          "start" : 5783,
                          "duration" : 60,
                          "mediaStart" : 5653,
                          "mediaDuration" : 1,
                          "scalar" : 1,
                          "metadata" : {
                            "AutoAppliedSmartFocus" : "False"
                          },
                          "animationTracks" : {

                          }
                        },
                        {
                          "id" : 299,
                          "_type" : "ScreenVMFile",
                          "src" : 1,
                          "trackNumber" : 0,
                          "attributes" : {
                            "ident" : "handle_hijacking_attack_prevention"
                          },
                          "parameters" : {
                            "cursorScale" : {
                              "type" : "double",
                              "defaultValue" : 0.0,
                              "interp" : "linr"
                            },
                            "cursorOpacity" : {
                              "type" : "double",
                              "defaultValue" : 0.0,
                              "interp" : "linr"
                            }
                          },
                          "effects" : [

                          ],
                          "start" : 5843,
                          "duration" : 857,
                          "mediaStart" : 5653,
                          "mediaDuration" : 857,
                          "scalar" : 1,
                          "metadata" : {
                            "AutoAppliedSmartFocus" : "False",
                            "clipSpeedAttribute" : false,
                            "default-scale0" : 1.0,
                            "default-scale1" : 1.0,
                            "default-translation0" : 0.0,
                            "default-translation1" : 0.0
                          },
                          "animationTracks" : {

                          }
                        },
                        {
                          "id" : 300,
                          "_type" : "ScreenIMFile",
                          "src" : 1,
                          "trackNumber" : 0,
                          "trimStartSum" : 0,
                          "attributes" : {
                            "ident" : "handle_hijacking_attack_prevention"
                          },
                          "parameters" : {
                            "cursorOpacity" : 0.0,
                            "cursorScale" : 0.0
                          },
                          "effects" : [

                          ],
                          "start" : 6700,
                          "duration" : 270,
                          "mediaStart" : 6510,
                          "mediaDuration" : 1,
                          "scalar" : 1,
                          "metadata" : {
                            "AutoAppliedSmartFocus" : "False"
                          },
                          "animationTracks" : {

                          }
                        },
                        {
                          "id" : 301,
                          "_type" : "ScreenVMFile",
                          "src" : 1,
                          "trackNumber" : 0,
                          "attributes" : {
                            "ident" : "handle_hijacking_attack_prevention"
                          },
                          "parameters" : {
                            "cursorScale" : {
                              "type" : "double",
                              "defaultValue" : 0.0,
                              "interp" : "linr"
                            },
                            "cursorOpacity" : {
                              "type" : "double",
                              "defaultValue" : 0.0,
                              "interp" : "linr"
                            }
                          },
                          "effects" : [

                          ],
                          "start" : 6970,
                          "duration" : 165,
                          "mediaStart" : 6510,
                          "mediaDuration" : 165,
                          "scalar" : 1,
                          "metadata" : {
                            "AutoAppliedSmartFocus" : "False",
                            "clipSpeedAttribute" : false,
                            "default-scale0" : 1.0,
                            "default-scale1" : 1.0,
                            "default-translation0" : 0.0,
                            "default-translation1" : 0.0
                          },
                          "animationTracks" : {

                          }
                        },
                        {
                          "id" : 302,
                          "_type" : "ScreenIMFile",
                          "src" : 1,
                          "trackNumber" : 0,
                          "trimStartSum" : 0,
                          "attributes" : {
                            "ident" : "handle_hijacking_attack_prevention"
                          },
                          "parameters" : {
                            "cursorOpacity" : 0.0,
                            "cursorScale" : 0.0
                          },
                          "effects" : [

                          ],
                          "start" : 7135,
                          "duration" : 120,
                          "mediaStart" : 6675,
                          "mediaDuration" : 1,
                          "scalar" : 1,
                          "metadata" : {
                            "AutoAppliedSmartFocus" : "False"
                          },
                          "animationTracks" : {

                          }
                        },
                        {
                          "id" : 303,
                          "_type" : "ScreenVMFile",
                          "src" : 1,
                          "trackNumber" : 0,
                          "attributes" : {
                            "ident" : "handle_hijacking_attack_prevention"
                          },
                          "parameters" : {
                            "cursorScale" : {
                              "type" : "double",
                              "defaultValue" : 0.0,
                              "interp" : "linr"
                            },
                            "cursorOpacity" : {
                              "type" : "double",
                              "defaultValue" : 0.0,
                              "interp" : "linr"
                            }
                          },
                          "effects" : [

                          ],
                          "start" : 7255,
                          "duration" : 194,
                          "mediaStart" : 6675,
                          "mediaDuration" : 194,
                          "scalar" : 1,
                          "metadata" : {
                            "AutoAppliedSmartFocus" : "False",
                            "clipSpeedAttribute" : false,
                            "default-scale0" : 1.0,
                            "default-scale1" : 1.0,
                            "default-translation0" : 0.0,
                            "default-translation1" : 0.0
                          },
                          "animationTracks" : {

                          }
                        }
                    ],
                    "effects" : [
                        {
                          "effectName" : "CursorHilight",
                          "category" : "categoryCursorEffects",
                          "parameters" : {
                            "blur" : 0.1,
                            "color-alpha" : 0.75,
                            "color-blue" : 0.0,
                            "color-green" : 1.0,
                            "color-red" : 1.0,
                            "radius" : 50.0
                          }
                        }
                    ],
                    "start" : 4115,
                    "duration" : 335,
                    "mediaStart" : 6636,
                    "mediaDuration" : 335,
                    "scalar" : 1,
                    "metadata" : {
                      "AutoAppliedSmartFocus" : "False",
                      "clipSpeedAttribute" : false
                    },
                    "animationTracks" : {
                      "visual" : [
                        {
                          "endTime" : 242,
                          "duration" : 30,
                          "range" : [ 212, 30]
                        },
                        {
                          "endTime" : 332,
                          "duration" : 30,
                          "range" : [ 302, 30]
                        },
                        {
                          "endTime" : 1240,
                          "duration" : 30,
                          "range" : [ 1210, 30]
                        },
                        {
                          "endTime" : 1493,
                          "duration" : 30,
                          "range" : [ 1463, 30]
                        },
                        {
                          "endTime" : 2029,
                          "duration" : 26,
                          "range" : [ 2003, 26]
                        },
                        {
                          "endTime" : 2478,
                          "duration" : 30,
                          "range" : [ 2448, 30]
                        },
                        {
                          "endTime" : 3060,
                          "duration" : 30,
                          "range" : [ 3030, 30]
                        },
                        {
                          "endTime" : 3378,
                          "duration" : 30,
                          "range" : [ 3348, 30]
                        },
                        {
                          "endTime" : 3752,
                          "duration" : 49,
                          "range" : [ 3703, 49]
                        },
                        {
                          "endTime" : 3826,
                          "duration" : 46,
                          "range" : [ 3780, 46]
                        },
                        {
                          "endTime" : 3943,
                          "duration" : 30,
                          "range" : [ 3913, 30]
                        },
                        {
                          "endTime" : 3982,
                          "duration" : 30,
                          "range" : [ 3952, 30]
                        },
                        {
                          "endTime" : 4297,
                          "duration" : 34,
                          "range" : [ 4263, 34]
                        },
                        {
                          "endTime" : 5256,
                          "duration" : 40,
                          "range" : [ 5216, 40]
                        },
                        {
                          "endTime" : 5301,
                          "duration" : 41,
                          "range" : [ 5260, 41]
                        },
                        {
                          "endTime" : 5424,
                          "duration" : 30,
                          "range" : [ 5394, 30]
                        },
                        {
                          "endTime" : 5546,
                          "duration" : 30,
                          "range" : [ 5516, 30]
                        },
                        {
                          "endTime" : 5613,
                          "duration" : 30,
                          "range" : [ 5583, 30]
                        },
                        {
                          "endTime" : 5818,
                          "duration" : 30,
                          "range" : [ 5788, 30]
                        },
                        {
                          "endTime" : 5873,
                          "duration" : 30,
                          "range" : [ 5843, 30]
                        },
                        {
                          "endTime" : 6030,
                          "duration" : 30,
                          "range" : [ 6000, 30]
                        },
                        {
                          "endTime" : 6666,
                          "duration" : 30,
                          "range" : [ 6636, 30]
                        },
                        {
                          "endTime" : 7057,
                          "duration" : 30,
                          "range" : [ 7027, 30]
                        }
                      ]
                    }
                  },
                  {
                    "id" : 304,
                    "_type" : "StitchedMedia",
                    "minMediaStart" : 0,
                    "attributes" : {
                      "ident" : "handle_hijacking_attack_prevention",
                      "gain" : 1.0,
                      "mixToMono" : false
                    },
                    "parameters" : {
                      "translation0" : {
                        "type" : "double",
                        "defaultValue" : 0.0,
                        "keyframes" : [
                          {
                            "endTime" : 242,
                            "time" : 212,
                            "value" : 4445.6304568441,
                            "duration" : 30
                          },
                          {
                            "endTime" : 332,
                            "time" : 302,
                            "value" : -7.95807864051312e-13,
                            "duration" : 30
                          },
                          {
                            "endTime" : 1240,
                            "time" : 1210,
                            "value" : 1813.23805555168,
                            "duration" : 30
                          },
                          {
                            "endTime" : 1493,
                            "time" : 1463,
                            "value" : 1769.1,
                            "duration" : 30
                          },
                          {
                            "endTime" : 2029,
                            "time" : 2003,
                            "value" : 1769.08221838715,
                            "duration" : 26
                          },
                          {
                            "endTime" : 2478,
                            "time" : 2448,
                            "value" : -1.13686837721616e-13,
                            "duration" : 30
                          },
                          {
                            "endTime" : 3060,
                            "time" : 3030,
                            "value" : -927.066246510699,
                            "duration" : 30
                          },
                          {
                            "endTime" : 3378,
                            "time" : 3348,
                            "value" : -927.1,
                            "duration" : 30
                          },
                          {
                            "endTime" : 3752,
                            "time" : 3703,
                            "value" : 1.13686837721616e-13,
                            "duration" : 49
                          },
                          {
                            "endTime" : 3826,
                            "time" : 3780,
                            "value" : 2190.48664188307,
                            "duration" : 46
                          },
                          {
                            "endTime" : 3943,
                            "time" : 3913,
                            "value" : 2.27373675443232e-13,
                            "duration" : 30
                          },
                          {
                            "endTime" : 3982,
                            "time" : 3952,
                            "value" : -927.1,
                            "duration" : 30
                          },
                          {
                            "endTime" : 4297,
                            "time" : 4263,
                            "value" : -927.1,
                            "duration" : 34
                          },
                          {
                            "endTime" : 5256,
                            "time" : 5216,
                            "value" : 5.6843418860808e-14,
                            "duration" : 40
                          },
                          {
                            "endTime" : 5301,
                            "time" : 5260,
                            "value" : 680.367023205802,
                            "duration" : 41
                          },
                          {
                            "endTime" : 5424,
                            "time" : 5394,
                            "value" : 1794.65403755581,
                            "duration" : 30
                          },
                          {
                            "endTime" : 5546,
                            "time" : 5516,
                            "value" : -3.41060513164848e-13,
                            "duration" : 30
                          },
                          {
                            "endTime" : 5613,
                            "time" : 5583,
                            "value" : -877.024502523768,
                            "duration" : 30
                          },
                          {
                            "endTime" : 5818,
                            "time" : 5788,
                            "value" : 1.70530256582424e-13,
                            "duration" : 30
                          },
                          {
                            "endTime" : 5873,
                            "time" : 5843,
                            "value" : 1572.46260600652,
                            "duration" : 30
                          },
                          {
                            "endTime" : 6030,
                            "time" : 6000,
                            "value" : 2.27373675443232e-13,
                            "duration" : 30
                          },
                          {
                            "endTime" : 6666,
                            "time" : 6636,
                            "value" : 2537.51151187118,
                            "duration" : 30
                          },
                          {
                            "endTime" : 6787,
                            "time" : 6757,
                            "value" : -3.41060513164848e-13,
                            "duration" : 30
                          }
                        ]
                      },
                      "translation1" : {
                        "type" : "double",
                        "defaultValue" : 0.0,
                        "keyframes" : [
                          {
                            "endTime" : 242,
                            "time" : 212,
                            "value" : -2101.5592739797,
                            "duration" : 30
                          },
                          {
                            "endTime" : 332,
                            "time" : 302,
                            "value" : 4.54747350886464e-13,
                            "duration" : 30
                          },
                          {
                            "endTime" : 1240,
                            "time" : 1210,
                            "value" : 0.0,
                            "duration" : 30
                          },
                          {
                            "endTime" : 1493,
                            "time" : 1463,
                            "value" : 764.586721975313,
                            "duration" : 30
                          },
                          {
                            "endTime" : 2029,
                            "time" : 2003,
                            "value" : 955.733402469141,
                            "duration" : 26
                          },
                          {
                            "endTime" : 2478,
                            "time" : 2448,
                            "value" : -5.6843418860808e-14,
                            "duration" : 30
                          },
                          {
                            "endTime" : 3060,
                            "time" : 3030,
                            "value" : 51.6923109282546,
                            "duration" : 30
                          },
                          {
                            "endTime" : 3378,
                            "time" : 3348,
                            "value" : 793.192387394355,
                            "duration" : 30
                          },
                          {
                            "endTime" : 3752,
                            "time" : 3703,
                            "value" : 0.0,
                            "duration" : 49
                          },
                          {
                            "endTime" : 3826,
                            "time" : 3780,
                            "value" : 525.407539085336,
                            "duration" : 46
                          },
                          {
                            "endTime" : 3943,
                            "time" : 3913,
                            "value" : -8.5265128291212e-14,
                            "duration" : 30
                          },
                          {
                            "endTime" : 3982,
                            "time" : 3952,
                            "value" : 693.2,
                            "duration" : 30
                          },
                          {
                            "endTime" : 4297,
                            "time" : 4263,
                            "value" : 796.601448181272,
                            "duration" : 34
                          },
                          {
                            "endTime" : 5256,
                            "time" : 5216,
                            "value" : 0.0,
                            "duration" : 40
                          },
                          {
                            "endTime" : 5301,
                            "time" : 5260,
                            "value" : 382.706644741061,
                            "duration" : 41
                          },
                          {
                            "endTime" : 5424,
                            "time" : 5394,
                            "value" : 175.346948293544,
                            "duration" : 30
                          },
                          {
                            "endTime" : 5546,
                            "time" : 5516,
                            "value" : -1.27897692436818e-13,
                            "duration" : 30
                          },
                          {
                            "endTime" : 5613,
                            "time" : 5583,
                            "value" : 908.758378625847,
                            "duration" : 30
                          },
                          {
                            "endTime" : 5818,
                            "time" : 5788,
                            "value" : -2.27373675443232e-13,
                            "duration" : 30
                          },
                          {
                            "endTime" : 5873,
                            "time" : 5843,
                            "value" : 862.287656103343,
                            "duration" : 30
                          },
                          {
                            "endTime" : 6030,
                            "time" : 6000,
                            "value" : -1.13686837721616e-13,
                            "duration" : 30
                          },
                          {
                            "endTime" : 6666,
                            "time" : 6636,
                            "value" : -369.59717380958,
                            "duration" : 30
                          },
                          {
                            "endTime" : 6787,
                            "time" : 6757,
                            "value" : 1.56319401867222e-13,
                            "duration" : 30
                          }
                        ]
                      },
                      "scale0" : {
                        "type" : "double",
                        "defaultValue" : 1.0,
                        "keyframes" : [
                          {
                            "endTime" : 242,
                            "time" : 212,
                            "value" : 4.90967434857952,
                            "duration" : 30
                          },
                          {
                            "endTime" : 332,
                            "time" : 302,
                            "value" : 0.99999957889657,
                            "duration" : 30
                          },
                          {
                            "endTime" : 1240,
                            "time" : 1210,
                            "value" : 2.93925764732581,
                            "duration" : 30
                          },
                          {
                            "endTime" : 1493,
                            "time" : 1463,
                            "value" : 2.93925755430459,
                            "duration" : 30
                          },
                          {
                            "endTime" : 2029,
                            "time" : 2003,
                            "value" : 2.93925746128338,
                            "duration" : 26
                          },
                          {
                            "endTime" : 2478,
                            "time" : 2448,
                            "value" : 0.999999315951539,
                            "duration" : 30
                          },
                          {
                            "endTime" : 3060,
                            "time" : 3030,
                            "value" : 2.54358807927679,
                            "duration" : 30
                          },
                          {
                            "endTime" : 3378,
                            "time" : 3348,
                            "value" : 2.5435882186022,
                            "duration" : 30
                          },
                          {
                            "endTime" : 3752,
                            "time" : 3703,
                            "value" : 0.999999337858405,
                            "duration" : 49
                          },
                          {
                            "endTime" : 3826,
                            "time" : 3780,
                            "value" : 3.2977262743969,
                            "duration" : 46
                          },
                          {
                            "endTime" : 3943,
                            "time" : 3913,
                            "value" : 0.999999616666313,
                            "duration" : 30
                          },
                          {
                            "endTime" : 3982,
                            "time" : 3952,
                            "value" : 2.5439982822715,
                            "duration" : 30
                          },
                          {
                            "endTime" : 4297,
                            "time" : 4263,
                            "value" : 2.54399842552367,
                            "duration" : 34
                          },
                          {
                            "endTime" : 5256,
                            "time" : 5216,
                            "value" : 0.999999543928019,
                            "duration" : 40
                          },
                          {
                            "endTime" : 5301,
                            "time" : 5260,
                            "value" : 1.83827164662978,
                            "duration" : 41
                          },
                          {
                            "endTime" : 5424,
                            "time" : 5394,
                            "value" : 2.9999982078393,
                            "duration" : 30
                          },
                          {
                            "endTime" : 5546,
                            "time" : 5516,
                            "value" : 0.999999402613099,
                            "duration" : 30
                          },
                          {
                            "endTime" : 5613,
                            "time" : 5583,
                            "value" : 2.83915222221324,
                            "duration" : 30
                          },
                          {
                            "endTime" : 5818,
                            "time" : 5788,
                            "value" : 0.99999922572519,
                            "duration" : 30
                          },
                          {
                            "endTime" : 5873,
                            "time" : 5843,
                            "value" : 2.73504203536443,
                            "duration" : 30
                          },
                          {
                            "endTime" : 6030,
                            "time" : 6000,
                            "value" : 0.999999205684257,
                            "duration" : 30
                          },
                          {
                            "endTime" : 6666,
                            "time" : 6636,
                            "value" : 3.54158977915607,
                            "duration" : 30
                          },
                          {
                            "endTime" : 6787,
                            "time" : 6757,
                            "value" : 0.999998899244902,
                            "duration" : 30
                          }
                        ]
                      },
                      "scale1" : {
                        "type" : "double",
                        "defaultValue" : 1.0,
                        "keyframes" : [
                          {
                            "endTime" : 242,
                            "time" : 212,
                            "value" : 4.90967641606111,
                            "duration" : 30
                          },
                          {
                            "endTime" : 332,
                            "time" : 302,
                            "value" : 1.0,
                            "duration" : 30
                          },
                          {
                            "endTime" : 1240,
                            "time" : 1210,
                            "value" : 2.9392594718793,
                            "duration" : 30
                          },
                          {
                            "endTime" : 2029,
                            "time" : 2003,
                            "value" : 2.9392594718793,
                            "duration" : 26
                          },
                          {
                            "endTime" : 2478,
                            "time" : 2448,
                            "value" : 1.0,
                            "duration" : 30
                          },
                          {
                            "endTime" : 3060,
                            "time" : 3030,
                            "value" : 2.54358990281888,
                            "duration" : 30
                          },
                          {
                            "endTime" : 3752,
                            "time" : 3703,
                            "value" : 1.0,
                            "duration" : 49
                          },
                          {
                            "endTime" : 3826,
                            "time" : 3780,
                            "value" : 3.29772753852696,
                            "duration" : 46
                          },
                          {
                            "endTime" : 3943,
                            "time" : 3913,
                            "value" : 1.0,
                            "duration" : 30
                          },
                          {
                            "endTime" : 3982,
                            "time" : 3952,
                            "value" : 2.544,
                            "duration" : 30
                          },
                          {
                            "endTime" : 4297,
                            "time" : 4263,
                            "value" : 2.54399958577061,
                            "duration" : 34
                          },
                          {
                            "endTime" : 5256,
                            "time" : 5216,
                            "value" : 1.0,
                            "duration" : 40
                          },
                          {
                            "endTime" : 5301,
                            "time" : 5260,
                            "value" : 1.83827268333693,
                            "duration" : 41
                          },
                          {
                            "endTime" : 5424,
                            "time" : 5394,
                            "value" : 3.0,
                            "duration" : 30
                          },
                          {
                            "endTime" : 5546,
                            "time" : 5516,
                            "value" : 1.0,
                            "duration" : 30
                          },
                          {
                            "endTime" : 5613,
                            "time" : 5583,
                            "value" : 2.83915442049899,
                            "duration" : 30
                          },
                          {
                            "endTime" : 5818,
                            "time" : 5788,
                            "value" : 1.0,
                            "duration" : 30
                          },
                          {
                            "endTime" : 5873,
                            "time" : 5843,
                            "value" : 2.7350442078531,
                            "duration" : 30
                          },
                          {
                            "endTime" : 6030,
                            "time" : 6000,
                            "value" : 1.0,
                            "duration" : 30
                          },
                          {
                            "endTime" : 6666,
                            "time" : 6636,
                            "value" : 3.54159367758337,
                            "duration" : 30
                          },
                          {
                            "endTime" : 6787,
                            "time" : 6757,
                            "value" : 1.0,
                            "duration" : 30
                          }
                        ]
                      },
                      "cursorOpacity" : 1.0,
                      "cursorScale" : 1.0
                    },
                    "medias" : [
                        {
                          "id" : 305,
                          "_type" : "ScreenVMFile",
                          "src" : 1,
                          "trackNumber" : 0,
                          "attributes" : {
                            "ident" : "handle_hijacking_attack_prevention"
                          },
                          "parameters" : {
                            "cursorScale" : {
                              "type" : "double",
                              "defaultValue" : 0.0,
                              "interp" : "linr"
                            },
                            "cursorOpacity" : {
                              "type" : "double",
                              "defaultValue" : 0.0,
                              "interp" : "linr"
                            }
                          },
                          "effects" : [

                          ],
                          "start" : 0,
                          "duration" : 2383,
                          "mediaStart" : 0,
                          "mediaDuration" : 2383,
                          "scalar" : 1,
                          "metadata" : {
                            "AutoAppliedSmartFocus" : "False",
                            "clipSpeedAttribute" : false,
                            "default-scale0" : 1.0,
                            "default-scale1" : 1.0,
                            "default-translation0" : 0.0,
                            "default-translation1" : 0.0
                          },
                          "animationTracks" : {

                          }
                        },
                        {
                          "id" : 306,
                          "_type" : "ScreenIMFile",
                          "src" : 1,
                          "trackNumber" : 0,
                          "trimStartSum" : 0,
                          "attributes" : {
                            "ident" : "handle_hijacking_attack_prevention"
                          },
                          "parameters" : {
                            "cursorOpacity" : 0.0,
                            "cursorScale" : 0.0
                          },
                          "effects" : [

                          ],
                          "start" : 2383,
                          "duration" : 60,
                          "mediaStart" : 2382,
                          "mediaDuration" : 1,
                          "scalar" : 1,
                          "metadata" : {
                            "AutoAppliedSmartFocus" : "False"
                          },
                          "animationTracks" : {

                          }
                        },
                        {
                          "id" : 307,
                          "_type" : "ScreenVMFile",
                          "src" : 1,
                          "trackNumber" : 0,
                          "attributes" : {
                            "ident" : "handle_hijacking_attack_prevention"
                          },
                          "parameters" : {
                            "cursorScale" : {
                              "type" : "double",
                              "defaultValue" : 0.0,
                              "interp" : "linr"
                            },
                            "cursorOpacity" : {
                              "type" : "double",
                              "defaultValue" : 0.0,
                              "interp" : "linr"
                            }
                          },
                          "effects" : [

                          ],
                          "start" : 2443,
                          "duration" : 2141,
                          "mediaStart" : 2383,
                          "mediaDuration" : 2141,
                          "scalar" : 1,
                          "metadata" : {
                            "AutoAppliedSmartFocus" : "False",
                            "clipSpeedAttribute" : false,
                            "default-scale0" : 1.0,
                            "default-scale1" : 1.0,
                            "default-translation0" : 0.0,
                            "default-translation1" : 0.0
                          },
                          "animationTracks" : {

                          }
                        },
                        {
                          "id" : 308,
                          "_type" : "ScreenIMFile",
                          "src" : 1,
                          "trackNumber" : 0,
                          "trimStartSum" : 0,
                          "attributes" : {
                            "ident" : "handle_hijacking_attack_prevention"
                          },
                          "parameters" : {
                            "cursorOpacity" : 0.0,
                            "cursorScale" : 0.0
                          },
                          "effects" : [

                          ],
                          "start" : 4584,
                          "duration" : 60,
                          "mediaStart" : 4524,
                          "mediaDuration" : 1,
                          "scalar" : 1,
                          "metadata" : {
                            "AutoAppliedSmartFocus" : "False"
                          },
                          "animationTracks" : {

                          }
                        },
                        {
                          "id" : 309,
                          "_type" : "ScreenVMFile",
                          "src" : 1,
                          "trackNumber" : 0,
                          "attributes" : {
                            "ident" : "handle_hijacking_attack_prevention"
                          },
                          "parameters" : {
                            "cursorScale" : {
                              "type" : "double",
                              "defaultValue" : 0.0,
                              "interp" : "linr"
                            },
                            "cursorOpacity" : {
                              "type" : "double",
                              "defaultValue" : 0.0,
                              "interp" : "linr"
                            }
                          },
                          "effects" : [

                          ],
                          "start" : 4644,
                          "duration" : 233,
                          "mediaStart" : 4524,
                          "mediaDuration" : 233,
                          "scalar" : 1,
                          "metadata" : {
                            "AutoAppliedSmartFocus" : "False",
                            "clipSpeedAttribute" : false,
                            "default-scale0" : 1.0,
                            "default-scale1" : 1.0,
                            "default-translation0" : 0.0,
                            "default-translation1" : 0.0
                          },
                          "animationTracks" : {

                          }
                        },
                        {
                          "id" : 310,
                          "_type" : "ScreenVMFile",
                          "src" : 1,
                          "trackNumber" : 0,
                          "attributes" : {
                            "ident" : "handle_hijacking_attack_prevention"
                          },
                          "parameters" : {
                            "cursorScale" : {
                              "type" : "double",
                              "defaultValue" : 0.0,
                              "interp" : "linr"
                            },
                            "cursorOpacity" : {
                              "type" : "double",
                              "defaultValue" : 0.0,
                              "interp" : "linr"
                            }
                          },
                          "effects" : [

                          ],
                          "start" : 4877,
                          "duration" : 581,
                          "mediaStart" : 4807,
                          "mediaDuration" : 581,
                          "scalar" : 1,
                          "metadata" : {
                            "AutoAppliedSmartFocus" : "False",
                            "clipSpeedAttribute" : false,
                            "default-scale0" : 1.0,
                            "default-scale1" : 1.0,
                            "default-translation0" : 0.0,
                            "default-translation1" : 0.0
                          },
                          "animationTracks" : {

                          }
                        },
                        {
                          "id" : 311,
                          "_type" : "ScreenIMFile",
                          "src" : 1,
                          "trackNumber" : 0,
                          "trimStartSum" : 0,
                          "attributes" : {
                            "ident" : "handle_hijacking_attack_prevention"
                          },
                          "parameters" : {
                            "cursorOpacity" : 0.0,
                            "cursorScale" : 0.0
                          },
                          "effects" : [

                          ],
                          "start" : 5458,
                          "duration" : 60,
                          "mediaStart" : 5388,
                          "mediaDuration" : 1,
                          "scalar" : 1,
                          "metadata" : {
                            "AutoAppliedSmartFocus" : "False"
                          },
                          "animationTracks" : {

                          }
                        },
                        {
                          "id" : 312,
                          "_type" : "ScreenVMFile",
                          "src" : 1,
                          "trackNumber" : 0,
                          "attributes" : {
                            "ident" : "handle_hijacking_attack_prevention"
                          },
                          "parameters" : {
                            "cursorScale" : {
                              "type" : "double",
                              "defaultValue" : 0.0,
                              "interp" : "linr"
                            },
                            "cursorOpacity" : {
                              "type" : "double",
                              "defaultValue" : 0.0,
                              "interp" : "linr"
                            }
                          },
                          "effects" : [

                          ],
                          "start" : 5518,
                          "duration" : 265,
                          "mediaStart" : 5388,
                          "mediaDuration" : 265,
                          "scalar" : 1,
                          "metadata" : {
                            "AutoAppliedSmartFocus" : "False",
                            "clipSpeedAttribute" : false,
                            "default-scale0" : 1.0,
                            "default-scale1" : 1.0,
                            "default-translation0" : 0.0,
                            "default-translation1" : 0.0
                          },
                          "animationTracks" : {

                          }
                        },
                        {
                          "id" : 313,
                          "_type" : "ScreenIMFile",
                          "src" : 1,
                          "trackNumber" : 0,
                          "trimStartSum" : 0,
                          "attributes" : {
                            "ident" : "handle_hijacking_attack_prevention"
                          },
                          "parameters" : {
                            "cursorOpacity" : 0.0,
                            "cursorScale" : 0.0
                          },
                          "effects" : [

                          ],
                          "start" : 5783,
                          "duration" : 60,
                          "mediaStart" : 5653,
                          "mediaDuration" : 1,
                          "scalar" : 1,
                          "metadata" : {
                            "AutoAppliedSmartFocus" : "False"
                          },
                          "animationTracks" : {

                          }
                        },
                        {
                          "id" : 314,
                          "_type" : "ScreenVMFile",
                          "src" : 1,
                          "trackNumber" : 0,
                          "attributes" : {
                            "ident" : "handle_hijacking_attack_prevention"
                          },
                          "parameters" : {
                            "cursorScale" : {
                              "type" : "double",
                              "defaultValue" : 0.0,
                              "interp" : "linr"
                            },
                            "cursorOpacity" : {
                              "type" : "double",
                              "defaultValue" : 0.0,
                              "interp" : "linr"
                            }
                          },
                          "effects" : [

                          ],
                          "start" : 5843,
                          "duration" : 1022,
                          "mediaStart" : 5653,
                          "mediaDuration" : 1022,
                          "scalar" : 1,
                          "metadata" : {
                            "AutoAppliedSmartFocus" : "False",
                            "clipSpeedAttribute" : false,
                            "default-scale0" : 1.0,
                            "default-scale1" : 1.0,
                            "default-translation0" : 0.0,
                            "default-translation1" : 0.0
                          },
                          "animationTracks" : {

                          }
                        },
                        {
                          "id" : 315,
                          "_type" : "ScreenIMFile",
                          "src" : 1,
                          "trackNumber" : 0,
                          "trimStartSum" : 0,
                          "attributes" : {
                            "ident" : "handle_hijacking_attack_prevention"
                          },
                          "parameters" : {
                            "cursorOpacity" : 0.0,
                            "cursorScale" : 0.0
                          },
                          "effects" : [

                          ],
                          "start" : 6865,
                          "duration" : 120,
                          "mediaStart" : 6675,
                          "mediaDuration" : 1,
                          "scalar" : 1,
                          "metadata" : {
                            "AutoAppliedSmartFocus" : "False"
                          },
                          "animationTracks" : {

                          }
                        },
                        {
                          "id" : 316,
                          "_type" : "ScreenVMFile",
                          "src" : 1,
                          "trackNumber" : 0,
                          "attributes" : {
                            "ident" : "handle_hijacking_attack_prevention"
                          },
                          "parameters" : {
                            "cursorScale" : {
                              "type" : "double",
                              "defaultValue" : 0.0,
                              "interp" : "linr"
                            },
                            "cursorOpacity" : {
                              "type" : "double",
                              "defaultValue" : 0.0,
                              "interp" : "linr"
                            }
                          },
                          "effects" : [

                          ],
                          "start" : 6985,
                          "duration" : 194,
                          "mediaStart" : 6675,
                          "mediaDuration" : 194,
                          "scalar" : 1,
                          "metadata" : {
                            "AutoAppliedSmartFocus" : "False",
                            "clipSpeedAttribute" : false,
                            "default-scale0" : 1.0,
                            "default-scale1" : 1.0,
                            "default-translation0" : 0.0,
                            "default-translation1" : 0.0
                          },
                          "animationTracks" : {

                          }
                        }
                    ],
                    "effects" : [

                    ],
                    "start" : 4450,
                    "duration" : 235,
                    "mediaStart" : 6707,
                    "mediaDuration" : 235,
                    "scalar" : 1,
                    "metadata" : {
                      "AutoAppliedSmartFocus" : "False",
                      "clipSpeedAttribute" : false
                    },
                    "animationTracks" : {
                      "visual" : [
                        {
                          "endTime" : 242,
                          "duration" : 30,
                          "range" : [ 212, 30]
                        },
                        {
                          "endTime" : 332,
                          "duration" : 30,
                          "range" : [ 302, 30]
                        },
                        {
                          "endTime" : 1240,
                          "duration" : 30,
                          "range" : [ 1210, 30]
                        },
                        {
                          "endTime" : 1493,
                          "duration" : 30,
                          "range" : [ 1463, 30]
                        },
                        {
                          "endTime" : 2029,
                          "duration" : 26,
                          "range" : [ 2003, 26]
                        },
                        {
                          "endTime" : 2478,
                          "duration" : 30,
                          "range" : [ 2448, 30]
                        },
                        {
                          "endTime" : 3060,
                          "duration" : 30,
                          "range" : [ 3030, 30]
                        },
                        {
                          "endTime" : 3378,
                          "duration" : 30,
                          "range" : [ 3348, 30]
                        },
                        {
                          "endTime" : 3752,
                          "duration" : 49,
                          "range" : [ 3703, 49]
                        },
                        {
                          "endTime" : 3826,
                          "duration" : 46,
                          "range" : [ 3780, 46]
                        },
                        {
                          "endTime" : 3943,
                          "duration" : 30,
                          "range" : [ 3913, 30]
                        },
                        {
                          "endTime" : 3982,
                          "duration" : 30,
                          "range" : [ 3952, 30]
                        },
                        {
                          "endTime" : 4297,
                          "duration" : 34,
                          "range" : [ 4263, 34]
                        },
                        {
                          "endTime" : 5256,
                          "duration" : 40,
                          "range" : [ 5216, 40]
                        },
                        {
                          "endTime" : 5301,
                          "duration" : 41,
                          "range" : [ 5260, 41]
                        },
                        {
                          "endTime" : 5424,
                          "duration" : 30,
                          "range" : [ 5394, 30]
                        },
                        {
                          "endTime" : 5546,
                          "duration" : 30,
                          "range" : [ 5516, 30]
                        },
                        {
                          "endTime" : 5613,
                          "duration" : 30,
                          "range" : [ 5583, 30]
                        },
                        {
                          "endTime" : 5818,
                          "duration" : 30,
                          "range" : [ 5788, 30]
                        },
                        {
                          "endTime" : 5873,
                          "duration" : 30,
                          "range" : [ 5843, 30]
                        },
                        {
                          "endTime" : 6030,
                          "duration" : 30,
                          "range" : [ 6000, 30]
                        },
                        {
                          "endTime" : 6666,
                          "duration" : 30,
                          "range" : [ 6636, 30]
                        },
                        {
                          "endTime" : 6787,
                          "duration" : 30,
                          "range" : [ 6757, 30]
                        }
                      ]
                    }
                  }
                ]
              },
              {
                "trackIndex" : 3,
                "medias" : [
                  {
                    "id" : 317,
                    "_type" : "Callout",
                    "def" : {
                      "kind" : "remix",
                      "shape" : "text",
                      "style" : "basic",
                      "height" : 367.470588235207,
                      "line-spacing" : 0.0,
                      "width" : 1968.09522058886,
                      "word-wrap" : 1.0,
                      "horizontal-alignment" : "center",
                      "resize-behavior" : "resizeText",
                      "text" : "MemoryRanger prevents hijacking of the  HANDLE_TABLE_ENTRY structure ",
                      "vertical-alignment" : "center",
                      "font" : {
                        "color-blue" : 1.0,
                        "color-green" : 1.0,
                        "color-red" : 1.0,
                        "size" : 96.0,
                        "tracking" : 0.0,
                        "name" : "Montserrat",
                        "weight" : "Regular"
                      },
                      "textAttributes" : {
                        "type" : "textAttributeList",
                        "keyframes" : [
                          {
                            "endTime" : 0,
                            "time" : 0,
                            "value" : [{"name":"fgColor","rangeEnd":69,"rangeStart":0,"value":"(255,255,255,255)","valueType":"color"},{"name":"fontName","rangeEnd":69,"rangeStart":0,"value":"Montserrat","valueType":"string"},{"name":"fontItalic","rangeEnd":69,"rangeStart":0,"value":0,"valueType":"int"},{"name":"underline","rangeEnd":69,"rangeStart":0,"value":0,"valueType":"int"},{"name":"fontWeight","rangeEnd":69,"rangeStart":0,"value":400,"valueType":"int"},{"name":"strikethrough","rangeEnd":69,"rangeStart":0,"value":0,"valueType":"int"},{"name":"fontSize","rangeEnd":69,"rangeStart":0,"value":83,"valueType":"double"}],
                            "duration" : 0
                          }
                        ]
                      }
                    },
                    "attributes" : {
                      "autoRotateText" : true
                    },
                    "parameters" : {
                      "translation0" : 15.1582720584106,
                      "translation1" : -281.908084644927
                    },
                    "effects" : [
                        {
                          "effectName" : "DropShadow",
                          "category" : "categoryVisualEffects",
                          "parameters" : {
                            "angle" : 5.49778714378214,
                            "blur" : 10.0,
                            "color-alpha" : 1.0,
                            "color-blue" : 0.1216,
                            "color-green" : 0.1216,
                            "color-red" : 0.1216,
                            "enabled" : 1,
                            "offset" : 10.0,
                            "opacity" : 0.4
                          }
                        }
                    ],
                    "start" : 0,
                    "duration" : 150,
                    "mediaStart" : 0,
                    "mediaDuration" : 150,
                    "scalar" : 1,
                    "metadata" : {
                      "WinSubProjectDisplayName" : "",
                      "clipSpeedAttribute" : false,
                      "default-HAlign" : "center",
                      "default-LineSpace" : 0.0,
                      "default-VAlign" : "center",
                      "default-text-attributes" : "[{\"name\":\"strikethrough\",\"rangeEnd\":76,\"rangeStart\":0,\"value\":0,\"valueType\":\"int\"},{\"name\":\"fontItalic\",\"rangeEnd\":76,\"rangeStart\":0,\"value\":0,\"valueType\":\"int\"},{\"name\":\"fontName\",\"rangeEnd\":76,\"rangeStart\":0,\"value\":\"Montserrat\",\"valueType\":\"string\"},{\"name\":\"fgColor\",\"rangeEnd\":76,\"rangeStart\":0,\"value\":\"(255,255,255,255)\",\"valueType\":\"color\"},{\"name\":\"fontSize\",\"rangeEnd\":76,\"rangeStart\":0,\"value\":59,\"valueType\":\"double\"},{\"name\":\"underline\",\"rangeEnd\":76,\"rangeStart\":0,\"value\":0,\"valueType\":\"int\"},{\"name\":\"fontWeight\",\"rangeEnd\":76,\"rangeStart\":0,\"value\":400,\"valueType\":\"int\"}]",
                      "default-translation0" : 0.0,
                      "default-translation1" : 0.0
                    },
                    "animationTracks" : {

                    }
                  },
                  {
                    "id" : 318,
                    "_type" : "Callout",
                    "def" : {
                      "kind" : "remix",
                      "shape" : "text-rectangle",
                      "style" : "basic",
                      "fill-color-blue" : 0.270588235294118,
                      "fill-color-green" : 0.243137254901961,
                      "fill-color-opacity" : 1.0,
                      "fill-color-red" : 0.211764705882353,
                      "height" : 141.0588235296,
                      "line-spacing" : 0.0,
                      "stroke-color-blue" : 0.890196078431372,
                      "stroke-color-green" : 0.870588235294118,
                      "stroke-color-opacity" : 1.0,
                      "stroke-color-red" : 0.847058823529412,
                      "stroke-width" : 2.0,
                      "tail-x" : -562.61948529381,
                      "tail-y" : 6.47058823519989,
                      "width" : 1950.0959967321,
                      "word-wrap" : 1.0,
                      "fill-style" : "solid",
                      "horizontal-alignment" : "center",
                      "resize-behavior" : "resizeText",
                      "stroke-style" : "solid",
                      "text" : "Checking the Windows version via calling winver",
                      "vertical-alignment" : "center",
                      "font" : {
                        "color-blue" : 0.266666666666667,
                        "color-green" : 0.231372549019608,
                        "color-opacity" : 1.0,
                        "color-red" : 0.184313725490196,
                        "size" : 64.0,
                        "tracking" : 0.0,
                        "name" : "Montserrat",
                        "weight" : "Regular"
                      },
                      "textAttributes" : {
                        "type" : "textAttributeList",
                        "keyframes" : [
                          {
                            "endTime" : 0,
                            "time" : 0,
                            "value" : [{"name":"fgColor","rangeEnd":47,"rangeStart":0,"value":"(255,255,255,255)","valueType":"color"},{"name":"fontSize","rangeEnd":47,"rangeStart":0,"value":80,"valueType":"double"},{"name":"underline","rangeEnd":47,"rangeStart":0,"value":0,"valueType":"int"},{"name":"kerning","rangeEnd":47,"rangeStart":0,"value":0,"valueType":"double"},{"name":"strikethrough","rangeEnd":47,"rangeStart":0,"value":0,"valueType":"int"},{"name":"fontWeight","rangeEnd":47,"rangeStart":0,"value":400,"valueType":"int"},{"name":"fontItalic","rangeEnd":47,"rangeStart":0,"value":0,"valueType":"int"},{"name":"fontName","rangeEnd":47,"rangeStart":0,"value":"Montserrat","valueType":"string"}],
                            "duration" : 0
                          }
                        ]
                      }
                    },
                    "attributes" : {
                      "autoRotateText" : true
                    },
                    "parameters" : {
                      "translation0" : 70.5882352939358,
                      "translation1" : -549.126838235342
                    },
                    "effects" : [
                        {
                          "effectName" : "DropShadow",
                          "category" : "categoryVisualEffects",
                          "parameters" : {
                            "angle" : 5.49778714378214,
                            "blur" : 10.0,
                            "color-alpha" : 1.0,
                            "color-blue" : 0.1216,
                            "color-green" : 0.1216,
                            "color-red" : 0.1216,
                            "enabled" : 1,
                            "offset" : 10.0,
                            "opacity" : 0.4
                          }
                        }
                    ],
                    "start" : 163,
                    "duration" : 60,
                    "mediaStart" : -24,
                    "mediaDuration" : 60,
                    "scalar" : 1,
                    "metadata" : {
                      "WinSubProjectDisplayName" : "",
                      "clipSpeedAttribute" : false,
                      "default-HAlign" : "center",
                      "default-LineSpace" : 0.0,
                      "default-VAlign" : "center",
                      "default-fill-color-blue" : 1.0,
                      "default-fill-color-green" : 1.0,
                      "default-fill-color-red" : 1.0,
                      "default-scale0" : 1.0,
                      "default-scale1" : 1.0,
                      "default-stroke-color-blue" : 0.56078431372549,
                      "default-stroke-color-green" : 0.686274509803922,
                      "default-stroke-color-red" : 0.0196078431372549,
                      "default-text-attributes" : "[{\"name\":\"fontSize\",\"rangeEnd\":32,\"rangeStart\":0,\"value\":64,\"valueType\":\"double\"},{\"name\":\"fgColor\",\"rangeEnd\":32,\"rangeStart\":0,\"value\":\"(255,255,255,255)\",\"valueType\":\"color\"},{\"name\":\"fontWeight\",\"rangeEnd\":32,\"rangeStart\":0,\"value\":400,\"valueType\":\"int\"},{\"name\":\"fontName\",\"rangeEnd\":32,\"rangeStart\":0,\"value\":\"Montserrat\",\"valueType\":\"string\"},{\"name\":\"fontItalic\",\"rangeEnd\":32,\"rangeStart\":0,\"value\":0,\"valueType\":\"int\"},{\"name\":\"strikethrough\",\"rangeEnd\":32,\"rangeStart\":0,\"value\":0,\"valueType\":\"int\"},{\"name\":\"underline\",\"rangeEnd\":32,\"rangeStart\":0,\"value\":0,\"valueType\":\"int\"}]",
                      "default-translation0" : 0.0,
                      "default-translation1" : 0.0
                    },
                    "animationTracks" : {

                    }
                  },
                  {
                    "id" : 319,
                    "_type" : "Callout",
                    "def" : {
                      "kind" : "remix",
                      "shape" : "text-rectangle",
                      "style" : "basic",
                      "fill-color-blue" : 0.270588235294118,
                      "fill-color-green" : 0.243137254901961,
                      "fill-color-opacity" : 1.0,
                      "fill-color-red" : 0.211764705882353,
                      "height" : 141.0588235296,
                      "line-spacing" : 0.0,
                      "stroke-color-blue" : 0.890196078431372,
                      "stroke-color-green" : 0.870588235294118,
                      "stroke-color-opacity" : 1.0,
                      "stroke-color-red" : 0.847058823529412,
                      "stroke-width" : 2.0,
                      "tail-x" : -562.61948529381,
                      "tail-y" : 6.47058823519989,
                      "width" : 1950.0959967321,
                      "word-wrap" : 1.0,
                      "fill-style" : "solid",
                      "horizontal-alignment" : "center",
                      "resize-behavior" : "resizeText",
                      "stroke-style" : "solid",
                      "text" : "We have the final version 1903",
                      "vertical-alignment" : "center",
                      "font" : {
                        "color-blue" : 0.266666666666667,
                        "color-green" : 0.231372549019608,
                        "color-opacity" : 1.0,
                        "color-red" : 0.184313725490196,
                        "size" : 64.0,
                        "tracking" : 0.0,
                        "name" : "Montserrat",
                        "weight" : "Regular"
                      },
                      "textAttributes" : {
                        "type" : "textAttributeList",
                        "keyframes" : [
                          {
                            "endTime" : 0,
                            "time" : 0,
                            "value" : [{"name":"underline","rangeEnd":30,"rangeStart":0,"value":0,"valueType":"int"},{"name":"fontItalic","rangeEnd":30,"rangeStart":0,"value":0,"valueType":"int"},{"name":"fgColor","rangeEnd":30,"rangeStart":0,"value":"(255,255,255,255)","valueType":"color"},{"name":"kerning","rangeEnd":30,"rangeStart":0,"value":0,"valueType":"double"},{"name":"fontWeight","rangeEnd":30,"rangeStart":0,"value":400,"valueType":"int"},{"name":"strikethrough","rangeEnd":30,"rangeStart":0,"value":0,"valueType":"int"},{"name":"fontName","rangeEnd":30,"rangeStart":0,"value":"Montserrat","valueType":"string"},{"name":"fontSize","rangeEnd":30,"rangeStart":0,"value":80,"valueType":"double"}],
                            "duration" : 0
                          }
                        ]
                      }
                    },
                    "attributes" : {
                      "autoRotateText" : true
                    },
                    "parameters" : {
                      "translation0" : 70.5882352939358,
                      "translation1" : -549.126838235342
                    },
                    "effects" : [
                        {
                          "effectName" : "DropShadow",
                          "category" : "categoryVisualEffects",
                          "parameters" : {
                            "angle" : 5.49778714378214,
                            "blur" : 10.0,
                            "color-alpha" : 1.0,
                            "color-blue" : 0.1216,
                            "color-green" : 0.1216,
                            "color-red" : 0.1216,
                            "enabled" : 1,
                            "offset" : 10.0,
                            "opacity" : 0.4
                          }
                        }
                    ],
                    "start" : 223,
                    "duration" : 60,
                    "mediaStart" : -24,
                    "mediaDuration" : 60,
                    "scalar" : 1,
                    "metadata" : {
                      "WinSubProjectDisplayName" : "",
                      "clipSpeedAttribute" : false,
                      "default-HAlign" : "center",
                      "default-LineSpace" : 0.0,
                      "default-VAlign" : "center",
                      "default-fill-color-blue" : 1.0,
                      "default-fill-color-green" : 1.0,
                      "default-fill-color-red" : 1.0,
                      "default-scale0" : 1.0,
                      "default-scale1" : 1.0,
                      "default-stroke-color-blue" : 0.56078431372549,
                      "default-stroke-color-green" : 0.686274509803922,
                      "default-stroke-color-red" : 0.0196078431372549,
                      "default-text-attributes" : "[{\"name\":\"fontSize\",\"rangeEnd\":32,\"rangeStart\":0,\"value\":64,\"valueType\":\"double\"},{\"name\":\"fgColor\",\"rangeEnd\":32,\"rangeStart\":0,\"value\":\"(255,255,255,255)\",\"valueType\":\"color\"},{\"name\":\"fontWeight\",\"rangeEnd\":32,\"rangeStart\":0,\"value\":400,\"valueType\":\"int\"},{\"name\":\"fontName\",\"rangeEnd\":32,\"rangeStart\":0,\"value\":\"Montserrat\",\"valueType\":\"string\"},{\"name\":\"fontItalic\",\"rangeEnd\":32,\"rangeStart\":0,\"value\":0,\"valueType\":\"int\"},{\"name\":\"strikethrough\",\"rangeEnd\":32,\"rangeStart\":0,\"value\":0,\"valueType\":\"int\"},{\"name\":\"underline\",\"rangeEnd\":32,\"rangeStart\":0,\"value\":0,\"valueType\":\"int\"}]",
                      "default-translation0" : 0.0,
                      "default-translation1" : 0.0
                    },
                    "animationTracks" : {

                    }
                  },
                  {
                    "id" : 320,
                    "_type" : "Callout",
                    "def" : {
                      "kind" : "remix",
                      "shape" : "text-rectangle",
                      "style" : "basic",
                      "fill-color-blue" : 0.270588235294118,
                      "fill-color-green" : 0.243137254901961,
                      "fill-color-opacity" : 1.0,
                      "fill-color-red" : 0.211764705882353,
                      "height" : 149.882352941234,
                      "line-spacing" : 0.0,
                      "stroke-color-blue" : 0.890196078431372,
                      "stroke-color-green" : 0.870588235294118,
                      "stroke-color-opacity" : 1.0,
                      "stroke-color-red" : 0.847058823529412,
                      "stroke-width" : 2.0,
                      "tail-x" : -492.031249999747,
                      "tail-y" : 2.05882352938322,
                      "width" : 2367.74305555569,
                      "word-wrap" : 1.0,
                      "fill-style" : "solid",
                      "horizontal-alignment" : "center",
                      "resize-behavior" : "resizeText",
                      "stroke-style" : "solid",
                      "text" : "Launching MemoryRanger to protect the kernel memory",
                      "vertical-alignment" : "center",
                      "font" : {
                        "color-blue" : 0.266666666666667,
                        "color-green" : 0.231372549019608,
                        "color-opacity" : 1.0,
                        "color-red" : 0.184313725490196,
                        "size" : 64.0,
                        "tracking" : 0.0,
                        "name" : "Montserrat",
                        "weight" : "Regular"
                      },
                      "textAttributes" : {
                        "type" : "textAttributeList",
                        "keyframes" : [
                          {
                            "endTime" : 0,
                            "time" : 0,
                            "value" : [{"name":"underline","rangeEnd":51,"rangeStart":0,"value":0,"valueType":"int"},{"name":"fontWeight","rangeEnd":51,"rangeStart":0,"value":400,"valueType":"int"},{"name":"fontSize","rangeEnd":51,"rangeStart":0,"value":80,"valueType":"double"},{"name":"strikethrough","rangeEnd":51,"rangeStart":0,"value":0,"valueType":"int"},{"name":"fgColor","rangeEnd":51,"rangeStart":0,"value":"(255,255,255,255)","valueType":"color"},{"name":"fontName","rangeEnd":51,"rangeStart":0,"value":"Montserrat","valueType":"string"},{"name":"fontItalic","rangeEnd":51,"rangeStart":0,"value":0,"valueType":"int"}],
                            "duration" : 0
                          }
                        ]
                      }
                    },
                    "attributes" : {
                      "autoRotateText" : true
                    },
                    "parameters" : {
                      "translation0" : -1.28049570946587e-10,
                      "translation1" : -585.891544117808
                    },
                    "effects" : [
                        {
                          "effectName" : "DropShadow",
                          "category" : "categoryVisualEffects",
                          "parameters" : {
                            "angle" : 5.49778714378214,
                            "blur" : 10.0,
                            "color-alpha" : 1.0,
                            "color-blue" : 0.1216,
                            "color-green" : 0.1216,
                            "color-red" : 0.1216,
                            "enabled" : 1,
                            "offset" : 10.0,
                            "opacity" : 0.4
                          }
                        }
                    ],
                    "start" : 348,
                    "duration" : 91,
                    "mediaStart" : -24,
                    "mediaDuration" : 91,
                    "scalar" : 1,
                    "metadata" : {
                      "WinSubProjectDisplayName" : "",
                      "clipSpeedAttribute" : false,
                      "default-HAlign" : "center",
                      "default-LineSpace" : 0.0,
                      "default-VAlign" : "center",
                      "default-fill-color-blue" : 1.0,
                      "default-fill-color-green" : 1.0,
                      "default-fill-color-red" : 1.0,
                      "default-stroke-color-blue" : 0.56078431372549,
                      "default-stroke-color-green" : 0.686274509803922,
                      "default-stroke-color-red" : 0.0196078431372549,
                      "default-text-attributes" : "[{\"name\":\"fontSize\",\"rangeEnd\":32,\"rangeStart\":0,\"value\":64,\"valueType\":\"double\"},{\"name\":\"fgColor\",\"rangeEnd\":32,\"rangeStart\":0,\"value\":\"(255,255,255,255)\",\"valueType\":\"color\"},{\"name\":\"fontWeight\",\"rangeEnd\":32,\"rangeStart\":0,\"value\":400,\"valueType\":\"int\"},{\"name\":\"fontName\",\"rangeEnd\":32,\"rangeStart\":0,\"value\":\"Montserrat\",\"valueType\":\"string\"},{\"name\":\"fontItalic\",\"rangeEnd\":32,\"rangeStart\":0,\"value\":0,\"valueType\":\"int\"},{\"name\":\"strikethrough\",\"rangeEnd\":32,\"rangeStart\":0,\"value\":0,\"valueType\":\"int\"},{\"name\":\"underline\",\"rangeEnd\":32,\"rangeStart\":0,\"value\":0,\"valueType\":\"int\"}]",
                      "default-translation0" : 0.0,
                      "default-translation1" : 0.0
                    },
                    "animationTracks" : {

                    }
                  },
                  {
                    "id" : 321,
                    "_type" : "Callout",
                    "def" : {
                      "kind" : "remix",
                      "shape" : "text-rectangle",
                      "style" : "basic",
                      "fill-color-blue" : 0.270588235294118,
                      "fill-color-green" : 0.243137254901961,
                      "fill-color-opacity" : 1.0,
                      "fill-color-red" : 0.211764705882353,
                      "height" : 138.117647059058,
                      "line-spacing" : 0.0,
                      "stroke-color-blue" : 0.890196078431372,
                      "stroke-color-green" : 0.870588235294118,
                      "stroke-color-opacity" : 1.0,
                      "stroke-color-red" : 0.847058823529412,
                      "stroke-width" : 2.0,
                      "tail-x" : -492.031249999747,
                      "tail-y" : 7.94117647047108,
                      "width" : 2367.74305555569,
                      "word-wrap" : 1.0,
                      "fill-style" : "solid",
                      "horizontal-alignment" : "center",
                      "resize-behavior" : "resizeText",
                      "stroke-style" : "solid",
                      "text" : "MemoryRanger is ready to prevent memory attacks!",
                      "vertical-alignment" : "center",
                      "font" : {
                        "color-blue" : 0.266666666666667,
                        "color-green" : 0.231372549019608,
                        "color-opacity" : 1.0,
                        "color-red" : 0.184313725490196,
                        "size" : 64.0,
                        "tracking" : 0.0,
                        "name" : "Montserrat",
                        "weight" : "Regular"
                      },
                      "textAttributes" : {
                        "type" : "textAttributeList",
                        "keyframes" : [
                          {
                            "endTime" : 0,
                            "time" : 0,
                            "value" : [{"name":"fontSize","rangeEnd":48,"rangeStart":0,"value":80,"valueType":"double"},{"name":"fontName","rangeEnd":48,"rangeStart":0,"value":"Montserrat","valueType":"string"},{"name":"fgColor","rangeEnd":48,"rangeStart":0,"value":"(255,255,255,255)","valueType":"color"},{"name":"underline","rangeEnd":48,"rangeStart":0,"value":0,"valueType":"int"},{"name":"strikethrough","rangeEnd":48,"rangeStart":0,"value":0,"valueType":"int"},{"name":"fontWeight","rangeEnd":48,"rangeStart":0,"value":400,"valueType":"int"},{"name":"fontItalic","rangeEnd":48,"rangeStart":0,"value":0,"valueType":"int"}],
                            "duration" : 0
                          }
                        ]
                      }
                    },
                    "attributes" : {
                      "autoRotateText" : true
                    },
                    "parameters" : {
                      "translation0" : -1.28049570946587e-10,
                      "translation1" : -574.126838235383
                    },
                    "effects" : [
                        {
                          "effectName" : "DropShadow",
                          "category" : "categoryVisualEffects",
                          "parameters" : {
                            "angle" : 5.49778714378214,
                            "blur" : 10.0,
                            "color-alpha" : 1.0,
                            "color-blue" : 0.1216,
                            "color-green" : 0.1216,
                            "color-red" : 0.1216,
                            "enabled" : 1,
                            "offset" : 10.0,
                            "opacity" : 0.4
                          }
                        }
                    ],
                    "start" : 440,
                    "duration" : 91,
                    "mediaStart" : -24,
                    "mediaDuration" : 91,
                    "scalar" : 1,
                    "metadata" : {
                      "WinSubProjectDisplayName" : "",
                      "clipSpeedAttribute" : false,
                      "default-HAlign" : "center",
                      "default-LineSpace" : 0.0,
                      "default-VAlign" : "center",
                      "default-fill-color-blue" : 1.0,
                      "default-fill-color-green" : 1.0,
                      "default-fill-color-red" : 1.0,
                      "default-stroke-color-blue" : 0.56078431372549,
                      "default-stroke-color-green" : 0.686274509803922,
                      "default-stroke-color-red" : 0.0196078431372549,
                      "default-text-attributes" : "[{\"name\":\"fontSize\",\"rangeEnd\":32,\"rangeStart\":0,\"value\":64,\"valueType\":\"double\"},{\"name\":\"fgColor\",\"rangeEnd\":32,\"rangeStart\":0,\"value\":\"(255,255,255,255)\",\"valueType\":\"color\"},{\"name\":\"fontWeight\",\"rangeEnd\":32,\"rangeStart\":0,\"value\":400,\"valueType\":\"int\"},{\"name\":\"fontName\",\"rangeEnd\":32,\"rangeStart\":0,\"value\":\"Montserrat\",\"valueType\":\"string\"},{\"name\":\"fontItalic\",\"rangeEnd\":32,\"rangeStart\":0,\"value\":0,\"valueType\":\"int\"},{\"name\":\"strikethrough\",\"rangeEnd\":32,\"rangeStart\":0,\"value\":0,\"valueType\":\"int\"},{\"name\":\"underline\",\"rangeEnd\":32,\"rangeStart\":0,\"value\":0,\"valueType\":\"int\"}]",
                      "default-translation0" : 0.0,
                      "default-translation1" : 0.0
                    },
                    "animationTracks" : {

                    }
                  },
                  {
                    "id" : 322,
                    "_type" : "Callout",
                    "def" : {
                      "kind" : "remix",
                      "shape" : "text-rectangle",
                      "style" : "basic",
                      "fill-color-blue" : 0.270588235294118,
                      "fill-color-green" : 0.243137254901961,
                      "fill-color-opacity" : 1.0,
                      "fill-color-red" : 0.211764705882353,
                      "height" : 194.0,
                      "line-spacing" : 0.0,
                      "stroke-color-blue" : 0.890196078431372,
                      "stroke-color-green" : 0.870588235294118,
                      "stroke-color-opacity" : 1.0,
                      "stroke-color-red" : 0.847058823529412,
                      "stroke-width" : 2.0,
                      "tail-x" : -540.364583333164,
                      "tail-y" : -20.0,
                      "width" : 2242.72083333326,
                      "word-wrap" : 1.0,
                      "fill-style" : "solid",
                      "horizontal-alignment" : "center",
                      "resize-behavior" : "resizeText",
                      "stroke-style" : "solid",
                      "text" : "The researcher is launching the app,\rwhich loads a driver.",
                      "vertical-alignment" : "center",
                      "font" : {
                        "color-blue" : 0.266666666666667,
                        "color-green" : 0.231372549019608,
                        "color-opacity" : 1.0,
                        "color-red" : 0.184313725490196,
                        "size" : 64.0,
                        "tracking" : 0.0,
                        "name" : "Montserrat",
                        "weight" : "Regular"
                      },
                      "textAttributes" : {
                        "type" : "textAttributeList",
                        "keyframes" : [
                          {
                            "endTime" : 0,
                            "time" : 0,
                            "value" : [{"name":"fontWeight","rangeEnd":58,"rangeStart":0,"value":400,"valueType":"int"},{"name":"fgColor","rangeEnd":58,"rangeStart":0,"value":"(255,255,255,255)","valueType":"color"},{"name":"fontSize","rangeEnd":58,"rangeStart":0,"value":80,"valueType":"double"},{"name":"fontName","rangeEnd":58,"rangeStart":0,"value":"Montserrat","valueType":"string"},{"name":"underline","rangeEnd":58,"rangeStart":0,"value":0,"valueType":"int"},{"name":"strikethrough","rangeEnd":58,"rangeStart":0,"value":0,"valueType":"int"},{"name":"fontItalic","rangeEnd":58,"rangeStart":0,"value":0,"valueType":"int"}],
                            "duration" : 0
                          }
                        ]
                      }
                    },
                    "attributes" : {
                      "autoRotateText" : true
                    },
                    "parameters" : {
                      "translation0" : 5.32551780452195e-11,
                      "translation1" : -537.36213235302
                    },
                    "effects" : [
                        {
                          "effectName" : "DropShadow",
                          "category" : "categoryVisualEffects",
                          "parameters" : {
                            "angle" : 5.49778714378214,
                            "blur" : 10.0,
                            "color-alpha" : 1.0,
                            "color-blue" : 0.1216,
                            "color-green" : 0.1216,
                            "color-red" : 0.1216,
                            "enabled" : 1,
                            "offset" : 10.0,
                            "opacity" : 0.4
                          }
                        }
                    ],
                    "start" : 541,
                    "duration" : 91,
                    "mediaStart" : -24,
                    "mediaDuration" : 91,
                    "scalar" : 1,
                    "metadata" : {
                      "WinSubProjectDisplayName" : "",
                      "clipSpeedAttribute" : false,
                      "default-HAlign" : "center",
                      "default-LineSpace" : 0.0,
                      "default-VAlign" : "center",
                      "default-fill-color-blue" : 1.0,
                      "default-fill-color-green" : 1.0,
                      "default-fill-color-red" : 1.0,
                      "default-stroke-color-blue" : 0.56078431372549,
                      "default-stroke-color-green" : 0.686274509803922,
                      "default-stroke-color-red" : 0.0196078431372549,
                      "default-text-attributes" : "[{\"name\":\"fontSize\",\"rangeEnd\":32,\"rangeStart\":0,\"value\":64,\"valueType\":\"double\"},{\"name\":\"fgColor\",\"rangeEnd\":32,\"rangeStart\":0,\"value\":\"(255,255,255,255)\",\"valueType\":\"color\"},{\"name\":\"fontWeight\",\"rangeEnd\":32,\"rangeStart\":0,\"value\":400,\"valueType\":\"int\"},{\"name\":\"fontName\",\"rangeEnd\":32,\"rangeStart\":0,\"value\":\"Montserrat\",\"valueType\":\"string\"},{\"name\":\"fontItalic\",\"rangeEnd\":32,\"rangeStart\":0,\"value\":0,\"valueType\":\"int\"},{\"name\":\"strikethrough\",\"rangeEnd\":32,\"rangeStart\":0,\"value\":0,\"valueType\":\"int\"},{\"name\":\"underline\",\"rangeEnd\":32,\"rangeStart\":0,\"value\":0,\"valueType\":\"int\"}]",
                      "default-translation0" : 0.0,
                      "default-translation1" : 0.0
                    },
                    "animationTracks" : {

                    }
                  },
                  {
                    "id" : 323,
                    "_type" : "Callout",
                    "def" : {
                      "kind" : "remix",
                      "shape" : "text-rectangle",
                      "style" : "basic",
                      "fill-color-blue" : 0.270588235294118,
                      "fill-color-green" : 0.243137254901961,
                      "fill-color-opacity" : 1.0,
                      "fill-color-red" : 0.211764705882353,
                      "height" : 129.294117647127,
                      "line-spacing" : 0.0,
                      "stroke-color-blue" : 0.890196078431372,
                      "stroke-color-green" : 0.870588235294118,
                      "stroke-color-opacity" : 1.0,
                      "stroke-color-red" : 0.847058823529412,
                      "stroke-width" : 2.0,
                      "tail-x" : -322.794117646963,
                      "tail-y" : 34.8529411764282,
                      "width" : 2380.2148586715,
                      "word-wrap" : 1.0,
                      "fill-style" : "solid",
                      "horizontal-alignment" : "center",
                      "resize-behavior" : "resizeText",
                      "stroke-style" : "solid",
                      "text" : "The researcher is creating a new file 'secret_formula.txt'",
                      "vertical-alignment" : "center",
                      "font" : {
                        "color-blue" : 0.266666666666667,
                        "color-green" : 0.231372549019608,
                        "color-opacity" : 1.0,
                        "color-red" : 0.184313725490196,
                        "size" : 64.0,
                        "tracking" : 0.0,
                        "name" : "Montserrat",
                        "weight" : "Regular"
                      },
                      "textAttributes" : {
                        "type" : "textAttributeList",
                        "keyframes" : [
                          {
                            "endTime" : 0,
                            "time" : 0,
                            "value" : [{"name":"fontWeight","rangeEnd":58,"rangeStart":0,"value":400,"valueType":"int"},{"name":"fontSize","rangeEnd":58,"rangeStart":0,"value":80,"valueType":"double"},{"name":"underline","rangeEnd":58,"rangeStart":0,"value":0,"valueType":"int"},{"name":"fontName","rangeEnd":58,"rangeStart":0,"value":"Montserrat","valueType":"string"},{"name":"fontItalic","rangeEnd":58,"rangeStart":0,"value":0,"valueType":"int"},{"name":"fgColor","rangeEnd":58,"rangeStart":0,"value":"(255,255,255,255)","valueType":"color"},{"name":"strikethrough","rangeEnd":58,"rangeStart":0,"value":0,"valueType":"int"}],
                            "duration" : 0
                          }
                        ]
                      }
                    },
                    "attributes" : {
                      "autoRotateText" : true
                    },
                    "parameters" : {
                      "translation0" : -1.71212377608754e-10,
                      "translation1" : -592.215073529575
                    },
                    "effects" : [
                        {
                          "effectName" : "DropShadow",
                          "category" : "categoryVisualEffects",
                          "parameters" : {
                            "angle" : 5.49778714378214,
                            "blur" : 10.0,
                            "color-alpha" : 1.0,
                            "color-blue" : 0.1216,
                            "color-green" : 0.1216,
                            "color-red" : 0.1216,
                            "enabled" : 1,
                            "offset" : 10.0,
                            "opacity" : 0.4
                          }
                        }
                    ],
                    "start" : 756,
                    "duration" : 90,
                    "mediaStart" : 3,
                    "mediaDuration" : 90,
                    "scalar" : 1,
                    "metadata" : {
                      "WinSubProjectDisplayName" : "",
                      "clipSpeedAttribute" : false,
                      "default-HAlign" : "center",
                      "default-LineSpace" : 0.0,
                      "default-VAlign" : "center",
                      "default-fill-color-blue" : 1.0,
                      "default-fill-color-green" : 1.0,
                      "default-fill-color-red" : 1.0,
                      "default-stroke-color-blue" : 0.56078431372549,
                      "default-stroke-color-green" : 0.686274509803922,
                      "default-stroke-color-red" : 0.0196078431372549,
                      "default-text-attributes" : "[{\"name\":\"fontSize\",\"rangeEnd\":32,\"rangeStart\":0,\"value\":64,\"valueType\":\"double\"},{\"name\":\"fgColor\",\"rangeEnd\":32,\"rangeStart\":0,\"value\":\"(255,255,255,255)\",\"valueType\":\"color\"},{\"name\":\"fontWeight\",\"rangeEnd\":32,\"rangeStart\":0,\"value\":400,\"valueType\":\"int\"},{\"name\":\"fontName\",\"rangeEnd\":32,\"rangeStart\":0,\"value\":\"Montserrat\",\"valueType\":\"string\"},{\"name\":\"fontItalic\",\"rangeEnd\":32,\"rangeStart\":0,\"value\":0,\"valueType\":\"int\"},{\"name\":\"strikethrough\",\"rangeEnd\":32,\"rangeStart\":0,\"value\":0,\"valueType\":\"int\"},{\"name\":\"underline\",\"rangeEnd\":32,\"rangeStart\":0,\"value\":0,\"valueType\":\"int\"}]",
                      "default-translation0" : 0.0,
                      "default-translation1" : 0.0
                    },
                    "animationTracks" : {

                    }
                  },
                  {
                    "id" : 324,
                    "_type" : "Callout",
                    "def" : {
                      "kind" : "remix",
                      "shape" : "text-rectangle",
                      "style" : "basic",
                      "fill-color-blue" : 0.270588235294118,
                      "fill-color-green" : 0.243137254901961,
                      "fill-color-opacity" : 1.0,
                      "fill-color-red" : 0.211764705882353,
                      "height" : 126.666666666661,
                      "line-spacing" : 0.0,
                      "stroke-color-blue" : 0.890196078431372,
                      "stroke-color-green" : 0.870588235294118,
                      "stroke-color-opacity" : 1.0,
                      "stroke-color-red" : 0.847058823529412,
                      "stroke-width" : 2.0,
                      "tail-x" : -406.249999999963,
                      "tail-y" : 3.33333333331352,
                      "width" : 337.500000000259,
                      "word-wrap" : 1.0,
                      "fill-style" : "solid",
                      "horizontal-alignment" : "center",
                      "resize-behavior" : "resizeText",
                      "stroke-style" : "solid",
                      "text" : "Done",
                      "vertical-alignment" : "center",
                      "font" : {
                        "color-blue" : 0.266666666666667,
                        "color-green" : 0.231372549019608,
                        "color-opacity" : 1.0,
                        "color-red" : 0.184313725490196,
                        "size" : 64.0,
                        "tracking" : 0.0,
                        "name" : "Montserrat",
                        "weight" : "Regular"
                      },
                      "textAttributes" : {
                        "type" : "textAttributeList",
                        "keyframes" : [
                          {
                            "endTime" : 0,
                            "time" : 0,
                            "value" : [{"name":"underline","rangeEnd":4,"rangeStart":0,"value":0,"valueType":"int"},{"name":"fgColor","rangeEnd":4,"rangeStart":0,"value":"(255,255,255,255)","valueType":"color"},{"name":"fontName","rangeEnd":4,"rangeStart":0,"value":"Montserrat","valueType":"string"},{"name":"fontSize","rangeEnd":4,"rangeStart":0,"value":80,"valueType":"double"},{"name":"strikethrough","rangeEnd":4,"rangeStart":0,"value":0,"valueType":"int"},{"name":"fontItalic","rangeEnd":4,"rangeStart":0,"value":0,"valueType":"int"},{"name":"fontWeight","rangeEnd":4,"rangeStart":0,"value":400,"valueType":"int"}],
                            "duration" : 0
                          }
                        ]
                      }
                    },
                    "attributes" : {
                      "autoRotateText" : true
                    },
                    "parameters" : {
                      "translation0" : 1.77777792487177e-11,
                      "translation1" : -581.28370098058
                    },
                    "effects" : [
                        {
                          "effectName" : "DropShadow",
                          "category" : "categoryVisualEffects",
                          "parameters" : {
                            "angle" : 5.49778714378214,
                            "blur" : 10.0,
                            "color-alpha" : 1.0,
                            "color-blue" : 0.1216,
                            "color-green" : 0.1216,
                            "color-red" : 0.1216,
                            "enabled" : 1,
                            "offset" : 10.0,
                            "opacity" : 0.4
                          }
                        }
                    ],
                    "start" : 876,
                    "duration" : 63,
                    "mediaStart" : 38,
                    "mediaDuration" : 63,
                    "scalar" : 1,
                    "metadata" : {
                      "WinSubProjectDisplayName" : "",
                      "clipSpeedAttribute" : false,
                      "default-HAlign" : "center",
                      "default-LineSpace" : 0.0,
                      "default-VAlign" : "center",
                      "default-fill-color-blue" : 1.0,
                      "default-fill-color-green" : 1.0,
                      "default-fill-color-red" : 1.0,
                      "default-scale0" : 1.0,
                      "default-scale1" : 1.0,
                      "default-stroke-color-blue" : 0.56078431372549,
                      "default-stroke-color-green" : 0.686274509803922,
                      "default-stroke-color-red" : 0.0196078431372549,
                      "default-text-attributes" : "[{\"name\":\"fontSize\",\"rangeEnd\":32,\"rangeStart\":0,\"value\":64,\"valueType\":\"double\"},{\"name\":\"fgColor\",\"rangeEnd\":32,\"rangeStart\":0,\"value\":\"(255,255,255,255)\",\"valueType\":\"color\"},{\"name\":\"fontWeight\",\"rangeEnd\":32,\"rangeStart\":0,\"value\":400,\"valueType\":\"int\"},{\"name\":\"fontName\",\"rangeEnd\":32,\"rangeStart\":0,\"value\":\"Montserrat\",\"valueType\":\"string\"},{\"name\":\"fontItalic\",\"rangeEnd\":32,\"rangeStart\":0,\"value\":0,\"valueType\":\"int\"},{\"name\":\"strikethrough\",\"rangeEnd\":32,\"rangeStart\":0,\"value\":0,\"valueType\":\"int\"},{\"name\":\"underline\",\"rangeEnd\":32,\"rangeStart\":0,\"value\":0,\"valueType\":\"int\"}]",
                      "default-translation0" : 0.0,
                      "default-translation1" : 0.0
                    },
                    "animationTracks" : {

                    }
                  },
                  {
                    "id" : 325,
                    "_type" : "Callout",
                    "def" : {
                      "kind" : "remix",
                      "shape" : "text-rectangle",
                      "style" : "basic",
                      "fill-color-blue" : 0.270588235294118,
                      "fill-color-green" : 0.243137254901961,
                      "fill-color-opacity" : 1.0,
                      "fill-color-red" : 0.211764705882353,
                      "height" : 126.352941176711,
                      "line-spacing" : 0.0,
                      "stroke-color-blue" : 0.890196078431372,
                      "stroke-color-green" : 0.870588235294118,
                      "stroke-color-opacity" : 1.0,
                      "stroke-color-red" : 0.847058823529412,
                      "stroke-width" : 2.0,
                      "tail-x" : -942.842187171698,
                      "tail-y" : 35.6985294116966,
                      "width" : 2251.72739036578,
                      "word-wrap" : 1.0,
                      "fill-style" : "solid",
                      "horizontal-alignment" : "center",
                      "resize-behavior" : "resizeText",
                      "stroke-style" : "solid",
                      "text" : "The researcher is saving a new secret formula",
                      "vertical-alignment" : "center",
                      "font" : {
                        "color-blue" : 0.266666666666667,
                        "color-green" : 0.231372549019608,
                        "color-opacity" : 1.0,
                        "color-red" : 0.184313725490196,
                        "size" : 64.0,
                        "tracking" : 0.0,
                        "name" : "Montserrat",
                        "weight" : "Regular"
                      },
                      "textAttributes" : {
                        "type" : "textAttributeList",
                        "keyframes" : [
                          {
                            "endTime" : 0,
                            "time" : 0,
                            "value" : [{"name":"fontWeight","rangeEnd":45,"rangeStart":0,"value":400,"valueType":"int"},{"name":"fontSize","rangeEnd":45,"rangeStart":0,"value":80,"valueType":"double"},{"name":"strikethrough","rangeEnd":45,"rangeStart":0,"value":0,"valueType":"int"},{"name":"fgColor","rangeEnd":45,"rangeStart":0,"value":"(255,255,255,255)","valueType":"color"},{"name":"fontName","rangeEnd":45,"rangeStart":0,"value":"Montserrat","valueType":"string"},{"name":"underline","rangeEnd":45,"rangeStart":0,"value":0,"valueType":"int"},{"name":"fontItalic","rangeEnd":45,"rangeStart":0,"value":0,"valueType":"int"}],
                            "duration" : 0
                          }
                        ]
                      }
                    },
                    "attributes" : {
                      "autoRotateText" : true
                    },
                    "parameters" : {
                      "translation0" : -1.31194610730745e-10,
                      "translation1" : -587.178308823639
                    },
                    "effects" : [
                        {
                          "effectName" : "DropShadow",
                          "category" : "categoryVisualEffects",
                          "parameters" : {
                            "angle" : 5.49778714378214,
                            "blur" : 10.0,
                            "color-alpha" : 1.0,
                            "color-blue" : 0.1216,
                            "color-green" : 0.1216,
                            "color-red" : 0.1216,
                            "enabled" : 1,
                            "offset" : 10.0,
                            "opacity" : 0.4
                          }
                        }
                    ],
                    "start" : 947,
                    "duration" : 101,
                    "mediaStart" : -2,
                    "mediaDuration" : 101,
                    "scalar" : 1,
                    "metadata" : {
                      "WinSubProjectDisplayName" : "",
                      "clipSpeedAttribute" : false,
                      "default-HAlign" : "center",
                      "default-LineSpace" : 0.0,
                      "default-VAlign" : "center",
                      "default-fill-color-blue" : 1.0,
                      "default-fill-color-green" : 1.0,
                      "default-fill-color-red" : 1.0,
                      "default-stroke-color-blue" : 0.56078431372549,
                      "default-stroke-color-green" : 0.686274509803922,
                      "default-stroke-color-red" : 0.0196078431372549,
                      "default-text-attributes" : "[{\"name\":\"fontSize\",\"rangeEnd\":32,\"rangeStart\":0,\"value\":64,\"valueType\":\"double\"},{\"name\":\"fgColor\",\"rangeEnd\":32,\"rangeStart\":0,\"value\":\"(255,255,255,255)\",\"valueType\":\"color\"},{\"name\":\"fontWeight\",\"rangeEnd\":32,\"rangeStart\":0,\"value\":400,\"valueType\":\"int\"},{\"name\":\"fontName\",\"rangeEnd\":32,\"rangeStart\":0,\"value\":\"Montserrat\",\"valueType\":\"string\"},{\"name\":\"fontItalic\",\"rangeEnd\":32,\"rangeStart\":0,\"value\":0,\"valueType\":\"int\"},{\"name\":\"strikethrough\",\"rangeEnd\":32,\"rangeStart\":0,\"value\":0,\"valueType\":\"int\"},{\"name\":\"underline\",\"rangeEnd\":32,\"rangeStart\":0,\"value\":0,\"valueType\":\"int\"}]",
                      "default-translation0" : 0.0,
                      "default-translation1" : 0.0
                    },
                    "animationTracks" : {

                    }
                  },
                  {
                    "id" : 326,
                    "_type" : "Callout",
                    "def" : {
                      "kind" : "remix",
                      "shape" : "text-rectangle",
                      "style" : "basic",
                      "fill-color-blue" : 0.270588235294118,
                      "fill-color-green" : 0.243137254901961,
                      "fill-color-opacity" : 1.0,
                      "fill-color-red" : 0.211764705882353,
                      "height" : 126.666666666661,
                      "line-spacing" : 0.0,
                      "stroke-color-blue" : 0.890196078431372,
                      "stroke-color-green" : 0.870588235294118,
                      "stroke-color-opacity" : 1.0,
                      "stroke-color-red" : 0.847058823529412,
                      "stroke-width" : 2.0,
                      "tail-x" : -406.249999999963,
                      "tail-y" : 3.33333333331352,
                      "width" : 337.500000000259,
                      "word-wrap" : 1.0,
                      "fill-style" : "solid",
                      "horizontal-alignment" : "center",
                      "resize-behavior" : "resizeText",
                      "stroke-style" : "solid",
                      "text" : "Done",
                      "vertical-alignment" : "center",
                      "font" : {
                        "color-blue" : 0.266666666666667,
                        "color-green" : 0.231372549019608,
                        "color-opacity" : 1.0,
                        "color-red" : 0.184313725490196,
                        "size" : 64.0,
                        "tracking" : 0.0,
                        "name" : "Montserrat",
                        "weight" : "Regular"
                      },
                      "textAttributes" : {
                        "type" : "textAttributeList",
                        "keyframes" : [
                          {
                            "endTime" : 0,
                            "time" : 0,
                            "value" : [{"name":"underline","rangeEnd":4,"rangeStart":0,"value":0,"valueType":"int"},{"name":"fgColor","rangeEnd":4,"rangeStart":0,"value":"(255,255,255,255)","valueType":"color"},{"name":"fontName","rangeEnd":4,"rangeStart":0,"value":"Montserrat","valueType":"string"},{"name":"fontSize","rangeEnd":4,"rangeStart":0,"value":80,"valueType":"double"},{"name":"strikethrough","rangeEnd":4,"rangeStart":0,"value":0,"valueType":"int"},{"name":"fontItalic","rangeEnd":4,"rangeStart":0,"value":0,"valueType":"int"},{"name":"fontWeight","rangeEnd":4,"rangeStart":0,"value":400,"valueType":"int"}],
                            "duration" : 0
                          }
                        ]
                      }
                    },
                    "attributes" : {
                      "autoRotateText" : true
                    },
                    "parameters" : {
                      "translation0" : 1.77777792487177e-11,
                      "translation1" : -610.695465686593
                    },
                    "effects" : [
                        {
                          "effectName" : "DropShadow",
                          "category" : "categoryVisualEffects",
                          "parameters" : {
                            "angle" : 5.49778714378214,
                            "blur" : 10.0,
                            "color-alpha" : 1.0,
                            "color-blue" : 0.1216,
                            "color-green" : 0.1216,
                            "color-red" : 0.1216,
                            "enabled" : 1,
                            "offset" : 10.0,
                            "opacity" : 0.4
                          }
                        }
                    ],
                    "start" : 1081,
                    "duration" : 63,
                    "mediaStart" : 38,
                    "mediaDuration" : 63,
                    "scalar" : 1,
                    "metadata" : {
                      "WinSubProjectDisplayName" : "",
                      "clipSpeedAttribute" : false,
                      "default-HAlign" : "center",
                      "default-LineSpace" : 0.0,
                      "default-VAlign" : "center",
                      "default-fill-color-blue" : 1.0,
                      "default-fill-color-green" : 1.0,
                      "default-fill-color-red" : 1.0,
                      "default-scale0" : 1.0,
                      "default-scale1" : 1.0,
                      "default-stroke-color-blue" : 0.56078431372549,
                      "default-stroke-color-green" : 0.686274509803922,
                      "default-stroke-color-red" : 0.0196078431372549,
                      "default-text-attributes" : "[{\"name\":\"fontSize\",\"rangeEnd\":32,\"rangeStart\":0,\"value\":64,\"valueType\":\"double\"},{\"name\":\"fgColor\",\"rangeEnd\":32,\"rangeStart\":0,\"value\":\"(255,255,255,255)\",\"valueType\":\"color\"},{\"name\":\"fontWeight\",\"rangeEnd\":32,\"rangeStart\":0,\"value\":400,\"valueType\":\"int\"},{\"name\":\"fontName\",\"rangeEnd\":32,\"rangeStart\":0,\"value\":\"Montserrat\",\"valueType\":\"string\"},{\"name\":\"fontItalic\",\"rangeEnd\":32,\"rangeStart\":0,\"value\":0,\"valueType\":\"int\"},{\"name\":\"strikethrough\",\"rangeEnd\":32,\"rangeStart\":0,\"value\":0,\"valueType\":\"int\"},{\"name\":\"underline\",\"rangeEnd\":32,\"rangeStart\":0,\"value\":0,\"valueType\":\"int\"}]",
                      "default-translation0" : 0.0,
                      "default-translation1" : 0.0
                    },
                    "animationTracks" : {

                    }
                  },
                  {
                    "id" : 327,
                    "_type" : "Callout",
                    "def" : {
                      "kind" : "remix",
                      "shape" : "text-rectangle",
                      "style" : "basic",
                      "fill-color-blue" : 0.270588235294118,
                      "fill-color-green" : 0.243137254901961,
                      "fill-color-opacity" : 1.0,
                      "fill-color-red" : 0.211764705882353,
                      "height" : 124.583333333219,
                      "line-spacing" : 0.0,
                      "stroke-color-blue" : 0.890196078431372,
                      "stroke-color-green" : 0.870588235294118,
                      "stroke-color-opacity" : 1.0,
                      "stroke-color-red" : 0.847058823529412,
                      "stroke-width" : 2.0,
                      "tail-x" : -55.8333333332519,
                      "tail-y" : -7.29166666660954,
                      "width" : 946.041666666676,
                      "word-wrap" : 1.0,
                      "fill-style" : "solid",
                      "horizontal-alignment" : "center",
                      "resize-behavior" : "resizeText",
                      "stroke-style" : "solid",
                      "text" : "Checking the data",
                      "vertical-alignment" : "center",
                      "font" : {
                        "color-blue" : 0.266666666666667,
                        "color-green" : 0.231372549019608,
                        "color-opacity" : 1.0,
                        "color-red" : 0.184313725490196,
                        "size" : 64.0,
                        "tracking" : 0.0,
                        "name" : "Montserrat",
                        "weight" : "Regular"
                      },
                      "textAttributes" : {
                        "type" : "textAttributeList",
                        "keyframes" : [
                          {
                            "endTime" : 0,
                            "time" : 0,
                            "value" : [{"name":"fontWeight","rangeEnd":17,"rangeStart":0,"value":400,"valueType":"int"},{"name":"underline","rangeEnd":17,"rangeStart":0,"value":0,"valueType":"int"},{"name":"fgColor","rangeEnd":17,"rangeStart":0,"value":"(255,255,255,255)","valueType":"color"},{"name":"strikethrough","rangeEnd":17,"rangeStart":0,"value":0,"valueType":"int"},{"name":"fontItalic","rangeEnd":17,"rangeStart":0,"value":0,"valueType":"int"},{"name":"fontSize","rangeEnd":17,"rangeStart":0,"value":80,"valueType":"double"},{"name":"fontName","rangeEnd":17,"rangeStart":0,"value":"Montserrat","valueType":"string"}],
                            "duration" : 0
                          }
                        ]
                      }
                    },
                    "attributes" : {
                      "autoRotateText" : true
                    },
                    "parameters" : {
                      "translation0" : -2.00941485672956e-10,
                      "translation1" : -619.286151960812
                    },
                    "effects" : [
                        {
                          "effectName" : "DropShadow",
                          "category" : "categoryVisualEffects",
                          "parameters" : {
                            "angle" : 5.49778714378214,
                            "blur" : 10.0,
                            "color-alpha" : 1.0,
                            "color-blue" : 0.1216,
                            "color-green" : 0.1216,
                            "color-red" : 0.1216,
                            "enabled" : 1,
                            "offset" : 10.0,
                            "opacity" : 0.4
                          }
                        }
                    ],
                    "start" : 1152,
                    "duration" : 70,
                    "mediaStart" : 0,
                    "mediaDuration" : 70,
                    "scalar" : 1,
                    "metadata" : {
                      "WinSubProjectDisplayName" : "",
                      "clipSpeedAttribute" : false,
                      "default-HAlign" : "center",
                      "default-LineSpace" : 0.0,
                      "default-VAlign" : "center",
                      "default-fill-color-blue" : 1.0,
                      "default-fill-color-green" : 1.0,
                      "default-fill-color-red" : 1.0,
                      "default-stroke-color-blue" : 0.56078431372549,
                      "default-stroke-color-green" : 0.686274509803922,
                      "default-stroke-color-red" : 0.0196078431372549,
                      "default-text-attributes" : "[{\"name\":\"fontSize\",\"rangeEnd\":32,\"rangeStart\":0,\"value\":64,\"valueType\":\"double\"},{\"name\":\"fgColor\",\"rangeEnd\":32,\"rangeStart\":0,\"value\":\"(255,255,255,255)\",\"valueType\":\"color\"},{\"name\":\"fontWeight\",\"rangeEnd\":32,\"rangeStart\":0,\"value\":400,\"valueType\":\"int\"},{\"name\":\"fontName\",\"rangeEnd\":32,\"rangeStart\":0,\"value\":\"Montserrat\",\"valueType\":\"string\"},{\"name\":\"fontItalic\",\"rangeEnd\":32,\"rangeStart\":0,\"value\":0,\"valueType\":\"int\"},{\"name\":\"strikethrough\",\"rangeEnd\":32,\"rangeStart\":0,\"value\":0,\"valueType\":\"int\"},{\"name\":\"underline\",\"rangeEnd\":32,\"rangeStart\":0,\"value\":0,\"valueType\":\"int\"}]",
                      "default-translation0" : 0.0,
                      "default-translation1" : 0.0
                    },
                    "animationTracks" : {

                    }
                  },
                  {
                    "id" : 328,
                    "_type" : "Callout",
                    "def" : {
                      "kind" : "remix",
                      "shape" : "text-rectangle",
                      "style" : "basic",
                      "fill-color-blue" : 0.270588235294118,
                      "fill-color-green" : 0.243137254901961,
                      "fill-color-opacity" : 1.0,
                      "fill-color-red" : 0.211764705882353,
                      "height" : 106.249999999895,
                      "line-spacing" : 0.0,
                      "stroke-color-blue" : 0.890196078431372,
                      "stroke-color-green" : 0.870588235294118,
                      "stroke-color-opacity" : 1.0,
                      "stroke-color-red" : 0.847058823529412,
                      "stroke-width" : 2.0,
                      "tail-x" : -462.499999999966,
                      "tail-y" : 1.8750000000523,
                      "width" : 1759.3750000001,
                      "word-wrap" : 1.0,
                      "fill-style" : "solid",
                      "horizontal-alignment" : "center",
                      "resize-behavior" : "resizeText",
                      "stroke-style" : "solid",
                      "text" : "The secret formula has been saved",
                      "vertical-alignment" : "center",
                      "font" : {
                        "color-blue" : 0.266666666666667,
                        "color-green" : 0.231372549019608,
                        "color-opacity" : 1.0,
                        "color-red" : 0.184313725490196,
                        "size" : 64.0,
                        "tracking" : 0.0,
                        "name" : "Montserrat",
                        "weight" : "Regular"
                      },
                      "textAttributes" : {
                        "type" : "textAttributeList",
                        "keyframes" : [
                          {
                            "endTime" : 0,
                            "time" : 0,
                            "value" : [{"name":"fontName","rangeEnd":33,"rangeStart":0,"value":"Montserrat","valueType":"string"},{"name":"fontSize","rangeEnd":33,"rangeStart":0,"value":80,"valueType":"double"},{"name":"fontItalic","rangeEnd":33,"rangeStart":0,"value":0,"valueType":"int"},{"name":"strikethrough","rangeEnd":33,"rangeStart":0,"value":0,"valueType":"int"},{"name":"kerning","rangeEnd":33,"rangeStart":0,"value":0,"valueType":"double"},{"name":"fontWeight","rangeEnd":33,"rangeStart":0,"value":400,"valueType":"int"},{"name":"underline","rangeEnd":33,"rangeStart":0,"value":0,"valueType":"int"},{"name":"fgColor","rangeEnd":33,"rangeStart":0,"value":"(255,255,255,255)","valueType":"color"}],
                            "duration" : 0
                          }
                        ]
                      }
                    },
                    "attributes" : {
                      "autoRotateText" : true
                    },
                    "parameters" : {
                      "translation0" : -32.0312500000662,
                      "translation1" : -623.943014706115
                    },
                    "effects" : [
                        {
                          "effectName" : "DropShadow",
                          "category" : "categoryVisualEffects",
                          "parameters" : {
                            "angle" : 5.49778714378214,
                            "blur" : 10.0,
                            "color-alpha" : 1.0,
                            "color-blue" : 0.1216,
                            "color-green" : 0.1216,
                            "color-red" : 0.1216,
                            "enabled" : 1,
                            "offset" : 10.0,
                            "opacity" : 0.4
                          }
                        }
                    ],
                    "start" : 1263,
                    "duration" : 147,
                    "mediaStart" : 14,
                    "mediaDuration" : 147,
                    "scalar" : 1,
                    "metadata" : {
                      "WinSubProjectDisplayName" : "",
                      "clipSpeedAttribute" : false,
                      "default-HAlign" : "center",
                      "default-LineSpace" : 0.0,
                      "default-VAlign" : "center",
                      "default-fill-color-blue" : 1.0,
                      "default-fill-color-green" : 1.0,
                      "default-fill-color-red" : 1.0,
                      "default-stroke-color-blue" : 0.56078431372549,
                      "default-stroke-color-green" : 0.686274509803922,
                      "default-stroke-color-red" : 0.0196078431372549,
                      "default-text-attributes" : "[{\"name\":\"fontSize\",\"rangeEnd\":32,\"rangeStart\":0,\"value\":64,\"valueType\":\"double\"},{\"name\":\"fgColor\",\"rangeEnd\":32,\"rangeStart\":0,\"value\":\"(255,255,255,255)\",\"valueType\":\"color\"},{\"name\":\"fontWeight\",\"rangeEnd\":32,\"rangeStart\":0,\"value\":400,\"valueType\":\"int\"},{\"name\":\"fontName\",\"rangeEnd\":32,\"rangeStart\":0,\"value\":\"Montserrat\",\"valueType\":\"string\"},{\"name\":\"fontItalic\",\"rangeEnd\":32,\"rangeStart\":0,\"value\":0,\"valueType\":\"int\"},{\"name\":\"strikethrough\",\"rangeEnd\":32,\"rangeStart\":0,\"value\":0,\"valueType\":\"int\"},{\"name\":\"underline\",\"rangeEnd\":32,\"rangeStart\":0,\"value\":0,\"valueType\":\"int\"}]",
                      "default-translation0" : 0.0,
                      "default-translation1" : 0.0
                    },
                    "animationTracks" : {

                    }
                  },
                  {
                    "id" : 329,
                    "_type" : "Callout",
                    "def" : {
                      "kind" : "remix",
                      "shape" : "text-rectangle",
                      "style" : "basic",
                      "fill-color-blue" : 0.270588235294118,
                      "fill-color-green" : 0.243137254901961,
                      "fill-color-opacity" : 1.0,
                      "fill-color-red" : 0.211764705882353,
                      "height" : 132.235294117883,
                      "line-spacing" : 0.0,
                      "stroke-color-blue" : 0.890196078431372,
                      "stroke-color-green" : 0.870588235294118,
                      "stroke-color-opacity" : 1.0,
                      "stroke-color-red" : 0.847058823529412,
                      "stroke-width" : 2.0,
                      "tail-x" : -833.088235294024,
                      "tail-y" : 32.7573529411108,
                      "width" : 1859.11072664584,
                      "word-wrap" : 1.0,
                      "fill-style" : "solid",
                      "horizontal-alignment" : "center",
                      "resize-behavior" : "resizeText",
                      "stroke-style" : "solid",
                      "text" : "The researcher is having a cup of tea",
                      "vertical-alignment" : "center",
                      "font" : {
                        "color-blue" : 0.266666666666667,
                        "color-green" : 0.231372549019608,
                        "color-opacity" : 1.0,
                        "color-red" : 0.184313725490196,
                        "size" : 64.0,
                        "tracking" : 0.0,
                        "name" : "Montserrat",
                        "weight" : "Regular"
                      },
                      "textAttributes" : {
                        "type" : "textAttributeList",
                        "keyframes" : [
                          {
                            "endTime" : 0,
                            "time" : 0,
                            "value" : [{"name":"underline","rangeEnd":37,"rangeStart":0,"value":0,"valueType":"int"},{"name":"strikethrough","rangeEnd":37,"rangeStart":0,"value":0,"valueType":"int"},{"name":"fontName","rangeEnd":37,"rangeStart":0,"value":"Montserrat","valueType":"string"},{"name":"fontItalic","rangeEnd":37,"rangeStart":0,"value":0,"valueType":"int"},{"name":"fontSize","rangeEnd":37,"rangeStart":0,"value":80,"valueType":"double"},{"name":"fontWeight","rangeEnd":37,"rangeStart":0,"value":400,"valueType":"int"},{"name":"kerning","rangeEnd":37,"rangeStart":0,"value":0,"valueType":"double"},{"name":"fgColor","rangeEnd":37,"rangeStart":0,"value":"(255,255,255,255)","valueType":"color"}],
                            "duration" : 0
                          }
                        ]
                      }
                    },
                    "attributes" : {
                      "autoRotateText" : true
                    },
                    "parameters" : {
                      "translation0" : -9.12336872715969e-11,
                      "translation1" : -590.119485294299
                    },
                    "effects" : [
                        {
                          "effectName" : "DropShadow",
                          "category" : "categoryVisualEffects",
                          "parameters" : {
                            "angle" : 5.49778714378214,
                            "blur" : 10.0,
                            "color-alpha" : 1.0,
                            "color-blue" : 0.1216,
                            "color-green" : 0.1216,
                            "color-red" : 0.1216,
                            "enabled" : 1,
                            "offset" : 10.0,
                            "opacity" : 0.4
                          }
                        }
                    ],
                    "start" : 1444,
                    "duration" : 169,
                    "mediaStart" : 31,
                    "mediaDuration" : 169,
                    "scalar" : 1,
                    "metadata" : {
                      "WinSubProjectDisplayName" : "",
                      "clipSpeedAttribute" : false,
                      "default-HAlign" : "center",
                      "default-LineSpace" : 0.0,
                      "default-VAlign" : "center",
                      "default-fill-color-blue" : 1.0,
                      "default-fill-color-green" : 1.0,
                      "default-fill-color-red" : 1.0,
                      "default-scale0" : 1.0,
                      "default-scale1" : 1.0,
                      "default-stroke-color-blue" : 0.56078431372549,
                      "default-stroke-color-green" : 0.686274509803922,
                      "default-stroke-color-red" : 0.0196078431372549,
                      "default-text-attributes" : "[{\"name\":\"fontSize\",\"rangeEnd\":32,\"rangeStart\":0,\"value\":64,\"valueType\":\"double\"},{\"name\":\"fgColor\",\"rangeEnd\":32,\"rangeStart\":0,\"value\":\"(255,255,255,255)\",\"valueType\":\"color\"},{\"name\":\"fontWeight\",\"rangeEnd\":32,\"rangeStart\":0,\"value\":400,\"valueType\":\"int\"},{\"name\":\"fontName\",\"rangeEnd\":32,\"rangeStart\":0,\"value\":\"Montserrat\",\"valueType\":\"string\"},{\"name\":\"fontItalic\",\"rangeEnd\":32,\"rangeStart\":0,\"value\":0,\"valueType\":\"int\"},{\"name\":\"strikethrough\",\"rangeEnd\":32,\"rangeStart\":0,\"value\":0,\"valueType\":\"int\"},{\"name\":\"underline\",\"rangeEnd\":32,\"rangeStart\":0,\"value\":0,\"valueType\":\"int\"}]",
                      "default-translation0" : 0.0,
                      "default-translation1" : 0.0
                    },
                    "animationTracks" : {

                    }
                  },
                  {
                    "id" : 330,
                    "_type" : "Callout",
                    "def" : {
                      "kind" : "remix",
                      "shape" : "text-rectangle",
                      "style" : "basic",
                      "fill-color-blue" : 0.270588235294118,
                      "fill-color-green" : 0.243137254901961,
                      "fill-color-opacity" : 1.0,
                      "fill-color-red" : 0.211764705882353,
                      "height" : 152.823529411936,
                      "line-spacing" : 0.0,
                      "stroke-color-blue" : 0.890196078431372,
                      "stroke-color-green" : 0.870588235294118,
                      "stroke-color-opacity" : 1.0,
                      "stroke-color-red" : 0.847058823529412,
                      "stroke-width" : 2.0,
                      "tail-x" : -931.617647058732,
                      "tail-y" : 22.4632352940843,
                      "width" : 2274.17647059171,
                      "word-wrap" : 1.0,
                      "fill-style" : "solid",
                      "horizontal-alignment" : "center",
                      "resize-behavior" : "resizeText",
                      "stroke-style" : "solid",
                      "text" : "The attacker is launching the app, which loads its driver",
                      "vertical-alignment" : "center",
                      "font" : {
                        "color-blue" : 0.266666666666667,
                        "color-green" : 0.231372549019608,
                        "color-opacity" : 1.0,
                        "color-red" : 0.184313725490196,
                        "size" : 64.0,
                        "tracking" : 0.0,
                        "name" : "Montserrat",
                        "weight" : "Regular"
                      },
                      "textAttributes" : {
                        "type" : "textAttributeList",
                        "keyframes" : [
                          {
                            "endTime" : 0,
                            "time" : 0,
                            "value" : [{"name":"underline","rangeEnd":57,"rangeStart":0,"value":0,"valueType":"int"},{"name":"fontSize","rangeEnd":57,"rangeStart":0,"value":80,"valueType":"double"},{"name":"fontWeight","rangeEnd":57,"rangeStart":0,"value":400,"valueType":"int"},{"name":"strikethrough","rangeEnd":57,"rangeStart":0,"value":0,"valueType":"int"},{"name":"fontItalic","rangeEnd":57,"rangeStart":0,"value":0,"valueType":"int"},{"name":"fgColor","rangeEnd":57,"rangeStart":0,"value":"(255,255,255,255)","valueType":"color"},{"name":"fontName","rangeEnd":57,"rangeStart":0,"value":"Montserrat","valueType":"string"}],
                            "duration" : 0
                          }
                        ]
                      }
                    },
                    "attributes" : {
                      "autoRotateText" : true
                    },
                    "parameters" : {
                      "translation0" : -1.23918653116561e-11,
                      "translation1" : -582.766544117689
                    },
                    "effects" : [
                        {
                          "effectName" : "DropShadow",
                          "category" : "categoryVisualEffects",
                          "parameters" : {
                            "angle" : 5.49778714378214,
                            "blur" : 10.0,
                            "color-alpha" : 1.0,
                            "color-blue" : 0.1216,
                            "color-green" : 0.1216,
                            "color-red" : 0.1216,
                            "enabled" : 1,
                            "offset" : 10.0,
                            "opacity" : 0.4
                          }
                        }
                    ],
                    "start" : 1622,
                    "duration" : 103,
                    "mediaStart" : -30,
                    "mediaDuration" : 103,
                    "scalar" : 1,
                    "metadata" : {
                      "WinSubProjectDisplayName" : "",
                      "clipSpeedAttribute" : false,
                      "default-HAlign" : "center",
                      "default-LineSpace" : 0.0,
                      "default-VAlign" : "center",
                      "default-fill-color-blue" : 1.0,
                      "default-fill-color-green" : 1.0,
                      "default-fill-color-red" : 1.0,
                      "default-stroke-color-blue" : 0.56078431372549,
                      "default-stroke-color-green" : 0.686274509803922,
                      "default-stroke-color-red" : 0.0196078431372549,
                      "default-text-attributes" : "[{\"name\":\"fontSize\",\"rangeEnd\":32,\"rangeStart\":0,\"value\":64,\"valueType\":\"double\"},{\"name\":\"fgColor\",\"rangeEnd\":32,\"rangeStart\":0,\"value\":\"(255,255,255,255)\",\"valueType\":\"color\"},{\"name\":\"fontWeight\",\"rangeEnd\":32,\"rangeStart\":0,\"value\":400,\"valueType\":\"int\"},{\"name\":\"fontName\",\"rangeEnd\":32,\"rangeStart\":0,\"value\":\"Montserrat\",\"valueType\":\"string\"},{\"name\":\"fontItalic\",\"rangeEnd\":32,\"rangeStart\":0,\"value\":0,\"valueType\":\"int\"},{\"name\":\"strikethrough\",\"rangeEnd\":32,\"rangeStart\":0,\"value\":0,\"valueType\":\"int\"},{\"name\":\"underline\",\"rangeEnd\":32,\"rangeStart\":0,\"value\":0,\"valueType\":\"int\"}]",
                      "default-translation0" : 0.0,
                      "default-translation1" : 0.0
                    },
                    "animationTracks" : {

                    }
                  },
                  {
                    "id" : 331,
                    "_type" : "Callout",
                    "def" : {
                      "kind" : "remix",
                      "shape" : "text-rectangle",
                      "style" : "basic",
                      "fill-color-blue" : 0.270588235294118,
                      "fill-color-green" : 0.243137254901961,
                      "fill-color-opacity" : 1.0,
                      "fill-color-red" : 0.211764705882353,
                      "height" : 152.823529411936,
                      "line-spacing" : 0.0,
                      "stroke-color-blue" : 0.890196078431372,
                      "stroke-color-green" : 0.870588235294118,
                      "stroke-color-opacity" : 1.0,
                      "stroke-color-red" : 0.847058823529412,
                      "stroke-width" : 2.0,
                      "tail-x" : -884.558823529268,
                      "tail-y" : 22.4632352940843,
                      "width" : 1327.11764706212,
                      "word-wrap" : 1.0,
                      "fill-style" : "solid",
                      "horizontal-alignment" : "center",
                      "resize-behavior" : "resizeText",
                      "stroke-style" : "solid",
                      "text" : "The attacker's app is loaded ",
                      "vertical-alignment" : "center",
                      "font" : {
                        "color-blue" : 0.266666666666667,
                        "color-green" : 0.231372549019608,
                        "color-opacity" : 1.0,
                        "color-red" : 0.184313725490196,
                        "size" : 64.0,
                        "tracking" : 0.0,
                        "name" : "Montserrat",
                        "weight" : "Regular"
                      },
                      "textAttributes" : {
                        "type" : "textAttributeList",
                        "keyframes" : [
                          {
                            "endTime" : 0,
                            "time" : 0,
                            "value" : [{"name":"fontWeight","rangeEnd":29,"rangeStart":0,"value":400,"valueType":"int"},{"name":"fontItalic","rangeEnd":29,"rangeStart":0,"value":0,"valueType":"int"},{"name":"fgColor","rangeEnd":29,"rangeStart":0,"value":"(255,255,255,255)","valueType":"color"},{"name":"strikethrough","rangeEnd":29,"rangeStart":0,"value":0,"valueType":"int"},{"name":"fontName","rangeEnd":29,"rangeStart":0,"value":"Montserrat","valueType":"string"},{"name":"fontSize","rangeEnd":29,"rangeStart":0,"value":80,"valueType":"double"},{"name":"underline","rangeEnd":29,"rangeStart":0,"value":0,"valueType":"int"},{"name":"kerning","rangeEnd":29,"rangeStart":0,"value":0,"valueType":"double"}],
                            "duration" : 0
                          }
                        ]
                      }
                    },
                    "attributes" : {
                      "autoRotateText" : true
                    },
                    "parameters" : {
                      "translation0" : -1.92557081390987e-11,
                      "translation1" : -579.825367647103
                    },
                    "effects" : [
                        {
                          "effectName" : "DropShadow",
                          "category" : "categoryVisualEffects",
                          "parameters" : {
                            "angle" : 5.49778714378214,
                            "blur" : 10.0,
                            "color-alpha" : 1.0,
                            "color-blue" : 0.1216,
                            "color-green" : 0.1216,
                            "color-red" : 0.1216,
                            "enabled" : 1,
                            "offset" : 10.0,
                            "opacity" : 0.4
                          }
                        }
                    ],
                    "start" : 1725,
                    "duration" : 68,
                    "mediaStart" : -30,
                    "mediaDuration" : 68,
                    "scalar" : 1,
                    "metadata" : {
                      "WinSubProjectDisplayName" : "",
                      "clipSpeedAttribute" : false,
                      "default-HAlign" : "center",
                      "default-LineSpace" : 0.0,
                      "default-VAlign" : "center",
                      "default-fill-color-blue" : 1.0,
                      "default-fill-color-green" : 1.0,
                      "default-fill-color-red" : 1.0,
                      "default-stroke-color-blue" : 0.56078431372549,
                      "default-stroke-color-green" : 0.686274509803922,
                      "default-stroke-color-red" : 0.0196078431372549,
                      "default-text-attributes" : "[{\"name\":\"fontSize\",\"rangeEnd\":32,\"rangeStart\":0,\"value\":64,\"valueType\":\"double\"},{\"name\":\"fgColor\",\"rangeEnd\":32,\"rangeStart\":0,\"value\":\"(255,255,255,255)\",\"valueType\":\"color\"},{\"name\":\"fontWeight\",\"rangeEnd\":32,\"rangeStart\":0,\"value\":400,\"valueType\":\"int\"},{\"name\":\"fontName\",\"rangeEnd\":32,\"rangeStart\":0,\"value\":\"Montserrat\",\"valueType\":\"string\"},{\"name\":\"fontItalic\",\"rangeEnd\":32,\"rangeStart\":0,\"value\":0,\"valueType\":\"int\"},{\"name\":\"strikethrough\",\"rangeEnd\":32,\"rangeStart\":0,\"value\":0,\"valueType\":\"int\"},{\"name\":\"underline\",\"rangeEnd\":32,\"rangeStart\":0,\"value\":0,\"valueType\":\"int\"}]",
                      "default-translation0" : 0.0,
                      "default-translation1" : 0.0
                    },
                    "animationTracks" : {

                    }
                  },
                  {
                    "id" : 332,
                    "_type" : "Callout",
                    "def" : {
                      "kind" : "remix",
                      "shape" : "text-rectangle",
                      "style" : "basic",
                      "fill-color-blue" : 0.270588235294118,
                      "fill-color-green" : 0.243137254901961,
                      "fill-color-opacity" : 1.0,
                      "fill-color-red" : 0.211764705882353,
                      "height" : 164.588235294193,
                      "line-spacing" : 0.0,
                      "stroke-color-blue" : 0.890196078431372,
                      "stroke-color-green" : 0.870588235294118,
                      "stroke-color-opacity" : 1.0,
                      "stroke-color-red" : 0.847058823529412,
                      "stroke-width" : 2.0,
                      "tail-x" : -687.49999999985,
                      "tail-y" : 16.5808823529556,
                      "width" : 2438.88235294452,
                      "word-wrap" : 1.0,
                      "fill-style" : "solid",
                      "horizontal-alignment" : "center",
                      "resize-behavior" : "resizeText",
                      "stroke-style" : "solid",
                      "text" : "The attacker is trying to open the secret file using ZwCreateFile",
                      "vertical-alignment" : "center",
                      "font" : {
                        "color-blue" : 0.266666666666667,
                        "color-green" : 0.231372549019608,
                        "color-opacity" : 1.0,
                        "color-red" : 0.184313725490196,
                        "size" : 64.0,
                        "tracking" : 0.0,
                        "name" : "Montserrat",
                        "weight" : "Regular"
                      },
                      "textAttributes" : {
                        "type" : "textAttributeList",
                        "keyframes" : [
                          {
                            "endTime" : 0,
                            "time" : 0,
                            "value" : [{"name":"strikethrough","rangeEnd":65,"rangeStart":0,"value":0,"valueType":"int"},{"name":"fontItalic","rangeEnd":65,"rangeStart":0,"value":0,"valueType":"int"},{"name":"fontSize","rangeEnd":65,"rangeStart":0,"value":75,"valueType":"double"},{"name":"fgColor","rangeEnd":65,"rangeStart":0,"value":"(255,255,255,255)","valueType":"color"},{"name":"fontName","rangeEnd":65,"rangeStart":0,"value":"Montserrat","valueType":"string"},{"name":"fontWeight","rangeEnd":65,"rangeStart":0,"value":400,"valueType":"int"},{"name":"underline","rangeEnd":65,"rangeStart":0,"value":0,"valueType":"int"}],
                            "duration" : 0
                          }
                        ]
                      }
                    },
                    "attributes" : {
                      "autoRotateText" : true
                    },
                    "parameters" : {
                      "translation0" : 21.7941679109165,
                      "translation1" : -579.825367647146
                    },
                    "effects" : [
                        {
                          "effectName" : "DropShadow",
                          "category" : "categoryVisualEffects",
                          "parameters" : {
                            "angle" : 5.49778714378214,
                            "blur" : 10.0,
                            "color-alpha" : 1.0,
                            "color-blue" : 0.1216,
                            "color-green" : 0.1216,
                            "color-red" : 0.1216,
                            "enabled" : 1,
                            "offset" : 10.0,
                            "opacity" : 0.4
                          }
                        }
                    ],
                    "start" : 1823,
                    "duration" : 90,
                    "mediaStart" : -18,
                    "mediaDuration" : 90,
                    "scalar" : 1,
                    "metadata" : {
                      "WinSubProjectDisplayName" : "",
                      "clipSpeedAttribute" : false,
                      "default-HAlign" : "center",
                      "default-LineSpace" : 0.0,
                      "default-VAlign" : "center",
                      "default-fill-color-blue" : 1.0,
                      "default-fill-color-green" : 1.0,
                      "default-fill-color-red" : 1.0,
                      "default-scale0" : 1.0,
                      "default-scale1" : 1.0,
                      "default-stroke-color-blue" : 0.56078431372549,
                      "default-stroke-color-green" : 0.686274509803922,
                      "default-stroke-color-red" : 0.0196078431372549,
                      "default-text-attributes" : "[{\"name\":\"fontSize\",\"rangeEnd\":32,\"rangeStart\":0,\"value\":64,\"valueType\":\"double\"},{\"name\":\"fgColor\",\"rangeEnd\":32,\"rangeStart\":0,\"value\":\"(255,255,255,255)\",\"valueType\":\"color\"},{\"name\":\"fontWeight\",\"rangeEnd\":32,\"rangeStart\":0,\"value\":400,\"valueType\":\"int\"},{\"name\":\"fontName\",\"rangeEnd\":32,\"rangeStart\":0,\"value\":\"Montserrat\",\"valueType\":\"string\"},{\"name\":\"fontItalic\",\"rangeEnd\":32,\"rangeStart\":0,\"value\":0,\"valueType\":\"int\"},{\"name\":\"strikethrough\",\"rangeEnd\":32,\"rangeStart\":0,\"value\":0,\"valueType\":\"int\"},{\"name\":\"underline\",\"rangeEnd\":32,\"rangeStart\":0,\"value\":0,\"valueType\":\"int\"}]",
                      "default-translation0" : 0.0,
                      "default-translation1" : 0.0
                    },
                    "animationTracks" : {

                    }
                  },
                  {
                    "id" : 333,
                    "_type" : "Callout",
                    "def" : {
                      "kind" : "remix",
                      "shape" : "text-rectangle",
                      "style" : "basic",
                      "fill-color-blue" : 0.2,
                      "fill-color-green" : 0.4,
                      "fill-color-opacity" : 1.0,
                      "fill-color-red" : 0.0,
                      "height" : 190.705882353224,
                      "line-spacing" : 0.0,
                      "stroke-color-blue" : 0.890196078431372,
                      "stroke-color-green" : 0.870588235294118,
                      "stroke-color-opacity" : 1.0,
                      "stroke-color-red" : 0.847058823529412,
                      "stroke-width" : 2.0,
                      "tail-x" : -2.20588235284424,
                      "tail-y" : 15.3553921567579,
                      "width" : 2029.81682799838,
                      "word-wrap" : 1.0,
                      "fill-style" : "solid",
                      "horizontal-alignment" : "center",
                      "resize-behavior" : "resizeText",
                      "stroke-style" : "solid",
                      "text" : "The attacker fails to open the secret file and \rgets 0xC0000043 or STATUS_SHARING_VIOLATION",
                      "vertical-alignment" : "center",
                      "font" : {
                        "color-blue" : 0.266666666666667,
                        "color-green" : 0.231372549019608,
                        "color-opacity" : 1.0,
                        "color-red" : 0.184313725490196,
                        "size" : 64.0,
                        "tracking" : 0.0,
                        "name" : "Montserrat",
                        "weight" : "Regular"
                      },
                      "textAttributes" : {
                        "type" : "textAttributeList",
                        "keyframes" : [
                          {
                            "endTime" : 0,
                            "time" : 0,
                            "value" : [{"name":"fontSize","rangeEnd":91,"rangeStart":0,"value":75,"valueType":"double"},{"name":"fontName","rangeEnd":91,"rangeStart":0,"value":"Montserrat","valueType":"string"},{"name":"fontItalic","rangeEnd":91,"rangeStart":0,"value":0,"valueType":"int"},{"name":"fgColor","rangeEnd":91,"rangeStart":0,"value":"(255,255,255,255)","valueType":"color"},{"name":"strikethrough","rangeEnd":91,"rangeStart":0,"value":0,"valueType":"int"},{"name":"fontWeight","rangeEnd":91,"rangeStart":0,"value":400,"valueType":"int"},{"name":"underline","rangeEnd":91,"rangeStart":0,"value":0,"valueType":"int"}],
                            "duration" : 0
                          }
                        ]
                      }
                    },
                    "attributes" : {
                      "autoRotateText" : true
                    },
                    "parameters" : {
                      "translation0" : -32.0312398280225,
                      "translation1" : -608.011642156888
                    },
                    "effects" : [
                        {
                          "effectName" : "DropShadow",
                          "category" : "categoryVisualEffects",
                          "parameters" : {
                            "angle" : 5.49778714378214,
                            "blur" : 10.0,
                            "color-alpha" : 1.0,
                            "color-blue" : 0.1216,
                            "color-green" : 0.1216,
                            "color-red" : 0.1216,
                            "enabled" : 1,
                            "offset" : 10.0,
                            "opacity" : 0.4
                          }
                        }
                    ],
                    "start" : 1968,
                    "duration" : 182,
                    "mediaStart" : -21,
                    "mediaDuration" : 182,
                    "scalar" : 1,
                    "metadata" : {
                      "WinSubProjectDisplayName" : "",
                      "clipSpeedAttribute" : false,
                      "default-HAlign" : "center",
                      "default-LineSpace" : 0.0,
                      "default-VAlign" : "center",
                      "default-fill-color-blue" : 1.0,
                      "default-fill-color-green" : 1.0,
                      "default-fill-color-red" : 1.0,
                      "default-scale0" : 1.0,
                      "default-scale1" : 1.0,
                      "default-stroke-color-blue" : 0.56078431372549,
                      "default-stroke-color-green" : 0.686274509803922,
                      "default-stroke-color-red" : 0.0196078431372549,
                      "default-text-attributes" : "[{\"name\":\"fontSize\",\"rangeEnd\":32,\"rangeStart\":0,\"value\":64,\"valueType\":\"double\"},{\"name\":\"fgColor\",\"rangeEnd\":32,\"rangeStart\":0,\"value\":\"(255,255,255,255)\",\"valueType\":\"color\"},{\"name\":\"fontWeight\",\"rangeEnd\":32,\"rangeStart\":0,\"value\":400,\"valueType\":\"int\"},{\"name\":\"fontName\",\"rangeEnd\":32,\"rangeStart\":0,\"value\":\"Montserrat\",\"valueType\":\"string\"},{\"name\":\"fontItalic\",\"rangeEnd\":32,\"rangeStart\":0,\"value\":0,\"valueType\":\"int\"},{\"name\":\"strikethrough\",\"rangeEnd\":32,\"rangeStart\":0,\"value\":0,\"valueType\":\"int\"},{\"name\":\"underline\",\"rangeEnd\":32,\"rangeStart\":0,\"value\":0,\"valueType\":\"int\"}]",
                      "default-translation0" : 0.0,
                      "default-translation1" : 0.0
                    },
                    "animationTracks" : {

                    }
                  },
                  {
                    "id" : 334,
                    "_type" : "Callout",
                    "def" : {
                      "kind" : "remix",
                      "shape" : "text-rectangle",
                      "style" : "basic",
                      "fill-color-blue" : 0.270588235294118,
                      "fill-color-green" : 0.243137254901961,
                      "fill-color-opacity" : 1.0,
                      "fill-color-red" : 0.211764705882353,
                      "height" : 146.941176470643,
                      "line-spacing" : 0.0,
                      "stroke-color-blue" : 0.890196078431372,
                      "stroke-color-green" : 0.870588235294118,
                      "stroke-color-opacity" : 1.0,
                      "stroke-color-red" : 0.847058823529412,
                      "stroke-width" : 2.0,
                      "tail-x" : -1041.02941176454,
                      "tail-y" : 25.4044117647309,
                      "width" : 2291.8549019642,
                      "word-wrap" : 1.0,
                      "fill-style" : "solid",
                      "horizontal-alignment" : "center",
                      "resize-behavior" : "resizeText",
                      "stroke-style" : "solid",
                      "text" : "The attacker is trying the Handle Hijacking Attack",
                      "vertical-alignment" : "center",
                      "font" : {
                        "color-blue" : 0.266666666666667,
                        "color-green" : 0.231372549019608,
                        "color-opacity" : 1.0,
                        "color-red" : 0.184313725490196,
                        "size" : 64.0,
                        "tracking" : 0.0,
                        "name" : "Montserrat",
                        "weight" : "Regular"
                      },
                      "textAttributes" : {
                        "type" : "textAttributeList",
                        "keyframes" : [
                          {
                            "endTime" : 0,
                            "time" : 0,
                            "value" : [{"name":"fontSize","rangeEnd":50,"rangeStart":0,"value":80,"valueType":"double"},{"name":"fontItalic","rangeEnd":50,"rangeStart":0,"value":0,"valueType":"int"},{"name":"fgColor","rangeEnd":50,"rangeStart":0,"value":"(255,255,255,255)","valueType":"color"},{"name":"fontName","rangeEnd":50,"rangeStart":0,"value":"Montserrat","valueType":"string"},{"name":"strikethrough","rangeEnd":50,"rangeStart":0,"value":0,"valueType":"int"},{"name":"underline","rangeEnd":50,"rangeStart":0,"value":0,"valueType":"int"},{"name":"fontWeight","rangeEnd":50,"rangeStart":0,"value":400,"valueType":"int"}],
                            "duration" : 0
                          }
                        ]
                      }
                    },
                    "attributes" : {
                      "autoRotateText" : true
                    },
                    "parameters" : {
                      "translation0" : -8.0831341620069e-11,
                      "translation1" : -612.178308823861
                    },
                    "effects" : [
                        {
                          "effectName" : "DropShadow",
                          "category" : "categoryVisualEffects",
                          "parameters" : {
                            "angle" : 5.49778714378214,
                            "blur" : 10.0,
                            "color-alpha" : 1.0,
                            "color-blue" : 0.1216,
                            "color-green" : 0.1216,
                            "color-red" : 0.1216,
                            "enabled" : 1,
                            "offset" : 10.0,
                            "opacity" : 0.4
                          }
                        }
                    ],
                    "start" : 2151,
                    "duration" : 97,
                    "mediaStart" : -86,
                    "mediaDuration" : 97,
                    "scalar" : 1,
                    "metadata" : {
                      "WinSubProjectDisplayName" : "",
                      "clipSpeedAttribute" : false,
                      "default-HAlign" : "center",
                      "default-LineSpace" : 0.0,
                      "default-VAlign" : "center",
                      "default-fill-color-blue" : 1.0,
                      "default-fill-color-green" : 1.0,
                      "default-fill-color-red" : 1.0,
                      "default-scale0" : 1.0,
                      "default-scale1" : 1.0,
                      "default-stroke-color-blue" : 0.56078431372549,
                      "default-stroke-color-green" : 0.686274509803922,
                      "default-stroke-color-red" : 0.0196078431372549,
                      "default-text-attributes" : "[{\"name\":\"fontSize\",\"rangeEnd\":32,\"rangeStart\":0,\"value\":64,\"valueType\":\"double\"},{\"name\":\"fgColor\",\"rangeEnd\":32,\"rangeStart\":0,\"value\":\"(255,255,255,255)\",\"valueType\":\"color\"},{\"name\":\"fontWeight\",\"rangeEnd\":32,\"rangeStart\":0,\"value\":400,\"valueType\":\"int\"},{\"name\":\"fontName\",\"rangeEnd\":32,\"rangeStart\":0,\"value\":\"Montserrat\",\"valueType\":\"string\"},{\"name\":\"fontItalic\",\"rangeEnd\":32,\"rangeStart\":0,\"value\":0,\"valueType\":\"int\"},{\"name\":\"strikethrough\",\"rangeEnd\":32,\"rangeStart\":0,\"value\":0,\"valueType\":\"int\"},{\"name\":\"underline\",\"rangeEnd\":32,\"rangeStart\":0,\"value\":0,\"valueType\":\"int\"}]",
                      "default-translation0" : 0.0,
                      "default-translation1" : 0.0
                    },
                    "animationTracks" : {

                    }
                  },
                  {
                    "id" : 335,
                    "_type" : "Callout",
                    "def" : {
                      "kind" : "remix",
                      "shape" : "text-rectangle",
                      "style" : "basic",
                      "fill-color-blue" : 0.270588235294118,
                      "fill-color-green" : 0.243137254901961,
                      "fill-color-opacity" : 1.0,
                      "fill-color-red" : 0.211764705882353,
                      "height" : 138.117647059101,
                      "line-spacing" : 0.0,
                      "stroke-color-blue" : 0.890196078431372,
                      "stroke-color-green" : 0.870588235294118,
                      "stroke-color-opacity" : 1.0,
                      "stroke-color-red" : 0.847058823529412,
                      "stroke-width" : 2.0,
                      "tail-x" : -903.676470588141,
                      "tail-y" : 29.816176470502,
                      "width" : 2330.05882353289,
                      "word-wrap" : 1.0,
                      "fill-style" : "solid",
                      "horizontal-alignment" : "center",
                      "resize-behavior" : "resizeText",
                      "stroke-style" : "solid",
                      "text" : "The attacker is copying the handle of the secret file",
                      "vertical-alignment" : "center",
                      "font" : {
                        "color-blue" : 0.266666666666667,
                        "color-green" : 0.231372549019608,
                        "color-opacity" : 1.0,
                        "color-red" : 0.184313725490196,
                        "size" : 64.0,
                        "tracking" : 0.0,
                        "name" : "Montserrat",
                        "weight" : "Regular"
                      },
                      "textAttributes" : {
                        "type" : "textAttributeList",
                        "keyframes" : [
                          {
                            "endTime" : 0,
                            "time" : 0,
                            "value" : [{"name":"strikethrough","rangeEnd":53,"rangeStart":0,"value":0,"valueType":"int"},{"name":"fontName","rangeEnd":53,"rangeStart":0,"value":"Montserrat","valueType":"string"},{"name":"fontSize","rangeEnd":53,"rangeStart":0,"value":80,"valueType":"double"},{"name":"fgColor","rangeEnd":53,"rangeStart":0,"value":"(255,255,255,255)","valueType":"color"},{"name":"fontWeight","rangeEnd":53,"rangeStart":0,"value":400,"valueType":"int"},{"name":"underline","rangeEnd":53,"rangeStart":0,"value":0,"valueType":"int"},{"name":"fontItalic","rangeEnd":53,"rangeStart":0,"value":0,"valueType":"int"}],
                            "duration" : 0
                          }
                        ]
                      }
                    },
                    "attributes" : {
                      "autoRotateText" : true
                    },
                    "parameters" : {
                      "translation0" : -8.33324520499445e-11,
                      "translation1" : -601.884191176458
                    },
                    "effects" : [
                        {
                          "effectName" : "DropShadow",
                          "category" : "categoryVisualEffects",
                          "parameters" : {
                            "angle" : 5.49778714378214,
                            "blur" : 10.0,
                            "color-alpha" : 1.0,
                            "color-blue" : 0.1216,
                            "color-green" : 0.1216,
                            "color-red" : 0.1216,
                            "enabled" : 1,
                            "offset" : 10.0,
                            "opacity" : 0.4
                          }
                        }
                    ],
                    "start" : 2279,
                    "duration" : 130,
                    "mediaStart" : -86,
                    "mediaDuration" : 130,
                    "scalar" : 1,
                    "metadata" : {
                      "WinSubProjectDisplayName" : "",
                      "clipSpeedAttribute" : false,
                      "default-HAlign" : "center",
                      "default-LineSpace" : 0.0,
                      "default-VAlign" : "center",
                      "default-fill-color-blue" : 1.0,
                      "default-fill-color-green" : 1.0,
                      "default-fill-color-red" : 1.0,
                      "default-scale0" : 1.0,
                      "default-scale1" : 1.0,
                      "default-stroke-color-blue" : 0.56078431372549,
                      "default-stroke-color-green" : 0.686274509803922,
                      "default-stroke-color-red" : 0.0196078431372549,
                      "default-text-attributes" : "[{\"name\":\"fontSize\",\"rangeEnd\":32,\"rangeStart\":0,\"value\":64,\"valueType\":\"double\"},{\"name\":\"fgColor\",\"rangeEnd\":32,\"rangeStart\":0,\"value\":\"(255,255,255,255)\",\"valueType\":\"color\"},{\"name\":\"fontWeight\",\"rangeEnd\":32,\"rangeStart\":0,\"value\":400,\"valueType\":\"int\"},{\"name\":\"fontName\",\"rangeEnd\":32,\"rangeStart\":0,\"value\":\"Montserrat\",\"valueType\":\"string\"},{\"name\":\"fontItalic\",\"rangeEnd\":32,\"rangeStart\":0,\"value\":0,\"valueType\":\"int\"},{\"name\":\"strikethrough\",\"rangeEnd\":32,\"rangeStart\":0,\"value\":0,\"valueType\":\"int\"},{\"name\":\"underline\",\"rangeEnd\":32,\"rangeStart\":0,\"value\":0,\"valueType\":\"int\"}]",
                      "default-translation0" : 0.0,
                      "default-translation1" : 0.0
                    },
                    "animationTracks" : {

                    }
                  },
                  {
                    "id" : 336,
                    "_type" : "Callout",
                    "def" : {
                      "kind" : "remix",
                      "shape" : "text-rectangle",
                      "style" : "basic",
                      "fill-color-blue" : 0.270588235294118,
                      "fill-color-green" : 0.243137254901961,
                      "fill-color-opacity" : 1.0,
                      "fill-color-red" : 0.211764705882353,
                      "height" : 102.823529411536,
                      "line-spacing" : 0.0,
                      "stroke-color-blue" : 0.890196078431372,
                      "stroke-color-green" : 0.870588235294118,
                      "stroke-color-opacity" : 1.0,
                      "stroke-color-red" : 0.847058823529412,
                      "stroke-width" : 2.0,
                      "tail-x" : -877.205882352857,
                      "tail-y" : -2.53676470597329,
                      "width" : 2217.82352941496,
                      "word-wrap" : 1.0,
                      "fill-style" : "solid",
                      "horizontal-alignment" : "center",
                      "resize-behavior" : "resizeText",
                      "stroke-style" : "solid",
                      "text" : "The attacker is trying to access the secret file",
                      "vertical-alignment" : "center",
                      "font" : {
                        "color-blue" : 0.266666666666667,
                        "color-green" : 0.231372549019608,
                        "color-opacity" : 1.0,
                        "color-red" : 0.184313725490196,
                        "size" : 64.0,
                        "tracking" : 0.0,
                        "name" : "Montserrat",
                        "weight" : "Regular"
                      },
                      "textAttributes" : {
                        "type" : "textAttributeList",
                        "keyframes" : [
                          {
                            "endTime" : 0,
                            "time" : 0,
                            "value" : [{"name":"fgColor","rangeEnd":48,"rangeStart":0,"value":"(255,255,255,255)","valueType":"color"},{"name":"fontItalic","rangeEnd":48,"rangeStart":0,"value":0,"valueType":"int"},{"name":"fontWeight","rangeEnd":48,"rangeStart":0,"value":400,"valueType":"int"},{"name":"strikethrough","rangeEnd":48,"rangeStart":0,"value":0,"valueType":"int"},{"name":"underline","rangeEnd":48,"rangeStart":0,"value":0,"valueType":"int"},{"name":"fontSize","rangeEnd":48,"rangeStart":0,"value":80,"valueType":"double"},{"name":"fontName","rangeEnd":48,"rangeStart":0,"value":"Montserrat","valueType":"string"}],
                            "duration" : 0
                          }
                        ]
                      }
                    },
                    "attributes" : {
                      "autoRotateText" : true
                    },
                    "parameters" : {
                      "translation0" : -8.17408363218419e-11,
                      "translation1" : -653.882351594655
                    },
                    "effects" : [
                        {
                          "effectName" : "DropShadow",
                          "category" : "categoryVisualEffects",
                          "parameters" : {
                            "angle" : 5.49778714378214,
                            "blur" : 10.0,
                            "color-alpha" : 1.0,
                            "color-blue" : 0.1216,
                            "color-green" : 0.1216,
                            "color-red" : 0.1216,
                            "enabled" : 1,
                            "offset" : 10.0,
                            "opacity" : 0.4
                          }
                        }
                    ],
                    "start" : 2440,
                    "duration" : 92,
                    "mediaStart" : -86,
                    "mediaDuration" : 92,
                    "scalar" : 1,
                    "metadata" : {
                      "WinSubProjectDisplayName" : "",
                      "clipSpeedAttribute" : false,
                      "default-HAlign" : "center",
                      "default-LineSpace" : 0.0,
                      "default-VAlign" : "center",
                      "default-fill-color-blue" : 1.0,
                      "default-fill-color-green" : 1.0,
                      "default-fill-color-red" : 1.0,
                      "default-scale0" : 1.0,
                      "default-scale1" : 1.0,
                      "default-stroke-color-blue" : 0.56078431372549,
                      "default-stroke-color-green" : 0.686274509803922,
                      "default-stroke-color-red" : 0.0196078431372549,
                      "default-text-attributes" : "[{\"name\":\"fontSize\",\"rangeEnd\":32,\"rangeStart\":0,\"value\":64,\"valueType\":\"double\"},{\"name\":\"fgColor\",\"rangeEnd\":32,\"rangeStart\":0,\"value\":\"(255,255,255,255)\",\"valueType\":\"color\"},{\"name\":\"fontWeight\",\"rangeEnd\":32,\"rangeStart\":0,\"value\":400,\"valueType\":\"int\"},{\"name\":\"fontName\",\"rangeEnd\":32,\"rangeStart\":0,\"value\":\"Montserrat\",\"valueType\":\"string\"},{\"name\":\"fontItalic\",\"rangeEnd\":32,\"rangeStart\":0,\"value\":0,\"valueType\":\"int\"},{\"name\":\"strikethrough\",\"rangeEnd\":32,\"rangeStart\":0,\"value\":0,\"valueType\":\"int\"},{\"name\":\"underline\",\"rangeEnd\":32,\"rangeStart\":0,\"value\":0,\"valueType\":\"int\"}]",
                      "default-translation0" : 0.0,
                      "default-translation1" : 0.0
                    },
                    "animationTracks" : {

                    }
                  },
                  {
                    "id" : 337,
                    "_type" : "Callout",
                    "def" : {
                      "kind" : "remix",
                      "shape" : "text-rectangle",
                      "style" : "basic",
                      "fill-color-blue" : 0.2,
                      "fill-color-green" : 0.4,
                      "fill-color-opacity" : 1.0,
                      "fill-color-red" : 0.0,
                      "height" : 181.882352941206,
                      "line-spacing" : 0.0,
                      "stroke-color-blue" : 0.890196078431372,
                      "stroke-color-green" : 0.870588235294118,
                      "stroke-color-opacity" : 1.0,
                      "stroke-color-red" : 0.847058823529412,
                      "stroke-width" : 2.0,
                      "tail-x" : -844.85294117638,
                      "tail-y" : 19.7671568627669,
                      "width" : 1902.25614296495,
                      "word-wrap" : 1.0,
                      "fill-style" : "solid",
                      "horizontal-alignment" : "center",
                      "resize-behavior" : "resizeText",
                      "stroke-style" : "solid",
                      "text" : "The attacker fails to gain an access. \rMemoryRanger prevents Handle Hijacking Attack.",
                      "vertical-alignment" : "center",
                      "font" : {
                        "color-blue" : 0.266666666666667,
                        "color-green" : 0.231372549019608,
                        "color-opacity" : 1.0,
                        "color-red" : 0.184313725490196,
                        "size" : 64.0,
                        "tracking" : 0.0,
                        "name" : "Montserrat",
                        "weight" : "Regular"
                      },
                      "textAttributes" : {
                        "type" : "textAttributeList",
                        "keyframes" : [
                          {
                            "endTime" : 0,
                            "time" : 0,
                            "value" : [{"name":"fontWeight","rangeEnd":85,"rangeStart":0,"value":400,"valueType":"int"},{"name":"fontName","rangeEnd":85,"rangeStart":0,"value":"Montserrat","valueType":"string"},{"name":"fontSize","rangeEnd":85,"rangeStart":0,"value":75,"valueType":"double"},{"name":"fontItalic","rangeEnd":85,"rangeStart":0,"value":0,"valueType":"int"},{"name":"strikethrough","rangeEnd":85,"rangeStart":0,"value":0,"valueType":"int"},{"name":"fgColor","rangeEnd":85,"rangeStart":0,"value":"(255,255,255,255)","valueType":"color"},{"name":"underline","rangeEnd":85,"rangeStart":0,"value":0,"valueType":"int"}],
                            "duration" : 0
                          }
                        ]
                      }
                    },
                    "attributes" : {
                      "autoRotateText" : true
                    },
                    "parameters" : {
                      "translation0" : -5.41149347554892e-11,
                      "translation1" : -597.717524509857
                    },
                    "effects" : [
                        {
                          "effectName" : "DropShadow",
                          "category" : "categoryVisualEffects",
                          "parameters" : {
                            "angle" : 5.49778714378214,
                            "blur" : 10.0,
                            "color-alpha" : 1.0,
                            "color-blue" : 0.1216,
                            "color-green" : 0.1216,
                            "color-red" : 0.1216,
                            "enabled" : 1,
                            "offset" : 10.0,
                            "opacity" : 0.4
                          }
                        }
                    ],
                    "start" : 2561,
                    "duration" : 108,
                    "mediaStart" : -37,
                    "mediaDuration" : 108,
                    "scalar" : 1,
                    "metadata" : {
                      "WinSubProjectDisplayName" : "",
                      "clipSpeedAttribute" : false,
                      "default-HAlign" : "center",
                      "default-LineSpace" : 0.0,
                      "default-VAlign" : "center",
                      "default-fill-color-blue" : 1.0,
                      "default-fill-color-green" : 1.0,
                      "default-fill-color-red" : 1.0,
                      "default-scale0" : 1.0,
                      "default-scale1" : 1.0,
                      "default-stroke-color-blue" : 0.56078431372549,
                      "default-stroke-color-green" : 0.686274509803922,
                      "default-stroke-color-red" : 0.0196078431372549,
                      "default-text-attributes" : "[{\"name\":\"fontSize\",\"rangeEnd\":32,\"rangeStart\":0,\"value\":64,\"valueType\":\"double\"},{\"name\":\"fgColor\",\"rangeEnd\":32,\"rangeStart\":0,\"value\":\"(255,255,255,255)\",\"valueType\":\"color\"},{\"name\":\"fontWeight\",\"rangeEnd\":32,\"rangeStart\":0,\"value\":400,\"valueType\":\"int\"},{\"name\":\"fontName\",\"rangeEnd\":32,\"rangeStart\":0,\"value\":\"Montserrat\",\"valueType\":\"string\"},{\"name\":\"fontItalic\",\"rangeEnd\":32,\"rangeStart\":0,\"value\":0,\"valueType\":\"int\"},{\"name\":\"strikethrough\",\"rangeEnd\":32,\"rangeStart\":0,\"value\":0,\"valueType\":\"int\"},{\"name\":\"underline\",\"rangeEnd\":32,\"rangeStart\":0,\"value\":0,\"valueType\":\"int\"}]",
                      "default-translation0" : 0.0,
                      "default-translation1" : 0.0
                    },
                    "animationTracks" : {

                    }
                  },
                  {
                    "id" : 338,
                    "_type" : "Callout",
                    "def" : {
                      "kind" : "remix",
                      "shape" : "text-rectangle",
                      "style" : "basic",
                      "fill-color-blue" : 0.270588235294118,
                      "fill-color-green" : 0.243137254901961,
                      "fill-color-opacity" : 1.0,
                      "fill-color-red" : 0.211764705882353,
                      "height" : 141.058823529371,
                      "line-spacing" : 0.0,
                      "stroke-color-blue" : 0.890196078431372,
                      "stroke-color-green" : 0.870588235294118,
                      "stroke-color-opacity" : 1.0,
                      "stroke-color-red" : 0.847058823529412,
                      "stroke-width" : 2.0,
                      "tail-x" : -452.205882352904,
                      "tail-y" : -4.00735294129533,
                      "width" : 1722.72318339354,
                      "word-wrap" : 1.0,
                      "fill-style" : "solid",
                      "horizontal-alignment" : "center",
                      "resize-behavior" : "resizeText",
                      "stroke-style" : "solid",
                      "text" : "The attacker is trying to read the data",
                      "vertical-alignment" : "center",
                      "font" : {
                        "color-blue" : 0.266666666666667,
                        "color-green" : 0.231372549019608,
                        "color-opacity" : 1.0,
                        "color-red" : 0.184313725490196,
                        "size" : 64.0,
                        "tracking" : 0.0,
                        "name" : "Montserrat",
                        "weight" : "Regular"
                      },
                      "textAttributes" : {
                        "type" : "textAttributeList",
                        "keyframes" : [
                          {
                            "endTime" : 0,
                            "time" : 0,
                            "value" : [{"name":"fgColor","rangeEnd":39,"rangeStart":0,"value":"(255,255,255,255)","valueType":"color"},{"name":"strikethrough","rangeEnd":39,"rangeStart":0,"value":0,"valueType":"int"},{"name":"fontItalic","rangeEnd":39,"rangeStart":0,"value":0,"valueType":"int"},{"name":"fontSize","rangeEnd":39,"rangeStart":0,"value":80,"valueType":"double"},{"name":"fontName","rangeEnd":39,"rangeStart":0,"value":"Montserrat","valueType":"string"},{"name":"underline","rangeEnd":39,"rangeStart":0,"value":0,"valueType":"int"},{"name":"fontWeight","rangeEnd":39,"rangeStart":0,"value":400,"valueType":"int"}],
                            "duration" : 0
                          }
                        ]
                      }
                    },
                    "attributes" : {
                      "autoRotateText" : true
                    },
                    "parameters" : {
                      "translation0" : -1.47846179743283e-11,
                      "translation1" : -613.933823529152
                    },
                    "effects" : [
                        {
                          "effectName" : "DropShadow",
                          "category" : "categoryVisualEffects",
                          "parameters" : {
                            "angle" : 5.49778714378214,
                            "blur" : 10.0,
                            "color-alpha" : 1.0,
                            "color-blue" : 0.1216,
                            "color-green" : 0.1216,
                            "color-red" : 0.1216,
                            "enabled" : 1,
                            "offset" : 10.0,
                            "opacity" : 0.4
                          }
                        }
                    ],
                    "start" : 2709,
                    "duration" : 53,
                    "mediaStart" : -87,
                    "mediaDuration" : 53,
                    "scalar" : 1,
                    "metadata" : {
                      "WinSubProjectDisplayName" : "",
                      "clipSpeedAttribute" : false,
                      "default-HAlign" : "center",
                      "default-LineSpace" : 0.0,
                      "default-VAlign" : "center",
                      "default-fill-color-blue" : 1.0,
                      "default-fill-color-green" : 1.0,
                      "default-fill-color-red" : 1.0,
                      "default-scale0" : 1.0,
                      "default-scale1" : 1.0,
                      "default-stroke-color-blue" : 0.56078431372549,
                      "default-stroke-color-green" : 0.686274509803922,
                      "default-stroke-color-red" : 0.0196078431372549,
                      "default-text-attributes" : "[{\"name\":\"fontSize\",\"rangeEnd\":32,\"rangeStart\":0,\"value\":64,\"valueType\":\"double\"},{\"name\":\"fgColor\",\"rangeEnd\":32,\"rangeStart\":0,\"value\":\"(255,255,255,255)\",\"valueType\":\"color\"},{\"name\":\"fontWeight\",\"rangeEnd\":32,\"rangeStart\":0,\"value\":400,\"valueType\":\"int\"},{\"name\":\"fontName\",\"rangeEnd\":32,\"rangeStart\":0,\"value\":\"Montserrat\",\"valueType\":\"string\"},{\"name\":\"fontItalic\",\"rangeEnd\":32,\"rangeStart\":0,\"value\":0,\"valueType\":\"int\"},{\"name\":\"strikethrough\",\"rangeEnd\":32,\"rangeStart\":0,\"value\":0,\"valueType\":\"int\"},{\"name\":\"underline\",\"rangeEnd\":32,\"rangeStart\":0,\"value\":0,\"valueType\":\"int\"}]",
                      "default-translation0" : 0.0,
                      "default-translation1" : 0.0
                    },
                    "animationTracks" : {

                    }
                  },
                  {
                    "id" : 339,
                    "_type" : "Callout",
                    "def" : {
                      "kind" : "remix",
                      "shape" : "text-rectangle",
                      "style" : "basic",
                      "fill-color-blue" : 0.2,
                      "fill-color-green" : 0.4,
                      "fill-color-opacity" : 1.0,
                      "fill-color-red" : 0.0,
                      "height" : 126.352941176627,
                      "line-spacing" : 0.0,
                      "stroke-color-blue" : 0.890196078431372,
                      "stroke-color-green" : 0.870588235294118,
                      "stroke-color-opacity" : 1.0,
                      "stroke-color-red" : 0.847058823529412,
                      "stroke-width" : 2.0,
                      "tail-x" : 53.6764705883562,
                      "tail-y" : 34.0318627450485,
                      "width" : 1819.52024155792,
                      "word-wrap" : 1.0,
                      "fill-style" : "solid",
                      "horizontal-alignment" : "center",
                      "resize-behavior" : "resizeText",
                      "stroke-style" : "solid",
                      "text" : "The attacker fails to read the secret data.",
                      "vertical-alignment" : "center",
                      "font" : {
                        "color-blue" : 0.266666666666667,
                        "color-green" : 0.231372549019608,
                        "color-opacity" : 1.0,
                        "color-red" : 0.184313725490196,
                        "size" : 64.0,
                        "tracking" : 0.0,
                        "name" : "Montserrat",
                        "weight" : "Regular"
                      },
                      "textAttributes" : {
                        "type" : "textAttributeList",
                        "keyframes" : [
                          {
                            "endTime" : 0,
                            "time" : 0,
                            "value" : [{"name":"fontItalic","rangeEnd":43,"rangeStart":0,"value":0,"valueType":"int"},{"name":"fontName","rangeEnd":43,"rangeStart":0,"value":"Montserrat","valueType":"string"},{"name":"strikethrough","rangeEnd":43,"rangeStart":0,"value":0,"valueType":"int"},{"name":"fontWeight","rangeEnd":43,"rangeStart":0,"value":400,"valueType":"int"},{"name":"fgColor","rangeEnd":43,"rangeStart":0,"value":"(255,255,255,255)","valueType":"color"},{"name":"underline","rangeEnd":43,"rangeStart":0,"value":0,"valueType":"int"},{"name":"fontSize","rangeEnd":43,"rangeStart":0,"value":80,"valueType":"double"}],
                            "duration" : 0
                          }
                        ]
                      }
                    },
                    "attributes" : {
                      "autoRotateText" : true
                    },
                    "parameters" : {
                      "translation0" : -9.55537871050183e-11,
                      "translation1" : -623.74693627467
                    },
                    "effects" : [
                        {
                          "effectName" : "DropShadow",
                          "category" : "categoryVisualEffects",
                          "parameters" : {
                            "angle" : 5.49778714378214,
                            "blur" : 10.0,
                            "color-alpha" : 1.0,
                            "color-blue" : 0.1216,
                            "color-green" : 0.1216,
                            "color-red" : 0.1216,
                            "enabled" : 1,
                            "offset" : 10.0,
                            "opacity" : 0.4
                          }
                        }
                    ],
                    "start" : 2804,
                    "duration" : 100,
                    "mediaStart" : -37,
                    "mediaDuration" : 100,
                    "scalar" : 1,
                    "metadata" : {
                      "WinSubProjectDisplayName" : "",
                      "clipSpeedAttribute" : false,
                      "default-HAlign" : "center",
                      "default-LineSpace" : 0.0,
                      "default-VAlign" : "center",
                      "default-fill-color-blue" : 1.0,
                      "default-fill-color-green" : 1.0,
                      "default-fill-color-red" : 1.0,
                      "default-scale0" : 1.0,
                      "default-scale1" : 1.0,
                      "default-stroke-color-blue" : 0.56078431372549,
                      "default-stroke-color-green" : 0.686274509803922,
                      "default-stroke-color-red" : 0.0196078431372549,
                      "default-text-attributes" : "[{\"name\":\"fontSize\",\"rangeEnd\":32,\"rangeStart\":0,\"value\":64,\"valueType\":\"double\"},{\"name\":\"fgColor\",\"rangeEnd\":32,\"rangeStart\":0,\"value\":\"(255,255,255,255)\",\"valueType\":\"color\"},{\"name\":\"fontWeight\",\"rangeEnd\":32,\"rangeStart\":0,\"value\":400,\"valueType\":\"int\"},{\"name\":\"fontName\",\"rangeEnd\":32,\"rangeStart\":0,\"value\":\"Montserrat\",\"valueType\":\"string\"},{\"name\":\"fontItalic\",\"rangeEnd\":32,\"rangeStart\":0,\"value\":0,\"valueType\":\"int\"},{\"name\":\"strikethrough\",\"rangeEnd\":32,\"rangeStart\":0,\"value\":0,\"valueType\":\"int\"},{\"name\":\"underline\",\"rangeEnd\":32,\"rangeStart\":0,\"value\":0,\"valueType\":\"int\"}]",
                      "default-translation0" : 0.0,
                      "default-translation1" : 0.0
                    },
                    "animationTracks" : {

                    }
                  },
                  {
                    "id" : 340,
                    "_type" : "Callout",
                    "def" : {
                      "kind" : "remix",
                      "shape" : "text-rectangle",
                      "style" : "basic",
                      "fill-color-blue" : 0.270588235294118,
                      "fill-color-green" : 0.243137254901961,
                      "fill-color-opacity" : 1.0,
                      "fill-color-red" : 0.211764705882353,
                      "height" : 135.176470588371,
                      "line-spacing" : 0.0,
                      "stroke-color-blue" : 0.890196078431372,
                      "stroke-color-green" : 0.870588235294118,
                      "stroke-color-opacity" : 1.0,
                      "stroke-color-red" : 0.847058823529412,
                      "stroke-width" : 2.0,
                      "tail-x" : -966.911764705783,
                      "tail-y" : 57.7573529411723,
                      "width" : 2203.58823529761,
                      "word-wrap" : 1.0,
                      "fill-style" : "solid",
                      "horizontal-alignment" : "center",
                      "resize-behavior" : "resizeText",
                      "stroke-style" : "solid",
                      "text" : "The attacker is trying to overwrite the secret file",
                      "vertical-alignment" : "center",
                      "font" : {
                        "color-blue" : 0.266666666666667,
                        "color-green" : 0.231372549019608,
                        "color-opacity" : 1.0,
                        "color-red" : 0.184313725490196,
                        "size" : 64.0,
                        "tracking" : 0.0,
                        "name" : "Montserrat",
                        "weight" : "Regular"
                      },
                      "textAttributes" : {
                        "type" : "textAttributeList",
                        "keyframes" : [
                          {
                            "endTime" : 0,
                            "time" : 0,
                            "value" : [{"name":"fontItalic","rangeEnd":51,"rangeStart":0,"value":0,"valueType":"int"},{"name":"fontName","rangeEnd":51,"rangeStart":0,"value":"Montserrat","valueType":"string"},{"name":"strikethrough","rangeEnd":51,"rangeStart":0,"value":0,"valueType":"int"},{"name":"fontWeight","rangeEnd":51,"rangeStart":0,"value":400,"valueType":"int"},{"name":"underline","rangeEnd":51,"rangeStart":0,"value":0,"valueType":"int"},{"name":"fgColor","rangeEnd":51,"rangeStart":0,"value":"(255,255,255,255)","valueType":"color"},{"name":"fontSize","rangeEnd":51,"rangeStart":0,"value":80,"valueType":"double"}],
                            "duration" : 0
                          }
                        ]
                      }
                    },
                    "attributes" : {
                      "autoRotateText" : true
                    },
                    "parameters" : {
                      "translation0" : 1.77351466845721e-11,
                      "translation1" : -621.001838235581
                    },
                    "effects" : [
                        {
                          "effectName" : "DropShadow",
                          "category" : "categoryVisualEffects",
                          "parameters" : {
                            "angle" : 5.49778714378214,
                            "blur" : 10.0,
                            "color-alpha" : 1.0,
                            "color-blue" : 0.1216,
                            "color-green" : 0.1216,
                            "color-red" : 0.1216,
                            "enabled" : 1,
                            "offset" : 10.0,
                            "opacity" : 0.4
                          }
                        }
                    ],
                    "start" : 2915,
                    "duration" : 100,
                    "mediaStart" : -86,
                    "mediaDuration" : 100,
                    "scalar" : 1,
                    "metadata" : {
                      "WinSubProjectDisplayName" : "",
                      "clipSpeedAttribute" : false,
                      "default-HAlign" : "center",
                      "default-LineSpace" : 0.0,
                      "default-VAlign" : "center",
                      "default-fill-color-blue" : 1.0,
                      "default-fill-color-green" : 1.0,
                      "default-fill-color-red" : 1.0,
                      "default-scale0" : 1.0,
                      "default-scale1" : 1.0,
                      "default-stroke-color-blue" : 0.56078431372549,
                      "default-stroke-color-green" : 0.686274509803922,
                      "default-stroke-color-red" : 0.0196078431372549,
                      "default-text-attributes" : "[{\"name\":\"fontSize\",\"rangeEnd\":32,\"rangeStart\":0,\"value\":64,\"valueType\":\"double\"},{\"name\":\"fgColor\",\"rangeEnd\":32,\"rangeStart\":0,\"value\":\"(255,255,255,255)\",\"valueType\":\"color\"},{\"name\":\"fontWeight\",\"rangeEnd\":32,\"rangeStart\":0,\"value\":400,\"valueType\":\"int\"},{\"name\":\"fontName\",\"rangeEnd\":32,\"rangeStart\":0,\"value\":\"Montserrat\",\"valueType\":\"string\"},{\"name\":\"fontItalic\",\"rangeEnd\":32,\"rangeStart\":0,\"value\":0,\"valueType\":\"int\"},{\"name\":\"strikethrough\",\"rangeEnd\":32,\"rangeStart\":0,\"value\":0,\"valueType\":\"int\"},{\"name\":\"underline\",\"rangeEnd\":32,\"rangeStart\":0,\"value\":0,\"valueType\":\"int\"}]",
                      "default-translation0" : 0.0,
                      "default-translation1" : 0.0
                    },
                    "animationTracks" : {

                    }
                  },
                  {
                    "id" : 341,
                    "_type" : "Callout",
                    "def" : {
                      "kind" : "remix",
                      "shape" : "text-rectangle",
                      "style" : "basic",
                      "fill-color-blue" : 0.270588235294118,
                      "fill-color-green" : 0.243137254901961,
                      "fill-color-opacity" : 1.0,
                      "fill-color-red" : 0.211764705882353,
                      "height" : 141.058823529442,
                      "line-spacing" : 0.0,
                      "stroke-color-blue" : 0.890196078431372,
                      "stroke-color-green" : 0.870588235294118,
                      "stroke-color-opacity" : 1.0,
                      "stroke-color-red" : 0.847058823529412,
                      "stroke-width" : 2.0,
                      "tail-x" : -912.499999999842,
                      "tail-y" : 28.3455882353315,
                      "width" : 2312.41176470949,
                      "word-wrap" : 1.0,
                      "fill-style" : "solid",
                      "horizontal-alignment" : "center",
                      "resize-behavior" : "resizeText",
                      "stroke-style" : "solid",
                      "text" : "Okay, now the researcher decides to check the secret file",
                      "vertical-alignment" : "center",
                      "font" : {
                        "color-blue" : 0.266666666666667,
                        "color-green" : 0.231372549019608,
                        "color-opacity" : 1.0,
                        "color-red" : 0.184313725490196,
                        "size" : 64.0,
                        "tracking" : 0.0,
                        "name" : "Montserrat",
                        "weight" : "Regular"
                      },
                      "textAttributes" : {
                        "type" : "textAttributeList",
                        "keyframes" : [
                          {
                            "endTime" : 0,
                            "time" : 0,
                            "value" : [{"name":"fontName","rangeEnd":57,"rangeStart":0,"value":"Montserrat","valueType":"string"},{"name":"fgColor","rangeEnd":57,"rangeStart":0,"value":"(255,255,255,255)","valueType":"color"},{"name":"underline","rangeEnd":57,"rangeStart":0,"value":0,"valueType":"int"},{"name":"fontWeight","rangeEnd":57,"rangeStart":0,"value":400,"valueType":"int"},{"name":"fontItalic","rangeEnd":57,"rangeStart":0,"value":0,"valueType":"int"},{"name":"fontSize","rangeEnd":57,"rangeStart":0,"value":80,"valueType":"double"},{"name":"strikethrough","rangeEnd":57,"rangeStart":0,"value":0,"valueType":"int"}],
                            "duration" : 0
                          }
                        ]
                      }
                    },
                    "attributes" : {
                      "autoRotateText" : true
                    },
                    "parameters" : {
                      "translation0" : -5.84350345889106e-11,
                      "translation1" : -617.117647058791
                    },
                    "effects" : [
                        {
                          "effectName" : "DropShadow",
                          "category" : "categoryVisualEffects",
                          "parameters" : {
                            "angle" : 5.49778714378214,
                            "blur" : 10.0,
                            "color-alpha" : 1.0,
                            "color-blue" : 0.1216,
                            "color-green" : 0.1216,
                            "color-red" : 0.1216,
                            "enabled" : 1,
                            "offset" : 10.0,
                            "opacity" : 0.4
                          }
                        }
                    ],
                    "start" : 3047,
                    "duration" : 84,
                    "mediaStart" : -86,
                    "mediaDuration" : 84,
                    "scalar" : 1,
                    "metadata" : {
                      "WinSubProjectDisplayName" : "",
                      "clipSpeedAttribute" : false,
                      "default-HAlign" : "center",
                      "default-LineSpace" : 0.0,
                      "default-VAlign" : "center",
                      "default-fill-color-blue" : 1.0,
                      "default-fill-color-green" : 1.0,
                      "default-fill-color-red" : 1.0,
                      "default-scale0" : 1.0,
                      "default-scale1" : 1.0,
                      "default-stroke-color-blue" : 0.56078431372549,
                      "default-stroke-color-green" : 0.686274509803922,
                      "default-stroke-color-red" : 0.0196078431372549,
                      "default-text-attributes" : "[{\"name\":\"fontSize\",\"rangeEnd\":32,\"rangeStart\":0,\"value\":64,\"valueType\":\"double\"},{\"name\":\"fgColor\",\"rangeEnd\":32,\"rangeStart\":0,\"value\":\"(255,255,255,255)\",\"valueType\":\"color\"},{\"name\":\"fontWeight\",\"rangeEnd\":32,\"rangeStart\":0,\"value\":400,\"valueType\":\"int\"},{\"name\":\"fontName\",\"rangeEnd\":32,\"rangeStart\":0,\"value\":\"Montserrat\",\"valueType\":\"string\"},{\"name\":\"fontItalic\",\"rangeEnd\":32,\"rangeStart\":0,\"value\":0,\"valueType\":\"int\"},{\"name\":\"strikethrough\",\"rangeEnd\":32,\"rangeStart\":0,\"value\":0,\"valueType\":\"int\"},{\"name\":\"underline\",\"rangeEnd\":32,\"rangeStart\":0,\"value\":0,\"valueType\":\"int\"}]",
                      "default-translation0" : 0.0,
                      "default-translation1" : 0.0
                    },
                    "animationTracks" : {

                    }
                  },
                  {
                    "id" : 342,
                    "_type" : "Callout",
                    "def" : {
                      "kind" : "remix",
                      "shape" : "text-rectangle",
                      "style" : "basic",
                      "fill-color-blue" : 0.270588235294118,
                      "fill-color-green" : 0.243137254901961,
                      "fill-color-opacity" : 1.0,
                      "fill-color-red" : 0.211764705882353,
                      "height" : 102.823529412038,
                      "line-spacing" : 0.0,
                      "stroke-color-blue" : 0.890196078431372,
                      "stroke-color-green" : 0.870588235294118,
                      "stroke-color-opacity" : 1.0,
                      "stroke-color-red" : 0.847058823529412,
                      "stroke-width" : 2.0,
                      "tail-x" : 103.676470588357,
                      "tail-y" : 47.4632352940331,
                      "width" : 1946.46020761524,
                      "word-wrap" : 1.0,
                      "fill-style" : "solid",
                      "horizontal-alignment" : "center",
                      "resize-behavior" : "resizeText",
                      "stroke-style" : "solid",
                      "text" : "The researcher is checking the secret file again",
                      "vertical-alignment" : "center",
                      "font" : {
                        "color-blue" : 0.266666666666667,
                        "color-green" : 0.231372549019608,
                        "color-opacity" : 1.0,
                        "color-red" : 0.184313725490196,
                        "size" : 64.0,
                        "tracking" : 0.0,
                        "name" : "Montserrat",
                        "weight" : "Regular"
                      },
                      "textAttributes" : {
                        "type" : "textAttributeList",
                        "keyframes" : [
                          {
                            "endTime" : 0,
                            "time" : 0,
                            "value" : [{"name":"fontWeight","rangeEnd":48,"rangeStart":0,"value":400,"valueType":"int"},{"name":"fgColor","rangeEnd":48,"rangeStart":0,"value":"(255,255,255,255)","valueType":"color"},{"name":"strikethrough","rangeEnd":48,"rangeStart":0,"value":0,"valueType":"int"},{"name":"fontSize","rangeEnd":48,"rangeStart":0,"value":80,"valueType":"double"},{"name":"underline","rangeEnd":48,"rangeStart":0,"value":0,"valueType":"int"},{"name":"fontName","rangeEnd":48,"rangeStart":0,"value":"Montserrat","valueType":"string"},{"name":"fontItalic","rangeEnd":48,"rangeStart":0,"value":0,"valueType":"int"}],
                            "duration" : 0
                          }
                        ]
                      }
                    },
                    "attributes" : {
                      "autoRotateText" : true
                    },
                    "parameters" : {
                      "translation0" : -1.12663656182121e-10,
                      "translation1" : -625.413602941152
                    },
                    "effects" : [
                        {
                          "effectName" : "DropShadow",
                          "category" : "categoryVisualEffects",
                          "parameters" : {
                            "angle" : 5.49778714378214,
                            "blur" : 10.0,
                            "color-alpha" : 1.0,
                            "color-blue" : 0.1216,
                            "color-green" : 0.1216,
                            "color-red" : 0.1216,
                            "enabled" : 1,
                            "offset" : 10.0,
                            "opacity" : 0.4
                          }
                        }
                    ],
                    "start" : 3216,
                    "duration" : 64,
                    "mediaStart" : -63,
                    "mediaDuration" : 64,
                    "scalar" : 1,
                    "metadata" : {
                      "WinSubProjectDisplayName" : "",
                      "clipSpeedAttribute" : false,
                      "default-HAlign" : "center",
                      "default-LineSpace" : 0.0,
                      "default-VAlign" : "center",
                      "default-fill-color-blue" : 1.0,
                      "default-fill-color-green" : 1.0,
                      "default-fill-color-red" : 1.0,
                      "default-scale0" : 1.0,
                      "default-scale1" : 1.0,
                      "default-stroke-color-blue" : 0.56078431372549,
                      "default-stroke-color-green" : 0.686274509803922,
                      "default-stroke-color-red" : 0.0196078431372549,
                      "default-text-attributes" : "[{\"name\":\"fontSize\",\"rangeEnd\":32,\"rangeStart\":0,\"value\":64,\"valueType\":\"double\"},{\"name\":\"fgColor\",\"rangeEnd\":32,\"rangeStart\":0,\"value\":\"(255,255,255,255)\",\"valueType\":\"color\"},{\"name\":\"fontWeight\",\"rangeEnd\":32,\"rangeStart\":0,\"value\":400,\"valueType\":\"int\"},{\"name\":\"fontName\",\"rangeEnd\":32,\"rangeStart\":0,\"value\":\"Montserrat\",\"valueType\":\"string\"},{\"name\":\"fontItalic\",\"rangeEnd\":32,\"rangeStart\":0,\"value\":0,\"valueType\":\"int\"},{\"name\":\"strikethrough\",\"rangeEnd\":32,\"rangeStart\":0,\"value\":0,\"valueType\":\"int\"},{\"name\":\"underline\",\"rangeEnd\":32,\"rangeStart\":0,\"value\":0,\"valueType\":\"int\"}]",
                      "default-translation0" : 0.0,
                      "default-translation1" : 0.0
                    },
                    "animationTracks" : {

                    }
                  },
                  {
                    "id" : 343,
                    "_type" : "Callout",
                    "def" : {
                      "kind" : "remix",
                      "shape" : "text-rectangle",
                      "style" : "basic",
                      "fill-color-blue" : 0.2,
                      "fill-color-green" : 0.4,
                      "fill-color-opacity" : 1.0,
                      "fill-color-red" : 0.0,
                      "height" : 111.647058823651,
                      "line-spacing" : 0.0,
                      "stroke-color-blue" : 0.890196078431372,
                      "stroke-color-green" : 0.870588235294118,
                      "stroke-color-opacity" : 1.0,
                      "stroke-color-red" : 0.847058823529412,
                      "stroke-width" : 2.0,
                      "tail-x" : -125.735294117577,
                      "tail-y" : -9.88970588238141,
                      "width" : 1748.94463667907,
                      "word-wrap" : 1.0,
                      "fill-style" : "solid",
                      "horizontal-alignment" : "center",
                      "resize-behavior" : "resizeText",
                      "stroke-style" : "solid",
                      "text" : "The secret formula has been protected",
                      "vertical-alignment" : "center",
                      "font" : {
                        "color-blue" : 0.266666666666667,
                        "color-green" : 0.231372549019608,
                        "color-opacity" : 1.0,
                        "color-red" : 0.184313725490196,
                        "size" : 64.0,
                        "tracking" : 0.0,
                        "name" : "Montserrat",
                        "weight" : "Regular"
                      },
                      "textAttributes" : {
                        "type" : "textAttributeList",
                        "keyframes" : [
                          {
                            "endTime" : 0,
                            "time" : 0,
                            "value" : [{"name":"fontItalic","rangeEnd":37,"rangeStart":0,"value":0,"valueType":"int"},{"name":"strikethrough","rangeEnd":37,"rangeStart":0,"value":0,"valueType":"int"},{"name":"fontSize","rangeEnd":37,"rangeStart":0,"value":80,"valueType":"double"},{"name":"fontName","rangeEnd":37,"rangeStart":0,"value":"Montserrat","valueType":"string"},{"name":"underline","rangeEnd":37,"rangeStart":0,"value":0,"valueType":"int"},{"name":"fontWeight","rangeEnd":37,"rangeStart":0,"value":400,"valueType":"int"},{"name":"fgColor","rangeEnd":37,"rangeStart":0,"value":"(255,255,255,255)","valueType":"color"}],
                            "duration" : 0
                          }
                        ]
                      }
                    },
                    "attributes" : {
                      "autoRotateText" : true
                    },
                    "parameters" : {
                      "translation0" : -23.9714843155239,
                      "translation1" : -602.41176470558
                    },
                    "effects" : [
                        {
                          "effectName" : "DropShadow",
                          "category" : "categoryVisualEffects",
                          "parameters" : {
                            "angle" : 5.49778714378214,
                            "blur" : 10.0,
                            "color-alpha" : 1.0,
                            "color-blue" : 0.1216,
                            "color-green" : 0.1216,
                            "color-red" : 0.1216,
                            "enabled" : 1,
                            "offset" : 10.0,
                            "opacity" : 0.4
                          }
                        }
                    ],
                    "start" : 3314,
                    "duration" : 297,
                    "mediaStart" : -37,
                    "mediaDuration" : 297,
                    "scalar" : 1,
                    "metadata" : {
                      "WinSubProjectDisplayName" : "",
                      "clipSpeedAttribute" : false,
                      "default-HAlign" : "center",
                      "default-LineSpace" : 0.0,
                      "default-VAlign" : "center",
                      "default-fill-color-blue" : 1.0,
                      "default-fill-color-green" : 1.0,
                      "default-fill-color-red" : 1.0,
                      "default-scale0" : 1.0,
                      "default-scale1" : 1.0,
                      "default-stroke-color-blue" : 0.56078431372549,
                      "default-stroke-color-green" : 0.686274509803922,
                      "default-stroke-color-red" : 0.0196078431372549,
                      "default-text-attributes" : "[{\"name\":\"fontSize\",\"rangeEnd\":32,\"rangeStart\":0,\"value\":64,\"valueType\":\"double\"},{\"name\":\"fgColor\",\"rangeEnd\":32,\"rangeStart\":0,\"value\":\"(255,255,255,255)\",\"valueType\":\"color\"},{\"name\":\"fontWeight\",\"rangeEnd\":32,\"rangeStart\":0,\"value\":400,\"valueType\":\"int\"},{\"name\":\"fontName\",\"rangeEnd\":32,\"rangeStart\":0,\"value\":\"Montserrat\",\"valueType\":\"string\"},{\"name\":\"fontItalic\",\"rangeEnd\":32,\"rangeStart\":0,\"value\":0,\"valueType\":\"int\"},{\"name\":\"strikethrough\",\"rangeEnd\":32,\"rangeStart\":0,\"value\":0,\"valueType\":\"int\"},{\"name\":\"underline\",\"rangeEnd\":32,\"rangeStart\":0,\"value\":0,\"valueType\":\"int\"}]",
                      "default-translation0" : 0.0,
                      "default-translation1" : 0.0
                    },
                    "animationTracks" : {

                    }
                  },
                  {
                    "id" : 344,
                    "_type" : "Callout",
                    "def" : {
                      "kind" : "remix",
                      "shape" : "text-rectangle",
                      "style" : "basic",
                      "fill-color-blue" : 0.270588235294118,
                      "fill-color-green" : 0.243137254901961,
                      "fill-color-opacity" : 1.0,
                      "fill-color-red" : 0.211764705882353,
                      "height" : 117.529411764971,
                      "line-spacing" : 0.0,
                      "stroke-color-blue" : 0.890196078431372,
                      "stroke-color-green" : 0.870588235294118,
                      "stroke-color-opacity" : 1.0,
                      "stroke-color-red" : 0.847058823529412,
                      "stroke-width" : 2.0,
                      "tail-x" : 113.970588235428,
                      "tail-y" : 40.1102941175666,
                      "width" : 2425.87197232107,
                      "word-wrap" : 1.0,
                      "fill-style" : "solid",
                      "horizontal-alignment" : "center",
                      "resize-behavior" : "resizeText",
                      "stroke-style" : "solid",
                      "text" : "Let us close both opened files and compare their content",
                      "vertical-alignment" : "center",
                      "font" : {
                        "color-blue" : 0.266666666666667,
                        "color-green" : 0.231372549019608,
                        "color-opacity" : 1.0,
                        "color-red" : 0.184313725490196,
                        "size" : 64.0,
                        "tracking" : 0.0,
                        "name" : "Montserrat",
                        "weight" : "Regular"
                      },
                      "textAttributes" : {
                        "type" : "textAttributeList",
                        "keyframes" : [
                          {
                            "endTime" : 0,
                            "time" : 0,
                            "value" : [{"name":"underline","rangeEnd":56,"rangeStart":0,"value":0,"valueType":"int"},{"name":"fontName","rangeEnd":56,"rangeStart":0,"value":"Montserrat","valueType":"string"},{"name":"strikethrough","rangeEnd":56,"rangeStart":0,"value":0,"valueType":"int"},{"name":"kerning","rangeEnd":56,"rangeStart":0,"value":0,"valueType":"double"},{"name":"fontItalic","rangeEnd":56,"rangeStart":0,"value":0,"valueType":"int"},{"name":"fontSize","rangeEnd":56,"rangeStart":0,"value":80,"valueType":"double"},{"name":"fgColor","rangeEnd":56,"rangeStart":0,"value":"(255,255,255,255)","valueType":"color"},{"name":"fontWeight","rangeEnd":56,"rangeStart":0,"value":400,"valueType":"int"}],
                            "duration" : 0
                          }
                        ]
                      }
                    },
                    "attributes" : {
                      "autoRotateText" : true
                    },
                    "parameters" : {
                      "translation0" : -10.2941176471841,
                      "translation1" : -618.060661764685
                    },
                    "effects" : [
                        {
                          "effectName" : "DropShadow",
                          "category" : "categoryVisualEffects",
                          "parameters" : {
                            "angle" : 5.49778714378214,
                            "blur" : 10.0,
                            "color-alpha" : 1.0,
                            "color-blue" : 0.1216,
                            "color-green" : 0.1216,
                            "color-red" : 0.1216,
                            "enabled" : 1,
                            "offset" : 10.0,
                            "opacity" : 0.4
                          }
                        }
                    ],
                    "start" : 3643,
                    "duration" : 231,
                    "mediaStart" : -63,
                    "mediaDuration" : 231,
                    "scalar" : 1,
                    "metadata" : {
                      "WinSubProjectDisplayName" : "",
                      "clipSpeedAttribute" : false,
                      "default-HAlign" : "center",
                      "default-LineSpace" : 0.0,
                      "default-VAlign" : "center",
                      "default-fill-color-blue" : 1.0,
                      "default-fill-color-green" : 1.0,
                      "default-fill-color-red" : 1.0,
                      "default-scale0" : 1.0,
                      "default-scale1" : 1.0,
                      "default-stroke-color-blue" : 0.56078431372549,
                      "default-stroke-color-green" : 0.686274509803922,
                      "default-stroke-color-red" : 0.0196078431372549,
                      "default-text-attributes" : "[{\"name\":\"fontSize\",\"rangeEnd\":32,\"rangeStart\":0,\"value\":64,\"valueType\":\"double\"},{\"name\":\"fgColor\",\"rangeEnd\":32,\"rangeStart\":0,\"value\":\"(255,255,255,255)\",\"valueType\":\"color\"},{\"name\":\"fontWeight\",\"rangeEnd\":32,\"rangeStart\":0,\"value\":400,\"valueType\":\"int\"},{\"name\":\"fontName\",\"rangeEnd\":32,\"rangeStart\":0,\"value\":\"Montserrat\",\"valueType\":\"string\"},{\"name\":\"fontItalic\",\"rangeEnd\":32,\"rangeStart\":0,\"value\":0,\"valueType\":\"int\"},{\"name\":\"strikethrough\",\"rangeEnd\":32,\"rangeStart\":0,\"value\":0,\"valueType\":\"int\"},{\"name\":\"underline\",\"rangeEnd\":32,\"rangeStart\":0,\"value\":0,\"valueType\":\"int\"}]",
                      "default-translation0" : 0.0,
                      "default-translation1" : 0.0
                    },
                    "animationTracks" : {

                    }
                  },
                  {
                    "id" : 345,
                    "_type" : "IMFile",
                    "src" : 10,
                    "trackNumber" : 0,
                    "trimStartSum" : 8,
                    "attributes" : {
                      "ident" : "memoryranger_without_gun_transparent_cropped"
                    },
                    "parameters" : {
                      "translation0" : 133.625559386375,
                      "translation1" : 364.586878427084,
                      "scale0" : 0.231367047732227,
                      "scale1" : 0.231367047732227
                    },
                    "effects" : [

                    ],
                    "start" : 3962,
                    "duration" : 68,
                    "mediaStart" : 0,
                    "mediaDuration" : 1,
                    "scalar" : 1,
                    "metadata" : {
                      "clipSpeedAttribute" : false,
                      "default-scale0" : 1.0,
                      "default-scale1" : 1.0,
                      "default-translation0" : 0.0,
                      "default-translation1" : 0.0
                    },
                    "animationTracks" : {

                    }
                  },
                  {
                    "id" : 346,
                    "_type" : "Callout",
                    "def" : {
                      "kind" : "remix",
                      "shape" : "text-rectangle",
                      "style" : "basic",
                      "fill-color-blue" : 0.270588235294118,
                      "fill-color-green" : 0.243137254901961,
                      "fill-color-opacity" : 1.0,
                      "fill-color-red" : 0.211764705882353,
                      "height" : 205.764705882708,
                      "line-spacing" : 0.0,
                      "stroke-color-blue" : 0.890196078431372,
                      "stroke-color-green" : 0.870588235294118,
                      "stroke-color-opacity" : 1.0,
                      "stroke-color-red" : 0.847058823529412,
                      "stroke-width" : 2.0,
                      "tail-x" : 232.037815126095,
                      "tail-y" : -4.0073529413017,
                      "width" : 1706.78433726757,
                      "word-wrap" : 1.0,
                      "fill-style" : "solid",
                      "horizontal-alignment" : "center",
                      "resize-behavior" : "resizeText",
                      "stroke-style" : "solid",
                      "text" : "Secret file includes the secret formula. \rAttackers input is in file hijacker.",
                      "vertical-alignment" : "center",
                      "font" : {
                        "color-blue" : 0.266666666666667,
                        "color-green" : 0.231372549019608,
                        "color-opacity" : 1.0,
                        "color-red" : 0.184313725490196,
                        "size" : 64.0,
                        "tracking" : 0.0,
                        "name" : "Montserrat",
                        "weight" : "Regular"
                      },
                      "textAttributes" : {
                        "type" : "textAttributeList",
                        "keyframes" : [
                          {
                            "endTime" : 0,
                            "time" : 0,
                            "value" : [{"name":"kerning","rangeEnd":78,"rangeStart":0,"value":0,"valueType":"double"},{"name":"fgColor","rangeEnd":78,"rangeStart":0,"value":"(255,255,255,255)","valueType":"color"},{"name":"fontWeight","rangeEnd":78,"rangeStart":0,"value":400,"valueType":"int"},{"name":"strikethrough","rangeEnd":78,"rangeStart":0,"value":0,"valueType":"int"},{"name":"underline","rangeEnd":78,"rangeStart":0,"value":0,"valueType":"int"},{"name":"fontSize","rangeEnd":78,"rangeStart":0,"value":80,"valueType":"double"},{"name":"fontName","rangeEnd":78,"rangeStart":0,"value":"Montserrat","valueType":"string"},{"name":"fontItalic","rangeEnd":78,"rangeStart":0,"value":0,"valueType":"int"}],
                            "duration" : 0
                          }
                        ]
                      }
                    },
                    "attributes" : {
                      "autoRotateText" : true
                    },
                    "parameters" : {
                      "translation0" : 2.33875141475437e-11,
                      "translation1" : -574.843374849791
                    },
                    "effects" : [
                        {
                          "effectName" : "DropShadow",
                          "category" : "categoryVisualEffects",
                          "parameters" : {
                            "angle" : 5.49778714378214,
                            "blur" : 10.0,
                            "color-alpha" : 1.0,
                            "color-blue" : 0.1216,
                            "color-green" : 0.1216,
                            "color-red" : 0.1216,
                            "enabled" : 1,
                            "offset" : 10.0,
                            "opacity" : 0.4
                          }
                        }
                    ],
                    "start" : 4145,
                    "duration" : 305,
                    "mediaStart" : -63,
                    "mediaDuration" : 305,
                    "scalar" : 1,
                    "metadata" : {
                      "WinSubProjectDisplayName" : "",
                      "clipSpeedAttribute" : false,
                      "default-HAlign" : "center",
                      "default-LineSpace" : 0.0,
                      "default-VAlign" : "center",
                      "default-fill-color-blue" : 1.0,
                      "default-fill-color-green" : 1.0,
                      "default-fill-color-red" : 1.0,
                      "default-scale0" : 1.0,
                      "default-scale1" : 1.0,
                      "default-stroke-color-blue" : 0.56078431372549,
                      "default-stroke-color-green" : 0.686274509803922,
                      "default-stroke-color-red" : 0.0196078431372549,
                      "default-text-attributes" : "[{\"name\":\"fontSize\",\"rangeEnd\":32,\"rangeStart\":0,\"value\":64,\"valueType\":\"double\"},{\"name\":\"fgColor\",\"rangeEnd\":32,\"rangeStart\":0,\"value\":\"(255,255,255,255)\",\"valueType\":\"color\"},{\"name\":\"fontWeight\",\"rangeEnd\":32,\"rangeStart\":0,\"value\":400,\"valueType\":\"int\"},{\"name\":\"fontName\",\"rangeEnd\":32,\"rangeStart\":0,\"value\":\"Montserrat\",\"valueType\":\"string\"},{\"name\":\"fontItalic\",\"rangeEnd\":32,\"rangeStart\":0,\"value\":0,\"valueType\":\"int\"},{\"name\":\"strikethrough\",\"rangeEnd\":32,\"rangeStart\":0,\"value\":0,\"valueType\":\"int\"},{\"name\":\"underline\",\"rangeEnd\":32,\"rangeStart\":0,\"value\":0,\"valueType\":\"int\"}]",
                      "default-translation0" : 0.0,
                      "default-translation1" : 0.0
                    },
                    "animationTracks" : {

                    }
                  },
                  {
                    "id" : 347,
                    "_type" : "AMFile",
                    "src" : 11,
                    "trackNumber" : 1,
                    "attributes" : {
                      "ident" : "Rec 07-12-20_002",
                      "gain" : 1.0,
                      "mixToMono" : false
                    },
                      "channelNumber" : "0,1",
                    "parameters" : {
                      "volume" : 1.96793002915454
                    },
                    "effects" : [

                    ],
                    "start" : 4450,
                    "duration" : 176,
                    "mediaStart" : 5585,
                    "mediaDuration" : 176,
                    "scalar" : 1,
                    "metadata" : {
                      "clipSpeedAttribute" : false
                    },
                    "animationTracks" : {

                    }
                  }
                ]
              },
              {
                "trackIndex" : 4,
                "medias" : [
                  {
                    "id" : 348,
                    "_type" : "Callout",
                    "def" : {
                      "kind" : "remix",
                      "shape" : "shape-rectangle",
                      "style" : "basic",
                      "fill-color-blue" : 0.0,
                      "fill-color-green" : 0.0,
                      "fill-color-opacity" : 0.0,
                      "fill-color-red" : 0.0,
                      "height" : 142.058826858424,
                      "stroke-color-blue" : 0.0,
                      "stroke-color-green" : 0.0,
                      "stroke-color-opacity" : 1.0,
                      "stroke-color-red" : 1.0,
                      "stroke-width" : 15.0,
                      "width" : 1333.33149509827,
                      "fill-style" : "solid",
                      "horizontal-alignment" : "center",
                      "stroke-style" : "solid",
                      "vertical-alignment" : "center",
                      "textAttributes" : {
                        "type" : "textAttributeList",
                        "keyframes" : [
                          {
                            "endTime" : 0,
                            "time" : 0,
                            "value" : null,
                            "duration" : 0
                          }
                        ]
                      }
                    },
                    "attributes" : {
                      "autoRotateText" : true
                    },
                    "parameters" : {
                      "translation0" : -540.540134804356,
                      "translation1" : 87.3529395123382
                    },
                    "effects" : [
                        {
                          "effectName" : "DropShadow",
                          "category" : "categoryVisualEffects",
                          "parameters" : {
                            "angle" : 5.49778714378214,
                            "blur" : 10.0,
                            "color-alpha" : 1.0,
                            "color-blue" : 0.1216,
                            "color-green" : 0.1216,
                            "color-red" : 0.1216,
                            "enabled" : 1,
                            "offset" : 10.0,
                            "opacity" : 0.4
                          }
                        }
                    ],
                    "start" : 223,
                    "duration" : 60,
                    "mediaStart" : 0,
                    "mediaDuration" : 60,
                    "scalar" : 1,
                    "metadata" : {
                      "WinSubProjectDisplayName" : "",
                      "clipSpeedAttribute" : false,
                      "default-callout-shape" : "shape-rectangle",
                      "default-stroke-color-red" : 0.0,
                      "default-stroke-width" : 6.0,
                      "default-translation0" : 0.0,
                      "default-translation1" : 0.0
                    },
                    "animationTracks" : {

                    }
                  },
                  {
                    "id" : 349,
                    "_type" : "IMFile",
                    "src" : 10,
                    "trackNumber" : 0,
                    "trimStartSum" : 0,
                    "attributes" : {
                      "ident" : "memoryranger_without_gun_transparent_cropped"
                    },
                    "parameters" : {
                      "translation0" : 133.625559386375,
                      "translation1" : 364.586878427084,
                      "scale0" : 0.231367047732227,
                      "scale1" : 0.231367047732227
                    },
                    "effects" : [

                    ],
                    "start" : 443,
                    "duration" : 175,
                    "mediaStart" : 0,
                    "mediaDuration" : 1,
                    "scalar" : 1,
                    "metadata" : {
                      "clipSpeedAttribute" : false,
                      "default-scale0" : 1.0,
                      "default-scale1" : 1.0,
                      "default-translation0" : 0.0,
                      "default-translation1" : 0.0
                    },
                    "animationTracks" : {

                    }
                  },
                  {
                    "id" : 350,
                    "_type" : "IMFile",
                    "src" : 10,
                    "trackNumber" : 0,
                    "trimStartSum" : 0,
                    "attributes" : {
                      "ident" : "memoryranger_without_gun_transparent_cropped"
                    },
                    "parameters" : {
                      "translation0" : 133.625559386375,
                      "translation1" : 364.586878427084,
                      "scale0" : 0.231367047732227,
                      "scale1" : 0.231367047732227
                    },
                    "effects" : [

                    ],
                    "start" : 649,
                    "duration" : 13,
                    "mediaStart" : 0,
                    "mediaDuration" : 1,
                    "scalar" : 1,
                    "metadata" : {
                      "clipSpeedAttribute" : false,
                      "default-scale0" : 1.0,
                      "default-scale1" : 1.0,
                      "default-translation0" : 0.0,
                      "default-translation1" : 0.0
                    },
                    "animationTracks" : {

                    }
                  },
                  {
                    "id" : 351,
                    "_type" : "IMFile",
                    "src" : 10,
                    "trackNumber" : 0,
                    "trimStartSum" : -5,
                    "attributes" : {
                      "ident" : "memoryranger_without_gun_transparent_cropped"
                    },
                    "parameters" : {
                      "translation0" : 133.625559386375,
                      "translation1" : 364.586878427084,
                      "scale0" : 0.231367047732227,
                      "scale1" : 0.231367047732227
                    },
                    "effects" : [

                    ],
                    "start" : 684,
                    "duration" : 40,
                    "mediaStart" : 0,
                    "mediaDuration" : 1,
                    "scalar" : 1,
                    "metadata" : {
                      "clipSpeedAttribute" : false,
                      "default-scale0" : 1.0,
                      "default-scale1" : 1.0,
                      "default-translation0" : 0.0,
                      "default-translation1" : 0.0
                    },
                    "animationTracks" : {

                    }
                  },
                  {
                    "id" : 352,
                    "_type" : "Callout",
                    "def" : {
                      "kind" : "remix",
                      "shape" : "shape-rectangle",
                      "style" : "basic",
                      "fill-color-blue" : 0.0,
                      "fill-color-green" : 0.0,
                      "fill-color-opacity" : 0.0,
                      "fill-color-red" : 0.0,
                      "height" : 101.960784313853,
                      "stroke-color-blue" : 0.0,
                      "stroke-color-green" : 0.0,
                      "stroke-color-opacity" : 1.0,
                      "stroke-color-red" : 1.0,
                      "stroke-width" : 15.0,
                      "width" : 916.831505270445,
                      "fill-style" : "solid",
                      "horizontal-alignment" : "center",
                      "stroke-style" : "solid",
                      "vertical-alignment" : "center",
                      "textAttributes" : {
                        "type" : "textAttributeList",
                        "keyframes" : [
                          {
                            "endTime" : 0,
                            "time" : 0,
                            "value" : null,
                            "duration" : 0
                          }
                        ]
                      }
                    },
                    "attributes" : {
                      "autoRotateText" : true
                    },
                    "parameters" : {
                      "translation0" : -820.525434007963,
                      "translation1" : -177.892156862372
                    },
                    "effects" : [
                        {
                          "effectName" : "DropShadow",
                          "category" : "categoryVisualEffects",
                          "parameters" : {
                            "angle" : 5.49778714378214,
                            "blur" : 10.0,
                            "color-alpha" : 1.0,
                            "color-blue" : 0.1216,
                            "color-green" : 0.1216,
                            "color-red" : 0.1216,
                            "enabled" : 1,
                            "offset" : 10.0,
                            "opacity" : 0.4
                          }
                        }
                    ],
                    "start" : 756,
                    "duration" : 90,
                    "mediaStart" : 0,
                    "mediaDuration" : 90,
                    "scalar" : 1,
                    "metadata" : {
                      "WinSubProjectDisplayName" : "",
                      "clipSpeedAttribute" : false,
                      "default-callout-shape" : "shape-rectangle",
                      "default-stroke-color-red" : 0.0,
                      "default-stroke-width" : 6.0,
                      "default-translation0" : 0.0,
                      "default-translation1" : 0.0
                    },
                    "animationTracks" : {

                    }
                  },
                  {
                    "id" : 353,
                    "_type" : "Callout",
                    "def" : {
                      "kind" : "remix",
                      "shape" : "shape-rectangle",
                      "style" : "basic",
                      "fill-color-blue" : 0.0,
                      "fill-color-green" : 0.0,
                      "fill-color-opacity" : 0.0,
                      "fill-color-red" : 0.0,
                      "height" : 166.372549019665,
                      "stroke-color-blue" : 0.0,
                      "stroke-color-green" : 0.0,
                      "stroke-color-opacity" : 1.0,
                      "stroke-color-red" : 1.0,
                      "stroke-width" : 15.0,
                      "width" : 2307.84129901916,
                      "fill-style" : "solid",
                      "horizontal-alignment" : "center",
                      "stroke-style" : "solid",
                      "vertical-alignment" : "center",
                      "textAttributes" : {
                        "type" : "textAttributeList",
                        "keyframes" : [
                          {
                            "endTime" : 0,
                            "time" : 0,
                            "value" : null,
                            "duration" : 0
                          }
                        ]
                      }
                    },
                    "attributes" : {
                      "autoRotateText" : true
                    },
                    "parameters" : {
                      "translation0" : -99.4617034320826,
                      "translation1" : 554.901960784582
                    },
                    "effects" : [
                        {
                          "effectName" : "DropShadow",
                          "category" : "categoryVisualEffects",
                          "parameters" : {
                            "angle" : 5.49778714378214,
                            "blur" : 10.0,
                            "color-alpha" : 1.0,
                            "color-blue" : 0.1216,
                            "color-green" : 0.1216,
                            "color-red" : 0.1216,
                            "enabled" : 1,
                            "offset" : 10.0,
                            "opacity" : 0.4
                          }
                        }
                    ],
                    "start" : 876,
                    "duration" : 63,
                    "mediaStart" : 20,
                    "mediaDuration" : 63,
                    "scalar" : 1,
                    "metadata" : {
                      "WinSubProjectDisplayName" : "",
                      "clipSpeedAttribute" : false,
                      "default-callout-shape" : "shape-rectangle",
                      "default-stroke-color-red" : 0.0,
                      "default-stroke-width" : 6.0,
                      "default-translation0" : 0.0,
                      "default-translation1" : 0.0
                    },
                    "animationTracks" : {

                    }
                  },
                  {
                    "id" : 354,
                    "_type" : "Callout",
                    "def" : {
                      "kind" : "remix",
                      "shape" : "shape-rectangle",
                      "style" : "basic",
                      "fill-color-blue" : 0.0,
                      "fill-color-green" : 0.0,
                      "fill-color-opacity" : 0.0,
                      "fill-color-red" : 0.0,
                      "height" : 101.960784313853,
                      "stroke-color-blue" : 0.0,
                      "stroke-color-green" : 0.0,
                      "stroke-color-opacity" : 1.0,
                      "stroke-color-red" : 1.0,
                      "stroke-width" : 15.0,
                      "width" : 1546.24326997637,
                      "fill-style" : "solid",
                      "horizontal-alignment" : "center",
                      "stroke-style" : "solid",
                      "vertical-alignment" : "center",
                      "textAttributes" : {
                        "type" : "textAttributeList",
                        "keyframes" : [
                          {
                            "endTime" : 0,
                            "time" : 0,
                            "value" : null,
                            "duration" : 0
                          }
                        ]
                      }
                    },
                    "attributes" : {
                      "autoRotateText" : true
                    },
                    "parameters" : {
                      "translation0" : -508.760728125586,
                      "translation1" : -336.71568627414
                    },
                    "effects" : [
                        {
                          "effectName" : "DropShadow",
                          "category" : "categoryVisualEffects",
                          "parameters" : {
                            "angle" : 5.49778714378214,
                            "blur" : 10.0,
                            "color-alpha" : 1.0,
                            "color-blue" : 0.1216,
                            "color-green" : 0.1216,
                            "color-red" : 0.1216,
                            "enabled" : 1,
                            "offset" : 10.0,
                            "opacity" : 0.4
                          }
                        }
                    ],
                    "start" : 947,
                    "duration" : 101,
                    "mediaStart" : -48,
                    "mediaDuration" : 101,
                    "scalar" : 1,
                    "metadata" : {
                      "WinSubProjectDisplayName" : "",
                      "clipSpeedAttribute" : false,
                      "default-callout-shape" : "shape-rectangle",
                      "default-stroke-color-red" : 0.0,
                      "default-stroke-width" : 6.0,
                      "default-translation0" : 0.0,
                      "default-translation1" : 0.0
                    },
                    "animationTracks" : {

                    }
                  },
                  {
                    "id" : 355,
                    "_type" : "Callout",
                    "def" : {
                      "kind" : "remix",
                      "shape" : "shape-rectangle",
                      "style" : "basic",
                      "fill-color-blue" : 0.0,
                      "fill-color-green" : 0.0,
                      "fill-color-opacity" : 0.0,
                      "fill-color-red" : 0.0,
                      "height" : 101.960784313853,
                      "stroke-color-blue" : 0.0,
                      "stroke-color-green" : 0.0,
                      "stroke-color-opacity" : 1.0,
                      "stroke-color-red" : 1.0,
                      "stroke-width" : 15.0,
                      "width" : 705.066799388052,
                      "fill-style" : "solid",
                      "horizontal-alignment" : "center",
                      "stroke-style" : "solid",
                      "vertical-alignment" : "center",
                      "textAttributes" : {
                        "type" : "textAttributeList",
                        "keyframes" : [
                          {
                            "endTime" : 0,
                            "time" : 0,
                            "value" : null,
                            "duration" : 0
                          }
                        ]
                      }
                    },
                    "attributes" : {
                      "autoRotateText" : true
                    },
                    "parameters" : {
                      "translation0" : -929.348963419746,
                      "translation1" : -495.539215685802
                    },
                    "effects" : [
                        {
                          "effectName" : "DropShadow",
                          "category" : "categoryVisualEffects",
                          "parameters" : {
                            "angle" : 5.49778714378214,
                            "blur" : 10.0,
                            "color-alpha" : 1.0,
                            "color-blue" : 0.1216,
                            "color-green" : 0.1216,
                            "color-red" : 0.1216,
                            "enabled" : 1,
                            "offset" : 10.0,
                            "opacity" : 0.4
                          }
                        }
                    ],
                    "start" : 1152,
                    "duration" : 70,
                    "mediaStart" : -48,
                    "mediaDuration" : 70,
                    "scalar" : 1,
                    "metadata" : {
                      "WinSubProjectDisplayName" : "",
                      "clipSpeedAttribute" : false,
                      "default-callout-shape" : "shape-rectangle",
                      "default-stroke-color-red" : 0.0,
                      "default-stroke-width" : 6.0,
                      "default-translation0" : 0.0,
                      "default-translation1" : 0.0
                    },
                    "animationTracks" : {

                    }
                  },
                  {
                    "id" : 356,
                    "_type" : "Callout",
                    "def" : {
                      "kind" : "remix",
                      "shape" : "shape-rectangle",
                      "style" : "basic",
                      "fill-color-blue" : 0.0,
                      "fill-color-green" : 0.0,
                      "fill-color-opacity" : 0.0,
                      "fill-color-red" : 0.0,
                      "height" : 160.49019607855,
                      "stroke-color-blue" : 0.0,
                      "stroke-color-green" : 0.0,
                      "stroke-color-opacity" : 1.0,
                      "stroke-color-red" : 1.0,
                      "stroke-width" : 15.0,
                      "width" : 2439.11580882289,
                      "fill-style" : "solid",
                      "horizontal-alignment" : "center",
                      "stroke-style" : "solid",
                      "vertical-alignment" : "center",
                      "textAttributes" : {
                        "type" : "textAttributeList",
                        "keyframes" : [
                          {
                            "endTime" : 0,
                            "time" : 0,
                            "value" : null,
                            "duration" : 0
                          }
                        ]
                      }
                    },
                    "attributes" : {
                      "autoRotateText" : true
                    },
                    "parameters" : {
                      "translation0" : -13.2362132361915,
                      "translation1" : 393.627450980627
                    },
                    "effects" : [
                        {
                          "effectName" : "DropShadow",
                          "category" : "categoryVisualEffects",
                          "parameters" : {
                            "angle" : 5.49778714378214,
                            "blur" : 10.0,
                            "color-alpha" : 1.0,
                            "color-blue" : 0.1216,
                            "color-green" : 0.1216,
                            "color-red" : 0.1216,
                            "enabled" : 1,
                            "offset" : 10.0,
                            "opacity" : 0.4
                          }
                        }
                    ],
                    "start" : 1263,
                    "duration" : 147,
                    "mediaStart" : -54,
                    "mediaDuration" : 147,
                    "scalar" : 1,
                    "metadata" : {
                      "WinSubProjectDisplayName" : "",
                      "clipSpeedAttribute" : false,
                      "default-callout-shape" : "shape-rectangle",
                      "default-stroke-color-red" : 0.0,
                      "default-stroke-width" : 6.0,
                      "default-translation0" : 0.0,
                      "default-translation1" : 0.0
                    },
                    "animationTracks" : {

                    }
                  },
                  {
                    "id" : 357,
                    "_type" : "IMFile",
                    "src" : 10,
                    "trackNumber" : 0,
                    "trimStartSum" : 0,
                    "attributes" : {
                      "ident" : "memoryranger_without_gun_transparent_cropped"
                    },
                    "parameters" : {
                      "translation0" : 133.625559386375,
                      "translation1" : 364.586878427084,
                      "scale0" : 0.231367047732227,
                      "scale1" : 0.231367047732227
                    },
                    "effects" : [

                    ],
                    "start" : 1444,
                    "duration" : 207,
                    "mediaStart" : 0,
                    "mediaDuration" : 1,
                    "scalar" : 1,
                    "metadata" : {
                      "clipSpeedAttribute" : false,
                      "default-scale0" : 1.0,
                      "default-scale1" : 1.0,
                      "default-translation0" : 0.0,
                      "default-translation1" : 0.0
                    },
                    "animationTracks" : {

                    }
                  },
                  {
                    "id" : 358,
                    "_type" : "IMFile",
                    "src" : 10,
                    "trackNumber" : 0,
                    "trimStartSum" : 0,
                    "attributes" : {
                      "ident" : "memoryranger_without_gun_transparent_cropped"
                    },
                    "parameters" : {
                      "translation0" : 133.625559386375,
                      "translation1" : 364.586878427084,
                      "scale0" : 0.231367047732227,
                      "scale1" : 0.231367047732227
                    },
                    "effects" : [

                    ],
                    "start" : 1738,
                    "duration" : 55,
                    "mediaStart" : 0,
                    "mediaDuration" : 1,
                    "scalar" : 1,
                    "metadata" : {
                      "clipSpeedAttribute" : false,
                      "default-scale0" : 1.0,
                      "default-scale1" : 1.0,
                      "default-translation0" : 0.0,
                      "default-translation1" : 0.0
                    },
                    "animationTracks" : {

                    }
                  },
                  {
                    "id" : 359,
                    "_type" : "Callout",
                    "def" : {
                      "kind" : "remix",
                      "shape" : "shape-rectangle",
                      "style" : "basic",
                      "fill-color-blue" : 0.0,
                      "fill-color-green" : 0.0,
                      "fill-color-opacity" : 0.0,
                      "fill-color-red" : 0.0,
                      "height" : 98.7254901961718,
                      "stroke-color-blue" : 0.0,
                      "stroke-color-green" : 0.0,
                      "stroke-color-opacity" : 1.0,
                      "stroke-color-red" : 1.0,
                      "stroke-width" : 15.0,
                      "width" : 794.998161764081,
                      "fill-style" : "solid",
                      "horizontal-alignment" : "center",
                      "stroke-style" : "solid",
                      "vertical-alignment" : "center",
                      "textAttributes" : {
                        "type" : "textAttributeList",
                        "keyframes" : [
                          {
                            "endTime" : 0,
                            "time" : 0,
                            "value" : null,
                            "duration" : 0
                          }
                        ]
                      }
                    },
                    "attributes" : {
                      "autoRotateText" : true
                    },
                    "parameters" : {
                      "translation0" : -880.883268468515,
                      "translation1" : -293.137254901581
                    },
                    "effects" : [
                        {
                          "effectName" : "DropShadow",
                          "category" : "categoryVisualEffects",
                          "parameters" : {
                            "angle" : 5.49778714378214,
                            "blur" : 10.0,
                            "color-alpha" : 1.0,
                            "color-blue" : 0.1216,
                            "color-green" : 0.1216,
                            "color-red" : 0.1216,
                            "enabled" : 1,
                            "offset" : 10.0,
                            "opacity" : 0.4
                          }
                        }
                    ],
                    "start" : 1829,
                    "duration" : 84,
                    "mediaStart" : -4,
                    "mediaDuration" : 84,
                    "scalar" : 1,
                    "metadata" : {
                      "WinSubProjectDisplayName" : "",
                      "clipSpeedAttribute" : false,
                      "default-callout-shape" : "shape-rectangle",
                      "default-stroke-color-red" : 0.0,
                      "default-stroke-width" : 6.0,
                      "default-translation0" : 0.0,
                      "default-translation1" : 0.0
                    },
                    "animationTracks" : {

                    }
                  },
                  {
                    "id" : 360,
                    "_type" : "Callout",
                    "def" : {
                      "kind" : "remix",
                      "shape" : "shape-rectangle",
                      "style" : "basic",
                      "fill-color-blue" : 0.0,
                      "fill-color-green" : 0.0,
                      "fill-color-opacity" : 0.0,
                      "fill-color-red" : 0.0,
                      "height" : 98.7254901961718,
                      "stroke-color-blue" : 0.0,
                      "stroke-color-green" : 0.0,
                      "stroke-color-opacity" : 1.0,
                      "stroke-color-red" : 1.0,
                      "stroke-width" : 15.0,
                      "width" : 1489.11580882301,
                      "fill-style" : "solid",
                      "horizontal-alignment" : "center",
                      "stroke-style" : "solid",
                      "vertical-alignment" : "center",
                      "textAttributes" : {
                        "type" : "textAttributeList",
                        "keyframes" : [
                          {
                            "endTime" : 0,
                            "time" : 0,
                            "value" : null,
                            "duration" : 0
                          }
                        ]
                      }
                    },
                    "attributes" : {
                      "autoRotateText" : true
                    },
                    "parameters" : {
                      "translation0" : -425.000915527213,
                      "translation1" : 521.568627451382
                    },
                    "effects" : [
                        {
                          "effectName" : "DropShadow",
                          "category" : "categoryVisualEffects",
                          "parameters" : {
                            "angle" : 5.49778714378214,
                            "blur" : 10.0,
                            "color-alpha" : 1.0,
                            "color-blue" : 0.1216,
                            "color-green" : 0.1216,
                            "color-red" : 0.1216,
                            "enabled" : 1,
                            "offset" : 10.0,
                            "opacity" : 0.4
                          }
                        }
                    ],
                    "start" : 1968,
                    "duration" : 182,
                    "mediaStart" : -4,
                    "mediaDuration" : 182,
                    "scalar" : 1,
                    "metadata" : {
                      "WinSubProjectDisplayName" : "",
                      "clipSpeedAttribute" : false,
                      "default-callout-shape" : "shape-rectangle",
                      "default-stroke-color-red" : 0.0,
                      "default-stroke-width" : 6.0,
                      "default-translation0" : 0.0,
                      "default-translation1" : 0.0
                    },
                    "animationTracks" : {

                    }
                  },
                  {
                    "id" : 361,
                    "_type" : "IMFile",
                    "src" : 10,
                    "trackNumber" : 0,
                    "trimStartSum" : 8,
                    "attributes" : {
                      "ident" : "memoryranger_without_gun_transparent_cropped"
                    },
                    "parameters" : {
                      "translation0" : 133.625559386375,
                      "translation1" : 364.586878427084,
                      "scale0" : 0.231367047732227,
                      "scale1" : 0.231367047732227
                    },
                    "effects" : [

                    ],
                    "start" : 2297,
                    "duration" : 28,
                    "mediaStart" : 0,
                    "mediaDuration" : 1,
                    "scalar" : 1,
                    "metadata" : {
                      "clipSpeedAttribute" : false,
                      "default-scale0" : 1.0,
                      "default-scale1" : 1.0,
                      "default-translation0" : 0.0,
                      "default-translation1" : 0.0
                    },
                    "animationTracks" : {

                    }
                  },
                  {
                    "id" : 362,
                    "_type" : "IMFile",
                    "src" : 10,
                    "trackNumber" : 0,
                    "trimStartSum" : 7,
                    "attributes" : {
                      "ident" : "memoryranger_without_gun_transparent_cropped"
                    },
                    "parameters" : {
                      "translation0" : 133.625559386375,
                      "translation1" : 364.586878427084,
                      "scale0" : 0.231367047732227,
                      "scale1" : 0.231367047732227
                    },
                    "effects" : [

                    ],
                    "start" : 2440,
                    "duration" : 9,
                    "mediaStart" : 0,
                    "mediaDuration" : 1,
                    "scalar" : 1,
                    "metadata" : {
                      "clipSpeedAttribute" : false,
                      "default-scale0" : 1.0,
                      "default-scale1" : 1.0,
                      "default-translation0" : 0.0,
                      "default-translation1" : 0.0
                    },
                    "animationTracks" : {

                    }
                  },
                  {
                    "id" : 363,
                    "_type" : "Callout",
                    "def" : {
                      "kind" : "remix",
                      "shape" : "shape-rectangle",
                      "style" : "basic",
                      "fill-color-blue" : 0.0,
                      "fill-color-green" : 0.0,
                      "fill-color-opacity" : 0.0,
                      "fill-color-red" : 0.0,
                      "height" : 79.705882353005,
                      "stroke-color-blue" : 0.0,
                      "stroke-color-green" : 0.0,
                      "stroke-color-opacity" : 1.0,
                      "stroke-color-red" : 1.0,
                      "stroke-width" : 15.0,
                      "width" : 1378.39411764654,
                      "fill-style" : "solid",
                      "horizontal-alignment" : "center",
                      "stroke-style" : "solid",
                      "vertical-alignment" : "center",
                      "textAttributes" : {
                        "type" : "textAttributeList",
                        "keyframes" : [
                          {
                            "endTime" : 0,
                            "time" : 0,
                            "value" : null,
                            "duration" : 0
                          }
                        ]
                      }
                    },
                    "attributes" : {
                      "autoRotateText" : true
                    },
                    "parameters" : {
                      "translation0" : -545.667647058823,
                      "translation1" : 541.470588235894
                    },
                    "effects" : [
                        {
                          "effectName" : "DropShadow",
                          "category" : "categoryVisualEffects",
                          "parameters" : {
                            "angle" : 5.49778714378214,
                            "blur" : 10.0,
                            "color-alpha" : 1.0,
                            "color-blue" : 0.1216,
                            "color-green" : 0.1216,
                            "color-red" : 0.1216,
                            "enabled" : 1,
                            "offset" : 10.0,
                            "opacity" : 0.4
                          }
                        }
                    ],
                    "start" : 2561,
                    "duration" : 108,
                    "mediaStart" : -14,
                    "mediaDuration" : 108,
                    "scalar" : 1,
                    "metadata" : {
                      "WinSubProjectDisplayName" : "",
                      "clipSpeedAttribute" : false,
                      "default-callout-shape" : "shape-rectangle",
                      "default-stroke-color-red" : 0.0,
                      "default-stroke-width" : 6.0,
                      "default-translation0" : 0.0,
                      "default-translation1" : 0.0
                    },
                    "animationTracks" : {

                    }
                  },
                  {
                    "id" : 364,
                    "_type" : "Callout",
                    "def" : {
                      "kind" : "remix",
                      "shape" : "shape-rectangle",
                      "style" : "basic",
                      "fill-color-blue" : 0.0,
                      "fill-color-green" : 0.0,
                      "fill-color-opacity" : 0.0,
                      "fill-color-red" : 0.0,
                      "height" : 88.5294117647836,
                      "stroke-color-blue" : 0.0,
                      "stroke-color-green" : 0.0,
                      "stroke-color-opacity" : 1.0,
                      "stroke-color-red" : 1.0,
                      "stroke-width" : 15.0,
                      "width" : 266.62941176436,
                      "fill-style" : "solid",
                      "horizontal-alignment" : "center",
                      "stroke-style" : "solid",
                      "vertical-alignment" : "center",
                      "textAttributes" : {
                        "type" : "textAttributeList",
                        "keyframes" : [
                          {
                            "endTime" : 0,
                            "time" : 0,
                            "value" : null,
                            "duration" : 0
                          }
                        ]
                      }
                    },
                    "attributes" : {
                      "autoRotateText" : true
                    },
                    "parameters" : {
                      "translation0" : -1148.60882352945,
                      "translation1" : -454.117647058261
                    },
                    "effects" : [
                        {
                          "effectName" : "DropShadow",
                          "category" : "categoryVisualEffects",
                          "parameters" : {
                            "angle" : 5.49778714378214,
                            "blur" : 10.0,
                            "color-alpha" : 1.0,
                            "color-blue" : 0.1216,
                            "color-green" : 0.1216,
                            "color-red" : 0.1216,
                            "enabled" : 1,
                            "offset" : 10.0,
                            "opacity" : 0.4
                          }
                        }
                    ],
                    "start" : 2709,
                    "duration" : 53,
                    "mediaStart" : -15,
                    "mediaDuration" : 53,
                    "scalar" : 1,
                    "metadata" : {
                      "WinSubProjectDisplayName" : "",
                      "clipSpeedAttribute" : false,
                      "default-callout-shape" : "shape-rectangle",
                      "default-stroke-color-red" : 0.0,
                      "default-stroke-width" : 6.0,
                      "default-translation0" : 0.0,
                      "default-translation1" : 0.0
                    },
                    "animationTracks" : {

                    }
                  },
                  {
                    "id" : 365,
                    "_type" : "Callout",
                    "def" : {
                      "kind" : "remix",
                      "shape" : "shape-rectangle",
                      "style" : "basic",
                      "fill-color-blue" : 0.0,
                      "fill-color-green" : 0.0,
                      "fill-color-opacity" : 0.0,
                      "fill-color-red" : 0.0,
                      "height" : 76.7647058825926,
                      "stroke-color-blue" : 0.0,
                      "stroke-color-green" : 0.0,
                      "stroke-color-opacity" : 1.0,
                      "stroke-color-red" : 1.0,
                      "stroke-width" : 15.0,
                      "width" : 1102.12559239927,
                      "fill-style" : "solid",
                      "horizontal-alignment" : "center",
                      "stroke-style" : "solid",
                      "vertical-alignment" : "center",
                      "textAttributes" : {
                        "type" : "textAttributeList",
                        "keyframes" : [
                          {
                            "endTime" : 0,
                            "time" : 0,
                            "value" : null,
                            "duration" : 0
                          }
                        ]
                      }
                    },
                    "attributes" : {
                      "autoRotateText" : true
                    },
                    "parameters" : {
                      "translation0" : -687.094046200357,
                      "translation1" : 586.568627451319
                    },
                    "effects" : [
                        {
                          "effectName" : "DropShadow",
                          "category" : "categoryVisualEffects",
                          "parameters" : {
                            "angle" : 5.49778714378214,
                            "blur" : 10.0,
                            "color-alpha" : 1.0,
                            "color-blue" : 0.1216,
                            "color-green" : 0.1216,
                            "color-red" : 0.1216,
                            "enabled" : 1,
                            "offset" : 10.0,
                            "opacity" : 0.4
                          }
                        }
                    ],
                    "start" : 2804,
                    "duration" : 100,
                    "mediaStart" : -14,
                    "mediaDuration" : 100,
                    "scalar" : 1,
                    "metadata" : {
                      "WinSubProjectDisplayName" : "",
                      "clipSpeedAttribute" : false,
                      "default-callout-shape" : "shape-rectangle",
                      "default-stroke-color-red" : 0.0,
                      "default-stroke-width" : 6.0,
                      "default-translation0" : 0.0,
                      "default-translation1" : 0.0
                    },
                    "animationTracks" : {

                    }
                  },
                  {
                    "id" : 366,
                    "_type" : "Callout",
                    "def" : {
                      "kind" : "remix",
                      "shape" : "shape-rectangle",
                      "style" : "basic",
                      "fill-color-blue" : 0.0,
                      "fill-color-green" : 0.0,
                      "fill-color-opacity" : 0.0,
                      "fill-color-red" : 0.0,
                      "height" : 76.7647058825926,
                      "stroke-color-blue" : 0.0,
                      "stroke-color-green" : 0.0,
                      "stroke-color-opacity" : 1.0,
                      "stroke-color-red" : 1.0,
                      "stroke-width" : 15.0,
                      "width" : 963.890298281662,
                      "fill-style" : "solid",
                      "horizontal-alignment" : "center",
                      "stroke-style" : "solid",
                      "vertical-alignment" : "center",
                      "textAttributes" : {
                        "type" : "textAttributeList",
                        "keyframes" : [
                          {
                            "endTime" : 0,
                            "time" : 0,
                            "value" : null,
                            "duration" : 0
                          }
                        ]
                      }
                    },
                    "attributes" : {
                      "autoRotateText" : true
                    },
                    "parameters" : {
                      "translation0" : -797.388163847443,
                      "translation1" : -457.549019607487
                    },
                    "effects" : [
                        {
                          "effectName" : "DropShadow",
                          "category" : "categoryVisualEffects",
                          "parameters" : {
                            "angle" : 5.49778714378214,
                            "blur" : 10.0,
                            "color-alpha" : 1.0,
                            "color-blue" : 0.1216,
                            "color-green" : 0.1216,
                            "color-red" : 0.1216,
                            "enabled" : 1,
                            "offset" : 10.0,
                            "opacity" : 0.4
                          }
                        }
                    ],
                    "start" : 2915,
                    "duration" : 100,
                    "mediaStart" : -14,
                    "mediaDuration" : 100,
                    "scalar" : 1,
                    "metadata" : {
                      "WinSubProjectDisplayName" : "",
                      "clipSpeedAttribute" : false,
                      "default-callout-shape" : "shape-rectangle",
                      "default-stroke-color-red" : 0.0,
                      "default-stroke-width" : 6.0,
                      "default-translation0" : 0.0,
                      "default-translation1" : 0.0
                    },
                    "animationTracks" : {

                    }
                  },
                  {
                    "id" : 367,
                    "_type" : "Callout",
                    "def" : {
                      "kind" : "remix",
                      "shape" : "shape-rectangle",
                      "style" : "basic",
                      "fill-color-blue" : 0.0,
                      "fill-color-green" : 0.0,
                      "fill-color-opacity" : 0.0,
                      "fill-color-red" : 0.0,
                      "height" : 103.921567355267,
                      "stroke-color-blue" : 0.0,
                      "stroke-color-green" : 0.0,
                      "stroke-color-opacity" : 1.0,
                      "stroke-color-red" : 1.0,
                      "stroke-width" : 15.0,
                      "width" : 2497.05693921764,
                      "fill-style" : "solid",
                      "horizontal-alignment" : "center",
                      "stroke-style" : "solid",
                      "vertical-alignment" : "center",
                      "textAttributes" : {
                        "type" : "textAttributeList",
                        "keyframes" : [
                          {
                            "endTime" : 0,
                            "time" : 0,
                            "value" : null,
                            "duration" : 0
                          }
                        ]
                      }
                    },
                    "attributes" : {
                      "autoRotateText" : true
                    },
                    "parameters" : {
                      "translation0" : -23.9714843153883,
                      "translation1" : -365.931373184603
                    },
                    "effects" : [
                        {
                          "effectName" : "DropShadow",
                          "category" : "categoryVisualEffects",
                          "parameters" : {
                            "angle" : 5.49778714378214,
                            "blur" : 10.0,
                            "color-alpha" : 1.0,
                            "color-blue" : 0.1216,
                            "color-green" : 0.1216,
                            "color-red" : 0.1216,
                            "enabled" : 1,
                            "offset" : 10.0,
                            "opacity" : 0.4
                          }
                        }
                    ],
                    "start" : 3314,
                    "duration" : 297,
                    "mediaStart" : 2,
                    "mediaDuration" : 297,
                    "scalar" : 1,
                    "metadata" : {
                      "WinSubProjectDisplayName" : "",
                      "clipSpeedAttribute" : false,
                      "default-callout-shape" : "shape-rectangle",
                      "default-scale0" : 1.0,
                      "default-scale1" : 1.0,
                      "default-stroke-color-red" : 0.0,
                      "default-stroke-width" : 6.0,
                      "default-translation0" : 0.0,
                      "default-translation1" : 0.0
                    },
                    "animationTracks" : {

                    }
                  },
                  {
                    "id" : 368,
                    "_type" : "IMFile",
                    "src" : 10,
                    "trackNumber" : 0,
                    "trimStartSum" : 8,
                    "attributes" : {
                      "ident" : "memoryranger_without_gun_transparent_cropped"
                    },
                    "parameters" : {
                      "translation0" : 133.625559386375,
                      "translation1" : 364.586878427084,
                      "scale0" : 0.231367047732227,
                      "scale1" : 0.231367047732227
                    },
                    "effects" : [

                    ],
                    "start" : 3641,
                    "duration" : 37,
                    "mediaStart" : 0,
                    "mediaDuration" : 1,
                    "scalar" : 1,
                    "metadata" : {
                      "clipSpeedAttribute" : false,
                      "default-scale0" : 1.0,
                      "default-scale1" : 1.0,
                      "default-translation0" : 0.0,
                      "default-translation1" : 0.0
                    },
                    "animationTracks" : {

                    }
                  },
                  {
                    "id" : 369,
                    "_type" : "IMFile",
                    "src" : 10,
                    "trackNumber" : 0,
                    "trimStartSum" : 8,
                    "attributes" : {
                      "ident" : "memoryranger_without_gun_transparent_cropped"
                    },
                    "parameters" : {
                      "translation0" : 133.625559386375,
                      "translation1" : 364.586878427084,
                      "scale0" : 0.231367047732227,
                      "scale1" : 0.231367047732227
                    },
                    "effects" : [

                    ],
                    "start" : 3819,
                    "duration" : 25,
                    "mediaStart" : 0,
                    "mediaDuration" : 1,
                    "scalar" : 1,
                    "metadata" : {
                      "clipSpeedAttribute" : false,
                      "default-scale0" : 1.0,
                      "default-scale1" : 1.0,
                      "default-translation0" : 0.0,
                      "default-translation1" : 0.0
                    },
                    "animationTracks" : {

                    }
                  },
                  {
                    "id" : 370,
                    "_type" : "Callout",
                    "def" : {
                      "kind" : "remix",
                      "shape" : "shape-rectangle",
                      "style" : "basic",
                      "fill-color-blue" : 0.0,
                      "fill-color-green" : 0.0,
                      "fill-color-opacity" : 0.0,
                      "fill-color-red" : 0.0,
                      "height" : 373.309322457219,
                      "stroke-color-blue" : 0.0,
                      "stroke-color-green" : 0.0,
                      "stroke-color-opacity" : 1.0,
                      "stroke-color-red" : 1.0,
                      "stroke-width" : 15.0,
                      "width" : 1513.38346983033,
                      "fill-style" : "solid",
                      "horizontal-alignment" : "center",
                      "stroke-style" : "solid",
                      "vertical-alignment" : "center",
                      "textAttributes" : {
                        "type" : "textAttributeList",
                        "keyframes" : [
                          {
                            "endTime" : 0,
                            "time" : 0,
                            "value" : null,
                            "duration" : 0
                          }
                        ]
                      }
                    },
                    "attributes" : {
                      "autoRotateText" : true
                    },
                    "parameters" : {
                      "translation0" : -40.2980149274856,
                      "translation1" : -16.9517813479639
                    },
                    "effects" : [
                        {
                          "effectName" : "DropShadow",
                          "category" : "categoryVisualEffects",
                          "parameters" : {
                            "angle" : 5.49778714378214,
                            "blur" : 10.0,
                            "color-alpha" : 1.0,
                            "color-blue" : 0.1216,
                            "color-green" : 0.1216,
                            "color-red" : 0.1216,
                            "enabled" : 1,
                            "offset" : 10.0,
                            "opacity" : 0.4
                          }
                        }
                    ],
                    "start" : 4145,
                    "duration" : 305,
                    "mediaStart" : 2,
                    "mediaDuration" : 305,
                    "scalar" : 1,
                    "metadata" : {
                      "WinSubProjectDisplayName" : "",
                      "clipSpeedAttribute" : false,
                      "default-callout-shape" : "shape-rectangle",
                      "default-scale0" : 1.0,
                      "default-scale1" : 1.0,
                      "default-stroke-color-red" : 0.0,
                      "default-stroke-width" : 6.0,
                      "default-translation0" : 0.0,
                      "default-translation1" : 0.0
                    },
                    "animationTracks" : {

                    }
                  },
                  {
                    "id" : 371,
                    "_type" : "AMFile",
                    "src" : 6,
                    "trackNumber" : 0,
                    "attributes" : {
                      "ident" : "winner_game",
                      "gain" : 1.0,
                      "mixToMono" : false
                    },
                      "channelNumber" : "0,1",
                    "parameters" : {
                      "volume" : {
                        "type" : "double",
                        "keyframes" : [
                          {
                            "endTime" : -1,
                            "time" : -1,
                            "value" : 0.722135007849295,
                            "duration" : 0
                          },
                          {
                            "endTime" : 0,
                            "time" : 0,
                            "value" : 0.0,
                            "duration" : 0
                          },
                          {
                            "endTime" : 20,
                            "time" : 20,
                            "value" : 0.722135007849295,
                            "duration" : 0
                          },
                          {
                            "endTime" : 81,
                            "time" : 81,
                            "value" : 0.722135007849295,
                            "duration" : 0
                          },
                          {
                            "endTime" : 82,
                            "time" : 82,
                            "value" : 0.0,
                            "duration" : 0
                          },
                          {
                            "endTime" : 120,
                            "time" : 120,
                            "value" : 1.61807580174927,
                            "duration" : 0
                          },
                          {
                            "endTime" : 162,
                            "time" : 162,
                            "value" : 1.61807580174927,
                            "duration" : 0
                          },
                          {
                            "endTime" : 199,
                            "time" : 199,
                            "value" : 0.0,
                            "duration" : 0
                          },
                          {
                            "endTime" : 200,
                            "time" : 200,
                            "value" : 0.722135007849295,
                            "duration" : 0
                          }
                        ]
                      }
                    },
                    "effects" : [

                    ],
                    "start" : 4568,
                    "duration" : 117,
                    "mediaStart" : 82,
                    "mediaDuration" : 117,
                    "scalar" : 1,
                    "metadata" : {
                      "clipSpeedAttribute" : false
                    },
                    "animationTracks" : {

                    }
                  }
                ]
              },
              {
                "trackIndex" : 5,
                "medias" : [
                  {
                    "id" : 372,
                    "_type" : "IMFile",
                    "src" : 8,
                    "trackNumber" : 0,
                    "trimStartSum" : 0,
                    "attributes" : {
                      "ident" : "4 new_idea_half_nobackground_mirror"
                    },
                    "parameters" : {
                      "translation0" : 983.985770972258,
                      "translation1" : -87.5353400161493,
                      "scale0" : 1.62750599426552,
                      "scale1" : 1.62750599426552
                    },
                    "effects" : [

                    ],
                    "start" : 756,
                    "duration" : 654,
                    "mediaStart" : 0,
                    "mediaDuration" : 1,
                    "scalar" : 1,
                    "metadata" : {
                      "clipSpeedAttribute" : false,
                      "default-scale0" : 1.0,
                      "default-scale1" : 1.0,
                      "default-translation0" : -0.5,
                      "default-translation1" : -0.5
                    },
                    "animationTracks" : {

                    }
                  },
                  {
                    "id" : 373,
                    "_type" : "IMFile",
                    "src" : 9,
                    "trackNumber" : 0,
                    "trimStartSum" : 0,
                    "attributes" : {
                      "ident" : "256"
                    },
                    "parameters" : {
                      "translation0" : 1002.23534524375,
                      "translation1" : -187.307688211462,
                      "scale0" : 1.86718749327863,
                      "scale1" : 1.86718749327863
                    },
                    "effects" : [

                    ],
                    "start" : 1829,
                    "duration" : 419,
                    "mediaStart" : 0,
                    "mediaDuration" : 1,
                    "scalar" : 1,
                    "metadata" : {
                      "clipSpeedAttribute" : false,
                      "default-scale0" : 1.0,
                      "default-scale1" : 1.0,
                      "default-translation0" : 0.0,
                      "default-translation1" : 0.0
                    },
                    "animationTracks" : {

                    }
                  },
                  {
                    "id" : 374,
                    "_type" : "IMFile",
                    "src" : 9,
                    "trackNumber" : 0,
                    "trimStartSum" : 0,
                    "attributes" : {
                      "ident" : "256"
                    },
                    "parameters" : {
                      "translation0" : 1002.23534524375,
                      "translation1" : -187.307688211462,
                      "scale0" : 1.86718749327863,
                      "scale1" : 1.86718749327863
                    },
                    "effects" : [

                    ],
                    "start" : 2479,
                    "duration" : 652,
                    "mediaStart" : 0,
                    "mediaDuration" : 1,
                    "scalar" : 1,
                    "metadata" : {
                      "clipSpeedAttribute" : false,
                      "default-scale0" : 1.0,
                      "default-scale1" : 1.0,
                      "default-translation0" : 0.0,
                      "default-translation1" : 0.0
                    },
                    "animationTracks" : {

                    }
                  },
                  {
                    "id" : 375,
                    "_type" : "Callout",
                    "def" : {
                      "kind" : "remix",
                      "shape" : "shape-rectangle",
                      "style" : "basic",
                      "fill-color-blue" : 0.0,
                      "fill-color-green" : 0.0,
                      "fill-color-opacity" : 0.0,
                      "fill-color-red" : 0.0,
                      "height" : 103.921567355267,
                      "stroke-color-blue" : 0.0,
                      "stroke-color-green" : 0.0,
                      "stroke-color-opacity" : 1.0,
                      "stroke-color-red" : 1.0,
                      "stroke-width" : 15.0,
                      "width" : 2497.05693921764,
                      "fill-style" : "solid",
                      "horizontal-alignment" : "center",
                      "stroke-style" : "solid",
                      "vertical-alignment" : "center",
                      "textAttributes" : {
                        "type" : "textAttributeList",
                        "keyframes" : [
                          {
                            "endTime" : 0,
                            "time" : 0,
                            "value" : null,
                            "duration" : 0
                          }
                        ]
                      }
                    },
                    "attributes" : {
                      "autoRotateText" : true
                    },
                    "parameters" : {
                      "translation0" : -23.9714843153883,
                      "translation1" : 642.892156227176
                    },
                    "effects" : [
                        {
                          "effectName" : "DropShadow",
                          "category" : "categoryVisualEffects",
                          "parameters" : {
                            "angle" : 5.49778714378214,
                            "blur" : 10.0,
                            "color-alpha" : 1.0,
                            "color-blue" : 0.1216,
                            "color-green" : 0.1216,
                            "color-red" : 0.1216,
                            "enabled" : 1,
                            "offset" : 10.0,
                            "opacity" : 0.4
                          }
                        }
                    ],
                    "start" : 3315,
                    "duration" : 296,
                    "mediaStart" : 2,
                    "mediaDuration" : 296,
                    "scalar" : 1,
                    "metadata" : {
                      "WinSubProjectDisplayName" : "",
                      "clipSpeedAttribute" : false,
                      "default-callout-shape" : "shape-rectangle",
                      "default-scale0" : 1.0,
                      "default-scale1" : 1.0,
                      "default-stroke-color-red" : 0.0,
                      "default-stroke-width" : 6.0,
                      "default-translation0" : 0.0,
                      "default-translation1" : 0.0
                    },
                    "animationTracks" : {

                    }
                  },
                  {
                    "id" : 376,
                    "_type" : "Callout",
                    "def" : {
                      "kind" : "remix",
                      "shape" : "shape-rectangle",
                      "style" : "basic",
                      "fill-color-blue" : 0.0,
                      "fill-color-green" : 0.0,
                      "fill-color-opacity" : 0.0,
                      "fill-color-red" : 0.0,
                      "height" : 364.425773899992,
                      "stroke-color-blue" : 0.0,
                      "stroke-color-green" : 0.0,
                      "stroke-color-opacity" : 1.0,
                      "stroke-color-red" : 1.0,
                      "stroke-width" : 15.0,
                      "width" : 1643.99571472789,
                      "fill-style" : "solid",
                      "horizontal-alignment" : "center",
                      "stroke-style" : "solid",
                      "vertical-alignment" : "center",
                      "textAttributes" : {
                        "type" : "textAttributeList",
                        "keyframes" : [
                          {
                            "endTime" : 0,
                            "time" : 0,
                            "value" : null,
                            "duration" : 0
                          }
                        ]
                      }
                    },
                    "attributes" : {
                      "autoRotateText" : true
                    },
                    "parameters" : {
                      "translation0" : -450.502096560261,
                      "translation1" : 530.287116642209
                    },
                    "effects" : [
                        {
                          "effectName" : "DropShadow",
                          "category" : "categoryVisualEffects",
                          "parameters" : {
                            "angle" : 5.49778714378214,
                            "blur" : 10.0,
                            "color-alpha" : 1.0,
                            "color-blue" : 0.1216,
                            "color-green" : 0.1216,
                            "color-red" : 0.1216,
                            "enabled" : 1,
                            "offset" : 10.0,
                            "opacity" : 0.4
                          }
                        }
                    ],
                    "start" : 4145,
                    "duration" : 305,
                    "mediaStart" : 2,
                    "mediaDuration" : 305,
                    "scalar" : 1,
                    "metadata" : {
                      "WinSubProjectDisplayName" : "",
                      "clipSpeedAttribute" : false,
                      "default-callout-shape" : "shape-rectangle",
                      "default-scale0" : 1.0,
                      "default-scale1" : 1.0,
                      "default-stroke-color-red" : 0.0,
                      "default-stroke-width" : 6.0,
                      "default-translation0" : 0.0,
                      "default-translation1" : 0.0
                    },
                    "animationTracks" : {

                    }
                  },
                  {
                    "id" : 377,
                    "_type" : "Callout",
                    "def" : {
                      "kind" : "remix",
                      "shape" : "shape-rectangle",
                      "style" : "basic",
                      "fill-color-blue" : 0.0,
                      "fill-color-green" : 0.0,
                      "fill-color-opacity" : 0.0,
                      "fill-color-red" : 0.0,
                      "height" : 1425.00002748117,
                      "stroke-color-blue" : 0.2,
                      "stroke-color-green" : 0.4,
                      "stroke-color-opacity" : 1.0,
                      "stroke-color-red" : 0.0,
                      "stroke-width" : 20.0,
                      "width" : 2544.99998028906,
                      "fill-style" : "solid",
                      "horizontal-alignment" : "center",
                      "stroke-style" : "solid",
                      "vertical-alignment" : "center",
                      "textAttributes" : {
                        "type" : "textAttributeList",
                        "keyframes" : [
                          {
                            "endTime" : 0,
                            "time" : 0,
                            "value" : null,
                            "duration" : 0
                          }
                        ]
                      }
                    },
                    "attributes" : {
                      "autoRotateText" : true
                    },
                    "parameters" : {
                      "translation0" : -9.53778567236441e-07,
                      "translation1" : -1.62496047693139e-05
                    },
                    "effects" : [
                        {
                          "effectName" : "DropShadow",
                          "category" : "categoryVisualEffects",
                          "parameters" : {
                            "angle" : 5.49778714378214,
                            "blur" : 10.0,
                            "color-alpha" : 1.0,
                            "color-blue" : 0.1216,
                            "color-green" : 0.1216,
                            "color-red" : 0.1216,
                            "enabled" : 1,
                            "offset" : 10.0,
                            "opacity" : 0.4
                          }
                        }
                    ],
                    "start" : 4477,
                    "duration" : 208,
                    "mediaStart" : 32,
                    "mediaDuration" : 208,
                    "scalar" : 1,
                    "metadata" : {
                      "WinSubProjectDisplayName" : "",
                      "clipSpeedAttribute" : false,
                      "default-callout-shape" : "shape-rectangle",
                      "default-stroke-color-blue" : 0.0,
                      "default-stroke-color-green" : 0.0,
                      "default-stroke-color-red" : 0.0,
                      "default-stroke-width" : 6.0,
                      "default-translation0" : 0.0,
                      "default-translation1" : 0.0
                    },
                    "animationTracks" : {

                    }
                  }
                ]
              },
              {
                "trackIndex" : 6,
                "medias" : [
                  {
                    "id" : 378,
                    "_type" : "AMFile",
                    "src" : 3,
                    "trackNumber" : 0,
                    "attributes" : {
                      "ident" : "Henry Jackman, Matthew Margeson - Rescuing Harry",
                      "gain" : 1.0,
                      "mixToMono" : false
                    },
                      "channelNumber" : "0,1",
                    "parameters" : {
                      "volume" : {
                        "type" : "double",
                        "keyframes" : [
                          {
                            "endTime" : 0,
                            "time" : 0,
                            "value" : 1.0,
                            "duration" : 0
                          },
                          {
                            "endTime" : 1650,
                            "time" : 1650,
                            "value" : 1.0,
                            "duration" : 0
                          },
                          {
                            "endTime" : 1651,
                            "time" : 1651,
                            "value" : 0.0,
                            "duration" : 0
                          },
                          {
                            "endTime" : 1674,
                            "time" : 1674,
                            "value" : 1.0,
                            "duration" : 0
                          },
                          {
                            "endTime" : 1725,
                            "time" : 1725,
                            "value" : 1.0,
                            "duration" : 0
                          },
                          {
                            "endTime" : 1742,
                            "time" : 1742,
                            "value" : 0.0,
                            "duration" : 0
                          },
                          {
                            "endTime" : 1743,
                            "time" : 1743,
                            "value" : 1.0,
                            "duration" : 0
                          }
                        ]
                      }
                    },
                    "effects" : [

                    ],
                    "start" : 3300,
                    "duration" : 91,
                    "mediaStart" : 1651,
                    "mediaDuration" : 91,
                    "scalar" : 1,
                    "metadata" : {
                      "clipSpeedAttribute" : false
                    },
                    "animationTracks" : {

                    }
                  },
                  {
                    "id" : 379,
                    "_type" : "Callout",
                    "def" : {
                      "kind" : "remix",
                      "shape" : "text-rectangle",
                      "style" : "basic",
                      "fill-color-blue" : 0.2,
                      "fill-color-green" : 0.4,
                      "fill-color-opacity" : 1.0,
                      "fill-color-red" : 0.0,
                      "height" : 97.0,
                      "line-spacing" : 0.0,
                      "stroke-color-blue" : 0.890196078431372,
                      "stroke-color-green" : 0.870588235294118,
                      "stroke-color-opacity" : 1.0,
                      "stroke-color-red" : 0.847058823529412,
                      "stroke-width" : 2.0,
                      "tail-x" : -832.499999999924,
                      "tail-y" : -7.29166666673641,
                      "width" : 1124.69431279903,
                      "word-wrap" : 1.0,
                      "fill-style" : "solid",
                      "horizontal-alignment" : "center",
                      "resize-behavior" : "resizeText",
                      "stroke-style" : "solid",
                      "text" : "The OS is protected!",
                      "vertical-alignment" : "center",
                      "font" : {
                        "color-blue" : 0.266666666666667,
                        "color-green" : 0.231372549019608,
                        "color-opacity" : 1.0,
                        "color-red" : 0.184313725490196,
                        "size" : 64.0,
                        "tracking" : 0.0,
                        "name" : "Montserrat",
                        "weight" : "Regular"
                      },
                      "textAttributes" : {
                        "type" : "textAttributeList",
                        "keyframes" : [
                          {
                            "endTime" : 0,
                            "time" : 0,
                            "value" : [{"name":"underline","rangeEnd":20,"rangeStart":0,"value":0,"valueType":"int"},{"name":"fontName","rangeEnd":20,"rangeStart":0,"value":"Montserrat","valueType":"string"},{"name":"fontItalic","rangeEnd":20,"rangeStart":0,"value":0,"valueType":"int"},{"name":"strikethrough","rangeEnd":20,"rangeStart":0,"value":0,"valueType":"int"},{"name":"fontWeight","rangeEnd":20,"rangeStart":0,"value":400,"valueType":"int"},{"name":"fgColor","rangeEnd":20,"rangeStart":0,"value":"(255,255,255,255)","valueType":"color"},{"name":"fontSize","rangeEnd":20,"rangeStart":0,"value":80,"valueType":"double"}],
                            "duration" : 0
                          }
                        ]
                      }
                    },
                    "attributes" : {
                      "autoRotateText" : true
                    },
                    "parameters" : {
                      "translation0" : -8.97815155570812e-11,
                      "translation1" : -601.246936274488
                    },
                    "effects" : [
                        {
                          "effectName" : "DropShadow",
                          "category" : "categoryVisualEffects",
                          "parameters" : {
                            "angle" : 5.49778714378214,
                            "blur" : 10.0,
                            "color-alpha" : 1.0,
                            "color-blue" : 0.1216,
                            "color-green" : 0.1216,
                            "color-red" : 0.1216,
                            "enabled" : 1,
                            "offset" : 10.0,
                            "opacity" : 0.4
                          }
                        }
                    ],
                    "start" : 4477,
                    "duration" : 208,
                    "mediaStart" : -6,
                    "mediaDuration" : 208,
                    "scalar" : 1,
                    "metadata" : {
                      "WinSubProjectDisplayName" : "",
                      "clipSpeedAttribute" : false,
                      "default-HAlign" : "center",
                      "default-LineSpace" : 0.0,
                      "default-VAlign" : "center",
                      "default-fill-color-blue" : 1.0,
                      "default-fill-color-green" : 1.0,
                      "default-fill-color-red" : 1.0,
                      "default-scale0" : 1.0,
                      "default-scale1" : 1.0,
                      "default-stroke-color-blue" : 0.56078431372549,
                      "default-stroke-color-green" : 0.686274509803922,
                      "default-stroke-color-red" : 0.0196078431372549,
                      "default-text-attributes" : "[{\"name\":\"fontSize\",\"rangeEnd\":32,\"rangeStart\":0,\"value\":64,\"valueType\":\"double\"},{\"name\":\"fgColor\",\"rangeEnd\":32,\"rangeStart\":0,\"value\":\"(255,255,255,255)\",\"valueType\":\"color\"},{\"name\":\"fontWeight\",\"rangeEnd\":32,\"rangeStart\":0,\"value\":400,\"valueType\":\"int\"},{\"name\":\"fontName\",\"rangeEnd\":32,\"rangeStart\":0,\"value\":\"Montserrat\",\"valueType\":\"string\"},{\"name\":\"fontItalic\",\"rangeEnd\":32,\"rangeStart\":0,\"value\":0,\"valueType\":\"int\"},{\"name\":\"strikethrough\",\"rangeEnd\":32,\"rangeStart\":0,\"value\":0,\"valueType\":\"int\"},{\"name\":\"underline\",\"rangeEnd\":32,\"rangeStart\":0,\"value\":0,\"valueType\":\"int\"}]",
                      "default-translation0" : 0.0,
                      "default-translation1" : 0.0
                    },
                    "animationTracks" : {

                    }
                  }
                ]
              },
              {
                "trackIndex" : 7,
                "medias" : [
                  {
                    "id" : 380,
                    "_type" : "IMFile",
                    "src" : 7,
                    "trackNumber" : 0,
                    "trimStartSum" : -8,
                    "attributes" : {
                      "ident" : "happy_with_sleeves"
                    },
                    "parameters" : {
                      "translation0" : 830.616279069741,
                      "translation1" : 119.366593925218,
                      "scale0" : 2.09502900200651,
                      "scale1" : 2.09502900200651
                    },
                    "effects" : [
                        {
                          "effectName" : "Colorize",
                          "category" : "categoryVisualEffects",
                          "parameters" : {
                            "amount" : 1.0,
                            "color-alpha" : 1.0,
                            "color-blue" : 0.247058823529412,
                            "color-green" : 0.419607843137255,
                            "color-red" : 0.592156862745098,
                            "enabled" : 1,
                            "mode" : 0
                          },
                          "metadata" : {
                            "default-colorize-b" : 0.0,
                            "default-colorize-g" : 1.0,
                            "default-colorize-r" : 0.0
                          }
                        }
                    ],
                    "start" : 3315,
                    "duration" : 293,
                    "mediaStart" : 0,
                    "mediaDuration" : 1,
                    "scalar" : 1,
                    "metadata" : {
                      "clipSpeedAttribute" : false,
                      "default-scale0" : 1.0,
                      "default-scale1" : 1.0,
                      "default-translation0" : -0.5,
                      "default-translation1" : -0.5
                    },
                    "animationTracks" : {

                    }
                  },
                  {
                    "id" : 381,
                    "_type" : "IMFile",
                    "src" : 10,
                    "trackNumber" : 0,
                    "trimStartSum" : 23,
                    "attributes" : {
                      "ident" : "memoryranger_without_gun_transparent_cropped"
                    },
                    "parameters" : {
                      "translation0" : -9.54012605802745e-07,
                      "translation1" : -312.056257507425,
                      "scale0" : 0.678578181130619,
                      "scale1" : 0.678578181130619
                    },
                    "effects" : [

                    ],
                    "start" : 4500,
                    "duration" : 185,
                    "mediaStart" : 0,
                    "mediaDuration" : 1,
                    "scalar" : 1,
                    "metadata" : {
                      "clipSpeedAttribute" : false,
                      "default-scale0" : 1.0,
                      "default-scale1" : 1.0,
                      "default-translation0" : 0.0,
                      "default-translation1" : 0.0
                    },
                    "animationTracks" : {

                    }
                  }
                ]
              },
              {
                "trackIndex" : 8,
                "medias" : [
                  {
                    "id" : 382,
                    "_type" : "IMFile",
                    "src" : 10,
                    "trackNumber" : 0,
                    "trimStartSum" : -16,
                    "attributes" : {
                      "ident" : "memoryranger_without_gun_transparent_cropped"
                    },
                    "parameters" : {
                      "translation0" : -2.08146389013564e-10,
                      "translation1" : -46.9571688267349,
                      "scale0" : 0.701274817414212,
                      "scale1" : 0.701274817414212
                    },
                    "effects" : [

                    ],
                    "start" : 3477,
                    "duration" : 131,
                    "mediaStart" : 0,
                    "mediaDuration" : 1,
                    "scalar" : 1,
                    "metadata" : {
                      "clipSpeedAttribute" : false,
                      "default-scale0" : 1.0,
                      "default-scale1" : 1.0,
                      "default-translation0" : 0.0,
                      "default-translation1" : 0.0
                    },
                    "animationTracks" : {

                    }
                  }
                ],
                "transitions" : [
                  {
                    "name" : "Fade",
                    "duration" : 30,
                    "trivial" : false,
                    "reverse" : false,
                    "useAudioPreRoll" : true,
                    "useVisualPreRoll" : true,
                    "rightMedia" : 382
                  },
                  {
                    "name" : "Fade",
                    "duration" : 30,
                    "trivial" : false,
                    "reverse" : false,
                    "useAudioPreRoll" : true,
                    "useVisualPreRoll" : true,
                    "leftMedia" : 382
                  }
                ]
              },
              {
                "trackIndex" : 9,
                "medias" : [
                ]
              },
              {
                "trackIndex" : 10,
                "medias" : [
                ]
              }
            ]
          }
        }
      ]
    },
    "trackAttributes" : [
      {
        "ident" : "",
        "audioMuted" : false,
        "videoHidden" : false,
        "magnetic" : false,
        "matte" : 0,
        "metadata" : {
          "IsLocked" : "False",
          "WinTrackHeight" : "56"
        }
      },
      {
        "ident" : "",
        "audioMuted" : true,
        "videoHidden" : true,
        "magnetic" : false,
        "matte" : 0,
        "metadata" : {
          "IsLocked" : "False",
          "WinTrackHeight" : "56"
        }
      },
      {
        "ident" : "",
        "audioMuted" : false,
        "videoHidden" : false,
        "magnetic" : false,
        "matte" : 0,
        "metadata" : {
          "IsLocked" : "False",
          "WinTrackHeight" : "56"
        }
      },
      {
        "ident" : "",
        "audioMuted" : false,
        "videoHidden" : false,
        "magnetic" : false,
        "matte" : 0,
        "metadata" : {
          "IsLocked" : "False",
          "WinTrackHeight" : "56"
        }
      },
      {
        "ident" : "",
        "audioMuted" : false,
        "videoHidden" : false,
        "magnetic" : false,
        "matte" : 0,
        "metadata" : {
          "IsLocked" : "False",
          "WinTrackHeight" : "56"
        }
      },
      {
        "ident" : "",
        "audioMuted" : false,
        "videoHidden" : false,
        "magnetic" : false,
        "matte" : 0,
        "metadata" : {
          "IsLocked" : "False",
          "WinTrackHeight" : "56"
        }
      },
      {
        "ident" : "",
        "audioMuted" : false,
        "videoHidden" : false,
        "magnetic" : false,
        "matte" : 0,
        "metadata" : {
          "IsLocked" : "False",
          "WinTrackHeight" : "56"
        }
      },
      {
        "ident" : "",
        "audioMuted" : false,
        "videoHidden" : false,
        "magnetic" : false,
        "matte" : 0,
        "metadata" : {
          "IsLocked" : "False",
          "WinTrackHeight" : "56"
        }
      },
      {
        "ident" : "",
        "audioMuted" : false,
        "videoHidden" : false,
        "magnetic" : false,
        "matte" : 0,
        "metadata" : {
          "IsLocked" : "False",
          "WinTrackHeight" : "56"
        }
      },
      {
        "ident" : "",
        "audioMuted" : false,
        "videoHidden" : false,
        "magnetic" : false,
        "matte" : 0,
        "metadata" : {
          "IsLocked" : "False",
          "WinTrackHeight" : "56"
        }
      },
      {
        "ident" : "",
        "audioMuted" : false,
        "videoHidden" : false,
        "magnetic" : false,
        "matte" : 0,
        "metadata" : {
          "IsLocked" : "False",
          "WinTrackHeight" : "56"
        }
      }
    ],
    "captionAttributes" : {
      "enabled" : true,
      "fontName" : "Arial",
      "fontSize" : 64,
      "backgroundColor" : [ 0, 0, 0, 191],
      "foregroundColor" : [ 255, 255, 255, 255],
      "lang" : "en",
      "alignment" : 0,
      "defaultFontSize" : true,
      "opacity" : 0.5,
      "backgroundEnabled" : true,
      "backgroundOnlyAroundText" : true
    },
    "backgroundColor" : [ 0, 0, 0, 255]
  },
  "metadata" : {
    "AutoSaveFile" : "C:\\Users\\igork\\AppData\\Local\\TechSmith\\Camtasia Studio\\19.0\\Auto-Saves\\Demo2 Handle Hijacking Attack Prevention1f5a46af.autosave.tscproj",
    "CanvasZoom" : 47,
    "Date" : "2019-10-10 11:18:32 AM",
    "Fit" : 1,
    "IsAutoSave" : "0",
    "Language" : "ENU",
    "ProfileName" : "",
    "ProjectDimensionsChanged" : "1",
    "Title" : "2. PREVENTION OF HANDLE HIJACKING",
    "audioNarrationNotes" : "",
    "calloutStyle" : "Basic",
    "canvasDetached" : "False",
    "canvasPositionHeight" : "0",
    "canvasPositionLeft" : "0",
    "canvasPositionTop" : "0",
    "canvasPositionWidth" : "0"
  }
}
