{
  "title" : "",
  "description" : "",
  "author" : "",
  "targetLoudness" : -18.0,
  "shouldApplyLoudnessNormalization" : false,
  "videoFormatFrameRate" : 30,
  "audioFormatSampleRate" : 44100,
  "width" : 2560.0,
  "height" : 1440.0,
  "version" : "3.0",
  "editRate" : 30,
  "authoringClientName" :  {
    "name" : "Camtasia",
    "platform" : "Windows",
    "version" : "19.0"
  },
  "sourceBin" : [
    {
      "id" : 1,
      "src" : "K:\\Dropbox\\_Pubs&Confs\\20\\Kernel-Hijacking-Is-Not-an-Option\\video-demos\\handle_table_hijacking\\MSDN 0xC0000043.png",
      "rect" : [0, 0, 2560, 1440],
      "lastMod" : "20190817T193317",
      "sourceTracks" : [
        {
          "range" : [0, 1],
          "type" : 1,
          "editRate" : 10000000,
          "trackRect" : [0, 0, 2560, 1440],
          "sampleRate" : 0,
          "bitDepth" : 24,
          "numChannels" : 0,
          "integratedLUFS" : 100.0,
          "peakLevel" : -1.0,
          "metaData" : ""
        }
      ],
      "metadata" : {
        "timeAdded" : "20200614T104642.171651"
      }
    },
    {
      "id" : 2,
      "src" : "C:\\hijacking_is_not_an_option_raw\\handle_hijacking\\handle_hijacking_attack.trec",
      "rect" : [0, 0, 2560, 1440],
      "lastMod" : "20191006T085637",
      "sourceTracks" : [
        {
          "range" : [0, 1237041],
          "type" : 0,
          "editRate" : 30,
          "trackRect" : [0, 0, 2560, 1440],
          "sampleRate" : 27,
          "bitDepth" : 0,
          "numChannels" : 0,
          "integratedLUFS" : 100.0,
          "peakLevel" : -1.0,
          "metaData" : "2b7b6a00-7a1f-11e2-83d0-0017f200be7f;2b7b6aef-7a1f-11e2-83d0-0017f200be7f;2b7b6af0-7a1f-11e2-83d0-0017f200be7f;2b7b6af1-7a1f-11e2-83d0-0017f200be7f;2b7b6af2-7a1f-11e2-83d0-0017f200be7f;2b7b6af3-7a1f-11e2-83d0-0017f200be7f;2b7b6af5-7a1f-11e2-83d0-0017f200be7f;2b7b6af6-7a1f-11e2-83d0-0017f200be7f;2b7b6af7-7a1f-11e2-83d0-0017f200be7f;2b7b6af8-7a1f-11e2-83d0-0017f200be7f;2b7b6af9-7a1f-11e2-83d0-0017f200be7f;2b7b6afa-7a1f-11e2-83d0-0017f200be7f;"
        }
      ],
      "metadata" : {
        "timeAdded" : "20200614T104642.300307"
      }
    },
    {
      "id" : 3,
      "src" : "K:\\Dropbox\\_Pubs&Confs\\20\\Kernel-Hijacking-Is-Not-an-Option\\video-demos\\_sounds\\Cinematic_Sound_Effects_Impacts_HD-youtube-C7monbiQkZo-251-320--sec 37-40.mp3",
      "rect" : [0, 0, 0, 0],
      "lastMod" : "20180519T160240",
      "sourceTracks" : [
        {
          "range" : [0, 415440000],
          "type" : 2,
          "editRate" : 10000000,
          "trackRect" : [0, 0, 0, 0],
          "sampleRate" : 48000,
          "bitDepth" : 0,
          "numChannels" : 2,
          "integratedLUFS" : -13.9486652596205,
          "peakLevel" : 1.11620581150055,
          "metaData" : ""
        }
      ],
      "metadata" : {
        "timeAdded" : "20200702T212511.264451"
      }
    },
    {
      "id" : 4,
      "src" : "K:\\Dropbox\\_Pubs&Confs\\20\\Kernel-Hijacking-Is-Not-an-Option\\video-demos\\_sounds\\Neizvesten+Saundtrek+k+fil+mu+RODINA+ZhDET+NEVYPOLNIMOE+ZAD_muzlishko.ru_.mp3",
      "rect" : [0, 0, 0, 0],
      "lastMod" : "20181120T102825",
      "sourceTracks" : [
        {
          "range" : [0, 1697400000],
          "type" : 2,
          "editRate" : 10000000,
          "trackRect" : [0, 0, 0, 0],
          "sampleRate" : 32000,
          "bitDepth" : 0,
          "numChannels" : 2,
          "integratedLUFS" : -10.3265153700026,
          "peakLevel" : 1.12320291996002,
          "metaData" : ""
        }
      ],
      "metadata" : {
        "timeAdded" : "20200702T212511.267404"
      }
    },
    {
      "id" : 5,
      "src" : "K:\\Dropbox\\_Pubs&Confs\\20\\Kernel-Hijacking-Is-Not-an-Option\\video-demos\\_sounds\\Ticking clock.mp3",
      "rect" : [0, 0, 0, 0],
      "lastMod" : "20181127T124442",
      "sourceTracks" : [
        {
          "range" : [0, 381125833],
          "type" : 2,
          "editRate" : 10000000,
          "trackRect" : [0, 0, 0, 0],
          "sampleRate" : 44100,
          "bitDepth" : 0,
          "numChannels" : 2,
          "integratedLUFS" : -21.5714887318495,
          "peakLevel" : 0.678971886634827,
          "metaData" : ""
        }
      ],
      "metadata" : {
        "timeAdded" : "20200702T212511.270396"
      }
    },
    {
      "id" : 6,
      "src" : "C:\\Users\\igork\\Documents\\Camtasia\\Rec 07-03-20.trec",
      "rect" : [0, 0, 2560, 1440],
      "lastMod" : "20200702T220735",
      "sourceTracks" : [
        {
          "range" : [0, 143],
          "type" : 0,
          "editRate" : 1,
          "trackRect" : [0, 0, 2560, 1440],
          "sampleRate" : 1,
          "bitDepth" : 0,
          "numChannels" : 0,
          "integratedLUFS" : 100.0,
          "peakLevel" : -1.0,
          "metaData" : "2b7b6a00-7a1f-11e2-83d0-0017f200be7f;2b7b6aef-7a1f-11e2-83d0-0017f200be7f;2b7b6af0-7a1f-11e2-83d0-0017f200be7f;2b7b6af1-7a1f-11e2-83d0-0017f200be7f;2b7b6af2-7a1f-11e2-83d0-0017f200be7f;2b7b6af3-7a1f-11e2-83d0-0017f200be7f;2b7b6af5-7a1f-11e2-83d0-0017f200be7f;2b7b6af6-7a1f-11e2-83d0-0017f200be7f;2b7b6af7-7a1f-11e2-83d0-0017f200be7f;2b7b6af8-7a1f-11e2-83d0-0017f200be7f;2b7b6af9-7a1f-11e2-83d0-0017f200be7f;2b7b6afa-7a1f-11e2-83d0-0017f200be7f;"
        },
        {
          "range" : [0, 6285312],
          "type" : 2,
          "editRate" : 44100,
          "trackRect" : [0, 0, 0, 0],
          "sampleRate" : 44100,
          "bitDepth" : 16,
          "numChannels" : 2,
          "integratedLUFS" : -18.9000320167213,
          "peakLevel" : 0.999969482421875,
          "metaData" : ""
        }
      ],
      "metadata" : {
        "timeAdded" : "20200702T220736.037722"
      }
    },
    {
      "id" : 7,
      "src" : "K:\\Dropbox\\_Pubs&Confs\\20\\Kernel-Hijacking-Is-Not-an-Option\\video-demos\\_sounds\\winner_game.mp3",
      "rect" : [0, 0, 0, 0],
      "lastMod" : "20200709T190319",
      "sourceTracks" : [
        {
          "range" : [0, 105600000],
          "type" : 2,
          "editRate" : 10000000,
          "trackRect" : [0, 0, 0, 0],
          "sampleRate" : 24000,
          "bitDepth" : 0,
          "numChannels" : 2,
          "integratedLUFS" : 100.0,
          "peakLevel" : -1.0,
          "metaData" : ""
        }
      ],
      "metadata" : {
        "timeAdded" : "20200709T192858.203122"
      }
    },
    {
      "id" : 8,
      "src" : "K:\\Dropbox\\_Pubs&Confs\\20\\Kernel-Hijacking-Is-Not-an-Option\\Kernel Hijacking-Is-Not-an-Option - picts\\znayka - for demos\\problem\\Problem_original.png",
      "rect" : [0, 0, 512, 512],
      "lastMod" : "20200709T173146",
      "sourceTracks" : [
        {
          "range" : [0, 1],
          "type" : 1,
          "editRate" : 10000000,
          "trackRect" : [0, 0, 512, 512],
          "sampleRate" : 0,
          "bitDepth" : 8,
          "numChannels" : 0,
          "integratedLUFS" : 100.0,
          "peakLevel" : -1.0,
          "metaData" : ""
        }
      ],
      "metadata" : {
        "timeAdded" : "20200711T154816.798666"
      }
    },
    {
      "id" : 9,
      "src" : "K:\\Dropbox\\_Pubs&Confs\\20\\Kernel-Hijacking-Is-Not-an-Option\\Kernel Hijacking-Is-Not-an-Option - picts\\znayka - for demos\\new_idea\\4 new_idea_half_nobackground_mirror.png",
      "rect" : [0, 0, 509, 511],
      "lastMod" : "20200711T155043",
      "sourceTracks" : [
        {
          "range" : [0, 1],
          "type" : 1,
          "editRate" : 10000000,
          "trackRect" : [0, 0, 509, 511],
          "sampleRate" : 0,
          "bitDepth" : 32,
          "numChannels" : 0,
          "integratedLUFS" : 100.0,
          "peakLevel" : -1.0,
          "metaData" : ""
        }
      ],
      "metadata" : {
        "timeAdded" : "20200711T155117.273881"
      }
    },
    {
      "id" : 10,
      "src" : "K:\\Dropbox\\_Pubs&Confs\\20\\Kernel-Hijacking-Is-Not-an-Option\\Kernel Hijacking-Is-Not-an-Option - picts\\znayka - for demos\\pirat\\256.png",
      "rect" : [0, 0, 256, 256],
      "lastMod" : "20190311T095112",
      "sourceTracks" : [
        {
          "range" : [0, 1],
          "type" : 1,
          "editRate" : 10000000,
          "trackRect" : [0, 0, 256, 256],
          "sampleRate" : 0,
          "bitDepth" : 32,
          "numChannels" : 0,
          "integratedLUFS" : 100.0,
          "peakLevel" : -1.0,
          "metaData" : ""
        }
      ],
      "metadata" : {
        "timeAdded" : "20200711T155415.474207"
      }
    },
    {
      "id" : 11,
      "src" : "K:\\Dropbox\\_Pubs&Confs\\20\\Kernel-Hijacking-Is-Not-an-Option\\Kernel Hijacking-Is-Not-an-Option - picts\\znayka - for demos\\pirat\\ezgif-3-86c503cbd005.gif",
      "rect" : [0, 0, 54, 56],
      "lastMod" : "20190420T183621",
      "sourceTracks" : [
        {
          "range" : [0, 27],
          "type" : 0,
          "editRate" : 30,
          "trackRect" : [0, 0, 54, 56],
          "sampleRate" : 30,
          "bitDepth" : 8,
          "numChannels" : 0,
          "integratedLUFS" : 100.0,
          "peakLevel" : -1.0,
          "metaData" : ""
        }
      ],
      "metadata" : {
        "timeAdded" : "20200711T163934.793620"
      }
    },
    {
      "id" : 12,
      "src" : "C:\\Users\\igork\\Documents\\Camtasia\\Rec 07-12-20.trec",
      "rect" : [0, 0, 2560, 1440],
      "lastMod" : "20200711T213334",
      "sourceTracks" : [
        {
          "range" : [0, 146],
          "type" : 0,
          "editRate" : 1,
          "trackRect" : [0, 0, 2560, 1440],
          "sampleRate" : 1,
          "bitDepth" : 0,
          "numChannels" : 0,
          "integratedLUFS" : 100.0,
          "peakLevel" : -1.0,
          "metaData" : "2b7b6a00-7a1f-11e2-83d0-0017f200be7f;2b7b6aef-7a1f-11e2-83d0-0017f200be7f;2b7b6af0-7a1f-11e2-83d0-0017f200be7f;2b7b6af1-7a1f-11e2-83d0-0017f200be7f;2b7b6af2-7a1f-11e2-83d0-0017f200be7f;2b7b6af3-7a1f-11e2-83d0-0017f200be7f;2b7b6af5-7a1f-11e2-83d0-0017f200be7f;2b7b6af6-7a1f-11e2-83d0-0017f200be7f;2b7b6af7-7a1f-11e2-83d0-0017f200be7f;2b7b6af8-7a1f-11e2-83d0-0017f200be7f;2b7b6af9-7a1f-11e2-83d0-0017f200be7f;2b7b6afa-7a1f-11e2-83d0-0017f200be7f;"
        },
        {
          "range" : [0, 6395904],
          "type" : 2,
          "editRate" : 44100,
          "trackRect" : [0, 0, 0, 0],
          "sampleRate" : 44100,
          "bitDepth" : 16,
          "numChannels" : 2,
          "integratedLUFS" : -19.0154787188049,
          "peakLevel" : 0.999969482421875,
          "metaData" : ""
        }
      ],
      "metadata" : {
        "timeAdded" : "20200711T213335.108602"
      }
    },
    {
      "id" : 13,
      "src" : "C:\\Users\\igork\\Documents\\Camtasia\\Rec 07-12-20_001.trec",
      "rect" : [0, 0, 2560, 1440],
      "lastMod" : "20200711T220430",
      "sourceTracks" : [
        {
          "range" : [0, 30],
          "type" : 0,
          "editRate" : 1,
          "trackRect" : [0, 0, 2560, 1440],
          "sampleRate" : 1,
          "bitDepth" : 0,
          "numChannels" : 0,
          "integratedLUFS" : 100.0,
          "peakLevel" : -1.0,
          "metaData" : "2b7b6a00-7a1f-11e2-83d0-0017f200be7f;2b7b6aef-7a1f-11e2-83d0-0017f200be7f;2b7b6af0-7a1f-11e2-83d0-0017f200be7f;2b7b6af1-7a1f-11e2-83d0-0017f200be7f;2b7b6af2-7a1f-11e2-83d0-0017f200be7f;2b7b6af3-7a1f-11e2-83d0-0017f200be7f;2b7b6af5-7a1f-11e2-83d0-0017f200be7f;2b7b6af6-7a1f-11e2-83d0-0017f200be7f;2b7b6af7-7a1f-11e2-83d0-0017f200be7f;2b7b6af8-7a1f-11e2-83d0-0017f200be7f;2b7b6af9-7a1f-11e2-83d0-0017f200be7f;2b7b6afa-7a1f-11e2-83d0-0017f200be7f;"
        },
        {
          "range" : [0, 1280000],
          "type" : 2,
          "editRate" : 44100,
          "trackRect" : [0, 0, 0, 0],
          "sampleRate" : 44100,
          "bitDepth" : 16,
          "numChannels" : 2,
          "integratedLUFS" : -22.1444564713502,
          "peakLevel" : 0.573394775390625,
          "metaData" : ""
        }
      ],
      "metadata" : {
        "timeAdded" : "20200711T220431.449601"
      }
    },
    {
      "id" : 14,
      "src" : "C:\\Users\\igork\\Documents\\Camtasia\\Rec 07-23-20.trec",
      "rect" : [0, 0, 2560, 1440],
      "lastMod" : "20200723T103058",
      "sourceTracks" : [
        {
          "range" : [0, 11],
          "type" : 0,
          "editRate" : 1,
          "trackRect" : [0, 0, 2560, 1440],
          "sampleRate" : 1,
          "bitDepth" : 0,
          "numChannels" : 0,
          "integratedLUFS" : 100.0,
          "peakLevel" : -1.0,
          "metaData" : "2b7b6a00-7a1f-11e2-83d0-0017f200be7f;2b7b6aef-7a1f-11e2-83d0-0017f200be7f;2b7b6af0-7a1f-11e2-83d0-0017f200be7f;2b7b6af1-7a1f-11e2-83d0-0017f200be7f;2b7b6af2-7a1f-11e2-83d0-0017f200be7f;2b7b6af3-7a1f-11e2-83d0-0017f200be7f;2b7b6af5-7a1f-11e2-83d0-0017f200be7f;2b7b6af6-7a1f-11e2-83d0-0017f200be7f;2b7b6af7-7a1f-11e2-83d0-0017f200be7f;2b7b6af8-7a1f-11e2-83d0-0017f200be7f;2b7b6af9-7a1f-11e2-83d0-0017f200be7f;2b7b6afa-7a1f-11e2-83d0-0017f200be7f;"
        },
        {
          "range" : [0, 442368],
          "type" : 2,
          "editRate" : 44100,
          "trackRect" : [0, 0, 0, 0],
          "sampleRate" : 44100,
          "bitDepth" : 16,
          "numChannels" : 2,
          "integratedLUFS" : -18.0227655055739,
          "peakLevel" : 0.798675537109375,
          "metaData" : ""
        }
      ],
      "metadata" : {
        "timeAdded" : "20200723T103058.833743"
      }
    },
    {
      "id" : 15,
      "src" : "C:\\Users\\igork\\Documents\\Camtasia\\Rec 07-23-20_001.trec",
      "rect" : [0, 0, 2560, 1440],
      "lastMod" : "20200723T103541",
      "sourceTracks" : [
        {
          "range" : [0, 10],
          "type" : 0,
          "editRate" : 1,
          "trackRect" : [0, 0, 2560, 1440],
          "sampleRate" : 1,
          "bitDepth" : 0,
          "numChannels" : 0,
          "integratedLUFS" : 100.0,
          "peakLevel" : -1.0,
          "metaData" : "2b7b6a00-7a1f-11e2-83d0-0017f200be7f;2b7b6aef-7a1f-11e2-83d0-0017f200be7f;2b7b6af0-7a1f-11e2-83d0-0017f200be7f;2b7b6af1-7a1f-11e2-83d0-0017f200be7f;2b7b6af2-7a1f-11e2-83d0-0017f200be7f;2b7b6af3-7a1f-11e2-83d0-0017f200be7f;2b7b6af5-7a1f-11e2-83d0-0017f200be7f;2b7b6af6-7a1f-11e2-83d0-0017f200be7f;2b7b6af7-7a1f-11e2-83d0-0017f200be7f;2b7b6af8-7a1f-11e2-83d0-0017f200be7f;2b7b6af9-7a1f-11e2-83d0-0017f200be7f;2b7b6afa-7a1f-11e2-83d0-0017f200be7f;"
        },
        {
          "range" : [0, 420864],
          "type" : 2,
          "editRate" : 44100,
          "trackRect" : [0, 0, 0, 0],
          "sampleRate" : 44100,
          "bitDepth" : 16,
          "numChannels" : 2,
          "integratedLUFS" : -21.6781533777073,
          "peakLevel" : 0.432952880859375,
          "metaData" : ""
        }
      ],
      "metadata" : {
        "timeAdded" : "20200723T103542.534908"
      }
    },
    {
      "id" : 16,
      "src" : "C:\\Users\\igork\\Documents\\Camtasia\\Rec 07-23-20_003.trec",
      "rect" : [0, 0, 2560, 1440],
      "lastMod" : "20200723T104341",
      "sourceTracks" : [
        {
          "range" : [0, 16],
          "type" : 0,
          "editRate" : 1,
          "trackRect" : [0, 0, 2560, 1440],
          "sampleRate" : 1,
          "bitDepth" : 0,
          "numChannels" : 0,
          "integratedLUFS" : 100.0,
          "peakLevel" : -1.0,
          "metaData" : "2b7b6a00-7a1f-11e2-83d0-0017f200be7f;2b7b6aef-7a1f-11e2-83d0-0017f200be7f;2b7b6af0-7a1f-11e2-83d0-0017f200be7f;2b7b6af1-7a1f-11e2-83d0-0017f200be7f;2b7b6af2-7a1f-11e2-83d0-0017f200be7f;2b7b6af3-7a1f-11e2-83d0-0017f200be7f;2b7b6af5-7a1f-11e2-83d0-0017f200be7f;2b7b6af6-7a1f-11e2-83d0-0017f200be7f;2b7b6af7-7a1f-11e2-83d0-0017f200be7f;2b7b6af8-7a1f-11e2-83d0-0017f200be7f;2b7b6af9-7a1f-11e2-83d0-0017f200be7f;2b7b6afa-7a1f-11e2-83d0-0017f200be7f;"
        },
        {
          "range" : [0, 685056],
          "type" : 2,
          "editRate" : 44100,
          "trackRect" : [0, 0, 0, 0],
          "sampleRate" : 44100,
          "bitDepth" : 16,
          "numChannels" : 2,
          "integratedLUFS" : -22.5749933053276,
          "peakLevel" : 0.561920166015625,
          "metaData" : ""
        }
      ],
      "metadata" : {
        "timeAdded" : "20200723T104341.928712"
      }
    }
  ],
  "timeline" : {
    "id" : 17,
    "sceneTrack" : {
      "scenes" : [
        {
          "duration" : 131.166666666667,
          "title" : "",
          "type" : "",
          "csml" : {
            "tracks" : [
              {
                "trackIndex" : 0,
                "medias" : [
                ]
              },
              {
                "trackIndex" : 1,
                "medias" : [
                  {
                    "id" : 18,
                    "_type" : "AMFile",
                    "src" : 6,
                    "trackNumber" : 1,
                    "attributes" : {
                      "ident" : "Rec 07-03-20",
                      "gain" : 1.0,
                      "mixToMono" : false
                    },
                      "channelNumber" : "0,1",
                    "parameters" : {
                      "volume" : 2.43440233236154
                    },
                    "effects" : [

                    ],
                    "start" : 183,
                    "duration" : 104,
                    "mediaStart" : 376,
                    "mediaDuration" : 104,
                    "scalar" : 1,
                    "metadata" : {
                      "clipSpeedAttribute" : false
                    },
                    "animationTracks" : {

                    }
                  },
                  {
                    "id" : 19,
                    "_type" : "AMFile",
                    "src" : 6,
                    "trackNumber" : 1,
                    "attributes" : {
                      "ident" : "Rec 07-03-20",
                      "gain" : 1.0,
                      "mixToMono" : false
                    },
                      "channelNumber" : "0,1",
                    "parameters" : {
                      "volume" : 2.43440233236154
                    },
                    "effects" : [

                    ],
                    "start" : 349,
                    "duration" : 103,
                    "mediaStart" : 542,
                    "mediaDuration" : 103,
                    "scalar" : 1,
                    "metadata" : {
                      "clipSpeedAttribute" : false
                    },
                    "animationTracks" : {

                    }
                  },
                  {
                    "id" : 20,
                    "_type" : "AMFile",
                    "src" : 6,
                    "trackNumber" : 1,
                    "attributes" : {
                      "ident" : "Rec 07-03-20",
                      "gain" : 1.0,
                      "mixToMono" : false
                    },
                      "channelNumber" : "0,1",
                    "parameters" : {
                      "volume" : 2.43440233236154
                    },
                    "effects" : [

                    ],
                    "start" : 514,
                    "duration" : 787,
                    "mediaStart" : 707,
                    "mediaDuration" : 787,
                    "scalar" : 1,
                    "metadata" : {
                      "clipSpeedAttribute" : false
                    },
                    "animationTracks" : {

                    }
                  },
                  {
                    "id" : 21,
                    "_type" : "AMFile",
                    "src" : 6,
                    "trackNumber" : 1,
                    "attributes" : {
                      "ident" : "Rec 07-03-20",
                      "gain" : 1.0,
                      "mixToMono" : false
                    },
                      "channelNumber" : "0,1",
                    "parameters" : {
                      "volume" : 2.43440233236154
                    },
                    "effects" : [

                    ],
                    "start" : 1301,
                    "duration" : 140,
                    "mediaStart" : 1575,
                    "mediaDuration" : 140,
                    "scalar" : 1,
                    "metadata" : {
                      "clipSpeedAttribute" : false
                    },
                    "animationTracks" : {

                    }
                  },
                  {
                    "id" : 22,
                    "_type" : "AMFile",
                    "src" : 6,
                    "trackNumber" : 1,
                    "attributes" : {
                      "ident" : "Rec 07-03-20",
                      "gain" : 1.0,
                      "mixToMono" : false
                    },
                      "channelNumber" : "0,1",
                    "parameters" : {
                      "volume" : 2.43440233236154
                    },
                    "effects" : [

                    ],
                    "start" : 1441,
                    "duration" : 267,
                    "mediaStart" : 1715,
                    "mediaDuration" : 267,
                    "scalar" : 1,
                    "metadata" : {
                      "clipSpeedAttribute" : false
                    },
                    "animationTracks" : {

                    }
                  },
                  {
                    "id" : 23,
                    "_type" : "AMFile",
                    "src" : 6,
                    "trackNumber" : 1,
                    "attributes" : {
                      "ident" : "Rec 07-03-20",
                      "gain" : 1.0,
                      "mixToMono" : false
                    },
                      "channelNumber" : "0,1",
                    "parameters" : {
                      "volume" : 2.43440233236154
                    },
                    "effects" : [

                    ],
                    "start" : 1708,
                    "duration" : 591,
                    "mediaStart" : 1982,
                    "mediaDuration" : 591,
                    "scalar" : 1,
                    "metadata" : {
                      "clipSpeedAttribute" : false
                    },
                    "animationTracks" : {

                    }
                  },
                  {
                    "id" : 24,
                    "_type" : "AMFile",
                    "src" : 6,
                    "trackNumber" : 1,
                    "attributes" : {
                      "ident" : "Rec 07-03-20",
                      "gain" : 1.0,
                      "mixToMono" : false
                    },
                      "channelNumber" : "0,1",
                    "parameters" : {
                      "volume" : 2.43440233236154
                    },
                    "effects" : [

                    ],
                    "start" : 2299,
                    "duration" : 118,
                    "mediaStart" : 2591,
                    "mediaDuration" : 118,
                    "scalar" : 1,
                    "metadata" : {
                      "clipSpeedAttribute" : false
                    },
                    "animationTracks" : {

                    }
                  },
                  {
                    "id" : 25,
                    "_type" : "AMFile",
                    "src" : 6,
                    "trackNumber" : 1,
                    "attributes" : {
                      "ident" : "Rec 07-03-20",
                      "gain" : 1.0,
                      "mixToMono" : false
                    },
                      "channelNumber" : "0,1",
                    "parameters" : {
                      "volume" : 2.43440233236154
                    },
                    "effects" : [

                    ],
                    "start" : 2511,
                    "duration" : 136,
                    "mediaStart" : 2759,
                    "mediaDuration" : 136,
                    "scalar" : 1,
                    "metadata" : {
                      "clipSpeedAttribute" : false
                    },
                    "animationTracks" : {

                    }
                  },
                  {
                    "id" : 26,
                    "_type" : "AMFile",
                    "src" : 6,
                    "trackNumber" : 1,
                    "attributes" : {
                      "ident" : "Rec 07-03-20",
                      "gain" : 1.0,
                      "mixToMono" : false
                    },
                      "channelNumber" : "0,1",
                    "parameters" : {
                      "volume" : 2.43440233236154
                    },
                    "effects" : [

                    ],
                    "start" : 2665,
                    "duration" : 222,
                    "mediaStart" : 2960,
                    "mediaDuration" : 222,
                    "scalar" : 1,
                    "metadata" : {
                      "clipSpeedAttribute" : false
                    },
                    "animationTracks" : {

                    }
                  },
                  {
                    "id" : 27,
                    "_type" : "AMFile",
                    "src" : 6,
                    "trackNumber" : 1,
                    "attributes" : {
                      "ident" : "Rec 07-03-20",
                      "gain" : 1.0,
                      "mixToMono" : false
                    },
                      "channelNumber" : "0,1",
                    "parameters" : {
                      "volume" : 2.43440233236154
                    },
                    "effects" : [

                    ],
                    "start" : 3095,
                    "duration" : 90,
                    "mediaStart" : 3310,
                    "mediaDuration" : 90,
                    "scalar" : 1,
                    "metadata" : {
                      "clipSpeedAttribute" : false
                    },
                    "animationTracks" : {

                    }
                  },
                  {
                    "id" : 28,
                    "_type" : "AMFile",
                    "src" : 6,
                    "trackNumber" : 1,
                    "attributes" : {
                      "ident" : "Rec 07-03-20",
                      "gain" : 1.0,
                      "mixToMono" : false
                    },
                      "channelNumber" : "0,1",
                    "parameters" : {
                      "volume" : 2.43440233236154
                    },
                    "effects" : [

                    ],
                    "start" : 3185,
                    "duration" : 502,
                    "mediaStart" : 3438,
                    "mediaDuration" : 502,
                    "scalar" : 1,
                    "metadata" : {
                      "clipSpeedAttribute" : false
                    },
                    "animationTracks" : {

                    }
                  },
                  {
                    "id" : 29,
                    "_type" : "AMFile",
                    "src" : 6,
                    "trackNumber" : 1,
                    "attributes" : {
                      "ident" : "Rec 07-03-20",
                      "gain" : 1.0,
                      "mixToMono" : false
                    },
                      "channelNumber" : "0,1",
                    "parameters" : {
                      "volume" : 2.43440233236154
                    },
                    "effects" : [

                    ],
                    "start" : 3699,
                    "duration" : 169,
                    "mediaStart" : 4107,
                    "mediaDuration" : 169,
                    "scalar" : 1,
                    "metadata" : {
                      "clipSpeedAttribute" : false
                    },
                    "animationTracks" : {

                    }
                  }
                ]
              },
              {
                "trackIndex" : 2,
                "medias" : [
                  {
                    "id" : 30,
                    "_type" : "AMFile",
                    "src" : 6,
                    "trackNumber" : 1,
                    "attributes" : {
                      "ident" : "Rec 07-03-20",
                      "gain" : 1.0,
                      "mixToMono" : false
                    },
                      "channelNumber" : "0,1",
                    "parameters" : {
                      "volume" : 2.43440233236154
                    },
                    "effects" : [

                    ],
                    "start" : 180,
                    "duration" : 104,
                    "mediaStart" : 376,
                    "mediaDuration" : 104,
                    "scalar" : 1,
                    "metadata" : {
                      "clipSpeedAttribute" : false
                    },
                    "animationTracks" : {

                    }
                  },
                  {
                    "id" : 31,
                    "_type" : "AMFile",
                    "src" : 12,
                    "trackNumber" : 1,
                    "attributes" : {
                      "ident" : "Rec 07-12-20",
                      "gain" : 1.0,
                      "mixToMono" : false
                    },
                      "channelNumber" : "0,1",
                    "parameters" : {
                      "volume" : 1.96793002915454
                    },
                    "effects" : [

                    ],
                    "start" : 350,
                    "duration" : 125,
                    "mediaStart" : 584,
                    "mediaDuration" : 125,
                    "scalar" : 1,
                    "metadata" : {
                      "clipSpeedAttribute" : false
                    },
                    "animationTracks" : {

                    }
                  },
                  {
                    "id" : 32,
                    "_type" : "AMFile",
                    "src" : 12,
                    "trackNumber" : 1,
                    "attributes" : {
                      "ident" : "Rec 07-12-20",
                      "gain" : 1.0,
                      "mixToMono" : false
                    },
                      "channelNumber" : "0,1",
                    "parameters" : {
                      "volume" : 1.96793002915454
                    },
                    "effects" : [

                    ],
                    "start" : 516,
                    "duration" : 70,
                    "mediaStart" : 750,
                    "mediaDuration" : 70,
                    "scalar" : 1,
                    "metadata" : {
                      "clipSpeedAttribute" : false
                    },
                    "animationTracks" : {

                    }
                  },
                  {
                    "id" : 33,
                    "_type" : "AMFile",
                    "src" : 14,
                    "trackNumber" : 1,
                    "attributes" : {
                      "ident" : "Rec 07-23-20",
                      "gain" : 1.0,
                      "mixToMono" : false
                    },
                      "channelNumber" : "0,1",
                    "parameters" : {
                      "volume" : 1.26822157434404
                    },
                    "effects" : [

                    ],
                    "start" : 630,
                    "duration" : 70,
                    "mediaStart" : 84,
                    "mediaDuration" : 70,
                    "scalar" : 1,
                    "metadata" : {
                      "clipSpeedAttribute" : false
                    },
                    "animationTracks" : {

                    }
                  },
                  {
                    "id" : 34,
                    "_type" : "AMFile",
                    "src" : 12,
                    "trackNumber" : 1,
                    "attributes" : {
                      "ident" : "Rec 07-12-20",
                      "gain" : 1.0,
                      "mixToMono" : false
                    },
                      "channelNumber" : "0,1",
                    "parameters" : {
                      "volume" : 1.96793002915454
                    },
                    "effects" : [

                    ],
                    "start" : 741,
                    "duration" : 64,
                    "mediaStart" : 975,
                    "mediaDuration" : 64,
                    "scalar" : 1,
                    "metadata" : {
                      "clipSpeedAttribute" : false
                    },
                    "animationTracks" : {

                    }
                  },
                  {
                    "id" : 35,
                    "_type" : "AMFile",
                    "src" : 13,
                    "trackNumber" : 1,
                    "attributes" : {
                      "ident" : "Rec 07-12-20_001",
                      "gain" : 1.0,
                      "mixToMono" : false
                    },
                      "channelNumber" : "0,1",
                    "parameters" : {
                      "volume" : 2.78425655976678
                    },
                    "effects" : [

                    ],
                    "start" : 850,
                    "duration" : 403,
                    "mediaStart" : 341,
                    "mediaDuration" : 403,
                    "scalar" : 1,
                    "metadata" : {
                      "clipSpeedAttribute" : false
                    },
                    "animationTracks" : {

                    }
                  },
                  {
                    "id" : 36,
                    "_type" : "AMFile",
                    "src" : 12,
                    "trackNumber" : 1,
                    "attributes" : {
                      "ident" : "Rec 07-12-20",
                      "gain" : 1.0,
                      "mixToMono" : false
                    },
                      "channelNumber" : "0,1",
                    "parameters" : {
                      "volume" : 1.96793002915454
                    },
                    "effects" : [

                    ],
                    "start" : 1270,
                    "duration" : 118,
                    "mediaStart" : 1504,
                    "mediaDuration" : 118,
                    "scalar" : 1,
                    "metadata" : {
                      "clipSpeedAttribute" : false
                    },
                    "animationTracks" : {

                    }
                  },
                  {
                    "id" : 37,
                    "_type" : "AMFile",
                    "src" : 6,
                    "trackNumber" : 1,
                    "attributes" : {
                      "ident" : "Rec 07-03-20",
                      "gain" : 1.0,
                      "mixToMono" : false
                    },
                      "channelNumber" : "0,1",
                    "parameters" : {
                      "volume" : 2.43440233236154
                    },
                    "effects" : [

                    ],
                    "start" : 1448,
                    "duration" : 267,
                    "mediaStart" : 1715,
                    "mediaDuration" : 267,
                    "scalar" : 1,
                    "metadata" : {
                      "clipSpeedAttribute" : false
                    },
                    "animationTracks" : {

                    }
                  },
                  {
                    "id" : 38,
                    "_type" : "AMFile",
                    "src" : 12,
                    "trackNumber" : 1,
                    "attributes" : {
                      "ident" : "Rec 07-12-20",
                      "gain" : 1.0,
                      "mixToMono" : false
                    },
                      "channelNumber" : "0,1",
                    "parameters" : {
                      "volume" : 1.96793002915454
                    },
                    "effects" : [

                    ],
                    "start" : 1766,
                    "duration" : 152,
                    "mediaStart" : 2000,
                    "mediaDuration" : 152,
                    "scalar" : 1,
                    "metadata" : {
                      "clipSpeedAttribute" : false
                    },
                    "animationTracks" : {

                    }
                  },
                  {
                    "id" : 39,
                    "_type" : "AMFile",
                    "src" : 15,
                    "trackNumber" : 1,
                    "attributes" : {
                      "ident" : "Rec 07-23-20_001",
                      "gain" : 1.0,
                      "mixToMono" : false
                    },
                      "channelNumber" : "0,1",
                    "parameters" : {
                      "volume" : 2.43440233236154
                    },
                    "effects" : [

                    ],
                    "start" : 1951,
                    "duration" : 94,
                    "mediaStart" : 58,
                    "mediaDuration" : 94,
                    "scalar" : 1,
                    "metadata" : {
                      "clipSpeedAttribute" : false
                    },
                    "animationTracks" : {

                    }
                  },
                  {
                    "id" : 40,
                    "_type" : "AMFile",
                    "src" : 12,
                    "trackNumber" : 1,
                    "attributes" : {
                      "ident" : "Rec 07-12-20",
                      "gain" : 1.0,
                      "mixToMono" : false
                    },
                      "channelNumber" : "0,1",
                    "parameters" : {
                      "volume" : 1.96793002915454
                    },
                    "effects" : [

                    ],
                    "start" : 2090,
                    "duration" : 206,
                    "mediaStart" : 2324,
                    "mediaDuration" : 206,
                    "scalar" : 1,
                    "metadata" : {
                      "clipSpeedAttribute" : false
                    },
                    "animationTracks" : {

                    }
                  },
                  {
                    "id" : 41,
                    "_type" : "AMFile",
                    "src" : 12,
                    "trackNumber" : 1,
                    "attributes" : {
                      "ident" : "Rec 07-12-20",
                      "gain" : 1.0,
                      "mixToMono" : false
                    },
                      "channelNumber" : "0,1",
                    "parameters" : {
                      "volume" : 1.96793002915454
                    },
                    "effects" : [

                    ],
                    "start" : 2337,
                    "duration" : 60,
                    "mediaStart" : 2571,
                    "mediaDuration" : 60,
                    "scalar" : 1,
                    "metadata" : {
                      "clipSpeedAttribute" : false
                    },
                    "animationTracks" : {

                    }
                  },
                  {
                    "id" : 42,
                    "_type" : "AMFile",
                    "src" : 12,
                    "trackNumber" : 1,
                    "attributes" : {
                      "ident" : "Rec 07-12-20",
                      "gain" : 1.0,
                      "mixToMono" : false
                    },
                      "channelNumber" : "0,1",
                    "parameters" : {
                      "volume" : 1.96793002915454
                    },
                    "effects" : [

                    ],
                    "start" : 2529,
                    "duration" : 101,
                    "mediaStart" : 2669,
                    "mediaDuration" : 101,
                    "scalar" : 1,
                    "metadata" : {
                      "clipSpeedAttribute" : false
                    },
                    "animationTracks" : {

                    }
                  },
                  {
                    "id" : 43,
                    "_type" : "AMFile",
                    "src" : 12,
                    "trackNumber" : 1,
                    "attributes" : {
                      "ident" : "Rec 07-12-20",
                      "gain" : 1.0,
                      "mixToMono" : false
                    },
                      "channelNumber" : "0,1",
                    "parameters" : {
                      "volume" : 1.96793002915454
                    },
                    "effects" : [

                    ],
                    "start" : 2648,
                    "duration" : 116,
                    "mediaStart" : 2882,
                    "mediaDuration" : 116,
                    "scalar" : 1,
                    "metadata" : {
                      "clipSpeedAttribute" : false
                    },
                    "animationTracks" : {

                    }
                  },
                  {
                    "id" : 44,
                    "_type" : "AMFile",
                    "src" : 16,
                    "trackNumber" : 1,
                    "attributes" : {
                      "ident" : "Rec 07-23-20_003",
                      "gain" : 1.0,
                      "mixToMono" : false
                    },
                      "channelNumber" : "0,1",
                    "parameters" : {
                      "volume" : 2.201166180758
                    },
                    "effects" : [

                    ],
                    "start" : 2773,
                    "duration" : 170,
                    "mediaStart" : 296,
                    "mediaDuration" : 170,
                    "scalar" : 1,
                    "metadata" : {
                      "clipSpeedAttribute" : false
                    },
                    "animationTracks" : {

                    }
                  },
                  {
                    "id" : 45,
                    "_type" : "AMFile",
                    "src" : 6,
                    "trackNumber" : 1,
                    "attributes" : {
                      "ident" : "Rec 07-03-20",
                      "gain" : 1.0,
                      "mixToMono" : false
                    },
                      "channelNumber" : "0,1",
                    "parameters" : {
                      "volume" : 2.43440233236154
                    },
                    "effects" : [

                    ],
                    "start" : 3094,
                    "duration" : 90,
                    "mediaStart" : 3310,
                    "mediaDuration" : 90,
                    "scalar" : 1,
                    "metadata" : {
                      "clipSpeedAttribute" : false
                    },
                    "animationTracks" : {

                    }
                  },
                  {
                    "id" : 46,
                    "_type" : "AMFile",
                    "src" : 6,
                    "trackNumber" : 1,
                    "attributes" : {
                      "ident" : "Rec 07-03-20",
                      "gain" : 1.0,
                      "mixToMono" : false
                    },
                      "channelNumber" : "0,1",
                    "parameters" : {
                      "volume" : 2.43440233236154
                    },
                    "effects" : [

                    ],
                    "start" : 3203,
                    "duration" : 483,
                    "mediaStart" : 3457,
                    "mediaDuration" : 483,
                    "scalar" : 1,
                    "metadata" : {
                      "clipSpeedAttribute" : false
                    },
                    "animationTracks" : {

                    }
                  },
                  {
                    "id" : 47,
                    "_type" : "AMFile",
                    "src" : 6,
                    "trackNumber" : 1,
                    "attributes" : {
                      "ident" : "Rec 07-03-20",
                      "gain" : 1.0,
                      "mixToMono" : false
                    },
                      "channelNumber" : "0,1",
                    "parameters" : {
                      "volume" : 2.43440233236154
                    },
                    "effects" : [

                    ],
                    "start" : 3698,
                    "duration" : 169,
                    "mediaStart" : 4107,
                    "mediaDuration" : 169,
                    "scalar" : 1,
                    "metadata" : {
                      "clipSpeedAttribute" : false
                    },
                    "animationTracks" : {

                    }
                  }
                ]
              },
              {
                "trackIndex" : 3,
                "medias" : [
                  {
                    "id" : 48,
                    "_type" : "Callout",
                    "def" : {
                      "kind" : "remix",
                      "shape" : "text",
                      "style" : "basic",
                      "height" : 330.58928571408,
                      "line-spacing" : 0.0,
                      "width" : 2559.9999999999,
                      "word-wrap" : 1.0,
                      "horizontal-alignment" : "center",
                      "resize-behavior" : "resizeText",
                      "text" : "HANDLE HIJACKING ATTACK",
                      "vertical-alignment" : "center",
                      "font" : {
                        "color-blue" : 1.0,
                        "color-green" : 1.0,
                        "color-red" : 1.0,
                        "size" : 96.0,
                        "tracking" : 0.0,
                        "name" : "Montserrat",
                        "weight" : "Regular"
                      },
                      "textAttributes" : {
                        "type" : "textAttributeList",
                        "keyframes" : [
                          {
                            "endTime" : 0,
                            "time" : 0,
                            "value" : [{"name":"kerning","rangeEnd":23,"rangeStart":0,"value":0,"valueType":"double"},{"name":"underline","rangeEnd":23,"rangeStart":0,"value":0,"valueType":"int"},{"name":"fontWeight","rangeEnd":23,"rangeStart":0,"value":400,"valueType":"int"},{"name":"fgColor","rangeEnd":23,"rangeStart":0,"value":"(255,255,255,255)","valueType":"color"},{"name":"strikethrough","rangeEnd":23,"rangeStart":0,"value":0,"valueType":"int"},{"name":"fontName","rangeEnd":23,"rangeStart":0,"value":"Rockwell","valueType":"string"},{"name":"fontSize","rangeEnd":23,"rangeStart":0,"value":170,"valueType":"double"},{"name":"fontItalic","rangeEnd":23,"rangeStart":0,"value":0,"valueType":"int"}],
                            "duration" : 0
                          }
                        ]
                      }
                    },
                    "attributes" : {
                      "autoRotateText" : true
                    },
                    "parameters" : {
                      "translation0" : -1.4388490399142e-11,
                      "translation1" : 30.2053571428019
                    },
                    "effects" : [
                        {
                          "effectName" : "DropShadow",
                          "category" : "categoryVisualEffects",
                          "parameters" : {
                            "angle" : 5.49778714378214,
                            "blur" : 10.0,
                            "color-alpha" : 1.0,
                            "color-blue" : 0.1216,
                            "color-green" : 0.1216,
                            "color-red" : 0.1216,
                            "enabled" : 1,
                            "offset" : 10.0,
                            "opacity" : 0.4
                          }
                        }
                    ],
                    "start" : 0,
                    "duration" : 150,
                    "mediaStart" : 0,
                    "mediaDuration" : 150,
                    "scalar" : 1,
                    "metadata" : {
                      "WinSubProjectDisplayName" : "",
                      "clipSpeedAttribute" : false,
                      "default-HAlign" : "center",
                      "default-LineSpace" : 0.0,
                      "default-VAlign" : "center",
                      "default-text-attributes" : "[{\"name\":\"underline\",\"rangeEnd\":16,\"rangeStart\":0,\"value\":0,\"valueType\":\"int\"},{\"name\":\"strikethrough\",\"rangeEnd\":16,\"rangeStart\":0,\"value\":0,\"valueType\":\"int\"},{\"name\":\"fontWeight\",\"rangeEnd\":16,\"rangeStart\":0,\"value\":400,\"valueType\":\"int\"},{\"name\":\"fontSize\",\"rangeEnd\":16,\"rangeStart\":0,\"value\":96,\"valueType\":\"double\"},{\"name\":\"fontName\",\"rangeEnd\":16,\"rangeStart\":0,\"value\":\"Montserrat\",\"valueType\":\"string\"},{\"name\":\"fgColor\",\"rangeEnd\":16,\"rangeStart\":0,\"value\":\"(255,255,255,255)\",\"valueType\":\"color\"},{\"name\":\"fontItalic\",\"rangeEnd\":16,\"rangeStart\":0,\"value\":0,\"valueType\":\"int\"}]",
                      "default-translation0" : 0.0,
                      "default-translation1" : 0.0
                    },
                    "animationTracks" : {

                    }
                  },
                  {
                    "id" : 49,
                    "_type" : "ScreenVMFile",
                    "src" : 2,
                    "trackNumber" : 0,
                    "attributes" : {
                      "ident" : "handle_hijacking_attack"
                    },
                    "parameters" : {
                      "cursorScale" : {
                        "type" : "double",
                        "defaultValue" : 1.0,
                        "interp" : "linr"
                      },
                      "cursorOpacity" : {
                        "type" : "double",
                        "defaultValue" : 1.0,
                        "interp" : "linr"
                      }
                    },
                    "effects" : [

                    ],
                    "start" : 150,
                    "duration" : 55,
                    "mediaStart" : 97,
                    "mediaDuration" : 150,
                    "scalar" : "11/30",
                    "metadata" : {
                      "AutoAppliedSmartFocus" : "False",
                      "clipSpeedAttribute" : true
                    },
                    "animationTracks" : {

                    }
                  },
                  {
                    "id" : 50,
                    "_type" : "ScreenVMFile",
                    "src" : 2,
                    "trackNumber" : 0,
                    "attributes" : {
                      "ident" : "handle_hijacking_attack"
                    },
                    "parameters" : {
                      "translation0" : {
                        "type" : "double",
                        "defaultValue" : 0.0,
                        "interp" : "eioe",
                        "keyframes" : [
                          {
                            "endTime" : 277,
                            "time" : 247,
                            "value" : 5441.96329017631,
                            "duration" : 30
                          },
                          {
                            "endTime" : 392,
                            "time" : 362,
                            "value" : -2.27373675443232e-13,
                            "duration" : 30
                          }
                        ]
                      },
                      "translation1" : {
                        "type" : "double",
                        "defaultValue" : 0.0,
                        "interp" : "eioe",
                        "keyframes" : [
                          {
                            "endTime" : 277,
                            "time" : 247,
                            "value" : -2330.26244780353,
                            "duration" : 30
                          },
                          {
                            "endTime" : 392,
                            "time" : 362,
                            "value" : -1.13686837721616e-13,
                            "duration" : 30
                          }
                        ]
                      },
                      "scale0" : {
                        "type" : "double",
                        "defaultValue" : 1.0,
                        "interp" : "eioe",
                        "keyframes" : [
                          {
                            "endTime" : 277,
                            "time" : 247,
                            "value" : 5.53262735702365,
                            "duration" : 30
                          },
                          {
                            "endTime" : 392,
                            "time" : 362,
                            "value" : 0.99999994963753,
                            "duration" : 30
                          }
                        ]
                      },
                      "scale1" : {
                        "type" : "double",
                        "defaultValue" : 1.0,
                        "interp" : "eioe",
                        "keyframes" : [
                          {
                            "endTime" : 277,
                            "time" : 247,
                            "value" : 5.53262763566044,
                            "duration" : 30
                          },
                          {
                            "endTime" : 392,
                            "time" : 362,
                            "value" : 1.0,
                            "duration" : 30
                          }
                        ]
                      },
                      "cursorScale" : {
                        "type" : "double",
                        "defaultValue" : 1.0,
                        "interp" : "linr"
                      },
                      "cursorOpacity" : {
                        "type" : "double",
                        "defaultValue" : 1.0,
                        "interp" : "linr"
                      }
                    },
                    "effects" : [

                    ],
                    "start" : 205,
                    "duration" : 146,
                    "mediaStart" : 247,
                    "mediaDuration" : 146,
                    "scalar" : 1,
                    "metadata" : {
                      "AutoAppliedSmartFocus" : "False",
                      "clipSpeedAttribute" : false,
                      "default-scale0" : 1.0,
                      "default-scale1" : 1.0,
                      "default-translation0" : 0.0,
                      "default-translation1" : 0.0
                    },
                    "animationTracks" : {
                      "visual" : [
                        {
                          "endTime" : 277,
                          "duration" : 30,
                          "range" : [ 247, 30]
                        },
                        {
                          "endTime" : 392,
                          "duration" : 30,
                          "range" : [ 362, 30]
                        }
                      ]
                    }
                  },
                  {
                    "id" : 51,
                    "_type" : "ScreenVMFile",
                    "src" : 2,
                    "trackNumber" : 0,
                    "attributes" : {
                      "ident" : "handle_hijacking_attack"
                    },
                    "parameters" : {
                      "translation0" : {
                        "type" : "double",
                        "defaultValue" : 0.0,
                        "interp" : "eioe",
                        "keyframes" : [
                          {
                            "endTime" : 277,
                            "time" : 247,
                            "value" : 5441.96329017631,
                            "duration" : 30
                          },
                          {
                            "endTime" : 392,
                            "time" : 362,
                            "value" : -2.27373675443232e-13,
                            "duration" : 30
                          }
                        ]
                      },
                      "translation1" : {
                        "type" : "double",
                        "defaultValue" : 0.0,
                        "interp" : "eioe",
                        "keyframes" : [
                          {
                            "endTime" : 277,
                            "time" : 247,
                            "value" : -2330.26244780353,
                            "duration" : 30
                          },
                          {
                            "endTime" : 392,
                            "time" : 362,
                            "value" : -1.13686837721616e-13,
                            "duration" : 30
                          }
                        ]
                      },
                      "scale0" : {
                        "type" : "double",
                        "defaultValue" : 1.0,
                        "interp" : "eioe",
                        "keyframes" : [
                          {
                            "endTime" : 277,
                            "time" : 247,
                            "value" : 5.53262735702365,
                            "duration" : 30
                          },
                          {
                            "endTime" : 392,
                            "time" : 362,
                            "value" : 0.99999994963753,
                            "duration" : 30
                          }
                        ]
                      },
                      "scale1" : {
                        "type" : "double",
                        "defaultValue" : 1.0,
                        "interp" : "eioe",
                        "keyframes" : [
                          {
                            "endTime" : 277,
                            "time" : 247,
                            "value" : 5.53262763566044,
                            "duration" : 30
                          },
                          {
                            "endTime" : 392,
                            "time" : 362,
                            "value" : 1.0,
                            "duration" : 30
                          }
                        ]
                      },
                      "cursorScale" : {
                        "type" : "double",
                        "defaultValue" : 1.0,
                        "interp" : "linr"
                      },
                      "cursorOpacity" : {
                        "type" : "double",
                        "defaultValue" : 1.0,
                        "interp" : "linr"
                      }
                    },
                    "effects" : [
                        {
                          "effectName" : "CursorHilight",
                          "category" : "categoryCursorEffects",
                          "parameters" : {
                            "blur" : 0.1,
                            "color-alpha" : 0.75,
                            "color-blue" : 0.0,
                            "color-green" : 1.0,
                            "color-red" : 1.0,
                            "radius" : 50.0
                          }
                        }
                    ],
                    "start" : 351,
                    "duration" : 100,
                    "mediaStart" : 393,
                    "mediaDuration" : 204,
                    "scalar" : "25/51",
                    "metadata" : {
                      "AutoAppliedSmartFocus" : "False",
                      "clipSpeedAttribute" : true,
                      "default-scale0" : 1.0,
                      "default-scale1" : 1.0,
                      "default-translation0" : 0.0,
                      "default-translation1" : 0.0
                    },
                    "animationTracks" : {
                      "visual" : [
                        {
                          "endTime" : 277,
                          "duration" : 30,
                          "range" : [ 247, 30]
                        },
                        {
                          "endTime" : 392,
                          "duration" : 30,
                          "range" : [ 362, 30]
                        }
                      ]
                    }
                  },
                  {
                    "id" : 52,
                    "_type" : "ScreenVMFile",
                    "src" : 2,
                    "trackNumber" : 0,
                    "attributes" : {
                      "ident" : "handle_hijacking_attack"
                    },
                    "parameters" : {
                      "translation0" : {
                        "type" : "double",
                        "defaultValue" : 0.0,
                        "interp" : "eioe",
                        "keyframes" : [
                          {
                            "endTime" : 277,
                            "time" : 247,
                            "value" : 5441.96329017631,
                            "duration" : 30
                          },
                          {
                            "endTime" : 392,
                            "time" : 362,
                            "value" : -2.27373675443232e-13,
                            "duration" : 30
                          },
                          {
                            "endTime" : 706,
                            "time" : 676,
                            "value" : 524.859157678326,
                            "duration" : 30
                          }
                        ]
                      },
                      "translation1" : {
                        "type" : "double",
                        "defaultValue" : 0.0,
                        "interp" : "eioe",
                        "keyframes" : [
                          {
                            "endTime" : 277,
                            "time" : 247,
                            "value" : -2330.26244780353,
                            "duration" : 30
                          },
                          {
                            "endTime" : 392,
                            "time" : 362,
                            "value" : -1.13686837721616e-13,
                            "duration" : 30
                          },
                          {
                            "endTime" : 706,
                            "time" : 676,
                            "value" : -200.597094013742,
                            "duration" : 30
                          }
                        ]
                      },
                      "scale0" : {
                        "type" : "double",
                        "defaultValue" : 1.0,
                        "interp" : "eioe",
                        "keyframes" : [
                          {
                            "endTime" : 277,
                            "time" : 247,
                            "value" : 5.53262735702365,
                            "duration" : 30
                          },
                          {
                            "endTime" : 392,
                            "time" : 362,
                            "value" : 0.99999994963753,
                            "duration" : 30
                          },
                          {
                            "endTime" : 706,
                            "time" : 676,
                            "value" : 1.59203944671086,
                            "duration" : 30
                          }
                        ]
                      },
                      "scale1" : {
                        "type" : "double",
                        "defaultValue" : 1.0,
                        "interp" : "eioe",
                        "keyframes" : [
                          {
                            "endTime" : 277,
                            "time" : 247,
                            "value" : 5.53262763566044,
                            "duration" : 30
                          },
                          {
                            "endTime" : 392,
                            "time" : 362,
                            "value" : 1.0,
                            "duration" : 30
                          },
                          {
                            "endTime" : 706,
                            "time" : 676,
                            "value" : 1.59203964504832,
                            "duration" : 30
                          }
                        ]
                      },
                      "cursorScale" : {
                        "type" : "double",
                        "defaultValue" : 1.0,
                        "interp" : "linr"
                      },
                      "cursorOpacity" : {
                        "type" : "double",
                        "defaultValue" : 1.0,
                        "interp" : "linr"
                      }
                    },
                    "effects" : [
                        {
                          "effectName" : "CursorHilight",
                          "category" : "categoryCursorEffects",
                          "parameters" : {
                            "blur" : 0.1,
                            "color-alpha" : 0.75,
                            "color-blue" : 0.0,
                            "color-green" : 1.0,
                            "color-red" : 1.0,
                            "radius" : 50.0
                          }
                        }
                    ],
                    "start" : 451,
                    "duration" : 35,
                    "mediaStart" : 597,
                    "mediaDuration" : 79,
                    "scalar" : "35/79",
                    "metadata" : {
                      "AutoAppliedSmartFocus" : "False",
                      "clipSpeedAttribute" : true,
                      "default-scale0" : 1.0,
                      "default-scale1" : 1.0,
                      "default-translation0" : 0.0,
                      "default-translation1" : 0.0
                    },
                    "animationTracks" : {
                      "visual" : [
                        {
                          "endTime" : 277,
                          "duration" : 30,
                          "range" : [ 247, 30]
                        },
                        {
                          "endTime" : 392,
                          "duration" : 30,
                          "range" : [ 362, 30]
                        },
                        {
                          "endTime" : 706,
                          "duration" : 30,
                          "range" : [ 676, 30]
                        }
                      ]
                    }
                  },
                  {
                    "id" : 53,
                    "_type" : "ScreenVMFile",
                    "src" : 2,
                    "trackNumber" : 0,
                    "attributes" : {
                      "ident" : "handle_hijacking_attack"
                    },
                    "parameters" : {
                      "translation0" : {
                        "type" : "double",
                        "defaultValue" : 0.0,
                        "interp" : "eioe",
                        "keyframes" : [
                          {
                            "endTime" : 277,
                            "time" : 247,
                            "value" : 5441.96329017631,
                            "duration" : 30
                          },
                          {
                            "endTime" : 392,
                            "time" : 362,
                            "value" : -2.27373675443232e-13,
                            "duration" : 30
                          },
                          {
                            "endTime" : 706,
                            "time" : 676,
                            "value" : 524.859157678326,
                            "duration" : 30
                          }
                        ]
                      },
                      "translation1" : {
                        "type" : "double",
                        "defaultValue" : 0.0,
                        "interp" : "eioe",
                        "keyframes" : [
                          {
                            "endTime" : 277,
                            "time" : 247,
                            "value" : -2330.26244780353,
                            "duration" : 30
                          },
                          {
                            "endTime" : 392,
                            "time" : 362,
                            "value" : -1.13686837721616e-13,
                            "duration" : 30
                          },
                          {
                            "endTime" : 706,
                            "time" : 676,
                            "value" : -200.597094013742,
                            "duration" : 30
                          }
                        ]
                      },
                      "scale0" : {
                        "type" : "double",
                        "defaultValue" : 1.0,
                        "interp" : "eioe",
                        "keyframes" : [
                          {
                            "endTime" : 277,
                            "time" : 247,
                            "value" : 5.53262735702365,
                            "duration" : 30
                          },
                          {
                            "endTime" : 392,
                            "time" : 362,
                            "value" : 0.99999994963753,
                            "duration" : 30
                          },
                          {
                            "endTime" : 706,
                            "time" : 676,
                            "value" : 1.59203944671086,
                            "duration" : 30
                          }
                        ]
                      },
                      "scale1" : {
                        "type" : "double",
                        "defaultValue" : 1.0,
                        "interp" : "eioe",
                        "keyframes" : [
                          {
                            "endTime" : 277,
                            "time" : 247,
                            "value" : 5.53262763566044,
                            "duration" : 30
                          },
                          {
                            "endTime" : 392,
                            "time" : 362,
                            "value" : 1.0,
                            "duration" : 30
                          },
                          {
                            "endTime" : 706,
                            "time" : 676,
                            "value" : 1.59203964504832,
                            "duration" : 30
                          }
                        ]
                      },
                      "cursorScale" : {
                        "type" : "double",
                        "defaultValue" : 1.0,
                        "interp" : "linr"
                      },
                      "cursorOpacity" : {
                        "type" : "double",
                        "defaultValue" : 1.0,
                        "interp" : "linr"
                      }
                    },
                    "effects" : [
                        {
                          "effectName" : "CursorHilight",
                          "category" : "categoryCursorEffects",
                          "parameters" : {
                            "blur" : 0.1,
                            "color-alpha" : 0.75,
                            "color-blue" : 0.0,
                            "color-green" : 1.0,
                            "color-red" : 1.0,
                            "radius" : 50.0
                          }
                        }
                    ],
                    "start" : 486,
                    "duration" : 31,
                    "mediaStart" : 676,
                    "mediaDuration" : 31,
                    "scalar" : 1,
                    "metadata" : {
                      "AutoAppliedSmartFocus" : "False",
                      "clipSpeedAttribute" : false,
                      "default-scale0" : 1.0,
                      "default-scale1" : 1.0,
                      "default-translation0" : 0.0,
                      "default-translation1" : 0.0
                    },
                    "animationTracks" : {
                      "visual" : [
                        {
                          "endTime" : 277,
                          "duration" : 30,
                          "range" : [ 247, 30]
                        },
                        {
                          "endTime" : 392,
                          "duration" : 30,
                          "range" : [ 362, 30]
                        },
                        {
                          "endTime" : 706,
                          "duration" : 30,
                          "range" : [ 676, 30]
                        }
                      ]
                    }
                  },
                  {
                    "id" : 54,
                    "_type" : "ScreenVMFile",
                    "src" : 2,
                    "trackNumber" : 0,
                    "attributes" : {
                      "ident" : "handle_hijacking_attack"
                    },
                    "parameters" : {
                      "translation0" : {
                        "type" : "double",
                        "defaultValue" : 0.0,
                        "interp" : "eioe",
                        "keyframes" : [
                          {
                            "endTime" : 277,
                            "time" : 247,
                            "value" : 5441.96329017631,
                            "duration" : 30
                          },
                          {
                            "endTime" : 392,
                            "time" : 362,
                            "value" : -2.27373675443232e-13,
                            "duration" : 30
                          },
                          {
                            "endTime" : 706,
                            "time" : 676,
                            "value" : 524.859157678326,
                            "duration" : 30
                          }
                        ]
                      },
                      "translation1" : {
                        "type" : "double",
                        "defaultValue" : 0.0,
                        "interp" : "eioe",
                        "keyframes" : [
                          {
                            "endTime" : 277,
                            "time" : 247,
                            "value" : -2330.26244780353,
                            "duration" : 30
                          },
                          {
                            "endTime" : 392,
                            "time" : 362,
                            "value" : -1.13686837721616e-13,
                            "duration" : 30
                          },
                          {
                            "endTime" : 706,
                            "time" : 676,
                            "value" : -200.597094013742,
                            "duration" : 30
                          }
                        ]
                      },
                      "scale0" : {
                        "type" : "double",
                        "defaultValue" : 1.0,
                        "interp" : "eioe",
                        "keyframes" : [
                          {
                            "endTime" : 277,
                            "time" : 247,
                            "value" : 5.53262735702365,
                            "duration" : 30
                          },
                          {
                            "endTime" : 392,
                            "time" : 362,
                            "value" : 0.99999994963753,
                            "duration" : 30
                          },
                          {
                            "endTime" : 706,
                            "time" : 676,
                            "value" : 1.59203944671086,
                            "duration" : 30
                          }
                        ]
                      },
                      "scale1" : {
                        "type" : "double",
                        "defaultValue" : 1.0,
                        "interp" : "eioe",
                        "keyframes" : [
                          {
                            "endTime" : 277,
                            "time" : 247,
                            "value" : 5.53262763566044,
                            "duration" : 30
                          },
                          {
                            "endTime" : 392,
                            "time" : 362,
                            "value" : 1.0,
                            "duration" : 30
                          },
                          {
                            "endTime" : 706,
                            "time" : 676,
                            "value" : 1.59203964504832,
                            "duration" : 30
                          }
                        ]
                      },
                      "cursorScale" : {
                        "type" : "double",
                        "defaultValue" : 1.0,
                        "interp" : "linr"
                      },
                      "cursorOpacity" : {
                        "type" : "double",
                        "defaultValue" : 1.0,
                        "interp" : "linr"
                      }
                    },
                    "effects" : [
                        {
                          "effectName" : "CursorHilight",
                          "category" : "categoryCursorEffects",
                          "parameters" : {
                            "blur" : 0.1,
                            "color-alpha" : 0.75,
                            "color-blue" : 0.0,
                            "color-green" : 1.0,
                            "color-red" : 1.0,
                            "radius" : 50.0
                          }
                        }
                    ],
                    "start" : 517,
                    "duration" : 79,
                    "mediaStart" : 707,
                    "mediaDuration" : 287,
                    "scalar" : "79/287",
                    "metadata" : {
                      "AutoAppliedSmartFocus" : "False",
                      "clipSpeedAttribute" : true,
                      "default-scale0" : 1.0,
                      "default-scale1" : 1.0,
                      "default-translation0" : 0.0,
                      "default-translation1" : 0.0
                    },
                    "animationTracks" : {
                      "visual" : [
                        {
                          "endTime" : 277,
                          "duration" : 30,
                          "range" : [ 247, 30]
                        },
                        {
                          "endTime" : 392,
                          "duration" : 30,
                          "range" : [ 362, 30]
                        },
                        {
                          "endTime" : 706,
                          "duration" : 30,
                          "range" : [ 676, 30]
                        }
                      ]
                    }
                  },
                  {
                    "id" : 55,
                    "_type" : "ScreenVMFile",
                    "src" : 2,
                    "trackNumber" : 0,
                    "attributes" : {
                      "ident" : "handle_hijacking_attack"
                    },
                    "parameters" : {
                      "translation0" : {
                        "type" : "double",
                        "defaultValue" : 0.0,
                        "interp" : "eioe",
                        "keyframes" : [
                          {
                            "endTime" : 277,
                            "time" : 247,
                            "value" : 5441.96329017631,
                            "duration" : 30
                          },
                          {
                            "endTime" : 392,
                            "time" : 362,
                            "value" : -2.27373675443232e-13,
                            "duration" : 30
                          },
                          {
                            "endTime" : 706,
                            "time" : 676,
                            "value" : 524.859157678326,
                            "duration" : 30
                          }
                        ]
                      },
                      "translation1" : {
                        "type" : "double",
                        "defaultValue" : 0.0,
                        "interp" : "eioe",
                        "keyframes" : [
                          {
                            "endTime" : 277,
                            "time" : 247,
                            "value" : -2330.26244780353,
                            "duration" : 30
                          },
                          {
                            "endTime" : 392,
                            "time" : 362,
                            "value" : -1.13686837721616e-13,
                            "duration" : 30
                          },
                          {
                            "endTime" : 706,
                            "time" : 676,
                            "value" : -200.597094013742,
                            "duration" : 30
                          }
                        ]
                      },
                      "scale0" : {
                        "type" : "double",
                        "defaultValue" : 1.0,
                        "interp" : "eioe",
                        "keyframes" : [
                          {
                            "endTime" : 277,
                            "time" : 247,
                            "value" : 5.53262735702365,
                            "duration" : 30
                          },
                          {
                            "endTime" : 392,
                            "time" : 362,
                            "value" : 0.99999994963753,
                            "duration" : 30
                          },
                          {
                            "endTime" : 706,
                            "time" : 676,
                            "value" : 1.59203944671086,
                            "duration" : 30
                          }
                        ]
                      },
                      "scale1" : {
                        "type" : "double",
                        "defaultValue" : 1.0,
                        "interp" : "eioe",
                        "keyframes" : [
                          {
                            "endTime" : 277,
                            "time" : 247,
                            "value" : 5.53262763566044,
                            "duration" : 30
                          },
                          {
                            "endTime" : 392,
                            "time" : 362,
                            "value" : 1.0,
                            "duration" : 30
                          },
                          {
                            "endTime" : 706,
                            "time" : 676,
                            "value" : 1.59203964504832,
                            "duration" : 30
                          }
                        ]
                      },
                      "cursorScale" : {
                        "type" : "double",
                        "defaultValue" : 1.0,
                        "interp" : "linr"
                      },
                      "cursorOpacity" : {
                        "type" : "double",
                        "defaultValue" : 1.0,
                        "interp" : "linr"
                      }
                    },
                    "effects" : [
                        {
                          "effectName" : "CursorHilight",
                          "category" : "categoryCursorEffects",
                          "parameters" : {
                            "blur" : 0.1,
                            "color-alpha" : 0.75,
                            "color-blue" : 0.0,
                            "color-green" : 1.0,
                            "color-red" : 1.0,
                            "radius" : 50.0
                          }
                        }
                    ],
                    "start" : 596,
                    "duration" : 31,
                    "mediaStart" : 994,
                    "mediaDuration" : 31,
                    "scalar" : 1,
                    "metadata" : {
                      "AutoAppliedSmartFocus" : "False",
                      "clipSpeedAttribute" : false,
                      "default-scale0" : 1.0,
                      "default-scale1" : 1.0,
                      "default-translation0" : 0.0,
                      "default-translation1" : 0.0
                    },
                    "animationTracks" : {
                      "visual" : [
                        {
                          "endTime" : 277,
                          "duration" : 30,
                          "range" : [ 247, 30]
                        },
                        {
                          "endTime" : 392,
                          "duration" : 30,
                          "range" : [ 362, 30]
                        },
                        {
                          "endTime" : 706,
                          "duration" : 30,
                          "range" : [ 676, 30]
                        }
                      ]
                    }
                  },
                  {
                    "id" : 56,
                    "_type" : "ScreenVMFile",
                    "src" : 2,
                    "trackNumber" : 0,
                    "attributes" : {
                      "ident" : "handle_hijacking_attack"
                    },
                    "parameters" : {
                      "translation0" : {
                        "type" : "double",
                        "defaultValue" : 0.0,
                        "interp" : "eioe",
                        "keyframes" : [
                          {
                            "endTime" : 277,
                            "time" : 247,
                            "value" : 5441.96329017631,
                            "duration" : 30
                          },
                          {
                            "endTime" : 392,
                            "time" : 362,
                            "value" : -2.27373675443232e-13,
                            "duration" : 30
                          },
                          {
                            "endTime" : 706,
                            "time" : 676,
                            "value" : 524.859157678326,
                            "duration" : 30
                          }
                        ]
                      },
                      "translation1" : {
                        "type" : "double",
                        "defaultValue" : 0.0,
                        "interp" : "eioe",
                        "keyframes" : [
                          {
                            "endTime" : 277,
                            "time" : 247,
                            "value" : -2330.26244780353,
                            "duration" : 30
                          },
                          {
                            "endTime" : 392,
                            "time" : 362,
                            "value" : -1.13686837721616e-13,
                            "duration" : 30
                          },
                          {
                            "endTime" : 706,
                            "time" : 676,
                            "value" : -200.597094013742,
                            "duration" : 30
                          }
                        ]
                      },
                      "scale0" : {
                        "type" : "double",
                        "defaultValue" : 1.0,
                        "interp" : "eioe",
                        "keyframes" : [
                          {
                            "endTime" : 277,
                            "time" : 247,
                            "value" : 5.53262735702365,
                            "duration" : 30
                          },
                          {
                            "endTime" : 392,
                            "time" : 362,
                            "value" : 0.99999994963753,
                            "duration" : 30
                          },
                          {
                            "endTime" : 706,
                            "time" : 676,
                            "value" : 1.59203944671086,
                            "duration" : 30
                          }
                        ]
                      },
                      "scale1" : {
                        "type" : "double",
                        "defaultValue" : 1.0,
                        "interp" : "eioe",
                        "keyframes" : [
                          {
                            "endTime" : 277,
                            "time" : 247,
                            "value" : 5.53262763566044,
                            "duration" : 30
                          },
                          {
                            "endTime" : 392,
                            "time" : 362,
                            "value" : 1.0,
                            "duration" : 30
                          },
                          {
                            "endTime" : 706,
                            "time" : 676,
                            "value" : 1.59203964504832,
                            "duration" : 30
                          }
                        ]
                      },
                      "cursorScale" : {
                        "type" : "double",
                        "defaultValue" : 1.0,
                        "interp" : "linr"
                      },
                      "cursorOpacity" : {
                        "type" : "double",
                        "defaultValue" : 1.0,
                        "interp" : "linr"
                      }
                    },
                    "effects" : [
                        {
                          "effectName" : "CursorHilight",
                          "category" : "categoryCursorEffects",
                          "parameters" : {
                            "blur" : 0.1,
                            "color-alpha" : 0.75,
                            "color-blue" : 0.0,
                            "color-green" : 1.0,
                            "color-red" : 1.0,
                            "radius" : 50.0
                          }
                        }
                    ],
                    "start" : 627,
                    "duration" : 94,
                    "mediaStart" : 1654,
                    "mediaDuration" : 452,
                    "scalar" : "47/226",
                    "metadata" : {
                      "AutoAppliedSmartFocus" : "False",
                      "clipSpeedAttribute" : true,
                      "default-scale0" : 1.0,
                      "default-scale1" : 1.0,
                      "default-translation0" : 0.0,
                      "default-translation1" : 0.0
                    },
                    "animationTracks" : {
                      "visual" : [
                        {
                          "endTime" : 277,
                          "duration" : 30,
                          "range" : [ 247, 30]
                        },
                        {
                          "endTime" : 392,
                          "duration" : 30,
                          "range" : [ 362, 30]
                        },
                        {
                          "endTime" : 706,
                          "duration" : 30,
                          "range" : [ 676, 30]
                        }
                      ]
                    }
                  },
                  {
                    "id" : 57,
                    "_type" : "ScreenVMFile",
                    "src" : 2,
                    "trackNumber" : 0,
                    "attributes" : {
                      "ident" : "handle_hijacking_attack"
                    },
                    "parameters" : {
                      "translation0" : {
                        "type" : "double",
                        "defaultValue" : 0.0,
                        "interp" : "eioe",
                        "keyframes" : [
                          {
                            "endTime" : 277,
                            "time" : 247,
                            "value" : 5441.96329017631,
                            "duration" : 30
                          },
                          {
                            "endTime" : 392,
                            "time" : 362,
                            "value" : -2.27373675443232e-13,
                            "duration" : 30
                          },
                          {
                            "endTime" : 706,
                            "time" : 676,
                            "value" : 524.859157678326,
                            "duration" : 30
                          }
                        ]
                      },
                      "translation1" : {
                        "type" : "double",
                        "defaultValue" : 0.0,
                        "interp" : "eioe",
                        "keyframes" : [
                          {
                            "endTime" : 277,
                            "time" : 247,
                            "value" : -2330.26244780353,
                            "duration" : 30
                          },
                          {
                            "endTime" : 392,
                            "time" : 362,
                            "value" : -1.13686837721616e-13,
                            "duration" : 30
                          },
                          {
                            "endTime" : 706,
                            "time" : 676,
                            "value" : -200.597094013742,
                            "duration" : 30
                          }
                        ]
                      },
                      "scale0" : {
                        "type" : "double",
                        "defaultValue" : 1.0,
                        "interp" : "eioe",
                        "keyframes" : [
                          {
                            "endTime" : 277,
                            "time" : 247,
                            "value" : 5.53262735702365,
                            "duration" : 30
                          },
                          {
                            "endTime" : 392,
                            "time" : 362,
                            "value" : 0.99999994963753,
                            "duration" : 30
                          },
                          {
                            "endTime" : 706,
                            "time" : 676,
                            "value" : 1.59203944671086,
                            "duration" : 30
                          }
                        ]
                      },
                      "scale1" : {
                        "type" : "double",
                        "defaultValue" : 1.0,
                        "interp" : "eioe",
                        "keyframes" : [
                          {
                            "endTime" : 277,
                            "time" : 247,
                            "value" : 5.53262763566044,
                            "duration" : 30
                          },
                          {
                            "endTime" : 392,
                            "time" : 362,
                            "value" : 1.0,
                            "duration" : 30
                          },
                          {
                            "endTime" : 706,
                            "time" : 676,
                            "value" : 1.59203964504832,
                            "duration" : 30
                          }
                        ]
                      },
                      "cursorScale" : {
                        "type" : "double",
                        "defaultValue" : 1.0,
                        "interp" : "linr"
                      },
                      "cursorOpacity" : {
                        "type" : "double",
                        "defaultValue" : 1.0,
                        "interp" : "linr"
                      }
                    },
                    "effects" : [
                        {
                          "effectName" : "CursorHilight",
                          "category" : "categoryCursorEffects",
                          "parameters" : {
                            "blur" : 0.1,
                            "color-alpha" : 0.75,
                            "color-blue" : 0.0,
                            "color-green" : 1.0,
                            "color-red" : 1.0,
                            "radius" : 50.0
                          }
                        }
                    ],
                    "start" : 721,
                    "duration" : 41,
                    "mediaStart" : 2106,
                    "mediaDuration" : 41,
                    "scalar" : 1,
                    "metadata" : {
                      "AutoAppliedSmartFocus" : "False",
                      "clipSpeedAttribute" : true,
                      "default-scale0" : 1.0,
                      "default-scale1" : 1.0,
                      "default-translation0" : 0.0,
                      "default-translation1" : 0.0
                    },
                    "animationTracks" : {
                      "visual" : [
                        {
                          "endTime" : 277,
                          "duration" : 30,
                          "range" : [ 247, 30]
                        },
                        {
                          "endTime" : 392,
                          "duration" : 30,
                          "range" : [ 362, 30]
                        },
                        {
                          "endTime" : 706,
                          "duration" : 30,
                          "range" : [ 676, 30]
                        }
                      ]
                    }
                  },
                  {
                    "id" : 58,
                    "_type" : "ScreenVMFile",
                    "src" : 2,
                    "trackNumber" : 0,
                    "attributes" : {
                      "ident" : "handle_hijacking_attack"
                    },
                    "parameters" : {
                      "translation0" : {
                        "type" : "double",
                        "defaultValue" : 0.0,
                        "interp" : "eioe",
                        "keyframes" : [
                          {
                            "endTime" : 277,
                            "time" : 247,
                            "value" : 5441.96329017631,
                            "duration" : 30
                          },
                          {
                            "endTime" : 392,
                            "time" : 362,
                            "value" : -2.27373675443232e-13,
                            "duration" : 30
                          },
                          {
                            "endTime" : 706,
                            "time" : 676,
                            "value" : 524.859157678326,
                            "duration" : 30
                          }
                        ]
                      },
                      "translation1" : {
                        "type" : "double",
                        "defaultValue" : 0.0,
                        "interp" : "eioe",
                        "keyframes" : [
                          {
                            "endTime" : 277,
                            "time" : 247,
                            "value" : -2330.26244780353,
                            "duration" : 30
                          },
                          {
                            "endTime" : 392,
                            "time" : 362,
                            "value" : -1.13686837721616e-13,
                            "duration" : 30
                          },
                          {
                            "endTime" : 706,
                            "time" : 676,
                            "value" : -200.597094013742,
                            "duration" : 30
                          }
                        ]
                      },
                      "scale0" : {
                        "type" : "double",
                        "defaultValue" : 1.0,
                        "interp" : "eioe",
                        "keyframes" : [
                          {
                            "endTime" : 277,
                            "time" : 247,
                            "value" : 5.53262735702365,
                            "duration" : 30
                          },
                          {
                            "endTime" : 392,
                            "time" : 362,
                            "value" : 0.99999994963753,
                            "duration" : 30
                          },
                          {
                            "endTime" : 706,
                            "time" : 676,
                            "value" : 1.59203944671086,
                            "duration" : 30
                          }
                        ]
                      },
                      "scale1" : {
                        "type" : "double",
                        "defaultValue" : 1.0,
                        "interp" : "eioe",
                        "keyframes" : [
                          {
                            "endTime" : 277,
                            "time" : 247,
                            "value" : 5.53262763566044,
                            "duration" : 30
                          },
                          {
                            "endTime" : 392,
                            "time" : 362,
                            "value" : 1.0,
                            "duration" : 30
                          },
                          {
                            "endTime" : 706,
                            "time" : 676,
                            "value" : 1.59203964504832,
                            "duration" : 30
                          }
                        ]
                      },
                      "cursorScale" : {
                        "type" : "double",
                        "defaultValue" : 1.0,
                        "interp" : "linr"
                      },
                      "cursorOpacity" : {
                        "type" : "double",
                        "defaultValue" : 1.0,
                        "interp" : "linr"
                      }
                    },
                    "effects" : [
                        {
                          "effectName" : "CursorHilight",
                          "category" : "categoryCursorEffects",
                          "parameters" : {
                            "blur" : 0.1,
                            "color-alpha" : 0.75,
                            "color-blue" : 0.0,
                            "color-green" : 1.0,
                            "color-red" : 1.0,
                            "radius" : 50.0
                          }
                        }
                    ],
                    "start" : 762,
                    "duration" : 63,
                    "mediaStart" : 2164,
                    "mediaDuration" : 100,
                    "scalar" : "63/100",
                    "metadata" : {
                      "AutoAppliedSmartFocus" : "False",
                      "clipSpeedAttribute" : true,
                      "default-scale0" : 1.0,
                      "default-scale1" : 1.0,
                      "default-translation0" : 0.0,
                      "default-translation1" : 0.0
                    },
                    "animationTracks" : {
                      "visual" : [
                        {
                          "endTime" : 277,
                          "duration" : 30,
                          "range" : [ 247, 30]
                        },
                        {
                          "endTime" : 392,
                          "duration" : 30,
                          "range" : [ 362, 30]
                        },
                        {
                          "endTime" : 706,
                          "duration" : 30,
                          "range" : [ 676, 30]
                        }
                      ]
                    }
                  },
                  {
                    "id" : 59,
                    "_type" : "StitchedMedia",
                    "minMediaStart" : 0,
                    "attributes" : {
                      "ident" : "handle_hijacking_attack",
                      "gain" : 1.0,
                      "mixToMono" : false
                    },
                    "parameters" : {
                      "translation0" : {
                        "type" : "double",
                        "defaultValue" : 0.0,
                        "keyframes" : [
                          {
                            "endTime" : 277,
                            "time" : 247,
                            "value" : 5441.96329017631,
                            "duration" : 30
                          },
                          {
                            "endTime" : 392,
                            "time" : 362,
                            "value" : -2.27373675443232e-13,
                            "duration" : 30
                          },
                          {
                            "endTime" : 706,
                            "time" : 676,
                            "value" : 524.859157678326,
                            "duration" : 30
                          }
                        ]
                      },
                      "translation1" : {
                        "type" : "double",
                        "defaultValue" : 0.0,
                        "keyframes" : [
                          {
                            "endTime" : 277,
                            "time" : 247,
                            "value" : -2330.26244780353,
                            "duration" : 30
                          },
                          {
                            "endTime" : 392,
                            "time" : 362,
                            "value" : -1.13686837721616e-13,
                            "duration" : 30
                          },
                          {
                            "endTime" : 706,
                            "time" : 676,
                            "value" : -200.597094013742,
                            "duration" : 30
                          }
                        ]
                      },
                      "scale0" : {
                        "type" : "double",
                        "defaultValue" : 1.0,
                        "keyframes" : [
                          {
                            "endTime" : 277,
                            "time" : 247,
                            "value" : 5.53262735702365,
                            "duration" : 30
                          },
                          {
                            "endTime" : 392,
                            "time" : 362,
                            "value" : 0.99999994963753,
                            "duration" : 30
                          },
                          {
                            "endTime" : 706,
                            "time" : 676,
                            "value" : 1.59203944671086,
                            "duration" : 30
                          }
                        ]
                      },
                      "scale1" : {
                        "type" : "double",
                        "defaultValue" : 1.0,
                        "keyframes" : [
                          {
                            "endTime" : 277,
                            "time" : 247,
                            "value" : 5.53262763566044,
                            "duration" : 30
                          },
                          {
                            "endTime" : 392,
                            "time" : 362,
                            "value" : 1.0,
                            "duration" : 30
                          },
                          {
                            "endTime" : 706,
                            "time" : 676,
                            "value" : 1.59203964504832,
                            "duration" : 30
                          }
                        ]
                      },
                      "cursorOpacity" : 1.0,
                      "cursorScale" : 1.0
                    },
                    "medias" : [
                        {
                          "id" : 60,
                          "_type" : "ScreenVMFile",
                          "src" : 2,
                          "trackNumber" : 0,
                          "attributes" : {
                            "ident" : "handle_hijacking_attack"
                          },
                          "parameters" : {
                            "cursorScale" : {
                              "type" : "double",
                              "defaultValue" : 0.0,
                              "interp" : "linr"
                            },
                            "cursorOpacity" : {
                              "type" : "double",
                              "defaultValue" : 0.0,
                              "interp" : "linr"
                            }
                          },
                          "effects" : [

                          ],
                          "start" : 0,
                          "duration" : 2314,
                          "mediaStart" : 0,
                          "mediaDuration" : 2314,
                          "scalar" : 1,
                          "metadata" : {
                            "AutoAppliedSmartFocus" : "False",
                            "clipSpeedAttribute" : false,
                            "default-scale0" : 1.0,
                            "default-scale1" : 1.0,
                            "default-translation0" : 0.0,
                            "default-translation1" : 0.0
                          },
                          "animationTracks" : {

                          }
                        },
                        {
                          "id" : 61,
                          "_type" : "ScreenIMFile",
                          "src" : 2,
                          "trackNumber" : 0,
                          "trimStartSum" : 0,
                          "attributes" : {
                            "ident" : "handle_hijacking_attack"
                          },
                          "parameters" : {
                            "cursorOpacity" : 0.0,
                            "cursorScale" : 0.0
                          },
                          "effects" : [

                          ],
                          "start" : 2314,
                          "duration" : 108030,
                          "mediaStart" : 2313,
                          "mediaDuration" : 1,
                          "scalar" : 1,
                          "metadata" : {
                            "AutoAppliedSmartFocus" : "False"
                          },
                          "animationTracks" : {

                          }
                        }
                    ],
                    "effects" : [
                        {
                          "effectName" : "CursorHilight",
                          "category" : "categoryCursorEffects",
                          "parameters" : {
                            "blur" : 0.1,
                            "color-alpha" : 0.75,
                            "color-blue" : 0.0,
                            "color-green" : 1.0,
                            "color-red" : 1.0,
                            "radius" : 50.0
                          }
                        }
                    ],
                    "start" : 825,
                    "duration" : 228,
                    "mediaStart" : 2264,
                    "mediaDuration" : 228,
                    "scalar" : 1,
                    "metadata" : {
                      "AutoAppliedSmartFocus" : "False",
                      "clipSpeedAttribute" : false
                    },
                    "animationTracks" : {
                      "visual" : [
                        {
                          "endTime" : 277,
                          "duration" : 30,
                          "range" : [ 247, 30]
                        },
                        {
                          "endTime" : 392,
                          "duration" : 30,
                          "range" : [ 362, 30]
                        },
                        {
                          "endTime" : 706,
                          "duration" : 30,
                          "range" : [ 676, 30]
                        }
                      ]
                    }
                  },
                  {
                    "id" : 62,
                    "_type" : "StitchedMedia",
                    "minMediaStart" : 0,
                    "attributes" : {
                      "ident" : "handle_hijacking_attack",
                      "gain" : 1.0,
                      "mixToMono" : false
                    },
                    "parameters" : {
                      "translation0" : {
                        "type" : "double",
                        "defaultValue" : 0.0,
                        "keyframes" : [
                          {
                            "endTime" : 277,
                            "time" : 247,
                            "value" : 5441.96329017631,
                            "duration" : 30
                          },
                          {
                            "endTime" : 392,
                            "time" : 362,
                            "value" : -2.27373675443232e-13,
                            "duration" : 30
                          },
                          {
                            "endTime" : 706,
                            "time" : 676,
                            "value" : 524.859157678326,
                            "duration" : 30
                          },
                          {
                            "endTime" : 2366,
                            "time" : 2336,
                            "value" : -5.6843418860808e-14,
                            "duration" : 30
                          }
                        ]
                      },
                      "translation1" : {
                        "type" : "double",
                        "defaultValue" : 0.0,
                        "keyframes" : [
                          {
                            "endTime" : 277,
                            "time" : 247,
                            "value" : -2330.26244780353,
                            "duration" : 30
                          },
                          {
                            "endTime" : 392,
                            "time" : 362,
                            "value" : -1.13686837721616e-13,
                            "duration" : 30
                          },
                          {
                            "endTime" : 706,
                            "time" : 676,
                            "value" : -200.597094013742,
                            "duration" : 30
                          },
                          {
                            "endTime" : 2366,
                            "time" : 2336,
                            "value" : 0.0,
                            "duration" : 30
                          }
                        ]
                      },
                      "scale0" : {
                        "type" : "double",
                        "defaultValue" : 1.0,
                        "keyframes" : [
                          {
                            "endTime" : 277,
                            "time" : 247,
                            "value" : 5.53262735702365,
                            "duration" : 30
                          },
                          {
                            "endTime" : 392,
                            "time" : 362,
                            "value" : 0.99999994963753,
                            "duration" : 30
                          },
                          {
                            "endTime" : 706,
                            "time" : 676,
                            "value" : 1.59203944671086,
                            "duration" : 30
                          },
                          {
                            "endTime" : 2366,
                            "time" : 2336,
                            "value" : 0.999999875419267,
                            "duration" : 30
                          }
                        ]
                      },
                      "scale1" : {
                        "type" : "double",
                        "defaultValue" : 1.0,
                        "keyframes" : [
                          {
                            "endTime" : 277,
                            "time" : 247,
                            "value" : 5.53262763566044,
                            "duration" : 30
                          },
                          {
                            "endTime" : 392,
                            "time" : 362,
                            "value" : 1.0,
                            "duration" : 30
                          },
                          {
                            "endTime" : 706,
                            "time" : 676,
                            "value" : 1.59203964504832,
                            "duration" : 30
                          },
                          {
                            "endTime" : 2366,
                            "time" : 2336,
                            "value" : 1.0,
                            "duration" : 30
                          }
                        ]
                      },
                      "cursorOpacity" : 1.0,
                      "cursorScale" : 1.0
                    },
                    "medias" : [
                        {
                          "id" : 63,
                          "_type" : "ScreenVMFile",
                          "src" : 2,
                          "trackNumber" : 0,
                          "attributes" : {
                            "ident" : "handle_hijacking_attack"
                          },
                          "parameters" : {
                            "cursorScale" : {
                              "type" : "double",
                              "defaultValue" : 0.0,
                              "interp" : "linr"
                            },
                            "cursorOpacity" : {
                              "type" : "double",
                              "defaultValue" : 0.0,
                              "interp" : "linr"
                            }
                          },
                          "effects" : [

                          ],
                          "start" : 0,
                          "duration" : 2408,
                          "mediaStart" : 0,
                          "mediaDuration" : 2408,
                          "scalar" : 1,
                          "metadata" : {
                            "AutoAppliedSmartFocus" : "False",
                            "clipSpeedAttribute" : false,
                            "default-scale0" : 1.0,
                            "default-scale1" : 1.0,
                            "default-translation0" : 0.0,
                            "default-translation1" : 0.0
                          },
                          "animationTracks" : {

                          }
                        },
                        {
                          "id" : 64,
                          "_type" : "ScreenIMFile",
                          "src" : 2,
                          "trackNumber" : 0,
                          "trimStartSum" : 0,
                          "attributes" : {
                            "ident" : "handle_hijacking_attack"
                          },
                          "parameters" : {
                            "cursorOpacity" : 0.0,
                            "cursorScale" : 0.0
                          },
                          "effects" : [

                          ],
                          "start" : 2408,
                          "duration" : 150,
                          "mediaStart" : 2407,
                          "mediaDuration" : 1,
                          "scalar" : 1,
                          "metadata" : {
                            "AutoAppliedSmartFocus" : "False"
                          },
                          "animationTracks" : {

                          }
                        },
                        {
                          "id" : 65,
                          "_type" : "ScreenVMFile",
                          "src" : 2,
                          "trackNumber" : 0,
                          "attributes" : {
                            "ident" : "handle_hijacking_attack"
                          },
                          "parameters" : {
                            "cursorScale" : {
                              "type" : "double",
                              "defaultValue" : 0.0,
                              "interp" : "linr"
                            },
                            "cursorOpacity" : {
                              "type" : "double",
                              "defaultValue" : 0.0,
                              "interp" : "linr"
                            }
                          },
                          "effects" : [

                          ],
                          "start" : 2558,
                          "duration" : 1234633,
                          "mediaStart" : 2408,
                          "mediaDuration" : 1234633,
                          "scalar" : 1,
                          "metadata" : {
                            "AutoAppliedSmartFocus" : "False",
                            "clipSpeedAttribute" : false,
                            "default-scale0" : 1.0,
                            "default-scale1" : 1.0,
                            "default-translation0" : 0.0,
                            "default-translation1" : 0.0
                          },
                          "animationTracks" : {

                          }
                        }
                    ],
                    "effects" : [
                        {
                          "effectName" : "CursorHilight",
                          "category" : "categoryCursorEffects",
                          "parameters" : {
                            "blur" : 0.1,
                            "color-alpha" : 0.75,
                            "color-blue" : 0.0,
                            "color-green" : 1.0,
                            "color-red" : 1.0,
                            "radius" : 50.0
                          }
                        }
                    ],
                    "start" : 1053,
                    "duration" : 248,
                    "mediaStart" : 2314,
                    "mediaDuration" : 248,
                    "scalar" : 1,
                    "metadata" : {
                      "AutoAppliedSmartFocus" : "False",
                      "clipSpeedAttribute" : false
                    },
                    "animationTracks" : {
                      "visual" : [
                        {
                          "endTime" : 277,
                          "duration" : 30,
                          "range" : [ 247, 30]
                        },
                        {
                          "endTime" : 392,
                          "duration" : 30,
                          "range" : [ 362, 30]
                        },
                        {
                          "endTime" : 706,
                          "duration" : 30,
                          "range" : [ 676, 30]
                        },
                        {
                          "endTime" : 2366,
                          "duration" : 30,
                          "range" : [ 2336, 30]
                        }
                      ]
                    }
                  },
                  {
                    "id" : 66,
                    "_type" : "ScreenVMFile",
                    "src" : 2,
                    "trackNumber" : 0,
                    "attributes" : {
                      "ident" : "handle_hijacking_attack"
                    },
                    "parameters" : {
                      "translation0" : {
                        "type" : "double",
                        "defaultValue" : 0.0,
                        "interp" : "eioe",
                        "keyframes" : [
                          {
                            "endTime" : 277,
                            "time" : 247,
                            "value" : 5441.96329017631,
                            "duration" : 30
                          },
                          {
                            "endTime" : 392,
                            "time" : 362,
                            "value" : -2.27373675443232e-13,
                            "duration" : 30
                          },
                          {
                            "endTime" : 706,
                            "time" : 676,
                            "value" : 524.859157678326,
                            "duration" : 30
                          },
                          {
                            "endTime" : 2366,
                            "time" : 2336,
                            "value" : -5.6843418860808e-14,
                            "duration" : 30
                          }
                        ]
                      },
                      "translation1" : {
                        "type" : "double",
                        "defaultValue" : 0.0,
                        "interp" : "eioe",
                        "keyframes" : [
                          {
                            "endTime" : 277,
                            "time" : 247,
                            "value" : -2330.26244780353,
                            "duration" : 30
                          },
                          {
                            "endTime" : 392,
                            "time" : 362,
                            "value" : -1.13686837721616e-13,
                            "duration" : 30
                          },
                          {
                            "endTime" : 706,
                            "time" : 676,
                            "value" : -200.597094013742,
                            "duration" : 30
                          },
                          {
                            "endTime" : 2366,
                            "time" : 2336,
                            "value" : 0.0,
                            "duration" : 30
                          }
                        ]
                      },
                      "scale0" : {
                        "type" : "double",
                        "defaultValue" : 1.0,
                        "interp" : "eioe",
                        "keyframes" : [
                          {
                            "endTime" : 277,
                            "time" : 247,
                            "value" : 5.53262735702365,
                            "duration" : 30
                          },
                          {
                            "endTime" : 392,
                            "time" : 362,
                            "value" : 0.99999994963753,
                            "duration" : 30
                          },
                          {
                            "endTime" : 706,
                            "time" : 676,
                            "value" : 1.59203944671086,
                            "duration" : 30
                          },
                          {
                            "endTime" : 2366,
                            "time" : 2336,
                            "value" : 0.999999875419267,
                            "duration" : 30
                          }
                        ]
                      },
                      "scale1" : {
                        "type" : "double",
                        "defaultValue" : 1.0,
                        "interp" : "eioe",
                        "keyframes" : [
                          {
                            "endTime" : 277,
                            "time" : 247,
                            "value" : 5.53262763566044,
                            "duration" : 30
                          },
                          {
                            "endTime" : 392,
                            "time" : 362,
                            "value" : 1.0,
                            "duration" : 30
                          },
                          {
                            "endTime" : 706,
                            "time" : 676,
                            "value" : 1.59203964504832,
                            "duration" : 30
                          },
                          {
                            "endTime" : 2366,
                            "time" : 2336,
                            "value" : 1.0,
                            "duration" : 30
                          }
                        ]
                      },
                      "cursorScale" : {
                        "type" : "double",
                        "defaultValue" : 1.0,
                        "interp" : "linr"
                      },
                      "cursorOpacity" : {
                        "type" : "double",
                        "defaultValue" : 1.0,
                        "interp" : "linr"
                      }
                    },
                    "effects" : [
                        {
                          "effectName" : "CursorHilight",
                          "category" : "categoryCursorEffects",
                          "parameters" : {
                            "blur" : 0.1,
                            "color-alpha" : 0.75,
                            "color-blue" : 0.0,
                            "color-green" : 1.0,
                            "color-red" : 1.0,
                            "radius" : 50.0
                          }
                        }
                    ],
                    "start" : 1301,
                    "duration" : 89,
                    "mediaStart" : 2412,
                    "mediaDuration" : 192,
                    "scalar" : "89/192",
                    "metadata" : {
                      "AutoAppliedSmartFocus" : "False",
                      "clipSpeedAttribute" : true,
                      "default-scale0" : 1.0,
                      "default-scale1" : 1.0,
                      "default-translation0" : 0.0,
                      "default-translation1" : 0.0
                    },
                    "animationTracks" : {
                      "visual" : [
                        {
                          "endTime" : 277,
                          "duration" : 30,
                          "range" : [ 247, 30]
                        },
                        {
                          "endTime" : 392,
                          "duration" : 30,
                          "range" : [ 362, 30]
                        },
                        {
                          "endTime" : 706,
                          "duration" : 30,
                          "range" : [ 676, 30]
                        },
                        {
                          "endTime" : 2366,
                          "duration" : 30,
                          "range" : [ 2336, 30]
                        }
                      ]
                    }
                  },
                  {
                    "id" : 67,
                    "_type" : "ScreenVMFile",
                    "src" : 2,
                    "trackNumber" : 0,
                    "attributes" : {
                      "ident" : "handle_hijacking_attack"
                    },
                    "parameters" : {
                      "translation0" : {
                        "type" : "double",
                        "defaultValue" : 0.0,
                        "interp" : "eioe",
                        "keyframes" : [
                          {
                            "endTime" : 277,
                            "time" : 247,
                            "value" : 5441.96329017631,
                            "duration" : 30
                          },
                          {
                            "endTime" : 392,
                            "time" : 362,
                            "value" : -2.27373675443232e-13,
                            "duration" : 30
                          },
                          {
                            "endTime" : 706,
                            "time" : 676,
                            "value" : 524.859157678326,
                            "duration" : 30
                          },
                          {
                            "endTime" : 2366,
                            "time" : 2336,
                            "value" : -5.6843418860808e-14,
                            "duration" : 30
                          },
                          {
                            "endTime" : 2701,
                            "time" : 2671,
                            "value" : -600.9505280081,
                            "duration" : 30
                          }
                        ]
                      },
                      "translation1" : {
                        "type" : "double",
                        "defaultValue" : 0.0,
                        "interp" : "eioe",
                        "keyframes" : [
                          {
                            "endTime" : 277,
                            "time" : 247,
                            "value" : -2330.26244780353,
                            "duration" : 30
                          },
                          {
                            "endTime" : 392,
                            "time" : 362,
                            "value" : -1.13686837721616e-13,
                            "duration" : 30
                          },
                          {
                            "endTime" : 706,
                            "time" : 676,
                            "value" : -200.597094013742,
                            "duration" : 30
                          },
                          {
                            "endTime" : 2366,
                            "time" : 2336,
                            "value" : 0.0,
                            "duration" : 30
                          },
                          {
                            "endTime" : 2701,
                            "time" : 2671,
                            "value" : 338.034479510627,
                            "duration" : 30
                          }
                        ]
                      },
                      "scale0" : {
                        "type" : "double",
                        "defaultValue" : 1.0,
                        "interp" : "eioe",
                        "keyframes" : [
                          {
                            "endTime" : 277,
                            "time" : 247,
                            "value" : 5.53262735702365,
                            "duration" : 30
                          },
                          {
                            "endTime" : 392,
                            "time" : 362,
                            "value" : 0.99999994963753,
                            "duration" : 30
                          },
                          {
                            "endTime" : 706,
                            "time" : 676,
                            "value" : 1.59203944671086,
                            "duration" : 30
                          },
                          {
                            "endTime" : 2366,
                            "time" : 2336,
                            "value" : 0.999999875419267,
                            "duration" : 30
                          },
                          {
                            "endTime" : 2701,
                            "time" : 2671,
                            "value" : 1.54013269120318,
                            "duration" : 30
                          }
                        ]
                      },
                      "scale1" : {
                        "type" : "double",
                        "defaultValue" : 1.0,
                        "interp" : "eioe",
                        "keyframes" : [
                          {
                            "endTime" : 277,
                            "time" : 247,
                            "value" : 5.53262763566044,
                            "duration" : 30
                          },
                          {
                            "endTime" : 392,
                            "time" : 362,
                            "value" : 1.0,
                            "duration" : 30
                          },
                          {
                            "endTime" : 706,
                            "time" : 676,
                            "value" : 1.59203964504832,
                            "duration" : 30
                          },
                          {
                            "endTime" : 2366,
                            "time" : 2336,
                            "value" : 1.0,
                            "duration" : 30
                          },
                          {
                            "endTime" : 2701,
                            "time" : 2671,
                            "value" : 1.54013357801726,
                            "duration" : 30
                          }
                        ]
                      },
                      "cursorScale" : {
                        "type" : "double",
                        "defaultValue" : 1.0,
                        "interp" : "linr"
                      },
                      "cursorOpacity" : {
                        "type" : "double",
                        "defaultValue" : 1.0,
                        "interp" : "linr"
                      }
                    },
                    "effects" : [
                        {
                          "effectName" : "CursorHilight",
                          "category" : "categoryCursorEffects",
                          "parameters" : {
                            "blur" : 0.1,
                            "color-alpha" : 0.75,
                            "color-blue" : 0.0,
                            "color-green" : 1.0,
                            "color-red" : 1.0,
                            "radius" : 50.0
                          }
                        }
                    ],
                    "start" : 1390,
                    "duration" : 27,
                    "mediaStart" : 2604,
                    "mediaDuration" : 27,
                    "scalar" : 1,
                    "metadata" : {
                      "AutoAppliedSmartFocus" : "False",
                      "clipSpeedAttribute" : false,
                      "default-scale0" : 1.0,
                      "default-scale1" : 1.0,
                      "default-translation0" : 0.0,
                      "default-translation1" : 0.0
                    },
                    "animationTracks" : {
                      "visual" : [
                        {
                          "endTime" : 277,
                          "duration" : 30,
                          "range" : [ 247, 30]
                        },
                        {
                          "endTime" : 392,
                          "duration" : 30,
                          "range" : [ 362, 30]
                        },
                        {
                          "endTime" : 706,
                          "duration" : 30,
                          "range" : [ 676, 30]
                        },
                        {
                          "endTime" : 2366,
                          "duration" : 30,
                          "range" : [ 2336, 30]
                        },
                        {
                          "endTime" : 2701,
                          "duration" : 30,
                          "range" : [ 2671, 30]
                        }
                      ]
                    }
                  },
                  {
                    "id" : 68,
                    "_type" : "ScreenVMFile",
                    "src" : 2,
                    "trackNumber" : 0,
                    "attributes" : {
                      "ident" : "handle_hijacking_attack"
                    },
                    "parameters" : {
                      "translation0" : {
                        "type" : "double",
                        "defaultValue" : 0.0,
                        "interp" : "eioe",
                        "keyframes" : [
                          {
                            "endTime" : 277,
                            "time" : 247,
                            "value" : 5441.96329017631,
                            "duration" : 30
                          },
                          {
                            "endTime" : 392,
                            "time" : 362,
                            "value" : -2.27373675443232e-13,
                            "duration" : 30
                          },
                          {
                            "endTime" : 706,
                            "time" : 676,
                            "value" : 524.859157678326,
                            "duration" : 30
                          },
                          {
                            "endTime" : 2366,
                            "time" : 2336,
                            "value" : -5.6843418860808e-14,
                            "duration" : 30
                          },
                          {
                            "endTime" : 2701,
                            "time" : 2671,
                            "value" : -600.9505280081,
                            "duration" : 30
                          }
                        ]
                      },
                      "translation1" : {
                        "type" : "double",
                        "defaultValue" : 0.0,
                        "interp" : "eioe",
                        "keyframes" : [
                          {
                            "endTime" : 277,
                            "time" : 247,
                            "value" : -2330.26244780353,
                            "duration" : 30
                          },
                          {
                            "endTime" : 392,
                            "time" : 362,
                            "value" : -1.13686837721616e-13,
                            "duration" : 30
                          },
                          {
                            "endTime" : 706,
                            "time" : 676,
                            "value" : -200.597094013742,
                            "duration" : 30
                          },
                          {
                            "endTime" : 2366,
                            "time" : 2336,
                            "value" : 0.0,
                            "duration" : 30
                          },
                          {
                            "endTime" : 2701,
                            "time" : 2671,
                            "value" : 338.034479510627,
                            "duration" : 30
                          }
                        ]
                      },
                      "scale0" : {
                        "type" : "double",
                        "defaultValue" : 1.0,
                        "interp" : "eioe",
                        "keyframes" : [
                          {
                            "endTime" : 277,
                            "time" : 247,
                            "value" : 5.53262735702365,
                            "duration" : 30
                          },
                          {
                            "endTime" : 392,
                            "time" : 362,
                            "value" : 0.99999994963753,
                            "duration" : 30
                          },
                          {
                            "endTime" : 706,
                            "time" : 676,
                            "value" : 1.59203944671086,
                            "duration" : 30
                          },
                          {
                            "endTime" : 2366,
                            "time" : 2336,
                            "value" : 0.999999875419267,
                            "duration" : 30
                          },
                          {
                            "endTime" : 2701,
                            "time" : 2671,
                            "value" : 1.54013269120318,
                            "duration" : 30
                          }
                        ]
                      },
                      "scale1" : {
                        "type" : "double",
                        "defaultValue" : 1.0,
                        "interp" : "eioe",
                        "keyframes" : [
                          {
                            "endTime" : 277,
                            "time" : 247,
                            "value" : 5.53262763566044,
                            "duration" : 30
                          },
                          {
                            "endTime" : 392,
                            "time" : 362,
                            "value" : 1.0,
                            "duration" : 30
                          },
                          {
                            "endTime" : 706,
                            "time" : 676,
                            "value" : 1.59203964504832,
                            "duration" : 30
                          },
                          {
                            "endTime" : 2366,
                            "time" : 2336,
                            "value" : 1.0,
                            "duration" : 30
                          },
                          {
                            "endTime" : 2701,
                            "time" : 2671,
                            "value" : 1.54013357801726,
                            "duration" : 30
                          }
                        ]
                      },
                      "cursorScale" : {
                        "type" : "double",
                        "defaultValue" : 1.0,
                        "interp" : "linr"
                      },
                      "cursorOpacity" : {
                        "type" : "double",
                        "defaultValue" : 1.0,
                        "interp" : "linr"
                      }
                    },
                    "effects" : [
                        {
                          "effectName" : "CursorHilight",
                          "category" : "categoryCursorEffects",
                          "parameters" : {
                            "blur" : 0.1,
                            "color-alpha" : 0.75,
                            "color-blue" : 0.0,
                            "color-green" : 1.0,
                            "color-red" : 1.0,
                            "radius" : 50.0
                          }
                        }
                    ],
                    "start" : 1417,
                    "duration" : 31,
                    "mediaStart" : 2671,
                    "mediaDuration" : 31,
                    "scalar" : 1,
                    "metadata" : {
                      "AutoAppliedSmartFocus" : "False",
                      "clipSpeedAttribute" : false,
                      "default-scale0" : 1.0,
                      "default-scale1" : 1.0,
                      "default-translation0" : 0.0,
                      "default-translation1" : 0.0
                    },
                    "animationTracks" : {
                      "visual" : [
                        {
                          "endTime" : 277,
                          "duration" : 30,
                          "range" : [ 247, 30]
                        },
                        {
                          "endTime" : 392,
                          "duration" : 30,
                          "range" : [ 362, 30]
                        },
                        {
                          "endTime" : 706,
                          "duration" : 30,
                          "range" : [ 676, 30]
                        },
                        {
                          "endTime" : 2366,
                          "duration" : 30,
                          "range" : [ 2336, 30]
                        },
                        {
                          "endTime" : 2701,
                          "duration" : 30,
                          "range" : [ 2671, 30]
                        }
                      ]
                    }
                  },
                  {
                    "id" : 69,
                    "_type" : "ScreenVMFile",
                    "src" : 2,
                    "trackNumber" : 0,
                    "attributes" : {
                      "ident" : "handle_hijacking_attack"
                    },
                    "parameters" : {
                      "translation0" : {
                        "type" : "double",
                        "defaultValue" : 0.0,
                        "interp" : "eioe",
                        "keyframes" : [
                          {
                            "endTime" : 277,
                            "time" : 247,
                            "value" : 5441.96329017631,
                            "duration" : 30
                          },
                          {
                            "endTime" : 392,
                            "time" : 362,
                            "value" : -2.27373675443232e-13,
                            "duration" : 30
                          },
                          {
                            "endTime" : 706,
                            "time" : 676,
                            "value" : 524.859157678326,
                            "duration" : 30
                          },
                          {
                            "endTime" : 2366,
                            "time" : 2336,
                            "value" : -5.6843418860808e-14,
                            "duration" : 30
                          },
                          {
                            "endTime" : 2701,
                            "time" : 2671,
                            "value" : -600.9505280081,
                            "duration" : 30
                          }
                        ]
                      },
                      "translation1" : {
                        "type" : "double",
                        "defaultValue" : 0.0,
                        "interp" : "eioe",
                        "keyframes" : [
                          {
                            "endTime" : 277,
                            "time" : 247,
                            "value" : -2330.26244780353,
                            "duration" : 30
                          },
                          {
                            "endTime" : 392,
                            "time" : 362,
                            "value" : -1.13686837721616e-13,
                            "duration" : 30
                          },
                          {
                            "endTime" : 706,
                            "time" : 676,
                            "value" : -200.597094013742,
                            "duration" : 30
                          },
                          {
                            "endTime" : 2366,
                            "time" : 2336,
                            "value" : 0.0,
                            "duration" : 30
                          },
                          {
                            "endTime" : 2701,
                            "time" : 2671,
                            "value" : 338.034479510627,
                            "duration" : 30
                          }
                        ]
                      },
                      "scale0" : {
                        "type" : "double",
                        "defaultValue" : 1.0,
                        "interp" : "eioe",
                        "keyframes" : [
                          {
                            "endTime" : 277,
                            "time" : 247,
                            "value" : 5.53262735702365,
                            "duration" : 30
                          },
                          {
                            "endTime" : 392,
                            "time" : 362,
                            "value" : 0.99999994963753,
                            "duration" : 30
                          },
                          {
                            "endTime" : 706,
                            "time" : 676,
                            "value" : 1.59203944671086,
                            "duration" : 30
                          },
                          {
                            "endTime" : 2366,
                            "time" : 2336,
                            "value" : 0.999999875419267,
                            "duration" : 30
                          },
                          {
                            "endTime" : 2701,
                            "time" : 2671,
                            "value" : 1.54013269120318,
                            "duration" : 30
                          }
                        ]
                      },
                      "scale1" : {
                        "type" : "double",
                        "defaultValue" : 1.0,
                        "interp" : "eioe",
                        "keyframes" : [
                          {
                            "endTime" : 277,
                            "time" : 247,
                            "value" : 5.53262763566044,
                            "duration" : 30
                          },
                          {
                            "endTime" : 392,
                            "time" : 362,
                            "value" : 1.0,
                            "duration" : 30
                          },
                          {
                            "endTime" : 706,
                            "time" : 676,
                            "value" : 1.59203964504832,
                            "duration" : 30
                          },
                          {
                            "endTime" : 2366,
                            "time" : 2336,
                            "value" : 1.0,
                            "duration" : 30
                          },
                          {
                            "endTime" : 2701,
                            "time" : 2671,
                            "value" : 1.54013357801726,
                            "duration" : 30
                          }
                        ]
                      },
                      "cursorScale" : {
                        "type" : "double",
                        "defaultValue" : 1.0,
                        "interp" : "linr"
                      },
                      "cursorOpacity" : {
                        "type" : "double",
                        "defaultValue" : 1.0,
                        "interp" : "linr"
                      }
                    },
                    "effects" : [
                        {
                          "effectName" : "CursorHilight",
                          "category" : "categoryCursorEffects",
                          "parameters" : {
                            "blur" : 0.1,
                            "color-alpha" : 0.75,
                            "color-blue" : 0.0,
                            "color-green" : 1.0,
                            "color-red" : 1.0,
                            "radius" : 50.0
                          }
                        }
                    ],
                    "start" : 1448,
                    "duration" : 76,
                    "mediaStart" : 2702,
                    "mediaDuration" : 241,
                    "scalar" : "76/241",
                    "metadata" : {
                      "AutoAppliedSmartFocus" : "False",
                      "clipSpeedAttribute" : true,
                      "default-scale0" : 1.0,
                      "default-scale1" : 1.0,
                      "default-translation0" : 0.0,
                      "default-translation1" : 0.0
                    },
                    "animationTracks" : {
                      "visual" : [
                        {
                          "endTime" : 277,
                          "duration" : 30,
                          "range" : [ 247, 30]
                        },
                        {
                          "endTime" : 392,
                          "duration" : 30,
                          "range" : [ 362, 30]
                        },
                        {
                          "endTime" : 706,
                          "duration" : 30,
                          "range" : [ 676, 30]
                        },
                        {
                          "endTime" : 2366,
                          "duration" : 30,
                          "range" : [ 2336, 30]
                        },
                        {
                          "endTime" : 2701,
                          "duration" : 30,
                          "range" : [ 2671, 30]
                        }
                      ]
                    }
                  },
                  {
                    "id" : 70,
                    "_type" : "StitchedMedia",
                    "minMediaStart" : 0,
                    "attributes" : {
                      "ident" : "handle_hijacking_attack",
                      "gain" : 1.0,
                      "mixToMono" : false
                    },
                    "parameters" : {
                      "translation0" : {
                        "type" : "double",
                        "defaultValue" : 0.0,
                        "keyframes" : [
                          {
                            "endTime" : 277,
                            "time" : 247,
                            "value" : 5441.96329017631,
                            "duration" : 30
                          },
                          {
                            "endTime" : 392,
                            "time" : 362,
                            "value" : -2.27373675443232e-13,
                            "duration" : 30
                          },
                          {
                            "endTime" : 706,
                            "time" : 676,
                            "value" : 524.859157678326,
                            "duration" : 30
                          },
                          {
                            "endTime" : 2366,
                            "time" : 2336,
                            "value" : -5.6843418860808e-14,
                            "duration" : 30
                          },
                          {
                            "endTime" : 2701,
                            "time" : 2671,
                            "value" : -600.9505280081,
                            "duration" : 30
                          },
                          {
                            "endTime" : 3445,
                            "time" : 3413,
                            "value" : 1.70530256582424e-13,
                            "duration" : 32
                          }
                        ]
                      },
                      "translation1" : {
                        "type" : "double",
                        "defaultValue" : 0.0,
                        "keyframes" : [
                          {
                            "endTime" : 277,
                            "time" : 247,
                            "value" : -2330.26244780353,
                            "duration" : 30
                          },
                          {
                            "endTime" : 392,
                            "time" : 362,
                            "value" : -1.13686837721616e-13,
                            "duration" : 30
                          },
                          {
                            "endTime" : 706,
                            "time" : 676,
                            "value" : -200.597094013742,
                            "duration" : 30
                          },
                          {
                            "endTime" : 2366,
                            "time" : 2336,
                            "value" : 0.0,
                            "duration" : 30
                          },
                          {
                            "endTime" : 2701,
                            "time" : 2671,
                            "value" : 338.034479510627,
                            "duration" : 30
                          },
                          {
                            "endTime" : 3445,
                            "time" : 3413,
                            "value" : -1.4210854715202e-13,
                            "duration" : 32
                          }
                        ]
                      },
                      "scale0" : {
                        "type" : "double",
                        "defaultValue" : 1.0,
                        "keyframes" : [
                          {
                            "endTime" : 277,
                            "time" : 247,
                            "value" : 5.53262735702365,
                            "duration" : 30
                          },
                          {
                            "endTime" : 392,
                            "time" : 362,
                            "value" : 0.99999994963753,
                            "duration" : 30
                          },
                          {
                            "endTime" : 706,
                            "time" : 676,
                            "value" : 1.59203944671086,
                            "duration" : 30
                          },
                          {
                            "endTime" : 2366,
                            "time" : 2336,
                            "value" : 0.999999875419267,
                            "duration" : 30
                          },
                          {
                            "endTime" : 2701,
                            "time" : 2671,
                            "value" : 1.54013269120318,
                            "duration" : 30
                          },
                          {
                            "endTime" : 3445,
                            "time" : 3413,
                            "value" : 0.999999424196647,
                            "duration" : 32
                          }
                        ]
                      },
                      "scale1" : {
                        "type" : "double",
                        "defaultValue" : 1.0,
                        "keyframes" : [
                          {
                            "endTime" : 277,
                            "time" : 247,
                            "value" : 5.53262763566044,
                            "duration" : 30
                          },
                          {
                            "endTime" : 392,
                            "time" : 362,
                            "value" : 1.0,
                            "duration" : 30
                          },
                          {
                            "endTime" : 706,
                            "time" : 676,
                            "value" : 1.59203964504832,
                            "duration" : 30
                          },
                          {
                            "endTime" : 2366,
                            "time" : 2336,
                            "value" : 1.0,
                            "duration" : 30
                          },
                          {
                            "endTime" : 2701,
                            "time" : 2671,
                            "value" : 1.54013357801726,
                            "duration" : 30
                          },
                          {
                            "endTime" : 3445,
                            "time" : 3413,
                            "value" : 1.0,
                            "duration" : 32
                          }
                        ]
                      },
                      "cursorOpacity" : 1.0,
                      "cursorScale" : 1.0
                    },
                    "medias" : [
                        {
                          "id" : 71,
                          "_type" : "ScreenVMFile",
                          "src" : 2,
                          "trackNumber" : 0,
                          "attributes" : {
                            "ident" : "handle_hijacking_attack"
                          },
                          "parameters" : {
                            "cursorScale" : {
                              "type" : "double",
                              "defaultValue" : 0.0,
                              "interp" : "linr"
                            },
                            "cursorOpacity" : {
                              "type" : "double",
                              "defaultValue" : 0.0,
                              "interp" : "linr"
                            }
                          },
                          "effects" : [

                          ],
                          "start" : 0,
                          "duration" : 3008,
                          "mediaStart" : 0,
                          "mediaDuration" : 3008,
                          "scalar" : 1,
                          "metadata" : {
                            "AutoAppliedSmartFocus" : "False",
                            "clipSpeedAttribute" : false,
                            "default-scale0" : 1.0,
                            "default-scale1" : 1.0,
                            "default-translation0" : 0.0,
                            "default-translation1" : 0.0
                          },
                          "animationTracks" : {

                          }
                        },
                        {
                          "id" : 72,
                          "_type" : "ScreenIMFile",
                          "src" : 2,
                          "trackNumber" : 0,
                          "trimStartSum" : 0,
                          "attributes" : {
                            "ident" : "handle_hijacking_attack"
                          },
                          "parameters" : {
                            "cursorOpacity" : 0.0,
                            "cursorScale" : 0.0
                          },
                          "effects" : [

                          ],
                          "start" : 3008,
                          "duration" : 90,
                          "mediaStart" : 3007,
                          "mediaDuration" : 1,
                          "scalar" : 1,
                          "metadata" : {
                            "AutoAppliedSmartFocus" : "False"
                          },
                          "animationTracks" : {

                          }
                        },
                        {
                          "id" : 73,
                          "_type" : "ScreenVMFile",
                          "src" : 2,
                          "trackNumber" : 0,
                          "attributes" : {
                            "ident" : "handle_hijacking_attack"
                          },
                          "parameters" : {
                            "cursorScale" : {
                              "type" : "double",
                              "defaultValue" : 0.0,
                              "interp" : "linr"
                            },
                            "cursorOpacity" : {
                              "type" : "double",
                              "defaultValue" : 0.0,
                              "interp" : "linr"
                            }
                          },
                          "effects" : [

                          ],
                          "start" : 3098,
                          "duration" : 1234033,
                          "mediaStart" : 3008,
                          "mediaDuration" : 1234033,
                          "scalar" : 1,
                          "metadata" : {
                            "AutoAppliedSmartFocus" : "False",
                            "clipSpeedAttribute" : false,
                            "default-scale0" : 1.0,
                            "default-scale1" : 1.0,
                            "default-translation0" : 0.0,
                            "default-translation1" : 0.0
                          },
                          "animationTracks" : {

                          }
                        }
                    ],
                    "effects" : [
                        {
                          "effectName" : "CursorHilight",
                          "category" : "categoryCursorEffects",
                          "parameters" : {
                            "blur" : 0.1,
                            "color-alpha" : 0.75,
                            "color-blue" : 0.0,
                            "color-green" : 1.0,
                            "color-red" : 1.0,
                            "radius" : 50.0
                          }
                        }
                    ],
                    "start" : 1524,
                    "duration" : 244,
                    "mediaStart" : 2943,
                    "mediaDuration" : 244,
                    "scalar" : 1,
                    "metadata" : {
                      "AutoAppliedSmartFocus" : "False",
                      "clipSpeedAttribute" : false,
                      "default-scale0" : 1.54013269120318,
                      "default-scale1" : 1.54013357801726,
                      "default-translation0" : -600.9505280081,
                      "default-translation1" : 338.034479510627
                    },
                    "animationTracks" : {
                      "visual" : [
                        {
                          "endTime" : 277,
                          "duration" : 30,
                          "range" : [ 247, 30]
                        },
                        {
                          "endTime" : 392,
                          "duration" : 30,
                          "range" : [ 362, 30]
                        },
                        {
                          "endTime" : 706,
                          "duration" : 30,
                          "range" : [ 676, 30]
                        },
                        {
                          "endTime" : 2366,
                          "duration" : 30,
                          "range" : [ 2336, 30]
                        },
                        {
                          "endTime" : 2701,
                          "duration" : 30,
                          "range" : [ 2671, 30]
                        },
                        {
                          "endTime" : 3445,
                          "duration" : 32,
                          "range" : [ 3413, 32]
                        }
                      ]
                    }
                  },
                  {
                    "id" : 74,
                    "_type" : "StitchedMedia",
                    "minMediaStart" : 0,
                    "attributes" : {
                      "ident" : "handle_hijacking_attack",
                      "gain" : 1.0,
                      "mixToMono" : false
                    },
                    "parameters" : {
                      "translation0" : {
                        "type" : "double",
                        "defaultValue" : 0.0,
                        "keyframes" : [
                          {
                            "endTime" : 277,
                            "time" : 247,
                            "value" : 5441.96329017631,
                            "duration" : 30
                          },
                          {
                            "endTime" : 392,
                            "time" : 362,
                            "value" : -2.27373675443232e-13,
                            "duration" : 30
                          },
                          {
                            "endTime" : 706,
                            "time" : 676,
                            "value" : 524.859157678326,
                            "duration" : 30
                          },
                          {
                            "endTime" : 2366,
                            "time" : 2336,
                            "value" : -5.6843418860808e-14,
                            "duration" : 30
                          },
                          {
                            "endTime" : 2701,
                            "time" : 2671,
                            "value" : -600.9505280081,
                            "duration" : 30
                          },
                          {
                            "endTime" : 3445,
                            "time" : 3413,
                            "value" : 1.70530256582424e-13,
                            "duration" : 32
                          }
                        ]
                      },
                      "translation1" : {
                        "type" : "double",
                        "defaultValue" : 0.0,
                        "keyframes" : [
                          {
                            "endTime" : 277,
                            "time" : 247,
                            "value" : -2330.26244780353,
                            "duration" : 30
                          },
                          {
                            "endTime" : 392,
                            "time" : 362,
                            "value" : -1.13686837721616e-13,
                            "duration" : 30
                          },
                          {
                            "endTime" : 706,
                            "time" : 676,
                            "value" : -200.597094013742,
                            "duration" : 30
                          },
                          {
                            "endTime" : 2366,
                            "time" : 2336,
                            "value" : 0.0,
                            "duration" : 30
                          },
                          {
                            "endTime" : 2701,
                            "time" : 2671,
                            "value" : 338.034479510627,
                            "duration" : 30
                          },
                          {
                            "endTime" : 3445,
                            "time" : 3413,
                            "value" : -1.4210854715202e-13,
                            "duration" : 32
                          }
                        ]
                      },
                      "scale0" : {
                        "type" : "double",
                        "defaultValue" : 1.0,
                        "keyframes" : [
                          {
                            "endTime" : 277,
                            "time" : 247,
                            "value" : 5.53262735702365,
                            "duration" : 30
                          },
                          {
                            "endTime" : 392,
                            "time" : 362,
                            "value" : 0.99999994963753,
                            "duration" : 30
                          },
                          {
                            "endTime" : 706,
                            "time" : 676,
                            "value" : 1.59203944671086,
                            "duration" : 30
                          },
                          {
                            "endTime" : 2366,
                            "time" : 2336,
                            "value" : 0.999999875419267,
                            "duration" : 30
                          },
                          {
                            "endTime" : 2701,
                            "time" : 2671,
                            "value" : 1.54013269120318,
                            "duration" : 30
                          },
                          {
                            "endTime" : 3445,
                            "time" : 3413,
                            "value" : 0.999999424196647,
                            "duration" : 32
                          }
                        ]
                      },
                      "scale1" : {
                        "type" : "double",
                        "defaultValue" : 1.0,
                        "keyframes" : [
                          {
                            "endTime" : 277,
                            "time" : 247,
                            "value" : 5.53262763566044,
                            "duration" : 30
                          },
                          {
                            "endTime" : 392,
                            "time" : 362,
                            "value" : 1.0,
                            "duration" : 30
                          },
                          {
                            "endTime" : 706,
                            "time" : 676,
                            "value" : 1.59203964504832,
                            "duration" : 30
                          },
                          {
                            "endTime" : 2366,
                            "time" : 2336,
                            "value" : 1.0,
                            "duration" : 30
                          },
                          {
                            "endTime" : 2701,
                            "time" : 2671,
                            "value" : 1.54013357801726,
                            "duration" : 30
                          },
                          {
                            "endTime" : 3445,
                            "time" : 3413,
                            "value" : 1.0,
                            "duration" : 32
                          }
                        ]
                      },
                      "cursorOpacity" : 1.0,
                      "cursorScale" : 1.0
                    },
                    "medias" : [
                        {
                          "id" : 75,
                          "_type" : "ScreenVMFile",
                          "src" : 2,
                          "trackNumber" : 0,
                          "attributes" : {
                            "ident" : "handle_hijacking_attack"
                          },
                          "parameters" : {
                            "cursorScale" : {
                              "type" : "double",
                              "defaultValue" : 0.0,
                              "interp" : "linr"
                            },
                            "cursorOpacity" : {
                              "type" : "double",
                              "defaultValue" : 0.0,
                              "interp" : "linr"
                            }
                          },
                          "effects" : [

                          ],
                          "start" : 0,
                          "duration" : 3008,
                          "mediaStart" : 0,
                          "mediaDuration" : 3008,
                          "scalar" : 1,
                          "metadata" : {
                            "AutoAppliedSmartFocus" : "False",
                            "clipSpeedAttribute" : false,
                            "default-scale0" : 1.0,
                            "default-scale1" : 1.0,
                            "default-translation0" : 0.0,
                            "default-translation1" : 0.0
                          },
                          "animationTracks" : {

                          }
                        },
                        {
                          "id" : 76,
                          "_type" : "ScreenIMFile",
                          "src" : 2,
                          "trackNumber" : 0,
                          "trimStartSum" : 0,
                          "attributes" : {
                            "ident" : "handle_hijacking_attack"
                          },
                          "parameters" : {
                            "cursorOpacity" : 0.0,
                            "cursorScale" : 0.0
                          },
                          "effects" : [

                          ],
                          "start" : 3008,
                          "duration" : 90,
                          "mediaStart" : 3007,
                          "mediaDuration" : 1,
                          "scalar" : 1,
                          "metadata" : {
                            "AutoAppliedSmartFocus" : "False"
                          },
                          "animationTracks" : {

                          }
                        },
                        {
                          "id" : 77,
                          "_type" : "ScreenVMFile",
                          "src" : 2,
                          "trackNumber" : 0,
                          "attributes" : {
                            "ident" : "handle_hijacking_attack"
                          },
                          "parameters" : {
                            "cursorScale" : {
                              "type" : "double",
                              "defaultValue" : 0.0,
                              "interp" : "linr"
                            },
                            "cursorOpacity" : {
                              "type" : "double",
                              "defaultValue" : 0.0,
                              "interp" : "linr"
                            }
                          },
                          "effects" : [

                          ],
                          "start" : 3098,
                          "duration" : 1234033,
                          "mediaStart" : 3008,
                          "mediaDuration" : 1234033,
                          "scalar" : 1,
                          "metadata" : {
                            "AutoAppliedSmartFocus" : "False",
                            "clipSpeedAttribute" : false,
                            "default-scale0" : 1.0,
                            "default-scale1" : 1.0,
                            "default-translation0" : 0.0,
                            "default-translation1" : 0.0
                          },
                          "animationTracks" : {

                          }
                        }
                    ],
                    "effects" : [
                        {
                          "effectName" : "CursorHilight",
                          "category" : "categoryCursorEffects",
                          "parameters" : {
                            "blur" : 0.1,
                            "color-alpha" : 0.75,
                            "color-blue" : 0.0,
                            "color-green" : 1.0,
                            "color-red" : 1.0,
                            "radius" : 50.0
                          }
                        }
                    ],
                    "start" : 1768,
                    "duration" : 90,
                    "mediaStart" : 3187,
                    "mediaDuration" : 222,
                    "scalar" : "15/37",
                    "metadata" : {
                      "AutoAppliedSmartFocus" : "False",
                      "clipSpeedAttribute" : true,
                      "default-scale0" : 1.54013269120318,
                      "default-scale1" : 1.54013357801726,
                      "default-translation0" : -600.9505280081,
                      "default-translation1" : 338.034479510627
                    },
                    "animationTracks" : {
                      "visual" : [
                        {
                          "endTime" : 277,
                          "duration" : 30,
                          "range" : [ 247, 30]
                        },
                        {
                          "endTime" : 392,
                          "duration" : 30,
                          "range" : [ 362, 30]
                        },
                        {
                          "endTime" : 706,
                          "duration" : 30,
                          "range" : [ 676, 30]
                        },
                        {
                          "endTime" : 2366,
                          "duration" : 30,
                          "range" : [ 2336, 30]
                        },
                        {
                          "endTime" : 2701,
                          "duration" : 30,
                          "range" : [ 2671, 30]
                        },
                        {
                          "endTime" : 3445,
                          "duration" : 32,
                          "range" : [ 3413, 32]
                        }
                      ]
                    }
                  },
                  {
                    "id" : 78,
                    "_type" : "StitchedMedia",
                    "minMediaStart" : 0,
                    "attributes" : {
                      "ident" : "handle_hijacking_attack",
                      "gain" : 1.0,
                      "mixToMono" : false
                    },
                    "parameters" : {
                      "translation0" : {
                        "type" : "double",
                        "defaultValue" : 0.0,
                        "keyframes" : [
                          {
                            "endTime" : 277,
                            "time" : 247,
                            "value" : 5441.96329017631,
                            "duration" : 30
                          },
                          {
                            "endTime" : 392,
                            "time" : 362,
                            "value" : -2.27373675443232e-13,
                            "duration" : 30
                          },
                          {
                            "endTime" : 706,
                            "time" : 676,
                            "value" : 524.859157678326,
                            "duration" : 30
                          },
                          {
                            "endTime" : 2366,
                            "time" : 2336,
                            "value" : -5.6843418860808e-14,
                            "duration" : 30
                          },
                          {
                            "endTime" : 2701,
                            "time" : 2671,
                            "value" : -600.9505280081,
                            "duration" : 30
                          },
                          {
                            "endTime" : 3445,
                            "time" : 3413,
                            "value" : 1.70530256582424e-13,
                            "duration" : 32
                          }
                        ]
                      },
                      "translation1" : {
                        "type" : "double",
                        "defaultValue" : 0.0,
                        "keyframes" : [
                          {
                            "endTime" : 277,
                            "time" : 247,
                            "value" : -2330.26244780353,
                            "duration" : 30
                          },
                          {
                            "endTime" : 392,
                            "time" : 362,
                            "value" : -1.13686837721616e-13,
                            "duration" : 30
                          },
                          {
                            "endTime" : 706,
                            "time" : 676,
                            "value" : -200.597094013742,
                            "duration" : 30
                          },
                          {
                            "endTime" : 2366,
                            "time" : 2336,
                            "value" : 0.0,
                            "duration" : 30
                          },
                          {
                            "endTime" : 2701,
                            "time" : 2671,
                            "value" : 338.034479510627,
                            "duration" : 30
                          },
                          {
                            "endTime" : 3445,
                            "time" : 3413,
                            "value" : -1.4210854715202e-13,
                            "duration" : 32
                          }
                        ]
                      },
                      "scale0" : {
                        "type" : "double",
                        "defaultValue" : 1.0,
                        "keyframes" : [
                          {
                            "endTime" : 277,
                            "time" : 247,
                            "value" : 5.53262735702365,
                            "duration" : 30
                          },
                          {
                            "endTime" : 392,
                            "time" : 362,
                            "value" : 0.99999994963753,
                            "duration" : 30
                          },
                          {
                            "endTime" : 706,
                            "time" : 676,
                            "value" : 1.59203944671086,
                            "duration" : 30
                          },
                          {
                            "endTime" : 2366,
                            "time" : 2336,
                            "value" : 0.999999875419267,
                            "duration" : 30
                          },
                          {
                            "endTime" : 2701,
                            "time" : 2671,
                            "value" : 1.54013269120318,
                            "duration" : 30
                          },
                          {
                            "endTime" : 3445,
                            "time" : 3413,
                            "value" : 0.999999424196647,
                            "duration" : 32
                          }
                        ]
                      },
                      "scale1" : {
                        "type" : "double",
                        "defaultValue" : 1.0,
                        "keyframes" : [
                          {
                            "endTime" : 277,
                            "time" : 247,
                            "value" : 5.53262763566044,
                            "duration" : 30
                          },
                          {
                            "endTime" : 392,
                            "time" : 362,
                            "value" : 1.0,
                            "duration" : 30
                          },
                          {
                            "endTime" : 706,
                            "time" : 676,
                            "value" : 1.59203964504832,
                            "duration" : 30
                          },
                          {
                            "endTime" : 2366,
                            "time" : 2336,
                            "value" : 1.0,
                            "duration" : 30
                          },
                          {
                            "endTime" : 2701,
                            "time" : 2671,
                            "value" : 1.54013357801726,
                            "duration" : 30
                          },
                          {
                            "endTime" : 3445,
                            "time" : 3413,
                            "value" : 1.0,
                            "duration" : 32
                          }
                        ]
                      },
                      "cursorOpacity" : 1.0,
                      "cursorScale" : 1.0
                    },
                    "medias" : [
                        {
                          "id" : 79,
                          "_type" : "ScreenVMFile",
                          "src" : 2,
                          "trackNumber" : 0,
                          "attributes" : {
                            "ident" : "handle_hijacking_attack"
                          },
                          "parameters" : {
                            "cursorScale" : {
                              "type" : "double",
                              "defaultValue" : 0.0,
                              "interp" : "linr"
                            },
                            "cursorOpacity" : {
                              "type" : "double",
                              "defaultValue" : 0.0,
                              "interp" : "linr"
                            }
                          },
                          "effects" : [

                          ],
                          "start" : 0,
                          "duration" : 3008,
                          "mediaStart" : 0,
                          "mediaDuration" : 3008,
                          "scalar" : 1,
                          "metadata" : {
                            "AutoAppliedSmartFocus" : "False",
                            "clipSpeedAttribute" : false,
                            "default-scale0" : 1.0,
                            "default-scale1" : 1.0,
                            "default-translation0" : 0.0,
                            "default-translation1" : 0.0
                          },
                          "animationTracks" : {

                          }
                        },
                        {
                          "id" : 80,
                          "_type" : "ScreenIMFile",
                          "src" : 2,
                          "trackNumber" : 0,
                          "trimStartSum" : 0,
                          "attributes" : {
                            "ident" : "handle_hijacking_attack"
                          },
                          "parameters" : {
                            "cursorOpacity" : 0.0,
                            "cursorScale" : 0.0
                          },
                          "effects" : [

                          ],
                          "start" : 3008,
                          "duration" : 90,
                          "mediaStart" : 3007,
                          "mediaDuration" : 1,
                          "scalar" : 1,
                          "metadata" : {
                            "AutoAppliedSmartFocus" : "False"
                          },
                          "animationTracks" : {

                          }
                        },
                        {
                          "id" : 81,
                          "_type" : "ScreenVMFile",
                          "src" : 2,
                          "trackNumber" : 0,
                          "attributes" : {
                            "ident" : "handle_hijacking_attack"
                          },
                          "parameters" : {
                            "cursorScale" : {
                              "type" : "double",
                              "defaultValue" : 0.0,
                              "interp" : "linr"
                            },
                            "cursorOpacity" : {
                              "type" : "double",
                              "defaultValue" : 0.0,
                              "interp" : "linr"
                            }
                          },
                          "effects" : [

                          ],
                          "start" : 3098,
                          "duration" : 1234033,
                          "mediaStart" : 3008,
                          "mediaDuration" : 1234033,
                          "scalar" : 1,
                          "metadata" : {
                            "AutoAppliedSmartFocus" : "False",
                            "clipSpeedAttribute" : false,
                            "default-scale0" : 1.0,
                            "default-scale1" : 1.0,
                            "default-translation0" : 0.0,
                            "default-translation1" : 0.0
                          },
                          "animationTracks" : {

                          }
                        }
                    ],
                    "effects" : [
                        {
                          "effectName" : "CursorHilight",
                          "category" : "categoryCursorEffects",
                          "parameters" : {
                            "blur" : 0.1,
                            "color-alpha" : 0.75,
                            "color-blue" : 0.0,
                            "color-green" : 1.0,
                            "color-red" : 1.0,
                            "radius" : 50.0
                          }
                        }
                    ],
                    "start" : 1858,
                    "duration" : 52,
                    "mediaStart" : 3409,
                    "mediaDuration" : 52,
                    "scalar" : 1,
                    "metadata" : {
                      "AutoAppliedSmartFocus" : "False",
                      "clipSpeedAttribute" : false,
                      "default-scale0" : 1.54013269120318,
                      "default-scale1" : 1.54013357801726,
                      "default-translation0" : -600.9505280081,
                      "default-translation1" : 338.034479510627
                    },
                    "animationTracks" : {
                      "visual" : [
                        {
                          "endTime" : 277,
                          "duration" : 30,
                          "range" : [ 247, 30]
                        },
                        {
                          "endTime" : 392,
                          "duration" : 30,
                          "range" : [ 362, 30]
                        },
                        {
                          "endTime" : 706,
                          "duration" : 30,
                          "range" : [ 676, 30]
                        },
                        {
                          "endTime" : 2366,
                          "duration" : 30,
                          "range" : [ 2336, 30]
                        },
                        {
                          "endTime" : 2701,
                          "duration" : 30,
                          "range" : [ 2671, 30]
                        },
                        {
                          "endTime" : 3445,
                          "duration" : 32,
                          "range" : [ 3413, 32]
                        }
                      ]
                    }
                  },
                  {
                    "id" : 82,
                    "_type" : "StitchedMedia",
                    "minMediaStart" : 0,
                    "attributes" : {
                      "ident" : "handle_hijacking_attack",
                      "gain" : 1.0,
                      "mixToMono" : false
                    },
                    "parameters" : {
                      "translation0" : {
                        "type" : "double",
                        "defaultValue" : -231.99233618035,
                        "keyframes" : [
                          {
                            "endTime" : 277,
                            "time" : 247,
                            "value" : 5209.97095399596,
                            "duration" : 30
                          },
                          {
                            "endTime" : 392,
                            "time" : 362,
                            "value" : -231.99233618035,
                            "duration" : 30
                          },
                          {
                            "endTime" : 706,
                            "time" : 676,
                            "value" : 292.866821497976,
                            "duration" : 30
                          },
                          {
                            "endTime" : 2366,
                            "time" : 2336,
                            "value" : -231.99233618035,
                            "duration" : 30
                          },
                          {
                            "endTime" : 2701,
                            "time" : 2671,
                            "value" : -832.942864188449,
                            "duration" : 30
                          },
                          {
                            "endTime" : 3445,
                            "time" : 3413,
                            "value" : -231.992336180349,
                            "duration" : 32
                          },
                          {
                            "endTime" : "314095/91",
                            "time" : 3445,
                            "value" : -4.2632564145606e-14,
                            "duration" : "600/91"
                          }
                        ]
                      },
                      "translation1" : {
                        "type" : "double",
                        "defaultValue" : 746.288081293927,
                        "keyframes" : [
                          {
                            "endTime" : 277,
                            "time" : 247,
                            "value" : -1583.9743665096,
                            "duration" : 30
                          },
                          {
                            "endTime" : 392,
                            "time" : 362,
                            "value" : 746.288081293927,
                            "duration" : 30
                          },
                          {
                            "endTime" : 706,
                            "time" : 676,
                            "value" : 545.690987280186,
                            "duration" : 30
                          },
                          {
                            "endTime" : 2366,
                            "time" : 2336,
                            "value" : 746.288081293927,
                            "duration" : 30
                          },
                          {
                            "endTime" : 2701,
                            "time" : 2671,
                            "value" : 1084.32256080455,
                            "duration" : 30
                          },
                          {
                            "endTime" : 3445,
                            "time" : 3413,
                            "value" : 746.288081293927,
                            "duration" : 32
                          },
                          {
                            "endTime" : "314095/91",
                            "time" : 3445,
                            "value" : 1.13686837721616e-13,
                            "duration" : "600/91"
                          }
                        ]
                      },
                      "scale0" : {
                        "type" : "double",
                        "defaultValue" : 2.3672588418811,
                        "keyframes" : [
                          {
                            "endTime" : 277,
                            "time" : 247,
                            "value" : 13.0971610297475,
                            "duration" : 30
                          },
                          {
                            "endTime" : 392,
                            "time" : 362,
                            "value" : 2.3672587226601,
                            "duration" : 30
                          },
                          {
                            "endTime" : 706,
                            "time" : 676,
                            "value" : 3.76876945684978,
                            "duration" : 30
                          },
                          {
                            "endTime" : 2366,
                            "time" : 2336,
                            "value" : 2.36725854696626,
                            "duration" : 30
                          },
                          {
                            "endTime" : 2701,
                            "time" : 2671,
                            "value" : 3.64589273092086,
                            "duration" : 30
                          },
                          {
                            "endTime" : 3445,
                            "time" : 3413,
                            "value" : 2.36725747880552,
                            "duration" : 32
                          },
                          {
                            "endTime" : "314095/91",
                            "time" : 3445,
                            "value" : 0.999998978244737,
                            "duration" : "600/91"
                          }
                        ]
                      },
                      "scale1" : {
                        "type" : "double",
                        "defaultValue" : 2.36725989756578,
                        "keyframes" : [
                          {
                            "endTime" : 277,
                            "time" : 247,
                            "value" : 13.0971675300631,
                            "duration" : 30
                          },
                          {
                            "endTime" : 392,
                            "time" : 362,
                            "value" : 2.36725989756578,
                            "duration" : 30
                          },
                          {
                            "endTime" : 706,
                            "time" : 676,
                            "value" : 3.76877160705775,
                            "duration" : 30
                          },
                          {
                            "endTime" : 2366,
                            "time" : 2336,
                            "value" : 2.36725989756578,
                            "duration" : 30
                          },
                          {
                            "endTime" : 2701,
                            "time" : 2671,
                            "value" : 3.64589645613476,
                            "duration" : 30
                          },
                          {
                            "endTime" : 3445,
                            "time" : 3413,
                            "value" : 2.36725989756578,
                            "duration" : 32
                          },
                          {
                            "endTime" : "314095/91",
                            "time" : 3445,
                            "value" : 1.0,
                            "duration" : "600/91"
                          }
                        ]
                      },
                      "cursorOpacity" : 1.0,
                      "cursorScale" : 1.0
                    },
                    "medias" : [
                        {
                          "id" : 83,
                          "_type" : "ScreenVMFile",
                          "src" : 2,
                          "trackNumber" : 0,
                          "attributes" : {
                            "ident" : "handle_hijacking_attack"
                          },
                          "parameters" : {
                            "cursorScale" : {
                              "type" : "double",
                              "defaultValue" : 0.0,
                              "interp" : "linr"
                            },
                            "cursorOpacity" : {
                              "type" : "double",
                              "defaultValue" : 0.0,
                              "interp" : "linr"
                            }
                          },
                          "effects" : [

                          ],
                          "start" : 0,
                          "duration" : 3008,
                          "mediaStart" : 0,
                          "mediaDuration" : 3008,
                          "scalar" : 1,
                          "metadata" : {
                            "AutoAppliedSmartFocus" : "False",
                            "clipSpeedAttribute" : false,
                            "default-scale0" : 1.0,
                            "default-scale1" : 1.0,
                            "default-translation0" : 0.0,
                            "default-translation1" : 0.0
                          },
                          "animationTracks" : {

                          }
                        },
                        {
                          "id" : 84,
                          "_type" : "ScreenIMFile",
                          "src" : 2,
                          "trackNumber" : 0,
                          "trimStartSum" : 0,
                          "attributes" : {
                            "ident" : "handle_hijacking_attack"
                          },
                          "parameters" : {
                            "cursorOpacity" : 0.0,
                            "cursorScale" : 0.0
                          },
                          "effects" : [

                          ],
                          "start" : 3008,
                          "duration" : 90,
                          "mediaStart" : 3007,
                          "mediaDuration" : 1,
                          "scalar" : 1,
                          "metadata" : {
                            "AutoAppliedSmartFocus" : "False"
                          },
                          "animationTracks" : {

                          }
                        },
                        {
                          "id" : 85,
                          "_type" : "ScreenVMFile",
                          "src" : 2,
                          "trackNumber" : 0,
                          "attributes" : {
                            "ident" : "handle_hijacking_attack"
                          },
                          "parameters" : {
                            "cursorScale" : {
                              "type" : "double",
                              "defaultValue" : 0.0,
                              "interp" : "linr"
                            },
                            "cursorOpacity" : {
                              "type" : "double",
                              "defaultValue" : 0.0,
                              "interp" : "linr"
                            }
                          },
                          "effects" : [

                          ],
                          "start" : 3098,
                          "duration" : 1234033,
                          "mediaStart" : 3008,
                          "mediaDuration" : 1234033,
                          "scalar" : 1,
                          "metadata" : {
                            "AutoAppliedSmartFocus" : "False",
                            "clipSpeedAttribute" : false,
                            "default-scale0" : 1.0,
                            "default-scale1" : 1.0,
                            "default-translation0" : 0.0,
                            "default-translation1" : 0.0
                          },
                          "animationTracks" : {

                          }
                        }
                    ],
                    "effects" : [
                        {
                          "effectName" : "CursorHilight",
                          "category" : "categoryCursorEffects",
                          "parameters" : {
                            "blur" : 0.1,
                            "color-alpha" : 0.75,
                            "color-blue" : 0.0,
                            "color-green" : 1.0,
                            "color-red" : 1.0,
                            "radius" : 50.0
                          }
                        }
                    ],
                    "start" : 1910,
                    "duration" : 91,
                    "mediaStart" : 3461,
                    "mediaDuration" : 150,
                    "scalar" : "91/150",
                    "metadata" : {
                      "AutoAppliedSmartFocus" : "False",
                      "clipSpeedAttribute" : true,
                      "default-scale0" : 1.54013269120318,
                      "default-scale1" : 1.54013357801726,
                      "default-translation0" : -600.9505280081,
                      "default-translation1" : 338.034479510627
                    },
                    "animationTracks" : {
                      "visual" : [
                        {
                          "endTime" : 277,
                          "duration" : 30,
                          "range" : [ 247, 30]
                        },
                        {
                          "endTime" : 392,
                          "duration" : 30,
                          "range" : [ 362, 30]
                        },
                        {
                          "endTime" : 706,
                          "duration" : 30,
                          "range" : [ 676, 30]
                        },
                        {
                          "endTime" : 2366,
                          "duration" : 30,
                          "range" : [ 2336, 30]
                        },
                        {
                          "endTime" : 2701,
                          "duration" : 30,
                          "range" : [ 2671, 30]
                        },
                        {
                          "endTime" : 3445,
                          "duration" : 32,
                          "range" : [ 3413, 32]
                        },
                        {
                          "endTime" : "314095/91",
                          "duration" : "600/91",
                          "range" : [ 3445, "600/91"]
                        }
                      ]
                    }
                  },
                  {
                    "id" : 86,
                    "_type" : "StitchedMedia",
                    "minMediaStart" : 0,
                    "attributes" : {
                      "ident" : "handle_hijacking_attack",
                      "gain" : 1.0,
                      "mixToMono" : false
                    },
                    "parameters" : {
                      "translation0" : {
                        "type" : "double",
                        "defaultValue" : -231.99233618035,
                        "keyframes" : [
                          {
                            "endTime" : 277,
                            "time" : 247,
                            "value" : 5209.97095399596,
                            "duration" : 30
                          },
                          {
                            "endTime" : 392,
                            "time" : 362,
                            "value" : -231.99233618035,
                            "duration" : 30
                          },
                          {
                            "endTime" : 706,
                            "time" : 676,
                            "value" : 292.866821497976,
                            "duration" : 30
                          },
                          {
                            "endTime" : 2366,
                            "time" : 2336,
                            "value" : -231.99233618035,
                            "duration" : 30
                          },
                          {
                            "endTime" : 2701,
                            "time" : 2671,
                            "value" : -832.942864188449,
                            "duration" : 30
                          },
                          {
                            "endTime" : 3445,
                            "time" : 3413,
                            "value" : 0.0,
                            "duration" : 32
                          },
                          {
                            "endTime" : 3664,
                            "time" : 3634,
                            "value" : -232.0,
                            "duration" : 30
                          }
                        ]
                      },
                      "translation1" : {
                        "type" : "double",
                        "defaultValue" : 746.288081293927,
                        "keyframes" : [
                          {
                            "endTime" : 277,
                            "time" : 247,
                            "value" : -1583.9743665096,
                            "duration" : 30
                          },
                          {
                            "endTime" : 392,
                            "time" : 362,
                            "value" : 746.288081293927,
                            "duration" : 30
                          },
                          {
                            "endTime" : 706,
                            "time" : 676,
                            "value" : 545.690987280186,
                            "duration" : 30
                          },
                          {
                            "endTime" : 2366,
                            "time" : 2336,
                            "value" : 746.288081293927,
                            "duration" : 30
                          },
                          {
                            "endTime" : 2701,
                            "time" : 2671,
                            "value" : 1084.32256080455,
                            "duration" : 30
                          },
                          {
                            "endTime" : 3445,
                            "time" : 3413,
                            "value" : 0.0,
                            "duration" : 32
                          },
                          {
                            "endTime" : 3664,
                            "time" : 3634,
                            "value" : 746.3,
                            "duration" : 30
                          }
                        ]
                      },
                      "scale0" : {
                        "type" : "double",
                        "defaultValue" : 2.3672588418811,
                        "keyframes" : [
                          {
                            "endTime" : 277,
                            "time" : 247,
                            "value" : 13.0971610297475,
                            "duration" : 30
                          },
                          {
                            "endTime" : 392,
                            "time" : 362,
                            "value" : 2.3672587226601,
                            "duration" : 30
                          },
                          {
                            "endTime" : 706,
                            "time" : 676,
                            "value" : 3.76876945684978,
                            "duration" : 30
                          },
                          {
                            "endTime" : 2366,
                            "time" : 2336,
                            "value" : 2.36725854696626,
                            "duration" : 30
                          },
                          {
                            "endTime" : 2701,
                            "time" : 2671,
                            "value" : 3.64589273092086,
                            "duration" : 30
                          },
                          {
                            "endTime" : 3445,
                            "time" : 3413,
                            "value" : 0.999998978244737,
                            "duration" : 32
                          },
                          {
                            "endTime" : 3664,
                            "time" : 3634,
                            "value" : 2.36699738406798,
                            "duration" : 30
                          }
                        ]
                      },
                      "scale1" : {
                        "type" : "double",
                        "defaultValue" : 2.36725989756578,
                        "keyframes" : [
                          {
                            "endTime" : 277,
                            "time" : 247,
                            "value" : 13.0971675300631,
                            "duration" : 30
                          },
                          {
                            "endTime" : 392,
                            "time" : 362,
                            "value" : 2.36725989756578,
                            "duration" : 30
                          },
                          {
                            "endTime" : 706,
                            "time" : 676,
                            "value" : 3.76877160705775,
                            "duration" : 30
                          },
                          {
                            "endTime" : 2366,
                            "time" : 2336,
                            "value" : 2.36725989756578,
                            "duration" : 30
                          },
                          {
                            "endTime" : 2701,
                            "time" : 2671,
                            "value" : 3.64589645613476,
                            "duration" : 30
                          },
                          {
                            "endTime" : 3445,
                            "time" : 3413,
                            "value" : 1.0,
                            "duration" : 32
                          },
                          {
                            "endTime" : 3664,
                            "time" : 3634,
                            "value" : 2.367,
                            "duration" : 30
                          }
                        ]
                      },
                      "cursorOpacity" : 1.0,
                      "cursorScale" : 1.0
                    },
                    "medias" : [
                        {
                          "id" : 87,
                          "_type" : "ScreenVMFile",
                          "src" : 2,
                          "trackNumber" : 0,
                          "attributes" : {
                            "ident" : "handle_hijacking_attack"
                          },
                          "parameters" : {
                            "cursorScale" : {
                              "type" : "double",
                              "defaultValue" : 0.0,
                              "interp" : "linr"
                            },
                            "cursorOpacity" : {
                              "type" : "double",
                              "defaultValue" : 0.0,
                              "interp" : "linr"
                            }
                          },
                          "effects" : [

                          ],
                          "start" : 0,
                          "duration" : 3008,
                          "mediaStart" : 0,
                          "mediaDuration" : 3008,
                          "scalar" : 1,
                          "metadata" : {
                            "AutoAppliedSmartFocus" : "False",
                            "clipSpeedAttribute" : false,
                            "default-scale0" : 1.0,
                            "default-scale1" : 1.0,
                            "default-translation0" : 0.0,
                            "default-translation1" : 0.0
                          },
                          "animationTracks" : {

                          }
                        },
                        {
                          "id" : 88,
                          "_type" : "ScreenIMFile",
                          "src" : 2,
                          "trackNumber" : 0,
                          "trimStartSum" : 0,
                          "attributes" : {
                            "ident" : "handle_hijacking_attack"
                          },
                          "parameters" : {
                            "cursorOpacity" : 0.0,
                            "cursorScale" : 0.0
                          },
                          "effects" : [

                          ],
                          "start" : 3008,
                          "duration" : 90,
                          "mediaStart" : 3007,
                          "mediaDuration" : 1,
                          "scalar" : 1,
                          "metadata" : {
                            "AutoAppliedSmartFocus" : "False"
                          },
                          "animationTracks" : {

                          }
                        },
                        {
                          "id" : 89,
                          "_type" : "ScreenVMFile",
                          "src" : 2,
                          "trackNumber" : 0,
                          "attributes" : {
                            "ident" : "handle_hijacking_attack"
                          },
                          "parameters" : {
                            "cursorScale" : {
                              "type" : "double",
                              "defaultValue" : 0.0,
                              "interp" : "linr"
                            },
                            "cursorOpacity" : {
                              "type" : "double",
                              "defaultValue" : 0.0,
                              "interp" : "linr"
                            }
                          },
                          "effects" : [

                          ],
                          "start" : 3098,
                          "duration" : 721,
                          "mediaStart" : 3008,
                          "mediaDuration" : 721,
                          "scalar" : 1,
                          "metadata" : {
                            "AutoAppliedSmartFocus" : "False",
                            "clipSpeedAttribute" : false,
                            "default-scale0" : 1.0,
                            "default-scale1" : 1.0,
                            "default-translation0" : 0.0,
                            "default-translation1" : 0.0
                          },
                          "animationTracks" : {

                          }
                        },
                        {
                          "id" : 90,
                          "_type" : "ScreenIMFile",
                          "src" : 2,
                          "trackNumber" : 0,
                          "trimStartSum" : 0,
                          "attributes" : {
                            "ident" : "handle_hijacking_attack"
                          },
                          "parameters" : {
                            "cursorOpacity" : 0.0,
                            "cursorScale" : 0.0
                          },
                          "effects" : [

                          ],
                          "start" : 3819,
                          "duration" : 90,
                          "mediaStart" : 3729,
                          "mediaDuration" : 1,
                          "scalar" : 1,
                          "metadata" : {
                            "AutoAppliedSmartFocus" : "False"
                          },
                          "animationTracks" : {

                          }
                        },
                        {
                          "id" : 91,
                          "_type" : "ScreenVMFile",
                          "src" : 2,
                          "trackNumber" : 0,
                          "attributes" : {
                            "ident" : "handle_hijacking_attack"
                          },
                          "parameters" : {
                            "cursorScale" : {
                              "type" : "double",
                              "defaultValue" : 0.0,
                              "interp" : "linr"
                            },
                            "cursorOpacity" : {
                              "type" : "double",
                              "defaultValue" : 0.0,
                              "interp" : "linr"
                            }
                          },
                          "effects" : [

                          ],
                          "start" : 3909,
                          "duration" : 1233312,
                          "mediaStart" : 3729,
                          "mediaDuration" : 1233312,
                          "scalar" : 1,
                          "metadata" : {
                            "AutoAppliedSmartFocus" : "False",
                            "clipSpeedAttribute" : false,
                            "default-scale0" : 1.0,
                            "default-scale1" : 1.0,
                            "default-translation0" : 0.0,
                            "default-translation1" : 0.0
                          },
                          "animationTracks" : {

                          }
                        }
                    ],
                    "effects" : [
                        {
                          "effectName" : "CursorHilight",
                          "category" : "categoryCursorEffects",
                          "parameters" : {
                            "blur" : 0.1,
                            "color-alpha" : 0.75,
                            "color-blue" : 0.0,
                            "color-green" : 1.0,
                            "color-red" : 1.0,
                            "radius" : 50.0
                          }
                        }
                    ],
                    "start" : 2001,
                    "duration" : 298,
                    "mediaStart" : 3612,
                    "mediaDuration" : 298,
                    "scalar" : 1,
                    "metadata" : {
                      "AutoAppliedSmartFocus" : "False",
                      "clipSpeedAttribute" : false,
                      "default-scale0" : 2.36725747880552,
                      "default-scale1" : 2.36725989756578,
                      "default-translation0" : -231.992336180349,
                      "default-translation1" : 746.288081293927
                    },
                    "animationTracks" : {
                      "visual" : [
                        {
                          "endTime" : 277,
                          "duration" : 30,
                          "range" : [ 247, 30]
                        },
                        {
                          "endTime" : 392,
                          "duration" : 30,
                          "range" : [ 362, 30]
                        },
                        {
                          "endTime" : 706,
                          "duration" : 30,
                          "range" : [ 676, 30]
                        },
                        {
                          "endTime" : 2366,
                          "duration" : 30,
                          "range" : [ 2336, 30]
                        },
                        {
                          "endTime" : 2701,
                          "duration" : 30,
                          "range" : [ 2671, 30]
                        },
                        {
                          "endTime" : 3445,
                          "duration" : 32,
                          "range" : [ 3413, 32]
                        },
                        {
                          "endTime" : 3664,
                          "duration" : 30,
                          "range" : [ 3634, 30]
                        }
                      ]
                    }
                  },
                  {
                    "id" : 92,
                    "_type" : "StitchedMedia",
                    "minMediaStart" : 0,
                    "attributes" : {
                      "ident" : "handle_hijacking_attack",
                      "gain" : 1.0,
                      "mixToMono" : false
                    },
                    "parameters" : {
                      "translation0" : {
                        "type" : "double",
                        "defaultValue" : -231.99233618035,
                        "keyframes" : [
                          {
                            "endTime" : 277,
                            "time" : 247,
                            "value" : 5209.97095399596,
                            "duration" : 30
                          },
                          {
                            "endTime" : 392,
                            "time" : 362,
                            "value" : -231.99233618035,
                            "duration" : 30
                          },
                          {
                            "endTime" : 706,
                            "time" : 676,
                            "value" : 292.866821497976,
                            "duration" : 30
                          },
                          {
                            "endTime" : 2366,
                            "time" : 2336,
                            "value" : -231.99233618035,
                            "duration" : 30
                          },
                          {
                            "endTime" : 2701,
                            "time" : 2671,
                            "value" : -832.942864188449,
                            "duration" : 30
                          },
                          {
                            "endTime" : 3445,
                            "time" : 3413,
                            "value" : -231.992336180349,
                            "duration" : 32
                          }
                        ]
                      },
                      "translation1" : {
                        "type" : "double",
                        "defaultValue" : 746.288081293927,
                        "keyframes" : [
                          {
                            "endTime" : 277,
                            "time" : 247,
                            "value" : -1583.9743665096,
                            "duration" : 30
                          },
                          {
                            "endTime" : 392,
                            "time" : 362,
                            "value" : 746.288081293927,
                            "duration" : 30
                          },
                          {
                            "endTime" : 706,
                            "time" : 676,
                            "value" : 545.690987280186,
                            "duration" : 30
                          },
                          {
                            "endTime" : 2366,
                            "time" : 2336,
                            "value" : 746.288081293927,
                            "duration" : 30
                          },
                          {
                            "endTime" : 2701,
                            "time" : 2671,
                            "value" : 1084.32256080455,
                            "duration" : 30
                          },
                          {
                            "endTime" : 3445,
                            "time" : 3413,
                            "value" : 746.288081293927,
                            "duration" : 32
                          }
                        ]
                      },
                      "scale0" : {
                        "type" : "double",
                        "defaultValue" : 2.3672588418811,
                        "keyframes" : [
                          {
                            "endTime" : 277,
                            "time" : 247,
                            "value" : 13.0971610297475,
                            "duration" : 30
                          },
                          {
                            "endTime" : 392,
                            "time" : 362,
                            "value" : 2.3672587226601,
                            "duration" : 30
                          },
                          {
                            "endTime" : 706,
                            "time" : 676,
                            "value" : 3.76876945684978,
                            "duration" : 30
                          },
                          {
                            "endTime" : 2366,
                            "time" : 2336,
                            "value" : 2.36725854696626,
                            "duration" : 30
                          },
                          {
                            "endTime" : 2701,
                            "time" : 2671,
                            "value" : 3.64589273092086,
                            "duration" : 30
                          },
                          {
                            "endTime" : 3445,
                            "time" : 3413,
                            "value" : 2.36725747880552,
                            "duration" : 32
                          }
                        ]
                      },
                      "scale1" : {
                        "type" : "double",
                        "defaultValue" : 2.36725989756578,
                        "keyframes" : [
                          {
                            "endTime" : 277,
                            "time" : 247,
                            "value" : 13.0971675300631,
                            "duration" : 30
                          },
                          {
                            "endTime" : 392,
                            "time" : 362,
                            "value" : 2.36725989756578,
                            "duration" : 30
                          },
                          {
                            "endTime" : 706,
                            "time" : 676,
                            "value" : 3.76877160705775,
                            "duration" : 30
                          },
                          {
                            "endTime" : 2366,
                            "time" : 2336,
                            "value" : 2.36725989756578,
                            "duration" : 30
                          },
                          {
                            "endTime" : 2701,
                            "time" : 2671,
                            "value" : 3.64589645613476,
                            "duration" : 30
                          },
                          {
                            "endTime" : 3445,
                            "time" : 3413,
                            "value" : 2.36725989756578,
                            "duration" : 32
                          }
                        ]
                      },
                      "cursorOpacity" : 1.0,
                      "cursorScale" : 1.0
                    },
                    "medias" : [
                        {
                          "id" : 93,
                          "_type" : "ScreenVMFile",
                          "src" : 2,
                          "trackNumber" : 0,
                          "attributes" : {
                            "ident" : "handle_hijacking_attack"
                          },
                          "parameters" : {
                            "cursorScale" : {
                              "type" : "double",
                              "defaultValue" : 0.0,
                              "interp" : "linr"
                            },
                            "cursorOpacity" : {
                              "type" : "double",
                              "defaultValue" : 0.0,
                              "interp" : "linr"
                            }
                          },
                          "effects" : [

                          ],
                          "start" : 0,
                          "duration" : 3008,
                          "mediaStart" : 0,
                          "mediaDuration" : 3008,
                          "scalar" : 1,
                          "metadata" : {
                            "AutoAppliedSmartFocus" : "False",
                            "clipSpeedAttribute" : false,
                            "default-scale0" : 1.0,
                            "default-scale1" : 1.0,
                            "default-translation0" : 0.0,
                            "default-translation1" : 0.0
                          },
                          "animationTracks" : {

                          }
                        },
                        {
                          "id" : 94,
                          "_type" : "ScreenIMFile",
                          "src" : 2,
                          "trackNumber" : 0,
                          "trimStartSum" : 0,
                          "attributes" : {
                            "ident" : "handle_hijacking_attack"
                          },
                          "parameters" : {
                            "cursorOpacity" : 0.0,
                            "cursorScale" : 0.0
                          },
                          "effects" : [

                          ],
                          "start" : 3008,
                          "duration" : 90,
                          "mediaStart" : 3007,
                          "mediaDuration" : 1,
                          "scalar" : 1,
                          "metadata" : {
                            "AutoAppliedSmartFocus" : "False"
                          },
                          "animationTracks" : {

                          }
                        },
                        {
                          "id" : 95,
                          "_type" : "ScreenVMFile",
                          "src" : 2,
                          "trackNumber" : 0,
                          "attributes" : {
                            "ident" : "handle_hijacking_attack"
                          },
                          "parameters" : {
                            "cursorScale" : {
                              "type" : "double",
                              "defaultValue" : 0.0,
                              "interp" : "linr"
                            },
                            "cursorOpacity" : {
                              "type" : "double",
                              "defaultValue" : 0.0,
                              "interp" : "linr"
                            }
                          },
                          "effects" : [

                          ],
                          "start" : 3098,
                          "duration" : 721,
                          "mediaStart" : 3008,
                          "mediaDuration" : 721,
                          "scalar" : 1,
                          "metadata" : {
                            "AutoAppliedSmartFocus" : "False",
                            "clipSpeedAttribute" : false,
                            "default-scale0" : 1.0,
                            "default-scale1" : 1.0,
                            "default-translation0" : 0.0,
                            "default-translation1" : 0.0
                          },
                          "animationTracks" : {

                          }
                        },
                        {
                          "id" : 96,
                          "_type" : "ScreenIMFile",
                          "src" : 2,
                          "trackNumber" : 0,
                          "trimStartSum" : 0,
                          "attributes" : {
                            "ident" : "handle_hijacking_attack"
                          },
                          "parameters" : {
                            "cursorOpacity" : 0.0,
                            "cursorScale" : 0.0
                          },
                          "effects" : [

                          ],
                          "start" : 3819,
                          "duration" : 30,
                          "mediaStart" : 3729,
                          "mediaDuration" : 1,
                          "scalar" : 1,
                          "metadata" : {
                            "AutoAppliedSmartFocus" : "False"
                          },
                          "animationTracks" : {

                          }
                        },
                        {
                          "id" : 97,
                          "_type" : "ScreenVMFile",
                          "src" : 2,
                          "trackNumber" : 0,
                          "attributes" : {
                            "ident" : "handle_hijacking_attack"
                          },
                          "parameters" : {
                            "cursorScale" : {
                              "type" : "double",
                              "defaultValue" : 0.0,
                              "interp" : "linr"
                            },
                            "cursorOpacity" : {
                              "type" : "double",
                              "defaultValue" : 0.0,
                              "interp" : "linr"
                            }
                          },
                          "effects" : [

                          ],
                          "start" : 3849,
                          "duration" : 223,
                          "mediaStart" : 3729,
                          "mediaDuration" : 223,
                          "scalar" : 1,
                          "metadata" : {
                            "AutoAppliedSmartFocus" : "False",
                            "clipSpeedAttribute" : false,
                            "default-scale0" : 1.0,
                            "default-scale1" : 1.0,
                            "default-translation0" : 0.0,
                            "default-translation1" : 0.0
                          },
                          "animationTracks" : {

                          }
                        },
                        {
                          "id" : 98,
                          "_type" : "ScreenIMFile",
                          "src" : 2,
                          "trackNumber" : 0,
                          "trimStartSum" : 0,
                          "attributes" : {
                            "ident" : "handle_hijacking_attack"
                          },
                          "parameters" : {
                            "cursorOpacity" : 0.0,
                            "cursorScale" : 0.0
                          },
                          "effects" : [

                          ],
                          "start" : 4072,
                          "duration" : 141,
                          "mediaStart" : 3952,
                          "mediaDuration" : 1,
                          "scalar" : 1,
                          "metadata" : {
                            "AutoAppliedSmartFocus" : "False"
                          },
                          "animationTracks" : {

                          }
                        },
                        {
                          "id" : 99,
                          "_type" : "ScreenVMFile",
                          "src" : 2,
                          "trackNumber" : 0,
                          "attributes" : {
                            "ident" : "handle_hijacking_attack"
                          },
                          "parameters" : {
                            "cursorScale" : {
                              "type" : "double",
                              "defaultValue" : 0.0,
                              "interp" : "linr"
                            },
                            "cursorOpacity" : {
                              "type" : "double",
                              "defaultValue" : 0.0,
                              "interp" : "linr"
                            }
                          },
                          "effects" : [

                          ],
                          "start" : 4213,
                          "duration" : 1233089,
                          "mediaStart" : 3952,
                          "mediaDuration" : 1233089,
                          "scalar" : 1,
                          "metadata" : {
                            "AutoAppliedSmartFocus" : "False",
                            "clipSpeedAttribute" : false,
                            "default-scale0" : 1.0,
                            "default-scale1" : 1.0,
                            "default-translation0" : 0.0,
                            "default-translation1" : 0.0
                          },
                          "animationTracks" : {

                          }
                        }
                    ],
                    "effects" : [
                        {
                          "effectName" : "CursorHilight",
                          "category" : "categoryCursorEffects",
                          "parameters" : {
                            "blur" : 0.1,
                            "color-alpha" : 0.75,
                            "color-blue" : 0.0,
                            "color-green" : 1.0,
                            "color-red" : 1.0,
                            "radius" : 50.0
                          }
                        }
                    ],
                    "start" : 2299,
                    "duration" : 365,
                    "mediaStart" : 3849,
                    "mediaDuration" : 365,
                    "scalar" : 1,
                    "metadata" : {
                      "AutoAppliedSmartFocus" : "False",
                      "clipSpeedAttribute" : false,
                      "default-translation0" : -231.992336180349,
                      "default-translation1" : 746.288081293927
                    },
                    "animationTracks" : {
                      "visual" : [
                        {
                          "endTime" : 277,
                          "duration" : 30,
                          "range" : [ 247, 30]
                        },
                        {
                          "endTime" : 392,
                          "duration" : 30,
                          "range" : [ 362, 30]
                        },
                        {
                          "endTime" : 706,
                          "duration" : 30,
                          "range" : [ 676, 30]
                        },
                        {
                          "endTime" : 2366,
                          "duration" : 30,
                          "range" : [ 2336, 30]
                        },
                        {
                          "endTime" : 2701,
                          "duration" : 30,
                          "range" : [ 2671, 30]
                        },
                        {
                          "endTime" : 3445,
                          "duration" : 32,
                          "range" : [ 3413, 32]
                        }
                      ]
                    }
                  },
                  {
                    "id" : 100,
                    "_type" : "StitchedMedia",
                    "minMediaStart" : 0,
                    "attributes" : {
                      "ident" : "handle_hijacking_attack",
                      "gain" : 1.0,
                      "mixToMono" : false
                    },
                    "parameters" : {
                      "translation0" : {
                        "type" : "double",
                        "defaultValue" : 664.501116350102,
                        "keyframes" : [
                          {
                            "endTime" : 277,
                            "time" : 247,
                            "value" : 6106.46440652641,
                            "duration" : 30
                          },
                          {
                            "endTime" : 392,
                            "time" : 362,
                            "value" : 664.501116350101,
                            "duration" : 30
                          },
                          {
                            "endTime" : 706,
                            "time" : 676,
                            "value" : 1189.36027402843,
                            "duration" : 30
                          },
                          {
                            "endTime" : 2366,
                            "time" : 2336,
                            "value" : 664.501116350102,
                            "duration" : 30
                          },
                          {
                            "endTime" : 2701,
                            "time" : 2671,
                            "value" : 63.5505883420019,
                            "duration" : 30
                          },
                          {
                            "endTime" : 3445,
                            "time" : 3413,
                            "value" : -232.0,
                            "duration" : 32
                          }
                        ]
                      },
                      "translation1" : {
                        "type" : "double",
                        "defaultValue" : -179.103870167644,
                        "keyframes" : [
                          {
                            "endTime" : 277,
                            "time" : 247,
                            "value" : -2509.36631797117,
                            "duration" : 30
                          },
                          {
                            "endTime" : 392,
                            "time" : 362,
                            "value" : -179.103870167644,
                            "duration" : 30
                          },
                          {
                            "endTime" : 706,
                            "time" : 676,
                            "value" : -379.700964181385,
                            "duration" : 30
                          },
                          {
                            "endTime" : 2366,
                            "time" : 2336,
                            "value" : -179.103870167644,
                            "duration" : 30
                          },
                          {
                            "endTime" : 2701,
                            "time" : 2671,
                            "value" : 158.930609342983,
                            "duration" : 30
                          },
                          {
                            "endTime" : 3445,
                            "time" : 3413,
                            "value" : 746.3,
                            "duration" : 32
                          }
                        ]
                      },
                      "scale0" : {
                        "type" : "double",
                        "defaultValue" : 1.70300350108586,
                        "keyframes" : [
                          {
                            "endTime" : 277,
                            "time" : 247,
                            "value" : 9.42208375921468,
                            "duration" : 30
                          },
                          {
                            "endTime" : 392,
                            "time" : 362,
                            "value" : 1.7030034153184,
                            "duration" : 30
                          },
                          {
                            "endTime" : 706,
                            "time" : 676,
                            "value" : 2.71124875161539,
                            "duration" : 30
                          },
                          {
                            "endTime" : 2366,
                            "time" : 2336,
                            "value" : 1.70300328892444,
                            "duration" : 30
                          },
                          {
                            "endTime" : 2701,
                            "time" : 2671,
                            "value" : 2.6228513652558,
                            "duration" : 30
                          },
                          {
                            "endTime" : 3445,
                            "time" : 3413,
                            "value" : 2.36699743879301,
                            "duration" : 32
                          }
                        ]
                      },
                      "scale1" : {
                        "type" : "double",
                        "defaultValue" : 1.70300436322275,
                        "keyframes" : [
                          {
                            "endTime" : 277,
                            "time" : 247,
                            "value" : 9.4220890036165,
                            "duration" : 30
                          },
                          {
                            "endTime" : 392,
                            "time" : 362,
                            "value" : 1.70300436322275,
                            "duration" : 30
                          },
                          {
                            "endTime" : 706,
                            "time" : 676,
                            "value" : 2.71125046194089,
                            "duration" : 30
                          },
                          {
                            "endTime" : 2366,
                            "time" : 2336,
                            "value" : 1.70300436322275,
                            "duration" : 30
                          },
                          {
                            "endTime" : 2701,
                            "time" : 2671,
                            "value" : 2.62285420330926,
                            "duration" : 30
                          },
                          {
                            "endTime" : 3445,
                            "time" : 3413,
                            "value" : 2.367,
                            "duration" : 32
                          }
                        ]
                      },
                      "cursorOpacity" : 1.0,
                      "cursorScale" : 1.0
                    },
                    "medias" : [
                        {
                          "id" : 101,
                          "_type" : "ScreenVMFile",
                          "src" : 2,
                          "trackNumber" : 0,
                          "attributes" : {
                            "ident" : "handle_hijacking_attack"
                          },
                          "parameters" : {
                            "cursorScale" : {
                              "type" : "double",
                              "defaultValue" : 0.0,
                              "interp" : "linr"
                            },
                            "cursorOpacity" : {
                              "type" : "double",
                              "defaultValue" : 0.0,
                              "interp" : "linr"
                            }
                          },
                          "effects" : [

                          ],
                          "start" : 0,
                          "duration" : 3008,
                          "mediaStart" : 0,
                          "mediaDuration" : 3008,
                          "scalar" : 1,
                          "metadata" : {
                            "AutoAppliedSmartFocus" : "False",
                            "clipSpeedAttribute" : false,
                            "default-scale0" : 1.0,
                            "default-scale1" : 1.0,
                            "default-translation0" : 0.0,
                            "default-translation1" : 0.0
                          },
                          "animationTracks" : {

                          }
                        },
                        {
                          "id" : 102,
                          "_type" : "ScreenIMFile",
                          "src" : 2,
                          "trackNumber" : 0,
                          "trimStartSum" : 0,
                          "attributes" : {
                            "ident" : "handle_hijacking_attack"
                          },
                          "parameters" : {
                            "cursorOpacity" : 0.0,
                            "cursorScale" : 0.0
                          },
                          "effects" : [

                          ],
                          "start" : 3008,
                          "duration" : 90,
                          "mediaStart" : 3007,
                          "mediaDuration" : 1,
                          "scalar" : 1,
                          "metadata" : {
                            "AutoAppliedSmartFocus" : "False"
                          },
                          "animationTracks" : {

                          }
                        },
                        {
                          "id" : 103,
                          "_type" : "ScreenVMFile",
                          "src" : 2,
                          "trackNumber" : 0,
                          "attributes" : {
                            "ident" : "handle_hijacking_attack"
                          },
                          "parameters" : {
                            "cursorScale" : {
                              "type" : "double",
                              "defaultValue" : 0.0,
                              "interp" : "linr"
                            },
                            "cursorOpacity" : {
                              "type" : "double",
                              "defaultValue" : 0.0,
                              "interp" : "linr"
                            }
                          },
                          "effects" : [

                          ],
                          "start" : 3098,
                          "duration" : 721,
                          "mediaStart" : 3008,
                          "mediaDuration" : 721,
                          "scalar" : 1,
                          "metadata" : {
                            "AutoAppliedSmartFocus" : "False",
                            "clipSpeedAttribute" : false,
                            "default-scale0" : 1.0,
                            "default-scale1" : 1.0,
                            "default-translation0" : 0.0,
                            "default-translation1" : 0.0
                          },
                          "animationTracks" : {

                          }
                        },
                        {
                          "id" : 104,
                          "_type" : "ScreenIMFile",
                          "src" : 2,
                          "trackNumber" : 0,
                          "trimStartSum" : 0,
                          "attributes" : {
                            "ident" : "handle_hijacking_attack"
                          },
                          "parameters" : {
                            "cursorOpacity" : 0.0,
                            "cursorScale" : 0.0
                          },
                          "effects" : [

                          ],
                          "start" : 3819,
                          "duration" : 30,
                          "mediaStart" : 3729,
                          "mediaDuration" : 1,
                          "scalar" : 1,
                          "metadata" : {
                            "AutoAppliedSmartFocus" : "False"
                          },
                          "animationTracks" : {

                          }
                        },
                        {
                          "id" : 105,
                          "_type" : "ScreenVMFile",
                          "src" : 2,
                          "trackNumber" : 0,
                          "attributes" : {
                            "ident" : "handle_hijacking_attack"
                          },
                          "parameters" : {
                            "cursorScale" : {
                              "type" : "double",
                              "defaultValue" : 0.0,
                              "interp" : "linr"
                            },
                            "cursorOpacity" : {
                              "type" : "double",
                              "defaultValue" : 0.0,
                              "interp" : "linr"
                            }
                          },
                          "effects" : [

                          ],
                          "start" : 3849,
                          "duration" : 1233312,
                          "mediaStart" : 3729,
                          "mediaDuration" : 1233312,
                          "scalar" : 1,
                          "metadata" : {
                            "AutoAppliedSmartFocus" : "False",
                            "clipSpeedAttribute" : false,
                            "default-scale0" : 1.0,
                            "default-scale1" : 1.0,
                            "default-translation0" : 0.0,
                            "default-translation1" : 0.0
                          },
                          "animationTracks" : {

                          }
                        }
                    ],
                    "effects" : [
                        {
                          "effectName" : "CursorHilight",
                          "category" : "categoryCursorEffects",
                          "parameters" : {
                            "blur" : 0.1,
                            "color-alpha" : 0.75,
                            "color-blue" : 0.0,
                            "color-green" : 1.0,
                            "color-red" : 1.0,
                            "radius" : 50.0
                          }
                        }
                    ],
                    "start" : 2664,
                    "duration" : 79,
                    "mediaStart" : 4068,
                    "mediaDuration" : 427,
                    "scalar" : "79/427",
                    "metadata" : {
                      "AutoAppliedSmartFocus" : "False",
                      "clipSpeedAttribute" : true,
                      "default-scale0" : 1.70300252049073,
                      "default-scale1" : 1.70300436322275,
                      "default-translation0" : 664.501116350102,
                      "default-translation1" : -179.103870167644
                    },
                    "animationTracks" : {
                      "visual" : [
                        {
                          "endTime" : 277,
                          "duration" : 30,
                          "range" : [ 247, 30]
                        },
                        {
                          "endTime" : 392,
                          "duration" : 30,
                          "range" : [ 362, 30]
                        },
                        {
                          "endTime" : 706,
                          "duration" : 30,
                          "range" : [ 676, 30]
                        },
                        {
                          "endTime" : 2366,
                          "duration" : 30,
                          "range" : [ 2336, 30]
                        },
                        {
                          "endTime" : 2701,
                          "duration" : 30,
                          "range" : [ 2671, 30]
                        },
                        {
                          "endTime" : 3445,
                          "duration" : 32,
                          "range" : [ 3413, 32]
                        }
                      ]
                    }
                  },
                  {
                    "id" : 106,
                    "_type" : "StitchedMedia",
                    "minMediaStart" : 0,
                    "attributes" : {
                      "ident" : "handle_hijacking_attack",
                      "gain" : 1.0,
                      "mixToMono" : false
                    },
                    "parameters" : {
                      "translation0" : {
                        "type" : "double",
                        "defaultValue" : 664.501116350102,
                        "keyframes" : [
                          {
                            "endTime" : 277,
                            "time" : 247,
                            "value" : 6106.46440652641,
                            "duration" : 30
                          },
                          {
                            "endTime" : 392,
                            "time" : 362,
                            "value" : 664.501116350101,
                            "duration" : 30
                          },
                          {
                            "endTime" : 706,
                            "time" : 676,
                            "value" : 1189.36027402843,
                            "duration" : 30
                          },
                          {
                            "endTime" : 2366,
                            "time" : 2336,
                            "value" : 664.501116350102,
                            "duration" : 30
                          },
                          {
                            "endTime" : 2701,
                            "time" : 2671,
                            "value" : 63.5505883420019,
                            "duration" : 30
                          },
                          {
                            "endTime" : 3445,
                            "time" : 3413,
                            "value" : -232.0,
                            "duration" : 32
                          }
                        ]
                      },
                      "translation1" : {
                        "type" : "double",
                        "defaultValue" : -179.103870167644,
                        "keyframes" : [
                          {
                            "endTime" : 277,
                            "time" : 247,
                            "value" : -2509.36631797117,
                            "duration" : 30
                          },
                          {
                            "endTime" : 392,
                            "time" : 362,
                            "value" : -179.103870167644,
                            "duration" : 30
                          },
                          {
                            "endTime" : 706,
                            "time" : 676,
                            "value" : -379.700964181385,
                            "duration" : 30
                          },
                          {
                            "endTime" : 2366,
                            "time" : 2336,
                            "value" : -179.103870167644,
                            "duration" : 30
                          },
                          {
                            "endTime" : 2701,
                            "time" : 2671,
                            "value" : 158.930609342983,
                            "duration" : 30
                          },
                          {
                            "endTime" : 3445,
                            "time" : 3413,
                            "value" : 746.3,
                            "duration" : 32
                          }
                        ]
                      },
                      "scale0" : {
                        "type" : "double",
                        "defaultValue" : 1.70300350108586,
                        "keyframes" : [
                          {
                            "endTime" : 277,
                            "time" : 247,
                            "value" : 9.42208375921468,
                            "duration" : 30
                          },
                          {
                            "endTime" : 392,
                            "time" : 362,
                            "value" : 1.7030034153184,
                            "duration" : 30
                          },
                          {
                            "endTime" : 706,
                            "time" : 676,
                            "value" : 2.71124875161539,
                            "duration" : 30
                          },
                          {
                            "endTime" : 2366,
                            "time" : 2336,
                            "value" : 1.70300328892444,
                            "duration" : 30
                          },
                          {
                            "endTime" : 2701,
                            "time" : 2671,
                            "value" : 2.6228513652558,
                            "duration" : 30
                          },
                          {
                            "endTime" : 3445,
                            "time" : 3413,
                            "value" : 2.36699743879301,
                            "duration" : 32
                          }
                        ]
                      },
                      "scale1" : {
                        "type" : "double",
                        "defaultValue" : 1.70300436322275,
                        "keyframes" : [
                          {
                            "endTime" : 277,
                            "time" : 247,
                            "value" : 9.4220890036165,
                            "duration" : 30
                          },
                          {
                            "endTime" : 392,
                            "time" : 362,
                            "value" : 1.70300436322275,
                            "duration" : 30
                          },
                          {
                            "endTime" : 706,
                            "time" : 676,
                            "value" : 2.71125046194089,
                            "duration" : 30
                          },
                          {
                            "endTime" : 2366,
                            "time" : 2336,
                            "value" : 1.70300436322275,
                            "duration" : 30
                          },
                          {
                            "endTime" : 2701,
                            "time" : 2671,
                            "value" : 2.62285420330926,
                            "duration" : 30
                          },
                          {
                            "endTime" : 3445,
                            "time" : 3413,
                            "value" : 2.367,
                            "duration" : 32
                          }
                        ]
                      },
                      "cursorOpacity" : 1.0,
                      "cursorScale" : 1.0
                    },
                    "medias" : [
                        {
                          "id" : 107,
                          "_type" : "ScreenVMFile",
                          "src" : 2,
                          "trackNumber" : 0,
                          "attributes" : {
                            "ident" : "handle_hijacking_attack"
                          },
                          "parameters" : {
                            "cursorScale" : {
                              "type" : "double",
                              "defaultValue" : 0.0,
                              "interp" : "linr"
                            },
                            "cursorOpacity" : {
                              "type" : "double",
                              "defaultValue" : 0.0,
                              "interp" : "linr"
                            }
                          },
                          "effects" : [

                          ],
                          "start" : 0,
                          "duration" : 3008,
                          "mediaStart" : 0,
                          "mediaDuration" : 3008,
                          "scalar" : 1,
                          "metadata" : {
                            "AutoAppliedSmartFocus" : "False",
                            "clipSpeedAttribute" : false,
                            "default-scale0" : 1.0,
                            "default-scale1" : 1.0,
                            "default-translation0" : 0.0,
                            "default-translation1" : 0.0
                          },
                          "animationTracks" : {

                          }
                        },
                        {
                          "id" : 108,
                          "_type" : "ScreenIMFile",
                          "src" : 2,
                          "trackNumber" : 0,
                          "trimStartSum" : 0,
                          "attributes" : {
                            "ident" : "handle_hijacking_attack"
                          },
                          "parameters" : {
                            "cursorOpacity" : 0.0,
                            "cursorScale" : 0.0
                          },
                          "effects" : [

                          ],
                          "start" : 3008,
                          "duration" : 90,
                          "mediaStart" : 3007,
                          "mediaDuration" : 1,
                          "scalar" : 1,
                          "metadata" : {
                            "AutoAppliedSmartFocus" : "False"
                          },
                          "animationTracks" : {

                          }
                        },
                        {
                          "id" : 109,
                          "_type" : "ScreenVMFile",
                          "src" : 2,
                          "trackNumber" : 0,
                          "attributes" : {
                            "ident" : "handle_hijacking_attack"
                          },
                          "parameters" : {
                            "cursorScale" : {
                              "type" : "double",
                              "defaultValue" : 0.0,
                              "interp" : "linr"
                            },
                            "cursorOpacity" : {
                              "type" : "double",
                              "defaultValue" : 0.0,
                              "interp" : "linr"
                            }
                          },
                          "effects" : [

                          ],
                          "start" : 3098,
                          "duration" : 721,
                          "mediaStart" : 3008,
                          "mediaDuration" : 721,
                          "scalar" : 1,
                          "metadata" : {
                            "AutoAppliedSmartFocus" : "False",
                            "clipSpeedAttribute" : false,
                            "default-scale0" : 1.0,
                            "default-scale1" : 1.0,
                            "default-translation0" : 0.0,
                            "default-translation1" : 0.0
                          },
                          "animationTracks" : {

                          }
                        },
                        {
                          "id" : 110,
                          "_type" : "ScreenIMFile",
                          "src" : 2,
                          "trackNumber" : 0,
                          "trimStartSum" : 0,
                          "attributes" : {
                            "ident" : "handle_hijacking_attack"
                          },
                          "parameters" : {
                            "cursorOpacity" : 0.0,
                            "cursorScale" : 0.0
                          },
                          "effects" : [

                          ],
                          "start" : 3819,
                          "duration" : 30,
                          "mediaStart" : 3729,
                          "mediaDuration" : 1,
                          "scalar" : 1,
                          "metadata" : {
                            "AutoAppliedSmartFocus" : "False"
                          },
                          "animationTracks" : {

                          }
                        },
                        {
                          "id" : 111,
                          "_type" : "ScreenVMFile",
                          "src" : 2,
                          "trackNumber" : 0,
                          "attributes" : {
                            "ident" : "handle_hijacking_attack"
                          },
                          "parameters" : {
                            "cursorScale" : {
                              "type" : "double",
                              "defaultValue" : 0.0,
                              "interp" : "linr"
                            },
                            "cursorOpacity" : {
                              "type" : "double",
                              "defaultValue" : 0.0,
                              "interp" : "linr"
                            }
                          },
                          "effects" : [

                          ],
                          "start" : 3849,
                          "duration" : 1233312,
                          "mediaStart" : 3729,
                          "mediaDuration" : 1233312,
                          "scalar" : 1,
                          "metadata" : {
                            "AutoAppliedSmartFocus" : "False",
                            "clipSpeedAttribute" : false,
                            "default-scale0" : 1.0,
                            "default-scale1" : 1.0,
                            "default-translation0" : 0.0,
                            "default-translation1" : 0.0
                          },
                          "animationTracks" : {

                          }
                        }
                    ],
                    "effects" : [
                        {
                          "effectName" : "CursorHilight",
                          "category" : "categoryCursorEffects",
                          "parameters" : {
                            "blur" : 0.1,
                            "color-alpha" : 0.75,
                            "color-blue" : 0.0,
                            "color-green" : 1.0,
                            "color-red" : 1.0,
                            "radius" : 50.0
                          }
                        }
                    ],
                    "start" : 2743,
                    "duration" : 60,
                    "mediaStart" : 4495,
                    "mediaDuration" : 60,
                    "scalar" : 1,
                    "metadata" : {
                      "AutoAppliedSmartFocus" : "False",
                      "clipSpeedAttribute" : false,
                      "default-scale0" : 1.70300252049073,
                      "default-scale1" : 1.70300436322275,
                      "default-translation0" : 664.501116350102,
                      "default-translation1" : -179.103870167644
                    },
                    "animationTracks" : {
                      "visual" : [
                        {
                          "endTime" : 277,
                          "duration" : 30,
                          "range" : [ 247, 30]
                        },
                        {
                          "endTime" : 392,
                          "duration" : 30,
                          "range" : [ 362, 30]
                        },
                        {
                          "endTime" : 706,
                          "duration" : 30,
                          "range" : [ 676, 30]
                        },
                        {
                          "endTime" : 2366,
                          "duration" : 30,
                          "range" : [ 2336, 30]
                        },
                        {
                          "endTime" : 2701,
                          "duration" : 30,
                          "range" : [ 2671, 30]
                        },
                        {
                          "endTime" : 3445,
                          "duration" : 32,
                          "range" : [ 3413, 32]
                        }
                      ]
                    }
                  },
                  {
                    "id" : 112,
                    "_type" : "StitchedMedia",
                    "minMediaStart" : 0,
                    "attributes" : {
                      "ident" : "handle_hijacking_attack",
                      "gain" : 1.0,
                      "mixToMono" : false
                    },
                    "parameters" : {
                      "translation0" : {
                        "type" : "double",
                        "defaultValue" : 664.501116350102,
                        "keyframes" : [
                          {
                            "endTime" : 277,
                            "time" : 247,
                            "value" : 6106.46440652641,
                            "duration" : 30
                          },
                          {
                            "endTime" : 392,
                            "time" : 362,
                            "value" : 664.501116350101,
                            "duration" : 30
                          },
                          {
                            "endTime" : 706,
                            "time" : 676,
                            "value" : 1189.36027402843,
                            "duration" : 30
                          },
                          {
                            "endTime" : 2366,
                            "time" : 2336,
                            "value" : 664.501116350102,
                            "duration" : 30
                          },
                          {
                            "endTime" : 2701,
                            "time" : 2671,
                            "value" : 63.5505883420019,
                            "duration" : 30
                          },
                          {
                            "endTime" : 3445,
                            "time" : 3413,
                            "value" : -232.2,
                            "duration" : 32
                          },
                          {
                            "endTime" : "32254/7",
                            "time" : 4555,
                            "value" : 4.2632564145606e-14,
                            "duration" : "369/7"
                          },
                          {
                            "endTime" : 4678,
                            "time" : "32377/7",
                            "value" : 664.5,
                            "duration" : "369/7"
                          }
                        ]
                      },
                      "translation1" : {
                        "type" : "double",
                        "defaultValue" : -179.103870167644,
                        "keyframes" : [
                          {
                            "endTime" : 277,
                            "time" : 247,
                            "value" : -2509.36631797117,
                            "duration" : 30
                          },
                          {
                            "endTime" : 392,
                            "time" : 362,
                            "value" : -179.103870167644,
                            "duration" : 30
                          },
                          {
                            "endTime" : 706,
                            "time" : 676,
                            "value" : -379.700964181385,
                            "duration" : 30
                          },
                          {
                            "endTime" : 2366,
                            "time" : 2336,
                            "value" : -179.103870167644,
                            "duration" : 30
                          },
                          {
                            "endTime" : 2701,
                            "time" : 2671,
                            "value" : 158.930609342983,
                            "duration" : 30
                          },
                          {
                            "endTime" : 3445,
                            "time" : 3413,
                            "value" : 746.0,
                            "duration" : 32
                          },
                          {
                            "endTime" : "32254/7",
                            "time" : 4555,
                            "value" : 0.0,
                            "duration" : "369/7"
                          },
                          {
                            "endTime" : 4678,
                            "time" : "32377/7",
                            "value" : -179.1,
                            "duration" : "369/7"
                          }
                        ]
                      },
                      "scale0" : {
                        "type" : "double",
                        "defaultValue" : 1.70300350108586,
                        "keyframes" : [
                          {
                            "endTime" : 277,
                            "time" : 247,
                            "value" : 9.42208375921468,
                            "duration" : 30
                          },
                          {
                            "endTime" : 392,
                            "time" : 362,
                            "value" : 1.7030034153184,
                            "duration" : 30
                          },
                          {
                            "endTime" : 706,
                            "time" : 676,
                            "value" : 2.71124875161539,
                            "duration" : 30
                          },
                          {
                            "endTime" : 2366,
                            "time" : 2336,
                            "value" : 1.70300328892444,
                            "duration" : 30
                          },
                          {
                            "endTime" : 2701,
                            "time" : 2671,
                            "value" : 2.6228513652558,
                            "duration" : 30
                          },
                          {
                            "endTime" : 3445,
                            "time" : 3413,
                            "value" : 2.36699743879301,
                            "duration" : 32
                          },
                          {
                            "endTime" : "32254/7",
                            "time" : 4555,
                            "value" : 0.999998917952264,
                            "duration" : "369/7"
                          },
                          {
                            "endTime" : 4678,
                            "time" : "32377/7",
                            "value" : 1.70299804233601,
                            "duration" : "369/7"
                          }
                        ]
                      },
                      "scale1" : {
                        "type" : "double",
                        "defaultValue" : 1.70300436322275,
                        "keyframes" : [
                          {
                            "endTime" : 277,
                            "time" : 247,
                            "value" : 9.4220890036165,
                            "duration" : 30
                          },
                          {
                            "endTime" : 392,
                            "time" : 362,
                            "value" : 1.70300436322275,
                            "duration" : 30
                          },
                          {
                            "endTime" : 706,
                            "time" : 676,
                            "value" : 2.71125046194089,
                            "duration" : 30
                          },
                          {
                            "endTime" : 2366,
                            "time" : 2336,
                            "value" : 1.70300436322275,
                            "duration" : 30
                          },
                          {
                            "endTime" : 2701,
                            "time" : 2671,
                            "value" : 2.62285420330926,
                            "duration" : 30
                          },
                          {
                            "endTime" : 3445,
                            "time" : 3413,
                            "value" : 2.367,
                            "duration" : 32
                          },
                          {
                            "endTime" : "32254/7",
                            "time" : 4555,
                            "value" : 1.0,
                            "duration" : "369/7"
                          },
                          {
                            "endTime" : 4678,
                            "time" : "32377/7",
                            "value" : 1.703,
                            "duration" : "369/7"
                          }
                        ]
                      },
                      "cursorOpacity" : 1.0,
                      "cursorScale" : 1.0
                    },
                    "medias" : [
                        {
                          "id" : 113,
                          "_type" : "ScreenVMFile",
                          "src" : 2,
                          "trackNumber" : 0,
                          "attributes" : {
                            "ident" : "handle_hijacking_attack"
                          },
                          "parameters" : {
                            "cursorScale" : {
                              "type" : "double",
                              "defaultValue" : 0.0,
                              "interp" : "linr"
                            },
                            "cursorOpacity" : {
                              "type" : "double",
                              "defaultValue" : 0.0,
                              "interp" : "linr"
                            }
                          },
                          "effects" : [

                          ],
                          "start" : 0,
                          "duration" : 3008,
                          "mediaStart" : 0,
                          "mediaDuration" : 3008,
                          "scalar" : 1,
                          "metadata" : {
                            "AutoAppliedSmartFocus" : "False",
                            "clipSpeedAttribute" : false,
                            "default-scale0" : 1.0,
                            "default-scale1" : 1.0,
                            "default-translation0" : 0.0,
                            "default-translation1" : 0.0
                          },
                          "animationTracks" : {

                          }
                        },
                        {
                          "id" : 114,
                          "_type" : "ScreenIMFile",
                          "src" : 2,
                          "trackNumber" : 0,
                          "trimStartSum" : 0,
                          "attributes" : {
                            "ident" : "handle_hijacking_attack"
                          },
                          "parameters" : {
                            "cursorOpacity" : 0.0,
                            "cursorScale" : 0.0
                          },
                          "effects" : [

                          ],
                          "start" : 3008,
                          "duration" : 90,
                          "mediaStart" : 3007,
                          "mediaDuration" : 1,
                          "scalar" : 1,
                          "metadata" : {
                            "AutoAppliedSmartFocus" : "False"
                          },
                          "animationTracks" : {

                          }
                        },
                        {
                          "id" : 115,
                          "_type" : "ScreenVMFile",
                          "src" : 2,
                          "trackNumber" : 0,
                          "attributes" : {
                            "ident" : "handle_hijacking_attack"
                          },
                          "parameters" : {
                            "cursorScale" : {
                              "type" : "double",
                              "defaultValue" : 0.0,
                              "interp" : "linr"
                            },
                            "cursorOpacity" : {
                              "type" : "double",
                              "defaultValue" : 0.0,
                              "interp" : "linr"
                            }
                          },
                          "effects" : [

                          ],
                          "start" : 3098,
                          "duration" : 721,
                          "mediaStart" : 3008,
                          "mediaDuration" : 721,
                          "scalar" : 1,
                          "metadata" : {
                            "AutoAppliedSmartFocus" : "False",
                            "clipSpeedAttribute" : false,
                            "default-scale0" : 1.0,
                            "default-scale1" : 1.0,
                            "default-translation0" : 0.0,
                            "default-translation1" : 0.0
                          },
                          "animationTracks" : {

                          }
                        },
                        {
                          "id" : 116,
                          "_type" : "ScreenIMFile",
                          "src" : 2,
                          "trackNumber" : 0,
                          "trimStartSum" : 0,
                          "attributes" : {
                            "ident" : "handle_hijacking_attack"
                          },
                          "parameters" : {
                            "cursorOpacity" : 0.0,
                            "cursorScale" : 0.0
                          },
                          "effects" : [

                          ],
                          "start" : 3819,
                          "duration" : 30,
                          "mediaStart" : 3729,
                          "mediaDuration" : 1,
                          "scalar" : 1,
                          "metadata" : {
                            "AutoAppliedSmartFocus" : "False"
                          },
                          "animationTracks" : {

                          }
                        },
                        {
                          "id" : 117,
                          "_type" : "ScreenVMFile",
                          "src" : 2,
                          "trackNumber" : 0,
                          "attributes" : {
                            "ident" : "handle_hijacking_attack"
                          },
                          "parameters" : {
                            "cursorScale" : {
                              "type" : "double",
                              "defaultValue" : 0.0,
                              "interp" : "linr"
                            },
                            "cursorOpacity" : {
                              "type" : "double",
                              "defaultValue" : 0.0,
                              "interp" : "linr"
                            }
                          },
                          "effects" : [

                          ],
                          "start" : 3849,
                          "duration" : 1233312,
                          "mediaStart" : 3729,
                          "mediaDuration" : 1233312,
                          "scalar" : 1,
                          "metadata" : {
                            "AutoAppliedSmartFocus" : "False",
                            "clipSpeedAttribute" : false,
                            "default-scale0" : 1.0,
                            "default-scale1" : 1.0,
                            "default-translation0" : 0.0,
                            "default-translation1" : 0.0
                          },
                          "animationTracks" : {

                          }
                        }
                    ],
                    "effects" : [
                        {
                          "effectName" : "CursorHilight",
                          "category" : "categoryCursorEffects",
                          "parameters" : {
                            "blur" : 0.1,
                            "color-alpha" : 0.75,
                            "color-blue" : 0.0,
                            "color-green" : 1.0,
                            "color-red" : 1.0,
                            "radius" : 50.0
                          }
                        }
                    ],
                    "start" : 2803,
                    "duration" : 70,
                    "mediaStart" : 4555,
                    "mediaDuration" : 123,
                    "scalar" : "70/123",
                    "metadata" : {
                      "AutoAppliedSmartFocus" : "False",
                      "clipSpeedAttribute" : true,
                      "default-scale0" : 1.70300252049073,
                      "default-scale1" : 1.70300436322275,
                      "default-translation0" : 664.501116350102,
                      "default-translation1" : -179.103870167644
                    },
                    "animationTracks" : {
                      "visual" : [
                        {
                          "endTime" : 277,
                          "duration" : 30,
                          "range" : [ 247, 30]
                        },
                        {
                          "endTime" : 392,
                          "duration" : 30,
                          "range" : [ 362, 30]
                        },
                        {
                          "endTime" : 706,
                          "duration" : 30,
                          "range" : [ 676, 30]
                        },
                        {
                          "endTime" : 2366,
                          "duration" : 30,
                          "range" : [ 2336, 30]
                        },
                        {
                          "endTime" : 2701,
                          "duration" : 30,
                          "range" : [ 2671, 30]
                        },
                        {
                          "endTime" : 3445,
                          "duration" : 32,
                          "range" : [ 3413, 32]
                        },
                        {
                          "endTime" : "32254/7",
                          "duration" : "369/7",
                          "range" : [ 4555, "369/7"]
                        },
                        {
                          "endTime" : 4678,
                          "duration" : "369/7",
                          "range" : [ "32377/7", "369/7"]
                        }
                      ]
                    }
                  },
                  {
                    "id" : 118,
                    "_type" : "StitchedMedia",
                    "minMediaStart" : 0,
                    "attributes" : {
                      "ident" : "handle_hijacking_attack",
                      "gain" : 1.0,
                      "mixToMono" : false
                    },
                    "parameters" : {
                      "translation0" : {
                        "type" : "double",
                        "defaultValue" : 664.501116350102,
                        "keyframes" : [
                          {
                            "endTime" : 277,
                            "time" : 247,
                            "value" : 6106.46440652641,
                            "duration" : 30
                          },
                          {
                            "endTime" : 392,
                            "time" : 362,
                            "value" : 664.501116350101,
                            "duration" : 30
                          },
                          {
                            "endTime" : 706,
                            "time" : 676,
                            "value" : 1189.36027402843,
                            "duration" : 30
                          },
                          {
                            "endTime" : 2366,
                            "time" : 2336,
                            "value" : 664.501116350102,
                            "duration" : 30
                          },
                          {
                            "endTime" : 2701,
                            "time" : 2671,
                            "value" : 63.5505883420019,
                            "duration" : 30
                          },
                          {
                            "endTime" : 3445,
                            "time" : 3413,
                            "value" : 664.501116350102,
                            "duration" : 32
                          }
                        ]
                      },
                      "translation1" : {
                        "type" : "double",
                        "defaultValue" : -179.103870167644,
                        "keyframes" : [
                          {
                            "endTime" : 277,
                            "time" : 247,
                            "value" : -2509.36631797117,
                            "duration" : 30
                          },
                          {
                            "endTime" : 392,
                            "time" : 362,
                            "value" : -179.103870167644,
                            "duration" : 30
                          },
                          {
                            "endTime" : 706,
                            "time" : 676,
                            "value" : -379.700964181385,
                            "duration" : 30
                          },
                          {
                            "endTime" : 2366,
                            "time" : 2336,
                            "value" : -179.103870167644,
                            "duration" : 30
                          },
                          {
                            "endTime" : 2701,
                            "time" : 2671,
                            "value" : 158.930609342983,
                            "duration" : 30
                          },
                          {
                            "endTime" : 3445,
                            "time" : 3413,
                            "value" : -179.103870167644,
                            "duration" : 32
                          }
                        ]
                      },
                      "scale0" : {
                        "type" : "double",
                        "defaultValue" : 1.70300350108586,
                        "keyframes" : [
                          {
                            "endTime" : 277,
                            "time" : 247,
                            "value" : 9.42208375921468,
                            "duration" : 30
                          },
                          {
                            "endTime" : 392,
                            "time" : 362,
                            "value" : 1.7030034153184,
                            "duration" : 30
                          },
                          {
                            "endTime" : 706,
                            "time" : 676,
                            "value" : 2.71124875161539,
                            "duration" : 30
                          },
                          {
                            "endTime" : 2366,
                            "time" : 2336,
                            "value" : 1.70300328892444,
                            "duration" : 30
                          },
                          {
                            "endTime" : 2701,
                            "time" : 2671,
                            "value" : 2.6228513652558,
                            "duration" : 30
                          },
                          {
                            "endTime" : 3445,
                            "time" : 3413,
                            "value" : 1.70300252049073,
                            "duration" : 32
                          }
                        ]
                      },
                      "scale1" : {
                        "type" : "double",
                        "defaultValue" : 1.70300436322275,
                        "keyframes" : [
                          {
                            "endTime" : 277,
                            "time" : 247,
                            "value" : 9.4220890036165,
                            "duration" : 30
                          },
                          {
                            "endTime" : 392,
                            "time" : 362,
                            "value" : 1.70300436322275,
                            "duration" : 30
                          },
                          {
                            "endTime" : 706,
                            "time" : 676,
                            "value" : 2.71125046194089,
                            "duration" : 30
                          },
                          {
                            "endTime" : 2366,
                            "time" : 2336,
                            "value" : 1.70300436322275,
                            "duration" : 30
                          },
                          {
                            "endTime" : 2701,
                            "time" : 2671,
                            "value" : 2.62285420330926,
                            "duration" : 30
                          },
                          {
                            "endTime" : 3445,
                            "time" : 3413,
                            "value" : 1.70300436322275,
                            "duration" : 32
                          }
                        ]
                      },
                      "cursorOpacity" : 1.0,
                      "cursorScale" : 1.0
                    },
                    "medias" : [
                        {
                          "id" : 119,
                          "_type" : "ScreenVMFile",
                          "src" : 2,
                          "trackNumber" : 0,
                          "attributes" : {
                            "ident" : "handle_hijacking_attack"
                          },
                          "parameters" : {
                            "cursorScale" : {
                              "type" : "double",
                              "defaultValue" : 0.0,
                              "interp" : "linr"
                            },
                            "cursorOpacity" : {
                              "type" : "double",
                              "defaultValue" : 0.0,
                              "interp" : "linr"
                            }
                          },
                          "effects" : [

                          ],
                          "start" : 0,
                          "duration" : 3008,
                          "mediaStart" : 0,
                          "mediaDuration" : 3008,
                          "scalar" : 1,
                          "metadata" : {
                            "AutoAppliedSmartFocus" : "False",
                            "clipSpeedAttribute" : false,
                            "default-scale0" : 1.0,
                            "default-scale1" : 1.0,
                            "default-translation0" : 0.0,
                            "default-translation1" : 0.0
                          },
                          "animationTracks" : {

                          }
                        },
                        {
                          "id" : 120,
                          "_type" : "ScreenIMFile",
                          "src" : 2,
                          "trackNumber" : 0,
                          "trimStartSum" : 0,
                          "attributes" : {
                            "ident" : "handle_hijacking_attack"
                          },
                          "parameters" : {
                            "cursorOpacity" : 0.0,
                            "cursorScale" : 0.0
                          },
                          "effects" : [

                          ],
                          "start" : 3008,
                          "duration" : 90,
                          "mediaStart" : 3007,
                          "mediaDuration" : 1,
                          "scalar" : 1,
                          "metadata" : {
                            "AutoAppliedSmartFocus" : "False"
                          },
                          "animationTracks" : {

                          }
                        },
                        {
                          "id" : 121,
                          "_type" : "ScreenVMFile",
                          "src" : 2,
                          "trackNumber" : 0,
                          "attributes" : {
                            "ident" : "handle_hijacking_attack"
                          },
                          "parameters" : {
                            "cursorScale" : {
                              "type" : "double",
                              "defaultValue" : 0.0,
                              "interp" : "linr"
                            },
                            "cursorOpacity" : {
                              "type" : "double",
                              "defaultValue" : 0.0,
                              "interp" : "linr"
                            }
                          },
                          "effects" : [

                          ],
                          "start" : 3098,
                          "duration" : 721,
                          "mediaStart" : 3008,
                          "mediaDuration" : 721,
                          "scalar" : 1,
                          "metadata" : {
                            "AutoAppliedSmartFocus" : "False",
                            "clipSpeedAttribute" : false,
                            "default-scale0" : 1.0,
                            "default-scale1" : 1.0,
                            "default-translation0" : 0.0,
                            "default-translation1" : 0.0
                          },
                          "animationTracks" : {

                          }
                        },
                        {
                          "id" : 122,
                          "_type" : "ScreenIMFile",
                          "src" : 2,
                          "trackNumber" : 0,
                          "trimStartSum" : 0,
                          "attributes" : {
                            "ident" : "handle_hijacking_attack"
                          },
                          "parameters" : {
                            "cursorOpacity" : 0.0,
                            "cursorScale" : 0.0
                          },
                          "effects" : [

                          ],
                          "start" : 3819,
                          "duration" : 30,
                          "mediaStart" : 3729,
                          "mediaDuration" : 1,
                          "scalar" : 1,
                          "metadata" : {
                            "AutoAppliedSmartFocus" : "False"
                          },
                          "animationTracks" : {

                          }
                        },
                        {
                          "id" : 123,
                          "_type" : "ScreenVMFile",
                          "src" : 2,
                          "trackNumber" : 0,
                          "attributes" : {
                            "ident" : "handle_hijacking_attack"
                          },
                          "parameters" : {
                            "cursorScale" : {
                              "type" : "double",
                              "defaultValue" : 0.0,
                              "interp" : "linr"
                            },
                            "cursorOpacity" : {
                              "type" : "double",
                              "defaultValue" : 0.0,
                              "interp" : "linr"
                            }
                          },
                          "effects" : [

                          ],
                          "start" : 3849,
                          "duration" : 1059,
                          "mediaStart" : 3729,
                          "mediaDuration" : 1059,
                          "scalar" : 1,
                          "metadata" : {
                            "AutoAppliedSmartFocus" : "False",
                            "clipSpeedAttribute" : false,
                            "default-scale0" : 1.0,
                            "default-scale1" : 1.0,
                            "default-translation0" : 0.0,
                            "default-translation1" : 0.0
                          },
                          "animationTracks" : {

                          }
                        },
                        {
                          "id" : 124,
                          "_type" : "ScreenIMFile",
                          "src" : 2,
                          "trackNumber" : 0,
                          "trimStartSum" : 0,
                          "attributes" : {
                            "ident" : "handle_hijacking_attack"
                          },
                          "parameters" : {
                            "cursorOpacity" : 0.0,
                            "cursorScale" : 0.0
                          },
                          "effects" : [

                          ],
                          "start" : 4908,
                          "duration" : 75,
                          "mediaStart" : 4788,
                          "mediaDuration" : 1,
                          "scalar" : 1,
                          "metadata" : {
                            "AutoAppliedSmartFocus" : "False"
                          },
                          "animationTracks" : {

                          }
                        },
                        {
                          "id" : 125,
                          "_type" : "ScreenVMFile",
                          "src" : 2,
                          "trackNumber" : 0,
                          "attributes" : {
                            "ident" : "handle_hijacking_attack"
                          },
                          "parameters" : {
                            "cursorScale" : {
                              "type" : "double",
                              "defaultValue" : 0.0,
                              "interp" : "linr"
                            },
                            "cursorOpacity" : {
                              "type" : "double",
                              "defaultValue" : 0.0,
                              "interp" : "linr"
                            }
                          },
                          "effects" : [

                          ],
                          "start" : 4983,
                          "duration" : 1232253,
                          "mediaStart" : 4788,
                          "mediaDuration" : 1232253,
                          "scalar" : 1,
                          "metadata" : {
                            "AutoAppliedSmartFocus" : "False",
                            "clipSpeedAttribute" : false,
                            "default-scale0" : 1.0,
                            "default-scale1" : 1.0,
                            "default-translation0" : 0.0,
                            "default-translation1" : 0.0
                          },
                          "animationTracks" : {

                          }
                        }
                    ],
                    "effects" : [
                        {
                          "effectName" : "CursorHilight",
                          "category" : "categoryCursorEffects",
                          "parameters" : {
                            "blur" : 0.1,
                            "color-alpha" : 0.75,
                            "color-blue" : 0.0,
                            "color-green" : 1.0,
                            "color-red" : 1.0,
                            "radius" : 50.0
                          }
                        }
                    ],
                    "start" : 2873,
                    "duration" : 310,
                    "mediaStart" : 4678,
                    "mediaDuration" : 310,
                    "scalar" : 1,
                    "metadata" : {
                      "AutoAppliedSmartFocus" : "False",
                      "clipSpeedAttribute" : false
                    },
                    "animationTracks" : {
                      "visual" : [
                        {
                          "endTime" : 277,
                          "duration" : 30,
                          "range" : [ 247, 30]
                        },
                        {
                          "endTime" : 392,
                          "duration" : 30,
                          "range" : [ 362, 30]
                        },
                        {
                          "endTime" : 706,
                          "duration" : 30,
                          "range" : [ 676, 30]
                        },
                        {
                          "endTime" : 2366,
                          "duration" : 30,
                          "range" : [ 2336, 30]
                        },
                        {
                          "endTime" : 2701,
                          "duration" : 30,
                          "range" : [ 2671, 30]
                        },
                        {
                          "endTime" : 3445,
                          "duration" : 32,
                          "range" : [ 3413, 32]
                        }
                      ]
                    }
                  },
                  {
                    "id" : 126,
                    "_type" : "Group",
                    "parameters" : {
                      "translation0" : {
                        "type" : "double",
                        "defaultValue" : 2.27373675443232e-13,
                        "keyframes" : [
                          {
                            "endTime" : 30,
                            "time" : 0,
                            "value" : 1200.29017456746,
                            "duration" : 30
                          },
                          {
                            "endTime" : 121,
                            "time" : 91,
                            "value" : -5.6843418860808e-13,
                            "duration" : 30
                          },
                          {
                            "endTime" : 158,
                            "time" : 127,
                            "value" : -231.992336180349,
                            "duration" : 31
                          },
                          {
                            "endTime" : 683,
                            "time" : 653,
                            "value" : 4.2632564145606e-13,
                            "duration" : 30
                          },
                          {
                            "endTime" : 805,
                            "time" : 775,
                            "value" : 664.501116350102,
                            "duration" : 30
                          },
                          {
                            "endTime" : 1027,
                            "time" : 997,
                            "value" : -5.6843418860808e-14,
                            "duration" : 30
                          }
                        ]
                      },
                      "translation1" : {
                        "type" : "double",
                        "defaultValue" : -1.13686837721616e-13,
                        "keyframes" : [
                          {
                            "endTime" : 30,
                            "time" : 0,
                            "value" : -534.429674558692,
                            "duration" : 30
                          },
                          {
                            "endTime" : 121,
                            "time" : 91,
                            "value" : 3.12638803734444e-13,
                            "duration" : 30
                          },
                          {
                            "endTime" : 158,
                            "time" : 127,
                            "value" : 746.288081293927,
                            "duration" : 31
                          },
                          {
                            "endTime" : 683,
                            "time" : 653,
                            "value" : 5.6843418860808e-14,
                            "duration" : 30
                          },
                          {
                            "endTime" : 805,
                            "time" : 775,
                            "value" : -179.103870167644,
                            "duration" : 30
                          },
                          {
                            "endTime" : 1027,
                            "time" : 997,
                            "value" : 7.105427357601e-14,
                            "duration" : 30
                          }
                        ]
                      },
                      "scale0" : {
                        "type" : "double",
                        "defaultValue" : 1.0,
                        "keyframes" : [
                          {
                            "endTime" : 30,
                            "time" : 0,
                            "value" : 2.19840504962894,
                            "duration" : 30
                          },
                          {
                            "endTime" : 121,
                            "time" : 91,
                            "value" : 0.999999885963742,
                            "duration" : 30
                          },
                          {
                            "endTime" : 158,
                            "time" : 127,
                            "value" : 2.3672588418811,
                            "duration" : 31
                          },
                          {
                            "endTime" : 683,
                            "time" : 653,
                            "value" : 0.999999554047833,
                            "duration" : 30
                          },
                          {
                            "endTime" : 805,
                            "time" : 775,
                            "value" : 1.70300350108586,
                            "duration" : 30
                          },
                          {
                            "endTime" : 1027,
                            "time" : 997,
                            "value" : 0.99999949375532,
                            "duration" : 30
                          }
                        ]
                      },
                      "scale1" : {
                        "type" : "double",
                        "defaultValue" : 1.0,
                        "keyframes" : [
                          {
                            "endTime" : 30,
                            "time" : 0,
                            "value" : 2.19840530032685,
                            "duration" : 30
                          },
                          {
                            "endTime" : 121,
                            "time" : 91,
                            "value" : 1.0,
                            "duration" : 30
                          },
                          {
                            "endTime" : 158,
                            "time" : 127,
                            "value" : 2.36725989756578,
                            "duration" : 31
                          },
                          {
                            "endTime" : 683,
                            "time" : 653,
                            "value" : 1.0,
                            "duration" : 30
                          },
                          {
                            "endTime" : 805,
                            "time" : 775,
                            "value" : 1.70300436322275,
                            "duration" : 30
                          },
                          {
                            "endTime" : 1027,
                            "time" : 997,
                            "value" : 1.0,
                            "duration" : 30
                          }
                        ]
                      },
                      "volume" : 1.0
                    },
                    "tracks" : [
                      {
                        "trackIndex" : 0,
                        "medias" : [
                          {
                            "id" : 127,
                            "_type" : "StitchedMedia",
                            "minMediaStart" : 0,
                            "attributes" : {
                              "ident" : "handle_hijacking_attack",
                              "gain" : 1.0,
                              "mixToMono" : false
                            },
                            "parameters" : {
                              "translation0" : {
                                "type" : "double",
                                "defaultValue" : -2.27373675443232e-13,
                                "keyframes" : [
                                  {
                                    "endTime" : 277,
                                    "time" : 247,
                                    "value" : 5441.96329017631,
                                    "duration" : 30
                                  },
                                  {
                                    "endTime" : 392,
                                    "time" : 362,
                                    "value" : -4.54747350886464e-13,
                                    "duration" : 30
                                  },
                                  {
                                    "endTime" : 706,
                                    "time" : 676,
                                    "value" : 524.859157678325,
                                    "duration" : 30
                                  },
                                  {
                                    "endTime" : 2366,
                                    "time" : 2336,
                                    "value" : -2.8421709430404e-13,
                                    "duration" : 30
                                  },
                                  {
                                    "endTime" : 2701,
                                    "time" : 2671,
                                    "value" : -600.9505280081,
                                    "duration" : 30
                                  },
                                  {
                                    "endTime" : 3445,
                                    "time" : 3413,
                                    "value" : -5.6843418860808e-14,
                                    "duration" : 32
                                  }
                                ]
                              },
                              "translation1" : {
                                "type" : "double",
                                "defaultValue" : 1.13686837721616e-13,
                                "keyframes" : [
                                  {
                                    "endTime" : 277,
                                    "time" : 247,
                                    "value" : -2330.26244780353,
                                    "duration" : 30
                                  },
                                  {
                                    "endTime" : 392,
                                    "time" : 362,
                                    "value" : 0.0,
                                    "duration" : 30
                                  },
                                  {
                                    "endTime" : 706,
                                    "time" : 676,
                                    "value" : -200.597094013741,
                                    "duration" : 30
                                  },
                                  {
                                    "endTime" : 2366,
                                    "time" : 2336,
                                    "value" : 1.13686837721616e-13,
                                    "duration" : 30
                                  },
                                  {
                                    "endTime" : 2701,
                                    "time" : 2671,
                                    "value" : 338.034479510627,
                                    "duration" : 30
                                  },
                                  {
                                    "endTime" : 3445,
                                    "time" : 3413,
                                    "value" : -2.8421709430404e-14,
                                    "duration" : 32
                                  }
                                ]
                              },
                              "scale0" : {
                                "type" : "double",
                                "defaultValue" : 1.0,
                                "keyframes" : [
                                  {
                                    "endTime" : 277,
                                    "time" : 247,
                                    "value" : 5.53262735702365,
                                    "duration" : 30
                                  },
                                  {
                                    "endTime" : 392,
                                    "time" : 362,
                                    "value" : 0.99999994963753,
                                    "duration" : 30
                                  },
                                  {
                                    "endTime" : 706,
                                    "time" : 676,
                                    "value" : 1.59203944671086,
                                    "duration" : 30
                                  },
                                  {
                                    "endTime" : 2366,
                                    "time" : 2336,
                                    "value" : 0.999999875419267,
                                    "duration" : 30
                                  },
                                  {
                                    "endTime" : 2701,
                                    "time" : 2671,
                                    "value" : 1.54013269120318,
                                    "duration" : 30
                                  },
                                  {
                                    "endTime" : 3445,
                                    "time" : 3413,
                                    "value" : 0.999999424196647,
                                    "duration" : 32
                                  }
                                ]
                              },
                              "scale1" : {
                                "type" : "double",
                                "defaultValue" : 1.0,
                                "keyframes" : [
                                  {
                                    "endTime" : 277,
                                    "time" : 247,
                                    "value" : 5.53262763566044,
                                    "duration" : 30
                                  },
                                  {
                                    "endTime" : 392,
                                    "time" : 362,
                                    "value" : 1.0,
                                    "duration" : 30
                                  },
                                  {
                                    "endTime" : 706,
                                    "time" : 676,
                                    "value" : 1.59203964504832,
                                    "duration" : 30
                                  },
                                  {
                                    "endTime" : 2366,
                                    "time" : 2336,
                                    "value" : 1.0,
                                    "duration" : 30
                                  },
                                  {
                                    "endTime" : 2701,
                                    "time" : 2671,
                                    "value" : 1.54013357801726,
                                    "duration" : 30
                                  },
                                  {
                                    "endTime" : 3445,
                                    "time" : 3413,
                                    "value" : 1.0,
                                    "duration" : 32
                                  }
                                ]
                              },
                              "cursorOpacity" : 1.0,
                              "cursorScale" : 1.0
                            },
                            "medias" : [
                                {
                                  "id" : 128,
                                  "_type" : "ScreenVMFile",
                                  "src" : 2,
                                  "trackNumber" : 0,
                                  "attributes" : {
                                    "ident" : "handle_hijacking_attack"
                                  },
                                  "parameters" : {
                                    "cursorScale" : {
                                      "type" : "double",
                                      "defaultValue" : 0.0,
                                      "interp" : "linr"
                                    },
                                    "cursorOpacity" : {
                                      "type" : "double",
                                      "defaultValue" : 0.0,
                                      "interp" : "linr"
                                    }
                                  },
                                  "effects" : [

                                  ],
                                  "start" : 0,
                                  "duration" : 3008,
                                  "mediaStart" : 0,
                                  "mediaDuration" : 3008,
                                  "scalar" : 1,
                                  "metadata" : {
                                    "AutoAppliedSmartFocus" : "False",
                                    "clipSpeedAttribute" : false,
                                    "default-scale0" : 1.0,
                                    "default-scale1" : 1.0,
                                    "default-translation0" : 0.0,
                                    "default-translation1" : 0.0
                                  },
                                  "animationTracks" : {

                                  }
                                },
                                {
                                  "id" : 129,
                                  "_type" : "ScreenIMFile",
                                  "src" : 2,
                                  "trackNumber" : 0,
                                  "trimStartSum" : 0,
                                  "attributes" : {
                                    "ident" : "handle_hijacking_attack"
                                  },
                                  "parameters" : {
                                    "cursorOpacity" : 0.0,
                                    "cursorScale" : 0.0
                                  },
                                  "effects" : [

                                  ],
                                  "start" : 3008,
                                  "duration" : 90,
                                  "mediaStart" : 3007,
                                  "mediaDuration" : 1,
                                  "scalar" : 1,
                                  "metadata" : {
                                    "AutoAppliedSmartFocus" : "False"
                                  },
                                  "animationTracks" : {

                                  }
                                },
                                {
                                  "id" : 130,
                                  "_type" : "ScreenVMFile",
                                  "src" : 2,
                                  "trackNumber" : 0,
                                  "attributes" : {
                                    "ident" : "handle_hijacking_attack"
                                  },
                                  "parameters" : {
                                    "cursorScale" : {
                                      "type" : "double",
                                      "defaultValue" : 0.0,
                                      "interp" : "linr"
                                    },
                                    "cursorOpacity" : {
                                      "type" : "double",
                                      "defaultValue" : 0.0,
                                      "interp" : "linr"
                                    }
                                  },
                                  "effects" : [

                                  ],
                                  "start" : 3098,
                                  "duration" : 1234033,
                                  "mediaStart" : 3008,
                                  "mediaDuration" : 1234033,
                                  "scalar" : 1,
                                  "metadata" : {
                                    "AutoAppliedSmartFocus" : "False",
                                    "clipSpeedAttribute" : false,
                                    "default-scale0" : 1.0,
                                    "default-scale1" : 1.0,
                                    "default-translation0" : 0.0,
                                    "default-translation1" : 0.0
                                  },
                                  "animationTracks" : {

                                  }
                                }
                            ],
                            "effects" : [
                                {
                                  "effectName" : "CursorHilight",
                                  "category" : "categoryCursorEffects",
                                  "parameters" : {
                                    "blur" : 0.1,
                                    "color-alpha" : 0.75,
                                    "color-blue" : 0.0,
                                    "color-green" : 1.0,
                                    "color-red" : 1.0,
                                    "radius" : 50.0
                                  }
                                }
                            ],
                            "start" : 0,
                            "duration" : 91,
                            "mediaStart" : 3461,
                            "mediaDuration" : 150,
                            "scalar" : "91/150",
                            "metadata" : {
                              "AutoAppliedSmartFocus" : "False",
                              "clipSpeedAttribute" : true,
                              "default-scale0" : 1.54013269120318,
                              "default-scale1" : 1.54013357801726,
                              "default-translation0" : -600.9505280081,
                              "default-translation1" : 338.034479510627
                            },
                            "animationTracks" : {
                              "visual" : [
                                {
                                  "endTime" : 277,
                                  "duration" : 30,
                                  "range" : [ 247, 30]
                                },
                                {
                                  "endTime" : 392,
                                  "duration" : 30,
                                  "range" : [ 362, 30]
                                },
                                {
                                  "endTime" : 706,
                                  "duration" : 30,
                                  "range" : [ 676, 30]
                                },
                                {
                                  "endTime" : 2366,
                                  "duration" : 30,
                                  "range" : [ 2336, 30]
                                },
                                {
                                  "endTime" : 2701,
                                  "duration" : 30,
                                  "range" : [ 2671, 30]
                                },
                                {
                                  "endTime" : 3445,
                                  "duration" : 32,
                                  "range" : [ 3413, 32]
                                }
                              ]
                            }
                          },
                          {
                            "id" : 131,
                            "_type" : "StitchedMedia",
                            "minMediaStart" : 0,
                            "attributes" : {
                              "ident" : "handle_hijacking_attack",
                              "gain" : 1.0,
                              "mixToMono" : false
                            },
                            "parameters" : {
                              "translation0" : {
                                "type" : "double",
                                "defaultValue" : -2.27373675443232e-13,
                                "keyframes" : [
                                  {
                                    "endTime" : 277,
                                    "time" : 247,
                                    "value" : 5441.96329017631,
                                    "duration" : 30
                                  },
                                  {
                                    "endTime" : 392,
                                    "time" : 362,
                                    "value" : -4.54747350886464e-13,
                                    "duration" : 30
                                  },
                                  {
                                    "endTime" : 706,
                                    "time" : 676,
                                    "value" : 524.859157678325,
                                    "duration" : 30
                                  },
                                  {
                                    "endTime" : 2366,
                                    "time" : 2336,
                                    "value" : -2.8421709430404e-13,
                                    "duration" : 30
                                  },
                                  {
                                    "endTime" : 2701,
                                    "time" : 2671,
                                    "value" : -600.9505280081,
                                    "duration" : 30
                                  },
                                  {
                                    "endTime" : 3445,
                                    "time" : 3413,
                                    "value" : -5.6843418860808e-14,
                                    "duration" : 32
                                  }
                                ]
                              },
                              "translation1" : {
                                "type" : "double",
                                "defaultValue" : 1.13686837721616e-13,
                                "keyframes" : [
                                  {
                                    "endTime" : 277,
                                    "time" : 247,
                                    "value" : -2330.26244780353,
                                    "duration" : 30
                                  },
                                  {
                                    "endTime" : 392,
                                    "time" : 362,
                                    "value" : 0.0,
                                    "duration" : 30
                                  },
                                  {
                                    "endTime" : 706,
                                    "time" : 676,
                                    "value" : -200.597094013741,
                                    "duration" : 30
                                  },
                                  {
                                    "endTime" : 2366,
                                    "time" : 2336,
                                    "value" : 1.13686837721616e-13,
                                    "duration" : 30
                                  },
                                  {
                                    "endTime" : 2701,
                                    "time" : 2671,
                                    "value" : 338.034479510627,
                                    "duration" : 30
                                  },
                                  {
                                    "endTime" : 3445,
                                    "time" : 3413,
                                    "value" : -2.8421709430404e-14,
                                    "duration" : 32
                                  }
                                ]
                              },
                              "scale0" : {
                                "type" : "double",
                                "defaultValue" : 1.0,
                                "keyframes" : [
                                  {
                                    "endTime" : 277,
                                    "time" : 247,
                                    "value" : 5.53262735702365,
                                    "duration" : 30
                                  },
                                  {
                                    "endTime" : 392,
                                    "time" : 362,
                                    "value" : 0.99999994963753,
                                    "duration" : 30
                                  },
                                  {
                                    "endTime" : 706,
                                    "time" : 676,
                                    "value" : 1.59203944671086,
                                    "duration" : 30
                                  },
                                  {
                                    "endTime" : 2366,
                                    "time" : 2336,
                                    "value" : 0.999999875419267,
                                    "duration" : 30
                                  },
                                  {
                                    "endTime" : 2701,
                                    "time" : 2671,
                                    "value" : 1.54013269120318,
                                    "duration" : 30
                                  },
                                  {
                                    "endTime" : 3445,
                                    "time" : 3413,
                                    "value" : 0.999999424196647,
                                    "duration" : 32
                                  }
                                ]
                              },
                              "scale1" : {
                                "type" : "double",
                                "defaultValue" : 1.0,
                                "keyframes" : [
                                  {
                                    "endTime" : 277,
                                    "time" : 247,
                                    "value" : 5.53262763566044,
                                    "duration" : 30
                                  },
                                  {
                                    "endTime" : 392,
                                    "time" : 362,
                                    "value" : 1.0,
                                    "duration" : 30
                                  },
                                  {
                                    "endTime" : 706,
                                    "time" : 676,
                                    "value" : 1.59203964504832,
                                    "duration" : 30
                                  },
                                  {
                                    "endTime" : 2366,
                                    "time" : 2336,
                                    "value" : 1.0,
                                    "duration" : 30
                                  },
                                  {
                                    "endTime" : 2701,
                                    "time" : 2671,
                                    "value" : 1.54013357801726,
                                    "duration" : 30
                                  },
                                  {
                                    "endTime" : 3445,
                                    "time" : 3413,
                                    "value" : 1.0,
                                    "duration" : 32
                                  }
                                ]
                              },
                              "cursorOpacity" : 1.0,
                              "cursorScale" : 1.0
                            },
                            "medias" : [
                                {
                                  "id" : 132,
                                  "_type" : "ScreenVMFile",
                                  "src" : 2,
                                  "trackNumber" : 0,
                                  "attributes" : {
                                    "ident" : "handle_hijacking_attack"
                                  },
                                  "parameters" : {
                                    "cursorScale" : {
                                      "type" : "double",
                                      "defaultValue" : 0.0,
                                      "interp" : "linr"
                                    },
                                    "cursorOpacity" : {
                                      "type" : "double",
                                      "defaultValue" : 0.0,
                                      "interp" : "linr"
                                    }
                                  },
                                  "effects" : [

                                  ],
                                  "start" : 0,
                                  "duration" : 3008,
                                  "mediaStart" : 0,
                                  "mediaDuration" : 3008,
                                  "scalar" : 1,
                                  "metadata" : {
                                    "AutoAppliedSmartFocus" : "False",
                                    "clipSpeedAttribute" : false,
                                    "default-scale0" : 1.0,
                                    "default-scale1" : 1.0,
                                    "default-translation0" : 0.0,
                                    "default-translation1" : 0.0
                                  },
                                  "animationTracks" : {

                                  }
                                },
                                {
                                  "id" : 133,
                                  "_type" : "ScreenIMFile",
                                  "src" : 2,
                                  "trackNumber" : 0,
                                  "trimStartSum" : 0,
                                  "attributes" : {
                                    "ident" : "handle_hijacking_attack"
                                  },
                                  "parameters" : {
                                    "cursorOpacity" : 0.0,
                                    "cursorScale" : 0.0
                                  },
                                  "effects" : [

                                  ],
                                  "start" : 3008,
                                  "duration" : 90,
                                  "mediaStart" : 3007,
                                  "mediaDuration" : 1,
                                  "scalar" : 1,
                                  "metadata" : {
                                    "AutoAppliedSmartFocus" : "False"
                                  },
                                  "animationTracks" : {

                                  }
                                },
                                {
                                  "id" : 134,
                                  "_type" : "ScreenVMFile",
                                  "src" : 2,
                                  "trackNumber" : 0,
                                  "attributes" : {
                                    "ident" : "handle_hijacking_attack"
                                  },
                                  "parameters" : {
                                    "cursorScale" : {
                                      "type" : "double",
                                      "defaultValue" : 0.0,
                                      "interp" : "linr"
                                    },
                                    "cursorOpacity" : {
                                      "type" : "double",
                                      "defaultValue" : 0.0,
                                      "interp" : "linr"
                                    }
                                  },
                                  "effects" : [

                                  ],
                                  "start" : 3098,
                                  "duration" : 721,
                                  "mediaStart" : 3008,
                                  "mediaDuration" : 721,
                                  "scalar" : 1,
                                  "metadata" : {
                                    "AutoAppliedSmartFocus" : "False",
                                    "clipSpeedAttribute" : false,
                                    "default-scale0" : 1.0,
                                    "default-scale1" : 1.0,
                                    "default-translation0" : 0.0,
                                    "default-translation1" : 0.0
                                  },
                                  "animationTracks" : {

                                  }
                                },
                                {
                                  "id" : 135,
                                  "_type" : "ScreenIMFile",
                                  "src" : 2,
                                  "trackNumber" : 0,
                                  "trimStartSum" : 0,
                                  "attributes" : {
                                    "ident" : "handle_hijacking_attack"
                                  },
                                  "parameters" : {
                                    "cursorOpacity" : 0.0,
                                    "cursorScale" : 0.0
                                  },
                                  "effects" : [

                                  ],
                                  "start" : 3819,
                                  "duration" : 30,
                                  "mediaStart" : 3729,
                                  "mediaDuration" : 1,
                                  "scalar" : 1,
                                  "metadata" : {
                                    "AutoAppliedSmartFocus" : "False"
                                  },
                                  "animationTracks" : {

                                  }
                                },
                                {
                                  "id" : 136,
                                  "_type" : "ScreenVMFile",
                                  "src" : 2,
                                  "trackNumber" : 0,
                                  "attributes" : {
                                    "ident" : "handle_hijacking_attack"
                                  },
                                  "parameters" : {
                                    "cursorScale" : {
                                      "type" : "double",
                                      "defaultValue" : 0.0,
                                      "interp" : "linr"
                                    },
                                    "cursorOpacity" : {
                                      "type" : "double",
                                      "defaultValue" : 0.0,
                                      "interp" : "linr"
                                    }
                                  },
                                  "effects" : [

                                  ],
                                  "start" : 3849,
                                  "duration" : 1233312,
                                  "mediaStart" : 3729,
                                  "mediaDuration" : 1233312,
                                  "scalar" : 1,
                                  "metadata" : {
                                    "AutoAppliedSmartFocus" : "False",
                                    "clipSpeedAttribute" : false,
                                    "default-scale0" : 1.0,
                                    "default-scale1" : 1.0,
                                    "default-translation0" : 0.0,
                                    "default-translation1" : 0.0
                                  },
                                  "animationTracks" : {

                                  }
                                }
                            ],
                            "effects" : [
                                {
                                  "effectName" : "CursorHilight",
                                  "category" : "categoryCursorEffects",
                                  "parameters" : {
                                    "blur" : 0.1,
                                    "color-alpha" : 0.75,
                                    "color-blue" : 0.0,
                                    "color-green" : 1.0,
                                    "color-red" : 1.0,
                                    "radius" : 50.0
                                  }
                                }
                            ],
                            "start" : 91,
                            "duration" : 457,
                            "mediaStart" : 3611,
                            "mediaDuration" : 457,
                            "scalar" : 1,
                            "metadata" : {
                              "AutoAppliedSmartFocus" : "False",
                              "clipSpeedAttribute" : false
                            },
                            "animationTracks" : {
                              "visual" : [
                                {
                                  "endTime" : 277,
                                  "duration" : 30,
                                  "range" : [ 247, 30]
                                },
                                {
                                  "endTime" : 392,
                                  "duration" : 30,
                                  "range" : [ 362, 30]
                                },
                                {
                                  "endTime" : 706,
                                  "duration" : 30,
                                  "range" : [ 676, 30]
                                },
                                {
                                  "endTime" : 2366,
                                  "duration" : 30,
                                  "range" : [ 2336, 30]
                                },
                                {
                                  "endTime" : 2701,
                                  "duration" : 30,
                                  "range" : [ 2671, 30]
                                },
                                {
                                  "endTime" : 3445,
                                  "duration" : 32,
                                  "range" : [ 3413, 32]
                                }
                              ]
                            }
                          },
                          {
                            "id" : 137,
                            "_type" : "StitchedMedia",
                            "minMediaStart" : 0,
                            "attributes" : {
                              "ident" : "handle_hijacking_attack",
                              "gain" : 1.0,
                              "mixToMono" : false
                            },
                            "parameters" : {
                              "translation0" : {
                                "type" : "double",
                                "defaultValue" : -2.27373675443232e-13,
                                "keyframes" : [
                                  {
                                    "endTime" : 277,
                                    "time" : 247,
                                    "value" : 5441.96329017631,
                                    "duration" : 30
                                  },
                                  {
                                    "endTime" : 392,
                                    "time" : 362,
                                    "value" : -4.54747350886464e-13,
                                    "duration" : 30
                                  },
                                  {
                                    "endTime" : 706,
                                    "time" : 676,
                                    "value" : 524.859157678325,
                                    "duration" : 30
                                  },
                                  {
                                    "endTime" : 2366,
                                    "time" : 2336,
                                    "value" : -2.8421709430404e-13,
                                    "duration" : 30
                                  },
                                  {
                                    "endTime" : 2701,
                                    "time" : 2671,
                                    "value" : -600.9505280081,
                                    "duration" : 30
                                  },
                                  {
                                    "endTime" : 3445,
                                    "time" : 3413,
                                    "value" : -5.6843418860808e-14,
                                    "duration" : 32
                                  }
                                ]
                              },
                              "translation1" : {
                                "type" : "double",
                                "defaultValue" : 1.13686837721616e-13,
                                "keyframes" : [
                                  {
                                    "endTime" : 277,
                                    "time" : 247,
                                    "value" : -2330.26244780353,
                                    "duration" : 30
                                  },
                                  {
                                    "endTime" : 392,
                                    "time" : 362,
                                    "value" : 0.0,
                                    "duration" : 30
                                  },
                                  {
                                    "endTime" : 706,
                                    "time" : 676,
                                    "value" : -200.597094013741,
                                    "duration" : 30
                                  },
                                  {
                                    "endTime" : 2366,
                                    "time" : 2336,
                                    "value" : 1.13686837721616e-13,
                                    "duration" : 30
                                  },
                                  {
                                    "endTime" : 2701,
                                    "time" : 2671,
                                    "value" : 338.034479510627,
                                    "duration" : 30
                                  },
                                  {
                                    "endTime" : 3445,
                                    "time" : 3413,
                                    "value" : -2.8421709430404e-14,
                                    "duration" : 32
                                  }
                                ]
                              },
                              "scale0" : {
                                "type" : "double",
                                "defaultValue" : 1.0,
                                "keyframes" : [
                                  {
                                    "endTime" : 277,
                                    "time" : 247,
                                    "value" : 5.53262735702365,
                                    "duration" : 30
                                  },
                                  {
                                    "endTime" : 392,
                                    "time" : 362,
                                    "value" : 0.99999994963753,
                                    "duration" : 30
                                  },
                                  {
                                    "endTime" : 706,
                                    "time" : 676,
                                    "value" : 1.59203944671086,
                                    "duration" : 30
                                  },
                                  {
                                    "endTime" : 2366,
                                    "time" : 2336,
                                    "value" : 0.999999875419267,
                                    "duration" : 30
                                  },
                                  {
                                    "endTime" : 2701,
                                    "time" : 2671,
                                    "value" : 1.54013269120318,
                                    "duration" : 30
                                  },
                                  {
                                    "endTime" : 3445,
                                    "time" : 3413,
                                    "value" : 0.999999424196647,
                                    "duration" : 32
                                  }
                                ]
                              },
                              "scale1" : {
                                "type" : "double",
                                "defaultValue" : 1.0,
                                "keyframes" : [
                                  {
                                    "endTime" : 277,
                                    "time" : 247,
                                    "value" : 5.53262763566044,
                                    "duration" : 30
                                  },
                                  {
                                    "endTime" : 392,
                                    "time" : 362,
                                    "value" : 1.0,
                                    "duration" : 30
                                  },
                                  {
                                    "endTime" : 706,
                                    "time" : 676,
                                    "value" : 1.59203964504832,
                                    "duration" : 30
                                  },
                                  {
                                    "endTime" : 2366,
                                    "time" : 2336,
                                    "value" : 1.0,
                                    "duration" : 30
                                  },
                                  {
                                    "endTime" : 2701,
                                    "time" : 2671,
                                    "value" : 1.54013357801726,
                                    "duration" : 30
                                  },
                                  {
                                    "endTime" : 3445,
                                    "time" : 3413,
                                    "value" : 1.0,
                                    "duration" : 32
                                  }
                                ]
                              },
                              "cursorOpacity" : 1.0,
                              "cursorScale" : 1.0
                            },
                            "medias" : [
                                {
                                  "id" : 138,
                                  "_type" : "ScreenVMFile",
                                  "src" : 2,
                                  "trackNumber" : 0,
                                  "attributes" : {
                                    "ident" : "handle_hijacking_attack"
                                  },
                                  "parameters" : {
                                    "cursorScale" : {
                                      "type" : "double",
                                      "defaultValue" : 0.0,
                                      "interp" : "linr"
                                    },
                                    "cursorOpacity" : {
                                      "type" : "double",
                                      "defaultValue" : 0.0,
                                      "interp" : "linr"
                                    }
                                  },
                                  "effects" : [

                                  ],
                                  "start" : 0,
                                  "duration" : 3008,
                                  "mediaStart" : 0,
                                  "mediaDuration" : 3008,
                                  "scalar" : 1,
                                  "metadata" : {
                                    "AutoAppliedSmartFocus" : "False",
                                    "clipSpeedAttribute" : false,
                                    "default-scale0" : 1.0,
                                    "default-scale1" : 1.0,
                                    "default-translation0" : 0.0,
                                    "default-translation1" : 0.0
                                  },
                                  "animationTracks" : {

                                  }
                                },
                                {
                                  "id" : 139,
                                  "_type" : "ScreenIMFile",
                                  "src" : 2,
                                  "trackNumber" : 0,
                                  "trimStartSum" : 0,
                                  "attributes" : {
                                    "ident" : "handle_hijacking_attack"
                                  },
                                  "parameters" : {
                                    "cursorOpacity" : 0.0,
                                    "cursorScale" : 0.0
                                  },
                                  "effects" : [

                                  ],
                                  "start" : 3008,
                                  "duration" : 90,
                                  "mediaStart" : 3007,
                                  "mediaDuration" : 1,
                                  "scalar" : 1,
                                  "metadata" : {
                                    "AutoAppliedSmartFocus" : "False"
                                  },
                                  "animationTracks" : {

                                  }
                                },
                                {
                                  "id" : 140,
                                  "_type" : "ScreenVMFile",
                                  "src" : 2,
                                  "trackNumber" : 0,
                                  "attributes" : {
                                    "ident" : "handle_hijacking_attack"
                                  },
                                  "parameters" : {
                                    "cursorScale" : {
                                      "type" : "double",
                                      "defaultValue" : 0.0,
                                      "interp" : "linr"
                                    },
                                    "cursorOpacity" : {
                                      "type" : "double",
                                      "defaultValue" : 0.0,
                                      "interp" : "linr"
                                    }
                                  },
                                  "effects" : [

                                  ],
                                  "start" : 3098,
                                  "duration" : 721,
                                  "mediaStart" : 3008,
                                  "mediaDuration" : 721,
                                  "scalar" : 1,
                                  "metadata" : {
                                    "AutoAppliedSmartFocus" : "False",
                                    "clipSpeedAttribute" : false,
                                    "default-scale0" : 1.0,
                                    "default-scale1" : 1.0,
                                    "default-translation0" : 0.0,
                                    "default-translation1" : 0.0
                                  },
                                  "animationTracks" : {

                                  }
                                },
                                {
                                  "id" : 141,
                                  "_type" : "ScreenIMFile",
                                  "src" : 2,
                                  "trackNumber" : 0,
                                  "trimStartSum" : 0,
                                  "attributes" : {
                                    "ident" : "handle_hijacking_attack"
                                  },
                                  "parameters" : {
                                    "cursorOpacity" : 0.0,
                                    "cursorScale" : 0.0
                                  },
                                  "effects" : [

                                  ],
                                  "start" : 3819,
                                  "duration" : 30,
                                  "mediaStart" : 3729,
                                  "mediaDuration" : 1,
                                  "scalar" : 1,
                                  "metadata" : {
                                    "AutoAppliedSmartFocus" : "False"
                                  },
                                  "animationTracks" : {

                                  }
                                },
                                {
                                  "id" : 142,
                                  "_type" : "ScreenVMFile",
                                  "src" : 2,
                                  "trackNumber" : 0,
                                  "attributes" : {
                                    "ident" : "handle_hijacking_attack"
                                  },
                                  "parameters" : {
                                    "cursorScale" : {
                                      "type" : "double",
                                      "defaultValue" : 0.0,
                                      "interp" : "linr"
                                    },
                                    "cursorOpacity" : {
                                      "type" : "double",
                                      "defaultValue" : 0.0,
                                      "interp" : "linr"
                                    }
                                  },
                                  "effects" : [

                                  ],
                                  "start" : 3849,
                                  "duration" : 1233312,
                                  "mediaStart" : 3729,
                                  "mediaDuration" : 1233312,
                                  "scalar" : 1,
                                  "metadata" : {
                                    "AutoAppliedSmartFocus" : "False",
                                    "clipSpeedAttribute" : false,
                                    "default-scale0" : 1.0,
                                    "default-scale1" : 1.0,
                                    "default-translation0" : 0.0,
                                    "default-translation1" : 0.0
                                  },
                                  "animationTracks" : {

                                  }
                                }
                            ],
                            "effects" : [
                                {
                                  "effectName" : "CursorHilight",
                                  "category" : "categoryCursorEffects",
                                  "parameters" : {
                                    "blur" : 0.1,
                                    "color-alpha" : 0.75,
                                    "color-blue" : 0.0,
                                    "color-green" : 1.0,
                                    "color-red" : 1.0,
                                    "radius" : 50.0
                                  }
                                }
                            ],
                            "start" : 548,
                            "duration" : 79,
                            "mediaStart" : 4068,
                            "mediaDuration" : 427,
                            "scalar" : "79/427",
                            "metadata" : {
                              "AutoAppliedSmartFocus" : "False",
                              "clipSpeedAttribute" : true
                            },
                            "animationTracks" : {
                              "visual" : [
                                {
                                  "endTime" : 277,
                                  "duration" : 30,
                                  "range" : [ 247, 30]
                                },
                                {
                                  "endTime" : 392,
                                  "duration" : 30,
                                  "range" : [ 362, 30]
                                },
                                {
                                  "endTime" : 706,
                                  "duration" : 30,
                                  "range" : [ 676, 30]
                                },
                                {
                                  "endTime" : 2366,
                                  "duration" : 30,
                                  "range" : [ 2336, 30]
                                },
                                {
                                  "endTime" : 2701,
                                  "duration" : 30,
                                  "range" : [ 2671, 30]
                                },
                                {
                                  "endTime" : 3445,
                                  "duration" : 32,
                                  "range" : [ 3413, 32]
                                }
                              ]
                            }
                          },
                          {
                            "id" : 143,
                            "_type" : "StitchedMedia",
                            "minMediaStart" : 0,
                            "attributes" : {
                              "ident" : "handle_hijacking_attack",
                              "gain" : 1.0,
                              "mixToMono" : false
                            },
                            "parameters" : {
                              "translation0" : {
                                "type" : "double",
                                "defaultValue" : -2.27373675443232e-13,
                                "keyframes" : [
                                  {
                                    "endTime" : 277,
                                    "time" : 247,
                                    "value" : 5441.96329017631,
                                    "duration" : 30
                                  },
                                  {
                                    "endTime" : 392,
                                    "time" : 362,
                                    "value" : -4.54747350886464e-13,
                                    "duration" : 30
                                  },
                                  {
                                    "endTime" : 706,
                                    "time" : 676,
                                    "value" : 524.859157678325,
                                    "duration" : 30
                                  },
                                  {
                                    "endTime" : 2366,
                                    "time" : 2336,
                                    "value" : -2.8421709430404e-13,
                                    "duration" : 30
                                  },
                                  {
                                    "endTime" : 2701,
                                    "time" : 2671,
                                    "value" : -600.9505280081,
                                    "duration" : 30
                                  },
                                  {
                                    "endTime" : 3445,
                                    "time" : 3413,
                                    "value" : -5.6843418860808e-14,
                                    "duration" : 32
                                  }
                                ]
                              },
                              "translation1" : {
                                "type" : "double",
                                "defaultValue" : 1.13686837721616e-13,
                                "keyframes" : [
                                  {
                                    "endTime" : 277,
                                    "time" : 247,
                                    "value" : -2330.26244780353,
                                    "duration" : 30
                                  },
                                  {
                                    "endTime" : 392,
                                    "time" : 362,
                                    "value" : 0.0,
                                    "duration" : 30
                                  },
                                  {
                                    "endTime" : 706,
                                    "time" : 676,
                                    "value" : -200.597094013741,
                                    "duration" : 30
                                  },
                                  {
                                    "endTime" : 2366,
                                    "time" : 2336,
                                    "value" : 1.13686837721616e-13,
                                    "duration" : 30
                                  },
                                  {
                                    "endTime" : 2701,
                                    "time" : 2671,
                                    "value" : 338.034479510627,
                                    "duration" : 30
                                  },
                                  {
                                    "endTime" : 3445,
                                    "time" : 3413,
                                    "value" : -2.8421709430404e-14,
                                    "duration" : 32
                                  }
                                ]
                              },
                              "scale0" : {
                                "type" : "double",
                                "defaultValue" : 1.0,
                                "keyframes" : [
                                  {
                                    "endTime" : 277,
                                    "time" : 247,
                                    "value" : 5.53262735702365,
                                    "duration" : 30
                                  },
                                  {
                                    "endTime" : 392,
                                    "time" : 362,
                                    "value" : 0.99999994963753,
                                    "duration" : 30
                                  },
                                  {
                                    "endTime" : 706,
                                    "time" : 676,
                                    "value" : 1.59203944671086,
                                    "duration" : 30
                                  },
                                  {
                                    "endTime" : 2366,
                                    "time" : 2336,
                                    "value" : 0.999999875419267,
                                    "duration" : 30
                                  },
                                  {
                                    "endTime" : 2701,
                                    "time" : 2671,
                                    "value" : 1.54013269120318,
                                    "duration" : 30
                                  },
                                  {
                                    "endTime" : 3445,
                                    "time" : 3413,
                                    "value" : 0.999999424196647,
                                    "duration" : 32
                                  }
                                ]
                              },
                              "scale1" : {
                                "type" : "double",
                                "defaultValue" : 1.0,
                                "keyframes" : [
                                  {
                                    "endTime" : 277,
                                    "time" : 247,
                                    "value" : 5.53262763566044,
                                    "duration" : 30
                                  },
                                  {
                                    "endTime" : 392,
                                    "time" : 362,
                                    "value" : 1.0,
                                    "duration" : 30
                                  },
                                  {
                                    "endTime" : 706,
                                    "time" : 676,
                                    "value" : 1.59203964504832,
                                    "duration" : 30
                                  },
                                  {
                                    "endTime" : 2366,
                                    "time" : 2336,
                                    "value" : 1.0,
                                    "duration" : 30
                                  },
                                  {
                                    "endTime" : 2701,
                                    "time" : 2671,
                                    "value" : 1.54013357801726,
                                    "duration" : 30
                                  },
                                  {
                                    "endTime" : 3445,
                                    "time" : 3413,
                                    "value" : 1.0,
                                    "duration" : 32
                                  }
                                ]
                              },
                              "cursorOpacity" : 1.0,
                              "cursorScale" : 1.0
                            },
                            "medias" : [
                                {
                                  "id" : 144,
                                  "_type" : "ScreenVMFile",
                                  "src" : 2,
                                  "trackNumber" : 0,
                                  "attributes" : {
                                    "ident" : "handle_hijacking_attack"
                                  },
                                  "parameters" : {
                                    "cursorScale" : {
                                      "type" : "double",
                                      "defaultValue" : 0.0,
                                      "interp" : "linr"
                                    },
                                    "cursorOpacity" : {
                                      "type" : "double",
                                      "defaultValue" : 0.0,
                                      "interp" : "linr"
                                    }
                                  },
                                  "effects" : [

                                  ],
                                  "start" : 0,
                                  "duration" : 3008,
                                  "mediaStart" : 0,
                                  "mediaDuration" : 3008,
                                  "scalar" : 1,
                                  "metadata" : {
                                    "AutoAppliedSmartFocus" : "False",
                                    "clipSpeedAttribute" : false,
                                    "default-scale0" : 1.0,
                                    "default-scale1" : 1.0,
                                    "default-translation0" : 0.0,
                                    "default-translation1" : 0.0
                                  },
                                  "animationTracks" : {

                                  }
                                },
                                {
                                  "id" : 145,
                                  "_type" : "ScreenIMFile",
                                  "src" : 2,
                                  "trackNumber" : 0,
                                  "trimStartSum" : 0,
                                  "attributes" : {
                                    "ident" : "handle_hijacking_attack"
                                  },
                                  "parameters" : {
                                    "cursorOpacity" : 0.0,
                                    "cursorScale" : 0.0
                                  },
                                  "effects" : [

                                  ],
                                  "start" : 3008,
                                  "duration" : 90,
                                  "mediaStart" : 3007,
                                  "mediaDuration" : 1,
                                  "scalar" : 1,
                                  "metadata" : {
                                    "AutoAppliedSmartFocus" : "False"
                                  },
                                  "animationTracks" : {

                                  }
                                },
                                {
                                  "id" : 146,
                                  "_type" : "ScreenVMFile",
                                  "src" : 2,
                                  "trackNumber" : 0,
                                  "attributes" : {
                                    "ident" : "handle_hijacking_attack"
                                  },
                                  "parameters" : {
                                    "cursorScale" : {
                                      "type" : "double",
                                      "defaultValue" : 0.0,
                                      "interp" : "linr"
                                    },
                                    "cursorOpacity" : {
                                      "type" : "double",
                                      "defaultValue" : 0.0,
                                      "interp" : "linr"
                                    }
                                  },
                                  "effects" : [

                                  ],
                                  "start" : 3098,
                                  "duration" : 721,
                                  "mediaStart" : 3008,
                                  "mediaDuration" : 721,
                                  "scalar" : 1,
                                  "metadata" : {
                                    "AutoAppliedSmartFocus" : "False",
                                    "clipSpeedAttribute" : false,
                                    "default-scale0" : 1.0,
                                    "default-scale1" : 1.0,
                                    "default-translation0" : 0.0,
                                    "default-translation1" : 0.0
                                  },
                                  "animationTracks" : {

                                  }
                                },
                                {
                                  "id" : 147,
                                  "_type" : "ScreenIMFile",
                                  "src" : 2,
                                  "trackNumber" : 0,
                                  "trimStartSum" : 0,
                                  "attributes" : {
                                    "ident" : "handle_hijacking_attack"
                                  },
                                  "parameters" : {
                                    "cursorOpacity" : 0.0,
                                    "cursorScale" : 0.0
                                  },
                                  "effects" : [

                                  ],
                                  "start" : 3819,
                                  "duration" : 30,
                                  "mediaStart" : 3729,
                                  "mediaDuration" : 1,
                                  "scalar" : 1,
                                  "metadata" : {
                                    "AutoAppliedSmartFocus" : "False"
                                  },
                                  "animationTracks" : {

                                  }
                                },
                                {
                                  "id" : 148,
                                  "_type" : "ScreenVMFile",
                                  "src" : 2,
                                  "trackNumber" : 0,
                                  "attributes" : {
                                    "ident" : "handle_hijacking_attack"
                                  },
                                  "parameters" : {
                                    "cursorScale" : {
                                      "type" : "double",
                                      "defaultValue" : 0.0,
                                      "interp" : "linr"
                                    },
                                    "cursorOpacity" : {
                                      "type" : "double",
                                      "defaultValue" : 0.0,
                                      "interp" : "linr"
                                    }
                                  },
                                  "effects" : [

                                  ],
                                  "start" : 3849,
                                  "duration" : 1233312,
                                  "mediaStart" : 3729,
                                  "mediaDuration" : 1233312,
                                  "scalar" : 1,
                                  "metadata" : {
                                    "AutoAppliedSmartFocus" : "False",
                                    "clipSpeedAttribute" : false,
                                    "default-scale0" : 1.0,
                                    "default-scale1" : 1.0,
                                    "default-translation0" : 0.0,
                                    "default-translation1" : 0.0
                                  },
                                  "animationTracks" : {

                                  }
                                }
                            ],
                            "effects" : [
                                {
                                  "effectName" : "CursorHilight",
                                  "category" : "categoryCursorEffects",
                                  "parameters" : {
                                    "blur" : 0.1,
                                    "color-alpha" : 0.75,
                                    "color-blue" : 0.0,
                                    "color-green" : 1.0,
                                    "color-red" : 1.0,
                                    "radius" : 50.0
                                  }
                                }
                            ],
                            "start" : 627,
                            "duration" : 60,
                            "mediaStart" : 4495,
                            "mediaDuration" : 60,
                            "scalar" : 1,
                            "metadata" : {
                              "AutoAppliedSmartFocus" : "False",
                              "clipSpeedAttribute" : false
                            },
                            "animationTracks" : {
                              "visual" : [
                                {
                                  "endTime" : 277,
                                  "duration" : 30,
                                  "range" : [ 247, 30]
                                },
                                {
                                  "endTime" : 392,
                                  "duration" : 30,
                                  "range" : [ 362, 30]
                                },
                                {
                                  "endTime" : 706,
                                  "duration" : 30,
                                  "range" : [ 676, 30]
                                },
                                {
                                  "endTime" : 2366,
                                  "duration" : 30,
                                  "range" : [ 2336, 30]
                                },
                                {
                                  "endTime" : 2701,
                                  "duration" : 30,
                                  "range" : [ 2671, 30]
                                },
                                {
                                  "endTime" : 3445,
                                  "duration" : 32,
                                  "range" : [ 3413, 32]
                                }
                              ]
                            }
                          },
                          {
                            "id" : 149,
                            "_type" : "StitchedMedia",
                            "minMediaStart" : 0,
                            "attributes" : {
                              "ident" : "handle_hijacking_attack",
                              "gain" : 1.0,
                              "mixToMono" : false
                            },
                            "parameters" : {
                              "translation0" : {
                                "type" : "double",
                                "defaultValue" : -2.27373675443232e-13,
                                "keyframes" : [
                                  {
                                    "endTime" : 277,
                                    "time" : 247,
                                    "value" : 5441.96329017631,
                                    "duration" : 30
                                  },
                                  {
                                    "endTime" : 392,
                                    "time" : 362,
                                    "value" : -4.54747350886464e-13,
                                    "duration" : 30
                                  },
                                  {
                                    "endTime" : 706,
                                    "time" : 676,
                                    "value" : 524.859157678325,
                                    "duration" : 30
                                  },
                                  {
                                    "endTime" : 2366,
                                    "time" : 2336,
                                    "value" : -2.8421709430404e-13,
                                    "duration" : 30
                                  },
                                  {
                                    "endTime" : 2701,
                                    "time" : 2671,
                                    "value" : -600.9505280081,
                                    "duration" : 30
                                  },
                                  {
                                    "endTime" : 3445,
                                    "time" : 3413,
                                    "value" : -5.6843418860808e-14,
                                    "duration" : 32
                                  }
                                ]
                              },
                              "translation1" : {
                                "type" : "double",
                                "defaultValue" : 1.13686837721616e-13,
                                "keyframes" : [
                                  {
                                    "endTime" : 277,
                                    "time" : 247,
                                    "value" : -2330.26244780353,
                                    "duration" : 30
                                  },
                                  {
                                    "endTime" : 392,
                                    "time" : 362,
                                    "value" : 0.0,
                                    "duration" : 30
                                  },
                                  {
                                    "endTime" : 706,
                                    "time" : 676,
                                    "value" : -200.597094013741,
                                    "duration" : 30
                                  },
                                  {
                                    "endTime" : 2366,
                                    "time" : 2336,
                                    "value" : 1.13686837721616e-13,
                                    "duration" : 30
                                  },
                                  {
                                    "endTime" : 2701,
                                    "time" : 2671,
                                    "value" : 338.034479510627,
                                    "duration" : 30
                                  },
                                  {
                                    "endTime" : 3445,
                                    "time" : 3413,
                                    "value" : -2.8421709430404e-14,
                                    "duration" : 32
                                  }
                                ]
                              },
                              "scale0" : {
                                "type" : "double",
                                "defaultValue" : 1.0,
                                "keyframes" : [
                                  {
                                    "endTime" : 277,
                                    "time" : 247,
                                    "value" : 5.53262735702365,
                                    "duration" : 30
                                  },
                                  {
                                    "endTime" : 392,
                                    "time" : 362,
                                    "value" : 0.99999994963753,
                                    "duration" : 30
                                  },
                                  {
                                    "endTime" : 706,
                                    "time" : 676,
                                    "value" : 1.59203944671086,
                                    "duration" : 30
                                  },
                                  {
                                    "endTime" : 2366,
                                    "time" : 2336,
                                    "value" : 0.999999875419267,
                                    "duration" : 30
                                  },
                                  {
                                    "endTime" : 2701,
                                    "time" : 2671,
                                    "value" : 1.54013269120318,
                                    "duration" : 30
                                  },
                                  {
                                    "endTime" : 3445,
                                    "time" : 3413,
                                    "value" : 0.999999424196647,
                                    "duration" : 32
                                  }
                                ]
                              },
                              "scale1" : {
                                "type" : "double",
                                "defaultValue" : 1.0,
                                "keyframes" : [
                                  {
                                    "endTime" : 277,
                                    "time" : 247,
                                    "value" : 5.53262763566044,
                                    "duration" : 30
                                  },
                                  {
                                    "endTime" : 392,
                                    "time" : 362,
                                    "value" : 1.0,
                                    "duration" : 30
                                  },
                                  {
                                    "endTime" : 706,
                                    "time" : 676,
                                    "value" : 1.59203964504832,
                                    "duration" : 30
                                  },
                                  {
                                    "endTime" : 2366,
                                    "time" : 2336,
                                    "value" : 1.0,
                                    "duration" : 30
                                  },
                                  {
                                    "endTime" : 2701,
                                    "time" : 2671,
                                    "value" : 1.54013357801726,
                                    "duration" : 30
                                  },
                                  {
                                    "endTime" : 3445,
                                    "time" : 3413,
                                    "value" : 1.0,
                                    "duration" : 32
                                  }
                                ]
                              },
                              "cursorOpacity" : 1.0,
                              "cursorScale" : 1.0
                            },
                            "medias" : [
                                {
                                  "id" : 150,
                                  "_type" : "ScreenVMFile",
                                  "src" : 2,
                                  "trackNumber" : 0,
                                  "attributes" : {
                                    "ident" : "handle_hijacking_attack"
                                  },
                                  "parameters" : {
                                    "cursorScale" : {
                                      "type" : "double",
                                      "defaultValue" : 0.0,
                                      "interp" : "linr"
                                    },
                                    "cursorOpacity" : {
                                      "type" : "double",
                                      "defaultValue" : 0.0,
                                      "interp" : "linr"
                                    }
                                  },
                                  "effects" : [

                                  ],
                                  "start" : 0,
                                  "duration" : 3008,
                                  "mediaStart" : 0,
                                  "mediaDuration" : 3008,
                                  "scalar" : 1,
                                  "metadata" : {
                                    "AutoAppliedSmartFocus" : "False",
                                    "clipSpeedAttribute" : false,
                                    "default-scale0" : 1.0,
                                    "default-scale1" : 1.0,
                                    "default-translation0" : 0.0,
                                    "default-translation1" : 0.0
                                  },
                                  "animationTracks" : {

                                  }
                                },
                                {
                                  "id" : 151,
                                  "_type" : "ScreenIMFile",
                                  "src" : 2,
                                  "trackNumber" : 0,
                                  "trimStartSum" : 0,
                                  "attributes" : {
                                    "ident" : "handle_hijacking_attack"
                                  },
                                  "parameters" : {
                                    "cursorOpacity" : 0.0,
                                    "cursorScale" : 0.0
                                  },
                                  "effects" : [

                                  ],
                                  "start" : 3008,
                                  "duration" : 90,
                                  "mediaStart" : 3007,
                                  "mediaDuration" : 1,
                                  "scalar" : 1,
                                  "metadata" : {
                                    "AutoAppliedSmartFocus" : "False"
                                  },
                                  "animationTracks" : {

                                  }
                                },
                                {
                                  "id" : 152,
                                  "_type" : "ScreenVMFile",
                                  "src" : 2,
                                  "trackNumber" : 0,
                                  "attributes" : {
                                    "ident" : "handle_hijacking_attack"
                                  },
                                  "parameters" : {
                                    "cursorScale" : {
                                      "type" : "double",
                                      "defaultValue" : 0.0,
                                      "interp" : "linr"
                                    },
                                    "cursorOpacity" : {
                                      "type" : "double",
                                      "defaultValue" : 0.0,
                                      "interp" : "linr"
                                    }
                                  },
                                  "effects" : [

                                  ],
                                  "start" : 3098,
                                  "duration" : 721,
                                  "mediaStart" : 3008,
                                  "mediaDuration" : 721,
                                  "scalar" : 1,
                                  "metadata" : {
                                    "AutoAppliedSmartFocus" : "False",
                                    "clipSpeedAttribute" : false,
                                    "default-scale0" : 1.0,
                                    "default-scale1" : 1.0,
                                    "default-translation0" : 0.0,
                                    "default-translation1" : 0.0
                                  },
                                  "animationTracks" : {

                                  }
                                },
                                {
                                  "id" : 153,
                                  "_type" : "ScreenIMFile",
                                  "src" : 2,
                                  "trackNumber" : 0,
                                  "trimStartSum" : 0,
                                  "attributes" : {
                                    "ident" : "handle_hijacking_attack"
                                  },
                                  "parameters" : {
                                    "cursorOpacity" : 0.0,
                                    "cursorScale" : 0.0
                                  },
                                  "effects" : [

                                  ],
                                  "start" : 3819,
                                  "duration" : 30,
                                  "mediaStart" : 3729,
                                  "mediaDuration" : 1,
                                  "scalar" : 1,
                                  "metadata" : {
                                    "AutoAppliedSmartFocus" : "False"
                                  },
                                  "animationTracks" : {

                                  }
                                },
                                {
                                  "id" : 154,
                                  "_type" : "ScreenVMFile",
                                  "src" : 2,
                                  "trackNumber" : 0,
                                  "attributes" : {
                                    "ident" : "handle_hijacking_attack"
                                  },
                                  "parameters" : {
                                    "cursorScale" : {
                                      "type" : "double",
                                      "defaultValue" : 0.0,
                                      "interp" : "linr"
                                    },
                                    "cursorOpacity" : {
                                      "type" : "double",
                                      "defaultValue" : 0.0,
                                      "interp" : "linr"
                                    }
                                  },
                                  "effects" : [

                                  ],
                                  "start" : 3849,
                                  "duration" : 1233312,
                                  "mediaStart" : 3729,
                                  "mediaDuration" : 1233312,
                                  "scalar" : 1,
                                  "metadata" : {
                                    "AutoAppliedSmartFocus" : "False",
                                    "clipSpeedAttribute" : false,
                                    "default-scale0" : 1.0,
                                    "default-scale1" : 1.0,
                                    "default-translation0" : 0.0,
                                    "default-translation1" : 0.0
                                  },
                                  "animationTracks" : {

                                  }
                                }
                            ],
                            "effects" : [
                                {
                                  "effectName" : "CursorHilight",
                                  "category" : "categoryCursorEffects",
                                  "parameters" : {
                                    "blur" : 0.1,
                                    "color-alpha" : 0.75,
                                    "color-blue" : 0.0,
                                    "color-green" : 1.0,
                                    "color-red" : 1.0,
                                    "radius" : 50.0
                                  }
                                }
                            ],
                            "start" : 687,
                            "duration" : 70,
                            "mediaStart" : 4555,
                            "mediaDuration" : 123,
                            "scalar" : "70/123",
                            "metadata" : {
                              "AutoAppliedSmartFocus" : "False",
                              "clipSpeedAttribute" : true
                            },
                            "animationTracks" : {
                              "visual" : [
                                {
                                  "endTime" : 277,
                                  "duration" : 30,
                                  "range" : [ 247, 30]
                                },
                                {
                                  "endTime" : 392,
                                  "duration" : 30,
                                  "range" : [ 362, 30]
                                },
                                {
                                  "endTime" : 706,
                                  "duration" : 30,
                                  "range" : [ 676, 30]
                                },
                                {
                                  "endTime" : 2366,
                                  "duration" : 30,
                                  "range" : [ 2336, 30]
                                },
                                {
                                  "endTime" : 2701,
                                  "duration" : 30,
                                  "range" : [ 2671, 30]
                                },
                                {
                                  "endTime" : 3445,
                                  "duration" : 32,
                                  "range" : [ 3413, 32]
                                }
                              ]
                            }
                          },
                          {
                            "id" : 155,
                            "_type" : "StitchedMedia",
                            "minMediaStart" : 0,
                            "attributes" : {
                              "ident" : "handle_hijacking_attack",
                              "gain" : 1.0,
                              "mixToMono" : false
                            },
                            "parameters" : {
                              "translation0" : {
                                "type" : "double",
                                "defaultValue" : -2.27373675443232e-13,
                                "keyframes" : [
                                  {
                                    "endTime" : 277,
                                    "time" : 247,
                                    "value" : 5441.96329017631,
                                    "duration" : 30
                                  },
                                  {
                                    "endTime" : 392,
                                    "time" : 362,
                                    "value" : -4.54747350886464e-13,
                                    "duration" : 30
                                  },
                                  {
                                    "endTime" : 706,
                                    "time" : 676,
                                    "value" : 524.859157678325,
                                    "duration" : 30
                                  },
                                  {
                                    "endTime" : 2366,
                                    "time" : 2336,
                                    "value" : -2.8421709430404e-13,
                                    "duration" : 30
                                  },
                                  {
                                    "endTime" : 2701,
                                    "time" : 2671,
                                    "value" : -600.9505280081,
                                    "duration" : 30
                                  },
                                  {
                                    "endTime" : 3445,
                                    "time" : 3413,
                                    "value" : -5.6843418860808e-14,
                                    "duration" : 32
                                  }
                                ]
                              },
                              "translation1" : {
                                "type" : "double",
                                "defaultValue" : 1.13686837721616e-13,
                                "keyframes" : [
                                  {
                                    "endTime" : 277,
                                    "time" : 247,
                                    "value" : -2330.26244780353,
                                    "duration" : 30
                                  },
                                  {
                                    "endTime" : 392,
                                    "time" : 362,
                                    "value" : 0.0,
                                    "duration" : 30
                                  },
                                  {
                                    "endTime" : 706,
                                    "time" : 676,
                                    "value" : -200.597094013741,
                                    "duration" : 30
                                  },
                                  {
                                    "endTime" : 2366,
                                    "time" : 2336,
                                    "value" : 1.13686837721616e-13,
                                    "duration" : 30
                                  },
                                  {
                                    "endTime" : 2701,
                                    "time" : 2671,
                                    "value" : 338.034479510627,
                                    "duration" : 30
                                  },
                                  {
                                    "endTime" : 3445,
                                    "time" : 3413,
                                    "value" : -2.8421709430404e-14,
                                    "duration" : 32
                                  }
                                ]
                              },
                              "scale0" : {
                                "type" : "double",
                                "defaultValue" : 1.0,
                                "keyframes" : [
                                  {
                                    "endTime" : 277,
                                    "time" : 247,
                                    "value" : 5.53262735702365,
                                    "duration" : 30
                                  },
                                  {
                                    "endTime" : 392,
                                    "time" : 362,
                                    "value" : 0.99999994963753,
                                    "duration" : 30
                                  },
                                  {
                                    "endTime" : 706,
                                    "time" : 676,
                                    "value" : 1.59203944671086,
                                    "duration" : 30
                                  },
                                  {
                                    "endTime" : 2366,
                                    "time" : 2336,
                                    "value" : 0.999999875419267,
                                    "duration" : 30
                                  },
                                  {
                                    "endTime" : 2701,
                                    "time" : 2671,
                                    "value" : 1.54013269120318,
                                    "duration" : 30
                                  },
                                  {
                                    "endTime" : 3445,
                                    "time" : 3413,
                                    "value" : 0.999999424196647,
                                    "duration" : 32
                                  }
                                ]
                              },
                              "scale1" : {
                                "type" : "double",
                                "defaultValue" : 1.0,
                                "keyframes" : [
                                  {
                                    "endTime" : 277,
                                    "time" : 247,
                                    "value" : 5.53262763566044,
                                    "duration" : 30
                                  },
                                  {
                                    "endTime" : 392,
                                    "time" : 362,
                                    "value" : 1.0,
                                    "duration" : 30
                                  },
                                  {
                                    "endTime" : 706,
                                    "time" : 676,
                                    "value" : 1.59203964504832,
                                    "duration" : 30
                                  },
                                  {
                                    "endTime" : 2366,
                                    "time" : 2336,
                                    "value" : 1.0,
                                    "duration" : 30
                                  },
                                  {
                                    "endTime" : 2701,
                                    "time" : 2671,
                                    "value" : 1.54013357801726,
                                    "duration" : 30
                                  },
                                  {
                                    "endTime" : 3445,
                                    "time" : 3413,
                                    "value" : 1.0,
                                    "duration" : 32
                                  }
                                ]
                              },
                              "cursorOpacity" : 1.0,
                              "cursorScale" : 1.0
                            },
                            "medias" : [
                                {
                                  "id" : 156,
                                  "_type" : "ScreenVMFile",
                                  "src" : 2,
                                  "trackNumber" : 0,
                                  "attributes" : {
                                    "ident" : "handle_hijacking_attack"
                                  },
                                  "parameters" : {
                                    "cursorScale" : {
                                      "type" : "double",
                                      "defaultValue" : 0.0,
                                      "interp" : "linr"
                                    },
                                    "cursorOpacity" : {
                                      "type" : "double",
                                      "defaultValue" : 0.0,
                                      "interp" : "linr"
                                    }
                                  },
                                  "effects" : [

                                  ],
                                  "start" : 0,
                                  "duration" : 3008,
                                  "mediaStart" : 0,
                                  "mediaDuration" : 3008,
                                  "scalar" : 1,
                                  "metadata" : {
                                    "AutoAppliedSmartFocus" : "False",
                                    "clipSpeedAttribute" : false,
                                    "default-scale0" : 1.0,
                                    "default-scale1" : 1.0,
                                    "default-translation0" : 0.0,
                                    "default-translation1" : 0.0
                                  },
                                  "animationTracks" : {

                                  }
                                },
                                {
                                  "id" : 157,
                                  "_type" : "ScreenIMFile",
                                  "src" : 2,
                                  "trackNumber" : 0,
                                  "trimStartSum" : 0,
                                  "attributes" : {
                                    "ident" : "handle_hijacking_attack"
                                  },
                                  "parameters" : {
                                    "cursorOpacity" : 0.0,
                                    "cursorScale" : 0.0
                                  },
                                  "effects" : [

                                  ],
                                  "start" : 3008,
                                  "duration" : 90,
                                  "mediaStart" : 3007,
                                  "mediaDuration" : 1,
                                  "scalar" : 1,
                                  "metadata" : {
                                    "AutoAppliedSmartFocus" : "False"
                                  },
                                  "animationTracks" : {

                                  }
                                },
                                {
                                  "id" : 158,
                                  "_type" : "ScreenVMFile",
                                  "src" : 2,
                                  "trackNumber" : 0,
                                  "attributes" : {
                                    "ident" : "handle_hijacking_attack"
                                  },
                                  "parameters" : {
                                    "cursorScale" : {
                                      "type" : "double",
                                      "defaultValue" : 0.0,
                                      "interp" : "linr"
                                    },
                                    "cursorOpacity" : {
                                      "type" : "double",
                                      "defaultValue" : 0.0,
                                      "interp" : "linr"
                                    }
                                  },
                                  "effects" : [

                                  ],
                                  "start" : 3098,
                                  "duration" : 721,
                                  "mediaStart" : 3008,
                                  "mediaDuration" : 721,
                                  "scalar" : 1,
                                  "metadata" : {
                                    "AutoAppliedSmartFocus" : "False",
                                    "clipSpeedAttribute" : false,
                                    "default-scale0" : 1.0,
                                    "default-scale1" : 1.0,
                                    "default-translation0" : 0.0,
                                    "default-translation1" : 0.0
                                  },
                                  "animationTracks" : {

                                  }
                                },
                                {
                                  "id" : 159,
                                  "_type" : "ScreenIMFile",
                                  "src" : 2,
                                  "trackNumber" : 0,
                                  "trimStartSum" : 0,
                                  "attributes" : {
                                    "ident" : "handle_hijacking_attack"
                                  },
                                  "parameters" : {
                                    "cursorOpacity" : 0.0,
                                    "cursorScale" : 0.0
                                  },
                                  "effects" : [

                                  ],
                                  "start" : 3819,
                                  "duration" : 30,
                                  "mediaStart" : 3729,
                                  "mediaDuration" : 1,
                                  "scalar" : 1,
                                  "metadata" : {
                                    "AutoAppliedSmartFocus" : "False"
                                  },
                                  "animationTracks" : {

                                  }
                                },
                                {
                                  "id" : 160,
                                  "_type" : "ScreenVMFile",
                                  "src" : 2,
                                  "trackNumber" : 0,
                                  "attributes" : {
                                    "ident" : "handle_hijacking_attack"
                                  },
                                  "parameters" : {
                                    "cursorScale" : {
                                      "type" : "double",
                                      "defaultValue" : 0.0,
                                      "interp" : "linr"
                                    },
                                    "cursorOpacity" : {
                                      "type" : "double",
                                      "defaultValue" : 0.0,
                                      "interp" : "linr"
                                    }
                                  },
                                  "effects" : [

                                  ],
                                  "start" : 3849,
                                  "duration" : 1233312,
                                  "mediaStart" : 3729,
                                  "mediaDuration" : 1233312,
                                  "scalar" : 1,
                                  "metadata" : {
                                    "AutoAppliedSmartFocus" : "False",
                                    "clipSpeedAttribute" : false,
                                    "default-scale0" : 1.0,
                                    "default-scale1" : 1.0,
                                    "default-translation0" : 0.0,
                                    "default-translation1" : 0.0
                                  },
                                  "animationTracks" : {

                                  }
                                }
                            ],
                            "effects" : [
                                {
                                  "effectName" : "CursorHilight",
                                  "category" : "categoryCursorEffects",
                                  "parameters" : {
                                    "blur" : 0.1,
                                    "color-alpha" : 0.75,
                                    "color-blue" : 0.0,
                                    "color-green" : 1.0,
                                    "color-red" : 1.0,
                                    "radius" : 50.0
                                  }
                                }
                            ],
                            "start" : 757,
                            "duration" : 239,
                            "mediaStart" : 4678,
                            "mediaDuration" : 239,
                            "scalar" : 1,
                            "metadata" : {
                              "AutoAppliedSmartFocus" : "False",
                              "clipSpeedAttribute" : false
                            },
                            "animationTracks" : {
                              "visual" : [
                                {
                                  "endTime" : 277,
                                  "duration" : 30,
                                  "range" : [ 247, 30]
                                },
                                {
                                  "endTime" : 392,
                                  "duration" : 30,
                                  "range" : [ 362, 30]
                                },
                                {
                                  "endTime" : 706,
                                  "duration" : 30,
                                  "range" : [ 676, 30]
                                },
                                {
                                  "endTime" : 2366,
                                  "duration" : 30,
                                  "range" : [ 2336, 30]
                                },
                                {
                                  "endTime" : 2701,
                                  "duration" : 30,
                                  "range" : [ 2671, 30]
                                },
                                {
                                  "endTime" : 3445,
                                  "duration" : 32,
                                  "range" : [ 3413, 32]
                                }
                              ]
                            }
                          },
                          {
                            "id" : 161,
                            "_type" : "StitchedMedia",
                            "minMediaStart" : 0,
                            "attributes" : {
                              "ident" : "handle_hijacking_attack",
                              "gain" : 1.0,
                              "mixToMono" : false
                            },
                            "parameters" : {
                              "translation0" : {
                                "type" : "double",
                                "defaultValue" : -2.27373675443232e-13,
                                "keyframes" : [
                                  {
                                    "endTime" : 277,
                                    "time" : 247,
                                    "value" : 5441.96329017631,
                                    "duration" : 30
                                  },
                                  {
                                    "endTime" : 392,
                                    "time" : 362,
                                    "value" : -4.54747350886464e-13,
                                    "duration" : 30
                                  },
                                  {
                                    "endTime" : 706,
                                    "time" : 676,
                                    "value" : 524.859157678325,
                                    "duration" : 30
                                  },
                                  {
                                    "endTime" : 2366,
                                    "time" : 2336,
                                    "value" : -2.8421709430404e-13,
                                    "duration" : 30
                                  },
                                  {
                                    "endTime" : 2701,
                                    "time" : 2671,
                                    "value" : -600.9505280081,
                                    "duration" : 30
                                  },
                                  {
                                    "endTime" : 3445,
                                    "time" : 3413,
                                    "value" : -5.6843418860808e-14,
                                    "duration" : 32
                                  }
                                ]
                              },
                              "translation1" : {
                                "type" : "double",
                                "defaultValue" : 1.13686837721616e-13,
                                "keyframes" : [
                                  {
                                    "endTime" : 277,
                                    "time" : 247,
                                    "value" : -2330.26244780353,
                                    "duration" : 30
                                  },
                                  {
                                    "endTime" : 392,
                                    "time" : 362,
                                    "value" : 0.0,
                                    "duration" : 30
                                  },
                                  {
                                    "endTime" : 706,
                                    "time" : 676,
                                    "value" : -200.597094013741,
                                    "duration" : 30
                                  },
                                  {
                                    "endTime" : 2366,
                                    "time" : 2336,
                                    "value" : 1.13686837721616e-13,
                                    "duration" : 30
                                  },
                                  {
                                    "endTime" : 2701,
                                    "time" : 2671,
                                    "value" : 338.034479510627,
                                    "duration" : 30
                                  },
                                  {
                                    "endTime" : 3445,
                                    "time" : 3413,
                                    "value" : -2.8421709430404e-14,
                                    "duration" : 32
                                  }
                                ]
                              },
                              "scale0" : {
                                "type" : "double",
                                "defaultValue" : 1.0,
                                "keyframes" : [
                                  {
                                    "endTime" : 277,
                                    "time" : 247,
                                    "value" : 5.53262735702365,
                                    "duration" : 30
                                  },
                                  {
                                    "endTime" : 392,
                                    "time" : 362,
                                    "value" : 0.99999994963753,
                                    "duration" : 30
                                  },
                                  {
                                    "endTime" : 706,
                                    "time" : 676,
                                    "value" : 1.59203944671086,
                                    "duration" : 30
                                  },
                                  {
                                    "endTime" : 2366,
                                    "time" : 2336,
                                    "value" : 0.999999875419267,
                                    "duration" : 30
                                  },
                                  {
                                    "endTime" : 2701,
                                    "time" : 2671,
                                    "value" : 1.54013269120318,
                                    "duration" : 30
                                  },
                                  {
                                    "endTime" : 3445,
                                    "time" : 3413,
                                    "value" : 0.999999424196647,
                                    "duration" : 32
                                  }
                                ]
                              },
                              "scale1" : {
                                "type" : "double",
                                "defaultValue" : 1.0,
                                "keyframes" : [
                                  {
                                    "endTime" : 277,
                                    "time" : 247,
                                    "value" : 5.53262763566044,
                                    "duration" : 30
                                  },
                                  {
                                    "endTime" : 392,
                                    "time" : 362,
                                    "value" : 1.0,
                                    "duration" : 30
                                  },
                                  {
                                    "endTime" : 706,
                                    "time" : 676,
                                    "value" : 1.59203964504832,
                                    "duration" : 30
                                  },
                                  {
                                    "endTime" : 2366,
                                    "time" : 2336,
                                    "value" : 1.0,
                                    "duration" : 30
                                  },
                                  {
                                    "endTime" : 2701,
                                    "time" : 2671,
                                    "value" : 1.54013357801726,
                                    "duration" : 30
                                  },
                                  {
                                    "endTime" : 3445,
                                    "time" : 3413,
                                    "value" : 1.0,
                                    "duration" : 32
                                  }
                                ]
                              },
                              "cursorOpacity" : 1.0,
                              "cursorScale" : 1.0
                            },
                            "medias" : [
                                {
                                  "id" : 162,
                                  "_type" : "ScreenVMFile",
                                  "src" : 2,
                                  "trackNumber" : 0,
                                  "attributes" : {
                                    "ident" : "handle_hijacking_attack"
                                  },
                                  "parameters" : {
                                    "cursorScale" : {
                                      "type" : "double",
                                      "defaultValue" : 0.0,
                                      "interp" : "linr"
                                    },
                                    "cursorOpacity" : {
                                      "type" : "double",
                                      "defaultValue" : 0.0,
                                      "interp" : "linr"
                                    }
                                  },
                                  "effects" : [

                                  ],
                                  "start" : 0,
                                  "duration" : 3008,
                                  "mediaStart" : 0,
                                  "mediaDuration" : 3008,
                                  "scalar" : 1,
                                  "metadata" : {
                                    "AutoAppliedSmartFocus" : "False",
                                    "clipSpeedAttribute" : false,
                                    "default-scale0" : 1.0,
                                    "default-scale1" : 1.0,
                                    "default-translation0" : 0.0,
                                    "default-translation1" : 0.0
                                  },
                                  "animationTracks" : {

                                  }
                                },
                                {
                                  "id" : 163,
                                  "_type" : "ScreenIMFile",
                                  "src" : 2,
                                  "trackNumber" : 0,
                                  "trimStartSum" : 0,
                                  "attributes" : {
                                    "ident" : "handle_hijacking_attack"
                                  },
                                  "parameters" : {
                                    "cursorOpacity" : 0.0,
                                    "cursorScale" : 0.0
                                  },
                                  "effects" : [

                                  ],
                                  "start" : 3008,
                                  "duration" : 90,
                                  "mediaStart" : 3007,
                                  "mediaDuration" : 1,
                                  "scalar" : 1,
                                  "metadata" : {
                                    "AutoAppliedSmartFocus" : "False"
                                  },
                                  "animationTracks" : {

                                  }
                                },
                                {
                                  "id" : 164,
                                  "_type" : "ScreenVMFile",
                                  "src" : 2,
                                  "trackNumber" : 0,
                                  "attributes" : {
                                    "ident" : "handle_hijacking_attack"
                                  },
                                  "parameters" : {
                                    "cursorScale" : {
                                      "type" : "double",
                                      "defaultValue" : 0.0,
                                      "interp" : "linr"
                                    },
                                    "cursorOpacity" : {
                                      "type" : "double",
                                      "defaultValue" : 0.0,
                                      "interp" : "linr"
                                    }
                                  },
                                  "effects" : [

                                  ],
                                  "start" : 3098,
                                  "duration" : 721,
                                  "mediaStart" : 3008,
                                  "mediaDuration" : 721,
                                  "scalar" : 1,
                                  "metadata" : {
                                    "AutoAppliedSmartFocus" : "False",
                                    "clipSpeedAttribute" : false,
                                    "default-scale0" : 1.0,
                                    "default-scale1" : 1.0,
                                    "default-translation0" : 0.0,
                                    "default-translation1" : 0.0
                                  },
                                  "animationTracks" : {

                                  }
                                },
                                {
                                  "id" : 165,
                                  "_type" : "ScreenIMFile",
                                  "src" : 2,
                                  "trackNumber" : 0,
                                  "trimStartSum" : 0,
                                  "attributes" : {
                                    "ident" : "handle_hijacking_attack"
                                  },
                                  "parameters" : {
                                    "cursorOpacity" : 0.0,
                                    "cursorScale" : 0.0
                                  },
                                  "effects" : [

                                  ],
                                  "start" : 3819,
                                  "duration" : 30,
                                  "mediaStart" : 3729,
                                  "mediaDuration" : 1,
                                  "scalar" : 1,
                                  "metadata" : {
                                    "AutoAppliedSmartFocus" : "False"
                                  },
                                  "animationTracks" : {

                                  }
                                },
                                {
                                  "id" : 166,
                                  "_type" : "ScreenVMFile",
                                  "src" : 2,
                                  "trackNumber" : 0,
                                  "attributes" : {
                                    "ident" : "handle_hijacking_attack"
                                  },
                                  "parameters" : {
                                    "cursorScale" : {
                                      "type" : "double",
                                      "defaultValue" : 0.0,
                                      "interp" : "linr"
                                    },
                                    "cursorOpacity" : {
                                      "type" : "double",
                                      "defaultValue" : 0.0,
                                      "interp" : "linr"
                                    }
                                  },
                                  "effects" : [

                                  ],
                                  "start" : 3849,
                                  "duration" : 1233312,
                                  "mediaStart" : 3729,
                                  "mediaDuration" : 1233312,
                                  "scalar" : 1,
                                  "metadata" : {
                                    "AutoAppliedSmartFocus" : "False",
                                    "clipSpeedAttribute" : false,
                                    "default-scale0" : 1.0,
                                    "default-scale1" : 1.0,
                                    "default-translation0" : 0.0,
                                    "default-translation1" : 0.0
                                  },
                                  "animationTracks" : {

                                  }
                                }
                            ],
                            "effects" : [
                                {
                                  "effectName" : "CursorHilight",
                                  "category" : "categoryCursorEffects",
                                  "parameters" : {
                                    "blur" : 0.1,
                                    "color-alpha" : 0.75,
                                    "color-blue" : 0.0,
                                    "color-green" : 1.0,
                                    "color-red" : 1.0,
                                    "radius" : 50.0
                                  }
                                }
                            ],
                            "start" : 996,
                            "duration" : 34,
                            "mediaStart" : 5020,
                            "mediaDuration" : 34,
                            "scalar" : 1,
                            "metadata" : {
                              "AutoAppliedSmartFocus" : "False",
                              "clipSpeedAttribute" : false
                            },
                            "animationTracks" : {
                              "visual" : [
                                {
                                  "endTime" : 277,
                                  "duration" : 30,
                                  "range" : [ 247, 30]
                                },
                                {
                                  "endTime" : 392,
                                  "duration" : 30,
                                  "range" : [ 362, 30]
                                },
                                {
                                  "endTime" : 706,
                                  "duration" : 30,
                                  "range" : [ 676, 30]
                                },
                                {
                                  "endTime" : 2366,
                                  "duration" : 30,
                                  "range" : [ 2336, 30]
                                },
                                {
                                  "endTime" : 2701,
                                  "duration" : 30,
                                  "range" : [ 2671, 30]
                                },
                                {
                                  "endTime" : 3445,
                                  "duration" : 32,
                                  "range" : [ 3413, 32]
                                }
                              ]
                            }
                          },
                          {
                            "id" : 167,
                            "_type" : "StitchedMedia",
                            "minMediaStart" : 0,
                            "attributes" : {
                              "ident" : "handle_hijacking_attack",
                              "gain" : 1.0,
                              "mixToMono" : false
                            },
                            "parameters" : {
                              "translation0" : {
                                "type" : "double",
                                "defaultValue" : -2.27373675443232e-13,
                                "keyframes" : [
                                  {
                                    "endTime" : 277,
                                    "time" : 247,
                                    "value" : 5441.96329017631,
                                    "duration" : 30
                                  },
                                  {
                                    "endTime" : 392,
                                    "time" : 362,
                                    "value" : -4.54747350886464e-13,
                                    "duration" : 30
                                  },
                                  {
                                    "endTime" : 706,
                                    "time" : 676,
                                    "value" : 524.859157678325,
                                    "duration" : 30
                                  },
                                  {
                                    "endTime" : 2366,
                                    "time" : 2336,
                                    "value" : -2.8421709430404e-13,
                                    "duration" : 30
                                  },
                                  {
                                    "endTime" : 2701,
                                    "time" : 2671,
                                    "value" : -600.9505280081,
                                    "duration" : 30
                                  },
                                  {
                                    "endTime" : 3445,
                                    "time" : 3413,
                                    "value" : -5.6843418860808e-14,
                                    "duration" : 32
                                  }
                                ]
                              },
                              "translation1" : {
                                "type" : "double",
                                "defaultValue" : 1.13686837721616e-13,
                                "keyframes" : [
                                  {
                                    "endTime" : 277,
                                    "time" : 247,
                                    "value" : -2330.26244780353,
                                    "duration" : 30
                                  },
                                  {
                                    "endTime" : 392,
                                    "time" : 362,
                                    "value" : 0.0,
                                    "duration" : 30
                                  },
                                  {
                                    "endTime" : 706,
                                    "time" : 676,
                                    "value" : -200.597094013741,
                                    "duration" : 30
                                  },
                                  {
                                    "endTime" : 2366,
                                    "time" : 2336,
                                    "value" : 1.13686837721616e-13,
                                    "duration" : 30
                                  },
                                  {
                                    "endTime" : 2701,
                                    "time" : 2671,
                                    "value" : 338.034479510627,
                                    "duration" : 30
                                  },
                                  {
                                    "endTime" : 3445,
                                    "time" : 3413,
                                    "value" : -2.8421709430404e-14,
                                    "duration" : 32
                                  }
                                ]
                              },
                              "scale0" : {
                                "type" : "double",
                                "defaultValue" : 1.0,
                                "keyframes" : [
                                  {
                                    "endTime" : 277,
                                    "time" : 247,
                                    "value" : 5.53262735702365,
                                    "duration" : 30
                                  },
                                  {
                                    "endTime" : 392,
                                    "time" : 362,
                                    "value" : 0.99999994963753,
                                    "duration" : 30
                                  },
                                  {
                                    "endTime" : 706,
                                    "time" : 676,
                                    "value" : 1.59203944671086,
                                    "duration" : 30
                                  },
                                  {
                                    "endTime" : 2366,
                                    "time" : 2336,
                                    "value" : 0.999999875419267,
                                    "duration" : 30
                                  },
                                  {
                                    "endTime" : 2701,
                                    "time" : 2671,
                                    "value" : 1.54013269120318,
                                    "duration" : 30
                                  },
                                  {
                                    "endTime" : 3445,
                                    "time" : 3413,
                                    "value" : 0.999999424196647,
                                    "duration" : 32
                                  }
                                ]
                              },
                              "scale1" : {
                                "type" : "double",
                                "defaultValue" : 1.0,
                                "keyframes" : [
                                  {
                                    "endTime" : 277,
                                    "time" : 247,
                                    "value" : 5.53262763566044,
                                    "duration" : 30
                                  },
                                  {
                                    "endTime" : 392,
                                    "time" : 362,
                                    "value" : 1.0,
                                    "duration" : 30
                                  },
                                  {
                                    "endTime" : 706,
                                    "time" : 676,
                                    "value" : 1.59203964504832,
                                    "duration" : 30
                                  },
                                  {
                                    "endTime" : 2366,
                                    "time" : 2336,
                                    "value" : 1.0,
                                    "duration" : 30
                                  },
                                  {
                                    "endTime" : 2701,
                                    "time" : 2671,
                                    "value" : 1.54013357801726,
                                    "duration" : 30
                                  },
                                  {
                                    "endTime" : 3445,
                                    "time" : 3413,
                                    "value" : 1.0,
                                    "duration" : 32
                                  }
                                ]
                              },
                              "cursorOpacity" : 1.0,
                              "cursorScale" : 1.0
                            },
                            "medias" : [
                                {
                                  "id" : 168,
                                  "_type" : "ScreenVMFile",
                                  "src" : 2,
                                  "trackNumber" : 0,
                                  "attributes" : {
                                    "ident" : "handle_hijacking_attack"
                                  },
                                  "parameters" : {
                                    "cursorScale" : {
                                      "type" : "double",
                                      "defaultValue" : 0.0,
                                      "interp" : "linr"
                                    },
                                    "cursorOpacity" : {
                                      "type" : "double",
                                      "defaultValue" : 0.0,
                                      "interp" : "linr"
                                    }
                                  },
                                  "effects" : [

                                  ],
                                  "start" : 0,
                                  "duration" : 3008,
                                  "mediaStart" : 0,
                                  "mediaDuration" : 3008,
                                  "scalar" : 1,
                                  "metadata" : {
                                    "AutoAppliedSmartFocus" : "False",
                                    "clipSpeedAttribute" : false,
                                    "default-scale0" : 1.0,
                                    "default-scale1" : 1.0,
                                    "default-translation0" : 0.0,
                                    "default-translation1" : 0.0
                                  },
                                  "animationTracks" : {

                                  }
                                },
                                {
                                  "id" : 169,
                                  "_type" : "ScreenIMFile",
                                  "src" : 2,
                                  "trackNumber" : 0,
                                  "trimStartSum" : 0,
                                  "attributes" : {
                                    "ident" : "handle_hijacking_attack"
                                  },
                                  "parameters" : {
                                    "cursorOpacity" : 0.0,
                                    "cursorScale" : 0.0
                                  },
                                  "effects" : [

                                  ],
                                  "start" : 3008,
                                  "duration" : 90,
                                  "mediaStart" : 3007,
                                  "mediaDuration" : 1,
                                  "scalar" : 1,
                                  "metadata" : {
                                    "AutoAppliedSmartFocus" : "False"
                                  },
                                  "animationTracks" : {

                                  }
                                },
                                {
                                  "id" : 170,
                                  "_type" : "ScreenVMFile",
                                  "src" : 2,
                                  "trackNumber" : 0,
                                  "attributes" : {
                                    "ident" : "handle_hijacking_attack"
                                  },
                                  "parameters" : {
                                    "cursorScale" : {
                                      "type" : "double",
                                      "defaultValue" : 0.0,
                                      "interp" : "linr"
                                    },
                                    "cursorOpacity" : {
                                      "type" : "double",
                                      "defaultValue" : 0.0,
                                      "interp" : "linr"
                                    }
                                  },
                                  "effects" : [

                                  ],
                                  "start" : 3098,
                                  "duration" : 721,
                                  "mediaStart" : 3008,
                                  "mediaDuration" : 721,
                                  "scalar" : 1,
                                  "metadata" : {
                                    "AutoAppliedSmartFocus" : "False",
                                    "clipSpeedAttribute" : false,
                                    "default-scale0" : 1.0,
                                    "default-scale1" : 1.0,
                                    "default-translation0" : 0.0,
                                    "default-translation1" : 0.0
                                  },
                                  "animationTracks" : {

                                  }
                                },
                                {
                                  "id" : 171,
                                  "_type" : "ScreenIMFile",
                                  "src" : 2,
                                  "trackNumber" : 0,
                                  "trimStartSum" : 0,
                                  "attributes" : {
                                    "ident" : "handle_hijacking_attack"
                                  },
                                  "parameters" : {
                                    "cursorOpacity" : 0.0,
                                    "cursorScale" : 0.0
                                  },
                                  "effects" : [

                                  ],
                                  "start" : 3819,
                                  "duration" : 30,
                                  "mediaStart" : 3729,
                                  "mediaDuration" : 1,
                                  "scalar" : 1,
                                  "metadata" : {
                                    "AutoAppliedSmartFocus" : "False"
                                  },
                                  "animationTracks" : {

                                  }
                                },
                                {
                                  "id" : 172,
                                  "_type" : "ScreenVMFile",
                                  "src" : 2,
                                  "trackNumber" : 0,
                                  "attributes" : {
                                    "ident" : "handle_hijacking_attack"
                                  },
                                  "parameters" : {
                                    "cursorScale" : {
                                      "type" : "double",
                                      "defaultValue" : 0.0,
                                      "interp" : "linr"
                                    },
                                    "cursorOpacity" : {
                                      "type" : "double",
                                      "defaultValue" : 0.0,
                                      "interp" : "linr"
                                    }
                                  },
                                  "effects" : [

                                  ],
                                  "start" : 3849,
                                  "duration" : 1233312,
                                  "mediaStart" : 3729,
                                  "mediaDuration" : 1233312,
                                  "scalar" : 1,
                                  "metadata" : {
                                    "AutoAppliedSmartFocus" : "False",
                                    "clipSpeedAttribute" : false,
                                    "default-scale0" : 1.0,
                                    "default-scale1" : 1.0,
                                    "default-translation0" : 0.0,
                                    "default-translation1" : 0.0
                                  },
                                  "animationTracks" : {

                                  }
                                }
                            ],
                            "effects" : [
                                {
                                  "effectName" : "CursorHilight",
                                  "category" : "categoryCursorEffects",
                                  "parameters" : {
                                    "blur" : 0.1,
                                    "color-alpha" : 0.75,
                                    "color-blue" : 0.0,
                                    "color-green" : 1.0,
                                    "color-red" : 1.0,
                                    "radius" : 50.0
                                  }
                                }
                            ],
                            "start" : 1030,
                            "duration" : 94,
                            "mediaStart" : 5054,
                            "mediaDuration" : 159,
                            "scalar" : "94/159",
                            "metadata" : {
                              "AutoAppliedSmartFocus" : "False",
                              "clipSpeedAttribute" : true
                            },
                            "animationTracks" : {
                              "visual" : [
                                {
                                  "endTime" : 277,
                                  "duration" : 30,
                                  "range" : [ 247, 30]
                                },
                                {
                                  "endTime" : 392,
                                  "duration" : 30,
                                  "range" : [ 362, 30]
                                },
                                {
                                  "endTime" : 706,
                                  "duration" : 30,
                                  "range" : [ 676, 30]
                                },
                                {
                                  "endTime" : 2366,
                                  "duration" : 30,
                                  "range" : [ 2336, 30]
                                },
                                {
                                  "endTime" : 2701,
                                  "duration" : 30,
                                  "range" : [ 2671, 30]
                                },
                                {
                                  "endTime" : 3445,
                                  "duration" : 32,
                                  "range" : [ 3413, 32]
                                }
                              ]
                            }
                          },
                          {
                            "id" : 173,
                            "_type" : "StitchedMedia",
                            "minMediaStart" : 0,
                            "attributes" : {
                              "ident" : "handle_hijacking_attack",
                              "gain" : 1.0,
                              "mixToMono" : false
                            },
                            "parameters" : {
                              "translation0" : {
                                "type" : "double",
                                "defaultValue" : -2.27373675443232e-13,
                                "keyframes" : [
                                  {
                                    "endTime" : 277,
                                    "time" : 247,
                                    "value" : 5441.96329017631,
                                    "duration" : 30
                                  },
                                  {
                                    "endTime" : 392,
                                    "time" : 362,
                                    "value" : -4.54747350886464e-13,
                                    "duration" : 30
                                  },
                                  {
                                    "endTime" : 706,
                                    "time" : 676,
                                    "value" : 524.859157678325,
                                    "duration" : 30
                                  },
                                  {
                                    "endTime" : 2366,
                                    "time" : 2336,
                                    "value" : -2.8421709430404e-13,
                                    "duration" : 30
                                  },
                                  {
                                    "endTime" : 2701,
                                    "time" : 2671,
                                    "value" : -600.9505280081,
                                    "duration" : 30
                                  },
                                  {
                                    "endTime" : 3445,
                                    "time" : 3413,
                                    "value" : -5.6843418860808e-14,
                                    "duration" : 32
                                  }
                                ]
                              },
                              "translation1" : {
                                "type" : "double",
                                "defaultValue" : 1.13686837721616e-13,
                                "keyframes" : [
                                  {
                                    "endTime" : 277,
                                    "time" : 247,
                                    "value" : -2330.26244780353,
                                    "duration" : 30
                                  },
                                  {
                                    "endTime" : 392,
                                    "time" : 362,
                                    "value" : 0.0,
                                    "duration" : 30
                                  },
                                  {
                                    "endTime" : 706,
                                    "time" : 676,
                                    "value" : -200.597094013741,
                                    "duration" : 30
                                  },
                                  {
                                    "endTime" : 2366,
                                    "time" : 2336,
                                    "value" : 1.13686837721616e-13,
                                    "duration" : 30
                                  },
                                  {
                                    "endTime" : 2701,
                                    "time" : 2671,
                                    "value" : 338.034479510627,
                                    "duration" : 30
                                  },
                                  {
                                    "endTime" : 3445,
                                    "time" : 3413,
                                    "value" : -2.8421709430404e-14,
                                    "duration" : 32
                                  }
                                ]
                              },
                              "scale0" : {
                                "type" : "double",
                                "defaultValue" : 1.0,
                                "keyframes" : [
                                  {
                                    "endTime" : 277,
                                    "time" : 247,
                                    "value" : 5.53262735702365,
                                    "duration" : 30
                                  },
                                  {
                                    "endTime" : 392,
                                    "time" : 362,
                                    "value" : 0.99999994963753,
                                    "duration" : 30
                                  },
                                  {
                                    "endTime" : 706,
                                    "time" : 676,
                                    "value" : 1.59203944671086,
                                    "duration" : 30
                                  },
                                  {
                                    "endTime" : 2366,
                                    "time" : 2336,
                                    "value" : 0.999999875419267,
                                    "duration" : 30
                                  },
                                  {
                                    "endTime" : 2701,
                                    "time" : 2671,
                                    "value" : 1.54013269120318,
                                    "duration" : 30
                                  },
                                  {
                                    "endTime" : 3445,
                                    "time" : 3413,
                                    "value" : 0.999999424196647,
                                    "duration" : 32
                                  }
                                ]
                              },
                              "scale1" : {
                                "type" : "double",
                                "defaultValue" : 1.0,
                                "keyframes" : [
                                  {
                                    "endTime" : 277,
                                    "time" : 247,
                                    "value" : 5.53262763566044,
                                    "duration" : 30
                                  },
                                  {
                                    "endTime" : 392,
                                    "time" : 362,
                                    "value" : 1.0,
                                    "duration" : 30
                                  },
                                  {
                                    "endTime" : 706,
                                    "time" : 676,
                                    "value" : 1.59203964504832,
                                    "duration" : 30
                                  },
                                  {
                                    "endTime" : 2366,
                                    "time" : 2336,
                                    "value" : 1.0,
                                    "duration" : 30
                                  },
                                  {
                                    "endTime" : 2701,
                                    "time" : 2671,
                                    "value" : 1.54013357801726,
                                    "duration" : 30
                                  },
                                  {
                                    "endTime" : 3445,
                                    "time" : 3413,
                                    "value" : 1.0,
                                    "duration" : 32
                                  }
                                ]
                              },
                              "cursorOpacity" : 1.0,
                              "cursorScale" : 1.0
                            },
                            "medias" : [
                                {
                                  "id" : 174,
                                  "_type" : "ScreenVMFile",
                                  "src" : 2,
                                  "trackNumber" : 0,
                                  "attributes" : {
                                    "ident" : "handle_hijacking_attack"
                                  },
                                  "parameters" : {
                                    "cursorScale" : {
                                      "type" : "double",
                                      "defaultValue" : 0.0,
                                      "interp" : "linr"
                                    },
                                    "cursorOpacity" : {
                                      "type" : "double",
                                      "defaultValue" : 0.0,
                                      "interp" : "linr"
                                    }
                                  },
                                  "effects" : [

                                  ],
                                  "start" : 0,
                                  "duration" : 3008,
                                  "mediaStart" : 0,
                                  "mediaDuration" : 3008,
                                  "scalar" : 1,
                                  "metadata" : {
                                    "AutoAppliedSmartFocus" : "False",
                                    "clipSpeedAttribute" : false,
                                    "default-scale0" : 1.0,
                                    "default-scale1" : 1.0,
                                    "default-translation0" : 0.0,
                                    "default-translation1" : 0.0
                                  },
                                  "animationTracks" : {

                                  }
                                },
                                {
                                  "id" : 175,
                                  "_type" : "ScreenIMFile",
                                  "src" : 2,
                                  "trackNumber" : 0,
                                  "trimStartSum" : 0,
                                  "attributes" : {
                                    "ident" : "handle_hijacking_attack"
                                  },
                                  "parameters" : {
                                    "cursorOpacity" : 0.0,
                                    "cursorScale" : 0.0
                                  },
                                  "effects" : [

                                  ],
                                  "start" : 3008,
                                  "duration" : 90,
                                  "mediaStart" : 3007,
                                  "mediaDuration" : 1,
                                  "scalar" : 1,
                                  "metadata" : {
                                    "AutoAppliedSmartFocus" : "False"
                                  },
                                  "animationTracks" : {

                                  }
                                },
                                {
                                  "id" : 176,
                                  "_type" : "ScreenVMFile",
                                  "src" : 2,
                                  "trackNumber" : 0,
                                  "attributes" : {
                                    "ident" : "handle_hijacking_attack"
                                  },
                                  "parameters" : {
                                    "cursorScale" : {
                                      "type" : "double",
                                      "defaultValue" : 0.0,
                                      "interp" : "linr"
                                    },
                                    "cursorOpacity" : {
                                      "type" : "double",
                                      "defaultValue" : 0.0,
                                      "interp" : "linr"
                                    }
                                  },
                                  "effects" : [

                                  ],
                                  "start" : 3098,
                                  "duration" : 721,
                                  "mediaStart" : 3008,
                                  "mediaDuration" : 721,
                                  "scalar" : 1,
                                  "metadata" : {
                                    "AutoAppliedSmartFocus" : "False",
                                    "clipSpeedAttribute" : false,
                                    "default-scale0" : 1.0,
                                    "default-scale1" : 1.0,
                                    "default-translation0" : 0.0,
                                    "default-translation1" : 0.0
                                  },
                                  "animationTracks" : {

                                  }
                                },
                                {
                                  "id" : 177,
                                  "_type" : "ScreenIMFile",
                                  "src" : 2,
                                  "trackNumber" : 0,
                                  "trimStartSum" : 0,
                                  "attributes" : {
                                    "ident" : "handle_hijacking_attack"
                                  },
                                  "parameters" : {
                                    "cursorOpacity" : 0.0,
                                    "cursorScale" : 0.0
                                  },
                                  "effects" : [

                                  ],
                                  "start" : 3819,
                                  "duration" : 30,
                                  "mediaStart" : 3729,
                                  "mediaDuration" : 1,
                                  "scalar" : 1,
                                  "metadata" : {
                                    "AutoAppliedSmartFocus" : "False"
                                  },
                                  "animationTracks" : {

                                  }
                                },
                                {
                                  "id" : 178,
                                  "_type" : "ScreenVMFile",
                                  "src" : 2,
                                  "trackNumber" : 0,
                                  "attributes" : {
                                    "ident" : "handle_hijacking_attack"
                                  },
                                  "parameters" : {
                                    "cursorScale" : {
                                      "type" : "double",
                                      "defaultValue" : 0.0,
                                      "interp" : "linr"
                                    },
                                    "cursorOpacity" : {
                                      "type" : "double",
                                      "defaultValue" : 0.0,
                                      "interp" : "linr"
                                    }
                                  },
                                  "effects" : [

                                  ],
                                  "start" : 3849,
                                  "duration" : 1233312,
                                  "mediaStart" : 3729,
                                  "mediaDuration" : 1233312,
                                  "scalar" : 1,
                                  "metadata" : {
                                    "AutoAppliedSmartFocus" : "False",
                                    "clipSpeedAttribute" : false,
                                    "default-scale0" : 1.0,
                                    "default-scale1" : 1.0,
                                    "default-translation0" : 0.0,
                                    "default-translation1" : 0.0
                                  },
                                  "animationTracks" : {

                                  }
                                }
                            ],
                            "effects" : [
                                {
                                  "effectName" : "CursorHilight",
                                  "category" : "categoryCursorEffects",
                                  "parameters" : {
                                    "blur" : 0.1,
                                    "color-alpha" : 0.75,
                                    "color-blue" : 0.0,
                                    "color-green" : 1.0,
                                    "color-red" : 1.0,
                                    "radius" : 50.0
                                  }
                                }
                            ],
                            "start" : 1124,
                            "duration" : 56,
                            "mediaStart" : 5213,
                            "mediaDuration" : 56,
                            "scalar" : 1,
                            "metadata" : {
                              "AutoAppliedSmartFocus" : "False",
                              "clipSpeedAttribute" : false
                            },
                            "animationTracks" : {
                              "visual" : [
                                {
                                  "endTime" : 277,
                                  "duration" : 30,
                                  "range" : [ 247, 30]
                                },
                                {
                                  "endTime" : 392,
                                  "duration" : 30,
                                  "range" : [ 362, 30]
                                },
                                {
                                  "endTime" : 706,
                                  "duration" : 30,
                                  "range" : [ 676, 30]
                                },
                                {
                                  "endTime" : 2366,
                                  "duration" : 30,
                                  "range" : [ 2336, 30]
                                },
                                {
                                  "endTime" : 2701,
                                  "duration" : 30,
                                  "range" : [ 2671, 30]
                                },
                                {
                                  "endTime" : 3445,
                                  "duration" : 32,
                                  "range" : [ 3413, 32]
                                }
                              ]
                            }
                          }
                        ],
                          "ident" : "",
                          "audioMuted" : false,
                          "videoHidden" : false,
                          "magnetic" : false,
                          "matte" : 0,
                          "metadata" : {
                            "IsLocked" : "False",
                            "WinTrackHeight" : "0"
                          }
                      }
                    ],
                    "attributes" : {
                      "ident" : "Group 1",
                      "gain" : 1.0,
                      "mixToMono" : false
                    },
                    "effects" : [

                    ],
                    "start" : 3183,
                    "duration" : 188,
                    "mediaStart" : 992.0,
                    "mediaDuration" : 188.0,
                    "scalar" : 1,
                    "metadata" : {
                      "IsGroupExpanded" : "False",
                      "default-scale0" : 1.0,
                      "default-scale1" : 1.0,
                      "default-translation0" : 2.27373675443232e-13,
                      "default-translation1" : -1.13686837721616e-13
                    },
                    "animationTracks" : {
                      "visual" : [
                        {
                          "endTime" : 30,
                          "duration" : 30,
                          "range" : [ 0, 30]
                        },
                        {
                          "endTime" : 121,
                          "duration" : 30,
                          "range" : [ 91, 30]
                        },
                        {
                          "endTime" : 158,
                          "duration" : 31,
                          "range" : [ 127, 31]
                        },
                        {
                          "endTime" : 683,
                          "duration" : 30,
                          "range" : [ 653, 30]
                        },
                        {
                          "endTime" : 805,
                          "duration" : 30,
                          "range" : [ 775, 30]
                        },
                        {
                          "endTime" : 1027,
                          "duration" : 30,
                          "range" : [ 997, 30]
                        }
                      ]
                    }
                  },
                  {
                    "id" : 179,
                    "_type" : "ScreenVMFile",
                    "src" : 2,
                    "trackNumber" : 0,
                    "attributes" : {
                      "ident" : "handle_hijacking_attack"
                    },
                    "parameters" : {
                      "cursorScale" : {
                        "type" : "double",
                        "defaultValue" : 1.0,
                        "interp" : "linr"
                      },
                      "cursorOpacity" : {
                        "type" : "double",
                        "defaultValue" : 1.0,
                        "interp" : "linr"
                      }
                    },
                    "effects" : [
                        {
                          "effectName" : "CursorHilight",
                          "category" : "categoryCursorEffects",
                          "parameters" : {
                            "blur" : 0.1,
                            "color-alpha" : 0.75,
                            "color-blue" : 0.0,
                            "color-green" : 1.0,
                            "color-red" : 1.0,
                            "radius" : 50.0
                          }
                        }
                    ],
                    "start" : 3371,
                    "duration" : 241,
                    "mediaStart" : 5149,
                    "mediaDuration" : 1205212,
                    "scalar" : "241/1205212",
                    "metadata" : {
                      "AutoAppliedSmartFocus" : "False",
                      "clipSpeedAttribute" : true
                    },
                    "animationTracks" : {

                    }
                  },
                  {
                    "id" : 180,
                    "_type" : "StitchedMedia",
                    "minMediaStart" : 0,
                    "attributes" : {
                      "ident" : "handle_hijacking_attack",
                      "gain" : 1.0,
                      "mixToMono" : false
                    },
                    "parameters" : {
                      "cursorOpacity" : 1.0,
                      "cursorScale" : 1.0
                    },
                    "medias" : [
                        {
                          "id" : 181,
                          "_type" : "ScreenVMFile",
                          "src" : 2,
                          "trackNumber" : 0,
                          "attributes" : {
                            "ident" : "handle_hijacking_attack"
                          },
                          "parameters" : {
                            "cursorScale" : {
                              "type" : "double",
                              "defaultValue" : 0.0,
                              "interp" : "linr"
                            },
                            "cursorOpacity" : {
                              "type" : "double",
                              "defaultValue" : 0.0,
                              "interp" : "linr"
                            }
                          },
                          "effects" : [

                          ],
                          "start" : 0,
                          "duration" : 1210560,
                          "mediaStart" : 0,
                          "mediaDuration" : 1210560,
                          "scalar" : 1,
                          "metadata" : {
                            "AutoAppliedSmartFocus" : "False",
                            "clipSpeedAttribute" : false
                          },
                          "animationTracks" : {

                          }
                        },
                        {
                          "id" : 182,
                          "_type" : "ScreenIMFile",
                          "src" : 2,
                          "trackNumber" : 0,
                          "trimStartSum" : 0,
                          "attributes" : {
                            "ident" : "handle_hijacking_attack"
                          },
                          "parameters" : {
                            "cursorOpacity" : 0.0,
                            "cursorScale" : 0.0
                          },
                          "effects" : [

                          ],
                          "start" : 1210560,
                          "duration" : 120,
                          "mediaStart" : 1210559,
                          "mediaDuration" : 1,
                          "scalar" : 1,
                          "metadata" : {
                            "AutoAppliedSmartFocus" : "False"
                          },
                          "animationTracks" : {

                          }
                        },
                        {
                          "id" : 183,
                          "_type" : "ScreenVMFile",
                          "src" : 2,
                          "trackNumber" : 0,
                          "attributes" : {
                            "ident" : "handle_hijacking_attack"
                          },
                          "parameters" : {
                            "cursorScale" : {
                              "type" : "double",
                              "defaultValue" : 0.0,
                              "interp" : "linr"
                            },
                            "cursorOpacity" : {
                              "type" : "double",
                              "defaultValue" : 0.0,
                              "interp" : "linr"
                            }
                          },
                          "effects" : [

                          ],
                          "start" : 1210680,
                          "duration" : 26481,
                          "mediaStart" : 1210560,
                          "mediaDuration" : 26481,
                          "scalar" : 1,
                          "metadata" : {
                            "AutoAppliedSmartFocus" : "False",
                            "clipSpeedAttribute" : true
                          },
                          "animationTracks" : {

                          }
                        }
                    ],
                    "effects" : [
                        {
                          "effectName" : "CursorHilight",
                          "category" : "categoryCursorEffects",
                          "parameters" : {
                            "blur" : 0.1,
                            "color-alpha" : 0.75,
                            "color-blue" : 0.0,
                            "color-green" : 1.0,
                            "color-red" : 1.0,
                            "radius" : 50.0
                          }
                        }
                    ],
                    "start" : 3612,
                    "duration" : 323,
                    "mediaStart" : 1210361,
                    "mediaDuration" : 323,
                    "scalar" : 1,
                    "metadata" : {
                      "AutoAppliedSmartFocus" : "False",
                      "clipSpeedAttribute" : true
                    },
                    "animationTracks" : {

                    }
                  }
                ]
              },
              {
                "trackIndex" : 4,
                "medias" : [
                  {
                    "id" : 184,
                    "_type" : "Callout",
                    "def" : {
                      "kind" : "remix",
                      "shape" : "text",
                      "style" : "basic",
                      "height" : 255.142857142714,
                      "line-spacing" : 0.0,
                      "width" : 1941.78750000088,
                      "word-wrap" : 1.0,
                      "horizontal-alignment" : "center",
                      "resize-behavior" : "resizeText",
                      "text" : "Reading and overwriting the file opened\r without sharing permission",
                      "vertical-alignment" : "center",
                      "font" : {
                        "color-blue" : 1.0,
                        "color-green" : 1.0,
                        "color-red" : 1.0,
                        "size" : 96.0,
                        "tracking" : 0.0,
                        "name" : "Montserrat",
                        "weight" : "Regular"
                      },
                      "textAttributes" : {
                        "type" : "textAttributeList",
                        "keyframes" : [
                          {
                            "endTime" : 0,
                            "time" : 0,
                            "value" : [{"name":"fontSize","rangeEnd":67,"rangeStart":0,"value":89,"valueType":"double"},{"name":"underline","rangeEnd":67,"rangeStart":0,"value":0,"valueType":"int"},{"name":"fgColor","rangeEnd":67,"rangeStart":0,"value":"(255,255,255,255)","valueType":"color"},{"name":"fontWeight","rangeEnd":67,"rangeStart":0,"value":400,"valueType":"int"},{"name":"fontItalic","rangeEnd":67,"rangeStart":0,"value":0,"valueType":"int"},{"name":"fontName","rangeEnd":67,"rangeStart":0,"value":"Montserrat","valueType":"string"},{"name":"strikethrough","rangeEnd":67,"rangeStart":0,"value":0,"valueType":"int"}],
                            "duration" : 0
                          }
                        ]
                      }
                    },
                    "attributes" : {
                      "autoRotateText" : true
                    },
                    "parameters" : {
                      "translation0" : 0.106249999582143,
                      "translation1" : -328.723214286274
                    },
                    "effects" : [
                        {
                          "effectName" : "DropShadow",
                          "category" : "categoryVisualEffects",
                          "parameters" : {
                            "angle" : 5.49778714378214,
                            "blur" : 10.0,
                            "color-alpha" : 1.0,
                            "color-blue" : 0.1216,
                            "color-green" : 0.1216,
                            "color-red" : 0.1216,
                            "enabled" : 1,
                            "offset" : 10.0,
                            "opacity" : 0.4
                          }
                        }
                    ],
                    "start" : 0,
                    "duration" : 150,
                    "mediaStart" : 0,
                    "mediaDuration" : 150,
                    "scalar" : 1,
                    "metadata" : {
                      "WinSubProjectDisplayName" : "",
                      "clipSpeedAttribute" : false,
                      "default-HAlign" : "center",
                      "default-LineSpace" : 0.0,
                      "default-VAlign" : "center",
                      "default-text-attributes" : "[{\"name\":\"strikethrough\",\"rangeEnd\":76,\"rangeStart\":0,\"value\":0,\"valueType\":\"int\"},{\"name\":\"fontItalic\",\"rangeEnd\":76,\"rangeStart\":0,\"value\":0,\"valueType\":\"int\"},{\"name\":\"fontName\",\"rangeEnd\":76,\"rangeStart\":0,\"value\":\"Montserrat\",\"valueType\":\"string\"},{\"name\":\"fgColor\",\"rangeEnd\":76,\"rangeStart\":0,\"value\":\"(255,255,255,255)\",\"valueType\":\"color\"},{\"name\":\"fontSize\",\"rangeEnd\":76,\"rangeStart\":0,\"value\":59,\"valueType\":\"double\"},{\"name\":\"underline\",\"rangeEnd\":76,\"rangeStart\":0,\"value\":0,\"valueType\":\"int\"},{\"name\":\"fontWeight\",\"rangeEnd\":76,\"rangeStart\":0,\"value\":400,\"valueType\":\"int\"}]",
                      "default-translation0" : 0.0,
                      "default-translation1" : 0.0
                    },
                    "animationTracks" : {

                    }
                  },
                  {
                    "id" : 185,
                    "_type" : "Callout",
                    "def" : {
                      "kind" : "remix",
                      "shape" : "text-rectangle",
                      "style" : "basic",
                      "fill-color-blue" : 0.270588235294118,
                      "fill-color-green" : 0.243137254901961,
                      "fill-color-opacity" : 1.0,
                      "fill-color-red" : 0.211764705882353,
                      "height" : 139.714285714328,
                      "line-spacing" : 0.0,
                      "stroke-color-blue" : 0.890196078431372,
                      "stroke-color-green" : 0.870588235294118,
                      "stroke-color-opacity" : 1.0,
                      "stroke-color-red" : 0.847058823529412,
                      "stroke-width" : 2.0,
                      "tail-x" : -540.364583333164,
                      "tail-y" : -37.1428571428358,
                      "width" : 2011.51249999993,
                      "word-wrap" : 1.0,
                      "fill-style" : "solid",
                      "horizontal-alignment" : "center",
                      "resize-behavior" : "resizeText",
                      "stroke-style" : "solid",
                      "text" : "Checking the Windows version via calling winver",
                      "vertical-alignment" : "center",
                      "font" : {
                        "color-blue" : 0.266666666666667,
                        "color-green" : 0.231372549019608,
                        "color-opacity" : 1.0,
                        "color-red" : 0.184313725490196,
                        "size" : 64.0,
                        "tracking" : 0.0,
                        "name" : "Montserrat",
                        "weight" : "Regular"
                      },
                      "textAttributes" : {
                        "type" : "textAttributeList",
                        "keyframes" : [
                          {
                            "endTime" : 0,
                            "time" : 0,
                            "value" : [{"name":"fontSize","rangeEnd":47,"rangeStart":0,"value":80,"valueType":"double"},{"name":"fontName","rangeEnd":47,"rangeStart":0,"value":"Montserrat","valueType":"string"},{"name":"strikethrough","rangeEnd":47,"rangeStart":0,"value":0,"valueType":"int"},{"name":"kerning","rangeEnd":47,"rangeStart":0,"value":0,"valueType":"double"},{"name":"fgColor","rangeEnd":47,"rangeStart":0,"value":"(255,255,255,255)","valueType":"color"},{"name":"underline","rangeEnd":47,"rangeStart":0,"value":0,"valueType":"int"},{"name":"fontWeight","rangeEnd":47,"rangeStart":0,"value":400,"valueType":"int"},{"name":"fontItalic","rangeEnd":47,"rangeStart":0,"value":0,"valueType":"int"}],
                            "duration" : 0
                          }
                        ]
                      }
                    },
                    "attributes" : {
                      "autoRotateText" : true
                    },
                    "parameters" : {
                      "translation0" : 5.51310108676262e-11,
                      "translation1" : -545.513392857376
                    },
                    "effects" : [
                        {
                          "effectName" : "DropShadow",
                          "category" : "categoryVisualEffects",
                          "parameters" : {
                            "angle" : 5.49778714378214,
                            "blur" : 10.0,
                            "color-alpha" : 1.0,
                            "color-blue" : 0.1216,
                            "color-green" : 0.1216,
                            "color-red" : 0.1216,
                            "enabled" : 1,
                            "offset" : 10.0,
                            "opacity" : 0.4
                          }
                        }
                    ],
                    "start" : 163,
                    "duration" : 72,
                    "mediaStart" : -11,
                    "mediaDuration" : 72,
                    "scalar" : 1,
                    "metadata" : {
                      "WinSubProjectDisplayName" : "",
                      "clipSpeedAttribute" : false,
                      "default-HAlign" : "center",
                      "default-LineSpace" : 0.0,
                      "default-VAlign" : "center",
                      "default-fill-color-blue" : 1.0,
                      "default-fill-color-green" : 1.0,
                      "default-fill-color-red" : 1.0,
                      "default-scale0" : 1.0,
                      "default-scale1" : 1.0,
                      "default-stroke-color-blue" : 0.56078431372549,
                      "default-stroke-color-green" : 0.686274509803922,
                      "default-stroke-color-red" : 0.0196078431372549,
                      "default-text-attributes" : "[{\"name\":\"fontSize\",\"rangeEnd\":32,\"rangeStart\":0,\"value\":64,\"valueType\":\"double\"},{\"name\":\"fgColor\",\"rangeEnd\":32,\"rangeStart\":0,\"value\":\"(255,255,255,255)\",\"valueType\":\"color\"},{\"name\":\"fontWeight\",\"rangeEnd\":32,\"rangeStart\":0,\"value\":400,\"valueType\":\"int\"},{\"name\":\"fontName\",\"rangeEnd\":32,\"rangeStart\":0,\"value\":\"Montserrat\",\"valueType\":\"string\"},{\"name\":\"fontItalic\",\"rangeEnd\":32,\"rangeStart\":0,\"value\":0,\"valueType\":\"int\"},{\"name\":\"strikethrough\",\"rangeEnd\":32,\"rangeStart\":0,\"value\":0,\"valueType\":\"int\"},{\"name\":\"underline\",\"rangeEnd\":32,\"rangeStart\":0,\"value\":0,\"valueType\":\"int\"}]",
                      "default-translation0" : 0.0,
                      "default-translation1" : 0.0
                    },
                    "animationTracks" : {

                    }
                  },
                  {
                    "id" : 186,
                    "_type" : "Callout",
                    "def" : {
                      "kind" : "remix",
                      "shape" : "text-rectangle",
                      "style" : "basic",
                      "fill-color-blue" : 0.270588235294118,
                      "fill-color-green" : 0.243137254901961,
                      "fill-color-opacity" : 1.0,
                      "fill-color-red" : 0.211764705882353,
                      "height" : 150.0,
                      "line-spacing" : 0.0,
                      "stroke-color-blue" : 0.890196078431372,
                      "stroke-color-green" : 0.870588235294118,
                      "stroke-color-opacity" : 1.0,
                      "stroke-color-red" : 0.847058823529412,
                      "stroke-width" : 2.0,
                      "tail-x" : -540.364583333164,
                      "tail-y" : -20.0,
                      "width" : 1734.06249999994,
                      "word-wrap" : 1.0,
                      "fill-style" : "solid",
                      "horizontal-alignment" : "center",
                      "resize-behavior" : "resizeText",
                      "stroke-style" : "solid",
                      "text" : "We have the final version 1903",
                      "vertical-alignment" : "center",
                      "font" : {
                        "color-blue" : 0.266666666666667,
                        "color-green" : 0.231372549019608,
                        "color-opacity" : 1.0,
                        "color-red" : 0.184313725490196,
                        "size" : 64.0,
                        "tracking" : 0.0,
                        "name" : "Montserrat",
                        "weight" : "Regular"
                      },
                      "textAttributes" : {
                        "type" : "textAttributeList",
                        "keyframes" : [
                          {
                            "endTime" : 0,
                            "time" : 0,
                            "value" : [{"name":"fontSize","rangeEnd":30,"rangeStart":0,"value":80,"valueType":"double"},{"name":"fontItalic","rangeEnd":30,"rangeStart":0,"value":0,"valueType":"int"},{"name":"fontWeight","rangeEnd":30,"rangeStart":0,"value":400,"valueType":"int"},{"name":"fgColor","rangeEnd":30,"rangeStart":0,"value":"(255,255,255,255)","valueType":"color"},{"name":"strikethrough","rangeEnd":30,"rangeStart":0,"value":0,"valueType":"int"},{"name":"fontName","rangeEnd":30,"rangeStart":0,"value":"Montserrat","valueType":"string"},{"name":"underline","rangeEnd":30,"rangeStart":0,"value":0,"valueType":"int"},{"name":"kerning","rangeEnd":30,"rangeStart":0,"value":0,"valueType":"double"}],
                            "duration" : 0
                          }
                        ]
                      }
                    },
                    "attributes" : {
                      "autoRotateText" : true
                    },
                    "parameters" : {
                      "translation0" : -59.9999999999848,
                      "translation1" : -615.370535714687
                    },
                    "effects" : [
                        {
                          "effectName" : "DropShadow",
                          "category" : "categoryVisualEffects",
                          "parameters" : {
                            "angle" : 5.49778714378214,
                            "blur" : 10.0,
                            "color-alpha" : 1.0,
                            "color-blue" : 0.1216,
                            "color-green" : 0.1216,
                            "color-red" : 0.1216,
                            "enabled" : 1,
                            "offset" : 10.0,
                            "opacity" : 0.4
                          }
                        }
                    ],
                    "start" : 235,
                    "duration" : 85,
                    "mediaStart" : -24,
                    "mediaDuration" : 85,
                    "scalar" : 1,
                    "metadata" : {
                      "WinSubProjectDisplayName" : "",
                      "clipSpeedAttribute" : false,
                      "default-HAlign" : "center",
                      "default-LineSpace" : 0.0,
                      "default-VAlign" : "center",
                      "default-fill-color-blue" : 1.0,
                      "default-fill-color-green" : 1.0,
                      "default-fill-color-red" : 1.0,
                      "default-scale0" : 1.0,
                      "default-scale1" : 1.0,
                      "default-stroke-color-blue" : 0.56078431372549,
                      "default-stroke-color-green" : 0.686274509803922,
                      "default-stroke-color-red" : 0.0196078431372549,
                      "default-text-attributes" : "[{\"name\":\"fontSize\",\"rangeEnd\":32,\"rangeStart\":0,\"value\":64,\"valueType\":\"double\"},{\"name\":\"fgColor\",\"rangeEnd\":32,\"rangeStart\":0,\"value\":\"(255,255,255,255)\",\"valueType\":\"color\"},{\"name\":\"fontWeight\",\"rangeEnd\":32,\"rangeStart\":0,\"value\":400,\"valueType\":\"int\"},{\"name\":\"fontName\",\"rangeEnd\":32,\"rangeStart\":0,\"value\":\"Montserrat\",\"valueType\":\"string\"},{\"name\":\"fontItalic\",\"rangeEnd\":32,\"rangeStart\":0,\"value\":0,\"valueType\":\"int\"},{\"name\":\"strikethrough\",\"rangeEnd\":32,\"rangeStart\":0,\"value\":0,\"valueType\":\"int\"},{\"name\":\"underline\",\"rangeEnd\":32,\"rangeStart\":0,\"value\":0,\"valueType\":\"int\"}]",
                      "default-translation0" : 0.0,
                      "default-translation1" : 0.0
                    },
                    "animationTracks" : {

                    }
                  },
                  {
                    "id" : 187,
                    "_type" : "Callout",
                    "def" : {
                      "kind" : "remix",
                      "shape" : "text-rectangle",
                      "style" : "basic",
                      "fill-color-blue" : 0.270588235294118,
                      "fill-color-green" : 0.243137254901961,
                      "fill-color-opacity" : 1.0,
                      "fill-color-red" : 0.211764705882353,
                      "height" : 194.0,
                      "line-spacing" : 0.0,
                      "stroke-color-blue" : 0.890196078431372,
                      "stroke-color-green" : 0.870588235294118,
                      "stroke-color-opacity" : 1.0,
                      "stroke-color-red" : 0.847058823529412,
                      "stroke-width" : 2.0,
                      "tail-x" : -540.364583333164,
                      "tail-y" : -20.0,
                      "width" : 2242.72083333326,
                      "word-wrap" : 1.0,
                      "fill-style" : "solid",
                      "horizontal-alignment" : "center",
                      "resize-behavior" : "resizeText",
                      "stroke-style" : "solid",
                      "text" : "The researcher is launching the app,\rwhich loads a driver.",
                      "vertical-alignment" : "center",
                      "font" : {
                        "color-blue" : 0.266666666666667,
                        "color-green" : 0.231372549019608,
                        "color-opacity" : 1.0,
                        "color-red" : 0.184313725490196,
                        "size" : 64.0,
                        "tracking" : 0.0,
                        "name" : "Montserrat",
                        "weight" : "Regular"
                      },
                      "textAttributes" : {
                        "type" : "textAttributeList",
                        "keyframes" : [
                          {
                            "endTime" : 0,
                            "time" : 0,
                            "value" : [{"name":"fontSize","rangeEnd":58,"rangeStart":0,"value":80,"valueType":"double"},{"name":"fontName","rangeEnd":58,"rangeStart":0,"value":"Montserrat","valueType":"string"},{"name":"fontItalic","rangeEnd":58,"rangeStart":0,"value":0,"valueType":"int"},{"name":"underline","rangeEnd":58,"rangeStart":0,"value":0,"valueType":"int"},{"name":"strikethrough","rangeEnd":58,"rangeStart":0,"value":0,"valueType":"int"},{"name":"fgColor","rangeEnd":58,"rangeStart":0,"value":"(255,255,255,255)","valueType":"color"},{"name":"fontWeight","rangeEnd":58,"rangeStart":0,"value":400,"valueType":"int"}],
                            "duration" : 0
                          }
                        ]
                      }
                    },
                    "attributes" : {
                      "autoRotateText" : true
                    },
                    "parameters" : {
                      "translation0" : 34.4047619045587,
                      "translation1" : -539.799107143004
                    },
                    "effects" : [
                        {
                          "effectName" : "DropShadow",
                          "category" : "categoryVisualEffects",
                          "parameters" : {
                            "angle" : 5.49778714378214,
                            "blur" : 10.0,
                            "color-alpha" : 1.0,
                            "color-blue" : 0.1216,
                            "color-green" : 0.1216,
                            "color-red" : 0.1216,
                            "enabled" : 1,
                            "offset" : 10.0,
                            "opacity" : 0.4
                          }
                        }
                    ],
                    "start" : 351,
                    "duration" : 91,
                    "mediaStart" : -24,
                    "mediaDuration" : 91,
                    "scalar" : 1,
                    "metadata" : {
                      "WinSubProjectDisplayName" : "",
                      "clipSpeedAttribute" : false,
                      "default-HAlign" : "center",
                      "default-LineSpace" : 0.0,
                      "default-VAlign" : "center",
                      "default-fill-color-blue" : 1.0,
                      "default-fill-color-green" : 1.0,
                      "default-fill-color-red" : 1.0,
                      "default-stroke-color-blue" : 0.56078431372549,
                      "default-stroke-color-green" : 0.686274509803922,
                      "default-stroke-color-red" : 0.0196078431372549,
                      "default-text-attributes" : "[{\"name\":\"fontSize\",\"rangeEnd\":32,\"rangeStart\":0,\"value\":64,\"valueType\":\"double\"},{\"name\":\"fgColor\",\"rangeEnd\":32,\"rangeStart\":0,\"value\":\"(255,255,255,255)\",\"valueType\":\"color\"},{\"name\":\"fontWeight\",\"rangeEnd\":32,\"rangeStart\":0,\"value\":400,\"valueType\":\"int\"},{\"name\":\"fontName\",\"rangeEnd\":32,\"rangeStart\":0,\"value\":\"Montserrat\",\"valueType\":\"string\"},{\"name\":\"fontItalic\",\"rangeEnd\":32,\"rangeStart\":0,\"value\":0,\"valueType\":\"int\"},{\"name\":\"strikethrough\",\"rangeEnd\":32,\"rangeStart\":0,\"value\":0,\"valueType\":\"int\"},{\"name\":\"underline\",\"rangeEnd\":32,\"rangeStart\":0,\"value\":0,\"valueType\":\"int\"}]",
                      "default-translation0" : 0.0,
                      "default-translation1" : 0.0
                    },
                    "animationTracks" : {

                    }
                  },
                  {
                    "id" : 188,
                    "_type" : "Callout",
                    "def" : {
                      "kind" : "remix",
                      "shape" : "text-rectangle",
                      "style" : "basic",
                      "fill-color-blue" : 0.270588235294118,
                      "fill-color-green" : 0.243137254901961,
                      "fill-color-opacity" : 1.0,
                      "fill-color-red" : 0.211764705882353,
                      "height" : 139.714285714274,
                      "line-spacing" : 0.0,
                      "stroke-color-blue" : 0.890196078431372,
                      "stroke-color-green" : 0.870588235294118,
                      "stroke-color-opacity" : 1.0,
                      "stroke-color-red" : 0.847058823529412,
                      "stroke-width" : 2.0,
                      "tail-x" : -453.928571428609,
                      "tail-y" : 29.6428571428547,
                      "width" : 2299.62662337759,
                      "word-wrap" : 1.0,
                      "fill-style" : "solid",
                      "horizontal-alignment" : "center",
                      "resize-behavior" : "resizeText",
                      "stroke-style" : "solid",
                      "text" : "The researcher is creating a new file 'secret_formula.txt'",
                      "vertical-alignment" : "center",
                      "font" : {
                        "color-blue" : 0.266666666666667,
                        "color-green" : 0.231372549019608,
                        "color-opacity" : 1.0,
                        "color-red" : 0.184313725490196,
                        "size" : 64.0,
                        "tracking" : 0.0,
                        "name" : "Montserrat",
                        "weight" : "Regular"
                      },
                      "textAttributes" : {
                        "type" : "textAttributeList",
                        "keyframes" : [
                          {
                            "endTime" : 0,
                            "time" : 0,
                            "value" : [{"name":"fgColor","rangeEnd":58,"rangeStart":0,"value":"(255,255,255,255)","valueType":"color"},{"name":"fontSize","rangeEnd":58,"rangeStart":0,"value":80,"valueType":"double"},{"name":"kerning","rangeEnd":58,"rangeStart":0,"value":0,"valueType":"double"},{"name":"fontWeight","rangeEnd":58,"rangeStart":0,"value":400,"valueType":"int"},{"name":"strikethrough","rangeEnd":58,"rangeStart":0,"value":0,"valueType":"int"},{"name":"underline","rangeEnd":58,"rangeStart":0,"value":0,"valueType":"int"},{"name":"fontItalic","rangeEnd":58,"rangeStart":0,"value":0,"valueType":"int"},{"name":"fontName","rangeEnd":58,"rangeStart":0,"value":"Montserrat","valueType":"string"}],
                            "duration" : 0
                          }
                        ]
                      }
                    },
                    "attributes" : {
                      "autoRotateText" : true
                    },
                    "parameters" : {
                      "translation0" : -52.0312499999964,
                      "translation1" : -612.29910714291
                    },
                    "effects" : [
                        {
                          "effectName" : "DropShadow",
                          "category" : "categoryVisualEffects",
                          "parameters" : {
                            "angle" : 5.49778714378214,
                            "blur" : 10.0,
                            "color-alpha" : 1.0,
                            "color-blue" : 0.1216,
                            "color-green" : 0.1216,
                            "color-red" : 0.1216,
                            "enabled" : 1,
                            "offset" : 10.0,
                            "opacity" : 0.4
                          }
                        }
                    ],
                    "start" : 517,
                    "duration" : 79,
                    "mediaStart" : -8,
                    "mediaDuration" : 79,
                    "scalar" : 1,
                    "metadata" : {
                      "WinSubProjectDisplayName" : "",
                      "clipSpeedAttribute" : false,
                      "default-HAlign" : "center",
                      "default-LineSpace" : 0.0,
                      "default-VAlign" : "center",
                      "default-fill-color-blue" : 1.0,
                      "default-fill-color-green" : 1.0,
                      "default-fill-color-red" : 1.0,
                      "default-scale0" : 1.0,
                      "default-scale1" : 1.0,
                      "default-stroke-color-blue" : 0.56078431372549,
                      "default-stroke-color-green" : 0.686274509803922,
                      "default-stroke-color-red" : 0.0196078431372549,
                      "default-text-attributes" : "[{\"name\":\"fontSize\",\"rangeEnd\":32,\"rangeStart\":0,\"value\":64,\"valueType\":\"double\"},{\"name\":\"fgColor\",\"rangeEnd\":32,\"rangeStart\":0,\"value\":\"(255,255,255,255)\",\"valueType\":\"color\"},{\"name\":\"fontWeight\",\"rangeEnd\":32,\"rangeStart\":0,\"value\":400,\"valueType\":\"int\"},{\"name\":\"fontName\",\"rangeEnd\":32,\"rangeStart\":0,\"value\":\"Montserrat\",\"valueType\":\"string\"},{\"name\":\"fontItalic\",\"rangeEnd\":32,\"rangeStart\":0,\"value\":0,\"valueType\":\"int\"},{\"name\":\"strikethrough\",\"rangeEnd\":32,\"rangeStart\":0,\"value\":0,\"valueType\":\"int\"},{\"name\":\"underline\",\"rangeEnd\":32,\"rangeStart\":0,\"value\":0,\"valueType\":\"int\"}]",
                      "default-translation0" : 0.0,
                      "default-translation1" : 0.0
                    },
                    "animationTracks" : {

                    }
                  },
                  {
                    "id" : 189,
                    "_type" : "Callout",
                    "def" : {
                      "kind" : "remix",
                      "shape" : "text-rectangle",
                      "style" : "basic",
                      "fill-color-blue" : 0.270588235294118,
                      "fill-color-green" : 0.243137254901961,
                      "fill-color-opacity" : 1.0,
                      "fill-color-red" : 0.211764705882353,
                      "height" : 126.666666666661,
                      "line-spacing" : 0.0,
                      "stroke-color-blue" : 0.890196078431372,
                      "stroke-color-green" : 0.870588235294118,
                      "stroke-color-opacity" : 1.0,
                      "stroke-color-red" : 0.847058823529412,
                      "stroke-width" : 2.0,
                      "tail-x" : -406.249999999963,
                      "tail-y" : 3.33333333331352,
                      "width" : 337.500000000259,
                      "word-wrap" : 1.0,
                      "fill-style" : "solid",
                      "horizontal-alignment" : "center",
                      "resize-behavior" : "resizeText",
                      "stroke-style" : "solid",
                      "text" : "Done",
                      "vertical-alignment" : "center",
                      "font" : {
                        "color-blue" : 0.266666666666667,
                        "color-green" : 0.231372549019608,
                        "color-opacity" : 1.0,
                        "color-red" : 0.184313725490196,
                        "size" : 64.0,
                        "tracking" : 0.0,
                        "name" : "Montserrat",
                        "weight" : "Regular"
                      },
                      "textAttributes" : {
                        "type" : "textAttributeList",
                        "keyframes" : [
                          {
                            "endTime" : 0,
                            "time" : 0,
                            "value" : [{"name":"fontWeight","rangeEnd":4,"rangeStart":0,"value":400,"valueType":"int"},{"name":"underline","rangeEnd":4,"rangeStart":0,"value":0,"valueType":"int"},{"name":"fontName","rangeEnd":4,"rangeStart":0,"value":"Montserrat","valueType":"string"},{"name":"fontSize","rangeEnd":4,"rangeStart":0,"value":80,"valueType":"double"},{"name":"fgColor","rangeEnd":4,"rangeStart":0,"value":"(255,255,255,255)","valueType":"color"},{"name":"fontItalic","rangeEnd":4,"rangeStart":0,"value":0,"valueType":"int"},{"name":"strikethrough","rangeEnd":4,"rangeStart":0,"value":0,"valueType":"int"}],
                            "duration" : 0
                          }
                        ]
                      }
                    },
                    "attributes" : {
                      "autoRotateText" : true
                    },
                    "parameters" : {
                      "translation0" : -1.10318865154113e-10,
                      "translation1" : -617.418154762405
                    },
                    "effects" : [
                        {
                          "effectName" : "DropShadow",
                          "category" : "categoryVisualEffects",
                          "parameters" : {
                            "angle" : 5.49778714378214,
                            "blur" : 10.0,
                            "color-alpha" : 1.0,
                            "color-blue" : 0.1216,
                            "color-green" : 0.1216,
                            "color-red" : 0.1216,
                            "enabled" : 1,
                            "offset" : 10.0,
                            "opacity" : 0.4
                          }
                        }
                    ],
                    "start" : 596,
                    "duration" : 31,
                    "mediaStart" : 38,
                    "mediaDuration" : 31,
                    "scalar" : 1,
                    "metadata" : {
                      "WinSubProjectDisplayName" : "",
                      "clipSpeedAttribute" : false,
                      "default-HAlign" : "center",
                      "default-LineSpace" : 0.0,
                      "default-VAlign" : "center",
                      "default-fill-color-blue" : 1.0,
                      "default-fill-color-green" : 1.0,
                      "default-fill-color-red" : 1.0,
                      "default-stroke-color-blue" : 0.56078431372549,
                      "default-stroke-color-green" : 0.686274509803922,
                      "default-stroke-color-red" : 0.0196078431372549,
                      "default-text-attributes" : "[{\"name\":\"fontSize\",\"rangeEnd\":32,\"rangeStart\":0,\"value\":64,\"valueType\":\"double\"},{\"name\":\"fgColor\",\"rangeEnd\":32,\"rangeStart\":0,\"value\":\"(255,255,255,255)\",\"valueType\":\"color\"},{\"name\":\"fontWeight\",\"rangeEnd\":32,\"rangeStart\":0,\"value\":400,\"valueType\":\"int\"},{\"name\":\"fontName\",\"rangeEnd\":32,\"rangeStart\":0,\"value\":\"Montserrat\",\"valueType\":\"string\"},{\"name\":\"fontItalic\",\"rangeEnd\":32,\"rangeStart\":0,\"value\":0,\"valueType\":\"int\"},{\"name\":\"strikethrough\",\"rangeEnd\":32,\"rangeStart\":0,\"value\":0,\"valueType\":\"int\"},{\"name\":\"underline\",\"rangeEnd\":32,\"rangeStart\":0,\"value\":0,\"valueType\":\"int\"}]",
                      "default-translation0" : 0.0,
                      "default-translation1" : 0.0
                    },
                    "animationTracks" : {

                    }
                  },
                  {
                    "id" : 190,
                    "_type" : "Callout",
                    "def" : {
                      "kind" : "remix",
                      "shape" : "text-rectangle",
                      "style" : "basic",
                      "fill-color-blue" : 0.270588235294118,
                      "fill-color-green" : 0.243137254901961,
                      "fill-color-opacity" : 1.0,
                      "fill-color-red" : 0.211764705882353,
                      "height" : 145.428571428425,
                      "line-spacing" : 0.0,
                      "stroke-color-blue" : 0.890196078431372,
                      "stroke-color-green" : 0.870588235294118,
                      "stroke-color-opacity" : 1.0,
                      "stroke-color-red" : 0.847058823529412,
                      "stroke-width" : 2.0,
                      "tail-x" : -921.071428571424,
                      "tail-y" : 26.1607142858396,
                      "width" : 2295.26890756632,
                      "word-wrap" : 1.0,
                      "fill-style" : "solid",
                      "horizontal-alignment" : "center",
                      "resize-behavior" : "resizeText",
                      "stroke-style" : "solid",
                      "text" : "The researcher is saving a new secret formula",
                      "vertical-alignment" : "center",
                      "font" : {
                        "color-blue" : 0.266666666666667,
                        "color-green" : 0.231372549019608,
                        "color-opacity" : 1.0,
                        "color-red" : 0.184313725490196,
                        "size" : 64.0,
                        "tracking" : 0.0,
                        "name" : "Montserrat",
                        "weight" : "Regular"
                      },
                      "textAttributes" : {
                        "type" : "textAttributeList",
                        "keyframes" : [
                          {
                            "endTime" : 0,
                            "time" : 0,
                            "value" : [{"name":"underline","rangeEnd":45,"rangeStart":0,"value":0,"valueType":"int"},{"name":"fontName","rangeEnd":45,"rangeStart":0,"value":"Montserrat","valueType":"string"},{"name":"strikethrough","rangeEnd":45,"rangeStart":0,"value":0,"valueType":"int"},{"name":"fgColor","rangeEnd":45,"rangeStart":0,"value":"(255,255,255,255)","valueType":"color"},{"name":"fontWeight","rangeEnd":45,"rangeStart":0,"value":400,"valueType":"int"},{"name":"fontSize","rangeEnd":45,"rangeStart":0,"value":80,"valueType":"double"},{"name":"fontItalic","rangeEnd":45,"rangeStart":0,"value":0,"valueType":"int"}],
                            "duration" : 0
                          }
                        ]
                      }
                    },
                    "attributes" : {
                      "autoRotateText" : true
                    },
                    "parameters" : {
                      "translation0" : -1.05046638054773e-10,
                      "translation1" : -615.857142857512
                    },
                    "effects" : [

                    ],
                    "start" : 627,
                    "duration" : 94,
                    "mediaStart" : 0,
                    "mediaDuration" : 94,
                    "scalar" : 1,
                    "metadata" : {
                      "WinSubProjectDisplayName" : "",
                      "clipSpeedAttribute" : false,
                      "default-HAlign" : "center",
                      "default-LineSpace" : 0.0,
                      "default-VAlign" : "center",
                      "default-fill-color-blue" : 1.0,
                      "default-fill-color-green" : 1.0,
                      "default-fill-color-red" : 1.0,
                      "default-stroke-color-blue" : 0.56078431372549,
                      "default-stroke-color-green" : 0.686274509803922,
                      "default-stroke-color-red" : 0.0196078431372549,
                      "default-text-attributes" : "[{\"name\":\"fontSize\",\"rangeEnd\":32,\"rangeStart\":0,\"value\":64,\"valueType\":\"double\"},{\"name\":\"fgColor\",\"rangeEnd\":32,\"rangeStart\":0,\"value\":\"(255,255,255,255)\",\"valueType\":\"color\"},{\"name\":\"fontWeight\",\"rangeEnd\":32,\"rangeStart\":0,\"value\":400,\"valueType\":\"int\"},{\"name\":\"fontName\",\"rangeEnd\":32,\"rangeStart\":0,\"value\":\"Montserrat\",\"valueType\":\"string\"},{\"name\":\"fontItalic\",\"rangeEnd\":32,\"rangeStart\":0,\"value\":0,\"valueType\":\"int\"},{\"name\":\"strikethrough\",\"rangeEnd\":32,\"rangeStart\":0,\"value\":0,\"valueType\":\"int\"},{\"name\":\"underline\",\"rangeEnd\":32,\"rangeStart\":0,\"value\":0,\"valueType\":\"int\"}]",
                      "default-translation0" : 0.0,
                      "default-translation1" : 0.0
                    },
                    "animationTracks" : {

                    }
                  },
                  {
                    "id" : 191,
                    "_type" : "Callout",
                    "def" : {
                      "kind" : "remix",
                      "shape" : "text-rectangle",
                      "style" : "basic",
                      "fill-color-blue" : 0.270588235294118,
                      "fill-color-green" : 0.243137254901961,
                      "fill-color-opacity" : 1.0,
                      "fill-color-red" : 0.211764705882353,
                      "height" : 120.535714285313,
                      "line-spacing" : 0.0,
                      "stroke-color-blue" : 0.890196078431372,
                      "stroke-color-green" : 0.870588235294118,
                      "stroke-color-opacity" : 1.0,
                      "stroke-color-red" : 0.847058823529412,
                      "stroke-width" : 2.0,
                      "tail-x" : 76.0714285713867,
                      "tail-y" : -5.26785714265661,
                      "width" : 419.37500000019,
                      "word-wrap" : 1.0,
                      "fill-style" : "solid",
                      "horizontal-alignment" : "center",
                      "resize-behavior" : "resizeText",
                      "stroke-style" : "solid",
                      "text" : "Done",
                      "vertical-alignment" : "center",
                      "font" : {
                        "color-blue" : 0.266666666666667,
                        "color-green" : 0.231372549019608,
                        "color-opacity" : 1.0,
                        "color-red" : 0.184313725490196,
                        "size" : 64.0,
                        "tracking" : 0.0,
                        "name" : "Montserrat",
                        "weight" : "Regular"
                      },
                      "textAttributes" : {
                        "type" : "textAttributeList",
                        "keyframes" : [
                          {
                            "endTime" : 0,
                            "time" : 0,
                            "value" : [{"name":"strikethrough","rangeEnd":4,"rangeStart":0,"value":0,"valueType":"int"},{"name":"fontSize","rangeEnd":4,"rangeStart":0,"value":80,"valueType":"double"},{"name":"fontName","rangeEnd":4,"rangeStart":0,"value":"Montserrat","valueType":"string"},{"name":"underline","rangeEnd":4,"rangeStart":0,"value":0,"valueType":"int"},{"name":"fgColor","rangeEnd":4,"rangeStart":0,"value":"(255,255,255,255)","valueType":"color"},{"name":"fontItalic","rangeEnd":4,"rangeStart":0,"value":0,"valueType":"int"},{"name":"fontWeight","rangeEnd":4,"rangeStart":0,"value":400,"valueType":"int"}],
                            "duration" : 0
                          }
                        ]
                      }
                    },
                    "attributes" : {
                      "autoRotateText" : true
                    },
                    "parameters" : {
                      "translation0" : 4.28571428573525,
                      "translation1" : -620.24553571478
                    },
                    "effects" : [
                        {
                          "effectName" : "DropShadow",
                          "category" : "categoryVisualEffects",
                          "parameters" : {
                            "angle" : 5.49778714378214,
                            "blur" : 10.0,
                            "color-alpha" : 1.0,
                            "color-blue" : 0.1216,
                            "color-green" : 0.1216,
                            "color-red" : 0.1216,
                            "enabled" : 1,
                            "offset" : 10.0,
                            "opacity" : 0.4
                          }
                        }
                    ],
                    "start" : 724,
                    "duration" : 35,
                    "mediaStart" : 1,
                    "mediaDuration" : 35,
                    "scalar" : 1,
                    "metadata" : {
                      "WinSubProjectDisplayName" : "",
                      "clipSpeedAttribute" : false,
                      "default-HAlign" : "center",
                      "default-LineSpace" : 0.0,
                      "default-VAlign" : "center",
                      "default-fill-color-blue" : 1.0,
                      "default-fill-color-green" : 1.0,
                      "default-fill-color-red" : 1.0,
                      "default-stroke-color-blue" : 0.56078431372549,
                      "default-stroke-color-green" : 0.686274509803922,
                      "default-stroke-color-red" : 0.0196078431372549,
                      "default-text-attributes" : "[{\"name\":\"fontSize\",\"rangeEnd\":32,\"rangeStart\":0,\"value\":64,\"valueType\":\"double\"},{\"name\":\"fgColor\",\"rangeEnd\":32,\"rangeStart\":0,\"value\":\"(255,255,255,255)\",\"valueType\":\"color\"},{\"name\":\"fontWeight\",\"rangeEnd\":32,\"rangeStart\":0,\"value\":400,\"valueType\":\"int\"},{\"name\":\"fontName\",\"rangeEnd\":32,\"rangeStart\":0,\"value\":\"Montserrat\",\"valueType\":\"string\"},{\"name\":\"fontItalic\",\"rangeEnd\":32,\"rangeStart\":0,\"value\":0,\"valueType\":\"int\"},{\"name\":\"strikethrough\",\"rangeEnd\":32,\"rangeStart\":0,\"value\":0,\"valueType\":\"int\"},{\"name\":\"underline\",\"rangeEnd\":32,\"rangeStart\":0,\"value\":0,\"valueType\":\"int\"}]",
                      "default-translation0" : 0.0,
                      "default-translation1" : 0.0
                    },
                    "animationTracks" : {

                    }
                  },
                  {
                    "id" : 192,
                    "_type" : "Callout",
                    "def" : {
                      "kind" : "remix",
                      "shape" : "text-rectangle",
                      "style" : "basic",
                      "fill-color-blue" : 0.270588235294118,
                      "fill-color-green" : 0.243137254901961,
                      "fill-color-opacity" : 1.0,
                      "fill-color-red" : 0.211764705882353,
                      "height" : 124.583333333219,
                      "line-spacing" : 0.0,
                      "stroke-color-blue" : 0.890196078431372,
                      "stroke-color-green" : 0.870588235294118,
                      "stroke-color-opacity" : 1.0,
                      "stroke-color-red" : 0.847058823529412,
                      "stroke-width" : 2.0,
                      "tail-x" : -55.8333333332519,
                      "tail-y" : -7.29166666660954,
                      "width" : 946.041666666676,
                      "word-wrap" : 1.0,
                      "fill-style" : "solid",
                      "horizontal-alignment" : "center",
                      "resize-behavior" : "resizeText",
                      "stroke-style" : "solid",
                      "text" : "Checking the data",
                      "vertical-alignment" : "center",
                      "font" : {
                        "color-blue" : 0.266666666666667,
                        "color-green" : 0.231372549019608,
                        "color-opacity" : 1.0,
                        "color-red" : 0.184313725490196,
                        "size" : 64.0,
                        "tracking" : 0.0,
                        "name" : "Montserrat",
                        "weight" : "Regular"
                      },
                      "textAttributes" : {
                        "type" : "textAttributeList",
                        "keyframes" : [
                          {
                            "endTime" : 0,
                            "time" : 0,
                            "value" : [{"name":"underline","rangeEnd":17,"rangeStart":0,"value":0,"valueType":"int"},{"name":"fontName","rangeEnd":17,"rangeStart":0,"value":"Montserrat","valueType":"string"},{"name":"fontSize","rangeEnd":17,"rangeStart":0,"value":80,"valueType":"double"},{"name":"fgColor","rangeEnd":17,"rangeStart":0,"value":"(255,255,255,255)","valueType":"color"},{"name":"strikethrough","rangeEnd":17,"rangeStart":0,"value":0,"valueType":"int"},{"name":"fontItalic","rangeEnd":17,"rangeStart":0,"value":0,"valueType":"int"},{"name":"fontWeight","rangeEnd":17,"rangeStart":0,"value":400,"valueType":"int"}],
                            "duration" : 0
                          }
                        ]
                      }
                    },
                    "attributes" : {
                      "autoRotateText" : true
                    },
                    "parameters" : {
                      "translation0" : -2.00941485672956e-10,
                      "translation1" : -614.412202381115
                    },
                    "effects" : [
                        {
                          "effectName" : "DropShadow",
                          "category" : "categoryVisualEffects",
                          "parameters" : {
                            "angle" : 5.49778714378214,
                            "blur" : 10.0,
                            "color-alpha" : 1.0,
                            "color-blue" : 0.1216,
                            "color-green" : 0.1216,
                            "color-red" : 0.1216,
                            "enabled" : 1,
                            "offset" : 10.0,
                            "opacity" : 0.4
                          }
                        }
                    ],
                    "start" : 762,
                    "duration" : 63,
                    "mediaStart" : 0,
                    "mediaDuration" : 63,
                    "scalar" : 1,
                    "metadata" : {
                      "WinSubProjectDisplayName" : "",
                      "clipSpeedAttribute" : false,
                      "default-HAlign" : "center",
                      "default-LineSpace" : 0.0,
                      "default-VAlign" : "center",
                      "default-fill-color-blue" : 1.0,
                      "default-fill-color-green" : 1.0,
                      "default-fill-color-red" : 1.0,
                      "default-stroke-color-blue" : 0.56078431372549,
                      "default-stroke-color-green" : 0.686274509803922,
                      "default-stroke-color-red" : 0.0196078431372549,
                      "default-text-attributes" : "[{\"name\":\"fontSize\",\"rangeEnd\":32,\"rangeStart\":0,\"value\":64,\"valueType\":\"double\"},{\"name\":\"fgColor\",\"rangeEnd\":32,\"rangeStart\":0,\"value\":\"(255,255,255,255)\",\"valueType\":\"color\"},{\"name\":\"fontWeight\",\"rangeEnd\":32,\"rangeStart\":0,\"value\":400,\"valueType\":\"int\"},{\"name\":\"fontName\",\"rangeEnd\":32,\"rangeStart\":0,\"value\":\"Montserrat\",\"valueType\":\"string\"},{\"name\":\"fontItalic\",\"rangeEnd\":32,\"rangeStart\":0,\"value\":0,\"valueType\":\"int\"},{\"name\":\"strikethrough\",\"rangeEnd\":32,\"rangeStart\":0,\"value\":0,\"valueType\":\"int\"},{\"name\":\"underline\",\"rangeEnd\":32,\"rangeStart\":0,\"value\":0,\"valueType\":\"int\"}]",
                      "default-translation0" : 0.0,
                      "default-translation1" : 0.0
                    },
                    "animationTracks" : {

                    }
                  },
                  {
                    "id" : 193,
                    "_type" : "Callout",
                    "def" : {
                      "kind" : "remix",
                      "shape" : "text-rectangle",
                      "style" : "basic",
                      "fill-color-blue" : 0.270588235294118,
                      "fill-color-green" : 0.243137254901961,
                      "fill-color-opacity" : 1.0,
                      "fill-color-red" : 0.211764705882353,
                      "height" : 106.249999999895,
                      "line-spacing" : 0.0,
                      "stroke-color-blue" : 0.890196078431372,
                      "stroke-color-green" : 0.870588235294118,
                      "stroke-color-opacity" : 1.0,
                      "stroke-color-red" : 0.847058823529412,
                      "stroke-width" : 2.0,
                      "tail-x" : -462.499999999966,
                      "tail-y" : 1.8750000000523,
                      "width" : 1759.3750000001,
                      "word-wrap" : 1.0,
                      "fill-style" : "solid",
                      "horizontal-alignment" : "center",
                      "resize-behavior" : "resizeText",
                      "stroke-style" : "solid",
                      "text" : "The secret formula has been saved.",
                      "vertical-alignment" : "center",
                      "font" : {
                        "color-blue" : 0.266666666666667,
                        "color-green" : 0.231372549019608,
                        "color-opacity" : 1.0,
                        "color-red" : 0.184313725490196,
                        "size" : 64.0,
                        "tracking" : 0.0,
                        "name" : "Montserrat",
                        "weight" : "Regular"
                      },
                      "textAttributes" : {
                        "type" : "textAttributeList",
                        "keyframes" : [
                          {
                            "endTime" : 0,
                            "time" : 0,
                            "value" : [{"name":"fontName","rangeEnd":34,"rangeStart":0,"value":"Montserrat","valueType":"string"},{"name":"fgColor","rangeEnd":34,"rangeStart":0,"value":"(255,255,255,255)","valueType":"color"},{"name":"fontItalic","rangeEnd":34,"rangeStart":0,"value":0,"valueType":"int"},{"name":"fontWeight","rangeEnd":34,"rangeStart":0,"value":400,"valueType":"int"},{"name":"fontSize","rangeEnd":34,"rangeStart":0,"value":80,"valueType":"double"},{"name":"underline","rangeEnd":34,"rangeStart":0,"value":0,"valueType":"int"},{"name":"strikethrough","rangeEnd":34,"rangeStart":0,"value":0,"valueType":"int"}],
                            "duration" : 0
                          }
                        ]
                      }
                    },
                    "attributes" : {
                      "autoRotateText" : true
                    },
                    "parameters" : {
                      "translation0" : -7.93676235844032e-12,
                      "translation1" : -627.388392857574
                    },
                    "effects" : [
                        {
                          "effectName" : "DropShadow",
                          "category" : "categoryVisualEffects",
                          "parameters" : {
                            "angle" : 5.49778714378214,
                            "blur" : 10.0,
                            "color-alpha" : 1.0,
                            "color-blue" : 0.1216,
                            "color-green" : 0.1216,
                            "color-red" : 0.1216,
                            "enabled" : 1,
                            "offset" : 10.0,
                            "opacity" : 0.4
                          }
                        }
                    ],
                    "start" : 845,
                    "duration" : 207,
                    "mediaStart" : 8,
                    "mediaDuration" : 207,
                    "scalar" : 1,
                    "metadata" : {
                      "WinSubProjectDisplayName" : "",
                      "clipSpeedAttribute" : false,
                      "default-HAlign" : "center",
                      "default-LineSpace" : 0.0,
                      "default-VAlign" : "center",
                      "default-fill-color-blue" : 1.0,
                      "default-fill-color-green" : 1.0,
                      "default-fill-color-red" : 1.0,
                      "default-stroke-color-blue" : 0.56078431372549,
                      "default-stroke-color-green" : 0.686274509803922,
                      "default-stroke-color-red" : 0.0196078431372549,
                      "default-text-attributes" : "[{\"name\":\"fontSize\",\"rangeEnd\":32,\"rangeStart\":0,\"value\":64,\"valueType\":\"double\"},{\"name\":\"fgColor\",\"rangeEnd\":32,\"rangeStart\":0,\"value\":\"(255,255,255,255)\",\"valueType\":\"color\"},{\"name\":\"fontWeight\",\"rangeEnd\":32,\"rangeStart\":0,\"value\":400,\"valueType\":\"int\"},{\"name\":\"fontName\",\"rangeEnd\":32,\"rangeStart\":0,\"value\":\"Montserrat\",\"valueType\":\"string\"},{\"name\":\"fontItalic\",\"rangeEnd\":32,\"rangeStart\":0,\"value\":0,\"valueType\":\"int\"},{\"name\":\"strikethrough\",\"rangeEnd\":32,\"rangeStart\":0,\"value\":0,\"valueType\":\"int\"},{\"name\":\"underline\",\"rangeEnd\":32,\"rangeStart\":0,\"value\":0,\"valueType\":\"int\"}]",
                      "default-translation0" : 0.0,
                      "default-translation1" : 0.0
                    },
                    "animationTracks" : {

                    }
                  },
                  {
                    "id" : 194,
                    "_type" : "Callout",
                    "def" : {
                      "kind" : "remix",
                      "shape" : "text-rectangle",
                      "style" : "basic",
                      "fill-color-blue" : 0.270588235294118,
                      "fill-color-green" : 0.243137254901961,
                      "fill-color-opacity" : 1.0,
                      "fill-color-red" : 0.211764705882353,
                      "height" : 106.249999999895,
                      "line-spacing" : 0.0,
                      "stroke-color-blue" : 0.890196078431372,
                      "stroke-color-green" : 0.870588235294118,
                      "stroke-color-opacity" : 1.0,
                      "stroke-color-red" : 0.847058823529412,
                      "stroke-width" : 2.0,
                      "tail-x" : -462.499999999966,
                      "tail-y" : 1.8750000000523,
                      "width" : 1759.3750000001,
                      "word-wrap" : 1.0,
                      "fill-style" : "solid",
                      "horizontal-alignment" : "center",
                      "resize-behavior" : "resizeText",
                      "stroke-style" : "solid",
                      "text" : "The researcher is having tea.",
                      "vertical-alignment" : "center",
                      "font" : {
                        "color-blue" : 0.266666666666667,
                        "color-green" : 0.231372549019608,
                        "color-opacity" : 1.0,
                        "color-red" : 0.184313725490196,
                        "size" : 64.0,
                        "tracking" : 0.0,
                        "name" : "Montserrat",
                        "weight" : "Regular"
                      },
                      "textAttributes" : {
                        "type" : "textAttributeList",
                        "keyframes" : [
                          {
                            "endTime" : 0,
                            "time" : 0,
                            "value" : [{"name":"underline","rangeEnd":29,"rangeStart":0,"value":0,"valueType":"int"},{"name":"fontWeight","rangeEnd":29,"rangeStart":0,"value":400,"valueType":"int"},{"name":"fgColor","rangeEnd":29,"rangeStart":0,"value":"(255,255,255,255)","valueType":"color"},{"name":"fontName","rangeEnd":29,"rangeStart":0,"value":"Montserrat","valueType":"string"},{"name":"strikethrough","rangeEnd":29,"rangeStart":0,"value":0,"valueType":"int"},{"name":"fontSize","rangeEnd":29,"rangeStart":0,"value":80,"valueType":"double"},{"name":"fontItalic","rangeEnd":29,"rangeStart":0,"value":0,"valueType":"int"}],
                            "duration" : 0
                          }
                        ]
                      }
                    },
                    "attributes" : {
                      "autoRotateText" : true
                    },
                    "parameters" : {
                      "translation0" : -9.11626329980209e-11,
                      "translation1" : -621.674107143272
                    },
                    "effects" : [
                        {
                          "effectName" : "DropShadow",
                          "category" : "categoryVisualEffects",
                          "parameters" : {
                            "angle" : 5.49778714378214,
                            "blur" : 10.0,
                            "color-alpha" : 1.0,
                            "color-blue" : 0.1216,
                            "color-green" : 0.1216,
                            "color-red" : 0.1216,
                            "enabled" : 1,
                            "offset" : 10.0,
                            "opacity" : 0.4
                          }
                        }
                    ],
                    "start" : 1053,
                    "duration" : 248,
                    "mediaStart" : 39,
                    "mediaDuration" : 248,
                    "scalar" : 1,
                    "metadata" : {
                      "WinSubProjectDisplayName" : "",
                      "clipSpeedAttribute" : false,
                      "default-HAlign" : "center",
                      "default-LineSpace" : 0.0,
                      "default-VAlign" : "center",
                      "default-fill-color-blue" : 1.0,
                      "default-fill-color-green" : 1.0,
                      "default-fill-color-red" : 1.0,
                      "default-stroke-color-blue" : 0.56078431372549,
                      "default-stroke-color-green" : 0.686274509803922,
                      "default-stroke-color-red" : 0.0196078431372549,
                      "default-text-attributes" : "[{\"name\":\"fontSize\",\"rangeEnd\":32,\"rangeStart\":0,\"value\":64,\"valueType\":\"double\"},{\"name\":\"fgColor\",\"rangeEnd\":32,\"rangeStart\":0,\"value\":\"(255,255,255,255)\",\"valueType\":\"color\"},{\"name\":\"fontWeight\",\"rangeEnd\":32,\"rangeStart\":0,\"value\":400,\"valueType\":\"int\"},{\"name\":\"fontName\",\"rangeEnd\":32,\"rangeStart\":0,\"value\":\"Montserrat\",\"valueType\":\"string\"},{\"name\":\"fontItalic\",\"rangeEnd\":32,\"rangeStart\":0,\"value\":0,\"valueType\":\"int\"},{\"name\":\"strikethrough\",\"rangeEnd\":32,\"rangeStart\":0,\"value\":0,\"valueType\":\"int\"},{\"name\":\"underline\",\"rangeEnd\":32,\"rangeStart\":0,\"value\":0,\"valueType\":\"int\"}]",
                      "default-translation0" : 0.0,
                      "default-translation1" : 0.0
                    },
                    "animationTracks" : {

                    }
                  },
                  {
                    "id" : 195,
                    "_type" : "Callout",
                    "def" : {
                      "kind" : "remix",
                      "shape" : "text-rectangle",
                      "style" : "basic",
                      "fill-color-blue" : 0.270588235294118,
                      "fill-color-green" : 0.243137254901961,
                      "fill-color-opacity" : 1.0,
                      "fill-color-red" : 0.211764705882353,
                      "height" : 136.857142856973,
                      "line-spacing" : 0.0,
                      "stroke-color-blue" : 0.890196078431372,
                      "stroke-color-green" : 0.870588235294118,
                      "stroke-color-opacity" : 1.0,
                      "stroke-color-red" : 0.847058823529412,
                      "stroke-width" : 2.0,
                      "tail-x" : -901.071428571436,
                      "tail-y" : 30.4464285715659,
                      "width" : 2335.2689075663,
                      "word-wrap" : 1.0,
                      "fill-style" : "solid",
                      "horizontal-alignment" : "center",
                      "resize-behavior" : "resizeText",
                      "stroke-style" : "solid",
                      "text" : "The attacker is launching the app, which loads its driver",
                      "vertical-alignment" : "center",
                      "font" : {
                        "color-blue" : 0.266666666666667,
                        "color-green" : 0.231372549019608,
                        "color-opacity" : 1.0,
                        "color-red" : 0.184313725490196,
                        "size" : 64.0,
                        "tracking" : 0.0,
                        "name" : "Montserrat",
                        "weight" : "Regular"
                      },
                      "textAttributes" : {
                        "type" : "textAttributeList",
                        "keyframes" : [
                          {
                            "endTime" : 0,
                            "time" : 0,
                            "value" : [{"name":"fontSize","rangeEnd":57,"rangeStart":0,"value":80,"valueType":"double"},{"name":"kerning","rangeEnd":57,"rangeStart":0,"value":0,"valueType":"double"},{"name":"fontItalic","rangeEnd":57,"rangeStart":0,"value":0,"valueType":"int"},{"name":"fontWeight","rangeEnd":57,"rangeStart":0,"value":400,"valueType":"int"},{"name":"strikethrough","rangeEnd":57,"rangeStart":0,"value":0,"valueType":"int"},{"name":"underline","rangeEnd":57,"rangeStart":0,"value":0,"valueType":"int"},{"name":"fgColor","rangeEnd":57,"rangeStart":0,"value":"(255,255,255,255)","valueType":"color"},{"name":"fontName","rangeEnd":57,"rangeStart":0,"value":"Montserrat","valueType":"string"}],
                            "duration" : 0
                          }
                        ]
                      }
                    },
                    "attributes" : {
                      "autoRotateText" : true
                    },
                    "parameters" : {
                      "translation0" : -7.65112417866476e-11,
                      "translation1" : -614.428571428914
                    },
                    "effects" : [
                        {
                          "effectName" : "DropShadow",
                          "category" : "categoryVisualEffects",
                          "parameters" : {
                            "angle" : 5.49778714378214,
                            "blur" : 10.0,
                            "color-alpha" : 1.0,
                            "color-blue" : 0.1216,
                            "color-green" : 0.1216,
                            "color-red" : 0.1216,
                            "enabled" : 1,
                            "offset" : 10.0,
                            "opacity" : 0.4
                          }
                        }
                    ],
                    "start" : 1301,
                    "duration" : 89,
                    "mediaStart" : -31,
                    "mediaDuration" : 89,
                    "scalar" : 1,
                    "metadata" : {
                      "WinSubProjectDisplayName" : "",
                      "clipSpeedAttribute" : false,
                      "default-HAlign" : "center",
                      "default-LineSpace" : 0.0,
                      "default-VAlign" : "center",
                      "default-fill-color-blue" : 1.0,
                      "default-fill-color-green" : 1.0,
                      "default-fill-color-red" : 1.0,
                      "default-stroke-color-blue" : 0.56078431372549,
                      "default-stroke-color-green" : 0.686274509803922,
                      "default-stroke-color-red" : 0.0196078431372549,
                      "default-text-attributes" : "[{\"name\":\"fontSize\",\"rangeEnd\":32,\"rangeStart\":0,\"value\":64,\"valueType\":\"double\"},{\"name\":\"fgColor\",\"rangeEnd\":32,\"rangeStart\":0,\"value\":\"(255,255,255,255)\",\"valueType\":\"color\"},{\"name\":\"fontWeight\",\"rangeEnd\":32,\"rangeStart\":0,\"value\":400,\"valueType\":\"int\"},{\"name\":\"fontName\",\"rangeEnd\":32,\"rangeStart\":0,\"value\":\"Montserrat\",\"valueType\":\"string\"},{\"name\":\"fontItalic\",\"rangeEnd\":32,\"rangeStart\":0,\"value\":0,\"valueType\":\"int\"},{\"name\":\"strikethrough\",\"rangeEnd\":32,\"rangeStart\":0,\"value\":0,\"valueType\":\"int\"},{\"name\":\"underline\",\"rangeEnd\":32,\"rangeStart\":0,\"value\":0,\"valueType\":\"int\"}]",
                      "default-translation0" : 0.0,
                      "default-translation1" : 0.0
                    },
                    "animationTracks" : {

                    }
                  },
                  {
                    "id" : 196,
                    "_type" : "Callout",
                    "def" : {
                      "kind" : "remix",
                      "shape" : "text-rectangle",
                      "style" : "basic",
                      "fill-color-blue" : 0.270588235294118,
                      "fill-color-green" : 0.243137254901961,
                      "fill-color-opacity" : 1.0,
                      "fill-color-red" : 0.211764705882353,
                      "height" : 145.428571428374,
                      "line-spacing" : 0.0,
                      "stroke-color-blue" : 0.890196078431372,
                      "stroke-color-green" : 0.870588235294118,
                      "stroke-color-opacity" : 1.0,
                      "stroke-color-red" : 0.847058823529412,
                      "stroke-width" : 2.0,
                      "tail-x" : -892.499999999965,
                      "tail-y" : 26.1607142858651,
                      "width" : 2483.84033613794,
                      "word-wrap" : 1.0,
                      "fill-style" : "solid",
                      "horizontal-alignment" : "center",
                      "resize-behavior" : "resizeText",
                      "stroke-style" : "solid",
                      "text" : "The attacker is trying to open the secret file using ZwCreateFile",
                      "vertical-alignment" : "center",
                      "font" : {
                        "color-blue" : 0.266666666666667,
                        "color-green" : 0.231372549019608,
                        "color-opacity" : 1.0,
                        "color-red" : 0.184313725490196,
                        "size" : 64.0,
                        "tracking" : 0.0,
                        "name" : "Montserrat",
                        "weight" : "Regular"
                      },
                      "textAttributes" : {
                        "type" : "textAttributeList",
                        "keyframes" : [
                          {
                            "endTime" : 0,
                            "time" : 0,
                            "value" : [{"name":"underline","rangeEnd":65,"rangeStart":0,"value":0,"valueType":"int"},{"name":"fontItalic","rangeEnd":65,"rangeStart":0,"value":0,"valueType":"int"},{"name":"fontName","rangeEnd":65,"rangeStart":0,"value":"Montserrat","valueType":"string"},{"name":"fontSize","rangeEnd":65,"rangeStart":0,"value":76,"valueType":"double"},{"name":"strikethrough","rangeEnd":65,"rangeStart":0,"value":0,"valueType":"int"},{"name":"fontWeight","rangeEnd":65,"rangeStart":0,"value":400,"valueType":"int"},{"name":"fgColor","rangeEnd":65,"rangeStart":0,"value":"(255,255,255,255)","valueType":"color"}],
                            "duration" : 0
                          }
                        ]
                      }
                    },
                    "attributes" : {
                      "autoRotateText" : true
                    },
                    "parameters" : {
                      "translation0" : -2.06821226811371e-11,
                      "translation1" : -615.857141767424
                    },
                    "effects" : [
                        {
                          "effectName" : "DropShadow",
                          "category" : "categoryVisualEffects",
                          "parameters" : {
                            "angle" : 5.49778714378214,
                            "blur" : 10.0,
                            "color-alpha" : 1.0,
                            "color-blue" : 0.1216,
                            "color-green" : 0.1216,
                            "color-red" : 0.1216,
                            "enabled" : 1,
                            "offset" : 10.0,
                            "opacity" : 0.4
                          }
                        }
                    ],
                    "start" : 1448,
                    "duration" : 76,
                    "mediaStart" : -15,
                    "mediaDuration" : 76,
                    "scalar" : 1,
                    "metadata" : {
                      "WinSubProjectDisplayName" : "",
                      "clipSpeedAttribute" : false,
                      "default-HAlign" : "center",
                      "default-LineSpace" : 0.0,
                      "default-VAlign" : "center",
                      "default-fill-color-blue" : 1.0,
                      "default-fill-color-green" : 1.0,
                      "default-fill-color-red" : 1.0,
                      "default-stroke-color-blue" : 0.56078431372549,
                      "default-stroke-color-green" : 0.686274509803922,
                      "default-stroke-color-red" : 0.0196078431372549,
                      "default-text-attributes" : "[{\"name\":\"fontSize\",\"rangeEnd\":32,\"rangeStart\":0,\"value\":64,\"valueType\":\"double\"},{\"name\":\"fgColor\",\"rangeEnd\":32,\"rangeStart\":0,\"value\":\"(255,255,255,255)\",\"valueType\":\"color\"},{\"name\":\"fontWeight\",\"rangeEnd\":32,\"rangeStart\":0,\"value\":400,\"valueType\":\"int\"},{\"name\":\"fontName\",\"rangeEnd\":32,\"rangeStart\":0,\"value\":\"Montserrat\",\"valueType\":\"string\"},{\"name\":\"fontItalic\",\"rangeEnd\":32,\"rangeStart\":0,\"value\":0,\"valueType\":\"int\"},{\"name\":\"strikethrough\",\"rangeEnd\":32,\"rangeStart\":0,\"value\":0,\"valueType\":\"int\"},{\"name\":\"underline\",\"rangeEnd\":32,\"rangeStart\":0,\"value\":0,\"valueType\":\"int\"}]",
                      "default-translation0" : 0.0,
                      "default-translation1" : 0.0
                    },
                    "animationTracks" : {

                    }
                  },
                  {
                    "id" : 197,
                    "_type" : "Callout",
                    "def" : {
                      "kind" : "remix",
                      "shape" : "text-rectangle",
                      "style" : "basic",
                      "fill-color-blue" : 0.2,
                      "fill-color-green" : 0.4,
                      "fill-color-opacity" : 1.0,
                      "fill-color-red" : 0.0,
                      "height" : 204.571428571274,
                      "line-spacing" : 0.0,
                      "stroke-color-blue" : 0.890196078431372,
                      "stroke-color-green" : 0.870588235294118,
                      "stroke-color-opacity" : 1.0,
                      "stroke-color-red" : 0.847058823529412,
                      "stroke-width" : 2.0,
                      "tail-x" : -23.9285714285793,
                      "tail-y" : 8.42261904773302,
                      "width" : 2073.26220614985,
                      "word-wrap" : 1.0,
                      "fill-style" : "solid",
                      "horizontal-alignment" : "center",
                      "resize-behavior" : "resizeText",
                      "stroke-style" : "solid",
                      "text" : "The attacker fails to open the secret file and \rgets 0xC0000043 or STATUS_SHARING_VIOLATION",
                      "vertical-alignment" : "center",
                      "font" : {
                        "color-blue" : 0.266666666666667,
                        "color-green" : 0.231372549019608,
                        "color-opacity" : 1.0,
                        "color-red" : 0.184313725490196,
                        "size" : 64.0,
                        "tracking" : 0.0,
                        "name" : "Montserrat",
                        "weight" : "Regular"
                      },
                      "textAttributes" : {
                        "type" : "textAttributeList",
                        "keyframes" : [
                          {
                            "endTime" : 0,
                            "time" : 0,
                            "value" : [{"name":"fontWeight","rangeEnd":91,"rangeStart":0,"value":400,"valueType":"int"},{"name":"fgColor","rangeEnd":91,"rangeStart":0,"value":"(255,255,255,255)","valueType":"color"},{"name":"fontItalic","rangeEnd":91,"rangeStart":0,"value":0,"valueType":"int"},{"name":"fontName","rangeEnd":91,"rangeStart":0,"value":"Montserrat","valueType":"string"},{"name":"underline","rangeEnd":91,"rangeStart":0,"value":0,"valueType":"int"},{"name":"strikethrough","rangeEnd":91,"rangeStart":0,"value":0,"valueType":"int"},{"name":"fontSize","rangeEnd":91,"rangeStart":0,"value":75,"valueType":"double"}],
                            "duration" : 0
                          }
                        ]
                      }
                    },
                    "attributes" : {
                      "autoRotateText" : true
                    },
                    "parameters" : {
                      "translation0" : -62.0312499999958,
                      "translation1" : -582.5074404765
                    },
                    "effects" : [
                        {
                          "effectName" : "DropShadow",
                          "category" : "categoryVisualEffects",
                          "parameters" : {
                            "angle" : 5.49778714378214,
                            "blur" : 10.0,
                            "color-alpha" : 1.0,
                            "color-blue" : 0.1216,
                            "color-green" : 0.1216,
                            "color-red" : 0.1216,
                            "enabled" : 1,
                            "offset" : 10.0,
                            "opacity" : 0.4
                          }
                        }
                    ],
                    "start" : 1555,
                    "duration" : 149,
                    "mediaStart" : -14,
                    "mediaDuration" : 149,
                    "scalar" : 1,
                    "metadata" : {
                      "WinSubProjectDisplayName" : "",
                      "clipSpeedAttribute" : false,
                      "default-HAlign" : "center",
                      "default-LineSpace" : 0.0,
                      "default-VAlign" : "center",
                      "default-fill-color-blue" : 1.0,
                      "default-fill-color-green" : 1.0,
                      "default-fill-color-red" : 1.0,
                      "default-scale0" : 1.0,
                      "default-scale1" : 1.0,
                      "default-stroke-color-blue" : 0.56078431372549,
                      "default-stroke-color-green" : 0.686274509803922,
                      "default-stroke-color-red" : 0.0196078431372549,
                      "default-text-attributes" : "[{\"name\":\"fontSize\",\"rangeEnd\":32,\"rangeStart\":0,\"value\":64,\"valueType\":\"double\"},{\"name\":\"fgColor\",\"rangeEnd\":32,\"rangeStart\":0,\"value\":\"(255,255,255,255)\",\"valueType\":\"color\"},{\"name\":\"fontWeight\",\"rangeEnd\":32,\"rangeStart\":0,\"value\":400,\"valueType\":\"int\"},{\"name\":\"fontName\",\"rangeEnd\":32,\"rangeStart\":0,\"value\":\"Montserrat\",\"valueType\":\"string\"},{\"name\":\"fontItalic\",\"rangeEnd\":32,\"rangeStart\":0,\"value\":0,\"valueType\":\"int\"},{\"name\":\"strikethrough\",\"rangeEnd\":32,\"rangeStart\":0,\"value\":0,\"valueType\":\"int\"},{\"name\":\"underline\",\"rangeEnd\":32,\"rangeStart\":0,\"value\":0,\"valueType\":\"int\"}]",
                      "default-translation0" : 0.0,
                      "default-translation1" : 0.0
                    },
                    "animationTracks" : {

                    }
                  },
                  {
                    "id" : 198,
                    "_type" : "Callout",
                    "def" : {
                      "kind" : "remix",
                      "shape" : "text-rectangle",
                      "style" : "basic",
                      "fill-color-blue" : 0.270588235294118,
                      "fill-color-green" : 0.243137254901961,
                      "fill-color-opacity" : 1.0,
                      "fill-color-red" : 0.211764705882353,
                      "height" : 113.999999999909,
                      "line-spacing" : 0.0,
                      "stroke-color-blue" : 0.890196078431372,
                      "stroke-color-green" : 0.870588235294118,
                      "stroke-color-opacity" : 1.0,
                      "stroke-color-red" : 0.847058823529412,
                      "stroke-width" : 2.0,
                      "tail-x" : 100.855663516278,
                      "tail-y" : 41.8750000000979,
                      "width" : 2202.20239846126,
                      "word-wrap" : 1.0,
                      "fill-style" : "solid",
                      "horizontal-alignment" : "center",
                      "resize-behavior" : "resizeText",
                      "stroke-style" : "solid",
                      "text" : "The attacker is trying Handle Hijacking Attack",
                      "vertical-alignment" : "center",
                      "font" : {
                        "color-blue" : 0.266666666666667,
                        "color-green" : 0.231372549019608,
                        "color-opacity" : 1.0,
                        "color-red" : 0.184313725490196,
                        "size" : 64.0,
                        "tracking" : 0.0,
                        "name" : "Montserrat",
                        "weight" : "Regular"
                      },
                      "textAttributes" : {
                        "type" : "textAttributeList",
                        "keyframes" : [
                          {
                            "endTime" : 0,
                            "time" : 0,
                            "value" : [{"name":"fontItalic","rangeEnd":46,"rangeStart":0,"value":0,"valueType":"int"},{"name":"kerning","rangeEnd":46,"rangeStart":0,"value":0,"valueType":"double"},{"name":"fontWeight","rangeEnd":46,"rangeStart":0,"value":400,"valueType":"int"},{"name":"strikethrough","rangeEnd":46,"rangeStart":0,"value":0,"valueType":"int"},{"name":"fontName","rangeEnd":46,"rangeStart":0,"value":"Montserrat","valueType":"string"},{"name":"fontSize","rangeEnd":46,"rangeStart":0,"value":80,"valueType":"double"},{"name":"underline","rangeEnd":46,"rangeStart":0,"value":0,"valueType":"int"},{"name":"fgColor","rangeEnd":46,"rangeStart":0,"value":"(255,255,255,255)","valueType":"color"}],
                            "duration" : 0
                          }
                        ]
                      }
                    },
                    "attributes" : {
                      "autoRotateText" : true
                    },
                    "parameters" : {
                      "translation0" : -7.62128138376283e-11,
                      "translation1" : -613.102678571784
                    },
                    "effects" : [
                        {
                          "effectName" : "DropShadow",
                          "category" : "categoryVisualEffects",
                          "parameters" : {
                            "angle" : 5.49778714378214,
                            "blur" : 10.0,
                            "color-alpha" : 1.0,
                            "color-blue" : 0.1216,
                            "color-green" : 0.1216,
                            "color-red" : 0.1216,
                            "enabled" : 1,
                            "offset" : 10.0,
                            "opacity" : 0.4
                          }
                        }
                    ],
                    "start" : 1771,
                    "duration" : 71,
                    "mediaStart" : -86,
                    "mediaDuration" : 71,
                    "scalar" : 1,
                    "metadata" : {
                      "WinSubProjectDisplayName" : "",
                      "clipSpeedAttribute" : false,
                      "default-HAlign" : "center",
                      "default-LineSpace" : 0.0,
                      "default-VAlign" : "center",
                      "default-fill-color-blue" : 1.0,
                      "default-fill-color-green" : 1.0,
                      "default-fill-color-red" : 1.0,
                      "default-scale0" : 1.0,
                      "default-scale1" : 1.0,
                      "default-stroke-color-blue" : 0.56078431372549,
                      "default-stroke-color-green" : 0.686274509803922,
                      "default-stroke-color-red" : 0.0196078431372549,
                      "default-text-attributes" : "[{\"name\":\"fontSize\",\"rangeEnd\":32,\"rangeStart\":0,\"value\":64,\"valueType\":\"double\"},{\"name\":\"fgColor\",\"rangeEnd\":32,\"rangeStart\":0,\"value\":\"(255,255,255,255)\",\"valueType\":\"color\"},{\"name\":\"fontWeight\",\"rangeEnd\":32,\"rangeStart\":0,\"value\":400,\"valueType\":\"int\"},{\"name\":\"fontName\",\"rangeEnd\":32,\"rangeStart\":0,\"value\":\"Montserrat\",\"valueType\":\"string\"},{\"name\":\"fontItalic\",\"rangeEnd\":32,\"rangeStart\":0,\"value\":0,\"valueType\":\"int\"},{\"name\":\"strikethrough\",\"rangeEnd\":32,\"rangeStart\":0,\"value\":0,\"valueType\":\"int\"},{\"name\":\"underline\",\"rangeEnd\":32,\"rangeStart\":0,\"value\":0,\"valueType\":\"int\"}]",
                      "default-translation0" : 0.0,
                      "default-translation1" : 0.0
                    },
                    "animationTracks" : {

                    }
                  },
                  {
                    "id" : 199,
                    "_type" : "Callout",
                    "def" : {
                      "kind" : "remix",
                      "shape" : "text-rectangle",
                      "style" : "basic",
                      "fill-color-blue" : 0.270588235294118,
                      "fill-color-green" : 0.243137254901961,
                      "fill-color-opacity" : 1.0,
                      "fill-color-red" : 0.211764705882353,
                      "height" : 131.14285714279,
                      "line-spacing" : 0.0,
                      "stroke-color-blue" : 0.890196078431372,
                      "stroke-color-green" : 0.870588235294118,
                      "stroke-color-opacity" : 1.0,
                      "stroke-color-red" : 0.847058823529412,
                      "stroke-width" : 2.0,
                      "tail-x" : -939.542146106441,
                      "tail-y" : 33.3035714286571,
                      "width" : 2429.35319977919,
                      "word-wrap" : 1.0,
                      "fill-style" : "solid",
                      "horizontal-alignment" : "center",
                      "resize-behavior" : "resizeText",
                      "stroke-style" : "solid",
                      "text" : "The attacker is copying the handle of the secret formula file",
                      "vertical-alignment" : "center",
                      "font" : {
                        "color-blue" : 0.266666666666667,
                        "color-green" : 0.231372549019608,
                        "color-opacity" : 1.0,
                        "color-red" : 0.184313725490196,
                        "size" : 64.0,
                        "tracking" : 0.0,
                        "name" : "Montserrat",
                        "weight" : "Regular"
                      },
                      "textAttributes" : {
                        "type" : "textAttributeList",
                        "keyframes" : [
                          {
                            "endTime" : 0,
                            "time" : 0,
                            "value" : [{"name":"strikethrough","rangeEnd":61,"rangeStart":0,"value":0,"valueType":"int"},{"name":"fontWeight","rangeEnd":61,"rangeStart":0,"value":400,"valueType":"int"},{"name":"underline","rangeEnd":61,"rangeStart":0,"value":0,"valueType":"int"},{"name":"fontItalic","rangeEnd":61,"rangeStart":0,"value":0,"valueType":"int"},{"name":"fontName","rangeEnd":61,"rangeStart":0,"value":"Montserrat","valueType":"string"},{"name":"fgColor","rangeEnd":61,"rangeStart":0,"value":"(255,255,255,255)","valueType":"color"},{"name":"fontSize","rangeEnd":61,"rangeStart":0,"value":80,"valueType":"double"},{"name":"kerning","rangeEnd":61,"rangeStart":0,"value":0,"valueType":"double"}],
                            "duration" : 0
                          }
                        ]
                      }
                    },
                    "attributes" : {
                      "autoRotateText" : true
                    },
                    "parameters" : {
                      "translation0" : -14.3864253221465,
                      "translation1" : -621.674107143232
                    },
                    "effects" : [
                        {
                          "effectName" : "DropShadow",
                          "category" : "categoryVisualEffects",
                          "parameters" : {
                            "angle" : 5.49778714378214,
                            "blur" : 10.0,
                            "color-alpha" : 1.0,
                            "color-blue" : 0.1216,
                            "color-green" : 0.1216,
                            "color-red" : 0.1216,
                            "enabled" : 1,
                            "offset" : 10.0,
                            "opacity" : 0.4
                          }
                        }
                    ],
                    "start" : 1875,
                    "duration" : 126,
                    "mediaStart" : -86,
                    "mediaDuration" : 126,
                    "scalar" : 1,
                    "metadata" : {
                      "WinSubProjectDisplayName" : "",
                      "clipSpeedAttribute" : false,
                      "default-HAlign" : "center",
                      "default-LineSpace" : 0.0,
                      "default-VAlign" : "center",
                      "default-fill-color-blue" : 1.0,
                      "default-fill-color-green" : 1.0,
                      "default-fill-color-red" : 1.0,
                      "default-scale0" : 1.0,
                      "default-scale1" : 1.0,
                      "default-stroke-color-blue" : 0.56078431372549,
                      "default-stroke-color-green" : 0.686274509803922,
                      "default-stroke-color-red" : 0.0196078431372549,
                      "default-text-attributes" : "[{\"name\":\"fontSize\",\"rangeEnd\":32,\"rangeStart\":0,\"value\":64,\"valueType\":\"double\"},{\"name\":\"fgColor\",\"rangeEnd\":32,\"rangeStart\":0,\"value\":\"(255,255,255,255)\",\"valueType\":\"color\"},{\"name\":\"fontWeight\",\"rangeEnd\":32,\"rangeStart\":0,\"value\":400,\"valueType\":\"int\"},{\"name\":\"fontName\",\"rangeEnd\":32,\"rangeStart\":0,\"value\":\"Montserrat\",\"valueType\":\"string\"},{\"name\":\"fontItalic\",\"rangeEnd\":32,\"rangeStart\":0,\"value\":0,\"valueType\":\"int\"},{\"name\":\"strikethrough\",\"rangeEnd\":32,\"rangeStart\":0,\"value\":0,\"valueType\":\"int\"},{\"name\":\"underline\",\"rangeEnd\":32,\"rangeStart\":0,\"value\":0,\"valueType\":\"int\"}]",
                      "default-translation0" : 0.0,
                      "default-translation1" : 0.0
                    },
                    "animationTracks" : {

                    }
                  },
                  {
                    "id" : 200,
                    "_type" : "Callout",
                    "def" : {
                      "kind" : "remix",
                      "shape" : "text-rectangle",
                      "style" : "basic",
                      "fill-color-blue" : 0.270588235294118,
                      "fill-color-green" : 0.243137254901961,
                      "fill-color-opacity" : 1.0,
                      "fill-color-red" : 0.211764705882353,
                      "height" : 133.999999999889,
                      "line-spacing" : 0.0,
                      "stroke-color-blue" : 0.890196078431372,
                      "stroke-color-green" : 0.870588235294118,
                      "stroke-color-opacity" : 1.0,
                      "stroke-color-red" : 0.847058823529412,
                      "stroke-width" : 2.0,
                      "tail-x" : -939.642857142901,
                      "tail-y" : 31.8750000001077,
                      "width" : 2258.12605042337,
                      "word-wrap" : 1.0,
                      "fill-style" : "solid",
                      "horizontal-alignment" : "center",
                      "resize-behavior" : "resizeText",
                      "stroke-style" : "solid",
                      "text" : "The attacker is trying to access the secret file",
                      "vertical-alignment" : "center",
                      "font" : {
                        "color-blue" : 0.266666666666667,
                        "color-green" : 0.231372549019608,
                        "color-opacity" : 1.0,
                        "color-red" : 0.184313725490196,
                        "size" : 64.0,
                        "tracking" : 0.0,
                        "name" : "Montserrat",
                        "weight" : "Regular"
                      },
                      "textAttributes" : {
                        "type" : "textAttributeList",
                        "keyframes" : [
                          {
                            "endTime" : 0,
                            "time" : 0,
                            "value" : [{"name":"strikethrough","rangeEnd":48,"rangeStart":0,"value":0,"valueType":"int"},{"name":"fontWeight","rangeEnd":48,"rangeStart":0,"value":400,"valueType":"int"},{"name":"fontName","rangeEnd":48,"rangeStart":0,"value":"Montserrat","valueType":"string"},{"name":"fontSize","rangeEnd":48,"rangeStart":0,"value":80,"valueType":"double"},{"name":"underline","rangeEnd":48,"rangeStart":0,"value":0,"valueType":"int"},{"name":"fgColor","rangeEnd":48,"rangeStart":0,"value":"(255,255,255,255)","valueType":"color"},{"name":"fontItalic","rangeEnd":48,"rangeStart":0,"value":0,"valueType":"int"}],
                            "duration" : 0
                          }
                        ]
                      }
                    },
                    "attributes" : {
                      "autoRotateText" : true
                    },
                    "parameters" : {
                      "translation0" : -8.18545231595635e-12,
                      "translation1" : -620.245535714634
                    },
                    "effects" : [
                        {
                          "effectName" : "DropShadow",
                          "category" : "categoryVisualEffects",
                          "parameters" : {
                            "angle" : 5.49778714378214,
                            "blur" : 10.0,
                            "color-alpha" : 1.0,
                            "color-blue" : 0.1216,
                            "color-green" : 0.1216,
                            "color-red" : 0.1216,
                            "enabled" : 1,
                            "offset" : 10.0,
                            "opacity" : 0.4
                          }
                        }
                    ],
                    "start" : 2068,
                    "duration" : 86,
                    "mediaStart" : -86,
                    "mediaDuration" : 86,
                    "scalar" : 1,
                    "metadata" : {
                      "WinSubProjectDisplayName" : "",
                      "clipSpeedAttribute" : false,
                      "default-HAlign" : "center",
                      "default-LineSpace" : 0.0,
                      "default-VAlign" : "center",
                      "default-fill-color-blue" : 1.0,
                      "default-fill-color-green" : 1.0,
                      "default-fill-color-red" : 1.0,
                      "default-scale0" : 1.0,
                      "default-scale1" : 1.0,
                      "default-stroke-color-blue" : 0.56078431372549,
                      "default-stroke-color-green" : 0.686274509803922,
                      "default-stroke-color-red" : 0.0196078431372549,
                      "default-text-attributes" : "[{\"name\":\"fontSize\",\"rangeEnd\":32,\"rangeStart\":0,\"value\":64,\"valueType\":\"double\"},{\"name\":\"fgColor\",\"rangeEnd\":32,\"rangeStart\":0,\"value\":\"(255,255,255,255)\",\"valueType\":\"color\"},{\"name\":\"fontWeight\",\"rangeEnd\":32,\"rangeStart\":0,\"value\":400,\"valueType\":\"int\"},{\"name\":\"fontName\",\"rangeEnd\":32,\"rangeStart\":0,\"value\":\"Montserrat\",\"valueType\":\"string\"},{\"name\":\"fontItalic\",\"rangeEnd\":32,\"rangeStart\":0,\"value\":0,\"valueType\":\"int\"},{\"name\":\"strikethrough\",\"rangeEnd\":32,\"rangeStart\":0,\"value\":0,\"valueType\":\"int\"},{\"name\":\"underline\",\"rangeEnd\":32,\"rangeStart\":0,\"value\":0,\"valueType\":\"int\"}]",
                      "default-translation0" : 0.0,
                      "default-translation1" : 0.0
                    },
                    "animationTracks" : {

                    }
                  },
                  {
                    "id" : 201,
                    "_type" : "Callout",
                    "def" : {
                      "kind" : "remix",
                      "shape" : "text-rectangle",
                      "style" : "basic",
                      "fill-color-blue" : 0.0,
                      "fill-color-green" : 0.0,
                      "fill-color-opacity" : 1.0,
                      "fill-color-red" : 0.6,
                      "height" : 106.249999999895,
                      "line-spacing" : 0.0,
                      "stroke-color-blue" : 0.890196078431372,
                      "stroke-color-green" : 0.870588235294118,
                      "stroke-color-opacity" : 1.0,
                      "stroke-color-red" : 0.847058823529412,
                      "stroke-width" : 2.0,
                      "tail-x" : -462.499999999966,
                      "tail-y" : 1.8750000000523,
                      "width" : 1759.3750000001,
                      "word-wrap" : 1.0,
                      "fill-style" : "solid",
                      "horizontal-alignment" : "center",
                      "resize-behavior" : "resizeText",
                      "stroke-style" : "solid",
                      "text" : "The secret file has been hijacked!",
                      "vertical-alignment" : "center",
                      "font" : {
                        "color-blue" : 0.266666666666667,
                        "color-green" : 0.231372549019608,
                        "color-opacity" : 1.0,
                        "color-red" : 0.184313725490196,
                        "size" : 64.0,
                        "tracking" : 0.0,
                        "name" : "Montserrat",
                        "weight" : "Regular"
                      },
                      "textAttributes" : {
                        "type" : "textAttributeList",
                        "keyframes" : [
                          {
                            "endTime" : 0,
                            "time" : 0,
                            "value" : [{"name":"fontSize","rangeEnd":34,"rangeStart":0,"value":80,"valueType":"double"},{"name":"fgColor","rangeEnd":34,"rangeStart":0,"value":"(255,255,255,255)","valueType":"color"},{"name":"strikethrough","rangeEnd":34,"rangeStart":0,"value":0,"valueType":"int"},{"name":"fontWeight","rangeEnd":34,"rangeStart":0,"value":400,"valueType":"int"},{"name":"fontItalic","rangeEnd":34,"rangeStart":0,"value":0,"valueType":"int"},{"name":"fontName","rangeEnd":34,"rangeStart":0,"value":"Montserrat","valueType":"string"},{"name":"underline","rangeEnd":34,"rangeStart":0,"value":0,"valueType":"int"}],
                            "duration" : 0
                          }
                        ]
                      }
                    },
                    "attributes" : {
                      "autoRotateText" : true
                    },
                    "parameters" : {
                      "translation0" : -4.55457893622224e-11,
                      "translation1" : -618.816964285938
                    },
                    "effects" : [
                        {
                          "effectName" : "DropShadow",
                          "category" : "categoryVisualEffects",
                          "parameters" : {
                            "angle" : 5.49778714378214,
                            "blur" : 10.0,
                            "color-alpha" : 1.0,
                            "color-blue" : 0.1216,
                            "color-green" : 0.1216,
                            "color-red" : 0.1216,
                            "enabled" : 1,
                            "offset" : 10.0,
                            "opacity" : 0.4
                          }
                        }
                    ],
                    "start" : 2163,
                    "duration" : 136,
                    "mediaStart" : -85,
                    "mediaDuration" : 136,
                    "scalar" : 1,
                    "metadata" : {
                      "WinSubProjectDisplayName" : "",
                      "clipSpeedAttribute" : false,
                      "default-HAlign" : "center",
                      "default-LineSpace" : 0.0,
                      "default-VAlign" : "center",
                      "default-fill-color-blue" : 1.0,
                      "default-fill-color-green" : 1.0,
                      "default-fill-color-red" : 1.0,
                      "default-scale0" : 1.0,
                      "default-scale1" : 1.0,
                      "default-stroke-color-blue" : 0.56078431372549,
                      "default-stroke-color-green" : 0.686274509803922,
                      "default-stroke-color-red" : 0.0196078431372549,
                      "default-text-attributes" : "[{\"name\":\"fontSize\",\"rangeEnd\":32,\"rangeStart\":0,\"value\":64,\"valueType\":\"double\"},{\"name\":\"fgColor\",\"rangeEnd\":32,\"rangeStart\":0,\"value\":\"(255,255,255,255)\",\"valueType\":\"color\"},{\"name\":\"fontWeight\",\"rangeEnd\":32,\"rangeStart\":0,\"value\":400,\"valueType\":\"int\"},{\"name\":\"fontName\",\"rangeEnd\":32,\"rangeStart\":0,\"value\":\"Montserrat\",\"valueType\":\"string\"},{\"name\":\"fontItalic\",\"rangeEnd\":32,\"rangeStart\":0,\"value\":0,\"valueType\":\"int\"},{\"name\":\"strikethrough\",\"rangeEnd\":32,\"rangeStart\":0,\"value\":0,\"valueType\":\"int\"},{\"name\":\"underline\",\"rangeEnd\":32,\"rangeStart\":0,\"value\":0,\"valueType\":\"int\"}]",
                      "default-translation0" : 0.0,
                      "default-translation1" : 0.0
                    },
                    "animationTracks" : {

                    }
                  },
                  {
                    "id" : 202,
                    "_type" : "Callout",
                    "def" : {
                      "kind" : "remix",
                      "shape" : "text-rectangle",
                      "style" : "basic",
                      "fill-color-blue" : 0.270588235294118,
                      "fill-color-green" : 0.243137254901961,
                      "fill-color-opacity" : 1.0,
                      "fill-color-red" : 0.211764705882353,
                      "height" : 106.249999999895,
                      "line-spacing" : 0.0,
                      "stroke-color-blue" : 0.890196078431372,
                      "stroke-color-green" : 0.870588235294118,
                      "stroke-color-opacity" : 1.0,
                      "stroke-color-red" : 0.847058823529412,
                      "stroke-width" : 2.0,
                      "tail-x" : -398.214285714247,
                      "tail-y" : 1.8750000000523,
                      "width" : 1887.94642857154,
                      "word-wrap" : 1.0,
                      "fill-style" : "solid",
                      "horizontal-alignment" : "center",
                      "resize-behavior" : "resizeText",
                      "stroke-style" : "solid",
                      "text" : "The attacker is trying to read the secret file",
                      "vertical-alignment" : "center",
                      "font" : {
                        "color-blue" : 0.266666666666667,
                        "color-green" : 0.231372549019608,
                        "color-opacity" : 1.0,
                        "color-red" : 0.184313725490196,
                        "size" : 64.0,
                        "tracking" : 0.0,
                        "name" : "Montserrat",
                        "weight" : "Regular"
                      },
                      "textAttributes" : {
                        "type" : "textAttributeList",
                        "keyframes" : [
                          {
                            "endTime" : 0,
                            "time" : 0,
                            "value" : [{"name":"fontName","rangeEnd":46,"rangeStart":0,"value":"Montserrat","valueType":"string"},{"name":"fontSize","rangeEnd":46,"rangeStart":0,"value":80,"valueType":"double"},{"name":"underline","rangeEnd":46,"rangeStart":0,"value":0,"valueType":"int"},{"name":"fontWeight","rangeEnd":46,"rangeStart":0,"value":400,"valueType":"int"},{"name":"fontItalic","rangeEnd":46,"rangeStart":0,"value":0,"valueType":"int"},{"name":"strikethrough","rangeEnd":46,"rangeStart":0,"value":0,"valueType":"int"},{"name":"fgColor","rangeEnd":46,"rangeStart":0,"value":"(255,255,255,255)","valueType":"color"}],
                            "duration" : 0
                          }
                        ]
                      }
                    },
                    "attributes" : {
                      "autoRotateText" : true
                    },
                    "parameters" : {
                      "translation0" : -96.3169642857854,
                      "translation1" : -621.67410714309
                    },
                    "effects" : [
                        {
                          "effectName" : "DropShadow",
                          "category" : "categoryVisualEffects",
                          "parameters" : {
                            "angle" : 5.49778714378214,
                            "blur" : 10.0,
                            "color-alpha" : 1.0,
                            "color-blue" : 0.1216,
                            "color-green" : 0.1216,
                            "color-red" : 0.1216,
                            "enabled" : 1,
                            "offset" : 10.0,
                            "opacity" : 0.4
                          }
                        }
                    ],
                    "start" : 2299,
                    "duration" : 65,
                    "mediaStart" : -86,
                    "mediaDuration" : 65,
                    "scalar" : 1,
                    "metadata" : {
                      "WinSubProjectDisplayName" : "",
                      "clipSpeedAttribute" : false,
                      "default-HAlign" : "center",
                      "default-LineSpace" : 0.0,
                      "default-VAlign" : "center",
                      "default-fill-color-blue" : 1.0,
                      "default-fill-color-green" : 1.0,
                      "default-fill-color-red" : 1.0,
                      "default-scale0" : 1.0,
                      "default-scale1" : 1.0,
                      "default-stroke-color-blue" : 0.56078431372549,
                      "default-stroke-color-green" : 0.686274509803922,
                      "default-stroke-color-red" : 0.0196078431372549,
                      "default-text-attributes" : "[{\"name\":\"fontSize\",\"rangeEnd\":32,\"rangeStart\":0,\"value\":64,\"valueType\":\"double\"},{\"name\":\"fgColor\",\"rangeEnd\":32,\"rangeStart\":0,\"value\":\"(255,255,255,255)\",\"valueType\":\"color\"},{\"name\":\"fontWeight\",\"rangeEnd\":32,\"rangeStart\":0,\"value\":400,\"valueType\":\"int\"},{\"name\":\"fontName\",\"rangeEnd\":32,\"rangeStart\":0,\"value\":\"Montserrat\",\"valueType\":\"string\"},{\"name\":\"fontItalic\",\"rangeEnd\":32,\"rangeStart\":0,\"value\":0,\"valueType\":\"int\"},{\"name\":\"strikethrough\",\"rangeEnd\":32,\"rangeStart\":0,\"value\":0,\"valueType\":\"int\"},{\"name\":\"underline\",\"rangeEnd\":32,\"rangeStart\":0,\"value\":0,\"valueType\":\"int\"}]",
                      "default-translation0" : 0.0,
                      "default-translation1" : 0.0
                    },
                    "animationTracks" : {

                    }
                  },
                  {
                    "id" : 203,
                    "_type" : "Callout",
                    "def" : {
                      "kind" : "remix",
                      "shape" : "text-rectangle",
                      "style" : "basic",
                      "fill-color-blue" : 0.0,
                      "fill-color-green" : 0.0,
                      "fill-color-opacity" : 1.0,
                      "fill-color-red" : 0.6,
                      "height" : 106.249999999895,
                      "line-spacing" : 0.0,
                      "stroke-color-blue" : 0.890196078431372,
                      "stroke-color-green" : 0.870588235294118,
                      "stroke-color-opacity" : 1.0,
                      "stroke-color-red" : 0.847058823529412,
                      "stroke-width" : 2.0,
                      "tail-x" : -462.499999999966,
                      "tail-y" : 1.8750000000523,
                      "width" : 1759.3750000001,
                      "word-wrap" : 1.0,
                      "fill-style" : "solid",
                      "horizontal-alignment" : "center",
                      "resize-behavior" : "resizeText",
                      "stroke-style" : "solid",
                      "text" : "The attacker has read the secret formula!",
                      "vertical-alignment" : "center",
                      "font" : {
                        "color-blue" : 0.266666666666667,
                        "color-green" : 0.231372549019608,
                        "color-opacity" : 1.0,
                        "color-red" : 0.184313725490196,
                        "size" : 64.0,
                        "tracking" : 0.0,
                        "name" : "Montserrat",
                        "weight" : "Regular"
                      },
                      "textAttributes" : {
                        "type" : "textAttributeList",
                        "keyframes" : [
                          {
                            "endTime" : 0,
                            "time" : 0,
                            "value" : [{"name":"strikethrough","rangeEnd":41,"rangeStart":0,"value":0,"valueType":"int"},{"name":"fontWeight","rangeEnd":41,"rangeStart":0,"value":400,"valueType":"int"},{"name":"fgColor","rangeEnd":41,"rangeStart":0,"value":"(255,255,255,255)","valueType":"color"},{"name":"underline","rangeEnd":41,"rangeStart":0,"value":0,"valueType":"int"},{"name":"fontName","rangeEnd":41,"rangeStart":0,"value":"Montserrat","valueType":"string"},{"name":"fontSize","rangeEnd":41,"rangeStart":0,"value":80,"valueType":"double"},{"name":"fontItalic","rangeEnd":41,"rangeStart":0,"value":0,"valueType":"int"}],
                            "duration" : 0
                          }
                        ]
                      }
                    },
                    "attributes" : {
                      "autoRotateText" : true
                    },
                    "parameters" : {
                      "translation0" : -32.0312500000662,
                      "translation1" : -618.816964285938
                    },
                    "effects" : [
                        {
                          "effectName" : "DropShadow",
                          "category" : "categoryVisualEffects",
                          "parameters" : {
                            "angle" : 5.49778714378214,
                            "blur" : 10.0,
                            "color-alpha" : 1.0,
                            "color-blue" : 0.1216,
                            "color-green" : 0.1216,
                            "color-red" : 0.1216,
                            "enabled" : 1,
                            "offset" : 10.0,
                            "opacity" : 0.4
                          }
                        }
                    ],
                    "start" : 2376,
                    "duration" : 288,
                    "mediaStart" : -85,
                    "mediaDuration" : 288,
                    "scalar" : 1,
                    "metadata" : {
                      "WinSubProjectDisplayName" : "",
                      "clipSpeedAttribute" : false,
                      "default-HAlign" : "center",
                      "default-LineSpace" : 0.0,
                      "default-VAlign" : "center",
                      "default-fill-color-blue" : 1.0,
                      "default-fill-color-green" : 1.0,
                      "default-fill-color-red" : 1.0,
                      "default-scale0" : 1.0,
                      "default-scale1" : 1.0,
                      "default-stroke-color-blue" : 0.56078431372549,
                      "default-stroke-color-green" : 0.686274509803922,
                      "default-stroke-color-red" : 0.0196078431372549,
                      "default-text-attributes" : "[{\"name\":\"fontSize\",\"rangeEnd\":32,\"rangeStart\":0,\"value\":64,\"valueType\":\"double\"},{\"name\":\"fgColor\",\"rangeEnd\":32,\"rangeStart\":0,\"value\":\"(255,255,255,255)\",\"valueType\":\"color\"},{\"name\":\"fontWeight\",\"rangeEnd\":32,\"rangeStart\":0,\"value\":400,\"valueType\":\"int\"},{\"name\":\"fontName\",\"rangeEnd\":32,\"rangeStart\":0,\"value\":\"Montserrat\",\"valueType\":\"string\"},{\"name\":\"fontItalic\",\"rangeEnd\":32,\"rangeStart\":0,\"value\":0,\"valueType\":\"int\"},{\"name\":\"strikethrough\",\"rangeEnd\":32,\"rangeStart\":0,\"value\":0,\"valueType\":\"int\"},{\"name\":\"underline\",\"rangeEnd\":32,\"rangeStart\":0,\"value\":0,\"valueType\":\"int\"}]",
                      "default-translation0" : 0.0,
                      "default-translation1" : 0.0
                    },
                    "animationTracks" : {

                    }
                  },
                  {
                    "id" : 204,
                    "_type" : "Callout",
                    "def" : {
                      "kind" : "remix",
                      "shape" : "text-rectangle",
                      "style" : "basic",
                      "fill-color-blue" : 0.270588235294118,
                      "fill-color-green" : 0.243137254901961,
                      "fill-color-opacity" : 1.0,
                      "fill-color-red" : 0.211764705882353,
                      "height" : 125.428571428404,
                      "line-spacing" : 0.0,
                      "stroke-color-blue" : 0.890196078431372,
                      "stroke-color-green" : 0.870588235294118,
                      "stroke-color-opacity" : 1.0,
                      "stroke-color-red" : 0.847058823529412,
                      "stroke-width" : 2.0,
                      "tail-x" : -215.357142857117,
                      "tail-y" : 36.1607142858501,
                      "width" : 2164.72637055139,
                      "word-wrap" : 1.0,
                      "fill-style" : "solid",
                      "horizontal-alignment" : "center",
                      "resize-behavior" : "resizeText",
                      "stroke-style" : "solid",
                      "text" : "The attacker is trying to overwrite the file",
                      "vertical-alignment" : "center",
                      "font" : {
                        "color-blue" : 0.266666666666667,
                        "color-green" : 0.231372549019608,
                        "color-opacity" : 1.0,
                        "color-red" : 0.184313725490196,
                        "size" : 64.0,
                        "tracking" : 0.0,
                        "name" : "Montserrat",
                        "weight" : "Regular"
                      },
                      "textAttributes" : {
                        "type" : "textAttributeList",
                        "keyframes" : [
                          {
                            "endTime" : 0,
                            "time" : 0,
                            "value" : [{"name":"fgColor","rangeEnd":44,"rangeStart":0,"value":"(255,255,255,255)","valueType":"color"},{"name":"kerning","rangeEnd":44,"rangeStart":0,"value":0,"valueType":"double"},{"name":"underline","rangeEnd":44,"rangeStart":0,"value":0,"valueType":"int"},{"name":"strikethrough","rangeEnd":44,"rangeStart":0,"value":0,"valueType":"int"},{"name":"fontItalic","rangeEnd":44,"rangeStart":0,"value":0,"valueType":"int"},{"name":"fontSize","rangeEnd":44,"rangeStart":0,"value":80,"valueType":"double"},{"name":"fontWeight","rangeEnd":44,"rangeStart":0,"value":400,"valueType":"int"},{"name":"fontName","rangeEnd":44,"rangeStart":0,"value":"Montserrat","valueType":"string"}],
                            "duration" : 0
                          }
                        ]
                      }
                    },
                    "attributes" : {
                      "autoRotateText" : true
                    },
                    "parameters" : {
                      "translation0" : -9.37916411203332e-11,
                      "translation1" : -621.674107143253
                    },
                    "effects" : [
                        {
                          "effectName" : "DropShadow",
                          "category" : "categoryVisualEffects",
                          "parameters" : {
                            "angle" : 5.49778714378214,
                            "blur" : 10.0,
                            "color-alpha" : 1.0,
                            "color-blue" : 0.1216,
                            "color-green" : 0.1216,
                            "color-red" : 0.1216,
                            "enabled" : 1,
                            "offset" : 10.0,
                            "opacity" : 0.4
                          }
                        }
                    ],
                    "start" : 2664,
                    "duration" : 102,
                    "mediaStart" : -86,
                    "mediaDuration" : 102,
                    "scalar" : 1,
                    "metadata" : {
                      "WinSubProjectDisplayName" : "",
                      "clipSpeedAttribute" : false,
                      "default-HAlign" : "center",
                      "default-LineSpace" : 0.0,
                      "default-VAlign" : "center",
                      "default-fill-color-blue" : 1.0,
                      "default-fill-color-green" : 1.0,
                      "default-fill-color-red" : 1.0,
                      "default-scale0" : 1.0,
                      "default-scale1" : 1.0,
                      "default-stroke-color-blue" : 0.56078431372549,
                      "default-stroke-color-green" : 0.686274509803922,
                      "default-stroke-color-red" : 0.0196078431372549,
                      "default-text-attributes" : "[{\"name\":\"fontSize\",\"rangeEnd\":32,\"rangeStart\":0,\"value\":64,\"valueType\":\"double\"},{\"name\":\"fgColor\",\"rangeEnd\":32,\"rangeStart\":0,\"value\":\"(255,255,255,255)\",\"valueType\":\"color\"},{\"name\":\"fontWeight\",\"rangeEnd\":32,\"rangeStart\":0,\"value\":400,\"valueType\":\"int\"},{\"name\":\"fontName\",\"rangeEnd\":32,\"rangeStart\":0,\"value\":\"Montserrat\",\"valueType\":\"string\"},{\"name\":\"fontItalic\",\"rangeEnd\":32,\"rangeStart\":0,\"value\":0,\"valueType\":\"int\"},{\"name\":\"strikethrough\",\"rangeEnd\":32,\"rangeStart\":0,\"value\":0,\"valueType\":\"int\"},{\"name\":\"underline\",\"rangeEnd\":32,\"rangeStart\":0,\"value\":0,\"valueType\":\"int\"}]",
                      "default-translation0" : 0.0,
                      "default-translation1" : 0.0
                    },
                    "animationTracks" : {

                    }
                  },
                  {
                    "id" : 205,
                    "_type" : "Callout",
                    "def" : {
                      "kind" : "remix",
                      "shape" : "text-rectangle",
                      "style" : "basic",
                      "fill-color-blue" : 0.270588235294118,
                      "fill-color-green" : 0.243137254901961,
                      "fill-color-opacity" : 1.0,
                      "fill-color-red" : 0.211764705882353,
                      "height" : 125.428571428586,
                      "line-spacing" : 0.0,
                      "stroke-color-blue" : 0.890196078431372,
                      "stroke-color-green" : 0.870588235294118,
                      "stroke-color-opacity" : 1.0,
                      "stroke-color-red" : 0.847058823529412,
                      "stroke-width" : 2.0,
                      "tail-x" : -1235.35714285716,
                      "tail-y" : 36.1607142857591,
                      "width" : 2415.26890756648,
                      "word-wrap" : 1.0,
                      "fill-style" : "solid",
                      "horizontal-alignment" : "center",
                      "resize-behavior" : "resizeText",
                      "stroke-style" : "solid",
                      "text" : "Okay, now the researcher decides to check the file again",
                      "vertical-alignment" : "center",
                      "font" : {
                        "color-blue" : 0.266666666666667,
                        "color-green" : 0.231372549019608,
                        "color-opacity" : 1.0,
                        "color-red" : 0.184313725490196,
                        "size" : 64.0,
                        "tracking" : 0.0,
                        "name" : "Montserrat",
                        "weight" : "Regular"
                      },
                      "textAttributes" : {
                        "type" : "textAttributeList",
                        "keyframes" : [
                          {
                            "endTime" : 0,
                            "time" : 0,
                            "value" : [{"name":"fontWeight","rangeEnd":56,"rangeStart":0,"value":400,"valueType":"int"},{"name":"kerning","rangeEnd":56,"rangeStart":0,"value":0,"valueType":"double"},{"name":"fontSize","rangeEnd":56,"rangeStart":0,"value":80,"valueType":"double"},{"name":"underline","rangeEnd":56,"rangeStart":0,"value":0,"valueType":"int"},{"name":"fgColor","rangeEnd":56,"rangeStart":0,"value":"(255,255,255,255)","valueType":"color"},{"name":"strikethrough","rangeEnd":56,"rangeStart":0,"value":0,"valueType":"int"},{"name":"fontName","rangeEnd":56,"rangeStart":0,"value":"Montserrat","valueType":"string"},{"name":"fontItalic","rangeEnd":56,"rangeStart":0,"value":0,"valueType":"int"}],
                            "duration" : 0
                          }
                        ]
                      }
                    },
                    "attributes" : {
                      "autoRotateText" : true
                    },
                    "parameters" : {
                      "translation0" : 6.64108767978178e-11,
                      "translation1" : -623.00000000056
                    },
                    "effects" : [
                        {
                          "effectName" : "DropShadow",
                          "category" : "categoryVisualEffects",
                          "parameters" : {
                            "angle" : 5.49778714378214,
                            "blur" : 10.0,
                            "color-alpha" : 1.0,
                            "color-blue" : 0.1216,
                            "color-green" : 0.1216,
                            "color-red" : 0.1216,
                            "enabled" : 1,
                            "offset" : 10.0,
                            "opacity" : 0.4
                          }
                        }
                    ],
                    "start" : 2771,
                    "duration" : 104,
                    "mediaStart" : -105,
                    "mediaDuration" : 104,
                    "scalar" : 1,
                    "metadata" : {
                      "WinSubProjectDisplayName" : "",
                      "clipSpeedAttribute" : false,
                      "default-HAlign" : "center",
                      "default-LineSpace" : 0.0,
                      "default-VAlign" : "center",
                      "default-fill-color-blue" : 1.0,
                      "default-fill-color-green" : 1.0,
                      "default-fill-color-red" : 1.0,
                      "default-scale0" : 1.0,
                      "default-scale1" : 1.0,
                      "default-stroke-color-blue" : 0.56078431372549,
                      "default-stroke-color-green" : 0.686274509803922,
                      "default-stroke-color-red" : 0.0196078431372549,
                      "default-text-attributes" : "[{\"name\":\"fontSize\",\"rangeEnd\":32,\"rangeStart\":0,\"value\":64,\"valueType\":\"double\"},{\"name\":\"fgColor\",\"rangeEnd\":32,\"rangeStart\":0,\"value\":\"(255,255,255,255)\",\"valueType\":\"color\"},{\"name\":\"fontWeight\",\"rangeEnd\":32,\"rangeStart\":0,\"value\":400,\"valueType\":\"int\"},{\"name\":\"fontName\",\"rangeEnd\":32,\"rangeStart\":0,\"value\":\"Montserrat\",\"valueType\":\"string\"},{\"name\":\"fontItalic\",\"rangeEnd\":32,\"rangeStart\":0,\"value\":0,\"valueType\":\"int\"},{\"name\":\"strikethrough\",\"rangeEnd\":32,\"rangeStart\":0,\"value\":0,\"valueType\":\"int\"},{\"name\":\"underline\",\"rangeEnd\":32,\"rangeStart\":0,\"value\":0,\"valueType\":\"int\"}]",
                      "default-translation0" : 0.0,
                      "default-translation1" : 0.0
                    },
                    "animationTracks" : {

                    }
                  },
                  {
                    "id" : 206,
                    "_type" : "Callout",
                    "def" : {
                      "kind" : "remix",
                      "shape" : "text-rectangle",
                      "style" : "basic",
                      "fill-color-blue" : 0.270588235294118,
                      "fill-color-green" : 0.243137254901961,
                      "fill-color-opacity" : 1.0,
                      "fill-color-red" : 0.211764705882353,
                      "height" : 141.142857142421,
                      "line-spacing" : 0.0,
                      "stroke-color-blue" : 0.890196078431372,
                      "stroke-color-green" : 0.870588235294118,
                      "stroke-color-opacity" : 1.0,
                      "stroke-color-red" : 0.847058823529412,
                      "stroke-width" : 2.0,
                      "tail-x" : -768.214285714354,
                      "tail-y" : 23.3035714288417,
                      "width" : 2306.34621849094,
                      "word-wrap" : 1.0,
                      "fill-style" : "solid",
                      "horizontal-alignment" : "center",
                      "resize-behavior" : "resizeText",
                      "stroke-style" : "solid",
                      "text" : "The researcher is reading the file with secret formula again",
                      "vertical-alignment" : "center",
                      "font" : {
                        "color-blue" : 0.266666666666667,
                        "color-green" : 0.231372549019608,
                        "color-opacity" : 1.0,
                        "color-red" : 0.184313725490196,
                        "size" : 64.0,
                        "tracking" : 0.0,
                        "name" : "Montserrat",
                        "weight" : "Regular"
                      },
                      "textAttributes" : {
                        "type" : "textAttributeList",
                        "keyframes" : [
                          {
                            "endTime" : 0,
                            "time" : 0,
                            "value" : [{"name":"kerning","rangeEnd":60,"rangeStart":0,"value":0,"valueType":"double"},{"name":"fontItalic","rangeEnd":60,"rangeStart":0,"value":0,"valueType":"int"},{"name":"fontWeight","rangeEnd":60,"rangeStart":0,"value":400,"valueType":"int"},{"name":"strikethrough","rangeEnd":60,"rangeStart":0,"value":0,"valueType":"int"},{"name":"fontName","rangeEnd":60,"rangeStart":0,"value":"Montserrat","valueType":"string"},{"name":"fgColor","rangeEnd":60,"rangeStart":0,"value":"(255,255,255,255)","valueType":"color"},{"name":"underline","rangeEnd":60,"rangeStart":0,"value":0,"valueType":"int"},{"name":"fontSize","rangeEnd":60,"rangeStart":0,"value":75,"valueType":"double"}],
                            "duration" : 0
                          }
                        ]
                      }
                    },
                    "attributes" : {
                      "autoRotateText" : true
                    },
                    "parameters" : {
                      "translation0" : -1.12322595668957e-10,
                      "translation1" : -618.000000000379
                    },
                    "effects" : [
                        {
                          "effectName" : "DropShadow",
                          "category" : "categoryVisualEffects",
                          "parameters" : {
                            "angle" : 5.49778714378214,
                            "blur" : 10.0,
                            "color-alpha" : 1.0,
                            "color-blue" : 0.1216,
                            "color-green" : 0.1216,
                            "color-red" : 0.1216,
                            "enabled" : 1,
                            "offset" : 10.0,
                            "opacity" : 0.4
                          }
                        }
                    ],
                    "start" : 2928,
                    "duration" : 76,
                    "mediaStart" : -56,
                    "mediaDuration" : 76,
                    "scalar" : 1,
                    "metadata" : {
                      "WinSubProjectDisplayName" : "",
                      "clipSpeedAttribute" : false,
                      "default-HAlign" : "center",
                      "default-LineSpace" : 0.0,
                      "default-VAlign" : "center",
                      "default-fill-color-blue" : 1.0,
                      "default-fill-color-green" : 1.0,
                      "default-fill-color-red" : 1.0,
                      "default-scale0" : 1.0,
                      "default-scale1" : 1.0,
                      "default-stroke-color-blue" : 0.56078431372549,
                      "default-stroke-color-green" : 0.686274509803922,
                      "default-stroke-color-red" : 0.0196078431372549,
                      "default-text-attributes" : "[{\"name\":\"fontSize\",\"rangeEnd\":32,\"rangeStart\":0,\"value\":64,\"valueType\":\"double\"},{\"name\":\"fgColor\",\"rangeEnd\":32,\"rangeStart\":0,\"value\":\"(255,255,255,255)\",\"valueType\":\"color\"},{\"name\":\"fontWeight\",\"rangeEnd\":32,\"rangeStart\":0,\"value\":400,\"valueType\":\"int\"},{\"name\":\"fontName\",\"rangeEnd\":32,\"rangeStart\":0,\"value\":\"Montserrat\",\"valueType\":\"string\"},{\"name\":\"fontItalic\",\"rangeEnd\":32,\"rangeStart\":0,\"value\":0,\"valueType\":\"int\"},{\"name\":\"strikethrough\",\"rangeEnd\":32,\"rangeStart\":0,\"value\":0,\"valueType\":\"int\"},{\"name\":\"underline\",\"rangeEnd\":32,\"rangeStart\":0,\"value\":0,\"valueType\":\"int\"}]",
                      "default-translation0" : 0.0,
                      "default-translation1" : 0.0
                    },
                    "animationTracks" : {

                    }
                  },
                  {
                    "id" : 207,
                    "_type" : "Callout",
                    "def" : {
                      "kind" : "remix",
                      "shape" : "text-rectangle",
                      "style" : "basic",
                      "fill-color-blue" : 0.0,
                      "fill-color-green" : 0.0,
                      "fill-color-opacity" : 1.0,
                      "fill-color-red" : 0.6,
                      "height" : 106.249999999895,
                      "line-spacing" : 0.0,
                      "stroke-color-blue" : 0.890196078431372,
                      "stroke-color-green" : 0.870588235294118,
                      "stroke-color-opacity" : 1.0,
                      "stroke-color-red" : 0.847058823529412,
                      "stroke-width" : 2.0,
                      "tail-x" : -462.499999999966,
                      "tail-y" : 1.8750000000523,
                      "width" : 1759.3750000001,
                      "word-wrap" : 1.0,
                      "fill-style" : "solid",
                      "horizontal-alignment" : "center",
                      "resize-behavior" : "resizeText",
                      "stroke-style" : "solid",
                      "text" : "The secret formula has been modified!",
                      "vertical-alignment" : "center",
                      "font" : {
                        "color-blue" : 0.266666666666667,
                        "color-green" : 0.231372549019608,
                        "color-opacity" : 1.0,
                        "color-red" : 0.184313725490196,
                        "size" : 64.0,
                        "tracking" : 0.0,
                        "name" : "Montserrat",
                        "weight" : "Regular"
                      },
                      "textAttributes" : {
                        "type" : "textAttributeList",
                        "keyframes" : [
                          {
                            "endTime" : 0,
                            "time" : 0,
                            "value" : [{"name":"fontItalic","rangeEnd":37,"rangeStart":0,"value":0,"valueType":"int"},{"name":"fontWeight","rangeEnd":37,"rangeStart":0,"value":400,"valueType":"int"},{"name":"fgColor","rangeEnd":37,"rangeStart":0,"value":"(255,255,255,255)","valueType":"color"},{"name":"strikethrough","rangeEnd":37,"rangeStart":0,"value":0,"valueType":"int"},{"name":"fontSize","rangeEnd":37,"rangeStart":0,"value":80,"valueType":"double"},{"name":"fontName","rangeEnd":37,"rangeStart":0,"value":"Montserrat","valueType":"string"},{"name":"underline","rangeEnd":37,"rangeStart":0,"value":0,"valueType":"int"}],
                            "duration" : 0
                          }
                        ]
                      }
                    },
                    "attributes" : {
                      "autoRotateText" : true
                    },
                    "parameters" : {
                      "translation0" : -9.11484221433057e-11,
                      "translation1" : -621.674107143099
                    },
                    "effects" : [
                        {
                          "effectName" : "DropShadow",
                          "category" : "categoryVisualEffects",
                          "parameters" : {
                            "angle" : 5.49778714378214,
                            "blur" : 10.0,
                            "color-alpha" : 1.0,
                            "color-blue" : 0.1216,
                            "color-green" : 0.1216,
                            "color-red" : 0.1216,
                            "enabled" : 1,
                            "offset" : 10.0,
                            "opacity" : 0.4
                          }
                        }
                    ],
                    "start" : 3021,
                    "duration" : 162,
                    "mediaStart" : -79,
                    "mediaDuration" : 162,
                    "scalar" : 1,
                    "metadata" : {
                      "WinSubProjectDisplayName" : "",
                      "clipSpeedAttribute" : false,
                      "default-HAlign" : "center",
                      "default-LineSpace" : 0.0,
                      "default-VAlign" : "center",
                      "default-fill-color-blue" : 1.0,
                      "default-fill-color-green" : 1.0,
                      "default-fill-color-red" : 1.0,
                      "default-scale0" : 1.0,
                      "default-scale1" : 1.0,
                      "default-stroke-color-blue" : 0.56078431372549,
                      "default-stroke-color-green" : 0.686274509803922,
                      "default-stroke-color-red" : 0.0196078431372549,
                      "default-text-attributes" : "[{\"name\":\"fontSize\",\"rangeEnd\":32,\"rangeStart\":0,\"value\":64,\"valueType\":\"double\"},{\"name\":\"fgColor\",\"rangeEnd\":32,\"rangeStart\":0,\"value\":\"(255,255,255,255)\",\"valueType\":\"color\"},{\"name\":\"fontWeight\",\"rangeEnd\":32,\"rangeStart\":0,\"value\":400,\"valueType\":\"int\"},{\"name\":\"fontName\",\"rangeEnd\":32,\"rangeStart\":0,\"value\":\"Montserrat\",\"valueType\":\"string\"},{\"name\":\"fontItalic\",\"rangeEnd\":32,\"rangeStart\":0,\"value\":0,\"valueType\":\"int\"},{\"name\":\"strikethrough\",\"rangeEnd\":32,\"rangeStart\":0,\"value\":0,\"valueType\":\"int\"},{\"name\":\"underline\",\"rangeEnd\":32,\"rangeStart\":0,\"value\":0,\"valueType\":\"int\"}]",
                      "default-translation0" : 0.0,
                      "default-translation1" : 0.0
                    },
                    "animationTracks" : {

                    }
                  },
                  {
                    "id" : 208,
                    "_type" : "Callout",
                    "def" : {
                      "kind" : "remix",
                      "shape" : "text-rectangle",
                      "style" : "basic",
                      "fill-color-blue" : 0.270588235294118,
                      "fill-color-green" : 0.243137254901961,
                      "fill-color-opacity" : 1.0,
                      "fill-color-red" : 0.211764705882353,
                      "height" : 165.428571428758,
                      "line-spacing" : 0.0,
                      "stroke-color-blue" : 0.890196078431372,
                      "stroke-color-green" : 0.870588235294118,
                      "stroke-color-opacity" : 1.0,
                      "stroke-color-red" : 0.847058823529412,
                      "stroke-width" : 2.0,
                      "tail-x" : -296.785714285785,
                      "tail-y" : -43.8392857140082,
                      "width" : 2031.68788656329,
                      "word-wrap" : 1.0,
                      "fill-style" : "solid",
                      "horizontal-alignment" : "center",
                      "resize-behavior" : "resizeText",
                      "stroke-style" : "solid",
                      "text" : "Let us wait for PatchGuard reaction, e.g. BSOD",
                      "vertical-alignment" : "center",
                      "font" : {
                        "color-blue" : 0.266666666666667,
                        "color-green" : 0.231372549019608,
                        "color-opacity" : 1.0,
                        "color-red" : 0.184313725490196,
                        "size" : 64.0,
                        "tracking" : 0.0,
                        "name" : "Montserrat",
                        "weight" : "Regular"
                      },
                      "textAttributes" : {
                        "type" : "textAttributeList",
                        "keyframes" : [
                          {
                            "endTime" : 0,
                            "time" : 0,
                            "value" : [{"name":"underline","rangeEnd":46,"rangeStart":0,"value":0,"valueType":"int"},{"name":"fontWeight","rangeEnd":46,"rangeStart":0,"value":400,"valueType":"int"},{"name":"fgColor","rangeEnd":46,"rangeStart":0,"value":"(255,255,255,255)","valueType":"color"},{"name":"strikethrough","rangeEnd":46,"rangeStart":0,"value":0,"valueType":"int"},{"name":"fontName","rangeEnd":46,"rangeStart":0,"value":"Montserrat","valueType":"string"},{"name":"fontSize","rangeEnd":46,"rangeStart":0,"value":80,"valueType":"double"},{"name":"fontItalic","rangeEnd":46,"rangeStart":0,"value":0,"valueType":"int"}],
                            "duration" : 0
                          }
                        ]
                      }
                    },
                    "attributes" : {
                      "autoRotateText" : true
                    },
                    "parameters" : {
                      "translation0" : 1.41540112963412e-11,
                      "translation1" : -544.53125000087
                    },
                    "effects" : [
                        {
                          "effectName" : "DropShadow",
                          "category" : "categoryVisualEffects",
                          "parameters" : {
                            "angle" : 5.49778714378214,
                            "blur" : 10.0,
                            "color-alpha" : 1.0,
                            "color-blue" : 0.1216,
                            "color-green" : 0.1216,
                            "color-red" : 0.1216,
                            "enabled" : 1,
                            "offset" : 10.0,
                            "opacity" : 0.4
                          }
                        }
                    ],
                    "start" : 3221,
                    "duration" : 360,
                    "mediaStart" : -56,
                    "mediaDuration" : 360,
                    "scalar" : 1,
                    "metadata" : {
                      "WinSubProjectDisplayName" : "",
                      "clipSpeedAttribute" : false,
                      "default-HAlign" : "center",
                      "default-LineSpace" : 0.0,
                      "default-VAlign" : "center",
                      "default-fill-color-blue" : 1.0,
                      "default-fill-color-green" : 1.0,
                      "default-fill-color-red" : 1.0,
                      "default-scale0" : 1.0,
                      "default-scale1" : 1.0,
                      "default-stroke-color-blue" : 0.56078431372549,
                      "default-stroke-color-green" : 0.686274509803922,
                      "default-stroke-color-red" : 0.0196078431372549,
                      "default-text-attributes" : "[{\"name\":\"fontSize\",\"rangeEnd\":32,\"rangeStart\":0,\"value\":64,\"valueType\":\"double\"},{\"name\":\"fgColor\",\"rangeEnd\":32,\"rangeStart\":0,\"value\":\"(255,255,255,255)\",\"valueType\":\"color\"},{\"name\":\"fontWeight\",\"rangeEnd\":32,\"rangeStart\":0,\"value\":400,\"valueType\":\"int\"},{\"name\":\"fontName\",\"rangeEnd\":32,\"rangeStart\":0,\"value\":\"Montserrat\",\"valueType\":\"string\"},{\"name\":\"fontItalic\",\"rangeEnd\":32,\"rangeStart\":0,\"value\":0,\"valueType\":\"int\"},{\"name\":\"strikethrough\",\"rangeEnd\":32,\"rangeStart\":0,\"value\":0,\"valueType\":\"int\"},{\"name\":\"underline\",\"rangeEnd\":32,\"rangeStart\":0,\"value\":0,\"valueType\":\"int\"}]",
                      "default-translation0" : 0.0,
                      "default-translation1" : 0.0
                    },
                    "animationTracks" : {

                    }
                  },
                  {
                    "id" : 209,
                    "_type" : "Callout",
                    "def" : {
                      "kind" : "remix",
                      "shape" : "text-rectangle",
                      "style" : "basic",
                      "fill-color-blue" : 0.0,
                      "fill-color-green" : 0.0,
                      "fill-color-opacity" : 1.0,
                      "fill-color-red" : 0.6,
                      "height" : 136.857142857062,
                      "line-spacing" : 0.0,
                      "stroke-color-blue" : 0.890196078431372,
                      "stroke-color-green" : 0.870588235294118,
                      "stroke-color-opacity" : 1.0,
                      "stroke-color-red" : 0.847058823529412,
                      "stroke-width" : 2.0,
                      "tail-x" : -1061.0714285715,
                      "tail-y" : 30.4464285715214,
                      "width" : 2015.26890756618,
                      "word-wrap" : 1.0,
                      "fill-style" : "solid",
                      "horizontal-alignment" : "center",
                      "resize-behavior" : "resizeText",
                      "stroke-style" : "solid",
                      "text" : "10 hours have passed - a BSOD hasn't appeared",
                      "vertical-alignment" : "center",
                      "font" : {
                        "color-blue" : 0.266666666666667,
                        "color-green" : 0.231372549019608,
                        "color-opacity" : 1.0,
                        "color-red" : 0.184313725490196,
                        "size" : 64.0,
                        "tracking" : 0.0,
                        "name" : "Montserrat",
                        "weight" : "Regular"
                      },
                      "textAttributes" : {
                        "type" : "textAttributeList",
                        "keyframes" : [
                          {
                            "endTime" : 0,
                            "time" : 0,
                            "value" : [{"name":"strikethrough","rangeEnd":45,"rangeStart":0,"value":0,"valueType":"int"},{"name":"fgColor","rangeEnd":45,"rangeStart":0,"value":"(255,255,255,255)","valueType":"color"},{"name":"fontSize","rangeEnd":45,"rangeStart":0,"value":80,"valueType":"double"},{"name":"fontItalic","rangeEnd":45,"rangeStart":0,"value":0,"valueType":"int"},{"name":"underline","rangeEnd":45,"rangeStart":0,"value":0,"valueType":"int"},{"name":"fontWeight","rangeEnd":45,"rangeStart":0,"value":400,"valueType":"int"},{"name":"fontName","rangeEnd":45,"rangeStart":0,"value":"Montserrat","valueType":"string"}],
                            "duration" : 0
                          }
                        ]
                      }
                    },
                    "attributes" : {
                      "autoRotateText" : true
                    },
                    "parameters" : {
                      "translation0" : 3.49998719333462,
                      "translation1" : -607.388392857875
                    },
                    "effects" : [
                        {
                          "effectName" : "DropShadow",
                          "category" : "categoryVisualEffects",
                          "parameters" : {
                            "angle" : 5.49778714378214,
                            "blur" : 10.0,
                            "color-alpha" : 1.0,
                            "color-blue" : 0.1216,
                            "color-green" : 0.1216,
                            "color-red" : 0.1216,
                            "enabled" : 1,
                            "offset" : 10.0,
                            "opacity" : 0.4
                          }
                        }
                    ],
                    "start" : 3639,
                    "duration" : 99,
                    "mediaStart" : -85,
                    "mediaDuration" : 99,
                    "scalar" : 1,
                    "metadata" : {
                      "WinSubProjectDisplayName" : "",
                      "clipSpeedAttribute" : false,
                      "default-HAlign" : "center",
                      "default-LineSpace" : 0.0,
                      "default-VAlign" : "center",
                      "default-fill-color-blue" : 1.0,
                      "default-fill-color-green" : 1.0,
                      "default-fill-color-red" : 1.0,
                      "default-scale0" : 1.0,
                      "default-scale1" : 1.0,
                      "default-stroke-color-blue" : 0.56078431372549,
                      "default-stroke-color-green" : 0.686274509803922,
                      "default-stroke-color-red" : 0.0196078431372549,
                      "default-text-attributes" : "[{\"name\":\"fontSize\",\"rangeEnd\":32,\"rangeStart\":0,\"value\":64,\"valueType\":\"double\"},{\"name\":\"fgColor\",\"rangeEnd\":32,\"rangeStart\":0,\"value\":\"(255,255,255,255)\",\"valueType\":\"color\"},{\"name\":\"fontWeight\",\"rangeEnd\":32,\"rangeStart\":0,\"value\":400,\"valueType\":\"int\"},{\"name\":\"fontName\",\"rangeEnd\":32,\"rangeStart\":0,\"value\":\"Montserrat\",\"valueType\":\"string\"},{\"name\":\"fontItalic\",\"rangeEnd\":32,\"rangeStart\":0,\"value\":0,\"valueType\":\"int\"},{\"name\":\"strikethrough\",\"rangeEnd\":32,\"rangeStart\":0,\"value\":0,\"valueType\":\"int\"},{\"name\":\"underline\",\"rangeEnd\":32,\"rangeStart\":0,\"value\":0,\"valueType\":\"int\"}]",
                      "default-translation0" : 0.0,
                      "default-translation1" : 0.0
                    },
                    "animationTracks" : {

                    }
                  },
                  {
                    "id" : 210,
                    "_type" : "Callout",
                    "def" : {
                      "kind" : "remix",
                      "shape" : "shape-rectangle",
                      "style" : "basic",
                      "fill-color-blue" : 0.0,
                      "fill-color-green" : 0.0,
                      "fill-color-opacity" : 0.0,
                      "fill-color-red" : 0.0,
                      "height" : 1425.00002748123,
                      "stroke-color-blue" : 0.0,
                      "stroke-color-green" : 0.0,
                      "stroke-color-opacity" : 1.0,
                      "stroke-color-red" : 1.0,
                      "stroke-width" : 15.0,
                      "width" : 2544.99998124294,
                      "fill-style" : "solid",
                      "horizontal-alignment" : "center",
                      "stroke-style" : "solid",
                      "vertical-alignment" : "center",
                      "textAttributes" : {
                        "type" : "textAttributeList",
                        "keyframes" : [
                          {
                            "endTime" : 0,
                            "time" : 0,
                            "value" : null,
                            "duration" : 0
                          }
                        ]
                      }
                    },
                    "attributes" : {
                      "autoRotateText" : true
                    },
                    "parameters" : {
                      "translation0" : -4.76887748845911e-07,
                      "translation1" : -1.62496922513355e-05
                    },
                    "effects" : [
                        {
                          "effectName" : "DropShadow",
                          "category" : "categoryVisualEffects",
                          "parameters" : {
                            "angle" : 5.49778714378214,
                            "blur" : 10.0,
                            "color-alpha" : 1.0,
                            "color-blue" : 0.1216,
                            "color-green" : 0.1216,
                            "color-red" : 0.1216,
                            "enabled" : 1,
                            "offset" : 10.0,
                            "opacity" : 0.4
                          }
                        }
                    ],
                    "start" : 3815,
                    "duration" : 120,
                    "mediaStart" : 2,
                    "mediaDuration" : 120,
                    "scalar" : 1,
                    "metadata" : {
                      "WinSubProjectDisplayName" : "",
                      "clipSpeedAttribute" : false,
                      "default-callout-shape" : "shape-rectangle",
                      "default-stroke-color-red" : 0.0,
                      "default-stroke-width" : 6.0,
                      "default-translation0" : 0.0,
                      "default-translation1" : 0.0
                    },
                    "animationTracks" : {

                    }
                  }
                ]
              },
              {
                "trackIndex" : 5,
                "medias" : [
                  {
                    "id" : 211,
                    "_type" : "AMFile",
                    "src" : 4,
                    "trackNumber" : 0,
                    "attributes" : {
                      "ident" : "Neizvesten+Saundtrek+k+fil+mu+RODINA+ZhDET+NEVYPOLNIMOE+ZAD_muzlishko.ru_",
                      "gain" : 1.0,
                      "mixToMono" : false
                    },
                      "channelNumber" : "0,1",
                    "parameters" : {
                      "volume" : {
                        "type" : "double",
                        "keyframes" : [
                          {
                            "endTime" : 0,
                            "time" : 0,
                            "value" : 1.0,
                            "duration" : 0
                          },
                          {
                            "endTime" : 131,
                            "time" : 131,
                            "value" : 1.0,
                            "duration" : 0
                          },
                          {
                            "endTime" : 132,
                            "time" : 132,
                            "value" : 0.0,
                            "duration" : 0
                          },
                          {
                            "endTime" : 146,
                            "time" : 146,
                            "value" : 1.0,
                            "duration" : 0
                          },
                          {
                            "endTime" : 269,
                            "time" : 269,
                            "value" : 1.0,
                            "duration" : 0
                          },
                          {
                            "endTime" : 283,
                            "time" : 283,
                            "value" : 0.0,
                            "duration" : 0
                          },
                          {
                            "endTime" : 284,
                            "time" : 284,
                            "value" : 1.0,
                            "duration" : 0
                          }
                        ]
                      }
                    },
                    "effects" : [

                    ],
                    "start" : 0,
                    "duration" : 151,
                    "mediaStart" : 132,
                    "mediaDuration" : 151,
                    "scalar" : 1,
                    "metadata" : {
                      "clipSpeedAttribute" : false
                    },
                    "animationTracks" : {

                    }
                  },
                  {
                    "id" : 212,
                    "_type" : "Callout",
                    "def" : {
                      "kind" : "remix",
                      "shape" : "shape-rectangle",
                      "style" : "basic",
                      "fill-color-blue" : 0.0,
                      "fill-color-green" : 0.0,
                      "fill-color-opacity" : 0.0,
                      "fill-color-red" : 0.0,
                      "height" : 158.095238095488,
                      "stroke-color-blue" : 0.0,
                      "stroke-color-green" : 0.0,
                      "stroke-color-opacity" : 1.0,
                      "stroke-color-red" : 1.0,
                      "stroke-width" : 15.0,
                      "width" : 1529.4925391785,
                      "fill-style" : "solid",
                      "horizontal-alignment" : "center",
                      "stroke-style" : "solid",
                      "vertical-alignment" : "center",
                      "textAttributes" : {
                        "type" : "textAttributeList",
                        "keyframes" : [
                          {
                            "endTime" : 0,
                            "time" : 0,
                            "value" : null,
                            "duration" : 0
                          }
                        ]
                      }
                    },
                    "attributes" : {
                      "autoRotateText" : true
                    },
                    "parameters" : {
                      "translation0" : -196.967995780303,
                      "translation1" : 137.976190476415
                    },
                    "effects" : [
                        {
                          "effectName" : "DropShadow",
                          "category" : "categoryVisualEffects",
                          "parameters" : {
                            "angle" : 5.49778714378214,
                            "blur" : 10.0,
                            "color-alpha" : 1.0,
                            "color-blue" : 0.1216,
                            "color-green" : 0.1216,
                            "color-red" : 0.1216,
                            "enabled" : 1,
                            "offset" : 10.0,
                            "opacity" : 0.4
                          }
                        }
                    ],
                    "start" : 235,
                    "duration" : 85,
                    "mediaStart" : 2,
                    "mediaDuration" : 85,
                    "scalar" : 1,
                    "metadata" : {
                      "WinSubProjectDisplayName" : "",
                      "clipSpeedAttribute" : false,
                      "default-callout-shape" : "shape-rectangle",
                      "default-scale0" : 1.0,
                      "default-scale1" : 1.0,
                      "default-stroke-color-red" : 0.0,
                      "default-stroke-width" : 6.0,
                      "default-translation0" : 0.0,
                      "default-translation1" : 0.0
                    },
                    "animationTracks" : {

                    }
                  },
                  {
                    "id" : 213,
                    "_type" : "Callout",
                    "def" : {
                      "kind" : "remix",
                      "shape" : "shape-rectangle",
                      "style" : "basic",
                      "fill-color-blue" : 0.0,
                      "fill-color-green" : 0.0,
                      "fill-color-opacity" : 0.0,
                      "fill-color-red" : 0.0,
                      "height" : 66.6666666667859,
                      "stroke-color-blue" : 0.0,
                      "stroke-color-green" : 0.0,
                      "stroke-color-opacity" : 1.0,
                      "stroke-color-red" : 1.0,
                      "stroke-width" : 15.0,
                      "width" : 491.540732281118,
                      "fill-style" : "solid",
                      "horizontal-alignment" : "center",
                      "stroke-style" : "solid",
                      "vertical-alignment" : "center",
                      "textAttributes" : {
                        "type" : "textAttributeList",
                        "keyframes" : [
                          {
                            "endTime" : 0,
                            "time" : 0,
                            "value" : null,
                            "duration" : 0
                          }
                        ]
                      }
                    },
                    "attributes" : {
                      "autoRotateText" : true
                    },
                    "parameters" : {
                      "translation0" : -1019.01091846679,
                      "translation1" : 229.255260243926
                    },
                    "effects" : [
                        {
                          "effectName" : "DropShadow",
                          "category" : "categoryVisualEffects",
                          "parameters" : {
                            "angle" : 5.49778714378214,
                            "blur" : 10.0,
                            "color-alpha" : 1.0,
                            "color-blue" : 0.1216,
                            "color-green" : 0.1216,
                            "color-red" : 0.1216,
                            "enabled" : 1,
                            "offset" : 10.0,
                            "opacity" : 0.4
                          }
                        }
                    ],
                    "start" : 517,
                    "duration" : 79,
                    "mediaStart" : 0,
                    "mediaDuration" : 79,
                    "scalar" : 1,
                    "metadata" : {
                      "WinSubProjectDisplayName" : "",
                      "clipSpeedAttribute" : false,
                      "default-callout-shape" : "shape-rectangle",
                      "default-stroke-color-red" : 0.0,
                      "default-stroke-width" : 6.0,
                      "default-translation0" : 0.0,
                      "default-translation1" : 0.0
                    },
                    "animationTracks" : {

                    }
                  },
                  {
                    "id" : 214,
                    "_type" : "Callout",
                    "def" : {
                      "kind" : "remix",
                      "shape" : "shape-rectangle",
                      "style" : "basic",
                      "fill-color-blue" : 0.0,
                      "fill-color-green" : 0.0,
                      "fill-color-opacity" : 0.0,
                      "fill-color-red" : 0.0,
                      "height" : 66.6666666667859,
                      "stroke-color-blue" : 0.0,
                      "stroke-color-green" : 0.0,
                      "stroke-color-opacity" : 1.0,
                      "stroke-color-red" : 1.0,
                      "stroke-width" : 15.0,
                      "width" : 849.680267164723,
                      "fill-style" : "solid",
                      "horizontal-alignment" : "center",
                      "stroke-style" : "solid",
                      "vertical-alignment" : "center",
                      "textAttributes" : {
                        "type" : "textAttributeList",
                        "keyframes" : [
                          {
                            "endTime" : 0,
                            "time" : 0,
                            "value" : null,
                            "duration" : 0
                          }
                        ]
                      }
                    },
                    "attributes" : {
                      "autoRotateText" : true
                    },
                    "parameters" : {
                      "translation0" : -839.941151024986,
                      "translation1" : -305.628460686371
                    },
                    "effects" : [
                        {
                          "effectName" : "DropShadow",
                          "category" : "categoryVisualEffects",
                          "parameters" : {
                            "angle" : 5.49778714378214,
                            "blur" : 10.0,
                            "color-alpha" : 1.0,
                            "color-blue" : 0.1216,
                            "color-green" : 0.1216,
                            "color-red" : 0.1216,
                            "enabled" : 1,
                            "offset" : 10.0,
                            "opacity" : 0.4
                          }
                        }
                    ],
                    "start" : 627,
                    "duration" : 94,
                    "mediaStart" : 0,
                    "mediaDuration" : 94,
                    "scalar" : 1,
                    "metadata" : {
                      "WinSubProjectDisplayName" : "",
                      "clipSpeedAttribute" : false,
                      "default-callout-shape" : "shape-rectangle",
                      "default-stroke-color-red" : 0.0,
                      "default-stroke-width" : 6.0,
                      "default-translation0" : 0.0,
                      "default-translation1" : 0.0
                    },
                    "animationTracks" : {

                    }
                  },
                  {
                    "id" : 215,
                    "_type" : "Callout",
                    "def" : {
                      "kind" : "remix",
                      "shape" : "shape-rectangle",
                      "style" : "basic",
                      "fill-color-blue" : 0.0,
                      "fill-color-green" : 0.0,
                      "fill-color-opacity" : 0.0,
                      "fill-color-red" : 0.0,
                      "height" : 66.6666666667859,
                      "stroke-color-blue" : 0.0,
                      "stroke-color-green" : 0.0,
                      "stroke-color-opacity" : 1.0,
                      "stroke-color-red" : 1.0,
                      "stroke-width" : 15.0,
                      "width" : 200.84305786227,
                      "fill-style" : "solid",
                      "horizontal-alignment" : "center",
                      "stroke-style" : "solid",
                      "vertical-alignment" : "center",
                      "textAttributes" : {
                        "type" : "textAttributeList",
                        "keyframes" : [
                          {
                            "endTime" : 0,
                            "time" : 0,
                            "value" : null,
                            "duration" : 0
                          }
                        ]
                      }
                    },
                    "attributes" : {
                      "autoRotateText" : true
                    },
                    "parameters" : {
                      "translation0" : -1169.01091846681,
                      "translation1" : -496.326135105021
                    },
                    "effects" : [
                        {
                          "effectName" : "DropShadow",
                          "category" : "categoryVisualEffects",
                          "parameters" : {
                            "angle" : 5.49778714378214,
                            "blur" : 10.0,
                            "color-alpha" : 1.0,
                            "color-blue" : 0.1216,
                            "color-green" : 0.1216,
                            "color-red" : 0.1216,
                            "enabled" : 1,
                            "offset" : 10.0,
                            "opacity" : 0.4
                          }
                        }
                    ],
                    "start" : 762,
                    "duration" : 63,
                    "mediaStart" : 1,
                    "mediaDuration" : 63,
                    "scalar" : 1,
                    "metadata" : {
                      "WinSubProjectDisplayName" : "",
                      "clipSpeedAttribute" : false,
                      "default-callout-shape" : "shape-rectangle",
                      "default-stroke-color-red" : 0.0,
                      "default-stroke-width" : 6.0,
                      "default-translation0" : 0.0,
                      "default-translation1" : 0.0
                    },
                    "animationTracks" : {

                    }
                  },
                  {
                    "id" : 216,
                    "_type" : "Callout",
                    "def" : {
                      "kind" : "remix",
                      "shape" : "shape-rectangle",
                      "style" : "basic",
                      "fill-color-blue" : 0.0,
                      "fill-color-green" : 0.0,
                      "fill-color-opacity" : 0.0,
                      "fill-color-red" : 0.0,
                      "height" : 69.7619047618713,
                      "stroke-color-blue" : 0.117647058823529,
                      "stroke-color-green" : 0.847058823529412,
                      "stroke-color-opacity" : 1.0,
                      "stroke-color-red" : 0.219607843137255,
                      "stroke-width" : 15.0,
                      "width" : 1345.1514364682,
                      "fill-style" : "solid",
                      "horizontal-alignment" : "center",
                      "stroke-style" : "solid",
                      "vertical-alignment" : "center",
                      "textAttributes" : {
                        "type" : "textAttributeList",
                        "keyframes" : [
                          {
                            "endTime" : 0,
                            "time" : 0,
                            "value" : null,
                            "duration" : 0
                          }
                        ]
                      }
                    },
                    "attributes" : {
                      "autoRotateText" : true
                    },
                    "parameters" : {
                      "translation0" : -566.757577315777,
                      "translation1" : 1.19047619098919
                    },
                    "effects" : [
                        {
                          "effectName" : "DropShadow",
                          "category" : "categoryVisualEffects",
                          "parameters" : {
                            "angle" : 5.49778714378214,
                            "blur" : 10.0,
                            "color-alpha" : 1.0,
                            "color-blue" : 0.1216,
                            "color-green" : 0.1216,
                            "color-red" : 0.1216,
                            "enabled" : 1,
                            "offset" : 10.0,
                            "opacity" : 0.4
                          }
                        }
                    ],
                    "start" : 845,
                    "duration" : 207,
                    "mediaStart" : -5,
                    "mediaDuration" : 207,
                    "scalar" : 1,
                    "metadata" : {
                      "WinSubProjectDisplayName" : "",
                      "clipSpeedAttribute" : false,
                      "default-callout-shape" : "shape-rectangle",
                      "default-stroke-color-blue" : 0.0,
                      "default-stroke-color-green" : 0.0,
                      "default-stroke-color-red" : 0.0,
                      "default-stroke-width" : 6.0,
                      "default-translation0" : 0.0,
                      "default-translation1" : 0.0
                    },
                    "animationTracks" : {

                    }
                  },
                  {
                    "id" : 217,
                    "_type" : "Callout",
                    "def" : {
                      "kind" : "remix",
                      "shape" : "shape-rectangle",
                      "style" : "basic",
                      "fill-color-blue" : 0.0,
                      "fill-color-green" : 0.0,
                      "fill-color-opacity" : 0.0,
                      "fill-color-red" : 0.0,
                      "height" : 66.6666666667859,
                      "stroke-color-blue" : 0.0,
                      "stroke-color-green" : 0.0,
                      "stroke-color-opacity" : 1.0,
                      "stroke-color-red" : 1.0,
                      "stroke-width" : 15.0,
                      "width" : 465.959336931686,
                      "fill-style" : "solid",
                      "horizontal-alignment" : "center",
                      "stroke-style" : "solid",
                      "vertical-alignment" : "center",
                      "textAttributes" : {
                        "type" : "textAttributeList",
                        "keyframes" : [
                          {
                            "endTime" : 0,
                            "time" : 0,
                            "value" : null,
                            "duration" : 0
                          }
                        ]
                      }
                    },
                    "attributes" : {
                      "autoRotateText" : true
                    },
                    "parameters" : {
                      "translation0" : -1043.42952311825,
                      "translation1" : 78.0924695462588
                    },
                    "effects" : [
                        {
                          "effectName" : "DropShadow",
                          "category" : "categoryVisualEffects",
                          "parameters" : {
                            "angle" : 5.49778714378214,
                            "blur" : 10.0,
                            "color-alpha" : 1.0,
                            "color-blue" : 0.1216,
                            "color-green" : 0.1216,
                            "color-red" : 0.1216,
                            "enabled" : 1,
                            "offset" : 10.0,
                            "opacity" : 0.4
                          }
                        }
                    ],
                    "start" : 1448,
                    "duration" : 76,
                    "mediaStart" : 1,
                    "mediaDuration" : 76,
                    "scalar" : 1,
                    "metadata" : {
                      "WinSubProjectDisplayName" : "",
                      "clipSpeedAttribute" : false,
                      "default-callout-shape" : "shape-rectangle",
                      "default-stroke-color-red" : 0.0,
                      "default-stroke-width" : 6.0,
                      "default-translation0" : 0.0,
                      "default-translation1" : 0.0
                    },
                    "animationTracks" : {

                    }
                  },
                  {
                    "id" : 218,
                    "_type" : "Callout",
                    "def" : {
                      "kind" : "remix",
                      "shape" : "shape-rectangle",
                      "style" : "basic",
                      "fill-color-blue" : 0.0,
                      "fill-color-green" : 0.0,
                      "fill-color-opacity" : 0.0,
                      "fill-color-red" : 0.0,
                      "height" : 66.6666666667859,
                      "stroke-color-blue" : 0.0,
                      "stroke-color-green" : 0.0,
                      "stroke-color-opacity" : 1.0,
                      "stroke-color-red" : 1.0,
                      "stroke-width" : 15.0,
                      "width" : 949.680267165079,
                      "fill-style" : "solid",
                      "horizontal-alignment" : "center",
                      "stroke-style" : "solid",
                      "vertical-alignment" : "center",
                      "textAttributes" : {
                        "type" : "textAttributeList",
                        "keyframes" : [
                          {
                            "endTime" : 0,
                            "time" : 0,
                            "value" : null,
                            "duration" : 0
                          }
                        ]
                      }
                    },
                    "attributes" : {
                      "autoRotateText" : true
                    },
                    "parameters" : {
                      "translation0" : -745.75510451322,
                      "translation1" : 112.976190476498
                    },
                    "effects" : [
                        {
                          "effectName" : "DropShadow",
                          "category" : "categoryVisualEffects",
                          "parameters" : {
                            "angle" : 5.49778714378214,
                            "blur" : 10.0,
                            "color-alpha" : 1.0,
                            "color-blue" : 0.1216,
                            "color-green" : 0.1216,
                            "color-red" : 0.1216,
                            "enabled" : 1,
                            "offset" : 10.0,
                            "opacity" : 0.4
                          }
                        }
                    ],
                    "start" : 1555,
                    "duration" : 71,
                    "mediaStart" : 0,
                    "mediaDuration" : 71,
                    "scalar" : 1,
                    "metadata" : {
                      "WinSubProjectDisplayName" : "",
                      "clipSpeedAttribute" : false,
                      "default-callout-shape" : "shape-rectangle",
                      "default-stroke-color-red" : 0.0,
                      "default-stroke-width" : 6.0,
                      "default-translation0" : 0.0,
                      "default-translation1" : 0.0
                    },
                    "animationTracks" : {

                    }
                  },
                  {
                    "id" : 219,
                    "_type" : "IMFile",
                    "src" : 10,
                    "trackNumber" : 0,
                    "trimStartSum" : 0,
                    "attributes" : {
                      "ident" : "256"
                    },
                    "parameters" : {
                      "translation0" : 584.883720930119,
                      "translation1" : -315.11627906971,
                      "scale0" : 1.33611918604793,
                      "scale1" : 1.33611918604793
                    },
                    "effects" : [

                    ],
                    "start" : 1742,
                    "duration" : 120,
                    "mediaStart" : 0,
                    "mediaDuration" : 1,
                    "scalar" : 1,
                    "metadata" : {
                      "clipSpeedAttribute" : false,
                      "default-scale0" : 1.0,
                      "default-scale1" : 1.0,
                      "default-translation0" : 0.0,
                      "default-translation1" : 0.0
                    },
                    "animationTracks" : {

                    }
                  },
                  {
                    "id" : 220,
                    "_type" : "Callout",
                    "def" : {
                      "kind" : "remix",
                      "shape" : "shape-rectangle",
                      "style" : "basic",
                      "fill-color-blue" : 0.0,
                      "fill-color-green" : 0.0,
                      "fill-color-opacity" : 0.0,
                      "fill-color-red" : 0.0,
                      "height" : 186.666666666782,
                      "stroke-color-blue" : 0.0,
                      "stroke-color-green" : 0.0,
                      "stroke-color-opacity" : 1.0,
                      "stroke-color-red" : 1.0,
                      "stroke-width" : 15.0,
                      "width" : 2375.20682489272,
                      "fill-style" : "solid",
                      "horizontal-alignment" : "center",
                      "stroke-style" : "solid",
                      "vertical-alignment" : "center",
                      "textAttributes" : {
                        "type" : "textAttributeList",
                        "keyframes" : [
                          {
                            "endTime" : 0,
                            "time" : 0,
                            "value" : null,
                            "duration" : 0
                          }
                        ]
                      }
                    },
                    "attributes" : {
                      "autoRotateText" : true
                    },
                    "parameters" : {
                      "translation0" : -39.8251386371927,
                      "translation1" : 452.261904762307
                    },
                    "effects" : [
                        {
                          "effectName" : "DropShadow",
                          "category" : "categoryVisualEffects",
                          "parameters" : {
                            "angle" : 5.49778714378214,
                            "blur" : 10.0,
                            "color-alpha" : 1.0,
                            "color-blue" : 0.1216,
                            "color-green" : 0.1216,
                            "color-red" : 0.1216,
                            "enabled" : 1,
                            "offset" : 10.0,
                            "opacity" : 0.4
                          }
                        }
                    ],
                    "start" : 2163,
                    "duration" : 136,
                    "mediaStart" : 2,
                    "mediaDuration" : 136,
                    "scalar" : 1,
                    "metadata" : {
                      "WinSubProjectDisplayName" : "",
                      "clipSpeedAttribute" : false,
                      "default-callout-shape" : "shape-rectangle",
                      "default-stroke-color-red" : 0.0,
                      "default-stroke-width" : 6.0,
                      "default-translation0" : 0.0,
                      "default-translation1" : 0.0
                    },
                    "animationTracks" : {

                    }
                  },
                  {
                    "id" : 221,
                    "_type" : "Callout",
                    "def" : {
                      "kind" : "remix",
                      "shape" : "shape-rectangle",
                      "style" : "basic",
                      "fill-color-blue" : 0.0,
                      "fill-color-green" : 0.0,
                      "fill-color-opacity" : 0.0,
                      "fill-color-red" : 0.0,
                      "height" : 83.3333333333413,
                      "stroke-color-blue" : 0.0,
                      "stroke-color-green" : 0.0,
                      "stroke-color-opacity" : 1.0,
                      "stroke-color-red" : 1.0,
                      "stroke-width" : 12.0,
                      "width" : 267.614929402096,
                      "fill-style" : "solid",
                      "horizontal-alignment" : "center",
                      "stroke-style" : "solid",
                      "vertical-alignment" : "center",
                      "textAttributes" : {
                        "type" : "textAttributeList",
                        "keyframes" : [
                          {
                            "endTime" : 0,
                            "time" : 0,
                            "value" : null,
                            "duration" : 0
                          }
                        ]
                      }
                    },
                    "attributes" : {
                      "autoRotateText" : true
                    },
                    "parameters" : {
                      "translation0" : -1134.47822342677,
                      "translation1" : -506.596727099497
                    },
                    "effects" : [
                        {
                          "effectName" : "DropShadow",
                          "category" : "categoryVisualEffects",
                          "parameters" : {
                            "angle" : 5.49778714378214,
                            "blur" : 10.0,
                            "color-alpha" : 1.0,
                            "color-blue" : 0.1216,
                            "color-green" : 0.1216,
                            "color-red" : 0.1216,
                            "enabled" : 1,
                            "offset" : 10.0,
                            "opacity" : 0.4
                          }
                        }
                    ],
                    "start" : 2299,
                    "duration" : 65,
                    "mediaStart" : 0,
                    "mediaDuration" : 65,
                    "scalar" : 1,
                    "metadata" : {
                      "WinSubProjectDisplayName" : "",
                      "clipSpeedAttribute" : false,
                      "default-callout-shape" : "shape-rectangle",
                      "default-stroke-color-red" : 0.0,
                      "default-stroke-width" : 6.0,
                      "default-translation0" : 0.0,
                      "default-translation1" : 0.0
                    },
                    "animationTracks" : {

                    }
                  },
                  {
                    "id" : 222,
                    "_type" : "Callout",
                    "def" : {
                      "kind" : "remix",
                      "shape" : "shape-rectangle",
                      "style" : "basic",
                      "fill-color-blue" : 0.0,
                      "fill-color-green" : 0.0,
                      "fill-color-opacity" : 0.0,
                      "fill-color-red" : 0.0,
                      "height" : 81.1904761906329,
                      "stroke-color-blue" : 0.0,
                      "stroke-color-green" : 0.0,
                      "stroke-color-opacity" : 1.0,
                      "stroke-color-red" : 1.0,
                      "stroke-width" : 12.0,
                      "width" : 1983.30206298755,
                      "fill-style" : "solid",
                      "horizontal-alignment" : "center",
                      "stroke-style" : "solid",
                      "vertical-alignment" : "center",
                      "textAttributes" : {
                        "type" : "textAttributeList",
                        "keyframes" : [
                          {
                            "endTime" : 0,
                            "time" : 0,
                            "value" : null,
                            "duration" : 0
                          }
                        ]
                      }
                    },
                    "attributes" : {
                      "autoRotateText" : true
                    },
                    "parameters" : {
                      "translation0" : -230.063233875514,
                      "translation1" : 461.19047619101
                    },
                    "effects" : [
                        {
                          "effectName" : "DropShadow",
                          "category" : "categoryVisualEffects",
                          "parameters" : {
                            "angle" : 5.49778714378214,
                            "blur" : 10.0,
                            "color-alpha" : 1.0,
                            "color-blue" : 0.1216,
                            "color-green" : 0.1216,
                            "color-red" : 0.1216,
                            "enabled" : 1,
                            "offset" : 10.0,
                            "opacity" : 0.4
                          }
                        }
                    ],
                    "start" : 2376,
                    "duration" : 288,
                    "mediaStart" : 2,
                    "mediaDuration" : 288,
                    "scalar" : 1,
                    "metadata" : {
                      "WinSubProjectDisplayName" : "",
                      "clipSpeedAttribute" : false,
                      "default-callout-shape" : "shape-rectangle",
                      "default-stroke-color-red" : 0.0,
                      "default-stroke-width" : 6.0,
                      "default-translation0" : 0.0,
                      "default-translation1" : 0.0
                    },
                    "animationTracks" : {

                    }
                  },
                  {
                    "id" : 223,
                    "_type" : "Callout",
                    "def" : {
                      "kind" : "remix",
                      "shape" : "shape-rectangle",
                      "style" : "basic",
                      "fill-color-blue" : 0.0,
                      "fill-color-green" : 0.0,
                      "fill-color-opacity" : 0.0,
                      "fill-color-red" : 0.0,
                      "height" : 83.3333333333413,
                      "stroke-color-blue" : 0.0,
                      "stroke-color-green" : 0.0,
                      "stroke-color-opacity" : 1.0,
                      "stroke-color-red" : 1.0,
                      "stroke-width" : 12.0,
                      "width" : 951.335859634607,
                      "fill-style" : "solid",
                      "horizontal-alignment" : "center",
                      "stroke-style" : "solid",
                      "vertical-alignment" : "center",
                      "textAttributes" : {
                        "type" : "textAttributeList",
                        "keyframes" : [
                          {
                            "endTime" : 0,
                            "time" : 0,
                            "value" : null,
                            "duration" : 0
                          }
                        ]
                      }
                    },
                    "attributes" : {
                      "autoRotateText" : true
                    },
                    "parameters" : {
                      "translation0" : -792.61775831051,
                      "translation1" : -506.596727099497
                    },
                    "effects" : [
                        {
                          "effectName" : "DropShadow",
                          "category" : "categoryVisualEffects",
                          "parameters" : {
                            "angle" : 5.49778714378214,
                            "blur" : 10.0,
                            "color-alpha" : 1.0,
                            "color-blue" : 0.1216,
                            "color-green" : 0.1216,
                            "color-red" : 0.1216,
                            "enabled" : 1,
                            "offset" : 10.0,
                            "opacity" : 0.4
                          }
                        }
                    ],
                    "start" : 2664,
                    "duration" : 83,
                    "mediaStart" : 0,
                    "mediaDuration" : 83,
                    "scalar" : 1,
                    "metadata" : {
                      "WinSubProjectDisplayName" : "",
                      "clipSpeedAttribute" : false,
                      "default-callout-shape" : "shape-rectangle",
                      "default-stroke-color-red" : 0.0,
                      "default-stroke-width" : 6.0,
                      "default-translation0" : 0.0,
                      "default-translation1" : 0.0
                    },
                    "animationTracks" : {

                    }
                  },
                  {
                    "id" : 224,
                    "_type" : "Callout",
                    "def" : {
                      "kind" : "remix",
                      "shape" : "shape-rectangle",
                      "style" : "basic",
                      "fill-color-blue" : 0.0,
                      "fill-color-green" : 0.0,
                      "fill-color-opacity" : 0.0,
                      "fill-color-red" : 0.0,
                      "height" : 83.3333333333413,
                      "stroke-color-blue" : 0.0,
                      "stroke-color-green" : 0.0,
                      "stroke-color-opacity" : 1.0,
                      "stroke-color-red" : 1.0,
                      "stroke-width" : 12.0,
                      "width" : 201.23622486184,
                      "fill-style" : "solid",
                      "horizontal-alignment" : "center",
                      "stroke-style" : "solid",
                      "vertical-alignment" : "center",
                      "textAttributes" : {
                        "type" : "textAttributeList",
                        "keyframes" : [
                          {
                            "endTime" : 0,
                            "time" : 0,
                            "value" : null,
                            "duration" : 0
                          }
                        ]
                      }
                    },
                    "attributes" : {
                      "autoRotateText" : true
                    },
                    "parameters" : {
                      "translation0" : -1157.10282464552,
                      "translation1" : -490.317657332074
                    },
                    "effects" : [
                        {
                          "effectName" : "DropShadow",
                          "category" : "categoryVisualEffects",
                          "parameters" : {
                            "angle" : 5.49778714378214,
                            "blur" : 10.0,
                            "color-alpha" : 1.0,
                            "color-blue" : 0.1216,
                            "color-green" : 0.1216,
                            "color-red" : 0.1216,
                            "enabled" : 1,
                            "offset" : 10.0,
                            "opacity" : 0.4
                          }
                        }
                    ],
                    "start" : 2928,
                    "duration" : 41,
                    "mediaStart" : 7,
                    "mediaDuration" : 41,
                    "scalar" : 1,
                    "metadata" : {
                      "WinSubProjectDisplayName" : "",
                      "clipSpeedAttribute" : false,
                      "default-callout-shape" : "shape-rectangle",
                      "default-stroke-color-red" : 0.0,
                      "default-stroke-width" : 6.0,
                      "default-translation0" : 0.0,
                      "default-translation1" : 0.0
                    },
                    "animationTracks" : {

                    }
                  },
                  {
                    "id" : 225,
                    "_type" : "Callout",
                    "def" : {
                      "kind" : "remix",
                      "shape" : "shape-rectangle",
                      "style" : "basic",
                      "fill-color-blue" : 0.0,
                      "fill-color-green" : 0.0,
                      "fill-color-opacity" : 0.0,
                      "fill-color-red" : 0.0,
                      "height" : 69.9999987290199,
                      "stroke-color-blue" : 0.0,
                      "stroke-color-green" : 0.0,
                      "stroke-color-opacity" : 1.0,
                      "stroke-color-red" : 1.0,
                      "stroke-width" : 15.0,
                      "width" : 1257.1115867972,
                      "fill-style" : "solid",
                      "horizontal-alignment" : "center",
                      "stroke-style" : "solid",
                      "vertical-alignment" : "center",
                      "textAttributes" : {
                        "type" : "textAttributeList",
                        "keyframes" : [
                          {
                            "endTime" : 0,
                            "time" : 0,
                            "value" : null,
                            "duration" : 0
                          }
                        ]
                      }
                    },
                    "attributes" : {
                      "autoRotateText" : true
                    },
                    "parameters" : {
                      "translation0" : -599.348948161254,
                      "translation1" : 33.9285720645645
                    },
                    "effects" : [
                        {
                          "effectName" : "DropShadow",
                          "category" : "categoryVisualEffects",
                          "parameters" : {
                            "angle" : 5.49778714378214,
                            "blur" : 10.0,
                            "color-alpha" : 1.0,
                            "color-blue" : 0.1216,
                            "color-green" : 0.1216,
                            "color-red" : 0.1216,
                            "enabled" : 1,
                            "offset" : 10.0,
                            "opacity" : 0.4
                          }
                        }
                    ],
                    "start" : 3021,
                    "duration" : 162,
                    "mediaStart" : 8,
                    "mediaDuration" : 162,
                    "scalar" : 1,
                    "metadata" : {
                      "WinSubProjectDisplayName" : "",
                      "clipSpeedAttribute" : false,
                      "default-callout-shape" : "shape-rectangle",
                      "default-stroke-color-red" : 0.0,
                      "default-stroke-width" : 6.0,
                      "default-translation0" : 0.0,
                      "default-translation1" : 0.0
                    },
                    "animationTracks" : {

                    }
                  },
                  {
                    "id" : 226,
                    "_type" : "Callout",
                    "def" : {
                      "kind" : "remix",
                      "shape" : "shape-rectangle",
                      "style" : "basic",
                      "fill-color-blue" : 0.0,
                      "fill-color-green" : 0.0,
                      "fill-color-opacity" : 0.0,
                      "fill-color-red" : 0.0,
                      "height" : 261.190476190871,
                      "stroke-color-blue" : 0.0,
                      "stroke-color-green" : 0.0,
                      "stroke-color-opacity" : 1.0,
                      "stroke-color-red" : 1.0,
                      "stroke-width" : 15.0,
                      "width" : 461.285687220513,
                      "fill-style" : "solid",
                      "horizontal-alignment" : "center",
                      "stroke-style" : "solid",
                      "vertical-alignment" : "center",
                      "textAttributes" : {
                        "type" : "textAttributeList",
                        "keyframes" : [
                          {
                            "endTime" : 0,
                            "time" : 0,
                            "value" : null,
                            "duration" : 0
                          }
                        ]
                      }
                    },
                    "attributes" : {
                      "autoRotateText" : true
                    },
                    "parameters" : {
                      "translation0" : -234.642850331042,
                      "translation1" : -155.476190475615
                    },
                    "effects" : [
                        {
                          "effectName" : "DropShadow",
                          "category" : "categoryVisualEffects",
                          "parameters" : {
                            "angle" : 5.49778714378214,
                            "blur" : 10.0,
                            "color-alpha" : 1.0,
                            "color-blue" : 0.1216,
                            "color-green" : 0.1216,
                            "color-red" : 0.1216,
                            "enabled" : 1,
                            "offset" : 10.0,
                            "opacity" : 0.4
                          }
                        }
                    ],
                    "start" : 3318,
                    "duration" : 361,
                    "mediaStart" : -60,
                    "mediaDuration" : 361,
                    "scalar" : 1,
                    "metadata" : {
                      "WinSubProjectDisplayName" : "",
                      "clipSpeedAttribute" : false,
                      "default-callout-shape" : "shape-rectangle",
                      "default-stroke-color-red" : 0.0,
                      "default-stroke-width" : 6.0,
                      "default-translation0" : 0.0,
                      "default-translation1" : 0.0
                    },
                    "animationTracks" : {

                    }
                  },
                  {
                    "id" : 227,
                    "_type" : "Callout",
                    "def" : {
                      "kind" : "remix",
                      "shape" : "text-rectangle",
                      "style" : "basic",
                      "fill-color-blue" : 0.0,
                      "fill-color-green" : 0.0,
                      "fill-color-opacity" : 1.0,
                      "fill-color-red" : 0.6,
                      "height" : 133.999999999809,
                      "line-spacing" : 0.0,
                      "stroke-color-blue" : 0.890196078431372,
                      "stroke-color-green" : 0.870588235294118,
                      "stroke-color-opacity" : 1.0,
                      "stroke-color-red" : 0.847058823529412,
                      "stroke-width" : 2.0,
                      "tail-x" : -433.333333333223,
                      "tail-y" : 38.5416666667196,
                      "width" : 1445.53658536953,
                      "word-wrap" : 1.0,
                      "fill-style" : "solid",
                      "horizontal-alignment" : "center",
                      "resize-behavior" : "resizeText",
                      "stroke-style" : "solid",
                      "text" : "The OS is not protected!",
                      "vertical-alignment" : "center",
                      "font" : {
                        "color-blue" : 0.266666666666667,
                        "color-green" : 0.231372549019608,
                        "color-opacity" : 1.0,
                        "color-red" : 0.184313725490196,
                        "size" : 64.0,
                        "tracking" : 0.0,
                        "name" : "Montserrat",
                        "weight" : "Regular"
                      },
                      "textAttributes" : {
                        "type" : "textAttributeList",
                        "keyframes" : [
                          {
                            "endTime" : 0,
                            "time" : 0,
                            "value" : [{"name":"strikethrough","rangeEnd":24,"rangeStart":0,"value":0,"valueType":"int"},{"name":"fgColor","rangeEnd":24,"rangeStart":0,"value":"(255,255,255,255)","valueType":"color"},{"name":"fontSize","rangeEnd":24,"rangeStart":0,"value":80,"valueType":"double"},{"name":"fontWeight","rangeEnd":24,"rangeStart":0,"value":400,"valueType":"int"},{"name":"fontItalic","rangeEnd":24,"rangeStart":0,"value":0,"valueType":"int"},{"name":"fontName","rangeEnd":24,"rangeStart":0,"value":"Montserrat","valueType":"string"},{"name":"underline","rangeEnd":24,"rangeStart":0,"value":0,"valueType":"int"}],
                            "duration" : 0
                          }
                        ]
                      }
                    },
                    "attributes" : {
                      "autoRotateText" : true
                    },
                    "parameters" : {
                      "translation0" : -7.33479943448856e-11,
                      "translation1" : -613.654427978456
                    },
                    "effects" : [
                        {
                          "effectName" : "DropShadow",
                          "category" : "categoryVisualEffects",
                          "parameters" : {
                            "angle" : 5.49778714378214,
                            "blur" : 10.0,
                            "color-alpha" : 1.0,
                            "color-blue" : 0.1216,
                            "color-green" : 0.1216,
                            "color-red" : 0.1216,
                            "enabled" : 1,
                            "offset" : 10.0,
                            "opacity" : 0.4
                          }
                        }
                    ],
                    "start" : 3815,
                    "duration" : 120,
                    "mediaStart" : -85,
                    "mediaDuration" : 120,
                    "scalar" : 1,
                    "metadata" : {
                      "WinSubProjectDisplayName" : "",
                      "clipSpeedAttribute" : false,
                      "default-HAlign" : "center",
                      "default-LineSpace" : 0.0,
                      "default-VAlign" : "center",
                      "default-fill-color-blue" : 1.0,
                      "default-fill-color-green" : 1.0,
                      "default-fill-color-red" : 1.0,
                      "default-scale0" : 1.0,
                      "default-scale1" : 1.0,
                      "default-stroke-color-blue" : 0.56078431372549,
                      "default-stroke-color-green" : 0.686274509803922,
                      "default-stroke-color-red" : 0.0196078431372549,
                      "default-text-attributes" : "[{\"name\":\"fontSize\",\"rangeEnd\":32,\"rangeStart\":0,\"value\":64,\"valueType\":\"double\"},{\"name\":\"fgColor\",\"rangeEnd\":32,\"rangeStart\":0,\"value\":\"(255,255,255,255)\",\"valueType\":\"color\"},{\"name\":\"fontWeight\",\"rangeEnd\":32,\"rangeStart\":0,\"value\":400,\"valueType\":\"int\"},{\"name\":\"fontName\",\"rangeEnd\":32,\"rangeStart\":0,\"value\":\"Montserrat\",\"valueType\":\"string\"},{\"name\":\"fontItalic\",\"rangeEnd\":32,\"rangeStart\":0,\"value\":0,\"valueType\":\"int\"},{\"name\":\"strikethrough\",\"rangeEnd\":32,\"rangeStart\":0,\"value\":0,\"valueType\":\"int\"},{\"name\":\"underline\",\"rangeEnd\":32,\"rangeStart\":0,\"value\":0,\"valueType\":\"int\"}]",
                      "default-translation0" : 0.0,
                      "default-translation1" : 0.0
                    },
                    "animationTracks" : {

                    }
                  }
                ]
              },
              {
                "trackIndex" : 6,
                "medias" : [
                  {
                    "id" : 228,
                    "_type" : "Callout",
                    "def" : {
                      "kind" : "remix",
                      "shape" : "text",
                      "style" : "basic",
                      "height" : 129.561461793863,
                      "line-spacing" : 0.0,
                      "width" : 1941.78750000088,
                      "word-wrap" : 1.0,
                      "horizontal-alignment" : "center",
                      "resize-behavior" : "resizeText",
                      "text" : "2020",
                      "vertical-alignment" : "center",
                      "font" : {
                        "color-blue" : 1.0,
                        "color-green" : 1.0,
                        "color-red" : 1.0,
                        "size" : 96.0,
                        "tracking" : 0.0,
                        "name" : "Montserrat",
                        "weight" : "Regular"
                      },
                      "textAttributes" : {
                        "type" : "textAttributeList",
                        "keyframes" : [
                          {
                            "endTime" : 0,
                            "time" : 0,
                            "value" : [{"name":"fontName","rangeEnd":4,"rangeStart":0,"value":"Montserrat","valueType":"string"},{"name":"strikethrough","rangeEnd":4,"rangeStart":0,"value":0,"valueType":"int"},{"name":"kerning","rangeEnd":4,"rangeStart":0,"value":0,"valueType":"double"},{"name":"underline","rangeEnd":4,"rangeStart":0,"value":0,"valueType":"int"},{"name":"fontItalic","rangeEnd":4,"rangeStart":0,"value":0,"valueType":"int"},{"name":"fontSize","rangeEnd":4,"rangeStart":0,"value":80,"valueType":"double"},{"name":"fgColor","rangeEnd":4,"rangeStart":0,"value":"(255,255,255,255)","valueType":"color"},{"name":"fontWeight","rangeEnd":4,"rangeStart":0,"value":400,"valueType":"int"}],
                            "duration" : 0
                          }
                        ]
                      }
                    },
                    "attributes" : {
                      "autoRotateText" : true
                    },
                    "parameters" : {
                      "translation0" : 0.106249999582143,
                      "translation1" : -638.234842193255
                    },
                    "effects" : [
                        {
                          "effectName" : "DropShadow",
                          "category" : "categoryVisualEffects",
                          "parameters" : {
                            "angle" : 5.49778714378214,
                            "blur" : 10.0,
                            "color-alpha" : 1.0,
                            "color-blue" : 0.1216,
                            "color-green" : 0.1216,
                            "color-red" : 0.1216,
                            "enabled" : 1,
                            "offset" : 10.0,
                            "opacity" : 0.4
                          }
                        }
                    ],
                    "start" : 0,
                    "duration" : 150,
                    "mediaStart" : 0,
                    "mediaDuration" : 150,
                    "scalar" : 1,
                    "metadata" : {
                      "WinSubProjectDisplayName" : "",
                      "clipSpeedAttribute" : false,
                      "default-HAlign" : "center",
                      "default-LineSpace" : 0.0,
                      "default-VAlign" : "center",
                      "default-text-attributes" : "[{\"name\":\"strikethrough\",\"rangeEnd\":76,\"rangeStart\":0,\"value\":0,\"valueType\":\"int\"},{\"name\":\"fontItalic\",\"rangeEnd\":76,\"rangeStart\":0,\"value\":0,\"valueType\":\"int\"},{\"name\":\"fontName\",\"rangeEnd\":76,\"rangeStart\":0,\"value\":\"Montserrat\",\"valueType\":\"string\"},{\"name\":\"fgColor\",\"rangeEnd\":76,\"rangeStart\":0,\"value\":\"(255,255,255,255)\",\"valueType\":\"color\"},{\"name\":\"fontSize\",\"rangeEnd\":76,\"rangeStart\":0,\"value\":59,\"valueType\":\"double\"},{\"name\":\"underline\",\"rangeEnd\":76,\"rangeStart\":0,\"value\":0,\"valueType\":\"int\"},{\"name\":\"fontWeight\",\"rangeEnd\":76,\"rangeStart\":0,\"value\":400,\"valueType\":\"int\"}]",
                      "default-translation0" : 0.0,
                      "default-translation1" : 0.0
                    },
                    "animationTracks" : {

                    }
                  },
                  {
                    "id" : 229,
                    "_type" : "IMFile",
                    "src" : 10,
                    "trackNumber" : 0,
                    "trimStartSum" : 0,
                    "attributes" : {
                      "ident" : "256"
                    },
                    "parameters" : {
                      "translation0" : 584.883720930119,
                      "translation1" : -315.11627906971,
                      "scale0" : 1.33611918604793,
                      "scale1" : 1.33611918604793
                    },
                    "effects" : [

                    ],
                    "start" : 1447,
                    "duration" : 168,
                    "mediaStart" : 0,
                    "mediaDuration" : 1,
                    "scalar" : 1,
                    "metadata" : {
                      "clipSpeedAttribute" : false,
                      "default-scale0" : 1.0,
                      "default-scale1" : 1.0,
                      "default-translation0" : 0.0,
                      "default-translation1" : 0.0
                    },
                    "animationTracks" : {

                    }
                  },
                  {
                    "id" : 230,
                    "_type" : "IMFile",
                    "src" : 1,
                    "trackNumber" : 0,
                    "trimStartSum" : 0,
                    "attributes" : {
                      "ident" : "MSDN 0xC0000043"
                    },
                    "parameters" : {
                      "translation0" : {
                        "type" : "double",
                        "defaultValue" : 2.12443396208073e-10,
                        "keyframes" : [
                          {
                            "endTime" : 65,
                            "time" : 36,
                            "value" : -49.1773375653712,
                            "duration" : 29
                          }
                        ]
                      },
                      "translation1" : {
                        "type" : "double",
                        "defaultValue" : 1.92392768383343e-10,
                        "keyframes" : [
                          {
                            "endTime" : 65,
                            "time" : 36,
                            "value" : -218.749066433541,
                            "duration" : 29
                          }
                        ]
                      },
                      "scale0" : {
                        "type" : "double",
                        "defaultValue" : 0.999999999999939,
                        "keyframes" : [
                          {
                            "endTime" : 65,
                            "time" : 36,
                            "value" : 1.4089804054429,
                            "duration" : 29
                          }
                        ]
                      },
                      "scale1" : {
                        "type" : "double",
                        "defaultValue" : 0.999999999999939,
                        "keyframes" : [
                          {
                            "endTime" : 65,
                            "time" : 36,
                            "value" : 1.40898058344648,
                            "duration" : 29
                          }
                        ]
                      }
                    },
                    "effects" : [
                        {
                          "_type" : "GenericBehaviorEffect",
                          "effectName" : "fade",
                          "start" : 0,
                          "duration" : 150                        ,
                          "in" : {
                            "attributes" : {
                              "name" : "hinge",
                              "type" : 0,
                              "characterOrder" : 6,
                              "offsetBetweenCharacters" : "3/2",
                              "suggestedDurationPerCharacter" : "3599/100",
                              "overlapProportion" : "1/3",
                              "movement" : 0,
                              "springDamping" : 5.0,
                              "springStiffness" : 50.0,
                              "bounceBounciness" : 0.45
                            },
                            "parameters" : {
                              "direction" : {
                                "type" : "int",
                                "valueBounds" : {
                                  "minValue" : 0,
                                  "maxValue" : 3,
                                  "defaultValue" : 3
                                },
                                "uiHints" : {
                                  "userInterfaceType" : 2,
                                  "unitType" : 0
                                },
                                "keyframes" : [
                                  {
                                    "endTime" : 0,
                                    "time" : 0,
                                    "value" : 1,
                                    "duration" : 0
                                  }
                                ]
                              }
                            }
                          
                          },
                          "center" : {
                            "attributes" : {
                              "name" : "none",
                              "type" : 0,
                              "characterOrder" : 6,
                              "offsetBetweenCharacters" : 0,
                              "secondsPerLoop" : 1,
                              "numberOfLoops" : -1,
                              "delayBetweenLoops" : 0,
                              "offsetBetweenCharacters" : 0
                            }
                          
                          },
                          "out" : {
                            "attributes" : {
                              "name" : "fadeOut",
                              "type" : 0,
                              "characterOrder" : 6,
                              "offsetBetweenCharacters" : "3/2",
                              "suggestedDurationPerCharacter" : 30,
                              "overlapProportion" : 0,
                              "movement" : 0,
                              "springDamping" : 5.0,
                              "springStiffness" : 50.0,
                              "bounceBounciness" : 0.45
                            }
                          
                          },
                          "metadata" : {
                            "default-behavior-in-direction" : 3,
                            "default-behavior-in-duration" : 73.5,
                            "default-behavior-in-movement" : 30.0,
                            "default-behavior-in-style" : "fadeIn"
                          }
                        }
                    ],
                    "start" : 1615,
                    "duration" : 150,
                    "mediaStart" : 0,
                    "mediaDuration" : 1,
                    "scalar" : 1,
                    "metadata" : {
                      "WinSubProjectDisplayName" : "",
                      "clipSpeedAttribute" : false,
                      "default-scale0" : 0.75,
                      "default-scale1" : 0.75,
                      "default-translation0" : 0.0,
                      "default-translation1" : 0.0
                    },
                    "animationTracks" : {
                      "visual" : [
                        {
                          "endTime" : 65,
                          "duration" : 29,
                          "range" : [ 36, 29]
                        }
                      ]
                    }
                  },
                  {
                    "id" : 231,
                    "_type" : "Callout",
                    "def" : {
                      "kind" : "remix",
                      "shape" : "shape-rectangle",
                      "style" : "basic",
                      "fill-color-blue" : 0.0,
                      "fill-color-green" : 0.0,
                      "fill-color-opacity" : 0.0,
                      "fill-color-red" : 0.0,
                      "height" : 91.3178294575225,
                      "stroke-color-blue" : 0.0,
                      "stroke-color-green" : 0.0,
                      "stroke-color-opacity" : 1.0,
                      "stroke-color-red" : 1.0,
                      "stroke-width" : 15.0,
                      "width" : 1294.34717462647,
                      "fill-style" : "solid",
                      "horizontal-alignment" : "center",
                      "stroke-style" : "solid",
                      "vertical-alignment" : "center",
                      "textAttributes" : {
                        "type" : "textAttributeList",
                        "keyframes" : [
                          {
                            "endTime" : 0,
                            "time" : 0,
                            "value" : null,
                            "duration" : 0
                          }
                        ]
                      }
                    },
                    "attributes" : {
                      "autoRotateText" : true
                    },
                    "parameters" : {
                      "translation0" : -624.44101028199,
                      "translation1" : 3.48837209298695
                    },
                    "effects" : [
                        {
                          "effectName" : "DropShadow",
                          "category" : "categoryVisualEffects",
                          "parameters" : {
                            "angle" : 5.49778714378214,
                            "blur" : 10.0,
                            "color-alpha" : 1.0,
                            "color-blue" : 0.1216,
                            "color-green" : 0.1216,
                            "color-red" : 0.1216,
                            "enabled" : 1,
                            "offset" : 10.0,
                            "opacity" : 0.4
                          }
                        }
                    ],
                    "start" : 2053,
                    "duration" : 90,
                    "mediaStart" : 2,
                    "mediaDuration" : 90,
                    "scalar" : 1,
                    "metadata" : {
                      "WinSubProjectDisplayName" : "",
                      "clipSpeedAttribute" : false,
                      "default-callout-shape" : "shape-rectangle",
                      "default-stroke-color-red" : 0.0,
                      "default-stroke-width" : 6.0,
                      "default-translation0" : 0.0,
                      "default-translation1" : 0.0
                    },
                    "animationTracks" : {

                    }
                  },
                  {
                    "id" : 232,
                    "_type" : "AMFile",
                    "src" : 3,
                    "trackNumber" : 0,
                    "attributes" : {
                      "ident" : "Cinematic_Sound_Effects_Impacts_HD-youtube-C7monbiQkZo-251-320--sec 37-40",
                      "gain" : 1.0,
                      "mixToMono" : false
                    },
                      "channelNumber" : "0,1",
                    "effects" : [

                    ],
                    "start" : 2408,
                    "duration" : 121,
                    "mediaStart" : 1124,
                    "mediaDuration" : 121,
                    "scalar" : 1,
                    "metadata" : {
                      "clipSpeedAttribute" : false
                    },
                    "animationTracks" : {

                    }
                  },
                  {
                    "id" : 233,
                    "_type" : "Callout",
                    "def" : {
                      "kind" : "remix",
                      "shape" : "shape-rectangle",
                      "style" : "basic",
                      "fill-color-blue" : 0.0,
                      "fill-color-green" : 0.0,
                      "fill-color-opacity" : 0.0,
                      "fill-color-red" : 0.0,
                      "height" : 69.7619047618713,
                      "stroke-color-blue" : 0.0,
                      "stroke-color-green" : 0.0,
                      "stroke-color-opacity" : 1.0,
                      "stroke-color-red" : 1.0,
                      "stroke-width" : 15.0,
                      "width" : 1442.82585507285,
                      "fill-style" : "solid",
                      "horizontal-alignment" : "center",
                      "stroke-style" : "solid",
                      "vertical-alignment" : "center",
                      "textAttributes" : {
                        "type" : "textAttributeList",
                        "keyframes" : [
                          {
                            "endTime" : 0,
                            "time" : 0,
                            "value" : null,
                            "duration" : 0
                          }
                        ]
                      }
                    },
                    "attributes" : {
                      "autoRotateText" : true
                    },
                    "parameters" : {
                      "translation0" : -500.777510870621,
                      "translation1" : 606.904761905287
                    },
                    "effects" : [
                        {
                          "effectName" : "DropShadow",
                          "category" : "categoryVisualEffects",
                          "parameters" : {
                            "angle" : 5.49778714378214,
                            "blur" : 10.0,
                            "color-alpha" : 1.0,
                            "color-blue" : 0.1216,
                            "color-green" : 0.1216,
                            "color-red" : 0.1216,
                            "enabled" : 1,
                            "offset" : 10.0,
                            "opacity" : 0.4
                          }
                        }
                    ],
                    "start" : 3021,
                    "duration" : 162,
                    "mediaStart" : 8,
                    "mediaDuration" : 162,
                    "scalar" : 1,
                    "metadata" : {
                      "WinSubProjectDisplayName" : "",
                      "clipSpeedAttribute" : false,
                      "default-callout-shape" : "shape-rectangle",
                      "default-stroke-color-red" : 0.0,
                      "default-stroke-width" : 6.0,
                      "default-translation0" : 0.0,
                      "default-translation1" : 0.0
                    },
                    "animationTracks" : {

                    }
                  },
                  {
                    "id" : 234,
                    "_type" : "AMFile",
                    "src" : 5,
                    "trackNumber" : 0,
                    "attributes" : {
                      "ident" : "Ticking clock",
                      "gain" : 1.0,
                      "mixToMono" : false
                    },
                      "channelNumber" : "0,1",
                    "parameters" : {
                      "volume" : 0.549450549450553
                    },
                    "effects" : [

                    ],
                    "start" : 3318,
                    "duration" : 361,
                    "mediaStart" : 0,
                    "mediaDuration" : 361,
                    "scalar" : 1,
                    "metadata" : {
                      "clipSpeedAttribute" : false
                    },
                    "animationTracks" : {

                    }
                  },
                  {
                    "id" : 235,
                    "_type" : "AMFile",
                    "src" : 3,
                    "trackNumber" : 0,
                    "attributes" : {
                      "ident" : "Cinematic_Sound_Effects_Impacts_HD-youtube-C7monbiQkZo-251-320--sec 37-40",
                      "gain" : 1.0,
                      "mixToMono" : false
                    },
                      "channelNumber" : "0,1",
                    "parameters" : {
                      "volume" : {
                        "type" : "double",
                        "keyframes" : [
                          {
                            "endTime" : 0,
                            "time" : 0,
                            "value" : 1.0,
                            "duration" : 0
                          },
                          {
                            "endTime" : 707,
                            "time" : 707,
                            "value" : 1.0,
                            "duration" : 0
                          },
                          {
                            "endTime" : 730,
                            "time" : 730,
                            "value" : 0.0,
                            "duration" : 0
                          },
                          {
                            "endTime" : 731,
                            "time" : 731,
                            "value" : 1.0,
                            "duration" : 0
                          }
                        ]
                      }
                    },
                    "effects" : [

                    ],
                    "start" : 3797,
                    "duration" : 138,
                    "mediaStart" : 592,
                    "mediaDuration" : 138,
                    "scalar" : 1,
                    "metadata" : {
                      "clipSpeedAttribute" : false
                    },
                    "animationTracks" : {

                    }
                  }
                ]
              },
              {
                "trackIndex" : 7,
                "medias" : [
                  {
                    "id" : 236,
                    "_type" : "IMFile",
                    "src" : 9,
                    "trackNumber" : 0,
                    "trimStartSum" : 0,
                    "attributes" : {
                      "ident" : "4 new_idea_half_nobackground_mirror"
                    },
                    "parameters" : {
                      "translation0" : 580.543610339971,
                      "translation1" : -70.5089093980143,
                      "scale0" : 1.69672934017979,
                      "scale1" : 1.69672934017979
                    },
                    "effects" : [

                    ],
                    "start" : 518,
                    "duration" : 558,
                    "mediaStart" : 0,
                    "mediaDuration" : 1,
                    "scalar" : 1,
                    "metadata" : {
                      "clipSpeedAttribute" : false,
                      "default-scale0" : 1.0,
                      "default-scale1" : 1.0,
                      "default-translation0" : -0.5,
                      "default-translation1" : -0.5
                    },
                    "animationTracks" : {

                    }
                  },
                  {
                    "id" : 237,
                    "_type" : "Callout",
                    "def" : {
                      "kind" : "remix",
                      "shape" : "shape-rectangle",
                      "style" : "basic",
                      "fill-color-blue" : 0.0,
                      "fill-color-green" : 0.0,
                      "fill-color-opacity" : 0.0,
                      "fill-color-red" : 0.0,
                      "height" : 198.095238095269,
                      "stroke-color-blue" : 0.0,
                      "stroke-color-green" : 0.0,
                      "stroke-color-opacity" : 1.0,
                      "stroke-color-red" : 1.0,
                      "stroke-width" : 15.0,
                      "width" : 2455.99255952402,
                      "fill-style" : "solid",
                      "horizontal-alignment" : "center",
                      "stroke-style" : "solid",
                      "vertical-alignment" : "center",
                      "textAttributes" : {
                        "type" : "textAttributeList",
                        "keyframes" : [
                          {
                            "endTime" : 0,
                            "time" : 0,
                            "value" : null,
                            "duration" : 0
                          }
                        ]
                      }
                    },
                    "attributes" : {
                      "autoRotateText" : true
                    },
                    "parameters" : {
                      "translation0" : 7.40104166625372,
                      "translation1" : -255.595238094984
                    },
                    "effects" : [
                        {
                          "effectName" : "DropShadow",
                          "category" : "categoryVisualEffects",
                          "parameters" : {
                            "angle" : 5.49778714378214,
                            "blur" : 10.0,
                            "color-alpha" : 1.0,
                            "color-blue" : 0.1216,
                            "color-green" : 0.1216,
                            "color-red" : 0.1216,
                            "enabled" : 1,
                            "offset" : 10.0,
                            "opacity" : 0.4
                          }
                        }
                    ],
                    "start" : 1680,
                    "duration" : 71,
                    "mediaStart" : 0,
                    "mediaDuration" : 71,
                    "scalar" : 1,
                    "metadata" : {
                      "WinSubProjectDisplayName" : "",
                      "clipSpeedAttribute" : false,
                      "default-callout-shape" : "shape-rectangle",
                      "default-stroke-color-red" : 0.0,
                      "default-stroke-width" : 6.0,
                      "default-translation0" : 0.0,
                      "default-translation1" : 0.0
                    },
                    "animationTracks" : {

                    }
                  },
                  {
                    "id" : 238,
                    "_type" : "IMFile",
                    "src" : 10,
                    "trackNumber" : 0,
                    "trimStartSum" : 0,
                    "attributes" : {
                      "ident" : "256"
                    },
                    "parameters" : {
                      "translation0" : 1084.97674418576,
                      "translation1" : -319.767441861077,
                      "scale0" : 1.46329941860581,
                      "scale1" : 1.46329941860581
                    },
                    "effects" : [

                    ],
                    "start" : 2053,
                    "duration" : 750,
                    "mediaStart" : 0,
                    "mediaDuration" : 1,
                    "scalar" : 1,
                    "metadata" : {
                      "clipSpeedAttribute" : false,
                      "default-scale0" : 1.0,
                      "default-scale1" : 1.0,
                      "default-translation0" : 0.0,
                      "default-translation1" : 0.0
                    },
                    "animationTracks" : {

                    }
                  },
                  {
                    "id" : 239,
                    "_type" : "AMFile",
                    "src" : 3,
                    "trackNumber" : 0,
                    "attributes" : {
                      "ident" : "Cinematic_Sound_Effects_Impacts_HD-youtube-C7monbiQkZo-251-320--sec 37-40",
                      "gain" : 1.0,
                      "mixToMono" : false
                    },
                      "channelNumber" : "0,1",
                    "effects" : [

                    ],
                    "start" : 3004,
                    "duration" : 121,
                    "mediaStart" : 1124,
                    "mediaDuration" : 121,
                    "scalar" : 1,
                    "metadata" : {
                      "clipSpeedAttribute" : false
                    },
                    "animationTracks" : {

                    }
                  },
                  {
                    "id" : 240,
                    "_type" : "IMFile",
                    "src" : 10,
                    "trackNumber" : 0,
                    "trimStartSum" : 18,
                    "attributes" : {
                      "ident" : "256"
                    },
                    "parameters" : {
                      "translation0" : -4.76459973697274e-07,
                      "translation1" : -337.305590769117,
                      "scale0" : 1.87172965116312,
                      "scale1" : 1.87172965116312
                    },
                    "effects" : [

                    ],
                    "start" : 3815,
                    "duration" : 120,
                    "mediaStart" : 0,
                    "mediaDuration" : 1,
                    "scalar" : 1,
                    "metadata" : {
                      "clipSpeedAttribute" : false,
                      "default-rotation2" : 0.0,
                      "default-scale0" : 1.0,
                      "default-scale1" : 1.0,
                      "default-translation0" : 0.0,
                      "default-translation1" : 0.0
                    },
                    "animationTracks" : {

                    }
                  }
                ]
              },
              {
                "trackIndex" : 8,
                "medias" : [
                  {
                    "id" : 241,
                    "_type" : "Callout",
                    "def" : {
                      "kind" : "remix",
                      "shape" : "text-rectangle",
                      "style" : "basic",
                      "fill-color-blue" : 0.2,
                      "fill-color-green" : 0.4,
                      "fill-color-opacity" : 1.0,
                      "fill-color-red" : 0.0,
                      "height" : 137.999999999927,
                      "line-spacing" : 0.0,
                      "stroke-color-blue" : 0.890196078431372,
                      "stroke-color-green" : 0.870588235294118,
                      "stroke-color-opacity" : 1.0,
                      "stroke-color-red" : 0.847058823529412,
                      "stroke-width" : 2.0,
                      "tail-x" : -44.2805753761204,
                      "tail-y" : 75.9940476191278,
                      "width" : 2398.27248396897,
                      "word-wrap" : 1.0,
                      "fill-style" : "solid",
                      "horizontal-alignment" : "center",
                      "resize-behavior" : "resizeText",
                      "stroke-style" : "solid",
                      "text" : "The attacker gets 0xC0000043 or STATUS_SHARING_VIOLATION",
                      "vertical-alignment" : "center",
                      "font" : {
                        "color-blue" : 0.266666666666667,
                        "color-green" : 0.231372549019608,
                        "color-opacity" : 1.0,
                        "color-red" : 0.184313725490196,
                        "size" : 64.0,
                        "tracking" : 0.0,
                        "name" : "Montserrat",
                        "weight" : "Regular"
                      },
                      "textAttributes" : {
                        "type" : "textAttributeList",
                        "keyframes" : [
                          {
                            "endTime" : 0,
                            "time" : 0,
                            "value" : [{"name":"kerning","rangeEnd":56,"rangeStart":0,"value":0,"valueType":"double"},{"name":"fgColor","rangeEnd":56,"rangeStart":0,"value":"(255,255,255,255)","valueType":"color"},{"name":"fontWeight","rangeEnd":56,"rangeStart":0,"value":400,"valueType":"int"},{"name":"underline","rangeEnd":56,"rangeStart":0,"value":0,"valueType":"int"},{"name":"strikethrough","rangeEnd":56,"rangeStart":0,"value":0,"valueType":"int"},{"name":"fontSize","rangeEnd":56,"rangeStart":0,"value":75,"valueType":"double"},{"name":"fontName","rangeEnd":56,"rangeStart":0,"value":"Montserrat","valueType":"string"},{"name":"fontItalic","rangeEnd":56,"rangeStart":0,"value":0,"valueType":"int"}],
                            "duration" : 0
                          }
                        ]
                      }
                    },
                    "attributes" : {
                      "autoRotateText" : true
                    },
                    "parameters" : {
                      "translation0" : -28.9590542400004,
                      "translation1" : -578.650297619623
                    },
                    "effects" : [
                        {
                          "effectName" : "DropShadow",
                          "category" : "categoryVisualEffects",
                          "parameters" : {
                            "angle" : 5.49778714378214,
                            "blur" : 10.0,
                            "color-alpha" : 1.0,
                            "color-blue" : 0.1216,
                            "color-green" : 0.1216,
                            "color-red" : 0.1216,
                            "enabled" : 1,
                            "offset" : 10.0,
                            "opacity" : 0.4
                          }
                        }
                    ],
                    "start" : 1680,
                    "duration" : 71,
                    "mediaStart" : -14,
                    "mediaDuration" : 71,
                    "scalar" : 1,
                    "metadata" : {
                      "WinSubProjectDisplayName" : "",
                      "clipSpeedAttribute" : false,
                      "default-HAlign" : "center",
                      "default-LineSpace" : 0.0,
                      "default-VAlign" : "center",
                      "default-fill-color-blue" : 1.0,
                      "default-fill-color-green" : 1.0,
                      "default-fill-color-red" : 1.0,
                      "default-scale0" : 1.0,
                      "default-scale1" : 1.0,
                      "default-stroke-color-blue" : 0.56078431372549,
                      "default-stroke-color-green" : 0.686274509803922,
                      "default-stroke-color-red" : 0.0196078431372549,
                      "default-text-attributes" : "[{\"name\":\"fontSize\",\"rangeEnd\":32,\"rangeStart\":0,\"value\":64,\"valueType\":\"double\"},{\"name\":\"fgColor\",\"rangeEnd\":32,\"rangeStart\":0,\"value\":\"(255,255,255,255)\",\"valueType\":\"color\"},{\"name\":\"fontWeight\",\"rangeEnd\":32,\"rangeStart\":0,\"value\":400,\"valueType\":\"int\"},{\"name\":\"fontName\",\"rangeEnd\":32,\"rangeStart\":0,\"value\":\"Montserrat\",\"valueType\":\"string\"},{\"name\":\"fontItalic\",\"rangeEnd\":32,\"rangeStart\":0,\"value\":0,\"valueType\":\"int\"},{\"name\":\"strikethrough\",\"rangeEnd\":32,\"rangeStart\":0,\"value\":0,\"valueType\":\"int\"},{\"name\":\"underline\",\"rangeEnd\":32,\"rangeStart\":0,\"value\":0,\"valueType\":\"int\"}]",
                      "default-translation0" : 0.0,
                      "default-translation1" : 0.0
                    },
                    "animationTracks" : {

                    }
                  },
                  {
                    "id" : 242,
                    "_type" : "VMFile",
                    "src" : 11,
                    "trackNumber" : 0,
                    "attributes" : {
                      "ident" : "ezgif-3-86c503cbd005"
                    },
                    "parameters" : {
                      "translation0" : 1030.60299003331,
                      "translation1" : -305.767441861093,
                      "scale0" : 0.5,
                      "scale1" : 0.5
                    },
                    "effects" : [

                    ],
                    "start" : 2426,
                    "duration" : 27,
                    "mediaStart" : 0,
                    "mediaDuration" : 27,
                    "scalar" : 1,
                    "metadata" : {
                      "clipSpeedAttribute" : false,
                      "default-scale0" : 1.0,
                      "default-scale1" : 1.0,
                      "default-translation0" : 0.0,
                      "default-translation1" : 0.0
                    },
                    "animationTracks" : {

                    }
                  },
                  {
                    "id" : 243,
                    "_type" : "VMFile",
                    "src" : 11,
                    "trackNumber" : 0,
                    "attributes" : {
                      "ident" : "ezgif-3-86c503cbd005"
                    },
                    "parameters" : {
                      "translation0" : 1030.60299003331,
                      "translation1" : -305.767441861093,
                      "scale0" : 0.5,
                      "scale1" : 0.5
                    },
                    "effects" : [

                    ],
                    "start" : 2453,
                    "duration" : 27,
                    "mediaStart" : 0,
                    "mediaDuration" : 27,
                    "scalar" : 1,
                    "metadata" : {
                      "clipSpeedAttribute" : false,
                      "default-scale0" : 1.0,
                      "default-scale1" : 1.0,
                      "default-translation0" : 0.0,
                      "default-translation1" : 0.0
                    },
                    "animationTracks" : {

                    }
                  },
                  {
                    "id" : 244,
                    "_type" : "VMFile",
                    "src" : 11,
                    "trackNumber" : 0,
                    "attributes" : {
                      "ident" : "ezgif-3-86c503cbd005"
                    },
                    "parameters" : {
                      "translation0" : 1030.60299003331,
                      "translation1" : -305.767441861093,
                      "scale0" : 0.5,
                      "scale1" : 0.5
                    },
                    "effects" : [

                    ],
                    "start" : 2480,
                    "duration" : 27,
                    "mediaStart" : 0,
                    "mediaDuration" : 27,
                    "scalar" : 1,
                    "metadata" : {
                      "clipSpeedAttribute" : false,
                      "default-scale0" : 1.0,
                      "default-scale1" : 1.0,
                      "default-translation0" : 0.0,
                      "default-translation1" : 0.0
                    },
                    "animationTracks" : {

                    }
                  },
                  {
                    "id" : 245,
                    "_type" : "VMFile",
                    "src" : 11,
                    "trackNumber" : 0,
                    "attributes" : {
                      "ident" : "ezgif-3-86c503cbd005"
                    },
                    "parameters" : {
                      "translation0" : 1030.60299003331,
                      "translation1" : -305.767441861093,
                      "scale0" : 0.5,
                      "scale1" : 0.5
                    },
                    "effects" : [

                    ],
                    "start" : 2507,
                    "duration" : 27,
                    "mediaStart" : 0,
                    "mediaDuration" : 27,
                    "scalar" : 1,
                    "metadata" : {
                      "clipSpeedAttribute" : false,
                      "default-scale0" : 1.0,
                      "default-scale1" : 1.0,
                      "default-translation0" : 0.0,
                      "default-translation1" : 0.0
                    },
                    "animationTracks" : {

                    }
                  },
                  {
                    "id" : 246,
                    "_type" : "VMFile",
                    "src" : 11,
                    "trackNumber" : 0,
                    "attributes" : {
                      "ident" : "ezgif-3-86c503cbd005"
                    },
                    "parameters" : {
                      "translation0" : 1030.60299003331,
                      "translation1" : -305.767441861093,
                      "scale0" : 0.5,
                      "scale1" : 0.5
                    },
                    "effects" : [

                    ],
                    "start" : 2534,
                    "duration" : 27,
                    "mediaStart" : 0,
                    "mediaDuration" : 27,
                    "scalar" : 1,
                    "metadata" : {
                      "clipSpeedAttribute" : false,
                      "default-scale0" : 1.0,
                      "default-scale1" : 1.0,
                      "default-translation0" : 0.0,
                      "default-translation1" : 0.0
                    },
                    "animationTracks" : {

                    }
                  },
                  {
                    "id" : 247,
                    "_type" : "VMFile",
                    "src" : 11,
                    "trackNumber" : 0,
                    "attributes" : {
                      "ident" : "ezgif-3-86c503cbd005"
                    },
                    "parameters" : {
                      "translation0" : 1030.60299003331,
                      "translation1" : -305.767441861093,
                      "scale0" : 0.5,
                      "scale1" : 0.5
                    },
                    "effects" : [

                    ],
                    "start" : 2561,
                    "duration" : 27,
                    "mediaStart" : 0,
                    "mediaDuration" : 27,
                    "scalar" : 1,
                    "metadata" : {
                      "clipSpeedAttribute" : false,
                      "default-scale0" : 1.0,
                      "default-scale1" : 1.0,
                      "default-translation0" : 0.0,
                      "default-translation1" : 0.0
                    },
                    "animationTracks" : {

                    }
                  },
                  {
                    "id" : 248,
                    "_type" : "VMFile",
                    "src" : 11,
                    "trackNumber" : 0,
                    "attributes" : {
                      "ident" : "ezgif-3-86c503cbd005"
                    },
                    "parameters" : {
                      "translation0" : 1030.60299003331,
                      "translation1" : -305.767441861093,
                      "scale0" : 0.5,
                      "scale1" : 0.5
                    },
                    "effects" : [

                    ],
                    "start" : 2588,
                    "duration" : 27,
                    "mediaStart" : 0,
                    "mediaDuration" : 27,
                    "scalar" : 1,
                    "metadata" : {
                      "clipSpeedAttribute" : false,
                      "default-scale0" : 1.0,
                      "default-scale1" : 1.0,
                      "default-translation0" : 0.0,
                      "default-translation1" : 0.0
                    },
                    "animationTracks" : {

                    }
                  },
                  {
                    "id" : 249,
                    "_type" : "VMFile",
                    "src" : 11,
                    "trackNumber" : 0,
                    "attributes" : {
                      "ident" : "ezgif-3-86c503cbd005"
                    },
                    "parameters" : {
                      "translation0" : 1030.60299003331,
                      "translation1" : -305.767441861093,
                      "scale0" : 0.5,
                      "scale1" : 0.5
                    },
                    "effects" : [

                    ],
                    "start" : 2615,
                    "duration" : 27,
                    "mediaStart" : 0,
                    "mediaDuration" : 27,
                    "scalar" : 1,
                    "metadata" : {
                      "clipSpeedAttribute" : false,
                      "default-scale0" : 1.0,
                      "default-scale1" : 1.0,
                      "default-translation0" : 0.0,
                      "default-translation1" : 0.0
                    },
                    "animationTracks" : {

                    }
                  },
                  {
                    "id" : 250,
                    "_type" : "VMFile",
                    "src" : 11,
                    "trackNumber" : 0,
                    "attributes" : {
                      "ident" : "ezgif-3-86c503cbd005"
                    },
                    "parameters" : {
                      "translation0" : 1030.60299003331,
                      "translation1" : -305.767441861093,
                      "scale0" : 0.5,
                      "scale1" : 0.5
                    },
                    "effects" : [

                    ],
                    "start" : 2642,
                    "duration" : 27,
                    "mediaStart" : 0,
                    "mediaDuration" : 27,
                    "scalar" : 1,
                    "metadata" : {
                      "clipSpeedAttribute" : false,
                      "default-scale0" : 1.0,
                      "default-scale1" : 1.0,
                      "default-translation0" : 0.0,
                      "default-translation1" : 0.0
                    },
                    "animationTracks" : {

                    }
                  },
                  {
                    "id" : 251,
                    "_type" : "VMFile",
                    "src" : 11,
                    "trackNumber" : 0,
                    "attributes" : {
                      "ident" : "ezgif-3-86c503cbd005"
                    },
                    "parameters" : {
                      "translation0" : 1030.60299003331,
                      "translation1" : -305.767441861093,
                      "scale0" : 0.5,
                      "scale1" : 0.5
                    },
                    "effects" : [

                    ],
                    "start" : 2669,
                    "duration" : 27,
                    "mediaStart" : 0,
                    "mediaDuration" : 27,
                    "scalar" : 1,
                    "metadata" : {
                      "clipSpeedAttribute" : false,
                      "default-scale0" : 1.0,
                      "default-scale1" : 1.0,
                      "default-translation0" : 0.0,
                      "default-translation1" : 0.0
                    },
                    "animationTracks" : {

                    }
                  },
                  {
                    "id" : 252,
                    "_type" : "VMFile",
                    "src" : 11,
                    "trackNumber" : 0,
                    "attributes" : {
                      "ident" : "ezgif-3-86c503cbd005"
                    },
                    "parameters" : {
                      "translation0" : 1030.60299003331,
                      "translation1" : -305.767441861093,
                      "scale0" : 0.5,
                      "scale1" : 0.5
                    },
                    "effects" : [

                    ],
                    "start" : 2696,
                    "duration" : 27,
                    "mediaStart" : 0,
                    "mediaDuration" : 27,
                    "scalar" : 1,
                    "metadata" : {
                      "clipSpeedAttribute" : false,
                      "default-scale0" : 1.0,
                      "default-scale1" : 1.0,
                      "default-translation0" : 0.0,
                      "default-translation1" : 0.0
                    },
                    "animationTracks" : {

                    }
                  },
                  {
                    "id" : 253,
                    "_type" : "VMFile",
                    "src" : 11,
                    "trackNumber" : 0,
                    "attributes" : {
                      "ident" : "ezgif-3-86c503cbd005"
                    },
                    "parameters" : {
                      "translation0" : 1030.60299003331,
                      "translation1" : -305.767441861093,
                      "scale0" : 0.5,
                      "scale1" : 0.5
                    },
                    "effects" : [

                    ],
                    "start" : 2723,
                    "duration" : 27,
                    "mediaStart" : 0,
                    "mediaDuration" : 27,
                    "scalar" : 1,
                    "metadata" : {
                      "clipSpeedAttribute" : false,
                      "default-scale0" : 1.0,
                      "default-scale1" : 1.0,
                      "default-translation0" : 0.0,
                      "default-translation1" : 0.0
                    },
                    "animationTracks" : {

                    }
                  },
                  {
                    "id" : 254,
                    "_type" : "IMFile",
                    "src" : 9,
                    "trackNumber" : 0,
                    "trimStartSum" : 0,
                    "attributes" : {
                      "ident" : "4 new_idea_half_nobackground_mirror"
                    },
                    "parameters" : {
                      "translation0" : 680.599218358996,
                      "translation1" : 20.4893144333402,
                      "scale0" : 2.05288677200505,
                      "scale1" : 2.05288677200505
                    },
                    "effects" : [

                    ],
                    "start" : 2877,
                    "duration" : 144,
                    "mediaStart" : 0,
                    "mediaDuration" : 1,
                    "scalar" : 1,
                    "metadata" : {
                      "clipSpeedAttribute" : false,
                      "default-scale0" : 1.0,
                      "default-scale1" : 1.0,
                      "default-translation0" : -0.5,
                      "default-translation1" : -0.5
                    },
                    "animationTracks" : {

                    }
                  },
                  {
                    "id" : 255,
                    "_type" : "IMFile",
                    "src" : 8,
                    "trackNumber" : 0,
                    "trimStartSum" : 6,
                    "attributes" : {
                      "ident" : "Problem_original"
                    },
                    "parameters" : {
                      "translation0" : 605.81395348818,
                      "translation1" : -66.232558139678,
                      "scale0" : 1.95385174418705,
                      "scale1" : 1.95385174418705
                    },
                    "effects" : [

                    ],
                    "start" : 3021,
                    "duration" : 162,
                    "mediaStart" : 0,
                    "mediaDuration" : 1,
                    "scalar" : 1,
                    "metadata" : {
                      "clipSpeedAttribute" : false,
                      "default-scale0" : 1.0,
                      "default-scale1" : 1.0,
                      "default-translation0" : 0.0,
                      "default-translation1" : 0.0
                    },
                    "animationTracks" : {

                    }
                  },
                  {
                    "id" : 256,
                    "_type" : "VMFile",
                    "src" : 11,
                    "trackNumber" : 0,
                    "attributes" : {
                      "ident" : "ezgif-3-86c503cbd005"
                    },
                    "parameters" : {
                      "translation0" : -71.7225913622527,
                      "translation1" : -315.069767442455,
                      "scale0" : 0.6,
                      "scale1" : 0.6
                    },
                    "effects" : [

                    ],
                    "start" : 3851,
                    "duration" : 27,
                    "mediaStart" : 0,
                    "mediaDuration" : 27,
                    "scalar" : 1,
                    "metadata" : {
                      "clipSpeedAttribute" : false,
                      "default-scale0" : 1.0,
                      "default-scale1" : 1.0,
                      "default-translation0" : 0.0,
                      "default-translation1" : 0.0
                    },
                    "animationTracks" : {

                    }
                  },
                  {
                    "id" : 257,
                    "_type" : "VMFile",
                    "src" : 11,
                    "trackNumber" : 0,
                    "attributes" : {
                      "ident" : "ezgif-3-86c503cbd005"
                    },
                    "parameters" : {
                      "translation0" : -71.7225913622527,
                      "translation1" : -315.069767442455,
                      "scale0" : 0.6,
                      "scale1" : 0.6
                    },
                    "effects" : [

                    ],
                    "start" : 3878,
                    "duration" : 27,
                    "mediaStart" : 0,
                    "mediaDuration" : 27,
                    "scalar" : 1,
                    "metadata" : {
                      "clipSpeedAttribute" : false,
                      "default-scale0" : 1.0,
                      "default-scale1" : 1.0,
                      "default-translation0" : 0.0,
                      "default-translation1" : 0.0
                    },
                    "animationTracks" : {

                    }
                  },
                  {
                    "id" : 258,
                    "_type" : "VMFile",
                    "src" : 11,
                    "trackNumber" : 0,
                    "attributes" : {
                      "ident" : "ezgif-3-86c503cbd005"
                    },
                    "parameters" : {
                      "translation0" : -71.7225913622527,
                      "translation1" : -315.069767442455,
                      "scale0" : 0.6,
                      "scale1" : 0.6
                    },
                    "effects" : [

                    ],
                    "start" : 3905,
                    "duration" : 27,
                    "mediaStart" : 0,
                    "mediaDuration" : 27,
                    "scalar" : 1,
                    "metadata" : {
                      "clipSpeedAttribute" : false,
                      "default-scale0" : 1.0,
                      "default-scale1" : 1.0,
                      "default-translation0" : 0.0,
                      "default-translation1" : 0.0
                    },
                    "animationTracks" : {

                    }
                  },
                  {
                    "id" : 259,
                    "_type" : "VMFile",
                    "src" : 11,
                    "trackNumber" : 0,
                    "attributes" : {
                      "ident" : "ezgif-3-86c503cbd005"
                    },
                    "parameters" : {
                      "translation0" : -71.7225913622527,
                      "translation1" : -315.069767442455,
                      "scale0" : 0.6,
                      "scale1" : 0.6
                    },
                    "effects" : [

                    ],
                    "start" : 3932,
                    "duration" : 3,
                    "mediaStart" : 0,
                    "mediaDuration" : 3,
                    "scalar" : 1,
                    "metadata" : {
                      "clipSpeedAttribute" : false,
                      "default-scale0" : 1.0,
                      "default-scale1" : 1.0,
                      "default-translation0" : 0.0,
                      "default-translation1" : 0.0
                    },
                    "animationTracks" : {

                    }
                  }
                ]
              },
              {
                "trackIndex" : 9,
                "medias" : [
                  {
                    "id" : 260,
                    "_type" : "VMFile",
                    "src" : 11,
                    "trackNumber" : 0,
                    "attributes" : {
                      "ident" : "ezgif-3-86c503cbd005"
                    },
                    "parameters" : {
                      "translation0" : 1142.23089700997,
                      "translation1" : -305.767441861093,
                      "scale0" : 0.5,
                      "scale1" : 0.5
                    },
                    "effects" : [

                    ],
                    "start" : 2426,
                    "duration" : 27,
                    "mediaStart" : 0,
                    "mediaDuration" : 27,
                    "scalar" : 1,
                    "metadata" : {
                      "clipSpeedAttribute" : false,
                      "default-scale0" : 1.0,
                      "default-scale1" : 1.0,
                      "default-translation0" : 0.0,
                      "default-translation1" : 0.0
                    },
                    "animationTracks" : {

                    }
                  },
                  {
                    "id" : 261,
                    "_type" : "VMFile",
                    "src" : 11,
                    "trackNumber" : 0,
                    "attributes" : {
                      "ident" : "ezgif-3-86c503cbd005"
                    },
                    "parameters" : {
                      "translation0" : 1142.23089700997,
                      "translation1" : -305.767441861093,
                      "scale0" : 0.5,
                      "scale1" : 0.5
                    },
                    "effects" : [

                    ],
                    "start" : 2453,
                    "duration" : 27,
                    "mediaStart" : 0,
                    "mediaDuration" : 27,
                    "scalar" : 1,
                    "metadata" : {
                      "clipSpeedAttribute" : false,
                      "default-scale0" : 1.0,
                      "default-scale1" : 1.0,
                      "default-translation0" : 0.0,
                      "default-translation1" : 0.0
                    },
                    "animationTracks" : {

                    }
                  },
                  {
                    "id" : 262,
                    "_type" : "VMFile",
                    "src" : 11,
                    "trackNumber" : 0,
                    "attributes" : {
                      "ident" : "ezgif-3-86c503cbd005"
                    },
                    "parameters" : {
                      "translation0" : 1142.23089700997,
                      "translation1" : -305.767441861093,
                      "scale0" : 0.5,
                      "scale1" : 0.5
                    },
                    "effects" : [

                    ],
                    "start" : 2480,
                    "duration" : 27,
                    "mediaStart" : 0,
                    "mediaDuration" : 27,
                    "scalar" : 1,
                    "metadata" : {
                      "clipSpeedAttribute" : false,
                      "default-scale0" : 1.0,
                      "default-scale1" : 1.0,
                      "default-translation0" : 0.0,
                      "default-translation1" : 0.0
                    },
                    "animationTracks" : {

                    }
                  },
                  {
                    "id" : 263,
                    "_type" : "VMFile",
                    "src" : 11,
                    "trackNumber" : 0,
                    "attributes" : {
                      "ident" : "ezgif-3-86c503cbd005"
                    },
                    "parameters" : {
                      "translation0" : 1142.23089700997,
                      "translation1" : -305.767441861093,
                      "scale0" : 0.5,
                      "scale1" : 0.5
                    },
                    "effects" : [

                    ],
                    "start" : 2507,
                    "duration" : 27,
                    "mediaStart" : 0,
                    "mediaDuration" : 27,
                    "scalar" : 1,
                    "metadata" : {
                      "clipSpeedAttribute" : false,
                      "default-scale0" : 1.0,
                      "default-scale1" : 1.0,
                      "default-translation0" : 0.0,
                      "default-translation1" : 0.0
                    },
                    "animationTracks" : {

                    }
                  },
                  {
                    "id" : 264,
                    "_type" : "VMFile",
                    "src" : 11,
                    "trackNumber" : 0,
                    "attributes" : {
                      "ident" : "ezgif-3-86c503cbd005"
                    },
                    "parameters" : {
                      "translation0" : 1142.23089700997,
                      "translation1" : -305.767441861093,
                      "scale0" : 0.5,
                      "scale1" : 0.5
                    },
                    "effects" : [

                    ],
                    "start" : 2534,
                    "duration" : 27,
                    "mediaStart" : 0,
                    "mediaDuration" : 27,
                    "scalar" : 1,
                    "metadata" : {
                      "clipSpeedAttribute" : false,
                      "default-scale0" : 1.0,
                      "default-scale1" : 1.0,
                      "default-translation0" : 0.0,
                      "default-translation1" : 0.0
                    },
                    "animationTracks" : {

                    }
                  },
                  {
                    "id" : 265,
                    "_type" : "VMFile",
                    "src" : 11,
                    "trackNumber" : 0,
                    "attributes" : {
                      "ident" : "ezgif-3-86c503cbd005"
                    },
                    "parameters" : {
                      "translation0" : 1142.23089700997,
                      "translation1" : -305.767441861093,
                      "scale0" : 0.5,
                      "scale1" : 0.5
                    },
                    "effects" : [

                    ],
                    "start" : 2561,
                    "duration" : 27,
                    "mediaStart" : 0,
                    "mediaDuration" : 27,
                    "scalar" : 1,
                    "metadata" : {
                      "clipSpeedAttribute" : false,
                      "default-scale0" : 1.0,
                      "default-scale1" : 1.0,
                      "default-translation0" : 0.0,
                      "default-translation1" : 0.0
                    },
                    "animationTracks" : {

                    }
                  },
                  {
                    "id" : 266,
                    "_type" : "VMFile",
                    "src" : 11,
                    "trackNumber" : 0,
                    "attributes" : {
                      "ident" : "ezgif-3-86c503cbd005"
                    },
                    "parameters" : {
                      "translation0" : 1142.23089700997,
                      "translation1" : -305.767441861093,
                      "scale0" : 0.5,
                      "scale1" : 0.5
                    },
                    "effects" : [

                    ],
                    "start" : 2588,
                    "duration" : 27,
                    "mediaStart" : 0,
                    "mediaDuration" : 27,
                    "scalar" : 1,
                    "metadata" : {
                      "clipSpeedAttribute" : false,
                      "default-scale0" : 1.0,
                      "default-scale1" : 1.0,
                      "default-translation0" : 0.0,
                      "default-translation1" : 0.0
                    },
                    "animationTracks" : {

                    }
                  },
                  {
                    "id" : 267,
                    "_type" : "VMFile",
                    "src" : 11,
                    "trackNumber" : 0,
                    "attributes" : {
                      "ident" : "ezgif-3-86c503cbd005"
                    },
                    "parameters" : {
                      "translation0" : 1142.23089700997,
                      "translation1" : -305.767441861093,
                      "scale0" : 0.5,
                      "scale1" : 0.5
                    },
                    "effects" : [

                    ],
                    "start" : 2615,
                    "duration" : 27,
                    "mediaStart" : 0,
                    "mediaDuration" : 27,
                    "scalar" : 1,
                    "metadata" : {
                      "clipSpeedAttribute" : false,
                      "default-scale0" : 1.0,
                      "default-scale1" : 1.0,
                      "default-translation0" : 0.0,
                      "default-translation1" : 0.0
                    },
                    "animationTracks" : {

                    }
                  },
                  {
                    "id" : 268,
                    "_type" : "VMFile",
                    "src" : 11,
                    "trackNumber" : 0,
                    "attributes" : {
                      "ident" : "ezgif-3-86c503cbd005"
                    },
                    "parameters" : {
                      "translation0" : 1142.23089700997,
                      "translation1" : -305.767441861093,
                      "scale0" : 0.5,
                      "scale1" : 0.5
                    },
                    "effects" : [

                    ],
                    "start" : 2642,
                    "duration" : 27,
                    "mediaStart" : 0,
                    "mediaDuration" : 27,
                    "scalar" : 1,
                    "metadata" : {
                      "clipSpeedAttribute" : false,
                      "default-scale0" : 1.0,
                      "default-scale1" : 1.0,
                      "default-translation0" : 0.0,
                      "default-translation1" : 0.0
                    },
                    "animationTracks" : {

                    }
                  },
                  {
                    "id" : 269,
                    "_type" : "VMFile",
                    "src" : 11,
                    "trackNumber" : 0,
                    "attributes" : {
                      "ident" : "ezgif-3-86c503cbd005"
                    },
                    "parameters" : {
                      "translation0" : 1142.23089700997,
                      "translation1" : -305.767441861093,
                      "scale0" : 0.5,
                      "scale1" : 0.5
                    },
                    "effects" : [

                    ],
                    "start" : 2669,
                    "duration" : 27,
                    "mediaStart" : 0,
                    "mediaDuration" : 27,
                    "scalar" : 1,
                    "metadata" : {
                      "clipSpeedAttribute" : false,
                      "default-scale0" : 1.0,
                      "default-scale1" : 1.0,
                      "default-translation0" : 0.0,
                      "default-translation1" : 0.0
                    },
                    "animationTracks" : {

                    }
                  },
                  {
                    "id" : 270,
                    "_type" : "VMFile",
                    "src" : 11,
                    "trackNumber" : 0,
                    "attributes" : {
                      "ident" : "ezgif-3-86c503cbd005"
                    },
                    "parameters" : {
                      "translation0" : 1142.23089700997,
                      "translation1" : -305.767441861093,
                      "scale0" : 0.5,
                      "scale1" : 0.5
                    },
                    "effects" : [

                    ],
                    "start" : 2696,
                    "duration" : 27,
                    "mediaStart" : 0,
                    "mediaDuration" : 27,
                    "scalar" : 1,
                    "metadata" : {
                      "clipSpeedAttribute" : false,
                      "default-scale0" : 1.0,
                      "default-scale1" : 1.0,
                      "default-translation0" : 0.0,
                      "default-translation1" : 0.0
                    },
                    "animationTracks" : {

                    }
                  },
                  {
                    "id" : 271,
                    "_type" : "VMFile",
                    "src" : 11,
                    "trackNumber" : 0,
                    "attributes" : {
                      "ident" : "ezgif-3-86c503cbd005"
                    },
                    "parameters" : {
                      "translation0" : 1142.23089700997,
                      "translation1" : -305.767441861093,
                      "scale0" : 0.5,
                      "scale1" : 0.5
                    },
                    "effects" : [

                    ],
                    "start" : 2723,
                    "duration" : 27,
                    "mediaStart" : 0,
                    "mediaDuration" : 27,
                    "scalar" : 1,
                    "metadata" : {
                      "clipSpeedAttribute" : false,
                      "default-scale0" : 1.0,
                      "default-scale1" : 1.0,
                      "default-translation0" : 0.0,
                      "default-translation1" : 0.0
                    },
                    "animationTracks" : {

                    }
                  },
                  {
                    "id" : 272,
                    "_type" : "VMFile",
                    "src" : 11,
                    "trackNumber" : 0,
                    "attributes" : {
                      "ident" : "ezgif-3-86c503cbd005"
                    },
                    "parameters" : {
                      "translation0" : 70.1378737540317,
                      "translation1" : -315.069767442455,
                      "scale0" : 0.6,
                      "scale1" : 0.6
                    },
                    "effects" : [

                    ],
                    "start" : 3851,
                    "duration" : 27,
                    "mediaStart" : 0,
                    "mediaDuration" : 27,
                    "scalar" : 1,
                    "metadata" : {
                      "clipSpeedAttribute" : false,
                      "default-scale0" : 1.0,
                      "default-scale1" : 1.0,
                      "default-translation0" : 0.0,
                      "default-translation1" : 0.0
                    },
                    "animationTracks" : {

                    }
                  },
                  {
                    "id" : 273,
                    "_type" : "VMFile",
                    "src" : 11,
                    "trackNumber" : 0,
                    "attributes" : {
                      "ident" : "ezgif-3-86c503cbd005"
                    },
                    "parameters" : {
                      "translation0" : 70.1378737540317,
                      "translation1" : -315.069767442455,
                      "scale0" : 0.6,
                      "scale1" : 0.6
                    },
                    "effects" : [

                    ],
                    "start" : 3878,
                    "duration" : 27,
                    "mediaStart" : 0,
                    "mediaDuration" : 27,
                    "scalar" : 1,
                    "metadata" : {
                      "clipSpeedAttribute" : false,
                      "default-scale0" : 1.0,
                      "default-scale1" : 1.0,
                      "default-translation0" : 0.0,
                      "default-translation1" : 0.0
                    },
                    "animationTracks" : {

                    }
                  },
                  {
                    "id" : 274,
                    "_type" : "VMFile",
                    "src" : 11,
                    "trackNumber" : 0,
                    "attributes" : {
                      "ident" : "ezgif-3-86c503cbd005"
                    },
                    "parameters" : {
                      "translation0" : 70.1378737540317,
                      "translation1" : -315.069767442455,
                      "scale0" : 0.6,
                      "scale1" : 0.6
                    },
                    "effects" : [

                    ],
                    "start" : 3905,
                    "duration" : 27,
                    "mediaStart" : 0,
                    "mediaDuration" : 27,
                    "scalar" : 1,
                    "metadata" : {
                      "clipSpeedAttribute" : false,
                      "default-scale0" : 1.0,
                      "default-scale1" : 1.0,
                      "default-translation0" : 0.0,
                      "default-translation1" : 0.0
                    },
                    "animationTracks" : {

                    }
                  },
                  {
                    "id" : 275,
                    "_type" : "VMFile",
                    "src" : 11,
                    "trackNumber" : 0,
                    "attributes" : {
                      "ident" : "ezgif-3-86c503cbd005"
                    },
                    "parameters" : {
                      "translation0" : 70.1378737540317,
                      "translation1" : -315.069767442455,
                      "scale0" : 0.6,
                      "scale1" : 0.6
                    },
                    "effects" : [

                    ],
                    "start" : 3932,
                    "duration" : 3,
                    "mediaStart" : 0,
                    "mediaDuration" : 3,
                    "scalar" : 1,
                    "metadata" : {
                      "clipSpeedAttribute" : false,
                      "default-scale0" : 1.0,
                      "default-scale1" : 1.0,
                      "default-translation0" : 0.0,
                      "default-translation1" : 0.0
                    },
                    "animationTracks" : {

                    }
                  }
                ]
              },
              {
                "trackIndex" : 10,
                "medias" : [
                ]
              },
              {
                "trackIndex" : 11,
                "medias" : [
                ]
              },
              {
                "trackIndex" : 12,
                "medias" : [
                ]
              }
            ]
          }
        }
      ]
    },
    "trackAttributes" : [
      {
        "ident" : "",
        "audioMuted" : false,
        "videoHidden" : false,
        "magnetic" : false,
        "matte" : 0,
        "metadata" : {
          "IsLocked" : "False",
          "WinTrackHeight" : "56"
        }
      },
      {
        "ident" : "",
        "audioMuted" : true,
        "videoHidden" : true,
        "magnetic" : false,
        "matte" : 0,
        "metadata" : {
          "IsLocked" : "False",
          "WinTrackHeight" : "56"
        }
      },
      {
        "ident" : "",
        "audioMuted" : false,
        "videoHidden" : false,
        "magnetic" : false,
        "matte" : 0,
        "metadata" : {
          "IsLocked" : "False",
          "WinTrackHeight" : "56"
        }
      },
      {
        "ident" : "",
        "audioMuted" : false,
        "videoHidden" : false,
        "magnetic" : false,
        "matte" : 0,
        "metadata" : {
          "IsLocked" : "False",
          "WinTrackHeight" : "56"
        }
      },
      {
        "ident" : "",
        "audioMuted" : false,
        "videoHidden" : false,
        "magnetic" : false,
        "matte" : 0,
        "metadata" : {
          "IsLocked" : "False",
          "WinTrackHeight" : "56"
        }
      },
      {
        "ident" : "",
        "audioMuted" : false,
        "videoHidden" : false,
        "magnetic" : false,
        "matte" : 0,
        "metadata" : {
          "IsLocked" : "False",
          "WinTrackHeight" : "56"
        }
      },
      {
        "ident" : "",
        "audioMuted" : false,
        "videoHidden" : false,
        "magnetic" : false,
        "matte" : 0,
        "metadata" : {
          "IsLocked" : "False",
          "WinTrackHeight" : "56"
        }
      },
      {
        "ident" : "",
        "audioMuted" : false,
        "videoHidden" : false,
        "magnetic" : false,
        "matte" : 0,
        "metadata" : {
          "IsLocked" : "False",
          "WinTrackHeight" : "56"
        }
      },
      {
        "ident" : "",
        "audioMuted" : false,
        "videoHidden" : false,
        "magnetic" : false,
        "matte" : 0,
        "metadata" : {
          "IsLocked" : "False",
          "WinTrackHeight" : "56"
        }
      },
      {
        "ident" : "",
        "audioMuted" : false,
        "videoHidden" : false,
        "magnetic" : false,
        "matte" : 0,
        "metadata" : {
          "IsLocked" : "False",
          "WinTrackHeight" : "56"
        }
      },
      {
        "ident" : "",
        "audioMuted" : false,
        "videoHidden" : false,
        "magnetic" : false,
        "matte" : 0,
        "metadata" : {
          "IsLocked" : "False",
          "WinTrackHeight" : "56"
        }
      },
      {
        "ident" : "",
        "audioMuted" : false,
        "videoHidden" : false,
        "magnetic" : false,
        "matte" : 0,
        "metadata" : {
          "IsLocked" : "False",
          "WinTrackHeight" : "56"
        }
      },
      {
        "ident" : "",
        "audioMuted" : false,
        "videoHidden" : false,
        "magnetic" : false,
        "matte" : 0,
        "metadata" : {
          "IsLocked" : "False",
          "WinTrackHeight" : "56"
        }
      }
    ],
    "captionAttributes" : {
      "enabled" : true,
      "fontName" : "Arial",
      "fontSize" : 85,
      "backgroundColor" : [ 0, 0, 0, 191],
      "foregroundColor" : [ 255, 255, 255, 255],
      "lang" : "en",
      "alignment" : 0,
      "defaultFontSize" : true,
      "opacity" : 0.5,
      "backgroundEnabled" : true,
      "backgroundOnlyAroundText" : true
    },
    "backgroundColor" : [ 0, 0, 0, 255]
  },
  "metadata" : {
    "AutoSaveFile" : "",
    "CanvasZoom" : 47,
    "Date" : "2019-10-07 05:42:42 PM",
    "Fit" : 1,
    "IsAutoSave" : "0",
    "Language" : "ENU",
    "ProfileName" : "",
    "ProjectDimensionsChanged" : "1",
    "Title" : "1. HANDLE HIJACKING ATTACK",
    "audioNarrationNotes" : "",
    "calloutStyle" : "All",
    "canvasDetached" : "False",
    "canvasPositionHeight" : "0",
    "canvasPositionLeft" : "0",
    "canvasPositionTop" : "0",
    "canvasPositionWidth" : "0"
  }
}
