{
  "title" : "",
  "description" : "",
  "author" : "",
  "width" : 1920.0,
  "height" : 1080.0,
  "version" : "2.0",
  "editRate" : 30,
  "authoringClientName" :  {
    "name" : "Camtasia",
    "platform" : "Windows",
    "version" : "18.0"
  },
  "sourceBin" : [
    {
      "id" : 1,
      "src" : "K:\\Dropbox\\_Pubs&Confs\\19\\CDFSL2019\\demos\\sounds\\Neizvesten+Saundtrek+k+fil+mu+RODINA+ZhDET+NEVYPOLNIMOE+ZAD_muzlishko.ru_.mp3",
      "rect" : [0, 0, 0, 0],
      "lastMod" : "20181120T102825",
      "sourceTracks" : [
        {
          "range" : [0, 1697400000],
          "type" : 2,
          "editRate" : 10000000,
          "trackRect" : [0, 0, 0, 0],
          "sampleRate" : 32000,
          "bitDepth" : 0,
          "numChannels" : 2,
          "metaData" : ""
        }
      ],
      "metadata" : {
        "assetLibraryId" : "51191f31-3029-422b-934b-1292a68df0b3"
      }
    },
    {
      "id" : 2,
      "src" : "K:\\Dropbox\\_Pubs&Confs\\19\\CDFSL2019\\demos\\sounds\\Henry Jackman, Matthew Margeson - Rescuing Harry.mp3",
      "rect" : [0, 0, 0, 0],
      "lastMod" : "20181121T204035",
      "sourceTracks" : [
        {
          "range" : [0, 1050382500],
          "type" : 2,
          "editRate" : 10000000,
          "trackRect" : [0, 0, 0, 0],
          "sampleRate" : 44100,
          "bitDepth" : 0,
          "numChannels" : 2,
          "metaData" : ""
        }
      ]
    },
    {
      "id" : 3,
      "src" : "C:\\cdfsl2019\\p1\\Rec 02-26-19_001.trec",
      "rect" : [0, 0, 2560, 1440],
      "lastMod" : "20190226T064715",
      "sourceTracks" : [
        {
          "range" : [0, 5886],
          "type" : 0,
          "editRate" : 30,
          "trackRect" : [0, 0, 2560, 1440],
          "sampleRate" : 24,
          "bitDepth" : 0,
          "numChannels" : 0,
          "metaData" : "Rec 02-26-19_001.trec;"
        }
      ]
    },
    {
      "id" : 4,
      "src" : "K:\\Dropbox\\_Pubs&Confs\\19\\CDFSL2019\\demos\\files\\gifs\\Converted by onlinevideoconverter.com[1280x720] Channel Ocho  Simpsons World on FXX (1).mp4",
      "rect" : [0, 0, 1280, 720],
      "lastMod" : "20190406T213126",
      "sourceTracks" : [
        {
          "range" : [0, 13615259997],
          "type" : 0,
          "editRate" : 10000000,
          "trackRect" : [0, 0, 1280, 720],
          "sampleRate" : "5000000/166833",
          "bitDepth" : 24,
          "numChannels" : 0,
          "metaData" : ""
        },
        {
          "range" : [0, 13615259997],
          "type" : 2,
          "editRate" : 10000000,
          "trackRect" : [0, 0, 0, 0],
          "sampleRate" : 44100,
          "bitDepth" : 16,
          "numChannels" : 2,
          "metaData" : ""
        }
      ]
    },
    {
      "id" : 5,
      "src" : "K:\\Dropbox\\_Pubs&Confs\\19\\CDFSL2019\\demos\\files\\256.png",
      "rect" : [0, 0, 256, 256],
      "lastMod" : "20190414T212426",
      "sourceTracks" : [
        {
          "range" : [0, 1],
          "type" : 1,
          "editRate" : 10000000,
          "trackRect" : [0, 0, 256, 256],
          "sampleRate" : 0,
          "bitDepth" : 32,
          "numChannels" : 0,
          "metaData" : ""
        }
      ]
    },
    {
      "id" : 6,
      "src" : "K:\\Dropbox\\_Pubs&Confs\\19\\CDFSL2019\\demos\\files\\gifs\\Homer Simpson Episode 6 GIF.gif",
      "rect" : [0, 0, 480, 360],
      "lastMod" : "20190406T232614",
      "sourceTracks" : [
        {
          "range" : [0, 29],
          "type" : 0,
          "editRate" : 30,
          "trackRect" : [0, 0, 480, 360],
          "sampleRate" : 30,
          "bitDepth" : 8,
          "numChannels" : 0,
          "metaData" : ""
        }
      ]
    },
    {
      "id" : 7,
      "src" : "K:\\Dropbox\\_Pubs&Confs\\19\\CDFSL2019\\demos\\files\\word_budget_table.png",
      "rect" : [0, 0, 1069, 680],
      "lastMod" : "20190421T144557",
      "sourceTracks" : [
        {
          "range" : [0, 1],
          "type" : 1,
          "editRate" : 10000000,
          "trackRect" : [0, 0, 1069, 680],
          "sampleRate" : 0,
          "bitDepth" : 24,
          "numChannels" : 0,
          "metaData" : ""
        }
      ]
    },
    {
      "id" : 8,
      "src" : "K:\\Dropbox\\_Pubs&Confs\\19\\CDFSL2019\\demos\\files\\gifs\\cool black sunglasses 2.png",
      "rect" : [0, 0, 1024, 228],
      "lastMod" : "20190422T133900",
      "sourceTracks" : [
        {
          "range" : [0, 1],
          "type" : 1,
          "editRate" : 10000000,
          "trackRect" : [0, 0, 1024, 228],
          "sampleRate" : 0,
          "bitDepth" : 8,
          "numChannels" : 0,
          "metaData" : ""
        }
      ]
    },
    {
      "id" : 9,
      "src" : "K:\\Dropbox\\_Pubs&Confs\\19\\CDFSL2019\\slides_picts\\fake data black_transparent.gif",
      "rect" : [0, 0, 512, 400],
      "lastMod" : "20190423T124653",
      "sourceTracks" : [
        {
          "range" : [0, 81],
          "type" : 0,
          "editRate" : 30,
          "trackRect" : [0, 0, 512, 400],
          "sampleRate" : 30,
          "bitDepth" : 8,
          "numChannels" : 0,
          "metaData" : ""
        }
      ]
    },
    {
      "id" : 10,
      "src" : "K:\\Dropbox\\_Pubs&Confs\\19\\CDFSL2019\\demos\\files\\the-final-memory-ranger.png",
      "rect" : [0, 0, 406, 399],
      "lastMod" : "20190430T105700",
      "sourceTracks" : [
        {
          "range" : [0, 1],
          "type" : 1,
          "editRate" : 10000000,
          "trackRect" : [0, 0, 406, 399],
          "sampleRate" : 0,
          "bitDepth" : 32,
          "numChannels" : 0,
          "metaData" : ""
        }
      ]
    }
  ],
  "timeline" : {
    "id" : 11,
    "sceneTrack" : {
      "scenes" : [
        {
          "duration" : 130.4,
          "title" : "",
          "type" : "",
          "csml" : {
            "tracks" : [
              {
                "trackIndex" : 0,
                "medias" : [
                  {
                    "id" : 12,
                    "_type" : "Callout",
                    "def" : {
                      "kind" : "remix",
                      "shape" : "text",
                      "style" : "basic",
                      "height" : 250.0,
                      "width" : 1419.487179487,
                      "word-wrap" : 1.0,
                      "horizontal-alignment" : "center",
                      "text" : "Part 2 The Attack Prevention",
                      "vertical-alignment" : "center",
                      "font" : {
                        "color-blue" : 1.0,
                        "color-green" : 1.0,
                        "color-red" : 1.0,
                        "size" : 96.0,
                        "tracking" : 0.0,
                        "name" : "Montserrat",
                        "weight" : "Regular"
                      },
                      "textAttributes" : {
                        "type" : "textAttributeList",
                        "keyframes" : [
                          {
                            "endTime" : 0,
                            "time" : 0,
                            "value" : [{"name":"fontWeight","rangeEnd":28,"rangeStart":0,"value":400,"valueType":"int"},{"name":"underline","rangeEnd":28,"rangeStart":0,"value":0,"valueType":"int"},{"name":"fgColor","rangeEnd":28,"rangeStart":0,"value":"(255,255,255,255)","valueType":"color"},{"name":"fontItalic","rangeEnd":28,"rangeStart":0,"value":0,"valueType":"int"},{"name":"strikethrough","rangeEnd":28,"rangeStart":0,"value":0,"valueType":"int"},{"name":"fontName","rangeEnd":28,"rangeStart":0,"value":"Montserrat","valueType":"string"},{"name":"fontSize","rangeEnd":28,"rangeStart":0,"value":96,"valueType":"double"}],
                            "duration" : 0
                          }
                        ]
                      }
                    },
                    "attributes" : {
                      "autoRotateText" : true
                    },
                    "parameters" : {
                      "translation0" : 10.2564102563724,
                      "translation1" : 2.23778329200286e-10
                    },
                    "effects" : [
                        {
                          "effectName" : "DropShadow",
                          "category" : "categoryVisualEffects",
                          "parameters" : {
                            "angle" : 5.49778714378214,
                            "blur" : 10.0,
                            "color-alpha" : 1.0,
                            "color-blue" : 0.1216,
                            "color-green" : 0.1216,
                            "color-red" : 0.1216,
                            "enabled" : 1,
                            "offset" : 10.0,
                            "opacity" : 0.4
                          }
                        }
                    ],
                    "start" : 0,
                    "duration" : 150,
                    "mediaStart" : 0,
                    "mediaDuration" : 150,
                    "scalar" : 1,
                    "metadata" : {
                      "WinSubProjectDisplayName" : "",
                      "clipSpeedAttribute" : false,
                      "default-HAlign" : "center",
                      "default-VAlign" : "center",
                      "default-text-attributes" : "[{\"name\":\"strikethrough\",\"rangeEnd\":17,\"rangeStart\":0,\"value\":0,\"valueType\":\"int\"},{\"name\":\"underline\",\"rangeEnd\":17,\"rangeStart\":0,\"value\":0,\"valueType\":\"int\"},{\"name\":\"fontItalic\",\"rangeEnd\":17,\"rangeStart\":0,\"value\":0,\"valueType\":\"int\"},{\"name\":\"fontName\",\"rangeEnd\":17,\"rangeStart\":0,\"value\":\"Montserrat\",\"valueType\":\"string\"},{\"name\":\"fontSize\",\"rangeEnd\":17,\"rangeStart\":0,\"value\":96,\"valueType\":\"double\"},{\"name\":\"fontWeight\",\"rangeEnd\":17,\"rangeStart\":0,\"value\":400,\"valueType\":\"int\"},{\"name\":\"fgColor\",\"rangeEnd\":17,\"rangeStart\":0,\"value\":\"(255,255,255,255)\",\"valueType\":\"color\"}]",
                      "default-translation0" : 0.0,
                      "default-translation1" : 0.0
                    },
                    "animationTracks" : {

                    }
                  },
                  {
                    "id" : 13,
                    "_type" : "StitchedMedia",
                    "minMediaStart" : 0,
                    "attributes" : {
                      "ident" : "Rec 02-26-19_001",
                      "gain" : 1.0,
                      "mixToMono" : false
                    },
                    "parameters" : {
                      "translation0" : {
                        "type" : "double",
                        "defaultValue" : 0.0,
                        "keyframes" : [
                          {
                            "endTime" : 531,
                            "time" : 492,
                            "value" : 1057.39282650528,
                            "duration" : 39
                          }
                        ]
                      },
                      "translation1" : {
                        "type" : "double",
                        "defaultValue" : 0.0,
                        "keyframes" : [
                          {
                            "endTime" : 531,
                            "time" : 492,
                            "value" : -757.629322802269,
                            "duration" : 39
                          }
                        ]
                      },
                      "scale0" : {
                        "type" : "double",
                        "defaultValue" : 0.75,
                        "keyframes" : [
                          {
                            "endTime" : 531,
                            "time" : 492,
                            "value" : 1.80226298011579,
                            "duration" : 39
                          }
                        ]
                      },
                      "scale1" : {
                        "type" : "double",
                        "defaultValue" : 0.75,
                        "keyframes" : [
                          {
                            "endTime" : 531,
                            "time" : 492,
                            "value" : 1.80226296066848,
                            "duration" : 39
                          }
                        ]
                      },
                      "cursorOpacity" : 1.0,
                      "cursorScale" : 1.0
                    },
                    "medias" : [
                        {
                          "id" : 14,
                          "_type" : "ScreenVMFile",
                          "src" : 3,
                          "trackNumber" : 0,
                          "attributes" : {
                            "ident" : "Rec 02-26-19_001"
                          },
                          "parameters" : {
                            "cursorScale" : {
                              "type" : "double",
                              "defaultValue" : 0.0,
                              "interp" : "linr"
                            },
                            "cursorOpacity" : {
                              "type" : "double",
                              "defaultValue" : 0.0,
                              "interp" : "linr"
                            }
                          },
                          "effects" : [

                          ],
                          "start" : 0,
                          "duration" : 811,
                          "mediaStart" : 0,
                          "mediaDuration" : 811,
                          "scalar" : 1,
                          "metadata" : {
                            "AutoAppliedSmartFocus" : "False",
                            "WinSubProjectDisplayName" : "",
                            "clipSpeedAttribute" : false,
                            "default-scale0" : 0.75,
                            "default-scale1" : 0.75,
                            "default-translation0" : 0.0,
                            "default-translation1" : 0.0
                          },
                          "animationTracks" : {

                          }
                        },
                        {
                          "id" : 15,
                          "_type" : "ScreenIMFile",
                          "src" : 3,
                          "trackNumber" : 0,
                          "trimStartSum" : 0,
                          "attributes" : {
                            "ident" : "Rec 02-26-19_001"
                          },
                          "parameters" : {
                            "cursorOpacity" : 0.0,
                            "cursorScale" : 0.0
                          },
                          "effects" : [

                          ],
                          "start" : 811,
                          "duration" : 120,
                          "mediaStart" : 810,
                          "mediaDuration" : 1,
                          "scalar" : 1,
                          "metadata" : {
                            "AutoAppliedSmartFocus" : "False",
                            "WinSubProjectDisplayName" : ""
                          },
                          "animationTracks" : {

                          }
                        },
                        {
                          "id" : 16,
                          "_type" : "ScreenVMFile",
                          "src" : 3,
                          "trackNumber" : 0,
                          "attributes" : {
                            "ident" : "Rec 02-26-19_001"
                          },
                          "parameters" : {
                            "cursorScale" : {
                              "type" : "double",
                              "defaultValue" : 0.0,
                              "interp" : "linr"
                            },
                            "cursorOpacity" : {
                              "type" : "double",
                              "defaultValue" : 0.0,
                              "interp" : "linr"
                            }
                          },
                          "effects" : [

                          ],
                          "start" : 931,
                          "duration" : 5075,
                          "mediaStart" : 811,
                          "mediaDuration" : 5075,
                          "scalar" : 1,
                          "metadata" : {
                            "AutoAppliedSmartFocus" : "False",
                            "WinSubProjectDisplayName" : "",
                            "clipSpeedAttribute" : false,
                            "default-scale0" : 0.75,
                            "default-scale1" : 0.75,
                            "default-translation0" : 0.0,
                            "default-translation1" : 0.0
                          },
                          "animationTracks" : {

                          }
                        }
                    ],
                    "effects" : [
                        {
                          "effectName" : "CursorHilight",
                          "category" : "categoryCursorEffects",
                          "parameters" : {
                            "blur" : 0.1,
                            "color-alpha" : 0.75,
                            "color-blue" : 0.0,
                            "color-green" : 1.0,
                            "color-red" : 1.0,
                            "radius" : 50.0
                          }
                        }
                    ],
                    "start" : 150,
                    "duration" : 107,
                    "mediaStart" : 104,
                    "mediaDuration" : 207,
                    "scalar" : "107/207",
                    "metadata" : {
                      "AutoAppliedSmartFocus" : "False",
                      "WinSubProjectDisplayName" : "",
                      "clipSpeedAttribute" : true
                    },
                    "animationTracks" : {
                      "visual" : [
                        {
                          "endTime" : 531,
                          "duration" : 39,
                          "range" : [ 492, 39]
                        }
                      ]
                    }
                  },
                  {
                    "id" : 17,
                    "_type" : "StitchedMedia",
                    "minMediaStart" : 0,
                    "attributes" : {
                      "ident" : "Rec 02-26-19_001",
                      "gain" : 1.0,
                      "mixToMono" : false
                    },
                    "parameters" : {
                      "translation0" : {
                        "type" : "double",
                        "defaultValue" : 0.0,
                        "keyframes" : [
                          {
                            "endTime" : 596,
                            "time" : 549,
                            "value" : 1057.39282650528,
                            "duration" : 47
                          }
                        ]
                      },
                      "translation1" : {
                        "type" : "double",
                        "defaultValue" : 0.0,
                        "keyframes" : [
                          {
                            "endTime" : 596,
                            "time" : 549,
                            "value" : -757.629322802269,
                            "duration" : 47
                          }
                        ]
                      },
                      "scale0" : {
                        "type" : "double",
                        "defaultValue" : 0.75,
                        "keyframes" : [
                          {
                            "endTime" : 596,
                            "time" : 549,
                            "value" : 1.80226298011579,
                            "duration" : 47
                          }
                        ]
                      },
                      "scale1" : {
                        "type" : "double",
                        "defaultValue" : 0.75,
                        "keyframes" : [
                          {
                            "endTime" : 596,
                            "time" : 549,
                            "value" : 1.80226296066848,
                            "duration" : 47
                          }
                        ]
                      },
                      "cursorOpacity" : 1.0,
                      "cursorScale" : 1.0
                    },
                    "medias" : [
                        {
                          "id" : 18,
                          "_type" : "ScreenVMFile",
                          "src" : 3,
                          "trackNumber" : 0,
                          "attributes" : {
                            "ident" : "Rec 02-26-19_001"
                          },
                          "parameters" : {
                            "cursorScale" : {
                              "type" : "double",
                              "defaultValue" : 0.0,
                              "interp" : "linr"
                            },
                            "cursorOpacity" : {
                              "type" : "double",
                              "defaultValue" : 0.0,
                              "interp" : "linr"
                            }
                          },
                          "effects" : [

                          ],
                          "start" : 0,
                          "duration" : 811,
                          "mediaStart" : 0,
                          "mediaDuration" : 811,
                          "scalar" : 1,
                          "metadata" : {
                            "AutoAppliedSmartFocus" : "False",
                            "WinSubProjectDisplayName" : "",
                            "clipSpeedAttribute" : false,
                            "default-scale0" : 0.75,
                            "default-scale1" : 0.75,
                            "default-translation0" : 0.0,
                            "default-translation1" : 0.0
                          },
                          "animationTracks" : {

                          }
                        },
                        {
                          "id" : 19,
                          "_type" : "ScreenIMFile",
                          "src" : 3,
                          "trackNumber" : 0,
                          "trimStartSum" : 0,
                          "attributes" : {
                            "ident" : "Rec 02-26-19_001"
                          },
                          "parameters" : {
                            "cursorOpacity" : 0.0,
                            "cursorScale" : 0.0
                          },
                          "effects" : [

                          ],
                          "start" : 811,
                          "duration" : 120,
                          "mediaStart" : 810,
                          "mediaDuration" : 1,
                          "scalar" : 1,
                          "metadata" : {
                            "AutoAppliedSmartFocus" : "False",
                            "WinSubProjectDisplayName" : ""
                          },
                          "animationTracks" : {

                          }
                        },
                        {
                          "id" : 20,
                          "_type" : "ScreenVMFile",
                          "src" : 3,
                          "trackNumber" : 0,
                          "attributes" : {
                            "ident" : "Rec 02-26-19_001"
                          },
                          "parameters" : {
                            "cursorScale" : {
                              "type" : "double",
                              "defaultValue" : 0.0,
                              "interp" : "linr"
                            },
                            "cursorOpacity" : {
                              "type" : "double",
                              "defaultValue" : 0.0,
                              "interp" : "linr"
                            }
                          },
                          "effects" : [

                          ],
                          "start" : 931,
                          "duration" : 5075,
                          "mediaStart" : 811,
                          "mediaDuration" : 5075,
                          "scalar" : 1,
                          "metadata" : {
                            "AutoAppliedSmartFocus" : "False",
                            "WinSubProjectDisplayName" : "",
                            "clipSpeedAttribute" : false,
                            "default-scale0" : 0.75,
                            "default-scale1" : 0.75,
                            "default-translation0" : 0.0,
                            "default-translation1" : 0.0
                          },
                          "animationTracks" : {

                          }
                        }
                    ],
                    "effects" : [
                        {
                          "effectName" : "CursorHilight",
                          "category" : "categoryCursorEffects",
                          "parameters" : {
                            "blur" : 0.1,
                            "color-alpha" : 0.75,
                            "color-blue" : 0.0,
                            "color-green" : 1.0,
                            "color-red" : 1.0,
                            "radius" : 50.0
                          }
                        }
                    ],
                    "start" : 257,
                    "duration" : 91,
                    "mediaStart" : 311,
                    "mediaDuration" : 236,
                    "scalar" : "91/236",
                    "metadata" : {
                      "AutoAppliedSmartFocus" : "False",
                      "WinSubProjectDisplayName" : "",
                      "clipSpeedAttribute" : true
                    },
                    "animationTracks" : {
                      "visual" : [
                        {
                          "endTime" : 596,
                          "duration" : 47,
                          "range" : [ 549, 47]
                        }
                      ]
                    }
                  },
                  {
                    "id" : 21,
                    "_type" : "StitchedMedia",
                    "minMediaStart" : 0,
                    "attributes" : {
                      "ident" : "Rec 02-26-19_001",
                      "gain" : 1.0,
                      "mixToMono" : false
                    },
                    "parameters" : {
                      "translation0" : {
                        "type" : "double",
                        "defaultValue" : 0.0,
                        "keyframes" : [
                          {
                            "endTime" : 596,
                            "time" : 549,
                            "value" : 1057.39282650528,
                            "duration" : 47
                          }
                        ]
                      },
                      "translation1" : {
                        "type" : "double",
                        "defaultValue" : 0.0,
                        "keyframes" : [
                          {
                            "endTime" : 596,
                            "time" : 549,
                            "value" : -757.629322802269,
                            "duration" : 47
                          }
                        ]
                      },
                      "scale0" : {
                        "type" : "double",
                        "defaultValue" : 0.75,
                        "keyframes" : [
                          {
                            "endTime" : 596,
                            "time" : 549,
                            "value" : 1.80226298011579,
                            "duration" : 47
                          }
                        ]
                      },
                      "scale1" : {
                        "type" : "double",
                        "defaultValue" : 0.75,
                        "keyframes" : [
                          {
                            "endTime" : 596,
                            "time" : 549,
                            "value" : 1.80226296066848,
                            "duration" : 47
                          }
                        ]
                      },
                      "cursorOpacity" : 1.0,
                      "cursorScale" : 1.0
                    },
                    "medias" : [
                        {
                          "id" : 22,
                          "_type" : "ScreenVMFile",
                          "src" : 3,
                          "trackNumber" : 0,
                          "attributes" : {
                            "ident" : "Rec 02-26-19_001"
                          },
                          "parameters" : {
                            "cursorScale" : {
                              "type" : "double",
                              "defaultValue" : 0.0,
                              "interp" : "linr"
                            },
                            "cursorOpacity" : {
                              "type" : "double",
                              "defaultValue" : 0.0,
                              "interp" : "linr"
                            }
                          },
                          "effects" : [

                          ],
                          "start" : 0,
                          "duration" : 811,
                          "mediaStart" : 0,
                          "mediaDuration" : 811,
                          "scalar" : 1,
                          "metadata" : {
                            "AutoAppliedSmartFocus" : "False",
                            "WinSubProjectDisplayName" : "",
                            "clipSpeedAttribute" : false,
                            "default-scale0" : 0.75,
                            "default-scale1" : 0.75,
                            "default-translation0" : 0.0,
                            "default-translation1" : 0.0
                          },
                          "animationTracks" : {

                          }
                        },
                        {
                          "id" : 23,
                          "_type" : "ScreenIMFile",
                          "src" : 3,
                          "trackNumber" : 0,
                          "trimStartSum" : 0,
                          "attributes" : {
                            "ident" : "Rec 02-26-19_001"
                          },
                          "parameters" : {
                            "cursorOpacity" : 0.0,
                            "cursorScale" : 0.0
                          },
                          "effects" : [

                          ],
                          "start" : 811,
                          "duration" : 120,
                          "mediaStart" : 810,
                          "mediaDuration" : 1,
                          "scalar" : 1,
                          "metadata" : {
                            "AutoAppliedSmartFocus" : "False",
                            "WinSubProjectDisplayName" : ""
                          },
                          "animationTracks" : {

                          }
                        },
                        {
                          "id" : 24,
                          "_type" : "ScreenVMFile",
                          "src" : 3,
                          "trackNumber" : 0,
                          "attributes" : {
                            "ident" : "Rec 02-26-19_001"
                          },
                          "parameters" : {
                            "cursorScale" : {
                              "type" : "double",
                              "defaultValue" : 0.0,
                              "interp" : "linr"
                            },
                            "cursorOpacity" : {
                              "type" : "double",
                              "defaultValue" : 0.0,
                              "interp" : "linr"
                            }
                          },
                          "effects" : [

                          ],
                          "start" : 931,
                          "duration" : 5075,
                          "mediaStart" : 811,
                          "mediaDuration" : 5075,
                          "scalar" : 1,
                          "metadata" : {
                            "AutoAppliedSmartFocus" : "False",
                            "WinSubProjectDisplayName" : "",
                            "clipSpeedAttribute" : false,
                            "default-scale0" : 0.75,
                            "default-scale1" : 0.75,
                            "default-translation0" : 0.0,
                            "default-translation1" : 0.0
                          },
                          "animationTracks" : {

                          }
                        }
                    ],
                    "effects" : [
                        {
                          "effectName" : "CursorHilight",
                          "category" : "categoryCursorEffects",
                          "parameters" : {
                            "blur" : 0.1,
                            "color-alpha" : 0.75,
                            "color-blue" : 0.0,
                            "color-green" : 1.0,
                            "color-red" : 1.0,
                            "radius" : 50.0
                          }
                        }
                    ],
                    "start" : 348,
                    "duration" : 53,
                    "mediaStart" : 547,
                    "mediaDuration" : 53,
                    "scalar" : 1,
                    "metadata" : {
                      "AutoAppliedSmartFocus" : "False",
                      "WinSubProjectDisplayName" : "",
                      "clipSpeedAttribute" : false
                    },
                    "animationTracks" : {
                      "visual" : [
                        {
                          "endTime" : 596,
                          "duration" : 47,
                          "range" : [ 549, 47]
                        }
                      ]
                    }
                  },
                  {
                    "id" : 25,
                    "_type" : "StitchedMedia",
                    "minMediaStart" : 0,
                    "attributes" : {
                      "ident" : "Rec 02-26-19_001",
                      "gain" : 1.0,
                      "mixToMono" : false
                    },
                    "parameters" : {
                      "translation0" : {
                        "type" : "double",
                        "defaultValue" : 0.0,
                        "keyframes" : [
                          {
                            "endTime" : 596,
                            "time" : 549,
                            "value" : 1057.39282650528,
                            "duration" : 47
                          }
                        ]
                      },
                      "translation1" : {
                        "type" : "double",
                        "defaultValue" : 0.0,
                        "keyframes" : [
                          {
                            "endTime" : 596,
                            "time" : 549,
                            "value" : -757.629322802269,
                            "duration" : 47
                          }
                        ]
                      },
                      "scale0" : {
                        "type" : "double",
                        "defaultValue" : 0.75,
                        "keyframes" : [
                          {
                            "endTime" : 596,
                            "time" : 549,
                            "value" : 1.80226298011579,
                            "duration" : 47
                          }
                        ]
                      },
                      "scale1" : {
                        "type" : "double",
                        "defaultValue" : 0.75,
                        "keyframes" : [
                          {
                            "endTime" : 596,
                            "time" : 549,
                            "value" : 1.80226296066848,
                            "duration" : 47
                          }
                        ]
                      },
                      "cursorOpacity" : 1.0,
                      "cursorScale" : 1.0
                    },
                    "medias" : [
                        {
                          "id" : 26,
                          "_type" : "ScreenVMFile",
                          "src" : 3,
                          "trackNumber" : 0,
                          "attributes" : {
                            "ident" : "Rec 02-26-19_001"
                          },
                          "parameters" : {
                            "cursorScale" : {
                              "type" : "double",
                              "defaultValue" : 0.0,
                              "interp" : "linr"
                            },
                            "cursorOpacity" : {
                              "type" : "double",
                              "defaultValue" : 0.0,
                              "interp" : "linr"
                            }
                          },
                          "effects" : [

                          ],
                          "start" : 0,
                          "duration" : 811,
                          "mediaStart" : 0,
                          "mediaDuration" : 811,
                          "scalar" : 1,
                          "metadata" : {
                            "AutoAppliedSmartFocus" : "False",
                            "WinSubProjectDisplayName" : "",
                            "clipSpeedAttribute" : false,
                            "default-scale0" : 0.75,
                            "default-scale1" : 0.75,
                            "default-translation0" : 0.0,
                            "default-translation1" : 0.0
                          },
                          "animationTracks" : {

                          }
                        },
                        {
                          "id" : 27,
                          "_type" : "ScreenIMFile",
                          "src" : 3,
                          "trackNumber" : 0,
                          "trimStartSum" : 0,
                          "attributes" : {
                            "ident" : "Rec 02-26-19_001"
                          },
                          "parameters" : {
                            "cursorOpacity" : 0.0,
                            "cursorScale" : 0.0
                          },
                          "effects" : [

                          ],
                          "start" : 811,
                          "duration" : 120,
                          "mediaStart" : 810,
                          "mediaDuration" : 1,
                          "scalar" : 1,
                          "metadata" : {
                            "AutoAppliedSmartFocus" : "False",
                            "WinSubProjectDisplayName" : ""
                          },
                          "animationTracks" : {

                          }
                        },
                        {
                          "id" : 28,
                          "_type" : "ScreenVMFile",
                          "src" : 3,
                          "trackNumber" : 0,
                          "attributes" : {
                            "ident" : "Rec 02-26-19_001"
                          },
                          "parameters" : {
                            "cursorScale" : {
                              "type" : "double",
                              "defaultValue" : 0.0,
                              "interp" : "linr"
                            },
                            "cursorOpacity" : {
                              "type" : "double",
                              "defaultValue" : 0.0,
                              "interp" : "linr"
                            }
                          },
                          "effects" : [

                          ],
                          "start" : 931,
                          "duration" : 5075,
                          "mediaStart" : 811,
                          "mediaDuration" : 5075,
                          "scalar" : 1,
                          "metadata" : {
                            "AutoAppliedSmartFocus" : "False",
                            "WinSubProjectDisplayName" : "",
                            "clipSpeedAttribute" : false,
                            "default-scale0" : 0.75,
                            "default-scale1" : 0.75,
                            "default-translation0" : 0.0,
                            "default-translation1" : 0.0
                          },
                          "animationTracks" : {

                          }
                        }
                    ],
                    "effects" : [
                        {
                          "effectName" : "CursorHilight",
                          "category" : "categoryCursorEffects",
                          "parameters" : {
                            "blur" : 0.1,
                            "color-alpha" : 0.75,
                            "color-blue" : 0.0,
                            "color-green" : 1.0,
                            "color-red" : 1.0,
                            "radius" : 50.0
                          }
                        }
                    ],
                    "start" : 401,
                    "duration" : 91,
                    "mediaStart" : 600,
                    "mediaDuration" : 183,
                    "scalar" : "91/183",
                    "metadata" : {
                      "AutoAppliedSmartFocus" : "False",
                      "WinSubProjectDisplayName" : "",
                      "clipSpeedAttribute" : true
                    },
                    "animationTracks" : {
                      "visual" : [
                        {
                          "endTime" : 596,
                          "duration" : 47,
                          "range" : [ 549, 47]
                        }
                      ]
                    }
                  },
                  {
                    "id" : 29,
                    "_type" : "StitchedMedia",
                    "minMediaStart" : 0,
                    "attributes" : {
                      "ident" : "Rec 02-26-19_001",
                      "gain" : 1.0,
                      "mixToMono" : false
                    },
                    "parameters" : {
                      "translation0" : {
                        "type" : "double",
                        "defaultValue" : 0.0,
                        "keyframes" : [
                          {
                            "endTime" : 596,
                            "time" : 549,
                            "value" : 1057.39282650528,
                            "duration" : 47
                          },
                          {
                            "endTime" : 972,
                            "time" : 927,
                            "value" : 1057.39268658212,
                            "duration" : 45
                          }
                        ]
                      },
                      "translation1" : {
                        "type" : "double",
                        "defaultValue" : 0.0,
                        "keyframes" : [
                          {
                            "endTime" : 596,
                            "time" : 549,
                            "value" : -757.629322802269,
                            "duration" : 47
                          },
                          {
                            "endTime" : 972,
                            "time" : 927,
                            "value" : -144.1,
                            "duration" : 45
                          }
                        ]
                      },
                      "scale0" : {
                        "type" : "double",
                        "defaultValue" : 0.75,
                        "keyframes" : [
                          {
                            "endTime" : 596,
                            "time" : 549,
                            "value" : 1.80226298011579,
                            "duration" : 47
                          },
                          {
                            "endTime" : 972,
                            "time" : 927,
                            "value" : 1.80226282453731,
                            "duration" : 45
                          }
                        ]
                      },
                      "scale1" : {
                        "type" : "double",
                        "defaultValue" : 0.75,
                        "keyframes" : [
                          {
                            "endTime" : 596,
                            "time" : 549,
                            "value" : 1.80226296066848,
                            "duration" : 47
                          }
                        ]
                      },
                      "cursorOpacity" : 1.0,
                      "cursorScale" : 1.0
                    },
                    "medias" : [
                        {
                          "id" : 30,
                          "_type" : "ScreenVMFile",
                          "src" : 3,
                          "trackNumber" : 0,
                          "attributes" : {
                            "ident" : "Rec 02-26-19_001"
                          },
                          "parameters" : {
                            "cursorScale" : {
                              "type" : "double",
                              "defaultValue" : 0.0,
                              "interp" : "linr"
                            },
                            "cursorOpacity" : {
                              "type" : "double",
                              "defaultValue" : 0.0,
                              "interp" : "linr"
                            }
                          },
                          "effects" : [

                          ],
                          "start" : 0,
                          "duration" : 811,
                          "mediaStart" : 0,
                          "mediaDuration" : 811,
                          "scalar" : 1,
                          "metadata" : {
                            "AutoAppliedSmartFocus" : "False",
                            "WinSubProjectDisplayName" : "",
                            "clipSpeedAttribute" : false,
                            "default-scale0" : 0.75,
                            "default-scale1" : 0.75,
                            "default-translation0" : 0.0,
                            "default-translation1" : 0.0
                          },
                          "animationTracks" : {

                          }
                        },
                        {
                          "id" : 31,
                          "_type" : "ScreenIMFile",
                          "src" : 3,
                          "trackNumber" : 0,
                          "trimStartSum" : 0,
                          "attributes" : {
                            "ident" : "Rec 02-26-19_001"
                          },
                          "parameters" : {
                            "cursorOpacity" : 0.0,
                            "cursorScale" : 0.0
                          },
                          "effects" : [

                          ],
                          "start" : 811,
                          "duration" : 120,
                          "mediaStart" : 810,
                          "mediaDuration" : 1,
                          "scalar" : 1,
                          "metadata" : {
                            "AutoAppliedSmartFocus" : "False",
                            "WinSubProjectDisplayName" : ""
                          },
                          "animationTracks" : {

                          }
                        },
                        {
                          "id" : 32,
                          "_type" : "ScreenVMFile",
                          "src" : 3,
                          "trackNumber" : 0,
                          "attributes" : {
                            "ident" : "Rec 02-26-19_001"
                          },
                          "parameters" : {
                            "cursorScale" : {
                              "type" : "double",
                              "defaultValue" : 0.0,
                              "interp" : "linr"
                            },
                            "cursorOpacity" : {
                              "type" : "double",
                              "defaultValue" : 0.0,
                              "interp" : "linr"
                            }
                          },
                          "effects" : [

                          ],
                          "start" : 931,
                          "duration" : 11,
                          "mediaStart" : 811,
                          "mediaDuration" : 11,
                          "scalar" : 1,
                          "metadata" : {
                            "AutoAppliedSmartFocus" : "False",
                            "WinSubProjectDisplayName" : "",
                            "clipSpeedAttribute" : false,
                            "default-scale0" : 0.75,
                            "default-scale1" : 0.75,
                            "default-translation0" : 0.0,
                            "default-translation1" : 0.0
                          },
                          "animationTracks" : {

                          }
                        },
                        {
                          "id" : 33,
                          "_type" : "ScreenVMFile",
                          "src" : 3,
                          "trackNumber" : 0,
                          "attributes" : {
                            "ident" : "Rec 02-26-19_001"
                          },
                          "parameters" : {
                            "cursorScale" : {
                              "type" : "double",
                              "defaultValue" : 0.0,
                              "interp" : "linr"
                            },
                            "cursorOpacity" : {
                              "type" : "double",
                              "defaultValue" : 0.0,
                              "interp" : "linr"
                            }
                          },
                          "effects" : [

                          ],
                          "start" : 942,
                          "duration" : 5064,
                          "mediaStart" : 822,
                          "mediaDuration" : 5064,
                          "scalar" : 1,
                          "metadata" : {
                            "AutoAppliedSmartFocus" : "False",
                            "WinSubProjectDisplayName" : "",
                            "clipSpeedAttribute" : false,
                            "default-scale0" : 0.75,
                            "default-scale1" : 0.75,
                            "default-translation0" : 0.0,
                            "default-translation1" : 0.0
                          },
                          "animationTracks" : {

                          }
                        }
                    ],
                    "effects" : [
                        {
                          "effectName" : "CursorHilight",
                          "category" : "categoryCursorEffects",
                          "parameters" : {
                            "blur" : 0.1,
                            "color-alpha" : 0.75,
                            "color-blue" : 0.0,
                            "color-green" : 1.0,
                            "color-red" : 1.0,
                            "radius" : 50.0
                          }
                        }
                    ],
                    "start" : 492,
                    "duration" : 208,
                    "mediaStart" : 783,
                    "mediaDuration" : 208,
                    "scalar" : 1,
                    "metadata" : {
                      "AutoAppliedSmartFocus" : "False",
                      "WinSubProjectDisplayName" : "",
                      "clipSpeedAttribute" : false,
                      "default-scale0" : 1.80226298011579,
                      "default-translation0" : 1057.39282650528,
                      "default-translation1" : -757.629322802269
                    },
                    "animationTracks" : {
                      "visual" : [
                        {
                          "endTime" : 596,
                          "duration" : 47,
                          "range" : [ 549, 47]
                        },
                        {
                          "endTime" : 972,
                          "duration" : 45,
                          "range" : [ 927, 45]
                        }
                      ]
                    }
                  },
                  {
                    "id" : 34,
                    "_type" : "ScreenVMFile",
                    "src" : 3,
                    "trackNumber" : 0,
                    "attributes" : {
                      "ident" : "Rec 02-26-19_001"
                    },
                    "parameters" : {
                      "translation0" : {
                        "type" : "double",
                        "defaultValue" : 0.0,
                        "interp" : "eioe",
                        "keyframes" : [
                          {
                            "endTime" : 579,
                            "time" : 492,
                            "value" : 1057.39282650528,
                            "duration" : 87
                          }
                        ]
                      },
                      "translation1" : {
                        "type" : "double",
                        "defaultValue" : 0.0,
                        "interp" : "eioe",
                        "keyframes" : [
                          {
                            "endTime" : 579,
                            "time" : 492,
                            "value" : -144.1,
                            "duration" : 87
                          }
                        ]
                      },
                      "scale0" : {
                        "type" : "double",
                        "defaultValue" : 0.75,
                        "interp" : "eioe",
                        "keyframes" : [
                          {
                            "endTime" : 579,
                            "time" : 492,
                            "value" : 1.80226298011579,
                            "duration" : 87
                          }
                        ]
                      },
                      "scale1" : {
                        "type" : "double",
                        "defaultValue" : 0.75,
                        "interp" : "eioe",
                        "keyframes" : [
                          {
                            "endTime" : 579,
                            "time" : 492,
                            "value" : 1.80226296066848,
                            "duration" : 87
                          }
                        ]
                      },
                      "cursorScale" : {
                        "type" : "double",
                        "defaultValue" : 1.0,
                        "interp" : "linr"
                      },
                      "cursorOpacity" : {
                        "type" : "double",
                        "defaultValue" : 1.0,
                        "interp" : "linr"
                      }
                    },
                    "effects" : [
                        {
                          "effectName" : "CursorHilight",
                          "category" : "categoryCursorEffects",
                          "parameters" : {
                            "blur" : 0.1,
                            "color-alpha" : 0.75,
                            "color-blue" : 0.0,
                            "color-green" : 1.0,
                            "color-red" : 1.0,
                            "radius" : 50.0
                          }
                        }
                    ],
                    "start" : 700,
                    "duration" : 119,
                    "mediaStart" : 871,
                    "mediaDuration" : 785,
                    "scalar" : "119/785",
                    "metadata" : {
                      "AutoAppliedSmartFocus" : "False",
                      "WinSubProjectDisplayName" : "",
                      "clipSpeedAttribute" : true,
                      "default-scale0" : 0.75,
                      "default-scale1" : 0.75,
                      "default-translation0" : 0.0,
                      "default-translation1" : 0.0
                    },
                    "animationTracks" : {
                      "visual" : [
                        {
                          "endTime" : 579,
                          "duration" : 87,
                          "range" : [ 492, 87]
                        }
                      ]
                    }
                  },
                  {
                    "id" : 35,
                    "_type" : "ScreenVMFile",
                    "src" : 3,
                    "trackNumber" : 0,
                    "attributes" : {
                      "ident" : "Rec 02-26-19_001"
                    },
                    "parameters" : {
                      "translation0" : {
                        "type" : "double",
                        "defaultValue" : 0.0,
                        "interp" : "eioe",
                        "keyframes" : [
                          {
                            "endTime" : 579,
                            "time" : 492,
                            "value" : 1057.39282650528,
                            "duration" : 87
                          },
                          {
                            "endTime" : 860,
                            "time" : 827,
                            "value" : 1057.4,
                            "duration" : 33
                          },
                          {
                            "endTime" : 1954,
                            "time" : 1912,
                            "value" : 1.70530256582424e-13,
                            "duration" : 42
                          },
                          {
                            "endTime" : 2234,
                            "time" : 2204,
                            "value" : -1012.17900275747,
                            "duration" : 30
                          }
                        ]
                      },
                      "translation1" : {
                        "type" : "double",
                        "defaultValue" : 0.0,
                        "interp" : "eioe",
                        "keyframes" : [
                          {
                            "endTime" : 579,
                            "time" : 492,
                            "value" : -757.629322802269,
                            "duration" : 87
                          },
                          {
                            "endTime" : 860,
                            "time" : 827,
                            "value" : -144.124791547621,
                            "duration" : 33
                          },
                          {
                            "endTime" : 1954,
                            "time" : 1912,
                            "value" : 5.6843418860808e-14,
                            "duration" : 42
                          },
                          {
                            "endTime" : 2234,
                            "time" : 2204,
                            "value" : -569.350537713127,
                            "duration" : 30
                          }
                        ]
                      },
                      "scale0" : {
                        "type" : "double",
                        "defaultValue" : 0.75,
                        "interp" : "eioe",
                        "keyframes" : [
                          {
                            "endTime" : 579,
                            "time" : 492,
                            "value" : 1.80226298011579,
                            "duration" : 87
                          },
                          {
                            "endTime" : 860,
                            "time" : 827,
                            "value" : 1.80226282453731,
                            "duration" : 33
                          },
                          {
                            "endTime" : 1954,
                            "time" : 1912,
                            "value" : 0.7499999433499,
                            "duration" : 42
                          },
                          {
                            "endTime" : 2234,
                            "time" : 2204,
                            "value" : 1.54076462936939,
                            "duration" : 30
                          }
                        ]
                      },
                      "scale1" : {
                        "type" : "double",
                        "defaultValue" : 0.75,
                        "interp" : "eioe",
                        "keyframes" : [
                          {
                            "endTime" : 579,
                            "time" : 492,
                            "value" : 1.80226296066848,
                            "duration" : 87
                          },
                          {
                            "endTime" : 1954,
                            "time" : 1912,
                            "value" : 0.75,
                            "duration" : 42
                          },
                          {
                            "endTime" : 2234,
                            "time" : 2204,
                            "value" : 1.54076464625537,
                            "duration" : 30
                          }
                        ]
                      },
                      "cursorScale" : {
                        "type" : "double",
                        "defaultValue" : 1.0,
                        "interp" : "linr"
                      },
                      "cursorOpacity" : {
                        "type" : "double",
                        "defaultValue" : 1.0,
                        "interp" : "linr"
                      }
                    },
                    "effects" : [
                        {
                          "effectName" : "CursorHilight",
                          "category" : "categoryCursorEffects",
                          "parameters" : {
                            "blur" : 0.1,
                            "color-alpha" : 0.75,
                            "color-blue" : 0.0,
                            "color-green" : 1.0,
                            "color-red" : 1.0,
                            "radius" : 50.0
                          }
                        }
                    ],
                    "start" : 819,
                    "duration" : 298,
                    "mediaStart" : 1656,
                    "mediaDuration" : 298,
                    "scalar" : 1,
                    "metadata" : {
                      "AutoAppliedSmartFocus" : "False",
                      "WinSubProjectDisplayName" : "",
                      "clipSpeedAttribute" : false,
                      "default-scale0" : 0.75,
                      "default-scale1" : 0.75,
                      "default-translation0" : 0.0,
                      "default-translation1" : 0.0
                    },
                    "animationTracks" : {
                      "visual" : [
                        {
                          "endTime" : 579,
                          "duration" : 87,
                          "range" : [ 492, 87]
                        },
                        {
                          "endTime" : 860,
                          "duration" : 33,
                          "range" : [ 827, 33]
                        },
                        {
                          "endTime" : 1954,
                          "duration" : 42,
                          "range" : [ 1912, 42]
                        },
                        {
                          "endTime" : 2234,
                          "duration" : 30,
                          "range" : [ 2204, 30]
                        }
                      ]
                    }
                  },
                  {
                    "id" : 36,
                    "_type" : "ScreenVMFile",
                    "src" : 3,
                    "trackNumber" : 0,
                    "attributes" : {
                      "ident" : "Rec 02-26-19_001"
                    },
                    "parameters" : {
                      "translation0" : {
                        "type" : "double",
                        "defaultValue" : 0.0,
                        "interp" : "eioe",
                        "keyframes" : [
                          {
                            "endTime" : 579,
                            "time" : 492,
                            "value" : 1057.39282650528,
                            "duration" : 87
                          },
                          {
                            "endTime" : 860,
                            "time" : 827,
                            "value" : 1057.4,
                            "duration" : 33
                          },
                          {
                            "endTime" : 1954,
                            "time" : 1912,
                            "value" : 1.70530256582424e-13,
                            "duration" : 42
                          },
                          {
                            "endTime" : 2234,
                            "time" : 2204,
                            "value" : -1012.17900275747,
                            "duration" : 30
                          }
                        ]
                      },
                      "translation1" : {
                        "type" : "double",
                        "defaultValue" : 0.0,
                        "interp" : "eioe",
                        "keyframes" : [
                          {
                            "endTime" : 579,
                            "time" : 492,
                            "value" : -757.629322802269,
                            "duration" : 87
                          },
                          {
                            "endTime" : 860,
                            "time" : 827,
                            "value" : -144.124791547621,
                            "duration" : 33
                          },
                          {
                            "endTime" : 1954,
                            "time" : 1912,
                            "value" : 5.6843418860808e-14,
                            "duration" : 42
                          },
                          {
                            "endTime" : 2234,
                            "time" : 2204,
                            "value" : -569.350537713127,
                            "duration" : 30
                          }
                        ]
                      },
                      "scale0" : {
                        "type" : "double",
                        "defaultValue" : 0.75,
                        "interp" : "eioe",
                        "keyframes" : [
                          {
                            "endTime" : 579,
                            "time" : 492,
                            "value" : 1.80226298011579,
                            "duration" : 87
                          },
                          {
                            "endTime" : 860,
                            "time" : 827,
                            "value" : 1.80226282453731,
                            "duration" : 33
                          },
                          {
                            "endTime" : 1954,
                            "time" : 1912,
                            "value" : 0.7499999433499,
                            "duration" : 42
                          },
                          {
                            "endTime" : 2234,
                            "time" : 2204,
                            "value" : 1.54076462936939,
                            "duration" : 30
                          }
                        ]
                      },
                      "scale1" : {
                        "type" : "double",
                        "defaultValue" : 0.75,
                        "interp" : "eioe",
                        "keyframes" : [
                          {
                            "endTime" : 579,
                            "time" : 492,
                            "value" : 1.80226296066848,
                            "duration" : 87
                          },
                          {
                            "endTime" : 1954,
                            "time" : 1912,
                            "value" : 0.75,
                            "duration" : 42
                          },
                          {
                            "endTime" : 2234,
                            "time" : 2204,
                            "value" : 1.54076464625537,
                            "duration" : 30
                          }
                        ]
                      },
                      "cursorScale" : {
                        "type" : "double",
                        "defaultValue" : 1.0,
                        "interp" : "linr"
                      },
                      "cursorOpacity" : {
                        "type" : "double",
                        "defaultValue" : 1.0,
                        "interp" : "linr"
                      }
                    },
                    "effects" : [
                        {
                          "effectName" : "CursorHilight",
                          "category" : "categoryCursorEffects",
                          "parameters" : {
                            "blur" : 0.1,
                            "color-alpha" : 0.75,
                            "color-blue" : 0.0,
                            "color-green" : 1.0,
                            "color-red" : 1.0,
                            "radius" : 50.0
                          }
                        }
                    ],
                    "start" : 1117,
                    "duration" : 95,
                    "mediaStart" : 1954,
                    "mediaDuration" : 250,
                    "scalar" : "19/50",
                    "metadata" : {
                      "AutoAppliedSmartFocus" : "False",
                      "WinSubProjectDisplayName" : "",
                      "clipSpeedAttribute" : true,
                      "default-scale0" : 0.75,
                      "default-scale1" : 0.75,
                      "default-translation0" : 0.0,
                      "default-translation1" : 0.0
                    },
                    "animationTracks" : {
                      "visual" : [
                        {
                          "endTime" : 579,
                          "duration" : 87,
                          "range" : [ 492, 87]
                        },
                        {
                          "endTime" : 860,
                          "duration" : 33,
                          "range" : [ 827, 33]
                        },
                        {
                          "endTime" : 1954,
                          "duration" : 42,
                          "range" : [ 1912, 42]
                        },
                        {
                          "endTime" : 2234,
                          "duration" : 30,
                          "range" : [ 2204, 30]
                        }
                      ]
                    }
                  },
                  {
                    "id" : 37,
                    "_type" : "ScreenVMFile",
                    "src" : 3,
                    "trackNumber" : 0,
                    "attributes" : {
                      "ident" : "Rec 02-26-19_001"
                    },
                    "parameters" : {
                      "translation0" : {
                        "type" : "double",
                        "defaultValue" : 0.0,
                        "interp" : "eioe",
                        "keyframes" : [
                          {
                            "endTime" : 579,
                            "time" : 492,
                            "value" : 1057.39282650528,
                            "duration" : 87
                          },
                          {
                            "endTime" : 860,
                            "time" : 827,
                            "value" : 1057.4,
                            "duration" : 33
                          },
                          {
                            "endTime" : 1954,
                            "time" : 1912,
                            "value" : 1.70530256582424e-13,
                            "duration" : 42
                          },
                          {
                            "endTime" : 2234,
                            "time" : 2204,
                            "value" : -1012.17900275747,
                            "duration" : 30
                          }
                        ]
                      },
                      "translation1" : {
                        "type" : "double",
                        "defaultValue" : 0.0,
                        "interp" : "eioe",
                        "keyframes" : [
                          {
                            "endTime" : 579,
                            "time" : 492,
                            "value" : -757.629322802269,
                            "duration" : 87
                          },
                          {
                            "endTime" : 860,
                            "time" : 827,
                            "value" : -144.124791547621,
                            "duration" : 33
                          },
                          {
                            "endTime" : 1954,
                            "time" : 1912,
                            "value" : 5.6843418860808e-14,
                            "duration" : 42
                          },
                          {
                            "endTime" : 2234,
                            "time" : 2204,
                            "value" : -569.350537713127,
                            "duration" : 30
                          }
                        ]
                      },
                      "scale0" : {
                        "type" : "double",
                        "defaultValue" : 0.75,
                        "interp" : "eioe",
                        "keyframes" : [
                          {
                            "endTime" : 579,
                            "time" : 492,
                            "value" : 1.80226298011579,
                            "duration" : 87
                          },
                          {
                            "endTime" : 860,
                            "time" : 827,
                            "value" : 1.80226282453731,
                            "duration" : 33
                          },
                          {
                            "endTime" : 1954,
                            "time" : 1912,
                            "value" : 0.7499999433499,
                            "duration" : 42
                          },
                          {
                            "endTime" : 2234,
                            "time" : 2204,
                            "value" : 1.54076462936939,
                            "duration" : 30
                          }
                        ]
                      },
                      "scale1" : {
                        "type" : "double",
                        "defaultValue" : 0.75,
                        "interp" : "eioe",
                        "keyframes" : [
                          {
                            "endTime" : 579,
                            "time" : 492,
                            "value" : 1.80226296066848,
                            "duration" : 87
                          },
                          {
                            "endTime" : 1954,
                            "time" : 1912,
                            "value" : 0.75,
                            "duration" : 42
                          },
                          {
                            "endTime" : 2234,
                            "time" : 2204,
                            "value" : 1.54076464625537,
                            "duration" : 30
                          }
                        ]
                      },
                      "cursorScale" : {
                        "type" : "double",
                        "defaultValue" : 1.0,
                        "interp" : "linr"
                      },
                      "cursorOpacity" : {
                        "type" : "double",
                        "defaultValue" : 1.0,
                        "interp" : "linr"
                      }
                    },
                    "effects" : [
                        {
                          "effectName" : "CursorHilight",
                          "category" : "categoryCursorEffects",
                          "parameters" : {
                            "blur" : 0.1,
                            "color-alpha" : 0.75,
                            "color-blue" : 0.0,
                            "color-green" : 1.0,
                            "color-red" : 1.0,
                            "radius" : 50.0
                          }
                        }
                    ],
                    "start" : 1212,
                    "duration" : 32,
                    "mediaStart" : 2204,
                    "mediaDuration" : 32,
                    "scalar" : 1,
                    "metadata" : {
                      "AutoAppliedSmartFocus" : "False",
                      "WinSubProjectDisplayName" : "",
                      "clipSpeedAttribute" : false,
                      "default-scale0" : 0.75,
                      "default-scale1" : 0.75,
                      "default-translation0" : 0.0,
                      "default-translation1" : 0.0
                    },
                    "animationTracks" : {
                      "visual" : [
                        {
                          "endTime" : 579,
                          "duration" : 87,
                          "range" : [ 492, 87]
                        },
                        {
                          "endTime" : 860,
                          "duration" : 33,
                          "range" : [ 827, 33]
                        },
                        {
                          "endTime" : 1954,
                          "duration" : 42,
                          "range" : [ 1912, 42]
                        },
                        {
                          "endTime" : 2234,
                          "duration" : 30,
                          "range" : [ 2204, 30]
                        }
                      ]
                    }
                  },
                  {
                    "id" : 38,
                    "_type" : "ScreenVMFile",
                    "src" : 3,
                    "trackNumber" : 0,
                    "attributes" : {
                      "ident" : "Rec 02-26-19_001"
                    },
                    "parameters" : {
                      "translation0" : {
                        "type" : "double",
                        "defaultValue" : 0.0,
                        "interp" : "eioe",
                        "keyframes" : [
                          {
                            "endTime" : 579,
                            "time" : 492,
                            "value" : 1057.39282650528,
                            "duration" : 87
                          },
                          {
                            "endTime" : 860,
                            "time" : 827,
                            "value" : 1057.4,
                            "duration" : 33
                          },
                          {
                            "endTime" : 1954,
                            "time" : 1912,
                            "value" : 1.70530256582424e-13,
                            "duration" : 42
                          },
                          {
                            "endTime" : 2234,
                            "time" : 2204,
                            "value" : -1012.17900275747,
                            "duration" : 30
                          }
                        ]
                      },
                      "translation1" : {
                        "type" : "double",
                        "defaultValue" : 0.0,
                        "interp" : "eioe",
                        "keyframes" : [
                          {
                            "endTime" : 579,
                            "time" : 492,
                            "value" : -757.629322802269,
                            "duration" : 87
                          },
                          {
                            "endTime" : 860,
                            "time" : 827,
                            "value" : -144.124791547621,
                            "duration" : 33
                          },
                          {
                            "endTime" : 1954,
                            "time" : 1912,
                            "value" : 5.6843418860808e-14,
                            "duration" : 42
                          },
                          {
                            "endTime" : 2234,
                            "time" : 2204,
                            "value" : -569.350537713127,
                            "duration" : 30
                          }
                        ]
                      },
                      "scale0" : {
                        "type" : "double",
                        "defaultValue" : 0.75,
                        "interp" : "eioe",
                        "keyframes" : [
                          {
                            "endTime" : 579,
                            "time" : 492,
                            "value" : 1.80226298011579,
                            "duration" : 87
                          },
                          {
                            "endTime" : 860,
                            "time" : 827,
                            "value" : 1.80226282453731,
                            "duration" : 33
                          },
                          {
                            "endTime" : 1954,
                            "time" : 1912,
                            "value" : 0.7499999433499,
                            "duration" : 42
                          },
                          {
                            "endTime" : 2234,
                            "time" : 2204,
                            "value" : 1.54076462936939,
                            "duration" : 30
                          }
                        ]
                      },
                      "scale1" : {
                        "type" : "double",
                        "defaultValue" : 0.75,
                        "interp" : "eioe",
                        "keyframes" : [
                          {
                            "endTime" : 579,
                            "time" : 492,
                            "value" : 1.80226296066848,
                            "duration" : 87
                          },
                          {
                            "endTime" : 1954,
                            "time" : 1912,
                            "value" : 0.75,
                            "duration" : 42
                          },
                          {
                            "endTime" : 2234,
                            "time" : 2204,
                            "value" : 1.54076464625537,
                            "duration" : 30
                          }
                        ]
                      },
                      "cursorScale" : {
                        "type" : "double",
                        "defaultValue" : 1.0,
                        "interp" : "linr"
                      },
                      "cursorOpacity" : {
                        "type" : "double",
                        "defaultValue" : 1.0,
                        "interp" : "linr"
                      }
                    },
                    "effects" : [
                        {
                          "effectName" : "CursorHilight",
                          "category" : "categoryCursorEffects",
                          "parameters" : {
                            "blur" : 0.1,
                            "color-alpha" : 0.75,
                            "color-blue" : 0.0,
                            "color-green" : 1.0,
                            "color-red" : 1.0,
                            "radius" : 50.0
                          }
                        }
                    ],
                    "start" : 1244,
                    "duration" : 125,
                    "mediaStart" : 2236,
                    "mediaDuration" : 224,
                    "scalar" : "125/224",
                    "metadata" : {
                      "AutoAppliedSmartFocus" : "False",
                      "WinSubProjectDisplayName" : "",
                      "clipSpeedAttribute" : true,
                      "default-scale0" : 0.75,
                      "default-scale1" : 0.75,
                      "default-translation0" : 0.0,
                      "default-translation1" : 0.0
                    },
                    "animationTracks" : {
                      "visual" : [
                        {
                          "endTime" : 579,
                          "duration" : 87,
                          "range" : [ 492, 87]
                        },
                        {
                          "endTime" : 860,
                          "duration" : 33,
                          "range" : [ 827, 33]
                        },
                        {
                          "endTime" : 1954,
                          "duration" : 42,
                          "range" : [ 1912, 42]
                        },
                        {
                          "endTime" : 2234,
                          "duration" : 30,
                          "range" : [ 2204, 30]
                        }
                      ]
                    }
                  },
                  {
                    "id" : 39,
                    "_type" : "ScreenVMFile",
                    "src" : 3,
                    "trackNumber" : 0,
                    "attributes" : {
                      "ident" : "Rec 02-26-19_001"
                    },
                    "parameters" : {
                      "translation0" : {
                        "type" : "double",
                        "defaultValue" : 0.0,
                        "interp" : "eioe",
                        "keyframes" : [
                          {
                            "endTime" : 579,
                            "time" : 492,
                            "value" : 1057.39282650528,
                            "duration" : 87
                          },
                          {
                            "endTime" : 860,
                            "time" : 827,
                            "value" : 1057.4,
                            "duration" : 33
                          },
                          {
                            "endTime" : 1954,
                            "time" : 1912,
                            "value" : 1.70530256582424e-13,
                            "duration" : 42
                          },
                          {
                            "endTime" : 2234,
                            "time" : 2204,
                            "value" : -1012.17900275747,
                            "duration" : 30
                          },
                          {
                            "endTime" : 2627,
                            "time" : 2575,
                            "value" : 0.0,
                            "duration" : 52
                          },
                          {
                            "endTime" : 2673,
                            "time" : 2627,
                            "value" : 1039.76877788117,
                            "duration" : 46
                          },
                          {
                            "endTime" : 2777,
                            "time" : 2744,
                            "value" : 2.8421709430404e-13,
                            "duration" : 33
                          },
                          {
                            "endTime" : 2811,
                            "time" : 2778,
                            "value" : -1003.71577888564,
                            "duration" : 33
                          }
                        ]
                      },
                      "translation1" : {
                        "type" : "double",
                        "defaultValue" : 0.0,
                        "interp" : "eioe",
                        "keyframes" : [
                          {
                            "endTime" : 579,
                            "time" : 492,
                            "value" : -757.629322802269,
                            "duration" : 87
                          },
                          {
                            "endTime" : 860,
                            "time" : 827,
                            "value" : -144.124791547621,
                            "duration" : 33
                          },
                          {
                            "endTime" : 1954,
                            "time" : 1912,
                            "value" : 5.6843418860808e-14,
                            "duration" : 42
                          },
                          {
                            "endTime" : 2234,
                            "time" : 2204,
                            "value" : -569.350537713127,
                            "duration" : 30
                          },
                          {
                            "endTime" : 2627,
                            "time" : 2575,
                            "value" : 5.6843418860808e-14,
                            "duration" : 52
                          },
                          {
                            "endTime" : 2673,
                            "time" : 2627,
                            "value" : -137.291702653022,
                            "duration" : 46
                          },
                          {
                            "endTime" : 2777,
                            "time" : 2744,
                            "value" : -4.2632564145606e-14,
                            "duration" : 33
                          },
                          {
                            "endTime" : 2811,
                            "time" : 2778,
                            "value" : -54.3641977445802,
                            "duration" : 33
                          }
                        ]
                      },
                      "scale0" : {
                        "type" : "double",
                        "defaultValue" : 0.75,
                        "interp" : "eioe",
                        "keyframes" : [
                          {
                            "endTime" : 579,
                            "time" : 492,
                            "value" : 1.80226298011579,
                            "duration" : 87
                          },
                          {
                            "endTime" : 860,
                            "time" : 827,
                            "value" : 1.80226282453731,
                            "duration" : 33
                          },
                          {
                            "endTime" : 1954,
                            "time" : 1912,
                            "value" : 0.7499999433499,
                            "duration" : 42
                          },
                          {
                            "endTime" : 2234,
                            "time" : 2204,
                            "value" : 1.54076462936939,
                            "duration" : 30
                          },
                          {
                            "endTime" : 2627,
                            "time" : 2575,
                            "value" : 0.74999999178039,
                            "duration" : 52
                          },
                          {
                            "endTime" : 2673,
                            "time" : 2627,
                            "value" : 1.73715462693732,
                            "duration" : 46
                          },
                          {
                            "endTime" : 2777,
                            "time" : 2744,
                            "value" : 0.749999944690187,
                            "duration" : 33
                          },
                          {
                            "endTime" : 2811,
                            "time" : 2778,
                            "value" : 1.71287939209151,
                            "duration" : 33
                          }
                        ]
                      },
                      "scale1" : {
                        "type" : "double",
                        "defaultValue" : 0.75,
                        "interp" : "eioe",
                        "keyframes" : [
                          {
                            "endTime" : 579,
                            "time" : 492,
                            "value" : 1.80226296066848,
                            "duration" : 87
                          },
                          {
                            "endTime" : 1954,
                            "time" : 1912,
                            "value" : 0.75,
                            "duration" : 42
                          },
                          {
                            "endTime" : 2234,
                            "time" : 2204,
                            "value" : 1.54076464625537,
                            "duration" : 30
                          },
                          {
                            "endTime" : 2627,
                            "time" : 2575,
                            "value" : 0.75,
                            "duration" : 52
                          },
                          {
                            "endTime" : 2673,
                            "time" : 2627,
                            "value" : 1.73715475504626,
                            "duration" : 46
                          },
                          {
                            "endTime" : 2777,
                            "time" : 2744,
                            "value" : 0.75,
                            "duration" : 33
                          },
                          {
                            "endTime" : 2811,
                            "time" : 2778,
                            "value" : 1.71287917413656,
                            "duration" : 33
                          }
                        ]
                      },
                      "cursorScale" : {
                        "type" : "double",
                        "defaultValue" : 1.0,
                        "interp" : "linr"
                      },
                      "cursorOpacity" : {
                        "type" : "double",
                        "defaultValue" : 1.0,
                        "interp" : "linr"
                      }
                    },
                    "effects" : [

                    ],
                    "start" : 1369,
                    "duration" : 351,
                    "mediaStart" : 2460,
                    "mediaDuration" : 351,
                    "scalar" : 1,
                    "metadata" : {
                      "AutoAppliedSmartFocus" : "False",
                      "WinSubProjectDisplayName" : "",
                      "clipSpeedAttribute" : false,
                      "default-scale0" : 0.75,
                      "default-scale1" : 0.75,
                      "default-translation0" : 0.0,
                      "default-translation1" : 0.0
                    },
                    "animationTracks" : {
                      "visual" : [
                        {
                          "endTime" : 579,
                          "duration" : 87,
                          "range" : [ 492, 87]
                        },
                        {
                          "endTime" : 860,
                          "duration" : 33,
                          "range" : [ 827, 33]
                        },
                        {
                          "endTime" : 1954,
                          "duration" : 42,
                          "range" : [ 1912, 42]
                        },
                        {
                          "endTime" : 2234,
                          "duration" : 30,
                          "range" : [ 2204, 30]
                        },
                        {
                          "endTime" : 2627,
                          "duration" : 52,
                          "range" : [ 2575, 52]
                        },
                        {
                          "endTime" : 2673,
                          "duration" : 46,
                          "range" : [ 2627, 46]
                        },
                        {
                          "endTime" : 2777,
                          "duration" : 33,
                          "range" : [ 2744, 33]
                        },
                        {
                          "endTime" : 2811,
                          "duration" : 33,
                          "range" : [ 2778, 33]
                        }
                      ]
                    }
                  },
                  {
                    "id" : 40,
                    "_type" : "ScreenVMFile",
                    "src" : 3,
                    "trackNumber" : 0,
                    "attributes" : {
                      "ident" : "Rec 02-26-19_001"
                    },
                    "parameters" : {
                      "translation0" : {
                        "type" : "double",
                        "defaultValue" : 0.0,
                        "interp" : "eioe",
                        "keyframes" : [
                          {
                            "endTime" : 579,
                            "time" : 492,
                            "value" : 1057.39282650528,
                            "duration" : 87
                          },
                          {
                            "endTime" : 860,
                            "time" : 827,
                            "value" : 1057.4,
                            "duration" : 33
                          },
                          {
                            "endTime" : 1954,
                            "time" : 1912,
                            "value" : 1.70530256582424e-13,
                            "duration" : 42
                          },
                          {
                            "endTime" : 2234,
                            "time" : 2204,
                            "value" : -1012.17900275747,
                            "duration" : 30
                          },
                          {
                            "endTime" : 2627,
                            "time" : 2575,
                            "value" : 0.0,
                            "duration" : 52
                          },
                          {
                            "endTime" : 2679,
                            "time" : 2627,
                            "value" : 1039.76877788117,
                            "duration" : 52
                          },
                          {
                            "endTime" : 2766,
                            "time" : 2731,
                            "value" : 2.8421709430404e-13,
                            "duration" : 35
                          },
                          {
                            "endTime" : "30914/11",
                            "time" : 2774,
                            "value" : -1003.71577888564,
                            "duration" : "400/11"
                          }
                        ]
                      },
                      "translation1" : {
                        "type" : "double",
                        "defaultValue" : 0.0,
                        "interp" : "eioe",
                        "keyframes" : [
                          {
                            "endTime" : 579,
                            "time" : 492,
                            "value" : -757.629322802269,
                            "duration" : 87
                          },
                          {
                            "endTime" : 860,
                            "time" : 827,
                            "value" : -144.124791547621,
                            "duration" : 33
                          },
                          {
                            "endTime" : 1954,
                            "time" : 1912,
                            "value" : 5.6843418860808e-14,
                            "duration" : 42
                          },
                          {
                            "endTime" : 2234,
                            "time" : 2204,
                            "value" : -569.350537713127,
                            "duration" : 30
                          },
                          {
                            "endTime" : 2627,
                            "time" : 2575,
                            "value" : 5.6843418860808e-14,
                            "duration" : 52
                          },
                          {
                            "endTime" : 2679,
                            "time" : 2627,
                            "value" : -137.291702653022,
                            "duration" : 52
                          },
                          {
                            "endTime" : 2766,
                            "time" : 2731,
                            "value" : -4.2632564145606e-14,
                            "duration" : 35
                          },
                          {
                            "endTime" : "30914/11",
                            "time" : 2774,
                            "value" : -54.3641977445802,
                            "duration" : "400/11"
                          }
                        ]
                      },
                      "scale0" : {
                        "type" : "double",
                        "defaultValue" : 0.75,
                        "interp" : "eioe",
                        "keyframes" : [
                          {
                            "endTime" : 579,
                            "time" : 492,
                            "value" : 1.80226298011579,
                            "duration" : 87
                          },
                          {
                            "endTime" : 860,
                            "time" : 827,
                            "value" : 1.80226282453731,
                            "duration" : 33
                          },
                          {
                            "endTime" : 1954,
                            "time" : 1912,
                            "value" : 0.7499999433499,
                            "duration" : 42
                          },
                          {
                            "endTime" : 2234,
                            "time" : 2204,
                            "value" : 1.54076462936939,
                            "duration" : 30
                          },
                          {
                            "endTime" : 2627,
                            "time" : 2575,
                            "value" : 0.74999999178039,
                            "duration" : 52
                          },
                          {
                            "endTime" : 2679,
                            "time" : 2627,
                            "value" : 1.73715462693732,
                            "duration" : 52
                          },
                          {
                            "endTime" : 2766,
                            "time" : 2731,
                            "value" : 0.749999944690187,
                            "duration" : 35
                          },
                          {
                            "endTime" : "30914/11",
                            "time" : 2774,
                            "value" : 1.71287939209151,
                            "duration" : "400/11"
                          }
                        ]
                      },
                      "scale1" : {
                        "type" : "double",
                        "defaultValue" : 0.75,
                        "interp" : "eioe",
                        "keyframes" : [
                          {
                            "endTime" : 579,
                            "time" : 492,
                            "value" : 1.80226296066848,
                            "duration" : 87
                          },
                          {
                            "endTime" : 1954,
                            "time" : 1912,
                            "value" : 0.75,
                            "duration" : 42
                          },
                          {
                            "endTime" : 2234,
                            "time" : 2204,
                            "value" : 1.54076464625537,
                            "duration" : 30
                          },
                          {
                            "endTime" : 2627,
                            "time" : 2575,
                            "value" : 0.75,
                            "duration" : 52
                          },
                          {
                            "endTime" : 2679,
                            "time" : 2627,
                            "value" : 1.73715475504626,
                            "duration" : 52
                          },
                          {
                            "endTime" : 2766,
                            "time" : 2731,
                            "value" : 0.75,
                            "duration" : 35
                          },
                          {
                            "endTime" : "30914/11",
                            "time" : 2774,
                            "value" : 1.71287917413656,
                            "duration" : "400/11"
                          }
                        ]
                      },
                      "cursorScale" : {
                        "type" : "double",
                        "defaultValue" : 1.0,
                        "interp" : "linr"
                      },
                      "cursorOpacity" : {
                        "type" : "double",
                        "defaultValue" : 1.0,
                        "interp" : "linr"
                      }
                    },
                    "effects" : [

                    ],
                    "start" : 1720,
                    "duration" : 132,
                    "mediaStart" : 2811,
                    "mediaDuration" : 320,
                    "scalar" : "33/80",
                    "metadata" : {
                      "AutoAppliedSmartFocus" : "False",
                      "WinSubProjectDisplayName" : "",
                      "clipSpeedAttribute" : true,
                      "default-scale0" : 0.75,
                      "default-scale1" : 0.75,
                      "default-translation0" : 0.0,
                      "default-translation1" : 0.0
                    },
                    "animationTracks" : {
                      "visual" : [
                        {
                          "endTime" : 579,
                          "duration" : 87,
                          "range" : [ 492, 87]
                        },
                        {
                          "endTime" : 860,
                          "duration" : 33,
                          "range" : [ 827, 33]
                        },
                        {
                          "endTime" : 1954,
                          "duration" : 42,
                          "range" : [ 1912, 42]
                        },
                        {
                          "endTime" : 2234,
                          "duration" : 30,
                          "range" : [ 2204, 30]
                        },
                        {
                          "endTime" : 2627,
                          "duration" : 52,
                          "range" : [ 2575, 52]
                        },
                        {
                          "endTime" : 2679,
                          "duration" : 52,
                          "range" : [ 2627, 52]
                        },
                        {
                          "endTime" : 2766,
                          "duration" : 35,
                          "range" : [ 2731, 35]
                        },
                        {
                          "endTime" : "30914/11",
                          "duration" : "400/11",
                          "range" : [ 2774, "400/11"]
                        }
                      ]
                    }
                  },
                  {
                    "id" : 41,
                    "_type" : "StitchedMedia",
                    "minMediaStart" : 0,
                    "attributes" : {
                      "ident" : "Rec 02-26-19_001",
                      "gain" : 1.0,
                      "mixToMono" : false
                    },
                    "parameters" : {
                      "translation0" : {
                        "type" : "double",
                        "defaultValue" : 0.0,
                        "keyframes" : [
                          {
                            "endTime" : 579,
                            "time" : 492,
                            "value" : 1057.39282650528,
                            "duration" : 87
                          },
                          {
                            "endTime" : 860,
                            "time" : 827,
                            "value" : 1057.4,
                            "duration" : 33
                          },
                          {
                            "endTime" : 1954,
                            "time" : 1912,
                            "value" : 1.70530256582424e-13,
                            "duration" : 42
                          },
                          {
                            "endTime" : 2234,
                            "time" : 2204,
                            "value" : -1012.17900275747,
                            "duration" : 30
                          },
                          {
                            "endTime" : 2627,
                            "time" : 2575,
                            "value" : 0.0,
                            "duration" : 52
                          },
                          {
                            "endTime" : 2679,
                            "time" : 2627,
                            "value" : 1039.76877788117,
                            "duration" : 52
                          },
                          {
                            "endTime" : 2766,
                            "time" : 2731,
                            "value" : 2.8421709430404e-13,
                            "duration" : 35
                          },
                          {
                            "endTime" : 2811,
                            "time" : 2774,
                            "value" : -1003.71577888564,
                            "duration" : 37
                          }
                        ]
                      },
                      "translation1" : {
                        "type" : "double",
                        "defaultValue" : 0.0,
                        "keyframes" : [
                          {
                            "endTime" : 579,
                            "time" : 492,
                            "value" : -757.629322802269,
                            "duration" : 87
                          },
                          {
                            "endTime" : 860,
                            "time" : 827,
                            "value" : -144.124791547621,
                            "duration" : 33
                          },
                          {
                            "endTime" : 1954,
                            "time" : 1912,
                            "value" : 5.6843418860808e-14,
                            "duration" : 42
                          },
                          {
                            "endTime" : 2234,
                            "time" : 2204,
                            "value" : -569.350537713127,
                            "duration" : 30
                          },
                          {
                            "endTime" : 2627,
                            "time" : 2575,
                            "value" : 5.6843418860808e-14,
                            "duration" : 52
                          },
                          {
                            "endTime" : 2679,
                            "time" : 2627,
                            "value" : -137.291702653022,
                            "duration" : 52
                          },
                          {
                            "endTime" : 2766,
                            "time" : 2731,
                            "value" : -4.2632564145606e-14,
                            "duration" : 35
                          },
                          {
                            "endTime" : 2811,
                            "time" : 2774,
                            "value" : -54.3641977445802,
                            "duration" : 37
                          }
                        ]
                      },
                      "scale0" : {
                        "type" : "double",
                        "defaultValue" : 0.75,
                        "keyframes" : [
                          {
                            "endTime" : 579,
                            "time" : 492,
                            "value" : 1.80226298011579,
                            "duration" : 87
                          },
                          {
                            "endTime" : 860,
                            "time" : 827,
                            "value" : 1.80226282453731,
                            "duration" : 33
                          },
                          {
                            "endTime" : 1954,
                            "time" : 1912,
                            "value" : 0.7499999433499,
                            "duration" : 42
                          },
                          {
                            "endTime" : 2234,
                            "time" : 2204,
                            "value" : 1.54076462936939,
                            "duration" : 30
                          },
                          {
                            "endTime" : 2627,
                            "time" : 2575,
                            "value" : 0.74999999178039,
                            "duration" : 52
                          },
                          {
                            "endTime" : 2679,
                            "time" : 2627,
                            "value" : 1.73715462693732,
                            "duration" : 52
                          },
                          {
                            "endTime" : 2766,
                            "time" : 2731,
                            "value" : 0.749999944690187,
                            "duration" : 35
                          },
                          {
                            "endTime" : 2811,
                            "time" : 2774,
                            "value" : 1.71287939209151,
                            "duration" : 37
                          }
                        ]
                      },
                      "scale1" : {
                        "type" : "double",
                        "defaultValue" : 0.75,
                        "keyframes" : [
                          {
                            "endTime" : 579,
                            "time" : 492,
                            "value" : 1.80226296066848,
                            "duration" : 87
                          },
                          {
                            "endTime" : 1954,
                            "time" : 1912,
                            "value" : 0.75,
                            "duration" : 42
                          },
                          {
                            "endTime" : 2234,
                            "time" : 2204,
                            "value" : 1.54076464625537,
                            "duration" : 30
                          },
                          {
                            "endTime" : 2627,
                            "time" : 2575,
                            "value" : 0.75,
                            "duration" : 52
                          },
                          {
                            "endTime" : 2679,
                            "time" : 2627,
                            "value" : 1.73715475504626,
                            "duration" : 52
                          },
                          {
                            "endTime" : 2766,
                            "time" : 2731,
                            "value" : 0.75,
                            "duration" : 35
                          },
                          {
                            "endTime" : 2811,
                            "time" : 2774,
                            "value" : 1.71287917413656,
                            "duration" : 37
                          }
                        ]
                      },
                      "cursorOpacity" : 1.0,
                      "cursorScale" : 1.0
                    },
                    "medias" : [
                        {
                          "id" : 42,
                          "_type" : "ScreenVMFile",
                          "src" : 3,
                          "trackNumber" : 0,
                          "attributes" : {
                            "ident" : "Rec 02-26-19_001"
                          },
                          "parameters" : {
                            "cursorScale" : {
                              "type" : "double",
                              "defaultValue" : 0.0,
                              "interp" : "linr"
                            },
                            "cursorOpacity" : {
                              "type" : "double",
                              "defaultValue" : 0.0,
                              "interp" : "linr"
                            }
                          },
                          "effects" : [

                          ],
                          "start" : 0,
                          "duration" : 3233,
                          "mediaStart" : 0,
                          "mediaDuration" : 3233,
                          "scalar" : 1,
                          "metadata" : {
                            "AutoAppliedSmartFocus" : "False",
                            "WinSubProjectDisplayName" : "",
                            "clipSpeedAttribute" : false,
                            "default-scale0" : 0.75,
                            "default-scale1" : 0.75,
                            "default-translation0" : 0.0,
                            "default-translation1" : 0.0
                          },
                          "animationTracks" : {

                          }
                        },
                        {
                          "id" : 43,
                          "_type" : "ScreenIMFile",
                          "src" : 3,
                          "trackNumber" : 0,
                          "trimStartSum" : 0,
                          "attributes" : {
                            "ident" : "Rec 02-26-19_001"
                          },
                          "parameters" : {
                            "cursorOpacity" : 0.0,
                            "cursorScale" : 0.0
                          },
                          "effects" : [

                          ],
                          "start" : 3233,
                          "duration" : 30,
                          "mediaStart" : 3232,
                          "mediaDuration" : 1,
                          "scalar" : 1,
                          "metadata" : {
                            "AutoAppliedSmartFocus" : "False",
                            "WinSubProjectDisplayName" : ""
                          },
                          "animationTracks" : {

                          }
                        },
                        {
                          "id" : 44,
                          "_type" : "ScreenVMFile",
                          "src" : 3,
                          "trackNumber" : 0,
                          "attributes" : {
                            "ident" : "Rec 02-26-19_001"
                          },
                          "parameters" : {
                            "cursorScale" : {
                              "type" : "double",
                              "defaultValue" : 0.0,
                              "interp" : "linr"
                            },
                            "cursorOpacity" : {
                              "type" : "double",
                              "defaultValue" : 0.0,
                              "interp" : "linr"
                            }
                          },
                          "effects" : [

                          ],
                          "start" : 3263,
                          "duration" : 2653,
                          "mediaStart" : 3233,
                          "mediaDuration" : 2653,
                          "scalar" : 1,
                          "metadata" : {
                            "AutoAppliedSmartFocus" : "False",
                            "WinSubProjectDisplayName" : "",
                            "clipSpeedAttribute" : false,
                            "default-scale0" : 0.75,
                            "default-scale1" : 0.75,
                            "default-translation0" : 0.0,
                            "default-translation1" : 0.0
                          },
                          "animationTracks" : {

                          }
                        }
                    ],
                    "effects" : [

                    ],
                    "start" : 1852,
                    "duration" : 147,
                    "mediaStart" : 3131,
                    "mediaDuration" : 147,
                    "scalar" : 1,
                    "metadata" : {
                      "AutoAppliedSmartFocus" : "False",
                      "WinSubProjectDisplayName" : "",
                      "clipSpeedAttribute" : false,
                      "default-translation0" : -1003.71577888564,
                      "default-translation1" : -54.3641977445802
                    },
                    "animationTracks" : {
                      "visual" : [
                        {
                          "endTime" : 579,
                          "duration" : 87,
                          "range" : [ 492, 87]
                        },
                        {
                          "endTime" : 860,
                          "duration" : 33,
                          "range" : [ 827, 33]
                        },
                        {
                          "endTime" : 1954,
                          "duration" : 42,
                          "range" : [ 1912, 42]
                        },
                        {
                          "endTime" : 2234,
                          "duration" : 30,
                          "range" : [ 2204, 30]
                        },
                        {
                          "endTime" : 2627,
                          "duration" : 52,
                          "range" : [ 2575, 52]
                        },
                        {
                          "endTime" : 2679,
                          "duration" : 52,
                          "range" : [ 2627, 52]
                        },
                        {
                          "endTime" : 2766,
                          "duration" : 35,
                          "range" : [ 2731, 35]
                        },
                        {
                          "endTime" : 2811,
                          "duration" : 37,
                          "range" : [ 2774, 37]
                        }
                      ]
                    }
                  },
                  {
                    "id" : 45,
                    "_type" : "StitchedMedia",
                    "minMediaStart" : 0,
                    "attributes" : {
                      "ident" : "Rec 02-26-19_001",
                      "gain" : 1.0,
                      "mixToMono" : false
                    },
                    "parameters" : {
                      "translation0" : {
                        "type" : "double",
                        "defaultValue" : 0.0,
                        "keyframes" : [
                          {
                            "endTime" : 579,
                            "time" : 492,
                            "value" : 1057.39282650528,
                            "duration" : 87
                          },
                          {
                            "endTime" : 860,
                            "time" : 827,
                            "value" : 1057.4,
                            "duration" : 33
                          },
                          {
                            "endTime" : 1954,
                            "time" : 1912,
                            "value" : 1.70530256582424e-13,
                            "duration" : 42
                          },
                          {
                            "endTime" : 2234,
                            "time" : 2204,
                            "value" : -1012.17900275747,
                            "duration" : 30
                          },
                          {
                            "endTime" : 2627,
                            "time" : 2575,
                            "value" : 0.0,
                            "duration" : 52
                          },
                          {
                            "endTime" : 2679,
                            "time" : 2627,
                            "value" : 1039.76877788117,
                            "duration" : 52
                          },
                          {
                            "endTime" : 2766,
                            "time" : 2731,
                            "value" : 2.8421709430404e-13,
                            "duration" : 35
                          },
                          {
                            "endTime" : 2811,
                            "time" : 2774,
                            "value" : -1003.71577888564,
                            "duration" : 37
                          }
                        ]
                      },
                      "translation1" : {
                        "type" : "double",
                        "defaultValue" : 0.0,
                        "keyframes" : [
                          {
                            "endTime" : 579,
                            "time" : 492,
                            "value" : -757.629322802269,
                            "duration" : 87
                          },
                          {
                            "endTime" : 860,
                            "time" : 827,
                            "value" : -144.124791547621,
                            "duration" : 33
                          },
                          {
                            "endTime" : 1954,
                            "time" : 1912,
                            "value" : 5.6843418860808e-14,
                            "duration" : 42
                          },
                          {
                            "endTime" : 2234,
                            "time" : 2204,
                            "value" : -569.350537713127,
                            "duration" : 30
                          },
                          {
                            "endTime" : 2627,
                            "time" : 2575,
                            "value" : 5.6843418860808e-14,
                            "duration" : 52
                          },
                          {
                            "endTime" : 2679,
                            "time" : 2627,
                            "value" : -137.291702653022,
                            "duration" : 52
                          },
                          {
                            "endTime" : 2766,
                            "time" : 2731,
                            "value" : -4.2632564145606e-14,
                            "duration" : 35
                          },
                          {
                            "endTime" : 2811,
                            "time" : 2774,
                            "value" : -54.3641977445802,
                            "duration" : 37
                          }
                        ]
                      },
                      "scale0" : {
                        "type" : "double",
                        "defaultValue" : 0.75,
                        "keyframes" : [
                          {
                            "endTime" : 579,
                            "time" : 492,
                            "value" : 1.80226298011579,
                            "duration" : 87
                          },
                          {
                            "endTime" : 860,
                            "time" : 827,
                            "value" : 1.80226282453731,
                            "duration" : 33
                          },
                          {
                            "endTime" : 1954,
                            "time" : 1912,
                            "value" : 0.7499999433499,
                            "duration" : 42
                          },
                          {
                            "endTime" : 2234,
                            "time" : 2204,
                            "value" : 1.54076462936939,
                            "duration" : 30
                          },
                          {
                            "endTime" : 2627,
                            "time" : 2575,
                            "value" : 0.74999999178039,
                            "duration" : 52
                          },
                          {
                            "endTime" : 2679,
                            "time" : 2627,
                            "value" : 1.73715462693732,
                            "duration" : 52
                          },
                          {
                            "endTime" : 2766,
                            "time" : 2731,
                            "value" : 0.749999944690187,
                            "duration" : 35
                          },
                          {
                            "endTime" : 2811,
                            "time" : 2774,
                            "value" : 1.71287939209151,
                            "duration" : 37
                          }
                        ]
                      },
                      "scale1" : {
                        "type" : "double",
                        "defaultValue" : 0.75,
                        "keyframes" : [
                          {
                            "endTime" : 579,
                            "time" : 492,
                            "value" : 1.80226296066848,
                            "duration" : 87
                          },
                          {
                            "endTime" : 1954,
                            "time" : 1912,
                            "value" : 0.75,
                            "duration" : 42
                          },
                          {
                            "endTime" : 2234,
                            "time" : 2204,
                            "value" : 1.54076464625537,
                            "duration" : 30
                          },
                          {
                            "endTime" : 2627,
                            "time" : 2575,
                            "value" : 0.75,
                            "duration" : 52
                          },
                          {
                            "endTime" : 2679,
                            "time" : 2627,
                            "value" : 1.73715475504626,
                            "duration" : 52
                          },
                          {
                            "endTime" : 2766,
                            "time" : 2731,
                            "value" : 0.75,
                            "duration" : 35
                          },
                          {
                            "endTime" : 2811,
                            "time" : 2774,
                            "value" : 1.71287917413656,
                            "duration" : 37
                          }
                        ]
                      },
                      "cursorOpacity" : 1.0,
                      "cursorScale" : 1.0
                    },
                    "medias" : [
                        {
                          "id" : 46,
                          "_type" : "ScreenVMFile",
                          "src" : 3,
                          "trackNumber" : 0,
                          "attributes" : {
                            "ident" : "Rec 02-26-19_001"
                          },
                          "parameters" : {
                            "cursorScale" : {
                              "type" : "double",
                              "defaultValue" : 0.0,
                              "interp" : "linr"
                            },
                            "cursorOpacity" : {
                              "type" : "double",
                              "defaultValue" : 0.0,
                              "interp" : "linr"
                            }
                          },
                          "effects" : [

                          ],
                          "start" : 0,
                          "duration" : 3678,
                          "mediaStart" : 0,
                          "mediaDuration" : 3678,
                          "scalar" : 1,
                          "metadata" : {
                            "AutoAppliedSmartFocus" : "False",
                            "WinSubProjectDisplayName" : "",
                            "clipSpeedAttribute" : false,
                            "default-scale0" : 0.75,
                            "default-scale1" : 0.75,
                            "default-translation0" : 0.0,
                            "default-translation1" : 0.0
                          },
                          "animationTracks" : {

                          }
                        },
                        {
                          "id" : 47,
                          "_type" : "ScreenIMFile",
                          "src" : 3,
                          "trackNumber" : 0,
                          "trimStartSum" : 0,
                          "attributes" : {
                            "ident" : "Rec 02-26-19_001"
                          },
                          "parameters" : {
                            "cursorOpacity" : 0.0,
                            "cursorScale" : 0.0
                          },
                          "effects" : [

                          ],
                          "start" : 3678,
                          "duration" : 21,
                          "mediaStart" : 3677,
                          "mediaDuration" : 1,
                          "scalar" : 1,
                          "metadata" : {
                            "AutoAppliedSmartFocus" : "False",
                            "WinSubProjectDisplayName" : ""
                          },
                          "animationTracks" : {

                          }
                        },
                        {
                          "id" : 48,
                          "_type" : "ScreenVMFile",
                          "src" : 3,
                          "trackNumber" : 0,
                          "attributes" : {
                            "ident" : "Rec 02-26-19_001"
                          },
                          "parameters" : {
                            "cursorScale" : {
                              "type" : "double",
                              "defaultValue" : 0.0,
                              "interp" : "linr"
                            },
                            "cursorOpacity" : {
                              "type" : "double",
                              "defaultValue" : 0.0,
                              "interp" : "linr"
                            }
                          },
                          "effects" : [

                          ],
                          "start" : 3699,
                          "duration" : 10,
                          "mediaStart" : 3678,
                          "mediaDuration" : 10,
                          "scalar" : 1,
                          "metadata" : {
                            "AutoAppliedSmartFocus" : "False",
                            "WinSubProjectDisplayName" : "",
                            "clipSpeedAttribute" : false,
                            "default-scale0" : 0.75,
                            "default-scale1" : 0.75,
                            "default-translation0" : 0.0,
                            "default-translation1" : 0.0
                          },
                          "animationTracks" : {

                          }
                        },
                        {
                          "id" : 49,
                          "_type" : "ScreenIMFile",
                          "src" : 3,
                          "trackNumber" : 0,
                          "trimStartSum" : 0,
                          "attributes" : {
                            "ident" : "Rec 02-26-19_001"
                          },
                          "parameters" : {
                            "cursorOpacity" : 0.0,
                            "cursorScale" : 0.0
                          },
                          "effects" : [

                          ],
                          "start" : 3709,
                          "duration" : 60,
                          "mediaStart" : 3688,
                          "mediaDuration" : 1,
                          "scalar" : 1,
                          "metadata" : {
                            "AutoAppliedSmartFocus" : "False",
                            "WinSubProjectDisplayName" : ""
                          },
                          "animationTracks" : {

                          }
                        },
                        {
                          "id" : 50,
                          "_type" : "ScreenVMFile",
                          "src" : 3,
                          "trackNumber" : 0,
                          "attributes" : {
                            "ident" : "Rec 02-26-19_001"
                          },
                          "parameters" : {
                            "cursorScale" : {
                              "type" : "double",
                              "defaultValue" : 0.0,
                              "interp" : "linr"
                            },
                            "cursorOpacity" : {
                              "type" : "double",
                              "defaultValue" : 0.0,
                              "interp" : "linr"
                            }
                          },
                          "effects" : [

                          ],
                          "start" : 3769,
                          "duration" : 2198,
                          "mediaStart" : 3688,
                          "mediaDuration" : 2198,
                          "scalar" : 1,
                          "metadata" : {
                            "AutoAppliedSmartFocus" : "False",
                            "WinSubProjectDisplayName" : "",
                            "clipSpeedAttribute" : false,
                            "default-scale0" : 0.75,
                            "default-scale1" : 0.75,
                            "default-translation0" : 0.0,
                            "default-translation1" : 0.0
                          },
                          "animationTracks" : {

                          }
                        }
                    ],
                    "effects" : [
                        {
                          "effectName" : "CursorHilight",
                          "category" : "categoryCursorEffects",
                          "parameters" : {
                            "blur" : 0.1,
                            "color-alpha" : 0.75,
                            "color-blue" : 0.0,
                            "color-green" : 1.0,
                            "color-red" : 1.0,
                            "radius" : 50.0
                          }
                        }
                    ],
                    "start" : 1999,
                    "duration" : 373,
                    "mediaStart" : 3435,
                    "mediaDuration" : 373,
                    "scalar" : 1,
                    "metadata" : {
                      "AutoAppliedSmartFocus" : "False",
                      "WinSubProjectDisplayName" : "",
                      "clipSpeedAttribute" : false
                    },
                    "animationTracks" : {
                      "visual" : [
                        {
                          "endTime" : 579,
                          "duration" : 87,
                          "range" : [ 492, 87]
                        },
                        {
                          "endTime" : 860,
                          "duration" : 33,
                          "range" : [ 827, 33]
                        },
                        {
                          "endTime" : 1954,
                          "duration" : 42,
                          "range" : [ 1912, 42]
                        },
                        {
                          "endTime" : 2234,
                          "duration" : 30,
                          "range" : [ 2204, 30]
                        },
                        {
                          "endTime" : 2627,
                          "duration" : 52,
                          "range" : [ 2575, 52]
                        },
                        {
                          "endTime" : 2679,
                          "duration" : 52,
                          "range" : [ 2627, 52]
                        },
                        {
                          "endTime" : 2766,
                          "duration" : 35,
                          "range" : [ 2731, 35]
                        },
                        {
                          "endTime" : 2811,
                          "duration" : 37,
                          "range" : [ 2774, 37]
                        }
                      ]
                    }
                  },
                  {
                    "id" : 51,
                    "_type" : "ScreenVMFile",
                    "src" : 3,
                    "trackNumber" : 0,
                    "attributes" : {
                      "ident" : "Rec 02-26-19_001"
                    },
                    "parameters" : {
                      "translation0" : {
                        "type" : "double",
                        "defaultValue" : 0.0,
                        "interp" : "eioe",
                        "keyframes" : [
                          {
                            "endTime" : 579,
                            "time" : 492,
                            "value" : 1057.39282650528,
                            "duration" : 87
                          },
                          {
                            "endTime" : 860,
                            "time" : 827,
                            "value" : 1057.4,
                            "duration" : 33
                          },
                          {
                            "endTime" : 1954,
                            "time" : 1912,
                            "value" : 1.70530256582424e-13,
                            "duration" : 42
                          },
                          {
                            "endTime" : 2234,
                            "time" : 2204,
                            "value" : -1012.17900275747,
                            "duration" : 30
                          },
                          {
                            "endTime" : 2627,
                            "time" : 2575,
                            "value" : 0.0,
                            "duration" : 52
                          },
                          {
                            "endTime" : 2679,
                            "time" : 2627,
                            "value" : 1039.76877788117,
                            "duration" : 52
                          },
                          {
                            "endTime" : 2766,
                            "time" : 2731,
                            "value" : 2.8421709430404e-13,
                            "duration" : 35
                          },
                          {
                            "endTime" : 2811,
                            "time" : 2774,
                            "value" : -1003.71577888564,
                            "duration" : 37
                          }
                        ]
                      },
                      "translation1" : {
                        "type" : "double",
                        "defaultValue" : 0.0,
                        "interp" : "eioe",
                        "keyframes" : [
                          {
                            "endTime" : 579,
                            "time" : 492,
                            "value" : -757.629322802269,
                            "duration" : 87
                          },
                          {
                            "endTime" : 860,
                            "time" : 827,
                            "value" : -144.124791547621,
                            "duration" : 33
                          },
                          {
                            "endTime" : 1954,
                            "time" : 1912,
                            "value" : 5.6843418860808e-14,
                            "duration" : 42
                          },
                          {
                            "endTime" : 2234,
                            "time" : 2204,
                            "value" : -569.350537713127,
                            "duration" : 30
                          },
                          {
                            "endTime" : 2627,
                            "time" : 2575,
                            "value" : 5.6843418860808e-14,
                            "duration" : 52
                          },
                          {
                            "endTime" : 2679,
                            "time" : 2627,
                            "value" : -137.291702653022,
                            "duration" : 52
                          },
                          {
                            "endTime" : 2766,
                            "time" : 2731,
                            "value" : -4.2632564145606e-14,
                            "duration" : 35
                          },
                          {
                            "endTime" : 2811,
                            "time" : 2774,
                            "value" : -54.3641977445802,
                            "duration" : 37
                          }
                        ]
                      },
                      "scale0" : {
                        "type" : "double",
                        "defaultValue" : 0.75,
                        "interp" : "eioe",
                        "keyframes" : [
                          {
                            "endTime" : 579,
                            "time" : 492,
                            "value" : 1.80226298011579,
                            "duration" : 87
                          },
                          {
                            "endTime" : 860,
                            "time" : 827,
                            "value" : 1.80226282453731,
                            "duration" : 33
                          },
                          {
                            "endTime" : 1954,
                            "time" : 1912,
                            "value" : 0.7499999433499,
                            "duration" : 42
                          },
                          {
                            "endTime" : 2234,
                            "time" : 2204,
                            "value" : 1.54076462936939,
                            "duration" : 30
                          },
                          {
                            "endTime" : 2627,
                            "time" : 2575,
                            "value" : 0.74999999178039,
                            "duration" : 52
                          },
                          {
                            "endTime" : 2679,
                            "time" : 2627,
                            "value" : 1.73715462693732,
                            "duration" : 52
                          },
                          {
                            "endTime" : 2766,
                            "time" : 2731,
                            "value" : 0.749999944690187,
                            "duration" : 35
                          },
                          {
                            "endTime" : 2811,
                            "time" : 2774,
                            "value" : 1.71287939209151,
                            "duration" : 37
                          }
                        ]
                      },
                      "scale1" : {
                        "type" : "double",
                        "defaultValue" : 0.75,
                        "interp" : "eioe",
                        "keyframes" : [
                          {
                            "endTime" : 579,
                            "time" : 492,
                            "value" : 1.80226296066848,
                            "duration" : 87
                          },
                          {
                            "endTime" : 1954,
                            "time" : 1912,
                            "value" : 0.75,
                            "duration" : 42
                          },
                          {
                            "endTime" : 2234,
                            "time" : 2204,
                            "value" : 1.54076464625537,
                            "duration" : 30
                          },
                          {
                            "endTime" : 2627,
                            "time" : 2575,
                            "value" : 0.75,
                            "duration" : 52
                          },
                          {
                            "endTime" : 2679,
                            "time" : 2627,
                            "value" : 1.73715475504626,
                            "duration" : 52
                          },
                          {
                            "endTime" : 2766,
                            "time" : 2731,
                            "value" : 0.75,
                            "duration" : 35
                          },
                          {
                            "endTime" : 2811,
                            "time" : 2774,
                            "value" : 1.71287917413656,
                            "duration" : 37
                          }
                        ]
                      },
                      "cursorScale" : {
                        "type" : "double",
                        "defaultValue" : 1.0,
                        "interp" : "linr"
                      },
                      "cursorOpacity" : {
                        "type" : "double",
                        "defaultValue" : 1.0,
                        "interp" : "linr"
                      }
                    },
                    "effects" : [

                    ],
                    "start" : 2372,
                    "duration" : 131,
                    "mediaStart" : 3764,
                    "mediaDuration" : 404,
                    "scalar" : "131/404",
                    "metadata" : {
                      "AutoAppliedSmartFocus" : "False",
                      "WinSubProjectDisplayName" : "",
                      "clipSpeedAttribute" : true,
                      "default-scale0" : 0.75,
                      "default-scale1" : 0.75,
                      "default-translation0" : 0.0,
                      "default-translation1" : 0.0
                    },
                    "animationTracks" : {
                      "visual" : [
                        {
                          "endTime" : 579,
                          "duration" : 87,
                          "range" : [ 492, 87]
                        },
                        {
                          "endTime" : 860,
                          "duration" : 33,
                          "range" : [ 827, 33]
                        },
                        {
                          "endTime" : 1954,
                          "duration" : 42,
                          "range" : [ 1912, 42]
                        },
                        {
                          "endTime" : 2234,
                          "duration" : 30,
                          "range" : [ 2204, 30]
                        },
                        {
                          "endTime" : 2627,
                          "duration" : 52,
                          "range" : [ 2575, 52]
                        },
                        {
                          "endTime" : 2679,
                          "duration" : 52,
                          "range" : [ 2627, 52]
                        },
                        {
                          "endTime" : 2766,
                          "duration" : 35,
                          "range" : [ 2731, 35]
                        },
                        {
                          "endTime" : 2811,
                          "duration" : 37,
                          "range" : [ 2774, 37]
                        }
                      ]
                    }
                  },
                  {
                    "id" : 52,
                    "_type" : "StitchedMedia",
                    "minMediaStart" : 0,
                    "attributes" : {
                      "ident" : "Rec 02-26-19_001",
                      "gain" : 1.0,
                      "mixToMono" : false
                    },
                    "parameters" : {
                      "translation0" : {
                        "type" : "double",
                        "defaultValue" : 0.0,
                        "keyframes" : [
                          {
                            "endTime" : 579,
                            "time" : 492,
                            "value" : 1057.39282650528,
                            "duration" : 87
                          },
                          {
                            "endTime" : 860,
                            "time" : 827,
                            "value" : 1057.4,
                            "duration" : 33
                          },
                          {
                            "endTime" : 1954,
                            "time" : 1912,
                            "value" : 1.70530256582424e-13,
                            "duration" : 42
                          },
                          {
                            "endTime" : 2234,
                            "time" : 2204,
                            "value" : -1012.17900275747,
                            "duration" : 30
                          },
                          {
                            "endTime" : 2627,
                            "time" : 2575,
                            "value" : 0.0,
                            "duration" : 52
                          },
                          {
                            "endTime" : 2679,
                            "time" : 2627,
                            "value" : 1039.76877788117,
                            "duration" : 52
                          },
                          {
                            "endTime" : 2766,
                            "time" : 2731,
                            "value" : 2.8421709430404e-13,
                            "duration" : 35
                          },
                          {
                            "endTime" : 2811,
                            "time" : 2774,
                            "value" : -1003.71577888564,
                            "duration" : 37
                          },
                          {
                            "endTime" : 4290,
                            "time" : 4225,
                            "value" : -2.27373675443232e-13,
                            "duration" : 65
                          },
                          {
                            "endTime" : 4335,
                            "time" : 4290,
                            "value" : 597.763679054251,
                            "duration" : 45
                          },
                          {
                            "endTime" : 4647,
                            "time" : 4599,
                            "value" : 5.6843418860808e-14,
                            "duration" : 48
                          },
                          {
                            "endTime" : 4700,
                            "time" : 4651,
                            "value" : -1036.48343446403,
                            "duration" : 49
                          },
                          {
                            "endTime" : 4857,
                            "time" : 4815,
                            "value" : 0.0,
                            "duration" : 42
                          },
                          {
                            "endTime" : 4903,
                            "time" : 4860,
                            "value" : 1918.84358161807,
                            "duration" : 43
                          },
                          {
                            "endTime" : 5011,
                            "time" : 4981,
                            "value" : -1.13686837721616e-13,
                            "duration" : 30
                          }
                        ]
                      },
                      "translation1" : {
                        "type" : "double",
                        "defaultValue" : 0.0,
                        "keyframes" : [
                          {
                            "endTime" : 579,
                            "time" : 492,
                            "value" : -757.629322802269,
                            "duration" : 87
                          },
                          {
                            "endTime" : 860,
                            "time" : 827,
                            "value" : -144.124791547621,
                            "duration" : 33
                          },
                          {
                            "endTime" : 1954,
                            "time" : 1912,
                            "value" : 5.6843418860808e-14,
                            "duration" : 42
                          },
                          {
                            "endTime" : 2234,
                            "time" : 2204,
                            "value" : -569.350537713127,
                            "duration" : 30
                          },
                          {
                            "endTime" : 2627,
                            "time" : 2575,
                            "value" : 5.6843418860808e-14,
                            "duration" : 52
                          },
                          {
                            "endTime" : 2679,
                            "time" : 2627,
                            "value" : -137.291702653022,
                            "duration" : 52
                          },
                          {
                            "endTime" : 2766,
                            "time" : 2731,
                            "value" : -4.2632564145606e-14,
                            "duration" : 35
                          },
                          {
                            "endTime" : 2811,
                            "time" : 2774,
                            "value" : -54.3641977445802,
                            "duration" : 37
                          },
                          {
                            "endTime" : 4290,
                            "time" : 4225,
                            "value" : -6.75015598972095e-14,
                            "duration" : 65
                          },
                          {
                            "endTime" : 4335,
                            "time" : 4290,
                            "value" : -240.922664584678,
                            "duration" : 45
                          },
                          {
                            "endTime" : 4647,
                            "time" : 4599,
                            "value" : -2.8421709430404e-14,
                            "duration" : 48
                          },
                          {
                            "endTime" : 4700,
                            "time" : 4651,
                            "value" : -46.4818360221144,
                            "duration" : 49
                          },
                          {
                            "endTime" : 4857,
                            "time" : 4815,
                            "value" : -8.88178419700125e-15,
                            "duration" : 42
                          },
                          {
                            "endTime" : 4903,
                            "time" : 4860,
                            "value" : 77.3345600770703,
                            "duration" : 43
                          },
                          {
                            "endTime" : 5011,
                            "time" : 4981,
                            "value" : 3.5527136788005e-15,
                            "duration" : 30
                          }
                        ]
                      },
                      "scale0" : {
                        "type" : "double",
                        "defaultValue" : 0.75,
                        "keyframes" : [
                          {
                            "endTime" : 579,
                            "time" : 492,
                            "value" : 1.80226298011579,
                            "duration" : 87
                          },
                          {
                            "endTime" : 860,
                            "time" : 827,
                            "value" : 1.80226282453731,
                            "duration" : 33
                          },
                          {
                            "endTime" : 1954,
                            "time" : 1912,
                            "value" : 0.7499999433499,
                            "duration" : 42
                          },
                          {
                            "endTime" : 2234,
                            "time" : 2204,
                            "value" : 1.54076462936939,
                            "duration" : 30
                          },
                          {
                            "endTime" : 2627,
                            "time" : 2575,
                            "value" : 0.74999999178039,
                            "duration" : 52
                          },
                          {
                            "endTime" : 2679,
                            "time" : 2627,
                            "value" : 1.73715462693732,
                            "duration" : 52
                          },
                          {
                            "endTime" : 2766,
                            "time" : 2731,
                            "value" : 0.749999944690187,
                            "duration" : 35
                          },
                          {
                            "endTime" : 2811,
                            "time" : 2774,
                            "value" : 1.71287939209151,
                            "duration" : 37
                          },
                          {
                            "endTime" : 4290,
                            "time" : 4225,
                            "value" : 0.75,
                            "duration" : 65
                          },
                          {
                            "endTime" : 4335,
                            "time" : 4290,
                            "value" : 1.3775350895248,
                            "duration" : 45
                          },
                          {
                            "endTime" : 4647,
                            "time" : 4599,
                            "value" : 0.749999939244005,
                            "duration" : 48
                          },
                          {
                            "endTime" : 4700,
                            "time" : 4651,
                            "value" : 2.33660158965582,
                            "duration" : 49
                          },
                          {
                            "endTime" : 4857,
                            "time" : 4815,
                            "value" : 0.75,
                            "duration" : 42
                          },
                          {
                            "endTime" : 4903,
                            "time" : 4860,
                            "value" : 2.57666858360665,
                            "duration" : 43
                          },
                          {
                            "endTime" : 5011,
                            "time" : 4981,
                            "value" : 0.75,
                            "duration" : 30
                          }
                        ]
                      },
                      "scale1" : {
                        "type" : "double",
                        "defaultValue" : 0.75,
                        "keyframes" : [
                          {
                            "endTime" : 579,
                            "time" : 492,
                            "value" : 1.80226296066848,
                            "duration" : 87
                          },
                          {
                            "endTime" : 1954,
                            "time" : 1912,
                            "value" : 0.75,
                            "duration" : 42
                          },
                          {
                            "endTime" : 2234,
                            "time" : 2204,
                            "value" : 1.54076464625537,
                            "duration" : 30
                          },
                          {
                            "endTime" : 2627,
                            "time" : 2575,
                            "value" : 0.75,
                            "duration" : 52
                          },
                          {
                            "endTime" : 2679,
                            "time" : 2627,
                            "value" : 1.73715475504626,
                            "duration" : 52
                          },
                          {
                            "endTime" : 2766,
                            "time" : 2731,
                            "value" : 0.75,
                            "duration" : 35
                          },
                          {
                            "endTime" : 2811,
                            "time" : 2774,
                            "value" : 1.71287917413656,
                            "duration" : 37
                          },
                          {
                            "endTime" : 4290,
                            "time" : 4225,
                            "value" : 0.74999990456642,
                            "duration" : 65
                          },
                          {
                            "endTime" : 4335,
                            "time" : 4290,
                            "value" : 1.37753520111616,
                            "duration" : 45
                          },
                          {
                            "endTime" : 4647,
                            "time" : 4599,
                            "value" : 0.75,
                            "duration" : 48
                          },
                          {
                            "endTime" : 4700,
                            "time" : 4651,
                            "value" : 2.33660025593914,
                            "duration" : 49
                          },
                          {
                            "endTime" : 4857,
                            "time" : 4815,
                            "value" : 0.749999571904976,
                            "duration" : 42
                          },
                          {
                            "endTime" : 4903,
                            "time" : 4860,
                            "value" : 2.57666765077368,
                            "duration" : 43
                          },
                          {
                            "endTime" : 5011,
                            "time" : 4981,
                            "value" : 0.749999728477023,
                            "duration" : 30
                          }
                        ]
                      },
                      "cursorOpacity" : 1.0,
                      "cursorScale" : 1.0
                    },
                    "medias" : [
                        {
                          "id" : 53,
                          "_type" : "ScreenVMFile",
                          "src" : 3,
                          "trackNumber" : 0,
                          "attributes" : {
                            "ident" : "Rec 02-26-19_001"
                          },
                          "parameters" : {
                            "cursorScale" : {
                              "type" : "double",
                              "defaultValue" : 0.0,
                              "interp" : "linr"
                            },
                            "cursorOpacity" : {
                              "type" : "double",
                              "defaultValue" : 0.0,
                              "interp" : "linr"
                            }
                          },
                          "effects" : [

                          ],
                          "start" : 0,
                          "duration" : 4815,
                          "mediaStart" : 0,
                          "mediaDuration" : 4815,
                          "scalar" : 1,
                          "metadata" : {
                            "AutoAppliedSmartFocus" : "False",
                            "WinSubProjectDisplayName" : "",
                            "clipSpeedAttribute" : false,
                            "default-scale0" : 0.75,
                            "default-scale1" : 0.75,
                            "default-translation0" : 0.0,
                            "default-translation1" : 0.0
                          },
                          "animationTracks" : {

                          }
                        },
                        {
                          "id" : 54,
                          "_type" : "ScreenIMFile",
                          "src" : 3,
                          "trackNumber" : 0,
                          "trimStartSum" : 0,
                          "attributes" : {
                            "ident" : "Rec 02-26-19_001"
                          },
                          "parameters" : {
                            "cursorOpacity" : 0.0,
                            "cursorScale" : 0.0
                          },
                          "effects" : [

                          ],
                          "start" : 4815,
                          "duration" : 30,
                          "mediaStart" : 4814,
                          "mediaDuration" : 1,
                          "scalar" : 1,
                          "metadata" : {
                            "AutoAppliedSmartFocus" : "False",
                            "WinSubProjectDisplayName" : ""
                          },
                          "animationTracks" : {

                          }
                        },
                        {
                          "id" : 55,
                          "_type" : "ScreenVMFile",
                          "src" : 3,
                          "trackNumber" : 0,
                          "attributes" : {
                            "ident" : "Rec 02-26-19_001"
                          },
                          "parameters" : {
                            "cursorScale" : {
                              "type" : "double",
                              "defaultValue" : 0.0,
                              "interp" : "linr"
                            },
                            "cursorOpacity" : {
                              "type" : "double",
                              "defaultValue" : 0.0,
                              "interp" : "linr"
                            }
                          },
                          "effects" : [

                          ],
                          "start" : 4845,
                          "duration" : 1071,
                          "mediaStart" : 4815,
                          "mediaDuration" : 1071,
                          "scalar" : 1,
                          "metadata" : {
                            "AutoAppliedSmartFocus" : "False",
                            "WinSubProjectDisplayName" : "",
                            "clipSpeedAttribute" : false,
                            "default-scale0" : 0.75,
                            "default-scale1" : 0.75,
                            "default-translation0" : 0.0,
                            "default-translation1" : 0.0
                          },
                          "animationTracks" : {

                          }
                        }
                    ],
                    "effects" : [
                        {
                          "effectName" : "CursorHilight",
                          "category" : "categoryCursorEffects",
                          "parameters" : {
                            "blur" : 0.1,
                            "color-alpha" : 0.75,
                            "color-blue" : 0.0,
                            "color-green" : 1.0,
                            "color-red" : 1.0,
                            "radius" : 50.0
                          }
                        }
                    ],
                    "start" : 2503,
                    "duration" : 842,
                    "mediaStart" : 4168,
                    "mediaDuration" : 842,
                    "scalar" : 1,
                    "metadata" : {
                      "AutoAppliedSmartFocus" : "False",
                      "WinSubProjectDisplayName" : "",
                      "clipSpeedAttribute" : false,
                      "default-scale0" : 2.57666858360665,
                      "default-scale1" : 2.57666765077368,
                      "default-translation0" : 1918.84358161807,
                      "default-translation1" : 77.3345600770703
                    },
                    "animationTracks" : {
                      "visual" : [
                        {
                          "endTime" : 579,
                          "duration" : 87,
                          "range" : [ 492, 87]
                        },
                        {
                          "endTime" : 860,
                          "duration" : 33,
                          "range" : [ 827, 33]
                        },
                        {
                          "endTime" : 1954,
                          "duration" : 42,
                          "range" : [ 1912, 42]
                        },
                        {
                          "endTime" : 2234,
                          "duration" : 30,
                          "range" : [ 2204, 30]
                        },
                        {
                          "endTime" : 2627,
                          "duration" : 52,
                          "range" : [ 2575, 52]
                        },
                        {
                          "endTime" : 2679,
                          "duration" : 52,
                          "range" : [ 2627, 52]
                        },
                        {
                          "endTime" : 2766,
                          "duration" : 35,
                          "range" : [ 2731, 35]
                        },
                        {
                          "endTime" : 2811,
                          "duration" : 37,
                          "range" : [ 2774, 37]
                        },
                        {
                          "endTime" : 4290,
                          "duration" : 65,
                          "range" : [ 4225, 65]
                        },
                        {
                          "endTime" : 4335,
                          "duration" : 45,
                          "range" : [ 4290, 45]
                        },
                        {
                          "endTime" : 4647,
                          "duration" : 48,
                          "range" : [ 4599, 48]
                        },
                        {
                          "endTime" : 4700,
                          "duration" : 49,
                          "range" : [ 4651, 49]
                        },
                        {
                          "endTime" : 4857,
                          "duration" : 42,
                          "range" : [ 4815, 42]
                        },
                        {
                          "endTime" : 4903,
                          "duration" : 43,
                          "range" : [ 4860, 43]
                        },
                        {
                          "endTime" : 5011,
                          "duration" : 30,
                          "range" : [ 4981, 30]
                        }
                      ]
                    }
                  },
                  {
                    "id" : 56,
                    "_type" : "StitchedMedia",
                    "minMediaStart" : 0,
                    "attributes" : {
                      "ident" : "Rec 02-26-19_001",
                      "gain" : 1.0,
                      "mixToMono" : false
                    },
                    "parameters" : {
                      "translation0" : {
                        "type" : "double",
                        "defaultValue" : 0.0,
                        "keyframes" : [
                          {
                            "endTime" : 579,
                            "time" : 492,
                            "value" : 1057.39282650528,
                            "duration" : 87
                          },
                          {
                            "endTime" : 860,
                            "time" : 827,
                            "value" : 1057.4,
                            "duration" : 33
                          },
                          {
                            "endTime" : 1954,
                            "time" : 1912,
                            "value" : 1.70530256582424e-13,
                            "duration" : 42
                          },
                          {
                            "endTime" : 2234,
                            "time" : 2204,
                            "value" : -1012.17900275747,
                            "duration" : 30
                          },
                          {
                            "endTime" : 2627,
                            "time" : 2575,
                            "value" : 0.0,
                            "duration" : 52
                          },
                          {
                            "endTime" : 2679,
                            "time" : 2627,
                            "value" : 1039.76877788117,
                            "duration" : 52
                          },
                          {
                            "endTime" : 2766,
                            "time" : 2731,
                            "value" : 2.8421709430404e-13,
                            "duration" : 35
                          },
                          {
                            "endTime" : 2811,
                            "time" : 2774,
                            "value" : -1003.71577888564,
                            "duration" : 37
                          },
                          {
                            "endTime" : 4290,
                            "time" : 4241,
                            "value" : -2.27373675443232e-13,
                            "duration" : 49
                          },
                          {
                            "endTime" : 4335,
                            "time" : 4290,
                            "value" : 597.763679054251,
                            "duration" : 45
                          },
                          {
                            "endTime" : 4614,
                            "time" : 4569,
                            "value" : 5.6843418860808e-14,
                            "duration" : 45
                          },
                          {
                            "endTime" : 4684,
                            "time" : 4639,
                            "value" : -1036.48343446403,
                            "duration" : 45
                          },
                          {
                            "endTime" : 4857,
                            "time" : 4815,
                            "value" : 0.0,
                            "duration" : 42
                          },
                          {
                            "endTime" : 4903,
                            "time" : 4860,
                            "value" : 1918.84358161807,
                            "duration" : 43
                          },
                          {
                            "endTime" : 5011,
                            "time" : 4981,
                            "value" : -1.13686837721616e-13,
                            "duration" : 30
                          }
                        ]
                      },
                      "translation1" : {
                        "type" : "double",
                        "defaultValue" : 0.0,
                        "keyframes" : [
                          {
                            "endTime" : 579,
                            "time" : 492,
                            "value" : -757.629322802269,
                            "duration" : 87
                          },
                          {
                            "endTime" : 860,
                            "time" : 827,
                            "value" : -144.124791547621,
                            "duration" : 33
                          },
                          {
                            "endTime" : 1954,
                            "time" : 1912,
                            "value" : 5.6843418860808e-14,
                            "duration" : 42
                          },
                          {
                            "endTime" : 2234,
                            "time" : 2204,
                            "value" : -569.350537713127,
                            "duration" : 30
                          },
                          {
                            "endTime" : 2627,
                            "time" : 2575,
                            "value" : 5.6843418860808e-14,
                            "duration" : 52
                          },
                          {
                            "endTime" : 2679,
                            "time" : 2627,
                            "value" : -137.291702653022,
                            "duration" : 52
                          },
                          {
                            "endTime" : 2766,
                            "time" : 2731,
                            "value" : -4.2632564145606e-14,
                            "duration" : 35
                          },
                          {
                            "endTime" : 2811,
                            "time" : 2774,
                            "value" : -54.3641977445802,
                            "duration" : 37
                          },
                          {
                            "endTime" : 4290,
                            "time" : 4241,
                            "value" : -6.75015598972095e-14,
                            "duration" : 49
                          },
                          {
                            "endTime" : 4335,
                            "time" : 4290,
                            "value" : -240.922664584678,
                            "duration" : 45
                          },
                          {
                            "endTime" : 4614,
                            "time" : 4569,
                            "value" : -2.8421709430404e-14,
                            "duration" : 45
                          },
                          {
                            "endTime" : 4684,
                            "time" : 4639,
                            "value" : -46.4818360221144,
                            "duration" : 45
                          },
                          {
                            "endTime" : 4857,
                            "time" : 4815,
                            "value" : -8.88178419700125e-15,
                            "duration" : 42
                          },
                          {
                            "endTime" : 4903,
                            "time" : 4860,
                            "value" : 77.3345600770703,
                            "duration" : 43
                          },
                          {
                            "endTime" : 5011,
                            "time" : 4981,
                            "value" : 3.5527136788005e-15,
                            "duration" : 30
                          }
                        ]
                      },
                      "scale0" : {
                        "type" : "double",
                        "defaultValue" : 0.75,
                        "keyframes" : [
                          {
                            "endTime" : 579,
                            "time" : 492,
                            "value" : 1.80226298011579,
                            "duration" : 87
                          },
                          {
                            "endTime" : 860,
                            "time" : 827,
                            "value" : 1.80226282453731,
                            "duration" : 33
                          },
                          {
                            "endTime" : 1954,
                            "time" : 1912,
                            "value" : 0.7499999433499,
                            "duration" : 42
                          },
                          {
                            "endTime" : 2234,
                            "time" : 2204,
                            "value" : 1.54076462936939,
                            "duration" : 30
                          },
                          {
                            "endTime" : 2627,
                            "time" : 2575,
                            "value" : 0.74999999178039,
                            "duration" : 52
                          },
                          {
                            "endTime" : 2679,
                            "time" : 2627,
                            "value" : 1.73715462693732,
                            "duration" : 52
                          },
                          {
                            "endTime" : 2766,
                            "time" : 2731,
                            "value" : 0.749999944690187,
                            "duration" : 35
                          },
                          {
                            "endTime" : 2811,
                            "time" : 2774,
                            "value" : 1.71287939209151,
                            "duration" : 37
                          },
                          {
                            "endTime" : 4290,
                            "time" : 4241,
                            "value" : 0.75,
                            "duration" : 49
                          },
                          {
                            "endTime" : 4335,
                            "time" : 4290,
                            "value" : 1.3775350895248,
                            "duration" : 45
                          },
                          {
                            "endTime" : 4614,
                            "time" : 4569,
                            "value" : 0.749999939244005,
                            "duration" : 45
                          },
                          {
                            "endTime" : 4684,
                            "time" : 4639,
                            "value" : 2.33660158965582,
                            "duration" : 45
                          },
                          {
                            "endTime" : 4857,
                            "time" : 4815,
                            "value" : 0.75,
                            "duration" : 42
                          },
                          {
                            "endTime" : 4903,
                            "time" : 4860,
                            "value" : 2.57666858360665,
                            "duration" : 43
                          },
                          {
                            "endTime" : 5011,
                            "time" : 4981,
                            "value" : 0.75,
                            "duration" : 30
                          }
                        ]
                      },
                      "scale1" : {
                        "type" : "double",
                        "defaultValue" : 0.75,
                        "keyframes" : [
                          {
                            "endTime" : 579,
                            "time" : 492,
                            "value" : 1.80226296066848,
                            "duration" : 87
                          },
                          {
                            "endTime" : 1954,
                            "time" : 1912,
                            "value" : 0.75,
                            "duration" : 42
                          },
                          {
                            "endTime" : 2234,
                            "time" : 2204,
                            "value" : 1.54076464625537,
                            "duration" : 30
                          },
                          {
                            "endTime" : 2627,
                            "time" : 2575,
                            "value" : 0.75,
                            "duration" : 52
                          },
                          {
                            "endTime" : 2679,
                            "time" : 2627,
                            "value" : 1.73715475504626,
                            "duration" : 52
                          },
                          {
                            "endTime" : 2766,
                            "time" : 2731,
                            "value" : 0.75,
                            "duration" : 35
                          },
                          {
                            "endTime" : 2811,
                            "time" : 2774,
                            "value" : 1.71287917413656,
                            "duration" : 37
                          },
                          {
                            "endTime" : 4290,
                            "time" : 4241,
                            "value" : 0.74999990456642,
                            "duration" : 49
                          },
                          {
                            "endTime" : 4335,
                            "time" : 4290,
                            "value" : 1.37753520111616,
                            "duration" : 45
                          },
                          {
                            "endTime" : 4614,
                            "time" : 4569,
                            "value" : 0.75,
                            "duration" : 45
                          },
                          {
                            "endTime" : 4684,
                            "time" : 4639,
                            "value" : 2.33660025593914,
                            "duration" : 45
                          },
                          {
                            "endTime" : 4857,
                            "time" : 4815,
                            "value" : 0.749999571904976,
                            "duration" : 42
                          },
                          {
                            "endTime" : 4903,
                            "time" : 4860,
                            "value" : 2.57666765077368,
                            "duration" : 43
                          },
                          {
                            "endTime" : 5011,
                            "time" : 4981,
                            "value" : 0.749999728477023,
                            "duration" : 30
                          }
                        ]
                      },
                      "cursorOpacity" : 1.0,
                      "cursorScale" : 1.0
                    },
                    "medias" : [
                        {
                          "id" : 57,
                          "_type" : "ScreenVMFile",
                          "src" : 3,
                          "trackNumber" : 0,
                          "attributes" : {
                            "ident" : "Rec 02-26-19_001"
                          },
                          "parameters" : {
                            "cursorScale" : {
                              "type" : "double",
                              "defaultValue" : 0.0,
                              "interp" : "linr"
                            },
                            "cursorOpacity" : {
                              "type" : "double",
                              "defaultValue" : 0.0,
                              "interp" : "linr"
                            }
                          },
                          "effects" : [

                          ],
                          "start" : 0,
                          "duration" : 4815,
                          "mediaStart" : 0,
                          "mediaDuration" : 4815,
                          "scalar" : 1,
                          "metadata" : {
                            "AutoAppliedSmartFocus" : "False",
                            "WinSubProjectDisplayName" : "",
                            "clipSpeedAttribute" : false,
                            "default-scale0" : 0.75,
                            "default-scale1" : 0.75,
                            "default-translation0" : 0.0,
                            "default-translation1" : 0.0
                          },
                          "animationTracks" : {

                          }
                        },
                        {
                          "id" : 58,
                          "_type" : "ScreenIMFile",
                          "src" : 3,
                          "trackNumber" : 0,
                          "trimStartSum" : 0,
                          "attributes" : {
                            "ident" : "Rec 02-26-19_001"
                          },
                          "parameters" : {
                            "cursorOpacity" : 0.0,
                            "cursorScale" : 0.0
                          },
                          "effects" : [

                          ],
                          "start" : 4815,
                          "duration" : 30,
                          "mediaStart" : 4814,
                          "mediaDuration" : 1,
                          "scalar" : 1,
                          "metadata" : {
                            "AutoAppliedSmartFocus" : "False",
                            "WinSubProjectDisplayName" : ""
                          },
                          "animationTracks" : {

                          }
                        },
                        {
                          "id" : 59,
                          "_type" : "ScreenVMFile",
                          "src" : 3,
                          "trackNumber" : 0,
                          "attributes" : {
                            "ident" : "Rec 02-26-19_001"
                          },
                          "parameters" : {
                            "cursorScale" : {
                              "type" : "double",
                              "defaultValue" : 0.0,
                              "interp" : "linr"
                            },
                            "cursorOpacity" : {
                              "type" : "double",
                              "defaultValue" : 0.0,
                              "interp" : "linr"
                            }
                          },
                          "effects" : [

                          ],
                          "start" : 4845,
                          "duration" : 1071,
                          "mediaStart" : 4815,
                          "mediaDuration" : 1071,
                          "scalar" : 1,
                          "metadata" : {
                            "AutoAppliedSmartFocus" : "False",
                            "WinSubProjectDisplayName" : "",
                            "clipSpeedAttribute" : false,
                            "default-scale0" : 0.75,
                            "default-scale1" : 0.75,
                            "default-translation0" : 0.0,
                            "default-translation1" : 0.0
                          },
                          "animationTracks" : {

                          }
                        }
                    ],
                    "effects" : [
                        {
                          "effectName" : "CursorHilight",
                          "category" : "categoryCursorEffects",
                          "parameters" : {
                            "blur" : 0.1,
                            "color-alpha" : 0.75,
                            "color-blue" : 0.0,
                            "color-green" : 1.0,
                            "color-red" : 1.0,
                            "radius" : 50.0
                          }
                        }
                    ],
                    "start" : 3345,
                    "duration" : 135,
                    "mediaStart" : 5010,
                    "mediaDuration" : 369,
                    "scalar" : "15/41",
                    "metadata" : {
                      "AutoAppliedSmartFocus" : "False",
                      "WinSubProjectDisplayName" : "",
                      "clipSpeedAttribute" : true,
                      "default-scale0" : 2.57666858360665,
                      "default-scale1" : 2.57666765077368,
                      "default-translation0" : 1918.84358161807,
                      "default-translation1" : 77.3345600770703
                    },
                    "animationTracks" : {
                      "visual" : [
                        {
                          "endTime" : 579,
                          "duration" : 87,
                          "range" : [ 492, 87]
                        },
                        {
                          "endTime" : 860,
                          "duration" : 33,
                          "range" : [ 827, 33]
                        },
                        {
                          "endTime" : 1954,
                          "duration" : 42,
                          "range" : [ 1912, 42]
                        },
                        {
                          "endTime" : 2234,
                          "duration" : 30,
                          "range" : [ 2204, 30]
                        },
                        {
                          "endTime" : 2627,
                          "duration" : 52,
                          "range" : [ 2575, 52]
                        },
                        {
                          "endTime" : 2679,
                          "duration" : 52,
                          "range" : [ 2627, 52]
                        },
                        {
                          "endTime" : 2766,
                          "duration" : 35,
                          "range" : [ 2731, 35]
                        },
                        {
                          "endTime" : 2811,
                          "duration" : 37,
                          "range" : [ 2774, 37]
                        },
                        {
                          "endTime" : 4290,
                          "duration" : 49,
                          "range" : [ 4241, 49]
                        },
                        {
                          "endTime" : 4335,
                          "duration" : 45,
                          "range" : [ 4290, 45]
                        },
                        {
                          "endTime" : 4614,
                          "duration" : 45,
                          "range" : [ 4569, 45]
                        },
                        {
                          "endTime" : 4684,
                          "duration" : 45,
                          "range" : [ 4639, 45]
                        },
                        {
                          "endTime" : 4857,
                          "duration" : 42,
                          "range" : [ 4815, 42]
                        },
                        {
                          "endTime" : 4903,
                          "duration" : 43,
                          "range" : [ 4860, 43]
                        },
                        {
                          "endTime" : 5011,
                          "duration" : 30,
                          "range" : [ 4981, 30]
                        }
                      ]
                    }
                  },
                  {
                    "id" : 60,
                    "_type" : "StitchedMedia",
                    "minMediaStart" : 0,
                    "attributes" : {
                      "ident" : "Rec 02-26-19_001",
                      "gain" : 1.0,
                      "mixToMono" : false
                    },
                    "parameters" : {
                      "translation0" : {
                        "type" : "double",
                        "defaultValue" : 0.0,
                        "keyframes" : [
                          {
                            "endTime" : 579,
                            "time" : 492,
                            "value" : 1057.39282650528,
                            "duration" : 87
                          },
                          {
                            "endTime" : 860,
                            "time" : 827,
                            "value" : 1057.4,
                            "duration" : 33
                          },
                          {
                            "endTime" : 1954,
                            "time" : 1912,
                            "value" : 1.70530256582424e-13,
                            "duration" : 42
                          },
                          {
                            "endTime" : 2234,
                            "time" : 2204,
                            "value" : -1012.17900275747,
                            "duration" : 30
                          },
                          {
                            "endTime" : 2627,
                            "time" : 2575,
                            "value" : 0.0,
                            "duration" : 52
                          },
                          {
                            "endTime" : 2679,
                            "time" : 2627,
                            "value" : 1039.76877788117,
                            "duration" : 52
                          },
                          {
                            "endTime" : 2766,
                            "time" : 2731,
                            "value" : 2.8421709430404e-13,
                            "duration" : 35
                          },
                          {
                            "endTime" : 2811,
                            "time" : 2774,
                            "value" : -1003.71577888564,
                            "duration" : 37
                          },
                          {
                            "endTime" : 4290,
                            "time" : 4241,
                            "value" : -2.27373675443232e-13,
                            "duration" : 49
                          },
                          {
                            "endTime" : 4335,
                            "time" : 4290,
                            "value" : 597.763679054251,
                            "duration" : 45
                          },
                          {
                            "endTime" : 4614,
                            "time" : 4569,
                            "value" : 5.6843418860808e-14,
                            "duration" : 45
                          },
                          {
                            "endTime" : 4684,
                            "time" : 4639,
                            "value" : -1036.48343446403,
                            "duration" : 45
                          },
                          {
                            "endTime" : 4857,
                            "time" : 4815,
                            "value" : 0.0,
                            "duration" : 42
                          },
                          {
                            "endTime" : 4903,
                            "time" : 4860,
                            "value" : 1918.84358161807,
                            "duration" : 43
                          },
                          {
                            "endTime" : 5011,
                            "time" : 4981,
                            "value" : -1.13686837721616e-13,
                            "duration" : 30
                          },
                          {
                            "endTime" : 5530,
                            "time" : 5479,
                            "value" : 2525.56712327257,
                            "duration" : 51
                          }
                        ]
                      },
                      "translation1" : {
                        "type" : "double",
                        "defaultValue" : 0.0,
                        "keyframes" : [
                          {
                            "endTime" : 579,
                            "time" : 492,
                            "value" : -757.629322802269,
                            "duration" : 87
                          },
                          {
                            "endTime" : 860,
                            "time" : 827,
                            "value" : -144.124791547621,
                            "duration" : 33
                          },
                          {
                            "endTime" : 1954,
                            "time" : 1912,
                            "value" : 5.6843418860808e-14,
                            "duration" : 42
                          },
                          {
                            "endTime" : 2234,
                            "time" : 2204,
                            "value" : -569.350537713127,
                            "duration" : 30
                          },
                          {
                            "endTime" : 2627,
                            "time" : 2575,
                            "value" : 5.6843418860808e-14,
                            "duration" : 52
                          },
                          {
                            "endTime" : 2679,
                            "time" : 2627,
                            "value" : -137.291702653022,
                            "duration" : 52
                          },
                          {
                            "endTime" : 2766,
                            "time" : 2731,
                            "value" : -4.2632564145606e-14,
                            "duration" : 35
                          },
                          {
                            "endTime" : 2811,
                            "time" : 2774,
                            "value" : -54.3641977445802,
                            "duration" : 37
                          },
                          {
                            "endTime" : 4290,
                            "time" : 4241,
                            "value" : -6.75015598972095e-14,
                            "duration" : 49
                          },
                          {
                            "endTime" : 4335,
                            "time" : 4290,
                            "value" : -240.922664584678,
                            "duration" : 45
                          },
                          {
                            "endTime" : 4614,
                            "time" : 4569,
                            "value" : -2.8421709430404e-14,
                            "duration" : 45
                          },
                          {
                            "endTime" : 4684,
                            "time" : 4639,
                            "value" : -46.4818360221144,
                            "duration" : 45
                          },
                          {
                            "endTime" : 4857,
                            "time" : 4815,
                            "value" : -8.88178419700125e-15,
                            "duration" : 42
                          },
                          {
                            "endTime" : 4903,
                            "time" : 4860,
                            "value" : 77.3345600770703,
                            "duration" : 43
                          },
                          {
                            "endTime" : 5011,
                            "time" : 4981,
                            "value" : 3.5527136788005e-15,
                            "duration" : 30
                          },
                          {
                            "endTime" : 5530,
                            "time" : 5479,
                            "value" : -1188.94094649289,
                            "duration" : 51
                          }
                        ]
                      },
                      "scale0" : {
                        "type" : "double",
                        "defaultValue" : 0.75,
                        "keyframes" : [
                          {
                            "endTime" : 579,
                            "time" : 492,
                            "value" : 1.80226298011579,
                            "duration" : 87
                          },
                          {
                            "endTime" : 860,
                            "time" : 827,
                            "value" : 1.80226282453731,
                            "duration" : 33
                          },
                          {
                            "endTime" : 1954,
                            "time" : 1912,
                            "value" : 0.7499999433499,
                            "duration" : 42
                          },
                          {
                            "endTime" : 2234,
                            "time" : 2204,
                            "value" : 1.54076462936939,
                            "duration" : 30
                          },
                          {
                            "endTime" : 2627,
                            "time" : 2575,
                            "value" : 0.74999999178039,
                            "duration" : 52
                          },
                          {
                            "endTime" : 2679,
                            "time" : 2627,
                            "value" : 1.73715462693732,
                            "duration" : 52
                          },
                          {
                            "endTime" : 2766,
                            "time" : 2731,
                            "value" : 0.749999944690187,
                            "duration" : 35
                          },
                          {
                            "endTime" : 2811,
                            "time" : 2774,
                            "value" : 1.71287939209151,
                            "duration" : 37
                          },
                          {
                            "endTime" : 4290,
                            "time" : 4241,
                            "value" : 0.75,
                            "duration" : 49
                          },
                          {
                            "endTime" : 4335,
                            "time" : 4290,
                            "value" : 1.3775350895248,
                            "duration" : 45
                          },
                          {
                            "endTime" : 4614,
                            "time" : 4569,
                            "value" : 0.749999939244005,
                            "duration" : 45
                          },
                          {
                            "endTime" : 4684,
                            "time" : 4639,
                            "value" : 2.33660158965582,
                            "duration" : 45
                          },
                          {
                            "endTime" : 4857,
                            "time" : 4815,
                            "value" : 0.75,
                            "duration" : 42
                          },
                          {
                            "endTime" : 4903,
                            "time" : 4860,
                            "value" : 2.57666858360665,
                            "duration" : 43
                          },
                          {
                            "endTime" : 5011,
                            "time" : 4981,
                            "value" : 0.75,
                            "duration" : 30
                          },
                          {
                            "endTime" : 5530,
                            "time" : 5479,
                            "value" : 3.19732066546147,
                            "duration" : 51
                          }
                        ]
                      },
                      "scale1" : {
                        "type" : "double",
                        "defaultValue" : 0.75,
                        "keyframes" : [
                          {
                            "endTime" : 579,
                            "time" : 492,
                            "value" : 1.80226296066848,
                            "duration" : 87
                          },
                          {
                            "endTime" : 1954,
                            "time" : 1912,
                            "value" : 0.75,
                            "duration" : 42
                          },
                          {
                            "endTime" : 2234,
                            "time" : 2204,
                            "value" : 1.54076464625537,
                            "duration" : 30
                          },
                          {
                            "endTime" : 2627,
                            "time" : 2575,
                            "value" : 0.75,
                            "duration" : 52
                          },
                          {
                            "endTime" : 2679,
                            "time" : 2627,
                            "value" : 1.73715475504626,
                            "duration" : 52
                          },
                          {
                            "endTime" : 2766,
                            "time" : 2731,
                            "value" : 0.75,
                            "duration" : 35
                          },
                          {
                            "endTime" : 2811,
                            "time" : 2774,
                            "value" : 1.71287917413656,
                            "duration" : 37
                          },
                          {
                            "endTime" : 4290,
                            "time" : 4241,
                            "value" : 0.74999990456642,
                            "duration" : 49
                          },
                          {
                            "endTime" : 4335,
                            "time" : 4290,
                            "value" : 1.37753520111616,
                            "duration" : 45
                          },
                          {
                            "endTime" : 4614,
                            "time" : 4569,
                            "value" : 0.75,
                            "duration" : 45
                          },
                          {
                            "endTime" : 4684,
                            "time" : 4639,
                            "value" : 2.33660025593914,
                            "duration" : 45
                          },
                          {
                            "endTime" : 4857,
                            "time" : 4815,
                            "value" : 0.749999571904976,
                            "duration" : 42
                          },
                          {
                            "endTime" : 4903,
                            "time" : 4860,
                            "value" : 2.57666765077368,
                            "duration" : 43
                          },
                          {
                            "endTime" : 5011,
                            "time" : 4981,
                            "value" : 0.749999728477023,
                            "duration" : 30
                          },
                          {
                            "endTime" : 5530,
                            "time" : 5479,
                            "value" : 3.19732032884483,
                            "duration" : 51
                          }
                        ]
                      },
                      "cursorOpacity" : 1.0,
                      "cursorScale" : 1.0
                    },
                    "medias" : [
                        {
                          "id" : 61,
                          "_type" : "ScreenVMFile",
                          "src" : 3,
                          "trackNumber" : 0,
                          "attributes" : {
                            "ident" : "Rec 02-26-19_001"
                          },
                          "parameters" : {
                            "cursorScale" : {
                              "type" : "double",
                              "defaultValue" : 0.0,
                              "interp" : "linr"
                            },
                            "cursorOpacity" : {
                              "type" : "double",
                              "defaultValue" : 0.0,
                              "interp" : "linr"
                            }
                          },
                          "effects" : [

                          ],
                          "start" : 0,
                          "duration" : 4815,
                          "mediaStart" : 0,
                          "mediaDuration" : 4815,
                          "scalar" : 1,
                          "metadata" : {
                            "AutoAppliedSmartFocus" : "False",
                            "WinSubProjectDisplayName" : "",
                            "clipSpeedAttribute" : false,
                            "default-scale0" : 0.75,
                            "default-scale1" : 0.75,
                            "default-translation0" : 0.0,
                            "default-translation1" : 0.0
                          },
                          "animationTracks" : {

                          }
                        },
                        {
                          "id" : 62,
                          "_type" : "ScreenIMFile",
                          "src" : 3,
                          "trackNumber" : 0,
                          "trimStartSum" : 0,
                          "attributes" : {
                            "ident" : "Rec 02-26-19_001"
                          },
                          "parameters" : {
                            "cursorOpacity" : 0.0,
                            "cursorScale" : 0.0
                          },
                          "effects" : [

                          ],
                          "start" : 4815,
                          "duration" : 30,
                          "mediaStart" : 4814,
                          "mediaDuration" : 1,
                          "scalar" : 1,
                          "metadata" : {
                            "AutoAppliedSmartFocus" : "False",
                            "WinSubProjectDisplayName" : ""
                          },
                          "animationTracks" : {

                          }
                        },
                        {
                          "id" : 63,
                          "_type" : "ScreenVMFile",
                          "src" : 3,
                          "trackNumber" : 0,
                          "attributes" : {
                            "ident" : "Rec 02-26-19_001"
                          },
                          "parameters" : {
                            "cursorScale" : {
                              "type" : "double",
                              "defaultValue" : 0.0,
                              "interp" : "linr"
                            },
                            "cursorOpacity" : {
                              "type" : "double",
                              "defaultValue" : 0.0,
                              "interp" : "linr"
                            }
                          },
                          "effects" : [

                          ],
                          "start" : 4845,
                          "duration" : 1071,
                          "mediaStart" : 4815,
                          "mediaDuration" : 1071,
                          "scalar" : 1,
                          "metadata" : {
                            "AutoAppliedSmartFocus" : "False",
                            "WinSubProjectDisplayName" : "",
                            "clipSpeedAttribute" : false,
                            "default-scale0" : 0.75,
                            "default-scale1" : 0.75,
                            "default-translation0" : 0.0,
                            "default-translation1" : 0.0
                          },
                          "animationTracks" : {

                          }
                        }
                    ],
                    "effects" : [
                        {
                          "effectName" : "CursorHilight",
                          "category" : "categoryCursorEffects",
                          "parameters" : {
                            "blur" : 0.1,
                            "color-alpha" : 0.75,
                            "color-blue" : 0.0,
                            "color-green" : 1.0,
                            "color-red" : 1.0,
                            "radius" : 50.0
                          }
                        }
                    ],
                    "start" : 3480,
                    "duration" : 153,
                    "mediaStart" : 5379,
                    "mediaDuration" : 153,
                    "scalar" : 1,
                    "metadata" : {
                      "AutoAppliedSmartFocus" : "False",
                      "WinSubProjectDisplayName" : "",
                      "clipSpeedAttribute" : false,
                      "default-scale0" : 2.57666858360665,
                      "default-scale1" : 2.57666765077368,
                      "default-translation0" : 1918.84358161807,
                      "default-translation1" : 77.3345600770703
                    },
                    "animationTracks" : {
                      "visual" : [
                        {
                          "endTime" : 579,
                          "duration" : 87,
                          "range" : [ 492, 87]
                        },
                        {
                          "endTime" : 860,
                          "duration" : 33,
                          "range" : [ 827, 33]
                        },
                        {
                          "endTime" : 1954,
                          "duration" : 42,
                          "range" : [ 1912, 42]
                        },
                        {
                          "endTime" : 2234,
                          "duration" : 30,
                          "range" : [ 2204, 30]
                        },
                        {
                          "endTime" : 2627,
                          "duration" : 52,
                          "range" : [ 2575, 52]
                        },
                        {
                          "endTime" : 2679,
                          "duration" : 52,
                          "range" : [ 2627, 52]
                        },
                        {
                          "endTime" : 2766,
                          "duration" : 35,
                          "range" : [ 2731, 35]
                        },
                        {
                          "endTime" : 2811,
                          "duration" : 37,
                          "range" : [ 2774, 37]
                        },
                        {
                          "endTime" : 4290,
                          "duration" : 49,
                          "range" : [ 4241, 49]
                        },
                        {
                          "endTime" : 4335,
                          "duration" : 45,
                          "range" : [ 4290, 45]
                        },
                        {
                          "endTime" : 4614,
                          "duration" : 45,
                          "range" : [ 4569, 45]
                        },
                        {
                          "endTime" : 4684,
                          "duration" : 45,
                          "range" : [ 4639, 45]
                        },
                        {
                          "endTime" : 4857,
                          "duration" : 42,
                          "range" : [ 4815, 42]
                        },
                        {
                          "endTime" : 4903,
                          "duration" : 43,
                          "range" : [ 4860, 43]
                        },
                        {
                          "endTime" : 5011,
                          "duration" : 30,
                          "range" : [ 4981, 30]
                        },
                        {
                          "endTime" : 5530,
                          "duration" : 51,
                          "range" : [ 5479, 51]
                        }
                      ]
                    }
                  },
                  {
                    "id" : 64,
                    "_type" : "StitchedMedia",
                    "minMediaStart" : 0,
                    "attributes" : {
                      "ident" : "Rec 02-26-19_001",
                      "gain" : 1.0,
                      "mixToMono" : false
                    },
                    "parameters" : {
                      "translation0" : {
                        "type" : "double",
                        "defaultValue" : 0.0,
                        "keyframes" : [
                          {
                            "endTime" : 579,
                            "time" : 492,
                            "value" : 1057.39282650528,
                            "duration" : 87
                          },
                          {
                            "endTime" : 860,
                            "time" : 827,
                            "value" : 1057.4,
                            "duration" : 33
                          },
                          {
                            "endTime" : 1954,
                            "time" : 1912,
                            "value" : 1.70530256582424e-13,
                            "duration" : 42
                          },
                          {
                            "endTime" : 2234,
                            "time" : 2204,
                            "value" : -1012.17900275747,
                            "duration" : 30
                          },
                          {
                            "endTime" : 2627,
                            "time" : 2575,
                            "value" : 0.0,
                            "duration" : 52
                          },
                          {
                            "endTime" : 2679,
                            "time" : 2627,
                            "value" : 1039.76877788117,
                            "duration" : 52
                          },
                          {
                            "endTime" : 2766,
                            "time" : 2731,
                            "value" : 2.8421709430404e-13,
                            "duration" : 35
                          },
                          {
                            "endTime" : 2811,
                            "time" : 2774,
                            "value" : -1003.71577888564,
                            "duration" : 37
                          },
                          {
                            "endTime" : 4290,
                            "time" : 4241,
                            "value" : -2.27373675443232e-13,
                            "duration" : 49
                          },
                          {
                            "endTime" : 4335,
                            "time" : 4290,
                            "value" : 597.763679054251,
                            "duration" : 45
                          },
                          {
                            "endTime" : 4614,
                            "time" : 4569,
                            "value" : 5.6843418860808e-14,
                            "duration" : 45
                          },
                          {
                            "endTime" : 4684,
                            "time" : 4639,
                            "value" : -1036.48343446403,
                            "duration" : 45
                          },
                          {
                            "endTime" : 4857,
                            "time" : 4815,
                            "value" : 0.0,
                            "duration" : 42
                          },
                          {
                            "endTime" : 4903,
                            "time" : 4860,
                            "value" : 1918.84358161807,
                            "duration" : 43
                          },
                          {
                            "endTime" : 5011,
                            "time" : 4981,
                            "value" : -1.13686837721616e-13,
                            "duration" : 30
                          },
                          {
                            "endTime" : 5530,
                            "time" : 5479,
                            "value" : 2525.56712327257,
                            "duration" : 51
                          },
                          {
                            "endTime" : 5696,
                            "time" : 5666,
                            "value" : 3.41060513164848e-13,
                            "duration" : 30
                          }
                        ]
                      },
                      "translation1" : {
                        "type" : "double",
                        "defaultValue" : 0.0,
                        "keyframes" : [
                          {
                            "endTime" : 579,
                            "time" : 492,
                            "value" : -757.629322802269,
                            "duration" : 87
                          },
                          {
                            "endTime" : 860,
                            "time" : 827,
                            "value" : -144.124791547621,
                            "duration" : 33
                          },
                          {
                            "endTime" : 1954,
                            "time" : 1912,
                            "value" : 5.6843418860808e-14,
                            "duration" : 42
                          },
                          {
                            "endTime" : 2234,
                            "time" : 2204,
                            "value" : -569.350537713127,
                            "duration" : 30
                          },
                          {
                            "endTime" : 2627,
                            "time" : 2575,
                            "value" : 5.6843418860808e-14,
                            "duration" : 52
                          },
                          {
                            "endTime" : 2679,
                            "time" : 2627,
                            "value" : -137.291702653022,
                            "duration" : 52
                          },
                          {
                            "endTime" : 2766,
                            "time" : 2731,
                            "value" : -4.2632564145606e-14,
                            "duration" : 35
                          },
                          {
                            "endTime" : 2811,
                            "time" : 2774,
                            "value" : -54.3641977445802,
                            "duration" : 37
                          },
                          {
                            "endTime" : 4290,
                            "time" : 4241,
                            "value" : -6.75015598972095e-14,
                            "duration" : 49
                          },
                          {
                            "endTime" : 4335,
                            "time" : 4290,
                            "value" : -240.922664584678,
                            "duration" : 45
                          },
                          {
                            "endTime" : 4614,
                            "time" : 4569,
                            "value" : -2.8421709430404e-14,
                            "duration" : 45
                          },
                          {
                            "endTime" : 4684,
                            "time" : 4639,
                            "value" : -46.4818360221144,
                            "duration" : 45
                          },
                          {
                            "endTime" : 4857,
                            "time" : 4815,
                            "value" : -8.88178419700125e-15,
                            "duration" : 42
                          },
                          {
                            "endTime" : 4903,
                            "time" : 4860,
                            "value" : 77.3345600770703,
                            "duration" : 43
                          },
                          {
                            "endTime" : 5011,
                            "time" : 4981,
                            "value" : 3.5527136788005e-15,
                            "duration" : 30
                          },
                          {
                            "endTime" : 5530,
                            "time" : 5479,
                            "value" : -1188.94094649289,
                            "duration" : 51
                          },
                          {
                            "endTime" : 5696,
                            "time" : 5666,
                            "value" : 5.6843418860808e-14,
                            "duration" : 30
                          }
                        ]
                      },
                      "scale0" : {
                        "type" : "double",
                        "defaultValue" : 0.75,
                        "keyframes" : [
                          {
                            "endTime" : 579,
                            "time" : 492,
                            "value" : 1.80226298011579,
                            "duration" : 87
                          },
                          {
                            "endTime" : 860,
                            "time" : 827,
                            "value" : 1.80226282453731,
                            "duration" : 33
                          },
                          {
                            "endTime" : 1954,
                            "time" : 1912,
                            "value" : 0.7499999433499,
                            "duration" : 42
                          },
                          {
                            "endTime" : 2234,
                            "time" : 2204,
                            "value" : 1.54076462936939,
                            "duration" : 30
                          },
                          {
                            "endTime" : 2627,
                            "time" : 2575,
                            "value" : 0.74999999178039,
                            "duration" : 52
                          },
                          {
                            "endTime" : 2679,
                            "time" : 2627,
                            "value" : 1.73715462693732,
                            "duration" : 52
                          },
                          {
                            "endTime" : 2766,
                            "time" : 2731,
                            "value" : 0.749999944690187,
                            "duration" : 35
                          },
                          {
                            "endTime" : 2811,
                            "time" : 2774,
                            "value" : 1.71287939209151,
                            "duration" : 37
                          },
                          {
                            "endTime" : 4290,
                            "time" : 4241,
                            "value" : 0.75,
                            "duration" : 49
                          },
                          {
                            "endTime" : 4335,
                            "time" : 4290,
                            "value" : 1.3775350895248,
                            "duration" : 45
                          },
                          {
                            "endTime" : 4614,
                            "time" : 4569,
                            "value" : 0.749999939244005,
                            "duration" : 45
                          },
                          {
                            "endTime" : 4684,
                            "time" : 4639,
                            "value" : 2.33660158965582,
                            "duration" : 45
                          },
                          {
                            "endTime" : 4857,
                            "time" : 4815,
                            "value" : 0.75,
                            "duration" : 42
                          },
                          {
                            "endTime" : 4903,
                            "time" : 4860,
                            "value" : 2.57666858360665,
                            "duration" : 43
                          },
                          {
                            "endTime" : 5011,
                            "time" : 4981,
                            "value" : 0.75,
                            "duration" : 30
                          },
                          {
                            "endTime" : 5530,
                            "time" : 5479,
                            "value" : 3.19732066546147,
                            "duration" : 51
                          },
                          {
                            "endTime" : 5696,
                            "time" : 5666,
                            "value" : 0.75,
                            "duration" : 30
                          }
                        ]
                      },
                      "scale1" : {
                        "type" : "double",
                        "defaultValue" : 0.75,
                        "keyframes" : [
                          {
                            "endTime" : 579,
                            "time" : 492,
                            "value" : 1.80226296066848,
                            "duration" : 87
                          },
                          {
                            "endTime" : 1954,
                            "time" : 1912,
                            "value" : 0.75,
                            "duration" : 42
                          },
                          {
                            "endTime" : 2234,
                            "time" : 2204,
                            "value" : 1.54076464625537,
                            "duration" : 30
                          },
                          {
                            "endTime" : 2627,
                            "time" : 2575,
                            "value" : 0.75,
                            "duration" : 52
                          },
                          {
                            "endTime" : 2679,
                            "time" : 2627,
                            "value" : 1.73715475504626,
                            "duration" : 52
                          },
                          {
                            "endTime" : 2766,
                            "time" : 2731,
                            "value" : 0.75,
                            "duration" : 35
                          },
                          {
                            "endTime" : 2811,
                            "time" : 2774,
                            "value" : 1.71287917413656,
                            "duration" : 37
                          },
                          {
                            "endTime" : 4290,
                            "time" : 4241,
                            "value" : 0.74999990456642,
                            "duration" : 49
                          },
                          {
                            "endTime" : 4335,
                            "time" : 4290,
                            "value" : 1.37753520111616,
                            "duration" : 45
                          },
                          {
                            "endTime" : 4614,
                            "time" : 4569,
                            "value" : 0.75,
                            "duration" : 45
                          },
                          {
                            "endTime" : 4684,
                            "time" : 4639,
                            "value" : 2.33660025593914,
                            "duration" : 45
                          },
                          {
                            "endTime" : 4857,
                            "time" : 4815,
                            "value" : 0.749999571904976,
                            "duration" : 42
                          },
                          {
                            "endTime" : 4903,
                            "time" : 4860,
                            "value" : 2.57666765077368,
                            "duration" : 43
                          },
                          {
                            "endTime" : 5011,
                            "time" : 4981,
                            "value" : 0.749999728477023,
                            "duration" : 30
                          },
                          {
                            "endTime" : 5530,
                            "time" : 5479,
                            "value" : 3.19732032884483,
                            "duration" : 51
                          },
                          {
                            "endTime" : 5696,
                            "time" : 5666,
                            "value" : 0.749999921039362,
                            "duration" : 30
                          }
                        ]
                      },
                      "cursorOpacity" : 1.0,
                      "cursorScale" : 1.0
                    },
                    "medias" : [
                        {
                          "id" : 65,
                          "_type" : "ScreenVMFile",
                          "src" : 3,
                          "trackNumber" : 0,
                          "attributes" : {
                            "ident" : "Rec 02-26-19_001"
                          },
                          "parameters" : {
                            "cursorScale" : {
                              "type" : "double",
                              "defaultValue" : 0.0,
                              "interp" : "linr"
                            },
                            "cursorOpacity" : {
                              "type" : "double",
                              "defaultValue" : 0.0,
                              "interp" : "linr"
                            }
                          },
                          "effects" : [

                          ],
                          "start" : 0,
                          "duration" : 4815,
                          "mediaStart" : 0,
                          "mediaDuration" : 4815,
                          "scalar" : 1,
                          "metadata" : {
                            "AutoAppliedSmartFocus" : "False",
                            "WinSubProjectDisplayName" : "",
                            "clipSpeedAttribute" : false,
                            "default-scale0" : 0.75,
                            "default-scale1" : 0.75,
                            "default-translation0" : 0.0,
                            "default-translation1" : 0.0
                          },
                          "animationTracks" : {

                          }
                        },
                        {
                          "id" : 66,
                          "_type" : "ScreenIMFile",
                          "src" : 3,
                          "trackNumber" : 0,
                          "trimStartSum" : 0,
                          "attributes" : {
                            "ident" : "Rec 02-26-19_001"
                          },
                          "parameters" : {
                            "cursorOpacity" : 0.0,
                            "cursorScale" : 0.0
                          },
                          "effects" : [

                          ],
                          "start" : 4815,
                          "duration" : 30,
                          "mediaStart" : 4814,
                          "mediaDuration" : 1,
                          "scalar" : 1,
                          "metadata" : {
                            "AutoAppliedSmartFocus" : "False",
                            "WinSubProjectDisplayName" : ""
                          },
                          "animationTracks" : {

                          }
                        },
                        {
                          "id" : 67,
                          "_type" : "ScreenVMFile",
                          "src" : 3,
                          "trackNumber" : 0,
                          "attributes" : {
                            "ident" : "Rec 02-26-19_001"
                          },
                          "parameters" : {
                            "cursorScale" : {
                              "type" : "double",
                              "defaultValue" : 0.0,
                              "interp" : "linr"
                            },
                            "cursorOpacity" : {
                              "type" : "double",
                              "defaultValue" : 0.0,
                              "interp" : "linr"
                            }
                          },
                          "effects" : [

                          ],
                          "start" : 4845,
                          "duration" : 875,
                          "mediaStart" : 4815,
                          "mediaDuration" : 875,
                          "scalar" : 1,
                          "metadata" : {
                            "AutoAppliedSmartFocus" : "False",
                            "WinSubProjectDisplayName" : "",
                            "clipSpeedAttribute" : false,
                            "default-scale0" : 0.75,
                            "default-scale1" : 0.75,
                            "default-translation0" : 0.0,
                            "default-translation1" : 0.0
                          },
                          "animationTracks" : {

                          }
                        },
                        {
                          "id" : 68,
                          "_type" : "ScreenIMFile",
                          "src" : 3,
                          "trackNumber" : 0,
                          "trimStartSum" : 0,
                          "attributes" : {
                            "ident" : "Rec 02-26-19_001"
                          },
                          "parameters" : {
                            "cursorOpacity" : 0.0,
                            "cursorScale" : 0.0
                          },
                          "effects" : [

                          ],
                          "start" : 5720,
                          "duration" : 30,
                          "mediaStart" : 5690,
                          "mediaDuration" : 1,
                          "scalar" : 1,
                          "metadata" : {
                            "AutoAppliedSmartFocus" : "False",
                            "WinSubProjectDisplayName" : ""
                          },
                          "animationTracks" : {

                          }
                        },
                        {
                          "id" : 69,
                          "_type" : "ScreenVMFile",
                          "src" : 3,
                          "trackNumber" : 0,
                          "attributes" : {
                            "ident" : "Rec 02-26-19_001"
                          },
                          "parameters" : {
                            "cursorScale" : {
                              "type" : "double",
                              "defaultValue" : 0.0,
                              "interp" : "linr"
                            },
                            "cursorOpacity" : {
                              "type" : "double",
                              "defaultValue" : 0.0,
                              "interp" : "linr"
                            }
                          },
                          "effects" : [

                          ],
                          "start" : 5750,
                          "duration" : 196,
                          "mediaStart" : 5690,
                          "mediaDuration" : 196,
                          "scalar" : 1,
                          "metadata" : {
                            "AutoAppliedSmartFocus" : "False",
                            "WinSubProjectDisplayName" : "",
                            "clipSpeedAttribute" : false,
                            "default-scale0" : 0.75,
                            "default-scale1" : 0.75,
                            "default-translation0" : 0.0,
                            "default-translation1" : 0.0
                          },
                          "animationTracks" : {

                          }
                        }
                    ],
                    "effects" : [

                    ],
                    "start" : 3633,
                    "duration" : 279,
                    "mediaStart" : 5532,
                    "mediaDuration" : 279,
                    "scalar" : 1,
                    "metadata" : {
                      "AutoAppliedSmartFocus" : "False",
                      "WinSubProjectDisplayName" : "",
                      "clipSpeedAttribute" : false,
                      "default-translation0" : 2525.56712327257
                    },
                    "animationTracks" : {
                      "visual" : [
                        {
                          "endTime" : 579,
                          "duration" : 87,
                          "range" : [ 492, 87]
                        },
                        {
                          "endTime" : 860,
                          "duration" : 33,
                          "range" : [ 827, 33]
                        },
                        {
                          "endTime" : 1954,
                          "duration" : 42,
                          "range" : [ 1912, 42]
                        },
                        {
                          "endTime" : 2234,
                          "duration" : 30,
                          "range" : [ 2204, 30]
                        },
                        {
                          "endTime" : 2627,
                          "duration" : 52,
                          "range" : [ 2575, 52]
                        },
                        {
                          "endTime" : 2679,
                          "duration" : 52,
                          "range" : [ 2627, 52]
                        },
                        {
                          "endTime" : 2766,
                          "duration" : 35,
                          "range" : [ 2731, 35]
                        },
                        {
                          "endTime" : 2811,
                          "duration" : 37,
                          "range" : [ 2774, 37]
                        },
                        {
                          "endTime" : 4290,
                          "duration" : 49,
                          "range" : [ 4241, 49]
                        },
                        {
                          "endTime" : 4335,
                          "duration" : 45,
                          "range" : [ 4290, 45]
                        },
                        {
                          "endTime" : 4614,
                          "duration" : 45,
                          "range" : [ 4569, 45]
                        },
                        {
                          "endTime" : 4684,
                          "duration" : 45,
                          "range" : [ 4639, 45]
                        },
                        {
                          "endTime" : 4857,
                          "duration" : 42,
                          "range" : [ 4815, 42]
                        },
                        {
                          "endTime" : 4903,
                          "duration" : 43,
                          "range" : [ 4860, 43]
                        },
                        {
                          "endTime" : 5011,
                          "duration" : 30,
                          "range" : [ 4981, 30]
                        },
                        {
                          "endTime" : 5530,
                          "duration" : 51,
                          "range" : [ 5479, 51]
                        },
                        {
                          "endTime" : 5696,
                          "duration" : 30,
                          "range" : [ 5666, 30]
                        }
                      ]
                    }
                  }
                ]
              },
              {
                "trackIndex" : 1,
                "medias" : [
                  {
                    "id" : 70,
                    "_type" : "Callout",
                    "def" : {
                      "kind" : "remix",
                      "shape" : "text",
                      "style" : "basic",
                      "height" : 257.692307691939,
                      "width" : 1412.82051282013,
                      "word-wrap" : 1.0,
                      "horizontal-alignment" : "center",
                      "text" : "MemoryRanger prevents hijacking of the FILE_OBJECT structure",
                      "vertical-alignment" : "center",
                      "font" : {
                        "color-blue" : 1.0,
                        "color-green" : 1.0,
                        "color-red" : 1.0,
                        "size" : 96.0,
                        "tracking" : 0.0,
                        "name" : "Montserrat",
                        "weight" : "Regular"
                      },
                      "textAttributes" : {
                        "type" : "textAttributeList",
                        "keyframes" : [
                          {
                            "endTime" : 0,
                            "time" : 0,
                            "value" : [{"name":"fontWeight","rangeEnd":60,"rangeStart":0,"value":400,"valueType":"int"},{"name":"fontSize","rangeEnd":60,"rangeStart":0,"value":61,"valueType":"double"},{"name":"fontName","rangeEnd":60,"rangeStart":0,"value":"Montserrat","valueType":"string"},{"name":"strikethrough","rangeEnd":60,"rangeStart":0,"value":0,"valueType":"int"},{"name":"underline","rangeEnd":60,"rangeStart":0,"value":0,"valueType":"int"},{"name":"fontItalic","rangeEnd":60,"rangeStart":0,"value":0,"valueType":"int"},{"name":"fgColor","rangeEnd":60,"rangeStart":0,"value":"(255,255,255,255)","valueType":"color"}],
                            "duration" : 0
                          }
                        ]
                      }
                    },
                    "attributes" : {
                      "autoRotateText" : true
                    },
                    "parameters" : {
                      "translation0" : 27.3255159471226,
                      "translation1" : -238.000007042116
                    },
                    "effects" : [
                        {
                          "effectName" : "DropShadow",
                          "category" : "categoryVisualEffects",
                          "parameters" : {
                            "angle" : 5.49778714378214,
                            "blur" : 10.0,
                            "color-alpha" : 1.0,
                            "color-blue" : 0.1216,
                            "color-green" : 0.1216,
                            "color-red" : 0.1216,
                            "enabled" : 1,
                            "offset" : 10.0,
                            "opacity" : 0.4
                          }
                        }
                    ],
                    "start" : 0,
                    "duration" : 150,
                    "mediaStart" : 0,
                    "mediaDuration" : 150,
                    "scalar" : 1,
                    "metadata" : {
                      "WinSubProjectDisplayName" : "",
                      "clipSpeedAttribute" : false,
                      "default-HAlign" : "center",
                      "default-VAlign" : "center",
                      "default-text-attributes" : "[{\"name\":\"strikethrough\",\"rangeEnd\":17,\"rangeStart\":0,\"value\":0,\"valueType\":\"int\"},{\"name\":\"underline\",\"rangeEnd\":17,\"rangeStart\":0,\"value\":0,\"valueType\":\"int\"},{\"name\":\"fontItalic\",\"rangeEnd\":17,\"rangeStart\":0,\"value\":0,\"valueType\":\"int\"},{\"name\":\"fontName\",\"rangeEnd\":17,\"rangeStart\":0,\"value\":\"Montserrat\",\"valueType\":\"string\"},{\"name\":\"fontSize\",\"rangeEnd\":17,\"rangeStart\":0,\"value\":96,\"valueType\":\"double\"},{\"name\":\"fontWeight\",\"rangeEnd\":17,\"rangeStart\":0,\"value\":400,\"valueType\":\"int\"},{\"name\":\"fgColor\",\"rangeEnd\":17,\"rangeStart\":0,\"value\":\"(255,255,255,255)\",\"valueType\":\"color\"}]",
                      "default-translation0" : 0.0,
                      "default-translation1" : 0.0
                    },
                    "animationTracks" : {

                    }
                  },
                  {
                    "id" : 71,
                    "_type" : "Callout",
                    "def" : {
                      "kind" : "remix",
                      "shape" : "text-rectangle",
                      "style" : "basic",
                      "fill-color-blue" : 0.266666666666667,
                      "fill-color-green" : 0.266666666666667,
                      "fill-color-opacity" : 1.0,
                      "fill-color-red" : 0.266666666666667,
                      "height" : 79.9161976237113,
                      "stroke-color-blue" : 1.0,
                      "stroke-color-green" : 1.0,
                      "stroke-color-opacity" : 1.0,
                      "stroke-color-red" : 1.0,
                      "stroke-width" : 2.0,
                      "tail-x" : -45.3100351898174,
                      "tail-y" : -12.9580988118266,
                      "width" : 1552.06285644886,
                      "word-wrap" : 1.0,
                      "fill-style" : "solid",
                      "horizontal-alignment" : "center",
                      "stroke-style" : "solid",
                      "text" : "Launching MemoryRanger to protect the memory",
                      "vertical-alignment" : "center",
                      "font" : {
                        "color-blue" : 0.266666666666667,
                        "color-green" : 0.231372549019608,
                        "color-opacity" : 1.0,
                        "color-red" : 0.184313725490196,
                        "size" : 64.0,
                        "tracking" : 0.0,
                        "name" : "Montserrat",
                        "weight" : "Regular"
                      },
                      "textAttributes" : {
                        "type" : "textAttributeList",
                        "keyframes" : [
                          {
                            "endTime" : 0,
                            "time" : 0,
                            "value" : [{"name":"fontItalic","rangeEnd":44,"rangeStart":0,"value":0,"valueType":"int"},{"name":"fontWeight","rangeEnd":44,"rangeStart":0,"value":400,"valueType":"int"},{"name":"underline","rangeEnd":44,"rangeStart":0,"value":0,"valueType":"int"},{"name":"fontName","rangeEnd":44,"rangeStart":0,"value":"Montserrat","valueType":"string"},{"name":"fontSize","rangeEnd":44,"rangeStart":0,"value":55,"valueType":"double"},{"name":"fgColor","rangeEnd":44,"rangeStart":0,"value":"(255,255,255,255)","valueType":"color"},{"name":"strikethrough","rangeEnd":44,"rangeStart":0,"value":0,"valueType":"int"}],
                            "duration" : 0
                          }
                        ]
                      }
                    },
                    "attributes" : {
                      "autoRotateText" : true
                    },
                    "parameters" : {
                      "translation0" : 12.8209795298949,
                      "translation1" : -432.147592244766
                    },
                    "effects" : [
                        {
                          "effectName" : "DropShadow",
                          "category" : "categoryVisualEffects",
                          "parameters" : {
                            "angle" : 5.49778714378214,
                            "blur" : 10.0,
                            "color-alpha" : 1.0,
                            "color-blue" : 0.1216,
                            "color-green" : 0.1216,
                            "color-red" : 0.1216,
                            "enabled" : 1,
                            "offset" : 10.0,
                            "opacity" : 0.4
                          }
                        }
                    ],
                    "start" : 151,
                    "duration" : 106,
                    "mediaStart" : 128,
                    "mediaDuration" : 106,
                    "scalar" : 1,
                    "metadata" : {
                      "WinSubProjectDisplayName" : "",
                      "clipSpeedAttribute" : false,
                      "default-HAlign" : "center",
                      "default-VAlign" : "center",
                      "default-fill-color-blue" : 1.0,
                      "default-fill-color-green" : 1.0,
                      "default-fill-color-red" : 1.0,
                      "default-scale0" : 1.0,
                      "default-scale1" : 1.0,
                      "default-stroke-color-blue" : 0.56078431372549,
                      "default-stroke-color-green" : 0.686274509803922,
                      "default-stroke-color-red" : 0.0196078431372549,
                      "default-text-attributes" : "[{\"name\":\"strikethrough\",\"rangeEnd\":55,\"rangeStart\":0,\"value\":0,\"valueType\":\"int\"},{\"name\":\"fgColor\",\"rangeEnd\":55,\"rangeStart\":0,\"value\":\"(255,255,255,255)\",\"valueType\":\"color\"},{\"name\":\"underline\",\"rangeEnd\":55,\"rangeStart\":0,\"value\":0,\"valueType\":\"int\"},{\"name\":\"fontItalic\",\"rangeEnd\":55,\"rangeStart\":0,\"value\":0,\"valueType\":\"int\"},{\"name\":\"fontSize\",\"rangeEnd\":55,\"rangeStart\":0,\"value\":64,\"valueType\":\"double\"},{\"name\":\"fontName\",\"rangeEnd\":55,\"rangeStart\":0,\"value\":\"Montserrat\",\"valueType\":\"string\"},{\"name\":\"fontWeight\",\"rangeEnd\":55,\"rangeStart\":0,\"value\":400,\"valueType\":\"int\"}]",
                      "default-translation0" : 0.0,
                      "default-translation1" : 0.0
                    },
                    "animationTracks" : {

                    }
                  },
                  {
                    "id" : 72,
                    "_type" : "Callout",
                    "def" : {
                      "kind" : "remix",
                      "shape" : "text-rectangle",
                      "style" : "basic",
                      "fill-color-blue" : 0.266666666666667,
                      "fill-color-green" : 0.266666666666667,
                      "fill-color-opacity" : 1.0,
                      "fill-color-red" : 0.266666666666667,
                      "height" : 79.756097560606,
                      "stroke-color-blue" : 1.0,
                      "stroke-color-green" : 1.0,
                      "stroke-color-opacity" : 1.0,
                      "stroke-color-red" : 1.0,
                      "stroke-width" : 2.0,
                      "tail-x" : -97.4965176815342,
                      "tail-y" : -10.519074421447,
                      "width" : 1432.22897839432,
                      "word-wrap" : 1.0,
                      "fill-style" : "solid",
                      "horizontal-alignment" : "center",
                      "stroke-style" : "solid",
                      "text" : "Launching the boss's console to load its driver",
                      "vertical-alignment" : "center",
                      "font" : {
                        "color-blue" : 0.266666666666667,
                        "color-green" : 0.231372549019608,
                        "color-opacity" : 1.0,
                        "color-red" : 0.184313725490196,
                        "size" : 64.0,
                        "tracking" : 0.0,
                        "name" : "Montserrat",
                        "weight" : "Regular"
                      },
                      "textAttributes" : {
                        "type" : "textAttributeList",
                        "keyframes" : [
                          {
                            "endTime" : 0,
                            "time" : 0,
                            "value" : [{"name":"fontSize","rangeEnd":47,"rangeStart":0,"value":55,"valueType":"double"},{"name":"fgColor","rangeEnd":47,"rangeStart":0,"value":"(255,255,255,255)","valueType":"color"},{"name":"fontName","rangeEnd":47,"rangeStart":0,"value":"Montserrat","valueType":"string"},{"name":"underline","rangeEnd":47,"rangeStart":0,"value":0,"valueType":"int"},{"name":"fontWeight","rangeEnd":47,"rangeStart":0,"value":400,"valueType":"int"},{"name":"strikethrough","rangeEnd":47,"rangeStart":0,"value":0,"valueType":"int"},{"name":"fontItalic","rangeEnd":47,"rangeStart":0,"value":0,"valueType":"int"}],
                            "duration" : 0
                          }
                        ]
                      }
                    },
                    "attributes" : {
                      "autoRotateText" : true
                    },
                    "parameters" : {
                      "translation0" : 6.47087665576687,
                      "translation1" : -432.147592244905
                    },
                    "effects" : [
                        {
                          "effectName" : "DropShadow",
                          "category" : "categoryVisualEffects",
                          "parameters" : {
                            "angle" : 5.49778714378214,
                            "blur" : 10.0,
                            "color-alpha" : 1.0,
                            "color-blue" : 0.1216,
                            "color-green" : 0.1216,
                            "color-red" : 0.1216,
                            "enabled" : 1,
                            "offset" : 10.0,
                            "opacity" : 0.4
                          }
                        }
                    ],
                    "start" : 257,
                    "duration" : 111,
                    "mediaStart" : 251,
                    "mediaDuration" : 111,
                    "scalar" : 1,
                    "metadata" : {
                      "WinSubProjectDisplayName" : "",
                      "clipSpeedAttribute" : false,
                      "default-HAlign" : "center",
                      "default-VAlign" : "center",
                      "default-fill-color-blue" : 1.0,
                      "default-fill-color-green" : 1.0,
                      "default-fill-color-red" : 1.0,
                      "default-scale0" : 1.0,
                      "default-scale1" : 1.0,
                      "default-stroke-color-blue" : 0.56078431372549,
                      "default-stroke-color-green" : 0.686274509803922,
                      "default-stroke-color-red" : 0.0196078431372549,
                      "default-text-attributes" : "[{\"name\":\"strikethrough\",\"rangeEnd\":55,\"rangeStart\":0,\"value\":0,\"valueType\":\"int\"},{\"name\":\"fgColor\",\"rangeEnd\":55,\"rangeStart\":0,\"value\":\"(255,255,255,255)\",\"valueType\":\"color\"},{\"name\":\"underline\",\"rangeEnd\":55,\"rangeStart\":0,\"value\":0,\"valueType\":\"int\"},{\"name\":\"fontItalic\",\"rangeEnd\":55,\"rangeStart\":0,\"value\":0,\"valueType\":\"int\"},{\"name\":\"fontSize\",\"rangeEnd\":55,\"rangeStart\":0,\"value\":64,\"valueType\":\"double\"},{\"name\":\"fontName\",\"rangeEnd\":55,\"rangeStart\":0,\"value\":\"Montserrat\",\"valueType\":\"string\"},{\"name\":\"fontWeight\",\"rangeEnd\":55,\"rangeStart\":0,\"value\":400,\"valueType\":\"int\"}]",
                      "default-translation0" : 0.0,
                      "default-translation1" : 0.0
                    },
                    "animationTracks" : {

                    }
                  },
                  {
                    "id" : 73,
                    "_type" : "Callout",
                    "def" : {
                      "kind" : "remix",
                      "shape" : "text-rectangle",
                      "style" : "basic",
                      "fill-color-blue" : 0.266666666666667,
                      "fill-color-green" : 0.266666666666667,
                      "fill-color-opacity" : 1.0,
                      "fill-color-red" : 0.266666666666667,
                      "height" : 73.2820512823458,
                      "stroke-color-blue" : 1.0,
                      "stroke-color-green" : 1.0,
                      "stroke-color-opacity" : 1.0,
                      "stroke-color-red" : 1.0,
                      "stroke-width" : 2.0,
                      "tail-x" : -108.666666666585,
                      "tail-y" : -9.64102564114387,
                      "width" : 1276.66666666668,
                      "word-wrap" : 1.0,
                      "fill-style" : "solid",
                      "horizontal-alignment" : "center",
                      "stroke-style" : "solid",
                      "text" : "The boss creates a new file - budget.txt",
                      "vertical-alignment" : "center",
                      "font" : {
                        "color-blue" : 0.266666666666667,
                        "color-green" : 0.231372549019608,
                        "color-opacity" : 1.0,
                        "color-red" : 0.184313725490196,
                        "size" : 64.0,
                        "tracking" : 0.0,
                        "name" : "Montserrat",
                        "weight" : "Regular"
                      },
                      "textAttributes" : {
                        "type" : "textAttributeList",
                        "keyframes" : [
                          {
                            "endTime" : 0,
                            "time" : 0,
                            "value" : [{"name":"strikethrough","rangeEnd":40,"rangeStart":0,"value":0,"valueType":"int"},{"name":"fontItalic","rangeEnd":40,"rangeStart":0,"value":0,"valueType":"int"},{"name":"fgColor","rangeEnd":40,"rangeStart":0,"value":"(255,255,255,255)","valueType":"color"},{"name":"fontWeight","rangeEnd":40,"rangeStart":0,"value":400,"valueType":"int"},{"name":"underline","rangeEnd":40,"rangeStart":0,"value":0,"valueType":"int"},{"name":"fontName","rangeEnd":40,"rangeStart":0,"value":"Montserrat","valueType":"string"},{"name":"fontSize","rangeEnd":40,"rangeStart":0,"value":55,"valueType":"double"}],
                            "duration" : 0
                          }
                        ]
                      }
                    },
                    "attributes" : {
                      "autoRotateText" : true
                    },
                    "parameters" : {
                      "translation0" : -6.91144919073849e-11,
                      "translation1" : -433.025641025283
                    },
                    "effects" : [
                        {
                          "effectName" : "DropShadow",
                          "category" : "categoryVisualEffects",
                          "parameters" : {
                            "angle" : 5.49778714378214,
                            "blur" : 10.0,
                            "color-alpha" : 1.0,
                            "color-blue" : 0.1216,
                            "color-green" : 0.1216,
                            "color-red" : 0.1216,
                            "enabled" : 1,
                            "offset" : 10.0,
                            "opacity" : 0.4
                          }
                        }
                    ],
                    "start" : 401,
                    "duration" : 91,
                    "mediaStart" : 1,
                    "mediaDuration" : 91,
                    "scalar" : 1,
                    "metadata" : {
                      "WinSubProjectDisplayName" : "",
                      "clipSpeedAttribute" : false,
                      "default-HAlign" : "center",
                      "default-VAlign" : "center",
                      "default-fill-color-blue" : 1.0,
                      "default-fill-color-green" : 1.0,
                      "default-fill-color-red" : 1.0,
                      "default-scale0" : 1.0,
                      "default-scale1" : 1.0,
                      "default-stroke-color-blue" : 0.56078431372549,
                      "default-stroke-color-green" : 0.686274509803922,
                      "default-stroke-color-red" : 0.0196078431372549,
                      "default-text-attributes" : "[{\"name\":\"strikethrough\",\"rangeEnd\":55,\"rangeStart\":0,\"value\":0,\"valueType\":\"int\"},{\"name\":\"fgColor\",\"rangeEnd\":55,\"rangeStart\":0,\"value\":\"(255,255,255,255)\",\"valueType\":\"color\"},{\"name\":\"underline\",\"rangeEnd\":55,\"rangeStart\":0,\"value\":0,\"valueType\":\"int\"},{\"name\":\"fontItalic\",\"rangeEnd\":55,\"rangeStart\":0,\"value\":0,\"valueType\":\"int\"},{\"name\":\"fontSize\",\"rangeEnd\":55,\"rangeStart\":0,\"value\":64,\"valueType\":\"double\"},{\"name\":\"fontName\",\"rangeEnd\":55,\"rangeStart\":0,\"value\":\"Montserrat\",\"valueType\":\"string\"},{\"name\":\"fontWeight\",\"rangeEnd\":55,\"rangeStart\":0,\"value\":400,\"valueType\":\"int\"}]",
                      "default-translation0" : 0.0,
                      "default-translation1" : 0.0
                    },
                    "animationTracks" : {

                    }
                  },
                  {
                    "id" : 74,
                    "_type" : "Callout",
                    "def" : {
                      "kind" : "remix",
                      "shape" : "text-rectangle",
                      "style" : "basic",
                      "fill-color-blue" : 0.266666666666667,
                      "fill-color-green" : 0.266666666666667,
                      "fill-color-opacity" : 1.0,
                      "fill-color-red" : 0.266666666666667,
                      "height" : 142.412011238648,
                      "stroke-color-blue" : 1.0,
                      "stroke-color-green" : 1.0,
                      "stroke-color-opacity" : 1.0,
                      "stroke-color-red" : 1.0,
                      "stroke-width" : 2.0,
                      "tail-x" : -80.3084577114217,
                      "tail-y" : -0.303566594820376,
                      "width" : 1369.20398009945,
                      "word-wrap" : 1.0,
                      "fill-style" : "solid",
                      "horizontal-alignment" : "center",
                      "stroke-style" : "solid",
                      "text" : "The budget file is opened.\rFile handle and FILE_OBJECT have been created.",
                      "vertical-alignment" : "center",
                      "font" : {
                        "color-blue" : 0.266666666666667,
                        "color-green" : 0.231372549019608,
                        "color-opacity" : 1.0,
                        "color-red" : 0.184313725490196,
                        "size" : 64.0,
                        "tracking" : 0.0,
                        "name" : "Montserrat",
                        "weight" : "Regular"
                      },
                      "textAttributes" : {
                        "type" : "textAttributeList",
                        "keyframes" : [
                          {
                            "endTime" : 0,
                            "time" : 0,
                            "value" : [{"name":"fontSize","rangeEnd":73,"rangeStart":0,"value":64,"valueType":"double"},{"name":"fontName","rangeEnd":73,"rangeStart":0,"value":"Montserrat","valueType":"string"},{"name":"strikethrough","rangeEnd":73,"rangeStart":0,"value":0,"valueType":"int"},{"name":"fontWeight","rangeEnd":73,"rangeStart":0,"value":400,"valueType":"int"},{"name":"fontItalic","rangeEnd":73,"rangeStart":0,"value":0,"valueType":"int"},{"name":"fgColor","rangeEnd":73,"rangeStart":0,"value":"(255,255,255,255)","valueType":"color"},{"name":"underline","rangeEnd":73,"rangeStart":0,"value":0,"valueType":"int"}],
                            "duration" : 0
                          }
                        ]
                      }
                    },
                    "attributes" : {
                      "autoRotateText" : true
                    },
                    "parameters" : {
                      "translation0" : -28.3582089552324,
                      "translation1" : -442.363100071607
                    },
                    "effects" : [
                        {
                          "effectName" : "DropShadow",
                          "category" : "categoryVisualEffects",
                          "parameters" : {
                            "angle" : 5.49778714378214,
                            "blur" : 10.0,
                            "color-alpha" : 1.0,
                            "color-blue" : 0.1216,
                            "color-green" : 0.1216,
                            "color-red" : 0.1216,
                            "enabled" : 1,
                            "offset" : 10.0,
                            "opacity" : 0.4
                          }
                        }
                    ],
                    "start" : 510,
                    "duration" : 120,
                    "mediaStart" : -2,
                    "mediaDuration" : 120,
                    "scalar" : 1,
                    "metadata" : {
                      "WinSubProjectDisplayName" : "",
                      "clipSpeedAttribute" : false,
                      "default-HAlign" : "center",
                      "default-VAlign" : "center",
                      "default-fill-color-blue" : 1.0,
                      "default-fill-color-green" : 1.0,
                      "default-fill-color-red" : 1.0,
                      "default-scale0" : 1.0,
                      "default-scale1" : 1.0,
                      "default-stroke-color-blue" : 0.56078431372549,
                      "default-stroke-color-green" : 0.686274509803922,
                      "default-stroke-color-red" : 0.0196078431372549,
                      "default-text-attributes" : "[{\"name\":\"strikethrough\",\"rangeEnd\":55,\"rangeStart\":0,\"value\":0,\"valueType\":\"int\"},{\"name\":\"fgColor\",\"rangeEnd\":55,\"rangeStart\":0,\"value\":\"(255,255,255,255)\",\"valueType\":\"color\"},{\"name\":\"underline\",\"rangeEnd\":55,\"rangeStart\":0,\"value\":0,\"valueType\":\"int\"},{\"name\":\"fontItalic\",\"rangeEnd\":55,\"rangeStart\":0,\"value\":0,\"valueType\":\"int\"},{\"name\":\"fontSize\",\"rangeEnd\":55,\"rangeStart\":0,\"value\":64,\"valueType\":\"double\"},{\"name\":\"fontName\",\"rangeEnd\":55,\"rangeStart\":0,\"value\":\"Montserrat\",\"valueType\":\"string\"},{\"name\":\"fontWeight\",\"rangeEnd\":55,\"rangeStart\":0,\"value\":400,\"valueType\":\"int\"}]",
                      "default-translation0" : 0.0,
                      "default-translation1" : 0.0
                    },
                    "animationTracks" : {

                    }
                  },
                  {
                    "id" : 75,
                    "_type" : "Callout",
                    "def" : {
                      "kind" : "remix",
                      "shape" : "text-rectangle",
                      "style" : "basic",
                      "fill-color-blue" : 0.266666666666667,
                      "fill-color-green" : 0.266666666666667,
                      "fill-color-opacity" : 1.0,
                      "fill-color-red" : 0.266666666666667,
                      "height" : 104.989368355279,
                      "stroke-color-blue" : 1.0,
                      "stroke-color-green" : 1.0,
                      "stroke-color-opacity" : 1.0,
                      "stroke-color-red" : 1.0,
                      "stroke-width" : 2.0,
                      "tail-x" : -140.373983739627,
                      "tail-y" : 18.4077548468639,
                      "width" : 1657.15447154459,
                      "word-wrap" : 1.0,
                      "fill-style" : "solid",
                      "horizontal-alignment" : "center",
                      "stroke-style" : "solid",
                      "text" : "The boss plans $3M and $7M for A and B teams",
                      "vertical-alignment" : "center",
                      "font" : {
                        "color-blue" : 0.266666666666667,
                        "color-green" : 0.231372549019608,
                        "color-opacity" : 1.0,
                        "color-red" : 0.184313725490196,
                        "size" : 64.0,
                        "tracking" : 0.0,
                        "name" : "Montserrat",
                        "weight" : "Regular"
                      },
                      "textAttributes" : {
                        "type" : "textAttributeList",
                        "keyframes" : [
                          {
                            "endTime" : 0,
                            "time" : 0,
                            "value" : [{"name":"fontSize","rangeEnd":44,"rangeStart":0,"value":55,"valueType":"double"},{"name":"fontName","rangeEnd":44,"rangeStart":0,"value":"Montserrat","valueType":"string"},{"name":"fgColor","rangeEnd":44,"rangeStart":0,"value":"(255,255,255,255)","valueType":"color"},{"name":"fontItalic","rangeEnd":44,"rangeStart":0,"value":0,"valueType":"int"},{"name":"underline","rangeEnd":44,"rangeStart":0,"value":0,"valueType":"int"},{"name":"fontWeight","rangeEnd":44,"rangeStart":0,"value":400,"valueType":"int"},{"name":"strikethrough","rangeEnd":44,"rangeStart":0,"value":0,"valueType":"int"}],
                            "duration" : 0
                          }
                        ]
                      }
                    },
                    "attributes" : {
                      "autoRotateText" : true
                    },
                    "parameters" : {
                      "translation0" : 31.7073170729729,
                      "translation1" : -461.074421513291
                    },
                    "effects" : [
                        {
                          "effectName" : "DropShadow",
                          "category" : "categoryVisualEffects",
                          "parameters" : {
                            "angle" : 5.49778714378214,
                            "blur" : 10.0,
                            "color-alpha" : 1.0,
                            "color-blue" : 0.1216,
                            "color-green" : 0.1216,
                            "color-red" : 0.1216,
                            "enabled" : 1,
                            "offset" : 10.0,
                            "opacity" : 0.4
                          }
                        }
                    ],
                    "start" : 690,
                    "duration" : 129,
                    "mediaStart" : -1,
                    "mediaDuration" : 129,
                    "scalar" : 1,
                    "metadata" : {
                      "WinSubProjectDisplayName" : "",
                      "clipSpeedAttribute" : false,
                      "default-HAlign" : "center",
                      "default-VAlign" : "center",
                      "default-fill-color-blue" : 1.0,
                      "default-fill-color-green" : 1.0,
                      "default-fill-color-red" : 1.0,
                      "default-scale0" : 1.0,
                      "default-scale1" : 1.0,
                      "default-stroke-color-blue" : 0.56078431372549,
                      "default-stroke-color-green" : 0.686274509803922,
                      "default-stroke-color-red" : 0.0196078431372549,
                      "default-text-attributes" : "[{\"name\":\"strikethrough\",\"rangeEnd\":55,\"rangeStart\":0,\"value\":0,\"valueType\":\"int\"},{\"name\":\"fgColor\",\"rangeEnd\":55,\"rangeStart\":0,\"value\":\"(255,255,255,255)\",\"valueType\":\"color\"},{\"name\":\"underline\",\"rangeEnd\":55,\"rangeStart\":0,\"value\":0,\"valueType\":\"int\"},{\"name\":\"fontItalic\",\"rangeEnd\":55,\"rangeStart\":0,\"value\":0,\"valueType\":\"int\"},{\"name\":\"fontSize\",\"rangeEnd\":55,\"rangeStart\":0,\"value\":64,\"valueType\":\"double\"},{\"name\":\"fontName\",\"rangeEnd\":55,\"rangeStart\":0,\"value\":\"Montserrat\",\"valueType\":\"string\"},{\"name\":\"fontWeight\",\"rangeEnd\":55,\"rangeStart\":0,\"value\":400,\"valueType\":\"int\"}]",
                      "default-translation0" : 0.0,
                      "default-translation1" : 0.0
                    },
                    "animationTracks" : {

                    }
                  },
                  {
                    "id" : 76,
                    "_type" : "Callout",
                    "def" : {
                      "kind" : "remix",
                      "shape" : "text-rectangle",
                      "style" : "basic",
                      "fill-color-blue" : 0.266666666666667,
                      "fill-color-green" : 0.266666666666667,
                      "fill-color-opacity" : 1.0,
                      "fill-color-red" : 0.266666666666667,
                      "height" : 104.989368355279,
                      "stroke-color-blue" : 1.0,
                      "stroke-color-green" : 1.0,
                      "stroke-color-opacity" : 1.0,
                      "stroke-color-red" : 1.0,
                      "stroke-width" : 2.0,
                      "tail-x" : 413.284552845781,
                      "tail-y" : 18.4077548468639,
                      "width" : 549.837398373774,
                      "word-wrap" : 1.0,
                      "fill-style" : "solid",
                      "horizontal-alignment" : "center",
                      "stroke-style" : "solid",
                      "text" : "Done",
                      "vertical-alignment" : "center",
                      "font" : {
                        "color-blue" : 0.266666666666667,
                        "color-green" : 0.231372549019608,
                        "color-opacity" : 1.0,
                        "color-red" : 0.184313725490196,
                        "size" : 64.0,
                        "tracking" : 0.0,
                        "name" : "Montserrat",
                        "weight" : "Regular"
                      },
                      "textAttributes" : {
                        "type" : "textAttributeList",
                        "keyframes" : [
                          {
                            "endTime" : 0,
                            "time" : 0,
                            "value" : [{"name":"fgColor","rangeEnd":4,"rangeStart":0,"value":"(255,255,255,255)","valueType":"color"},{"name":"fontName","rangeEnd":4,"rangeStart":0,"value":"Montserrat","valueType":"string"},{"name":"fontWeight","rangeEnd":4,"rangeStart":0,"value":400,"valueType":"int"},{"name":"fontSize","rangeEnd":4,"rangeStart":0,"value":55,"valueType":"double"},{"name":"underline","rangeEnd":4,"rangeStart":0,"value":0,"valueType":"int"},{"name":"strikethrough","rangeEnd":4,"rangeStart":0,"value":0,"valueType":"int"},{"name":"fontItalic","rangeEnd":4,"rangeStart":0,"value":0,"valueType":"int"}],
                            "duration" : 0
                          }
                        ]
                      }
                    },
                    "attributes" : {
                      "autoRotateText" : true
                    },
                    "parameters" : {
                      "translation0" : -9.7560975611958,
                      "translation1" : -461.074421513291
                    },
                    "effects" : [
                        {
                          "effectName" : "DropShadow",
                          "category" : "categoryVisualEffects",
                          "parameters" : {
                            "angle" : 5.49778714378214,
                            "blur" : 10.0,
                            "color-alpha" : 1.0,
                            "color-blue" : 0.1216,
                            "color-green" : 0.1216,
                            "color-red" : 0.1216,
                            "enabled" : 1,
                            "offset" : 10.0,
                            "opacity" : 0.4
                          }
                        }
                    ],
                    "start" : 835,
                    "duration" : 37,
                    "mediaStart" : 4,
                    "mediaDuration" : 37,
                    "scalar" : 1,
                    "metadata" : {
                      "WinSubProjectDisplayName" : "",
                      "clipSpeedAttribute" : false,
                      "default-HAlign" : "center",
                      "default-VAlign" : "center",
                      "default-fill-color-blue" : 1.0,
                      "default-fill-color-green" : 1.0,
                      "default-fill-color-red" : 1.0,
                      "default-scale0" : 1.0,
                      "default-scale1" : 1.0,
                      "default-stroke-color-blue" : 0.56078431372549,
                      "default-stroke-color-green" : 0.686274509803922,
                      "default-stroke-color-red" : 0.0196078431372549,
                      "default-text-attributes" : "[{\"name\":\"strikethrough\",\"rangeEnd\":55,\"rangeStart\":0,\"value\":0,\"valueType\":\"int\"},{\"name\":\"fgColor\",\"rangeEnd\":55,\"rangeStart\":0,\"value\":\"(255,255,255,255)\",\"valueType\":\"color\"},{\"name\":\"underline\",\"rangeEnd\":55,\"rangeStart\":0,\"value\":0,\"valueType\":\"int\"},{\"name\":\"fontItalic\",\"rangeEnd\":55,\"rangeStart\":0,\"value\":0,\"valueType\":\"int\"},{\"name\":\"fontSize\",\"rangeEnd\":55,\"rangeStart\":0,\"value\":64,\"valueType\":\"double\"},{\"name\":\"fontName\",\"rangeEnd\":55,\"rangeStart\":0,\"value\":\"Montserrat\",\"valueType\":\"string\"},{\"name\":\"fontWeight\",\"rangeEnd\":55,\"rangeStart\":0,\"value\":400,\"valueType\":\"int\"}]",
                      "default-translation0" : 0.0,
                      "default-translation1" : 0.0
                    },
                    "animationTracks" : {

                    }
                  },
                  {
                    "id" : 77,
                    "_type" : "Callout",
                    "def" : {
                      "kind" : "remix",
                      "shape" : "text-rectangle",
                      "style" : "basic",
                      "fill-color-blue" : 0.266666666666667,
                      "fill-color-green" : 0.266666666666667,
                      "fill-color-opacity" : 1.0,
                      "fill-color-red" : 0.266666666666667,
                      "height" : 83.0381488429701,
                      "stroke-color-blue" : 1.0,
                      "stroke-color-green" : 1.0,
                      "stroke-color-opacity" : 1.0,
                      "stroke-color-red" : 1.0,
                      "stroke-width" : 2.0,
                      "tail-x" : -140.373983739627,
                      "tail-y" : 29.3833646030184,
                      "width" : 1657.15447154459,
                      "word-wrap" : 1.0,
                      "fill-style" : "solid",
                      "horizontal-alignment" : "center",
                      "stroke-style" : "solid",
                      "text" : "The boss is checking the budget",
                      "vertical-alignment" : "center",
                      "font" : {
                        "color-blue" : 0.266666666666667,
                        "color-green" : 0.231372549019608,
                        "color-opacity" : 1.0,
                        "color-red" : 0.184313725490196,
                        "size" : 64.0,
                        "tracking" : 0.0,
                        "name" : "Montserrat",
                        "weight" : "Regular"
                      },
                      "textAttributes" : {
                        "type" : "textAttributeList",
                        "keyframes" : [
                          {
                            "endTime" : 0,
                            "time" : 0,
                            "value" : [{"name":"underline","rangeEnd":31,"rangeStart":0,"value":0,"valueType":"int"},{"name":"fgColor","rangeEnd":31,"rangeStart":0,"value":"(255,255,255,255)","valueType":"color"},{"name":"fontName","rangeEnd":31,"rangeStart":0,"value":"Montserrat","valueType":"string"},{"name":"fontItalic","rangeEnd":31,"rangeStart":0,"value":0,"valueType":"int"},{"name":"fontWeight","rangeEnd":31,"rangeStart":0,"value":400,"valueType":"int"},{"name":"fontSize","rangeEnd":31,"rangeStart":0,"value":55,"valueType":"double"},{"name":"strikethrough","rangeEnd":31,"rangeStart":0,"value":0,"valueType":"int"}],
                            "duration" : 0
                          }
                        ]
                      }
                    },
                    "attributes" : {
                      "autoRotateText" : true
                    },
                    "parameters" : {
                      "translation0" : 31.7073170729729,
                      "translation1" : -472.050031269445
                    },
                    "effects" : [
                        {
                          "effectName" : "DropShadow",
                          "category" : "categoryVisualEffects",
                          "parameters" : {
                            "angle" : 5.49778714378214,
                            "blur" : 10.0,
                            "color-alpha" : 1.0,
                            "color-blue" : 0.1216,
                            "color-green" : 0.1216,
                            "color-red" : 0.1216,
                            "enabled" : 1,
                            "offset" : 10.0,
                            "opacity" : 0.4
                          }
                        }
                    ],
                    "start" : 872,
                    "duration" : 109,
                    "mediaStart" : 8,
                    "mediaDuration" : 109,
                    "scalar" : 1,
                    "metadata" : {
                      "WinSubProjectDisplayName" : "",
                      "clipSpeedAttribute" : false,
                      "default-HAlign" : "center",
                      "default-VAlign" : "center",
                      "default-fill-color-blue" : 1.0,
                      "default-fill-color-green" : 1.0,
                      "default-fill-color-red" : 1.0,
                      "default-scale0" : 1.0,
                      "default-scale1" : 1.0,
                      "default-stroke-color-blue" : 0.56078431372549,
                      "default-stroke-color-green" : 0.686274509803922,
                      "default-stroke-color-red" : 0.0196078431372549,
                      "default-text-attributes" : "[{\"name\":\"strikethrough\",\"rangeEnd\":55,\"rangeStart\":0,\"value\":0,\"valueType\":\"int\"},{\"name\":\"fgColor\",\"rangeEnd\":55,\"rangeStart\":0,\"value\":\"(255,255,255,255)\",\"valueType\":\"color\"},{\"name\":\"underline\",\"rangeEnd\":55,\"rangeStart\":0,\"value\":0,\"valueType\":\"int\"},{\"name\":\"fontItalic\",\"rangeEnd\":55,\"rangeStart\":0,\"value\":0,\"valueType\":\"int\"},{\"name\":\"fontSize\",\"rangeEnd\":55,\"rangeStart\":0,\"value\":64,\"valueType\":\"double\"},{\"name\":\"fontName\",\"rangeEnd\":55,\"rangeStart\":0,\"value\":\"Montserrat\",\"valueType\":\"string\"},{\"name\":\"fontWeight\",\"rangeEnd\":55,\"rangeStart\":0,\"value\":400,\"valueType\":\"int\"}]",
                      "default-translation0" : 0.0,
                      "default-translation1" : 0.0
                    },
                    "animationTracks" : {

                    }
                  },
                  {
                    "id" : 78,
                    "_type" : "Callout",
                    "def" : {
                      "kind" : "remix",
                      "shape" : "text-rectangle",
                      "style" : "basic",
                      "fill-color-blue" : 0.266666666666667,
                      "fill-color-green" : 0.266666666666667,
                      "fill-color-opacity" : 1.0,
                      "fill-color-red" : 0.266666666666667,
                      "height" : 97.6722951844191,
                      "stroke-color-blue" : 1.0,
                      "stroke-color-green" : 1.0,
                      "stroke-color-opacity" : 1.0,
                      "stroke-color-red" : 1.0,
                      "stroke-width" : 2.0,
                      "tail-x" : 246.939449096189,
                      "tail-y" : 22.0662914322938,
                      "width" : 882.527605872958,
                      "word-wrap" : 1.0,
                      "fill-style" : "solid",
                      "horizontal-alignment" : "center",
                      "stroke-style" : "solid",
                      "text" : "The budget is set!",
                      "vertical-alignment" : "center",
                      "font" : {
                        "color-blue" : 0.266666666666667,
                        "color-green" : 0.231372549019608,
                        "color-opacity" : 1.0,
                        "color-red" : 0.184313725490196,
                        "size" : 64.0,
                        "tracking" : 0.0,
                        "name" : "Montserrat",
                        "weight" : "Regular"
                      },
                      "textAttributes" : {
                        "type" : "textAttributeList",
                        "keyframes" : [
                          {
                            "endTime" : 0,
                            "time" : 0,
                            "value" : [{"name":"strikethrough","rangeEnd":18,"rangeStart":0,"value":0,"valueType":"int"},{"name":"underline","rangeEnd":18,"rangeStart":0,"value":0,"valueType":"int"},{"name":"fontItalic","rangeEnd":18,"rangeStart":0,"value":0,"valueType":"int"},{"name":"fontWeight","rangeEnd":18,"rangeStart":0,"value":400,"valueType":"int"},{"name":"fontName","rangeEnd":18,"rangeStart":0,"value":"Montserrat","valueType":"string"},{"name":"fgColor","rangeEnd":18,"rangeStart":0,"value":"(255,255,255,255)","valueType":"color"},{"name":"fontSize","rangeEnd":18,"rangeStart":0,"value":55,"valueType":"double"}],
                            "duration" : 0
                          }
                        ]
                      }
                    },
                    "attributes" : {
                      "autoRotateText" : true
                    },
                    "parameters" : {
                      "translation0" : 2.49542608798947e-11,
                      "translation1" : -467.718032725516
                    },
                    "effects" : [
                        {
                          "effectName" : "DropShadow",
                          "category" : "categoryVisualEffects",
                          "parameters" : {
                            "angle" : 5.49778714378214,
                            "blur" : 10.0,
                            "color-alpha" : 1.0,
                            "color-blue" : 0.1216,
                            "color-green" : 0.1216,
                            "color-red" : 0.1216,
                            "enabled" : 1,
                            "offset" : 10.0,
                            "opacity" : 0.4
                          }
                        }
                    ],
                    "start" : 981,
                    "duration" : 94,
                    "mediaStart" : 8,
                    "mediaDuration" : 94,
                    "scalar" : 1,
                    "metadata" : {
                      "WinSubProjectDisplayName" : "",
                      "clipSpeedAttribute" : false,
                      "default-HAlign" : "center",
                      "default-VAlign" : "center",
                      "default-fill-color-blue" : 1.0,
                      "default-fill-color-green" : 1.0,
                      "default-fill-color-red" : 1.0,
                      "default-scale0" : 1.0,
                      "default-scale1" : 1.0,
                      "default-stroke-color-blue" : 0.56078431372549,
                      "default-stroke-color-green" : 0.686274509803922,
                      "default-stroke-color-red" : 0.0196078431372549,
                      "default-text-attributes" : "[{\"name\":\"strikethrough\",\"rangeEnd\":55,\"rangeStart\":0,\"value\":0,\"valueType\":\"int\"},{\"name\":\"fgColor\",\"rangeEnd\":55,\"rangeStart\":0,\"value\":\"(255,255,255,255)\",\"valueType\":\"color\"},{\"name\":\"underline\",\"rangeEnd\":55,\"rangeStart\":0,\"value\":0,\"valueType\":\"int\"},{\"name\":\"fontItalic\",\"rangeEnd\":55,\"rangeStart\":0,\"value\":0,\"valueType\":\"int\"},{\"name\":\"fontSize\",\"rangeEnd\":55,\"rangeStart\":0,\"value\":64,\"valueType\":\"double\"},{\"name\":\"fontName\",\"rangeEnd\":55,\"rangeStart\":0,\"value\":\"Montserrat\",\"valueType\":\"string\"},{\"name\":\"fontWeight\",\"rangeEnd\":55,\"rangeStart\":0,\"value\":400,\"valueType\":\"int\"}]",
                      "default-translation0" : 0.0,
                      "default-translation1" : 0.0
                    },
                    "animationTracks" : {

                    }
                  },
                  {
                    "id" : 79,
                    "_type" : "Callout",
                    "def" : {
                      "kind" : "remix",
                      "shape" : "text-rectangle",
                      "style" : "basic",
                      "fill-color-blue" : 0.266666666666667,
                      "fill-color-green" : 0.266666666666667,
                      "fill-color-opacity" : 1.0,
                      "fill-color-red" : 0.266666666666667,
                      "height" : 79.8993711862544,
                      "stroke-color-blue" : 1.0,
                      "stroke-color-green" : 1.0,
                      "stroke-color-opacity" : 1.0,
                      "stroke-color-red" : 1.0,
                      "stroke-width" : 2.0,
                      "tail-x" : -119.642276422434,
                      "tail-y" : 24.2570652058943,
                      "width" : 1815.69105691029,
                      "word-wrap" : 1.0,
                      "fill-style" : "solid",
                      "horizontal-alignment" : "center",
                      "stroke-style" : "solid",
                      "text" : "The attacker is launching its console to access the budget",
                      "vertical-alignment" : "center",
                      "font" : {
                        "color-blue" : 0.266666666666667,
                        "color-green" : 0.231372549019608,
                        "color-opacity" : 1.0,
                        "color-red" : 0.184313725490196,
                        "size" : 64.0,
                        "tracking" : 0.0,
                        "name" : "Montserrat",
                        "weight" : "Regular"
                      },
                      "textAttributes" : {
                        "type" : "textAttributeList",
                        "keyframes" : [
                          {
                            "endTime" : 0,
                            "time" : 0,
                            "value" : [{"name":"fontItalic","rangeEnd":58,"rangeStart":0,"value":0,"valueType":"int"},{"name":"fontWeight","rangeEnd":58,"rangeStart":0,"value":400,"valueType":"int"},{"name":"fontName","rangeEnd":58,"rangeStart":0,"value":"Montserrat","valueType":"string"},{"name":"fgColor","rangeEnd":58,"rangeStart":0,"value":"(255,255,255,255)","valueType":"color"},{"name":"fontSize","rangeEnd":58,"rangeStart":0,"value":55,"valueType":"double"},{"name":"underline","rangeEnd":58,"rangeStart":0,"value":0,"valueType":"int"},{"name":"strikethrough","rangeEnd":58,"rangeStart":0,"value":0,"valueType":"int"}],
                            "duration" : 0
                          }
                        ]
                      }
                    },
                    "attributes" : {
                      "autoRotateText" : true
                    },
                    "parameters" : {
                      "translation0" : 3.65853658504717,
                      "translation1" : -473.190669541674
                    },
                    "effects" : [
                        {
                          "effectName" : "DropShadow",
                          "category" : "categoryVisualEffects",
                          "parameters" : {
                            "angle" : 5.49778714378214,
                            "blur" : 10.0,
                            "color-alpha" : 1.0,
                            "color-blue" : 0.1216,
                            "color-green" : 0.1216,
                            "color-red" : 0.1216,
                            "enabled" : 1,
                            "offset" : 10.0,
                            "opacity" : 0.4
                          }
                        }
                    ],
                    "start" : 1079,
                    "duration" : 165,
                    "mediaStart" : 8,
                    "mediaDuration" : 165,
                    "scalar" : 1,
                    "metadata" : {
                      "WinSubProjectDisplayName" : "",
                      "clipSpeedAttribute" : false,
                      "default-HAlign" : "center",
                      "default-VAlign" : "center",
                      "default-fill-color-blue" : 1.0,
                      "default-fill-color-green" : 1.0,
                      "default-fill-color-red" : 1.0,
                      "default-scale0" : 1.0,
                      "default-scale1" : 1.0,
                      "default-stroke-color-blue" : 0.56078431372549,
                      "default-stroke-color-green" : 0.686274509803922,
                      "default-stroke-color-red" : 0.0196078431372549,
                      "default-text-attributes" : "[{\"name\":\"strikethrough\",\"rangeEnd\":55,\"rangeStart\":0,\"value\":0,\"valueType\":\"int\"},{\"name\":\"fgColor\",\"rangeEnd\":55,\"rangeStart\":0,\"value\":\"(255,255,255,255)\",\"valueType\":\"color\"},{\"name\":\"underline\",\"rangeEnd\":55,\"rangeStart\":0,\"value\":0,\"valueType\":\"int\"},{\"name\":\"fontItalic\",\"rangeEnd\":55,\"rangeStart\":0,\"value\":0,\"valueType\":\"int\"},{\"name\":\"fontSize\",\"rangeEnd\":55,\"rangeStart\":0,\"value\":64,\"valueType\":\"double\"},{\"name\":\"fontName\",\"rangeEnd\":55,\"rangeStart\":0,\"value\":\"Montserrat\",\"valueType\":\"string\"},{\"name\":\"fontWeight\",\"rangeEnd\":55,\"rangeStart\":0,\"value\":400,\"valueType\":\"int\"}]",
                      "default-translation0" : 0.0,
                      "default-translation1" : 0.0
                    },
                    "animationTracks" : {

                    }
                  },
                  {
                    "id" : 80,
                    "_type" : "Callout",
                    "def" : {
                      "kind" : "remix",
                      "shape" : "text-rectangle",
                      "style" : "basic",
                      "fill-color-blue" : 0.266666666666667,
                      "fill-color-green" : 0.266666666666667,
                      "fill-color-opacity" : 1.0,
                      "fill-color-red" : 0.266666666666667,
                      "height" : 97.6722951844191,
                      "stroke-color-blue" : 1.0,
                      "stroke-color-green" : 1.0,
                      "stroke-color-opacity" : 1.0,
                      "stroke-color-red" : 1.0,
                      "stroke-width" : 2.0,
                      "tail-x" : -18.6016293653471,
                      "tail-y" : 22.0662914322938,
                      "width" : 1413.60976279603,
                      "word-wrap" : 1.0,
                      "fill-style" : "solid",
                      "horizontal-alignment" : "center",
                      "stroke-style" : "solid",
                      "text" : "The attacker tries to open the budget file",
                      "vertical-alignment" : "center",
                      "font" : {
                        "color-blue" : 0.266666666666667,
                        "color-green" : 0.231372549019608,
                        "color-opacity" : 1.0,
                        "color-red" : 0.184313725490196,
                        "size" : 64.0,
                        "tracking" : 0.0,
                        "name" : "Montserrat",
                        "weight" : "Regular"
                      },
                      "textAttributes" : {
                        "type" : "textAttributeList",
                        "keyframes" : [
                          {
                            "endTime" : 0,
                            "time" : 0,
                            "value" : [{"name":"fontItalic","rangeEnd":42,"rangeStart":0,"value":0,"valueType":"int"},{"name":"underline","rangeEnd":42,"rangeStart":0,"value":0,"valueType":"int"},{"name":"fontSize","rangeEnd":42,"rangeStart":0,"value":55,"valueType":"double"},{"name":"fontWeight","rangeEnd":42,"rangeStart":0,"value":400,"valueType":"int"},{"name":"fontName","rangeEnd":42,"rangeStart":0,"value":"Montserrat","valueType":"string"},{"name":"strikethrough","rangeEnd":42,"rangeStart":0,"value":0,"valueType":"int"},{"name":"fgColor","rangeEnd":42,"rangeStart":0,"value":"(255,255,255,255)","valueType":"color"}],
                            "duration" : 0
                          }
                        ]
                      }
                    },
                    "attributes" : {
                      "autoRotateText" : true
                    },
                    "parameters" : {
                      "translation0" : -14.4552812037553,
                      "translation1" : -464.732958098721
                    },
                    "effects" : [
                        {
                          "effectName" : "DropShadow",
                          "category" : "categoryVisualEffects",
                          "parameters" : {
                            "angle" : 5.49778714378214,
                            "blur" : 10.0,
                            "color-alpha" : 1.0,
                            "color-blue" : 0.1216,
                            "color-green" : 0.1216,
                            "color-red" : 0.1216,
                            "enabled" : 1,
                            "offset" : 10.0,
                            "opacity" : 0.4
                          }
                        }
                    ],
                    "start" : 1263,
                    "duration" : 106,
                    "mediaStart" : -4,
                    "mediaDuration" : 106,
                    "scalar" : 1,
                    "metadata" : {
                      "WinSubProjectDisplayName" : "",
                      "clipSpeedAttribute" : false,
                      "default-HAlign" : "center",
                      "default-VAlign" : "center",
                      "default-fill-color-blue" : 1.0,
                      "default-fill-color-green" : 1.0,
                      "default-fill-color-red" : 1.0,
                      "default-scale0" : 1.0,
                      "default-scale1" : 1.0,
                      "default-stroke-color-blue" : 0.56078431372549,
                      "default-stroke-color-green" : 0.686274509803922,
                      "default-stroke-color-red" : 0.0196078431372549,
                      "default-text-attributes" : "[{\"name\":\"strikethrough\",\"rangeEnd\":55,\"rangeStart\":0,\"value\":0,\"valueType\":\"int\"},{\"name\":\"fgColor\",\"rangeEnd\":55,\"rangeStart\":0,\"value\":\"(255,255,255,255)\",\"valueType\":\"color\"},{\"name\":\"underline\",\"rangeEnd\":55,\"rangeStart\":0,\"value\":0,\"valueType\":\"int\"},{\"name\":\"fontItalic\",\"rangeEnd\":55,\"rangeStart\":0,\"value\":0,\"valueType\":\"int\"},{\"name\":\"fontSize\",\"rangeEnd\":55,\"rangeStart\":0,\"value\":64,\"valueType\":\"double\"},{\"name\":\"fontName\",\"rangeEnd\":55,\"rangeStart\":0,\"value\":\"Montserrat\",\"valueType\":\"string\"},{\"name\":\"fontWeight\",\"rangeEnd\":55,\"rangeStart\":0,\"value\":400,\"valueType\":\"int\"}]",
                      "default-translation0" : 0.0,
                      "default-translation1" : 0.0
                    },
                    "animationTracks" : {

                    }
                  },
                  {
                    "id" : 81,
                    "_type" : "Callout",
                    "def" : {
                      "kind" : "remix",
                      "shape" : "text-rectangle",
                      "style" : "basic",
                      "fill-color-blue" : 0.2,
                      "fill-color-green" : 0.4,
                      "fill-color-opacity" : 1.0,
                      "fill-color-red" : 0.0,
                      "height" : 135.783764105827,
                      "stroke-color-blue" : 1.0,
                      "stroke-color-green" : 1.0,
                      "stroke-color-opacity" : 1.0,
                      "stroke-color-red" : 1.0,
                      "stroke-width" : 2.0,
                      "tail-x" : -10.0650439993362,
                      "tail-y" : -4.12591825068685,
                      "width" : 1591.06920845335,
                      "word-wrap" : 1.0,
                      "fill-style" : "solid",
                      "horizontal-alignment" : "center",
                      "stroke-style" : "solid",
                      "text" : "The attacker fails to open the budget file. \rOS protects the budget file.",
                      "vertical-alignment" : "center",
                      "font" : {
                        "color-blue" : 0.266666666666667,
                        "color-green" : 0.231372549019608,
                        "color-opacity" : 1.0,
                        "color-red" : 0.184313725490196,
                        "size" : 64.0,
                        "tracking" : 0.0,
                        "name" : "Montserrat",
                        "weight" : "Regular"
                      },
                      "textAttributes" : {
                        "type" : "textAttributeList",
                        "keyframes" : [
                          {
                            "endTime" : 0,
                            "time" : 0,
                            "value" : [{"name":"fontSize","rangeEnd":73,"rangeStart":0,"value":55,"valueType":"double"},{"name":"strikethrough","rangeEnd":73,"rangeStart":0,"value":0,"valueType":"int"},{"name":"fontWeight","rangeEnd":73,"rangeStart":0,"value":400,"valueType":"int"},{"name":"fgColor","rangeEnd":73,"rangeStart":0,"value":"(255,255,255,255)","valueType":"color"},{"name":"fontItalic","rangeEnd":73,"rangeStart":0,"value":0,"valueType":"int"},{"name":"underline","rangeEnd":73,"rangeStart":0,"value":0,"valueType":"int"},{"name":"fontName","rangeEnd":73,"rangeStart":0,"value":"Montserrat","valueType":"string"}],
                            "duration" : 0
                          }
                        ]
                      }
                    },
                    "attributes" : {
                      "autoRotateText" : true
                    },
                    "parameters" : {
                      "translation0" : -22.9918665697662,
                      "translation1" : -438.54074841574
                    },
                    "effects" : [
                        {
                          "effectName" : "DropShadow",
                          "category" : "categoryVisualEffects",
                          "parameters" : {
                            "angle" : 5.49778714378214,
                            "blur" : 10.0,
                            "color-alpha" : 1.0,
                            "color-blue" : 0.1216,
                            "color-green" : 0.1216,
                            "color-red" : 0.1216,
                            "enabled" : 1,
                            "offset" : 10.0,
                            "opacity" : 0.4
                          }
                        }
                    ],
                    "start" : 1380,
                    "duration" : 94,
                    "mediaStart" : 8,
                    "mediaDuration" : 94,
                    "scalar" : 1,
                    "metadata" : {
                      "WinSubProjectDisplayName" : "",
                      "clipSpeedAttribute" : false,
                      "default-HAlign" : "center",
                      "default-VAlign" : "center",
                      "default-fill-color-blue" : 1.0,
                      "default-fill-color-green" : 1.0,
                      "default-fill-color-red" : 1.0,
                      "default-scale0" : 1.0,
                      "default-scale1" : 1.0,
                      "default-stroke-color-blue" : 0.56078431372549,
                      "default-stroke-color-green" : 0.686274509803922,
                      "default-stroke-color-red" : 0.0196078431372549,
                      "default-text-attributes" : "[{\"name\":\"strikethrough\",\"rangeEnd\":55,\"rangeStart\":0,\"value\":0,\"valueType\":\"int\"},{\"name\":\"fgColor\",\"rangeEnd\":55,\"rangeStart\":0,\"value\":\"(255,255,255,255)\",\"valueType\":\"color\"},{\"name\":\"underline\",\"rangeEnd\":55,\"rangeStart\":0,\"value\":0,\"valueType\":\"int\"},{\"name\":\"fontItalic\",\"rangeEnd\":55,\"rangeStart\":0,\"value\":0,\"valueType\":\"int\"},{\"name\":\"fontSize\",\"rangeEnd\":55,\"rangeStart\":0,\"value\":64,\"valueType\":\"double\"},{\"name\":\"fontName\",\"rangeEnd\":55,\"rangeStart\":0,\"value\":\"Montserrat\",\"valueType\":\"string\"},{\"name\":\"fontWeight\",\"rangeEnd\":55,\"rangeStart\":0,\"value\":400,\"valueType\":\"int\"}]",
                      "default-translation0" : 0.0,
                      "default-translation1" : 0.0
                    },
                    "animationTracks" : {

                    }
                  },
                  {
                    "id" : 82,
                    "_type" : "Callout",
                    "def" : {
                      "kind" : "remix",
                      "shape" : "text-rectangle",
                      "style" : "basic",
                      "fill-color-blue" : 0.266666666666667,
                      "fill-color-green" : 0.266666666666667,
                      "fill-color-opacity" : 1.0,
                      "fill-color-red" : 0.266666666666667,
                      "height" : 76.8389618509351,
                      "stroke-color-blue" : 1.0,
                      "stroke-color-green" : 1.0,
                      "stroke-color-opacity" : 1.0,
                      "stroke-color-red" : 1.0,
                      "stroke-width" : 2.0,
                      "tail-x" : -17.3821171700865,
                      "tail-y" : 32.4829580990358,
                      "width" : 1635.56098230815,
                      "word-wrap" : 1.0,
                      "fill-style" : "solid",
                      "horizontal-alignment" : "center",
                      "stroke-style" : "solid",
                      "text" : "The attacker copies the address of the target FILE_OBJECT",
                      "vertical-alignment" : "center",
                      "font" : {
                        "color-blue" : 0.266666666666667,
                        "color-green" : 0.231372549019608,
                        "color-opacity" : 1.0,
                        "color-red" : 0.184313725490196,
                        "size" : 64.0,
                        "tracking" : 0.0,
                        "name" : "Montserrat",
                        "weight" : "Regular"
                      },
                      "textAttributes" : {
                        "type" : "textAttributeList",
                        "keyframes" : [
                          {
                            "endTime" : 0,
                            "time" : 0,
                            "value" : [{"name":"fontName","rangeEnd":57,"rangeStart":0,"value":"Montserrat","valueType":"string"},{"name":"fontSize","rangeEnd":57,"rangeStart":0,"value":55,"valueType":"double"},{"name":"strikethrough","rangeEnd":57,"rangeStart":0,"value":0,"valueType":"int"},{"name":"fontWeight","rangeEnd":57,"rangeStart":0,"value":400,"valueType":"int"},{"name":"fontItalic","rangeEnd":57,"rangeStart":0,"value":0,"valueType":"int"},{"name":"underline","rangeEnd":57,"rangeStart":0,"value":0,"valueType":"int"},{"name":"fgColor","rangeEnd":57,"rangeStart":0,"value":"(255,255,255,255)","valueType":"color"}],
                            "duration" : 0
                          }
                        ]
                      }
                    },
                    "attributes" : {
                      "autoRotateText" : true
                    },
                    "parameters" : {
                      "translation0" : -15.6747933990159,
                      "translation1" : -475.149624765463
                    },
                    "effects" : [
                        {
                          "effectName" : "DropShadow",
                          "category" : "categoryVisualEffects",
                          "parameters" : {
                            "angle" : 5.49778714378214,
                            "blur" : 10.0,
                            "color-alpha" : 1.0,
                            "color-blue" : 0.1216,
                            "color-green" : 0.1216,
                            "color-red" : 0.1216,
                            "enabled" : 1,
                            "offset" : 10.0,
                            "opacity" : 0.4
                          }
                        }
                    ],
                    "start" : 1484,
                    "duration" : 169,
                    "mediaStart" : 8,
                    "mediaDuration" : 169,
                    "scalar" : 1,
                    "metadata" : {
                      "WinSubProjectDisplayName" : "",
                      "clipSpeedAttribute" : false,
                      "default-HAlign" : "center",
                      "default-VAlign" : "center",
                      "default-fill-color-blue" : 1.0,
                      "default-fill-color-green" : 1.0,
                      "default-fill-color-red" : 1.0,
                      "default-scale0" : 1.0,
                      "default-scale1" : 1.0,
                      "default-stroke-color-blue" : 0.56078431372549,
                      "default-stroke-color-green" : 0.686274509803922,
                      "default-stroke-color-red" : 0.0196078431372549,
                      "default-text-attributes" : "[{\"name\":\"strikethrough\",\"rangeEnd\":55,\"rangeStart\":0,\"value\":0,\"valueType\":\"int\"},{\"name\":\"fgColor\",\"rangeEnd\":55,\"rangeStart\":0,\"value\":\"(255,255,255,255)\",\"valueType\":\"color\"},{\"name\":\"underline\",\"rangeEnd\":55,\"rangeStart\":0,\"value\":0,\"valueType\":\"int\"},{\"name\":\"fontItalic\",\"rangeEnd\":55,\"rangeStart\":0,\"value\":0,\"valueType\":\"int\"},{\"name\":\"fontSize\",\"rangeEnd\":55,\"rangeStart\":0,\"value\":64,\"valueType\":\"double\"},{\"name\":\"fontName\",\"rangeEnd\":55,\"rangeStart\":0,\"value\":\"Montserrat\",\"valueType\":\"string\"},{\"name\":\"fontWeight\",\"rangeEnd\":55,\"rangeStart\":0,\"value\":400,\"valueType\":\"int\"}]",
                      "default-translation0" : 0.0,
                      "default-translation1" : 0.0
                    },
                    "animationTracks" : {

                    }
                  },
                  {
                    "id" : 83,
                    "_type" : "Callout",
                    "def" : {
                      "kind" : "remix",
                      "shape" : "text-rectangle",
                      "style" : "basic",
                      "fill-color-blue" : 0.266666666666667,
                      "fill-color-green" : 0.266666666666667,
                      "fill-color-opacity" : 1.0,
                      "fill-color-red" : 0.266666666666667,
                      "height" : 86.0056285178256,
                      "stroke-color-blue" : 1.0,
                      "stroke-color-green" : 1.0,
                      "stroke-color-opacity" : 1.0,
                      "stroke-color-red" : 1.0,
                      "stroke-width" : 2.0,
                      "tail-x" : -232.382117170164,
                      "tail-y" : 27.8996247655906,
                      "width" : 865.56098230811,
                      "word-wrap" : 1.0,
                      "fill-style" : "solid",
                      "horizontal-alignment" : "center",
                      "stroke-style" : "solid",
                      "text" : "The new attack: file hijacking",
                      "vertical-alignment" : "center",
                      "font" : {
                        "color-blue" : 0.266666666666667,
                        "color-green" : 0.231372549019608,
                        "color-opacity" : 1.0,
                        "color-red" : 0.184313725490196,
                        "size" : 64.0,
                        "tracking" : 0.0,
                        "name" : "Montserrat",
                        "weight" : "Regular"
                      },
                      "textAttributes" : {
                        "type" : "textAttributeList",
                        "keyframes" : [
                          {
                            "endTime" : 0,
                            "time" : 0,
                            "value" : [{"name":"strikethrough","rangeEnd":30,"rangeStart":0,"value":0,"valueType":"int"},{"name":"underline","rangeEnd":30,"rangeStart":0,"value":0,"valueType":"int"},{"name":"fgColor","rangeEnd":30,"rangeStart":0,"value":"(255,255,255,255)","valueType":"color"},{"name":"fontItalic","rangeEnd":30,"rangeStart":0,"value":0,"valueType":"int"},{"name":"fontWeight","rangeEnd":30,"rangeStart":0,"value":400,"valueType":"int"},{"name":"fontSize","rangeEnd":30,"rangeStart":0,"value":55,"valueType":"double"},{"name":"fontName","rangeEnd":30,"rangeStart":0,"value":"Montserrat","valueType":"string"}],
                            "duration" : 0
                          }
                        ]
                      }
                    },
                    "attributes" : {
                      "autoRotateText" : true
                    },
                    "parameters" : {
                      "translation0" : 60.8333333334915,
                      "translation1" : -468.082813974876
                    },
                    "effects" : [
                        {
                          "effectName" : "DropShadow",
                          "category" : "categoryVisualEffects",
                          "parameters" : {
                            "angle" : 5.49778714378214,
                            "blur" : 10.0,
                            "color-alpha" : 1.0,
                            "color-blue" : 0.1216,
                            "color-green" : 0.1216,
                            "color-red" : 0.1216,
                            "enabled" : 1,
                            "offset" : 10.0,
                            "opacity" : 0.4
                          }
                        }
                    ],
                    "start" : 1653,
                    "duration" : 67,
                    "mediaStart" : 46,
                    "mediaDuration" : 67,
                    "scalar" : 1,
                    "metadata" : {
                      "WinSubProjectDisplayName" : "",
                      "clipSpeedAttribute" : false,
                      "default-HAlign" : "center",
                      "default-VAlign" : "center",
                      "default-fill-color-blue" : 1.0,
                      "default-fill-color-green" : 1.0,
                      "default-fill-color-red" : 1.0,
                      "default-scale0" : 1.0,
                      "default-scale1" : 1.0,
                      "default-stroke-color-blue" : 0.56078431372549,
                      "default-stroke-color-green" : 0.686274509803922,
                      "default-stroke-color-red" : 0.0196078431372549,
                      "default-text-attributes" : "[{\"name\":\"strikethrough\",\"rangeEnd\":55,\"rangeStart\":0,\"value\":0,\"valueType\":\"int\"},{\"name\":\"fgColor\",\"rangeEnd\":55,\"rangeStart\":0,\"value\":\"(255,255,255,255)\",\"valueType\":\"color\"},{\"name\":\"underline\",\"rangeEnd\":55,\"rangeStart\":0,\"value\":0,\"valueType\":\"int\"},{\"name\":\"fontItalic\",\"rangeEnd\":55,\"rangeStart\":0,\"value\":0,\"valueType\":\"int\"},{\"name\":\"fontSize\",\"rangeEnd\":55,\"rangeStart\":0,\"value\":64,\"valueType\":\"double\"},{\"name\":\"fontName\",\"rangeEnd\":55,\"rangeStart\":0,\"value\":\"Montserrat\",\"valueType\":\"string\"},{\"name\":\"fontWeight\",\"rangeEnd\":55,\"rangeStart\":0,\"value\":400,\"valueType\":\"int\"}]",
                      "default-translation0" : 0.0,
                      "default-translation1" : 0.0
                    },
                    "animationTracks" : {

                    }
                  },
                  {
                    "id" : 84,
                    "_type" : "Callout",
                    "def" : {
                      "kind" : "remix",
                      "shape" : "text-rectangle",
                      "style" : "basic",
                      "fill-color-blue" : 0.266666666666667,
                      "fill-color-green" : 0.266666666666667,
                      "fill-color-opacity" : 1.0,
                      "fill-color-red" : 0.266666666666667,
                      "height" : 97.6722951844191,
                      "stroke-color-blue" : 1.0,
                      "stroke-color-green" : 1.0,
                      "stroke-color-opacity" : 1.0,
                      "stroke-color-red" : 1.0,
                      "stroke-width" : 2.0,
                      "tail-x" : -28.3577269260403,
                      "tail-y" : 22.0662914322938,
                      "width" : 1657.51220182006,
                      "word-wrap" : 1.0,
                      "fill-style" : "solid",
                      "horizontal-alignment" : "center",
                      "stroke-style" : "solid",
                      "text" : "The attacker tries to hijack the copied target FILE_OBJECT",
                      "vertical-alignment" : "center",
                      "font" : {
                        "color-blue" : 0.266666666666667,
                        "color-green" : 0.231372549019608,
                        "color-opacity" : 1.0,
                        "color-red" : 0.184313725490196,
                        "size" : 64.0,
                        "tracking" : 0.0,
                        "name" : "Montserrat",
                        "weight" : "Regular"
                      },
                      "textAttributes" : {
                        "type" : "textAttributeList",
                        "keyframes" : [
                          {
                            "endTime" : 0,
                            "time" : 0,
                            "value" : [{"name":"fontName","rangeEnd":58,"rangeStart":0,"value":"Montserrat","valueType":"string"},{"name":"fontSize","rangeEnd":58,"rangeStart":0,"value":55,"valueType":"double"},{"name":"underline","rangeEnd":58,"rangeStart":0,"value":0,"valueType":"int"},{"name":"fontWeight","rangeEnd":58,"rangeStart":0,"value":400,"valueType":"int"},{"name":"fgColor","rangeEnd":58,"rangeStart":0,"value":"(255,255,255,255)","valueType":"color"},{"name":"strikethrough","rangeEnd":58,"rangeStart":0,"value":0,"valueType":"int"},{"name":"fontItalic","rangeEnd":58,"rangeStart":0,"value":0,"valueType":"int"}],
                            "duration" : 0
                          }
                        ]
                      }
                    },
                    "attributes" : {
                      "autoRotateText" : true
                    },
                    "parameters" : {
                      "translation0" : -4.69918364306207,
                      "translation1" : -464.732958098721
                    },
                    "effects" : [
                        {
                          "effectName" : "DropShadow",
                          "category" : "categoryVisualEffects",
                          "parameters" : {
                            "angle" : 5.49778714378214,
                            "blur" : 10.0,
                            "color-alpha" : 1.0,
                            "color-blue" : 0.1216,
                            "color-green" : 0.1216,
                            "color-red" : 0.1216,
                            "enabled" : 1,
                            "offset" : 10.0,
                            "opacity" : 0.4
                          }
                        }
                    ],
                    "start" : 1720,
                    "duration" : 132,
                    "mediaStart" : 33,
                    "mediaDuration" : 132,
                    "scalar" : 1,
                    "metadata" : {
                      "WinSubProjectDisplayName" : "",
                      "clipSpeedAttribute" : false,
                      "default-HAlign" : "center",
                      "default-VAlign" : "center",
                      "default-fill-color-blue" : 1.0,
                      "default-fill-color-green" : 1.0,
                      "default-fill-color-red" : 1.0,
                      "default-scale0" : 1.0,
                      "default-scale1" : 1.0,
                      "default-stroke-color-blue" : 0.56078431372549,
                      "default-stroke-color-green" : 0.686274509803922,
                      "default-stroke-color-red" : 0.0196078431372549,
                      "default-text-attributes" : "[{\"name\":\"strikethrough\",\"rangeEnd\":55,\"rangeStart\":0,\"value\":0,\"valueType\":\"int\"},{\"name\":\"fgColor\",\"rangeEnd\":55,\"rangeStart\":0,\"value\":\"(255,255,255,255)\",\"valueType\":\"color\"},{\"name\":\"underline\",\"rangeEnd\":55,\"rangeStart\":0,\"value\":0,\"valueType\":\"int\"},{\"name\":\"fontItalic\",\"rangeEnd\":55,\"rangeStart\":0,\"value\":0,\"valueType\":\"int\"},{\"name\":\"fontSize\",\"rangeEnd\":55,\"rangeStart\":0,\"value\":64,\"valueType\":\"double\"},{\"name\":\"fontName\",\"rangeEnd\":55,\"rangeStart\":0,\"value\":\"Montserrat\",\"valueType\":\"string\"},{\"name\":\"fontWeight\",\"rangeEnd\":55,\"rangeStart\":0,\"value\":400,\"valueType\":\"int\"}]",
                      "default-translation0" : 0.0,
                      "default-translation1" : 0.0
                    },
                    "animationTracks" : {

                    }
                  },
                  {
                    "id" : 85,
                    "_type" : "Callout",
                    "def" : {
                      "kind" : "remix",
                      "shape" : "text-rectangle",
                      "style" : "basic",
                      "fill-color-blue" : 0.2,
                      "fill-color-green" : 0.4,
                      "fill-color-opacity" : 1.0,
                      "fill-color-red" : 0.0,
                      "height" : 165.054894383443,
                      "stroke-color-blue" : 1.0,
                      "stroke-color-green" : 1.0,
                      "stroke-color-opacity" : 1.0,
                      "stroke-color-red" : 1.0,
                      "stroke-width" : 2.0,
                      "tail-x" : -68.9600755676703,
                      "tail-y" : -32.3749171586211,
                      "width" : 1615.40470147632,
                      "word-wrap" : 1.0,
                      "fill-style" : "solid",
                      "horizontal-alignment" : "center",
                      "stroke-style" : "solid",
                      "text" : "But now, the attacker has failed to hijack the budget. \rThe attacker cannot access the target FILE_OBJECT.",
                      "vertical-alignment" : "center",
                      "font" : {
                        "color-blue" : 0.266666666666667,
                        "color-green" : 0.231372549019608,
                        "color-opacity" : 1.0,
                        "color-red" : 0.184313725490196,
                        "size" : 64.0,
                        "tracking" : 0.0,
                        "name" : "Montserrat",
                        "weight" : "Regular"
                      },
                      "textAttributes" : {
                        "type" : "textAttributeList",
                        "keyframes" : [
                          {
                            "endTime" : 0,
                            "time" : 0,
                            "value" : [{"name":"fgColor","rangeEnd":106,"rangeStart":0,"value":"(255,255,255,255)","valueType":"color"},{"name":"fontName","rangeEnd":106,"rangeStart":0,"value":"Montserrat","valueType":"string"},{"name":"strikethrough","rangeEnd":106,"rangeStart":0,"value":0,"valueType":"int"},{"name":"fontItalic","rangeEnd":106,"rangeStart":0,"value":0,"valueType":"int"},{"name":"fontSize","rangeEnd":106,"rangeStart":0,"value":55,"valueType":"double"},{"name":"underline","rangeEnd":106,"rangeStart":0,"value":0,"valueType":"int"},{"name":"fontWeight","rangeEnd":106,"rangeStart":0,"value":400,"valueType":"int"}],
                            "duration" : 0
                          }
                        ]
                      }
                    },
                    "attributes" : {
                      "autoRotateText" : true
                    },
                    "parameters" : {
                      "translation0" : 26.1470674375925,
                      "translation1" : -410.291749507805
                    },
                    "effects" : [
                        {
                          "effectName" : "DropShadow",
                          "category" : "categoryVisualEffects",
                          "parameters" : {
                            "angle" : 5.49778714378214,
                            "blur" : 10.0,
                            "color-alpha" : 1.0,
                            "color-blue" : 0.1216,
                            "color-green" : 0.1216,
                            "color-red" : 0.1216,
                            "enabled" : 1,
                            "offset" : 10.0,
                            "opacity" : 0.4
                          }
                        }
                    ],
                    "start" : 1867,
                    "duration" : 132,
                    "mediaStart" : 13,
                    "mediaDuration" : 132,
                    "scalar" : 1,
                    "metadata" : {
                      "WinSubProjectDisplayName" : "",
                      "clipSpeedAttribute" : false,
                      "default-HAlign" : "center",
                      "default-VAlign" : "center",
                      "default-fill-color-blue" : 1.0,
                      "default-fill-color-green" : 1.0,
                      "default-fill-color-red" : 1.0,
                      "default-scale0" : 1.0,
                      "default-scale1" : 1.0,
                      "default-stroke-color-blue" : 0.56078431372549,
                      "default-stroke-color-green" : 0.686274509803922,
                      "default-stroke-color-red" : 0.0196078431372549,
                      "default-text-attributes" : "[{\"name\":\"strikethrough\",\"rangeEnd\":55,\"rangeStart\":0,\"value\":0,\"valueType\":\"int\"},{\"name\":\"fgColor\",\"rangeEnd\":55,\"rangeStart\":0,\"value\":\"(255,255,255,255)\",\"valueType\":\"color\"},{\"name\":\"underline\",\"rangeEnd\":55,\"rangeStart\":0,\"value\":0,\"valueType\":\"int\"},{\"name\":\"fontItalic\",\"rangeEnd\":55,\"rangeStart\":0,\"value\":0,\"valueType\":\"int\"},{\"name\":\"fontSize\",\"rangeEnd\":55,\"rangeStart\":0,\"value\":64,\"valueType\":\"double\"},{\"name\":\"fontName\",\"rangeEnd\":55,\"rangeStart\":0,\"value\":\"Montserrat\",\"valueType\":\"string\"},{\"name\":\"fontWeight\",\"rangeEnd\":55,\"rangeStart\":0,\"value\":400,\"valueType\":\"int\"}]",
                      "default-translation0" : 0.0,
                      "default-translation1" : 0.0
                    },
                    "animationTracks" : {

                    }
                  },
                  {
                    "id" : 86,
                    "_type" : "Callout",
                    "def" : {
                      "kind" : "remix",
                      "shape" : "text-rectangle",
                      "style" : "basic",
                      "fill-color-blue" : 0.266666666666667,
                      "fill-color-green" : 0.266666666666667,
                      "fill-color-opacity" : 1.0,
                      "fill-color-red" : 0.266666666666667,
                      "height" : 90.3552220138162,
                      "stroke-color-blue" : 1.0,
                      "stroke-color-green" : 1.0,
                      "stroke-color-opacity" : 1.0,
                      "stroke-color-red" : 1.0,
                      "stroke-width" : 2.0,
                      "tail-x" : -12.5040683893626,
                      "tail-y" : -1.10444027490661,
                      "width" : 1796.53659206415,
                      "word-wrap" : 1.0,
                      "fill-style" : "solid",
                      "horizontal-alignment" : "center",
                      "stroke-style" : "solid",
                      "text" : "The attacker reads the file hijacker",
                      "vertical-alignment" : "center",
                      "font" : {
                        "color-blue" : 0.266666666666667,
                        "color-green" : 0.231372549019608,
                        "color-opacity" : 1.0,
                        "color-red" : 0.184313725490196,
                        "size" : 64.0,
                        "tracking" : 0.0,
                        "name" : "Montserrat",
                        "weight" : "Regular"
                      },
                      "textAttributes" : {
                        "type" : "textAttributeList",
                        "keyframes" : [
                          {
                            "endTime" : 0,
                            "time" : 0,
                            "value" : [{"name":"fontItalic","rangeEnd":36,"rangeStart":0,"value":0,"valueType":"int"},{"name":"fontSize","rangeEnd":36,"rangeStart":0,"value":55,"valueType":"double"},{"name":"strikethrough","rangeEnd":36,"rangeStart":0,"value":0,"valueType":"int"},{"name":"fgColor","rangeEnd":36,"rangeStart":0,"value":"(255,255,255,255)","valueType":"color"},{"name":"underline","rangeEnd":36,"rangeStart":0,"value":0,"valueType":"int"},{"name":"fontWeight","rangeEnd":36,"rangeStart":0,"value":400,"valueType":"int"},{"name":"fontName","rangeEnd":36,"rangeStart":0,"value":"Montserrat","valueType":"string"}],
                            "duration" : 0
                          }
                        ]
                      }
                    },
                    "attributes" : {
                      "autoRotateText" : true
                    },
                    "parameters" : {
                      "translation0" : -20.5528421797398,
                      "translation1" : -441.562226391521
                    },
                    "effects" : [
                        {
                          "effectName" : "DropShadow",
                          "category" : "categoryVisualEffects",
                          "parameters" : {
                            "angle" : 5.49778714378214,
                            "blur" : 10.0,
                            "color-alpha" : 1.0,
                            "color-blue" : 0.1216,
                            "color-green" : 0.1216,
                            "color-red" : 0.1216,
                            "enabled" : 1,
                            "offset" : 10.0,
                            "opacity" : 0.4
                          }
                        }
                    ],
                    "start" : 2000,
                    "duration" : 115,
                    "mediaStart" : 33,
                    "mediaDuration" : 115,
                    "scalar" : 1,
                    "metadata" : {
                      "WinSubProjectDisplayName" : "",
                      "clipSpeedAttribute" : false,
                      "default-HAlign" : "center",
                      "default-VAlign" : "center",
                      "default-fill-color-blue" : 1.0,
                      "default-fill-color-green" : 1.0,
                      "default-fill-color-red" : 1.0,
                      "default-scale0" : 1.0,
                      "default-scale1" : 1.0,
                      "default-stroke-color-blue" : 0.56078431372549,
                      "default-stroke-color-green" : 0.686274509803922,
                      "default-stroke-color-red" : 0.0196078431372549,
                      "default-text-attributes" : "[{\"name\":\"strikethrough\",\"rangeEnd\":55,\"rangeStart\":0,\"value\":0,\"valueType\":\"int\"},{\"name\":\"fgColor\",\"rangeEnd\":55,\"rangeStart\":0,\"value\":\"(255,255,255,255)\",\"valueType\":\"color\"},{\"name\":\"underline\",\"rangeEnd\":55,\"rangeStart\":0,\"value\":0,\"valueType\":\"int\"},{\"name\":\"fontItalic\",\"rangeEnd\":55,\"rangeStart\":0,\"value\":0,\"valueType\":\"int\"},{\"name\":\"fontSize\",\"rangeEnd\":55,\"rangeStart\":0,\"value\":64,\"valueType\":\"double\"},{\"name\":\"fontName\",\"rangeEnd\":55,\"rangeStart\":0,\"value\":\"Montserrat\",\"valueType\":\"string\"},{\"name\":\"fontWeight\",\"rangeEnd\":55,\"rangeStart\":0,\"value\":400,\"valueType\":\"int\"}]",
                      "default-translation0" : 0.0,
                      "default-translation1" : 0.0
                    },
                    "animationTracks" : {

                    }
                  },
                  {
                    "id" : 87,
                    "_type" : "Callout",
                    "def" : {
                      "kind" : "remix",
                      "shape" : "text-rectangle",
                      "style" : "basic",
                      "fill-color-blue" : 0.2,
                      "fill-color-green" : 0.4,
                      "fill-color-opacity" : 1.0,
                      "fill-color-red" : 0.0,
                      "height" : 152.813257041698,
                      "stroke-color-blue" : 1.0,
                      "stroke-color-green" : 1.0,
                      "stroke-color-opacity" : 1.0,
                      "stroke-color-red" : 1.0,
                      "stroke-width" : 2.0,
                      "tail-x" : -17.3821171700865,
                      "tail-y" : -36.847473078509,
                      "width" : 1635.56098230815,
                      "word-wrap" : 1.0,
                      "fill-style" : "solid",
                      "horizontal-alignment" : "center",
                      "stroke-style" : "solid",
                      "text" : "The attacker is unable to read the budget.\rMemoryRanger returns the fake null data.",
                      "vertical-alignment" : "center",
                      "font" : {
                        "color-blue" : 0.266666666666667,
                        "color-green" : 0.231372549019608,
                        "color-opacity" : 1.0,
                        "color-red" : 0.184313725490196,
                        "size" : 64.0,
                        "tracking" : 0.0,
                        "name" : "Montserrat",
                        "weight" : "Regular"
                      },
                      "textAttributes" : {
                        "type" : "textAttributeList",
                        "keyframes" : [
                          {
                            "endTime" : 0,
                            "time" : 0,
                            "value" : [{"name":"fontItalic","rangeEnd":83,"rangeStart":0,"value":0,"valueType":"int"},{"name":"underline","rangeEnd":83,"rangeStart":0,"value":0,"valueType":"int"},{"name":"fgColor","rangeEnd":83,"rangeStart":0,"value":"(255,255,255,255)","valueType":"color"},{"name":"fontSize","rangeEnd":83,"rangeStart":0,"value":55,"valueType":"double"},{"name":"fontWeight","rangeEnd":83,"rangeStart":0,"value":400,"valueType":"int"},{"name":"fontName","rangeEnd":83,"rangeStart":0,"value":"Montserrat","valueType":"string"},{"name":"strikethrough","rangeEnd":83,"rangeStart":0,"value":0,"valueType":"int"}],
                            "duration" : 0
                          }
                        ]
                      }
                    },
                    "attributes" : {
                      "autoRotateText" : true
                    },
                    "parameters" : {
                      "translation0" : -15.6747933990159,
                      "translation1" : -405.819193587918
                    },
                    "effects" : [
                        {
                          "effectName" : "DropShadow",
                          "category" : "categoryVisualEffects",
                          "parameters" : {
                            "angle" : 5.49778714378214,
                            "blur" : 10.0,
                            "color-alpha" : 1.0,
                            "color-blue" : 0.1216,
                            "color-green" : 0.1216,
                            "color-red" : 0.1216,
                            "enabled" : 1,
                            "offset" : 10.0,
                            "opacity" : 0.4
                          }
                        }
                    ],
                    "start" : 2129,
                    "duration" : 243,
                    "mediaStart" : 33,
                    "mediaDuration" : 243,
                    "scalar" : 1,
                    "metadata" : {
                      "WinSubProjectDisplayName" : "",
                      "clipSpeedAttribute" : false,
                      "default-HAlign" : "center",
                      "default-VAlign" : "center",
                      "default-fill-color-blue" : 1.0,
                      "default-fill-color-green" : 1.0,
                      "default-fill-color-red" : 1.0,
                      "default-scale0" : 1.0,
                      "default-scale1" : 1.0,
                      "default-stroke-color-blue" : 0.56078431372549,
                      "default-stroke-color-green" : 0.686274509803922,
                      "default-stroke-color-red" : 0.0196078431372549,
                      "default-text-attributes" : "[{\"name\":\"strikethrough\",\"rangeEnd\":55,\"rangeStart\":0,\"value\":0,\"valueType\":\"int\"},{\"name\":\"fgColor\",\"rangeEnd\":55,\"rangeStart\":0,\"value\":\"(255,255,255,255)\",\"valueType\":\"color\"},{\"name\":\"underline\",\"rangeEnd\":55,\"rangeStart\":0,\"value\":0,\"valueType\":\"int\"},{\"name\":\"fontItalic\",\"rangeEnd\":55,\"rangeStart\":0,\"value\":0,\"valueType\":\"int\"},{\"name\":\"fontSize\",\"rangeEnd\":55,\"rangeStart\":0,\"value\":64,\"valueType\":\"double\"},{\"name\":\"fontName\",\"rangeEnd\":55,\"rangeStart\":0,\"value\":\"Montserrat\",\"valueType\":\"string\"},{\"name\":\"fontWeight\",\"rangeEnd\":55,\"rangeStart\":0,\"value\":400,\"valueType\":\"int\"}]",
                      "default-translation0" : 0.0,
                      "default-translation1" : 0.0
                    },
                    "animationTracks" : {

                    }
                  },
                  {
                    "id" : 88,
                    "_type" : "Callout",
                    "def" : {
                      "kind" : "remix",
                      "shape" : "text-rectangle",
                      "style" : "basic",
                      "fill-color-blue" : 0.266666666666667,
                      "fill-color-green" : 0.266666666666667,
                      "fill-color-opacity" : 1.0,
                      "fill-color-red" : 0.266666666666667,
                      "height" : 104.989368355046,
                      "stroke-color-blue" : 1.0,
                      "stroke-color-green" : 1.0,
                      "stroke-color-opacity" : 1.0,
                      "stroke-color-red" : 1.0,
                      "stroke-width" : 2.0,
                      "tail-x" : -21.0406537550576,
                      "tail-y" : -10.8605378357628,
                      "width" : 1699.9585068801,
                      "word-wrap" : 1.0,
                      "fill-style" : "solid",
                      "horizontal-alignment" : "center",
                      "stroke-style" : "solid",
                      "text" : "The attacker tries to overwrite the budget by zero",
                      "vertical-alignment" : "center",
                      "font" : {
                        "color-blue" : 0.266666666666667,
                        "color-green" : 0.231372549019608,
                        "color-opacity" : 1.0,
                        "color-red" : 0.184313725490196,
                        "size" : 64.0,
                        "tracking" : 0.0,
                        "name" : "Montserrat",
                        "weight" : "Regular"
                      },
                      "textAttributes" : {
                        "type" : "textAttributeList",
                        "keyframes" : [
                          {
                            "endTime" : 0,
                            "time" : 0,
                            "value" : [{"name":"fontName","rangeEnd":50,"rangeStart":0,"value":"Montserrat","valueType":"string"},{"name":"strikethrough","rangeEnd":50,"rangeStart":0,"value":0,"valueType":"int"},{"name":"underline","rangeEnd":50,"rangeStart":0,"value":0,"valueType":"int"},{"name":"fontSize","rangeEnd":50,"rangeStart":0,"value":55,"valueType":"double"},{"name":"fontWeight","rangeEnd":50,"rangeStart":0,"value":400,"valueType":"int"},{"name":"fontItalic","rangeEnd":50,"rangeStart":0,"value":0,"valueType":"int"},{"name":"fgColor","rangeEnd":50,"rangeStart":0,"value":"(255,255,255,255)","valueType":"color"}],
                            "duration" : 0
                          }
                        ]
                      }
                    },
                    "attributes" : {
                      "autoRotateText" : true
                    },
                    "parameters" : {
                      "translation0" : -12.0162568140448,
                      "translation1" : -431.806128830664
                    },
                    "effects" : [
                        {
                          "effectName" : "DropShadow",
                          "category" : "categoryVisualEffects",
                          "parameters" : {
                            "angle" : 5.49778714378214,
                            "blur" : 10.0,
                            "color-alpha" : 1.0,
                            "color-blue" : 0.1216,
                            "color-green" : 0.1216,
                            "color-red" : 0.1216,
                            "enabled" : 1,
                            "offset" : 10.0,
                            "opacity" : 0.4
                          }
                        }
                    ],
                    "start" : 2373,
                    "duration" : 130,
                    "mediaStart" : 46,
                    "mediaDuration" : 130,
                    "scalar" : 1,
                    "metadata" : {
                      "WinSubProjectDisplayName" : "",
                      "clipSpeedAttribute" : false,
                      "default-HAlign" : "center",
                      "default-VAlign" : "center",
                      "default-fill-color-blue" : 1.0,
                      "default-fill-color-green" : 1.0,
                      "default-fill-color-red" : 1.0,
                      "default-scale0" : 1.0,
                      "default-scale1" : 1.0,
                      "default-stroke-color-blue" : 0.56078431372549,
                      "default-stroke-color-green" : 0.686274509803922,
                      "default-stroke-color-red" : 0.0196078431372549,
                      "default-text-attributes" : "[{\"name\":\"strikethrough\",\"rangeEnd\":55,\"rangeStart\":0,\"value\":0,\"valueType\":\"int\"},{\"name\":\"fgColor\",\"rangeEnd\":55,\"rangeStart\":0,\"value\":\"(255,255,255,255)\",\"valueType\":\"color\"},{\"name\":\"underline\",\"rangeEnd\":55,\"rangeStart\":0,\"value\":0,\"valueType\":\"int\"},{\"name\":\"fontItalic\",\"rangeEnd\":55,\"rangeStart\":0,\"value\":0,\"valueType\":\"int\"},{\"name\":\"fontSize\",\"rangeEnd\":55,\"rangeStart\":0,\"value\":64,\"valueType\":\"double\"},{\"name\":\"fontName\",\"rangeEnd\":55,\"rangeStart\":0,\"value\":\"Montserrat\",\"valueType\":\"string\"},{\"name\":\"fontWeight\",\"rangeEnd\":55,\"rangeStart\":0,\"value\":400,\"valueType\":\"int\"}]",
                      "default-translation0" : 0.0,
                      "default-translation1" : 0.0
                    },
                    "animationTracks" : {

                    }
                  },
                  {
                    "id" : 89,
                    "_type" : "Callout",
                    "def" : {
                      "kind" : "remix",
                      "shape" : "text-rectangle",
                      "style" : "basic",
                      "fill-color-blue" : 0.266666666666667,
                      "fill-color-green" : 0.266666666666667,
                      "fill-color-opacity" : 1.0,
                      "fill-color-red" : 0.266666666666667,
                      "height" : 79.9487179490997,
                      "stroke-color-blue" : 1.0,
                      "stroke-color-green" : 1.0,
                      "stroke-color-opacity" : 1.0,
                      "stroke-color-red" : 1.0,
                      "stroke-width" : 2.0,
                      "tail-x" : -271.626016259965,
                      "tail-y" : -12.9743589745205,
                      "width" : 511.918699186863,
                      "word-wrap" : 1.0,
                      "fill-style" : "solid",
                      "horizontal-alignment" : "center",
                      "stroke-style" : "solid",
                      "text" : "Done",
                      "vertical-alignment" : "center",
                      "font" : {
                        "color-blue" : 0.266666666666667,
                        "color-green" : 0.231372549019608,
                        "color-opacity" : 1.0,
                        "color-red" : 0.184313725490196,
                        "size" : 64.0,
                        "tracking" : 0.0,
                        "name" : "Montserrat",
                        "weight" : "Regular"
                      },
                      "textAttributes" : {
                        "type" : "textAttributeList",
                        "keyframes" : [
                          {
                            "endTime" : 0,
                            "time" : 0,
                            "value" : [{"name":"fontName","rangeEnd":4,"rangeStart":0,"value":"Montserrat","valueType":"string"},{"name":"underline","rangeEnd":4,"rangeStart":0,"value":0,"valueType":"int"},{"name":"fgColor","rangeEnd":4,"rangeStart":0,"value":"(255,255,255,255)","valueType":"color"},{"name":"fontWeight","rangeEnd":4,"rangeStart":0,"value":400,"valueType":"int"},{"name":"strikethrough","rangeEnd":4,"rangeStart":0,"value":0,"valueType":"int"},{"name":"fontItalic","rangeEnd":4,"rangeStart":0,"value":0,"valueType":"int"},{"name":"fontSize","rangeEnd":4,"rangeStart":0,"value":55,"valueType":"double"}],
                            "duration" : 0
                          }
                        ]
                      }
                    },
                    "attributes" : {
                      "autoRotateText" : true
                    },
                    "parameters" : {
                      "translation0" : -8.85620465851389e-11,
                      "translation1" : -464.391494684124
                    },
                    "effects" : [
                        {
                          "effectName" : "DropShadow",
                          "category" : "categoryVisualEffects",
                          "parameters" : {
                            "angle" : 5.49778714378214,
                            "blur" : 10.0,
                            "color-alpha" : 1.0,
                            "color-blue" : 0.1216,
                            "color-green" : 0.1216,
                            "color-red" : 0.1216,
                            "enabled" : 1,
                            "offset" : 10.0,
                            "opacity" : 0.4
                          }
                        }
                    ],
                    "start" : 2503,
                    "duration" : 57,
                    "mediaStart" : -5,
                    "mediaDuration" : 57,
                    "scalar" : 1,
                    "metadata" : {
                      "WinSubProjectDisplayName" : "",
                      "clipSpeedAttribute" : false,
                      "default-HAlign" : "center",
                      "default-VAlign" : "center",
                      "default-fill-color-blue" : 1.0,
                      "default-fill-color-green" : 1.0,
                      "default-fill-color-red" : 1.0,
                      "default-scale0" : 1.0,
                      "default-scale1" : 1.0,
                      "default-stroke-color-blue" : 0.56078431372549,
                      "default-stroke-color-green" : 0.686274509803922,
                      "default-stroke-color-red" : 0.0196078431372549,
                      "default-text-attributes" : "[{\"name\":\"strikethrough\",\"rangeEnd\":55,\"rangeStart\":0,\"value\":0,\"valueType\":\"int\"},{\"name\":\"fgColor\",\"rangeEnd\":55,\"rangeStart\":0,\"value\":\"(255,255,255,255)\",\"valueType\":\"color\"},{\"name\":\"underline\",\"rangeEnd\":55,\"rangeStart\":0,\"value\":0,\"valueType\":\"int\"},{\"name\":\"fontItalic\",\"rangeEnd\":55,\"rangeStart\":0,\"value\":0,\"valueType\":\"int\"},{\"name\":\"fontSize\",\"rangeEnd\":55,\"rangeStart\":0,\"value\":64,\"valueType\":\"double\"},{\"name\":\"fontName\",\"rangeEnd\":55,\"rangeStart\":0,\"value\":\"Montserrat\",\"valueType\":\"string\"},{\"name\":\"fontWeight\",\"rangeEnd\":55,\"rangeStart\":0,\"value\":400,\"valueType\":\"int\"}]",
                      "default-translation0" : 0.0,
                      "default-translation1" : 0.0
                    },
                    "animationTracks" : {

                    }
                  },
                  {
                    "id" : 90,
                    "_type" : "Callout",
                    "def" : {
                      "kind" : "remix",
                      "shape" : "text-rectangle",
                      "style" : "basic",
                      "fill-color-blue" : 0.266666666666667,
                      "fill-color-green" : 0.266666666666667,
                      "fill-color-opacity" : 1.0,
                      "fill-color-red" : 0.266666666666667,
                      "height" : 79.9487179490997,
                      "stroke-color-blue" : 1.0,
                      "stroke-color-green" : 1.0,
                      "stroke-color-opacity" : 1.0,
                      "stroke-color-red" : 1.0,
                      "stroke-width" : 2.0,
                      "tail-x" : -803.333333333223,
                      "tail-y" : -12.9743589745205,
                      "width" : 1575.33333333338,
                      "word-wrap" : 1.0,
                      "fill-style" : "solid",
                      "horizontal-alignment" : "center",
                      "stroke-style" : "solid",
                      "text" : "Let's go back to the boss and check the budget",
                      "vertical-alignment" : "center",
                      "font" : {
                        "color-blue" : 0.266666666666667,
                        "color-green" : 0.231372549019608,
                        "color-opacity" : 1.0,
                        "color-red" : 0.184313725490196,
                        "size" : 64.0,
                        "tracking" : 0.0,
                        "name" : "Montserrat",
                        "weight" : "Regular"
                      },
                      "textAttributes" : {
                        "type" : "textAttributeList",
                        "keyframes" : [
                          {
                            "endTime" : 0,
                            "time" : 0,
                            "value" : [{"name":"underline","rangeEnd":46,"rangeStart":0,"value":0,"valueType":"int"},{"name":"fontName","rangeEnd":46,"rangeStart":0,"value":"Montserrat","valueType":"string"},{"name":"fontItalic","rangeEnd":46,"rangeStart":0,"value":0,"valueType":"int"},{"name":"fontSize","rangeEnd":46,"rangeStart":0,"value":55,"valueType":"double"},{"name":"fgColor","rangeEnd":46,"rangeStart":0,"value":"(255,255,255,255)","valueType":"color"},{"name":"strikethrough","rangeEnd":46,"rangeStart":0,"value":0,"valueType":"int"},{"name":"fontWeight","rangeEnd":46,"rangeStart":0,"value":400,"valueType":"int"}],
                            "duration" : 0
                          }
                        ]
                      }
                    },
                    "attributes" : {
                      "autoRotateText" : true
                    },
                    "parameters" : {
                      "translation0" : 5.33333333326095,
                      "translation1" : -483.903689805865
                    },
                    "effects" : [
                        {
                          "effectName" : "DropShadow",
                          "category" : "categoryVisualEffects",
                          "parameters" : {
                            "angle" : 5.49778714378214,
                            "blur" : 10.0,
                            "color-alpha" : 1.0,
                            "color-blue" : 0.1216,
                            "color-green" : 0.1216,
                            "color-red" : 0.1216,
                            "enabled" : 1,
                            "offset" : 10.0,
                            "opacity" : 0.4
                          }
                        }
                    ],
                    "start" : 2560,
                    "duration" : 164,
                    "mediaStart" : 6,
                    "mediaDuration" : 164,
                    "scalar" : 1,
                    "metadata" : {
                      "WinSubProjectDisplayName" : "",
                      "clipSpeedAttribute" : false,
                      "default-HAlign" : "center",
                      "default-VAlign" : "center",
                      "default-fill-color-blue" : 1.0,
                      "default-fill-color-green" : 1.0,
                      "default-fill-color-red" : 1.0,
                      "default-scale0" : 1.0,
                      "default-scale1" : 1.0,
                      "default-stroke-color-blue" : 0.56078431372549,
                      "default-stroke-color-green" : 0.686274509803922,
                      "default-stroke-color-red" : 0.0196078431372549,
                      "default-text-attributes" : "[{\"name\":\"strikethrough\",\"rangeEnd\":55,\"rangeStart\":0,\"value\":0,\"valueType\":\"int\"},{\"name\":\"fgColor\",\"rangeEnd\":55,\"rangeStart\":0,\"value\":\"(255,255,255,255)\",\"valueType\":\"color\"},{\"name\":\"underline\",\"rangeEnd\":55,\"rangeStart\":0,\"value\":0,\"valueType\":\"int\"},{\"name\":\"fontItalic\",\"rangeEnd\":55,\"rangeStart\":0,\"value\":0,\"valueType\":\"int\"},{\"name\":\"fontSize\",\"rangeEnd\":55,\"rangeStart\":0,\"value\":64,\"valueType\":\"double\"},{\"name\":\"fontName\",\"rangeEnd\":55,\"rangeStart\":0,\"value\":\"Montserrat\",\"valueType\":\"string\"},{\"name\":\"fontWeight\",\"rangeEnd\":55,\"rangeStart\":0,\"value\":400,\"valueType\":\"int\"}]",
                      "default-translation0" : 0.0,
                      "default-translation1" : 0.0
                    },
                    "animationTracks" : {

                    }
                  },
                  {
                    "id" : 91,
                    "_type" : "Callout",
                    "def" : {
                      "kind" : "remix",
                      "shape" : "text-rectangle",
                      "style" : "basic",
                      "fill-color-blue" : 0.2,
                      "fill-color-green" : 0.4,
                      "fill-color-opacity" : 1.0,
                      "fill-color-red" : 0.0,
                      "height" : 68.6165311652229,
                      "stroke-color-blue" : 1.0,
                      "stroke-color-green" : 1.0,
                      "stroke-color-opacity" : 1.0,
                      "stroke-color-red" : 1.0,
                      "stroke-width" : 2.0,
                      "tail-x" : -1023.12195121868,
                      "tail-y" : -11.2744944755831,
                      "width" : 1266.60089882077,
                      "word-wrap" : 1.0,
                      "fill-style" : "solid",
                      "horizontal-alignment" : "center",
                      "stroke-style" : "solid",
                      "text" : "The budget has not been changed",
                      "vertical-alignment" : "center",
                      "font" : {
                        "color-blue" : 0.266666666666667,
                        "color-green" : 0.231372549019608,
                        "color-opacity" : 1.0,
                        "color-red" : 0.184313725490196,
                        "size" : 64.0,
                        "tracking" : 0.0,
                        "name" : "Montserrat",
                        "weight" : "Regular"
                      },
                      "textAttributes" : {
                        "type" : "textAttributeList",
                        "keyframes" : [
                          {
                            "endTime" : 0,
                            "time" : 0,
                            "value" : [{"name":"underline","rangeEnd":31,"rangeStart":0,"value":0,"valueType":"int"},{"name":"fontSize","rangeEnd":31,"rangeStart":0,"value":55,"valueType":"double"},{"name":"fgColor","rangeEnd":31,"rangeStart":0,"value":"(255,255,255,255)","valueType":"color"},{"name":"strikethrough","rangeEnd":31,"rangeStart":0,"value":0,"valueType":"int"},{"name":"fontWeight","rangeEnd":31,"rangeStart":0,"value":400,"valueType":"int"},{"name":"fontName","rangeEnd":31,"rangeStart":0,"value":"Montserrat","valueType":"string"},{"name":"fontItalic","rangeEnd":31,"rangeStart":0,"value":0,"valueType":"int"}],
                            "duration" : 0
                          }
                        ]
                      }
                    },
                    "attributes" : {
                      "autoRotateText" : true
                    },
                    "parameters" : {
                      "translation0" : 8.53658536515766,
                      "translation1" : -487.587294142483
                    },
                    "effects" : [
                        {
                          "effectName" : "DropShadow",
                          "category" : "categoryVisualEffects",
                          "parameters" : {
                            "angle" : 5.49778714378214,
                            "blur" : 10.0,
                            "color-alpha" : 1.0,
                            "color-blue" : 0.1216,
                            "color-green" : 0.1216,
                            "color-red" : 0.1216,
                            "enabled" : 1,
                            "offset" : 10.0,
                            "opacity" : 0.4
                          }
                        }
                    ],
                    "start" : 2724,
                    "duration" : 180,
                    "mediaStart" : 104,
                    "mediaDuration" : 180,
                    "scalar" : 1,
                    "metadata" : {
                      "WinSubProjectDisplayName" : "",
                      "clipSpeedAttribute" : false,
                      "default-HAlign" : "center",
                      "default-VAlign" : "center",
                      "default-fill-color-blue" : 1.0,
                      "default-fill-color-green" : 1.0,
                      "default-fill-color-red" : 1.0,
                      "default-scale0" : 1.0,
                      "default-scale1" : 1.0,
                      "default-stroke-color-blue" : 0.56078431372549,
                      "default-stroke-color-green" : 0.686274509803922,
                      "default-stroke-color-red" : 0.0196078431372549,
                      "default-text-attributes" : "[{\"name\":\"strikethrough\",\"rangeEnd\":55,\"rangeStart\":0,\"value\":0,\"valueType\":\"int\"},{\"name\":\"fgColor\",\"rangeEnd\":55,\"rangeStart\":0,\"value\":\"(255,255,255,255)\",\"valueType\":\"color\"},{\"name\":\"underline\",\"rangeEnd\":55,\"rangeStart\":0,\"value\":0,\"valueType\":\"int\"},{\"name\":\"fontItalic\",\"rangeEnd\":55,\"rangeStart\":0,\"value\":0,\"valueType\":\"int\"},{\"name\":\"fontSize\",\"rangeEnd\":55,\"rangeStart\":0,\"value\":64,\"valueType\":\"double\"},{\"name\":\"fontName\",\"rangeEnd\":55,\"rangeStart\":0,\"value\":\"Montserrat\",\"valueType\":\"string\"},{\"name\":\"fontWeight\",\"rangeEnd\":55,\"rangeStart\":0,\"value\":400,\"valueType\":\"int\"}]",
                      "default-translation0" : 0.0,
                      "default-translation1" : 0.0
                    },
                    "animationTracks" : {

                    }
                  },
                  {
                    "id" : 92,
                    "_type" : "Callout",
                    "def" : {
                      "kind" : "remix",
                      "shape" : "text-rectangle",
                      "style" : "basic",
                      "fill-color-blue" : 0.266666666666667,
                      "fill-color-green" : 0.266666666666667,
                      "fill-color-opacity" : 1.0,
                      "fill-color-red" : 0.266666666666667,
                      "height" : 84.935080693674,
                      "stroke-color-blue" : 1.0,
                      "stroke-color-green" : 1.0,
                      "stroke-color-opacity" : 1.0,
                      "stroke-color-red" : 1.0,
                      "stroke-width" : 2.0,
                      "tail-x" : -890.297442508521,
                      "tail-y" : -8.77523265467372,
                      "width" : 1859.07991173048,
                      "word-wrap" : 1.0,
                      "fill-style" : "solid",
                      "horizontal-alignment" : "center",
                      "stroke-style" : "solid",
                      "text" : "Let's close the file hijacker and budget file to complete file operations",
                      "vertical-alignment" : "center",
                      "font" : {
                        "color-blue" : 0.266666666666667,
                        "color-green" : 0.231372549019608,
                        "color-opacity" : 1.0,
                        "color-red" : 0.184313725490196,
                        "size" : 64.0,
                        "tracking" : 0.0,
                        "name" : "Montserrat",
                        "weight" : "Regular"
                      },
                      "textAttributes" : {
                        "type" : "textAttributeList",
                        "keyframes" : [
                          {
                            "endTime" : 0,
                            "time" : 0,
                            "value" : [{"name":"fontSize","rangeEnd":73,"rangeStart":0,"value":55,"valueType":"double"},{"name":"fontWeight","rangeEnd":73,"rangeStart":0,"value":400,"valueType":"int"},{"name":"fontItalic","rangeEnd":73,"rangeStart":0,"value":0,"valueType":"int"},{"name":"fgColor","rangeEnd":73,"rangeStart":0,"value":"(255,255,255,255)","valueType":"color"},{"name":"strikethrough","rangeEnd":73,"rangeStart":0,"value":0,"valueType":"int"},{"name":"fontName","rangeEnd":73,"rangeStart":0,"value":"Montserrat","valueType":"string"},{"name":"underline","rangeEnd":73,"rangeStart":0,"value":0,"valueType":"int"}],
                            "duration" : 0
                          }
                        ]
                      }
                    },
                    "attributes" : {
                      "autoRotateText" : true
                    },
                    "parameters" : {
                      "translation0" : 3.63077584192461,
                      "translation1" : -473.241027507885
                    },
                    "effects" : [
                        {
                          "effectName" : "DropShadow",
                          "category" : "categoryVisualEffects",
                          "parameters" : {
                            "angle" : 5.49778714378214,
                            "blur" : 10.0,
                            "color-alpha" : 1.0,
                            "color-blue" : 0.1216,
                            "color-green" : 0.1216,
                            "color-red" : 0.1216,
                            "enabled" : 1,
                            "offset" : 10.0,
                            "opacity" : 0.4
                          }
                        }
                    ],
                    "start" : 2904,
                    "duration" : 442,
                    "mediaStart" : 141,
                    "mediaDuration" : 442,
                    "scalar" : 1,
                    "metadata" : {
                      "WinSubProjectDisplayName" : "",
                      "clipSpeedAttribute" : false,
                      "default-HAlign" : "center",
                      "default-VAlign" : "center",
                      "default-fill-color-blue" : 1.0,
                      "default-fill-color-green" : 1.0,
                      "default-fill-color-red" : 1.0,
                      "default-scale0" : 1.0,
                      "default-scale1" : 1.0,
                      "default-stroke-color-blue" : 0.56078431372549,
                      "default-stroke-color-green" : 0.686274509803922,
                      "default-stroke-color-red" : 0.0196078431372549,
                      "default-text-attributes" : "[{\"name\":\"strikethrough\",\"rangeEnd\":55,\"rangeStart\":0,\"value\":0,\"valueType\":\"int\"},{\"name\":\"fgColor\",\"rangeEnd\":55,\"rangeStart\":0,\"value\":\"(255,255,255,255)\",\"valueType\":\"color\"},{\"name\":\"underline\",\"rangeEnd\":55,\"rangeStart\":0,\"value\":0,\"valueType\":\"int\"},{\"name\":\"fontItalic\",\"rangeEnd\":55,\"rangeStart\":0,\"value\":0,\"valueType\":\"int\"},{\"name\":\"fontSize\",\"rangeEnd\":55,\"rangeStart\":0,\"value\":64,\"valueType\":\"double\"},{\"name\":\"fontName\",\"rangeEnd\":55,\"rangeStart\":0,\"value\":\"Montserrat\",\"valueType\":\"string\"},{\"name\":\"fontWeight\",\"rangeEnd\":55,\"rangeStart\":0,\"value\":400,\"valueType\":\"int\"}]",
                      "default-translation0" : 0.0,
                      "default-translation1" : 0.0
                    },
                    "animationTracks" : {

                    }
                  },
                  {
                    "id" : 93,
                    "_type" : "Callout",
                    "def" : {
                      "kind" : "remix",
                      "shape" : "text-rectangle",
                      "style" : "basic",
                      "fill-color-blue" : 0.266666666666667,
                      "fill-color-green" : 0.266666666666667,
                      "fill-color-opacity" : 1.0,
                      "fill-color-red" : 0.266666666666667,
                      "height" : 101.601747360474,
                      "stroke-color-blue" : 1.0,
                      "stroke-color-green" : 1.0,
                      "stroke-color-opacity" : 1.0,
                      "stroke-color-red" : 1.0,
                      "stroke-width" : 2.0,
                      "tail-x" : -920.785247386345,
                      "tail-y" : -17.1085659880737,
                      "width" : 1437.12869221818,
                      "word-wrap" : 1.0,
                      "fill-style" : "solid",
                      "horizontal-alignment" : "center",
                      "stroke-style" : "solid",
                      "text" : "Closing the boss's and the attacker's consoles",
                      "vertical-alignment" : "center",
                      "font" : {
                        "color-blue" : 0.266666666666667,
                        "color-green" : 0.231372549019608,
                        "color-opacity" : 1.0,
                        "color-red" : 0.184313725490196,
                        "size" : 64.0,
                        "tracking" : 0.0,
                        "name" : "Montserrat",
                        "weight" : "Regular"
                      },
                      "textAttributes" : {
                        "type" : "textAttributeList",
                        "keyframes" : [
                          {
                            "endTime" : 0,
                            "time" : 0,
                            "value" : [{"name":"strikethrough","rangeEnd":46,"rangeStart":0,"value":0,"valueType":"int"},{"name":"fontWeight","rangeEnd":46,"rangeStart":0,"value":400,"valueType":"int"},{"name":"underline","rangeEnd":46,"rangeStart":0,"value":0,"valueType":"int"},{"name":"fontSize","rangeEnd":46,"rangeStart":0,"value":55,"valueType":"double"},{"name":"fontName","rangeEnd":46,"rangeStart":0,"value":"Montserrat","valueType":"string"},{"name":"fontItalic","rangeEnd":46,"rangeStart":0,"value":0,"valueType":"int"},{"name":"fgColor","rangeEnd":46,"rangeStart":0,"value":"(255,255,255,255)","valueType":"color"}],
                            "duration" : 0
                          }
                        ]
                      }
                    },
                    "attributes" : {
                      "autoRotateText" : true
                    },
                    "parameters" : {
                      "translation0" : 34.1185807197478,
                      "translation1" : -460.029645394002
                    },
                    "effects" : [
                        {
                          "effectName" : "DropShadow",
                          "category" : "categoryVisualEffects",
                          "parameters" : {
                            "angle" : 5.49778714378214,
                            "blur" : 10.0,
                            "color-alpha" : 1.0,
                            "color-blue" : 0.1216,
                            "color-green" : 0.1216,
                            "color-red" : 0.1216,
                            "enabled" : 1,
                            "offset" : 10.0,
                            "opacity" : 0.4
                          }
                        }
                    ],
                    "start" : 3346,
                    "duration" : 134,
                    "mediaStart" : 141,
                    "mediaDuration" : 134,
                    "scalar" : 1,
                    "metadata" : {
                      "WinSubProjectDisplayName" : "",
                      "clipSpeedAttribute" : false,
                      "default-HAlign" : "center",
                      "default-VAlign" : "center",
                      "default-fill-color-blue" : 1.0,
                      "default-fill-color-green" : 1.0,
                      "default-fill-color-red" : 1.0,
                      "default-scale0" : 1.0,
                      "default-scale1" : 1.0,
                      "default-stroke-color-blue" : 0.56078431372549,
                      "default-stroke-color-green" : 0.686274509803922,
                      "default-stroke-color-red" : 0.0196078431372549,
                      "default-text-attributes" : "[{\"name\":\"strikethrough\",\"rangeEnd\":55,\"rangeStart\":0,\"value\":0,\"valueType\":\"int\"},{\"name\":\"fgColor\",\"rangeEnd\":55,\"rangeStart\":0,\"value\":\"(255,255,255,255)\",\"valueType\":\"color\"},{\"name\":\"underline\",\"rangeEnd\":55,\"rangeStart\":0,\"value\":0,\"valueType\":\"int\"},{\"name\":\"fontItalic\",\"rangeEnd\":55,\"rangeStart\":0,\"value\":0,\"valueType\":\"int\"},{\"name\":\"fontSize\",\"rangeEnd\":55,\"rangeStart\":0,\"value\":64,\"valueType\":\"double\"},{\"name\":\"fontName\",\"rangeEnd\":55,\"rangeStart\":0,\"value\":\"Montserrat\",\"valueType\":\"string\"},{\"name\":\"fontWeight\",\"rangeEnd\":55,\"rangeStart\":0,\"value\":400,\"valueType\":\"int\"}]",
                      "default-translation0" : 0.0,
                      "default-translation1" : 0.0
                    },
                    "animationTracks" : {

                    }
                  },
                  {
                    "id" : 94,
                    "_type" : "Callout",
                    "def" : {
                      "kind" : "remix",
                      "shape" : "text-rectangle",
                      "style" : "basic",
                      "fill-color-blue" : 0.266666666666667,
                      "fill-color-green" : 0.266666666666667,
                      "fill-color-opacity" : 1.0,
                      "fill-color-red" : 0.266666666666667,
                      "height" : 101.601747360474,
                      "stroke-color-blue" : 1.0,
                      "stroke-color-green" : 1.0,
                      "stroke-color-opacity" : 1.0,
                      "stroke-color-red" : 1.0,
                      "stroke-width" : 2.0,
                      "tail-x" : -908.590125434984,
                      "tail-y" : -17.1085659880737,
                      "width" : 1802.98235075484,
                      "word-wrap" : 1.0,
                      "fill-style" : "solid",
                      "horizontal-alignment" : "center",
                      "stroke-style" : "solid",
                      "text" : "Opening the budget file and the file hijacker to check the content",
                      "vertical-alignment" : "center",
                      "font" : {
                        "color-blue" : 0.266666666666667,
                        "color-green" : 0.231372549019608,
                        "color-opacity" : 1.0,
                        "color-red" : 0.184313725490196,
                        "size" : 64.0,
                        "tracking" : 0.0,
                        "name" : "Montserrat",
                        "weight" : "Regular"
                      },
                      "textAttributes" : {
                        "type" : "textAttributeList",
                        "keyframes" : [
                          {
                            "endTime" : 0,
                            "time" : 0,
                            "value" : [{"name":"fontName","rangeEnd":66,"rangeStart":0,"value":"Montserrat","valueType":"string"},{"name":"fontItalic","rangeEnd":66,"rangeStart":0,"value":0,"valueType":"int"},{"name":"strikethrough","rangeEnd":66,"rangeStart":0,"value":0,"valueType":"int"},{"name":"fgColor","rangeEnd":66,"rangeStart":0,"value":"(255,255,255,255)","valueType":"color"},{"name":"underline","rangeEnd":66,"rangeStart":0,"value":0,"valueType":"int"},{"name":"fontWeight","rangeEnd":66,"rangeStart":0,"value":400,"valueType":"int"},{"name":"fontSize","rangeEnd":66,"rangeStart":0,"value":55,"valueType":"double"}],
                            "duration" : 0
                          }
                        ]
                      }
                    },
                    "attributes" : {
                      "autoRotateText" : true
                    },
                    "parameters" : {
                      "translation0" : 21.923458768387,
                      "translation1" : -460.029645394002
                    },
                    "effects" : [
                        {
                          "effectName" : "DropShadow",
                          "category" : "categoryVisualEffects",
                          "parameters" : {
                            "angle" : 5.49778714378214,
                            "blur" : 10.0,
                            "color-alpha" : 1.0,
                            "color-blue" : 0.1216,
                            "color-green" : 0.1216,
                            "color-red" : 0.1216,
                            "enabled" : 1,
                            "offset" : 10.0,
                            "opacity" : 0.4
                          }
                        }
                    ],
                    "start" : 3480,
                    "duration" : 134,
                    "mediaStart" : 141,
                    "mediaDuration" : 134,
                    "scalar" : 1,
                    "metadata" : {
                      "WinSubProjectDisplayName" : "",
                      "clipSpeedAttribute" : false,
                      "default-HAlign" : "center",
                      "default-VAlign" : "center",
                      "default-fill-color-blue" : 1.0,
                      "default-fill-color-green" : 1.0,
                      "default-fill-color-red" : 1.0,
                      "default-scale0" : 1.0,
                      "default-scale1" : 1.0,
                      "default-stroke-color-blue" : 0.56078431372549,
                      "default-stroke-color-green" : 0.686274509803922,
                      "default-stroke-color-red" : 0.0196078431372549,
                      "default-text-attributes" : "[{\"name\":\"strikethrough\",\"rangeEnd\":55,\"rangeStart\":0,\"value\":0,\"valueType\":\"int\"},{\"name\":\"fgColor\",\"rangeEnd\":55,\"rangeStart\":0,\"value\":\"(255,255,255,255)\",\"valueType\":\"color\"},{\"name\":\"underline\",\"rangeEnd\":55,\"rangeStart\":0,\"value\":0,\"valueType\":\"int\"},{\"name\":\"fontItalic\",\"rangeEnd\":55,\"rangeStart\":0,\"value\":0,\"valueType\":\"int\"},{\"name\":\"fontSize\",\"rangeEnd\":55,\"rangeStart\":0,\"value\":64,\"valueType\":\"double\"},{\"name\":\"fontName\",\"rangeEnd\":55,\"rangeStart\":0,\"value\":\"Montserrat\",\"valueType\":\"string\"},{\"name\":\"fontWeight\",\"rangeEnd\":55,\"rangeStart\":0,\"value\":400,\"valueType\":\"int\"}]",
                      "default-translation0" : 0.0,
                      "default-translation1" : 0.0
                    },
                    "animationTracks" : {

                    }
                  },
                  {
                    "id" : 95,
                    "_type" : "Callout",
                    "def" : {
                      "kind" : "remix",
                      "shape" : "text-rectangle",
                      "style" : "basic",
                      "fill-color-blue" : 0.266666666666667,
                      "fill-color-green" : 0.266666666666667,
                      "fill-color-opacity" : 1.0,
                      "fill-color-red" : 0.266666666666667,
                      "height" : 101.601747360474,
                      "stroke-color-blue" : 1.0,
                      "stroke-color-green" : 1.0,
                      "stroke-color-opacity" : 1.0,
                      "stroke-color-red" : 1.0,
                      "stroke-width" : 2.0,
                      "tail-x" : -902.49256445965,
                      "tail-y" : -17.1085659880737,
                      "width" : 1834.68966782822,
                      "word-wrap" : 1.0,
                      "fill-style" : "solid",
                      "horizontal-alignment" : "center",
                      "stroke-style" : "solid",
                      "text" : "The budget is in budget.txt. The attacker's input is in file hijacker.",
                      "vertical-alignment" : "center",
                      "font" : {
                        "color-blue" : 0.266666666666667,
                        "color-green" : 0.231372549019608,
                        "color-opacity" : 1.0,
                        "color-red" : 0.184313725490196,
                        "size" : 64.0,
                        "tracking" : 0.0,
                        "name" : "Montserrat",
                        "weight" : "Regular"
                      },
                      "textAttributes" : {
                        "type" : "textAttributeList",
                        "keyframes" : [
                          {
                            "endTime" : 0,
                            "time" : 0,
                            "value" : [{"name":"fontWeight","rangeEnd":70,"rangeStart":0,"value":400,"valueType":"int"},{"name":"fontItalic","rangeEnd":70,"rangeStart":0,"value":0,"valueType":"int"},{"name":"fontName","rangeEnd":70,"rangeStart":0,"value":"Montserrat","valueType":"string"},{"name":"fgColor","rangeEnd":70,"rangeStart":0,"value":"(255,255,255,255)","valueType":"color"},{"name":"underline","rangeEnd":70,"rangeStart":0,"value":0,"valueType":"int"},{"name":"fontSize","rangeEnd":70,"rangeStart":0,"value":55,"valueType":"double"},{"name":"strikethrough","rangeEnd":70,"rangeStart":0,"value":0,"valueType":"int"}],
                            "duration" : 0
                          }
                        ]
                      }
                    },
                    "attributes" : {
                      "autoRotateText" : true
                    },
                    "parameters" : {
                      "translation0" : 15.8258977930534,
                      "translation1" : -464.907694174485
                    },
                    "effects" : [
                        {
                          "effectName" : "DropShadow",
                          "category" : "categoryVisualEffects",
                          "parameters" : {
                            "angle" : 5.49778714378214,
                            "blur" : 10.0,
                            "color-alpha" : 1.0,
                            "color-blue" : 0.1216,
                            "color-green" : 0.1216,
                            "color-red" : 0.1216,
                            "enabled" : 1,
                            "offset" : 10.0,
                            "opacity" : 0.4
                          }
                        }
                    ],
                    "start" : 3633,
                    "duration" : 134,
                    "mediaStart" : 139,
                    "mediaDuration" : 134,
                    "scalar" : 1,
                    "metadata" : {
                      "WinSubProjectDisplayName" : "",
                      "clipSpeedAttribute" : false,
                      "default-HAlign" : "center",
                      "default-VAlign" : "center",
                      "default-fill-color-blue" : 1.0,
                      "default-fill-color-green" : 1.0,
                      "default-fill-color-red" : 1.0,
                      "default-scale0" : 1.0,
                      "default-scale1" : 1.0,
                      "default-stroke-color-blue" : 0.56078431372549,
                      "default-stroke-color-green" : 0.686274509803922,
                      "default-stroke-color-red" : 0.0196078431372549,
                      "default-text-attributes" : "[{\"name\":\"strikethrough\",\"rangeEnd\":55,\"rangeStart\":0,\"value\":0,\"valueType\":\"int\"},{\"name\":\"fgColor\",\"rangeEnd\":55,\"rangeStart\":0,\"value\":\"(255,255,255,255)\",\"valueType\":\"color\"},{\"name\":\"underline\",\"rangeEnd\":55,\"rangeStart\":0,\"value\":0,\"valueType\":\"int\"},{\"name\":\"fontItalic\",\"rangeEnd\":55,\"rangeStart\":0,\"value\":0,\"valueType\":\"int\"},{\"name\":\"fontSize\",\"rangeEnd\":55,\"rangeStart\":0,\"value\":64,\"valueType\":\"double\"},{\"name\":\"fontName\",\"rangeEnd\":55,\"rangeStart\":0,\"value\":\"Montserrat\",\"valueType\":\"string\"},{\"name\":\"fontWeight\",\"rangeEnd\":55,\"rangeStart\":0,\"value\":400,\"valueType\":\"int\"}]",
                      "default-translation0" : 0.0,
                      "default-translation1" : 0.0
                    },
                    "animationTracks" : {

                    }
                  },
                  {
                    "id" : 96,
                    "_type" : "Callout",
                    "def" : {
                      "kind" : "remix",
                      "shape" : "text-rectangle",
                      "style" : "basic",
                      "fill-color-blue" : 0.2,
                      "fill-color-green" : 0.4,
                      "fill-color-opacity" : 1.0,
                      "fill-color-red" : 0.0,
                      "height" : 99.9487179490763,
                      "stroke-color-blue" : 1.0,
                      "stroke-color-green" : 1.0,
                      "stroke-color-opacity" : 1.0,
                      "stroke-color-red" : 1.0,
                      "stroke-width" : 2.0,
                      "tail-x" : -257.02439024385,
                      "tail-y" : -22.9743589745091,
                      "width" : 821.382113821051,
                      "word-wrap" : 1.0,
                      "fill-style" : "solid",
                      "horizontal-alignment" : "center",
                      "stroke-style" : "solid",
                      "text" : "The OS is protected",
                      "vertical-alignment" : "center",
                      "font" : {
                        "color-blue" : 0.266666666666667,
                        "color-green" : 0.231372549019608,
                        "color-opacity" : 1.0,
                        "color-red" : 0.184313725490196,
                        "size" : 64.0,
                        "tracking" : 0.0,
                        "name" : "Montserrat",
                        "weight" : "Regular"
                      },
                      "textAttributes" : {
                        "type" : "textAttributeList",
                        "keyframes" : [
                          {
                            "endTime" : 0,
                            "time" : 0,
                            "value" : [{"name":"strikethrough","rangeEnd":19,"rangeStart":0,"value":0,"valueType":"int"},{"name":"fontName","rangeEnd":19,"rangeStart":0,"value":"Montserrat","valueType":"string"},{"name":"underline","rangeEnd":19,"rangeStart":0,"value":0,"valueType":"int"},{"name":"fontWeight","rangeEnd":19,"rangeStart":0,"value":400,"valueType":"int"},{"name":"fgColor","rangeEnd":19,"rangeStart":0,"value":"(255,255,255,255)","valueType":"color"},{"name":"fontItalic","rangeEnd":19,"rangeStart":0,"value":0,"valueType":"int"},{"name":"fontSize","rangeEnd":19,"rangeStart":0,"value":64,"valueType":"double"}],
                            "duration" : 0
                          }
                        ]
                      }
                    },
                    "attributes" : {
                      "autoRotateText" : true
                    },
                    "parameters" : {
                      "translation0" : 67.2845528454826,
                      "translation1" : -429.025641025413
                    },
                    "effects" : [

                    ],
                    "start" : 3797,
                    "duration" : 115,
                    "mediaStart" : 60,
                    "mediaDuration" : 115,
                    "scalar" : 1,
                    "metadata" : {
                      "WinSubProjectDisplayName" : "",
                      "clipSpeedAttribute" : false,
                      "default-HAlign" : "center",
                      "default-VAlign" : "center",
                      "default-fill-color-blue" : 1.0,
                      "default-fill-color-green" : 1.0,
                      "default-fill-color-red" : 1.0,
                      "default-scale0" : 1.0,
                      "default-scale1" : 1.0,
                      "default-stroke-color-blue" : 0.56078431372549,
                      "default-stroke-color-green" : 0.686274509803922,
                      "default-stroke-color-red" : 0.0196078431372549,
                      "default-text-attributes" : "[{\"name\":\"strikethrough\",\"rangeEnd\":55,\"rangeStart\":0,\"value\":0,\"valueType\":\"int\"},{\"name\":\"fgColor\",\"rangeEnd\":55,\"rangeStart\":0,\"value\":\"(255,255,255,255)\",\"valueType\":\"color\"},{\"name\":\"underline\",\"rangeEnd\":55,\"rangeStart\":0,\"value\":0,\"valueType\":\"int\"},{\"name\":\"fontItalic\",\"rangeEnd\":55,\"rangeStart\":0,\"value\":0,\"valueType\":\"int\"},{\"name\":\"fontSize\",\"rangeEnd\":55,\"rangeStart\":0,\"value\":64,\"valueType\":\"double\"},{\"name\":\"fontName\",\"rangeEnd\":55,\"rangeStart\":0,\"value\":\"Montserrat\",\"valueType\":\"string\"},{\"name\":\"fontWeight\",\"rangeEnd\":55,\"rangeStart\":0,\"value\":400,\"valueType\":\"int\"}]",
                      "default-translation0" : 0.0,
                      "default-translation1" : 0.0
                    },
                    "animationTracks" : {

                    }
                  }
                ]
              },
              {
                "trackIndex" : 2,
                "medias" : [
                  {
                    "id" : 97,
                    "_type" : "Callout",
                    "def" : {
                      "kind" : "remix",
                      "shape" : "text",
                      "style" : "basic",
                      "height" : 93.5897435896651,
                      "width" : 566.666666666341,
                      "word-wrap" : 1.0,
                      "horizontal-alignment" : "center",
                      "text" : "CDFSL 2019",
                      "vertical-alignment" : "center",
                      "font" : {
                        "color-blue" : 1.0,
                        "color-green" : 1.0,
                        "color-red" : 1.0,
                        "size" : 96.0,
                        "tracking" : 0.0,
                        "name" : "Montserrat",
                        "weight" : "Regular"
                      },
                      "textAttributes" : {
                        "type" : "textAttributeList",
                        "keyframes" : [
                          {
                            "endTime" : 0,
                            "time" : 0,
                            "value" : [{"name":"fontName","rangeEnd":10,"rangeStart":0,"value":"Montserrat","valueType":"string"},{"name":"strikethrough","rangeEnd":10,"rangeStart":0,"value":0,"valueType":"int"},{"name":"fgColor","rangeEnd":10,"rangeStart":0,"value":"(255,255,255,255)","valueType":"color"},{"name":"underline","rangeEnd":10,"rangeStart":0,"value":0,"valueType":"int"},{"name":"fontSize","rangeEnd":10,"rangeStart":0,"value":50,"valueType":"double"},{"name":"fontWeight","rangeEnd":10,"rangeStart":0,"value":400,"valueType":"int"},{"name":"fontItalic","rangeEnd":10,"rangeStart":0,"value":0,"valueType":"int"}],
                            "duration" : 0
                          }
                        ]
                      }
                    },
                    "attributes" : {
                      "autoRotateText" : true
                    },
                    "parameters" : {
                      "translation0" : 0.166666666352796,
                      "translation1" : -463.897438146349
                    },
                    "effects" : [
                        {
                          "effectName" : "DropShadow",
                          "category" : "categoryVisualEffects",
                          "parameters" : {
                            "angle" : 5.49778714378214,
                            "blur" : 10.0,
                            "color-alpha" : 1.0,
                            "color-blue" : 0.1216,
                            "color-green" : 0.1216,
                            "color-red" : 0.1216,
                            "enabled" : 1,
                            "offset" : 10.0,
                            "opacity" : 0.4
                          }
                        }
                    ],
                    "start" : 0,
                    "duration" : 150,
                    "mediaStart" : 0,
                    "mediaDuration" : 150,
                    "scalar" : 1,
                    "metadata" : {
                      "WinSubProjectDisplayName" : "",
                      "clipSpeedAttribute" : false,
                      "default-HAlign" : "center",
                      "default-VAlign" : "center",
                      "default-text-attributes" : "[{\"name\":\"strikethrough\",\"rangeEnd\":17,\"rangeStart\":0,\"value\":0,\"valueType\":\"int\"},{\"name\":\"underline\",\"rangeEnd\":17,\"rangeStart\":0,\"value\":0,\"valueType\":\"int\"},{\"name\":\"fontItalic\",\"rangeEnd\":17,\"rangeStart\":0,\"value\":0,\"valueType\":\"int\"},{\"name\":\"fontName\",\"rangeEnd\":17,\"rangeStart\":0,\"value\":\"Montserrat\",\"valueType\":\"string\"},{\"name\":\"fontSize\",\"rangeEnd\":17,\"rangeStart\":0,\"value\":96,\"valueType\":\"double\"},{\"name\":\"fontWeight\",\"rangeEnd\":17,\"rangeStart\":0,\"value\":400,\"valueType\":\"int\"},{\"name\":\"fgColor\",\"rangeEnd\":17,\"rangeStart\":0,\"value\":\"(255,255,255,255)\",\"valueType\":\"color\"}]",
                      "default-translation0" : 0.0,
                      "default-translation1" : 0.0
                    },
                    "animationTracks" : {

                    }
                  },
                  {
                    "id" : 98,
                    "_type" : "Callout",
                    "def" : {
                      "kind" : "remix",
                      "shape" : "shape-rectangle",
                      "style" : "basic",
                      "fill-color-blue" : 0.0,
                      "fill-color-green" : 0.0,
                      "fill-color-opacity" : 0.0,
                      "fill-color-red" : 0.0,
                      "height" : 59.3495934960772,
                      "stroke-color-blue" : 0.258823529411765,
                      "stroke-color-green" : 0.258823529411765,
                      "stroke-color-opacity" : 1.0,
                      "stroke-color-red" : 0.988235294117647,
                      "stroke-width" : 6.0,
                      "width" : 390.946588076254,
                      "fill-style" : "solid",
                      "horizontal-alignment" : "center",
                      "stroke-style" : "solid",
                      "vertical-alignment" : "center",
                      "textAttributes" : {
                        "type" : "textAttributeList",
                        "keyframes" : [
                          {
                            "endTime" : 0,
                            "time" : 0,
                            "value" : null,
                            "duration" : 0
                          }
                        ]
                      }
                    },
                    "attributes" : {
                      "autoRotateText" : true
                    },
                    "parameters" : {
                      "translation0" : -757.234023035252,
                      "translation1" : -21.2195121952348
                    },
                    "effects" : [
                        {
                          "effectName" : "DropShadow",
                          "category" : "categoryVisualEffects",
                          "parameters" : {
                            "angle" : 5.49778714378214,
                            "blur" : 10.0,
                            "color-alpha" : 1.0,
                            "color-blue" : 0.1216,
                            "color-green" : 0.1216,
                            "color-red" : 0.1216,
                            "enabled" : 1,
                            "offset" : 10.0,
                            "opacity" : 0.4
                          }
                        }
                    ],
                    "start" : 401,
                    "duration" : 91,
                    "mediaStart" : 47,
                    "mediaDuration" : 91,
                    "scalar" : 1,
                    "metadata" : {
                      "WinSubProjectDisplayName" : "",
                      "clipSpeedAttribute" : false,
                      "default-stroke-color-blue" : 1.0,
                      "default-stroke-color-green" : 1.0,
                      "default-stroke-color-red" : 1.0,
                      "default-translation0" : 0.0,
                      "default-translation1" : 0.0
                    },
                    "animationTracks" : {

                    }
                  },
                  {
                    "id" : 99,
                    "_type" : "Callout",
                    "def" : {
                      "kind" : "remix",
                      "shape" : "shape-rectangle",
                      "style" : "basic",
                      "fill-color-blue" : 0.0,
                      "fill-color-green" : 0.0,
                      "fill-color-opacity" : 0.0,
                      "fill-color-red" : 0.0,
                      "height" : 100.813008130397,
                      "stroke-color-blue" : 0.258823529411765,
                      "stroke-color-green" : 0.258823529411765,
                      "stroke-color-opacity" : 1.0,
                      "stroke-color-red" : 0.988235294117647,
                      "stroke-width" : 6.0,
                      "width" : 1268.88615851638,
                      "fill-style" : "solid",
                      "horizontal-alignment" : "center",
                      "stroke-style" : "solid",
                      "vertical-alignment" : "center",
                      "textAttributes" : {
                        "type" : "textAttributeList",
                        "keyframes" : [
                          {
                            "endTime" : 0,
                            "time" : 0,
                            "value" : null,
                            "duration" : 0
                          }
                        ]
                      }
                    },
                    "attributes" : {
                      "autoRotateText" : true
                    },
                    "parameters" : {
                      "translation0" : -284.117896351724,
                      "translation1" : -83.4146341465327
                    },
                    "effects" : [
                        {
                          "effectName" : "DropShadow",
                          "category" : "categoryVisualEffects",
                          "parameters" : {
                            "angle" : 5.49778714378214,
                            "blur" : 10.0,
                            "color-alpha" : 1.0,
                            "color-blue" : 0.1216,
                            "color-green" : 0.1216,
                            "color-red" : 0.1216,
                            "enabled" : 1,
                            "offset" : 10.0,
                            "opacity" : 0.4
                          }
                        }
                    ],
                    "start" : 510,
                    "duration" : 120,
                    "mediaStart" : 44,
                    "mediaDuration" : 120,
                    "scalar" : 1,
                    "metadata" : {
                      "WinSubProjectDisplayName" : "",
                      "clipSpeedAttribute" : false,
                      "default-stroke-color-blue" : 1.0,
                      "default-stroke-color-green" : 1.0,
                      "default-stroke-color-red" : 1.0,
                      "default-translation0" : 0.0,
                      "default-translation1" : 0.0
                    },
                    "animationTracks" : {

                    }
                  },
                  {
                    "id" : 100,
                    "_type" : "Callout",
                    "def" : {
                      "kind" : "remix",
                      "shape" : "shape-rectangle",
                      "style" : "basic",
                      "fill-color-blue" : 0.0,
                      "fill-color-green" : 0.0,
                      "fill-color-opacity" : 0.0,
                      "fill-color-red" : 0.0,
                      "height" : 69.1056910574082,
                      "stroke-color-blue" : 0.258823529411765,
                      "stroke-color-green" : 0.258823529411765,
                      "stroke-color-opacity" : 1.0,
                      "stroke-color-red" : 0.988235294117647,
                      "stroke-width" : 6.0,
                      "width" : 981.414659205102,
                      "fill-style" : "solid",
                      "horizontal-alignment" : "center",
                      "stroke-style" : "solid",
                      "vertical-alignment" : "center",
                      "textAttributes" : {
                        "type" : "textAttributeList",
                        "keyframes" : [
                          {
                            "endTime" : 0,
                            "time" : 0,
                            "value" : null,
                            "duration" : 0
                          }
                        ]
                      }
                    },
                    "attributes" : {
                      "autoRotateText" : true
                    },
                    "parameters" : {
                      "translation0" : -461.999987470787,
                      "translation1" : -13.9024390246739
                    },
                    "effects" : [
                        {
                          "effectName" : "DropShadow",
                          "category" : "categoryVisualEffects",
                          "parameters" : {
                            "angle" : 5.49778714378214,
                            "blur" : 10.0,
                            "color-alpha" : 1.0,
                            "color-blue" : 0.1216,
                            "color-green" : 0.1216,
                            "color-red" : 0.1216,
                            "enabled" : 1,
                            "offset" : 10.0,
                            "opacity" : 0.4
                          }
                        }
                    ],
                    "start" : 690,
                    "duration" : 129,
                    "mediaStart" : 45,
                    "mediaDuration" : 129,
                    "scalar" : 1,
                    "metadata" : {
                      "WinSubProjectDisplayName" : "",
                      "clipSpeedAttribute" : false,
                      "default-stroke-color-blue" : 1.0,
                      "default-stroke-color-green" : 1.0,
                      "default-stroke-color-red" : 1.0,
                      "default-translation0" : 0.0,
                      "default-translation1" : 0.0
                    },
                    "animationTracks" : {

                    }
                  },
                  {
                    "id" : 101,
                    "_type" : "Callout",
                    "def" : {
                      "kind" : "remix",
                      "shape" : "shape-rectangle",
                      "style" : "basic",
                      "fill-color-blue" : 0.0,
                      "fill-color-green" : 0.0,
                      "fill-color-opacity" : 0.0,
                      "fill-color-red" : 0.0,
                      "height" : 69.1056910574082,
                      "stroke-color-blue" : 0.258823529411765,
                      "stroke-color-green" : 0.258823529411765,
                      "stroke-color-opacity" : 1.0,
                      "stroke-color-red" : 0.988235294117647,
                      "stroke-width" : 8.0,
                      "width" : 188.39835363818,
                      "fill-style" : "solid",
                      "horizontal-alignment" : "center",
                      "stroke-style" : "solid",
                      "vertical-alignment" : "center",
                      "textAttributes" : {
                        "type" : "textAttributeList",
                        "keyframes" : [
                          {
                            "endTime" : 0,
                            "time" : 0,
                            "value" : null,
                            "duration" : 0
                          }
                        ]
                      }
                    },
                    "attributes" : {
                      "autoRotateText" : true
                    },
                    "parameters" : {
                      "translation0" : -858.508140254246,
                      "translation1" : -360.243902439351
                    },
                    "effects" : [
                        {
                          "effectName" : "DropShadow",
                          "category" : "categoryVisualEffects",
                          "parameters" : {
                            "angle" : 5.49778714378214,
                            "blur" : 10.0,
                            "color-alpha" : 1.0,
                            "color-blue" : 0.1216,
                            "color-green" : 0.1216,
                            "color-red" : 0.1216,
                            "enabled" : 1,
                            "offset" : 10.0,
                            "opacity" : 0.4
                          }
                        }
                    ],
                    "start" : 881,
                    "duration" : 88,
                    "mediaStart" : 25,
                    "mediaDuration" : 88,
                    "scalar" : 1,
                    "metadata" : {
                      "WinSubProjectDisplayName" : "",
                      "clipSpeedAttribute" : false,
                      "default-stroke-color-blue" : 1.0,
                      "default-stroke-color-green" : 1.0,
                      "default-stroke-color-red" : 1.0,
                      "default-stroke-width" : 6.0,
                      "default-translation0" : 0.0,
                      "default-translation1" : 0.0
                    },
                    "animationTracks" : {

                    }
                  },
                  {
                    "id" : 102,
                    "_type" : "Callout",
                    "def" : {
                      "kind" : "remix",
                      "shape" : "shape-rectangle",
                      "style" : "basic",
                      "fill-color-blue" : 0.0,
                      "fill-color-green" : 0.0,
                      "fill-color-opacity" : 0.0,
                      "fill-color-red" : 0.0,
                      "height" : 101.274057225735,
                      "stroke-color-blue" : 0.258823529411765,
                      "stroke-color-green" : 0.258823529411765,
                      "stroke-color-opacity" : 1.0,
                      "stroke-color-red" : 0.988235294117647,
                      "stroke-width" : 8.0,
                      "width" : 1539.61786583326,
                      "fill-style" : "solid",
                      "horizontal-alignment" : "center",
                      "stroke-style" : "solid",
                      "vertical-alignment" : "center",
                      "textAttributes" : {
                        "type" : "textAttributeList",
                        "keyframes" : [
                          {
                            "endTime" : 0,
                            "time" : 0,
                            "value" : null,
                            "duration" : 0
                          }
                        ]
                      }
                    },
                    "attributes" : {
                      "autoRotateText" : true
                    },
                    "parameters" : {
                      "translation0" : -148.752042693369,
                      "translation1" : 178.337550393423
                    },
                    "effects" : [
                        {
                          "effectName" : "DropShadow",
                          "category" : "categoryVisualEffects",
                          "parameters" : {
                            "angle" : 5.49778714378214,
                            "blur" : 10.0,
                            "color-alpha" : 1.0,
                            "color-blue" : 0.1216,
                            "color-green" : 0.1216,
                            "color-red" : 0.1216,
                            "enabled" : 1,
                            "offset" : 10.0,
                            "opacity" : 0.4
                          }
                        }
                    ],
                    "start" : 981,
                    "duration" : 94,
                    "mediaStart" : 30,
                    "mediaDuration" : 94,
                    "scalar" : 1,
                    "metadata" : {
                      "WinSubProjectDisplayName" : "",
                      "clipSpeedAttribute" : false,
                      "default-stroke-color-blue" : 1.0,
                      "default-stroke-color-green" : 1.0,
                      "default-stroke-color-red" : 1.0,
                      "default-stroke-width" : 6.0,
                      "default-translation0" : 0.0,
                      "default-translation1" : 0.0
                    },
                    "animationTracks" : {

                    }
                  },
                  {
                    "id" : 103,
                    "_type" : "VMFile",
                    "src" : 6,
                    "trackNumber" : 0,
                    "attributes" : {
                      "ident" : "Homer Simpson Episode 6 GIF"
                    },
                    "parameters" : {
                      "translation0" : -605.5,
                      "translation1" : -200.1,
                      "scale0" : 1.111,
                      "scale1" : 1.111
                    },
                    "effects" : [

                    ],
                    "start" : 1075,
                    "duration" : 29,
                    "mediaStart" : 0,
                    "mediaDuration" : 29,
                    "scalar" : 1,
                    "metadata" : {
                      "WinSubProjectDisplayName" : "",
                      "clipSpeedAttribute" : false,
                      "default-scale0" : 1.0,
                      "default-scale1" : 1.0,
                      "default-translation0" : 0.0,
                      "default-translation1" : 0.0
                    },
                    "animationTracks" : {

                    }
                  },
                  {
                    "id" : 104,
                    "_type" : "VMFile",
                    "src" : 6,
                    "trackNumber" : 0,
                    "attributes" : {
                      "ident" : "Homer Simpson Episode 6 GIF"
                    },
                    "parameters" : {
                      "translation0" : -605.5,
                      "translation1" : -200.1,
                      "scale0" : 1.111,
                      "scale1" : 1.111
                    },
                    "effects" : [

                    ],
                    "start" : 1104,
                    "duration" : 29,
                    "mediaStart" : 0,
                    "mediaDuration" : 29,
                    "scalar" : 1,
                    "metadata" : {
                      "WinSubProjectDisplayName" : "",
                      "clipSpeedAttribute" : false,
                      "default-scale0" : 1.0,
                      "default-scale1" : 1.0,
                      "default-translation0" : 0.0,
                      "default-translation1" : 0.0
                    },
                    "animationTracks" : {

                    }
                  },
                  {
                    "id" : 105,
                    "_type" : "VMFile",
                    "src" : 6,
                    "trackNumber" : 0,
                    "attributes" : {
                      "ident" : "Homer Simpson Episode 6 GIF"
                    },
                    "parameters" : {
                      "translation0" : -605.5,
                      "translation1" : -200.1,
                      "scale0" : 1.111,
                      "scale1" : 1.111
                    },
                    "effects" : [

                    ],
                    "start" : 1133,
                    "duration" : 29,
                    "mediaStart" : 0,
                    "mediaDuration" : 29,
                    "scalar" : 1,
                    "metadata" : {
                      "WinSubProjectDisplayName" : "",
                      "clipSpeedAttribute" : false,
                      "default-scale0" : 1.0,
                      "default-scale1" : 1.0,
                      "default-translation0" : 0.0,
                      "default-translation1" : 0.0
                    },
                    "animationTracks" : {

                    }
                  },
                  {
                    "id" : 106,
                    "_type" : "VMFile",
                    "src" : 6,
                    "trackNumber" : 0,
                    "attributes" : {
                      "ident" : "Homer Simpson Episode 6 GIF"
                    },
                    "parameters" : {
                      "translation0" : -605.5,
                      "translation1" : -200.1,
                      "scale0" : 1.111,
                      "scale1" : 1.111
                    },
                    "effects" : [

                    ],
                    "start" : 1162,
                    "duration" : 29,
                    "mediaStart" : 0,
                    "mediaDuration" : 29,
                    "scalar" : 1,
                    "metadata" : {
                      "WinSubProjectDisplayName" : "",
                      "clipSpeedAttribute" : false,
                      "default-scale0" : 1.0,
                      "default-scale1" : 1.0,
                      "default-translation0" : 0.0,
                      "default-translation1" : 0.0
                    },
                    "animationTracks" : {

                    }
                  },
                  {
                    "id" : 107,
                    "_type" : "VMFile",
                    "src" : 6,
                    "trackNumber" : 0,
                    "attributes" : {
                      "ident" : "Homer Simpson Episode 6 GIF"
                    },
                    "parameters" : {
                      "translation0" : -605.5,
                      "translation1" : -200.1,
                      "scale0" : 1.111,
                      "scale1" : 1.111
                    },
                    "effects" : [

                    ],
                    "start" : 1191,
                    "duration" : 29,
                    "mediaStart" : 0,
                    "mediaDuration" : 29,
                    "scalar" : 1,
                    "metadata" : {
                      "WinSubProjectDisplayName" : "",
                      "clipSpeedAttribute" : false,
                      "default-scale0" : 1.0,
                      "default-scale1" : 1.0,
                      "default-translation0" : 0.0,
                      "default-translation1" : 0.0
                    },
                    "animationTracks" : {

                    }
                  },
                  {
                    "id" : 108,
                    "_type" : "Callout",
                    "def" : {
                      "kind" : "remix",
                      "shape" : "shape-rectangle",
                      "style" : "basic",
                      "fill-color-blue" : 0.0,
                      "fill-color-green" : 0.0,
                      "fill-color-opacity" : 0.0,
                      "fill-color-red" : 0.0,
                      "height" : 54.9325938109642,
                      "stroke-color-blue" : 0.258823529411765,
                      "stroke-color-green" : 0.258823529411765,
                      "stroke-color-opacity" : 1.0,
                      "stroke-color-red" : 0.988235294117647,
                      "stroke-width" : 8.0,
                      "width" : 357.715420110026,
                      "fill-style" : "solid",
                      "horizontal-alignment" : "center",
                      "stroke-style" : "solid",
                      "vertical-alignment" : "center",
                      "textAttributes" : {
                        "type" : "textAttributeList",
                        "keyframes" : [
                          {
                            "endTime" : 0,
                            "time" : 0,
                            "value" : null,
                            "duration" : 0
                          }
                        ]
                      }
                    },
                    "attributes" : {
                      "autoRotateText" : true
                    },
                    "parameters" : {
                      "translation0" : -781.166680189094,
                      "translation1" : 20.474426986072
                    },
                    "effects" : [
                        {
                          "effectName" : "DropShadow",
                          "category" : "categoryVisualEffects",
                          "parameters" : {
                            "angle" : 5.49778714378214,
                            "blur" : 10.0,
                            "color-alpha" : 1.0,
                            "color-blue" : 0.1216,
                            "color-green" : 0.1216,
                            "color-red" : 0.1216,
                            "enabled" : 1,
                            "offset" : 10.0,
                            "opacity" : 0.4
                          }
                        }
                    ],
                    "start" : 1263,
                    "duration" : 106,
                    "mediaStart" : 18,
                    "mediaDuration" : 106,
                    "scalar" : 1,
                    "metadata" : {
                      "WinSubProjectDisplayName" : "",
                      "clipSpeedAttribute" : false,
                      "default-stroke-color-blue" : 1.0,
                      "default-stroke-color-green" : 1.0,
                      "default-stroke-color-red" : 1.0,
                      "default-stroke-width" : 6.0,
                      "default-translation0" : 0.0,
                      "default-translation1" : 0.0
                    },
                    "animationTracks" : {

                    }
                  },
                  {
                    "id" : 109,
                    "_type" : "Callout",
                    "def" : {
                      "kind" : "remix",
                      "shape" : "shape-rectangle",
                      "style" : "basic",
                      "fill-color-blue" : 0.0,
                      "fill-color-green" : 0.0,
                      "fill-color-opacity" : 0.0,
                      "fill-color-red" : 0.0,
                      "height" : 54.9325938109642,
                      "stroke-color-blue" : 0.258823529411765,
                      "stroke-color-green" : 0.258823529411765,
                      "stroke-color-opacity" : 1.0,
                      "stroke-color-red" : 0.988235294117647,
                      "stroke-width" : 8.0,
                      "width" : 896.048778750748,
                      "fill-style" : "solid",
                      "horizontal-alignment" : "center",
                      "stroke-style" : "solid",
                      "vertical-alignment" : "center",
                      "textAttributes" : {
                        "type" : "textAttributeList",
                        "keyframes" : [
                          {
                            "endTime" : 0,
                            "time" : 0,
                            "value" : null,
                            "duration" : 0
                          }
                        ]
                      }
                    },
                    "attributes" : {
                      "autoRotateText" : true
                    },
                    "parameters" : {
                      "translation0" : -451.024391112524,
                      "translation1" : -16.1109388675858
                    },
                    "effects" : [
                        {
                          "effectName" : "DropShadow",
                          "category" : "categoryVisualEffects",
                          "parameters" : {
                            "angle" : 5.49778714378214,
                            "blur" : 10.0,
                            "color-alpha" : 1.0,
                            "color-blue" : 0.1216,
                            "color-green" : 0.1216,
                            "color-red" : 0.1216,
                            "enabled" : 1,
                            "offset" : 10.0,
                            "opacity" : 0.4
                          }
                        }
                    ],
                    "start" : 1380,
                    "duration" : 94,
                    "mediaStart" : 30,
                    "mediaDuration" : 94,
                    "scalar" : 1,
                    "metadata" : {
                      "WinSubProjectDisplayName" : "",
                      "clipSpeedAttribute" : false,
                      "default-stroke-color-blue" : 1.0,
                      "default-stroke-color-green" : 1.0,
                      "default-stroke-color-red" : 1.0,
                      "default-stroke-width" : 6.0,
                      "default-translation0" : 0.0,
                      "default-translation1" : 0.0
                    },
                    "animationTracks" : {

                    }
                  },
                  {
                    "id" : 110,
                    "_type" : "Callout",
                    "def" : {
                      "kind" : "remix",
                      "shape" : "shape-rectangle",
                      "style" : "basic",
                      "fill-color-blue" : 0.0,
                      "fill-color-green" : 0.0,
                      "fill-color-opacity" : 0.0,
                      "fill-color-red" : 0.0,
                      "height" : 62.2496669817914,
                      "stroke-color-blue" : 0.258823529411765,
                      "stroke-color-green" : 0.258823529411765,
                      "stroke-color-opacity" : 1.0,
                      "stroke-color-red" : 0.988235294117647,
                      "stroke-width" : 8.0,
                      "width" : 611.373956695197,
                      "fill-style" : "solid",
                      "horizontal-alignment" : "center",
                      "stroke-style" : "solid",
                      "vertical-alignment" : "center",
                      "textAttributes" : {
                        "type" : "textAttributeList",
                        "keyframes" : [
                          {
                            "endTime" : 0,
                            "time" : 0,
                            "value" : null,
                            "duration" : 0
                          }
                        ]
                      }
                    },
                    "attributes" : {
                      "autoRotateText" : true
                    },
                    "parameters" : {
                      "translation0" : -42.1422899451999,
                      "translation1" : 155.840280644562
                    },
                    "effects" : [
                        {
                          "effectName" : "DropShadow",
                          "category" : "categoryVisualEffects",
                          "parameters" : {
                            "angle" : 5.49778714378214,
                            "blur" : 10.0,
                            "color-alpha" : 1.0,
                            "color-blue" : 0.1216,
                            "color-green" : 0.1216,
                            "color-red" : 0.1216,
                            "enabled" : 1,
                            "offset" : 10.0,
                            "opacity" : 0.4
                          }
                        }
                    ],
                    "start" : 1582,
                    "duration" : 71,
                    "mediaStart" : 90,
                    "mediaDuration" : 71,
                    "scalar" : 1,
                    "metadata" : {
                      "WinSubProjectDisplayName" : "",
                      "clipSpeedAttribute" : false,
                      "default-stroke-color-blue" : 1.0,
                      "default-stroke-color-green" : 1.0,
                      "default-stroke-color-red" : 1.0,
                      "default-stroke-width" : 6.0,
                      "default-translation0" : 0.0,
                      "default-translation1" : 0.0
                    },
                    "animationTracks" : {

                    }
                  },
                  {
                    "id" : 111,
                    "_type" : "Callout",
                    "def" : {
                      "kind" : "remix",
                      "shape" : "shape-rectangle",
                      "style" : "basic",
                      "fill-color-blue" : 0.0,
                      "fill-color-green" : 0.0,
                      "fill-color-opacity" : 0.0,
                      "fill-color-red" : 0.0,
                      "height" : 62.2496669817914,
                      "stroke-color-blue" : 0.258823529411765,
                      "stroke-color-green" : 0.258823529411765,
                      "stroke-color-opacity" : 1.0,
                      "stroke-color-red" : 0.988235294117647,
                      "stroke-width" : 8.0,
                      "width" : 729.300772688883,
                      "fill-style" : "solid",
                      "horizontal-alignment" : "center",
                      "stroke-style" : "solid",
                      "vertical-alignment" : "center",
                      "textAttributes" : {
                        "type" : "textAttributeList",
                        "keyframes" : [
                          {
                            "endTime" : 0,
                            "time" : 0,
                            "value" : null,
                            "duration" : 0
                          }
                        ]
                      }
                    },
                    "attributes" : {
                      "autoRotateText" : true
                    },
                    "parameters" : {
                      "translation0" : -581.593502820343,
                      "translation1" : 26.5719879616432
                    },
                    "effects" : [
                        {
                          "effectName" : "DropShadow",
                          "category" : "categoryVisualEffects",
                          "parameters" : {
                            "angle" : 5.49778714378214,
                            "blur" : 10.0,
                            "color-alpha" : 1.0,
                            "color-blue" : 0.1216,
                            "color-green" : 0.1216,
                            "color-red" : 0.1216,
                            "enabled" : 1,
                            "offset" : 10.0,
                            "opacity" : 0.4
                          }
                        }
                    ],
                    "start" : 1720,
                    "duration" : 132,
                    "mediaStart" : 30,
                    "mediaDuration" : 132,
                    "scalar" : 1,
                    "metadata" : {
                      "WinSubProjectDisplayName" : "",
                      "clipSpeedAttribute" : false,
                      "default-scale0" : 1.0,
                      "default-scale1" : 1.0,
                      "default-stroke-color-blue" : 1.0,
                      "default-stroke-color-green" : 1.0,
                      "default-stroke-color-red" : 1.0,
                      "default-stroke-width" : 6.0,
                      "default-translation0" : 0.0,
                      "default-translation1" : 0.0
                    },
                    "animationTracks" : {

                    }
                  },
                  {
                    "id" : 112,
                    "_type" : "Callout",
                    "def" : {
                      "kind" : "remix",
                      "shape" : "shape-rectangle",
                      "style" : "basic",
                      "fill-color-blue" : 0.0,
                      "fill-color-green" : 0.0,
                      "fill-color-opacity" : 0.0,
                      "fill-color-red" : 0.0,
                      "height" : 109.438013865404,
                      "stroke-color-blue" : 0.258823529411765,
                      "stroke-color-green" : 0.258823529411765,
                      "stroke-color-opacity" : 1.0,
                      "stroke-color-red" : 0.988235294117647,
                      "stroke-width" : 8.0,
                      "width" : 1221.51903813363,
                      "fill-style" : "solid",
                      "horizontal-alignment" : "center",
                      "stroke-style" : "solid",
                      "vertical-alignment" : "center",
                      "textAttributes" : {
                        "type" : "textAttributeList",
                        "keyframes" : [
                          {
                            "endTime" : 0,
                            "time" : 0,
                            "value" : null,
                            "duration" : 0
                          }
                        ]
                      }
                    },
                    "attributes" : {
                      "autoRotateText" : true
                    },
                    "parameters" : {
                      "translation0" : -336.612432152701,
                      "translation1" : 389.868058422297
                    },
                    "effects" : [
                        {
                          "effectName" : "DropShadow",
                          "category" : "categoryVisualEffects",
                          "parameters" : {
                            "angle" : 5.49778714378214,
                            "blur" : 10.0,
                            "color-alpha" : 1.0,
                            "color-blue" : 0.1216,
                            "color-green" : 0.1216,
                            "color-red" : 0.1216,
                            "enabled" : 1,
                            "offset" : 10.0,
                            "opacity" : 0.4
                          }
                        }
                    ],
                    "start" : 1867,
                    "duration" : 132,
                    "mediaStart" : 35,
                    "mediaDuration" : 132,
                    "scalar" : 1,
                    "metadata" : {
                      "WinSubProjectDisplayName" : "",
                      "clipSpeedAttribute" : false,
                      "default-stroke-color-blue" : 1.0,
                      "default-stroke-color-green" : 1.0,
                      "default-stroke-color-red" : 1.0,
                      "default-stroke-width" : 6.0,
                      "default-translation0" : 0.0,
                      "default-translation1" : 0.0
                    },
                    "animationTracks" : {

                    }
                  },
                  {
                    "id" : 113,
                    "_type" : "Callout",
                    "def" : {
                      "kind" : "remix",
                      "shape" : "shape-rectangle",
                      "style" : "basic",
                      "fill-color-blue" : 0.0,
                      "fill-color-green" : 0.0,
                      "fill-color-opacity" : 0.0,
                      "fill-color-red" : 0.0,
                      "height" : 62.2496669817914,
                      "stroke-color-blue" : 0.258823529411765,
                      "stroke-color-green" : 0.258823529411765,
                      "stroke-color-opacity" : 1.0,
                      "stroke-color-red" : 0.988235294117647,
                      "stroke-width" : 8.0,
                      "width" : 182.959309274135,
                      "fill-style" : "solid",
                      "horizontal-alignment" : "center",
                      "stroke-style" : "solid",
                      "vertical-alignment" : "center",
                      "textAttributes" : {
                        "type" : "textAttributeList",
                        "keyframes" : [
                          {
                            "endTime" : 0,
                            "time" : 0,
                            "value" : null,
                            "duration" : 0
                          }
                        ]
                      }
                    },
                    "attributes" : {
                      "autoRotateText" : true
                    },
                    "parameters" : {
                      "translation0" : -859.6422833082,
                      "translation1" : -261.232890087173
                    },
                    "effects" : [
                        {
                          "effectName" : "DropShadow",
                          "category" : "categoryVisualEffects",
                          "parameters" : {
                            "angle" : 5.49778714378214,
                            "blur" : 10.0,
                            "color-alpha" : 1.0,
                            "color-blue" : 0.1216,
                            "color-green" : 0.1216,
                            "color-red" : 0.1216,
                            "enabled" : 1,
                            "offset" : 10.0,
                            "opacity" : 0.4
                          }
                        }
                    ],
                    "start" : 2000,
                    "duration" : 115,
                    "mediaStart" : 30,
                    "mediaDuration" : 115,
                    "scalar" : 1,
                    "metadata" : {
                      "WinSubProjectDisplayName" : "",
                      "clipSpeedAttribute" : false,
                      "default-stroke-color-blue" : 1.0,
                      "default-stroke-color-green" : 1.0,
                      "default-stroke-color-red" : 1.0,
                      "default-stroke-width" : 6.0,
                      "default-translation0" : 0.0,
                      "default-translation1" : 0.0
                    },
                    "animationTracks" : {

                    }
                  },
                  {
                    "id" : 114,
                    "_type" : "Callout",
                    "def" : {
                      "kind" : "remix",
                      "shape" : "shape-rectangle",
                      "style" : "basic",
                      "fill-color-blue" : 0.0,
                      "fill-color-green" : 0.0,
                      "fill-color-opacity" : 0.0,
                      "fill-color-red" : 0.0,
                      "height" : 194.308939810164,
                      "stroke-color-blue" : 0.258823529411765,
                      "stroke-color-green" : 0.258823529411765,
                      "stroke-color-opacity" : 1.0,
                      "stroke-color-red" : 0.988235294117647,
                      "stroke-width" : 8.0,
                      "width" : 1140.11039328477,
                      "fill-style" : "solid",
                      "horizontal-alignment" : "center",
                      "stroke-style" : "solid",
                      "vertical-alignment" : "center",
                      "textAttributes" : {
                        "type" : "textAttributeList",
                        "keyframes" : [
                          {
                            "endTime" : 0,
                            "time" : 0,
                            "value" : null,
                            "duration" : 0
                          }
                        ]
                      }
                    },
                    "attributes" : {
                      "autoRotateText" : true
                    },
                    "parameters" : {
                      "translation0" : -372.05591316531,
                      "translation1" : 342.171581271052
                    },
                    "effects" : [
                        {
                          "effectName" : "DropShadow",
                          "category" : "categoryVisualEffects",
                          "parameters" : {
                            "angle" : 5.49778714378214,
                            "blur" : 10.0,
                            "color-alpha" : 1.0,
                            "color-blue" : 0.1216,
                            "color-green" : 0.1216,
                            "color-red" : 0.1216,
                            "enabled" : 1,
                            "offset" : 10.0,
                            "opacity" : 0.4
                          }
                        }
                    ],
                    "start" : 2129,
                    "duration" : 243,
                    "mediaStart" : 30,
                    "mediaDuration" : 243,
                    "scalar" : 1,
                    "metadata" : {
                      "WinSubProjectDisplayName" : "",
                      "clipSpeedAttribute" : false,
                      "default-stroke-color-blue" : 1.0,
                      "default-stroke-color-green" : 1.0,
                      "default-stroke-color-red" : 1.0,
                      "default-stroke-width" : 6.0,
                      "default-translation0" : 0.0,
                      "default-translation1" : 0.0
                    },
                    "animationTracks" : {

                    }
                  },
                  {
                    "id" : 115,
                    "_type" : "Callout",
                    "def" : {
                      "kind" : "remix",
                      "shape" : "shape-rectangle",
                      "style" : "basic",
                      "fill-color-blue" : 0.0,
                      "fill-color-green" : 0.0,
                      "fill-color-opacity" : 0.0,
                      "fill-color-red" : 0.0,
                      "height" : 62.2496669817914,
                      "stroke-color-blue" : 0.258823529411765,
                      "stroke-color-green" : 0.258823529411765,
                      "stroke-color-opacity" : 1.0,
                      "stroke-color-red" : 0.988235294117647,
                      "stroke-width" : 8.0,
                      "width" : 517.105650737379,
                      "fill-style" : "solid",
                      "horizontal-alignment" : "center",
                      "stroke-style" : "solid",
                      "vertical-alignment" : "center",
                      "textAttributes" : {
                        "type" : "textAttributeList",
                        "keyframes" : [
                          {
                            "endTime" : 0,
                            "time" : 0,
                            "value" : null,
                            "duration" : 0
                          }
                        ]
                      }
                    },
                    "attributes" : {
                      "autoRotateText" : true
                    },
                    "parameters" : {
                      "translation0" : -692.569112576579,
                      "translation1" : -261.232890087173
                    },
                    "effects" : [
                        {
                          "effectName" : "DropShadow",
                          "category" : "categoryVisualEffects",
                          "parameters" : {
                            "angle" : 5.49778714378214,
                            "blur" : 10.0,
                            "color-alpha" : 1.0,
                            "color-blue" : 0.1216,
                            "color-green" : 0.1216,
                            "color-red" : 0.1216,
                            "enabled" : 1,
                            "offset" : 10.0,
                            "opacity" : 0.4
                          }
                        }
                    ],
                    "start" : 2373,
                    "duration" : 130,
                    "mediaStart" : 43,
                    "mediaDuration" : 130,
                    "scalar" : 1,
                    "metadata" : {
                      "WinSubProjectDisplayName" : "",
                      "clipSpeedAttribute" : false,
                      "default-stroke-color-blue" : 1.0,
                      "default-stroke-color-green" : 1.0,
                      "default-stroke-color-red" : 1.0,
                      "default-stroke-width" : 6.0,
                      "default-translation0" : 0.0,
                      "default-translation1" : 0.0
                    },
                    "animationTracks" : {

                    }
                  },
                  {
                    "id" : 116,
                    "_type" : "Callout",
                    "def" : {
                      "kind" : "remix",
                      "shape" : "shape-rectangle",
                      "style" : "basic",
                      "fill-color-blue" : 0.0,
                      "fill-color-green" : 0.0,
                      "fill-color-opacity" : 0.0,
                      "fill-color-red" : 0.0,
                      "height" : 54.9325938112658,
                      "stroke-color-blue" : 0.258823529411765,
                      "stroke-color-green" : 0.258823529411765,
                      "stroke-color-opacity" : 1.0,
                      "stroke-color-red" : 0.988235294117647,
                      "stroke-width" : 8.0,
                      "width" : 158.569065371464,
                      "fill-style" : "solid",
                      "horizontal-alignment" : "center",
                      "stroke-style" : "solid",
                      "vertical-alignment" : "center",
                      "textAttributes" : {
                        "type" : "textAttributeList",
                        "keyframes" : [
                          {
                            "endTime" : 0,
                            "time" : 0,
                            "value" : null,
                            "duration" : 0
                          }
                        ]
                      }
                    },
                    "attributes" : {
                      "autoRotateText" : true
                    },
                    "parameters" : {
                      "translation0" : -864.520332088973,
                      "translation1" : -406.354841306772
                    },
                    "effects" : [
                        {
                          "effectName" : "DropShadow",
                          "category" : "categoryVisualEffects",
                          "parameters" : {
                            "angle" : 5.49778714378214,
                            "blur" : 10.0,
                            "color-alpha" : 1.0,
                            "color-blue" : 0.1216,
                            "color-green" : 0.1216,
                            "color-red" : 0.1216,
                            "enabled" : 1,
                            "offset" : 10.0,
                            "opacity" : 0.4
                          }
                        }
                    ],
                    "start" : 2670,
                    "duration" : 33,
                    "mediaStart" : 43,
                    "mediaDuration" : 33,
                    "scalar" : 1,
                    "metadata" : {
                      "WinSubProjectDisplayName" : "",
                      "clipSpeedAttribute" : false,
                      "default-scale0" : 1.0,
                      "default-scale1" : 1.0,
                      "default-stroke-color-blue" : 1.0,
                      "default-stroke-color-green" : 1.0,
                      "default-stroke-color-red" : 1.0,
                      "default-stroke-width" : 6.0,
                      "default-translation0" : 0.0,
                      "default-translation1" : 0.0
                    },
                    "animationTracks" : {

                    }
                  },
                  {
                    "id" : 117,
                    "_type" : "Callout",
                    "def" : {
                      "kind" : "remix",
                      "shape" : "shape-rectangle",
                      "style" : "basic",
                      "fill-color-blue" : 0.0,
                      "fill-color-green" : 0.0,
                      "fill-color-opacity" : 0.0,
                      "fill-color-red" : 0.0,
                      "height" : 80.975606476679,
                      "stroke-color-blue" : 0.258823529411765,
                      "stroke-color-green" : 0.258823529411765,
                      "stroke-color-opacity" : 1.0,
                      "stroke-color-red" : 0.988235294117647,
                      "stroke-width" : 8.0,
                      "width" : 1202.47150439542,
                      "fill-style" : "solid",
                      "horizontal-alignment" : "center",
                      "stroke-style" : "solid",
                      "vertical-alignment" : "center",
                      "textAttributes" : {
                        "type" : "textAttributeList",
                        "keyframes" : [
                          {
                            "endTime" : 0,
                            "time" : 0,
                            "value" : null,
                            "duration" : 0
                          }
                        ]
                      }
                    },
                    "attributes" : {
                      "autoRotateText" : true
                    },
                    "parameters" : {
                      "translation0" : -332.81302698669,
                      "translation1" : 37.5475975313112
                    },
                    "effects" : [
                        {
                          "effectName" : "DropShadow",
                          "category" : "categoryVisualEffects",
                          "parameters" : {
                            "angle" : 5.49778714378214,
                            "blur" : 10.0,
                            "color-alpha" : 1.0,
                            "color-blue" : 0.1216,
                            "color-green" : 0.1216,
                            "color-red" : 0.1216,
                            "enabled" : 1,
                            "offset" : 10.0,
                            "opacity" : 0.4
                          }
                        }
                    ],
                    "start" : 2724,
                    "duration" : 180,
                    "mediaStart" : 30,
                    "mediaDuration" : 180,
                    "scalar" : 1,
                    "metadata" : {
                      "WinSubProjectDisplayName" : "",
                      "clipSpeedAttribute" : false,
                      "default-stroke-color-blue" : 1.0,
                      "default-stroke-color-green" : 1.0,
                      "default-stroke-color-red" : 1.0,
                      "default-stroke-width" : 6.0,
                      "default-translation0" : 0.0,
                      "default-translation1" : 0.0
                    },
                    "animationTracks" : {

                    }
                  },
                  {
                    "id" : 118,
                    "_type" : "Callout",
                    "def" : {
                      "kind" : "remix",
                      "shape" : "shape-rectangle",
                      "style" : "basic",
                      "fill-color-blue" : 0.0,
                      "fill-color-green" : 0.0,
                      "fill-color-opacity" : 0.0,
                      "fill-color-red" : 0.0,
                      "height" : 59.3495934960772,
                      "stroke-color-blue" : 0.258823529411765,
                      "stroke-color-green" : 0.258823529411765,
                      "stroke-color-opacity" : 1.0,
                      "stroke-color-red" : 0.988235294117647,
                      "stroke-width" : 8.0,
                      "width" : 510.349573150853,
                      "fill-style" : "solid",
                      "horizontal-alignment" : "center",
                      "stroke-style" : "solid",
                      "vertical-alignment" : "center",
                      "textAttributes" : {
                        "type" : "textAttributeList",
                        "keyframes" : [
                          {
                            "endTime" : 0,
                            "time" : 0,
                            "value" : null,
                            "duration" : 0
                          }
                        ]
                      }
                    },
                    "attributes" : {
                      "autoRotateText" : true
                    },
                    "parameters" : {
                      "translation0" : -702.410579278436,
                      "translation1" : -330.975609756249
                    },
                    "effects" : [
                        {
                          "effectName" : "DropShadow",
                          "category" : "categoryVisualEffects",
                          "parameters" : {
                            "angle" : 5.49778714378214,
                            "blur" : 10.0,
                            "color-alpha" : 1.0,
                            "color-blue" : 0.1216,
                            "color-green" : 0.1216,
                            "color-red" : 0.1216,
                            "enabled" : 1,
                            "offset" : 10.0,
                            "opacity" : 0.4
                          }
                        }
                    ],
                    "start" : 3060,
                    "duration" : 68,
                    "mediaStart" : 119,
                    "mediaDuration" : 68,
                    "scalar" : 1,
                    "metadata" : {
                      "WinSubProjectDisplayName" : "",
                      "clipSpeedAttribute" : false,
                      "default-stroke-color-blue" : 1.0,
                      "default-stroke-color-green" : 1.0,
                      "default-stroke-color-red" : 1.0,
                      "default-stroke-width" : 6.0,
                      "default-translation0" : 0.0,
                      "default-translation1" : 0.0
                    },
                    "animationTracks" : {

                    }
                  },
                  {
                    "id" : 119,
                    "_type" : "Callout",
                    "def" : {
                      "kind" : "remix",
                      "shape" : "shape-rectangle",
                      "style" : "basic",
                      "fill-color-blue" : 0.0,
                      "fill-color-green" : 0.0,
                      "fill-color-opacity" : 0.0,
                      "fill-color-red" : 0.0,
                      "height" : 71.5447154474595,
                      "stroke-color-blue" : 0.258823529411765,
                      "stroke-color-green" : 0.258823529411765,
                      "stroke-color-opacity" : 1.0,
                      "stroke-color-red" : 0.988235294117647,
                      "stroke-width" : 8.0,
                      "width" : 510.349573150853,
                      "fill-style" : "solid",
                      "horizontal-alignment" : "center",
                      "stroke-style" : "solid",
                      "vertical-alignment" : "center",
                      "textAttributes" : {
                        "type" : "textAttributeList",
                        "keyframes" : [
                          {
                            "endTime" : 0,
                            "time" : 0,
                            "value" : null,
                            "duration" : 0
                          }
                        ]
                      }
                    },
                    "attributes" : {
                      "autoRotateText" : true
                    },
                    "parameters" : {
                      "translation0" : -702.410579278436,
                      "translation1" : -237.073170731952
                    },
                    "effects" : [
                        {
                          "effectName" : "DropShadow",
                          "category" : "categoryVisualEffects",
                          "parameters" : {
                            "angle" : 5.49778714378214,
                            "blur" : 10.0,
                            "color-alpha" : 1.0,
                            "color-blue" : 0.1216,
                            "color-green" : 0.1216,
                            "color-red" : 0.1216,
                            "enabled" : 1,
                            "offset" : 10.0,
                            "opacity" : 0.4
                          }
                        }
                    ],
                    "start" : 3238,
                    "duration" : 68,
                    "mediaStart" : 119,
                    "mediaDuration" : 68,
                    "scalar" : 1,
                    "metadata" : {
                      "WinSubProjectDisplayName" : "",
                      "clipSpeedAttribute" : false,
                      "default-stroke-color-blue" : 1.0,
                      "default-stroke-color-green" : 1.0,
                      "default-stroke-color-red" : 1.0,
                      "default-stroke-width" : 6.0,
                      "default-translation0" : 0.0,
                      "default-translation1" : 0.0
                    },
                    "animationTracks" : {

                    }
                  },
                  {
                    "id" : 120,
                    "_type" : "Callout",
                    "def" : {
                      "kind" : "remix",
                      "shape" : "shape-rectangle",
                      "style" : "basic",
                      "fill-color-blue" : 0.0,
                      "fill-color-green" : 0.0,
                      "fill-color-opacity" : 0.0,
                      "fill-color-red" : 0.0,
                      "height" : 317.88617886237,
                      "stroke-color-blue" : 0.2,
                      "stroke-color-green" : 0.4,
                      "stroke-color-opacity" : 1.0,
                      "stroke-color-red" : 0.0,
                      "stroke-width" : 19.0,
                      "width" : 834.739817052808,
                      "fill-style" : "solid",
                      "horizontal-alignment" : "center",
                      "stroke-style" : "solid",
                      "vertical-alignment" : "center",
                      "textAttributes" : {
                        "type" : "textAttributeList",
                        "keyframes" : [
                          {
                            "endTime" : 0,
                            "time" : 0,
                            "value" : null,
                            "duration" : 0
                          }
                        ]
                      }
                    },
                    "attributes" : {
                      "autoRotateText" : true
                    },
                    "parameters" : {
                      "translation0" : -358.19782048818,
                      "translation1" : -160.24390243963
                    },
                    "effects" : [
                        {
                          "effectName" : "DropShadow",
                          "category" : "categoryVisualEffects",
                          "parameters" : {
                            "angle" : 5.49778714378214,
                            "blur" : 10.0,
                            "color-alpha" : 1.0,
                            "color-blue" : 0.1216,
                            "color-green" : 0.1216,
                            "color-red" : 0.1216,
                            "enabled" : 1,
                            "offset" : 10.0,
                            "opacity" : 0.4
                          }
                        }
                    ],
                    "start" : 3633,
                    "duration" : 134,
                    "mediaStart" : 121,
                    "mediaDuration" : 134,
                    "scalar" : 1,
                    "metadata" : {
                      "WinSubProjectDisplayName" : "",
                      "clipSpeedAttribute" : false,
                      "default-stroke-color-blue" : 1.0,
                      "default-stroke-color-green" : 1.0,
                      "default-stroke-color-red" : 1.0,
                      "default-stroke-width" : 6.0,
                      "default-translation0" : 0.0,
                      "default-translation1" : 0.0
                    },
                    "animationTracks" : {

                    }
                  },
                  {
                    "id" : 121,
                    "_type" : "Callout",
                    "def" : {
                      "kind" : "remix",
                      "shape" : "shape-rectangle",
                      "style" : "urban",
                      "fill-color-blue" : 0.0,
                      "fill-color-green" : 0.0,
                      "fill-color-opacity" : 0.0,
                      "fill-color-red" : 0.0,
                      "height" : 1066.22220357272,
                      "stroke-color-blue" : 0.2,
                      "stroke-color-green" : 0.4,
                      "stroke-color-opacity" : 1.0,
                      "stroke-color-red" : 0.0,
                      "stroke-width" : 21.5555555555557,
                      "width" : 1914.00000000002,
                      "fill-style" : "solid",
                      "horizontal-alignment" : "center",
                      "stroke-style" : "solid",
                      "vertical-alignment" : "center",
                      "textAttributes" : {
                        "type" : "textAttributeList",
                        "keyframes" : [
                          {
                            "endTime" : 0,
                            "time" : 0,
                            "value" : null,
                            "duration" : 0
                          }
                        ]
                      }
                    },
                    "attributes" : {
                      "autoRotateText" : true
                    },
                    "parameters" : {
                      "translation0" : -6.78710421198048e-11,
                      "translation1" : 3.88889312742612
                    },
                    "effects" : [
                        {
                          "effectName" : "DropShadow",
                          "category" : "categoryVisualEffects",
                          "parameters" : {
                            "angle" : 5.49778714378214,
                            "blur" : 10.0,
                            "color-alpha" : 1.0,
                            "color-blue" : 0.1216,
                            "color-green" : 0.1216,
                            "color-red" : 0.1216,
                            "enabled" : 1,
                            "offset" : 10.0,
                            "opacity" : 0.4
                          }
                        }
                    ],
                    "start" : 3797,
                    "duration" : 115,
                    "mediaStart" : -25,
                    "mediaDuration" : 115,
                    "scalar" : 1,
                    "metadata" : {
                      "WinSubProjectDisplayName" : "",
                      "clipSpeedAttribute" : false,
                      "default-scale0" : 1.0,
                      "default-scale1" : 1.0,
                      "default-stroke-color-blue" : 1.0,
                      "default-stroke-color-green" : 1.0,
                      "default-stroke-color-red" : 1.0,
                      "default-stroke-width" : 6.0,
                      "default-translation0" : 0.0,
                      "default-translation1" : 0.0
                    },
                    "animationTracks" : {

                    }
                  }
                ]
              },
              {
                "trackIndex" : 3,
                "medias" : [
                  {
                    "id" : 122,
                    "_type" : "AMFile",
                    "src" : 1,
                    "trackNumber" : 0,
                    "attributes" : {
                      "ident" : "Neizvesten+Saundtrek+k+fil+mu+RODINA+ZhDET+NEVYPOLNIMOE+ZAD_muzlishko.ru_",
                      "sampleRate" : 32000,
                      "bitDepth" : 0,
                      "gain" : 1.0,
                      "mixToMono" : false
                    },
                      "channelNumber" : "0,1",
                    "parameters" : {
                      "volume" : {
                        "type" : "double",
                        "keyframes" : [
                          {
                            "endTime" : 0,
                            "time" : 0,
                            "value" : 1.0,
                            "duration" : 0
                          },
                          {
                            "endTime" : 252,
                            "time" : 252,
                            "value" : 1.0,
                            "duration" : 0
                          },
                          {
                            "endTime" : 342,
                            "time" : 342,
                            "value" : 0.0,
                            "duration" : 0
                          },
                          {
                            "endTime" : 343,
                            "time" : 343,
                            "value" : 1.0,
                            "duration" : 0
                          }
                        ]
                      }
                    },
                    "effects" : [

                    ],
                    "start" : 0,
                    "duration" : 211,
                    "mediaStart" : 73,
                    "mediaDuration" : 211,
                    "scalar" : 1,
                    "metadata" : {
                      "WinSubProjectDisplayName" : "",
                      "clipSpeedAttribute" : false
                    },
                    "animationTracks" : {

                    }
                  },
                  {
                    "id" : 123,
                    "_type" : "VMFile",
                    "src" : 4,
                    "trackNumber" : 0,
                    "attributes" : {
                      "ident" : "Converted by onlinevideoconverter.com[1280x720] Channel Ocho  Simpsons World on FXX (1)"
                    },
                    "parameters" : {
                      "translation0" : 555.3,
                      "translation1" : 282.9,
                      "scale0" : 0.533,
                      "scale1" : 0.533
                    },
                    "effects" : [

                    ],
                    "start" : 881,
                    "duration" : 88,
                    "mediaStart" : 8499,
                    "mediaDuration" : 88,
                    "scalar" : 1,
                    "metadata" : {
                      "WinSubProjectDisplayName" : "",
                      "clipSpeedAttribute" : false,
                      "default-scale0" : 1.0,
                      "default-scale1" : 1.0,
                      "default-translation0" : 0.0,
                      "default-translation1" : 0.0
                    },
                    "animationTracks" : {

                    }
                  },
                  {
                    "id" : 124,
                    "_type" : "VMFile",
                    "src" : 4,
                    "trackNumber" : 0,
                    "attributes" : {
                      "ident" : "Converted by onlinevideoconverter.com[1280x720] Channel Ocho  Simpsons World on FXX (1)"
                    },
                    "parameters" : {
                      "translation0" : -2.8421709430404e-11,
                      "translation1" : -96.2666666666049,
                      "scale0" : 0.533,
                      "scale1" : 0.533
                    },
                    "effects" : [

                    ],
                    "start" : 981,
                    "duration" : 94,
                    "mediaStart" : 20841,
                    "mediaDuration" : 94,
                    "scalar" : 1,
                    "metadata" : {
                      "WinSubProjectDisplayName" : "",
                      "clipSpeedAttribute" : false
                    },
                    "animationTracks" : {

                    }
                  },
                  {
                    "id" : 125,
                    "_type" : "Callout",
                    "def" : {
                      "kind" : "remix",
                      "shape" : "speech-bubble",
                      "style" : "basic",
                      "fill-color-blue" : 0.184313725490196,
                      "fill-color-green" : 0.156862745098039,
                      "fill-color-opacity" : 1.0,
                      "fill-color-red" : 0.137254901960784,
                      "height" : 107.577408260806,
                      "stroke-color-blue" : 1.0,
                      "stroke-color-green" : 1.0,
                      "stroke-color-opacity" : 1.0,
                      "stroke-color-red" : 1.0,
                      "stroke-width" : 3.0,
                      "tail-x" : -189.28119061927,
                      "tail-y" : -4.26685142512491,
                      "width" : 114.432000000031,
                      "word-wrap" : 1.0,
                      "fill-style" : "solid",
                      "horizontal-alignment" : "center",
                      "stroke-style" : "solid",
                      "text" : "",
                      "vertical-alignment" : "center",
                      "font" : {
                        "color-blue" : 1.0,
                        "color-green" : 1.0,
                        "color-red" : 1.0,
                        "size" : 64.0,
                        "tracking" : 0.0,
                        "name" : "Montserrat",
                        "weight" : "Regular"
                      },
                      "textAttributes" : {
                        "type" : "textAttributeList",
                        "keyframes" : [
                          {
                            "endTime" : 0,
                            "time" : 0,
                            "value" : [{"name":"fontName","rangeEnd":1,"rangeStart":0,"value":"Montserrat","valueType":"string"},{"name":"fontItalic","rangeEnd":1,"rangeStart":0,"value":0,"valueType":"int"},{"name":"underline","rangeEnd":1,"rangeStart":0,"value":0,"valueType":"int"},{"name":"fgColor","rangeEnd":1,"rangeStart":0,"value":"(255,255,255,255)","valueType":"color"},{"name":"fontSize","rangeEnd":1,"rangeStart":0,"value":64,"valueType":"double"},{"name":"strikethrough","rangeEnd":1,"rangeStart":0,"value":0,"valueType":"int"},{"name":"fontWeight","rangeEnd":1,"rangeStart":0,"value":400,"valueType":"int"}],
                            "duration" : 0
                          }
                        ]
                      }
                    },
                    "attributes" : {
                      "autoRotateText" : true
                    },
                    "parameters" : {
                      "translation0" : -411.805555555517,
                      "translation1" : 24.741278411126
                    },
                    "effects" : [
                        {
                          "effectName" : "DropShadow",
                          "category" : "categoryVisualEffects",
                          "parameters" : {
                            "angle" : 5.49778714378214,
                            "blur" : 10.0,
                            "color-alpha" : 1.0,
                            "color-blue" : 0.1216,
                            "color-green" : 0.1216,
                            "color-red" : 0.1216,
                            "enabled" : 1,
                            "offset" : 10.0,
                            "opacity" : 0.4
                          }
                        }
                    ],
                    "start" : 1263,
                    "duration" : 106,
                    "mediaStart" : 0,
                    "mediaDuration" : 106,
                    "scalar" : 1,
                    "metadata" : {
                      "WinSubProjectDisplayName" : "",
                      "clipSpeedAttribute" : false,
                      "default-HAlign" : "center",
                      "default-VAlign" : "center",
                      "default-fill-color-blue" : 0.537254901960784,
                      "default-fill-color-green" : 0.133333333333333,
                      "default-fill-color-red" : 0.388235294117647,
                      "default-stroke-width" : 0.0,
                      "default-translation0" : 0.0,
                      "default-translation1" : 0.0
                    },
                    "animationTracks" : {

                    }
                  },
                  {
                    "id" : 126,
                    "_type" : "VMFile",
                    "src" : 6,
                    "trackNumber" : 0,
                    "attributes" : {
                      "ident" : "Homer Simpson Episode 6 GIF"
                    },
                    "parameters" : {
                      "translation0" : -605.5,
                      "translation1" : -200.1,
                      "scale0" : 1.111,
                      "scale1" : 1.111
                    },
                    "effects" : [

                    ],
                    "start" : 1507,
                    "duration" : 29,
                    "mediaStart" : 0,
                    "mediaDuration" : 29,
                    "scalar" : 1,
                    "metadata" : {
                      "WinSubProjectDisplayName" : "",
                      "clipSpeedAttribute" : false,
                      "default-scale0" : 1.0,
                      "default-scale1" : 1.0,
                      "default-translation0" : 0.0,
                      "default-translation1" : 0.0
                    },
                    "animationTracks" : {

                    }
                  },
                  {
                    "id" : 127,
                    "_type" : "VMFile",
                    "src" : 6,
                    "trackNumber" : 0,
                    "attributes" : {
                      "ident" : "Homer Simpson Episode 6 GIF"
                    },
                    "parameters" : {
                      "translation0" : -605.5,
                      "translation1" : -200.1,
                      "scale0" : 1.111,
                      "scale1" : 1.111
                    },
                    "effects" : [

                    ],
                    "start" : 1536,
                    "duration" : 29,
                    "mediaStart" : 0,
                    "mediaDuration" : 29,
                    "scalar" : 1,
                    "metadata" : {
                      "WinSubProjectDisplayName" : "",
                      "clipSpeedAttribute" : false,
                      "default-scale0" : 1.0,
                      "default-scale1" : 1.0,
                      "default-translation0" : 0.0,
                      "default-translation1" : 0.0
                    },
                    "animationTracks" : {

                    }
                  },
                  {
                    "id" : 128,
                    "_type" : "VMFile",
                    "src" : 6,
                    "trackNumber" : 0,
                    "attributes" : {
                      "ident" : "Homer Simpson Episode 6 GIF"
                    },
                    "parameters" : {
                      "translation0" : -605.5,
                      "translation1" : -200.1,
                      "scale0" : 1.111,
                      "scale1" : 1.111
                    },
                    "effects" : [

                    ],
                    "start" : 1565,
                    "duration" : 29,
                    "mediaStart" : 0,
                    "mediaDuration" : 29,
                    "scalar" : 1,
                    "metadata" : {
                      "WinSubProjectDisplayName" : "",
                      "clipSpeedAttribute" : false,
                      "default-scale0" : 1.0,
                      "default-scale1" : 1.0,
                      "default-translation0" : 0.0,
                      "default-translation1" : 0.0
                    },
                    "animationTracks" : {

                    }
                  },
                  {
                    "id" : 129,
                    "_type" : "VMFile",
                    "src" : 6,
                    "trackNumber" : 0,
                    "attributes" : {
                      "ident" : "Homer Simpson Episode 6 GIF"
                    },
                    "parameters" : {
                      "translation0" : -605.5,
                      "translation1" : -200.1,
                      "scale0" : 1.111,
                      "scale1" : 1.111
                    },
                    "effects" : [

                    ],
                    "start" : 1594,
                    "duration" : 29,
                    "mediaStart" : 0,
                    "mediaDuration" : 29,
                    "scalar" : 1,
                    "metadata" : {
                      "WinSubProjectDisplayName" : "",
                      "clipSpeedAttribute" : false,
                      "default-scale0" : 1.0,
                      "default-scale1" : 1.0,
                      "default-translation0" : 0.0,
                      "default-translation1" : 0.0
                    },
                    "animationTracks" : {

                    }
                  },
                  {
                    "id" : 130,
                    "_type" : "VMFile",
                    "src" : 6,
                    "trackNumber" : 0,
                    "attributes" : {
                      "ident" : "Homer Simpson Episode 6 GIF"
                    },
                    "parameters" : {
                      "translation0" : -605.5,
                      "translation1" : -200.1,
                      "scale0" : 1.111,
                      "scale1" : 1.111
                    },
                    "effects" : [

                    ],
                    "start" : 1623,
                    "duration" : 29,
                    "mediaStart" : 0,
                    "mediaDuration" : 29,
                    "scalar" : 1,
                    "metadata" : {
                      "WinSubProjectDisplayName" : "",
                      "clipSpeedAttribute" : false,
                      "default-scale0" : 1.0,
                      "default-scale1" : 1.0,
                      "default-translation0" : 0.0,
                      "default-translation1" : 0.0
                    },
                    "animationTracks" : {

                    }
                  },
                  {
                    "id" : 131,
                    "_type" : "VMFile",
                    "src" : 6,
                    "trackNumber" : 0,
                    "attributes" : {
                      "ident" : "Homer Simpson Episode 6 GIF"
                    },
                    "parameters" : {
                      "translation0" : -605.5,
                      "translation1" : -200.1,
                      "scale0" : 1.111,
                      "scale1" : 1.111
                    },
                    "effects" : [

                    ],
                    "start" : 1652,
                    "duration" : 29,
                    "mediaStart" : 0,
                    "mediaDuration" : 29,
                    "scalar" : 1,
                    "metadata" : {
                      "WinSubProjectDisplayName" : "",
                      "clipSpeedAttribute" : false,
                      "default-scale0" : 1.0,
                      "default-scale1" : 1.0,
                      "default-translation0" : 0.0,
                      "default-translation1" : 0.0
                    },
                    "animationTracks" : {

                    }
                  },
                  {
                    "id" : 132,
                    "_type" : "VMFile",
                    "src" : 6,
                    "trackNumber" : 0,
                    "attributes" : {
                      "ident" : "Homer Simpson Episode 6 GIF"
                    },
                    "parameters" : {
                      "translation0" : -605.5,
                      "translation1" : -200.1,
                      "scale0" : 1.111,
                      "scale1" : 1.111
                    },
                    "effects" : [

                    ],
                    "start" : 1681,
                    "duration" : 29,
                    "mediaStart" : 0,
                    "mediaDuration" : 29,
                    "scalar" : 1,
                    "metadata" : {
                      "WinSubProjectDisplayName" : "",
                      "clipSpeedAttribute" : false,
                      "default-scale0" : 1.0,
                      "default-scale1" : 1.0,
                      "default-translation0" : 0.0,
                      "default-translation1" : 0.0
                    },
                    "animationTracks" : {

                    }
                  },
                  {
                    "id" : 133,
                    "_type" : "Callout",
                    "def" : {
                      "kind" : "remix",
                      "shape" : "speech-bubble",
                      "style" : "basic",
                      "fill-color-blue" : 0.184313725490196,
                      "fill-color-green" : 0.156862745098039,
                      "fill-color-opacity" : 1.0,
                      "fill-color-red" : 0.137254901960784,
                      "height" : 107.577408260806,
                      "stroke-color-blue" : 1.0,
                      "stroke-color-green" : 1.0,
                      "stroke-color-opacity" : 1.0,
                      "stroke-color-red" : 1.0,
                      "stroke-width" : 3.0,
                      "tail-x" : -189.28119061927,
                      "tail-y" : -4.26685142512491,
                      "width" : 114.432000000031,
                      "word-wrap" : 1.0,
                      "fill-style" : "solid",
                      "horizontal-alignment" : "center",
                      "stroke-style" : "solid",
                      "text" : "",
                      "vertical-alignment" : "center",
                      "font" : {
                        "color-blue" : 1.0,
                        "color-green" : 1.0,
                        "color-red" : 1.0,
                        "size" : 64.0,
                        "tracking" : 0.0,
                        "name" : "Montserrat",
                        "weight" : "Regular"
                      },
                      "textAttributes" : {
                        "type" : "textAttributeList",
                        "keyframes" : [
                          {
                            "endTime" : 0,
                            "time" : 0,
                            "value" : [{"name":"fontName","rangeEnd":1,"rangeStart":0,"value":"Montserrat","valueType":"string"},{"name":"fontItalic","rangeEnd":1,"rangeStart":0,"value":0,"valueType":"int"},{"name":"underline","rangeEnd":1,"rangeStart":0,"value":0,"valueType":"int"},{"name":"fgColor","rangeEnd":1,"rangeStart":0,"value":"(255,255,255,255)","valueType":"color"},{"name":"fontSize","rangeEnd":1,"rangeStart":0,"value":64,"valueType":"double"},{"name":"strikethrough","rangeEnd":1,"rangeStart":0,"value":0,"valueType":"int"},{"name":"fontWeight","rangeEnd":1,"rangeStart":0,"value":400,"valueType":"int"}],
                            "duration" : 0
                          }
                        ]
                      }
                    },
                    "attributes" : {
                      "autoRotateText" : true
                    },
                    "parameters" : {
                      "translation0" : -24.3055555555005,
                      "translation1" : 33.07461174443
                    },
                    "effects" : [
                        {
                          "effectName" : "DropShadow",
                          "category" : "categoryVisualEffects",
                          "parameters" : {
                            "angle" : 5.49778714378214,
                            "blur" : 10.0,
                            "color-alpha" : 1.0,
                            "color-blue" : 0.1216,
                            "color-green" : 0.1216,
                            "color-red" : 0.1216,
                            "enabled" : 1,
                            "offset" : 10.0,
                            "opacity" : 0.4
                          }
                        }
                    ],
                    "start" : 1720,
                    "duration" : 132,
                    "mediaStart" : 0,
                    "mediaDuration" : 132,
                    "scalar" : 1,
                    "metadata" : {
                      "WinSubProjectDisplayName" : "",
                      "clipSpeedAttribute" : false,
                      "default-HAlign" : "center",
                      "default-VAlign" : "center",
                      "default-fill-color-blue" : 0.537254901960784,
                      "default-fill-color-green" : 0.133333333333333,
                      "default-fill-color-red" : 0.388235294117647,
                      "default-stroke-width" : 0.0,
                      "default-translation0" : 0.0,
                      "default-translation1" : 0.0
                    },
                    "animationTracks" : {

                    }
                  },
                  {
                    "id" : 134,
                    "_type" : "Callout",
                    "def" : {
                      "kind" : "remix",
                      "shape" : "speech-bubble",
                      "style" : "basic",
                      "fill-color-blue" : 0.184313725490196,
                      "fill-color-green" : 0.156862745098039,
                      "fill-color-opacity" : 1.0,
                      "fill-color-red" : 0.137254901960784,
                      "height" : 107.577408260806,
                      "stroke-color-blue" : 1.0,
                      "stroke-color-green" : 1.0,
                      "stroke-color-opacity" : 1.0,
                      "stroke-color-red" : 1.0,
                      "stroke-width" : 3.0,
                      "tail-x" : -189.28119061927,
                      "tail-y" : -4.26685142512491,
                      "width" : 114.432000000031,
                      "word-wrap" : 1.0,
                      "fill-style" : "solid",
                      "horizontal-alignment" : "center",
                      "stroke-style" : "solid",
                      "text" : "",
                      "vertical-alignment" : "center",
                      "font" : {
                        "color-blue" : 1.0,
                        "color-green" : 1.0,
                        "color-red" : 1.0,
                        "size" : 64.0,
                        "tracking" : 0.0,
                        "name" : "Montserrat",
                        "weight" : "Regular"
                      },
                      "textAttributes" : {
                        "type" : "textAttributeList",
                        "keyframes" : [
                          {
                            "endTime" : 0,
                            "time" : 0,
                            "value" : [{"name":"fontName","rangeEnd":1,"rangeStart":0,"value":"Montserrat","valueType":"string"},{"name":"fontItalic","rangeEnd":1,"rangeStart":0,"value":0,"valueType":"int"},{"name":"underline","rangeEnd":1,"rangeStart":0,"value":0,"valueType":"int"},{"name":"fgColor","rangeEnd":1,"rangeStart":0,"value":"(255,255,255,255)","valueType":"color"},{"name":"fontSize","rangeEnd":1,"rangeStart":0,"value":64,"valueType":"double"},{"name":"strikethrough","rangeEnd":1,"rangeStart":0,"value":0,"valueType":"int"},{"name":"fontWeight","rangeEnd":1,"rangeStart":0,"value":400,"valueType":"int"}],
                            "duration" : 0
                          }
                        ]
                      }
                    },
                    "attributes" : {
                      "autoRotateText" : true
                    },
                    "parameters" : {
                      "translation0" : -575.694444444469,
                      "translation1" : -255.814277144539
                    },
                    "effects" : [
                        {
                          "effectName" : "DropShadow",
                          "category" : "categoryVisualEffects",
                          "parameters" : {
                            "angle" : 5.49778714378214,
                            "blur" : 10.0,
                            "color-alpha" : 1.0,
                            "color-blue" : 0.1216,
                            "color-green" : 0.1216,
                            "color-red" : 0.1216,
                            "enabled" : 1,
                            "offset" : 10.0,
                            "opacity" : 0.4
                          }
                        }
                    ],
                    "start" : 2000,
                    "duration" : 115,
                    "mediaStart" : 0,
                    "mediaDuration" : 115,
                    "scalar" : 1,
                    "metadata" : {
                      "WinSubProjectDisplayName" : "",
                      "clipSpeedAttribute" : false,
                      "default-HAlign" : "center",
                      "default-VAlign" : "center",
                      "default-fill-color-blue" : 0.537254901960784,
                      "default-fill-color-green" : 0.133333333333333,
                      "default-fill-color-red" : 0.388235294117647,
                      "default-stroke-width" : 0.0,
                      "default-translation0" : 0.0,
                      "default-translation1" : 0.0
                    },
                    "animationTracks" : {

                    }
                  },
                  {
                    "id" : 135,
                    "_type" : "VMFile",
                    "src" : 9,
                    "trackNumber" : 0,
                    "attributes" : {
                      "ident" : "fake data black_transparent"
                    },
                    "parameters" : {
                      "translation0" : -64.379063366158,
                      "translation1" : 375.826053622312,
                      "scale0" : 0.589014075392063,
                      "scale1" : 0.589014075392063
                    },
                    "effects" : [

                    ],
                    "start" : 2129,
                    "duration" : 81,
                    "mediaStart" : 0,
                    "mediaDuration" : 81,
                    "scalar" : 1,
                    "metadata" : {
                      "WinSubProjectDisplayName" : "",
                      "clipSpeedAttribute" : false,
                      "default-scale0" : 1.0,
                      "default-scale1" : 1.0,
                      "default-translation0" : 0.0,
                      "default-translation1" : 0.0
                    },
                    "animationTracks" : {

                    }
                  },
                  {
                    "id" : 136,
                    "_type" : "VMFile",
                    "src" : 9,
                    "trackNumber" : 0,
                    "attributes" : {
                      "ident" : "fake data black_transparent"
                    },
                    "parameters" : {
                      "translation0" : -64.379063366158,
                      "translation1" : 375.826053622312,
                      "scale0" : 0.589014075392063,
                      "scale1" : 0.589014075392063
                    },
                    "effects" : [

                    ],
                    "start" : 2210,
                    "duration" : 81,
                    "mediaStart" : 0,
                    "mediaDuration" : 81,
                    "scalar" : 1,
                    "metadata" : {
                      "WinSubProjectDisplayName" : "",
                      "clipSpeedAttribute" : false,
                      "default-scale0" : 1.0,
                      "default-scale1" : 1.0,
                      "default-translation0" : 0.0,
                      "default-translation1" : 0.0
                    },
                    "animationTracks" : {

                    }
                  },
                  {
                    "id" : 137,
                    "_type" : "VMFile",
                    "src" : 9,
                    "trackNumber" : 0,
                    "attributes" : {
                      "ident" : "fake data black_transparent"
                    },
                    "parameters" : {
                      "translation0" : -64.379063366158,
                      "translation1" : 375.826053622312,
                      "scale0" : 0.589014075392063,
                      "scale1" : 0.589014075392063
                    },
                    "effects" : [

                    ],
                    "start" : 2291,
                    "duration" : 81,
                    "mediaStart" : 0,
                    "mediaDuration" : 81,
                    "scalar" : 1,
                    "metadata" : {
                      "WinSubProjectDisplayName" : "",
                      "clipSpeedAttribute" : false,
                      "default-scale0" : 1.0,
                      "default-scale1" : 1.0,
                      "default-translation0" : 0.0,
                      "default-translation1" : 0.0
                    },
                    "animationTracks" : {

                    }
                  },
                  {
                    "id" : 138,
                    "_type" : "Callout",
                    "def" : {
                      "kind" : "remix",
                      "shape" : "speech-bubble",
                      "style" : "basic",
                      "fill-color-blue" : 0.184313725490196,
                      "fill-color-green" : 0.156862745098039,
                      "fill-color-opacity" : 1.0,
                      "fill-color-red" : 0.137254901960784,
                      "height" : 107.577408260806,
                      "stroke-color-blue" : 1.0,
                      "stroke-color-green" : 1.0,
                      "stroke-color-opacity" : 1.0,
                      "stroke-color-red" : 1.0,
                      "stroke-width" : 3.0,
                      "tail-x" : -189.28119061927,
                      "tail-y" : -4.26685142512491,
                      "width" : 114.432000000031,
                      "word-wrap" : 1.0,
                      "fill-style" : "solid",
                      "horizontal-alignment" : "center",
                      "stroke-style" : "solid",
                      "text" : "",
                      "vertical-alignment" : "center",
                      "font" : {
                        "color-blue" : 1.0,
                        "color-green" : 1.0,
                        "color-red" : 1.0,
                        "size" : 64.0,
                        "tracking" : 0.0,
                        "name" : "Montserrat",
                        "weight" : "Regular"
                      },
                      "textAttributes" : {
                        "type" : "textAttributeList",
                        "keyframes" : [
                          {
                            "endTime" : 0,
                            "time" : 0,
                            "value" : [{"name":"fontName","rangeEnd":1,"rangeStart":0,"value":"Montserrat","valueType":"string"},{"name":"fontItalic","rangeEnd":1,"rangeStart":0,"value":0,"valueType":"int"},{"name":"underline","rangeEnd":1,"rangeStart":0,"value":0,"valueType":"int"},{"name":"fgColor","rangeEnd":1,"rangeStart":0,"value":"(255,255,255,255)","valueType":"color"},{"name":"fontSize","rangeEnd":1,"rangeStart":0,"value":64,"valueType":"double"},{"name":"strikethrough","rangeEnd":1,"rangeStart":0,"value":0,"valueType":"int"},{"name":"fontWeight","rangeEnd":1,"rangeStart":0,"value":400,"valueType":"int"}],
                            "duration" : 0
                          }
                        ]
                      }
                    },
                    "attributes" : {
                      "autoRotateText" : true
                    },
                    "parameters" : {
                      "translation0" : -243.749999999959,
                      "translation1" : -255.814277144539
                    },
                    "effects" : [
                        {
                          "effectName" : "DropShadow",
                          "category" : "categoryVisualEffects",
                          "parameters" : {
                            "angle" : 5.49778714378214,
                            "blur" : 10.0,
                            "color-alpha" : 1.0,
                            "color-blue" : 0.1216,
                            "color-green" : 0.1216,
                            "color-red" : 0.1216,
                            "enabled" : 1,
                            "offset" : 10.0,
                            "opacity" : 0.4
                          }
                        }
                    ],
                    "start" : 2373,
                    "duration" : 130,
                    "mediaStart" : 0,
                    "mediaDuration" : 130,
                    "scalar" : 1,
                    "metadata" : {
                      "WinSubProjectDisplayName" : "",
                      "clipSpeedAttribute" : false,
                      "default-HAlign" : "center",
                      "default-VAlign" : "center",
                      "default-fill-color-blue" : 0.537254901960784,
                      "default-fill-color-green" : 0.133333333333333,
                      "default-fill-color-red" : 0.388235294117647,
                      "default-stroke-width" : 0.0,
                      "default-translation0" : 0.0,
                      "default-translation1" : 0.0
                    },
                    "animationTracks" : {

                    }
                  },
                  {
                    "id" : 139,
                    "_type" : "VMFile",
                    "src" : 6,
                    "trackNumber" : 0,
                    "attributes" : {
                      "ident" : "Homer Simpson Episode 6 GIF"
                    },
                    "parameters" : {
                      "translation0" : -605.5,
                      "translation1" : -200.1,
                      "scale0" : 1.111,
                      "scale1" : 1.111
                    },
                    "effects" : [

                    ],
                    "start" : 2583,
                    "duration" : 29,
                    "mediaStart" : 0,
                    "mediaDuration" : 29,
                    "scalar" : 1,
                    "metadata" : {
                      "WinSubProjectDisplayName" : "",
                      "clipSpeedAttribute" : false,
                      "default-scale0" : 1.0,
                      "default-scale1" : 1.0,
                      "default-translation0" : 0.0,
                      "default-translation1" : 0.0
                    },
                    "animationTracks" : {

                    }
                  },
                  {
                    "id" : 140,
                    "_type" : "VMFile",
                    "src" : 6,
                    "trackNumber" : 0,
                    "attributes" : {
                      "ident" : "Homer Simpson Episode 6 GIF"
                    },
                    "parameters" : {
                      "translation0" : -605.5,
                      "translation1" : -200.1,
                      "scale0" : 1.111,
                      "scale1" : 1.111
                    },
                    "effects" : [

                    ],
                    "start" : 2612,
                    "duration" : 29,
                    "mediaStart" : 0,
                    "mediaDuration" : 29,
                    "scalar" : 1,
                    "metadata" : {
                      "WinSubProjectDisplayName" : "",
                      "clipSpeedAttribute" : false,
                      "default-scale0" : 1.0,
                      "default-scale1" : 1.0,
                      "default-translation0" : 0.0,
                      "default-translation1" : 0.0
                    },
                    "animationTracks" : {

                    }
                  },
                  {
                    "id" : 141,
                    "_type" : "VMFile",
                    "src" : 6,
                    "trackNumber" : 0,
                    "attributes" : {
                      "ident" : "Homer Simpson Episode 6 GIF"
                    },
                    "parameters" : {
                      "translation0" : -605.5,
                      "translation1" : -200.1,
                      "scale0" : 1.111,
                      "scale1" : 1.111
                    },
                    "effects" : [

                    ],
                    "start" : 2641,
                    "duration" : 29,
                    "mediaStart" : 0,
                    "mediaDuration" : 29,
                    "scalar" : 1,
                    "metadata" : {
                      "WinSubProjectDisplayName" : "",
                      "clipSpeedAttribute" : false,
                      "default-scale0" : 1.0,
                      "default-scale1" : 1.0,
                      "default-translation0" : 0.0,
                      "default-translation1" : 0.0
                    },
                    "animationTracks" : {

                    }
                  },
                  {
                    "id" : 142,
                    "_type" : "Callout",
                    "def" : {
                      "kind" : "remix",
                      "shape" : "shape-rectangle",
                      "style" : "basic",
                      "fill-color-blue" : 0.0,
                      "fill-color-green" : 0.0,
                      "fill-color-opacity" : 0.0,
                      "fill-color-red" : 0.0,
                      "height" : 73.6585333060911,
                      "stroke-color-blue" : 0.258823529411765,
                      "stroke-color-green" : 0.258823529411765,
                      "stroke-color-opacity" : 1.0,
                      "stroke-color-red" : 0.988235294117647,
                      "stroke-width" : 8.0,
                      "width" : 1202.47150439542,
                      "fill-style" : "solid",
                      "horizontal-alignment" : "center",
                      "stroke-style" : "solid",
                      "vertical-alignment" : "center",
                      "textAttributes" : {
                        "type" : "textAttributeList",
                        "keyframes" : [
                          {
                            "endTime" : 0,
                            "time" : 0,
                            "value" : null,
                            "duration" : 0
                          }
                        ]
                      }
                    },
                    "attributes" : {
                      "autoRotateText" : true
                    },
                    "parameters" : {
                      "translation0" : -332.81302698669,
                      "translation1" : 499.742719482626
                    },
                    "effects" : [
                        {
                          "effectName" : "DropShadow",
                          "category" : "categoryVisualEffects",
                          "parameters" : {
                            "angle" : 5.49778714378214,
                            "blur" : 10.0,
                            "color-alpha" : 1.0,
                            "color-blue" : 0.1216,
                            "color-green" : 0.1216,
                            "color-red" : 0.1216,
                            "enabled" : 1,
                            "offset" : 10.0,
                            "opacity" : 0.4
                          }
                        }
                    ],
                    "start" : 2724,
                    "duration" : 180,
                    "mediaStart" : 27,
                    "mediaDuration" : 180,
                    "scalar" : 1,
                    "metadata" : {
                      "WinSubProjectDisplayName" : "",
                      "clipSpeedAttribute" : false,
                      "default-stroke-color-blue" : 1.0,
                      "default-stroke-color-green" : 1.0,
                      "default-stroke-color-red" : 1.0,
                      "default-stroke-width" : 6.0,
                      "default-translation0" : 0.0,
                      "default-translation1" : 0.0
                    },
                    "animationTracks" : {

                    }
                  },
                  {
                    "id" : 143,
                    "_type" : "Callout",
                    "def" : {
                      "kind" : "remix",
                      "shape" : "shape-rectangle",
                      "style" : "basic",
                      "fill-color-blue" : 0.0,
                      "fill-color-green" : 0.0,
                      "fill-color-opacity" : 0.0,
                      "fill-color-red" : 0.0,
                      "height" : 327.642276423044,
                      "stroke-color-blue" : 0.2,
                      "stroke-color-green" : 0.4,
                      "stroke-color-opacity" : 1.0,
                      "stroke-color-red" : 0.0,
                      "stroke-width" : 19.0,
                      "width" : 1544.49591461399,
                      "fill-style" : "solid",
                      "horizontal-alignment" : "center",
                      "stroke-style" : "solid",
                      "vertical-alignment" : "center",
                      "textAttributes" : {
                        "type" : "textAttributeList",
                        "keyframes" : [
                          {
                            "endTime" : 0,
                            "time" : 0,
                            "value" : null,
                            "duration" : 0
                          }
                        ]
                      }
                    },
                    "attributes" : {
                      "autoRotateText" : true
                    },
                    "parameters" : {
                      "translation0" : -139.905137561242,
                      "translation1" : 325.121951219116
                    },
                    "effects" : [
                        {
                          "effectName" : "DropShadow",
                          "category" : "categoryVisualEffects",
                          "parameters" : {
                            "angle" : 5.49778714378214,
                            "blur" : 10.0,
                            "color-alpha" : 1.0,
                            "color-blue" : 0.1216,
                            "color-green" : 0.1216,
                            "color-red" : 0.1216,
                            "enabled" : 1,
                            "offset" : 10.0,
                            "opacity" : 0.4
                          }
                        }
                    ],
                    "start" : 3633,
                    "duration" : 134,
                    "mediaStart" : 121,
                    "mediaDuration" : 134,
                    "scalar" : 1,
                    "metadata" : {
                      "WinSubProjectDisplayName" : "",
                      "clipSpeedAttribute" : false,
                      "default-stroke-color-blue" : 1.0,
                      "default-stroke-color-green" : 1.0,
                      "default-stroke-color-red" : 1.0,
                      "default-stroke-width" : 6.0,
                      "default-translation0" : 0.0,
                      "default-translation1" : 0.0
                    },
                    "animationTracks" : {

                    }
                  }
                ]
              },
              {
                "trackIndex" : 4,
                "medias" : [
                  {
                    "id" : 144,
                    "_type" : "VMFile",
                    "src" : 4,
                    "trackNumber" : 0,
                    "attributes" : {
                      "ident" : "Converted by onlinevideoconverter.com[1280x720] Channel Ocho  Simpsons World on FXX (1)"
                    },
                    "parameters" : {
                      "translation0" : 555.3,
                      "translation1" : 282.9,
                      "scale0" : 0.533,
                      "scale1" : 0.533
                    },
                    "effects" : [

                    ],
                    "start" : 226,
                    "duration" : 171,
                    "mediaStart" : 6762,
                    "mediaDuration" : 171,
                    "scalar" : 1,
                    "metadata" : {
                      "WinSubProjectDisplayName" : "",
                      "clipSpeedAttribute" : false,
                      "default-scale0" : 0.418,
                      "default-scale1" : 0.418,
                      "default-translation0" : 573.2,
                      "default-translation1" : 221.6
                    },
                    "animationTracks" : {

                    }
                  },
                  {
                    "id" : 145,
                    "_type" : "VMFile",
                    "src" : 4,
                    "trackNumber" : 0,
                    "attributes" : {
                      "ident" : "Converted by onlinevideoconverter.com[1280x720] Channel Ocho  Simpsons World on FXX (1)"
                    },
                    "parameters" : {
                      "translation0" : 555.3,
                      "translation1" : 282.9,
                      "scale0" : 0.533,
                      "scale1" : 0.533
                    },
                    "effects" : [

                    ],
                    "start" : 397,
                    "duration" : 87,
                    "mediaStart" : 24594,
                    "mediaDuration" : 87,
                    "scalar" : 1,
                    "metadata" : {
                      "WinSubProjectDisplayName" : "",
                      "clipSpeedAttribute" : false,
                      "default-scale0" : 0.418,
                      "default-scale1" : 0.418,
                      "default-translation0" : 573.2,
                      "default-translation1" : 221.6
                    },
                    "animationTracks" : {

                    }
                  },
                  {
                    "id" : 146,
                    "_type" : "IMFile",
                    "src" : 5,
                    "trackNumber" : 0,
                    "trimStartSum" : 0,
                    "attributes" : {
                      "ident" : "256"
                    },
                    "parameters" : {
                      "translation0" : -411.805555555605,
                      "translation1" : 24.7412784110832,
                      "scale0" : 0.447,
                      "scale1" : 0.447
                    },
                    "effects" : [

                    ],
                    "start" : 1263,
                    "duration" : 106,
                    "mediaStart" : 0,
                    "mediaDuration" : 1,
                    "scalar" : 1,
                    "metadata" : {
                      "WinSubProjectDisplayName" : "",
                      "clipSpeedAttribute" : false,
                      "default-scale0" : 1.0,
                      "default-scale1" : 1.0,
                      "default-translation0" : 0.0,
                      "default-translation1" : 0.0
                    },
                    "animationTracks" : {

                    }
                  },
                  {
                    "id" : 147,
                    "_type" : "Callout",
                    "def" : {
                      "kind" : "remix",
                      "shape" : "speech-bubble",
                      "style" : "basic",
                      "fill-color-blue" : 0.184313725490196,
                      "fill-color-green" : 0.156862745098039,
                      "fill-color-opacity" : 1.0,
                      "fill-color-red" : 0.137254901960784,
                      "height" : 107.577408260806,
                      "stroke-color-blue" : 1.0,
                      "stroke-color-green" : 1.0,
                      "stroke-color-opacity" : 1.0,
                      "stroke-color-red" : 1.0,
                      "stroke-width" : 3.0,
                      "tail-x" : -189.28119061927,
                      "tail-y" : -4.26685142512491,
                      "width" : 114.432000000031,
                      "word-wrap" : 1.0,
                      "fill-style" : "solid",
                      "horizontal-alignment" : "center",
                      "stroke-style" : "solid",
                      "text" : "",
                      "vertical-alignment" : "center",
                      "font" : {
                        "color-blue" : 1.0,
                        "color-green" : 1.0,
                        "color-red" : 1.0,
                        "size" : 64.0,
                        "tracking" : 0.0,
                        "name" : "Montserrat",
                        "weight" : "Regular"
                      },
                      "textAttributes" : {
                        "type" : "textAttributeList",
                        "keyframes" : [
                          {
                            "endTime" : 0,
                            "time" : 0,
                            "value" : [{"name":"fontName","rangeEnd":1,"rangeStart":0,"value":"Montserrat","valueType":"string"},{"name":"fontItalic","rangeEnd":1,"rangeStart":0,"value":0,"valueType":"int"},{"name":"underline","rangeEnd":1,"rangeStart":0,"value":0,"valueType":"int"},{"name":"fgColor","rangeEnd":1,"rangeStart":0,"value":"(255,255,255,255)","valueType":"color"},{"name":"fontSize","rangeEnd":1,"rangeStart":0,"value":64,"valueType":"double"},{"name":"strikethrough","rangeEnd":1,"rangeStart":0,"value":0,"valueType":"int"},{"name":"fontWeight","rangeEnd":1,"rangeStart":0,"value":400,"valueType":"int"}],
                            "duration" : 0
                          }
                        ]
                      }
                    },
                    "attributes" : {
                      "autoRotateText" : true
                    },
                    "parameters" : {
                      "translation0" : 454.861111111251,
                      "translation1" : 159.463500633353
                    },
                    "effects" : [
                        {
                          "effectName" : "DropShadow",
                          "category" : "categoryVisualEffects",
                          "parameters" : {
                            "angle" : 5.49778714378214,
                            "blur" : 10.0,
                            "color-alpha" : 1.0,
                            "color-blue" : 0.1216,
                            "color-green" : 0.1216,
                            "color-red" : 0.1216,
                            "enabled" : 1,
                            "offset" : 10.0,
                            "opacity" : 0.4
                          }
                        }
                    ],
                    "start" : 1581,
                    "duration" : 72,
                    "mediaStart" : 0,
                    "mediaDuration" : 72,
                    "scalar" : 1,
                    "metadata" : {
                      "WinSubProjectDisplayName" : "",
                      "clipSpeedAttribute" : false,
                      "default-HAlign" : "center",
                      "default-VAlign" : "center",
                      "default-fill-color-blue" : 0.537254901960784,
                      "default-fill-color-green" : 0.133333333333333,
                      "default-fill-color-red" : 0.388235294117647,
                      "default-stroke-width" : 0.0,
                      "default-translation0" : 0.0,
                      "default-translation1" : 0.0
                    },
                    "animationTracks" : {

                    }
                  },
                  {
                    "id" : 148,
                    "_type" : "IMFile",
                    "src" : 5,
                    "trackNumber" : 0,
                    "trimStartSum" : 0,
                    "attributes" : {
                      "ident" : "256"
                    },
                    "parameters" : {
                      "translation0" : -24.3055555555879,
                      "translation1" : 33.0746117443871,
                      "scale0" : 0.447,
                      "scale1" : 0.447
                    },
                    "effects" : [

                    ],
                    "start" : 1720,
                    "duration" : 132,
                    "mediaStart" : 0,
                    "mediaDuration" : 1,
                    "scalar" : 1,
                    "metadata" : {
                      "WinSubProjectDisplayName" : "",
                      "clipSpeedAttribute" : false,
                      "default-scale0" : 1.0,
                      "default-scale1" : 1.0,
                      "default-translation0" : 0.0,
                      "default-translation1" : 0.0
                    },
                    "animationTracks" : {

                    }
                  },
                  {
                    "id" : 149,
                    "_type" : "IMFile",
                    "src" : 10,
                    "trackNumber" : 0,
                    "trimStartSum" : 0,
                    "attributes" : {
                      "ident" : "the-final-memory-ranger"
                    },
                    "parameters" : {
                      "translation0" : 519.558818585198,
                      "translation1" : 423.488620285075,
                      "scale0" : 0.460660711091736,
                      "scale1" : 0.460660711091736
                    },
                    "effects" : [

                    ],
                    "start" : 1867,
                    "duration" : 133,
                    "mediaStart" : 0,
                    "mediaDuration" : 1,
                    "scalar" : 1,
                    "metadata" : {
                      "WinSubProjectDisplayName" : "",
                      "clipSpeedAttribute" : false,
                      "default-scale0" : 1.0,
                      "default-scale1" : 1.0,
                      "default-translation0" : 0.0,
                      "default-translation1" : -0.5
                    },
                    "animationTracks" : {

                    }
                  },
                  {
                    "id" : 150,
                    "_type" : "IMFile",
                    "src" : 5,
                    "trackNumber" : 0,
                    "trimStartSum" : 0,
                    "attributes" : {
                      "ident" : "256"
                    },
                    "parameters" : {
                      "translation0" : -575.694444444556,
                      "translation1" : -255.814277144582,
                      "scale0" : 0.447,
                      "scale1" : 0.447
                    },
                    "effects" : [

                    ],
                    "start" : 2000,
                    "duration" : 115,
                    "mediaStart" : 0,
                    "mediaDuration" : 1,
                    "scalar" : 1,
                    "metadata" : {
                      "WinSubProjectDisplayName" : "",
                      "clipSpeedAttribute" : false,
                      "default-scale0" : 1.0,
                      "default-scale1" : 1.0,
                      "default-translation0" : 0.0,
                      "default-translation1" : 0.0
                    },
                    "animationTracks" : {

                    }
                  },
                  {
                    "id" : 151,
                    "_type" : "IMFile",
                    "src" : 10,
                    "trackNumber" : 0,
                    "trimStartSum" : 0,
                    "attributes" : {
                      "ident" : "the-final-memory-ranger"
                    },
                    "parameters" : {
                      "translation0" : 429.558818585174,
                      "translation1" : 371.488620285006,
                      "scale0" : 0.460660711091736,
                      "scale1" : 0.460660711091736
                    },
                    "effects" : [

                    ],
                    "start" : 2129,
                    "duration" : 243,
                    "mediaStart" : 0,
                    "mediaDuration" : 1,
                    "scalar" : 1,
                    "metadata" : {
                      "WinSubProjectDisplayName" : "",
                      "clipSpeedAttribute" : false,
                      "default-scale0" : 1.0,
                      "default-scale1" : 1.0,
                      "default-translation0" : 0.0,
                      "default-translation1" : -0.5
                    },
                    "animationTracks" : {

                    }
                  },
                  {
                    "id" : 152,
                    "_type" : "IMFile",
                    "src" : 5,
                    "trackNumber" : 0,
                    "trimStartSum" : 0,
                    "attributes" : {
                      "ident" : "256"
                    },
                    "parameters" : {
                      "translation0" : -243.750000000047,
                      "translation1" : -255.814277144582,
                      "scale0" : 0.447,
                      "scale1" : 0.447
                    },
                    "effects" : [

                    ],
                    "start" : 2373,
                    "duration" : 130,
                    "mediaStart" : 0,
                    "mediaDuration" : 1,
                    "scalar" : 1,
                    "metadata" : {
                      "WinSubProjectDisplayName" : "",
                      "clipSpeedAttribute" : false,
                      "default-scale0" : 1.0,
                      "default-scale1" : 1.0,
                      "default-translation0" : 0.0,
                      "default-translation1" : 0.0
                    },
                    "animationTracks" : {

                    }
                  },
                  {
                    "id" : 153,
                    "_type" : "AMFile",
                    "src" : 2,
                    "trackNumber" : 0,
                    "attributes" : {
                      "ident" : "Henry Jackman, Matthew Margeson - Rescuing Harry",
                      "sampleRate" : 44100,
                      "bitDepth" : 0,
                      "gain" : 1.0,
                      "mixToMono" : false
                    },
                      "channelNumber" : "0,1",
                    "parameters" : {
                      "volume" : {
                        "type" : "double",
                        "keyframes" : [
                          {
                            "endTime" : 0,
                            "time" : 0,
                            "value" : 1.0,
                            "duration" : 0
                          },
                          {
                            "endTime" : 1644,
                            "time" : 1644,
                            "value" : 1.0,
                            "duration" : 0
                          },
                          {
                            "endTime" : 1645,
                            "time" : 1645,
                            "value" : 0.0,
                            "duration" : 0
                          },
                          {
                            "endTime" : 1665,
                            "time" : 1665,
                            "value" : 1.00000000000003,
                            "duration" : 0
                          },
                          {
                            "endTime" : 1865,
                            "time" : 1865,
                            "value" : 1.00000000000003,
                            "duration" : 0
                          },
                          {
                            "endTime" : 1884,
                            "time" : 1884,
                            "value" : 0.0,
                            "duration" : 0
                          },
                          {
                            "endTime" : 1885,
                            "time" : 1885,
                            "value" : 1.00000000000003,
                            "duration" : 0
                          }
                        ]
                      }
                    },
                    "effects" : [

                    ],
                    "start" : 2724,
                    "duration" : 239,
                    "mediaStart" : 1645,
                    "mediaDuration" : 239,
                    "scalar" : 1,
                    "metadata" : {
                      "WinSubProjectDisplayName" : "",
                      "clipSpeedAttribute" : false
                    },
                    "animationTracks" : {

                    }
                  },
                  {
                    "id" : 154,
                    "_type" : "AMFile",
                    "src" : 2,
                    "trackNumber" : 0,
                    "attributes" : {
                      "ident" : "Henry Jackman, Matthew Margeson - Rescuing Harry",
                      "sampleRate" : 44100,
                      "bitDepth" : 0,
                      "gain" : 1.0,
                      "mixToMono" : false
                    },
                      "channelNumber" : "0,1",
                    "parameters" : {
                      "volume" : {
                        "type" : "double",
                        "keyframes" : [
                          {
                            "endTime" : 0,
                            "time" : 0,
                            "value" : 1.0,
                            "duration" : 0
                          },
                          {
                            "endTime" : 1644,
                            "time" : 1644,
                            "value" : 1.0,
                            "duration" : 0
                          },
                          {
                            "endTime" : 1645,
                            "time" : 1645,
                            "value" : 0.0,
                            "duration" : 0
                          },
                          {
                            "endTime" : 1665,
                            "time" : 1665,
                            "value" : 1.00000000000003,
                            "duration" : 0
                          },
                          {
                            "endTime" : 1791,
                            "time" : 1791,
                            "value" : 1.00000000000004,
                            "duration" : 0
                          },
                          {
                            "endTime" : 1804,
                            "time" : 1804,
                            "value" : 0.0549450549450549,
                            "duration" : 0
                          },
                          {
                            "endTime" : 1885,
                            "time" : 1885,
                            "value" : 1.00000000000003,
                            "duration" : 0
                          }
                        ]
                      }
                    },
                    "effects" : [

                    ],
                    "start" : 3752,
                    "duration" : 160,
                    "mediaStart" : 1645,
                    "mediaDuration" : 160,
                    "scalar" : 1,
                    "metadata" : {
                      "WinSubProjectDisplayName" : "",
                      "clipSpeedAttribute" : false
                    },
                    "animationTracks" : {

                    }
                  }
                ]
              },
              {
                "trackIndex" : 5,
                "medias" : [
                  {
                    "id" : 155,
                    "_type" : "VMFile",
                    "src" : 4,
                    "trackNumber" : 0,
                    "attributes" : {
                      "ident" : "Converted by onlinevideoconverter.com[1280x720] Channel Ocho  Simpsons World on FXX (1)"
                    },
                    "parameters" : {
                      "translation0" : 555.284552845434,
                      "translation1" : 282.926829268256,
                      "scale0" : 0.532520325203376,
                      "scale1" : 0.532520325203376
                    },
                    "effects" : [

                    ],
                    "start" : 690,
                    "duration" : 129,
                    "mediaStart" : 20621,
                    "mediaDuration" : 129,
                    "scalar" : 1,
                    "metadata" : {
                      "WinSubProjectDisplayName" : "",
                      "clipSpeedAttribute" : false
                    },
                    "animationTracks" : {

                    }
                  },
                  {
                    "id" : 156,
                    "_type" : "IMFile",
                    "src" : 5,
                    "trackNumber" : 0,
                    "trimStartSum" : 0,
                    "attributes" : {
                      "ident" : "256"
                    },
                    "parameters" : {
                      "translation0" : 454.861111111163,
                      "translation1" : 159.46350063331,
                      "scale0" : 0.447,
                      "scale1" : 0.447
                    },
                    "effects" : [

                    ],
                    "start" : 1581,
                    "duration" : 72,
                    "mediaStart" : 0,
                    "mediaDuration" : 1,
                    "scalar" : 1,
                    "metadata" : {
                      "WinSubProjectDisplayName" : "",
                      "clipSpeedAttribute" : false,
                      "default-scale0" : 1.0,
                      "default-scale1" : 1.0,
                      "default-translation0" : 0.0,
                      "default-translation1" : 0.0
                    },
                    "animationTracks" : {

                    }
                  },
                  {
                    "id" : 157,
                    "_type" : "Callout",
                    "def" : {
                      "kind" : "remix",
                      "shape" : "arrow",
                      "style" : "abstract",
                      "stroke-color-blue" : 0.129411764705882,
                      "stroke-color-green" : 0.741176470588235,
                      "stroke-color-opacity" : 1.0,
                      "stroke-color-red" : 0.956862745098039,
                      "stroke-width" : 8.0,
                      "tail-x" : {
                        "type" : "double",
                        "defaultValue" : 145.897604901941,
                        "interp" : "eioe"
                      },
                      "tail-y" : {
                        "type" : "double",
                        "defaultValue" : 0.0,
                        "interp" : "eioe"
                      },
                      "horizontal-alignment" : "center",
                      "shape-anchor" : "arrow",
                      "shape-tail" : "none",
                      "stroke-style" : "solid",
                      "vertical-alignment" : "center",
                      "textAttributes" : {
                        "type" : "textAttributeList",
                        "keyframes" : [
                          {
                            "endTime" : 0,
                            "time" : 0,
                            "value" : null,
                            "duration" : 0
                          }
                        ]
                      }
                    },
                    "attributes" : {
                      "autoRotateText" : true
                    },
                    "parameters" : {
                      "translation0" : 290.147089331596,
                      "translation1" : 389.868058422277
                    },
                    "effects" : [
                        {
                          "effectName" : "DropShadow",
                          "category" : "categoryVisualEffects",
                          "parameters" : {
                            "angle" : 5.49778714378214,
                            "blur" : 10.0,
                            "color-alpha" : 1.0,
                            "color-blue" : 0.1216,
                            "color-green" : 0.1216,
                            "color-red" : 0.1216,
                            "enabled" : 1,
                            "offset" : 10.0,
                            "opacity" : 0.4
                          }
                        }
                    ],
                    "start" : 1867,
                    "duration" : 133,
                    "mediaStart" : 0,
                    "mediaDuration" : 133,
                    "scalar" : 1,
                    "metadata" : {
                      "WinSubProjectDisplayName" : "",
                      "clipSpeedAttribute" : false,
                      "default-callout-shape-tail" : "arrow",
                      "default-stroke-color-blue" : 0.8,
                      "default-stroke-color-green" : 0.874509803921569,
                      "default-stroke-color-red" : 0.898039215686275,
                      "default-translation0" : 0.0,
                      "default-translation1" : 0.0
                    },
                    "animationTracks" : {

                    }
                  },
                  {
                    "id" : 158,
                    "_type" : "Callout",
                    "def" : {
                      "kind" : "remix",
                      "shape" : "arrow",
                      "style" : "abstract",
                      "stroke-color-blue" : 0.129411764705882,
                      "stroke-color-green" : 0.741176470588235,
                      "stroke-color-opacity" : 1.0,
                      "stroke-color-red" : 0.956862745098039,
                      "stroke-width" : 8.0,
                      "tail-x" : {
                        "type" : "double",
                        "defaultValue" : 145.897604901941,
                        "interp" : "eioe"
                      },
                      "tail-y" : {
                        "type" : "double",
                        "defaultValue" : 0.0,
                        "interp" : "eioe"
                      },
                      "horizontal-alignment" : "center",
                      "shape-anchor" : "arrow",
                      "shape-tail" : "none",
                      "stroke-style" : "solid",
                      "vertical-alignment" : "center",
                      "textAttributes" : {
                        "type" : "textAttributeList",
                        "keyframes" : [
                          {
                            "endTime" : 0,
                            "time" : 0,
                            "value" : null,
                            "duration" : 0
                          }
                        ]
                      }
                    },
                    "attributes" : {
                      "autoRotateText" : true
                    },
                    "parameters" : {
                      "translation0" : 200.147089331572,
                      "translation1" : 337.868058422207
                    },
                    "effects" : [
                        {
                          "effectName" : "DropShadow",
                          "category" : "categoryVisualEffects",
                          "parameters" : {
                            "angle" : 5.49778714378214,
                            "blur" : 10.0,
                            "color-alpha" : 1.0,
                            "color-blue" : 0.1216,
                            "color-green" : 0.1216,
                            "color-red" : 0.1216,
                            "enabled" : 1,
                            "offset" : 10.0,
                            "opacity" : 0.4
                          }
                        }
                    ],
                    "start" : 2129,
                    "duration" : 243,
                    "mediaStart" : 0,
                    "mediaDuration" : 243,
                    "scalar" : 1,
                    "metadata" : {
                      "WinSubProjectDisplayName" : "",
                      "clipSpeedAttribute" : false,
                      "default-callout-shape-tail" : "arrow",
                      "default-stroke-color-blue" : 0.8,
                      "default-stroke-color-green" : 0.874509803921569,
                      "default-stroke-color-red" : 0.898039215686275,
                      "default-translation0" : 0.0,
                      "default-translation1" : 0.0
                    },
                    "animationTracks" : {

                    }
                  },
                  {
                    "id" : 159,
                    "_type" : "VMFile",
                    "src" : 4,
                    "trackNumber" : 0,
                    "attributes" : {
                      "ident" : "Converted by onlinevideoconverter.com[1280x720] Channel Ocho  Simpsons World on FXX (1)"
                    },
                    "parameters" : {
                      "translation0" : 555.3,
                      "translation1" : 282.9,
                      "scale0" : 0.533,
                      "scale1" : 0.533
                    },
                    "effects" : [

                    ],
                    "start" : 2670,
                    "duration" : 42,
                    "mediaStart" : 9294,
                    "mediaDuration" : 42,
                    "scalar" : 1,
                    "metadata" : {
                      "WinSubProjectDisplayName" : "",
                      "clipSpeedAttribute" : false,
                      "default-scale0" : 1.0,
                      "default-scale1" : 1.0,
                      "default-translation0" : -2.22044604925031e-16,
                      "default-translation1" : 0.0
                    },
                    "animationTracks" : {

                    }
                  },
                  {
                    "id" : 160,
                    "_type" : "StitchedMedia",
                    "minMediaStart" : 0,
                    "attributes" : {
                      "ident" : "Converted by onlinevideoconverter.com[1280x720] Channel Ocho  Simpsons World on FXX (1)",
                      "gain" : 1.0,
                      "mixToMono" : false
                    },
                    "parameters" : {
                      "translation0" : 555.3,
                      "translation1" : 282.9,
                      "scale0" : 0.533,
                      "scale1" : 0.533,
                      "cursorOpacity" : 1.0,
                      "cursorScale" : 1.0
                    },
                    "medias" : [
                        {
                          "id" : 161,
                          "_type" : "VMFile",
                          "src" : 4,
                          "trackNumber" : 0,
                          "attributes" : {
                            "ident" : "Converted by onlinevideoconverter.com[1280x720] Channel Ocho  Simpsons World on FXX (1)"
                          },
                          "effects" : [

                          ],
                          "start" : 0,
                          "duration" : 10448,
                          "mediaStart" : 0,
                          "mediaDuration" : 10448,
                          "scalar" : 1,
                          "metadata" : {
                            "WinSubProjectDisplayName" : "",
                            "clipSpeedAttribute" : false
                          },
                          "animationTracks" : {

                          }
                        },
                        {
                          "id" : 162,
                          "_type" : "IMFile",
                          "src" : 4,
                          "trackNumber" : 0,
                          "trimStartSum" : 0,
                          "attributes" : {
                            "ident" : "Converted by onlinevideoconverter.com[1280x720] Channel Ocho  Simpsons World on FXX (1)"
                          },
                          "effects" : [

                          ],
                          "start" : 10448,
                          "duration" : 120,
                          "mediaStart" : 10447,
                          "mediaDuration" : 1,
                          "scalar" : 1,
                          "metadata" : {
                            "WinSubProjectDisplayName" : ""
                          },
                          "animationTracks" : {

                          }
                        },
                        {
                          "id" : 163,
                          "_type" : "VMFile",
                          "src" : 4,
                          "trackNumber" : 0,
                          "attributes" : {
                            "ident" : "Converted by onlinevideoconverter.com[1280x720] Channel Ocho  Simpsons World on FXX (1)"
                          },
                          "effects" : [

                          ],
                          "start" : 10568,
                          "duration" : 30397,
                          "mediaStart" : 10448,
                          "mediaDuration" : 30397,
                          "scalar" : 1,
                          "metadata" : {
                            "WinSubProjectDisplayName" : "",
                            "clipSpeedAttribute" : false
                          },
                          "animationTracks" : {

                          }
                        }
                    ],
                    "effects" : [

                    ],
                    "start" : 2728,
                    "duration" : 176,
                    "mediaStart" : 10357,
                    "mediaDuration" : 176,
                    "scalar" : 1,
                    "metadata" : {
                      "WinSubProjectDisplayName" : "",
                      "clipSpeedAttribute" : false
                    },
                    "animationTracks" : {

                    }
                  }
                ]
              },
              {
                "trackIndex" : 6,
                "medias" : [
                  {
                    "id" : 164,
                    "_type" : "Callout",
                    "def" : {
                      "kind" : "remix",
                      "shape" : "text-rectangle",
                      "style" : "abstract",
                      "fill-color-blue" : 0.0,
                      "fill-color-green" : 0.0,
                      "fill-color-opacity" : 1.0,
                      "fill-color-red" : 0.0,
                      "height" : 176.013453888207,
                      "stroke-color-blue" : 1.0,
                      "stroke-color-green" : 1.0,
                      "stroke-color-opacity" : 1.0,
                      "stroke-color-red" : 1.0,
                      "stroke-width" : 0.0,
                      "tail-x" : 131.249999999909,
                      "tail-y" : -6.99327305589631,
                      "width" : 68.0555555557186,
                      "word-wrap" : 1.0,
                      "fill-style" : "solid",
                      "horizontal-alignment" : "center",
                      "stroke-style" : "solid",
                      "text" : "",
                      "vertical-alignment" : "center",
                      "font" : {
                        "color-blue" : 0.266666666666667,
                        "color-green" : 0.231372549019608,
                        "color-opacity" : 1.0,
                        "color-red" : 0.184313725490196,
                        "size" : 64.0,
                        "tracking" : 0.0,
                        "name" : "Lato",
                        "weight" : "Regular"
                      },
                      "textAttributes" : {
                        "type" : "textAttributeList",
                        "keyframes" : [
                          {
                            "endTime" : 0,
                            "time" : 0,
                            "value" : [{"name":"fontSize","rangeEnd":1,"rangeStart":0,"value":64,"valueType":"double"},{"name":"fontWeight","rangeEnd":1,"rangeStart":0,"value":400,"valueType":"int"},{"name":"underline","rangeEnd":1,"rangeStart":0,"value":0,"valueType":"int"},{"name":"strikethrough","rangeEnd":1,"rangeStart":0,"value":0,"valueType":"int"},{"name":"fontName","rangeEnd":1,"rangeStart":0,"value":"Lato","valueType":"string"},{"name":"fontItalic","rangeEnd":1,"rangeStart":0,"value":0,"valueType":"int"},{"name":"fgColor","rangeEnd":1,"rangeStart":0,"value":"(47,59,68,255)","valueType":"color"}],
                            "duration" : 0
                          }
                        ]
                      }
                    },
                    "attributes" : {
                      "autoRotateText" : true
                    },
                    "parameters" : {
                      "translation0" : 254.144974044083,
                      "translation1" : 371.400002181834
                    },
                    "effects" : [
                        {
                          "effectName" : "DropShadow",
                          "category" : "categoryVisualEffects",
                          "parameters" : {
                            "angle" : 5.49778714378214,
                            "blur" : 10.0,
                            "color-alpha" : 1.0,
                            "color-blue" : 0.1216,
                            "color-green" : 0.1216,
                            "color-red" : 0.1216,
                            "enabled" : 1,
                            "offset" : 10.0,
                            "opacity" : 0.4
                          }
                        }
                    ],
                    "start" : 2728,
                    "duration" : 1,
                    "mediaStart" : -8,
                    "mediaDuration" : 1,
                    "scalar" : 1,
                    "metadata" : {
                      "WinSubProjectDisplayName" : "",
                      "clipSpeedAttribute" : false,
                      "default-HAlign" : "center",
                      "default-VAlign" : "center",
                      "default-fill-color-blue" : 0.8,
                      "default-fill-color-green" : 0.874509803921569,
                      "default-fill-color-red" : 0.898039215686275,
                      "default-translation0" : 0.0,
                      "default-translation1" : 0.0
                    },
                    "animationTracks" : {

                    }
                  },
                  {
                    "id" : 165,
                    "_type" : "Callout",
                    "def" : {
                      "kind" : "remix",
                      "shape" : "text-rectangle",
                      "style" : "abstract",
                      "fill-color-blue" : 0.0,
                      "fill-color-green" : 0.0,
                      "fill-color-opacity" : 1.0,
                      "fill-color-red" : 0.0,
                      "height" : 176.013453888207,
                      "stroke-color-blue" : 1.0,
                      "stroke-color-green" : 1.0,
                      "stroke-color-opacity" : 1.0,
                      "stroke-color-red" : 1.0,
                      "stroke-width" : 0.0,
                      "tail-x" : 124.305555555399,
                      "tail-y" : -6.99327305589631,
                      "width" : 81.9444444447372,
                      "word-wrap" : 1.0,
                      "fill-style" : "solid",
                      "horizontal-alignment" : "center",
                      "stroke-style" : "solid",
                      "text" : "",
                      "vertical-alignment" : "center",
                      "font" : {
                        "color-blue" : 0.266666666666667,
                        "color-green" : 0.231372549019608,
                        "color-opacity" : 1.0,
                        "color-red" : 0.184313725490196,
                        "size" : 64.0,
                        "tracking" : 0.0,
                        "name" : "Lato",
                        "weight" : "Regular"
                      },
                      "textAttributes" : {
                        "type" : "textAttributeList",
                        "keyframes" : [
                          {
                            "endTime" : 0,
                            "time" : 0,
                            "value" : [{"name":"fontSize","rangeEnd":1,"rangeStart":0,"value":64,"valueType":"double"},{"name":"fontWeight","rangeEnd":1,"rangeStart":0,"value":400,"valueType":"int"},{"name":"underline","rangeEnd":1,"rangeStart":0,"value":0,"valueType":"int"},{"name":"strikethrough","rangeEnd":1,"rangeStart":0,"value":0,"valueType":"int"},{"name":"fontName","rangeEnd":1,"rangeStart":0,"value":"Lato","valueType":"string"},{"name":"fontItalic","rangeEnd":1,"rangeStart":0,"value":0,"valueType":"int"},{"name":"fgColor","rangeEnd":1,"rangeStart":0,"value":"(47,59,68,255)","valueType":"color"}],
                            "duration" : 0
                          }
                        ]
                      }
                    },
                    "attributes" : {
                      "autoRotateText" : true
                    },
                    "parameters" : {
                      "translation0" : 260.644974044083,
                      "translation1" : 371.400002181834
                    },
                    "effects" : [
                        {
                          "effectName" : "DropShadow",
                          "category" : "categoryVisualEffects",
                          "parameters" : {
                            "angle" : 5.49778714378214,
                            "blur" : 10.0,
                            "color-alpha" : 1.0,
                            "color-blue" : 0.1216,
                            "color-green" : 0.1216,
                            "color-red" : 0.1216,
                            "enabled" : 1,
                            "offset" : 10.0,
                            "opacity" : 0.4
                          }
                        }
                    ],
                    "start" : 2729,
                    "duration" : 1,
                    "mediaStart" : -8,
                    "mediaDuration" : 1,
                    "scalar" : 1,
                    "metadata" : {
                      "WinSubProjectDisplayName" : "",
                      "clipSpeedAttribute" : false,
                      "default-HAlign" : "center",
                      "default-VAlign" : "center",
                      "default-fill-color-blue" : 0.8,
                      "default-fill-color-green" : 0.874509803921569,
                      "default-fill-color-red" : 0.898039215686275,
                      "default-translation0" : 0.0,
                      "default-translation1" : 0.0
                    },
                    "animationTracks" : {

                    }
                  },
                  {
                    "id" : 166,
                    "_type" : "Callout",
                    "def" : {
                      "kind" : "remix",
                      "shape" : "text-rectangle",
                      "style" : "abstract",
                      "fill-color-blue" : 0.0,
                      "fill-color-green" : 0.0,
                      "fill-color-opacity" : 1.0,
                      "fill-color-red" : 0.0,
                      "height" : 176.013453888207,
                      "stroke-color-blue" : 1.0,
                      "stroke-color-green" : 1.0,
                      "stroke-color-opacity" : 1.0,
                      "stroke-color-red" : 1.0,
                      "stroke-width" : 0.0,
                      "tail-x" : 117.361111110906,
                      "tail-y" : -6.99327305589631,
                      "width" : 95.8333333337233,
                      "word-wrap" : 1.0,
                      "fill-style" : "solid",
                      "horizontal-alignment" : "center",
                      "stroke-style" : "solid",
                      "text" : "",
                      "vertical-alignment" : "center",
                      "font" : {
                        "color-blue" : 0.266666666666667,
                        "color-green" : 0.231372549019608,
                        "color-opacity" : 1.0,
                        "color-red" : 0.184313725490196,
                        "size" : 64.0,
                        "tracking" : 0.0,
                        "name" : "Lato",
                        "weight" : "Regular"
                      },
                      "textAttributes" : {
                        "type" : "textAttributeList",
                        "keyframes" : [
                          {
                            "endTime" : 0,
                            "time" : 0,
                            "value" : [{"name":"fontSize","rangeEnd":1,"rangeStart":0,"value":64,"valueType":"double"},{"name":"fontWeight","rangeEnd":1,"rangeStart":0,"value":400,"valueType":"int"},{"name":"underline","rangeEnd":1,"rangeStart":0,"value":0,"valueType":"int"},{"name":"strikethrough","rangeEnd":1,"rangeStart":0,"value":0,"valueType":"int"},{"name":"fontName","rangeEnd":1,"rangeStart":0,"value":"Lato","valueType":"string"},{"name":"fontItalic","rangeEnd":1,"rangeStart":0,"value":0,"valueType":"int"},{"name":"fgColor","rangeEnd":1,"rangeStart":0,"value":"(47,59,68,255)","valueType":"color"}],
                            "duration" : 0
                          }
                        ]
                      }
                    },
                    "attributes" : {
                      "autoRotateText" : true
                    },
                    "parameters" : {
                      "translation0" : 270.0,
                      "translation1" : 371.400002181834
                    },
                    "effects" : [
                        {
                          "effectName" : "DropShadow",
                          "category" : "categoryVisualEffects",
                          "parameters" : {
                            "angle" : 5.49778714378214,
                            "blur" : 10.0,
                            "color-alpha" : 1.0,
                            "color-blue" : 0.1216,
                            "color-green" : 0.1216,
                            "color-red" : 0.1216,
                            "enabled" : 1,
                            "offset" : 10.0,
                            "opacity" : 0.4
                          },
                          "metadata" : {
                            "default-dropshadow-offset" : 10.0,
                            "default-easein" : 0.0
                          }
                        }
                    ],
                    "start" : 2730,
                    "duration" : 1,
                    "mediaStart" : -8,
                    "mediaDuration" : 1,
                    "scalar" : 1,
                    "metadata" : {
                      "WinSubProjectDisplayName" : "",
                      "clipSpeedAttribute" : false,
                      "default-HAlign" : "center",
                      "default-VAlign" : "center",
                      "default-fill-color-blue" : 0.8,
                      "default-fill-color-green" : 0.874509803921569,
                      "default-fill-color-red" : 0.898039215686275,
                      "default-translation0" : 0.0,
                      "default-translation1" : 0.0
                    },
                    "animationTracks" : {

                    }
                  },
                  {
                    "id" : 167,
                    "_type" : "Callout",
                    "def" : {
                      "kind" : "remix",
                      "shape" : "text-rectangle",
                      "style" : "abstract",
                      "fill-color-blue" : 0.0,
                      "fill-color-green" : 0.0,
                      "fill-color-opacity" : 1.0,
                      "fill-color-red" : 0.0,
                      "height" : 176.013453888207,
                      "stroke-color-blue" : 1.0,
                      "stroke-color-green" : 1.0,
                      "stroke-color-opacity" : 1.0,
                      "stroke-color-red" : 1.0,
                      "stroke-width" : 0.0,
                      "tail-x" : 100.694444444234,
                      "tail-y" : -6.99327305589631,
                      "width" : 98.6111111115008,
                      "word-wrap" : 1.0,
                      "fill-style" : "solid",
                      "horizontal-alignment" : "center",
                      "stroke-style" : "solid",
                      "text" : "",
                      "vertical-alignment" : "center",
                      "font" : {
                        "color-blue" : 0.266666666666667,
                        "color-green" : 0.231372549019608,
                        "color-opacity" : 1.0,
                        "color-red" : 0.184313725490196,
                        "size" : 64.0,
                        "tracking" : 0.0,
                        "name" : "Lato",
                        "weight" : "Regular"
                      },
                      "textAttributes" : {
                        "type" : "textAttributeList",
                        "keyframes" : [
                          {
                            "endTime" : 0,
                            "time" : 0,
                            "value" : [{"name":"fontSize","rangeEnd":1,"rangeStart":0,"value":64,"valueType":"double"},{"name":"fontWeight","rangeEnd":1,"rangeStart":0,"value":400,"valueType":"int"},{"name":"underline","rangeEnd":1,"rangeStart":0,"value":0,"valueType":"int"},{"name":"strikethrough","rangeEnd":1,"rangeStart":0,"value":0,"valueType":"int"},{"name":"fontName","rangeEnd":1,"rangeStart":0,"value":"Lato","valueType":"string"},{"name":"fontItalic","rangeEnd":1,"rangeStart":0,"value":0,"valueType":"int"},{"name":"fgColor","rangeEnd":1,"rangeStart":0,"value":"(47,59,68,255)","valueType":"color"}],
                            "duration" : 0
                          }
                        ]
                      }
                    },
                    "attributes" : {
                      "autoRotateText" : true
                    },
                    "parameters" : {
                      "translation0" : 284.422751821866,
                      "translation1" : 371.400002181834
                    },
                    "effects" : [
                        {
                          "effectName" : "DropShadow",
                          "category" : "categoryVisualEffects",
                          "parameters" : {
                            "angle" : 5.49778714378214,
                            "blur" : 10.0,
                            "color-alpha" : 1.0,
                            "color-blue" : 0.1216,
                            "color-green" : 0.1216,
                            "color-red" : 0.1216,
                            "enabled" : 1,
                            "offset" : 10.0,
                            "opacity" : 0.4
                          }
                        }
                    ],
                    "start" : 2731,
                    "duration" : 1,
                    "mediaStart" : -8,
                    "mediaDuration" : 1,
                    "scalar" : 1,
                    "metadata" : {
                      "WinSubProjectDisplayName" : "",
                      "clipSpeedAttribute" : false,
                      "default-HAlign" : "center",
                      "default-VAlign" : "center",
                      "default-fill-color-blue" : 0.8,
                      "default-fill-color-green" : 0.874509803921569,
                      "default-fill-color-red" : 0.898039215686275,
                      "default-translation0" : 0.0,
                      "default-translation1" : 0.0
                    },
                    "animationTracks" : {

                    }
                  },
                  {
                    "id" : 168,
                    "_type" : "Callout",
                    "def" : {
                      "kind" : "remix",
                      "shape" : "text-rectangle",
                      "style" : "abstract",
                      "fill-color-blue" : 0.0,
                      "fill-color-green" : 0.0,
                      "fill-color-opacity" : 1.0,
                      "fill-color-red" : 0.0,
                      "height" : 176.013453888207,
                      "stroke-color-blue" : 1.0,
                      "stroke-color-green" : 1.0,
                      "stroke-color-opacity" : 1.0,
                      "stroke-color-red" : 1.0,
                      "stroke-width" : 0.0,
                      "tail-x" : 90.277777777551,
                      "tail-y" : -6.99327305589631,
                      "width" : 108.33333333376,
                      "word-wrap" : 1.0,
                      "fill-style" : "solid",
                      "horizontal-alignment" : "center",
                      "stroke-style" : "solid",
                      "text" : "",
                      "vertical-alignment" : "center",
                      "font" : {
                        "color-blue" : 0.266666666666667,
                        "color-green" : 0.231372549019608,
                        "color-opacity" : 1.0,
                        "color-red" : 0.184313725490196,
                        "size" : 64.0,
                        "tracking" : 0.0,
                        "name" : "Lato",
                        "weight" : "Regular"
                      },
                      "textAttributes" : {
                        "type" : "textAttributeList",
                        "keyframes" : [
                          {
                            "endTime" : 0,
                            "time" : 0,
                            "value" : [{"name":"fontSize","rangeEnd":1,"rangeStart":0,"value":64,"valueType":"double"},{"name":"fontWeight","rangeEnd":1,"rangeStart":0,"value":400,"valueType":"int"},{"name":"underline","rangeEnd":1,"rangeStart":0,"value":0,"valueType":"int"},{"name":"strikethrough","rangeEnd":1,"rangeStart":0,"value":0,"valueType":"int"},{"name":"fontName","rangeEnd":1,"rangeStart":0,"value":"Lato","valueType":"string"},{"name":"fontItalic","rangeEnd":1,"rangeStart":0,"value":0,"valueType":"int"},{"name":"fgColor","rangeEnd":1,"rangeStart":0,"value":"(47,59,68,255)","valueType":"color"}],
                            "duration" : 0
                          }
                        ]
                      }
                    },
                    "attributes" : {
                      "autoRotateText" : true
                    },
                    "parameters" : {
                      "translation0" : 294.97830737742,
                      "translation1" : 371.400002181834
                    },
                    "effects" : [
                        {
                          "effectName" : "DropShadow",
                          "category" : "categoryVisualEffects",
                          "parameters" : {
                            "angle" : 5.49778714378214,
                            "blur" : 10.0,
                            "color-alpha" : 1.0,
                            "color-blue" : 0.1216,
                            "color-green" : 0.1216,
                            "color-red" : 0.1216,
                            "enabled" : 1,
                            "offset" : 10.0,
                            "opacity" : 0.4
                          }
                        }
                    ],
                    "start" : 2732,
                    "duration" : 2,
                    "mediaStart" : -8,
                    "mediaDuration" : 2,
                    "scalar" : 1,
                    "metadata" : {
                      "WinSubProjectDisplayName" : "",
                      "clipSpeedAttribute" : false,
                      "default-HAlign" : "center",
                      "default-VAlign" : "center",
                      "default-fill-color-blue" : 0.8,
                      "default-fill-color-green" : 0.874509803921569,
                      "default-fill-color-red" : 0.898039215686275,
                      "default-translation0" : 0.0,
                      "default-translation1" : 0.0
                    },
                    "animationTracks" : {

                    }
                  },
                  {
                    "id" : 169,
                    "_type" : "Callout",
                    "def" : {
                      "kind" : "remix",
                      "shape" : "text-rectangle",
                      "style" : "abstract",
                      "fill-color-blue" : 0.0,
                      "fill-color-green" : 0.0,
                      "fill-color-opacity" : 1.0,
                      "fill-color-red" : 0.0,
                      "height" : 176.013453888194,
                      "stroke-color-blue" : 1.0,
                      "stroke-color-green" : 1.0,
                      "stroke-color-opacity" : 1.0,
                      "stroke-color-red" : 1.0,
                      "stroke-width" : 0.0,
                      "tail-x" : 112.499999999946,
                      "tail-y" : -6.99327305588974,
                      "width" : 105.555555555644,
                      "word-wrap" : 1.0,
                      "fill-style" : "solid",
                      "horizontal-alignment" : "center",
                      "stroke-style" : "solid",
                      "text" : "",
                      "vertical-alignment" : "center",
                      "font" : {
                        "color-blue" : 0.266666666666667,
                        "color-green" : 0.231372549019608,
                        "color-opacity" : 1.0,
                        "color-red" : 0.184313725490196,
                        "size" : 64.0,
                        "tracking" : 0.0,
                        "name" : "Lato",
                        "weight" : "Regular"
                      },
                      "textAttributes" : {
                        "type" : "textAttributeList",
                        "keyframes" : [
                          {
                            "endTime" : 0,
                            "time" : 0,
                            "value" : [{"name":"fontSize","rangeEnd":1,"rangeStart":0,"value":64,"valueType":"double"},{"name":"fontWeight","rangeEnd":1,"rangeStart":0,"value":400,"valueType":"int"},{"name":"underline","rangeEnd":1,"rangeStart":0,"value":0,"valueType":"int"},{"name":"strikethrough","rangeEnd":1,"rangeStart":0,"value":0,"valueType":"int"},{"name":"fontName","rangeEnd":1,"rangeStart":0,"value":"Lato","valueType":"string"},{"name":"fontItalic","rangeEnd":1,"rangeStart":0,"value":0,"valueType":"int"},{"name":"fgColor","rangeEnd":1,"rangeStart":0,"value":"(47,59,68,255)","valueType":"color"}],
                            "duration" : 0
                          }
                        ]
                      }
                    },
                    "attributes" : {
                      "autoRotateText" : true
                    },
                    "parameters" : {
                      "translation0" : 310.485901276485,
                      "translation1" : 371.399999999925
                    },
                    "effects" : [
                        {
                          "effectName" : "DropShadow",
                          "category" : "categoryVisualEffects",
                          "parameters" : {
                            "angle" : 5.49778714378214,
                            "blur" : 10.0,
                            "color-alpha" : 1.0,
                            "color-blue" : 0.1216,
                            "color-green" : 0.1216,
                            "color-red" : 0.1216,
                            "enabled" : 1,
                            "offset" : 10.0,
                            "opacity" : 0.4
                          }
                        }
                    ],
                    "start" : 2734,
                    "duration" : 170,
                    "mediaStart" : -8,
                    "mediaDuration" : 170,
                    "scalar" : 1,
                    "metadata" : {
                      "WinSubProjectDisplayName" : "",
                      "clipSpeedAttribute" : false,
                      "default-HAlign" : "center",
                      "default-VAlign" : "center",
                      "default-fill-color-blue" : 0.8,
                      "default-fill-color-green" : 0.874509803921569,
                      "default-fill-color-red" : 0.898039215686275,
                      "default-translation0" : 0.0,
                      "default-translation1" : 0.0
                    },
                    "animationTracks" : {

                    }
                  }
                ]
              },
              {
                "trackIndex" : 7,
                "medias" : [
                  {
                    "id" : 170,
                    "_type" : "IMFile",
                    "src" : 10,
                    "trackNumber" : 0,
                    "trimStartSum" : 1,
                    "attributes" : {
                      "ident" : "the-final-memory-ranger"
                    },
                    "parameters" : {
                      "translation0" : 233.377683479784,
                      "translation1" : 370.906726944119,
                      "scale0" : 0.315256683181444,
                      "scale1" : 0.315256683181443
                    },
                    "effects" : [

                    ],
                    "start" : 2728,
                    "duration" : 1,
                    "mediaStart" : 0,
                    "mediaDuration" : 1,
                    "scalar" : 1,
                    "metadata" : {
                      "WinSubProjectDisplayName" : "",
                      "clipSpeedAttribute" : false,
                      "default-scale0" : 1.0,
                      "default-scale1" : 1.0,
                      "default-translation0" : 0.0,
                      "default-translation1" : -0.5
                    },
                    "animationTracks" : {

                    }
                  },
                  {
                    "id" : 171,
                    "_type" : "IMFile",
                    "src" : 10,
                    "trackNumber" : 0,
                    "trimStartSum" : 1,
                    "attributes" : {
                      "ident" : "the-final-memory-ranger"
                    },
                    "parameters" : {
                      "translation0" : 249.377683479793,
                      "translation1" : 370.906726944119,
                      "scale0" : 0.315256683181444,
                      "scale1" : 0.315256683181443
                    },
                    "effects" : [

                    ],
                    "start" : 2729,
                    "duration" : 1,
                    "mediaStart" : 0,
                    "mediaDuration" : 1,
                    "scalar" : 1,
                    "metadata" : {
                      "WinSubProjectDisplayName" : "",
                      "clipSpeedAttribute" : false,
                      "default-scale0" : 1.0,
                      "default-scale1" : 1.0,
                      "default-translation0" : 0.0,
                      "default-translation1" : -0.5
                    },
                    "animationTracks" : {

                    }
                  },
                  {
                    "id" : 172,
                    "_type" : "IMFile",
                    "src" : 10,
                    "trackNumber" : 0,
                    "trimStartSum" : 1,
                    "attributes" : {
                      "ident" : "the-final-memory-ranger"
                    },
                    "parameters" : {
                      "translation0" : 263.377683479764,
                      "translation1" : 370.906726944119,
                      "scale0" : 0.315256683181444,
                      "scale1" : 0.315256683181443
                    },
                    "effects" : [

                    ],
                    "start" : 2730,
                    "duration" : 1,
                    "mediaStart" : 0,
                    "mediaDuration" : 1,
                    "scalar" : 1,
                    "metadata" : {
                      "WinSubProjectDisplayName" : "",
                      "clipSpeedAttribute" : false,
                      "default-scale0" : 1.0,
                      "default-scale1" : 1.0,
                      "default-translation0" : 0.0,
                      "default-translation1" : -0.5
                    },
                    "animationTracks" : {

                    }
                  },
                  {
                    "id" : 173,
                    "_type" : "IMFile",
                    "src" : 10,
                    "trackNumber" : 0,
                    "trimStartSum" : 1,
                    "attributes" : {
                      "ident" : "the-final-memory-ranger"
                    },
                    "parameters" : {
                      "translation0" : 281.377683479757,
                      "translation1" : 370.906726944119,
                      "scale0" : 0.315256683181444,
                      "scale1" : 0.315256683181443
                    },
                    "effects" : [

                    ],
                    "start" : 2731,
                    "duration" : 1,
                    "mediaStart" : 0,
                    "mediaDuration" : 1,
                    "scalar" : 1,
                    "metadata" : {
                      "WinSubProjectDisplayName" : "",
                      "clipSpeedAttribute" : false,
                      "default-scale0" : 1.0,
                      "default-scale1" : 1.0,
                      "default-translation0" : 0.0,
                      "default-translation1" : -0.5
                    },
                    "animationTracks" : {

                    }
                  },
                  {
                    "id" : 174,
                    "_type" : "IMFile",
                    "src" : 10,
                    "trackNumber" : 0,
                    "trimStartSum" : 1,
                    "attributes" : {
                      "ident" : "the-final-memory-ranger"
                    },
                    "parameters" : {
                      "translation0" : 295.377683479781,
                      "translation1" : 370.906726944119,
                      "scale0" : 0.315256683181444,
                      "scale1" : 0.315256683181443
                    },
                    "effects" : [

                    ],
                    "start" : 2732,
                    "duration" : 2,
                    "mediaStart" : 0,
                    "mediaDuration" : 1,
                    "scalar" : 1,
                    "metadata" : {
                      "WinSubProjectDisplayName" : "",
                      "clipSpeedAttribute" : false,
                      "default-scale0" : 1.0,
                      "default-scale1" : 1.0,
                      "default-translation0" : 0.0,
                      "default-translation1" : -0.5
                    },
                    "animationTracks" : {

                    }
                  },
                  {
                    "id" : 175,
                    "_type" : "IMFile",
                    "src" : 10,
                    "trackNumber" : 0,
                    "trimStartSum" : 0,
                    "attributes" : {
                      "ident" : "the-final-memory-ranger"
                    },
                    "parameters" : {
                      "translation0" : 307.377683479795,
                      "translation1" : 370.906726944119,
                      "scale0" : 0.315256683181444,
                      "scale1" : 0.315256683181443
                    },
                    "effects" : [

                    ],
                    "start" : 2734,
                    "duration" : 170,
                    "mediaStart" : 0,
                    "mediaDuration" : 1,
                    "scalar" : 1,
                    "metadata" : {
                      "WinSubProjectDisplayName" : "",
                      "clipSpeedAttribute" : false,
                      "default-scale0" : 1.0,
                      "default-scale1" : 1.0,
                      "default-translation0" : 0.0,
                      "default-translation1" : -0.5
                    },
                    "animationTracks" : {

                    }
                  }
                ]
              },
              {
                "trackIndex" : 8,
                "medias" : [
                  {
                    "id" : 176,
                    "_type" : "IMFile",
                    "src" : 8,
                    "trackNumber" : 0,
                    "trimStartSum" : -82,
                    "attributes" : {
                      "ident" : "cool black sunglasses 2"
                    },
                    "parameters" : {
                      "translation0" : 644.907210214448,
                      "translation1" : 299.679685315915,
                      "scale0" : 0.293389052481567,
                      "scale1" : 0.293389052481567
                    },
                    "effects" : [
                        {
                          "_type" : "GenericBehaviorEffect",
                          "effectName" : "drifting",
                          "start" : -82,
                          "duration" : 170                        ,
                          "in" : {
                            "attributes" : {
                              "name" : "drifting",
                              "type" : 0,
                              "characterOrder" : 6,
                              "offsetBetweenCharacters" : "3/2",
                              "suggestedDurationPerCharacter" : "459/5",
                              "overlapProportion" : 0,
                              "movement" : 12,
                              "springDamping" : 5.0,
                              "springStiffness" : 50.0,
                              "bounceBounciness" : 0.45
                            },
                            "parameters" : {
                              "direction" : {
                                "type" : "int",
                                "valueBounds" : {
                                  "minValue" : 0,
                                  "maxValue" : 3,
                                  "defaultValue" : 3
                                },
                                "uiHints" : {
                                  "userInterfaceType" : 2,
                                  "unitType" : 0
                                },
                                "keyframes" : [
                                  {
                                    "endTime" : 0,
                                    "time" : 0,
                                    "value" : 3,
                                    "duration" : 0
                                  }
                                ]
                              }
                            }
                          
                          },
                          "center" : {
                            "attributes" : {
                              "name" : "drifting",
                              "type" : 0,
                              "characterOrder" : 6,
                              "offsetBetweenCharacters" : 1,
                              "secondsPerLoop" : 4,
                              "numberOfLoops" : 0,
                              "delayBetweenLoops" : 0,
                              "offsetBetweenCharacters" : 1
                            },
                            "parameters" : {
                              "movement" : {
                                "type" : "int",
                                "valueBounds" : {
                                  "minValue" : 0,
                                  "maxValue" : 31,
                                  "defaultValue" : 17
                                },
                                "uiHints" : {
                                  "userInterfaceType" : 4,
                                  "unitType" : 0
                                },
                                "keyframes" : [
                                  {
                                    "endTime" : 0,
                                    "time" : 0,
                                    "value" : 17,
                                    "duration" : 0
                                  }
                                ]
                              }
                            }
                          
                          },
                          "out" : {
                            "attributes" : {
                              "name" : "none",
                              "type" : 0,
                              "characterOrder" : 6,
                              "offsetBetweenCharacters" : 0,
                              "suggestedDurationPerCharacter" : 0,
                              "overlapProportion" : 0,
                              "movement" : -1,
                              "springDamping" : 5.0,
                              "springStiffness" : 50.0,
                              "bounceBounciness" : 0.45
                            }
                          
                          },
                          "metadata" : {
                            "default-behavior-center-loops" : 1.0,
                            "default-behavior-in-direction" : 3,
                            "default-behavior-in-duration" : 37.5,
                            "default-behavior-in-movement" : 17.0,
                            "default-behavior-out-style" : "drifting"
                          }
                        }
                    ],
                    "start" : 2734,
                    "duration" : 170,
                    "mediaStart" : 0,
                    "mediaDuration" : 1,
                    "scalar" : 1,
                    "metadata" : {
                      "WinSubProjectDisplayName" : "",
                      "clipSpeedAttribute" : false,
                      "default-scale0" : 1.0,
                      "default-scale1" : 1.0,
                      "default-translation0" : 0.0,
                      "default-translation1" : 0.0
                    },
                    "animationTracks" : {

                    }
                  }
                ]
              },
              {
                "trackIndex" : 9,
                "medias" : [
                  {
                    "id" : 177,
                    "_type" : "Callout",
                    "def" : {
                      "kind" : "remix",
                      "shape" : "speech-bubble2",
                      "style" : "basic",
                      "fill-color-blue" : 0.129411764705882,
                      "fill-color-green" : 0.741176470588235,
                      "fill-color-opacity" : 1.0,
                      "fill-color-red" : 0.956862745098039,
                      "height" : 173.749999999964,
                      "stroke-color-blue" : 1.0,
                      "stroke-color-green" : 1.0,
                      "stroke-color-opacity" : 1.0,
                      "stroke-color-red" : 1.0,
                      "stroke-width" : 0.0,
                      "tail-x" : 141.296832745422,
                      "tail-y" : 228.585206881551,
                      "width" : 741.017445620178,
                      "word-wrap" : 1.0,
                      "fill-style" : "solid",
                      "horizontal-alignment" : "center",
                      "stroke-style" : "solid",
                      "text" : "MemoryRanger protects my data!",
                      "vertical-alignment" : "center",
                      "font" : {
                        "color-blue" : 1.0,
                        "color-green" : 1.0,
                        "color-red" : 1.0,
                        "size" : 64.0,
                        "tracking" : 0.0,
                        "name" : "Montserrat",
                        "weight" : "Regular"
                      },
                      "textAttributes" : {
                        "type" : "textAttributeList",
                        "keyframes" : [
                          {
                            "endTime" : 0,
                            "time" : 0,
                            "value" : [{"name":"fontItalic","rangeEnd":30,"rangeStart":0,"value":0,"valueType":"int"},{"name":"fontName","rangeEnd":30,"rangeStart":0,"value":"Montserrat","valueType":"string"},{"name":"fontWeight","rangeEnd":30,"rangeStart":0,"value":700,"valueType":"int"},{"name":"strikethrough","rangeEnd":30,"rangeStart":0,"value":0,"valueType":"int"},{"name":"fontSize","rangeEnd":30,"rangeStart":0,"value":70,"valueType":"double"},{"name":"underline","rangeEnd":30,"rangeStart":0,"value":0,"valueType":"int"},{"name":"fgColor","rangeEnd":30,"rangeStart":0,"value":"(35,40,47,255)","valueType":"color"}],
                            "duration" : 0
                          }
                        ]
                      }
                    },
                    "attributes" : {
                      "autoRotateText" : true
                    },
                    "parameters" : {
                      "translation0" : 525.911271972761,
                      "translation1" : -128.537429103834
                    },
                    "effects" : [
                        {
                          "effectName" : "DropShadow",
                          "category" : "categoryVisualEffects",
                          "parameters" : {
                            "angle" : 5.49778714378214,
                            "blur" : 10.0,
                            "color-alpha" : 1.0,
                            "color-blue" : 0.1216,
                            "color-green" : 0.1216,
                            "color-red" : 0.1216,
                            "enabled" : 1,
                            "offset" : 10.0,
                            "opacity" : 0.4
                          }
                        }
                    ],
                    "start" : 2734,
                    "duration" : 170,
                    "mediaStart" : 0,
                    "mediaDuration" : 170,
                    "scalar" : 1,
                    "metadata" : {
                      "WinSubProjectDisplayName" : "",
                      "clipSpeedAttribute" : false,
                      "default-HAlign" : "center",
                      "default-VAlign" : "center",
                      "default-fill-color-blue" : 0.258823529411765,
                      "default-fill-color-green" : 0.258823529411765,
                      "default-fill-color-red" : 0.988235294117647,
                      "default-translation0" : 0.0,
                      "default-translation1" : 0.0
                    },
                    "animationTracks" : {

                    }
                  }
                ]
              },
              {
                "trackIndex" : 10,
                "medias" : [
                ]
              },
              {
                "trackIndex" : 11,
                "medias" : [
                ]
              }
            ]
          }
        }
      ]
    },
    "trackAttributes" : [
      {
        "ident" : "",
        "audioMuted" : false,
        "videoHidden" : false,
        "metadata" : {
          "IsLocked" : "False",
          "WinTrackHeight" : "56"
        }
      },
      {
        "ident" : "",
        "audioMuted" : false,
        "videoHidden" : false,
        "metadata" : {
          "IsLocked" : "False",
          "WinTrackHeight" : "56"
        }
      },
      {
        "ident" : "",
        "audioMuted" : false,
        "videoHidden" : false,
        "metadata" : {
          "IsLocked" : "False",
          "WinTrackHeight" : "56"
        }
      },
      {
        "ident" : "",
        "audioMuted" : false,
        "videoHidden" : false,
        "metadata" : {
          "IsLocked" : "False",
          "WinTrackHeight" : "56"
        }
      },
      {
        "ident" : "",
        "audioMuted" : false,
        "videoHidden" : false,
        "metadata" : {
          "IsLocked" : "False",
          "WinTrackHeight" : "56"
        }
      },
      {
        "ident" : "",
        "audioMuted" : false,
        "videoHidden" : false,
        "metadata" : {
          "IsLocked" : "False",
          "WinTrackHeight" : "56"
        }
      },
      {
        "ident" : "",
        "audioMuted" : false,
        "videoHidden" : false,
        "metadata" : {
          "IsLocked" : "False",
          "WinTrackHeight" : "56"
        }
      },
      {
        "ident" : "",
        "audioMuted" : false,
        "videoHidden" : false,
        "metadata" : {
          "IsLocked" : "False",
          "WinTrackHeight" : "56"
        }
      },
      {
        "ident" : "",
        "audioMuted" : false,
        "videoHidden" : false,
        "metadata" : {
          "IsLocked" : "False",
          "WinTrackHeight" : "56"
        }
      },
      {
        "ident" : "",
        "audioMuted" : false,
        "videoHidden" : false,
        "metadata" : {
          "IsLocked" : "False",
          "WinTrackHeight" : "56"
        }
      },
      {
        "ident" : "",
        "audioMuted" : false,
        "videoHidden" : false,
        "metadata" : {
          "IsLocked" : "False",
          "WinTrackHeight" : "56"
        }
      },
      {
        "ident" : "",
        "audioMuted" : false,
        "videoHidden" : false,
        "metadata" : {
          "IsLocked" : "False",
          "WinTrackHeight" : "56"
        }
      }
    ],
    "captionAttributes" : {
      "enabled" : true,
      "fontName" : "Arial",
      "fontSize" : 64,
      "backgroundColor" : [ 0, 0, 0, 191],
      "foregroundColor" : [ 255, 255, 255, 255],
      "lang" : "en",
      "alignment" : 0,
      "defaultFontSize" : true,
      "opacity" : 0.5,
      "backgroundEnabled" : true,
      "backgroundOnlyAroundText" : true
    },
    "backgroundColor" : [ 0, 0, 0, 255]
  },
  "metadata" : {
    "AutoSaveFile" : "C:\\Users\\igork\\AppData\\Local\\TechSmith\\Camtasia Studio\\18.0\\Auto-Saves\\part2_the_attack_preventionfb37a34.autosave.tscproj",
    "CanvasZoom" : 60,
    "Date" : "2018-11-20 03:11:52 PM",
    "Fit" : 0,
    "IsAutoSave" : "0",
    "Language" : "ENU",
    "ProfileName" : "",
    "ProjectDimensionsChanged" : "1",
    "Title" : "CDFSL 2019  - Part 2 - The Attack Prevention",
    "audioNarrationNotes" : "",
    "calloutStyle" : "All",
    "canvasDetached" : "False",
    "canvasPositionHeight" : "0",
    "canvasPositionLeft" : "0",
    "canvasPositionTop" : "0",
    "canvasPositionWidth" : "0"
  }
}
