{
  "title" : "",
  "description" : "",
  "author" : "",
  "targetLoudness" : -18.0,
  "shouldApplyLoudnessNormalization" : false,
  "videoFormatFrameRate" : 30,
  "audioFormatSampleRate" : 44100,
  "width" : 2560.0,
  "height" : 1440.0,
  "version" : "3.0",
  "editRate" : 30,
  "authoringClientName" :  {
    "name" : "Camtasia",
    "platform" : "Windows",
    "version" : "19.0"
  },
  "sourceBin" : [
    {
      "id" : 1,
      "src" : "C:\\hijacking_is_not_an_option_raw\\token_hijacking\\token_hijacking_attack.trec",
      "rect" : [0, 0, 2560, 1440],
      "lastMod" : "20191007T072729",
      "sourceTracks" : [
        {
          "range" : [0, 1575439],
          "type" : 0,
          "editRate" : 30,
          "trackRect" : [0, 0, 2560, 1440],
          "sampleRate" : 28,
          "bitDepth" : 0,
          "numChannels" : 0,
          "integratedLUFS" : 100.0,
          "peakLevel" : -1.0,
          "metaData" : "2b7b6a00-7a1f-11e2-83d0-0017f200be7f;2b7b6aef-7a1f-11e2-83d0-0017f200be7f;2b7b6af0-7a1f-11e2-83d0-0017f200be7f;2b7b6af1-7a1f-11e2-83d0-0017f200be7f;2b7b6af2-7a1f-11e2-83d0-0017f200be7f;2b7b6af3-7a1f-11e2-83d0-0017f200be7f;2b7b6af5-7a1f-11e2-83d0-0017f200be7f;2b7b6af6-7a1f-11e2-83d0-0017f200be7f;2b7b6af7-7a1f-11e2-83d0-0017f200be7f;2b7b6af8-7a1f-11e2-83d0-0017f200be7f;2b7b6af9-7a1f-11e2-83d0-0017f200be7f;2b7b6afa-7a1f-11e2-83d0-0017f200be7f;"
        }
      ],
      "metadata" : {
        "timeAdded" : "20200614T110608.104005"
      }
    },
    {
      "id" : 2,
      "src" : "K:\\Dropbox\\_Pubs&Confs\\20\\Kernel-Hijacking-Is-Not-an-Option\\video-demos\\_sounds\\Cinematic_Sound_Effects_Impacts_HD-youtube-C7monbiQkZo-251-320--sec 37-40.mp3",
      "rect" : [0, 0, 0, 0],
      "lastMod" : "20180519T160240",
      "sourceTracks" : [
        {
          "range" : [0, 415440000],
          "type" : 2,
          "editRate" : 10000000,
          "trackRect" : [0, 0, 0, 0],
          "sampleRate" : 48000,
          "bitDepth" : 0,
          "numChannels" : 2,
          "integratedLUFS" : -13.9486652596205,
          "peakLevel" : 1.11620581150055,
          "metaData" : ""
        }
      ],
      "metadata" : {
        "timeAdded" : "20200708T132507.325826"
      }
    },
    {
      "id" : 3,
      "src" : "K:\\Dropbox\\_Pubs&Confs\\20\\Kernel-Hijacking-Is-Not-an-Option\\video-demos\\_sounds\\Neizvesten+Saundtrek+k+fil+mu+RODINA+ZhDET+NEVYPOLNIMOE+ZAD_muzlishko.ru_.mp3",
      "rect" : [0, 0, 0, 0],
      "lastMod" : "20181120T102825",
      "sourceTracks" : [
        {
          "range" : [0, 1697400000],
          "type" : 2,
          "editRate" : 10000000,
          "trackRect" : [0, 0, 0, 0],
          "sampleRate" : 32000,
          "bitDepth" : 0,
          "numChannels" : 2,
          "integratedLUFS" : -10.3265153700026,
          "peakLevel" : 1.12320291996002,
          "metaData" : ""
        }
      ],
      "metadata" : {
        "timeAdded" : "20200708T132507.329816"
      }
    },
    {
      "id" : 4,
      "src" : "K:\\Dropbox\\_Pubs&Confs\\20\\Kernel-Hijacking-Is-Not-an-Option\\video-demos\\_sounds\\Ticking clock.mp3",
      "rect" : [0, 0, 0, 0],
      "lastMod" : "20181127T124442",
      "sourceTracks" : [
        {
          "range" : [0, 381125833],
          "type" : 2,
          "editRate" : 10000000,
          "trackRect" : [0, 0, 0, 0],
          "sampleRate" : 44100,
          "bitDepth" : 0,
          "numChannels" : 2,
          "integratedLUFS" : -21.5714887318495,
          "peakLevel" : 0.678971886634827,
          "metaData" : ""
        }
      ],
      "metadata" : {
        "timeAdded" : "20200708T132507.333807"
      }
    },
    {
      "id" : 5,
      "src" : "C:\\Users\\igork\\Documents\\Camtasia\\Rec 07-08-20.trec",
      "rect" : [0, 0, 2560, 1440],
      "lastMod" : "20200708T135252",
      "sourceTracks" : [
        {
          "range" : [0, 196],
          "type" : 0,
          "editRate" : 1,
          "trackRect" : [0, 0, 2560, 1440],
          "sampleRate" : 1,
          "bitDepth" : 0,
          "numChannels" : 0,
          "integratedLUFS" : 100.0,
          "peakLevel" : -1.0,
          "metaData" : "2b7b6a00-7a1f-11e2-83d0-0017f200be7f;2b7b6aef-7a1f-11e2-83d0-0017f200be7f;2b7b6af0-7a1f-11e2-83d0-0017f200be7f;2b7b6af1-7a1f-11e2-83d0-0017f200be7f;2b7b6af2-7a1f-11e2-83d0-0017f200be7f;2b7b6af3-7a1f-11e2-83d0-0017f200be7f;2b7b6af5-7a1f-11e2-83d0-0017f200be7f;2b7b6af6-7a1f-11e2-83d0-0017f200be7f;2b7b6af7-7a1f-11e2-83d0-0017f200be7f;2b7b6af8-7a1f-11e2-83d0-0017f200be7f;2b7b6af9-7a1f-11e2-83d0-0017f200be7f;2b7b6afa-7a1f-11e2-83d0-0017f200be7f;"
        },
        {
          "range" : [0, 8623104],
          "type" : 2,
          "editRate" : 44100,
          "trackRect" : [0, 0, 0, 0],
          "sampleRate" : 44100,
          "bitDepth" : 16,
          "numChannels" : 2,
          "integratedLUFS" : -17.2541092391779,
          "peakLevel" : 1.0,
          "metaData" : ""
        }
      ],
      "metadata" : {
        "timeAdded" : "20200708T135252.948414"
      }
    },
    {
      "id" : 6,
      "src" : "C:\\Users\\igork\\Documents\\Camtasia\\Rec 07-08-20_001.trec",
      "rect" : [0, 0, 2560, 1440],
      "lastMod" : "20200708T150944",
      "sourceTracks" : [
        {
          "range" : [0, 9],
          "type" : 0,
          "editRate" : 1,
          "trackRect" : [0, 0, 2560, 1440],
          "sampleRate" : 1,
          "bitDepth" : 0,
          "numChannels" : 0,
          "integratedLUFS" : 100.0,
          "peakLevel" : -1.0,
          "metaData" : "2b7b6a00-7a1f-11e2-83d0-0017f200be7f;2b7b6aef-7a1f-11e2-83d0-0017f200be7f;2b7b6af0-7a1f-11e2-83d0-0017f200be7f;2b7b6af1-7a1f-11e2-83d0-0017f200be7f;2b7b6af2-7a1f-11e2-83d0-0017f200be7f;2b7b6af3-7a1f-11e2-83d0-0017f200be7f;2b7b6af5-7a1f-11e2-83d0-0017f200be7f;2b7b6af6-7a1f-11e2-83d0-0017f200be7f;2b7b6af7-7a1f-11e2-83d0-0017f200be7f;2b7b6af8-7a1f-11e2-83d0-0017f200be7f;2b7b6af9-7a1f-11e2-83d0-0017f200be7f;2b7b6afa-7a1f-11e2-83d0-0017f200be7f;"
        },
        {
          "range" : [0, 376832],
          "type" : 2,
          "editRate" : 44100,
          "trackRect" : [0, 0, 0, 0],
          "sampleRate" : 44100,
          "bitDepth" : 16,
          "numChannels" : 2,
          "integratedLUFS" : -22.181663610649,
          "peakLevel" : 0.623504638671875,
          "metaData" : ""
        }
      ],
      "metadata" : {
        "timeAdded" : "20200708T150944.856638"
      }
    },
    {
      "id" : 7,
      "src" : "K:\\Dropbox\\_Pubs&Confs\\20\\Kernel-Hijacking-Is-Not-an-Option\\Kernel Hijacking-Is-Not-an-Option - picts\\znayka - for demos\\pirat\\256.png",
      "rect" : [0, 0, 256, 256],
      "lastMod" : "20190311T095112",
      "sourceTracks" : [
        {
          "range" : [0, 1],
          "type" : 1,
          "editRate" : 10000000,
          "trackRect" : [0, 0, 256, 256],
          "sampleRate" : 0,
          "bitDepth" : 32,
          "numChannels" : 0,
          "integratedLUFS" : 100.0,
          "peakLevel" : -1.0,
          "metaData" : ""
        }
      ],
      "metadata" : {
        "timeAdded" : "20200713T200051.749781"
      }
    },
    {
      "id" : 8,
      "src" : "K:\\Dropbox\\_Pubs&Confs\\20\\Kernel-Hijacking-Is-Not-an-Option\\Kernel Hijacking-Is-Not-an-Option - picts\\znayka - for demos\\pirat\\ezgif-3-86c503cbd005.gif",
      "rect" : [0, 0, 54, 56],
      "lastMod" : "20190420T183621",
      "sourceTracks" : [
        {
          "range" : [0, 27],
          "type" : 0,
          "editRate" : 30,
          "trackRect" : [0, 0, 54, 56],
          "sampleRate" : 30,
          "bitDepth" : 8,
          "numChannels" : 0,
          "integratedLUFS" : 100.0,
          "peakLevel" : -1.0,
          "metaData" : ""
        }
      ],
      "metadata" : {
        "timeAdded" : "20200713T200051.757760"
      }
    },
    {
      "id" : 9,
      "src" : "C:\\Users\\igork\\Documents\\Camtasia\\Rec 07-14-20.trec",
      "rect" : [0, 0, 2560, 1440],
      "lastMod" : "20200714T093631",
      "sourceTracks" : [
        {
          "range" : [0, 138],
          "type" : 0,
          "editRate" : 1,
          "trackRect" : [0, 0, 2560, 1440],
          "sampleRate" : 1,
          "bitDepth" : 0,
          "numChannels" : 0,
          "integratedLUFS" : 100.0,
          "peakLevel" : -1.0,
          "metaData" : "2b7b6a00-7a1f-11e2-83d0-0017f200be7f;2b7b6aef-7a1f-11e2-83d0-0017f200be7f;2b7b6af0-7a1f-11e2-83d0-0017f200be7f;2b7b6af1-7a1f-11e2-83d0-0017f200be7f;2b7b6af2-7a1f-11e2-83d0-0017f200be7f;2b7b6af3-7a1f-11e2-83d0-0017f200be7f;2b7b6af5-7a1f-11e2-83d0-0017f200be7f;2b7b6af6-7a1f-11e2-83d0-0017f200be7f;2b7b6af7-7a1f-11e2-83d0-0017f200be7f;2b7b6af8-7a1f-11e2-83d0-0017f200be7f;2b7b6af9-7a1f-11e2-83d0-0017f200be7f;2b7b6afa-7a1f-11e2-83d0-0017f200be7f;"
        },
        {
          "range" : [0, 6043648],
          "type" : 2,
          "editRate" : 44100,
          "trackRect" : [0, 0, 0, 0],
          "sampleRate" : 44100,
          "bitDepth" : 16,
          "numChannels" : 2,
          "integratedLUFS" : -19.3284019487054,
          "peakLevel" : 1.0,
          "metaData" : ""
        }
      ],
      "metadata" : {
        "timeAdded" : "20200714T093631.739758"
      }
    },
    {
      "id" : 10,
      "src" : "C:\\Users\\igork\\Documents\\Camtasia\\Rec 07-14-20_001.trec",
      "rect" : [0, 0, 2560, 1440],
      "lastMod" : "20200714T094414",
      "sourceTracks" : [
        {
          "range" : [0, 10],
          "type" : 0,
          "editRate" : 1,
          "trackRect" : [0, 0, 2560, 1440],
          "sampleRate" : 1,
          "bitDepth" : 0,
          "numChannels" : 0,
          "integratedLUFS" : 100.0,
          "peakLevel" : -1.0,
          "metaData" : "2b7b6a00-7a1f-11e2-83d0-0017f200be7f;2b7b6aef-7a1f-11e2-83d0-0017f200be7f;2b7b6af0-7a1f-11e2-83d0-0017f200be7f;2b7b6af1-7a1f-11e2-83d0-0017f200be7f;2b7b6af2-7a1f-11e2-83d0-0017f200be7f;2b7b6af3-7a1f-11e2-83d0-0017f200be7f;2b7b6af5-7a1f-11e2-83d0-0017f200be7f;2b7b6af6-7a1f-11e2-83d0-0017f200be7f;2b7b6af7-7a1f-11e2-83d0-0017f200be7f;2b7b6af8-7a1f-11e2-83d0-0017f200be7f;2b7b6af9-7a1f-11e2-83d0-0017f200be7f;2b7b6afa-7a1f-11e2-83d0-0017f200be7f;"
        },
        {
          "range" : [0, 398336],
          "type" : 2,
          "editRate" : 44100,
          "trackRect" : [0, 0, 0, 0],
          "sampleRate" : 44100,
          "bitDepth" : 16,
          "numChannels" : 2,
          "integratedLUFS" : -20.8667168675882,
          "peakLevel" : 0.69659423828125,
          "metaData" : ""
        }
      ],
      "metadata" : {
        "timeAdded" : "20200714T094414.921938"
      }
    }
  ],
  "timeline" : {
    "id" : 11,
    "sceneTrack" : {
      "scenes" : [
        {
          "duration" : 130.233333333333,
          "title" : "",
          "type" : "",
          "csml" : {
            "tracks" : [
              {
                "trackIndex" : 0,
                "medias" : [
                  {
                    "id" : 12,
                    "_type" : "AMFile",
                    "src" : 3,
                    "trackNumber" : 0,
                    "attributes" : {
                      "ident" : "Neizvesten+Saundtrek+k+fil+mu+RODINA+ZhDET+NEVYPOLNIMOE+ZAD_muzlishko.ru_",
                      "gain" : 1.0,
                      "mixToMono" : false
                    },
                      "channelNumber" : "0,1",
                    "parameters" : {
                      "volume" : {
                        "type" : "double",
                        "keyframes" : [
                          {
                            "endTime" : 0,
                            "time" : 0,
                            "value" : 1.0,
                            "duration" : 0
                          },
                          {
                            "endTime" : 271,
                            "time" : 271,
                            "value" : 1.0,
                            "duration" : 0
                          },
                          {
                            "endTime" : 274,
                            "time" : 274,
                            "value" : 0.0,
                            "duration" : 0
                          },
                          {
                            "endTime" : 275,
                            "time" : 275,
                            "value" : 1.0,
                            "duration" : 0
                          }
                        ]
                      }
                    },
                    "effects" : [

                    ],
                    "start" : 0,
                    "duration" : 150,
                    "mediaStart" : 124,
                    "mediaDuration" : 150,
                    "scalar" : 1,
                    "metadata" : {
                      "clipSpeedAttribute" : false
                    },
                    "animationTracks" : {

                    }
                  },
                  {
                    "id" : 13,
                    "_type" : "AMFile",
                    "src" : 9,
                    "trackNumber" : 1,
                    "attributes" : {
                      "ident" : "Rec 07-14-20",
                      "gain" : 1.0,
                      "mixToMono" : false
                    },
                      "channelNumber" : "0,1",
                    "parameters" : {
                      "volume" : 1.50145772594755
                    },
                    "effects" : [

                    ],
                    "start" : 150,
                    "duration" : 267,
                    "mediaStart" : 193,
                    "mediaDuration" : 267,
                    "scalar" : 1,
                    "metadata" : {
                      "clipSpeedAttribute" : false
                    },
                    "animationTracks" : {

                    }
                  },
                  {
                    "id" : 14,
                    "_type" : "AMFile",
                    "src" : 9,
                    "trackNumber" : 1,
                    "attributes" : {
                      "ident" : "Rec 07-14-20",
                      "gain" : 1.0,
                      "mixToMono" : false
                    },
                      "channelNumber" : "0,1",
                    "parameters" : {
                      "volume" : 1.50145772594755
                    },
                    "effects" : [

                    ],
                    "start" : 458,
                    "duration" : 106,
                    "mediaStart" : 460,
                    "mediaDuration" : 106,
                    "scalar" : 1,
                    "metadata" : {
                      "clipSpeedAttribute" : false
                    },
                    "animationTracks" : {

                    }
                  },
                  {
                    "id" : 15,
                    "_type" : "AMFile",
                    "src" : 9,
                    "trackNumber" : 1,
                    "attributes" : {
                      "ident" : "Rec 07-14-20",
                      "gain" : 1.0,
                      "mixToMono" : false
                    },
                      "channelNumber" : "0,1",
                    "parameters" : {
                      "volume" : 1.50145772594755
                    },
                    "effects" : [

                    ],
                    "start" : 583,
                    "duration" : 162,
                    "mediaStart" : 607,
                    "mediaDuration" : 162,
                    "scalar" : 1,
                    "metadata" : {
                      "clipSpeedAttribute" : false
                    },
                    "animationTracks" : {

                    }
                  },
                  {
                    "id" : 16,
                    "_type" : "AMFile",
                    "src" : 9,
                    "trackNumber" : 1,
                    "attributes" : {
                      "ident" : "Rec 07-14-20",
                      "gain" : 1.0,
                      "mixToMono" : false
                    },
                      "channelNumber" : "0,1",
                    "parameters" : {
                      "volume" : 1.50145772594755
                    },
                    "effects" : [

                    ],
                    "start" : 794,
                    "duration" : 329,
                    "mediaStart" : 837,
                    "mediaDuration" : 329,
                    "scalar" : 1,
                    "metadata" : {
                      "clipSpeedAttribute" : false
                    },
                    "animationTracks" : {

                    }
                  },
                  {
                    "id" : 17,
                    "_type" : "AMFile",
                    "src" : 5,
                    "trackNumber" : 1,
                    "attributes" : {
                      "ident" : "Rec 07-08-20",
                      "gain" : 1.0,
                      "mixToMono" : false
                    },
                      "channelNumber" : "0,1",
                    "parameters" : {
                      "volume" : 1.61807580174927
                    },
                    "effects" : [

                    ],
                    "start" : 1170,
                    "duration" : 304,
                    "mediaStart" : 1869,
                    "mediaDuration" : 304,
                    "scalar" : 1,
                    "metadata" : {
                      "clipSpeedAttribute" : false
                    },
                    "animationTracks" : {

                    }
                  },
                  {
                    "id" : 18,
                    "_type" : "AMFile",
                    "src" : 10,
                    "trackNumber" : 1,
                    "attributes" : {
                      "ident" : "Rec 07-14-20_001",
                      "gain" : 1.0,
                      "mixToMono" : false
                    },
                      "channelNumber" : "0,1",
                    "parameters" : {
                      "volume" : 1.61807580174927
                    },
                    "effects" : [

                    ],
                    "start" : 1474,
                    "duration" : 142,
                    "mediaStart" : 0,
                    "mediaDuration" : 142,
                    "scalar" : 1,
                    "metadata" : {
                      "clipSpeedAttribute" : false
                    },
                    "animationTracks" : {

                    }
                  },
                  {
                    "id" : 19,
                    "_type" : "AMFile",
                    "src" : 10,
                    "trackNumber" : 1,
                    "attributes" : {
                      "ident" : "Rec 07-14-20_001",
                      "gain" : 1.0,
                      "mixToMono" : false
                    },
                      "channelNumber" : "0,1",
                    "parameters" : {
                      "volume" : 1.61807580174927
                    },
                    "effects" : [

                    ],
                    "start" : 1759,
                    "duration" : 129,
                    "mediaStart" : 142,
                    "mediaDuration" : 129,
                    "scalar" : 1,
                    "metadata" : {
                      "clipSpeedAttribute" : false
                    },
                    "animationTracks" : {

                    }
                  },
                  {
                    "id" : 20,
                    "_type" : "AMFile",
                    "src" : 9,
                    "trackNumber" : 1,
                    "attributes" : {
                      "ident" : "Rec 07-14-20",
                      "gain" : 1.0,
                      "mixToMono" : false
                    },
                      "channelNumber" : "0,1",
                    "parameters" : {
                      "volume" : 1.61807580174925
                    },
                    "effects" : [

                    ],
                    "start" : 2003,
                    "duration" : 123,
                    "mediaStart" : 1958,
                    "mediaDuration" : 123,
                    "scalar" : 1,
                    "metadata" : {
                      "clipSpeedAttribute" : false
                    },
                    "animationTracks" : {

                    }
                  },
                  {
                    "id" : 21,
                    "_type" : "AMFile",
                    "src" : 5,
                    "trackNumber" : 1,
                    "attributes" : {
                      "ident" : "Rec 07-08-20",
                      "gain" : 1.0,
                      "mixToMono" : false
                    },
                      "channelNumber" : "0,1",
                    "parameters" : {
                      "volume" : 1.61807580174927
                    },
                    "effects" : [

                    ],
                    "start" : 2153,
                    "duration" : 107,
                    "mediaStart" : 2846,
                    "mediaDuration" : 107,
                    "scalar" : 1,
                    "metadata" : {
                      "clipSpeedAttribute" : false
                    },
                    "animationTracks" : {

                    }
                  },
                  {
                    "id" : 22,
                    "_type" : "AMFile",
                    "src" : 9,
                    "trackNumber" : 1,
                    "attributes" : {
                      "ident" : "Rec 07-14-20",
                      "gain" : 1.0,
                      "mixToMono" : false
                    },
                      "channelNumber" : "0,1",
                    "parameters" : {
                      "volume" : 1.61807580174925
                    },
                    "effects" : [

                    ],
                    "start" : 2278,
                    "duration" : 350,
                    "mediaStart" : 2330,
                    "mediaDuration" : 350,
                    "scalar" : 1,
                    "metadata" : {
                      "clipSpeedAttribute" : false
                    },
                    "animationTracks" : {

                    }
                  },
                  {
                    "id" : 23,
                    "_type" : "AMFile",
                    "src" : 9,
                    "trackNumber" : 1,
                    "attributes" : {
                      "ident" : "Rec 07-14-20",
                      "gain" : 1.0,
                      "mixToMono" : false
                    },
                      "channelNumber" : "0,1",
                    "parameters" : {
                      "volume" : 1.61807580174925
                    },
                    "effects" : [

                    ],
                    "start" : 2628,
                    "duration" : 300,
                    "mediaStart" : 2743,
                    "mediaDuration" : 300,
                    "scalar" : 1,
                    "metadata" : {
                      "clipSpeedAttribute" : false
                    },
                    "animationTracks" : {

                    }
                  },
                  {
                    "id" : 24,
                    "_type" : "AMFile",
                    "src" : 9,
                    "trackNumber" : 1,
                    "attributes" : {
                      "ident" : "Rec 07-14-20",
                      "gain" : 1.0,
                      "mixToMono" : false
                    },
                      "channelNumber" : "0,1",
                    "parameters" : {
                      "volume" : 1.61807580174925
                    },
                    "effects" : [

                    ],
                    "start" : 2948,
                    "duration" : 194,
                    "mediaStart" : 3296,
                    "mediaDuration" : 194,
                    "scalar" : 1,
                    "metadata" : {
                      "clipSpeedAttribute" : false
                    },
                    "animationTracks" : {

                    }
                  },
                  {
                    "id" : 25,
                    "_type" : "AMFile",
                    "src" : 5,
                    "trackNumber" : 1,
                    "attributes" : {
                      "ident" : "Rec 07-08-20",
                      "gain" : 1.0,
                      "mixToMono" : false
                    },
                      "channelNumber" : "0,1",
                    "parameters" : {
                      "volume" : 1.61807580174927
                    },
                    "effects" : [

                    ],
                    "start" : 3277,
                    "duration" : 134,
                    "mediaStart" : 5158,
                    "mediaDuration" : 134,
                    "scalar" : 1,
                    "metadata" : {
                      "clipSpeedAttribute" : false
                    },
                    "animationTracks" : {

                    }
                  },
                  {
                    "id" : 26,
                    "_type" : "AMFile",
                    "src" : 5,
                    "trackNumber" : 1,
                    "attributes" : {
                      "ident" : "Rec 07-08-20",
                      "gain" : 1.0,
                      "mixToMono" : false
                    },
                      "channelNumber" : "0,1",
                    "parameters" : {
                      "volume" : 1.61807580174927
                    },
                    "effects" : [

                    ],
                    "start" : 3420,
                    "duration" : 137,
                    "mediaStart" : 5363,
                    "mediaDuration" : 137,
                    "scalar" : 1,
                    "metadata" : {
                      "clipSpeedAttribute" : false
                    },
                    "animationTracks" : {

                    }
                  },
                  {
                    "id" : 27,
                    "_type" : "AMFile",
                    "src" : 9,
                    "trackNumber" : 1,
                    "attributes" : {
                      "ident" : "Rec 07-14-20",
                      "gain" : 1.0,
                      "mixToMono" : false
                    },
                      "channelNumber" : "0,1",
                    "parameters" : {
                      "volume" : 1.61807580174925
                    },
                    "effects" : [

                    ],
                    "start" : 3561,
                    "duration" : 121,
                    "mediaStart" : 3758,
                    "mediaDuration" : 121,
                    "scalar" : 1,
                    "metadata" : {
                      "clipSpeedAttribute" : false
                    },
                    "animationTracks" : {

                    }
                  },
                  {
                    "id" : 28,
                    "_type" : "AMFile",
                    "src" : 9,
                    "trackNumber" : 1,
                    "attributes" : {
                      "ident" : "Rec 07-14-20",
                      "gain" : 1.0,
                      "mixToMono" : false
                    },
                      "channelNumber" : "0,1",
                    "parameters" : {
                      "volume" : 1.61807580174925
                    },
                    "effects" : [

                    ],
                    "start" : 3690,
                    "duration" : 129,
                    "mediaStart" : 3879,
                    "mediaDuration" : 129,
                    "scalar" : 1,
                    "metadata" : {
                      "clipSpeedAttribute" : false
                    },
                    "animationTracks" : {

                    }
                  }
                ]
              },
              {
                "trackIndex" : 1,
                "medias" : [
                  {
                    "id" : 29,
                    "_type" : "AMFile",
                    "src" : 5,
                    "trackNumber" : 1,
                    "attributes" : {
                      "ident" : "Rec 07-08-20",
                      "gain" : 1.0,
                      "mixToMono" : false
                    },
                      "channelNumber" : "0,1",
                    "parameters" : {
                      "volume" : 1.61807580174927
                    },
                    "effects" : [

                    ],
                    "start" : 162,
                    "duration" : 54,
                    "mediaStart" : 173,
                    "mediaDuration" : 54,
                    "scalar" : 1,
                    "metadata" : {
                      "clipSpeedAttribute" : false
                    },
                    "animationTracks" : {

                    }
                  },
                  {
                    "id" : 30,
                    "_type" : "AMFile",
                    "src" : 5,
                    "trackNumber" : 1,
                    "attributes" : {
                      "ident" : "Rec 07-08-20",
                      "gain" : 1.0,
                      "mixToMono" : false
                    },
                      "channelNumber" : "0,1",
                    "parameters" : {
                      "volume" : 1.61807580174927
                    },
                    "effects" : [

                    ],
                    "start" : 247,
                    "duration" : 41,
                    "mediaStart" : 258,
                    "mediaDuration" : 41,
                    "scalar" : 1,
                    "metadata" : {
                      "clipSpeedAttribute" : false
                    },
                    "animationTracks" : {

                    }
                  },
                  {
                    "id" : 31,
                    "_type" : "AMFile",
                    "src" : 5,
                    "trackNumber" : 1,
                    "attributes" : {
                      "ident" : "Rec 07-08-20",
                      "gain" : 1.0,
                      "mixToMono" : false
                    },
                      "channelNumber" : "0,1",
                    "parameters" : {
                      "volume" : 1.61807580174927
                    },
                    "effects" : [

                    ],
                    "start" : 368,
                    "duration" : 58,
                    "mediaStart" : 421,
                    "mediaDuration" : 58,
                    "scalar" : 1,
                    "metadata" : {
                      "clipSpeedAttribute" : false
                    },
                    "animationTracks" : {

                    }
                  },
                  {
                    "id" : 32,
                    "_type" : "AMFile",
                    "src" : 5,
                    "trackNumber" : 1,
                    "attributes" : {
                      "ident" : "Rec 07-08-20",
                      "gain" : 1.0,
                      "mixToMono" : false
                    },
                      "channelNumber" : "0,1",
                    "parameters" : {
                      "volume" : 1.61807580174927
                    },
                    "effects" : [

                    ],
                    "start" : 460,
                    "duration" : 114,
                    "mediaStart" : 479,
                    "mediaDuration" : 114,
                    "scalar" : 1,
                    "metadata" : {
                      "clipSpeedAttribute" : false
                    },
                    "animationTracks" : {

                    }
                  },
                  {
                    "id" : 33,
                    "_type" : "AMFile",
                    "src" : 5,
                    "trackNumber" : 1,
                    "attributes" : {
                      "ident" : "Rec 07-08-20",
                      "gain" : 1.0,
                      "mixToMono" : false
                    },
                      "channelNumber" : "0,1",
                    "parameters" : {
                      "volume" : 1.61807580174927
                    },
                    "effects" : [

                    ],
                    "start" : 574,
                    "duration" : 171,
                    "mediaStart" : 593,
                    "mediaDuration" : 171,
                    "scalar" : 1,
                    "metadata" : {
                      "clipSpeedAttribute" : false
                    },
                    "animationTracks" : {

                    }
                  },
                  {
                    "id" : 34,
                    "_type" : "AMFile",
                    "src" : 6,
                    "trackNumber" : 1,
                    "attributes" : {
                      "ident" : "Rec 07-08-20_001",
                      "gain" : 1.0,
                      "mixToMono" : false
                    },
                      "channelNumber" : "0,1",
                    "parameters" : {
                      "volume" : 1.96793002915454
                    },
                    "effects" : [

                    ],
                    "start" : 808,
                    "duration" : 80,
                    "mediaStart" : 167,
                    "mediaDuration" : 80,
                    "scalar" : 1,
                    "metadata" : {
                      "clipSpeedAttribute" : false
                    },
                    "animationTracks" : {

                    }
                  },
                  {
                    "id" : 35,
                    "_type" : "AMFile",
                    "src" : 5,
                    "trackNumber" : 1,
                    "attributes" : {
                      "ident" : "Rec 07-08-20",
                      "gain" : 1.0,
                      "mixToMono" : false
                    },
                      "channelNumber" : "0,1",
                    "parameters" : {
                      "volume" : 1.61807580174927
                    },
                    "effects" : [

                    ],
                    "start" : 906,
                    "duration" : 245,
                    "mediaStart" : 958,
                    "mediaDuration" : 245,
                    "scalar" : 1,
                    "metadata" : {
                      "clipSpeedAttribute" : false
                    },
                    "animationTracks" : {

                    }
                  },
                  {
                    "id" : 36,
                    "_type" : "AMFile",
                    "src" : 5,
                    "trackNumber" : 1,
                    "attributes" : {
                      "ident" : "Rec 07-08-20",
                      "gain" : 1.0,
                      "mixToMono" : false
                    },
                      "channelNumber" : "0,1",
                    "parameters" : {
                      "volume" : 1.61807580174927
                    },
                    "effects" : [

                    ],
                    "start" : 1169,
                    "duration" : 432,
                    "mediaStart" : 1869,
                    "mediaDuration" : 432,
                    "scalar" : 1,
                    "metadata" : {
                      "clipSpeedAttribute" : false
                    },
                    "animationTracks" : {

                    }
                  },
                  {
                    "id" : 37,
                    "_type" : "AMFile",
                    "src" : 5,
                    "trackNumber" : 1,
                    "attributes" : {
                      "ident" : "Rec 07-08-20",
                      "gain" : 1.0,
                      "mixToMono" : false
                    },
                      "channelNumber" : "0,1",
                    "parameters" : {
                      "volume" : 1.61807580174927
                    },
                    "effects" : [

                    ],
                    "start" : 1775,
                    "duration" : 102,
                    "mediaStart" : 2458,
                    "mediaDuration" : 102,
                    "scalar" : 1,
                    "metadata" : {
                      "clipSpeedAttribute" : false
                    },
                    "animationTracks" : {

                    }
                  },
                  {
                    "id" : 38,
                    "_type" : "AMFile",
                    "src" : 5,
                    "trackNumber" : 1,
                    "attributes" : {
                      "ident" : "Rec 07-08-20",
                      "gain" : 1.0,
                      "mixToMono" : false
                    },
                      "channelNumber" : "0,1",
                    "parameters" : {
                      "volume" : 1.61807580174927
                    },
                    "effects" : [

                    ],
                    "start" : 2007,
                    "duration" : 75,
                    "mediaStart" : 2658,
                    "mediaDuration" : 75,
                    "scalar" : 1,
                    "metadata" : {
                      "clipSpeedAttribute" : false
                    },
                    "animationTracks" : {

                    }
                  },
                  {
                    "id" : 39,
                    "_type" : "AMFile",
                    "src" : 5,
                    "trackNumber" : 1,
                    "attributes" : {
                      "ident" : "Rec 07-08-20",
                      "gain" : 1.0,
                      "mixToMono" : false
                    },
                      "channelNumber" : "0,1",
                    "parameters" : {
                      "volume" : 1.61807580174927
                    },
                    "effects" : [

                    ],
                    "start" : 2157,
                    "duration" : 107,
                    "mediaStart" : 2846,
                    "mediaDuration" : 107,
                    "scalar" : 1,
                    "metadata" : {
                      "clipSpeedAttribute" : false
                    },
                    "animationTracks" : {

                    }
                  },
                  {
                    "id" : 40,
                    "_type" : "AMFile",
                    "src" : 5,
                    "trackNumber" : 1,
                    "attributes" : {
                      "ident" : "Rec 07-08-20",
                      "gain" : 1.0,
                      "mixToMono" : false
                    },
                      "channelNumber" : "0,1",
                    "parameters" : {
                      "volume" : 1.61807580174927
                    },
                    "effects" : [

                    ],
                    "start" : 2278,
                    "duration" : 200,
                    "mediaStart" : 3765,
                    "mediaDuration" : 200,
                    "scalar" : 1,
                    "metadata" : {
                      "clipSpeedAttribute" : false
                    },
                    "animationTracks" : {

                    }
                  },
                  {
                    "id" : 41,
                    "_type" : "AMFile",
                    "src" : 5,
                    "trackNumber" : 1,
                    "attributes" : {
                      "ident" : "Rec 07-08-20",
                      "gain" : 1.0,
                      "mixToMono" : false
                    },
                      "channelNumber" : "0,1",
                    "parameters" : {
                      "volume" : 1.61807580174927
                    },
                    "effects" : [

                    ],
                    "start" : 2493,
                    "duration" : 83,
                    "mediaStart" : 4238,
                    "mediaDuration" : 83,
                    "scalar" : 1,
                    "metadata" : {
                      "clipSpeedAttribute" : false
                    },
                    "animationTracks" : {

                    }
                  },
                  {
                    "id" : 42,
                    "_type" : "AMFile",
                    "src" : 5,
                    "trackNumber" : 1,
                    "attributes" : {
                      "ident" : "Rec 07-08-20",
                      "gain" : 1.0,
                      "mixToMono" : false
                    },
                      "channelNumber" : "0,1",
                    "parameters" : {
                      "volume" : 1.61807580174927
                    },
                    "effects" : [

                    ],
                    "start" : 2607,
                    "duration" : 186,
                    "mediaStart" : 4479,
                    "mediaDuration" : 186,
                    "scalar" : 1,
                    "metadata" : {
                      "clipSpeedAttribute" : false
                    },
                    "animationTracks" : {

                    }
                  },
                  {
                    "id" : 43,
                    "_type" : "AMFile",
                    "src" : 5,
                    "trackNumber" : 1,
                    "attributes" : {
                      "ident" : "Rec 07-08-20",
                      "gain" : 1.0,
                      "mixToMono" : false
                    },
                      "channelNumber" : "0,1",
                    "parameters" : {
                      "volume" : 1.61807580174927
                    },
                    "effects" : [

                    ],
                    "start" : 2799,
                    "duration" : 121,
                    "mediaStart" : 4746,
                    "mediaDuration" : 121,
                    "scalar" : 1,
                    "metadata" : {
                      "clipSpeedAttribute" : false
                    },
                    "animationTracks" : {

                    }
                  },
                  {
                    "id" : 44,
                    "_type" : "AMFile",
                    "src" : 5,
                    "trackNumber" : 1,
                    "attributes" : {
                      "ident" : "Rec 07-08-20",
                      "gain" : 1.0,
                      "mixToMono" : false
                    },
                      "channelNumber" : "0,1",
                    "parameters" : {
                      "volume" : 1.61807580174927
                    },
                    "effects" : [

                    ],
                    "start" : 2931,
                    "duration" : 191,
                    "mediaStart" : 4948,
                    "mediaDuration" : 191,
                    "scalar" : 1,
                    "metadata" : {
                      "clipSpeedAttribute" : false
                    },
                    "animationTracks" : {

                    }
                  },
                  {
                    "id" : 45,
                    "_type" : "AMFile",
                    "src" : 5,
                    "trackNumber" : 1,
                    "attributes" : {
                      "ident" : "Rec 07-08-20",
                      "gain" : 1.0,
                      "mixToMono" : false
                    },
                      "channelNumber" : "0,1",
                    "parameters" : {
                      "volume" : 1.61807580174927
                    },
                    "effects" : [

                    ],
                    "start" : 3278,
                    "duration" : 134,
                    "mediaStart" : 5158,
                    "mediaDuration" : 134,
                    "scalar" : 1,
                    "metadata" : {
                      "clipSpeedAttribute" : false
                    },
                    "animationTracks" : {

                    }
                  },
                  {
                    "id" : 46,
                    "_type" : "AMFile",
                    "src" : 5,
                    "trackNumber" : 1,
                    "attributes" : {
                      "ident" : "Rec 07-08-20",
                      "gain" : 1.0,
                      "mixToMono" : false
                    },
                      "channelNumber" : "0,1",
                    "parameters" : {
                      "volume" : 1.61807580174927
                    },
                    "effects" : [

                    ],
                    "start" : 3412,
                    "duration" : 137,
                    "mediaStart" : 5363,
                    "mediaDuration" : 137,
                    "scalar" : 1,
                    "metadata" : {
                      "clipSpeedAttribute" : false
                    },
                    "animationTracks" : {

                    }
                  },
                  {
                    "id" : 47,
                    "_type" : "AMFile",
                    "src" : 5,
                    "trackNumber" : 1,
                    "attributes" : {
                      "ident" : "Rec 07-08-20",
                      "gain" : 1.0,
                      "mixToMono" : false
                    },
                      "channelNumber" : "0,1",
                    "parameters" : {
                      "volume" : 1.61807580174927
                    },
                    "effects" : [

                    ],
                    "start" : 3549,
                    "duration" : 137,
                    "mediaStart" : 5500,
                    "mediaDuration" : 137,
                    "scalar" : 1,
                    "metadata" : {
                      "clipSpeedAttribute" : false
                    },
                    "animationTracks" : {

                    }
                  },
                  {
                    "id" : 48,
                    "_type" : "AMFile",
                    "src" : 5,
                    "trackNumber" : 1,
                    "attributes" : {
                      "ident" : "Rec 07-08-20",
                      "gain" : 1.0,
                      "mixToMono" : false
                    },
                      "channelNumber" : "0,1",
                    "parameters" : {
                      "volume" : 1.61807580174927
                    },
                    "effects" : [

                    ],
                    "start" : 3686,
                    "duration" : 125,
                    "mediaStart" : 5637,
                    "mediaDuration" : 125,
                    "scalar" : 1,
                    "metadata" : {
                      "clipSpeedAttribute" : false
                    },
                    "animationTracks" : {

                    }
                  }
                ]
              },
              {
                "trackIndex" : 2,
                "medias" : [
                  {
                    "id" : 49,
                    "_type" : "Callout",
                    "def" : {
                      "kind" : "remix",
                      "shape" : "text",
                      "style" : "basic",
                      "height" : 346.0,
                      "line-spacing" : 0.0,
                      "width" : 2560.00000000007,
                      "word-wrap" : 1.0,
                      "horizontal-alignment" : "center",
                      "resize-behavior" : "resizeText",
                      "text" : "TOKEN HIJACKING ATTACK",
                      "vertical-alignment" : "center",
                      "font" : {
                        "color-blue" : 1.0,
                        "color-green" : 1.0,
                        "color-red" : 1.0,
                        "size" : 96.0,
                        "tracking" : 0.0,
                        "name" : "Montserrat",
                        "weight" : "Regular"
                      },
                      "textAttributes" : {
                        "type" : "textAttributeList",
                        "keyframes" : [
                          {
                            "endTime" : 0,
                            "time" : 0,
                            "value" : [{"name":"fgColor","rangeEnd":22,"rangeStart":0,"value":"(255,255,255,255)","valueType":"color"},{"name":"strikethrough","rangeEnd":22,"rangeStart":0,"value":0,"valueType":"int"},{"name":"kerning","rangeEnd":22,"rangeStart":0,"value":0,"valueType":"double"},{"name":"fontSize","rangeEnd":22,"rangeStart":0,"value":170,"valueType":"double"},{"name":"fontWeight","rangeEnd":22,"rangeStart":0,"value":400,"valueType":"int"},{"name":"fontItalic","rangeEnd":22,"rangeStart":0,"value":0,"valueType":"int"},{"name":"underline","rangeEnd":22,"rangeStart":0,"value":0,"valueType":"int"},{"name":"fontName","rangeEnd":22,"rangeStart":0,"value":"Rockwell","valueType":"string"}],
                            "duration" : 0
                          }
                        ]
                      }
                    },
                    "attributes" : {
                      "autoRotateText" : true
                    },
                    "parameters" : {
                      "translation0" : 2.44853026742931e-11,
                      "translation1" : 34.3482142855359
                    },
                    "effects" : [
                        {
                          "effectName" : "DropShadow",
                          "category" : "categoryVisualEffects",
                          "parameters" : {
                            "angle" : 5.49778714378214,
                            "blur" : 10.0,
                            "color-alpha" : 1.0,
                            "color-blue" : 0.1216,
                            "color-green" : 0.1216,
                            "color-red" : 0.1216,
                            "enabled" : 1,
                            "offset" : 10.0,
                            "opacity" : 0.4
                          }
                        }
                    ],
                    "start" : 0,
                    "duration" : 150,
                    "mediaStart" : 0,
                    "mediaDuration" : 150,
                    "scalar" : 1,
                    "metadata" : {
                      "WinSubProjectDisplayName" : "",
                      "clipSpeedAttribute" : false,
                      "default-HAlign" : "center",
                      "default-LineSpace" : 0.0,
                      "default-VAlign" : "center",
                      "default-text-attributes" : "[{\"name\":\"underline\",\"rangeEnd\":16,\"rangeStart\":0,\"value\":0,\"valueType\":\"int\"},{\"name\":\"strikethrough\",\"rangeEnd\":16,\"rangeStart\":0,\"value\":0,\"valueType\":\"int\"},{\"name\":\"fontWeight\",\"rangeEnd\":16,\"rangeStart\":0,\"value\":400,\"valueType\":\"int\"},{\"name\":\"fontSize\",\"rangeEnd\":16,\"rangeStart\":0,\"value\":96,\"valueType\":\"double\"},{\"name\":\"fontName\",\"rangeEnd\":16,\"rangeStart\":0,\"value\":\"Montserrat\",\"valueType\":\"string\"},{\"name\":\"fgColor\",\"rangeEnd\":16,\"rangeStart\":0,\"value\":\"(255,255,255,255)\",\"valueType\":\"color\"},{\"name\":\"fontItalic\",\"rangeEnd\":16,\"rangeStart\":0,\"value\":0,\"valueType\":\"int\"}]",
                      "default-translation0" : 0.0,
                      "default-translation1" : 0.0
                    },
                    "animationTracks" : {

                    }
                  },
                  {
                    "id" : 50,
                    "_type" : "ScreenVMFile",
                    "src" : 1,
                    "trackNumber" : 0,
                    "attributes" : {
                      "ident" : "token_hijacking_attack"
                    },
                    "parameters" : {
                      "cursorScale" : {
                        "type" : "double",
                        "defaultValue" : 1.0,
                        "interp" : "linr"
                      },
                      "cursorOpacity" : {
                        "type" : "double",
                        "defaultValue" : 1.0,
                        "interp" : "linr"
                      }
                    },
                    "effects" : [
                        {
                          "effectName" : "CursorHilight",
                          "category" : "categoryCursorEffects",
                          "parameters" : {
                            "blur" : 0.1,
                            "color-alpha" : 0.75,
                            "color-blue" : 0.0,
                            "color-green" : 1.0,
                            "color-red" : 1.0,
                            "radius" : 50.0
                          }
                        }
                    ],
                    "start" : 150,
                    "duration" : 45,
                    "mediaStart" : 100,
                    "mediaDuration" : 45,
                    "scalar" : 1,
                    "metadata" : {
                      "AutoAppliedSmartFocus" : "False",
                      "clipSpeedAttribute" : false
                    },
                    "animationTracks" : {

                    }
                  },
                  {
                    "id" : 51,
                    "_type" : "StitchedMedia",
                    "minMediaStart" : 0,
                    "attributes" : {
                      "ident" : "token_hijacking_attack",
                      "gain" : 1.0,
                      "mixToMono" : false
                    },
                    "parameters" : {
                      "translation0" : {
                        "type" : "double",
                        "defaultValue" : 0.0,
                        "keyframes" : [
                          {
                            "endTime" : 237,
                            "time" : 207,
                            "value" : 6437.05178264923,
                            "duration" : 30
                          },
                          {
                            "endTime" : 343,
                            "time" : 313,
                            "value" : -4.54747350886464e-13,
                            "duration" : 30
                          }
                        ]
                      },
                      "translation1" : {
                        "type" : "double",
                        "defaultValue" : 0.0,
                        "keyframes" : [
                          {
                            "endTime" : 237,
                            "time" : 207,
                            "value" : -2825.0524936412,
                            "duration" : 30
                          },
                          {
                            "endTime" : 343,
                            "time" : 313,
                            "value" : 5.6843418860808e-14,
                            "duration" : 30
                          }
                        ]
                      },
                      "scale0" : {
                        "type" : "double",
                        "defaultValue" : 1.0,
                        "keyframes" : [
                          {
                            "endTime" : 237,
                            "time" : 207,
                            "value" : 6.52631522480847,
                            "duration" : 30
                          },
                          {
                            "endTime" : 343,
                            "time" : 313,
                            "value" : 0.999999999999999,
                            "duration" : 30
                          }
                        ]
                      },
                      "scale1" : {
                        "type" : "double",
                        "defaultValue" : 1.0,
                        "keyframes" : [
                          {
                            "endTime" : 237,
                            "time" : 207,
                            "value" : 6.52631500328686,
                            "duration" : 30
                          },
                          {
                            "endTime" : 343,
                            "time" : 313,
                            "value" : 0.999999966057169,
                            "duration" : 30
                          }
                        ]
                      },
                      "cursorOpacity" : 1.0,
                      "cursorScale" : 1.0
                    },
                    "medias" : [
                        {
                          "id" : 52,
                          "_type" : "ScreenVMFile",
                          "src" : 1,
                          "trackNumber" : 0,
                          "attributes" : {
                            "ident" : "token_hijacking_attack"
                          },
                          "parameters" : {
                            "cursorScale" : {
                              "type" : "double",
                              "defaultValue" : 0.0,
                              "interp" : "linr"
                            },
                            "cursorOpacity" : {
                              "type" : "double",
                              "defaultValue" : 0.0,
                              "interp" : "linr"
                            }
                          },
                          "effects" : [

                          ],
                          "start" : 0,
                          "duration" : 208,
                          "mediaStart" : 0,
                          "mediaDuration" : 208,
                          "scalar" : 1,
                          "metadata" : {
                            "AutoAppliedSmartFocus" : "False",
                            "clipSpeedAttribute" : false
                          },
                          "animationTracks" : {

                          }
                        },
                        {
                          "id" : 53,
                          "_type" : "ScreenIMFile",
                          "src" : 1,
                          "trackNumber" : 0,
                          "trimStartSum" : 0,
                          "attributes" : {
                            "ident" : "token_hijacking_attack"
                          },
                          "parameters" : {
                            "cursorOpacity" : 0.0,
                            "cursorScale" : 0.0
                          },
                          "effects" : [

                          ],
                          "start" : 208,
                          "duration" : 90,
                          "mediaStart" : 207,
                          "mediaDuration" : 1,
                          "scalar" : 1,
                          "metadata" : {
                            "AutoAppliedSmartFocus" : "False"
                          },
                          "animationTracks" : {

                          }
                        },
                        {
                          "id" : 54,
                          "_type" : "ScreenVMFile",
                          "src" : 1,
                          "trackNumber" : 0,
                          "attributes" : {
                            "ident" : "token_hijacking_attack"
                          },
                          "parameters" : {
                            "cursorScale" : {
                              "type" : "double",
                              "defaultValue" : 0.0,
                              "interp" : "linr"
                            },
                            "cursorOpacity" : {
                              "type" : "double",
                              "defaultValue" : 0.0,
                              "interp" : "linr"
                            }
                          },
                          "effects" : [

                          ],
                          "start" : 298,
                          "duration" : 1575231,
                          "mediaStart" : 208,
                          "mediaDuration" : 1575231,
                          "scalar" : 1,
                          "metadata" : {
                            "AutoAppliedSmartFocus" : "False",
                            "clipSpeedAttribute" : false
                          },
                          "animationTracks" : {

                          }
                        }
                    ],
                    "effects" : [
                        {
                          "effectName" : "CursorHilight",
                          "category" : "categoryCursorEffects",
                          "parameters" : {
                            "blur" : 0.1,
                            "color-alpha" : 0.75,
                            "color-blue" : 0.0,
                            "color-green" : 1.0,
                            "color-red" : 1.0,
                            "radius" : 50.0
                          }
                        }
                    ],
                    "start" : 195,
                    "duration" : 175,
                    "mediaStart" : 170,
                    "mediaDuration" : 175,
                    "scalar" : 1,
                    "metadata" : {
                      "AutoAppliedSmartFocus" : "False",
                      "clipSpeedAttribute" : false,
                      "default-scale0" : 1.0,
                      "default-scale1" : 1.0,
                      "default-translation0" : 0.0,
                      "default-translation1" : 0.0
                    },
                    "animationTracks" : {
                      "visual" : [
                        {
                          "endTime" : 237,
                          "duration" : 30,
                          "range" : [ 207, 30]
                        },
                        {
                          "endTime" : 343,
                          "duration" : 30,
                          "range" : [ 313, 30]
                        }
                      ]
                    }
                  },
                  {
                    "id" : 55,
                    "_type" : "StitchedMedia",
                    "minMediaStart" : 0,
                    "attributes" : {
                      "ident" : "token_hijacking_attack",
                      "gain" : 1.0,
                      "mixToMono" : false
                    },
                    "parameters" : {
                      "translation0" : {
                        "type" : "double",
                        "defaultValue" : 0.0,
                        "keyframes" : [
                          {
                            "endTime" : 237,
                            "time" : 207,
                            "value" : 6437.05178264923,
                            "duration" : 30
                          },
                          {
                            "endTime" : 343,
                            "time" : 313,
                            "value" : -4.54747350886464e-13,
                            "duration" : 30
                          },
                          {
                            "endTime" : 466,
                            "time" : 436,
                            "value" : 2471.77226095314,
                            "duration" : 30
                          },
                          {
                            "endTime" : 619,
                            "time" : 589,
                            "value" : -1.13686837721616e-13,
                            "duration" : 30
                          },
                          {
                            "endTime" : 721,
                            "time" : 691,
                            "value" : 1777.12723840605,
                            "duration" : 30
                          },
                          {
                            "endTime" : 755,
                            "time" : 725,
                            "value" : -1.13686837721616e-13,
                            "duration" : 30
                          },
                          {
                            "endTime" : 784,
                            "time" : 755,
                            "value" : 946.879645880833,
                            "duration" : 29
                          }
                        ]
                      },
                      "translation1" : {
                        "type" : "double",
                        "defaultValue" : 0.0,
                        "keyframes" : [
                          {
                            "endTime" : 237,
                            "time" : 207,
                            "value" : -2825.0524936412,
                            "duration" : 30
                          },
                          {
                            "endTime" : 343,
                            "time" : 313,
                            "value" : 5.6843418860808e-14,
                            "duration" : 30
                          },
                          {
                            "endTime" : 466,
                            "time" : 436,
                            "value" : -1235.61824899191,
                            "duration" : 30
                          },
                          {
                            "endTime" : 619,
                            "time" : 589,
                            "value" : 1.13686837721616e-13,
                            "duration" : 30
                          },
                          {
                            "endTime" : 721,
                            "time" : 691,
                            "value" : -129.822625517978,
                            "duration" : 30
                          },
                          {
                            "endTime" : 755,
                            "time" : 725,
                            "value" : -2.1316282072803e-14,
                            "duration" : 30
                          },
                          {
                            "endTime" : 784,
                            "time" : 755,
                            "value" : -532.620057822569,
                            "duration" : 29
                          }
                        ]
                      },
                      "scale0" : {
                        "type" : "double",
                        "defaultValue" : 1.0,
                        "keyframes" : [
                          {
                            "endTime" : 237,
                            "time" : 207,
                            "value" : 6.52631522480847,
                            "duration" : 30
                          },
                          {
                            "endTime" : 343,
                            "time" : 313,
                            "value" : 0.999999999999999,
                            "duration" : 30
                          },
                          {
                            "endTime" : 466,
                            "time" : 436,
                            "value" : 3.172876137306,
                            "duration" : 30
                          },
                          {
                            "endTime" : 619,
                            "time" : 589,
                            "value" : 0.99999964401807,
                            "duration" : 30
                          },
                          {
                            "endTime" : 721,
                            "time" : 691,
                            "value" : 2.83915303535992,
                            "duration" : 30
                          },
                          {
                            "endTime" : 755,
                            "time" : 725,
                            "value" : 0.999999512129719,
                            "duration" : 30
                          },
                          {
                            "endTime" : 784,
                            "time" : 755,
                            "value" : 1.90952759462014,
                            "duration" : 29
                          }
                        ]
                      },
                      "scale1" : {
                        "type" : "double",
                        "defaultValue" : 1.0,
                        "keyframes" : [
                          {
                            "endTime" : 237,
                            "time" : 207,
                            "value" : 6.52631500328686,
                            "duration" : 30
                          },
                          {
                            "endTime" : 343,
                            "time" : 313,
                            "value" : 0.999999966057169,
                            "duration" : 30
                          },
                          {
                            "endTime" : 466,
                            "time" : 436,
                            "value" : 3.17287726679297,
                            "duration" : 30
                          },
                          {
                            "endTime" : 619,
                            "time" : 589,
                            "value" : 1.0,
                            "duration" : 30
                          },
                          {
                            "endTime" : 721,
                            "time" : 691,
                            "value" : 2.83915442049899,
                            "duration" : 30
                          },
                          {
                            "endTime" : 755,
                            "time" : 725,
                            "value" : 1.0,
                            "duration" : 30
                          },
                          {
                            "endTime" : 784,
                            "time" : 755,
                            "value" : 1.9095287965103,
                            "duration" : 29
                          }
                        ]
                      },
                      "cursorOpacity" : 1.0,
                      "cursorScale" : 1.0
                    },
                    "medias" : [
                        {
                          "id" : 56,
                          "_type" : "ScreenVMFile",
                          "src" : 1,
                          "trackNumber" : 0,
                          "attributes" : {
                            "ident" : "token_hijacking_attack"
                          },
                          "parameters" : {
                            "cursorScale" : {
                              "type" : "double",
                              "defaultValue" : 0.0,
                              "interp" : "linr"
                            },
                            "cursorOpacity" : {
                              "type" : "double",
                              "defaultValue" : 0.0,
                              "interp" : "linr"
                            }
                          },
                          "effects" : [

                          ],
                          "start" : 0,
                          "duration" : 208,
                          "mediaStart" : 0,
                          "mediaDuration" : 208,
                          "scalar" : 1,
                          "metadata" : {
                            "AutoAppliedSmartFocus" : "False",
                            "clipSpeedAttribute" : false
                          },
                          "animationTracks" : {

                          }
                        },
                        {
                          "id" : 57,
                          "_type" : "ScreenIMFile",
                          "src" : 1,
                          "trackNumber" : 0,
                          "trimStartSum" : 0,
                          "attributes" : {
                            "ident" : "token_hijacking_attack"
                          },
                          "parameters" : {
                            "cursorOpacity" : 0.0,
                            "cursorScale" : 0.0
                          },
                          "effects" : [

                          ],
                          "start" : 208,
                          "duration" : 90,
                          "mediaStart" : 207,
                          "mediaDuration" : 1,
                          "scalar" : 1,
                          "metadata" : {
                            "AutoAppliedSmartFocus" : "False"
                          },
                          "animationTracks" : {

                          }
                        },
                        {
                          "id" : 58,
                          "_type" : "ScreenVMFile",
                          "src" : 1,
                          "trackNumber" : 0,
                          "attributes" : {
                            "ident" : "token_hijacking_attack"
                          },
                          "parameters" : {
                            "cursorScale" : {
                              "type" : "double",
                              "defaultValue" : 0.0,
                              "interp" : "linr"
                            },
                            "cursorOpacity" : {
                              "type" : "double",
                              "defaultValue" : 0.0,
                              "interp" : "linr"
                            }
                          },
                          "effects" : [

                          ],
                          "start" : 298,
                          "duration" : 140,
                          "mediaStart" : 208,
                          "mediaDuration" : 140,
                          "scalar" : 1,
                          "metadata" : {
                            "AutoAppliedSmartFocus" : "False",
                            "clipSpeedAttribute" : false
                          },
                          "animationTracks" : {

                          }
                        },
                        {
                          "id" : 59,
                          "_type" : "ScreenIMFile",
                          "src" : 1,
                          "trackNumber" : 0,
                          "trimStartSum" : 0,
                          "attributes" : {
                            "ident" : "token_hijacking_attack"
                          },
                          "parameters" : {
                            "cursorOpacity" : 0.0,
                            "cursorScale" : 0.0
                          },
                          "effects" : [

                          ],
                          "start" : 438,
                          "duration" : 30,
                          "mediaStart" : 348,
                          "mediaDuration" : 1,
                          "scalar" : 1,
                          "metadata" : {
                            "AutoAppliedSmartFocus" : "False"
                          },
                          "animationTracks" : {

                          }
                        },
                        {
                          "id" : 60,
                          "_type" : "ScreenVMFile",
                          "src" : 1,
                          "trackNumber" : 0,
                          "attributes" : {
                            "ident" : "token_hijacking_attack"
                          },
                          "parameters" : {
                            "cursorScale" : {
                              "type" : "double",
                              "defaultValue" : 0.0,
                              "interp" : "linr"
                            },
                            "cursorOpacity" : {
                              "type" : "double",
                              "defaultValue" : 0.0,
                              "interp" : "linr"
                            }
                          },
                          "effects" : [

                          ],
                          "start" : 468,
                          "duration" : 105,
                          "mediaStart" : 348,
                          "mediaDuration" : 105,
                          "scalar" : 1,
                          "metadata" : {
                            "AutoAppliedSmartFocus" : "False",
                            "clipSpeedAttribute" : false
                          },
                          "animationTracks" : {

                          }
                        },
                        {
                          "id" : 61,
                          "_type" : "ScreenIMFile",
                          "src" : 1,
                          "trackNumber" : 0,
                          "trimStartSum" : 0,
                          "attributes" : {
                            "ident" : "token_hijacking_attack"
                          },
                          "parameters" : {
                            "cursorOpacity" : 0.0,
                            "cursorScale" : 0.0
                          },
                          "effects" : [

                          ],
                          "start" : 573,
                          "duration" : 30,
                          "mediaStart" : 453,
                          "mediaDuration" : 1,
                          "scalar" : 1,
                          "metadata" : {
                            "AutoAppliedSmartFocus" : "False"
                          },
                          "animationTracks" : {

                          }
                        },
                        {
                          "id" : 62,
                          "_type" : "ScreenVMFile",
                          "src" : 1,
                          "trackNumber" : 0,
                          "attributes" : {
                            "ident" : "token_hijacking_attack"
                          },
                          "parameters" : {
                            "cursorScale" : {
                              "type" : "double",
                              "defaultValue" : 0.0,
                              "interp" : "linr"
                            },
                            "cursorOpacity" : {
                              "type" : "double",
                              "defaultValue" : 0.0,
                              "interp" : "linr"
                            }
                          },
                          "effects" : [

                          ],
                          "start" : 603,
                          "duration" : 1574986,
                          "mediaStart" : 453,
                          "mediaDuration" : 1574986,
                          "scalar" : 1,
                          "metadata" : {
                            "AutoAppliedSmartFocus" : "False",
                            "clipSpeedAttribute" : false
                          },
                          "animationTracks" : {

                          }
                        }
                    ],
                    "effects" : [
                        {
                          "effectName" : "CursorHilight",
                          "category" : "categoryCursorEffects",
                          "parameters" : {
                            "blur" : 0.1,
                            "color-alpha" : 0.75,
                            "color-blue" : 0.0,
                            "color-green" : 1.0,
                            "color-red" : 1.0,
                            "radius" : 50.0
                          }
                        }
                    ],
                    "start" : 370,
                    "duration" : 245,
                    "mediaStart" : 376,
                    "mediaDuration" : 245,
                    "scalar" : 1,
                    "metadata" : {
                      "AutoAppliedSmartFocus" : "False",
                      "clipSpeedAttribute" : false
                    },
                    "animationTracks" : {
                      "visual" : [
                        {
                          "endTime" : 237,
                          "duration" : 30,
                          "range" : [ 207, 30]
                        },
                        {
                          "endTime" : 343,
                          "duration" : 30,
                          "range" : [ 313, 30]
                        },
                        {
                          "endTime" : 466,
                          "duration" : 30,
                          "range" : [ 436, 30]
                        },
                        {
                          "endTime" : 619,
                          "duration" : 30,
                          "range" : [ 589, 30]
                        },
                        {
                          "endTime" : 721,
                          "duration" : 30,
                          "range" : [ 691, 30]
                        },
                        {
                          "endTime" : 755,
                          "duration" : 30,
                          "range" : [ 725, 30]
                        },
                        {
                          "endTime" : 784,
                          "duration" : 29,
                          "range" : [ 755, 29]
                        }
                      ]
                    }
                  },
                  {
                    "id" : 63,
                    "_type" : "StitchedMedia",
                    "minMediaStart" : 0,
                    "attributes" : {
                      "ident" : "token_hijacking_attack",
                      "gain" : 1.0,
                      "mixToMono" : false
                    },
                    "parameters" : {
                      "translation0" : {
                        "type" : "double",
                        "defaultValue" : 0.0,
                        "keyframes" : [
                          {
                            "endTime" : 237,
                            "time" : 207,
                            "value" : 6437.05178264923,
                            "duration" : 30
                          },
                          {
                            "endTime" : 343,
                            "time" : 313,
                            "value" : -4.54747350886464e-13,
                            "duration" : 30
                          },
                          {
                            "endTime" : 466,
                            "time" : 436,
                            "value" : 2471.77226095314,
                            "duration" : 30
                          },
                          {
                            "endTime" : 619,
                            "time" : 589,
                            "value" : -1.13686837721616e-13,
                            "duration" : 30
                          },
                          {
                            "endTime" : 721,
                            "time" : 691,
                            "value" : 1777.12723840605,
                            "duration" : 30
                          },
                          {
                            "endTime" : 755,
                            "time" : 725,
                            "value" : -1.13686837721616e-13,
                            "duration" : 30
                          },
                          {
                            "endTime" : 784,
                            "time" : 755,
                            "value" : 946.879645880833,
                            "duration" : 29
                          }
                        ]
                      },
                      "translation1" : {
                        "type" : "double",
                        "defaultValue" : 0.0,
                        "keyframes" : [
                          {
                            "endTime" : 237,
                            "time" : 207,
                            "value" : -2825.0524936412,
                            "duration" : 30
                          },
                          {
                            "endTime" : 343,
                            "time" : 313,
                            "value" : 5.6843418860808e-14,
                            "duration" : 30
                          },
                          {
                            "endTime" : 466,
                            "time" : 436,
                            "value" : -1235.61824899191,
                            "duration" : 30
                          },
                          {
                            "endTime" : 619,
                            "time" : 589,
                            "value" : 1.13686837721616e-13,
                            "duration" : 30
                          },
                          {
                            "endTime" : 721,
                            "time" : 691,
                            "value" : -129.822625517978,
                            "duration" : 30
                          },
                          {
                            "endTime" : 755,
                            "time" : 725,
                            "value" : -2.1316282072803e-14,
                            "duration" : 30
                          },
                          {
                            "endTime" : 784,
                            "time" : 755,
                            "value" : -532.620057822569,
                            "duration" : 29
                          }
                        ]
                      },
                      "scale0" : {
                        "type" : "double",
                        "defaultValue" : 1.0,
                        "keyframes" : [
                          {
                            "endTime" : 237,
                            "time" : 207,
                            "value" : 6.52631522480847,
                            "duration" : 30
                          },
                          {
                            "endTime" : 343,
                            "time" : 313,
                            "value" : 0.999999999999999,
                            "duration" : 30
                          },
                          {
                            "endTime" : 466,
                            "time" : 436,
                            "value" : 3.172876137306,
                            "duration" : 30
                          },
                          {
                            "endTime" : 619,
                            "time" : 589,
                            "value" : 0.99999964401807,
                            "duration" : 30
                          },
                          {
                            "endTime" : 721,
                            "time" : 691,
                            "value" : 2.83915303535992,
                            "duration" : 30
                          },
                          {
                            "endTime" : 755,
                            "time" : 725,
                            "value" : 0.999999512129719,
                            "duration" : 30
                          },
                          {
                            "endTime" : 784,
                            "time" : 755,
                            "value" : 1.90952759462014,
                            "duration" : 29
                          }
                        ]
                      },
                      "scale1" : {
                        "type" : "double",
                        "defaultValue" : 1.0,
                        "keyframes" : [
                          {
                            "endTime" : 237,
                            "time" : 207,
                            "value" : 6.52631500328686,
                            "duration" : 30
                          },
                          {
                            "endTime" : 343,
                            "time" : 313,
                            "value" : 0.999999966057169,
                            "duration" : 30
                          },
                          {
                            "endTime" : 466,
                            "time" : 436,
                            "value" : 3.17287726679297,
                            "duration" : 30
                          },
                          {
                            "endTime" : 619,
                            "time" : 589,
                            "value" : 1.0,
                            "duration" : 30
                          },
                          {
                            "endTime" : 721,
                            "time" : 691,
                            "value" : 2.83915442049899,
                            "duration" : 30
                          },
                          {
                            "endTime" : 755,
                            "time" : 725,
                            "value" : 1.0,
                            "duration" : 30
                          },
                          {
                            "endTime" : 784,
                            "time" : 755,
                            "value" : 1.9095287965103,
                            "duration" : 29
                          }
                        ]
                      },
                      "cursorOpacity" : 1.0,
                      "cursorScale" : 1.0
                    },
                    "medias" : [
                        {
                          "id" : 64,
                          "_type" : "ScreenVMFile",
                          "src" : 1,
                          "trackNumber" : 0,
                          "attributes" : {
                            "ident" : "token_hijacking_attack"
                          },
                          "parameters" : {
                            "cursorScale" : {
                              "type" : "double",
                              "defaultValue" : 0.0,
                              "interp" : "linr"
                            },
                            "cursorOpacity" : {
                              "type" : "double",
                              "defaultValue" : 0.0,
                              "interp" : "linr"
                            }
                          },
                          "effects" : [

                          ],
                          "start" : 0,
                          "duration" : 208,
                          "mediaStart" : 0,
                          "mediaDuration" : 208,
                          "scalar" : 1,
                          "metadata" : {
                            "AutoAppliedSmartFocus" : "False",
                            "clipSpeedAttribute" : false
                          },
                          "animationTracks" : {

                          }
                        },
                        {
                          "id" : 65,
                          "_type" : "ScreenIMFile",
                          "src" : 1,
                          "trackNumber" : 0,
                          "trimStartSum" : 0,
                          "attributes" : {
                            "ident" : "token_hijacking_attack"
                          },
                          "parameters" : {
                            "cursorOpacity" : 0.0,
                            "cursorScale" : 0.0
                          },
                          "effects" : [

                          ],
                          "start" : 208,
                          "duration" : 90,
                          "mediaStart" : 207,
                          "mediaDuration" : 1,
                          "scalar" : 1,
                          "metadata" : {
                            "AutoAppliedSmartFocus" : "False"
                          },
                          "animationTracks" : {

                          }
                        },
                        {
                          "id" : 66,
                          "_type" : "ScreenVMFile",
                          "src" : 1,
                          "trackNumber" : 0,
                          "attributes" : {
                            "ident" : "token_hijacking_attack"
                          },
                          "parameters" : {
                            "cursorScale" : {
                              "type" : "double",
                              "defaultValue" : 0.0,
                              "interp" : "linr"
                            },
                            "cursorOpacity" : {
                              "type" : "double",
                              "defaultValue" : 0.0,
                              "interp" : "linr"
                            }
                          },
                          "effects" : [

                          ],
                          "start" : 298,
                          "duration" : 140,
                          "mediaStart" : 208,
                          "mediaDuration" : 140,
                          "scalar" : 1,
                          "metadata" : {
                            "AutoAppliedSmartFocus" : "False",
                            "clipSpeedAttribute" : false
                          },
                          "animationTracks" : {

                          }
                        },
                        {
                          "id" : 67,
                          "_type" : "ScreenIMFile",
                          "src" : 1,
                          "trackNumber" : 0,
                          "trimStartSum" : 0,
                          "attributes" : {
                            "ident" : "token_hijacking_attack"
                          },
                          "parameters" : {
                            "cursorOpacity" : 0.0,
                            "cursorScale" : 0.0
                          },
                          "effects" : [

                          ],
                          "start" : 438,
                          "duration" : 30,
                          "mediaStart" : 348,
                          "mediaDuration" : 1,
                          "scalar" : 1,
                          "metadata" : {
                            "AutoAppliedSmartFocus" : "False"
                          },
                          "animationTracks" : {

                          }
                        },
                        {
                          "id" : 68,
                          "_type" : "ScreenVMFile",
                          "src" : 1,
                          "trackNumber" : 0,
                          "attributes" : {
                            "ident" : "token_hijacking_attack"
                          },
                          "parameters" : {
                            "cursorScale" : {
                              "type" : "double",
                              "defaultValue" : 0.0,
                              "interp" : "linr"
                            },
                            "cursorOpacity" : {
                              "type" : "double",
                              "defaultValue" : 0.0,
                              "interp" : "linr"
                            }
                          },
                          "effects" : [

                          ],
                          "start" : 468,
                          "duration" : 105,
                          "mediaStart" : 348,
                          "mediaDuration" : 105,
                          "scalar" : 1,
                          "metadata" : {
                            "AutoAppliedSmartFocus" : "False",
                            "clipSpeedAttribute" : false
                          },
                          "animationTracks" : {

                          }
                        },
                        {
                          "id" : 69,
                          "_type" : "ScreenIMFile",
                          "src" : 1,
                          "trackNumber" : 0,
                          "trimStartSum" : 0,
                          "attributes" : {
                            "ident" : "token_hijacking_attack"
                          },
                          "parameters" : {
                            "cursorOpacity" : 0.0,
                            "cursorScale" : 0.0
                          },
                          "effects" : [

                          ],
                          "start" : 573,
                          "duration" : 30,
                          "mediaStart" : 453,
                          "mediaDuration" : 1,
                          "scalar" : 1,
                          "metadata" : {
                            "AutoAppliedSmartFocus" : "False"
                          },
                          "animationTracks" : {

                          }
                        },
                        {
                          "id" : 70,
                          "_type" : "ScreenVMFile",
                          "src" : 1,
                          "trackNumber" : 0,
                          "attributes" : {
                            "ident" : "token_hijacking_attack"
                          },
                          "parameters" : {
                            "cursorScale" : {
                              "type" : "double",
                              "defaultValue" : 0.0,
                              "interp" : "linr"
                            },
                            "cursorOpacity" : {
                              "type" : "double",
                              "defaultValue" : 0.0,
                              "interp" : "linr"
                            }
                          },
                          "effects" : [

                          ],
                          "start" : 603,
                          "duration" : 1574986,
                          "mediaStart" : 453,
                          "mediaDuration" : 1574986,
                          "scalar" : 1,
                          "metadata" : {
                            "AutoAppliedSmartFocus" : "False",
                            "clipSpeedAttribute" : false
                          },
                          "animationTracks" : {

                          }
                        }
                    ],
                    "effects" : [
                        {
                          "effectName" : "CursorHilight",
                          "category" : "categoryCursorEffects",
                          "parameters" : {
                            "blur" : 0.1,
                            "color-alpha" : 0.75,
                            "color-blue" : 0.0,
                            "color-green" : 1.0,
                            "color-red" : 1.0,
                            "radius" : 50.0
                          }
                        }
                    ],
                    "start" : 615,
                    "duration" : 50,
                    "mediaStart" : 621,
                    "mediaDuration" : 50,
                    "scalar" : 1,
                    "metadata" : {
                      "AutoAppliedSmartFocus" : "False",
                      "clipSpeedAttribute" : true
                    },
                    "animationTracks" : {
                      "visual" : [
                        {
                          "endTime" : 237,
                          "duration" : 30,
                          "range" : [ 207, 30]
                        },
                        {
                          "endTime" : 343,
                          "duration" : 30,
                          "range" : [ 313, 30]
                        },
                        {
                          "endTime" : 466,
                          "duration" : 30,
                          "range" : [ 436, 30]
                        },
                        {
                          "endTime" : 619,
                          "duration" : 30,
                          "range" : [ 589, 30]
                        },
                        {
                          "endTime" : 721,
                          "duration" : 30,
                          "range" : [ 691, 30]
                        },
                        {
                          "endTime" : 755,
                          "duration" : 30,
                          "range" : [ 725, 30]
                        },
                        {
                          "endTime" : 784,
                          "duration" : 29,
                          "range" : [ 755, 29]
                        }
                      ]
                    }
                  },
                  {
                    "id" : 71,
                    "_type" : "StitchedMedia",
                    "minMediaStart" : 0,
                    "attributes" : {
                      "ident" : "token_hijacking_attack",
                      "gain" : 1.0,
                      "mixToMono" : false
                    },
                    "parameters" : {
                      "translation0" : {
                        "type" : "double",
                        "defaultValue" : 0.0,
                        "keyframes" : [
                          {
                            "endTime" : 237,
                            "time" : 207,
                            "value" : 6437.05178264923,
                            "duration" : 30
                          },
                          {
                            "endTime" : 343,
                            "time" : 313,
                            "value" : -4.54747350886464e-13,
                            "duration" : 30
                          },
                          {
                            "endTime" : 466,
                            "time" : 436,
                            "value" : 2471.77226095314,
                            "duration" : 30
                          },
                          {
                            "endTime" : 619,
                            "time" : 589,
                            "value" : -1.13686837721616e-13,
                            "duration" : 30
                          },
                          {
                            "endTime" : 721,
                            "time" : 691,
                            "value" : 1777.12723840605,
                            "duration" : 30
                          },
                          {
                            "endTime" : 755,
                            "time" : 725,
                            "value" : -1.13686837721616e-13,
                            "duration" : 30
                          },
                          {
                            "endTime" : 784,
                            "time" : 755,
                            "value" : 946.879645880833,
                            "duration" : 29
                          }
                        ]
                      },
                      "translation1" : {
                        "type" : "double",
                        "defaultValue" : 0.0,
                        "keyframes" : [
                          {
                            "endTime" : 237,
                            "time" : 207,
                            "value" : -2825.0524936412,
                            "duration" : 30
                          },
                          {
                            "endTime" : 343,
                            "time" : 313,
                            "value" : 5.6843418860808e-14,
                            "duration" : 30
                          },
                          {
                            "endTime" : 466,
                            "time" : 436,
                            "value" : -1235.61824899191,
                            "duration" : 30
                          },
                          {
                            "endTime" : 619,
                            "time" : 589,
                            "value" : 1.13686837721616e-13,
                            "duration" : 30
                          },
                          {
                            "endTime" : 721,
                            "time" : 691,
                            "value" : -129.822625517978,
                            "duration" : 30
                          },
                          {
                            "endTime" : 755,
                            "time" : 725,
                            "value" : -2.1316282072803e-14,
                            "duration" : 30
                          },
                          {
                            "endTime" : 784,
                            "time" : 755,
                            "value" : -532.620057822569,
                            "duration" : 29
                          }
                        ]
                      },
                      "scale0" : {
                        "type" : "double",
                        "defaultValue" : 1.0,
                        "keyframes" : [
                          {
                            "endTime" : 237,
                            "time" : 207,
                            "value" : 6.52631522480847,
                            "duration" : 30
                          },
                          {
                            "endTime" : 343,
                            "time" : 313,
                            "value" : 0.999999999999999,
                            "duration" : 30
                          },
                          {
                            "endTime" : 466,
                            "time" : 436,
                            "value" : 3.172876137306,
                            "duration" : 30
                          },
                          {
                            "endTime" : 619,
                            "time" : 589,
                            "value" : 0.99999964401807,
                            "duration" : 30
                          },
                          {
                            "endTime" : 721,
                            "time" : 691,
                            "value" : 2.83915303535992,
                            "duration" : 30
                          },
                          {
                            "endTime" : 755,
                            "time" : 725,
                            "value" : 0.999999512129719,
                            "duration" : 30
                          },
                          {
                            "endTime" : 784,
                            "time" : 755,
                            "value" : 1.90952759462014,
                            "duration" : 29
                          }
                        ]
                      },
                      "scale1" : {
                        "type" : "double",
                        "defaultValue" : 1.0,
                        "keyframes" : [
                          {
                            "endTime" : 237,
                            "time" : 207,
                            "value" : 6.52631500328686,
                            "duration" : 30
                          },
                          {
                            "endTime" : 343,
                            "time" : 313,
                            "value" : 0.999999966057169,
                            "duration" : 30
                          },
                          {
                            "endTime" : 466,
                            "time" : 436,
                            "value" : 3.17287726679297,
                            "duration" : 30
                          },
                          {
                            "endTime" : 619,
                            "time" : 589,
                            "value" : 1.0,
                            "duration" : 30
                          },
                          {
                            "endTime" : 721,
                            "time" : 691,
                            "value" : 2.83915442049899,
                            "duration" : 30
                          },
                          {
                            "endTime" : 755,
                            "time" : 725,
                            "value" : 1.0,
                            "duration" : 30
                          },
                          {
                            "endTime" : 784,
                            "time" : 755,
                            "value" : 1.9095287965103,
                            "duration" : 29
                          }
                        ]
                      },
                      "cursorOpacity" : 1.0,
                      "cursorScale" : 1.0
                    },
                    "medias" : [
                        {
                          "id" : 72,
                          "_type" : "ScreenVMFile",
                          "src" : 1,
                          "trackNumber" : 0,
                          "attributes" : {
                            "ident" : "token_hijacking_attack"
                          },
                          "parameters" : {
                            "cursorScale" : {
                              "type" : "double",
                              "defaultValue" : 0.0,
                              "interp" : "linr"
                            },
                            "cursorOpacity" : {
                              "type" : "double",
                              "defaultValue" : 0.0,
                              "interp" : "linr"
                            }
                          },
                          "effects" : [

                          ],
                          "start" : 0,
                          "duration" : 208,
                          "mediaStart" : 0,
                          "mediaDuration" : 208,
                          "scalar" : 1,
                          "metadata" : {
                            "AutoAppliedSmartFocus" : "False",
                            "clipSpeedAttribute" : false
                          },
                          "animationTracks" : {

                          }
                        },
                        {
                          "id" : 73,
                          "_type" : "ScreenIMFile",
                          "src" : 1,
                          "trackNumber" : 0,
                          "trimStartSum" : 0,
                          "attributes" : {
                            "ident" : "token_hijacking_attack"
                          },
                          "parameters" : {
                            "cursorOpacity" : 0.0,
                            "cursorScale" : 0.0
                          },
                          "effects" : [

                          ],
                          "start" : 208,
                          "duration" : 90,
                          "mediaStart" : 207,
                          "mediaDuration" : 1,
                          "scalar" : 1,
                          "metadata" : {
                            "AutoAppliedSmartFocus" : "False"
                          },
                          "animationTracks" : {

                          }
                        },
                        {
                          "id" : 74,
                          "_type" : "ScreenVMFile",
                          "src" : 1,
                          "trackNumber" : 0,
                          "attributes" : {
                            "ident" : "token_hijacking_attack"
                          },
                          "parameters" : {
                            "cursorScale" : {
                              "type" : "double",
                              "defaultValue" : 0.0,
                              "interp" : "linr"
                            },
                            "cursorOpacity" : {
                              "type" : "double",
                              "defaultValue" : 0.0,
                              "interp" : "linr"
                            }
                          },
                          "effects" : [

                          ],
                          "start" : 298,
                          "duration" : 140,
                          "mediaStart" : 208,
                          "mediaDuration" : 140,
                          "scalar" : 1,
                          "metadata" : {
                            "AutoAppliedSmartFocus" : "False",
                            "clipSpeedAttribute" : false
                          },
                          "animationTracks" : {

                          }
                        },
                        {
                          "id" : 75,
                          "_type" : "ScreenIMFile",
                          "src" : 1,
                          "trackNumber" : 0,
                          "trimStartSum" : 0,
                          "attributes" : {
                            "ident" : "token_hijacking_attack"
                          },
                          "parameters" : {
                            "cursorOpacity" : 0.0,
                            "cursorScale" : 0.0
                          },
                          "effects" : [

                          ],
                          "start" : 438,
                          "duration" : 30,
                          "mediaStart" : 348,
                          "mediaDuration" : 1,
                          "scalar" : 1,
                          "metadata" : {
                            "AutoAppliedSmartFocus" : "False"
                          },
                          "animationTracks" : {

                          }
                        },
                        {
                          "id" : 76,
                          "_type" : "ScreenVMFile",
                          "src" : 1,
                          "trackNumber" : 0,
                          "attributes" : {
                            "ident" : "token_hijacking_attack"
                          },
                          "parameters" : {
                            "cursorScale" : {
                              "type" : "double",
                              "defaultValue" : 0.0,
                              "interp" : "linr"
                            },
                            "cursorOpacity" : {
                              "type" : "double",
                              "defaultValue" : 0.0,
                              "interp" : "linr"
                            }
                          },
                          "effects" : [

                          ],
                          "start" : 468,
                          "duration" : 105,
                          "mediaStart" : 348,
                          "mediaDuration" : 105,
                          "scalar" : 1,
                          "metadata" : {
                            "AutoAppliedSmartFocus" : "False",
                            "clipSpeedAttribute" : false
                          },
                          "animationTracks" : {

                          }
                        },
                        {
                          "id" : 77,
                          "_type" : "ScreenIMFile",
                          "src" : 1,
                          "trackNumber" : 0,
                          "trimStartSum" : 0,
                          "attributes" : {
                            "ident" : "token_hijacking_attack"
                          },
                          "parameters" : {
                            "cursorOpacity" : 0.0,
                            "cursorScale" : 0.0
                          },
                          "effects" : [

                          ],
                          "start" : 573,
                          "duration" : 30,
                          "mediaStart" : 453,
                          "mediaDuration" : 1,
                          "scalar" : 1,
                          "metadata" : {
                            "AutoAppliedSmartFocus" : "False"
                          },
                          "animationTracks" : {

                          }
                        },
                        {
                          "id" : 78,
                          "_type" : "ScreenVMFile",
                          "src" : 1,
                          "trackNumber" : 0,
                          "attributes" : {
                            "ident" : "token_hijacking_attack"
                          },
                          "parameters" : {
                            "cursorScale" : {
                              "type" : "double",
                              "defaultValue" : 0.0,
                              "interp" : "linr"
                            },
                            "cursorOpacity" : {
                              "type" : "double",
                              "defaultValue" : 0.0,
                              "interp" : "linr"
                            }
                          },
                          "effects" : [

                          ],
                          "start" : 603,
                          "duration" : 1574986,
                          "mediaStart" : 453,
                          "mediaDuration" : 1574986,
                          "scalar" : 1,
                          "metadata" : {
                            "AutoAppliedSmartFocus" : "False",
                            "clipSpeedAttribute" : false
                          },
                          "animationTracks" : {

                          }
                        }
                    ],
                    "effects" : [
                        {
                          "effectName" : "CursorHilight",
                          "category" : "categoryCursorEffects",
                          "parameters" : {
                            "blur" : 0.1,
                            "color-alpha" : 0.75,
                            "color-blue" : 0.0,
                            "color-green" : 1.0,
                            "color-red" : 1.0,
                            "radius" : 50.0
                          }
                        }
                    ],
                    "start" : 665,
                    "duration" : 51,
                    "mediaStart" : 671,
                    "mediaDuration" : 51,
                    "scalar" : 1,
                    "metadata" : {
                      "AutoAppliedSmartFocus" : "False",
                      "clipSpeedAttribute" : false
                    },
                    "animationTracks" : {
                      "visual" : [
                        {
                          "endTime" : 237,
                          "duration" : 30,
                          "range" : [ 207, 30]
                        },
                        {
                          "endTime" : 343,
                          "duration" : 30,
                          "range" : [ 313, 30]
                        },
                        {
                          "endTime" : 466,
                          "duration" : 30,
                          "range" : [ 436, 30]
                        },
                        {
                          "endTime" : 619,
                          "duration" : 30,
                          "range" : [ 589, 30]
                        },
                        {
                          "endTime" : 721,
                          "duration" : 30,
                          "range" : [ 691, 30]
                        },
                        {
                          "endTime" : 755,
                          "duration" : 30,
                          "range" : [ 725, 30]
                        },
                        {
                          "endTime" : 784,
                          "duration" : 29,
                          "range" : [ 755, 29]
                        }
                      ]
                    }
                  },
                  {
                    "id" : 79,
                    "_type" : "StitchedMedia",
                    "minMediaStart" : 0,
                    "attributes" : {
                      "ident" : "token_hijacking_attack",
                      "gain" : 1.0,
                      "mixToMono" : false
                    },
                    "parameters" : {
                      "translation0" : {
                        "type" : "double",
                        "defaultValue" : 0.0,
                        "keyframes" : [
                          {
                            "endTime" : 237,
                            "time" : 207,
                            "value" : 6437.05178264923,
                            "duration" : 30
                          },
                          {
                            "endTime" : 343,
                            "time" : 313,
                            "value" : -4.54747350886464e-13,
                            "duration" : 30
                          },
                          {
                            "endTime" : 466,
                            "time" : 436,
                            "value" : 2471.77226095314,
                            "duration" : 30
                          },
                          {
                            "endTime" : 632,
                            "time" : 602,
                            "value" : -1.13686837721616e-13,
                            "duration" : 30
                          },
                          {
                            "endTime" : 751,
                            "time" : 721,
                            "value" : 1777.12723840605,
                            "duration" : 30
                          },
                          {
                            "endTime" : 815,
                            "time" : 785,
                            "value" : -1.13686837721616e-13,
                            "duration" : 30
                          },
                          {
                            "endTime" : 844,
                            "time" : 815,
                            "value" : 946.879645880833,
                            "duration" : 29
                          }
                        ]
                      },
                      "translation1" : {
                        "type" : "double",
                        "defaultValue" : 0.0,
                        "keyframes" : [
                          {
                            "endTime" : 237,
                            "time" : 207,
                            "value" : -2825.0524936412,
                            "duration" : 30
                          },
                          {
                            "endTime" : 343,
                            "time" : 313,
                            "value" : 5.6843418860808e-14,
                            "duration" : 30
                          },
                          {
                            "endTime" : 466,
                            "time" : 436,
                            "value" : -1235.61824899191,
                            "duration" : 30
                          },
                          {
                            "endTime" : 632,
                            "time" : 602,
                            "value" : 1.13686837721616e-13,
                            "duration" : 30
                          },
                          {
                            "endTime" : 751,
                            "time" : 721,
                            "value" : -129.822625517978,
                            "duration" : 30
                          },
                          {
                            "endTime" : 815,
                            "time" : 785,
                            "value" : -2.1316282072803e-14,
                            "duration" : 30
                          },
                          {
                            "endTime" : 844,
                            "time" : 815,
                            "value" : -532.620057822569,
                            "duration" : 29
                          }
                        ]
                      },
                      "scale0" : {
                        "type" : "double",
                        "defaultValue" : 1.0,
                        "keyframes" : [
                          {
                            "endTime" : 237,
                            "time" : 207,
                            "value" : 6.52631522480847,
                            "duration" : 30
                          },
                          {
                            "endTime" : 343,
                            "time" : 313,
                            "value" : 0.999999999999999,
                            "duration" : 30
                          },
                          {
                            "endTime" : 466,
                            "time" : 436,
                            "value" : 3.172876137306,
                            "duration" : 30
                          },
                          {
                            "endTime" : 632,
                            "time" : 602,
                            "value" : 0.99999964401807,
                            "duration" : 30
                          },
                          {
                            "endTime" : 751,
                            "time" : 721,
                            "value" : 2.83915303535992,
                            "duration" : 30
                          },
                          {
                            "endTime" : 815,
                            "time" : 785,
                            "value" : 0.999999512129719,
                            "duration" : 30
                          },
                          {
                            "endTime" : 844,
                            "time" : 815,
                            "value" : 1.90952759462014,
                            "duration" : 29
                          }
                        ]
                      },
                      "scale1" : {
                        "type" : "double",
                        "defaultValue" : 1.0,
                        "keyframes" : [
                          {
                            "endTime" : 237,
                            "time" : 207,
                            "value" : 6.52631500328686,
                            "duration" : 30
                          },
                          {
                            "endTime" : 343,
                            "time" : 313,
                            "value" : 0.999999966057169,
                            "duration" : 30
                          },
                          {
                            "endTime" : 466,
                            "time" : 436,
                            "value" : 3.17287726679297,
                            "duration" : 30
                          },
                          {
                            "endTime" : 632,
                            "time" : 602,
                            "value" : 1.0,
                            "duration" : 30
                          },
                          {
                            "endTime" : 751,
                            "time" : 721,
                            "value" : 2.83915442049899,
                            "duration" : 30
                          },
                          {
                            "endTime" : 815,
                            "time" : 785,
                            "value" : 1.0,
                            "duration" : 30
                          },
                          {
                            "endTime" : 844,
                            "time" : 815,
                            "value" : 1.9095287965103,
                            "duration" : 29
                          }
                        ]
                      },
                      "cursorOpacity" : 1.0,
                      "cursorScale" : 1.0
                    },
                    "medias" : [
                        {
                          "id" : 80,
                          "_type" : "ScreenVMFile",
                          "src" : 1,
                          "trackNumber" : 0,
                          "attributes" : {
                            "ident" : "token_hijacking_attack"
                          },
                          "parameters" : {
                            "cursorScale" : {
                              "type" : "double",
                              "defaultValue" : 0.0,
                              "interp" : "linr"
                            },
                            "cursorOpacity" : {
                              "type" : "double",
                              "defaultValue" : 0.0,
                              "interp" : "linr"
                            }
                          },
                          "effects" : [

                          ],
                          "start" : 0,
                          "duration" : 208,
                          "mediaStart" : 0,
                          "mediaDuration" : 208,
                          "scalar" : 1,
                          "metadata" : {
                            "AutoAppliedSmartFocus" : "False",
                            "clipSpeedAttribute" : false
                          },
                          "animationTracks" : {

                          }
                        },
                        {
                          "id" : 81,
                          "_type" : "ScreenIMFile",
                          "src" : 1,
                          "trackNumber" : 0,
                          "trimStartSum" : 0,
                          "attributes" : {
                            "ident" : "token_hijacking_attack"
                          },
                          "parameters" : {
                            "cursorOpacity" : 0.0,
                            "cursorScale" : 0.0
                          },
                          "effects" : [

                          ],
                          "start" : 208,
                          "duration" : 90,
                          "mediaStart" : 207,
                          "mediaDuration" : 1,
                          "scalar" : 1,
                          "metadata" : {
                            "AutoAppliedSmartFocus" : "False"
                          },
                          "animationTracks" : {

                          }
                        },
                        {
                          "id" : 82,
                          "_type" : "ScreenVMFile",
                          "src" : 1,
                          "trackNumber" : 0,
                          "attributes" : {
                            "ident" : "token_hijacking_attack"
                          },
                          "parameters" : {
                            "cursorScale" : {
                              "type" : "double",
                              "defaultValue" : 0.0,
                              "interp" : "linr"
                            },
                            "cursorOpacity" : {
                              "type" : "double",
                              "defaultValue" : 0.0,
                              "interp" : "linr"
                            }
                          },
                          "effects" : [

                          ],
                          "start" : 298,
                          "duration" : 140,
                          "mediaStart" : 208,
                          "mediaDuration" : 140,
                          "scalar" : 1,
                          "metadata" : {
                            "AutoAppliedSmartFocus" : "False",
                            "clipSpeedAttribute" : false
                          },
                          "animationTracks" : {

                          }
                        },
                        {
                          "id" : 83,
                          "_type" : "ScreenIMFile",
                          "src" : 1,
                          "trackNumber" : 0,
                          "trimStartSum" : 0,
                          "attributes" : {
                            "ident" : "token_hijacking_attack"
                          },
                          "parameters" : {
                            "cursorOpacity" : 0.0,
                            "cursorScale" : 0.0
                          },
                          "effects" : [

                          ],
                          "start" : 438,
                          "duration" : 30,
                          "mediaStart" : 348,
                          "mediaDuration" : 1,
                          "scalar" : 1,
                          "metadata" : {
                            "AutoAppliedSmartFocus" : "False"
                          },
                          "animationTracks" : {

                          }
                        },
                        {
                          "id" : 84,
                          "_type" : "ScreenVMFile",
                          "src" : 1,
                          "trackNumber" : 0,
                          "attributes" : {
                            "ident" : "token_hijacking_attack"
                          },
                          "parameters" : {
                            "cursorScale" : {
                              "type" : "double",
                              "defaultValue" : 0.0,
                              "interp" : "linr"
                            },
                            "cursorOpacity" : {
                              "type" : "double",
                              "defaultValue" : 0.0,
                              "interp" : "linr"
                            }
                          },
                          "effects" : [

                          ],
                          "start" : 468,
                          "duration" : 105,
                          "mediaStart" : 348,
                          "mediaDuration" : 105,
                          "scalar" : 1,
                          "metadata" : {
                            "AutoAppliedSmartFocus" : "False",
                            "clipSpeedAttribute" : false
                          },
                          "animationTracks" : {

                          }
                        },
                        {
                          "id" : 85,
                          "_type" : "ScreenIMFile",
                          "src" : 1,
                          "trackNumber" : 0,
                          "trimStartSum" : 0,
                          "attributes" : {
                            "ident" : "token_hijacking_attack"
                          },
                          "parameters" : {
                            "cursorOpacity" : 0.0,
                            "cursorScale" : 0.0
                          },
                          "effects" : [

                          ],
                          "start" : 573,
                          "duration" : 60,
                          "mediaStart" : 453,
                          "mediaDuration" : 1,
                          "scalar" : 1,
                          "metadata" : {
                            "AutoAppliedSmartFocus" : "False"
                          },
                          "animationTracks" : {

                          }
                        },
                        {
                          "id" : 86,
                          "_type" : "ScreenVMFile",
                          "src" : 1,
                          "trackNumber" : 0,
                          "attributes" : {
                            "ident" : "token_hijacking_attack"
                          },
                          "parameters" : {
                            "cursorScale" : {
                              "type" : "double",
                              "defaultValue" : 0.0,
                              "interp" : "linr"
                            },
                            "cursorOpacity" : {
                              "type" : "double",
                              "defaultValue" : 0.0,
                              "interp" : "linr"
                            }
                          },
                          "effects" : [

                          ],
                          "start" : 633,
                          "duration" : 120,
                          "mediaStart" : 453,
                          "mediaDuration" : 120,
                          "scalar" : 1,
                          "metadata" : {
                            "AutoAppliedSmartFocus" : "False",
                            "clipSpeedAttribute" : false
                          },
                          "animationTracks" : {

                          }
                        },
                        {
                          "id" : 87,
                          "_type" : "ScreenIMFile",
                          "src" : 1,
                          "trackNumber" : 0,
                          "trimStartSum" : 0,
                          "attributes" : {
                            "ident" : "token_hijacking_attack"
                          },
                          "parameters" : {
                            "cursorOpacity" : 0.0,
                            "cursorScale" : 0.0
                          },
                          "effects" : [

                          ],
                          "start" : 753,
                          "duration" : 30,
                          "mediaStart" : 573,
                          "mediaDuration" : 1,
                          "scalar" : 1,
                          "metadata" : {
                            "AutoAppliedSmartFocus" : "False"
                          },
                          "animationTracks" : {

                          }
                        },
                        {
                          "id" : 88,
                          "_type" : "ScreenVMFile",
                          "src" : 1,
                          "trackNumber" : 0,
                          "attributes" : {
                            "ident" : "token_hijacking_attack"
                          },
                          "parameters" : {
                            "cursorScale" : {
                              "type" : "double",
                              "defaultValue" : 0.0,
                              "interp" : "linr"
                            },
                            "cursorOpacity" : {
                              "type" : "double",
                              "defaultValue" : 0.0,
                              "interp" : "linr"
                            }
                          },
                          "effects" : [

                          ],
                          "start" : 783,
                          "duration" : 1574866,
                          "mediaStart" : 573,
                          "mediaDuration" : 1574866,
                          "scalar" : 1,
                          "metadata" : {
                            "AutoAppliedSmartFocus" : "False",
                            "clipSpeedAttribute" : false
                          },
                          "animationTracks" : {

                          }
                        }
                    ],
                    "effects" : [
                        {
                          "effectName" : "CursorHilight",
                          "category" : "categoryCursorEffects",
                          "parameters" : {
                            "blur" : 0.1,
                            "color-alpha" : 0.75,
                            "color-blue" : 0.0,
                            "color-green" : 1.0,
                            "color-red" : 1.0,
                            "radius" : 50.0
                          }
                        }
                    ],
                    "start" : 716,
                    "duration" : 32,
                    "mediaStart" : 752,
                    "mediaDuration" : 32,
                    "scalar" : 1,
                    "metadata" : {
                      "AutoAppliedSmartFocus" : "False",
                      "clipSpeedAttribute" : false
                    },
                    "animationTracks" : {
                      "visual" : [
                        {
                          "endTime" : 237,
                          "duration" : 30,
                          "range" : [ 207, 30]
                        },
                        {
                          "endTime" : 343,
                          "duration" : 30,
                          "range" : [ 313, 30]
                        },
                        {
                          "endTime" : 466,
                          "duration" : 30,
                          "range" : [ 436, 30]
                        },
                        {
                          "endTime" : 632,
                          "duration" : 30,
                          "range" : [ 602, 30]
                        },
                        {
                          "endTime" : 751,
                          "duration" : 30,
                          "range" : [ 721, 30]
                        },
                        {
                          "endTime" : 815,
                          "duration" : 30,
                          "range" : [ 785, 30]
                        },
                        {
                          "endTime" : 844,
                          "duration" : 29,
                          "range" : [ 815, 29]
                        }
                      ]
                    }
                  },
                  {
                    "id" : 89,
                    "_type" : "StitchedMedia",
                    "minMediaStart" : 0,
                    "attributes" : {
                      "ident" : "token_hijacking_attack",
                      "gain" : 1.0,
                      "mixToMono" : false
                    },
                    "parameters" : {
                      "translation0" : {
                        "type" : "double",
                        "defaultValue" : 0.0,
                        "keyframes" : [
                          {
                            "endTime" : 237,
                            "time" : 207,
                            "value" : 6437.05178264923,
                            "duration" : 30
                          },
                          {
                            "endTime" : 343,
                            "time" : 313,
                            "value" : -4.54747350886464e-13,
                            "duration" : 30
                          },
                          {
                            "endTime" : 466,
                            "time" : 436,
                            "value" : 2471.77226095314,
                            "duration" : 30
                          },
                          {
                            "endTime" : 632,
                            "time" : 602,
                            "value" : -1.13686837721616e-13,
                            "duration" : 30
                          },
                          {
                            "endTime" : 751,
                            "time" : 721,
                            "value" : 1777.12723840605,
                            "duration" : 30
                          },
                          {
                            "endTime" : 785,
                            "time" : 755,
                            "value" : -1.13686837721616e-13,
                            "duration" : 30
                          },
                          {
                            "endTime" : 814,
                            "time" : 785,
                            "value" : 946.879645880833,
                            "duration" : 29
                          }
                        ]
                      },
                      "translation1" : {
                        "type" : "double",
                        "defaultValue" : 0.0,
                        "keyframes" : [
                          {
                            "endTime" : 237,
                            "time" : 207,
                            "value" : -2825.0524936412,
                            "duration" : 30
                          },
                          {
                            "endTime" : 343,
                            "time" : 313,
                            "value" : 5.6843418860808e-14,
                            "duration" : 30
                          },
                          {
                            "endTime" : 466,
                            "time" : 436,
                            "value" : -1235.61824899191,
                            "duration" : 30
                          },
                          {
                            "endTime" : 632,
                            "time" : 602,
                            "value" : 1.13686837721616e-13,
                            "duration" : 30
                          },
                          {
                            "endTime" : 751,
                            "time" : 721,
                            "value" : -129.822625517978,
                            "duration" : 30
                          },
                          {
                            "endTime" : 785,
                            "time" : 755,
                            "value" : -2.1316282072803e-14,
                            "duration" : 30
                          },
                          {
                            "endTime" : 814,
                            "time" : 785,
                            "value" : -532.620057822569,
                            "duration" : 29
                          }
                        ]
                      },
                      "scale0" : {
                        "type" : "double",
                        "defaultValue" : 1.0,
                        "keyframes" : [
                          {
                            "endTime" : 237,
                            "time" : 207,
                            "value" : 6.52631522480847,
                            "duration" : 30
                          },
                          {
                            "endTime" : 343,
                            "time" : 313,
                            "value" : 0.999999999999999,
                            "duration" : 30
                          },
                          {
                            "endTime" : 466,
                            "time" : 436,
                            "value" : 3.172876137306,
                            "duration" : 30
                          },
                          {
                            "endTime" : 632,
                            "time" : 602,
                            "value" : 0.99999964401807,
                            "duration" : 30
                          },
                          {
                            "endTime" : 751,
                            "time" : 721,
                            "value" : 2.83915303535992,
                            "duration" : 30
                          },
                          {
                            "endTime" : 785,
                            "time" : 755,
                            "value" : 0.999999512129719,
                            "duration" : 30
                          },
                          {
                            "endTime" : 814,
                            "time" : 785,
                            "value" : 1.90952759462014,
                            "duration" : 29
                          }
                        ]
                      },
                      "scale1" : {
                        "type" : "double",
                        "defaultValue" : 1.0,
                        "keyframes" : [
                          {
                            "endTime" : 237,
                            "time" : 207,
                            "value" : 6.52631500328686,
                            "duration" : 30
                          },
                          {
                            "endTime" : 343,
                            "time" : 313,
                            "value" : 0.999999966057169,
                            "duration" : 30
                          },
                          {
                            "endTime" : 466,
                            "time" : 436,
                            "value" : 3.17287726679297,
                            "duration" : 30
                          },
                          {
                            "endTime" : 632,
                            "time" : 602,
                            "value" : 1.0,
                            "duration" : 30
                          },
                          {
                            "endTime" : 751,
                            "time" : 721,
                            "value" : 2.83915442049899,
                            "duration" : 30
                          },
                          {
                            "endTime" : 785,
                            "time" : 755,
                            "value" : 1.0,
                            "duration" : 30
                          },
                          {
                            "endTime" : 814,
                            "time" : 785,
                            "value" : 1.9095287965103,
                            "duration" : 29
                          }
                        ]
                      },
                      "cursorOpacity" : 1.0,
                      "cursorScale" : 1.0
                    },
                    "medias" : [
                        {
                          "id" : 90,
                          "_type" : "ScreenVMFile",
                          "src" : 1,
                          "trackNumber" : 0,
                          "attributes" : {
                            "ident" : "token_hijacking_attack"
                          },
                          "parameters" : {
                            "cursorScale" : {
                              "type" : "double",
                              "defaultValue" : 0.0,
                              "interp" : "linr"
                            },
                            "cursorOpacity" : {
                              "type" : "double",
                              "defaultValue" : 0.0,
                              "interp" : "linr"
                            }
                          },
                          "effects" : [

                          ],
                          "start" : 0,
                          "duration" : 208,
                          "mediaStart" : 0,
                          "mediaDuration" : 208,
                          "scalar" : 1,
                          "metadata" : {
                            "AutoAppliedSmartFocus" : "False",
                            "clipSpeedAttribute" : false
                          },
                          "animationTracks" : {

                          }
                        },
                        {
                          "id" : 91,
                          "_type" : "ScreenIMFile",
                          "src" : 1,
                          "trackNumber" : 0,
                          "trimStartSum" : 0,
                          "attributes" : {
                            "ident" : "token_hijacking_attack"
                          },
                          "parameters" : {
                            "cursorOpacity" : 0.0,
                            "cursorScale" : 0.0
                          },
                          "effects" : [

                          ],
                          "start" : 208,
                          "duration" : 90,
                          "mediaStart" : 207,
                          "mediaDuration" : 1,
                          "scalar" : 1,
                          "metadata" : {
                            "AutoAppliedSmartFocus" : "False"
                          },
                          "animationTracks" : {

                          }
                        },
                        {
                          "id" : 92,
                          "_type" : "ScreenVMFile",
                          "src" : 1,
                          "trackNumber" : 0,
                          "attributes" : {
                            "ident" : "token_hijacking_attack"
                          },
                          "parameters" : {
                            "cursorScale" : {
                              "type" : "double",
                              "defaultValue" : 0.0,
                              "interp" : "linr"
                            },
                            "cursorOpacity" : {
                              "type" : "double",
                              "defaultValue" : 0.0,
                              "interp" : "linr"
                            }
                          },
                          "effects" : [

                          ],
                          "start" : 298,
                          "duration" : 140,
                          "mediaStart" : 208,
                          "mediaDuration" : 140,
                          "scalar" : 1,
                          "metadata" : {
                            "AutoAppliedSmartFocus" : "False",
                            "clipSpeedAttribute" : false
                          },
                          "animationTracks" : {

                          }
                        },
                        {
                          "id" : 93,
                          "_type" : "ScreenIMFile",
                          "src" : 1,
                          "trackNumber" : 0,
                          "trimStartSum" : 0,
                          "attributes" : {
                            "ident" : "token_hijacking_attack"
                          },
                          "parameters" : {
                            "cursorOpacity" : 0.0,
                            "cursorScale" : 0.0
                          },
                          "effects" : [

                          ],
                          "start" : 438,
                          "duration" : 30,
                          "mediaStart" : 348,
                          "mediaDuration" : 1,
                          "scalar" : 1,
                          "metadata" : {
                            "AutoAppliedSmartFocus" : "False"
                          },
                          "animationTracks" : {

                          }
                        },
                        {
                          "id" : 94,
                          "_type" : "ScreenVMFile",
                          "src" : 1,
                          "trackNumber" : 0,
                          "attributes" : {
                            "ident" : "token_hijacking_attack"
                          },
                          "parameters" : {
                            "cursorScale" : {
                              "type" : "double",
                              "defaultValue" : 0.0,
                              "interp" : "linr"
                            },
                            "cursorOpacity" : {
                              "type" : "double",
                              "defaultValue" : 0.0,
                              "interp" : "linr"
                            }
                          },
                          "effects" : [

                          ],
                          "start" : 468,
                          "duration" : 105,
                          "mediaStart" : 348,
                          "mediaDuration" : 105,
                          "scalar" : 1,
                          "metadata" : {
                            "AutoAppliedSmartFocus" : "False",
                            "clipSpeedAttribute" : false
                          },
                          "animationTracks" : {

                          }
                        },
                        {
                          "id" : 95,
                          "_type" : "ScreenIMFile",
                          "src" : 1,
                          "trackNumber" : 0,
                          "trimStartSum" : 0,
                          "attributes" : {
                            "ident" : "token_hijacking_attack"
                          },
                          "parameters" : {
                            "cursorOpacity" : 0.0,
                            "cursorScale" : 0.0
                          },
                          "effects" : [

                          ],
                          "start" : 573,
                          "duration" : 60,
                          "mediaStart" : 453,
                          "mediaDuration" : 1,
                          "scalar" : 1,
                          "metadata" : {
                            "AutoAppliedSmartFocus" : "False"
                          },
                          "animationTracks" : {

                          }
                        },
                        {
                          "id" : 96,
                          "_type" : "ScreenVMFile",
                          "src" : 1,
                          "trackNumber" : 0,
                          "attributes" : {
                            "ident" : "token_hijacking_attack"
                          },
                          "parameters" : {
                            "cursorScale" : {
                              "type" : "double",
                              "defaultValue" : 0.0,
                              "interp" : "linr"
                            },
                            "cursorOpacity" : {
                              "type" : "double",
                              "defaultValue" : 0.0,
                              "interp" : "linr"
                            }
                          },
                          "effects" : [

                          ],
                          "start" : 633,
                          "duration" : 1574986,
                          "mediaStart" : 453,
                          "mediaDuration" : 1574986,
                          "scalar" : 1,
                          "metadata" : {
                            "AutoAppliedSmartFocus" : "False",
                            "clipSpeedAttribute" : false
                          },
                          "animationTracks" : {

                          }
                        }
                    ],
                    "effects" : [
                        {
                          "effectName" : "CursorHilight",
                          "category" : "categoryCursorEffects",
                          "parameters" : {
                            "blur" : 0.1,
                            "color-alpha" : 0.75,
                            "color-blue" : 0.0,
                            "color-green" : 1.0,
                            "color-red" : 1.0,
                            "radius" : 50.0
                          }
                        }
                    ],
                    "start" : 748,
                    "duration" : 64,
                    "mediaStart" : 754,
                    "mediaDuration" : 64,
                    "scalar" : 1,
                    "metadata" : {
                      "AutoAppliedSmartFocus" : "False",
                      "clipSpeedAttribute" : false,
                      "default-scale0" : 3.172876137306,
                      "default-scale1" : 3.17287726679297,
                      "default-translation0" : 2471.77226095314,
                      "default-translation1" : -1235.61824899191
                    },
                    "animationTracks" : {
                      "visual" : [
                        {
                          "endTime" : 237,
                          "duration" : 30,
                          "range" : [ 207, 30]
                        },
                        {
                          "endTime" : 343,
                          "duration" : 30,
                          "range" : [ 313, 30]
                        },
                        {
                          "endTime" : 466,
                          "duration" : 30,
                          "range" : [ 436, 30]
                        },
                        {
                          "endTime" : 632,
                          "duration" : 30,
                          "range" : [ 602, 30]
                        },
                        {
                          "endTime" : 751,
                          "duration" : 30,
                          "range" : [ 721, 30]
                        },
                        {
                          "endTime" : 785,
                          "duration" : 30,
                          "range" : [ 755, 30]
                        },
                        {
                          "endTime" : 814,
                          "duration" : 29,
                          "range" : [ 785, 29]
                        }
                      ]
                    }
                  },
                  {
                    "id" : 97,
                    "_type" : "StitchedMedia",
                    "minMediaStart" : 0,
                    "attributes" : {
                      "ident" : "token_hijacking_attack",
                      "gain" : 1.0,
                      "mixToMono" : false
                    },
                    "parameters" : {
                      "translation0" : {
                        "type" : "double",
                        "defaultValue" : 0.0,
                        "keyframes" : [
                          {
                            "endTime" : 237,
                            "time" : 207,
                            "value" : 6437.05178264923,
                            "duration" : 30
                          },
                          {
                            "endTime" : 343,
                            "time" : 313,
                            "value" : -4.54747350886464e-13,
                            "duration" : 30
                          },
                          {
                            "endTime" : 466,
                            "time" : 436,
                            "value" : 2471.77226095314,
                            "duration" : 30
                          },
                          {
                            "endTime" : 632,
                            "time" : 602,
                            "value" : -1.13686837721616e-13,
                            "duration" : 30
                          },
                          {
                            "endTime" : 751,
                            "time" : 721,
                            "value" : 1777.12723840605,
                            "duration" : 30
                          },
                          {
                            "endTime" : 785,
                            "time" : 755,
                            "value" : -1.13686837721616e-13,
                            "duration" : 30
                          },
                          {
                            "endTime" : 814,
                            "time" : 785,
                            "value" : 946.879645880833,
                            "duration" : 29
                          }
                        ]
                      },
                      "translation1" : {
                        "type" : "double",
                        "defaultValue" : 0.0,
                        "keyframes" : [
                          {
                            "endTime" : 237,
                            "time" : 207,
                            "value" : -2825.0524936412,
                            "duration" : 30
                          },
                          {
                            "endTime" : 343,
                            "time" : 313,
                            "value" : 5.6843418860808e-14,
                            "duration" : 30
                          },
                          {
                            "endTime" : 466,
                            "time" : 436,
                            "value" : -1235.61824899191,
                            "duration" : 30
                          },
                          {
                            "endTime" : 632,
                            "time" : 602,
                            "value" : 1.13686837721616e-13,
                            "duration" : 30
                          },
                          {
                            "endTime" : 751,
                            "time" : 721,
                            "value" : -129.822625517978,
                            "duration" : 30
                          },
                          {
                            "endTime" : 785,
                            "time" : 755,
                            "value" : -2.1316282072803e-14,
                            "duration" : 30
                          },
                          {
                            "endTime" : 814,
                            "time" : 785,
                            "value" : -532.620057822569,
                            "duration" : 29
                          }
                        ]
                      },
                      "scale0" : {
                        "type" : "double",
                        "defaultValue" : 1.0,
                        "keyframes" : [
                          {
                            "endTime" : 237,
                            "time" : 207,
                            "value" : 6.52631522480847,
                            "duration" : 30
                          },
                          {
                            "endTime" : 343,
                            "time" : 313,
                            "value" : 0.999999999999999,
                            "duration" : 30
                          },
                          {
                            "endTime" : 466,
                            "time" : 436,
                            "value" : 3.172876137306,
                            "duration" : 30
                          },
                          {
                            "endTime" : 632,
                            "time" : 602,
                            "value" : 0.99999964401807,
                            "duration" : 30
                          },
                          {
                            "endTime" : 751,
                            "time" : 721,
                            "value" : 2.83915303535992,
                            "duration" : 30
                          },
                          {
                            "endTime" : 785,
                            "time" : 755,
                            "value" : 0.999999512129719,
                            "duration" : 30
                          },
                          {
                            "endTime" : 814,
                            "time" : 785,
                            "value" : 1.90952759462014,
                            "duration" : 29
                          }
                        ]
                      },
                      "scale1" : {
                        "type" : "double",
                        "defaultValue" : 1.0,
                        "keyframes" : [
                          {
                            "endTime" : 237,
                            "time" : 207,
                            "value" : 6.52631500328686,
                            "duration" : 30
                          },
                          {
                            "endTime" : 343,
                            "time" : 313,
                            "value" : 0.999999966057169,
                            "duration" : 30
                          },
                          {
                            "endTime" : 466,
                            "time" : 436,
                            "value" : 3.17287726679297,
                            "duration" : 30
                          },
                          {
                            "endTime" : 632,
                            "time" : 602,
                            "value" : 1.0,
                            "duration" : 30
                          },
                          {
                            "endTime" : 751,
                            "time" : 721,
                            "value" : 2.83915442049899,
                            "duration" : 30
                          },
                          {
                            "endTime" : 785,
                            "time" : 755,
                            "value" : 1.0,
                            "duration" : 30
                          },
                          {
                            "endTime" : 814,
                            "time" : 785,
                            "value" : 1.9095287965103,
                            "duration" : 29
                          }
                        ]
                      },
                      "cursorOpacity" : 1.0,
                      "cursorScale" : 1.0
                    },
                    "medias" : [
                        {
                          "id" : 98,
                          "_type" : "ScreenVMFile",
                          "src" : 1,
                          "trackNumber" : 0,
                          "attributes" : {
                            "ident" : "token_hijacking_attack"
                          },
                          "parameters" : {
                            "cursorScale" : {
                              "type" : "double",
                              "defaultValue" : 0.0,
                              "interp" : "linr"
                            },
                            "cursorOpacity" : {
                              "type" : "double",
                              "defaultValue" : 0.0,
                              "interp" : "linr"
                            }
                          },
                          "effects" : [

                          ],
                          "start" : 0,
                          "duration" : 208,
                          "mediaStart" : 0,
                          "mediaDuration" : 208,
                          "scalar" : 1,
                          "metadata" : {
                            "AutoAppliedSmartFocus" : "False",
                            "clipSpeedAttribute" : false
                          },
                          "animationTracks" : {

                          }
                        },
                        {
                          "id" : 99,
                          "_type" : "ScreenIMFile",
                          "src" : 1,
                          "trackNumber" : 0,
                          "trimStartSum" : 0,
                          "attributes" : {
                            "ident" : "token_hijacking_attack"
                          },
                          "parameters" : {
                            "cursorOpacity" : 0.0,
                            "cursorScale" : 0.0
                          },
                          "effects" : [

                          ],
                          "start" : 208,
                          "duration" : 90,
                          "mediaStart" : 207,
                          "mediaDuration" : 1,
                          "scalar" : 1,
                          "metadata" : {
                            "AutoAppliedSmartFocus" : "False"
                          },
                          "animationTracks" : {

                          }
                        },
                        {
                          "id" : 100,
                          "_type" : "ScreenVMFile",
                          "src" : 1,
                          "trackNumber" : 0,
                          "attributes" : {
                            "ident" : "token_hijacking_attack"
                          },
                          "parameters" : {
                            "cursorScale" : {
                              "type" : "double",
                              "defaultValue" : 0.0,
                              "interp" : "linr"
                            },
                            "cursorOpacity" : {
                              "type" : "double",
                              "defaultValue" : 0.0,
                              "interp" : "linr"
                            }
                          },
                          "effects" : [

                          ],
                          "start" : 298,
                          "duration" : 140,
                          "mediaStart" : 208,
                          "mediaDuration" : 140,
                          "scalar" : 1,
                          "metadata" : {
                            "AutoAppliedSmartFocus" : "False",
                            "clipSpeedAttribute" : false
                          },
                          "animationTracks" : {

                          }
                        },
                        {
                          "id" : 101,
                          "_type" : "ScreenIMFile",
                          "src" : 1,
                          "trackNumber" : 0,
                          "trimStartSum" : 0,
                          "attributes" : {
                            "ident" : "token_hijacking_attack"
                          },
                          "parameters" : {
                            "cursorOpacity" : 0.0,
                            "cursorScale" : 0.0
                          },
                          "effects" : [

                          ],
                          "start" : 438,
                          "duration" : 30,
                          "mediaStart" : 348,
                          "mediaDuration" : 1,
                          "scalar" : 1,
                          "metadata" : {
                            "AutoAppliedSmartFocus" : "False"
                          },
                          "animationTracks" : {

                          }
                        },
                        {
                          "id" : 102,
                          "_type" : "ScreenVMFile",
                          "src" : 1,
                          "trackNumber" : 0,
                          "attributes" : {
                            "ident" : "token_hijacking_attack"
                          },
                          "parameters" : {
                            "cursorScale" : {
                              "type" : "double",
                              "defaultValue" : 0.0,
                              "interp" : "linr"
                            },
                            "cursorOpacity" : {
                              "type" : "double",
                              "defaultValue" : 0.0,
                              "interp" : "linr"
                            }
                          },
                          "effects" : [

                          ],
                          "start" : 468,
                          "duration" : 105,
                          "mediaStart" : 348,
                          "mediaDuration" : 105,
                          "scalar" : 1,
                          "metadata" : {
                            "AutoAppliedSmartFocus" : "False",
                            "clipSpeedAttribute" : false
                          },
                          "animationTracks" : {

                          }
                        },
                        {
                          "id" : 103,
                          "_type" : "ScreenIMFile",
                          "src" : 1,
                          "trackNumber" : 0,
                          "trimStartSum" : 0,
                          "attributes" : {
                            "ident" : "token_hijacking_attack"
                          },
                          "parameters" : {
                            "cursorOpacity" : 0.0,
                            "cursorScale" : 0.0
                          },
                          "effects" : [

                          ],
                          "start" : 573,
                          "duration" : 60,
                          "mediaStart" : 453,
                          "mediaDuration" : 1,
                          "scalar" : 1,
                          "metadata" : {
                            "AutoAppliedSmartFocus" : "False"
                          },
                          "animationTracks" : {

                          }
                        },
                        {
                          "id" : 104,
                          "_type" : "ScreenVMFile",
                          "src" : 1,
                          "trackNumber" : 0,
                          "attributes" : {
                            "ident" : "token_hijacking_attack"
                          },
                          "parameters" : {
                            "cursorScale" : {
                              "type" : "double",
                              "defaultValue" : 0.0,
                              "interp" : "linr"
                            },
                            "cursorOpacity" : {
                              "type" : "double",
                              "defaultValue" : 0.0,
                              "interp" : "linr"
                            }
                          },
                          "effects" : [

                          ],
                          "start" : 633,
                          "duration" : 1574986,
                          "mediaStart" : 453,
                          "mediaDuration" : 1574986,
                          "scalar" : 1,
                          "metadata" : {
                            "AutoAppliedSmartFocus" : "False",
                            "clipSpeedAttribute" : false
                          },
                          "animationTracks" : {

                          }
                        }
                    ],
                    "effects" : [
                        {
                          "effectName" : "CursorHilight",
                          "category" : "categoryCursorEffects",
                          "parameters" : {
                            "blur" : 0.1,
                            "color-alpha" : 0.75,
                            "color-blue" : 0.0,
                            "color-green" : 1.0,
                            "color-red" : 1.0,
                            "radius" : 50.0
                          }
                        }
                    ],
                    "start" : 812,
                    "duration" : 5,
                    "mediaStart" : 818,
                    "mediaDuration" : 5,
                    "scalar" : 1,
                    "metadata" : {
                      "AutoAppliedSmartFocus" : "False",
                      "clipSpeedAttribute" : false,
                      "default-scale0" : 3.172876137306,
                      "default-scale1" : 3.17287726679297,
                      "default-translation0" : 2471.77226095314,
                      "default-translation1" : -1235.61824899191
                    },
                    "animationTracks" : {
                      "visual" : [
                        {
                          "endTime" : 237,
                          "duration" : 30,
                          "range" : [ 207, 30]
                        },
                        {
                          "endTime" : 343,
                          "duration" : 30,
                          "range" : [ 313, 30]
                        },
                        {
                          "endTime" : 466,
                          "duration" : 30,
                          "range" : [ 436, 30]
                        },
                        {
                          "endTime" : 632,
                          "duration" : 30,
                          "range" : [ 602, 30]
                        },
                        {
                          "endTime" : 751,
                          "duration" : 30,
                          "range" : [ 721, 30]
                        },
                        {
                          "endTime" : 785,
                          "duration" : 30,
                          "range" : [ 755, 30]
                        },
                        {
                          "endTime" : 814,
                          "duration" : 29,
                          "range" : [ 785, 29]
                        }
                      ]
                    }
                  },
                  {
                    "id" : 105,
                    "_type" : "StitchedMedia",
                    "minMediaStart" : 0,
                    "attributes" : {
                      "ident" : "token_hijacking_attack",
                      "gain" : 1.0,
                      "mixToMono" : false
                    },
                    "parameters" : {
                      "translation0" : {
                        "type" : "double",
                        "defaultValue" : 0.0,
                        "keyframes" : [
                          {
                            "endTime" : 237,
                            "time" : 207,
                            "value" : 6437.05178264923,
                            "duration" : 30
                          },
                          {
                            "endTime" : 343,
                            "time" : 313,
                            "value" : -4.54747350886464e-13,
                            "duration" : 30
                          },
                          {
                            "endTime" : 466,
                            "time" : 436,
                            "value" : 2471.77226095314,
                            "duration" : 30
                          },
                          {
                            "endTime" : 632,
                            "time" : 602,
                            "value" : -1.13686837721616e-13,
                            "duration" : 30
                          },
                          {
                            "endTime" : 751,
                            "time" : 721,
                            "value" : 1777.12723840605,
                            "duration" : 30
                          },
                          {
                            "endTime" : 785,
                            "time" : 755,
                            "value" : -1.13686837721616e-13,
                            "duration" : 30
                          },
                          {
                            "endTime" : 814,
                            "time" : 785,
                            "value" : 946.879645880833,
                            "duration" : 29
                          }
                        ]
                      },
                      "translation1" : {
                        "type" : "double",
                        "defaultValue" : 0.0,
                        "keyframes" : [
                          {
                            "endTime" : 237,
                            "time" : 207,
                            "value" : -2825.0524936412,
                            "duration" : 30
                          },
                          {
                            "endTime" : 343,
                            "time" : 313,
                            "value" : 5.6843418860808e-14,
                            "duration" : 30
                          },
                          {
                            "endTime" : 466,
                            "time" : 436,
                            "value" : -1235.61824899191,
                            "duration" : 30
                          },
                          {
                            "endTime" : 632,
                            "time" : 602,
                            "value" : 1.13686837721616e-13,
                            "duration" : 30
                          },
                          {
                            "endTime" : 751,
                            "time" : 721,
                            "value" : -129.822625517978,
                            "duration" : 30
                          },
                          {
                            "endTime" : 785,
                            "time" : 755,
                            "value" : -2.1316282072803e-14,
                            "duration" : 30
                          },
                          {
                            "endTime" : 814,
                            "time" : 785,
                            "value" : -532.620057822569,
                            "duration" : 29
                          }
                        ]
                      },
                      "scale0" : {
                        "type" : "double",
                        "defaultValue" : 1.0,
                        "keyframes" : [
                          {
                            "endTime" : 237,
                            "time" : 207,
                            "value" : 6.52631522480847,
                            "duration" : 30
                          },
                          {
                            "endTime" : 343,
                            "time" : 313,
                            "value" : 0.999999999999999,
                            "duration" : 30
                          },
                          {
                            "endTime" : 466,
                            "time" : 436,
                            "value" : 3.172876137306,
                            "duration" : 30
                          },
                          {
                            "endTime" : 632,
                            "time" : 602,
                            "value" : 0.99999964401807,
                            "duration" : 30
                          },
                          {
                            "endTime" : 751,
                            "time" : 721,
                            "value" : 2.83915303535992,
                            "duration" : 30
                          },
                          {
                            "endTime" : 785,
                            "time" : 755,
                            "value" : 0.999999512129719,
                            "duration" : 30
                          },
                          {
                            "endTime" : 814,
                            "time" : 785,
                            "value" : 1.90952759462014,
                            "duration" : 29
                          }
                        ]
                      },
                      "scale1" : {
                        "type" : "double",
                        "defaultValue" : 1.0,
                        "keyframes" : [
                          {
                            "endTime" : 237,
                            "time" : 207,
                            "value" : 6.52631500328686,
                            "duration" : 30
                          },
                          {
                            "endTime" : 343,
                            "time" : 313,
                            "value" : 0.999999966057169,
                            "duration" : 30
                          },
                          {
                            "endTime" : 466,
                            "time" : 436,
                            "value" : 3.17287726679297,
                            "duration" : 30
                          },
                          {
                            "endTime" : 632,
                            "time" : 602,
                            "value" : 1.0,
                            "duration" : 30
                          },
                          {
                            "endTime" : 751,
                            "time" : 721,
                            "value" : 2.83915442049899,
                            "duration" : 30
                          },
                          {
                            "endTime" : 785,
                            "time" : 755,
                            "value" : 1.0,
                            "duration" : 30
                          },
                          {
                            "endTime" : 814,
                            "time" : 785,
                            "value" : 1.9095287965103,
                            "duration" : 29
                          }
                        ]
                      },
                      "cursorOpacity" : 1.0,
                      "cursorScale" : 1.0
                    },
                    "medias" : [
                        {
                          "id" : 106,
                          "_type" : "ScreenVMFile",
                          "src" : 1,
                          "trackNumber" : 0,
                          "attributes" : {
                            "ident" : "token_hijacking_attack"
                          },
                          "parameters" : {
                            "cursorScale" : {
                              "type" : "double",
                              "defaultValue" : 0.0,
                              "interp" : "linr"
                            },
                            "cursorOpacity" : {
                              "type" : "double",
                              "defaultValue" : 0.0,
                              "interp" : "linr"
                            }
                          },
                          "effects" : [

                          ],
                          "start" : 0,
                          "duration" : 208,
                          "mediaStart" : 0,
                          "mediaDuration" : 208,
                          "scalar" : 1,
                          "metadata" : {
                            "AutoAppliedSmartFocus" : "False",
                            "clipSpeedAttribute" : false
                          },
                          "animationTracks" : {

                          }
                        },
                        {
                          "id" : 107,
                          "_type" : "ScreenIMFile",
                          "src" : 1,
                          "trackNumber" : 0,
                          "trimStartSum" : 0,
                          "attributes" : {
                            "ident" : "token_hijacking_attack"
                          },
                          "parameters" : {
                            "cursorOpacity" : 0.0,
                            "cursorScale" : 0.0
                          },
                          "effects" : [

                          ],
                          "start" : 208,
                          "duration" : 90,
                          "mediaStart" : 207,
                          "mediaDuration" : 1,
                          "scalar" : 1,
                          "metadata" : {
                            "AutoAppliedSmartFocus" : "False"
                          },
                          "animationTracks" : {

                          }
                        },
                        {
                          "id" : 108,
                          "_type" : "ScreenVMFile",
                          "src" : 1,
                          "trackNumber" : 0,
                          "attributes" : {
                            "ident" : "token_hijacking_attack"
                          },
                          "parameters" : {
                            "cursorScale" : {
                              "type" : "double",
                              "defaultValue" : 0.0,
                              "interp" : "linr"
                            },
                            "cursorOpacity" : {
                              "type" : "double",
                              "defaultValue" : 0.0,
                              "interp" : "linr"
                            }
                          },
                          "effects" : [

                          ],
                          "start" : 298,
                          "duration" : 140,
                          "mediaStart" : 208,
                          "mediaDuration" : 140,
                          "scalar" : 1,
                          "metadata" : {
                            "AutoAppliedSmartFocus" : "False",
                            "clipSpeedAttribute" : false
                          },
                          "animationTracks" : {

                          }
                        },
                        {
                          "id" : 109,
                          "_type" : "ScreenIMFile",
                          "src" : 1,
                          "trackNumber" : 0,
                          "trimStartSum" : 0,
                          "attributes" : {
                            "ident" : "token_hijacking_attack"
                          },
                          "parameters" : {
                            "cursorOpacity" : 0.0,
                            "cursorScale" : 0.0
                          },
                          "effects" : [

                          ],
                          "start" : 438,
                          "duration" : 30,
                          "mediaStart" : 348,
                          "mediaDuration" : 1,
                          "scalar" : 1,
                          "metadata" : {
                            "AutoAppliedSmartFocus" : "False"
                          },
                          "animationTracks" : {

                          }
                        },
                        {
                          "id" : 110,
                          "_type" : "ScreenVMFile",
                          "src" : 1,
                          "trackNumber" : 0,
                          "attributes" : {
                            "ident" : "token_hijacking_attack"
                          },
                          "parameters" : {
                            "cursorScale" : {
                              "type" : "double",
                              "defaultValue" : 0.0,
                              "interp" : "linr"
                            },
                            "cursorOpacity" : {
                              "type" : "double",
                              "defaultValue" : 0.0,
                              "interp" : "linr"
                            }
                          },
                          "effects" : [

                          ],
                          "start" : 468,
                          "duration" : 105,
                          "mediaStart" : 348,
                          "mediaDuration" : 105,
                          "scalar" : 1,
                          "metadata" : {
                            "AutoAppliedSmartFocus" : "False",
                            "clipSpeedAttribute" : false
                          },
                          "animationTracks" : {

                          }
                        },
                        {
                          "id" : 111,
                          "_type" : "ScreenIMFile",
                          "src" : 1,
                          "trackNumber" : 0,
                          "trimStartSum" : 0,
                          "attributes" : {
                            "ident" : "token_hijacking_attack"
                          },
                          "parameters" : {
                            "cursorOpacity" : 0.0,
                            "cursorScale" : 0.0
                          },
                          "effects" : [

                          ],
                          "start" : 573,
                          "duration" : 60,
                          "mediaStart" : 453,
                          "mediaDuration" : 1,
                          "scalar" : 1,
                          "metadata" : {
                            "AutoAppliedSmartFocus" : "False"
                          },
                          "animationTracks" : {

                          }
                        },
                        {
                          "id" : 112,
                          "_type" : "ScreenVMFile",
                          "src" : 1,
                          "trackNumber" : 0,
                          "attributes" : {
                            "ident" : "token_hijacking_attack"
                          },
                          "parameters" : {
                            "cursorScale" : {
                              "type" : "double",
                              "defaultValue" : 0.0,
                              "interp" : "linr"
                            },
                            "cursorOpacity" : {
                              "type" : "double",
                              "defaultValue" : 0.0,
                              "interp" : "linr"
                            }
                          },
                          "effects" : [

                          ],
                          "start" : 633,
                          "duration" : 1574986,
                          "mediaStart" : 453,
                          "mediaDuration" : 1574986,
                          "scalar" : 1,
                          "metadata" : {
                            "AutoAppliedSmartFocus" : "False",
                            "clipSpeedAttribute" : false
                          },
                          "animationTracks" : {

                          }
                        }
                    ],
                    "effects" : [
                        {
                          "effectName" : "CursorHilight",
                          "category" : "categoryCursorEffects",
                          "parameters" : {
                            "blur" : 0.1,
                            "color-alpha" : 0.75,
                            "color-blue" : 0.0,
                            "color-green" : 1.0,
                            "color-red" : 1.0,
                            "radius" : 50.0
                          }
                        }
                    ],
                    "start" : 817,
                    "duration" : 4,
                    "mediaStart" : 1038,
                    "mediaDuration" : 4,
                    "scalar" : 1,
                    "metadata" : {
                      "AutoAppliedSmartFocus" : "False",
                      "clipSpeedAttribute" : false,
                      "default-scale0" : 3.172876137306,
                      "default-scale1" : 3.17287726679297,
                      "default-translation0" : 2471.77226095314,
                      "default-translation1" : -1235.61824899191
                    },
                    "animationTracks" : {
                      "visual" : [
                        {
                          "endTime" : 237,
                          "duration" : 30,
                          "range" : [ 207, 30]
                        },
                        {
                          "endTime" : 343,
                          "duration" : 30,
                          "range" : [ 313, 30]
                        },
                        {
                          "endTime" : 466,
                          "duration" : 30,
                          "range" : [ 436, 30]
                        },
                        {
                          "endTime" : 632,
                          "duration" : 30,
                          "range" : [ 602, 30]
                        },
                        {
                          "endTime" : 751,
                          "duration" : 30,
                          "range" : [ 721, 30]
                        },
                        {
                          "endTime" : 785,
                          "duration" : 30,
                          "range" : [ 755, 30]
                        },
                        {
                          "endTime" : 814,
                          "duration" : 29,
                          "range" : [ 785, 29]
                        }
                      ]
                    }
                  },
                  {
                    "id" : 113,
                    "_type" : "StitchedMedia",
                    "minMediaStart" : 0,
                    "attributes" : {
                      "ident" : "token_hijacking_attack",
                      "gain" : 1.0,
                      "mixToMono" : false
                    },
                    "parameters" : {
                      "translation0" : {
                        "type" : "double",
                        "defaultValue" : 0.0,
                        "keyframes" : [
                          {
                            "endTime" : 237,
                            "time" : 207,
                            "value" : 6437.05178264923,
                            "duration" : 30
                          },
                          {
                            "endTime" : 343,
                            "time" : 313,
                            "value" : -4.54747350886464e-13,
                            "duration" : 30
                          },
                          {
                            "endTime" : 466,
                            "time" : 436,
                            "value" : 2471.77226095314,
                            "duration" : 30
                          },
                          {
                            "endTime" : 632,
                            "time" : 602,
                            "value" : -1.13686837721616e-13,
                            "duration" : 30
                          },
                          {
                            "endTime" : 751,
                            "time" : 721,
                            "value" : 1777.12723840605,
                            "duration" : 30
                          },
                          {
                            "endTime" : 785,
                            "time" : 755,
                            "value" : -1.13686837721616e-13,
                            "duration" : 30
                          },
                          {
                            "endTime" : 814,
                            "time" : 785,
                            "value" : 946.879645880833,
                            "duration" : 29
                          },
                          {
                            "endTime" : 1068,
                            "time" : 1042,
                            "value" : 1613.60702526176,
                            "duration" : 26
                          }
                        ]
                      },
                      "translation1" : {
                        "type" : "double",
                        "defaultValue" : 0.0,
                        "keyframes" : [
                          {
                            "endTime" : 237,
                            "time" : 207,
                            "value" : -2825.0524936412,
                            "duration" : 30
                          },
                          {
                            "endTime" : 343,
                            "time" : 313,
                            "value" : 5.6843418860808e-14,
                            "duration" : 30
                          },
                          {
                            "endTime" : 466,
                            "time" : 436,
                            "value" : -1235.61824899191,
                            "duration" : 30
                          },
                          {
                            "endTime" : 632,
                            "time" : 602,
                            "value" : 1.13686837721616e-13,
                            "duration" : 30
                          },
                          {
                            "endTime" : 751,
                            "time" : 721,
                            "value" : -129.822625517978,
                            "duration" : 30
                          },
                          {
                            "endTime" : 785,
                            "time" : 755,
                            "value" : -2.1316282072803e-14,
                            "duration" : 30
                          },
                          {
                            "endTime" : 814,
                            "time" : 785,
                            "value" : -532.6,
                            "duration" : 29
                          },
                          {
                            "endTime" : 1068,
                            "time" : 1042,
                            "value" : -277.235424203718,
                            "duration" : 26
                          }
                        ]
                      },
                      "scale0" : {
                        "type" : "double",
                        "defaultValue" : 1.0,
                        "keyframes" : [
                          {
                            "endTime" : 237,
                            "time" : 207,
                            "value" : 6.52631522480847,
                            "duration" : 30
                          },
                          {
                            "endTime" : 343,
                            "time" : 313,
                            "value" : 0.999999999999999,
                            "duration" : 30
                          },
                          {
                            "endTime" : 466,
                            "time" : 436,
                            "value" : 3.172876137306,
                            "duration" : 30
                          },
                          {
                            "endTime" : 632,
                            "time" : 602,
                            "value" : 0.99999964401807,
                            "duration" : 30
                          },
                          {
                            "endTime" : 751,
                            "time" : 721,
                            "value" : 2.83915303535992,
                            "duration" : 30
                          },
                          {
                            "endTime" : 785,
                            "time" : 755,
                            "value" : 0.999999512129719,
                            "duration" : 30
                          },
                          {
                            "endTime" : 814,
                            "time" : 785,
                            "value" : 1.90952759462014,
                            "duration" : 29
                          },
                          {
                            "endTime" : 1068,
                            "time" : 1042,
                            "value" : 2.48123987298737,
                            "duration" : 26
                          }
                        ]
                      },
                      "scale1" : {
                        "type" : "double",
                        "defaultValue" : 1.0,
                        "keyframes" : [
                          {
                            "endTime" : 237,
                            "time" : 207,
                            "value" : 6.52631500328686,
                            "duration" : 30
                          },
                          {
                            "endTime" : 343,
                            "time" : 313,
                            "value" : 0.999999966057169,
                            "duration" : 30
                          },
                          {
                            "endTime" : 466,
                            "time" : 436,
                            "value" : 3.17287726679297,
                            "duration" : 30
                          },
                          {
                            "endTime" : 632,
                            "time" : 602,
                            "value" : 1.0,
                            "duration" : 30
                          },
                          {
                            "endTime" : 751,
                            "time" : 721,
                            "value" : 2.83915442049899,
                            "duration" : 30
                          },
                          {
                            "endTime" : 785,
                            "time" : 755,
                            "value" : 1.0,
                            "duration" : 30
                          },
                          {
                            "endTime" : 814,
                            "time" : 785,
                            "value" : 1.9095287965103,
                            "duration" : 29
                          },
                          {
                            "endTime" : 1068,
                            "time" : 1042,
                            "value" : 2.48124130214435,
                            "duration" : 26
                          }
                        ]
                      },
                      "cursorOpacity" : 1.0,
                      "cursorScale" : 1.0
                    },
                    "medias" : [
                        {
                          "id" : 114,
                          "_type" : "ScreenVMFile",
                          "src" : 1,
                          "trackNumber" : 0,
                          "attributes" : {
                            "ident" : "token_hijacking_attack"
                          },
                          "parameters" : {
                            "cursorScale" : {
                              "type" : "double",
                              "defaultValue" : 0.0,
                              "interp" : "linr"
                            },
                            "cursorOpacity" : {
                              "type" : "double",
                              "defaultValue" : 0.0,
                              "interp" : "linr"
                            }
                          },
                          "effects" : [

                          ],
                          "start" : 0,
                          "duration" : 208,
                          "mediaStart" : 0,
                          "mediaDuration" : 208,
                          "scalar" : 1,
                          "metadata" : {
                            "AutoAppliedSmartFocus" : "False",
                            "clipSpeedAttribute" : false
                          },
                          "animationTracks" : {

                          }
                        },
                        {
                          "id" : 115,
                          "_type" : "ScreenIMFile",
                          "src" : 1,
                          "trackNumber" : 0,
                          "trimStartSum" : 0,
                          "attributes" : {
                            "ident" : "token_hijacking_attack"
                          },
                          "parameters" : {
                            "cursorOpacity" : 0.0,
                            "cursorScale" : 0.0
                          },
                          "effects" : [

                          ],
                          "start" : 208,
                          "duration" : 90,
                          "mediaStart" : 207,
                          "mediaDuration" : 1,
                          "scalar" : 1,
                          "metadata" : {
                            "AutoAppliedSmartFocus" : "False"
                          },
                          "animationTracks" : {

                          }
                        },
                        {
                          "id" : 116,
                          "_type" : "ScreenVMFile",
                          "src" : 1,
                          "trackNumber" : 0,
                          "attributes" : {
                            "ident" : "token_hijacking_attack"
                          },
                          "parameters" : {
                            "cursorScale" : {
                              "type" : "double",
                              "defaultValue" : 0.0,
                              "interp" : "linr"
                            },
                            "cursorOpacity" : {
                              "type" : "double",
                              "defaultValue" : 0.0,
                              "interp" : "linr"
                            }
                          },
                          "effects" : [

                          ],
                          "start" : 298,
                          "duration" : 140,
                          "mediaStart" : 208,
                          "mediaDuration" : 140,
                          "scalar" : 1,
                          "metadata" : {
                            "AutoAppliedSmartFocus" : "False",
                            "clipSpeedAttribute" : false
                          },
                          "animationTracks" : {

                          }
                        },
                        {
                          "id" : 117,
                          "_type" : "ScreenIMFile",
                          "src" : 1,
                          "trackNumber" : 0,
                          "trimStartSum" : 0,
                          "attributes" : {
                            "ident" : "token_hijacking_attack"
                          },
                          "parameters" : {
                            "cursorOpacity" : 0.0,
                            "cursorScale" : 0.0
                          },
                          "effects" : [

                          ],
                          "start" : 438,
                          "duration" : 30,
                          "mediaStart" : 348,
                          "mediaDuration" : 1,
                          "scalar" : 1,
                          "metadata" : {
                            "AutoAppliedSmartFocus" : "False"
                          },
                          "animationTracks" : {

                          }
                        },
                        {
                          "id" : 118,
                          "_type" : "ScreenVMFile",
                          "src" : 1,
                          "trackNumber" : 0,
                          "attributes" : {
                            "ident" : "token_hijacking_attack"
                          },
                          "parameters" : {
                            "cursorScale" : {
                              "type" : "double",
                              "defaultValue" : 0.0,
                              "interp" : "linr"
                            },
                            "cursorOpacity" : {
                              "type" : "double",
                              "defaultValue" : 0.0,
                              "interp" : "linr"
                            }
                          },
                          "effects" : [

                          ],
                          "start" : 468,
                          "duration" : 105,
                          "mediaStart" : 348,
                          "mediaDuration" : 105,
                          "scalar" : 1,
                          "metadata" : {
                            "AutoAppliedSmartFocus" : "False",
                            "clipSpeedAttribute" : false
                          },
                          "animationTracks" : {

                          }
                        },
                        {
                          "id" : 119,
                          "_type" : "ScreenIMFile",
                          "src" : 1,
                          "trackNumber" : 0,
                          "trimStartSum" : 0,
                          "attributes" : {
                            "ident" : "token_hijacking_attack"
                          },
                          "parameters" : {
                            "cursorOpacity" : 0.0,
                            "cursorScale" : 0.0
                          },
                          "effects" : [

                          ],
                          "start" : 573,
                          "duration" : 60,
                          "mediaStart" : 453,
                          "mediaDuration" : 1,
                          "scalar" : 1,
                          "metadata" : {
                            "AutoAppliedSmartFocus" : "False"
                          },
                          "animationTracks" : {

                          }
                        },
                        {
                          "id" : 120,
                          "_type" : "ScreenVMFile",
                          "src" : 1,
                          "trackNumber" : 0,
                          "attributes" : {
                            "ident" : "token_hijacking_attack"
                          },
                          "parameters" : {
                            "cursorScale" : {
                              "type" : "double",
                              "defaultValue" : 0.0,
                              "interp" : "linr"
                            },
                            "cursorOpacity" : {
                              "type" : "double",
                              "defaultValue" : 0.0,
                              "interp" : "linr"
                            }
                          },
                          "effects" : [

                          ],
                          "start" : 633,
                          "duration" : 1574986,
                          "mediaStart" : 453,
                          "mediaDuration" : 1574986,
                          "scalar" : 1,
                          "metadata" : {
                            "AutoAppliedSmartFocus" : "False",
                            "clipSpeedAttribute" : false
                          },
                          "animationTracks" : {

                          }
                        }
                    ],
                    "effects" : [
                        {
                          "effectName" : "CursorHilight",
                          "category" : "categoryCursorEffects",
                          "parameters" : {
                            "blur" : 0.1,
                            "color-alpha" : 0.75,
                            "color-blue" : 0.0,
                            "color-green" : 1.0,
                            "color-red" : 1.0,
                            "radius" : 50.0
                          }
                        }
                    ],
                    "start" : 821,
                    "duration" : 27,
                    "mediaStart" : 1042,
                    "mediaDuration" : 27,
                    "scalar" : 1,
                    "metadata" : {
                      "AutoAppliedSmartFocus" : "False",
                      "clipSpeedAttribute" : false,
                      "default-scale0" : 3.172876137306,
                      "default-scale1" : 3.17287726679297,
                      "default-translation0" : 2471.77226095314,
                      "default-translation1" : -1235.61824899191
                    },
                    "animationTracks" : {
                      "visual" : [
                        {
                          "endTime" : 237,
                          "duration" : 30,
                          "range" : [ 207, 30]
                        },
                        {
                          "endTime" : 343,
                          "duration" : 30,
                          "range" : [ 313, 30]
                        },
                        {
                          "endTime" : 466,
                          "duration" : 30,
                          "range" : [ 436, 30]
                        },
                        {
                          "endTime" : 632,
                          "duration" : 30,
                          "range" : [ 602, 30]
                        },
                        {
                          "endTime" : 751,
                          "duration" : 30,
                          "range" : [ 721, 30]
                        },
                        {
                          "endTime" : 785,
                          "duration" : 30,
                          "range" : [ 755, 30]
                        },
                        {
                          "endTime" : 814,
                          "duration" : 29,
                          "range" : [ 785, 29]
                        },
                        {
                          "endTime" : 1068,
                          "duration" : 26,
                          "range" : [ 1042, 26]
                        }
                      ]
                    }
                  },
                  {
                    "id" : 121,
                    "_type" : "StitchedMedia",
                    "minMediaStart" : 0,
                    "attributes" : {
                      "ident" : "token_hijacking_attack",
                      "gain" : 1.0,
                      "mixToMono" : false
                    },
                    "parameters" : {
                      "translation0" : {
                        "type" : "double",
                        "defaultValue" : 0.0,
                        "keyframes" : [
                          {
                            "endTime" : 237,
                            "time" : 207,
                            "value" : 6437.05178264923,
                            "duration" : 30
                          },
                          {
                            "endTime" : 343,
                            "time" : 313,
                            "value" : -4.54747350886464e-13,
                            "duration" : 30
                          },
                          {
                            "endTime" : 466,
                            "time" : 436,
                            "value" : 2471.77226095314,
                            "duration" : 30
                          },
                          {
                            "endTime" : 632,
                            "time" : 602,
                            "value" : -1.13686837721616e-13,
                            "duration" : 30
                          },
                          {
                            "endTime" : 751,
                            "time" : 721,
                            "value" : 1777.12723840605,
                            "duration" : 30
                          },
                          {
                            "endTime" : 785,
                            "time" : 755,
                            "value" : -1.13686837721616e-13,
                            "duration" : 30
                          },
                          {
                            "endTime" : 814,
                            "time" : 785,
                            "value" : 946.879645880833,
                            "duration" : 29
                          },
                          {
                            "endTime" : 1068,
                            "time" : 1042,
                            "value" : 1613.60702526176,
                            "duration" : 26
                          }
                        ]
                      },
                      "translation1" : {
                        "type" : "double",
                        "defaultValue" : 0.0,
                        "keyframes" : [
                          {
                            "endTime" : 237,
                            "time" : 207,
                            "value" : -2825.0524936412,
                            "duration" : 30
                          },
                          {
                            "endTime" : 343,
                            "time" : 313,
                            "value" : 5.6843418860808e-14,
                            "duration" : 30
                          },
                          {
                            "endTime" : 466,
                            "time" : 436,
                            "value" : -1235.61824899191,
                            "duration" : 30
                          },
                          {
                            "endTime" : 632,
                            "time" : 602,
                            "value" : 1.13686837721616e-13,
                            "duration" : 30
                          },
                          {
                            "endTime" : 751,
                            "time" : 721,
                            "value" : -129.822625517978,
                            "duration" : 30
                          },
                          {
                            "endTime" : 785,
                            "time" : 755,
                            "value" : -2.1316282072803e-14,
                            "duration" : 30
                          },
                          {
                            "endTime" : 814,
                            "time" : 785,
                            "value" : -532.6,
                            "duration" : 29
                          },
                          {
                            "endTime" : 1068,
                            "time" : 1042,
                            "value" : -277.235424203718,
                            "duration" : 26
                          }
                        ]
                      },
                      "scale0" : {
                        "type" : "double",
                        "defaultValue" : 1.0,
                        "keyframes" : [
                          {
                            "endTime" : 237,
                            "time" : 207,
                            "value" : 6.52631522480847,
                            "duration" : 30
                          },
                          {
                            "endTime" : 343,
                            "time" : 313,
                            "value" : 0.999999999999999,
                            "duration" : 30
                          },
                          {
                            "endTime" : 466,
                            "time" : 436,
                            "value" : 3.172876137306,
                            "duration" : 30
                          },
                          {
                            "endTime" : 632,
                            "time" : 602,
                            "value" : 0.99999964401807,
                            "duration" : 30
                          },
                          {
                            "endTime" : 751,
                            "time" : 721,
                            "value" : 2.83915303535992,
                            "duration" : 30
                          },
                          {
                            "endTime" : 785,
                            "time" : 755,
                            "value" : 0.999999512129719,
                            "duration" : 30
                          },
                          {
                            "endTime" : 814,
                            "time" : 785,
                            "value" : 1.90952759462014,
                            "duration" : 29
                          },
                          {
                            "endTime" : 1068,
                            "time" : 1042,
                            "value" : 2.48123987298737,
                            "duration" : 26
                          }
                        ]
                      },
                      "scale1" : {
                        "type" : "double",
                        "defaultValue" : 1.0,
                        "keyframes" : [
                          {
                            "endTime" : 237,
                            "time" : 207,
                            "value" : 6.52631500328686,
                            "duration" : 30
                          },
                          {
                            "endTime" : 343,
                            "time" : 313,
                            "value" : 0.999999966057169,
                            "duration" : 30
                          },
                          {
                            "endTime" : 466,
                            "time" : 436,
                            "value" : 3.17287726679297,
                            "duration" : 30
                          },
                          {
                            "endTime" : 632,
                            "time" : 602,
                            "value" : 1.0,
                            "duration" : 30
                          },
                          {
                            "endTime" : 751,
                            "time" : 721,
                            "value" : 2.83915442049899,
                            "duration" : 30
                          },
                          {
                            "endTime" : 785,
                            "time" : 755,
                            "value" : 1.0,
                            "duration" : 30
                          },
                          {
                            "endTime" : 814,
                            "time" : 785,
                            "value" : 1.9095287965103,
                            "duration" : 29
                          },
                          {
                            "endTime" : 1068,
                            "time" : 1042,
                            "value" : 2.48124130214435,
                            "duration" : 26
                          }
                        ]
                      },
                      "cursorOpacity" : 1.0,
                      "cursorScale" : 1.0
                    },
                    "medias" : [
                        {
                          "id" : 122,
                          "_type" : "ScreenVMFile",
                          "src" : 1,
                          "trackNumber" : 0,
                          "attributes" : {
                            "ident" : "token_hijacking_attack"
                          },
                          "parameters" : {
                            "cursorScale" : {
                              "type" : "double",
                              "defaultValue" : 0.0,
                              "interp" : "linr"
                            },
                            "cursorOpacity" : {
                              "type" : "double",
                              "defaultValue" : 0.0,
                              "interp" : "linr"
                            }
                          },
                          "effects" : [

                          ],
                          "start" : 0,
                          "duration" : 208,
                          "mediaStart" : 0,
                          "mediaDuration" : 208,
                          "scalar" : 1,
                          "metadata" : {
                            "AutoAppliedSmartFocus" : "False",
                            "clipSpeedAttribute" : false
                          },
                          "animationTracks" : {

                          }
                        },
                        {
                          "id" : 123,
                          "_type" : "ScreenIMFile",
                          "src" : 1,
                          "trackNumber" : 0,
                          "trimStartSum" : 0,
                          "attributes" : {
                            "ident" : "token_hijacking_attack"
                          },
                          "parameters" : {
                            "cursorOpacity" : 0.0,
                            "cursorScale" : 0.0
                          },
                          "effects" : [

                          ],
                          "start" : 208,
                          "duration" : 90,
                          "mediaStart" : 207,
                          "mediaDuration" : 1,
                          "scalar" : 1,
                          "metadata" : {
                            "AutoAppliedSmartFocus" : "False"
                          },
                          "animationTracks" : {

                          }
                        },
                        {
                          "id" : 124,
                          "_type" : "ScreenVMFile",
                          "src" : 1,
                          "trackNumber" : 0,
                          "attributes" : {
                            "ident" : "token_hijacking_attack"
                          },
                          "parameters" : {
                            "cursorScale" : {
                              "type" : "double",
                              "defaultValue" : 0.0,
                              "interp" : "linr"
                            },
                            "cursorOpacity" : {
                              "type" : "double",
                              "defaultValue" : 0.0,
                              "interp" : "linr"
                            }
                          },
                          "effects" : [

                          ],
                          "start" : 298,
                          "duration" : 140,
                          "mediaStart" : 208,
                          "mediaDuration" : 140,
                          "scalar" : 1,
                          "metadata" : {
                            "AutoAppliedSmartFocus" : "False",
                            "clipSpeedAttribute" : false
                          },
                          "animationTracks" : {

                          }
                        },
                        {
                          "id" : 125,
                          "_type" : "ScreenIMFile",
                          "src" : 1,
                          "trackNumber" : 0,
                          "trimStartSum" : 0,
                          "attributes" : {
                            "ident" : "token_hijacking_attack"
                          },
                          "parameters" : {
                            "cursorOpacity" : 0.0,
                            "cursorScale" : 0.0
                          },
                          "effects" : [

                          ],
                          "start" : 438,
                          "duration" : 30,
                          "mediaStart" : 348,
                          "mediaDuration" : 1,
                          "scalar" : 1,
                          "metadata" : {
                            "AutoAppliedSmartFocus" : "False"
                          },
                          "animationTracks" : {

                          }
                        },
                        {
                          "id" : 126,
                          "_type" : "ScreenVMFile",
                          "src" : 1,
                          "trackNumber" : 0,
                          "attributes" : {
                            "ident" : "token_hijacking_attack"
                          },
                          "parameters" : {
                            "cursorScale" : {
                              "type" : "double",
                              "defaultValue" : 0.0,
                              "interp" : "linr"
                            },
                            "cursorOpacity" : {
                              "type" : "double",
                              "defaultValue" : 0.0,
                              "interp" : "linr"
                            }
                          },
                          "effects" : [

                          ],
                          "start" : 468,
                          "duration" : 105,
                          "mediaStart" : 348,
                          "mediaDuration" : 105,
                          "scalar" : 1,
                          "metadata" : {
                            "AutoAppliedSmartFocus" : "False",
                            "clipSpeedAttribute" : false
                          },
                          "animationTracks" : {

                          }
                        },
                        {
                          "id" : 127,
                          "_type" : "ScreenIMFile",
                          "src" : 1,
                          "trackNumber" : 0,
                          "trimStartSum" : 0,
                          "attributes" : {
                            "ident" : "token_hijacking_attack"
                          },
                          "parameters" : {
                            "cursorOpacity" : 0.0,
                            "cursorScale" : 0.0
                          },
                          "effects" : [

                          ],
                          "start" : 573,
                          "duration" : 60,
                          "mediaStart" : 453,
                          "mediaDuration" : 1,
                          "scalar" : 1,
                          "metadata" : {
                            "AutoAppliedSmartFocus" : "False"
                          },
                          "animationTracks" : {

                          }
                        },
                        {
                          "id" : 128,
                          "_type" : "ScreenVMFile",
                          "src" : 1,
                          "trackNumber" : 0,
                          "attributes" : {
                            "ident" : "token_hijacking_attack"
                          },
                          "parameters" : {
                            "cursorScale" : {
                              "type" : "double",
                              "defaultValue" : 0.0,
                              "interp" : "linr"
                            },
                            "cursorOpacity" : {
                              "type" : "double",
                              "defaultValue" : 0.0,
                              "interp" : "linr"
                            }
                          },
                          "effects" : [

                          ],
                          "start" : 633,
                          "duration" : 1574986,
                          "mediaStart" : 453,
                          "mediaDuration" : 1574986,
                          "scalar" : 1,
                          "metadata" : {
                            "AutoAppliedSmartFocus" : "False",
                            "clipSpeedAttribute" : false
                          },
                          "animationTracks" : {

                          }
                        }
                    ],
                    "effects" : [
                        {
                          "effectName" : "CursorHilight",
                          "category" : "categoryCursorEffects",
                          "parameters" : {
                            "blur" : 0.1,
                            "color-alpha" : 0.75,
                            "color-blue" : 0.0,
                            "color-green" : 1.0,
                            "color-red" : 1.0,
                            "radius" : 50.0
                          }
                        }
                    ],
                    "start" : 848,
                    "duration" : 6,
                    "mediaStart" : 1167,
                    "mediaDuration" : 6,
                    "scalar" : 1,
                    "metadata" : {
                      "AutoAppliedSmartFocus" : "False",
                      "clipSpeedAttribute" : false,
                      "default-scale0" : 3.172876137306,
                      "default-scale1" : 3.17287726679297,
                      "default-translation0" : 2471.77226095314,
                      "default-translation1" : -1235.61824899191
                    },
                    "animationTracks" : {
                      "visual" : [
                        {
                          "endTime" : 237,
                          "duration" : 30,
                          "range" : [ 207, 30]
                        },
                        {
                          "endTime" : 343,
                          "duration" : 30,
                          "range" : [ 313, 30]
                        },
                        {
                          "endTime" : 466,
                          "duration" : 30,
                          "range" : [ 436, 30]
                        },
                        {
                          "endTime" : 632,
                          "duration" : 30,
                          "range" : [ 602, 30]
                        },
                        {
                          "endTime" : 751,
                          "duration" : 30,
                          "range" : [ 721, 30]
                        },
                        {
                          "endTime" : 785,
                          "duration" : 30,
                          "range" : [ 755, 30]
                        },
                        {
                          "endTime" : 814,
                          "duration" : 29,
                          "range" : [ 785, 29]
                        },
                        {
                          "endTime" : 1068,
                          "duration" : 26,
                          "range" : [ 1042, 26]
                        }
                      ]
                    }
                  },
                  {
                    "id" : 129,
                    "_type" : "StitchedMedia",
                    "minMediaStart" : 0,
                    "attributes" : {
                      "ident" : "token_hijacking_attack",
                      "gain" : 1.0,
                      "mixToMono" : false
                    },
                    "parameters" : {
                      "translation0" : {
                        "type" : "double",
                        "defaultValue" : 0.0,
                        "keyframes" : [
                          {
                            "endTime" : 237,
                            "time" : 207,
                            "value" : 6437.05178264923,
                            "duration" : 30
                          },
                          {
                            "endTime" : 343,
                            "time" : 313,
                            "value" : -4.54747350886464e-13,
                            "duration" : 30
                          },
                          {
                            "endTime" : 466,
                            "time" : 436,
                            "value" : 2471.77226095314,
                            "duration" : 30
                          },
                          {
                            "endTime" : 632,
                            "time" : 602,
                            "value" : -1.13686837721616e-13,
                            "duration" : 30
                          },
                          {
                            "endTime" : 751,
                            "time" : 721,
                            "value" : 1777.12723840605,
                            "duration" : 30
                          },
                          {
                            "endTime" : 785,
                            "time" : 755,
                            "value" : -1.13686837721616e-13,
                            "duration" : 30
                          },
                          {
                            "endTime" : 814,
                            "time" : 785,
                            "value" : 946.879645880833,
                            "duration" : 29
                          },
                          {
                            "endTime" : 1068,
                            "time" : 1042,
                            "value" : 1613.60702526176,
                            "duration" : 26
                          }
                        ]
                      },
                      "translation1" : {
                        "type" : "double",
                        "defaultValue" : 0.0,
                        "keyframes" : [
                          {
                            "endTime" : 237,
                            "time" : 207,
                            "value" : -2825.0524936412,
                            "duration" : 30
                          },
                          {
                            "endTime" : 343,
                            "time" : 313,
                            "value" : 5.6843418860808e-14,
                            "duration" : 30
                          },
                          {
                            "endTime" : 466,
                            "time" : 436,
                            "value" : -1235.61824899191,
                            "duration" : 30
                          },
                          {
                            "endTime" : 632,
                            "time" : 602,
                            "value" : 1.13686837721616e-13,
                            "duration" : 30
                          },
                          {
                            "endTime" : 751,
                            "time" : 721,
                            "value" : -129.822625517978,
                            "duration" : 30
                          },
                          {
                            "endTime" : 785,
                            "time" : 755,
                            "value" : -2.1316282072803e-14,
                            "duration" : 30
                          },
                          {
                            "endTime" : 814,
                            "time" : 785,
                            "value" : -532.6,
                            "duration" : 29
                          },
                          {
                            "endTime" : 1068,
                            "time" : 1042,
                            "value" : -277.235424203718,
                            "duration" : 26
                          }
                        ]
                      },
                      "scale0" : {
                        "type" : "double",
                        "defaultValue" : 1.0,
                        "keyframes" : [
                          {
                            "endTime" : 237,
                            "time" : 207,
                            "value" : 6.52631522480847,
                            "duration" : 30
                          },
                          {
                            "endTime" : 343,
                            "time" : 313,
                            "value" : 0.999999999999999,
                            "duration" : 30
                          },
                          {
                            "endTime" : 466,
                            "time" : 436,
                            "value" : 3.172876137306,
                            "duration" : 30
                          },
                          {
                            "endTime" : 632,
                            "time" : 602,
                            "value" : 0.99999964401807,
                            "duration" : 30
                          },
                          {
                            "endTime" : 751,
                            "time" : 721,
                            "value" : 2.83915303535992,
                            "duration" : 30
                          },
                          {
                            "endTime" : 785,
                            "time" : 755,
                            "value" : 0.999999512129719,
                            "duration" : 30
                          },
                          {
                            "endTime" : 814,
                            "time" : 785,
                            "value" : 1.90952759462014,
                            "duration" : 29
                          },
                          {
                            "endTime" : 1068,
                            "time" : 1042,
                            "value" : 2.48123987298737,
                            "duration" : 26
                          }
                        ]
                      },
                      "scale1" : {
                        "type" : "double",
                        "defaultValue" : 1.0,
                        "keyframes" : [
                          {
                            "endTime" : 237,
                            "time" : 207,
                            "value" : 6.52631500328686,
                            "duration" : 30
                          },
                          {
                            "endTime" : 343,
                            "time" : 313,
                            "value" : 0.999999966057169,
                            "duration" : 30
                          },
                          {
                            "endTime" : 466,
                            "time" : 436,
                            "value" : 3.17287726679297,
                            "duration" : 30
                          },
                          {
                            "endTime" : 632,
                            "time" : 602,
                            "value" : 1.0,
                            "duration" : 30
                          },
                          {
                            "endTime" : 751,
                            "time" : 721,
                            "value" : 2.83915442049899,
                            "duration" : 30
                          },
                          {
                            "endTime" : 785,
                            "time" : 755,
                            "value" : 1.0,
                            "duration" : 30
                          },
                          {
                            "endTime" : 814,
                            "time" : 785,
                            "value" : 1.9095287965103,
                            "duration" : 29
                          },
                          {
                            "endTime" : 1068,
                            "time" : 1042,
                            "value" : 2.48124130214435,
                            "duration" : 26
                          }
                        ]
                      },
                      "cursorOpacity" : 1.0,
                      "cursorScale" : 1.0
                    },
                    "medias" : [
                        {
                          "id" : 130,
                          "_type" : "ScreenVMFile",
                          "src" : 1,
                          "trackNumber" : 0,
                          "attributes" : {
                            "ident" : "token_hijacking_attack"
                          },
                          "parameters" : {
                            "cursorScale" : {
                              "type" : "double",
                              "defaultValue" : 0.0,
                              "interp" : "linr"
                            },
                            "cursorOpacity" : {
                              "type" : "double",
                              "defaultValue" : 0.0,
                              "interp" : "linr"
                            }
                          },
                          "effects" : [

                          ],
                          "start" : 0,
                          "duration" : 208,
                          "mediaStart" : 0,
                          "mediaDuration" : 208,
                          "scalar" : 1,
                          "metadata" : {
                            "AutoAppliedSmartFocus" : "False",
                            "clipSpeedAttribute" : false
                          },
                          "animationTracks" : {

                          }
                        },
                        {
                          "id" : 131,
                          "_type" : "ScreenIMFile",
                          "src" : 1,
                          "trackNumber" : 0,
                          "trimStartSum" : 0,
                          "attributes" : {
                            "ident" : "token_hijacking_attack"
                          },
                          "parameters" : {
                            "cursorOpacity" : 0.0,
                            "cursorScale" : 0.0
                          },
                          "effects" : [

                          ],
                          "start" : 208,
                          "duration" : 90,
                          "mediaStart" : 207,
                          "mediaDuration" : 1,
                          "scalar" : 1,
                          "metadata" : {
                            "AutoAppliedSmartFocus" : "False"
                          },
                          "animationTracks" : {

                          }
                        },
                        {
                          "id" : 132,
                          "_type" : "ScreenVMFile",
                          "src" : 1,
                          "trackNumber" : 0,
                          "attributes" : {
                            "ident" : "token_hijacking_attack"
                          },
                          "parameters" : {
                            "cursorScale" : {
                              "type" : "double",
                              "defaultValue" : 0.0,
                              "interp" : "linr"
                            },
                            "cursorOpacity" : {
                              "type" : "double",
                              "defaultValue" : 0.0,
                              "interp" : "linr"
                            }
                          },
                          "effects" : [

                          ],
                          "start" : 298,
                          "duration" : 140,
                          "mediaStart" : 208,
                          "mediaDuration" : 140,
                          "scalar" : 1,
                          "metadata" : {
                            "AutoAppliedSmartFocus" : "False",
                            "clipSpeedAttribute" : false
                          },
                          "animationTracks" : {

                          }
                        },
                        {
                          "id" : 133,
                          "_type" : "ScreenIMFile",
                          "src" : 1,
                          "trackNumber" : 0,
                          "trimStartSum" : 0,
                          "attributes" : {
                            "ident" : "token_hijacking_attack"
                          },
                          "parameters" : {
                            "cursorOpacity" : 0.0,
                            "cursorScale" : 0.0
                          },
                          "effects" : [

                          ],
                          "start" : 438,
                          "duration" : 30,
                          "mediaStart" : 348,
                          "mediaDuration" : 1,
                          "scalar" : 1,
                          "metadata" : {
                            "AutoAppliedSmartFocus" : "False"
                          },
                          "animationTracks" : {

                          }
                        },
                        {
                          "id" : 134,
                          "_type" : "ScreenVMFile",
                          "src" : 1,
                          "trackNumber" : 0,
                          "attributes" : {
                            "ident" : "token_hijacking_attack"
                          },
                          "parameters" : {
                            "cursorScale" : {
                              "type" : "double",
                              "defaultValue" : 0.0,
                              "interp" : "linr"
                            },
                            "cursorOpacity" : {
                              "type" : "double",
                              "defaultValue" : 0.0,
                              "interp" : "linr"
                            }
                          },
                          "effects" : [

                          ],
                          "start" : 468,
                          "duration" : 105,
                          "mediaStart" : 348,
                          "mediaDuration" : 105,
                          "scalar" : 1,
                          "metadata" : {
                            "AutoAppliedSmartFocus" : "False",
                            "clipSpeedAttribute" : false
                          },
                          "animationTracks" : {

                          }
                        },
                        {
                          "id" : 135,
                          "_type" : "ScreenIMFile",
                          "src" : 1,
                          "trackNumber" : 0,
                          "trimStartSum" : 0,
                          "attributes" : {
                            "ident" : "token_hijacking_attack"
                          },
                          "parameters" : {
                            "cursorOpacity" : 0.0,
                            "cursorScale" : 0.0
                          },
                          "effects" : [

                          ],
                          "start" : 573,
                          "duration" : 60,
                          "mediaStart" : 453,
                          "mediaDuration" : 1,
                          "scalar" : 1,
                          "metadata" : {
                            "AutoAppliedSmartFocus" : "False"
                          },
                          "animationTracks" : {

                          }
                        },
                        {
                          "id" : 136,
                          "_type" : "ScreenVMFile",
                          "src" : 1,
                          "trackNumber" : 0,
                          "attributes" : {
                            "ident" : "token_hijacking_attack"
                          },
                          "parameters" : {
                            "cursorScale" : {
                              "type" : "double",
                              "defaultValue" : 0.0,
                              "interp" : "linr"
                            },
                            "cursorOpacity" : {
                              "type" : "double",
                              "defaultValue" : 0.0,
                              "interp" : "linr"
                            }
                          },
                          "effects" : [

                          ],
                          "start" : 633,
                          "duration" : 1574986,
                          "mediaStart" : 453,
                          "mediaDuration" : 1574986,
                          "scalar" : 1,
                          "metadata" : {
                            "AutoAppliedSmartFocus" : "False",
                            "clipSpeedAttribute" : false
                          },
                          "animationTracks" : {

                          }
                        }
                    ],
                    "effects" : [
                        {
                          "effectName" : "CursorHilight",
                          "category" : "categoryCursorEffects",
                          "parameters" : {
                            "blur" : 0.1,
                            "color-alpha" : 0.75,
                            "color-blue" : 0.0,
                            "color-green" : 1.0,
                            "color-red" : 1.0,
                            "radius" : 50.0
                          }
                        }
                    ],
                    "start" : 854,
                    "duration" : 3,
                    "mediaStart" : 1300,
                    "mediaDuration" : 3,
                    "scalar" : 1,
                    "metadata" : {
                      "AutoAppliedSmartFocus" : "False",
                      "clipSpeedAttribute" : false,
                      "default-scale0" : 3.172876137306,
                      "default-scale1" : 3.17287726679297,
                      "default-translation0" : 2471.77226095314,
                      "default-translation1" : -1235.61824899191
                    },
                    "animationTracks" : {
                      "visual" : [
                        {
                          "endTime" : 237,
                          "duration" : 30,
                          "range" : [ 207, 30]
                        },
                        {
                          "endTime" : 343,
                          "duration" : 30,
                          "range" : [ 313, 30]
                        },
                        {
                          "endTime" : 466,
                          "duration" : 30,
                          "range" : [ 436, 30]
                        },
                        {
                          "endTime" : 632,
                          "duration" : 30,
                          "range" : [ 602, 30]
                        },
                        {
                          "endTime" : 751,
                          "duration" : 30,
                          "range" : [ 721, 30]
                        },
                        {
                          "endTime" : 785,
                          "duration" : 30,
                          "range" : [ 755, 30]
                        },
                        {
                          "endTime" : 814,
                          "duration" : 29,
                          "range" : [ 785, 29]
                        },
                        {
                          "endTime" : 1068,
                          "duration" : 26,
                          "range" : [ 1042, 26]
                        }
                      ]
                    }
                  },
                  {
                    "id" : 137,
                    "_type" : "StitchedMedia",
                    "minMediaStart" : 0,
                    "attributes" : {
                      "ident" : "token_hijacking_attack",
                      "gain" : 1.0,
                      "mixToMono" : false
                    },
                    "parameters" : {
                      "translation0" : {
                        "type" : "double",
                        "defaultValue" : 0.0,
                        "keyframes" : [
                          {
                            "endTime" : 237,
                            "time" : 207,
                            "value" : 6437.05178264923,
                            "duration" : 30
                          },
                          {
                            "endTime" : 343,
                            "time" : 313,
                            "value" : -4.54747350886464e-13,
                            "duration" : 30
                          },
                          {
                            "endTime" : 466,
                            "time" : 436,
                            "value" : 2471.77226095314,
                            "duration" : 30
                          },
                          {
                            "endTime" : 632,
                            "time" : 602,
                            "value" : -1.13686837721616e-13,
                            "duration" : 30
                          },
                          {
                            "endTime" : 751,
                            "time" : 721,
                            "value" : 1777.12723840605,
                            "duration" : 30
                          },
                          {
                            "endTime" : 785,
                            "time" : 755,
                            "value" : -1.13686837721616e-13,
                            "duration" : 30
                          },
                          {
                            "endTime" : 814,
                            "time" : 785,
                            "value" : 946.879645880833,
                            "duration" : 29
                          },
                          {
                            "endTime" : 1068,
                            "time" : 1042,
                            "value" : 1613.60702526176,
                            "duration" : 26
                          }
                        ]
                      },
                      "translation1" : {
                        "type" : "double",
                        "defaultValue" : 0.0,
                        "keyframes" : [
                          {
                            "endTime" : 237,
                            "time" : 207,
                            "value" : -2825.0524936412,
                            "duration" : 30
                          },
                          {
                            "endTime" : 343,
                            "time" : 313,
                            "value" : 5.6843418860808e-14,
                            "duration" : 30
                          },
                          {
                            "endTime" : 466,
                            "time" : 436,
                            "value" : -1235.61824899191,
                            "duration" : 30
                          },
                          {
                            "endTime" : 632,
                            "time" : 602,
                            "value" : 1.13686837721616e-13,
                            "duration" : 30
                          },
                          {
                            "endTime" : 751,
                            "time" : 721,
                            "value" : -129.822625517978,
                            "duration" : 30
                          },
                          {
                            "endTime" : 785,
                            "time" : 755,
                            "value" : -2.1316282072803e-14,
                            "duration" : 30
                          },
                          {
                            "endTime" : 814,
                            "time" : 785,
                            "value" : -532.6,
                            "duration" : 29
                          },
                          {
                            "endTime" : 1068,
                            "time" : 1042,
                            "value" : -277.235424203718,
                            "duration" : 26
                          }
                        ]
                      },
                      "scale0" : {
                        "type" : "double",
                        "defaultValue" : 1.0,
                        "keyframes" : [
                          {
                            "endTime" : 237,
                            "time" : 207,
                            "value" : 6.52631522480847,
                            "duration" : 30
                          },
                          {
                            "endTime" : 343,
                            "time" : 313,
                            "value" : 0.999999999999999,
                            "duration" : 30
                          },
                          {
                            "endTime" : 466,
                            "time" : 436,
                            "value" : 3.172876137306,
                            "duration" : 30
                          },
                          {
                            "endTime" : 632,
                            "time" : 602,
                            "value" : 0.99999964401807,
                            "duration" : 30
                          },
                          {
                            "endTime" : 751,
                            "time" : 721,
                            "value" : 2.83915303535992,
                            "duration" : 30
                          },
                          {
                            "endTime" : 785,
                            "time" : 755,
                            "value" : 0.999999512129719,
                            "duration" : 30
                          },
                          {
                            "endTime" : 814,
                            "time" : 785,
                            "value" : 1.90952759462014,
                            "duration" : 29
                          },
                          {
                            "endTime" : 1068,
                            "time" : 1042,
                            "value" : 2.48123987298737,
                            "duration" : 26
                          }
                        ]
                      },
                      "scale1" : {
                        "type" : "double",
                        "defaultValue" : 1.0,
                        "keyframes" : [
                          {
                            "endTime" : 237,
                            "time" : 207,
                            "value" : 6.52631500328686,
                            "duration" : 30
                          },
                          {
                            "endTime" : 343,
                            "time" : 313,
                            "value" : 0.999999966057169,
                            "duration" : 30
                          },
                          {
                            "endTime" : 466,
                            "time" : 436,
                            "value" : 3.17287726679297,
                            "duration" : 30
                          },
                          {
                            "endTime" : 632,
                            "time" : 602,
                            "value" : 1.0,
                            "duration" : 30
                          },
                          {
                            "endTime" : 751,
                            "time" : 721,
                            "value" : 2.83915442049899,
                            "duration" : 30
                          },
                          {
                            "endTime" : 785,
                            "time" : 755,
                            "value" : 1.0,
                            "duration" : 30
                          },
                          {
                            "endTime" : 814,
                            "time" : 785,
                            "value" : 1.9095287965103,
                            "duration" : 29
                          },
                          {
                            "endTime" : 1068,
                            "time" : 1042,
                            "value" : 2.48124130214435,
                            "duration" : 26
                          }
                        ]
                      },
                      "cursorOpacity" : 1.0,
                      "cursorScale" : 1.0
                    },
                    "medias" : [
                        {
                          "id" : 138,
                          "_type" : "ScreenVMFile",
                          "src" : 1,
                          "trackNumber" : 0,
                          "attributes" : {
                            "ident" : "token_hijacking_attack"
                          },
                          "parameters" : {
                            "cursorScale" : {
                              "type" : "double",
                              "defaultValue" : 0.0,
                              "interp" : "linr"
                            },
                            "cursorOpacity" : {
                              "type" : "double",
                              "defaultValue" : 0.0,
                              "interp" : "linr"
                            }
                          },
                          "effects" : [

                          ],
                          "start" : 0,
                          "duration" : 208,
                          "mediaStart" : 0,
                          "mediaDuration" : 208,
                          "scalar" : 1,
                          "metadata" : {
                            "AutoAppliedSmartFocus" : "False",
                            "clipSpeedAttribute" : false
                          },
                          "animationTracks" : {

                          }
                        },
                        {
                          "id" : 139,
                          "_type" : "ScreenIMFile",
                          "src" : 1,
                          "trackNumber" : 0,
                          "trimStartSum" : 0,
                          "attributes" : {
                            "ident" : "token_hijacking_attack"
                          },
                          "parameters" : {
                            "cursorOpacity" : 0.0,
                            "cursorScale" : 0.0
                          },
                          "effects" : [

                          ],
                          "start" : 208,
                          "duration" : 90,
                          "mediaStart" : 207,
                          "mediaDuration" : 1,
                          "scalar" : 1,
                          "metadata" : {
                            "AutoAppliedSmartFocus" : "False"
                          },
                          "animationTracks" : {

                          }
                        },
                        {
                          "id" : 140,
                          "_type" : "ScreenVMFile",
                          "src" : 1,
                          "trackNumber" : 0,
                          "attributes" : {
                            "ident" : "token_hijacking_attack"
                          },
                          "parameters" : {
                            "cursorScale" : {
                              "type" : "double",
                              "defaultValue" : 0.0,
                              "interp" : "linr"
                            },
                            "cursorOpacity" : {
                              "type" : "double",
                              "defaultValue" : 0.0,
                              "interp" : "linr"
                            }
                          },
                          "effects" : [

                          ],
                          "start" : 298,
                          "duration" : 140,
                          "mediaStart" : 208,
                          "mediaDuration" : 140,
                          "scalar" : 1,
                          "metadata" : {
                            "AutoAppliedSmartFocus" : "False",
                            "clipSpeedAttribute" : false
                          },
                          "animationTracks" : {

                          }
                        },
                        {
                          "id" : 141,
                          "_type" : "ScreenIMFile",
                          "src" : 1,
                          "trackNumber" : 0,
                          "trimStartSum" : 0,
                          "attributes" : {
                            "ident" : "token_hijacking_attack"
                          },
                          "parameters" : {
                            "cursorOpacity" : 0.0,
                            "cursorScale" : 0.0
                          },
                          "effects" : [

                          ],
                          "start" : 438,
                          "duration" : 30,
                          "mediaStart" : 348,
                          "mediaDuration" : 1,
                          "scalar" : 1,
                          "metadata" : {
                            "AutoAppliedSmartFocus" : "False"
                          },
                          "animationTracks" : {

                          }
                        },
                        {
                          "id" : 142,
                          "_type" : "ScreenVMFile",
                          "src" : 1,
                          "trackNumber" : 0,
                          "attributes" : {
                            "ident" : "token_hijacking_attack"
                          },
                          "parameters" : {
                            "cursorScale" : {
                              "type" : "double",
                              "defaultValue" : 0.0,
                              "interp" : "linr"
                            },
                            "cursorOpacity" : {
                              "type" : "double",
                              "defaultValue" : 0.0,
                              "interp" : "linr"
                            }
                          },
                          "effects" : [

                          ],
                          "start" : 468,
                          "duration" : 105,
                          "mediaStart" : 348,
                          "mediaDuration" : 105,
                          "scalar" : 1,
                          "metadata" : {
                            "AutoAppliedSmartFocus" : "False",
                            "clipSpeedAttribute" : false
                          },
                          "animationTracks" : {

                          }
                        },
                        {
                          "id" : 143,
                          "_type" : "ScreenIMFile",
                          "src" : 1,
                          "trackNumber" : 0,
                          "trimStartSum" : 0,
                          "attributes" : {
                            "ident" : "token_hijacking_attack"
                          },
                          "parameters" : {
                            "cursorOpacity" : 0.0,
                            "cursorScale" : 0.0
                          },
                          "effects" : [

                          ],
                          "start" : 573,
                          "duration" : 60,
                          "mediaStart" : 453,
                          "mediaDuration" : 1,
                          "scalar" : 1,
                          "metadata" : {
                            "AutoAppliedSmartFocus" : "False"
                          },
                          "animationTracks" : {

                          }
                        },
                        {
                          "id" : 144,
                          "_type" : "ScreenVMFile",
                          "src" : 1,
                          "trackNumber" : 0,
                          "attributes" : {
                            "ident" : "token_hijacking_attack"
                          },
                          "parameters" : {
                            "cursorScale" : {
                              "type" : "double",
                              "defaultValue" : 0.0,
                              "interp" : "linr"
                            },
                            "cursorOpacity" : {
                              "type" : "double",
                              "defaultValue" : 0.0,
                              "interp" : "linr"
                            }
                          },
                          "effects" : [

                          ],
                          "start" : 633,
                          "duration" : 1574986,
                          "mediaStart" : 453,
                          "mediaDuration" : 1574986,
                          "scalar" : 1,
                          "metadata" : {
                            "AutoAppliedSmartFocus" : "False",
                            "clipSpeedAttribute" : false
                          },
                          "animationTracks" : {

                          }
                        }
                    ],
                    "effects" : [
                        {
                          "effectName" : "CursorHilight",
                          "category" : "categoryCursorEffects",
                          "parameters" : {
                            "blur" : 0.1,
                            "color-alpha" : 0.75,
                            "color-blue" : 0.0,
                            "color-green" : 1.0,
                            "color-red" : 1.0,
                            "radius" : 50.0
                          }
                        }
                    ],
                    "start" : 857,
                    "duration" : 2,
                    "mediaStart" : 1303,
                    "mediaDuration" : 2,
                    "scalar" : 1,
                    "metadata" : {
                      "AutoAppliedSmartFocus" : "False",
                      "clipSpeedAttribute" : false,
                      "default-scale0" : 3.172876137306,
                      "default-scale1" : 3.17287726679297,
                      "default-translation0" : 2471.77226095314,
                      "default-translation1" : -1235.61824899191
                    },
                    "animationTracks" : {
                      "visual" : [
                        {
                          "endTime" : 237,
                          "duration" : 30,
                          "range" : [ 207, 30]
                        },
                        {
                          "endTime" : 343,
                          "duration" : 30,
                          "range" : [ 313, 30]
                        },
                        {
                          "endTime" : 466,
                          "duration" : 30,
                          "range" : [ 436, 30]
                        },
                        {
                          "endTime" : 632,
                          "duration" : 30,
                          "range" : [ 602, 30]
                        },
                        {
                          "endTime" : 751,
                          "duration" : 30,
                          "range" : [ 721, 30]
                        },
                        {
                          "endTime" : 785,
                          "duration" : 30,
                          "range" : [ 755, 30]
                        },
                        {
                          "endTime" : 814,
                          "duration" : 29,
                          "range" : [ 785, 29]
                        },
                        {
                          "endTime" : 1068,
                          "duration" : 26,
                          "range" : [ 1042, 26]
                        }
                      ]
                    }
                  },
                  {
                    "id" : 145,
                    "_type" : "StitchedMedia",
                    "minMediaStart" : 0,
                    "attributes" : {
                      "ident" : "token_hijacking_attack",
                      "gain" : 1.0,
                      "mixToMono" : false
                    },
                    "parameters" : {
                      "translation0" : {
                        "type" : "double",
                        "defaultValue" : 0.0,
                        "keyframes" : [
                          {
                            "endTime" : 237,
                            "time" : 207,
                            "value" : 6437.05178264923,
                            "duration" : 30
                          },
                          {
                            "endTime" : 343,
                            "time" : 313,
                            "value" : -4.54747350886464e-13,
                            "duration" : 30
                          },
                          {
                            "endTime" : 466,
                            "time" : 436,
                            "value" : 2471.77226095314,
                            "duration" : 30
                          },
                          {
                            "endTime" : 632,
                            "time" : 602,
                            "value" : -1.13686837721616e-13,
                            "duration" : 30
                          },
                          {
                            "endTime" : 751,
                            "time" : 721,
                            "value" : 1777.12723840605,
                            "duration" : 30
                          },
                          {
                            "endTime" : 785,
                            "time" : 755,
                            "value" : -1.13686837721616e-13,
                            "duration" : 30
                          },
                          {
                            "endTime" : 814,
                            "time" : 785,
                            "value" : 946.879645880833,
                            "duration" : 29
                          },
                          {
                            "endTime" : 1068,
                            "time" : 1042,
                            "value" : 1613.60702526176,
                            "duration" : 26
                          }
                        ]
                      },
                      "translation1" : {
                        "type" : "double",
                        "defaultValue" : 0.0,
                        "keyframes" : [
                          {
                            "endTime" : 237,
                            "time" : 207,
                            "value" : -2825.0524936412,
                            "duration" : 30
                          },
                          {
                            "endTime" : 343,
                            "time" : 313,
                            "value" : 5.6843418860808e-14,
                            "duration" : 30
                          },
                          {
                            "endTime" : 466,
                            "time" : 436,
                            "value" : -1235.61824899191,
                            "duration" : 30
                          },
                          {
                            "endTime" : 632,
                            "time" : 602,
                            "value" : 1.13686837721616e-13,
                            "duration" : 30
                          },
                          {
                            "endTime" : 751,
                            "time" : 721,
                            "value" : -129.822625517978,
                            "duration" : 30
                          },
                          {
                            "endTime" : 785,
                            "time" : 755,
                            "value" : -2.1316282072803e-14,
                            "duration" : 30
                          },
                          {
                            "endTime" : 814,
                            "time" : 785,
                            "value" : -532.6,
                            "duration" : 29
                          },
                          {
                            "endTime" : 1068,
                            "time" : 1042,
                            "value" : -277.235424203718,
                            "duration" : 26
                          }
                        ]
                      },
                      "scale0" : {
                        "type" : "double",
                        "defaultValue" : 1.0,
                        "keyframes" : [
                          {
                            "endTime" : 237,
                            "time" : 207,
                            "value" : 6.52631522480847,
                            "duration" : 30
                          },
                          {
                            "endTime" : 343,
                            "time" : 313,
                            "value" : 0.999999999999999,
                            "duration" : 30
                          },
                          {
                            "endTime" : 466,
                            "time" : 436,
                            "value" : 3.172876137306,
                            "duration" : 30
                          },
                          {
                            "endTime" : 632,
                            "time" : 602,
                            "value" : 0.99999964401807,
                            "duration" : 30
                          },
                          {
                            "endTime" : 751,
                            "time" : 721,
                            "value" : 2.83915303535992,
                            "duration" : 30
                          },
                          {
                            "endTime" : 785,
                            "time" : 755,
                            "value" : 0.999999512129719,
                            "duration" : 30
                          },
                          {
                            "endTime" : 814,
                            "time" : 785,
                            "value" : 1.90952759462014,
                            "duration" : 29
                          },
                          {
                            "endTime" : 1068,
                            "time" : 1042,
                            "value" : 2.48123987298737,
                            "duration" : 26
                          }
                        ]
                      },
                      "scale1" : {
                        "type" : "double",
                        "defaultValue" : 1.0,
                        "keyframes" : [
                          {
                            "endTime" : 237,
                            "time" : 207,
                            "value" : 6.52631500328686,
                            "duration" : 30
                          },
                          {
                            "endTime" : 343,
                            "time" : 313,
                            "value" : 0.999999966057169,
                            "duration" : 30
                          },
                          {
                            "endTime" : 466,
                            "time" : 436,
                            "value" : 3.17287726679297,
                            "duration" : 30
                          },
                          {
                            "endTime" : 632,
                            "time" : 602,
                            "value" : 1.0,
                            "duration" : 30
                          },
                          {
                            "endTime" : 751,
                            "time" : 721,
                            "value" : 2.83915442049899,
                            "duration" : 30
                          },
                          {
                            "endTime" : 785,
                            "time" : 755,
                            "value" : 1.0,
                            "duration" : 30
                          },
                          {
                            "endTime" : 814,
                            "time" : 785,
                            "value" : 1.9095287965103,
                            "duration" : 29
                          },
                          {
                            "endTime" : 1068,
                            "time" : 1042,
                            "value" : 2.48124130214435,
                            "duration" : 26
                          }
                        ]
                      },
                      "cursorOpacity" : 1.0,
                      "cursorScale" : 1.0
                    },
                    "medias" : [
                        {
                          "id" : 146,
                          "_type" : "ScreenVMFile",
                          "src" : 1,
                          "trackNumber" : 0,
                          "attributes" : {
                            "ident" : "token_hijacking_attack"
                          },
                          "parameters" : {
                            "cursorScale" : {
                              "type" : "double",
                              "defaultValue" : 0.0,
                              "interp" : "linr"
                            },
                            "cursorOpacity" : {
                              "type" : "double",
                              "defaultValue" : 0.0,
                              "interp" : "linr"
                            }
                          },
                          "effects" : [

                          ],
                          "start" : 0,
                          "duration" : 208,
                          "mediaStart" : 0,
                          "mediaDuration" : 208,
                          "scalar" : 1,
                          "metadata" : {
                            "AutoAppliedSmartFocus" : "False",
                            "clipSpeedAttribute" : false
                          },
                          "animationTracks" : {

                          }
                        },
                        {
                          "id" : 147,
                          "_type" : "ScreenIMFile",
                          "src" : 1,
                          "trackNumber" : 0,
                          "trimStartSum" : 0,
                          "attributes" : {
                            "ident" : "token_hijacking_attack"
                          },
                          "parameters" : {
                            "cursorOpacity" : 0.0,
                            "cursorScale" : 0.0
                          },
                          "effects" : [

                          ],
                          "start" : 208,
                          "duration" : 90,
                          "mediaStart" : 207,
                          "mediaDuration" : 1,
                          "scalar" : 1,
                          "metadata" : {
                            "AutoAppliedSmartFocus" : "False"
                          },
                          "animationTracks" : {

                          }
                        },
                        {
                          "id" : 148,
                          "_type" : "ScreenVMFile",
                          "src" : 1,
                          "trackNumber" : 0,
                          "attributes" : {
                            "ident" : "token_hijacking_attack"
                          },
                          "parameters" : {
                            "cursorScale" : {
                              "type" : "double",
                              "defaultValue" : 0.0,
                              "interp" : "linr"
                            },
                            "cursorOpacity" : {
                              "type" : "double",
                              "defaultValue" : 0.0,
                              "interp" : "linr"
                            }
                          },
                          "effects" : [

                          ],
                          "start" : 298,
                          "duration" : 140,
                          "mediaStart" : 208,
                          "mediaDuration" : 140,
                          "scalar" : 1,
                          "metadata" : {
                            "AutoAppliedSmartFocus" : "False",
                            "clipSpeedAttribute" : false
                          },
                          "animationTracks" : {

                          }
                        },
                        {
                          "id" : 149,
                          "_type" : "ScreenIMFile",
                          "src" : 1,
                          "trackNumber" : 0,
                          "trimStartSum" : 0,
                          "attributes" : {
                            "ident" : "token_hijacking_attack"
                          },
                          "parameters" : {
                            "cursorOpacity" : 0.0,
                            "cursorScale" : 0.0
                          },
                          "effects" : [

                          ],
                          "start" : 438,
                          "duration" : 30,
                          "mediaStart" : 348,
                          "mediaDuration" : 1,
                          "scalar" : 1,
                          "metadata" : {
                            "AutoAppliedSmartFocus" : "False"
                          },
                          "animationTracks" : {

                          }
                        },
                        {
                          "id" : 150,
                          "_type" : "ScreenVMFile",
                          "src" : 1,
                          "trackNumber" : 0,
                          "attributes" : {
                            "ident" : "token_hijacking_attack"
                          },
                          "parameters" : {
                            "cursorScale" : {
                              "type" : "double",
                              "defaultValue" : 0.0,
                              "interp" : "linr"
                            },
                            "cursorOpacity" : {
                              "type" : "double",
                              "defaultValue" : 0.0,
                              "interp" : "linr"
                            }
                          },
                          "effects" : [

                          ],
                          "start" : 468,
                          "duration" : 105,
                          "mediaStart" : 348,
                          "mediaDuration" : 105,
                          "scalar" : 1,
                          "metadata" : {
                            "AutoAppliedSmartFocus" : "False",
                            "clipSpeedAttribute" : false
                          },
                          "animationTracks" : {

                          }
                        },
                        {
                          "id" : 151,
                          "_type" : "ScreenIMFile",
                          "src" : 1,
                          "trackNumber" : 0,
                          "trimStartSum" : 0,
                          "attributes" : {
                            "ident" : "token_hijacking_attack"
                          },
                          "parameters" : {
                            "cursorOpacity" : 0.0,
                            "cursorScale" : 0.0
                          },
                          "effects" : [

                          ],
                          "start" : 573,
                          "duration" : 60,
                          "mediaStart" : 453,
                          "mediaDuration" : 1,
                          "scalar" : 1,
                          "metadata" : {
                            "AutoAppliedSmartFocus" : "False"
                          },
                          "animationTracks" : {

                          }
                        },
                        {
                          "id" : 152,
                          "_type" : "ScreenVMFile",
                          "src" : 1,
                          "trackNumber" : 0,
                          "attributes" : {
                            "ident" : "token_hijacking_attack"
                          },
                          "parameters" : {
                            "cursorScale" : {
                              "type" : "double",
                              "defaultValue" : 0.0,
                              "interp" : "linr"
                            },
                            "cursorOpacity" : {
                              "type" : "double",
                              "defaultValue" : 0.0,
                              "interp" : "linr"
                            }
                          },
                          "effects" : [

                          ],
                          "start" : 633,
                          "duration" : 1574986,
                          "mediaStart" : 453,
                          "mediaDuration" : 1574986,
                          "scalar" : 1,
                          "metadata" : {
                            "AutoAppliedSmartFocus" : "False",
                            "clipSpeedAttribute" : false
                          },
                          "animationTracks" : {

                          }
                        }
                    ],
                    "effects" : [
                        {
                          "effectName" : "CursorHilight",
                          "category" : "categoryCursorEffects",
                          "parameters" : {
                            "blur" : 0.1,
                            "color-alpha" : 0.75,
                            "color-blue" : 0.0,
                            "color-green" : 1.0,
                            "color-red" : 1.0,
                            "radius" : 50.0
                          }
                        }
                    ],
                    "start" : 859,
                    "duration" : 3,
                    "mediaStart" : 1434,
                    "mediaDuration" : 3,
                    "scalar" : 1,
                    "metadata" : {
                      "AutoAppliedSmartFocus" : "False",
                      "clipSpeedAttribute" : false,
                      "default-scale0" : 3.172876137306,
                      "default-scale1" : 3.17287726679297,
                      "default-translation0" : 2471.77226095314,
                      "default-translation1" : -1235.61824899191
                    },
                    "animationTracks" : {
                      "visual" : [
                        {
                          "endTime" : 237,
                          "duration" : 30,
                          "range" : [ 207, 30]
                        },
                        {
                          "endTime" : 343,
                          "duration" : 30,
                          "range" : [ 313, 30]
                        },
                        {
                          "endTime" : 466,
                          "duration" : 30,
                          "range" : [ 436, 30]
                        },
                        {
                          "endTime" : 632,
                          "duration" : 30,
                          "range" : [ 602, 30]
                        },
                        {
                          "endTime" : 751,
                          "duration" : 30,
                          "range" : [ 721, 30]
                        },
                        {
                          "endTime" : 785,
                          "duration" : 30,
                          "range" : [ 755, 30]
                        },
                        {
                          "endTime" : 814,
                          "duration" : 29,
                          "range" : [ 785, 29]
                        },
                        {
                          "endTime" : 1068,
                          "duration" : 26,
                          "range" : [ 1042, 26]
                        }
                      ]
                    }
                  },
                  {
                    "id" : 153,
                    "_type" : "StitchedMedia",
                    "minMediaStart" : 0,
                    "attributes" : {
                      "ident" : "token_hijacking_attack",
                      "gain" : 1.0,
                      "mixToMono" : false
                    },
                    "parameters" : {
                      "translation0" : {
                        "type" : "double",
                        "defaultValue" : 0.0,
                        "keyframes" : [
                          {
                            "endTime" : 237,
                            "time" : 207,
                            "value" : 6437.05178264923,
                            "duration" : 30
                          },
                          {
                            "endTime" : 343,
                            "time" : 313,
                            "value" : -4.54747350886464e-13,
                            "duration" : 30
                          },
                          {
                            "endTime" : 466,
                            "time" : 436,
                            "value" : 2471.77226095314,
                            "duration" : 30
                          },
                          {
                            "endTime" : 632,
                            "time" : 602,
                            "value" : -1.13686837721616e-13,
                            "duration" : 30
                          },
                          {
                            "endTime" : 751,
                            "time" : 721,
                            "value" : 1777.12723840605,
                            "duration" : 30
                          },
                          {
                            "endTime" : 785,
                            "time" : 755,
                            "value" : -1.13686837721616e-13,
                            "duration" : 30
                          },
                          {
                            "endTime" : 814,
                            "time" : 785,
                            "value" : 946.879645880833,
                            "duration" : 29
                          },
                          {
                            "endTime" : 1068,
                            "time" : 1042,
                            "value" : 1613.60702526176,
                            "duration" : 26
                          }
                        ]
                      },
                      "translation1" : {
                        "type" : "double",
                        "defaultValue" : 0.0,
                        "keyframes" : [
                          {
                            "endTime" : 237,
                            "time" : 207,
                            "value" : -2825.0524936412,
                            "duration" : 30
                          },
                          {
                            "endTime" : 343,
                            "time" : 313,
                            "value" : 5.6843418860808e-14,
                            "duration" : 30
                          },
                          {
                            "endTime" : 466,
                            "time" : 436,
                            "value" : -1235.61824899191,
                            "duration" : 30
                          },
                          {
                            "endTime" : 632,
                            "time" : 602,
                            "value" : 1.13686837721616e-13,
                            "duration" : 30
                          },
                          {
                            "endTime" : 751,
                            "time" : 721,
                            "value" : -129.822625517978,
                            "duration" : 30
                          },
                          {
                            "endTime" : 785,
                            "time" : 755,
                            "value" : -2.1316282072803e-14,
                            "duration" : 30
                          },
                          {
                            "endTime" : 814,
                            "time" : 785,
                            "value" : -532.6,
                            "duration" : 29
                          },
                          {
                            "endTime" : 1068,
                            "time" : 1042,
                            "value" : -277.235424203718,
                            "duration" : 26
                          }
                        ]
                      },
                      "scale0" : {
                        "type" : "double",
                        "defaultValue" : 1.0,
                        "keyframes" : [
                          {
                            "endTime" : 237,
                            "time" : 207,
                            "value" : 6.52631522480847,
                            "duration" : 30
                          },
                          {
                            "endTime" : 343,
                            "time" : 313,
                            "value" : 0.999999999999999,
                            "duration" : 30
                          },
                          {
                            "endTime" : 466,
                            "time" : 436,
                            "value" : 3.172876137306,
                            "duration" : 30
                          },
                          {
                            "endTime" : 632,
                            "time" : 602,
                            "value" : 0.99999964401807,
                            "duration" : 30
                          },
                          {
                            "endTime" : 751,
                            "time" : 721,
                            "value" : 2.83915303535992,
                            "duration" : 30
                          },
                          {
                            "endTime" : 785,
                            "time" : 755,
                            "value" : 0.999999512129719,
                            "duration" : 30
                          },
                          {
                            "endTime" : 814,
                            "time" : 785,
                            "value" : 1.90952759462014,
                            "duration" : 29
                          },
                          {
                            "endTime" : 1068,
                            "time" : 1042,
                            "value" : 2.48123987298737,
                            "duration" : 26
                          }
                        ]
                      },
                      "scale1" : {
                        "type" : "double",
                        "defaultValue" : 1.0,
                        "keyframes" : [
                          {
                            "endTime" : 237,
                            "time" : 207,
                            "value" : 6.52631500328686,
                            "duration" : 30
                          },
                          {
                            "endTime" : 343,
                            "time" : 313,
                            "value" : 0.999999966057169,
                            "duration" : 30
                          },
                          {
                            "endTime" : 466,
                            "time" : 436,
                            "value" : 3.17287726679297,
                            "duration" : 30
                          },
                          {
                            "endTime" : 632,
                            "time" : 602,
                            "value" : 1.0,
                            "duration" : 30
                          },
                          {
                            "endTime" : 751,
                            "time" : 721,
                            "value" : 2.83915442049899,
                            "duration" : 30
                          },
                          {
                            "endTime" : 785,
                            "time" : 755,
                            "value" : 1.0,
                            "duration" : 30
                          },
                          {
                            "endTime" : 814,
                            "time" : 785,
                            "value" : 1.9095287965103,
                            "duration" : 29
                          },
                          {
                            "endTime" : 1068,
                            "time" : 1042,
                            "value" : 2.48124130214435,
                            "duration" : 26
                          }
                        ]
                      },
                      "cursorOpacity" : 1.0,
                      "cursorScale" : 1.0
                    },
                    "medias" : [
                        {
                          "id" : 154,
                          "_type" : "ScreenVMFile",
                          "src" : 1,
                          "trackNumber" : 0,
                          "attributes" : {
                            "ident" : "token_hijacking_attack"
                          },
                          "parameters" : {
                            "cursorScale" : {
                              "type" : "double",
                              "defaultValue" : 0.0,
                              "interp" : "linr"
                            },
                            "cursorOpacity" : {
                              "type" : "double",
                              "defaultValue" : 0.0,
                              "interp" : "linr"
                            }
                          },
                          "effects" : [

                          ],
                          "start" : 0,
                          "duration" : 208,
                          "mediaStart" : 0,
                          "mediaDuration" : 208,
                          "scalar" : 1,
                          "metadata" : {
                            "AutoAppliedSmartFocus" : "False",
                            "clipSpeedAttribute" : false
                          },
                          "animationTracks" : {

                          }
                        },
                        {
                          "id" : 155,
                          "_type" : "ScreenIMFile",
                          "src" : 1,
                          "trackNumber" : 0,
                          "trimStartSum" : 0,
                          "attributes" : {
                            "ident" : "token_hijacking_attack"
                          },
                          "parameters" : {
                            "cursorOpacity" : 0.0,
                            "cursorScale" : 0.0
                          },
                          "effects" : [

                          ],
                          "start" : 208,
                          "duration" : 90,
                          "mediaStart" : 207,
                          "mediaDuration" : 1,
                          "scalar" : 1,
                          "metadata" : {
                            "AutoAppliedSmartFocus" : "False"
                          },
                          "animationTracks" : {

                          }
                        },
                        {
                          "id" : 156,
                          "_type" : "ScreenVMFile",
                          "src" : 1,
                          "trackNumber" : 0,
                          "attributes" : {
                            "ident" : "token_hijacking_attack"
                          },
                          "parameters" : {
                            "cursorScale" : {
                              "type" : "double",
                              "defaultValue" : 0.0,
                              "interp" : "linr"
                            },
                            "cursorOpacity" : {
                              "type" : "double",
                              "defaultValue" : 0.0,
                              "interp" : "linr"
                            }
                          },
                          "effects" : [

                          ],
                          "start" : 298,
                          "duration" : 140,
                          "mediaStart" : 208,
                          "mediaDuration" : 140,
                          "scalar" : 1,
                          "metadata" : {
                            "AutoAppliedSmartFocus" : "False",
                            "clipSpeedAttribute" : false
                          },
                          "animationTracks" : {

                          }
                        },
                        {
                          "id" : 157,
                          "_type" : "ScreenIMFile",
                          "src" : 1,
                          "trackNumber" : 0,
                          "trimStartSum" : 0,
                          "attributes" : {
                            "ident" : "token_hijacking_attack"
                          },
                          "parameters" : {
                            "cursorOpacity" : 0.0,
                            "cursorScale" : 0.0
                          },
                          "effects" : [

                          ],
                          "start" : 438,
                          "duration" : 30,
                          "mediaStart" : 348,
                          "mediaDuration" : 1,
                          "scalar" : 1,
                          "metadata" : {
                            "AutoAppliedSmartFocus" : "False"
                          },
                          "animationTracks" : {

                          }
                        },
                        {
                          "id" : 158,
                          "_type" : "ScreenVMFile",
                          "src" : 1,
                          "trackNumber" : 0,
                          "attributes" : {
                            "ident" : "token_hijacking_attack"
                          },
                          "parameters" : {
                            "cursorScale" : {
                              "type" : "double",
                              "defaultValue" : 0.0,
                              "interp" : "linr"
                            },
                            "cursorOpacity" : {
                              "type" : "double",
                              "defaultValue" : 0.0,
                              "interp" : "linr"
                            }
                          },
                          "effects" : [

                          ],
                          "start" : 468,
                          "duration" : 105,
                          "mediaStart" : 348,
                          "mediaDuration" : 105,
                          "scalar" : 1,
                          "metadata" : {
                            "AutoAppliedSmartFocus" : "False",
                            "clipSpeedAttribute" : false
                          },
                          "animationTracks" : {

                          }
                        },
                        {
                          "id" : 159,
                          "_type" : "ScreenIMFile",
                          "src" : 1,
                          "trackNumber" : 0,
                          "trimStartSum" : 0,
                          "attributes" : {
                            "ident" : "token_hijacking_attack"
                          },
                          "parameters" : {
                            "cursorOpacity" : 0.0,
                            "cursorScale" : 0.0
                          },
                          "effects" : [

                          ],
                          "start" : 573,
                          "duration" : 60,
                          "mediaStart" : 453,
                          "mediaDuration" : 1,
                          "scalar" : 1,
                          "metadata" : {
                            "AutoAppliedSmartFocus" : "False"
                          },
                          "animationTracks" : {

                          }
                        },
                        {
                          "id" : 160,
                          "_type" : "ScreenVMFile",
                          "src" : 1,
                          "trackNumber" : 0,
                          "attributes" : {
                            "ident" : "token_hijacking_attack"
                          },
                          "parameters" : {
                            "cursorScale" : {
                              "type" : "double",
                              "defaultValue" : 0.0,
                              "interp" : "linr"
                            },
                            "cursorOpacity" : {
                              "type" : "double",
                              "defaultValue" : 0.0,
                              "interp" : "linr"
                            }
                          },
                          "effects" : [

                          ],
                          "start" : 633,
                          "duration" : 1574986,
                          "mediaStart" : 453,
                          "mediaDuration" : 1574986,
                          "scalar" : 1,
                          "metadata" : {
                            "AutoAppliedSmartFocus" : "False",
                            "clipSpeedAttribute" : false
                          },
                          "animationTracks" : {

                          }
                        }
                    ],
                    "effects" : [
                        {
                          "effectName" : "CursorHilight",
                          "category" : "categoryCursorEffects",
                          "parameters" : {
                            "blur" : 0.1,
                            "color-alpha" : 0.75,
                            "color-blue" : 0.0,
                            "color-green" : 1.0,
                            "color-red" : 1.0,
                            "radius" : 50.0
                          }
                        }
                    ],
                    "start" : 862,
                    "duration" : 5,
                    "mediaStart" : 1565,
                    "mediaDuration" : 5,
                    "scalar" : 1,
                    "metadata" : {
                      "AutoAppliedSmartFocus" : "False",
                      "clipSpeedAttribute" : false,
                      "default-scale0" : 3.172876137306,
                      "default-scale1" : 3.17287726679297,
                      "default-translation0" : 2471.77226095314,
                      "default-translation1" : -1235.61824899191
                    },
                    "animationTracks" : {
                      "visual" : [
                        {
                          "endTime" : 237,
                          "duration" : 30,
                          "range" : [ 207, 30]
                        },
                        {
                          "endTime" : 343,
                          "duration" : 30,
                          "range" : [ 313, 30]
                        },
                        {
                          "endTime" : 466,
                          "duration" : 30,
                          "range" : [ 436, 30]
                        },
                        {
                          "endTime" : 632,
                          "duration" : 30,
                          "range" : [ 602, 30]
                        },
                        {
                          "endTime" : 751,
                          "duration" : 30,
                          "range" : [ 721, 30]
                        },
                        {
                          "endTime" : 785,
                          "duration" : 30,
                          "range" : [ 755, 30]
                        },
                        {
                          "endTime" : 814,
                          "duration" : 29,
                          "range" : [ 785, 29]
                        },
                        {
                          "endTime" : 1068,
                          "duration" : 26,
                          "range" : [ 1042, 26]
                        }
                      ]
                    }
                  },
                  {
                    "id" : 161,
                    "_type" : "StitchedMedia",
                    "minMediaStart" : 0,
                    "attributes" : {
                      "ident" : "token_hijacking_attack",
                      "gain" : 1.0,
                      "mixToMono" : false
                    },
                    "parameters" : {
                      "translation0" : {
                        "type" : "double",
                        "defaultValue" : 0.0,
                        "keyframes" : [
                          {
                            "endTime" : 237,
                            "time" : 207,
                            "value" : 6437.05178264923,
                            "duration" : 30
                          },
                          {
                            "endTime" : 343,
                            "time" : 313,
                            "value" : -4.54747350886464e-13,
                            "duration" : 30
                          },
                          {
                            "endTime" : 466,
                            "time" : 436,
                            "value" : 2471.77226095314,
                            "duration" : 30
                          },
                          {
                            "endTime" : 632,
                            "time" : 602,
                            "value" : -1.13686837721616e-13,
                            "duration" : 30
                          },
                          {
                            "endTime" : 751,
                            "time" : 721,
                            "value" : 1777.12723840605,
                            "duration" : 30
                          },
                          {
                            "endTime" : 785,
                            "time" : 755,
                            "value" : -1.13686837721616e-13,
                            "duration" : 30
                          },
                          {
                            "endTime" : 814,
                            "time" : 785,
                            "value" : 946.879645880833,
                            "duration" : 29
                          },
                          {
                            "endTime" : 1068,
                            "time" : 1042,
                            "value" : 1613.60702526176,
                            "duration" : 26
                          }
                        ]
                      },
                      "translation1" : {
                        "type" : "double",
                        "defaultValue" : 0.0,
                        "keyframes" : [
                          {
                            "endTime" : 237,
                            "time" : 207,
                            "value" : -2825.0524936412,
                            "duration" : 30
                          },
                          {
                            "endTime" : 343,
                            "time" : 313,
                            "value" : 5.6843418860808e-14,
                            "duration" : 30
                          },
                          {
                            "endTime" : 466,
                            "time" : 436,
                            "value" : -1235.61824899191,
                            "duration" : 30
                          },
                          {
                            "endTime" : 632,
                            "time" : 602,
                            "value" : 1.13686837721616e-13,
                            "duration" : 30
                          },
                          {
                            "endTime" : 751,
                            "time" : 721,
                            "value" : -129.822625517978,
                            "duration" : 30
                          },
                          {
                            "endTime" : 785,
                            "time" : 755,
                            "value" : -2.1316282072803e-14,
                            "duration" : 30
                          },
                          {
                            "endTime" : 814,
                            "time" : 785,
                            "value" : -532.6,
                            "duration" : 29
                          },
                          {
                            "endTime" : 1068,
                            "time" : 1042,
                            "value" : -277.235424203718,
                            "duration" : 26
                          }
                        ]
                      },
                      "scale0" : {
                        "type" : "double",
                        "defaultValue" : 1.0,
                        "keyframes" : [
                          {
                            "endTime" : 237,
                            "time" : 207,
                            "value" : 6.52631522480847,
                            "duration" : 30
                          },
                          {
                            "endTime" : 343,
                            "time" : 313,
                            "value" : 0.999999999999999,
                            "duration" : 30
                          },
                          {
                            "endTime" : 466,
                            "time" : 436,
                            "value" : 3.172876137306,
                            "duration" : 30
                          },
                          {
                            "endTime" : 632,
                            "time" : 602,
                            "value" : 0.99999964401807,
                            "duration" : 30
                          },
                          {
                            "endTime" : 751,
                            "time" : 721,
                            "value" : 2.83915303535992,
                            "duration" : 30
                          },
                          {
                            "endTime" : 785,
                            "time" : 755,
                            "value" : 0.999999512129719,
                            "duration" : 30
                          },
                          {
                            "endTime" : 814,
                            "time" : 785,
                            "value" : 1.90952759462014,
                            "duration" : 29
                          },
                          {
                            "endTime" : 1068,
                            "time" : 1042,
                            "value" : 2.48123987298737,
                            "duration" : 26
                          }
                        ]
                      },
                      "scale1" : {
                        "type" : "double",
                        "defaultValue" : 1.0,
                        "keyframes" : [
                          {
                            "endTime" : 237,
                            "time" : 207,
                            "value" : 6.52631500328686,
                            "duration" : 30
                          },
                          {
                            "endTime" : 343,
                            "time" : 313,
                            "value" : 0.999999966057169,
                            "duration" : 30
                          },
                          {
                            "endTime" : 466,
                            "time" : 436,
                            "value" : 3.17287726679297,
                            "duration" : 30
                          },
                          {
                            "endTime" : 632,
                            "time" : 602,
                            "value" : 1.0,
                            "duration" : 30
                          },
                          {
                            "endTime" : 751,
                            "time" : 721,
                            "value" : 2.83915442049899,
                            "duration" : 30
                          },
                          {
                            "endTime" : 785,
                            "time" : 755,
                            "value" : 1.0,
                            "duration" : 30
                          },
                          {
                            "endTime" : 814,
                            "time" : 785,
                            "value" : 1.9095287965103,
                            "duration" : 29
                          },
                          {
                            "endTime" : 1068,
                            "time" : 1042,
                            "value" : 2.48124130214435,
                            "duration" : 26
                          }
                        ]
                      },
                      "cursorOpacity" : 1.0,
                      "cursorScale" : 1.0
                    },
                    "medias" : [
                        {
                          "id" : 162,
                          "_type" : "ScreenVMFile",
                          "src" : 1,
                          "trackNumber" : 0,
                          "attributes" : {
                            "ident" : "token_hijacking_attack"
                          },
                          "parameters" : {
                            "cursorScale" : {
                              "type" : "double",
                              "defaultValue" : 0.0,
                              "interp" : "linr"
                            },
                            "cursorOpacity" : {
                              "type" : "double",
                              "defaultValue" : 0.0,
                              "interp" : "linr"
                            }
                          },
                          "effects" : [

                          ],
                          "start" : 0,
                          "duration" : 208,
                          "mediaStart" : 0,
                          "mediaDuration" : 208,
                          "scalar" : 1,
                          "metadata" : {
                            "AutoAppliedSmartFocus" : "False",
                            "clipSpeedAttribute" : false
                          },
                          "animationTracks" : {

                          }
                        },
                        {
                          "id" : 163,
                          "_type" : "ScreenIMFile",
                          "src" : 1,
                          "trackNumber" : 0,
                          "trimStartSum" : 0,
                          "attributes" : {
                            "ident" : "token_hijacking_attack"
                          },
                          "parameters" : {
                            "cursorOpacity" : 0.0,
                            "cursorScale" : 0.0
                          },
                          "effects" : [

                          ],
                          "start" : 208,
                          "duration" : 90,
                          "mediaStart" : 207,
                          "mediaDuration" : 1,
                          "scalar" : 1,
                          "metadata" : {
                            "AutoAppliedSmartFocus" : "False"
                          },
                          "animationTracks" : {

                          }
                        },
                        {
                          "id" : 164,
                          "_type" : "ScreenVMFile",
                          "src" : 1,
                          "trackNumber" : 0,
                          "attributes" : {
                            "ident" : "token_hijacking_attack"
                          },
                          "parameters" : {
                            "cursorScale" : {
                              "type" : "double",
                              "defaultValue" : 0.0,
                              "interp" : "linr"
                            },
                            "cursorOpacity" : {
                              "type" : "double",
                              "defaultValue" : 0.0,
                              "interp" : "linr"
                            }
                          },
                          "effects" : [

                          ],
                          "start" : 298,
                          "duration" : 140,
                          "mediaStart" : 208,
                          "mediaDuration" : 140,
                          "scalar" : 1,
                          "metadata" : {
                            "AutoAppliedSmartFocus" : "False",
                            "clipSpeedAttribute" : false
                          },
                          "animationTracks" : {

                          }
                        },
                        {
                          "id" : 165,
                          "_type" : "ScreenIMFile",
                          "src" : 1,
                          "trackNumber" : 0,
                          "trimStartSum" : 0,
                          "attributes" : {
                            "ident" : "token_hijacking_attack"
                          },
                          "parameters" : {
                            "cursorOpacity" : 0.0,
                            "cursorScale" : 0.0
                          },
                          "effects" : [

                          ],
                          "start" : 438,
                          "duration" : 30,
                          "mediaStart" : 348,
                          "mediaDuration" : 1,
                          "scalar" : 1,
                          "metadata" : {
                            "AutoAppliedSmartFocus" : "False"
                          },
                          "animationTracks" : {

                          }
                        },
                        {
                          "id" : 166,
                          "_type" : "ScreenVMFile",
                          "src" : 1,
                          "trackNumber" : 0,
                          "attributes" : {
                            "ident" : "token_hijacking_attack"
                          },
                          "parameters" : {
                            "cursorScale" : {
                              "type" : "double",
                              "defaultValue" : 0.0,
                              "interp" : "linr"
                            },
                            "cursorOpacity" : {
                              "type" : "double",
                              "defaultValue" : 0.0,
                              "interp" : "linr"
                            }
                          },
                          "effects" : [

                          ],
                          "start" : 468,
                          "duration" : 105,
                          "mediaStart" : 348,
                          "mediaDuration" : 105,
                          "scalar" : 1,
                          "metadata" : {
                            "AutoAppliedSmartFocus" : "False",
                            "clipSpeedAttribute" : false
                          },
                          "animationTracks" : {

                          }
                        },
                        {
                          "id" : 167,
                          "_type" : "ScreenIMFile",
                          "src" : 1,
                          "trackNumber" : 0,
                          "trimStartSum" : 0,
                          "attributes" : {
                            "ident" : "token_hijacking_attack"
                          },
                          "parameters" : {
                            "cursorOpacity" : 0.0,
                            "cursorScale" : 0.0
                          },
                          "effects" : [

                          ],
                          "start" : 573,
                          "duration" : 60,
                          "mediaStart" : 453,
                          "mediaDuration" : 1,
                          "scalar" : 1,
                          "metadata" : {
                            "AutoAppliedSmartFocus" : "False"
                          },
                          "animationTracks" : {

                          }
                        },
                        {
                          "id" : 168,
                          "_type" : "ScreenVMFile",
                          "src" : 1,
                          "trackNumber" : 0,
                          "attributes" : {
                            "ident" : "token_hijacking_attack"
                          },
                          "parameters" : {
                            "cursorScale" : {
                              "type" : "double",
                              "defaultValue" : 0.0,
                              "interp" : "linr"
                            },
                            "cursorOpacity" : {
                              "type" : "double",
                              "defaultValue" : 0.0,
                              "interp" : "linr"
                            }
                          },
                          "effects" : [

                          ],
                          "start" : 633,
                          "duration" : 1574986,
                          "mediaStart" : 453,
                          "mediaDuration" : 1574986,
                          "scalar" : 1,
                          "metadata" : {
                            "AutoAppliedSmartFocus" : "False",
                            "clipSpeedAttribute" : false
                          },
                          "animationTracks" : {

                          }
                        }
                    ],
                    "effects" : [
                        {
                          "effectName" : "CursorHilight",
                          "category" : "categoryCursorEffects",
                          "parameters" : {
                            "blur" : 0.1,
                            "color-alpha" : 0.75,
                            "color-blue" : 0.0,
                            "color-green" : 1.0,
                            "color-red" : 1.0,
                            "radius" : 50.0
                          }
                        }
                    ],
                    "start" : 867,
                    "duration" : 7,
                    "mediaStart" : 1697,
                    "mediaDuration" : 7,
                    "scalar" : 1,
                    "metadata" : {
                      "AutoAppliedSmartFocus" : "False",
                      "clipSpeedAttribute" : false,
                      "default-scale0" : 3.172876137306,
                      "default-scale1" : 3.17287726679297,
                      "default-translation0" : 2471.77226095314,
                      "default-translation1" : -1235.61824899191
                    },
                    "animationTracks" : {
                      "visual" : [
                        {
                          "endTime" : 237,
                          "duration" : 30,
                          "range" : [ 207, 30]
                        },
                        {
                          "endTime" : 343,
                          "duration" : 30,
                          "range" : [ 313, 30]
                        },
                        {
                          "endTime" : 466,
                          "duration" : 30,
                          "range" : [ 436, 30]
                        },
                        {
                          "endTime" : 632,
                          "duration" : 30,
                          "range" : [ 602, 30]
                        },
                        {
                          "endTime" : 751,
                          "duration" : 30,
                          "range" : [ 721, 30]
                        },
                        {
                          "endTime" : 785,
                          "duration" : 30,
                          "range" : [ 755, 30]
                        },
                        {
                          "endTime" : 814,
                          "duration" : 29,
                          "range" : [ 785, 29]
                        },
                        {
                          "endTime" : 1068,
                          "duration" : 26,
                          "range" : [ 1042, 26]
                        }
                      ]
                    }
                  },
                  {
                    "id" : 169,
                    "_type" : "StitchedMedia",
                    "minMediaStart" : 0,
                    "attributes" : {
                      "ident" : "token_hijacking_attack",
                      "gain" : 1.0,
                      "mixToMono" : false
                    },
                    "parameters" : {
                      "translation0" : {
                        "type" : "double",
                        "defaultValue" : 0.0,
                        "keyframes" : [
                          {
                            "endTime" : 237,
                            "time" : 207,
                            "value" : 6437.05178264923,
                            "duration" : 30
                          },
                          {
                            "endTime" : 343,
                            "time" : 313,
                            "value" : -4.54747350886464e-13,
                            "duration" : 30
                          },
                          {
                            "endTime" : 466,
                            "time" : 436,
                            "value" : 2471.77226095314,
                            "duration" : 30
                          },
                          {
                            "endTime" : 632,
                            "time" : 602,
                            "value" : -1.13686837721616e-13,
                            "duration" : 30
                          },
                          {
                            "endTime" : 751,
                            "time" : 721,
                            "value" : 1777.12723840605,
                            "duration" : 30
                          },
                          {
                            "endTime" : 785,
                            "time" : 755,
                            "value" : -1.13686837721616e-13,
                            "duration" : 30
                          },
                          {
                            "endTime" : 814,
                            "time" : 785,
                            "value" : 946.879645880833,
                            "duration" : 29
                          },
                          {
                            "endTime" : 1068,
                            "time" : 1042,
                            "value" : 1613.60702526176,
                            "duration" : 26
                          }
                        ]
                      },
                      "translation1" : {
                        "type" : "double",
                        "defaultValue" : 0.0,
                        "keyframes" : [
                          {
                            "endTime" : 237,
                            "time" : 207,
                            "value" : -2825.0524936412,
                            "duration" : 30
                          },
                          {
                            "endTime" : 343,
                            "time" : 313,
                            "value" : 5.6843418860808e-14,
                            "duration" : 30
                          },
                          {
                            "endTime" : 466,
                            "time" : 436,
                            "value" : -1235.61824899191,
                            "duration" : 30
                          },
                          {
                            "endTime" : 632,
                            "time" : 602,
                            "value" : 1.13686837721616e-13,
                            "duration" : 30
                          },
                          {
                            "endTime" : 751,
                            "time" : 721,
                            "value" : -129.822625517978,
                            "duration" : 30
                          },
                          {
                            "endTime" : 785,
                            "time" : 755,
                            "value" : -2.1316282072803e-14,
                            "duration" : 30
                          },
                          {
                            "endTime" : 814,
                            "time" : 785,
                            "value" : -532.6,
                            "duration" : 29
                          },
                          {
                            "endTime" : 1068,
                            "time" : 1042,
                            "value" : -277.235424203718,
                            "duration" : 26
                          }
                        ]
                      },
                      "scale0" : {
                        "type" : "double",
                        "defaultValue" : 1.0,
                        "keyframes" : [
                          {
                            "endTime" : 237,
                            "time" : 207,
                            "value" : 6.52631522480847,
                            "duration" : 30
                          },
                          {
                            "endTime" : 343,
                            "time" : 313,
                            "value" : 0.999999999999999,
                            "duration" : 30
                          },
                          {
                            "endTime" : 466,
                            "time" : 436,
                            "value" : 3.172876137306,
                            "duration" : 30
                          },
                          {
                            "endTime" : 632,
                            "time" : 602,
                            "value" : 0.99999964401807,
                            "duration" : 30
                          },
                          {
                            "endTime" : 751,
                            "time" : 721,
                            "value" : 2.83915303535992,
                            "duration" : 30
                          },
                          {
                            "endTime" : 785,
                            "time" : 755,
                            "value" : 0.999999512129719,
                            "duration" : 30
                          },
                          {
                            "endTime" : 814,
                            "time" : 785,
                            "value" : 1.90952759462014,
                            "duration" : 29
                          },
                          {
                            "endTime" : 1068,
                            "time" : 1042,
                            "value" : 2.48123987298737,
                            "duration" : 26
                          }
                        ]
                      },
                      "scale1" : {
                        "type" : "double",
                        "defaultValue" : 1.0,
                        "keyframes" : [
                          {
                            "endTime" : 237,
                            "time" : 207,
                            "value" : 6.52631500328686,
                            "duration" : 30
                          },
                          {
                            "endTime" : 343,
                            "time" : 313,
                            "value" : 0.999999966057169,
                            "duration" : 30
                          },
                          {
                            "endTime" : 466,
                            "time" : 436,
                            "value" : 3.17287726679297,
                            "duration" : 30
                          },
                          {
                            "endTime" : 632,
                            "time" : 602,
                            "value" : 1.0,
                            "duration" : 30
                          },
                          {
                            "endTime" : 751,
                            "time" : 721,
                            "value" : 2.83915442049899,
                            "duration" : 30
                          },
                          {
                            "endTime" : 785,
                            "time" : 755,
                            "value" : 1.0,
                            "duration" : 30
                          },
                          {
                            "endTime" : 814,
                            "time" : 785,
                            "value" : 1.9095287965103,
                            "duration" : 29
                          },
                          {
                            "endTime" : 1068,
                            "time" : 1042,
                            "value" : 2.48124130214435,
                            "duration" : 26
                          }
                        ]
                      },
                      "cursorOpacity" : 1.0,
                      "cursorScale" : 1.0
                    },
                    "medias" : [
                        {
                          "id" : 170,
                          "_type" : "ScreenVMFile",
                          "src" : 1,
                          "trackNumber" : 0,
                          "attributes" : {
                            "ident" : "token_hijacking_attack"
                          },
                          "parameters" : {
                            "cursorScale" : {
                              "type" : "double",
                              "defaultValue" : 0.0,
                              "interp" : "linr"
                            },
                            "cursorOpacity" : {
                              "type" : "double",
                              "defaultValue" : 0.0,
                              "interp" : "linr"
                            }
                          },
                          "effects" : [

                          ],
                          "start" : 0,
                          "duration" : 208,
                          "mediaStart" : 0,
                          "mediaDuration" : 208,
                          "scalar" : 1,
                          "metadata" : {
                            "AutoAppliedSmartFocus" : "False",
                            "clipSpeedAttribute" : false
                          },
                          "animationTracks" : {

                          }
                        },
                        {
                          "id" : 171,
                          "_type" : "ScreenIMFile",
                          "src" : 1,
                          "trackNumber" : 0,
                          "trimStartSum" : 0,
                          "attributes" : {
                            "ident" : "token_hijacking_attack"
                          },
                          "parameters" : {
                            "cursorOpacity" : 0.0,
                            "cursorScale" : 0.0
                          },
                          "effects" : [

                          ],
                          "start" : 208,
                          "duration" : 90,
                          "mediaStart" : 207,
                          "mediaDuration" : 1,
                          "scalar" : 1,
                          "metadata" : {
                            "AutoAppliedSmartFocus" : "False"
                          },
                          "animationTracks" : {

                          }
                        },
                        {
                          "id" : 172,
                          "_type" : "ScreenVMFile",
                          "src" : 1,
                          "trackNumber" : 0,
                          "attributes" : {
                            "ident" : "token_hijacking_attack"
                          },
                          "parameters" : {
                            "cursorScale" : {
                              "type" : "double",
                              "defaultValue" : 0.0,
                              "interp" : "linr"
                            },
                            "cursorOpacity" : {
                              "type" : "double",
                              "defaultValue" : 0.0,
                              "interp" : "linr"
                            }
                          },
                          "effects" : [

                          ],
                          "start" : 298,
                          "duration" : 140,
                          "mediaStart" : 208,
                          "mediaDuration" : 140,
                          "scalar" : 1,
                          "metadata" : {
                            "AutoAppliedSmartFocus" : "False",
                            "clipSpeedAttribute" : false
                          },
                          "animationTracks" : {

                          }
                        },
                        {
                          "id" : 173,
                          "_type" : "ScreenIMFile",
                          "src" : 1,
                          "trackNumber" : 0,
                          "trimStartSum" : 0,
                          "attributes" : {
                            "ident" : "token_hijacking_attack"
                          },
                          "parameters" : {
                            "cursorOpacity" : 0.0,
                            "cursorScale" : 0.0
                          },
                          "effects" : [

                          ],
                          "start" : 438,
                          "duration" : 30,
                          "mediaStart" : 348,
                          "mediaDuration" : 1,
                          "scalar" : 1,
                          "metadata" : {
                            "AutoAppliedSmartFocus" : "False"
                          },
                          "animationTracks" : {

                          }
                        },
                        {
                          "id" : 174,
                          "_type" : "ScreenVMFile",
                          "src" : 1,
                          "trackNumber" : 0,
                          "attributes" : {
                            "ident" : "token_hijacking_attack"
                          },
                          "parameters" : {
                            "cursorScale" : {
                              "type" : "double",
                              "defaultValue" : 0.0,
                              "interp" : "linr"
                            },
                            "cursorOpacity" : {
                              "type" : "double",
                              "defaultValue" : 0.0,
                              "interp" : "linr"
                            }
                          },
                          "effects" : [

                          ],
                          "start" : 468,
                          "duration" : 105,
                          "mediaStart" : 348,
                          "mediaDuration" : 105,
                          "scalar" : 1,
                          "metadata" : {
                            "AutoAppliedSmartFocus" : "False",
                            "clipSpeedAttribute" : false
                          },
                          "animationTracks" : {

                          }
                        },
                        {
                          "id" : 175,
                          "_type" : "ScreenIMFile",
                          "src" : 1,
                          "trackNumber" : 0,
                          "trimStartSum" : 0,
                          "attributes" : {
                            "ident" : "token_hijacking_attack"
                          },
                          "parameters" : {
                            "cursorOpacity" : 0.0,
                            "cursorScale" : 0.0
                          },
                          "effects" : [

                          ],
                          "start" : 573,
                          "duration" : 60,
                          "mediaStart" : 453,
                          "mediaDuration" : 1,
                          "scalar" : 1,
                          "metadata" : {
                            "AutoAppliedSmartFocus" : "False"
                          },
                          "animationTracks" : {

                          }
                        },
                        {
                          "id" : 176,
                          "_type" : "ScreenVMFile",
                          "src" : 1,
                          "trackNumber" : 0,
                          "attributes" : {
                            "ident" : "token_hijacking_attack"
                          },
                          "parameters" : {
                            "cursorScale" : {
                              "type" : "double",
                              "defaultValue" : 0.0,
                              "interp" : "linr"
                            },
                            "cursorOpacity" : {
                              "type" : "double",
                              "defaultValue" : 0.0,
                              "interp" : "linr"
                            }
                          },
                          "effects" : [

                          ],
                          "start" : 633,
                          "duration" : 1574986,
                          "mediaStart" : 453,
                          "mediaDuration" : 1574986,
                          "scalar" : 1,
                          "metadata" : {
                            "AutoAppliedSmartFocus" : "False",
                            "clipSpeedAttribute" : false
                          },
                          "animationTracks" : {

                          }
                        }
                    ],
                    "effects" : [
                        {
                          "effectName" : "CursorHilight",
                          "category" : "categoryCursorEffects",
                          "parameters" : {
                            "blur" : 0.1,
                            "color-alpha" : 0.75,
                            "color-blue" : 0.0,
                            "color-green" : 1.0,
                            "color-red" : 1.0,
                            "radius" : 50.0
                          }
                        }
                    ],
                    "start" : 874,
                    "duration" : 5,
                    "mediaStart" : 1704,
                    "mediaDuration" : 5,
                    "scalar" : 1,
                    "metadata" : {
                      "AutoAppliedSmartFocus" : "False",
                      "clipSpeedAttribute" : false,
                      "default-scale0" : 3.172876137306,
                      "default-scale1" : 3.17287726679297,
                      "default-translation0" : 2471.77226095314,
                      "default-translation1" : -1235.61824899191
                    },
                    "animationTracks" : {
                      "visual" : [
                        {
                          "endTime" : 237,
                          "duration" : 30,
                          "range" : [ 207, 30]
                        },
                        {
                          "endTime" : 343,
                          "duration" : 30,
                          "range" : [ 313, 30]
                        },
                        {
                          "endTime" : 466,
                          "duration" : 30,
                          "range" : [ 436, 30]
                        },
                        {
                          "endTime" : 632,
                          "duration" : 30,
                          "range" : [ 602, 30]
                        },
                        {
                          "endTime" : 751,
                          "duration" : 30,
                          "range" : [ 721, 30]
                        },
                        {
                          "endTime" : 785,
                          "duration" : 30,
                          "range" : [ 755, 30]
                        },
                        {
                          "endTime" : 814,
                          "duration" : 29,
                          "range" : [ 785, 29]
                        },
                        {
                          "endTime" : 1068,
                          "duration" : 26,
                          "range" : [ 1042, 26]
                        }
                      ]
                    }
                  },
                  {
                    "id" : 177,
                    "_type" : "StitchedMedia",
                    "minMediaStart" : 0,
                    "attributes" : {
                      "ident" : "token_hijacking_attack",
                      "gain" : 1.0,
                      "mixToMono" : false
                    },
                    "parameters" : {
                      "translation0" : {
                        "type" : "double",
                        "defaultValue" : 0.0,
                        "keyframes" : [
                          {
                            "endTime" : 237,
                            "time" : 207,
                            "value" : 6437.05178264923,
                            "duration" : 30
                          },
                          {
                            "endTime" : 343,
                            "time" : 313,
                            "value" : -4.54747350886464e-13,
                            "duration" : 30
                          },
                          {
                            "endTime" : 466,
                            "time" : 436,
                            "value" : 2471.77226095314,
                            "duration" : 30
                          },
                          {
                            "endTime" : 632,
                            "time" : 602,
                            "value" : -1.13686837721616e-13,
                            "duration" : 30
                          },
                          {
                            "endTime" : 751,
                            "time" : 721,
                            "value" : 1777.12723840605,
                            "duration" : 30
                          },
                          {
                            "endTime" : 785,
                            "time" : 755,
                            "value" : -1.13686837721616e-13,
                            "duration" : 30
                          },
                          {
                            "endTime" : 814,
                            "time" : 785,
                            "value" : 946.879645880833,
                            "duration" : 29
                          },
                          {
                            "endTime" : 1068,
                            "time" : 1042,
                            "value" : 1613.60702526176,
                            "duration" : 26
                          }
                        ]
                      },
                      "translation1" : {
                        "type" : "double",
                        "defaultValue" : 0.0,
                        "keyframes" : [
                          {
                            "endTime" : 237,
                            "time" : 207,
                            "value" : -2825.0524936412,
                            "duration" : 30
                          },
                          {
                            "endTime" : 343,
                            "time" : 313,
                            "value" : 5.6843418860808e-14,
                            "duration" : 30
                          },
                          {
                            "endTime" : 466,
                            "time" : 436,
                            "value" : -1235.61824899191,
                            "duration" : 30
                          },
                          {
                            "endTime" : 632,
                            "time" : 602,
                            "value" : 1.13686837721616e-13,
                            "duration" : 30
                          },
                          {
                            "endTime" : 751,
                            "time" : 721,
                            "value" : -129.822625517978,
                            "duration" : 30
                          },
                          {
                            "endTime" : 785,
                            "time" : 755,
                            "value" : -2.1316282072803e-14,
                            "duration" : 30
                          },
                          {
                            "endTime" : 814,
                            "time" : 785,
                            "value" : -532.6,
                            "duration" : 29
                          },
                          {
                            "endTime" : 1068,
                            "time" : 1042,
                            "value" : -277.235424203718,
                            "duration" : 26
                          }
                        ]
                      },
                      "scale0" : {
                        "type" : "double",
                        "defaultValue" : 1.0,
                        "keyframes" : [
                          {
                            "endTime" : 237,
                            "time" : 207,
                            "value" : 6.52631522480847,
                            "duration" : 30
                          },
                          {
                            "endTime" : 343,
                            "time" : 313,
                            "value" : 0.999999999999999,
                            "duration" : 30
                          },
                          {
                            "endTime" : 466,
                            "time" : 436,
                            "value" : 3.172876137306,
                            "duration" : 30
                          },
                          {
                            "endTime" : 632,
                            "time" : 602,
                            "value" : 0.99999964401807,
                            "duration" : 30
                          },
                          {
                            "endTime" : 751,
                            "time" : 721,
                            "value" : 2.83915303535992,
                            "duration" : 30
                          },
                          {
                            "endTime" : 785,
                            "time" : 755,
                            "value" : 0.999999512129719,
                            "duration" : 30
                          },
                          {
                            "endTime" : 814,
                            "time" : 785,
                            "value" : 1.90952759462014,
                            "duration" : 29
                          },
                          {
                            "endTime" : 1068,
                            "time" : 1042,
                            "value" : 2.48123987298737,
                            "duration" : 26
                          }
                        ]
                      },
                      "scale1" : {
                        "type" : "double",
                        "defaultValue" : 1.0,
                        "keyframes" : [
                          {
                            "endTime" : 237,
                            "time" : 207,
                            "value" : 6.52631500328686,
                            "duration" : 30
                          },
                          {
                            "endTime" : 343,
                            "time" : 313,
                            "value" : 0.999999966057169,
                            "duration" : 30
                          },
                          {
                            "endTime" : 466,
                            "time" : 436,
                            "value" : 3.17287726679297,
                            "duration" : 30
                          },
                          {
                            "endTime" : 632,
                            "time" : 602,
                            "value" : 1.0,
                            "duration" : 30
                          },
                          {
                            "endTime" : 751,
                            "time" : 721,
                            "value" : 2.83915442049899,
                            "duration" : 30
                          },
                          {
                            "endTime" : 785,
                            "time" : 755,
                            "value" : 1.0,
                            "duration" : 30
                          },
                          {
                            "endTime" : 814,
                            "time" : 785,
                            "value" : 1.9095287965103,
                            "duration" : 29
                          },
                          {
                            "endTime" : 1068,
                            "time" : 1042,
                            "value" : 2.48124130214435,
                            "duration" : 26
                          }
                        ]
                      },
                      "cursorOpacity" : 1.0,
                      "cursorScale" : 1.0
                    },
                    "medias" : [
                        {
                          "id" : 178,
                          "_type" : "ScreenVMFile",
                          "src" : 1,
                          "trackNumber" : 0,
                          "attributes" : {
                            "ident" : "token_hijacking_attack"
                          },
                          "parameters" : {
                            "cursorScale" : {
                              "type" : "double",
                              "defaultValue" : 0.0,
                              "interp" : "linr"
                            },
                            "cursorOpacity" : {
                              "type" : "double",
                              "defaultValue" : 0.0,
                              "interp" : "linr"
                            }
                          },
                          "effects" : [

                          ],
                          "start" : 0,
                          "duration" : 208,
                          "mediaStart" : 0,
                          "mediaDuration" : 208,
                          "scalar" : 1,
                          "metadata" : {
                            "AutoAppliedSmartFocus" : "False",
                            "clipSpeedAttribute" : false
                          },
                          "animationTracks" : {

                          }
                        },
                        {
                          "id" : 179,
                          "_type" : "ScreenIMFile",
                          "src" : 1,
                          "trackNumber" : 0,
                          "trimStartSum" : 0,
                          "attributes" : {
                            "ident" : "token_hijacking_attack"
                          },
                          "parameters" : {
                            "cursorOpacity" : 0.0,
                            "cursorScale" : 0.0
                          },
                          "effects" : [

                          ],
                          "start" : 208,
                          "duration" : 90,
                          "mediaStart" : 207,
                          "mediaDuration" : 1,
                          "scalar" : 1,
                          "metadata" : {
                            "AutoAppliedSmartFocus" : "False"
                          },
                          "animationTracks" : {

                          }
                        },
                        {
                          "id" : 180,
                          "_type" : "ScreenVMFile",
                          "src" : 1,
                          "trackNumber" : 0,
                          "attributes" : {
                            "ident" : "token_hijacking_attack"
                          },
                          "parameters" : {
                            "cursorScale" : {
                              "type" : "double",
                              "defaultValue" : 0.0,
                              "interp" : "linr"
                            },
                            "cursorOpacity" : {
                              "type" : "double",
                              "defaultValue" : 0.0,
                              "interp" : "linr"
                            }
                          },
                          "effects" : [

                          ],
                          "start" : 298,
                          "duration" : 140,
                          "mediaStart" : 208,
                          "mediaDuration" : 140,
                          "scalar" : 1,
                          "metadata" : {
                            "AutoAppliedSmartFocus" : "False",
                            "clipSpeedAttribute" : false
                          },
                          "animationTracks" : {

                          }
                        },
                        {
                          "id" : 181,
                          "_type" : "ScreenIMFile",
                          "src" : 1,
                          "trackNumber" : 0,
                          "trimStartSum" : 0,
                          "attributes" : {
                            "ident" : "token_hijacking_attack"
                          },
                          "parameters" : {
                            "cursorOpacity" : 0.0,
                            "cursorScale" : 0.0
                          },
                          "effects" : [

                          ],
                          "start" : 438,
                          "duration" : 30,
                          "mediaStart" : 348,
                          "mediaDuration" : 1,
                          "scalar" : 1,
                          "metadata" : {
                            "AutoAppliedSmartFocus" : "False"
                          },
                          "animationTracks" : {

                          }
                        },
                        {
                          "id" : 182,
                          "_type" : "ScreenVMFile",
                          "src" : 1,
                          "trackNumber" : 0,
                          "attributes" : {
                            "ident" : "token_hijacking_attack"
                          },
                          "parameters" : {
                            "cursorScale" : {
                              "type" : "double",
                              "defaultValue" : 0.0,
                              "interp" : "linr"
                            },
                            "cursorOpacity" : {
                              "type" : "double",
                              "defaultValue" : 0.0,
                              "interp" : "linr"
                            }
                          },
                          "effects" : [

                          ],
                          "start" : 468,
                          "duration" : 105,
                          "mediaStart" : 348,
                          "mediaDuration" : 105,
                          "scalar" : 1,
                          "metadata" : {
                            "AutoAppliedSmartFocus" : "False",
                            "clipSpeedAttribute" : false
                          },
                          "animationTracks" : {

                          }
                        },
                        {
                          "id" : 183,
                          "_type" : "ScreenIMFile",
                          "src" : 1,
                          "trackNumber" : 0,
                          "trimStartSum" : 0,
                          "attributes" : {
                            "ident" : "token_hijacking_attack"
                          },
                          "parameters" : {
                            "cursorOpacity" : 0.0,
                            "cursorScale" : 0.0
                          },
                          "effects" : [

                          ],
                          "start" : 573,
                          "duration" : 60,
                          "mediaStart" : 453,
                          "mediaDuration" : 1,
                          "scalar" : 1,
                          "metadata" : {
                            "AutoAppliedSmartFocus" : "False"
                          },
                          "animationTracks" : {

                          }
                        },
                        {
                          "id" : 184,
                          "_type" : "ScreenVMFile",
                          "src" : 1,
                          "trackNumber" : 0,
                          "attributes" : {
                            "ident" : "token_hijacking_attack"
                          },
                          "parameters" : {
                            "cursorScale" : {
                              "type" : "double",
                              "defaultValue" : 0.0,
                              "interp" : "linr"
                            },
                            "cursorOpacity" : {
                              "type" : "double",
                              "defaultValue" : 0.0,
                              "interp" : "linr"
                            }
                          },
                          "effects" : [

                          ],
                          "start" : 633,
                          "duration" : 1574986,
                          "mediaStart" : 453,
                          "mediaDuration" : 1574986,
                          "scalar" : 1,
                          "metadata" : {
                            "AutoAppliedSmartFocus" : "False",
                            "clipSpeedAttribute" : false
                          },
                          "animationTracks" : {

                          }
                        }
                    ],
                    "effects" : [
                        {
                          "effectName" : "CursorHilight",
                          "category" : "categoryCursorEffects",
                          "parameters" : {
                            "blur" : 0.1,
                            "color-alpha" : 0.75,
                            "color-blue" : 0.0,
                            "color-green" : 1.0,
                            "color-red" : 1.0,
                            "radius" : 50.0
                          }
                        }
                    ],
                    "start" : 879,
                    "duration" : 7,
                    "mediaStart" : 1841,
                    "mediaDuration" : 7,
                    "scalar" : 1,
                    "metadata" : {
                      "AutoAppliedSmartFocus" : "False",
                      "clipSpeedAttribute" : false,
                      "default-scale0" : 3.172876137306,
                      "default-scale1" : 3.17287726679297,
                      "default-translation0" : 2471.77226095314,
                      "default-translation1" : -1235.61824899191
                    },
                    "animationTracks" : {
                      "visual" : [
                        {
                          "endTime" : 237,
                          "duration" : 30,
                          "range" : [ 207, 30]
                        },
                        {
                          "endTime" : 343,
                          "duration" : 30,
                          "range" : [ 313, 30]
                        },
                        {
                          "endTime" : 466,
                          "duration" : 30,
                          "range" : [ 436, 30]
                        },
                        {
                          "endTime" : 632,
                          "duration" : 30,
                          "range" : [ 602, 30]
                        },
                        {
                          "endTime" : 751,
                          "duration" : 30,
                          "range" : [ 721, 30]
                        },
                        {
                          "endTime" : 785,
                          "duration" : 30,
                          "range" : [ 755, 30]
                        },
                        {
                          "endTime" : 814,
                          "duration" : 29,
                          "range" : [ 785, 29]
                        },
                        {
                          "endTime" : 1068,
                          "duration" : 26,
                          "range" : [ 1042, 26]
                        }
                      ]
                    }
                  },
                  {
                    "id" : 185,
                    "_type" : "StitchedMedia",
                    "minMediaStart" : 0,
                    "attributes" : {
                      "ident" : "token_hijacking_attack",
                      "gain" : 1.0,
                      "mixToMono" : false
                    },
                    "parameters" : {
                      "translation0" : {
                        "type" : "double",
                        "defaultValue" : 0.0,
                        "keyframes" : [
                          {
                            "endTime" : 237,
                            "time" : 207,
                            "value" : 6437.05178264923,
                            "duration" : 30
                          },
                          {
                            "endTime" : 343,
                            "time" : 313,
                            "value" : -4.54747350886464e-13,
                            "duration" : 30
                          },
                          {
                            "endTime" : 466,
                            "time" : 436,
                            "value" : 2471.77226095314,
                            "duration" : 30
                          },
                          {
                            "endTime" : 632,
                            "time" : 602,
                            "value" : -1.13686837721616e-13,
                            "duration" : 30
                          },
                          {
                            "endTime" : 751,
                            "time" : 721,
                            "value" : 1777.12723840605,
                            "duration" : 30
                          },
                          {
                            "endTime" : 785,
                            "time" : 755,
                            "value" : -1.13686837721616e-13,
                            "duration" : 30
                          },
                          {
                            "endTime" : 814,
                            "time" : 785,
                            "value" : 946.879645880833,
                            "duration" : 29
                          },
                          {
                            "endTime" : 1068,
                            "time" : 1042,
                            "value" : 1613.60702526176,
                            "duration" : 26
                          }
                        ]
                      },
                      "translation1" : {
                        "type" : "double",
                        "defaultValue" : 0.0,
                        "keyframes" : [
                          {
                            "endTime" : 237,
                            "time" : 207,
                            "value" : -2825.0524936412,
                            "duration" : 30
                          },
                          {
                            "endTime" : 343,
                            "time" : 313,
                            "value" : 5.6843418860808e-14,
                            "duration" : 30
                          },
                          {
                            "endTime" : 466,
                            "time" : 436,
                            "value" : -1235.61824899191,
                            "duration" : 30
                          },
                          {
                            "endTime" : 632,
                            "time" : 602,
                            "value" : 1.13686837721616e-13,
                            "duration" : 30
                          },
                          {
                            "endTime" : 751,
                            "time" : 721,
                            "value" : -129.822625517978,
                            "duration" : 30
                          },
                          {
                            "endTime" : 785,
                            "time" : 755,
                            "value" : -2.1316282072803e-14,
                            "duration" : 30
                          },
                          {
                            "endTime" : 814,
                            "time" : 785,
                            "value" : -532.6,
                            "duration" : 29
                          },
                          {
                            "endTime" : 1068,
                            "time" : 1042,
                            "value" : -277.235424203718,
                            "duration" : 26
                          }
                        ]
                      },
                      "scale0" : {
                        "type" : "double",
                        "defaultValue" : 1.0,
                        "keyframes" : [
                          {
                            "endTime" : 237,
                            "time" : 207,
                            "value" : 6.52631522480847,
                            "duration" : 30
                          },
                          {
                            "endTime" : 343,
                            "time" : 313,
                            "value" : 0.999999999999999,
                            "duration" : 30
                          },
                          {
                            "endTime" : 466,
                            "time" : 436,
                            "value" : 3.172876137306,
                            "duration" : 30
                          },
                          {
                            "endTime" : 632,
                            "time" : 602,
                            "value" : 0.99999964401807,
                            "duration" : 30
                          },
                          {
                            "endTime" : 751,
                            "time" : 721,
                            "value" : 2.83915303535992,
                            "duration" : 30
                          },
                          {
                            "endTime" : 785,
                            "time" : 755,
                            "value" : 0.999999512129719,
                            "duration" : 30
                          },
                          {
                            "endTime" : 814,
                            "time" : 785,
                            "value" : 1.90952759462014,
                            "duration" : 29
                          },
                          {
                            "endTime" : 1068,
                            "time" : 1042,
                            "value" : 2.48123987298737,
                            "duration" : 26
                          }
                        ]
                      },
                      "scale1" : {
                        "type" : "double",
                        "defaultValue" : 1.0,
                        "keyframes" : [
                          {
                            "endTime" : 237,
                            "time" : 207,
                            "value" : 6.52631500328686,
                            "duration" : 30
                          },
                          {
                            "endTime" : 343,
                            "time" : 313,
                            "value" : 0.999999966057169,
                            "duration" : 30
                          },
                          {
                            "endTime" : 466,
                            "time" : 436,
                            "value" : 3.17287726679297,
                            "duration" : 30
                          },
                          {
                            "endTime" : 632,
                            "time" : 602,
                            "value" : 1.0,
                            "duration" : 30
                          },
                          {
                            "endTime" : 751,
                            "time" : 721,
                            "value" : 2.83915442049899,
                            "duration" : 30
                          },
                          {
                            "endTime" : 785,
                            "time" : 755,
                            "value" : 1.0,
                            "duration" : 30
                          },
                          {
                            "endTime" : 814,
                            "time" : 785,
                            "value" : 1.9095287965103,
                            "duration" : 29
                          },
                          {
                            "endTime" : 1068,
                            "time" : 1042,
                            "value" : 2.48124130214435,
                            "duration" : 26
                          }
                        ]
                      },
                      "cursorOpacity" : 1.0,
                      "cursorScale" : 1.0
                    },
                    "medias" : [
                        {
                          "id" : 186,
                          "_type" : "ScreenVMFile",
                          "src" : 1,
                          "trackNumber" : 0,
                          "attributes" : {
                            "ident" : "token_hijacking_attack"
                          },
                          "parameters" : {
                            "cursorScale" : {
                              "type" : "double",
                              "defaultValue" : 0.0,
                              "interp" : "linr"
                            },
                            "cursorOpacity" : {
                              "type" : "double",
                              "defaultValue" : 0.0,
                              "interp" : "linr"
                            }
                          },
                          "effects" : [

                          ],
                          "start" : 0,
                          "duration" : 208,
                          "mediaStart" : 0,
                          "mediaDuration" : 208,
                          "scalar" : 1,
                          "metadata" : {
                            "AutoAppliedSmartFocus" : "False",
                            "clipSpeedAttribute" : false
                          },
                          "animationTracks" : {

                          }
                        },
                        {
                          "id" : 187,
                          "_type" : "ScreenIMFile",
                          "src" : 1,
                          "trackNumber" : 0,
                          "trimStartSum" : 0,
                          "attributes" : {
                            "ident" : "token_hijacking_attack"
                          },
                          "parameters" : {
                            "cursorOpacity" : 0.0,
                            "cursorScale" : 0.0
                          },
                          "effects" : [

                          ],
                          "start" : 208,
                          "duration" : 90,
                          "mediaStart" : 207,
                          "mediaDuration" : 1,
                          "scalar" : 1,
                          "metadata" : {
                            "AutoAppliedSmartFocus" : "False"
                          },
                          "animationTracks" : {

                          }
                        },
                        {
                          "id" : 188,
                          "_type" : "ScreenVMFile",
                          "src" : 1,
                          "trackNumber" : 0,
                          "attributes" : {
                            "ident" : "token_hijacking_attack"
                          },
                          "parameters" : {
                            "cursorScale" : {
                              "type" : "double",
                              "defaultValue" : 0.0,
                              "interp" : "linr"
                            },
                            "cursorOpacity" : {
                              "type" : "double",
                              "defaultValue" : 0.0,
                              "interp" : "linr"
                            }
                          },
                          "effects" : [

                          ],
                          "start" : 298,
                          "duration" : 140,
                          "mediaStart" : 208,
                          "mediaDuration" : 140,
                          "scalar" : 1,
                          "metadata" : {
                            "AutoAppliedSmartFocus" : "False",
                            "clipSpeedAttribute" : false
                          },
                          "animationTracks" : {

                          }
                        },
                        {
                          "id" : 189,
                          "_type" : "ScreenIMFile",
                          "src" : 1,
                          "trackNumber" : 0,
                          "trimStartSum" : 0,
                          "attributes" : {
                            "ident" : "token_hijacking_attack"
                          },
                          "parameters" : {
                            "cursorOpacity" : 0.0,
                            "cursorScale" : 0.0
                          },
                          "effects" : [

                          ],
                          "start" : 438,
                          "duration" : 30,
                          "mediaStart" : 348,
                          "mediaDuration" : 1,
                          "scalar" : 1,
                          "metadata" : {
                            "AutoAppliedSmartFocus" : "False"
                          },
                          "animationTracks" : {

                          }
                        },
                        {
                          "id" : 190,
                          "_type" : "ScreenVMFile",
                          "src" : 1,
                          "trackNumber" : 0,
                          "attributes" : {
                            "ident" : "token_hijacking_attack"
                          },
                          "parameters" : {
                            "cursorScale" : {
                              "type" : "double",
                              "defaultValue" : 0.0,
                              "interp" : "linr"
                            },
                            "cursorOpacity" : {
                              "type" : "double",
                              "defaultValue" : 0.0,
                              "interp" : "linr"
                            }
                          },
                          "effects" : [

                          ],
                          "start" : 468,
                          "duration" : 105,
                          "mediaStart" : 348,
                          "mediaDuration" : 105,
                          "scalar" : 1,
                          "metadata" : {
                            "AutoAppliedSmartFocus" : "False",
                            "clipSpeedAttribute" : false
                          },
                          "animationTracks" : {

                          }
                        },
                        {
                          "id" : 191,
                          "_type" : "ScreenIMFile",
                          "src" : 1,
                          "trackNumber" : 0,
                          "trimStartSum" : 0,
                          "attributes" : {
                            "ident" : "token_hijacking_attack"
                          },
                          "parameters" : {
                            "cursorOpacity" : 0.0,
                            "cursorScale" : 0.0
                          },
                          "effects" : [

                          ],
                          "start" : 573,
                          "duration" : 60,
                          "mediaStart" : 453,
                          "mediaDuration" : 1,
                          "scalar" : 1,
                          "metadata" : {
                            "AutoAppliedSmartFocus" : "False"
                          },
                          "animationTracks" : {

                          }
                        },
                        {
                          "id" : 192,
                          "_type" : "ScreenVMFile",
                          "src" : 1,
                          "trackNumber" : 0,
                          "attributes" : {
                            "ident" : "token_hijacking_attack"
                          },
                          "parameters" : {
                            "cursorScale" : {
                              "type" : "double",
                              "defaultValue" : 0.0,
                              "interp" : "linr"
                            },
                            "cursorOpacity" : {
                              "type" : "double",
                              "defaultValue" : 0.0,
                              "interp" : "linr"
                            }
                          },
                          "effects" : [

                          ],
                          "start" : 633,
                          "duration" : 1574986,
                          "mediaStart" : 453,
                          "mediaDuration" : 1574986,
                          "scalar" : 1,
                          "metadata" : {
                            "AutoAppliedSmartFocus" : "False",
                            "clipSpeedAttribute" : false
                          },
                          "animationTracks" : {

                          }
                        }
                    ],
                    "effects" : [
                        {
                          "effectName" : "CursorHilight",
                          "category" : "categoryCursorEffects",
                          "parameters" : {
                            "blur" : 0.1,
                            "color-alpha" : 0.75,
                            "color-blue" : 0.0,
                            "color-green" : 1.0,
                            "color-red" : 1.0,
                            "radius" : 50.0
                          }
                        }
                    ],
                    "start" : 886,
                    "duration" : 5,
                    "mediaStart" : 1981,
                    "mediaDuration" : 5,
                    "scalar" : 1,
                    "metadata" : {
                      "AutoAppliedSmartFocus" : "False",
                      "clipSpeedAttribute" : false,
                      "default-scale0" : 3.172876137306,
                      "default-scale1" : 3.17287726679297,
                      "default-translation0" : 2471.77226095314,
                      "default-translation1" : -1235.61824899191
                    },
                    "animationTracks" : {
                      "visual" : [
                        {
                          "endTime" : 237,
                          "duration" : 30,
                          "range" : [ 207, 30]
                        },
                        {
                          "endTime" : 343,
                          "duration" : 30,
                          "range" : [ 313, 30]
                        },
                        {
                          "endTime" : 466,
                          "duration" : 30,
                          "range" : [ 436, 30]
                        },
                        {
                          "endTime" : 632,
                          "duration" : 30,
                          "range" : [ 602, 30]
                        },
                        {
                          "endTime" : 751,
                          "duration" : 30,
                          "range" : [ 721, 30]
                        },
                        {
                          "endTime" : 785,
                          "duration" : 30,
                          "range" : [ 755, 30]
                        },
                        {
                          "endTime" : 814,
                          "duration" : 29,
                          "range" : [ 785, 29]
                        },
                        {
                          "endTime" : 1068,
                          "duration" : 26,
                          "range" : [ 1042, 26]
                        }
                      ]
                    }
                  },
                  {
                    "id" : 193,
                    "_type" : "StitchedMedia",
                    "minMediaStart" : 0,
                    "attributes" : {
                      "ident" : "token_hijacking_attack",
                      "gain" : 1.0,
                      "mixToMono" : false
                    },
                    "parameters" : {
                      "translation0" : {
                        "type" : "double",
                        "defaultValue" : 0.0,
                        "keyframes" : [
                          {
                            "endTime" : 237,
                            "time" : 207,
                            "value" : 6437.05178264923,
                            "duration" : 30
                          },
                          {
                            "endTime" : 343,
                            "time" : 313,
                            "value" : -4.54747350886464e-13,
                            "duration" : 30
                          },
                          {
                            "endTime" : 466,
                            "time" : 436,
                            "value" : 2471.77226095314,
                            "duration" : 30
                          },
                          {
                            "endTime" : 632,
                            "time" : 602,
                            "value" : -1.13686837721616e-13,
                            "duration" : 30
                          },
                          {
                            "endTime" : 751,
                            "time" : 721,
                            "value" : 1777.12723840605,
                            "duration" : 30
                          },
                          {
                            "endTime" : 785,
                            "time" : 755,
                            "value" : -1.13686837721616e-13,
                            "duration" : 30
                          },
                          {
                            "endTime" : 814,
                            "time" : 785,
                            "value" : 946.879645880833,
                            "duration" : 29
                          },
                          {
                            "endTime" : 1068,
                            "time" : 1042,
                            "value" : 1613.60702526176,
                            "duration" : 26
                          }
                        ]
                      },
                      "translation1" : {
                        "type" : "double",
                        "defaultValue" : 0.0,
                        "keyframes" : [
                          {
                            "endTime" : 237,
                            "time" : 207,
                            "value" : -2825.0524936412,
                            "duration" : 30
                          },
                          {
                            "endTime" : 343,
                            "time" : 313,
                            "value" : 5.6843418860808e-14,
                            "duration" : 30
                          },
                          {
                            "endTime" : 466,
                            "time" : 436,
                            "value" : -1235.61824899191,
                            "duration" : 30
                          },
                          {
                            "endTime" : 632,
                            "time" : 602,
                            "value" : 1.13686837721616e-13,
                            "duration" : 30
                          },
                          {
                            "endTime" : 751,
                            "time" : 721,
                            "value" : -129.822625517978,
                            "duration" : 30
                          },
                          {
                            "endTime" : 785,
                            "time" : 755,
                            "value" : -2.1316282072803e-14,
                            "duration" : 30
                          },
                          {
                            "endTime" : 814,
                            "time" : 785,
                            "value" : -532.6,
                            "duration" : 29
                          },
                          {
                            "endTime" : 1068,
                            "time" : 1042,
                            "value" : -277.235424203718,
                            "duration" : 26
                          }
                        ]
                      },
                      "scale0" : {
                        "type" : "double",
                        "defaultValue" : 1.0,
                        "keyframes" : [
                          {
                            "endTime" : 237,
                            "time" : 207,
                            "value" : 6.52631522480847,
                            "duration" : 30
                          },
                          {
                            "endTime" : 343,
                            "time" : 313,
                            "value" : 0.999999999999999,
                            "duration" : 30
                          },
                          {
                            "endTime" : 466,
                            "time" : 436,
                            "value" : 3.172876137306,
                            "duration" : 30
                          },
                          {
                            "endTime" : 632,
                            "time" : 602,
                            "value" : 0.99999964401807,
                            "duration" : 30
                          },
                          {
                            "endTime" : 751,
                            "time" : 721,
                            "value" : 2.83915303535992,
                            "duration" : 30
                          },
                          {
                            "endTime" : 785,
                            "time" : 755,
                            "value" : 0.999999512129719,
                            "duration" : 30
                          },
                          {
                            "endTime" : 814,
                            "time" : 785,
                            "value" : 1.90952759462014,
                            "duration" : 29
                          },
                          {
                            "endTime" : 1068,
                            "time" : 1042,
                            "value" : 2.48123987298737,
                            "duration" : 26
                          }
                        ]
                      },
                      "scale1" : {
                        "type" : "double",
                        "defaultValue" : 1.0,
                        "keyframes" : [
                          {
                            "endTime" : 237,
                            "time" : 207,
                            "value" : 6.52631500328686,
                            "duration" : 30
                          },
                          {
                            "endTime" : 343,
                            "time" : 313,
                            "value" : 0.999999966057169,
                            "duration" : 30
                          },
                          {
                            "endTime" : 466,
                            "time" : 436,
                            "value" : 3.17287726679297,
                            "duration" : 30
                          },
                          {
                            "endTime" : 632,
                            "time" : 602,
                            "value" : 1.0,
                            "duration" : 30
                          },
                          {
                            "endTime" : 751,
                            "time" : 721,
                            "value" : 2.83915442049899,
                            "duration" : 30
                          },
                          {
                            "endTime" : 785,
                            "time" : 755,
                            "value" : 1.0,
                            "duration" : 30
                          },
                          {
                            "endTime" : 814,
                            "time" : 785,
                            "value" : 1.9095287965103,
                            "duration" : 29
                          },
                          {
                            "endTime" : 1068,
                            "time" : 1042,
                            "value" : 2.48124130214435,
                            "duration" : 26
                          }
                        ]
                      },
                      "cursorOpacity" : 1.0,
                      "cursorScale" : 1.0
                    },
                    "medias" : [
                        {
                          "id" : 194,
                          "_type" : "ScreenVMFile",
                          "src" : 1,
                          "trackNumber" : 0,
                          "attributes" : {
                            "ident" : "token_hijacking_attack"
                          },
                          "parameters" : {
                            "cursorScale" : {
                              "type" : "double",
                              "defaultValue" : 0.0,
                              "interp" : "linr"
                            },
                            "cursorOpacity" : {
                              "type" : "double",
                              "defaultValue" : 0.0,
                              "interp" : "linr"
                            }
                          },
                          "effects" : [

                          ],
                          "start" : 0,
                          "duration" : 208,
                          "mediaStart" : 0,
                          "mediaDuration" : 208,
                          "scalar" : 1,
                          "metadata" : {
                            "AutoAppliedSmartFocus" : "False",
                            "clipSpeedAttribute" : false
                          },
                          "animationTracks" : {

                          }
                        },
                        {
                          "id" : 195,
                          "_type" : "ScreenIMFile",
                          "src" : 1,
                          "trackNumber" : 0,
                          "trimStartSum" : 0,
                          "attributes" : {
                            "ident" : "token_hijacking_attack"
                          },
                          "parameters" : {
                            "cursorOpacity" : 0.0,
                            "cursorScale" : 0.0
                          },
                          "effects" : [

                          ],
                          "start" : 208,
                          "duration" : 90,
                          "mediaStart" : 207,
                          "mediaDuration" : 1,
                          "scalar" : 1,
                          "metadata" : {
                            "AutoAppliedSmartFocus" : "False"
                          },
                          "animationTracks" : {

                          }
                        },
                        {
                          "id" : 196,
                          "_type" : "ScreenVMFile",
                          "src" : 1,
                          "trackNumber" : 0,
                          "attributes" : {
                            "ident" : "token_hijacking_attack"
                          },
                          "parameters" : {
                            "cursorScale" : {
                              "type" : "double",
                              "defaultValue" : 0.0,
                              "interp" : "linr"
                            },
                            "cursorOpacity" : {
                              "type" : "double",
                              "defaultValue" : 0.0,
                              "interp" : "linr"
                            }
                          },
                          "effects" : [

                          ],
                          "start" : 298,
                          "duration" : 140,
                          "mediaStart" : 208,
                          "mediaDuration" : 140,
                          "scalar" : 1,
                          "metadata" : {
                            "AutoAppliedSmartFocus" : "False",
                            "clipSpeedAttribute" : false
                          },
                          "animationTracks" : {

                          }
                        },
                        {
                          "id" : 197,
                          "_type" : "ScreenIMFile",
                          "src" : 1,
                          "trackNumber" : 0,
                          "trimStartSum" : 0,
                          "attributes" : {
                            "ident" : "token_hijacking_attack"
                          },
                          "parameters" : {
                            "cursorOpacity" : 0.0,
                            "cursorScale" : 0.0
                          },
                          "effects" : [

                          ],
                          "start" : 438,
                          "duration" : 30,
                          "mediaStart" : 348,
                          "mediaDuration" : 1,
                          "scalar" : 1,
                          "metadata" : {
                            "AutoAppliedSmartFocus" : "False"
                          },
                          "animationTracks" : {

                          }
                        },
                        {
                          "id" : 198,
                          "_type" : "ScreenVMFile",
                          "src" : 1,
                          "trackNumber" : 0,
                          "attributes" : {
                            "ident" : "token_hijacking_attack"
                          },
                          "parameters" : {
                            "cursorScale" : {
                              "type" : "double",
                              "defaultValue" : 0.0,
                              "interp" : "linr"
                            },
                            "cursorOpacity" : {
                              "type" : "double",
                              "defaultValue" : 0.0,
                              "interp" : "linr"
                            }
                          },
                          "effects" : [

                          ],
                          "start" : 468,
                          "duration" : 105,
                          "mediaStart" : 348,
                          "mediaDuration" : 105,
                          "scalar" : 1,
                          "metadata" : {
                            "AutoAppliedSmartFocus" : "False",
                            "clipSpeedAttribute" : false
                          },
                          "animationTracks" : {

                          }
                        },
                        {
                          "id" : 199,
                          "_type" : "ScreenIMFile",
                          "src" : 1,
                          "trackNumber" : 0,
                          "trimStartSum" : 0,
                          "attributes" : {
                            "ident" : "token_hijacking_attack"
                          },
                          "parameters" : {
                            "cursorOpacity" : 0.0,
                            "cursorScale" : 0.0
                          },
                          "effects" : [

                          ],
                          "start" : 573,
                          "duration" : 60,
                          "mediaStart" : 453,
                          "mediaDuration" : 1,
                          "scalar" : 1,
                          "metadata" : {
                            "AutoAppliedSmartFocus" : "False"
                          },
                          "animationTracks" : {

                          }
                        },
                        {
                          "id" : 200,
                          "_type" : "ScreenVMFile",
                          "src" : 1,
                          "trackNumber" : 0,
                          "attributes" : {
                            "ident" : "token_hijacking_attack"
                          },
                          "parameters" : {
                            "cursorScale" : {
                              "type" : "double",
                              "defaultValue" : 0.0,
                              "interp" : "linr"
                            },
                            "cursorOpacity" : {
                              "type" : "double",
                              "defaultValue" : 0.0,
                              "interp" : "linr"
                            }
                          },
                          "effects" : [

                          ],
                          "start" : 633,
                          "duration" : 1574986,
                          "mediaStart" : 453,
                          "mediaDuration" : 1574986,
                          "scalar" : 1,
                          "metadata" : {
                            "AutoAppliedSmartFocus" : "False",
                            "clipSpeedAttribute" : false
                          },
                          "animationTracks" : {

                          }
                        }
                    ],
                    "effects" : [
                        {
                          "effectName" : "CursorHilight",
                          "category" : "categoryCursorEffects",
                          "parameters" : {
                            "blur" : 0.1,
                            "color-alpha" : 0.75,
                            "color-blue" : 0.0,
                            "color-green" : 1.0,
                            "color-red" : 1.0,
                            "radius" : 50.0
                          }
                        }
                    ],
                    "start" : 891,
                    "duration" : 2,
                    "mediaStart" : 2116,
                    "mediaDuration" : 2,
                    "scalar" : 1,
                    "metadata" : {
                      "AutoAppliedSmartFocus" : "False",
                      "clipSpeedAttribute" : false,
                      "default-scale0" : 3.172876137306,
                      "default-scale1" : 3.17287726679297,
                      "default-translation0" : 2471.77226095314,
                      "default-translation1" : -1235.61824899191
                    },
                    "animationTracks" : {
                      "visual" : [
                        {
                          "endTime" : 237,
                          "duration" : 30,
                          "range" : [ 207, 30]
                        },
                        {
                          "endTime" : 343,
                          "duration" : 30,
                          "range" : [ 313, 30]
                        },
                        {
                          "endTime" : 466,
                          "duration" : 30,
                          "range" : [ 436, 30]
                        },
                        {
                          "endTime" : 632,
                          "duration" : 30,
                          "range" : [ 602, 30]
                        },
                        {
                          "endTime" : 751,
                          "duration" : 30,
                          "range" : [ 721, 30]
                        },
                        {
                          "endTime" : 785,
                          "duration" : 30,
                          "range" : [ 755, 30]
                        },
                        {
                          "endTime" : 814,
                          "duration" : 29,
                          "range" : [ 785, 29]
                        },
                        {
                          "endTime" : 1068,
                          "duration" : 26,
                          "range" : [ 1042, 26]
                        }
                      ]
                    }
                  },
                  {
                    "id" : 201,
                    "_type" : "StitchedMedia",
                    "minMediaStart" : 0,
                    "attributes" : {
                      "ident" : "token_hijacking_attack",
                      "gain" : 1.0,
                      "mixToMono" : false
                    },
                    "parameters" : {
                      "translation0" : {
                        "type" : "double",
                        "defaultValue" : 0.0,
                        "keyframes" : [
                          {
                            "endTime" : 237,
                            "time" : 207,
                            "value" : 6437.05178264923,
                            "duration" : 30
                          },
                          {
                            "endTime" : 343,
                            "time" : 313,
                            "value" : -4.54747350886464e-13,
                            "duration" : 30
                          },
                          {
                            "endTime" : 466,
                            "time" : 436,
                            "value" : 2471.77226095314,
                            "duration" : 30
                          },
                          {
                            "endTime" : 632,
                            "time" : 602,
                            "value" : -1.13686837721616e-13,
                            "duration" : 30
                          },
                          {
                            "endTime" : 751,
                            "time" : 721,
                            "value" : 1777.12723840605,
                            "duration" : 30
                          },
                          {
                            "endTime" : 785,
                            "time" : 755,
                            "value" : -1.13686837721616e-13,
                            "duration" : 30
                          },
                          {
                            "endTime" : 814,
                            "time" : 785,
                            "value" : 946.879645880833,
                            "duration" : 29
                          },
                          {
                            "endTime" : 1068,
                            "time" : 1042,
                            "value" : 1613.60702526176,
                            "duration" : 26
                          },
                          {
                            "endTime" : 2393,
                            "time" : 2363,
                            "value" : -1.13686837721616e-13,
                            "duration" : 30
                          }
                        ]
                      },
                      "translation1" : {
                        "type" : "double",
                        "defaultValue" : 0.0,
                        "keyframes" : [
                          {
                            "endTime" : 237,
                            "time" : 207,
                            "value" : -2825.0524936412,
                            "duration" : 30
                          },
                          {
                            "endTime" : 343,
                            "time" : 313,
                            "value" : 5.6843418860808e-14,
                            "duration" : 30
                          },
                          {
                            "endTime" : 466,
                            "time" : 436,
                            "value" : -1235.61824899191,
                            "duration" : 30
                          },
                          {
                            "endTime" : 632,
                            "time" : 602,
                            "value" : 1.13686837721616e-13,
                            "duration" : 30
                          },
                          {
                            "endTime" : 751,
                            "time" : 721,
                            "value" : -129.822625517978,
                            "duration" : 30
                          },
                          {
                            "endTime" : 785,
                            "time" : 755,
                            "value" : -2.1316282072803e-14,
                            "duration" : 30
                          },
                          {
                            "endTime" : 814,
                            "time" : 785,
                            "value" : -532.6,
                            "duration" : 29
                          },
                          {
                            "endTime" : 1068,
                            "time" : 1042,
                            "value" : -277.235424203718,
                            "duration" : 26
                          },
                          {
                            "endTime" : 2393,
                            "time" : 2363,
                            "value" : -5.6843418860808e-14,
                            "duration" : 30
                          }
                        ]
                      },
                      "scale0" : {
                        "type" : "double",
                        "defaultValue" : 1.0,
                        "keyframes" : [
                          {
                            "endTime" : 237,
                            "time" : 207,
                            "value" : 6.52631522480847,
                            "duration" : 30
                          },
                          {
                            "endTime" : 343,
                            "time" : 313,
                            "value" : 0.999999999999999,
                            "duration" : 30
                          },
                          {
                            "endTime" : 466,
                            "time" : 436,
                            "value" : 3.172876137306,
                            "duration" : 30
                          },
                          {
                            "endTime" : 632,
                            "time" : 602,
                            "value" : 0.99999964401807,
                            "duration" : 30
                          },
                          {
                            "endTime" : 751,
                            "time" : 721,
                            "value" : 2.83915303535992,
                            "duration" : 30
                          },
                          {
                            "endTime" : 785,
                            "time" : 755,
                            "value" : 0.999999512129719,
                            "duration" : 30
                          },
                          {
                            "endTime" : 814,
                            "time" : 785,
                            "value" : 1.90952759462014,
                            "duration" : 29
                          },
                          {
                            "endTime" : 1068,
                            "time" : 1042,
                            "value" : 2.48123987298737,
                            "duration" : 26
                          },
                          {
                            "endTime" : 2393,
                            "time" : 2363,
                            "value" : 0.999999424015319,
                            "duration" : 30
                          }
                        ]
                      },
                      "scale1" : {
                        "type" : "double",
                        "defaultValue" : 1.0,
                        "keyframes" : [
                          {
                            "endTime" : 237,
                            "time" : 207,
                            "value" : 6.52631500328686,
                            "duration" : 30
                          },
                          {
                            "endTime" : 343,
                            "time" : 313,
                            "value" : 0.999999966057169,
                            "duration" : 30
                          },
                          {
                            "endTime" : 466,
                            "time" : 436,
                            "value" : 3.17287726679297,
                            "duration" : 30
                          },
                          {
                            "endTime" : 632,
                            "time" : 602,
                            "value" : 1.0,
                            "duration" : 30
                          },
                          {
                            "endTime" : 751,
                            "time" : 721,
                            "value" : 2.83915442049899,
                            "duration" : 30
                          },
                          {
                            "endTime" : 785,
                            "time" : 755,
                            "value" : 1.0,
                            "duration" : 30
                          },
                          {
                            "endTime" : 814,
                            "time" : 785,
                            "value" : 1.9095287965103,
                            "duration" : 29
                          },
                          {
                            "endTime" : 1068,
                            "time" : 1042,
                            "value" : 2.48124130214435,
                            "duration" : 26
                          },
                          {
                            "endTime" : 2393,
                            "time" : 2363,
                            "value" : 1.0,
                            "duration" : 30
                          }
                        ]
                      },
                      "cursorOpacity" : 1.0,
                      "cursorScale" : 1.0
                    },
                    "medias" : [
                        {
                          "id" : 202,
                          "_type" : "ScreenVMFile",
                          "src" : 1,
                          "trackNumber" : 0,
                          "attributes" : {
                            "ident" : "token_hijacking_attack"
                          },
                          "parameters" : {
                            "cursorScale" : {
                              "type" : "double",
                              "defaultValue" : 0.0,
                              "interp" : "linr"
                            },
                            "cursorOpacity" : {
                              "type" : "double",
                              "defaultValue" : 0.0,
                              "interp" : "linr"
                            }
                          },
                          "effects" : [

                          ],
                          "start" : 0,
                          "duration" : 208,
                          "mediaStart" : 0,
                          "mediaDuration" : 208,
                          "scalar" : 1,
                          "metadata" : {
                            "AutoAppliedSmartFocus" : "False",
                            "clipSpeedAttribute" : false
                          },
                          "animationTracks" : {

                          }
                        },
                        {
                          "id" : 203,
                          "_type" : "ScreenIMFile",
                          "src" : 1,
                          "trackNumber" : 0,
                          "trimStartSum" : 0,
                          "attributes" : {
                            "ident" : "token_hijacking_attack"
                          },
                          "parameters" : {
                            "cursorOpacity" : 0.0,
                            "cursorScale" : 0.0
                          },
                          "effects" : [

                          ],
                          "start" : 208,
                          "duration" : 90,
                          "mediaStart" : 207,
                          "mediaDuration" : 1,
                          "scalar" : 1,
                          "metadata" : {
                            "AutoAppliedSmartFocus" : "False"
                          },
                          "animationTracks" : {

                          }
                        },
                        {
                          "id" : 204,
                          "_type" : "ScreenVMFile",
                          "src" : 1,
                          "trackNumber" : 0,
                          "attributes" : {
                            "ident" : "token_hijacking_attack"
                          },
                          "parameters" : {
                            "cursorScale" : {
                              "type" : "double",
                              "defaultValue" : 0.0,
                              "interp" : "linr"
                            },
                            "cursorOpacity" : {
                              "type" : "double",
                              "defaultValue" : 0.0,
                              "interp" : "linr"
                            }
                          },
                          "effects" : [

                          ],
                          "start" : 298,
                          "duration" : 140,
                          "mediaStart" : 208,
                          "mediaDuration" : 140,
                          "scalar" : 1,
                          "metadata" : {
                            "AutoAppliedSmartFocus" : "False",
                            "clipSpeedAttribute" : false
                          },
                          "animationTracks" : {

                          }
                        },
                        {
                          "id" : 205,
                          "_type" : "ScreenIMFile",
                          "src" : 1,
                          "trackNumber" : 0,
                          "trimStartSum" : 0,
                          "attributes" : {
                            "ident" : "token_hijacking_attack"
                          },
                          "parameters" : {
                            "cursorOpacity" : 0.0,
                            "cursorScale" : 0.0
                          },
                          "effects" : [

                          ],
                          "start" : 438,
                          "duration" : 30,
                          "mediaStart" : 348,
                          "mediaDuration" : 1,
                          "scalar" : 1,
                          "metadata" : {
                            "AutoAppliedSmartFocus" : "False"
                          },
                          "animationTracks" : {

                          }
                        },
                        {
                          "id" : 206,
                          "_type" : "ScreenVMFile",
                          "src" : 1,
                          "trackNumber" : 0,
                          "attributes" : {
                            "ident" : "token_hijacking_attack"
                          },
                          "parameters" : {
                            "cursorScale" : {
                              "type" : "double",
                              "defaultValue" : 0.0,
                              "interp" : "linr"
                            },
                            "cursorOpacity" : {
                              "type" : "double",
                              "defaultValue" : 0.0,
                              "interp" : "linr"
                            }
                          },
                          "effects" : [

                          ],
                          "start" : 468,
                          "duration" : 105,
                          "mediaStart" : 348,
                          "mediaDuration" : 105,
                          "scalar" : 1,
                          "metadata" : {
                            "AutoAppliedSmartFocus" : "False",
                            "clipSpeedAttribute" : false
                          },
                          "animationTracks" : {

                          }
                        },
                        {
                          "id" : 207,
                          "_type" : "ScreenIMFile",
                          "src" : 1,
                          "trackNumber" : 0,
                          "trimStartSum" : 0,
                          "attributes" : {
                            "ident" : "token_hijacking_attack"
                          },
                          "parameters" : {
                            "cursorOpacity" : 0.0,
                            "cursorScale" : 0.0
                          },
                          "effects" : [

                          ],
                          "start" : 573,
                          "duration" : 60,
                          "mediaStart" : 453,
                          "mediaDuration" : 1,
                          "scalar" : 1,
                          "metadata" : {
                            "AutoAppliedSmartFocus" : "False"
                          },
                          "animationTracks" : {

                          }
                        },
                        {
                          "id" : 208,
                          "_type" : "ScreenVMFile",
                          "src" : 1,
                          "trackNumber" : 0,
                          "attributes" : {
                            "ident" : "token_hijacking_attack"
                          },
                          "parameters" : {
                            "cursorScale" : {
                              "type" : "double",
                              "defaultValue" : 0.0,
                              "interp" : "linr"
                            },
                            "cursorOpacity" : {
                              "type" : "double",
                              "defaultValue" : 0.0,
                              "interp" : "linr"
                            }
                          },
                          "effects" : [

                          ],
                          "start" : 633,
                          "duration" : 1548,
                          "mediaStart" : 453,
                          "mediaDuration" : 1548,
                          "scalar" : 1,
                          "metadata" : {
                            "AutoAppliedSmartFocus" : "False",
                            "clipSpeedAttribute" : false
                          },
                          "animationTracks" : {

                          }
                        },
                        {
                          "id" : 209,
                          "_type" : "ScreenIMFile",
                          "src" : 1,
                          "trackNumber" : 0,
                          "trimStartSum" : 0,
                          "attributes" : {
                            "ident" : "token_hijacking_attack"
                          },
                          "parameters" : {
                            "cursorOpacity" : 0.0,
                            "cursorScale" : 0.0
                          },
                          "effects" : [

                          ],
                          "start" : 2181,
                          "duration" : 173,
                          "mediaStart" : 2001,
                          "mediaDuration" : 1,
                          "scalar" : 1,
                          "metadata" : {
                            "AutoAppliedSmartFocus" : "False"
                          },
                          "animationTracks" : {

                          }
                        },
                        {
                          "id" : 210,
                          "_type" : "ScreenVMFile",
                          "src" : 1,
                          "trackNumber" : 0,
                          "attributes" : {
                            "ident" : "token_hijacking_attack"
                          },
                          "parameters" : {
                            "cursorScale" : {
                              "type" : "double",
                              "defaultValue" : 0.0,
                              "interp" : "linr"
                            },
                            "cursorOpacity" : {
                              "type" : "double",
                              "defaultValue" : 0.0,
                              "interp" : "linr"
                            }
                          },
                          "effects" : [

                          ],
                          "start" : 2354,
                          "duration" : 1573438,
                          "mediaStart" : 2001,
                          "mediaDuration" : 1573438,
                          "scalar" : 1,
                          "metadata" : {
                            "AutoAppliedSmartFocus" : "False",
                            "clipSpeedAttribute" : false
                          },
                          "animationTracks" : {

                          }
                        }
                    ],
                    "effects" : [
                        {
                          "effectName" : "CursorHilight",
                          "category" : "categoryCursorEffects",
                          "parameters" : {
                            "blur" : 0.1,
                            "color-alpha" : 0.75,
                            "color-blue" : 0.0,
                            "color-green" : 1.0,
                            "color-red" : 1.0,
                            "radius" : 50.0
                          }
                        }
                    ],
                    "start" : 893,
                    "duration" : 240,
                    "mediaStart" : 2118,
                    "mediaDuration" : 240,
                    "scalar" : 1,
                    "metadata" : {
                      "AutoAppliedSmartFocus" : "False",
                      "clipSpeedAttribute" : false
                    },
                    "animationTracks" : {
                      "visual" : [
                        {
                          "endTime" : 237,
                          "duration" : 30,
                          "range" : [ 207, 30]
                        },
                        {
                          "endTime" : 343,
                          "duration" : 30,
                          "range" : [ 313, 30]
                        },
                        {
                          "endTime" : 466,
                          "duration" : 30,
                          "range" : [ 436, 30]
                        },
                        {
                          "endTime" : 632,
                          "duration" : 30,
                          "range" : [ 602, 30]
                        },
                        {
                          "endTime" : 751,
                          "duration" : 30,
                          "range" : [ 721, 30]
                        },
                        {
                          "endTime" : 785,
                          "duration" : 30,
                          "range" : [ 755, 30]
                        },
                        {
                          "endTime" : 814,
                          "duration" : 29,
                          "range" : [ 785, 29]
                        },
                        {
                          "endTime" : 1068,
                          "duration" : 26,
                          "range" : [ 1042, 26]
                        },
                        {
                          "endTime" : 2393,
                          "duration" : 30,
                          "range" : [ 2363, 30]
                        }
                      ]
                    }
                  },
                  {
                    "id" : 211,
                    "_type" : "StitchedMedia",
                    "minMediaStart" : 0,
                    "attributes" : {
                      "ident" : "token_hijacking_attack",
                      "gain" : 1.0,
                      "mixToMono" : false
                    },
                    "parameters" : {
                      "translation0" : {
                        "type" : "double",
                        "defaultValue" : 0.0,
                        "keyframes" : [
                          {
                            "endTime" : 237,
                            "time" : 207,
                            "value" : 6437.05178264923,
                            "duration" : 30
                          },
                          {
                            "endTime" : 343,
                            "time" : 313,
                            "value" : -4.54747350886464e-13,
                            "duration" : 30
                          },
                          {
                            "endTime" : 466,
                            "time" : 436,
                            "value" : 2471.77226095314,
                            "duration" : 30
                          },
                          {
                            "endTime" : 632,
                            "time" : 602,
                            "value" : -1.13686837721616e-13,
                            "duration" : 30
                          },
                          {
                            "endTime" : 751,
                            "time" : 721,
                            "value" : 1777.12723840605,
                            "duration" : 30
                          },
                          {
                            "endTime" : 785,
                            "time" : 755,
                            "value" : -1.13686837721616e-13,
                            "duration" : 30
                          },
                          {
                            "endTime" : 814,
                            "time" : 785,
                            "value" : 946.879645880833,
                            "duration" : 29
                          },
                          {
                            "endTime" : 1068,
                            "time" : 1042,
                            "value" : 1613.60702526176,
                            "duration" : 26
                          },
                          {
                            "endTime" : 2220,
                            "time" : 2190,
                            "value" : -1.13686837721616e-13,
                            "duration" : 30
                          }
                        ]
                      },
                      "translation1" : {
                        "type" : "double",
                        "defaultValue" : 0.0,
                        "keyframes" : [
                          {
                            "endTime" : 237,
                            "time" : 207,
                            "value" : -2825.0524936412,
                            "duration" : 30
                          },
                          {
                            "endTime" : 343,
                            "time" : 313,
                            "value" : 5.6843418860808e-14,
                            "duration" : 30
                          },
                          {
                            "endTime" : 466,
                            "time" : 436,
                            "value" : -1235.61824899191,
                            "duration" : 30
                          },
                          {
                            "endTime" : 632,
                            "time" : 602,
                            "value" : 1.13686837721616e-13,
                            "duration" : 30
                          },
                          {
                            "endTime" : 751,
                            "time" : 721,
                            "value" : -129.822625517978,
                            "duration" : 30
                          },
                          {
                            "endTime" : 785,
                            "time" : 755,
                            "value" : -2.1316282072803e-14,
                            "duration" : 30
                          },
                          {
                            "endTime" : 814,
                            "time" : 785,
                            "value" : -532.6,
                            "duration" : 29
                          },
                          {
                            "endTime" : 1068,
                            "time" : 1042,
                            "value" : -277.235424203718,
                            "duration" : 26
                          },
                          {
                            "endTime" : 2220,
                            "time" : 2190,
                            "value" : -5.6843418860808e-14,
                            "duration" : 30
                          }
                        ]
                      },
                      "scale0" : {
                        "type" : "double",
                        "defaultValue" : 1.0,
                        "keyframes" : [
                          {
                            "endTime" : 237,
                            "time" : 207,
                            "value" : 6.52631522480847,
                            "duration" : 30
                          },
                          {
                            "endTime" : 343,
                            "time" : 313,
                            "value" : 0.999999999999999,
                            "duration" : 30
                          },
                          {
                            "endTime" : 466,
                            "time" : 436,
                            "value" : 3.172876137306,
                            "duration" : 30
                          },
                          {
                            "endTime" : 632,
                            "time" : 602,
                            "value" : 0.99999964401807,
                            "duration" : 30
                          },
                          {
                            "endTime" : 751,
                            "time" : 721,
                            "value" : 2.83915303535992,
                            "duration" : 30
                          },
                          {
                            "endTime" : 785,
                            "time" : 755,
                            "value" : 0.999999512129719,
                            "duration" : 30
                          },
                          {
                            "endTime" : 814,
                            "time" : 785,
                            "value" : 1.90952759462014,
                            "duration" : 29
                          },
                          {
                            "endTime" : 1068,
                            "time" : 1042,
                            "value" : 2.48123987298737,
                            "duration" : 26
                          },
                          {
                            "endTime" : 2220,
                            "time" : 2190,
                            "value" : 0.999999424015319,
                            "duration" : 30
                          }
                        ]
                      },
                      "scale1" : {
                        "type" : "double",
                        "defaultValue" : 1.0,
                        "keyframes" : [
                          {
                            "endTime" : 237,
                            "time" : 207,
                            "value" : 6.52631500328686,
                            "duration" : 30
                          },
                          {
                            "endTime" : 343,
                            "time" : 313,
                            "value" : 0.999999966057169,
                            "duration" : 30
                          },
                          {
                            "endTime" : 466,
                            "time" : 436,
                            "value" : 3.17287726679297,
                            "duration" : 30
                          },
                          {
                            "endTime" : 632,
                            "time" : 602,
                            "value" : 1.0,
                            "duration" : 30
                          },
                          {
                            "endTime" : 751,
                            "time" : 721,
                            "value" : 2.83915442049899,
                            "duration" : 30
                          },
                          {
                            "endTime" : 785,
                            "time" : 755,
                            "value" : 1.0,
                            "duration" : 30
                          },
                          {
                            "endTime" : 814,
                            "time" : 785,
                            "value" : 1.9095287965103,
                            "duration" : 29
                          },
                          {
                            "endTime" : 1068,
                            "time" : 1042,
                            "value" : 2.48124130214435,
                            "duration" : 26
                          },
                          {
                            "endTime" : 2220,
                            "time" : 2190,
                            "value" : 1.0,
                            "duration" : 30
                          }
                        ]
                      },
                      "cursorOpacity" : 1.0,
                      "cursorScale" : 1.0
                    },
                    "medias" : [
                        {
                          "id" : 212,
                          "_type" : "ScreenVMFile",
                          "src" : 1,
                          "trackNumber" : 0,
                          "attributes" : {
                            "ident" : "token_hijacking_attack"
                          },
                          "parameters" : {
                            "cursorScale" : {
                              "type" : "double",
                              "defaultValue" : 0.0,
                              "interp" : "linr"
                            },
                            "cursorOpacity" : {
                              "type" : "double",
                              "defaultValue" : 0.0,
                              "interp" : "linr"
                            }
                          },
                          "effects" : [

                          ],
                          "start" : 0,
                          "duration" : 208,
                          "mediaStart" : 0,
                          "mediaDuration" : 208,
                          "scalar" : 1,
                          "metadata" : {
                            "AutoAppliedSmartFocus" : "False",
                            "clipSpeedAttribute" : false
                          },
                          "animationTracks" : {

                          }
                        },
                        {
                          "id" : 213,
                          "_type" : "ScreenIMFile",
                          "src" : 1,
                          "trackNumber" : 0,
                          "trimStartSum" : 0,
                          "attributes" : {
                            "ident" : "token_hijacking_attack"
                          },
                          "parameters" : {
                            "cursorOpacity" : 0.0,
                            "cursorScale" : 0.0
                          },
                          "effects" : [

                          ],
                          "start" : 208,
                          "duration" : 90,
                          "mediaStart" : 207,
                          "mediaDuration" : 1,
                          "scalar" : 1,
                          "metadata" : {
                            "AutoAppliedSmartFocus" : "False"
                          },
                          "animationTracks" : {

                          }
                        },
                        {
                          "id" : 214,
                          "_type" : "ScreenVMFile",
                          "src" : 1,
                          "trackNumber" : 0,
                          "attributes" : {
                            "ident" : "token_hijacking_attack"
                          },
                          "parameters" : {
                            "cursorScale" : {
                              "type" : "double",
                              "defaultValue" : 0.0,
                              "interp" : "linr"
                            },
                            "cursorOpacity" : {
                              "type" : "double",
                              "defaultValue" : 0.0,
                              "interp" : "linr"
                            }
                          },
                          "effects" : [

                          ],
                          "start" : 298,
                          "duration" : 140,
                          "mediaStart" : 208,
                          "mediaDuration" : 140,
                          "scalar" : 1,
                          "metadata" : {
                            "AutoAppliedSmartFocus" : "False",
                            "clipSpeedAttribute" : false
                          },
                          "animationTracks" : {

                          }
                        },
                        {
                          "id" : 215,
                          "_type" : "ScreenIMFile",
                          "src" : 1,
                          "trackNumber" : 0,
                          "trimStartSum" : 0,
                          "attributes" : {
                            "ident" : "token_hijacking_attack"
                          },
                          "parameters" : {
                            "cursorOpacity" : 0.0,
                            "cursorScale" : 0.0
                          },
                          "effects" : [

                          ],
                          "start" : 438,
                          "duration" : 30,
                          "mediaStart" : 348,
                          "mediaDuration" : 1,
                          "scalar" : 1,
                          "metadata" : {
                            "AutoAppliedSmartFocus" : "False"
                          },
                          "animationTracks" : {

                          }
                        },
                        {
                          "id" : 216,
                          "_type" : "ScreenVMFile",
                          "src" : 1,
                          "trackNumber" : 0,
                          "attributes" : {
                            "ident" : "token_hijacking_attack"
                          },
                          "parameters" : {
                            "cursorScale" : {
                              "type" : "double",
                              "defaultValue" : 0.0,
                              "interp" : "linr"
                            },
                            "cursorOpacity" : {
                              "type" : "double",
                              "defaultValue" : 0.0,
                              "interp" : "linr"
                            }
                          },
                          "effects" : [

                          ],
                          "start" : 468,
                          "duration" : 105,
                          "mediaStart" : 348,
                          "mediaDuration" : 105,
                          "scalar" : 1,
                          "metadata" : {
                            "AutoAppliedSmartFocus" : "False",
                            "clipSpeedAttribute" : false
                          },
                          "animationTracks" : {

                          }
                        },
                        {
                          "id" : 217,
                          "_type" : "ScreenIMFile",
                          "src" : 1,
                          "trackNumber" : 0,
                          "trimStartSum" : 0,
                          "attributes" : {
                            "ident" : "token_hijacking_attack"
                          },
                          "parameters" : {
                            "cursorOpacity" : 0.0,
                            "cursorScale" : 0.0
                          },
                          "effects" : [

                          ],
                          "start" : 573,
                          "duration" : 60,
                          "mediaStart" : 453,
                          "mediaDuration" : 1,
                          "scalar" : 1,
                          "metadata" : {
                            "AutoAppliedSmartFocus" : "False"
                          },
                          "animationTracks" : {

                          }
                        },
                        {
                          "id" : 218,
                          "_type" : "ScreenVMFile",
                          "src" : 1,
                          "trackNumber" : 0,
                          "attributes" : {
                            "ident" : "token_hijacking_attack"
                          },
                          "parameters" : {
                            "cursorScale" : {
                              "type" : "double",
                              "defaultValue" : 0.0,
                              "interp" : "linr"
                            },
                            "cursorOpacity" : {
                              "type" : "double",
                              "defaultValue" : 0.0,
                              "interp" : "linr"
                            }
                          },
                          "effects" : [

                          ],
                          "start" : 633,
                          "duration" : 1574986,
                          "mediaStart" : 453,
                          "mediaDuration" : 1574986,
                          "scalar" : 1,
                          "metadata" : {
                            "AutoAppliedSmartFocus" : "False",
                            "clipSpeedAttribute" : false
                          },
                          "animationTracks" : {

                          }
                        }
                    ],
                    "effects" : [
                        {
                          "effectName" : "CursorHilight",
                          "category" : "categoryCursorEffects",
                          "parameters" : {
                            "blur" : 0.1,
                            "color-alpha" : 0.75,
                            "color-blue" : 0.0,
                            "color-green" : 1.0,
                            "color-red" : 1.0,
                            "radius" : 50.0
                          }
                        }
                    ],
                    "start" : 1133,
                    "duration" : 36,
                    "mediaStart" : 2185,
                    "mediaDuration" : 36,
                    "scalar" : 1,
                    "metadata" : {
                      "AutoAppliedSmartFocus" : "False",
                      "clipSpeedAttribute" : false,
                      "default-scale0" : 3.172876137306,
                      "default-scale1" : 3.17287726679297,
                      "default-translation0" : 2471.77226095314,
                      "default-translation1" : -1235.61824899191
                    },
                    "animationTracks" : {
                      "visual" : [
                        {
                          "endTime" : 237,
                          "duration" : 30,
                          "range" : [ 207, 30]
                        },
                        {
                          "endTime" : 343,
                          "duration" : 30,
                          "range" : [ 313, 30]
                        },
                        {
                          "endTime" : 466,
                          "duration" : 30,
                          "range" : [ 436, 30]
                        },
                        {
                          "endTime" : 632,
                          "duration" : 30,
                          "range" : [ 602, 30]
                        },
                        {
                          "endTime" : 751,
                          "duration" : 30,
                          "range" : [ 721, 30]
                        },
                        {
                          "endTime" : 785,
                          "duration" : 30,
                          "range" : [ 755, 30]
                        },
                        {
                          "endTime" : 814,
                          "duration" : 29,
                          "range" : [ 785, 29]
                        },
                        {
                          "endTime" : 1068,
                          "duration" : 26,
                          "range" : [ 1042, 26]
                        },
                        {
                          "endTime" : 2220,
                          "duration" : 30,
                          "range" : [ 2190, 30]
                        }
                      ]
                    }
                  },
                  {
                    "id" : 219,
                    "_type" : "StitchedMedia",
                    "minMediaStart" : 0,
                    "attributes" : {
                      "ident" : "token_hijacking_attack",
                      "gain" : 1.0,
                      "mixToMono" : false
                    },
                    "parameters" : {
                      "translation0" : {
                        "type" : "double",
                        "defaultValue" : 0.0,
                        "keyframes" : [
                          {
                            "endTime" : 237,
                            "time" : 207,
                            "value" : 6437.05178264923,
                            "duration" : 30
                          },
                          {
                            "endTime" : 343,
                            "time" : 313,
                            "value" : -4.54747350886464e-13,
                            "duration" : 30
                          },
                          {
                            "endTime" : 466,
                            "time" : 436,
                            "value" : 2471.77226095314,
                            "duration" : 30
                          },
                          {
                            "endTime" : 632,
                            "time" : 602,
                            "value" : -1.13686837721616e-13,
                            "duration" : 30
                          },
                          {
                            "endTime" : 751,
                            "time" : 721,
                            "value" : 1777.12723840605,
                            "duration" : 30
                          },
                          {
                            "endTime" : 785,
                            "time" : 755,
                            "value" : -1.13686837721616e-13,
                            "duration" : 30
                          },
                          {
                            "endTime" : 814,
                            "time" : 785,
                            "value" : 946.879645880833,
                            "duration" : 29
                          },
                          {
                            "endTime" : 1068,
                            "time" : 1042,
                            "value" : 1613.60702526176,
                            "duration" : 26
                          },
                          {
                            "endTime" : 2220,
                            "time" : 2190,
                            "value" : -1.13686837721616e-13,
                            "duration" : 30
                          }
                        ]
                      },
                      "translation1" : {
                        "type" : "double",
                        "defaultValue" : 0.0,
                        "keyframes" : [
                          {
                            "endTime" : 237,
                            "time" : 207,
                            "value" : -2825.0524936412,
                            "duration" : 30
                          },
                          {
                            "endTime" : 343,
                            "time" : 313,
                            "value" : 5.6843418860808e-14,
                            "duration" : 30
                          },
                          {
                            "endTime" : 466,
                            "time" : 436,
                            "value" : -1235.61824899191,
                            "duration" : 30
                          },
                          {
                            "endTime" : 632,
                            "time" : 602,
                            "value" : 1.13686837721616e-13,
                            "duration" : 30
                          },
                          {
                            "endTime" : 751,
                            "time" : 721,
                            "value" : -129.822625517978,
                            "duration" : 30
                          },
                          {
                            "endTime" : 785,
                            "time" : 755,
                            "value" : -2.1316282072803e-14,
                            "duration" : 30
                          },
                          {
                            "endTime" : 814,
                            "time" : 785,
                            "value" : -532.6,
                            "duration" : 29
                          },
                          {
                            "endTime" : 1068,
                            "time" : 1042,
                            "value" : -277.235424203718,
                            "duration" : 26
                          },
                          {
                            "endTime" : 2220,
                            "time" : 2190,
                            "value" : -5.6843418860808e-14,
                            "duration" : 30
                          }
                        ]
                      },
                      "scale0" : {
                        "type" : "double",
                        "defaultValue" : 1.0,
                        "keyframes" : [
                          {
                            "endTime" : 237,
                            "time" : 207,
                            "value" : 6.52631522480847,
                            "duration" : 30
                          },
                          {
                            "endTime" : 343,
                            "time" : 313,
                            "value" : 0.999999999999999,
                            "duration" : 30
                          },
                          {
                            "endTime" : 466,
                            "time" : 436,
                            "value" : 3.172876137306,
                            "duration" : 30
                          },
                          {
                            "endTime" : 632,
                            "time" : 602,
                            "value" : 0.99999964401807,
                            "duration" : 30
                          },
                          {
                            "endTime" : 751,
                            "time" : 721,
                            "value" : 2.83915303535992,
                            "duration" : 30
                          },
                          {
                            "endTime" : 785,
                            "time" : 755,
                            "value" : 0.999999512129719,
                            "duration" : 30
                          },
                          {
                            "endTime" : 814,
                            "time" : 785,
                            "value" : 1.90952759462014,
                            "duration" : 29
                          },
                          {
                            "endTime" : 1068,
                            "time" : 1042,
                            "value" : 2.48123987298737,
                            "duration" : 26
                          },
                          {
                            "endTime" : 2220,
                            "time" : 2190,
                            "value" : 0.999999424015319,
                            "duration" : 30
                          }
                        ]
                      },
                      "scale1" : {
                        "type" : "double",
                        "defaultValue" : 1.0,
                        "keyframes" : [
                          {
                            "endTime" : 237,
                            "time" : 207,
                            "value" : 6.52631500328686,
                            "duration" : 30
                          },
                          {
                            "endTime" : 343,
                            "time" : 313,
                            "value" : 0.999999966057169,
                            "duration" : 30
                          },
                          {
                            "endTime" : 466,
                            "time" : 436,
                            "value" : 3.17287726679297,
                            "duration" : 30
                          },
                          {
                            "endTime" : 632,
                            "time" : 602,
                            "value" : 1.0,
                            "duration" : 30
                          },
                          {
                            "endTime" : 751,
                            "time" : 721,
                            "value" : 2.83915442049899,
                            "duration" : 30
                          },
                          {
                            "endTime" : 785,
                            "time" : 755,
                            "value" : 1.0,
                            "duration" : 30
                          },
                          {
                            "endTime" : 814,
                            "time" : 785,
                            "value" : 1.9095287965103,
                            "duration" : 29
                          },
                          {
                            "endTime" : 1068,
                            "time" : 1042,
                            "value" : 2.48124130214435,
                            "duration" : 26
                          },
                          {
                            "endTime" : 2220,
                            "time" : 2190,
                            "value" : 1.0,
                            "duration" : 30
                          }
                        ]
                      },
                      "cursorOpacity" : 1.0,
                      "cursorScale" : 1.0
                    },
                    "medias" : [
                        {
                          "id" : 220,
                          "_type" : "ScreenVMFile",
                          "src" : 1,
                          "trackNumber" : 0,
                          "attributes" : {
                            "ident" : "token_hijacking_attack"
                          },
                          "parameters" : {
                            "cursorScale" : {
                              "type" : "double",
                              "defaultValue" : 0.0,
                              "interp" : "linr"
                            },
                            "cursorOpacity" : {
                              "type" : "double",
                              "defaultValue" : 0.0,
                              "interp" : "linr"
                            }
                          },
                          "effects" : [

                          ],
                          "start" : 0,
                          "duration" : 208,
                          "mediaStart" : 0,
                          "mediaDuration" : 208,
                          "scalar" : 1,
                          "metadata" : {
                            "AutoAppliedSmartFocus" : "False",
                            "clipSpeedAttribute" : false
                          },
                          "animationTracks" : {

                          }
                        },
                        {
                          "id" : 221,
                          "_type" : "ScreenIMFile",
                          "src" : 1,
                          "trackNumber" : 0,
                          "trimStartSum" : 0,
                          "attributes" : {
                            "ident" : "token_hijacking_attack"
                          },
                          "parameters" : {
                            "cursorOpacity" : 0.0,
                            "cursorScale" : 0.0
                          },
                          "effects" : [

                          ],
                          "start" : 208,
                          "duration" : 90,
                          "mediaStart" : 207,
                          "mediaDuration" : 1,
                          "scalar" : 1,
                          "metadata" : {
                            "AutoAppliedSmartFocus" : "False"
                          },
                          "animationTracks" : {

                          }
                        },
                        {
                          "id" : 222,
                          "_type" : "ScreenVMFile",
                          "src" : 1,
                          "trackNumber" : 0,
                          "attributes" : {
                            "ident" : "token_hijacking_attack"
                          },
                          "parameters" : {
                            "cursorScale" : {
                              "type" : "double",
                              "defaultValue" : 0.0,
                              "interp" : "linr"
                            },
                            "cursorOpacity" : {
                              "type" : "double",
                              "defaultValue" : 0.0,
                              "interp" : "linr"
                            }
                          },
                          "effects" : [

                          ],
                          "start" : 298,
                          "duration" : 140,
                          "mediaStart" : 208,
                          "mediaDuration" : 140,
                          "scalar" : 1,
                          "metadata" : {
                            "AutoAppliedSmartFocus" : "False",
                            "clipSpeedAttribute" : false
                          },
                          "animationTracks" : {

                          }
                        },
                        {
                          "id" : 223,
                          "_type" : "ScreenIMFile",
                          "src" : 1,
                          "trackNumber" : 0,
                          "trimStartSum" : 0,
                          "attributes" : {
                            "ident" : "token_hijacking_attack"
                          },
                          "parameters" : {
                            "cursorOpacity" : 0.0,
                            "cursorScale" : 0.0
                          },
                          "effects" : [

                          ],
                          "start" : 438,
                          "duration" : 30,
                          "mediaStart" : 348,
                          "mediaDuration" : 1,
                          "scalar" : 1,
                          "metadata" : {
                            "AutoAppliedSmartFocus" : "False"
                          },
                          "animationTracks" : {

                          }
                        },
                        {
                          "id" : 224,
                          "_type" : "ScreenVMFile",
                          "src" : 1,
                          "trackNumber" : 0,
                          "attributes" : {
                            "ident" : "token_hijacking_attack"
                          },
                          "parameters" : {
                            "cursorScale" : {
                              "type" : "double",
                              "defaultValue" : 0.0,
                              "interp" : "linr"
                            },
                            "cursorOpacity" : {
                              "type" : "double",
                              "defaultValue" : 0.0,
                              "interp" : "linr"
                            }
                          },
                          "effects" : [

                          ],
                          "start" : 468,
                          "duration" : 105,
                          "mediaStart" : 348,
                          "mediaDuration" : 105,
                          "scalar" : 1,
                          "metadata" : {
                            "AutoAppliedSmartFocus" : "False",
                            "clipSpeedAttribute" : false
                          },
                          "animationTracks" : {

                          }
                        },
                        {
                          "id" : 225,
                          "_type" : "ScreenIMFile",
                          "src" : 1,
                          "trackNumber" : 0,
                          "trimStartSum" : 0,
                          "attributes" : {
                            "ident" : "token_hijacking_attack"
                          },
                          "parameters" : {
                            "cursorOpacity" : 0.0,
                            "cursorScale" : 0.0
                          },
                          "effects" : [

                          ],
                          "start" : 573,
                          "duration" : 60,
                          "mediaStart" : 453,
                          "mediaDuration" : 1,
                          "scalar" : 1,
                          "metadata" : {
                            "AutoAppliedSmartFocus" : "False"
                          },
                          "animationTracks" : {

                          }
                        },
                        {
                          "id" : 226,
                          "_type" : "ScreenVMFile",
                          "src" : 1,
                          "trackNumber" : 0,
                          "attributes" : {
                            "ident" : "token_hijacking_attack"
                          },
                          "parameters" : {
                            "cursorScale" : {
                              "type" : "double",
                              "defaultValue" : 0.0,
                              "interp" : "linr"
                            },
                            "cursorOpacity" : {
                              "type" : "double",
                              "defaultValue" : 0.0,
                              "interp" : "linr"
                            }
                          },
                          "effects" : [

                          ],
                          "start" : 633,
                          "duration" : 1574986,
                          "mediaStart" : 453,
                          "mediaDuration" : 1574986,
                          "scalar" : 1,
                          "metadata" : {
                            "AutoAppliedSmartFocus" : "False",
                            "clipSpeedAttribute" : false
                          },
                          "animationTracks" : {

                          }
                        }
                    ],
                    "effects" : [
                        {
                          "effectName" : "CursorHilight",
                          "category" : "categoryCursorEffects",
                          "parameters" : {
                            "blur" : 0.1,
                            "color-alpha" : 0.75,
                            "color-blue" : 0.0,
                            "color-green" : 1.0,
                            "color-red" : 1.0,
                            "radius" : 50.0
                          }
                        }
                    ],
                    "start" : 1169,
                    "duration" : 90,
                    "mediaStart" : 2221,
                    "mediaDuration" : 233,
                    "scalar" : "90/233",
                    "metadata" : {
                      "AutoAppliedSmartFocus" : "False",
                      "clipSpeedAttribute" : true,
                      "default-scale0" : 3.172876137306,
                      "default-scale1" : 3.17287726679297,
                      "default-translation0" : 2471.77226095314,
                      "default-translation1" : -1235.61824899191
                    },
                    "animationTracks" : {
                      "visual" : [
                        {
                          "endTime" : 237,
                          "duration" : 30,
                          "range" : [ 207, 30]
                        },
                        {
                          "endTime" : 343,
                          "duration" : 30,
                          "range" : [ 313, 30]
                        },
                        {
                          "endTime" : 466,
                          "duration" : 30,
                          "range" : [ 436, 30]
                        },
                        {
                          "endTime" : 632,
                          "duration" : 30,
                          "range" : [ 602, 30]
                        },
                        {
                          "endTime" : 751,
                          "duration" : 30,
                          "range" : [ 721, 30]
                        },
                        {
                          "endTime" : 785,
                          "duration" : 30,
                          "range" : [ 755, 30]
                        },
                        {
                          "endTime" : 814,
                          "duration" : 29,
                          "range" : [ 785, 29]
                        },
                        {
                          "endTime" : 1068,
                          "duration" : 26,
                          "range" : [ 1042, 26]
                        },
                        {
                          "endTime" : 2220,
                          "duration" : 30,
                          "range" : [ 2190, 30]
                        }
                      ]
                    }
                  },
                  {
                    "id" : 227,
                    "_type" : "StitchedMedia",
                    "minMediaStart" : 0,
                    "attributes" : {
                      "ident" : "token_hijacking_attack",
                      "gain" : 1.0,
                      "mixToMono" : false
                    },
                    "parameters" : {
                      "translation0" : {
                        "type" : "double",
                        "defaultValue" : 0.0,
                        "keyframes" : [
                          {
                            "endTime" : 237,
                            "time" : 207,
                            "value" : 6437.05178264923,
                            "duration" : 30
                          },
                          {
                            "endTime" : 343,
                            "time" : 313,
                            "value" : -4.54747350886464e-13,
                            "duration" : 30
                          },
                          {
                            "endTime" : 466,
                            "time" : 436,
                            "value" : 2471.77226095314,
                            "duration" : 30
                          },
                          {
                            "endTime" : 632,
                            "time" : 602,
                            "value" : -1.13686837721616e-13,
                            "duration" : 30
                          },
                          {
                            "endTime" : 751,
                            "time" : 721,
                            "value" : 1777.12723840605,
                            "duration" : 30
                          },
                          {
                            "endTime" : 785,
                            "time" : 755,
                            "value" : -1.13686837721616e-13,
                            "duration" : 30
                          },
                          {
                            "endTime" : 814,
                            "time" : 785,
                            "value" : 946.879645880833,
                            "duration" : 29
                          },
                          {
                            "endTime" : 1068,
                            "time" : 1042,
                            "value" : 1613.60702526176,
                            "duration" : 26
                          },
                          {
                            "endTime" : 2220,
                            "time" : 2190,
                            "value" : -1.13686837721616e-13,
                            "duration" : 30
                          },
                          {
                            "endTime" : 2510,
                            "time" : 2480,
                            "value" : -84.4290398276389,
                            "duration" : 30
                          }
                        ]
                      },
                      "translation1" : {
                        "type" : "double",
                        "defaultValue" : 0.0,
                        "keyframes" : [
                          {
                            "endTime" : 237,
                            "time" : 207,
                            "value" : -2825.0524936412,
                            "duration" : 30
                          },
                          {
                            "endTime" : 343,
                            "time" : 313,
                            "value" : 5.6843418860808e-14,
                            "duration" : 30
                          },
                          {
                            "endTime" : 466,
                            "time" : 436,
                            "value" : -1235.61824899191,
                            "duration" : 30
                          },
                          {
                            "endTime" : 632,
                            "time" : 602,
                            "value" : 1.13686837721616e-13,
                            "duration" : 30
                          },
                          {
                            "endTime" : 751,
                            "time" : 721,
                            "value" : -129.822625517978,
                            "duration" : 30
                          },
                          {
                            "endTime" : 785,
                            "time" : 755,
                            "value" : -2.1316282072803e-14,
                            "duration" : 30
                          },
                          {
                            "endTime" : 814,
                            "time" : 785,
                            "value" : -532.6,
                            "duration" : 29
                          },
                          {
                            "endTime" : 1068,
                            "time" : 1042,
                            "value" : -277.235424203718,
                            "duration" : 26
                          },
                          {
                            "endTime" : 2220,
                            "time" : 2190,
                            "value" : -5.6843418860808e-14,
                            "duration" : 30
                          },
                          {
                            "endTime" : 2510,
                            "time" : 2480,
                            "value" : -902.332175055167,
                            "duration" : 30
                          }
                        ]
                      },
                      "scale0" : {
                        "type" : "double",
                        "defaultValue" : 1.0,
                        "keyframes" : [
                          {
                            "endTime" : 237,
                            "time" : 207,
                            "value" : 6.52631522480847,
                            "duration" : 30
                          },
                          {
                            "endTime" : 343,
                            "time" : 313,
                            "value" : 0.999999999999999,
                            "duration" : 30
                          },
                          {
                            "endTime" : 466,
                            "time" : 436,
                            "value" : 3.172876137306,
                            "duration" : 30
                          },
                          {
                            "endTime" : 632,
                            "time" : 602,
                            "value" : 0.99999964401807,
                            "duration" : 30
                          },
                          {
                            "endTime" : 751,
                            "time" : 721,
                            "value" : 2.83915303535992,
                            "duration" : 30
                          },
                          {
                            "endTime" : 785,
                            "time" : 755,
                            "value" : 0.999999512129719,
                            "duration" : 30
                          },
                          {
                            "endTime" : 814,
                            "time" : 785,
                            "value" : 1.90952759462014,
                            "duration" : 29
                          },
                          {
                            "endTime" : 1068,
                            "time" : 1042,
                            "value" : 2.48123987298737,
                            "duration" : 26
                          },
                          {
                            "endTime" : 2220,
                            "time" : 2190,
                            "value" : 0.999999424015319,
                            "duration" : 30
                          },
                          {
                            "endTime" : 2510,
                            "time" : 2480,
                            "value" : 2.92108215027906,
                            "duration" : 30
                          }
                        ]
                      },
                      "scale1" : {
                        "type" : "double",
                        "defaultValue" : 1.0,
                        "keyframes" : [
                          {
                            "endTime" : 237,
                            "time" : 207,
                            "value" : 6.52631500328686,
                            "duration" : 30
                          },
                          {
                            "endTime" : 343,
                            "time" : 313,
                            "value" : 0.999999966057169,
                            "duration" : 30
                          },
                          {
                            "endTime" : 466,
                            "time" : 436,
                            "value" : 3.17287726679297,
                            "duration" : 30
                          },
                          {
                            "endTime" : 632,
                            "time" : 602,
                            "value" : 1.0,
                            "duration" : 30
                          },
                          {
                            "endTime" : 751,
                            "time" : 721,
                            "value" : 2.83915442049899,
                            "duration" : 30
                          },
                          {
                            "endTime" : 785,
                            "time" : 755,
                            "value" : 1.0,
                            "duration" : 30
                          },
                          {
                            "endTime" : 814,
                            "time" : 785,
                            "value" : 1.9095287965103,
                            "duration" : 29
                          },
                          {
                            "endTime" : 1068,
                            "time" : 1042,
                            "value" : 2.48124130214435,
                            "duration" : 26
                          },
                          {
                            "endTime" : 2220,
                            "time" : 2190,
                            "value" : 1.0,
                            "duration" : 30
                          },
                          {
                            "endTime" : 2510,
                            "time" : 2480,
                            "value" : 2.921083837796,
                            "duration" : 30
                          }
                        ]
                      },
                      "cursorOpacity" : 1.0,
                      "cursorScale" : 1.0
                    },
                    "medias" : [
                        {
                          "id" : 228,
                          "_type" : "ScreenVMFile",
                          "src" : 1,
                          "trackNumber" : 0,
                          "attributes" : {
                            "ident" : "token_hijacking_attack"
                          },
                          "parameters" : {
                            "cursorScale" : {
                              "type" : "double",
                              "defaultValue" : 0.0,
                              "interp" : "linr"
                            },
                            "cursorOpacity" : {
                              "type" : "double",
                              "defaultValue" : 0.0,
                              "interp" : "linr"
                            }
                          },
                          "effects" : [

                          ],
                          "start" : 0,
                          "duration" : 208,
                          "mediaStart" : 0,
                          "mediaDuration" : 208,
                          "scalar" : 1,
                          "metadata" : {
                            "AutoAppliedSmartFocus" : "False",
                            "clipSpeedAttribute" : false
                          },
                          "animationTracks" : {

                          }
                        },
                        {
                          "id" : 229,
                          "_type" : "ScreenIMFile",
                          "src" : 1,
                          "trackNumber" : 0,
                          "trimStartSum" : 0,
                          "attributes" : {
                            "ident" : "token_hijacking_attack"
                          },
                          "parameters" : {
                            "cursorOpacity" : 0.0,
                            "cursorScale" : 0.0
                          },
                          "effects" : [

                          ],
                          "start" : 208,
                          "duration" : 90,
                          "mediaStart" : 207,
                          "mediaDuration" : 1,
                          "scalar" : 1,
                          "metadata" : {
                            "AutoAppliedSmartFocus" : "False"
                          },
                          "animationTracks" : {

                          }
                        },
                        {
                          "id" : 230,
                          "_type" : "ScreenVMFile",
                          "src" : 1,
                          "trackNumber" : 0,
                          "attributes" : {
                            "ident" : "token_hijacking_attack"
                          },
                          "parameters" : {
                            "cursorScale" : {
                              "type" : "double",
                              "defaultValue" : 0.0,
                              "interp" : "linr"
                            },
                            "cursorOpacity" : {
                              "type" : "double",
                              "defaultValue" : 0.0,
                              "interp" : "linr"
                            }
                          },
                          "effects" : [

                          ],
                          "start" : 298,
                          "duration" : 140,
                          "mediaStart" : 208,
                          "mediaDuration" : 140,
                          "scalar" : 1,
                          "metadata" : {
                            "AutoAppliedSmartFocus" : "False",
                            "clipSpeedAttribute" : false
                          },
                          "animationTracks" : {

                          }
                        },
                        {
                          "id" : 231,
                          "_type" : "ScreenIMFile",
                          "src" : 1,
                          "trackNumber" : 0,
                          "trimStartSum" : 0,
                          "attributes" : {
                            "ident" : "token_hijacking_attack"
                          },
                          "parameters" : {
                            "cursorOpacity" : 0.0,
                            "cursorScale" : 0.0
                          },
                          "effects" : [

                          ],
                          "start" : 438,
                          "duration" : 30,
                          "mediaStart" : 348,
                          "mediaDuration" : 1,
                          "scalar" : 1,
                          "metadata" : {
                            "AutoAppliedSmartFocus" : "False"
                          },
                          "animationTracks" : {

                          }
                        },
                        {
                          "id" : 232,
                          "_type" : "ScreenVMFile",
                          "src" : 1,
                          "trackNumber" : 0,
                          "attributes" : {
                            "ident" : "token_hijacking_attack"
                          },
                          "parameters" : {
                            "cursorScale" : {
                              "type" : "double",
                              "defaultValue" : 0.0,
                              "interp" : "linr"
                            },
                            "cursorOpacity" : {
                              "type" : "double",
                              "defaultValue" : 0.0,
                              "interp" : "linr"
                            }
                          },
                          "effects" : [

                          ],
                          "start" : 468,
                          "duration" : 105,
                          "mediaStart" : 348,
                          "mediaDuration" : 105,
                          "scalar" : 1,
                          "metadata" : {
                            "AutoAppliedSmartFocus" : "False",
                            "clipSpeedAttribute" : false
                          },
                          "animationTracks" : {

                          }
                        },
                        {
                          "id" : 233,
                          "_type" : "ScreenIMFile",
                          "src" : 1,
                          "trackNumber" : 0,
                          "trimStartSum" : 0,
                          "attributes" : {
                            "ident" : "token_hijacking_attack"
                          },
                          "parameters" : {
                            "cursorOpacity" : 0.0,
                            "cursorScale" : 0.0
                          },
                          "effects" : [

                          ],
                          "start" : 573,
                          "duration" : 60,
                          "mediaStart" : 453,
                          "mediaDuration" : 1,
                          "scalar" : 1,
                          "metadata" : {
                            "AutoAppliedSmartFocus" : "False"
                          },
                          "animationTracks" : {

                          }
                        },
                        {
                          "id" : 234,
                          "_type" : "ScreenVMFile",
                          "src" : 1,
                          "trackNumber" : 0,
                          "attributes" : {
                            "ident" : "token_hijacking_attack"
                          },
                          "parameters" : {
                            "cursorScale" : {
                              "type" : "double",
                              "defaultValue" : 0.0,
                              "interp" : "linr"
                            },
                            "cursorOpacity" : {
                              "type" : "double",
                              "defaultValue" : 0.0,
                              "interp" : "linr"
                            }
                          },
                          "effects" : [

                          ],
                          "start" : 633,
                          "duration" : 1574986,
                          "mediaStart" : 453,
                          "mediaDuration" : 1574986,
                          "scalar" : 1,
                          "metadata" : {
                            "AutoAppliedSmartFocus" : "False",
                            "clipSpeedAttribute" : false
                          },
                          "animationTracks" : {

                          }
                        }
                    ],
                    "effects" : [
                        {
                          "effectName" : "CursorHilight",
                          "category" : "categoryCursorEffects",
                          "parameters" : {
                            "blur" : 0.1,
                            "color-alpha" : 0.75,
                            "color-blue" : 0.0,
                            "color-green" : 1.0,
                            "color-red" : 1.0,
                            "radius" : 50.0
                          }
                        }
                    ],
                    "start" : 1259,
                    "duration" : 76,
                    "mediaStart" : 2454,
                    "mediaDuration" : 76,
                    "scalar" : 1,
                    "metadata" : {
                      "AutoAppliedSmartFocus" : "False",
                      "clipSpeedAttribute" : false,
                      "default-scale0" : 3.172876137306,
                      "default-scale1" : 3.17287726679297,
                      "default-translation0" : 2471.77226095314,
                      "default-translation1" : -1235.61824899191
                    },
                    "animationTracks" : {
                      "visual" : [
                        {
                          "endTime" : 237,
                          "duration" : 30,
                          "range" : [ 207, 30]
                        },
                        {
                          "endTime" : 343,
                          "duration" : 30,
                          "range" : [ 313, 30]
                        },
                        {
                          "endTime" : 466,
                          "duration" : 30,
                          "range" : [ 436, 30]
                        },
                        {
                          "endTime" : 632,
                          "duration" : 30,
                          "range" : [ 602, 30]
                        },
                        {
                          "endTime" : 751,
                          "duration" : 30,
                          "range" : [ 721, 30]
                        },
                        {
                          "endTime" : 785,
                          "duration" : 30,
                          "range" : [ 755, 30]
                        },
                        {
                          "endTime" : 814,
                          "duration" : 29,
                          "range" : [ 785, 29]
                        },
                        {
                          "endTime" : 1068,
                          "duration" : 26,
                          "range" : [ 1042, 26]
                        },
                        {
                          "endTime" : 2220,
                          "duration" : 30,
                          "range" : [ 2190, 30]
                        },
                        {
                          "endTime" : 2510,
                          "duration" : 30,
                          "range" : [ 2480, 30]
                        }
                      ]
                    }
                  },
                  {
                    "id" : 235,
                    "_type" : "StitchedMedia",
                    "minMediaStart" : 0,
                    "attributes" : {
                      "ident" : "token_hijacking_attack",
                      "gain" : 1.0,
                      "mixToMono" : false
                    },
                    "parameters" : {
                      "translation0" : {
                        "type" : "double",
                        "defaultValue" : 0.0,
                        "keyframes" : [
                          {
                            "endTime" : 237,
                            "time" : 207,
                            "value" : 6437.05178264923,
                            "duration" : 30
                          },
                          {
                            "endTime" : 343,
                            "time" : 313,
                            "value" : -4.54747350886464e-13,
                            "duration" : 30
                          },
                          {
                            "endTime" : 466,
                            "time" : 436,
                            "value" : 2471.77226095314,
                            "duration" : 30
                          },
                          {
                            "endTime" : 632,
                            "time" : 602,
                            "value" : -1.13686837721616e-13,
                            "duration" : 30
                          },
                          {
                            "endTime" : 751,
                            "time" : 721,
                            "value" : 1777.12723840605,
                            "duration" : 30
                          },
                          {
                            "endTime" : 785,
                            "time" : 755,
                            "value" : -1.13686837721616e-13,
                            "duration" : 30
                          },
                          {
                            "endTime" : 814,
                            "time" : 785,
                            "value" : 946.879645880833,
                            "duration" : 29
                          },
                          {
                            "endTime" : 1068,
                            "time" : 1042,
                            "value" : 1613.60702526176,
                            "duration" : 26
                          },
                          {
                            "endTime" : 2220,
                            "time" : 2190,
                            "value" : -1.13686837721616e-13,
                            "duration" : 30
                          },
                          {
                            "endTime" : 2510,
                            "time" : 2480,
                            "value" : -84.4290398276389,
                            "duration" : 30
                          }
                        ]
                      },
                      "translation1" : {
                        "type" : "double",
                        "defaultValue" : 0.0,
                        "keyframes" : [
                          {
                            "endTime" : 237,
                            "time" : 207,
                            "value" : -2825.0524936412,
                            "duration" : 30
                          },
                          {
                            "endTime" : 343,
                            "time" : 313,
                            "value" : 5.6843418860808e-14,
                            "duration" : 30
                          },
                          {
                            "endTime" : 466,
                            "time" : 436,
                            "value" : -1235.61824899191,
                            "duration" : 30
                          },
                          {
                            "endTime" : 632,
                            "time" : 602,
                            "value" : 1.13686837721616e-13,
                            "duration" : 30
                          },
                          {
                            "endTime" : 751,
                            "time" : 721,
                            "value" : -129.822625517978,
                            "duration" : 30
                          },
                          {
                            "endTime" : 785,
                            "time" : 755,
                            "value" : -2.1316282072803e-14,
                            "duration" : 30
                          },
                          {
                            "endTime" : 814,
                            "time" : 785,
                            "value" : -532.6,
                            "duration" : 29
                          },
                          {
                            "endTime" : 1068,
                            "time" : 1042,
                            "value" : -277.235424203718,
                            "duration" : 26
                          },
                          {
                            "endTime" : 2220,
                            "time" : 2190,
                            "value" : -5.6843418860808e-14,
                            "duration" : 30
                          },
                          {
                            "endTime" : 2510,
                            "time" : 2480,
                            "value" : -902.332175055167,
                            "duration" : 30
                          }
                        ]
                      },
                      "scale0" : {
                        "type" : "double",
                        "defaultValue" : 1.0,
                        "keyframes" : [
                          {
                            "endTime" : 237,
                            "time" : 207,
                            "value" : 6.52631522480847,
                            "duration" : 30
                          },
                          {
                            "endTime" : 343,
                            "time" : 313,
                            "value" : 0.999999999999999,
                            "duration" : 30
                          },
                          {
                            "endTime" : 466,
                            "time" : 436,
                            "value" : 3.172876137306,
                            "duration" : 30
                          },
                          {
                            "endTime" : 632,
                            "time" : 602,
                            "value" : 0.99999964401807,
                            "duration" : 30
                          },
                          {
                            "endTime" : 751,
                            "time" : 721,
                            "value" : 2.83915303535992,
                            "duration" : 30
                          },
                          {
                            "endTime" : 785,
                            "time" : 755,
                            "value" : 0.999999512129719,
                            "duration" : 30
                          },
                          {
                            "endTime" : 814,
                            "time" : 785,
                            "value" : 1.90952759462014,
                            "duration" : 29
                          },
                          {
                            "endTime" : 1068,
                            "time" : 1042,
                            "value" : 2.48123987298737,
                            "duration" : 26
                          },
                          {
                            "endTime" : 2220,
                            "time" : 2190,
                            "value" : 0.999999424015319,
                            "duration" : 30
                          },
                          {
                            "endTime" : 2510,
                            "time" : 2480,
                            "value" : 2.92108215027906,
                            "duration" : 30
                          }
                        ]
                      },
                      "scale1" : {
                        "type" : "double",
                        "defaultValue" : 1.0,
                        "keyframes" : [
                          {
                            "endTime" : 237,
                            "time" : 207,
                            "value" : 6.52631500328686,
                            "duration" : 30
                          },
                          {
                            "endTime" : 343,
                            "time" : 313,
                            "value" : 0.999999966057169,
                            "duration" : 30
                          },
                          {
                            "endTime" : 466,
                            "time" : 436,
                            "value" : 3.17287726679297,
                            "duration" : 30
                          },
                          {
                            "endTime" : 632,
                            "time" : 602,
                            "value" : 1.0,
                            "duration" : 30
                          },
                          {
                            "endTime" : 751,
                            "time" : 721,
                            "value" : 2.83915442049899,
                            "duration" : 30
                          },
                          {
                            "endTime" : 785,
                            "time" : 755,
                            "value" : 1.0,
                            "duration" : 30
                          },
                          {
                            "endTime" : 814,
                            "time" : 785,
                            "value" : 1.9095287965103,
                            "duration" : 29
                          },
                          {
                            "endTime" : 1068,
                            "time" : 1042,
                            "value" : 2.48124130214435,
                            "duration" : 26
                          },
                          {
                            "endTime" : 2220,
                            "time" : 2190,
                            "value" : 1.0,
                            "duration" : 30
                          },
                          {
                            "endTime" : 2510,
                            "time" : 2480,
                            "value" : 2.921083837796,
                            "duration" : 30
                          }
                        ]
                      },
                      "cursorOpacity" : 1.0,
                      "cursorScale" : 1.0
                    },
                    "medias" : [
                        {
                          "id" : 236,
                          "_type" : "ScreenVMFile",
                          "src" : 1,
                          "trackNumber" : 0,
                          "attributes" : {
                            "ident" : "token_hijacking_attack"
                          },
                          "parameters" : {
                            "cursorScale" : {
                              "type" : "double",
                              "defaultValue" : 0.0,
                              "interp" : "linr"
                            },
                            "cursorOpacity" : {
                              "type" : "double",
                              "defaultValue" : 0.0,
                              "interp" : "linr"
                            }
                          },
                          "effects" : [

                          ],
                          "start" : 0,
                          "duration" : 208,
                          "mediaStart" : 0,
                          "mediaDuration" : 208,
                          "scalar" : 1,
                          "metadata" : {
                            "AutoAppliedSmartFocus" : "False",
                            "clipSpeedAttribute" : false
                          },
                          "animationTracks" : {

                          }
                        },
                        {
                          "id" : 237,
                          "_type" : "ScreenIMFile",
                          "src" : 1,
                          "trackNumber" : 0,
                          "trimStartSum" : 0,
                          "attributes" : {
                            "ident" : "token_hijacking_attack"
                          },
                          "parameters" : {
                            "cursorOpacity" : 0.0,
                            "cursorScale" : 0.0
                          },
                          "effects" : [

                          ],
                          "start" : 208,
                          "duration" : 90,
                          "mediaStart" : 207,
                          "mediaDuration" : 1,
                          "scalar" : 1,
                          "metadata" : {
                            "AutoAppliedSmartFocus" : "False"
                          },
                          "animationTracks" : {

                          }
                        },
                        {
                          "id" : 238,
                          "_type" : "ScreenVMFile",
                          "src" : 1,
                          "trackNumber" : 0,
                          "attributes" : {
                            "ident" : "token_hijacking_attack"
                          },
                          "parameters" : {
                            "cursorScale" : {
                              "type" : "double",
                              "defaultValue" : 0.0,
                              "interp" : "linr"
                            },
                            "cursorOpacity" : {
                              "type" : "double",
                              "defaultValue" : 0.0,
                              "interp" : "linr"
                            }
                          },
                          "effects" : [

                          ],
                          "start" : 298,
                          "duration" : 140,
                          "mediaStart" : 208,
                          "mediaDuration" : 140,
                          "scalar" : 1,
                          "metadata" : {
                            "AutoAppliedSmartFocus" : "False",
                            "clipSpeedAttribute" : false
                          },
                          "animationTracks" : {

                          }
                        },
                        {
                          "id" : 239,
                          "_type" : "ScreenIMFile",
                          "src" : 1,
                          "trackNumber" : 0,
                          "trimStartSum" : 0,
                          "attributes" : {
                            "ident" : "token_hijacking_attack"
                          },
                          "parameters" : {
                            "cursorOpacity" : 0.0,
                            "cursorScale" : 0.0
                          },
                          "effects" : [

                          ],
                          "start" : 438,
                          "duration" : 30,
                          "mediaStart" : 348,
                          "mediaDuration" : 1,
                          "scalar" : 1,
                          "metadata" : {
                            "AutoAppliedSmartFocus" : "False"
                          },
                          "animationTracks" : {

                          }
                        },
                        {
                          "id" : 240,
                          "_type" : "ScreenVMFile",
                          "src" : 1,
                          "trackNumber" : 0,
                          "attributes" : {
                            "ident" : "token_hijacking_attack"
                          },
                          "parameters" : {
                            "cursorScale" : {
                              "type" : "double",
                              "defaultValue" : 0.0,
                              "interp" : "linr"
                            },
                            "cursorOpacity" : {
                              "type" : "double",
                              "defaultValue" : 0.0,
                              "interp" : "linr"
                            }
                          },
                          "effects" : [

                          ],
                          "start" : 468,
                          "duration" : 105,
                          "mediaStart" : 348,
                          "mediaDuration" : 105,
                          "scalar" : 1,
                          "metadata" : {
                            "AutoAppliedSmartFocus" : "False",
                            "clipSpeedAttribute" : false
                          },
                          "animationTracks" : {

                          }
                        },
                        {
                          "id" : 241,
                          "_type" : "ScreenIMFile",
                          "src" : 1,
                          "trackNumber" : 0,
                          "trimStartSum" : 0,
                          "attributes" : {
                            "ident" : "token_hijacking_attack"
                          },
                          "parameters" : {
                            "cursorOpacity" : 0.0,
                            "cursorScale" : 0.0
                          },
                          "effects" : [

                          ],
                          "start" : 573,
                          "duration" : 60,
                          "mediaStart" : 453,
                          "mediaDuration" : 1,
                          "scalar" : 1,
                          "metadata" : {
                            "AutoAppliedSmartFocus" : "False"
                          },
                          "animationTracks" : {

                          }
                        },
                        {
                          "id" : 242,
                          "_type" : "ScreenVMFile",
                          "src" : 1,
                          "trackNumber" : 0,
                          "attributes" : {
                            "ident" : "token_hijacking_attack"
                          },
                          "parameters" : {
                            "cursorScale" : {
                              "type" : "double",
                              "defaultValue" : 0.0,
                              "interp" : "linr"
                            },
                            "cursorOpacity" : {
                              "type" : "double",
                              "defaultValue" : 0.0,
                              "interp" : "linr"
                            }
                          },
                          "effects" : [

                          ],
                          "start" : 633,
                          "duration" : 1574986,
                          "mediaStart" : 453,
                          "mediaDuration" : 1574986,
                          "scalar" : 1,
                          "metadata" : {
                            "AutoAppliedSmartFocus" : "False",
                            "clipSpeedAttribute" : false
                          },
                          "animationTracks" : {

                          }
                        }
                    ],
                    "effects" : [
                        {
                          "effectName" : "CursorHilight",
                          "category" : "categoryCursorEffects",
                          "parameters" : {
                            "blur" : 0.1,
                            "color-alpha" : 0.75,
                            "color-blue" : 0.0,
                            "color-green" : 1.0,
                            "color-red" : 1.0,
                            "radius" : 50.0
                          }
                        }
                    ],
                    "start" : 1335,
                    "duration" : 1,
                    "mediaStart" : 2530,
                    "mediaDuration" : 1,
                    "scalar" : 1,
                    "metadata" : {
                      "AutoAppliedSmartFocus" : "False",
                      "clipSpeedAttribute" : false,
                      "default-scale0" : 3.172876137306,
                      "default-scale1" : 3.17287726679297,
                      "default-translation0" : 2471.77226095314,
                      "default-translation1" : -1235.61824899191
                    },
                    "animationTracks" : {
                      "visual" : [
                        {
                          "endTime" : 237,
                          "duration" : 30,
                          "range" : [ 207, 30]
                        },
                        {
                          "endTime" : 343,
                          "duration" : 30,
                          "range" : [ 313, 30]
                        },
                        {
                          "endTime" : 466,
                          "duration" : 30,
                          "range" : [ 436, 30]
                        },
                        {
                          "endTime" : 632,
                          "duration" : 30,
                          "range" : [ 602, 30]
                        },
                        {
                          "endTime" : 751,
                          "duration" : 30,
                          "range" : [ 721, 30]
                        },
                        {
                          "endTime" : 785,
                          "duration" : 30,
                          "range" : [ 755, 30]
                        },
                        {
                          "endTime" : 814,
                          "duration" : 29,
                          "range" : [ 785, 29]
                        },
                        {
                          "endTime" : 1068,
                          "duration" : 26,
                          "range" : [ 1042, 26]
                        },
                        {
                          "endTime" : 2220,
                          "duration" : 30,
                          "range" : [ 2190, 30]
                        },
                        {
                          "endTime" : 2510,
                          "duration" : 30,
                          "range" : [ 2480, 30]
                        }
                      ]
                    }
                  },
                  {
                    "id" : 243,
                    "_type" : "StitchedMedia",
                    "minMediaStart" : 0,
                    "attributes" : {
                      "ident" : "token_hijacking_attack",
                      "gain" : 1.0,
                      "mixToMono" : false
                    },
                    "parameters" : {
                      "translation0" : {
                        "type" : "double",
                        "defaultValue" : 0.0,
                        "keyframes" : [
                          {
                            "endTime" : 237,
                            "time" : 207,
                            "value" : 6437.05178264923,
                            "duration" : 30
                          },
                          {
                            "endTime" : 343,
                            "time" : 313,
                            "value" : -4.54747350886464e-13,
                            "duration" : 30
                          },
                          {
                            "endTime" : 466,
                            "time" : 436,
                            "value" : 2471.77226095314,
                            "duration" : 30
                          },
                          {
                            "endTime" : 632,
                            "time" : 602,
                            "value" : -1.13686837721616e-13,
                            "duration" : 30
                          },
                          {
                            "endTime" : 751,
                            "time" : 721,
                            "value" : 1777.12723840605,
                            "duration" : 30
                          },
                          {
                            "endTime" : 785,
                            "time" : 755,
                            "value" : -1.13686837721616e-13,
                            "duration" : 30
                          },
                          {
                            "endTime" : 814,
                            "time" : 785,
                            "value" : 946.879645880833,
                            "duration" : 29
                          },
                          {
                            "endTime" : 1068,
                            "time" : 1042,
                            "value" : 1613.60702526176,
                            "duration" : 26
                          },
                          {
                            "endTime" : 2220,
                            "time" : 2190,
                            "value" : -1.13686837721616e-13,
                            "duration" : 30
                          },
                          {
                            "endTime" : 2510,
                            "time" : 2480,
                            "value" : -84.4290398276389,
                            "duration" : 30
                          },
                          {
                            "endTime" : 2697,
                            "time" : 2667,
                            "value" : 1.95399252334028e-13,
                            "duration" : 30
                          }
                        ]
                      },
                      "translation1" : {
                        "type" : "double",
                        "defaultValue" : 0.0,
                        "keyframes" : [
                          {
                            "endTime" : 237,
                            "time" : 207,
                            "value" : -2825.0524936412,
                            "duration" : 30
                          },
                          {
                            "endTime" : 343,
                            "time" : 313,
                            "value" : 5.6843418860808e-14,
                            "duration" : 30
                          },
                          {
                            "endTime" : 466,
                            "time" : 436,
                            "value" : -1235.61824899191,
                            "duration" : 30
                          },
                          {
                            "endTime" : 632,
                            "time" : 602,
                            "value" : 1.13686837721616e-13,
                            "duration" : 30
                          },
                          {
                            "endTime" : 751,
                            "time" : 721,
                            "value" : -129.822625517978,
                            "duration" : 30
                          },
                          {
                            "endTime" : 785,
                            "time" : 755,
                            "value" : -2.1316282072803e-14,
                            "duration" : 30
                          },
                          {
                            "endTime" : 814,
                            "time" : 785,
                            "value" : -532.6,
                            "duration" : 29
                          },
                          {
                            "endTime" : 1068,
                            "time" : 1042,
                            "value" : -277.235424203718,
                            "duration" : 26
                          },
                          {
                            "endTime" : 2220,
                            "time" : 2190,
                            "value" : -5.6843418860808e-14,
                            "duration" : 30
                          },
                          {
                            "endTime" : 2510,
                            "time" : 2480,
                            "value" : -902.332175055167,
                            "duration" : 30
                          },
                          {
                            "endTime" : 2697,
                            "time" : 2667,
                            "value" : -5.6843418860808e-14,
                            "duration" : 30
                          }
                        ]
                      },
                      "scale0" : {
                        "type" : "double",
                        "defaultValue" : 1.0,
                        "keyframes" : [
                          {
                            "endTime" : 237,
                            "time" : 207,
                            "value" : 6.52631522480847,
                            "duration" : 30
                          },
                          {
                            "endTime" : 343,
                            "time" : 313,
                            "value" : 0.999999999999999,
                            "duration" : 30
                          },
                          {
                            "endTime" : 466,
                            "time" : 436,
                            "value" : 3.172876137306,
                            "duration" : 30
                          },
                          {
                            "endTime" : 632,
                            "time" : 602,
                            "value" : 0.99999964401807,
                            "duration" : 30
                          },
                          {
                            "endTime" : 751,
                            "time" : 721,
                            "value" : 2.83915303535992,
                            "duration" : 30
                          },
                          {
                            "endTime" : 785,
                            "time" : 755,
                            "value" : 0.999999512129719,
                            "duration" : 30
                          },
                          {
                            "endTime" : 814,
                            "time" : 785,
                            "value" : 1.90952759462014,
                            "duration" : 29
                          },
                          {
                            "endTime" : 1068,
                            "time" : 1042,
                            "value" : 2.48123987298737,
                            "duration" : 26
                          },
                          {
                            "endTime" : 2220,
                            "time" : 2190,
                            "value" : 0.999999424015319,
                            "duration" : 30
                          },
                          {
                            "endTime" : 2510,
                            "time" : 2480,
                            "value" : 2.92108215027906,
                            "duration" : 30
                          },
                          {
                            "endTime" : 2697,
                            "time" : 2667,
                            "value" : 0.99999942229767,
                            "duration" : 30
                          }
                        ]
                      },
                      "scale1" : {
                        "type" : "double",
                        "defaultValue" : 1.0,
                        "keyframes" : [
                          {
                            "endTime" : 237,
                            "time" : 207,
                            "value" : 6.52631500328686,
                            "duration" : 30
                          },
                          {
                            "endTime" : 343,
                            "time" : 313,
                            "value" : 0.999999966057169,
                            "duration" : 30
                          },
                          {
                            "endTime" : 466,
                            "time" : 436,
                            "value" : 3.17287726679297,
                            "duration" : 30
                          },
                          {
                            "endTime" : 632,
                            "time" : 602,
                            "value" : 1.0,
                            "duration" : 30
                          },
                          {
                            "endTime" : 751,
                            "time" : 721,
                            "value" : 2.83915442049899,
                            "duration" : 30
                          },
                          {
                            "endTime" : 785,
                            "time" : 755,
                            "value" : 1.0,
                            "duration" : 30
                          },
                          {
                            "endTime" : 814,
                            "time" : 785,
                            "value" : 1.9095287965103,
                            "duration" : 29
                          },
                          {
                            "endTime" : 1068,
                            "time" : 1042,
                            "value" : 2.48124130214435,
                            "duration" : 26
                          },
                          {
                            "endTime" : 2220,
                            "time" : 2190,
                            "value" : 1.0,
                            "duration" : 30
                          },
                          {
                            "endTime" : 2510,
                            "time" : 2480,
                            "value" : 2.921083837796,
                            "duration" : 30
                          },
                          {
                            "endTime" : 2697,
                            "time" : 2667,
                            "value" : 1.0,
                            "duration" : 30
                          }
                        ]
                      },
                      "cursorOpacity" : 1.0,
                      "cursorScale" : 1.0
                    },
                    "medias" : [
                        {
                          "id" : 244,
                          "_type" : "ScreenVMFile",
                          "src" : 1,
                          "trackNumber" : 0,
                          "attributes" : {
                            "ident" : "token_hijacking_attack"
                          },
                          "parameters" : {
                            "cursorScale" : {
                              "type" : "double",
                              "defaultValue" : 0.0,
                              "interp" : "linr"
                            },
                            "cursorOpacity" : {
                              "type" : "double",
                              "defaultValue" : 0.0,
                              "interp" : "linr"
                            }
                          },
                          "effects" : [

                          ],
                          "start" : 0,
                          "duration" : 208,
                          "mediaStart" : 0,
                          "mediaDuration" : 208,
                          "scalar" : 1,
                          "metadata" : {
                            "AutoAppliedSmartFocus" : "False",
                            "clipSpeedAttribute" : false
                          },
                          "animationTracks" : {

                          }
                        },
                        {
                          "id" : 245,
                          "_type" : "ScreenIMFile",
                          "src" : 1,
                          "trackNumber" : 0,
                          "trimStartSum" : 0,
                          "attributes" : {
                            "ident" : "token_hijacking_attack"
                          },
                          "parameters" : {
                            "cursorOpacity" : 0.0,
                            "cursorScale" : 0.0
                          },
                          "effects" : [

                          ],
                          "start" : 208,
                          "duration" : 90,
                          "mediaStart" : 207,
                          "mediaDuration" : 1,
                          "scalar" : 1,
                          "metadata" : {
                            "AutoAppliedSmartFocus" : "False"
                          },
                          "animationTracks" : {

                          }
                        },
                        {
                          "id" : 246,
                          "_type" : "ScreenVMFile",
                          "src" : 1,
                          "trackNumber" : 0,
                          "attributes" : {
                            "ident" : "token_hijacking_attack"
                          },
                          "parameters" : {
                            "cursorScale" : {
                              "type" : "double",
                              "defaultValue" : 0.0,
                              "interp" : "linr"
                            },
                            "cursorOpacity" : {
                              "type" : "double",
                              "defaultValue" : 0.0,
                              "interp" : "linr"
                            }
                          },
                          "effects" : [

                          ],
                          "start" : 298,
                          "duration" : 140,
                          "mediaStart" : 208,
                          "mediaDuration" : 140,
                          "scalar" : 1,
                          "metadata" : {
                            "AutoAppliedSmartFocus" : "False",
                            "clipSpeedAttribute" : false
                          },
                          "animationTracks" : {

                          }
                        },
                        {
                          "id" : 247,
                          "_type" : "ScreenIMFile",
                          "src" : 1,
                          "trackNumber" : 0,
                          "trimStartSum" : 0,
                          "attributes" : {
                            "ident" : "token_hijacking_attack"
                          },
                          "parameters" : {
                            "cursorOpacity" : 0.0,
                            "cursorScale" : 0.0
                          },
                          "effects" : [

                          ],
                          "start" : 438,
                          "duration" : 30,
                          "mediaStart" : 348,
                          "mediaDuration" : 1,
                          "scalar" : 1,
                          "metadata" : {
                            "AutoAppliedSmartFocus" : "False"
                          },
                          "animationTracks" : {

                          }
                        },
                        {
                          "id" : 248,
                          "_type" : "ScreenVMFile",
                          "src" : 1,
                          "trackNumber" : 0,
                          "attributes" : {
                            "ident" : "token_hijacking_attack"
                          },
                          "parameters" : {
                            "cursorScale" : {
                              "type" : "double",
                              "defaultValue" : 0.0,
                              "interp" : "linr"
                            },
                            "cursorOpacity" : {
                              "type" : "double",
                              "defaultValue" : 0.0,
                              "interp" : "linr"
                            }
                          },
                          "effects" : [

                          ],
                          "start" : 468,
                          "duration" : 105,
                          "mediaStart" : 348,
                          "mediaDuration" : 105,
                          "scalar" : 1,
                          "metadata" : {
                            "AutoAppliedSmartFocus" : "False",
                            "clipSpeedAttribute" : false
                          },
                          "animationTracks" : {

                          }
                        },
                        {
                          "id" : 249,
                          "_type" : "ScreenIMFile",
                          "src" : 1,
                          "trackNumber" : 0,
                          "trimStartSum" : 0,
                          "attributes" : {
                            "ident" : "token_hijacking_attack"
                          },
                          "parameters" : {
                            "cursorOpacity" : 0.0,
                            "cursorScale" : 0.0
                          },
                          "effects" : [

                          ],
                          "start" : 573,
                          "duration" : 60,
                          "mediaStart" : 453,
                          "mediaDuration" : 1,
                          "scalar" : 1,
                          "metadata" : {
                            "AutoAppliedSmartFocus" : "False"
                          },
                          "animationTracks" : {

                          }
                        },
                        {
                          "id" : 250,
                          "_type" : "ScreenVMFile",
                          "src" : 1,
                          "trackNumber" : 0,
                          "attributes" : {
                            "ident" : "token_hijacking_attack"
                          },
                          "parameters" : {
                            "cursorScale" : {
                              "type" : "double",
                              "defaultValue" : 0.0,
                              "interp" : "linr"
                            },
                            "cursorOpacity" : {
                              "type" : "double",
                              "defaultValue" : 0.0,
                              "interp" : "linr"
                            }
                          },
                          "effects" : [

                          ],
                          "start" : 633,
                          "duration" : 1574986,
                          "mediaStart" : 453,
                          "mediaDuration" : 1574986,
                          "scalar" : 1,
                          "metadata" : {
                            "AutoAppliedSmartFocus" : "False",
                            "clipSpeedAttribute" : false
                          },
                          "animationTracks" : {

                          }
                        }
                    ],
                    "effects" : [
                        {
                          "effectName" : "CursorHilight",
                          "category" : "categoryCursorEffects",
                          "parameters" : {
                            "blur" : 0.1,
                            "color-alpha" : 0.75,
                            "color-blue" : 0.0,
                            "color-green" : 1.0,
                            "color-red" : 1.0,
                            "radius" : 50.0
                          }
                        }
                    ],
                    "start" : 1336,
                    "duration" : 42,
                    "mediaStart" : 2592,
                    "mediaDuration" : 61,
                    "scalar" : "42/61",
                    "metadata" : {
                      "AutoAppliedSmartFocus" : "False",
                      "clipSpeedAttribute" : true,
                      "default-scale0" : 3.172876137306,
                      "default-scale1" : 3.17287726679297,
                      "default-translation0" : 2471.77226095314,
                      "default-translation1" : -1235.61824899191
                    },
                    "animationTracks" : {
                      "visual" : [
                        {
                          "endTime" : 237,
                          "duration" : 30,
                          "range" : [ 207, 30]
                        },
                        {
                          "endTime" : 343,
                          "duration" : 30,
                          "range" : [ 313, 30]
                        },
                        {
                          "endTime" : 466,
                          "duration" : 30,
                          "range" : [ 436, 30]
                        },
                        {
                          "endTime" : 632,
                          "duration" : 30,
                          "range" : [ 602, 30]
                        },
                        {
                          "endTime" : 751,
                          "duration" : 30,
                          "range" : [ 721, 30]
                        },
                        {
                          "endTime" : 785,
                          "duration" : 30,
                          "range" : [ 755, 30]
                        },
                        {
                          "endTime" : 814,
                          "duration" : 29,
                          "range" : [ 785, 29]
                        },
                        {
                          "endTime" : 1068,
                          "duration" : 26,
                          "range" : [ 1042, 26]
                        },
                        {
                          "endTime" : 2220,
                          "duration" : 30,
                          "range" : [ 2190, 30]
                        },
                        {
                          "endTime" : 2510,
                          "duration" : 30,
                          "range" : [ 2480, 30]
                        },
                        {
                          "endTime" : 2697,
                          "duration" : 30,
                          "range" : [ 2667, 30]
                        }
                      ]
                    }
                  },
                  {
                    "id" : 251,
                    "_type" : "StitchedMedia",
                    "minMediaStart" : 0,
                    "attributes" : {
                      "ident" : "token_hijacking_attack",
                      "gain" : 1.0,
                      "mixToMono" : false
                    },
                    "parameters" : {
                      "translation0" : {
                        "type" : "double",
                        "defaultValue" : 0.0,
                        "keyframes" : [
                          {
                            "endTime" : 237,
                            "time" : 207,
                            "value" : 6437.05178264923,
                            "duration" : 30
                          },
                          {
                            "endTime" : 343,
                            "time" : 313,
                            "value" : -4.54747350886464e-13,
                            "duration" : 30
                          },
                          {
                            "endTime" : 466,
                            "time" : 436,
                            "value" : 2471.77226095314,
                            "duration" : 30
                          },
                          {
                            "endTime" : 632,
                            "time" : 602,
                            "value" : -1.13686837721616e-13,
                            "duration" : 30
                          },
                          {
                            "endTime" : 751,
                            "time" : 721,
                            "value" : 1777.12723840605,
                            "duration" : 30
                          },
                          {
                            "endTime" : 785,
                            "time" : 755,
                            "value" : -1.13686837721616e-13,
                            "duration" : 30
                          },
                          {
                            "endTime" : 814,
                            "time" : 785,
                            "value" : 946.879645880833,
                            "duration" : 29
                          },
                          {
                            "endTime" : 1068,
                            "time" : 1042,
                            "value" : 1613.60702526176,
                            "duration" : 26
                          },
                          {
                            "endTime" : 2220,
                            "time" : 2190,
                            "value" : -1.13686837721616e-13,
                            "duration" : 30
                          },
                          {
                            "endTime" : 2510,
                            "time" : 2480,
                            "value" : -84.4290398276389,
                            "duration" : 30
                          },
                          {
                            "endTime" : 2735,
                            "time" : 2694,
                            "value" : 1.95399252334028e-13,
                            "duration" : 41
                          },
                          {
                            "endTime" : 2785,
                            "time" : 2739,
                            "value" : 2604.19860601506,
                            "duration" : 46
                          }
                        ]
                      },
                      "translation1" : {
                        "type" : "double",
                        "defaultValue" : 0.0,
                        "keyframes" : [
                          {
                            "endTime" : 237,
                            "time" : 207,
                            "value" : -2825.0524936412,
                            "duration" : 30
                          },
                          {
                            "endTime" : 343,
                            "time" : 313,
                            "value" : 5.6843418860808e-14,
                            "duration" : 30
                          },
                          {
                            "endTime" : 466,
                            "time" : 436,
                            "value" : -1235.61824899191,
                            "duration" : 30
                          },
                          {
                            "endTime" : 632,
                            "time" : 602,
                            "value" : 1.13686837721616e-13,
                            "duration" : 30
                          },
                          {
                            "endTime" : 751,
                            "time" : 721,
                            "value" : -129.822625517978,
                            "duration" : 30
                          },
                          {
                            "endTime" : 785,
                            "time" : 755,
                            "value" : -2.1316282072803e-14,
                            "duration" : 30
                          },
                          {
                            "endTime" : 814,
                            "time" : 785,
                            "value" : -532.6,
                            "duration" : 29
                          },
                          {
                            "endTime" : 1068,
                            "time" : 1042,
                            "value" : -277.235424203718,
                            "duration" : 26
                          },
                          {
                            "endTime" : 2220,
                            "time" : 2190,
                            "value" : -5.6843418860808e-14,
                            "duration" : 30
                          },
                          {
                            "endTime" : 2510,
                            "time" : 2480,
                            "value" : -902.332175055167,
                            "duration" : 30
                          },
                          {
                            "endTime" : 2735,
                            "time" : 2694,
                            "value" : -5.6843418860808e-14,
                            "duration" : 41
                          },
                          {
                            "endTime" : 2785,
                            "time" : 2739,
                            "value" : -1.81070686530249,
                            "duration" : 46
                          }
                        ]
                      },
                      "scale0" : {
                        "type" : "double",
                        "defaultValue" : 1.0,
                        "keyframes" : [
                          {
                            "endTime" : 237,
                            "time" : 207,
                            "value" : 6.52631522480847,
                            "duration" : 30
                          },
                          {
                            "endTime" : 343,
                            "time" : 313,
                            "value" : 0.999999999999999,
                            "duration" : 30
                          },
                          {
                            "endTime" : 466,
                            "time" : 436,
                            "value" : 3.172876137306,
                            "duration" : 30
                          },
                          {
                            "endTime" : 632,
                            "time" : 602,
                            "value" : 0.99999964401807,
                            "duration" : 30
                          },
                          {
                            "endTime" : 751,
                            "time" : 721,
                            "value" : 2.83915303535992,
                            "duration" : 30
                          },
                          {
                            "endTime" : 785,
                            "time" : 755,
                            "value" : 0.999999512129719,
                            "duration" : 30
                          },
                          {
                            "endTime" : 814,
                            "time" : 785,
                            "value" : 1.90952759462014,
                            "duration" : 29
                          },
                          {
                            "endTime" : 1068,
                            "time" : 1042,
                            "value" : 2.48123987298737,
                            "duration" : 26
                          },
                          {
                            "endTime" : 2220,
                            "time" : 2190,
                            "value" : 0.999999424015319,
                            "duration" : 30
                          },
                          {
                            "endTime" : 2510,
                            "time" : 2480,
                            "value" : 2.92108215027906,
                            "duration" : 30
                          },
                          {
                            "endTime" : 2735,
                            "time" : 2694,
                            "value" : 0.99999942229767,
                            "duration" : 41
                          },
                          {
                            "endTime" : 2785,
                            "time" : 2739,
                            "value" : 3.3212236194273,
                            "duration" : 46
                          }
                        ]
                      },
                      "scale1" : {
                        "type" : "double",
                        "defaultValue" : 1.0,
                        "keyframes" : [
                          {
                            "endTime" : 237,
                            "time" : 207,
                            "value" : 6.52631500328686,
                            "duration" : 30
                          },
                          {
                            "endTime" : 343,
                            "time" : 313,
                            "value" : 0.999999966057169,
                            "duration" : 30
                          },
                          {
                            "endTime" : 466,
                            "time" : 436,
                            "value" : 3.17287726679297,
                            "duration" : 30
                          },
                          {
                            "endTime" : 632,
                            "time" : 602,
                            "value" : 1.0,
                            "duration" : 30
                          },
                          {
                            "endTime" : 751,
                            "time" : 721,
                            "value" : 2.83915442049899,
                            "duration" : 30
                          },
                          {
                            "endTime" : 785,
                            "time" : 755,
                            "value" : 1.0,
                            "duration" : 30
                          },
                          {
                            "endTime" : 814,
                            "time" : 785,
                            "value" : 1.9095287965103,
                            "duration" : 29
                          },
                          {
                            "endTime" : 1068,
                            "time" : 1042,
                            "value" : 2.48124130214435,
                            "duration" : 26
                          },
                          {
                            "endTime" : 2220,
                            "time" : 2190,
                            "value" : 1.0,
                            "duration" : 30
                          },
                          {
                            "endTime" : 2510,
                            "time" : 2480,
                            "value" : 2.921083837796,
                            "duration" : 30
                          },
                          {
                            "endTime" : 2735,
                            "time" : 2694,
                            "value" : 1.0,
                            "duration" : 41
                          },
                          {
                            "endTime" : 2785,
                            "time" : 2739,
                            "value" : 3.32122599632141,
                            "duration" : 46
                          }
                        ]
                      },
                      "cursorOpacity" : 1.0,
                      "cursorScale" : 1.0
                    },
                    "medias" : [
                        {
                          "id" : 252,
                          "_type" : "ScreenVMFile",
                          "src" : 1,
                          "trackNumber" : 0,
                          "attributes" : {
                            "ident" : "token_hijacking_attack"
                          },
                          "parameters" : {
                            "cursorScale" : {
                              "type" : "double",
                              "defaultValue" : 0.0,
                              "interp" : "linr"
                            },
                            "cursorOpacity" : {
                              "type" : "double",
                              "defaultValue" : 0.0,
                              "interp" : "linr"
                            }
                          },
                          "effects" : [

                          ],
                          "start" : 0,
                          "duration" : 208,
                          "mediaStart" : 0,
                          "mediaDuration" : 208,
                          "scalar" : 1,
                          "metadata" : {
                            "AutoAppliedSmartFocus" : "False",
                            "clipSpeedAttribute" : false
                          },
                          "animationTracks" : {

                          }
                        },
                        {
                          "id" : 253,
                          "_type" : "ScreenIMFile",
                          "src" : 1,
                          "trackNumber" : 0,
                          "trimStartSum" : 0,
                          "attributes" : {
                            "ident" : "token_hijacking_attack"
                          },
                          "parameters" : {
                            "cursorOpacity" : 0.0,
                            "cursorScale" : 0.0
                          },
                          "effects" : [

                          ],
                          "start" : 208,
                          "duration" : 90,
                          "mediaStart" : 207,
                          "mediaDuration" : 1,
                          "scalar" : 1,
                          "metadata" : {
                            "AutoAppliedSmartFocus" : "False"
                          },
                          "animationTracks" : {

                          }
                        },
                        {
                          "id" : 254,
                          "_type" : "ScreenVMFile",
                          "src" : 1,
                          "trackNumber" : 0,
                          "attributes" : {
                            "ident" : "token_hijacking_attack"
                          },
                          "parameters" : {
                            "cursorScale" : {
                              "type" : "double",
                              "defaultValue" : 0.0,
                              "interp" : "linr"
                            },
                            "cursorOpacity" : {
                              "type" : "double",
                              "defaultValue" : 0.0,
                              "interp" : "linr"
                            }
                          },
                          "effects" : [

                          ],
                          "start" : 298,
                          "duration" : 140,
                          "mediaStart" : 208,
                          "mediaDuration" : 140,
                          "scalar" : 1,
                          "metadata" : {
                            "AutoAppliedSmartFocus" : "False",
                            "clipSpeedAttribute" : false
                          },
                          "animationTracks" : {

                          }
                        },
                        {
                          "id" : 255,
                          "_type" : "ScreenIMFile",
                          "src" : 1,
                          "trackNumber" : 0,
                          "trimStartSum" : 0,
                          "attributes" : {
                            "ident" : "token_hijacking_attack"
                          },
                          "parameters" : {
                            "cursorOpacity" : 0.0,
                            "cursorScale" : 0.0
                          },
                          "effects" : [

                          ],
                          "start" : 438,
                          "duration" : 30,
                          "mediaStart" : 348,
                          "mediaDuration" : 1,
                          "scalar" : 1,
                          "metadata" : {
                            "AutoAppliedSmartFocus" : "False"
                          },
                          "animationTracks" : {

                          }
                        },
                        {
                          "id" : 256,
                          "_type" : "ScreenVMFile",
                          "src" : 1,
                          "trackNumber" : 0,
                          "attributes" : {
                            "ident" : "token_hijacking_attack"
                          },
                          "parameters" : {
                            "cursorScale" : {
                              "type" : "double",
                              "defaultValue" : 0.0,
                              "interp" : "linr"
                            },
                            "cursorOpacity" : {
                              "type" : "double",
                              "defaultValue" : 0.0,
                              "interp" : "linr"
                            }
                          },
                          "effects" : [

                          ],
                          "start" : 468,
                          "duration" : 105,
                          "mediaStart" : 348,
                          "mediaDuration" : 105,
                          "scalar" : 1,
                          "metadata" : {
                            "AutoAppliedSmartFocus" : "False",
                            "clipSpeedAttribute" : false
                          },
                          "animationTracks" : {

                          }
                        },
                        {
                          "id" : 257,
                          "_type" : "ScreenIMFile",
                          "src" : 1,
                          "trackNumber" : 0,
                          "trimStartSum" : 0,
                          "attributes" : {
                            "ident" : "token_hijacking_attack"
                          },
                          "parameters" : {
                            "cursorOpacity" : 0.0,
                            "cursorScale" : 0.0
                          },
                          "effects" : [

                          ],
                          "start" : 573,
                          "duration" : 60,
                          "mediaStart" : 453,
                          "mediaDuration" : 1,
                          "scalar" : 1,
                          "metadata" : {
                            "AutoAppliedSmartFocus" : "False"
                          },
                          "animationTracks" : {

                          }
                        },
                        {
                          "id" : 258,
                          "_type" : "ScreenVMFile",
                          "src" : 1,
                          "trackNumber" : 0,
                          "attributes" : {
                            "ident" : "token_hijacking_attack"
                          },
                          "parameters" : {
                            "cursorScale" : {
                              "type" : "double",
                              "defaultValue" : 0.0,
                              "interp" : "linr"
                            },
                            "cursorOpacity" : {
                              "type" : "double",
                              "defaultValue" : 0.0,
                              "interp" : "linr"
                            }
                          },
                          "effects" : [

                          ],
                          "start" : 633,
                          "duration" : 2038,
                          "mediaStart" : 453,
                          "mediaDuration" : 2038,
                          "scalar" : 1,
                          "metadata" : {
                            "AutoAppliedSmartFocus" : "False",
                            "clipSpeedAttribute" : false
                          },
                          "animationTracks" : {

                          }
                        },
                        {
                          "id" : 259,
                          "_type" : "ScreenIMFile",
                          "src" : 1,
                          "trackNumber" : 0,
                          "trimStartSum" : 0,
                          "attributes" : {
                            "ident" : "token_hijacking_attack"
                          },
                          "parameters" : {
                            "cursorOpacity" : 0.0,
                            "cursorScale" : 0.0
                          },
                          "effects" : [

                          ],
                          "start" : 2671,
                          "duration" : 30,
                          "mediaStart" : 2491,
                          "mediaDuration" : 1,
                          "scalar" : 1,
                          "metadata" : {
                            "AutoAppliedSmartFocus" : "False"
                          },
                          "animationTracks" : {

                          }
                        },
                        {
                          "id" : 260,
                          "_type" : "ScreenVMFile",
                          "src" : 1,
                          "trackNumber" : 0,
                          "attributes" : {
                            "ident" : "token_hijacking_attack"
                          },
                          "parameters" : {
                            "cursorScale" : {
                              "type" : "double",
                              "defaultValue" : 0.0,
                              "interp" : "linr"
                            },
                            "cursorOpacity" : {
                              "type" : "double",
                              "defaultValue" : 0.0,
                              "interp" : "linr"
                            }
                          },
                          "effects" : [

                          ],
                          "start" : 2701,
                          "duration" : 1572948,
                          "mediaStart" : 2491,
                          "mediaDuration" : 1572948,
                          "scalar" : 1,
                          "metadata" : {
                            "AutoAppliedSmartFocus" : "False",
                            "clipSpeedAttribute" : false
                          },
                          "animationTracks" : {

                          }
                        }
                    ],
                    "effects" : [
                        {
                          "effectName" : "CursorHilight",
                          "category" : "categoryCursorEffects",
                          "parameters" : {
                            "blur" : 0.1,
                            "color-alpha" : 0.75,
                            "color-blue" : 0.0,
                            "color-green" : 1.0,
                            "color-red" : 1.0,
                            "radius" : 50.0
                          }
                        }
                    ],
                    "start" : 1378,
                    "duration" : 122,
                    "mediaStart" : 2667,
                    "mediaDuration" : 122,
                    "scalar" : 1,
                    "metadata" : {
                      "AutoAppliedSmartFocus" : "False",
                      "clipSpeedAttribute" : false,
                      "default-scale0" : 0.99999942229767,
                      "default-scale1" : 1.0,
                      "default-translation0" : 1.95399252334028e-13,
                      "default-translation1" : -5.6843418860808e-14
                    },
                    "animationTracks" : {
                      "visual" : [
                        {
                          "endTime" : 237,
                          "duration" : 30,
                          "range" : [ 207, 30]
                        },
                        {
                          "endTime" : 343,
                          "duration" : 30,
                          "range" : [ 313, 30]
                        },
                        {
                          "endTime" : 466,
                          "duration" : 30,
                          "range" : [ 436, 30]
                        },
                        {
                          "endTime" : 632,
                          "duration" : 30,
                          "range" : [ 602, 30]
                        },
                        {
                          "endTime" : 751,
                          "duration" : 30,
                          "range" : [ 721, 30]
                        },
                        {
                          "endTime" : 785,
                          "duration" : 30,
                          "range" : [ 755, 30]
                        },
                        {
                          "endTime" : 814,
                          "duration" : 29,
                          "range" : [ 785, 29]
                        },
                        {
                          "endTime" : 1068,
                          "duration" : 26,
                          "range" : [ 1042, 26]
                        },
                        {
                          "endTime" : 2220,
                          "duration" : 30,
                          "range" : [ 2190, 30]
                        },
                        {
                          "endTime" : 2510,
                          "duration" : 30,
                          "range" : [ 2480, 30]
                        },
                        {
                          "endTime" : 2735,
                          "duration" : 41,
                          "range" : [ 2694, 41]
                        },
                        {
                          "endTime" : 2785,
                          "duration" : 46,
                          "range" : [ 2739, 46]
                        }
                      ]
                    }
                  },
                  {
                    "id" : 261,
                    "_type" : "StitchedMedia",
                    "minMediaStart" : 0,
                    "attributes" : {
                      "ident" : "token_hijacking_attack",
                      "gain" : 1.0,
                      "mixToMono" : false
                    },
                    "parameters" : {
                      "translation0" : {
                        "type" : "double",
                        "defaultValue" : 0.0,
                        "keyframes" : [
                          {
                            "endTime" : 237,
                            "time" : 207,
                            "value" : 6437.05178264923,
                            "duration" : 30
                          },
                          {
                            "endTime" : 343,
                            "time" : 313,
                            "value" : -4.54747350886464e-13,
                            "duration" : 30
                          },
                          {
                            "endTime" : 466,
                            "time" : 436,
                            "value" : 2471.77226095314,
                            "duration" : 30
                          },
                          {
                            "endTime" : 632,
                            "time" : 602,
                            "value" : -1.13686837721616e-13,
                            "duration" : 30
                          },
                          {
                            "endTime" : 751,
                            "time" : 721,
                            "value" : 1777.12723840605,
                            "duration" : 30
                          },
                          {
                            "endTime" : 785,
                            "time" : 755,
                            "value" : -1.13686837721616e-13,
                            "duration" : 30
                          },
                          {
                            "endTime" : 814,
                            "time" : 785,
                            "value" : 946.879645880833,
                            "duration" : 29
                          },
                          {
                            "endTime" : 1068,
                            "time" : 1042,
                            "value" : 1613.60702526176,
                            "duration" : 26
                          },
                          {
                            "endTime" : 2220,
                            "time" : 2190,
                            "value" : -1.13686837721616e-13,
                            "duration" : 30
                          },
                          {
                            "endTime" : 2510,
                            "time" : 2480,
                            "value" : -84.4290398276389,
                            "duration" : 30
                          },
                          {
                            "endTime" : 2735,
                            "time" : 2694,
                            "value" : 1.95399252334028e-13,
                            "duration" : 41
                          },
                          {
                            "endTime" : 2785,
                            "time" : 2739,
                            "value" : 2604.19860601506,
                            "duration" : 46
                          }
                        ]
                      },
                      "translation1" : {
                        "type" : "double",
                        "defaultValue" : 0.0,
                        "keyframes" : [
                          {
                            "endTime" : 237,
                            "time" : 207,
                            "value" : -2825.0524936412,
                            "duration" : 30
                          },
                          {
                            "endTime" : 343,
                            "time" : 313,
                            "value" : 5.6843418860808e-14,
                            "duration" : 30
                          },
                          {
                            "endTime" : 466,
                            "time" : 436,
                            "value" : -1235.61824899191,
                            "duration" : 30
                          },
                          {
                            "endTime" : 632,
                            "time" : 602,
                            "value" : 1.13686837721616e-13,
                            "duration" : 30
                          },
                          {
                            "endTime" : 751,
                            "time" : 721,
                            "value" : -129.822625517978,
                            "duration" : 30
                          },
                          {
                            "endTime" : 785,
                            "time" : 755,
                            "value" : -2.1316282072803e-14,
                            "duration" : 30
                          },
                          {
                            "endTime" : 814,
                            "time" : 785,
                            "value" : -532.6,
                            "duration" : 29
                          },
                          {
                            "endTime" : 1068,
                            "time" : 1042,
                            "value" : -277.235424203718,
                            "duration" : 26
                          },
                          {
                            "endTime" : 2220,
                            "time" : 2190,
                            "value" : -5.6843418860808e-14,
                            "duration" : 30
                          },
                          {
                            "endTime" : 2510,
                            "time" : 2480,
                            "value" : -902.332175055167,
                            "duration" : 30
                          },
                          {
                            "endTime" : 2735,
                            "time" : 2694,
                            "value" : -5.6843418860808e-14,
                            "duration" : 41
                          },
                          {
                            "endTime" : 2785,
                            "time" : 2739,
                            "value" : -1.81070686530249,
                            "duration" : 46
                          }
                        ]
                      },
                      "scale0" : {
                        "type" : "double",
                        "defaultValue" : 1.0,
                        "keyframes" : [
                          {
                            "endTime" : 237,
                            "time" : 207,
                            "value" : 6.52631522480847,
                            "duration" : 30
                          },
                          {
                            "endTime" : 343,
                            "time" : 313,
                            "value" : 0.999999999999999,
                            "duration" : 30
                          },
                          {
                            "endTime" : 466,
                            "time" : 436,
                            "value" : 3.172876137306,
                            "duration" : 30
                          },
                          {
                            "endTime" : 632,
                            "time" : 602,
                            "value" : 0.99999964401807,
                            "duration" : 30
                          },
                          {
                            "endTime" : 751,
                            "time" : 721,
                            "value" : 2.83915303535992,
                            "duration" : 30
                          },
                          {
                            "endTime" : 785,
                            "time" : 755,
                            "value" : 0.999999512129719,
                            "duration" : 30
                          },
                          {
                            "endTime" : 814,
                            "time" : 785,
                            "value" : 1.90952759462014,
                            "duration" : 29
                          },
                          {
                            "endTime" : 1068,
                            "time" : 1042,
                            "value" : 2.48123987298737,
                            "duration" : 26
                          },
                          {
                            "endTime" : 2220,
                            "time" : 2190,
                            "value" : 0.999999424015319,
                            "duration" : 30
                          },
                          {
                            "endTime" : 2510,
                            "time" : 2480,
                            "value" : 2.92108215027906,
                            "duration" : 30
                          },
                          {
                            "endTime" : 2735,
                            "time" : 2694,
                            "value" : 0.99999942229767,
                            "duration" : 41
                          },
                          {
                            "endTime" : 2785,
                            "time" : 2739,
                            "value" : 3.3212236194273,
                            "duration" : 46
                          }
                        ]
                      },
                      "scale1" : {
                        "type" : "double",
                        "defaultValue" : 1.0,
                        "keyframes" : [
                          {
                            "endTime" : 237,
                            "time" : 207,
                            "value" : 6.52631500328686,
                            "duration" : 30
                          },
                          {
                            "endTime" : 343,
                            "time" : 313,
                            "value" : 0.999999966057169,
                            "duration" : 30
                          },
                          {
                            "endTime" : 466,
                            "time" : 436,
                            "value" : 3.17287726679297,
                            "duration" : 30
                          },
                          {
                            "endTime" : 632,
                            "time" : 602,
                            "value" : 1.0,
                            "duration" : 30
                          },
                          {
                            "endTime" : 751,
                            "time" : 721,
                            "value" : 2.83915442049899,
                            "duration" : 30
                          },
                          {
                            "endTime" : 785,
                            "time" : 755,
                            "value" : 1.0,
                            "duration" : 30
                          },
                          {
                            "endTime" : 814,
                            "time" : 785,
                            "value" : 1.9095287965103,
                            "duration" : 29
                          },
                          {
                            "endTime" : 1068,
                            "time" : 1042,
                            "value" : 2.48124130214435,
                            "duration" : 26
                          },
                          {
                            "endTime" : 2220,
                            "time" : 2190,
                            "value" : 1.0,
                            "duration" : 30
                          },
                          {
                            "endTime" : 2510,
                            "time" : 2480,
                            "value" : 2.921083837796,
                            "duration" : 30
                          },
                          {
                            "endTime" : 2735,
                            "time" : 2694,
                            "value" : 1.0,
                            "duration" : 41
                          },
                          {
                            "endTime" : 2785,
                            "time" : 2739,
                            "value" : 3.32122599632141,
                            "duration" : 46
                          }
                        ]
                      },
                      "cursorOpacity" : 1.0,
                      "cursorScale" : 1.0
                    },
                    "medias" : [
                        {
                          "id" : 262,
                          "_type" : "ScreenVMFile",
                          "src" : 1,
                          "trackNumber" : 0,
                          "attributes" : {
                            "ident" : "token_hijacking_attack"
                          },
                          "parameters" : {
                            "cursorScale" : {
                              "type" : "double",
                              "defaultValue" : 0.0,
                              "interp" : "linr"
                            },
                            "cursorOpacity" : {
                              "type" : "double",
                              "defaultValue" : 0.0,
                              "interp" : "linr"
                            }
                          },
                          "effects" : [

                          ],
                          "start" : 0,
                          "duration" : 208,
                          "mediaStart" : 0,
                          "mediaDuration" : 208,
                          "scalar" : 1,
                          "metadata" : {
                            "AutoAppliedSmartFocus" : "False",
                            "clipSpeedAttribute" : false
                          },
                          "animationTracks" : {

                          }
                        },
                        {
                          "id" : 263,
                          "_type" : "ScreenIMFile",
                          "src" : 1,
                          "trackNumber" : 0,
                          "trimStartSum" : 0,
                          "attributes" : {
                            "ident" : "token_hijacking_attack"
                          },
                          "parameters" : {
                            "cursorOpacity" : 0.0,
                            "cursorScale" : 0.0
                          },
                          "effects" : [

                          ],
                          "start" : 208,
                          "duration" : 90,
                          "mediaStart" : 207,
                          "mediaDuration" : 1,
                          "scalar" : 1,
                          "metadata" : {
                            "AutoAppliedSmartFocus" : "False"
                          },
                          "animationTracks" : {

                          }
                        },
                        {
                          "id" : 264,
                          "_type" : "ScreenVMFile",
                          "src" : 1,
                          "trackNumber" : 0,
                          "attributes" : {
                            "ident" : "token_hijacking_attack"
                          },
                          "parameters" : {
                            "cursorScale" : {
                              "type" : "double",
                              "defaultValue" : 0.0,
                              "interp" : "linr"
                            },
                            "cursorOpacity" : {
                              "type" : "double",
                              "defaultValue" : 0.0,
                              "interp" : "linr"
                            }
                          },
                          "effects" : [

                          ],
                          "start" : 298,
                          "duration" : 140,
                          "mediaStart" : 208,
                          "mediaDuration" : 140,
                          "scalar" : 1,
                          "metadata" : {
                            "AutoAppliedSmartFocus" : "False",
                            "clipSpeedAttribute" : false
                          },
                          "animationTracks" : {

                          }
                        },
                        {
                          "id" : 265,
                          "_type" : "ScreenIMFile",
                          "src" : 1,
                          "trackNumber" : 0,
                          "trimStartSum" : 0,
                          "attributes" : {
                            "ident" : "token_hijacking_attack"
                          },
                          "parameters" : {
                            "cursorOpacity" : 0.0,
                            "cursorScale" : 0.0
                          },
                          "effects" : [

                          ],
                          "start" : 438,
                          "duration" : 30,
                          "mediaStart" : 348,
                          "mediaDuration" : 1,
                          "scalar" : 1,
                          "metadata" : {
                            "AutoAppliedSmartFocus" : "False"
                          },
                          "animationTracks" : {

                          }
                        },
                        {
                          "id" : 266,
                          "_type" : "ScreenVMFile",
                          "src" : 1,
                          "trackNumber" : 0,
                          "attributes" : {
                            "ident" : "token_hijacking_attack"
                          },
                          "parameters" : {
                            "cursorScale" : {
                              "type" : "double",
                              "defaultValue" : 0.0,
                              "interp" : "linr"
                            },
                            "cursorOpacity" : {
                              "type" : "double",
                              "defaultValue" : 0.0,
                              "interp" : "linr"
                            }
                          },
                          "effects" : [

                          ],
                          "start" : 468,
                          "duration" : 105,
                          "mediaStart" : 348,
                          "mediaDuration" : 105,
                          "scalar" : 1,
                          "metadata" : {
                            "AutoAppliedSmartFocus" : "False",
                            "clipSpeedAttribute" : false
                          },
                          "animationTracks" : {

                          }
                        },
                        {
                          "id" : 267,
                          "_type" : "ScreenIMFile",
                          "src" : 1,
                          "trackNumber" : 0,
                          "trimStartSum" : 0,
                          "attributes" : {
                            "ident" : "token_hijacking_attack"
                          },
                          "parameters" : {
                            "cursorOpacity" : 0.0,
                            "cursorScale" : 0.0
                          },
                          "effects" : [

                          ],
                          "start" : 573,
                          "duration" : 60,
                          "mediaStart" : 453,
                          "mediaDuration" : 1,
                          "scalar" : 1,
                          "metadata" : {
                            "AutoAppliedSmartFocus" : "False"
                          },
                          "animationTracks" : {

                          }
                        },
                        {
                          "id" : 268,
                          "_type" : "ScreenVMFile",
                          "src" : 1,
                          "trackNumber" : 0,
                          "attributes" : {
                            "ident" : "token_hijacking_attack"
                          },
                          "parameters" : {
                            "cursorScale" : {
                              "type" : "double",
                              "defaultValue" : 0.0,
                              "interp" : "linr"
                            },
                            "cursorOpacity" : {
                              "type" : "double",
                              "defaultValue" : 0.0,
                              "interp" : "linr"
                            }
                          },
                          "effects" : [

                          ],
                          "start" : 633,
                          "duration" : 2038,
                          "mediaStart" : 453,
                          "mediaDuration" : 2038,
                          "scalar" : 1,
                          "metadata" : {
                            "AutoAppliedSmartFocus" : "False",
                            "clipSpeedAttribute" : false
                          },
                          "animationTracks" : {

                          }
                        },
                        {
                          "id" : 269,
                          "_type" : "ScreenIMFile",
                          "src" : 1,
                          "trackNumber" : 0,
                          "trimStartSum" : 0,
                          "attributes" : {
                            "ident" : "token_hijacking_attack"
                          },
                          "parameters" : {
                            "cursorOpacity" : 0.0,
                            "cursorScale" : 0.0
                          },
                          "effects" : [

                          ],
                          "start" : 2671,
                          "duration" : 30,
                          "mediaStart" : 2491,
                          "mediaDuration" : 1,
                          "scalar" : 1,
                          "metadata" : {
                            "AutoAppliedSmartFocus" : "False"
                          },
                          "animationTracks" : {

                          }
                        },
                        {
                          "id" : 270,
                          "_type" : "ScreenVMFile",
                          "src" : 1,
                          "trackNumber" : 0,
                          "attributes" : {
                            "ident" : "token_hijacking_attack"
                          },
                          "parameters" : {
                            "cursorScale" : {
                              "type" : "double",
                              "defaultValue" : 0.0,
                              "interp" : "linr"
                            },
                            "cursorOpacity" : {
                              "type" : "double",
                              "defaultValue" : 0.0,
                              "interp" : "linr"
                            }
                          },
                          "effects" : [

                          ],
                          "start" : 2701,
                          "duration" : 1572948,
                          "mediaStart" : 2491,
                          "mediaDuration" : 1572948,
                          "scalar" : 1,
                          "metadata" : {
                            "AutoAppliedSmartFocus" : "False",
                            "clipSpeedAttribute" : false
                          },
                          "animationTracks" : {

                          }
                        }
                    ],
                    "effects" : [
                        {
                          "effectName" : "CursorHilight",
                          "category" : "categoryCursorEffects",
                          "parameters" : {
                            "blur" : 0.1,
                            "color-alpha" : 0.75,
                            "color-blue" : 0.0,
                            "color-green" : 1.0,
                            "color-red" : 1.0,
                            "radius" : 50.0
                          }
                        }
                    ],
                    "start" : 1500,
                    "duration" : 48,
                    "mediaStart" : 2789,
                    "mediaDuration" : 143,
                    "scalar" : "48/143",
                    "metadata" : {
                      "AutoAppliedSmartFocus" : "False",
                      "clipSpeedAttribute" : true,
                      "default-scale0" : 0.99999942229767,
                      "default-scale1" : 1.0,
                      "default-translation0" : 1.95399252334028e-13,
                      "default-translation1" : -5.6843418860808e-14
                    },
                    "animationTracks" : {
                      "visual" : [
                        {
                          "endTime" : 237,
                          "duration" : 30,
                          "range" : [ 207, 30]
                        },
                        {
                          "endTime" : 343,
                          "duration" : 30,
                          "range" : [ 313, 30]
                        },
                        {
                          "endTime" : 466,
                          "duration" : 30,
                          "range" : [ 436, 30]
                        },
                        {
                          "endTime" : 632,
                          "duration" : 30,
                          "range" : [ 602, 30]
                        },
                        {
                          "endTime" : 751,
                          "duration" : 30,
                          "range" : [ 721, 30]
                        },
                        {
                          "endTime" : 785,
                          "duration" : 30,
                          "range" : [ 755, 30]
                        },
                        {
                          "endTime" : 814,
                          "duration" : 29,
                          "range" : [ 785, 29]
                        },
                        {
                          "endTime" : 1068,
                          "duration" : 26,
                          "range" : [ 1042, 26]
                        },
                        {
                          "endTime" : 2220,
                          "duration" : 30,
                          "range" : [ 2190, 30]
                        },
                        {
                          "endTime" : 2510,
                          "duration" : 30,
                          "range" : [ 2480, 30]
                        },
                        {
                          "endTime" : 2735,
                          "duration" : 41,
                          "range" : [ 2694, 41]
                        },
                        {
                          "endTime" : 2785,
                          "duration" : 46,
                          "range" : [ 2739, 46]
                        }
                      ]
                    }
                  },
                  {
                    "id" : 271,
                    "_type" : "StitchedMedia",
                    "minMediaStart" : 0,
                    "attributes" : {
                      "ident" : "token_hijacking_attack",
                      "gain" : 1.0,
                      "mixToMono" : false
                    },
                    "parameters" : {
                      "translation0" : {
                        "type" : "double",
                        "defaultValue" : 0.0,
                        "keyframes" : [
                          {
                            "endTime" : 237,
                            "time" : 207,
                            "value" : 6437.05178264923,
                            "duration" : 30
                          },
                          {
                            "endTime" : 343,
                            "time" : 313,
                            "value" : -4.54747350886464e-13,
                            "duration" : 30
                          },
                          {
                            "endTime" : 466,
                            "time" : 436,
                            "value" : 2471.77226095314,
                            "duration" : 30
                          },
                          {
                            "endTime" : 632,
                            "time" : 602,
                            "value" : -1.13686837721616e-13,
                            "duration" : 30
                          },
                          {
                            "endTime" : 751,
                            "time" : 721,
                            "value" : 1777.12723840605,
                            "duration" : 30
                          },
                          {
                            "endTime" : 785,
                            "time" : 755,
                            "value" : -1.13686837721616e-13,
                            "duration" : 30
                          },
                          {
                            "endTime" : 814,
                            "time" : 785,
                            "value" : 946.879645880833,
                            "duration" : 29
                          },
                          {
                            "endTime" : 1068,
                            "time" : 1042,
                            "value" : 1613.60702526176,
                            "duration" : 26
                          },
                          {
                            "endTime" : 2220,
                            "time" : 2190,
                            "value" : -1.13686837721616e-13,
                            "duration" : 30
                          },
                          {
                            "endTime" : 2510,
                            "time" : 2480,
                            "value" : -84.4290398276389,
                            "duration" : 30
                          },
                          {
                            "endTime" : 2735,
                            "time" : 2694,
                            "value" : 1.95399252334028e-13,
                            "duration" : 41
                          },
                          {
                            "endTime" : 2785,
                            "time" : 2739,
                            "value" : 2604.19860601506,
                            "duration" : 46
                          },
                          {
                            "endTime" : 3093,
                            "time" : 3063,
                            "value" : 1.13686837721616e-13,
                            "duration" : 30
                          },
                          {
                            "endTime" : 3121,
                            "time" : 3093,
                            "value" : -59.538727916997,
                            "duration" : 28
                          }
                        ]
                      },
                      "translation1" : {
                        "type" : "double",
                        "defaultValue" : 0.0,
                        "keyframes" : [
                          {
                            "endTime" : 237,
                            "time" : 207,
                            "value" : -2825.0524936412,
                            "duration" : 30
                          },
                          {
                            "endTime" : 343,
                            "time" : 313,
                            "value" : 5.6843418860808e-14,
                            "duration" : 30
                          },
                          {
                            "endTime" : 466,
                            "time" : 436,
                            "value" : -1235.61824899191,
                            "duration" : 30
                          },
                          {
                            "endTime" : 632,
                            "time" : 602,
                            "value" : 1.13686837721616e-13,
                            "duration" : 30
                          },
                          {
                            "endTime" : 751,
                            "time" : 721,
                            "value" : -129.822625517978,
                            "duration" : 30
                          },
                          {
                            "endTime" : 785,
                            "time" : 755,
                            "value" : -2.1316282072803e-14,
                            "duration" : 30
                          },
                          {
                            "endTime" : 814,
                            "time" : 785,
                            "value" : -532.6,
                            "duration" : 29
                          },
                          {
                            "endTime" : 1068,
                            "time" : 1042,
                            "value" : -277.235424203718,
                            "duration" : 26
                          },
                          {
                            "endTime" : 2220,
                            "time" : 2190,
                            "value" : -5.6843418860808e-14,
                            "duration" : 30
                          },
                          {
                            "endTime" : 2510,
                            "time" : 2480,
                            "value" : -902.332175055167,
                            "duration" : 30
                          },
                          {
                            "endTime" : 2735,
                            "time" : 2694,
                            "value" : -5.6843418860808e-14,
                            "duration" : 41
                          },
                          {
                            "endTime" : 2785,
                            "time" : 2739,
                            "value" : -1.81070686530249,
                            "duration" : 46
                          },
                          {
                            "endTime" : 3093,
                            "time" : 3063,
                            "value" : 7.21644966006352e-15,
                            "duration" : 30
                          },
                          {
                            "endTime" : 3121,
                            "time" : 3093,
                            "value" : 115.195750897824,
                            "duration" : 28
                          }
                        ]
                      },
                      "scale0" : {
                        "type" : "double",
                        "defaultValue" : 1.0,
                        "keyframes" : [
                          {
                            "endTime" : 237,
                            "time" : 207,
                            "value" : 6.52631522480847,
                            "duration" : 30
                          },
                          {
                            "endTime" : 343,
                            "time" : 313,
                            "value" : 0.999999999999999,
                            "duration" : 30
                          },
                          {
                            "endTime" : 466,
                            "time" : 436,
                            "value" : 3.172876137306,
                            "duration" : 30
                          },
                          {
                            "endTime" : 632,
                            "time" : 602,
                            "value" : 0.99999964401807,
                            "duration" : 30
                          },
                          {
                            "endTime" : 751,
                            "time" : 721,
                            "value" : 2.83915303535992,
                            "duration" : 30
                          },
                          {
                            "endTime" : 785,
                            "time" : 755,
                            "value" : 0.999999512129719,
                            "duration" : 30
                          },
                          {
                            "endTime" : 814,
                            "time" : 785,
                            "value" : 1.90952759462014,
                            "duration" : 29
                          },
                          {
                            "endTime" : 1068,
                            "time" : 1042,
                            "value" : 2.48123987298737,
                            "duration" : 26
                          },
                          {
                            "endTime" : 2220,
                            "time" : 2190,
                            "value" : 0.999999424015319,
                            "duration" : 30
                          },
                          {
                            "endTime" : 2510,
                            "time" : 2480,
                            "value" : 2.92108215027906,
                            "duration" : 30
                          },
                          {
                            "endTime" : 2735,
                            "time" : 2694,
                            "value" : 0.99999942229767,
                            "duration" : 41
                          },
                          {
                            "endTime" : 2785,
                            "time" : 2739,
                            "value" : 3.3212236194273,
                            "duration" : 46
                          },
                          {
                            "endTime" : 3093,
                            "time" : 3063,
                            "value" : 0.999999284332318,
                            "duration" : 30
                          },
                          {
                            "endTime" : 3121,
                            "time" : 3093,
                            "value" : 2.91980891472304,
                            "duration" : 28
                          }
                        ]
                      },
                      "scale1" : {
                        "type" : "double",
                        "defaultValue" : 1.0,
                        "keyframes" : [
                          {
                            "endTime" : 237,
                            "time" : 207,
                            "value" : 6.52631500328686,
                            "duration" : 30
                          },
                          {
                            "endTime" : 343,
                            "time" : 313,
                            "value" : 0.999999966057169,
                            "duration" : 30
                          },
                          {
                            "endTime" : 466,
                            "time" : 436,
                            "value" : 3.17287726679297,
                            "duration" : 30
                          },
                          {
                            "endTime" : 632,
                            "time" : 602,
                            "value" : 1.0,
                            "duration" : 30
                          },
                          {
                            "endTime" : 751,
                            "time" : 721,
                            "value" : 2.83915442049899,
                            "duration" : 30
                          },
                          {
                            "endTime" : 785,
                            "time" : 755,
                            "value" : 1.0,
                            "duration" : 30
                          },
                          {
                            "endTime" : 814,
                            "time" : 785,
                            "value" : 1.9095287965103,
                            "duration" : 29
                          },
                          {
                            "endTime" : 1068,
                            "time" : 1042,
                            "value" : 2.48124130214435,
                            "duration" : 26
                          },
                          {
                            "endTime" : 2220,
                            "time" : 2190,
                            "value" : 1.0,
                            "duration" : 30
                          },
                          {
                            "endTime" : 2510,
                            "time" : 2480,
                            "value" : 2.921083837796,
                            "duration" : 30
                          },
                          {
                            "endTime" : 2735,
                            "time" : 2694,
                            "value" : 1.0,
                            "duration" : 41
                          },
                          {
                            "endTime" : 2785,
                            "time" : 2739,
                            "value" : 3.32122599632141,
                            "duration" : 46
                          },
                          {
                            "endTime" : 3093,
                            "time" : 3063,
                            "value" : 1.0,
                            "duration" : 30
                          },
                          {
                            "endTime" : 3121,
                            "time" : 3093,
                            "value" : 2.91981149372817,
                            "duration" : 28
                          }
                        ]
                      },
                      "cursorOpacity" : 1.0,
                      "cursorScale" : 1.0
                    },
                    "medias" : [
                        {
                          "id" : 272,
                          "_type" : "ScreenVMFile",
                          "src" : 1,
                          "trackNumber" : 0,
                          "attributes" : {
                            "ident" : "token_hijacking_attack"
                          },
                          "parameters" : {
                            "cursorScale" : {
                              "type" : "double",
                              "defaultValue" : 0.0,
                              "interp" : "linr"
                            },
                            "cursorOpacity" : {
                              "type" : "double",
                              "defaultValue" : 0.0,
                              "interp" : "linr"
                            }
                          },
                          "effects" : [

                          ],
                          "start" : 0,
                          "duration" : 208,
                          "mediaStart" : 0,
                          "mediaDuration" : 208,
                          "scalar" : 1,
                          "metadata" : {
                            "AutoAppliedSmartFocus" : "False",
                            "clipSpeedAttribute" : false
                          },
                          "animationTracks" : {

                          }
                        },
                        {
                          "id" : 273,
                          "_type" : "ScreenIMFile",
                          "src" : 1,
                          "trackNumber" : 0,
                          "trimStartSum" : 0,
                          "attributes" : {
                            "ident" : "token_hijacking_attack"
                          },
                          "parameters" : {
                            "cursorOpacity" : 0.0,
                            "cursorScale" : 0.0
                          },
                          "effects" : [

                          ],
                          "start" : 208,
                          "duration" : 90,
                          "mediaStart" : 207,
                          "mediaDuration" : 1,
                          "scalar" : 1,
                          "metadata" : {
                            "AutoAppliedSmartFocus" : "False"
                          },
                          "animationTracks" : {

                          }
                        },
                        {
                          "id" : 274,
                          "_type" : "ScreenVMFile",
                          "src" : 1,
                          "trackNumber" : 0,
                          "attributes" : {
                            "ident" : "token_hijacking_attack"
                          },
                          "parameters" : {
                            "cursorScale" : {
                              "type" : "double",
                              "defaultValue" : 0.0,
                              "interp" : "linr"
                            },
                            "cursorOpacity" : {
                              "type" : "double",
                              "defaultValue" : 0.0,
                              "interp" : "linr"
                            }
                          },
                          "effects" : [

                          ],
                          "start" : 298,
                          "duration" : 140,
                          "mediaStart" : 208,
                          "mediaDuration" : 140,
                          "scalar" : 1,
                          "metadata" : {
                            "AutoAppliedSmartFocus" : "False",
                            "clipSpeedAttribute" : false
                          },
                          "animationTracks" : {

                          }
                        },
                        {
                          "id" : 275,
                          "_type" : "ScreenIMFile",
                          "src" : 1,
                          "trackNumber" : 0,
                          "trimStartSum" : 0,
                          "attributes" : {
                            "ident" : "token_hijacking_attack"
                          },
                          "parameters" : {
                            "cursorOpacity" : 0.0,
                            "cursorScale" : 0.0
                          },
                          "effects" : [

                          ],
                          "start" : 438,
                          "duration" : 30,
                          "mediaStart" : 348,
                          "mediaDuration" : 1,
                          "scalar" : 1,
                          "metadata" : {
                            "AutoAppliedSmartFocus" : "False"
                          },
                          "animationTracks" : {

                          }
                        },
                        {
                          "id" : 276,
                          "_type" : "ScreenVMFile",
                          "src" : 1,
                          "trackNumber" : 0,
                          "attributes" : {
                            "ident" : "token_hijacking_attack"
                          },
                          "parameters" : {
                            "cursorScale" : {
                              "type" : "double",
                              "defaultValue" : 0.0,
                              "interp" : "linr"
                            },
                            "cursorOpacity" : {
                              "type" : "double",
                              "defaultValue" : 0.0,
                              "interp" : "linr"
                            }
                          },
                          "effects" : [

                          ],
                          "start" : 468,
                          "duration" : 105,
                          "mediaStart" : 348,
                          "mediaDuration" : 105,
                          "scalar" : 1,
                          "metadata" : {
                            "AutoAppliedSmartFocus" : "False",
                            "clipSpeedAttribute" : false
                          },
                          "animationTracks" : {

                          }
                        },
                        {
                          "id" : 277,
                          "_type" : "ScreenIMFile",
                          "src" : 1,
                          "trackNumber" : 0,
                          "trimStartSum" : 0,
                          "attributes" : {
                            "ident" : "token_hijacking_attack"
                          },
                          "parameters" : {
                            "cursorOpacity" : 0.0,
                            "cursorScale" : 0.0
                          },
                          "effects" : [

                          ],
                          "start" : 573,
                          "duration" : 60,
                          "mediaStart" : 453,
                          "mediaDuration" : 1,
                          "scalar" : 1,
                          "metadata" : {
                            "AutoAppliedSmartFocus" : "False"
                          },
                          "animationTracks" : {

                          }
                        },
                        {
                          "id" : 278,
                          "_type" : "ScreenVMFile",
                          "src" : 1,
                          "trackNumber" : 0,
                          "attributes" : {
                            "ident" : "token_hijacking_attack"
                          },
                          "parameters" : {
                            "cursorScale" : {
                              "type" : "double",
                              "defaultValue" : 0.0,
                              "interp" : "linr"
                            },
                            "cursorOpacity" : {
                              "type" : "double",
                              "defaultValue" : 0.0,
                              "interp" : "linr"
                            }
                          },
                          "effects" : [

                          ],
                          "start" : 633,
                          "duration" : 2038,
                          "mediaStart" : 453,
                          "mediaDuration" : 2038,
                          "scalar" : 1,
                          "metadata" : {
                            "AutoAppliedSmartFocus" : "False",
                            "clipSpeedAttribute" : false
                          },
                          "animationTracks" : {

                          }
                        },
                        {
                          "id" : 279,
                          "_type" : "ScreenIMFile",
                          "src" : 1,
                          "trackNumber" : 0,
                          "trimStartSum" : 0,
                          "attributes" : {
                            "ident" : "token_hijacking_attack"
                          },
                          "parameters" : {
                            "cursorOpacity" : 0.0,
                            "cursorScale" : 0.0
                          },
                          "effects" : [

                          ],
                          "start" : 2671,
                          "duration" : 30,
                          "mediaStart" : 2491,
                          "mediaDuration" : 1,
                          "scalar" : 1,
                          "metadata" : {
                            "AutoAppliedSmartFocus" : "False"
                          },
                          "animationTracks" : {

                          }
                        },
                        {
                          "id" : 280,
                          "_type" : "ScreenVMFile",
                          "src" : 1,
                          "trackNumber" : 0,
                          "attributes" : {
                            "ident" : "token_hijacking_attack"
                          },
                          "parameters" : {
                            "cursorScale" : {
                              "type" : "double",
                              "defaultValue" : 0.0,
                              "interp" : "linr"
                            },
                            "cursorOpacity" : {
                              "type" : "double",
                              "defaultValue" : 0.0,
                              "interp" : "linr"
                            }
                          },
                          "effects" : [

                          ],
                          "start" : 2701,
                          "duration" : 1572948,
                          "mediaStart" : 2491,
                          "mediaDuration" : 1572948,
                          "scalar" : 1,
                          "metadata" : {
                            "AutoAppliedSmartFocus" : "False",
                            "clipSpeedAttribute" : false
                          },
                          "animationTracks" : {

                          }
                        }
                    ],
                    "effects" : [
                        {
                          "effectName" : "CursorHilight",
                          "category" : "categoryCursorEffects",
                          "parameters" : {
                            "blur" : 0.1,
                            "color-alpha" : 0.75,
                            "color-blue" : 0.0,
                            "color-green" : 1.0,
                            "color-red" : 1.0,
                            "radius" : 50.0
                          }
                        }
                    ],
                    "start" : 1548,
                    "duration" : 22,
                    "mediaStart" : 2932,
                    "mediaDuration" : 22,
                    "scalar" : 1,
                    "metadata" : {
                      "AutoAppliedSmartFocus" : "False",
                      "clipSpeedAttribute" : false,
                      "default-scale0" : 0.99999942229767,
                      "default-scale1" : 1.0,
                      "default-translation0" : 1.95399252334028e-13,
                      "default-translation1" : -5.6843418860808e-14
                    },
                    "animationTracks" : {
                      "visual" : [
                        {
                          "endTime" : 237,
                          "duration" : 30,
                          "range" : [ 207, 30]
                        },
                        {
                          "endTime" : 343,
                          "duration" : 30,
                          "range" : [ 313, 30]
                        },
                        {
                          "endTime" : 466,
                          "duration" : 30,
                          "range" : [ 436, 30]
                        },
                        {
                          "endTime" : 632,
                          "duration" : 30,
                          "range" : [ 602, 30]
                        },
                        {
                          "endTime" : 751,
                          "duration" : 30,
                          "range" : [ 721, 30]
                        },
                        {
                          "endTime" : 785,
                          "duration" : 30,
                          "range" : [ 755, 30]
                        },
                        {
                          "endTime" : 814,
                          "duration" : 29,
                          "range" : [ 785, 29]
                        },
                        {
                          "endTime" : 1068,
                          "duration" : 26,
                          "range" : [ 1042, 26]
                        },
                        {
                          "endTime" : 2220,
                          "duration" : 30,
                          "range" : [ 2190, 30]
                        },
                        {
                          "endTime" : 2510,
                          "duration" : 30,
                          "range" : [ 2480, 30]
                        },
                        {
                          "endTime" : 2735,
                          "duration" : 41,
                          "range" : [ 2694, 41]
                        },
                        {
                          "endTime" : 2785,
                          "duration" : 46,
                          "range" : [ 2739, 46]
                        },
                        {
                          "endTime" : 3093,
                          "duration" : 30,
                          "range" : [ 3063, 30]
                        },
                        {
                          "endTime" : 3121,
                          "duration" : 28,
                          "range" : [ 3093, 28]
                        }
                      ]
                    }
                  },
                  {
                    "id" : 281,
                    "_type" : "StitchedMedia",
                    "minMediaStart" : 0,
                    "attributes" : {
                      "ident" : "token_hijacking_attack",
                      "gain" : 1.0,
                      "mixToMono" : false
                    },
                    "parameters" : {
                      "translation0" : {
                        "type" : "double",
                        "defaultValue" : 0.0,
                        "keyframes" : [
                          {
                            "endTime" : 237,
                            "time" : 207,
                            "value" : 6437.05178264923,
                            "duration" : 30
                          },
                          {
                            "endTime" : 343,
                            "time" : 313,
                            "value" : -4.54747350886464e-13,
                            "duration" : 30
                          },
                          {
                            "endTime" : 466,
                            "time" : 436,
                            "value" : 2471.77226095314,
                            "duration" : 30
                          },
                          {
                            "endTime" : 632,
                            "time" : 602,
                            "value" : -1.13686837721616e-13,
                            "duration" : 30
                          },
                          {
                            "endTime" : 751,
                            "time" : 721,
                            "value" : 1777.12723840605,
                            "duration" : 30
                          },
                          {
                            "endTime" : 785,
                            "time" : 755,
                            "value" : -1.13686837721616e-13,
                            "duration" : 30
                          },
                          {
                            "endTime" : 814,
                            "time" : 785,
                            "value" : 946.879645880833,
                            "duration" : 29
                          },
                          {
                            "endTime" : 1068,
                            "time" : 1042,
                            "value" : 1613.60702526176,
                            "duration" : 26
                          },
                          {
                            "endTime" : 2220,
                            "time" : 2190,
                            "value" : -1.13686837721616e-13,
                            "duration" : 30
                          },
                          {
                            "endTime" : 2510,
                            "time" : 2480,
                            "value" : -84.4290398276389,
                            "duration" : 30
                          },
                          {
                            "endTime" : 2735,
                            "time" : 2694,
                            "value" : 1.95399252334028e-13,
                            "duration" : 41
                          },
                          {
                            "endTime" : 2785,
                            "time" : 2739,
                            "value" : 2604.19860601506,
                            "duration" : 46
                          },
                          {
                            "endTime" : 3093,
                            "time" : 3063,
                            "value" : 1.13686837721616e-13,
                            "duration" : 30
                          },
                          {
                            "endTime" : 3121,
                            "time" : 3093,
                            "value" : -59.538727916997,
                            "duration" : 28
                          }
                        ]
                      },
                      "translation1" : {
                        "type" : "double",
                        "defaultValue" : 0.0,
                        "keyframes" : [
                          {
                            "endTime" : 237,
                            "time" : 207,
                            "value" : -2825.0524936412,
                            "duration" : 30
                          },
                          {
                            "endTime" : 343,
                            "time" : 313,
                            "value" : 5.6843418860808e-14,
                            "duration" : 30
                          },
                          {
                            "endTime" : 466,
                            "time" : 436,
                            "value" : -1235.61824899191,
                            "duration" : 30
                          },
                          {
                            "endTime" : 632,
                            "time" : 602,
                            "value" : 1.13686837721616e-13,
                            "duration" : 30
                          },
                          {
                            "endTime" : 751,
                            "time" : 721,
                            "value" : -129.822625517978,
                            "duration" : 30
                          },
                          {
                            "endTime" : 785,
                            "time" : 755,
                            "value" : -2.1316282072803e-14,
                            "duration" : 30
                          },
                          {
                            "endTime" : 814,
                            "time" : 785,
                            "value" : -532.6,
                            "duration" : 29
                          },
                          {
                            "endTime" : 1068,
                            "time" : 1042,
                            "value" : -277.235424203718,
                            "duration" : 26
                          },
                          {
                            "endTime" : 2220,
                            "time" : 2190,
                            "value" : -5.6843418860808e-14,
                            "duration" : 30
                          },
                          {
                            "endTime" : 2510,
                            "time" : 2480,
                            "value" : -902.332175055167,
                            "duration" : 30
                          },
                          {
                            "endTime" : 2735,
                            "time" : 2694,
                            "value" : -5.6843418860808e-14,
                            "duration" : 41
                          },
                          {
                            "endTime" : 2785,
                            "time" : 2739,
                            "value" : -1.81070686530249,
                            "duration" : 46
                          },
                          {
                            "endTime" : 3093,
                            "time" : 3063,
                            "value" : 7.21644966006352e-15,
                            "duration" : 30
                          },
                          {
                            "endTime" : 3121,
                            "time" : 3093,
                            "value" : 115.195750897824,
                            "duration" : 28
                          }
                        ]
                      },
                      "scale0" : {
                        "type" : "double",
                        "defaultValue" : 1.0,
                        "keyframes" : [
                          {
                            "endTime" : 237,
                            "time" : 207,
                            "value" : 6.52631522480847,
                            "duration" : 30
                          },
                          {
                            "endTime" : 343,
                            "time" : 313,
                            "value" : 0.999999999999999,
                            "duration" : 30
                          },
                          {
                            "endTime" : 466,
                            "time" : 436,
                            "value" : 3.172876137306,
                            "duration" : 30
                          },
                          {
                            "endTime" : 632,
                            "time" : 602,
                            "value" : 0.99999964401807,
                            "duration" : 30
                          },
                          {
                            "endTime" : 751,
                            "time" : 721,
                            "value" : 2.83915303535992,
                            "duration" : 30
                          },
                          {
                            "endTime" : 785,
                            "time" : 755,
                            "value" : 0.999999512129719,
                            "duration" : 30
                          },
                          {
                            "endTime" : 814,
                            "time" : 785,
                            "value" : 1.90952759462014,
                            "duration" : 29
                          },
                          {
                            "endTime" : 1068,
                            "time" : 1042,
                            "value" : 2.48123987298737,
                            "duration" : 26
                          },
                          {
                            "endTime" : 2220,
                            "time" : 2190,
                            "value" : 0.999999424015319,
                            "duration" : 30
                          },
                          {
                            "endTime" : 2510,
                            "time" : 2480,
                            "value" : 2.92108215027906,
                            "duration" : 30
                          },
                          {
                            "endTime" : 2735,
                            "time" : 2694,
                            "value" : 0.99999942229767,
                            "duration" : 41
                          },
                          {
                            "endTime" : 2785,
                            "time" : 2739,
                            "value" : 3.3212236194273,
                            "duration" : 46
                          },
                          {
                            "endTime" : 3093,
                            "time" : 3063,
                            "value" : 0.999999284332318,
                            "duration" : 30
                          },
                          {
                            "endTime" : 3121,
                            "time" : 3093,
                            "value" : 2.91980891472304,
                            "duration" : 28
                          }
                        ]
                      },
                      "scale1" : {
                        "type" : "double",
                        "defaultValue" : 1.0,
                        "keyframes" : [
                          {
                            "endTime" : 237,
                            "time" : 207,
                            "value" : 6.52631500328686,
                            "duration" : 30
                          },
                          {
                            "endTime" : 343,
                            "time" : 313,
                            "value" : 0.999999966057169,
                            "duration" : 30
                          },
                          {
                            "endTime" : 466,
                            "time" : 436,
                            "value" : 3.17287726679297,
                            "duration" : 30
                          },
                          {
                            "endTime" : 632,
                            "time" : 602,
                            "value" : 1.0,
                            "duration" : 30
                          },
                          {
                            "endTime" : 751,
                            "time" : 721,
                            "value" : 2.83915442049899,
                            "duration" : 30
                          },
                          {
                            "endTime" : 785,
                            "time" : 755,
                            "value" : 1.0,
                            "duration" : 30
                          },
                          {
                            "endTime" : 814,
                            "time" : 785,
                            "value" : 1.9095287965103,
                            "duration" : 29
                          },
                          {
                            "endTime" : 1068,
                            "time" : 1042,
                            "value" : 2.48124130214435,
                            "duration" : 26
                          },
                          {
                            "endTime" : 2220,
                            "time" : 2190,
                            "value" : 1.0,
                            "duration" : 30
                          },
                          {
                            "endTime" : 2510,
                            "time" : 2480,
                            "value" : 2.921083837796,
                            "duration" : 30
                          },
                          {
                            "endTime" : 2735,
                            "time" : 2694,
                            "value" : 1.0,
                            "duration" : 41
                          },
                          {
                            "endTime" : 2785,
                            "time" : 2739,
                            "value" : 3.32122599632141,
                            "duration" : 46
                          },
                          {
                            "endTime" : 3093,
                            "time" : 3063,
                            "value" : 1.0,
                            "duration" : 30
                          },
                          {
                            "endTime" : 3121,
                            "time" : 3093,
                            "value" : 2.91981149372817,
                            "duration" : 28
                          }
                        ]
                      },
                      "cursorOpacity" : 1.0,
                      "cursorScale" : 1.0
                    },
                    "medias" : [
                        {
                          "id" : 282,
                          "_type" : "ScreenVMFile",
                          "src" : 1,
                          "trackNumber" : 0,
                          "attributes" : {
                            "ident" : "token_hijacking_attack"
                          },
                          "parameters" : {
                            "cursorScale" : {
                              "type" : "double",
                              "defaultValue" : 0.0,
                              "interp" : "linr"
                            },
                            "cursorOpacity" : {
                              "type" : "double",
                              "defaultValue" : 0.0,
                              "interp" : "linr"
                            }
                          },
                          "effects" : [

                          ],
                          "start" : 0,
                          "duration" : 208,
                          "mediaStart" : 0,
                          "mediaDuration" : 208,
                          "scalar" : 1,
                          "metadata" : {
                            "AutoAppliedSmartFocus" : "False",
                            "clipSpeedAttribute" : false
                          },
                          "animationTracks" : {

                          }
                        },
                        {
                          "id" : 283,
                          "_type" : "ScreenIMFile",
                          "src" : 1,
                          "trackNumber" : 0,
                          "trimStartSum" : 0,
                          "attributes" : {
                            "ident" : "token_hijacking_attack"
                          },
                          "parameters" : {
                            "cursorOpacity" : 0.0,
                            "cursorScale" : 0.0
                          },
                          "effects" : [

                          ],
                          "start" : 208,
                          "duration" : 90,
                          "mediaStart" : 207,
                          "mediaDuration" : 1,
                          "scalar" : 1,
                          "metadata" : {
                            "AutoAppliedSmartFocus" : "False"
                          },
                          "animationTracks" : {

                          }
                        },
                        {
                          "id" : 284,
                          "_type" : "ScreenVMFile",
                          "src" : 1,
                          "trackNumber" : 0,
                          "attributes" : {
                            "ident" : "token_hijacking_attack"
                          },
                          "parameters" : {
                            "cursorScale" : {
                              "type" : "double",
                              "defaultValue" : 0.0,
                              "interp" : "linr"
                            },
                            "cursorOpacity" : {
                              "type" : "double",
                              "defaultValue" : 0.0,
                              "interp" : "linr"
                            }
                          },
                          "effects" : [

                          ],
                          "start" : 298,
                          "duration" : 140,
                          "mediaStart" : 208,
                          "mediaDuration" : 140,
                          "scalar" : 1,
                          "metadata" : {
                            "AutoAppliedSmartFocus" : "False",
                            "clipSpeedAttribute" : false
                          },
                          "animationTracks" : {

                          }
                        },
                        {
                          "id" : 285,
                          "_type" : "ScreenIMFile",
                          "src" : 1,
                          "trackNumber" : 0,
                          "trimStartSum" : 0,
                          "attributes" : {
                            "ident" : "token_hijacking_attack"
                          },
                          "parameters" : {
                            "cursorOpacity" : 0.0,
                            "cursorScale" : 0.0
                          },
                          "effects" : [

                          ],
                          "start" : 438,
                          "duration" : 30,
                          "mediaStart" : 348,
                          "mediaDuration" : 1,
                          "scalar" : 1,
                          "metadata" : {
                            "AutoAppliedSmartFocus" : "False"
                          },
                          "animationTracks" : {

                          }
                        },
                        {
                          "id" : 286,
                          "_type" : "ScreenVMFile",
                          "src" : 1,
                          "trackNumber" : 0,
                          "attributes" : {
                            "ident" : "token_hijacking_attack"
                          },
                          "parameters" : {
                            "cursorScale" : {
                              "type" : "double",
                              "defaultValue" : 0.0,
                              "interp" : "linr"
                            },
                            "cursorOpacity" : {
                              "type" : "double",
                              "defaultValue" : 0.0,
                              "interp" : "linr"
                            }
                          },
                          "effects" : [

                          ],
                          "start" : 468,
                          "duration" : 105,
                          "mediaStart" : 348,
                          "mediaDuration" : 105,
                          "scalar" : 1,
                          "metadata" : {
                            "AutoAppliedSmartFocus" : "False",
                            "clipSpeedAttribute" : false
                          },
                          "animationTracks" : {

                          }
                        },
                        {
                          "id" : 287,
                          "_type" : "ScreenIMFile",
                          "src" : 1,
                          "trackNumber" : 0,
                          "trimStartSum" : 0,
                          "attributes" : {
                            "ident" : "token_hijacking_attack"
                          },
                          "parameters" : {
                            "cursorOpacity" : 0.0,
                            "cursorScale" : 0.0
                          },
                          "effects" : [

                          ],
                          "start" : 573,
                          "duration" : 60,
                          "mediaStart" : 453,
                          "mediaDuration" : 1,
                          "scalar" : 1,
                          "metadata" : {
                            "AutoAppliedSmartFocus" : "False"
                          },
                          "animationTracks" : {

                          }
                        },
                        {
                          "id" : 288,
                          "_type" : "ScreenVMFile",
                          "src" : 1,
                          "trackNumber" : 0,
                          "attributes" : {
                            "ident" : "token_hijacking_attack"
                          },
                          "parameters" : {
                            "cursorScale" : {
                              "type" : "double",
                              "defaultValue" : 0.0,
                              "interp" : "linr"
                            },
                            "cursorOpacity" : {
                              "type" : "double",
                              "defaultValue" : 0.0,
                              "interp" : "linr"
                            }
                          },
                          "effects" : [

                          ],
                          "start" : 633,
                          "duration" : 2038,
                          "mediaStart" : 453,
                          "mediaDuration" : 2038,
                          "scalar" : 1,
                          "metadata" : {
                            "AutoAppliedSmartFocus" : "False",
                            "clipSpeedAttribute" : false
                          },
                          "animationTracks" : {

                          }
                        },
                        {
                          "id" : 289,
                          "_type" : "ScreenIMFile",
                          "src" : 1,
                          "trackNumber" : 0,
                          "trimStartSum" : 0,
                          "attributes" : {
                            "ident" : "token_hijacking_attack"
                          },
                          "parameters" : {
                            "cursorOpacity" : 0.0,
                            "cursorScale" : 0.0
                          },
                          "effects" : [

                          ],
                          "start" : 2671,
                          "duration" : 30,
                          "mediaStart" : 2491,
                          "mediaDuration" : 1,
                          "scalar" : 1,
                          "metadata" : {
                            "AutoAppliedSmartFocus" : "False"
                          },
                          "animationTracks" : {

                          }
                        },
                        {
                          "id" : 290,
                          "_type" : "ScreenVMFile",
                          "src" : 1,
                          "trackNumber" : 0,
                          "attributes" : {
                            "ident" : "token_hijacking_attack"
                          },
                          "parameters" : {
                            "cursorScale" : {
                              "type" : "double",
                              "defaultValue" : 0.0,
                              "interp" : "linr"
                            },
                            "cursorOpacity" : {
                              "type" : "double",
                              "defaultValue" : 0.0,
                              "interp" : "linr"
                            }
                          },
                          "effects" : [

                          ],
                          "start" : 2701,
                          "duration" : 1572948,
                          "mediaStart" : 2491,
                          "mediaDuration" : 1572948,
                          "scalar" : 1,
                          "metadata" : {
                            "AutoAppliedSmartFocus" : "False",
                            "clipSpeedAttribute" : false
                          },
                          "animationTracks" : {

                          }
                        }
                    ],
                    "effects" : [
                        {
                          "effectName" : "CursorHilight",
                          "category" : "categoryCursorEffects",
                          "parameters" : {
                            "blur" : 0.1,
                            "color-alpha" : 0.75,
                            "color-blue" : 0.0,
                            "color-green" : 1.0,
                            "color-red" : 1.0,
                            "radius" : 50.0
                          }
                        }
                    ],
                    "start" : 1570,
                    "duration" : 83,
                    "mediaStart" : 2954,
                    "mediaDuration" : 103,
                    "scalar" : "83/103",
                    "metadata" : {
                      "AutoAppliedSmartFocus" : "False",
                      "clipSpeedAttribute" : true,
                      "default-scale0" : 0.99999942229767,
                      "default-scale1" : 1.0,
                      "default-translation0" : 1.95399252334028e-13,
                      "default-translation1" : -5.6843418860808e-14
                    },
                    "animationTracks" : {
                      "visual" : [
                        {
                          "endTime" : 237,
                          "duration" : 30,
                          "range" : [ 207, 30]
                        },
                        {
                          "endTime" : 343,
                          "duration" : 30,
                          "range" : [ 313, 30]
                        },
                        {
                          "endTime" : 466,
                          "duration" : 30,
                          "range" : [ 436, 30]
                        },
                        {
                          "endTime" : 632,
                          "duration" : 30,
                          "range" : [ 602, 30]
                        },
                        {
                          "endTime" : 751,
                          "duration" : 30,
                          "range" : [ 721, 30]
                        },
                        {
                          "endTime" : 785,
                          "duration" : 30,
                          "range" : [ 755, 30]
                        },
                        {
                          "endTime" : 814,
                          "duration" : 29,
                          "range" : [ 785, 29]
                        },
                        {
                          "endTime" : 1068,
                          "duration" : 26,
                          "range" : [ 1042, 26]
                        },
                        {
                          "endTime" : 2220,
                          "duration" : 30,
                          "range" : [ 2190, 30]
                        },
                        {
                          "endTime" : 2510,
                          "duration" : 30,
                          "range" : [ 2480, 30]
                        },
                        {
                          "endTime" : 2735,
                          "duration" : 41,
                          "range" : [ 2694, 41]
                        },
                        {
                          "endTime" : 2785,
                          "duration" : 46,
                          "range" : [ 2739, 46]
                        },
                        {
                          "endTime" : 3093,
                          "duration" : 30,
                          "range" : [ 3063, 30]
                        },
                        {
                          "endTime" : 3121,
                          "duration" : 28,
                          "range" : [ 3093, 28]
                        }
                      ]
                    }
                  },
                  {
                    "id" : 291,
                    "_type" : "StitchedMedia",
                    "minMediaStart" : 0,
                    "attributes" : {
                      "ident" : "token_hijacking_attack",
                      "gain" : 1.0,
                      "mixToMono" : false
                    },
                    "parameters" : {
                      "translation0" : {
                        "type" : "double",
                        "defaultValue" : 0.0,
                        "keyframes" : [
                          {
                            "endTime" : 237,
                            "time" : 207,
                            "value" : 6437.05178264923,
                            "duration" : 30
                          },
                          {
                            "endTime" : 343,
                            "time" : 313,
                            "value" : -4.54747350886464e-13,
                            "duration" : 30
                          },
                          {
                            "endTime" : 466,
                            "time" : 436,
                            "value" : 2471.77226095314,
                            "duration" : 30
                          },
                          {
                            "endTime" : 632,
                            "time" : 602,
                            "value" : -1.13686837721616e-13,
                            "duration" : 30
                          },
                          {
                            "endTime" : 751,
                            "time" : 721,
                            "value" : 1777.12723840605,
                            "duration" : 30
                          },
                          {
                            "endTime" : 785,
                            "time" : 755,
                            "value" : -1.13686837721616e-13,
                            "duration" : 30
                          },
                          {
                            "endTime" : 814,
                            "time" : 785,
                            "value" : 946.879645880833,
                            "duration" : 29
                          },
                          {
                            "endTime" : 1068,
                            "time" : 1042,
                            "value" : 1613.60702526176,
                            "duration" : 26
                          },
                          {
                            "endTime" : 2220,
                            "time" : 2190,
                            "value" : -1.13686837721616e-13,
                            "duration" : 30
                          },
                          {
                            "endTime" : 2510,
                            "time" : 2480,
                            "value" : -84.4290398276389,
                            "duration" : 30
                          },
                          {
                            "endTime" : 2735,
                            "time" : 2694,
                            "value" : 1.95399252334028e-13,
                            "duration" : 41
                          },
                          {
                            "endTime" : 2785,
                            "time" : 2739,
                            "value" : 2604.19860601506,
                            "duration" : 46
                          },
                          {
                            "endTime" : 3108,
                            "time" : 3070,
                            "value" : 1.13686837721616e-13,
                            "duration" : 38
                          },
                          {
                            "endTime" : 3142,
                            "time" : 3108,
                            "value" : -285.318743883762,
                            "duration" : 34
                          },
                          {
                            "endTime" : 3378,
                            "time" : 3336,
                            "value" : 4.12114786740858e-13,
                            "duration" : 42
                          },
                          {
                            "endTime" : 3436,
                            "time" : 3411,
                            "value" : 3001.53110047847,
                            "duration" : 25
                          },
                          {
                            "endTime" : 3656,
                            "time" : 3606,
                            "value" : 3.41060513164848e-13,
                            "duration" : 50
                          }
                        ]
                      },
                      "translation1" : {
                        "type" : "double",
                        "defaultValue" : 0.0,
                        "keyframes" : [
                          {
                            "endTime" : 237,
                            "time" : 207,
                            "value" : -2825.0524936412,
                            "duration" : 30
                          },
                          {
                            "endTime" : 343,
                            "time" : 313,
                            "value" : 5.6843418860808e-14,
                            "duration" : 30
                          },
                          {
                            "endTime" : 466,
                            "time" : 436,
                            "value" : -1235.61824899191,
                            "duration" : 30
                          },
                          {
                            "endTime" : 632,
                            "time" : 602,
                            "value" : 1.13686837721616e-13,
                            "duration" : 30
                          },
                          {
                            "endTime" : 751,
                            "time" : 721,
                            "value" : -129.822625517978,
                            "duration" : 30
                          },
                          {
                            "endTime" : 785,
                            "time" : 755,
                            "value" : -2.1316282072803e-14,
                            "duration" : 30
                          },
                          {
                            "endTime" : 814,
                            "time" : 785,
                            "value" : -532.6,
                            "duration" : 29
                          },
                          {
                            "endTime" : 1068,
                            "time" : 1042,
                            "value" : -277.235424203718,
                            "duration" : 26
                          },
                          {
                            "endTime" : 2220,
                            "time" : 2190,
                            "value" : -5.6843418860808e-14,
                            "duration" : 30
                          },
                          {
                            "endTime" : 2510,
                            "time" : 2480,
                            "value" : -902.332175055167,
                            "duration" : 30
                          },
                          {
                            "endTime" : 2735,
                            "time" : 2694,
                            "value" : -5.6843418860808e-14,
                            "duration" : 41
                          },
                          {
                            "endTime" : 2785,
                            "time" : 2739,
                            "value" : -1.81070686530249,
                            "duration" : 46
                          },
                          {
                            "endTime" : 3108,
                            "time" : 3070,
                            "value" : 7.21644966006352e-15,
                            "duration" : 38
                          },
                          {
                            "endTime" : 3142,
                            "time" : 3108,
                            "value" : 5.66375460301182,
                            "duration" : 34
                          },
                          {
                            "endTime" : 3378,
                            "time" : 3336,
                            "value" : -7.68274333040608e-14,
                            "duration" : 42
                          },
                          {
                            "endTime" : 3436,
                            "time" : 3411,
                            "value" : -78.4510884965061,
                            "duration" : 25
                          },
                          {
                            "endTime" : 3656,
                            "time" : 3606,
                            "value" : 1.3855583347322e-13,
                            "duration" : 50
                          }
                        ]
                      },
                      "scale0" : {
                        "type" : "double",
                        "defaultValue" : 1.0,
                        "keyframes" : [
                          {
                            "endTime" : 237,
                            "time" : 207,
                            "value" : 6.52631522480847,
                            "duration" : 30
                          },
                          {
                            "endTime" : 343,
                            "time" : 313,
                            "value" : 0.999999999999999,
                            "duration" : 30
                          },
                          {
                            "endTime" : 466,
                            "time" : 436,
                            "value" : 3.172876137306,
                            "duration" : 30
                          },
                          {
                            "endTime" : 632,
                            "time" : 602,
                            "value" : 0.99999964401807,
                            "duration" : 30
                          },
                          {
                            "endTime" : 751,
                            "time" : 721,
                            "value" : 2.83915303535992,
                            "duration" : 30
                          },
                          {
                            "endTime" : 785,
                            "time" : 755,
                            "value" : 0.999999512129719,
                            "duration" : 30
                          },
                          {
                            "endTime" : 814,
                            "time" : 785,
                            "value" : 1.90952759462014,
                            "duration" : 29
                          },
                          {
                            "endTime" : 1068,
                            "time" : 1042,
                            "value" : 2.48123987298737,
                            "duration" : 26
                          },
                          {
                            "endTime" : 2220,
                            "time" : 2190,
                            "value" : 0.999999424015319,
                            "duration" : 30
                          },
                          {
                            "endTime" : 2510,
                            "time" : 2480,
                            "value" : 2.92108215027906,
                            "duration" : 30
                          },
                          {
                            "endTime" : 2735,
                            "time" : 2694,
                            "value" : 0.99999942229767,
                            "duration" : 41
                          },
                          {
                            "endTime" : 2785,
                            "time" : 2739,
                            "value" : 3.3212236194273,
                            "duration" : 46
                          },
                          {
                            "endTime" : 3108,
                            "time" : 3070,
                            "value" : 0.999999284332318,
                            "duration" : 38
                          },
                          {
                            "endTime" : 3142,
                            "time" : 3108,
                            "value" : 2.37965690489919,
                            "duration" : 34
                          },
                          {
                            "endTime" : 3378,
                            "time" : 3336,
                            "value" : 0.999999052009054,
                            "duration" : 42
                          },
                          {
                            "endTime" : 3436,
                            "time" : 3411,
                            "value" : 3.64944959861083,
                            "duration" : 25
                          },
                          {
                            "endTime" : 3656,
                            "time" : 3606,
                            "value" : 0.999999213344672,
                            "duration" : 50
                          }
                        ]
                      },
                      "scale1" : {
                        "type" : "double",
                        "defaultValue" : 1.0,
                        "keyframes" : [
                          {
                            "endTime" : 237,
                            "time" : 207,
                            "value" : 6.52631500328686,
                            "duration" : 30
                          },
                          {
                            "endTime" : 343,
                            "time" : 313,
                            "value" : 0.999999966057169,
                            "duration" : 30
                          },
                          {
                            "endTime" : 466,
                            "time" : 436,
                            "value" : 3.17287726679297,
                            "duration" : 30
                          },
                          {
                            "endTime" : 632,
                            "time" : 602,
                            "value" : 1.0,
                            "duration" : 30
                          },
                          {
                            "endTime" : 751,
                            "time" : 721,
                            "value" : 2.83915442049899,
                            "duration" : 30
                          },
                          {
                            "endTime" : 785,
                            "time" : 755,
                            "value" : 1.0,
                            "duration" : 30
                          },
                          {
                            "endTime" : 814,
                            "time" : 785,
                            "value" : 1.9095287965103,
                            "duration" : 29
                          },
                          {
                            "endTime" : 1068,
                            "time" : 1042,
                            "value" : 2.48124130214435,
                            "duration" : 26
                          },
                          {
                            "endTime" : 2220,
                            "time" : 2190,
                            "value" : 1.0,
                            "duration" : 30
                          },
                          {
                            "endTime" : 2510,
                            "time" : 2480,
                            "value" : 2.921083837796,
                            "duration" : 30
                          },
                          {
                            "endTime" : 2735,
                            "time" : 2694,
                            "value" : 1.0,
                            "duration" : 41
                          },
                          {
                            "endTime" : 2785,
                            "time" : 2739,
                            "value" : 3.32122599632141,
                            "duration" : 46
                          },
                          {
                            "endTime" : 3108,
                            "time" : 3070,
                            "value" : 1.0,
                            "duration" : 38
                          },
                          {
                            "endTime" : 3142,
                            "time" : 3108,
                            "value" : 2.37965916079453,
                            "duration" : 34
                          },
                          {
                            "endTime" : 3378,
                            "time" : 3336,
                            "value" : 1.0,
                            "duration" : 42
                          },
                          {
                            "endTime" : 3436,
                            "time" : 3411,
                            "value" : 3.64945246947206,
                            "duration" : 25
                          },
                          {
                            "endTime" : 3656,
                            "time" : 3606,
                            "value" : 0.999999999999999,
                            "duration" : 50
                          }
                        ]
                      },
                      "cursorOpacity" : 1.0,
                      "cursorScale" : 1.0
                    },
                    "medias" : [
                        {
                          "id" : 292,
                          "_type" : "ScreenVMFile",
                          "src" : 1,
                          "trackNumber" : 0,
                          "attributes" : {
                            "ident" : "token_hijacking_attack"
                          },
                          "parameters" : {
                            "cursorScale" : {
                              "type" : "double",
                              "defaultValue" : 0.0,
                              "interp" : "linr"
                            },
                            "cursorOpacity" : {
                              "type" : "double",
                              "defaultValue" : 0.0,
                              "interp" : "linr"
                            }
                          },
                          "effects" : [

                          ],
                          "start" : 0,
                          "duration" : 208,
                          "mediaStart" : 0,
                          "mediaDuration" : 208,
                          "scalar" : 1,
                          "metadata" : {
                            "AutoAppliedSmartFocus" : "False",
                            "clipSpeedAttribute" : false
                          },
                          "animationTracks" : {

                          }
                        },
                        {
                          "id" : 293,
                          "_type" : "ScreenIMFile",
                          "src" : 1,
                          "trackNumber" : 0,
                          "trimStartSum" : 0,
                          "attributes" : {
                            "ident" : "token_hijacking_attack"
                          },
                          "parameters" : {
                            "cursorOpacity" : 0.0,
                            "cursorScale" : 0.0
                          },
                          "effects" : [

                          ],
                          "start" : 208,
                          "duration" : 90,
                          "mediaStart" : 207,
                          "mediaDuration" : 1,
                          "scalar" : 1,
                          "metadata" : {
                            "AutoAppliedSmartFocus" : "False"
                          },
                          "animationTracks" : {

                          }
                        },
                        {
                          "id" : 294,
                          "_type" : "ScreenVMFile",
                          "src" : 1,
                          "trackNumber" : 0,
                          "attributes" : {
                            "ident" : "token_hijacking_attack"
                          },
                          "parameters" : {
                            "cursorScale" : {
                              "type" : "double",
                              "defaultValue" : 0.0,
                              "interp" : "linr"
                            },
                            "cursorOpacity" : {
                              "type" : "double",
                              "defaultValue" : 0.0,
                              "interp" : "linr"
                            }
                          },
                          "effects" : [

                          ],
                          "start" : 298,
                          "duration" : 140,
                          "mediaStart" : 208,
                          "mediaDuration" : 140,
                          "scalar" : 1,
                          "metadata" : {
                            "AutoAppliedSmartFocus" : "False",
                            "clipSpeedAttribute" : false
                          },
                          "animationTracks" : {

                          }
                        },
                        {
                          "id" : 295,
                          "_type" : "ScreenIMFile",
                          "src" : 1,
                          "trackNumber" : 0,
                          "trimStartSum" : 0,
                          "attributes" : {
                            "ident" : "token_hijacking_attack"
                          },
                          "parameters" : {
                            "cursorOpacity" : 0.0,
                            "cursorScale" : 0.0
                          },
                          "effects" : [

                          ],
                          "start" : 438,
                          "duration" : 30,
                          "mediaStart" : 348,
                          "mediaDuration" : 1,
                          "scalar" : 1,
                          "metadata" : {
                            "AutoAppliedSmartFocus" : "False"
                          },
                          "animationTracks" : {

                          }
                        },
                        {
                          "id" : 296,
                          "_type" : "ScreenVMFile",
                          "src" : 1,
                          "trackNumber" : 0,
                          "attributes" : {
                            "ident" : "token_hijacking_attack"
                          },
                          "parameters" : {
                            "cursorScale" : {
                              "type" : "double",
                              "defaultValue" : 0.0,
                              "interp" : "linr"
                            },
                            "cursorOpacity" : {
                              "type" : "double",
                              "defaultValue" : 0.0,
                              "interp" : "linr"
                            }
                          },
                          "effects" : [

                          ],
                          "start" : 468,
                          "duration" : 105,
                          "mediaStart" : 348,
                          "mediaDuration" : 105,
                          "scalar" : 1,
                          "metadata" : {
                            "AutoAppliedSmartFocus" : "False",
                            "clipSpeedAttribute" : false
                          },
                          "animationTracks" : {

                          }
                        },
                        {
                          "id" : 297,
                          "_type" : "ScreenIMFile",
                          "src" : 1,
                          "trackNumber" : 0,
                          "trimStartSum" : 0,
                          "attributes" : {
                            "ident" : "token_hijacking_attack"
                          },
                          "parameters" : {
                            "cursorOpacity" : 0.0,
                            "cursorScale" : 0.0
                          },
                          "effects" : [

                          ],
                          "start" : 573,
                          "duration" : 60,
                          "mediaStart" : 453,
                          "mediaDuration" : 1,
                          "scalar" : 1,
                          "metadata" : {
                            "AutoAppliedSmartFocus" : "False"
                          },
                          "animationTracks" : {

                          }
                        },
                        {
                          "id" : 298,
                          "_type" : "ScreenVMFile",
                          "src" : 1,
                          "trackNumber" : 0,
                          "attributes" : {
                            "ident" : "token_hijacking_attack"
                          },
                          "parameters" : {
                            "cursorScale" : {
                              "type" : "double",
                              "defaultValue" : 0.0,
                              "interp" : "linr"
                            },
                            "cursorOpacity" : {
                              "type" : "double",
                              "defaultValue" : 0.0,
                              "interp" : "linr"
                            }
                          },
                          "effects" : [

                          ],
                          "start" : 633,
                          "duration" : 2038,
                          "mediaStart" : 453,
                          "mediaDuration" : 2038,
                          "scalar" : 1,
                          "metadata" : {
                            "AutoAppliedSmartFocus" : "False",
                            "clipSpeedAttribute" : false
                          },
                          "animationTracks" : {

                          }
                        },
                        {
                          "id" : 299,
                          "_type" : "ScreenIMFile",
                          "src" : 1,
                          "trackNumber" : 0,
                          "trimStartSum" : 0,
                          "attributes" : {
                            "ident" : "token_hijacking_attack"
                          },
                          "parameters" : {
                            "cursorOpacity" : 0.0,
                            "cursorScale" : 0.0
                          },
                          "effects" : [

                          ],
                          "start" : 2671,
                          "duration" : 30,
                          "mediaStart" : 2491,
                          "mediaDuration" : 1,
                          "scalar" : 1,
                          "metadata" : {
                            "AutoAppliedSmartFocus" : "False"
                          },
                          "animationTracks" : {

                          }
                        },
                        {
                          "id" : 300,
                          "_type" : "ScreenVMFile",
                          "src" : 1,
                          "trackNumber" : 0,
                          "attributes" : {
                            "ident" : "token_hijacking_attack"
                          },
                          "parameters" : {
                            "cursorScale" : {
                              "type" : "double",
                              "defaultValue" : 0.0,
                              "interp" : "linr"
                            },
                            "cursorOpacity" : {
                              "type" : "double",
                              "defaultValue" : 0.0,
                              "interp" : "linr"
                            }
                          },
                          "effects" : [

                          ],
                          "start" : 2701,
                          "duration" : 386,
                          "mediaStart" : 2491,
                          "mediaDuration" : 386,
                          "scalar" : 1,
                          "metadata" : {
                            "AutoAppliedSmartFocus" : "False",
                            "clipSpeedAttribute" : false
                          },
                          "animationTracks" : {

                          }
                        },
                        {
                          "id" : 301,
                          "_type" : "ScreenIMFile",
                          "src" : 1,
                          "trackNumber" : 0,
                          "trimStartSum" : 0,
                          "attributes" : {
                            "ident" : "token_hijacking_attack"
                          },
                          "parameters" : {
                            "cursorOpacity" : 0.0,
                            "cursorScale" : 0.0
                          },
                          "effects" : [

                          ],
                          "start" : 3087,
                          "duration" : 30,
                          "mediaStart" : 2877,
                          "mediaDuration" : 1,
                          "scalar" : 1,
                          "metadata" : {
                            "AutoAppliedSmartFocus" : "False"
                          },
                          "animationTracks" : {

                          }
                        },
                        {
                          "id" : 302,
                          "_type" : "ScreenVMFile",
                          "src" : 1,
                          "trackNumber" : 0,
                          "attributes" : {
                            "ident" : "token_hijacking_attack"
                          },
                          "parameters" : {
                            "cursorScale" : {
                              "type" : "double",
                              "defaultValue" : 0.0,
                              "interp" : "linr"
                            },
                            "cursorOpacity" : {
                              "type" : "double",
                              "defaultValue" : 0.0,
                              "interp" : "linr"
                            }
                          },
                          "effects" : [

                          ],
                          "start" : 3117,
                          "duration" : 66,
                          "mediaStart" : 2877,
                          "mediaDuration" : 66,
                          "scalar" : 1,
                          "metadata" : {
                            "AutoAppliedSmartFocus" : "False",
                            "clipSpeedAttribute" : false
                          },
                          "animationTracks" : {

                          }
                        },
                        {
                          "id" : 303,
                          "_type" : "ScreenIMFile",
                          "src" : 1,
                          "trackNumber" : 0,
                          "trimStartSum" : 0,
                          "attributes" : {
                            "ident" : "token_hijacking_attack"
                          },
                          "parameters" : {
                            "cursorOpacity" : 0.0,
                            "cursorScale" : 0.0
                          },
                          "effects" : [

                          ],
                          "start" : 3183,
                          "duration" : 93,
                          "mediaStart" : 2943,
                          "mediaDuration" : 1,
                          "scalar" : 1,
                          "metadata" : {
                            "AutoAppliedSmartFocus" : "False"
                          },
                          "animationTracks" : {

                          }
                        },
                        {
                          "id" : 304,
                          "_type" : "ScreenVMFile",
                          "src" : 1,
                          "trackNumber" : 0,
                          "attributes" : {
                            "ident" : "token_hijacking_attack"
                          },
                          "parameters" : {
                            "cursorScale" : {
                              "type" : "double",
                              "defaultValue" : 0.0,
                              "interp" : "linr"
                            },
                            "cursorOpacity" : {
                              "type" : "double",
                              "defaultValue" : 0.0,
                              "interp" : "linr"
                            }
                          },
                          "effects" : [

                          ],
                          "start" : 3276,
                          "duration" : 15,
                          "mediaStart" : 2943,
                          "mediaDuration" : 15,
                          "scalar" : 1,
                          "metadata" : {
                            "AutoAppliedSmartFocus" : "False",
                            "clipSpeedAttribute" : false
                          },
                          "animationTracks" : {

                          }
                        },
                        {
                          "id" : 305,
                          "_type" : "ScreenIMFile",
                          "src" : 1,
                          "trackNumber" : 0,
                          "trimStartSum" : 0,
                          "attributes" : {
                            "ident" : "token_hijacking_attack"
                          },
                          "parameters" : {
                            "cursorOpacity" : 0.0,
                            "cursorScale" : 0.0
                          },
                          "effects" : [

                          ],
                          "start" : 3291,
                          "duration" : 90,
                          "mediaStart" : 2958,
                          "mediaDuration" : 1,
                          "scalar" : 1,
                          "metadata" : {
                            "AutoAppliedSmartFocus" : "False"
                          },
                          "animationTracks" : {

                          }
                        },
                        {
                          "id" : 306,
                          "_type" : "ScreenVMFile",
                          "src" : 1,
                          "trackNumber" : 0,
                          "attributes" : {
                            "ident" : "token_hijacking_attack"
                          },
                          "parameters" : {
                            "cursorScale" : {
                              "type" : "double",
                              "defaultValue" : 0.0,
                              "interp" : "linr"
                            },
                            "cursorOpacity" : {
                              "type" : "double",
                              "defaultValue" : 0.0,
                              "interp" : "linr"
                            }
                          },
                          "effects" : [

                          ],
                          "start" : 3381,
                          "duration" : 137,
                          "mediaStart" : 2958,
                          "mediaDuration" : 137,
                          "scalar" : 1,
                          "metadata" : {
                            "AutoAppliedSmartFocus" : "False",
                            "clipSpeedAttribute" : false
                          },
                          "animationTracks" : {

                          }
                        },
                        {
                          "id" : 307,
                          "_type" : "ScreenIMFile",
                          "src" : 1,
                          "trackNumber" : 0,
                          "trimStartSum" : 0,
                          "attributes" : {
                            "ident" : "token_hijacking_attack"
                          },
                          "parameters" : {
                            "cursorOpacity" : 0.0,
                            "cursorScale" : 0.0
                          },
                          "effects" : [

                          ],
                          "start" : 3518,
                          "duration" : 240,
                          "mediaStart" : 3095,
                          "mediaDuration" : 1,
                          "scalar" : 1,
                          "metadata" : {
                            "AutoAppliedSmartFocus" : "False"
                          },
                          "animationTracks" : {

                          }
                        },
                        {
                          "id" : 308,
                          "_type" : "ScreenVMFile",
                          "src" : 1,
                          "trackNumber" : 0,
                          "attributes" : {
                            "ident" : "token_hijacking_attack"
                          },
                          "parameters" : {
                            "cursorScale" : {
                              "type" : "double",
                              "defaultValue" : 0.0,
                              "interp" : "linr"
                            },
                            "cursorOpacity" : {
                              "type" : "double",
                              "defaultValue" : 0.0,
                              "interp" : "linr"
                            }
                          },
                          "effects" : [

                          ],
                          "start" : 3758,
                          "duration" : 1572344,
                          "mediaStart" : 3095,
                          "mediaDuration" : 1572344,
                          "scalar" : 1,
                          "metadata" : {
                            "AutoAppliedSmartFocus" : "False",
                            "clipSpeedAttribute" : false
                          },
                          "animationTracks" : {

                          }
                        }
                    ],
                    "effects" : [
                        {
                          "effectName" : "CursorHilight",
                          "category" : "categoryCursorEffects",
                          "parameters" : {
                            "blur" : 0.1,
                            "color-alpha" : 0.75,
                            "color-blue" : 0.0,
                            "color-green" : 1.0,
                            "color-red" : 1.0,
                            "radius" : 50.0
                          }
                        }
                    ],
                    "start" : 1653,
                    "duration" : 224,
                    "mediaStart" : 3057,
                    "mediaDuration" : 224,
                    "scalar" : 1,
                    "metadata" : {
                      "AutoAppliedSmartFocus" : "False",
                      "clipSpeedAttribute" : false
                    },
                    "animationTracks" : {
                      "visual" : [
                        {
                          "endTime" : 237,
                          "duration" : 30,
                          "range" : [ 207, 30]
                        },
                        {
                          "endTime" : 343,
                          "duration" : 30,
                          "range" : [ 313, 30]
                        },
                        {
                          "endTime" : 466,
                          "duration" : 30,
                          "range" : [ 436, 30]
                        },
                        {
                          "endTime" : 632,
                          "duration" : 30,
                          "range" : [ 602, 30]
                        },
                        {
                          "endTime" : 751,
                          "duration" : 30,
                          "range" : [ 721, 30]
                        },
                        {
                          "endTime" : 785,
                          "duration" : 30,
                          "range" : [ 755, 30]
                        },
                        {
                          "endTime" : 814,
                          "duration" : 29,
                          "range" : [ 785, 29]
                        },
                        {
                          "endTime" : 1068,
                          "duration" : 26,
                          "range" : [ 1042, 26]
                        },
                        {
                          "endTime" : 2220,
                          "duration" : 30,
                          "range" : [ 2190, 30]
                        },
                        {
                          "endTime" : 2510,
                          "duration" : 30,
                          "range" : [ 2480, 30]
                        },
                        {
                          "endTime" : 2735,
                          "duration" : 41,
                          "range" : [ 2694, 41]
                        },
                        {
                          "endTime" : 2785,
                          "duration" : 46,
                          "range" : [ 2739, 46]
                        },
                        {
                          "endTime" : 3108,
                          "duration" : 38,
                          "range" : [ 3070, 38]
                        },
                        {
                          "endTime" : 3142,
                          "duration" : 34,
                          "range" : [ 3108, 34]
                        },
                        {
                          "endTime" : 3378,
                          "duration" : 42,
                          "range" : [ 3336, 42]
                        },
                        {
                          "endTime" : 3436,
                          "duration" : 25,
                          "range" : [ 3411, 25]
                        },
                        {
                          "endTime" : 3656,
                          "duration" : 50,
                          "range" : [ 3606, 50]
                        }
                      ]
                    }
                  },
                  {
                    "id" : 309,
                    "_type" : "StitchedMedia",
                    "minMediaStart" : 0,
                    "attributes" : {
                      "ident" : "token_hijacking_attack",
                      "gain" : 1.0,
                      "mixToMono" : false
                    },
                    "parameters" : {
                      "translation0" : {
                        "type" : "double",
                        "defaultValue" : 0.0,
                        "keyframes" : [
                          {
                            "endTime" : 237,
                            "time" : 207,
                            "value" : 6437.05178264923,
                            "duration" : 30
                          },
                          {
                            "endTime" : 343,
                            "time" : 313,
                            "value" : -4.54747350886464e-13,
                            "duration" : 30
                          },
                          {
                            "endTime" : 466,
                            "time" : 436,
                            "value" : 2471.77226095314,
                            "duration" : 30
                          },
                          {
                            "endTime" : 632,
                            "time" : 602,
                            "value" : -1.13686837721616e-13,
                            "duration" : 30
                          },
                          {
                            "endTime" : 751,
                            "time" : 721,
                            "value" : 1777.12723840605,
                            "duration" : 30
                          },
                          {
                            "endTime" : 785,
                            "time" : 755,
                            "value" : -1.13686837721616e-13,
                            "duration" : 30
                          },
                          {
                            "endTime" : 814,
                            "time" : 785,
                            "value" : 946.879645880833,
                            "duration" : 29
                          },
                          {
                            "endTime" : 1068,
                            "time" : 1042,
                            "value" : 1613.60702526176,
                            "duration" : 26
                          },
                          {
                            "endTime" : 2220,
                            "time" : 2190,
                            "value" : -1.13686837721616e-13,
                            "duration" : 30
                          },
                          {
                            "endTime" : 2510,
                            "time" : 2480,
                            "value" : -84.4290398276389,
                            "duration" : 30
                          },
                          {
                            "endTime" : 2735,
                            "time" : 2694,
                            "value" : 1.95399252334028e-13,
                            "duration" : 41
                          },
                          {
                            "endTime" : 2785,
                            "time" : 2739,
                            "value" : 2604.19860601506,
                            "duration" : 46
                          },
                          {
                            "endTime" : 3108,
                            "time" : 3070,
                            "value" : 1.13686837721616e-13,
                            "duration" : 38
                          },
                          {
                            "endTime" : 3142,
                            "time" : 3108,
                            "value" : -285.318743883762,
                            "duration" : 34
                          },
                          {
                            "endTime" : 3285,
                            "time" : 3243,
                            "value" : 4.12114786740858e-13,
                            "duration" : 42
                          },
                          {
                            "endTime" : 3343,
                            "time" : 3318,
                            "value" : 3001.53110047847,
                            "duration" : 25
                          }
                        ]
                      },
                      "translation1" : {
                        "type" : "double",
                        "defaultValue" : 0.0,
                        "keyframes" : [
                          {
                            "endTime" : 237,
                            "time" : 207,
                            "value" : -2825.0524936412,
                            "duration" : 30
                          },
                          {
                            "endTime" : 343,
                            "time" : 313,
                            "value" : 5.6843418860808e-14,
                            "duration" : 30
                          },
                          {
                            "endTime" : 466,
                            "time" : 436,
                            "value" : -1235.61824899191,
                            "duration" : 30
                          },
                          {
                            "endTime" : 632,
                            "time" : 602,
                            "value" : 1.13686837721616e-13,
                            "duration" : 30
                          },
                          {
                            "endTime" : 751,
                            "time" : 721,
                            "value" : -129.822625517978,
                            "duration" : 30
                          },
                          {
                            "endTime" : 785,
                            "time" : 755,
                            "value" : -2.1316282072803e-14,
                            "duration" : 30
                          },
                          {
                            "endTime" : 814,
                            "time" : 785,
                            "value" : -532.6,
                            "duration" : 29
                          },
                          {
                            "endTime" : 1068,
                            "time" : 1042,
                            "value" : -277.235424203718,
                            "duration" : 26
                          },
                          {
                            "endTime" : 2220,
                            "time" : 2190,
                            "value" : -5.6843418860808e-14,
                            "duration" : 30
                          },
                          {
                            "endTime" : 2510,
                            "time" : 2480,
                            "value" : -902.332175055167,
                            "duration" : 30
                          },
                          {
                            "endTime" : 2735,
                            "time" : 2694,
                            "value" : -5.6843418860808e-14,
                            "duration" : 41
                          },
                          {
                            "endTime" : 2785,
                            "time" : 2739,
                            "value" : -1.81070686530249,
                            "duration" : 46
                          },
                          {
                            "endTime" : 3108,
                            "time" : 3070,
                            "value" : 7.21644966006352e-15,
                            "duration" : 38
                          },
                          {
                            "endTime" : 3142,
                            "time" : 3108,
                            "value" : 5.66375460301182,
                            "duration" : 34
                          },
                          {
                            "endTime" : 3285,
                            "time" : 3243,
                            "value" : -7.68274333040608e-14,
                            "duration" : 42
                          },
                          {
                            "endTime" : 3343,
                            "time" : 3318,
                            "value" : -78.4510884965061,
                            "duration" : 25
                          }
                        ]
                      },
                      "scale0" : {
                        "type" : "double",
                        "defaultValue" : 1.0,
                        "keyframes" : [
                          {
                            "endTime" : 237,
                            "time" : 207,
                            "value" : 6.52631522480847,
                            "duration" : 30
                          },
                          {
                            "endTime" : 343,
                            "time" : 313,
                            "value" : 0.999999999999999,
                            "duration" : 30
                          },
                          {
                            "endTime" : 466,
                            "time" : 436,
                            "value" : 3.172876137306,
                            "duration" : 30
                          },
                          {
                            "endTime" : 632,
                            "time" : 602,
                            "value" : 0.99999964401807,
                            "duration" : 30
                          },
                          {
                            "endTime" : 751,
                            "time" : 721,
                            "value" : 2.83915303535992,
                            "duration" : 30
                          },
                          {
                            "endTime" : 785,
                            "time" : 755,
                            "value" : 0.999999512129719,
                            "duration" : 30
                          },
                          {
                            "endTime" : 814,
                            "time" : 785,
                            "value" : 1.90952759462014,
                            "duration" : 29
                          },
                          {
                            "endTime" : 1068,
                            "time" : 1042,
                            "value" : 2.48123987298737,
                            "duration" : 26
                          },
                          {
                            "endTime" : 2220,
                            "time" : 2190,
                            "value" : 0.999999424015319,
                            "duration" : 30
                          },
                          {
                            "endTime" : 2510,
                            "time" : 2480,
                            "value" : 2.92108215027906,
                            "duration" : 30
                          },
                          {
                            "endTime" : 2735,
                            "time" : 2694,
                            "value" : 0.99999942229767,
                            "duration" : 41
                          },
                          {
                            "endTime" : 2785,
                            "time" : 2739,
                            "value" : 3.3212236194273,
                            "duration" : 46
                          },
                          {
                            "endTime" : 3108,
                            "time" : 3070,
                            "value" : 0.999999284332318,
                            "duration" : 38
                          },
                          {
                            "endTime" : 3142,
                            "time" : 3108,
                            "value" : 2.37965690489919,
                            "duration" : 34
                          },
                          {
                            "endTime" : 3285,
                            "time" : 3243,
                            "value" : 0.999999052009054,
                            "duration" : 42
                          },
                          {
                            "endTime" : 3343,
                            "time" : 3318,
                            "value" : 3.64944959861083,
                            "duration" : 25
                          }
                        ]
                      },
                      "scale1" : {
                        "type" : "double",
                        "defaultValue" : 1.0,
                        "keyframes" : [
                          {
                            "endTime" : 237,
                            "time" : 207,
                            "value" : 6.52631500328686,
                            "duration" : 30
                          },
                          {
                            "endTime" : 343,
                            "time" : 313,
                            "value" : 0.999999966057169,
                            "duration" : 30
                          },
                          {
                            "endTime" : 466,
                            "time" : 436,
                            "value" : 3.17287726679297,
                            "duration" : 30
                          },
                          {
                            "endTime" : 632,
                            "time" : 602,
                            "value" : 1.0,
                            "duration" : 30
                          },
                          {
                            "endTime" : 751,
                            "time" : 721,
                            "value" : 2.83915442049899,
                            "duration" : 30
                          },
                          {
                            "endTime" : 785,
                            "time" : 755,
                            "value" : 1.0,
                            "duration" : 30
                          },
                          {
                            "endTime" : 814,
                            "time" : 785,
                            "value" : 1.9095287965103,
                            "duration" : 29
                          },
                          {
                            "endTime" : 1068,
                            "time" : 1042,
                            "value" : 2.48124130214435,
                            "duration" : 26
                          },
                          {
                            "endTime" : 2220,
                            "time" : 2190,
                            "value" : 1.0,
                            "duration" : 30
                          },
                          {
                            "endTime" : 2510,
                            "time" : 2480,
                            "value" : 2.921083837796,
                            "duration" : 30
                          },
                          {
                            "endTime" : 2735,
                            "time" : 2694,
                            "value" : 1.0,
                            "duration" : 41
                          },
                          {
                            "endTime" : 2785,
                            "time" : 2739,
                            "value" : 3.32122599632141,
                            "duration" : 46
                          },
                          {
                            "endTime" : 3108,
                            "time" : 3070,
                            "value" : 1.0,
                            "duration" : 38
                          },
                          {
                            "endTime" : 3142,
                            "time" : 3108,
                            "value" : 2.37965916079453,
                            "duration" : 34
                          },
                          {
                            "endTime" : 3285,
                            "time" : 3243,
                            "value" : 1.0,
                            "duration" : 42
                          },
                          {
                            "endTime" : 3343,
                            "time" : 3318,
                            "value" : 3.64945246947206,
                            "duration" : 25
                          }
                        ]
                      },
                      "cursorOpacity" : 1.0,
                      "cursorScale" : 1.0
                    },
                    "medias" : [
                        {
                          "id" : 310,
                          "_type" : "ScreenVMFile",
                          "src" : 1,
                          "trackNumber" : 0,
                          "attributes" : {
                            "ident" : "token_hijacking_attack"
                          },
                          "parameters" : {
                            "cursorScale" : {
                              "type" : "double",
                              "defaultValue" : 0.0,
                              "interp" : "linr"
                            },
                            "cursorOpacity" : {
                              "type" : "double",
                              "defaultValue" : 0.0,
                              "interp" : "linr"
                            }
                          },
                          "effects" : [

                          ],
                          "start" : 0,
                          "duration" : 208,
                          "mediaStart" : 0,
                          "mediaDuration" : 208,
                          "scalar" : 1,
                          "metadata" : {
                            "AutoAppliedSmartFocus" : "False",
                            "clipSpeedAttribute" : false
                          },
                          "animationTracks" : {

                          }
                        },
                        {
                          "id" : 311,
                          "_type" : "ScreenIMFile",
                          "src" : 1,
                          "trackNumber" : 0,
                          "trimStartSum" : 0,
                          "attributes" : {
                            "ident" : "token_hijacking_attack"
                          },
                          "parameters" : {
                            "cursorOpacity" : 0.0,
                            "cursorScale" : 0.0
                          },
                          "effects" : [

                          ],
                          "start" : 208,
                          "duration" : 90,
                          "mediaStart" : 207,
                          "mediaDuration" : 1,
                          "scalar" : 1,
                          "metadata" : {
                            "AutoAppliedSmartFocus" : "False"
                          },
                          "animationTracks" : {

                          }
                        },
                        {
                          "id" : 312,
                          "_type" : "ScreenVMFile",
                          "src" : 1,
                          "trackNumber" : 0,
                          "attributes" : {
                            "ident" : "token_hijacking_attack"
                          },
                          "parameters" : {
                            "cursorScale" : {
                              "type" : "double",
                              "defaultValue" : 0.0,
                              "interp" : "linr"
                            },
                            "cursorOpacity" : {
                              "type" : "double",
                              "defaultValue" : 0.0,
                              "interp" : "linr"
                            }
                          },
                          "effects" : [

                          ],
                          "start" : 298,
                          "duration" : 140,
                          "mediaStart" : 208,
                          "mediaDuration" : 140,
                          "scalar" : 1,
                          "metadata" : {
                            "AutoAppliedSmartFocus" : "False",
                            "clipSpeedAttribute" : false
                          },
                          "animationTracks" : {

                          }
                        },
                        {
                          "id" : 313,
                          "_type" : "ScreenIMFile",
                          "src" : 1,
                          "trackNumber" : 0,
                          "trimStartSum" : 0,
                          "attributes" : {
                            "ident" : "token_hijacking_attack"
                          },
                          "parameters" : {
                            "cursorOpacity" : 0.0,
                            "cursorScale" : 0.0
                          },
                          "effects" : [

                          ],
                          "start" : 438,
                          "duration" : 30,
                          "mediaStart" : 348,
                          "mediaDuration" : 1,
                          "scalar" : 1,
                          "metadata" : {
                            "AutoAppliedSmartFocus" : "False"
                          },
                          "animationTracks" : {

                          }
                        },
                        {
                          "id" : 314,
                          "_type" : "ScreenVMFile",
                          "src" : 1,
                          "trackNumber" : 0,
                          "attributes" : {
                            "ident" : "token_hijacking_attack"
                          },
                          "parameters" : {
                            "cursorScale" : {
                              "type" : "double",
                              "defaultValue" : 0.0,
                              "interp" : "linr"
                            },
                            "cursorOpacity" : {
                              "type" : "double",
                              "defaultValue" : 0.0,
                              "interp" : "linr"
                            }
                          },
                          "effects" : [

                          ],
                          "start" : 468,
                          "duration" : 105,
                          "mediaStart" : 348,
                          "mediaDuration" : 105,
                          "scalar" : 1,
                          "metadata" : {
                            "AutoAppliedSmartFocus" : "False",
                            "clipSpeedAttribute" : false
                          },
                          "animationTracks" : {

                          }
                        },
                        {
                          "id" : 315,
                          "_type" : "ScreenIMFile",
                          "src" : 1,
                          "trackNumber" : 0,
                          "trimStartSum" : 0,
                          "attributes" : {
                            "ident" : "token_hijacking_attack"
                          },
                          "parameters" : {
                            "cursorOpacity" : 0.0,
                            "cursorScale" : 0.0
                          },
                          "effects" : [

                          ],
                          "start" : 573,
                          "duration" : 60,
                          "mediaStart" : 453,
                          "mediaDuration" : 1,
                          "scalar" : 1,
                          "metadata" : {
                            "AutoAppliedSmartFocus" : "False"
                          },
                          "animationTracks" : {

                          }
                        },
                        {
                          "id" : 316,
                          "_type" : "ScreenVMFile",
                          "src" : 1,
                          "trackNumber" : 0,
                          "attributes" : {
                            "ident" : "token_hijacking_attack"
                          },
                          "parameters" : {
                            "cursorScale" : {
                              "type" : "double",
                              "defaultValue" : 0.0,
                              "interp" : "linr"
                            },
                            "cursorOpacity" : {
                              "type" : "double",
                              "defaultValue" : 0.0,
                              "interp" : "linr"
                            }
                          },
                          "effects" : [

                          ],
                          "start" : 633,
                          "duration" : 2038,
                          "mediaStart" : 453,
                          "mediaDuration" : 2038,
                          "scalar" : 1,
                          "metadata" : {
                            "AutoAppliedSmartFocus" : "False",
                            "clipSpeedAttribute" : false
                          },
                          "animationTracks" : {

                          }
                        },
                        {
                          "id" : 317,
                          "_type" : "ScreenIMFile",
                          "src" : 1,
                          "trackNumber" : 0,
                          "trimStartSum" : 0,
                          "attributes" : {
                            "ident" : "token_hijacking_attack"
                          },
                          "parameters" : {
                            "cursorOpacity" : 0.0,
                            "cursorScale" : 0.0
                          },
                          "effects" : [

                          ],
                          "start" : 2671,
                          "duration" : 30,
                          "mediaStart" : 2491,
                          "mediaDuration" : 1,
                          "scalar" : 1,
                          "metadata" : {
                            "AutoAppliedSmartFocus" : "False"
                          },
                          "animationTracks" : {

                          }
                        },
                        {
                          "id" : 318,
                          "_type" : "ScreenVMFile",
                          "src" : 1,
                          "trackNumber" : 0,
                          "attributes" : {
                            "ident" : "token_hijacking_attack"
                          },
                          "parameters" : {
                            "cursorScale" : {
                              "type" : "double",
                              "defaultValue" : 0.0,
                              "interp" : "linr"
                            },
                            "cursorOpacity" : {
                              "type" : "double",
                              "defaultValue" : 0.0,
                              "interp" : "linr"
                            }
                          },
                          "effects" : [

                          ],
                          "start" : 2701,
                          "duration" : 386,
                          "mediaStart" : 2491,
                          "mediaDuration" : 386,
                          "scalar" : 1,
                          "metadata" : {
                            "AutoAppliedSmartFocus" : "False",
                            "clipSpeedAttribute" : false
                          },
                          "animationTracks" : {

                          }
                        },
                        {
                          "id" : 319,
                          "_type" : "ScreenIMFile",
                          "src" : 1,
                          "trackNumber" : 0,
                          "trimStartSum" : 0,
                          "attributes" : {
                            "ident" : "token_hijacking_attack"
                          },
                          "parameters" : {
                            "cursorOpacity" : 0.0,
                            "cursorScale" : 0.0
                          },
                          "effects" : [

                          ],
                          "start" : 3087,
                          "duration" : 30,
                          "mediaStart" : 2877,
                          "mediaDuration" : 1,
                          "scalar" : 1,
                          "metadata" : {
                            "AutoAppliedSmartFocus" : "False"
                          },
                          "animationTracks" : {

                          }
                        },
                        {
                          "id" : 320,
                          "_type" : "ScreenVMFile",
                          "src" : 1,
                          "trackNumber" : 0,
                          "attributes" : {
                            "ident" : "token_hijacking_attack"
                          },
                          "parameters" : {
                            "cursorScale" : {
                              "type" : "double",
                              "defaultValue" : 0.0,
                              "interp" : "linr"
                            },
                            "cursorOpacity" : {
                              "type" : "double",
                              "defaultValue" : 0.0,
                              "interp" : "linr"
                            }
                          },
                          "effects" : [

                          ],
                          "start" : 3117,
                          "duration" : 81,
                          "mediaStart" : 2877,
                          "mediaDuration" : 81,
                          "scalar" : 1,
                          "metadata" : {
                            "AutoAppliedSmartFocus" : "False",
                            "clipSpeedAttribute" : false
                          },
                          "animationTracks" : {

                          }
                        },
                        {
                          "id" : 321,
                          "_type" : "ScreenIMFile",
                          "src" : 1,
                          "trackNumber" : 0,
                          "trimStartSum" : 0,
                          "attributes" : {
                            "ident" : "token_hijacking_attack"
                          },
                          "parameters" : {
                            "cursorOpacity" : 0.0,
                            "cursorScale" : 0.0
                          },
                          "effects" : [

                          ],
                          "start" : 3198,
                          "duration" : 90,
                          "mediaStart" : 2958,
                          "mediaDuration" : 1,
                          "scalar" : 1,
                          "metadata" : {
                            "AutoAppliedSmartFocus" : "False"
                          },
                          "animationTracks" : {

                          }
                        },
                        {
                          "id" : 322,
                          "_type" : "ScreenVMFile",
                          "src" : 1,
                          "trackNumber" : 0,
                          "attributes" : {
                            "ident" : "token_hijacking_attack"
                          },
                          "parameters" : {
                            "cursorScale" : {
                              "type" : "double",
                              "defaultValue" : 0.0,
                              "interp" : "linr"
                            },
                            "cursorOpacity" : {
                              "type" : "double",
                              "defaultValue" : 0.0,
                              "interp" : "linr"
                            }
                          },
                          "effects" : [

                          ],
                          "start" : 3288,
                          "duration" : 137,
                          "mediaStart" : 2958,
                          "mediaDuration" : 137,
                          "scalar" : 1,
                          "metadata" : {
                            "AutoAppliedSmartFocus" : "False",
                            "clipSpeedAttribute" : false
                          },
                          "animationTracks" : {

                          }
                        },
                        {
                          "id" : 323,
                          "_type" : "ScreenIMFile",
                          "src" : 1,
                          "trackNumber" : 0,
                          "trimStartSum" : 0,
                          "attributes" : {
                            "ident" : "token_hijacking_attack"
                          },
                          "parameters" : {
                            "cursorOpacity" : 0.0,
                            "cursorScale" : 0.0
                          },
                          "effects" : [

                          ],
                          "start" : 3425,
                          "duration" : 316,
                          "mediaStart" : 3095,
                          "mediaDuration" : 1,
                          "scalar" : 1,
                          "metadata" : {
                            "AutoAppliedSmartFocus" : "False"
                          },
                          "animationTracks" : {

                          }
                        },
                        {
                          "id" : 324,
                          "_type" : "ScreenVMFile",
                          "src" : 1,
                          "trackNumber" : 0,
                          "attributes" : {
                            "ident" : "token_hijacking_attack"
                          },
                          "parameters" : {
                            "cursorScale" : {
                              "type" : "double",
                              "defaultValue" : 0.0,
                              "interp" : "linr"
                            },
                            "cursorOpacity" : {
                              "type" : "double",
                              "defaultValue" : 0.0,
                              "interp" : "linr"
                            }
                          },
                          "effects" : [

                          ],
                          "start" : 3741,
                          "duration" : 1572344,
                          "mediaStart" : 3095,
                          "mediaDuration" : 1572344,
                          "scalar" : 1,
                          "metadata" : {
                            "AutoAppliedSmartFocus" : "False",
                            "clipSpeedAttribute" : false
                          },
                          "animationTracks" : {

                          }
                        }
                    ],
                    "effects" : [
                        {
                          "effectName" : "CursorHilight",
                          "category" : "categoryCursorEffects",
                          "parameters" : {
                            "blur" : 0.1,
                            "color-alpha" : 0.75,
                            "color-blue" : 0.0,
                            "color-green" : 1.0,
                            "color-red" : 1.0,
                            "radius" : 50.0
                          }
                        }
                    ],
                    "start" : 1877,
                    "duration" : 387,
                    "mediaStart" : 3188,
                    "mediaDuration" : 387,
                    "scalar" : 1,
                    "metadata" : {
                      "AutoAppliedSmartFocus" : "False",
                      "clipSpeedAttribute" : false
                    },
                    "animationTracks" : {
                      "visual" : [
                        {
                          "endTime" : 237,
                          "duration" : 30,
                          "range" : [ 207, 30]
                        },
                        {
                          "endTime" : 343,
                          "duration" : 30,
                          "range" : [ 313, 30]
                        },
                        {
                          "endTime" : 466,
                          "duration" : 30,
                          "range" : [ 436, 30]
                        },
                        {
                          "endTime" : 632,
                          "duration" : 30,
                          "range" : [ 602, 30]
                        },
                        {
                          "endTime" : 751,
                          "duration" : 30,
                          "range" : [ 721, 30]
                        },
                        {
                          "endTime" : 785,
                          "duration" : 30,
                          "range" : [ 755, 30]
                        },
                        {
                          "endTime" : 814,
                          "duration" : 29,
                          "range" : [ 785, 29]
                        },
                        {
                          "endTime" : 1068,
                          "duration" : 26,
                          "range" : [ 1042, 26]
                        },
                        {
                          "endTime" : 2220,
                          "duration" : 30,
                          "range" : [ 2190, 30]
                        },
                        {
                          "endTime" : 2510,
                          "duration" : 30,
                          "range" : [ 2480, 30]
                        },
                        {
                          "endTime" : 2735,
                          "duration" : 41,
                          "range" : [ 2694, 41]
                        },
                        {
                          "endTime" : 2785,
                          "duration" : 46,
                          "range" : [ 2739, 46]
                        },
                        {
                          "endTime" : 3108,
                          "duration" : 38,
                          "range" : [ 3070, 38]
                        },
                        {
                          "endTime" : 3142,
                          "duration" : 34,
                          "range" : [ 3108, 34]
                        },
                        {
                          "endTime" : 3285,
                          "duration" : 42,
                          "range" : [ 3243, 42]
                        },
                        {
                          "endTime" : 3343,
                          "duration" : 25,
                          "range" : [ 3318, 25]
                        }
                      ]
                    }
                  },
                  {
                    "id" : 325,
                    "_type" : "StitchedMedia",
                    "minMediaStart" : 0,
                    "attributes" : {
                      "ident" : "token_hijacking_attack",
                      "gain" : 1.0,
                      "mixToMono" : false
                    },
                    "parameters" : {
                      "translation0" : {
                        "type" : "double",
                        "defaultValue" : 0.0,
                        "keyframes" : [
                          {
                            "endTime" : 237,
                            "time" : 207,
                            "value" : 6437.05178264923,
                            "duration" : 30
                          },
                          {
                            "endTime" : 343,
                            "time" : 313,
                            "value" : -4.54747350886464e-13,
                            "duration" : 30
                          },
                          {
                            "endTime" : 466,
                            "time" : 436,
                            "value" : 2471.77226095314,
                            "duration" : 30
                          },
                          {
                            "endTime" : 632,
                            "time" : 602,
                            "value" : -1.13686837721616e-13,
                            "duration" : 30
                          },
                          {
                            "endTime" : 751,
                            "time" : 721,
                            "value" : 1777.12723840605,
                            "duration" : 30
                          },
                          {
                            "endTime" : 785,
                            "time" : 755,
                            "value" : -1.13686837721616e-13,
                            "duration" : 30
                          },
                          {
                            "endTime" : 814,
                            "time" : 785,
                            "value" : 946.879645880833,
                            "duration" : 29
                          },
                          {
                            "endTime" : 1068,
                            "time" : 1042,
                            "value" : 1613.60702526176,
                            "duration" : 26
                          },
                          {
                            "endTime" : 2220,
                            "time" : 2190,
                            "value" : -1.13686837721616e-13,
                            "duration" : 30
                          },
                          {
                            "endTime" : 2510,
                            "time" : 2480,
                            "value" : -84.4290398276389,
                            "duration" : 30
                          },
                          {
                            "endTime" : 2735,
                            "time" : 2694,
                            "value" : 1.95399252334028e-13,
                            "duration" : 41
                          },
                          {
                            "endTime" : 2785,
                            "time" : 2739,
                            "value" : 2604.19860601506,
                            "duration" : 46
                          },
                          {
                            "endTime" : 3108,
                            "time" : 3070,
                            "value" : 1.13686837721616e-13,
                            "duration" : 38
                          },
                          {
                            "endTime" : 3142,
                            "time" : 3108,
                            "value" : -285.318743883762,
                            "duration" : 34
                          },
                          {
                            "endTime" : 3285,
                            "time" : 3243,
                            "value" : 4.12114786740858e-13,
                            "duration" : 42
                          },
                          {
                            "endTime" : 3343,
                            "time" : 3318,
                            "value" : 3001.53110047847,
                            "duration" : 25
                          },
                          {
                            "endTime" : 3563,
                            "time" : 3513,
                            "value" : 3.41060513164848e-13,
                            "duration" : 50
                          }
                        ]
                      },
                      "translation1" : {
                        "type" : "double",
                        "defaultValue" : 0.0,
                        "keyframes" : [
                          {
                            "endTime" : 237,
                            "time" : 207,
                            "value" : -2825.0524936412,
                            "duration" : 30
                          },
                          {
                            "endTime" : 343,
                            "time" : 313,
                            "value" : 5.6843418860808e-14,
                            "duration" : 30
                          },
                          {
                            "endTime" : 466,
                            "time" : 436,
                            "value" : -1235.61824899191,
                            "duration" : 30
                          },
                          {
                            "endTime" : 632,
                            "time" : 602,
                            "value" : 1.13686837721616e-13,
                            "duration" : 30
                          },
                          {
                            "endTime" : 751,
                            "time" : 721,
                            "value" : -129.822625517978,
                            "duration" : 30
                          },
                          {
                            "endTime" : 785,
                            "time" : 755,
                            "value" : -2.1316282072803e-14,
                            "duration" : 30
                          },
                          {
                            "endTime" : 814,
                            "time" : 785,
                            "value" : -532.6,
                            "duration" : 29
                          },
                          {
                            "endTime" : 1068,
                            "time" : 1042,
                            "value" : -277.235424203718,
                            "duration" : 26
                          },
                          {
                            "endTime" : 2220,
                            "time" : 2190,
                            "value" : -5.6843418860808e-14,
                            "duration" : 30
                          },
                          {
                            "endTime" : 2510,
                            "time" : 2480,
                            "value" : -902.332175055167,
                            "duration" : 30
                          },
                          {
                            "endTime" : 2735,
                            "time" : 2694,
                            "value" : -5.6843418860808e-14,
                            "duration" : 41
                          },
                          {
                            "endTime" : 2785,
                            "time" : 2739,
                            "value" : -1.81070686530249,
                            "duration" : 46
                          },
                          {
                            "endTime" : 3108,
                            "time" : 3070,
                            "value" : 7.21644966006352e-15,
                            "duration" : 38
                          },
                          {
                            "endTime" : 3142,
                            "time" : 3108,
                            "value" : 5.66375460301182,
                            "duration" : 34
                          },
                          {
                            "endTime" : 3285,
                            "time" : 3243,
                            "value" : -7.68274333040608e-14,
                            "duration" : 42
                          },
                          {
                            "endTime" : 3343,
                            "time" : 3318,
                            "value" : -78.4510884965061,
                            "duration" : 25
                          },
                          {
                            "endTime" : 3563,
                            "time" : 3513,
                            "value" : 1.3855583347322e-13,
                            "duration" : 50
                          }
                        ]
                      },
                      "scale0" : {
                        "type" : "double",
                        "defaultValue" : 1.0,
                        "keyframes" : [
                          {
                            "endTime" : 237,
                            "time" : 207,
                            "value" : 6.52631522480847,
                            "duration" : 30
                          },
                          {
                            "endTime" : 343,
                            "time" : 313,
                            "value" : 0.999999999999999,
                            "duration" : 30
                          },
                          {
                            "endTime" : 466,
                            "time" : 436,
                            "value" : 3.172876137306,
                            "duration" : 30
                          },
                          {
                            "endTime" : 632,
                            "time" : 602,
                            "value" : 0.99999964401807,
                            "duration" : 30
                          },
                          {
                            "endTime" : 751,
                            "time" : 721,
                            "value" : 2.83915303535992,
                            "duration" : 30
                          },
                          {
                            "endTime" : 785,
                            "time" : 755,
                            "value" : 0.999999512129719,
                            "duration" : 30
                          },
                          {
                            "endTime" : 814,
                            "time" : 785,
                            "value" : 1.90952759462014,
                            "duration" : 29
                          },
                          {
                            "endTime" : 1068,
                            "time" : 1042,
                            "value" : 2.48123987298737,
                            "duration" : 26
                          },
                          {
                            "endTime" : 2220,
                            "time" : 2190,
                            "value" : 0.999999424015319,
                            "duration" : 30
                          },
                          {
                            "endTime" : 2510,
                            "time" : 2480,
                            "value" : 2.92108215027906,
                            "duration" : 30
                          },
                          {
                            "endTime" : 2735,
                            "time" : 2694,
                            "value" : 0.99999942229767,
                            "duration" : 41
                          },
                          {
                            "endTime" : 2785,
                            "time" : 2739,
                            "value" : 3.3212236194273,
                            "duration" : 46
                          },
                          {
                            "endTime" : 3108,
                            "time" : 3070,
                            "value" : 0.999999284332318,
                            "duration" : 38
                          },
                          {
                            "endTime" : 3142,
                            "time" : 3108,
                            "value" : 2.37965690489919,
                            "duration" : 34
                          },
                          {
                            "endTime" : 3285,
                            "time" : 3243,
                            "value" : 0.999999052009054,
                            "duration" : 42
                          },
                          {
                            "endTime" : 3343,
                            "time" : 3318,
                            "value" : 3.64944959861083,
                            "duration" : 25
                          },
                          {
                            "endTime" : 3563,
                            "time" : 3513,
                            "value" : 0.999999213344672,
                            "duration" : 50
                          }
                        ]
                      },
                      "scale1" : {
                        "type" : "double",
                        "defaultValue" : 1.0,
                        "keyframes" : [
                          {
                            "endTime" : 237,
                            "time" : 207,
                            "value" : 6.52631500328686,
                            "duration" : 30
                          },
                          {
                            "endTime" : 343,
                            "time" : 313,
                            "value" : 0.999999966057169,
                            "duration" : 30
                          },
                          {
                            "endTime" : 466,
                            "time" : 436,
                            "value" : 3.17287726679297,
                            "duration" : 30
                          },
                          {
                            "endTime" : 632,
                            "time" : 602,
                            "value" : 1.0,
                            "duration" : 30
                          },
                          {
                            "endTime" : 751,
                            "time" : 721,
                            "value" : 2.83915442049899,
                            "duration" : 30
                          },
                          {
                            "endTime" : 785,
                            "time" : 755,
                            "value" : 1.0,
                            "duration" : 30
                          },
                          {
                            "endTime" : 814,
                            "time" : 785,
                            "value" : 1.9095287965103,
                            "duration" : 29
                          },
                          {
                            "endTime" : 1068,
                            "time" : 1042,
                            "value" : 2.48124130214435,
                            "duration" : 26
                          },
                          {
                            "endTime" : 2220,
                            "time" : 2190,
                            "value" : 1.0,
                            "duration" : 30
                          },
                          {
                            "endTime" : 2510,
                            "time" : 2480,
                            "value" : 2.921083837796,
                            "duration" : 30
                          },
                          {
                            "endTime" : 2735,
                            "time" : 2694,
                            "value" : 1.0,
                            "duration" : 41
                          },
                          {
                            "endTime" : 2785,
                            "time" : 2739,
                            "value" : 3.32122599632141,
                            "duration" : 46
                          },
                          {
                            "endTime" : 3108,
                            "time" : 3070,
                            "value" : 1.0,
                            "duration" : 38
                          },
                          {
                            "endTime" : 3142,
                            "time" : 3108,
                            "value" : 2.37965916079453,
                            "duration" : 34
                          },
                          {
                            "endTime" : 3285,
                            "time" : 3243,
                            "value" : 1.0,
                            "duration" : 42
                          },
                          {
                            "endTime" : 3343,
                            "time" : 3318,
                            "value" : 3.64945246947206,
                            "duration" : 25
                          },
                          {
                            "endTime" : 3563,
                            "time" : 3513,
                            "value" : 0.999999999999999,
                            "duration" : 50
                          }
                        ]
                      },
                      "cursorOpacity" : 1.0,
                      "cursorScale" : 1.0
                    },
                    "medias" : [
                        {
                          "id" : 326,
                          "_type" : "ScreenVMFile",
                          "src" : 1,
                          "trackNumber" : 0,
                          "attributes" : {
                            "ident" : "token_hijacking_attack"
                          },
                          "parameters" : {
                            "cursorScale" : {
                              "type" : "double",
                              "defaultValue" : 0.0,
                              "interp" : "linr"
                            },
                            "cursorOpacity" : {
                              "type" : "double",
                              "defaultValue" : 0.0,
                              "interp" : "linr"
                            }
                          },
                          "effects" : [

                          ],
                          "start" : 0,
                          "duration" : 208,
                          "mediaStart" : 0,
                          "mediaDuration" : 208,
                          "scalar" : 1,
                          "metadata" : {
                            "AutoAppliedSmartFocus" : "False",
                            "clipSpeedAttribute" : false
                          },
                          "animationTracks" : {

                          }
                        },
                        {
                          "id" : 327,
                          "_type" : "ScreenIMFile",
                          "src" : 1,
                          "trackNumber" : 0,
                          "trimStartSum" : 0,
                          "attributes" : {
                            "ident" : "token_hijacking_attack"
                          },
                          "parameters" : {
                            "cursorOpacity" : 0.0,
                            "cursorScale" : 0.0
                          },
                          "effects" : [

                          ],
                          "start" : 208,
                          "duration" : 90,
                          "mediaStart" : 207,
                          "mediaDuration" : 1,
                          "scalar" : 1,
                          "metadata" : {
                            "AutoAppliedSmartFocus" : "False"
                          },
                          "animationTracks" : {

                          }
                        },
                        {
                          "id" : 328,
                          "_type" : "ScreenVMFile",
                          "src" : 1,
                          "trackNumber" : 0,
                          "attributes" : {
                            "ident" : "token_hijacking_attack"
                          },
                          "parameters" : {
                            "cursorScale" : {
                              "type" : "double",
                              "defaultValue" : 0.0,
                              "interp" : "linr"
                            },
                            "cursorOpacity" : {
                              "type" : "double",
                              "defaultValue" : 0.0,
                              "interp" : "linr"
                            }
                          },
                          "effects" : [

                          ],
                          "start" : 298,
                          "duration" : 140,
                          "mediaStart" : 208,
                          "mediaDuration" : 140,
                          "scalar" : 1,
                          "metadata" : {
                            "AutoAppliedSmartFocus" : "False",
                            "clipSpeedAttribute" : false
                          },
                          "animationTracks" : {

                          }
                        },
                        {
                          "id" : 329,
                          "_type" : "ScreenIMFile",
                          "src" : 1,
                          "trackNumber" : 0,
                          "trimStartSum" : 0,
                          "attributes" : {
                            "ident" : "token_hijacking_attack"
                          },
                          "parameters" : {
                            "cursorOpacity" : 0.0,
                            "cursorScale" : 0.0
                          },
                          "effects" : [

                          ],
                          "start" : 438,
                          "duration" : 30,
                          "mediaStart" : 348,
                          "mediaDuration" : 1,
                          "scalar" : 1,
                          "metadata" : {
                            "AutoAppliedSmartFocus" : "False"
                          },
                          "animationTracks" : {

                          }
                        },
                        {
                          "id" : 330,
                          "_type" : "ScreenVMFile",
                          "src" : 1,
                          "trackNumber" : 0,
                          "attributes" : {
                            "ident" : "token_hijacking_attack"
                          },
                          "parameters" : {
                            "cursorScale" : {
                              "type" : "double",
                              "defaultValue" : 0.0,
                              "interp" : "linr"
                            },
                            "cursorOpacity" : {
                              "type" : "double",
                              "defaultValue" : 0.0,
                              "interp" : "linr"
                            }
                          },
                          "effects" : [

                          ],
                          "start" : 468,
                          "duration" : 105,
                          "mediaStart" : 348,
                          "mediaDuration" : 105,
                          "scalar" : 1,
                          "metadata" : {
                            "AutoAppliedSmartFocus" : "False",
                            "clipSpeedAttribute" : false
                          },
                          "animationTracks" : {

                          }
                        },
                        {
                          "id" : 331,
                          "_type" : "ScreenIMFile",
                          "src" : 1,
                          "trackNumber" : 0,
                          "trimStartSum" : 0,
                          "attributes" : {
                            "ident" : "token_hijacking_attack"
                          },
                          "parameters" : {
                            "cursorOpacity" : 0.0,
                            "cursorScale" : 0.0
                          },
                          "effects" : [

                          ],
                          "start" : 573,
                          "duration" : 60,
                          "mediaStart" : 453,
                          "mediaDuration" : 1,
                          "scalar" : 1,
                          "metadata" : {
                            "AutoAppliedSmartFocus" : "False"
                          },
                          "animationTracks" : {

                          }
                        },
                        {
                          "id" : 332,
                          "_type" : "ScreenVMFile",
                          "src" : 1,
                          "trackNumber" : 0,
                          "attributes" : {
                            "ident" : "token_hijacking_attack"
                          },
                          "parameters" : {
                            "cursorScale" : {
                              "type" : "double",
                              "defaultValue" : 0.0,
                              "interp" : "linr"
                            },
                            "cursorOpacity" : {
                              "type" : "double",
                              "defaultValue" : 0.0,
                              "interp" : "linr"
                            }
                          },
                          "effects" : [

                          ],
                          "start" : 633,
                          "duration" : 2038,
                          "mediaStart" : 453,
                          "mediaDuration" : 2038,
                          "scalar" : 1,
                          "metadata" : {
                            "AutoAppliedSmartFocus" : "False",
                            "clipSpeedAttribute" : false
                          },
                          "animationTracks" : {

                          }
                        },
                        {
                          "id" : 333,
                          "_type" : "ScreenIMFile",
                          "src" : 1,
                          "trackNumber" : 0,
                          "trimStartSum" : 0,
                          "attributes" : {
                            "ident" : "token_hijacking_attack"
                          },
                          "parameters" : {
                            "cursorOpacity" : 0.0,
                            "cursorScale" : 0.0
                          },
                          "effects" : [

                          ],
                          "start" : 2671,
                          "duration" : 30,
                          "mediaStart" : 2491,
                          "mediaDuration" : 1,
                          "scalar" : 1,
                          "metadata" : {
                            "AutoAppliedSmartFocus" : "False"
                          },
                          "animationTracks" : {

                          }
                        },
                        {
                          "id" : 334,
                          "_type" : "ScreenVMFile",
                          "src" : 1,
                          "trackNumber" : 0,
                          "attributes" : {
                            "ident" : "token_hijacking_attack"
                          },
                          "parameters" : {
                            "cursorScale" : {
                              "type" : "double",
                              "defaultValue" : 0.0,
                              "interp" : "linr"
                            },
                            "cursorOpacity" : {
                              "type" : "double",
                              "defaultValue" : 0.0,
                              "interp" : "linr"
                            }
                          },
                          "effects" : [

                          ],
                          "start" : 2701,
                          "duration" : 386,
                          "mediaStart" : 2491,
                          "mediaDuration" : 386,
                          "scalar" : 1,
                          "metadata" : {
                            "AutoAppliedSmartFocus" : "False",
                            "clipSpeedAttribute" : false
                          },
                          "animationTracks" : {

                          }
                        },
                        {
                          "id" : 335,
                          "_type" : "ScreenIMFile",
                          "src" : 1,
                          "trackNumber" : 0,
                          "trimStartSum" : 0,
                          "attributes" : {
                            "ident" : "token_hijacking_attack"
                          },
                          "parameters" : {
                            "cursorOpacity" : 0.0,
                            "cursorScale" : 0.0
                          },
                          "effects" : [

                          ],
                          "start" : 3087,
                          "duration" : 30,
                          "mediaStart" : 2877,
                          "mediaDuration" : 1,
                          "scalar" : 1,
                          "metadata" : {
                            "AutoAppliedSmartFocus" : "False"
                          },
                          "animationTracks" : {

                          }
                        },
                        {
                          "id" : 336,
                          "_type" : "ScreenVMFile",
                          "src" : 1,
                          "trackNumber" : 0,
                          "attributes" : {
                            "ident" : "token_hijacking_attack"
                          },
                          "parameters" : {
                            "cursorScale" : {
                              "type" : "double",
                              "defaultValue" : 0.0,
                              "interp" : "linr"
                            },
                            "cursorOpacity" : {
                              "type" : "double",
                              "defaultValue" : 0.0,
                              "interp" : "linr"
                            }
                          },
                          "effects" : [

                          ],
                          "start" : 3117,
                          "duration" : 81,
                          "mediaStart" : 2877,
                          "mediaDuration" : 81,
                          "scalar" : 1,
                          "metadata" : {
                            "AutoAppliedSmartFocus" : "False",
                            "clipSpeedAttribute" : false
                          },
                          "animationTracks" : {

                          }
                        },
                        {
                          "id" : 337,
                          "_type" : "ScreenIMFile",
                          "src" : 1,
                          "trackNumber" : 0,
                          "trimStartSum" : 0,
                          "attributes" : {
                            "ident" : "token_hijacking_attack"
                          },
                          "parameters" : {
                            "cursorOpacity" : 0.0,
                            "cursorScale" : 0.0
                          },
                          "effects" : [

                          ],
                          "start" : 3198,
                          "duration" : 90,
                          "mediaStart" : 2958,
                          "mediaDuration" : 1,
                          "scalar" : 1,
                          "metadata" : {
                            "AutoAppliedSmartFocus" : "False"
                          },
                          "animationTracks" : {

                          }
                        },
                        {
                          "id" : 338,
                          "_type" : "ScreenVMFile",
                          "src" : 1,
                          "trackNumber" : 0,
                          "attributes" : {
                            "ident" : "token_hijacking_attack"
                          },
                          "parameters" : {
                            "cursorScale" : {
                              "type" : "double",
                              "defaultValue" : 0.0,
                              "interp" : "linr"
                            },
                            "cursorOpacity" : {
                              "type" : "double",
                              "defaultValue" : 0.0,
                              "interp" : "linr"
                            }
                          },
                          "effects" : [

                          ],
                          "start" : 3288,
                          "duration" : 137,
                          "mediaStart" : 2958,
                          "mediaDuration" : 137,
                          "scalar" : 1,
                          "metadata" : {
                            "AutoAppliedSmartFocus" : "False",
                            "clipSpeedAttribute" : false
                          },
                          "animationTracks" : {

                          }
                        },
                        {
                          "id" : 339,
                          "_type" : "ScreenIMFile",
                          "src" : 1,
                          "trackNumber" : 0,
                          "trimStartSum" : 0,
                          "attributes" : {
                            "ident" : "token_hijacking_attack"
                          },
                          "parameters" : {
                            "cursorOpacity" : 0.0,
                            "cursorScale" : 0.0
                          },
                          "effects" : [

                          ],
                          "start" : 3425,
                          "duration" : 240,
                          "mediaStart" : 3095,
                          "mediaDuration" : 1,
                          "scalar" : 1,
                          "metadata" : {
                            "AutoAppliedSmartFocus" : "False"
                          },
                          "animationTracks" : {

                          }
                        },
                        {
                          "id" : 340,
                          "_type" : "ScreenVMFile",
                          "src" : 1,
                          "trackNumber" : 0,
                          "attributes" : {
                            "ident" : "token_hijacking_attack"
                          },
                          "parameters" : {
                            "cursorScale" : {
                              "type" : "double",
                              "defaultValue" : 0.0,
                              "interp" : "linr"
                            },
                            "cursorOpacity" : {
                              "type" : "double",
                              "defaultValue" : 0.0,
                              "interp" : "linr"
                            }
                          },
                          "effects" : [

                          ],
                          "start" : 3665,
                          "duration" : 1572344,
                          "mediaStart" : 3095,
                          "mediaDuration" : 1572344,
                          "scalar" : 1,
                          "metadata" : {
                            "AutoAppliedSmartFocus" : "False",
                            "clipSpeedAttribute" : false
                          },
                          "animationTracks" : {

                          }
                        }
                    ],
                    "effects" : [
                        {
                          "effectName" : "CursorHilight",
                          "category" : "categoryCursorEffects",
                          "parameters" : {
                            "blur" : 0.1,
                            "color-alpha" : 0.75,
                            "color-blue" : 0.0,
                            "color-green" : 1.0,
                            "color-red" : 1.0,
                            "radius" : 50.0
                          }
                        }
                    ],
                    "start" : 2264,
                    "duration" : 109,
                    "mediaStart" : 3499,
                    "mediaDuration" : 109,
                    "scalar" : 1,
                    "metadata" : {
                      "AutoAppliedSmartFocus" : "False",
                      "clipSpeedAttribute" : false,
                      "default-scale0" : 3.64944959861083,
                      "default-scale1" : 3.64945246947206,
                      "default-translation0" : 3001.53110047847,
                      "default-translation1" : -78.4510884965061
                    },
                    "animationTracks" : {
                      "visual" : [
                        {
                          "endTime" : 237,
                          "duration" : 30,
                          "range" : [ 207, 30]
                        },
                        {
                          "endTime" : 343,
                          "duration" : 30,
                          "range" : [ 313, 30]
                        },
                        {
                          "endTime" : 466,
                          "duration" : 30,
                          "range" : [ 436, 30]
                        },
                        {
                          "endTime" : 632,
                          "duration" : 30,
                          "range" : [ 602, 30]
                        },
                        {
                          "endTime" : 751,
                          "duration" : 30,
                          "range" : [ 721, 30]
                        },
                        {
                          "endTime" : 785,
                          "duration" : 30,
                          "range" : [ 755, 30]
                        },
                        {
                          "endTime" : 814,
                          "duration" : 29,
                          "range" : [ 785, 29]
                        },
                        {
                          "endTime" : 1068,
                          "duration" : 26,
                          "range" : [ 1042, 26]
                        },
                        {
                          "endTime" : 2220,
                          "duration" : 30,
                          "range" : [ 2190, 30]
                        },
                        {
                          "endTime" : 2510,
                          "duration" : 30,
                          "range" : [ 2480, 30]
                        },
                        {
                          "endTime" : 2735,
                          "duration" : 41,
                          "range" : [ 2694, 41]
                        },
                        {
                          "endTime" : 2785,
                          "duration" : 46,
                          "range" : [ 2739, 46]
                        },
                        {
                          "endTime" : 3108,
                          "duration" : 38,
                          "range" : [ 3070, 38]
                        },
                        {
                          "endTime" : 3142,
                          "duration" : 34,
                          "range" : [ 3108, 34]
                        },
                        {
                          "endTime" : 3285,
                          "duration" : 42,
                          "range" : [ 3243, 42]
                        },
                        {
                          "endTime" : 3343,
                          "duration" : 25,
                          "range" : [ 3318, 25]
                        },
                        {
                          "endTime" : 3563,
                          "duration" : 50,
                          "range" : [ 3513, 50]
                        }
                      ]
                    }
                  },
                  {
                    "id" : 341,
                    "_type" : "StitchedMedia",
                    "minMediaStart" : 0,
                    "attributes" : {
                      "ident" : "token_hijacking_attack",
                      "gain" : 1.0,
                      "mixToMono" : false
                    },
                    "parameters" : {
                      "translation0" : {
                        "type" : "double",
                        "defaultValue" : 0.0,
                        "keyframes" : [
                          {
                            "endTime" : 237,
                            "time" : 207,
                            "value" : 6437.05178264923,
                            "duration" : 30
                          },
                          {
                            "endTime" : 343,
                            "time" : 313,
                            "value" : -4.54747350886464e-13,
                            "duration" : 30
                          },
                          {
                            "endTime" : 466,
                            "time" : 436,
                            "value" : 2471.77226095314,
                            "duration" : 30
                          },
                          {
                            "endTime" : 632,
                            "time" : 602,
                            "value" : -1.13686837721616e-13,
                            "duration" : 30
                          },
                          {
                            "endTime" : 751,
                            "time" : 721,
                            "value" : 1777.12723840605,
                            "duration" : 30
                          },
                          {
                            "endTime" : 785,
                            "time" : 755,
                            "value" : -1.13686837721616e-13,
                            "duration" : 30
                          },
                          {
                            "endTime" : 814,
                            "time" : 785,
                            "value" : 946.879645880833,
                            "duration" : 29
                          },
                          {
                            "endTime" : 1068,
                            "time" : 1042,
                            "value" : 1613.60702526176,
                            "duration" : 26
                          },
                          {
                            "endTime" : 2220,
                            "time" : 2190,
                            "value" : -1.13686837721616e-13,
                            "duration" : 30
                          },
                          {
                            "endTime" : 2510,
                            "time" : 2480,
                            "value" : -84.4290398276389,
                            "duration" : 30
                          },
                          {
                            "endTime" : 2735,
                            "time" : 2694,
                            "value" : 1.95399252334028e-13,
                            "duration" : 41
                          },
                          {
                            "endTime" : 2785,
                            "time" : 2739,
                            "value" : 2604.19860601506,
                            "duration" : 46
                          },
                          {
                            "endTime" : 3108,
                            "time" : 3070,
                            "value" : 1.13686837721616e-13,
                            "duration" : 38
                          },
                          {
                            "endTime" : 3142,
                            "time" : 3108,
                            "value" : -285.318743883762,
                            "duration" : 34
                          },
                          {
                            "endTime" : 3285,
                            "time" : 3243,
                            "value" : 4.12114786740858e-13,
                            "duration" : 42
                          },
                          {
                            "endTime" : 3350,
                            "time" : 3319,
                            "value" : 3001.53110047847,
                            "duration" : 31
                          },
                          {
                            "endTime" : 3563,
                            "time" : 3513,
                            "value" : 3.41060513164848e-13,
                            "duration" : 50
                          }
                        ]
                      },
                      "translation1" : {
                        "type" : "double",
                        "defaultValue" : 0.0,
                        "keyframes" : [
                          {
                            "endTime" : 237,
                            "time" : 207,
                            "value" : -2825.0524936412,
                            "duration" : 30
                          },
                          {
                            "endTime" : 343,
                            "time" : 313,
                            "value" : 5.6843418860808e-14,
                            "duration" : 30
                          },
                          {
                            "endTime" : 466,
                            "time" : 436,
                            "value" : -1235.61824899191,
                            "duration" : 30
                          },
                          {
                            "endTime" : 632,
                            "time" : 602,
                            "value" : 1.13686837721616e-13,
                            "duration" : 30
                          },
                          {
                            "endTime" : 751,
                            "time" : 721,
                            "value" : -129.822625517978,
                            "duration" : 30
                          },
                          {
                            "endTime" : 785,
                            "time" : 755,
                            "value" : -2.1316282072803e-14,
                            "duration" : 30
                          },
                          {
                            "endTime" : 814,
                            "time" : 785,
                            "value" : -532.6,
                            "duration" : 29
                          },
                          {
                            "endTime" : 1068,
                            "time" : 1042,
                            "value" : -277.235424203718,
                            "duration" : 26
                          },
                          {
                            "endTime" : 2220,
                            "time" : 2190,
                            "value" : -5.6843418860808e-14,
                            "duration" : 30
                          },
                          {
                            "endTime" : 2510,
                            "time" : 2480,
                            "value" : -902.332175055167,
                            "duration" : 30
                          },
                          {
                            "endTime" : 2735,
                            "time" : 2694,
                            "value" : -5.6843418860808e-14,
                            "duration" : 41
                          },
                          {
                            "endTime" : 2785,
                            "time" : 2739,
                            "value" : -1.81070686530249,
                            "duration" : 46
                          },
                          {
                            "endTime" : 3108,
                            "time" : 3070,
                            "value" : 7.21644966006352e-15,
                            "duration" : 38
                          },
                          {
                            "endTime" : 3142,
                            "time" : 3108,
                            "value" : 5.66375460301182,
                            "duration" : 34
                          },
                          {
                            "endTime" : 3285,
                            "time" : 3243,
                            "value" : -7.68274333040608e-14,
                            "duration" : 42
                          },
                          {
                            "endTime" : 3350,
                            "time" : 3319,
                            "value" : -78.4510884965061,
                            "duration" : 31
                          },
                          {
                            "endTime" : 3563,
                            "time" : 3513,
                            "value" : 1.3855583347322e-13,
                            "duration" : 50
                          }
                        ]
                      },
                      "scale0" : {
                        "type" : "double",
                        "defaultValue" : 1.0,
                        "keyframes" : [
                          {
                            "endTime" : 237,
                            "time" : 207,
                            "value" : 6.52631522480847,
                            "duration" : 30
                          },
                          {
                            "endTime" : 343,
                            "time" : 313,
                            "value" : 0.999999999999999,
                            "duration" : 30
                          },
                          {
                            "endTime" : 466,
                            "time" : 436,
                            "value" : 3.172876137306,
                            "duration" : 30
                          },
                          {
                            "endTime" : 632,
                            "time" : 602,
                            "value" : 0.99999964401807,
                            "duration" : 30
                          },
                          {
                            "endTime" : 751,
                            "time" : 721,
                            "value" : 2.83915303535992,
                            "duration" : 30
                          },
                          {
                            "endTime" : 785,
                            "time" : 755,
                            "value" : 0.999999512129719,
                            "duration" : 30
                          },
                          {
                            "endTime" : 814,
                            "time" : 785,
                            "value" : 1.90952759462014,
                            "duration" : 29
                          },
                          {
                            "endTime" : 1068,
                            "time" : 1042,
                            "value" : 2.48123987298737,
                            "duration" : 26
                          },
                          {
                            "endTime" : 2220,
                            "time" : 2190,
                            "value" : 0.999999424015319,
                            "duration" : 30
                          },
                          {
                            "endTime" : 2510,
                            "time" : 2480,
                            "value" : 2.92108215027906,
                            "duration" : 30
                          },
                          {
                            "endTime" : 2735,
                            "time" : 2694,
                            "value" : 0.99999942229767,
                            "duration" : 41
                          },
                          {
                            "endTime" : 2785,
                            "time" : 2739,
                            "value" : 3.3212236194273,
                            "duration" : 46
                          },
                          {
                            "endTime" : 3108,
                            "time" : 3070,
                            "value" : 0.999999284332318,
                            "duration" : 38
                          },
                          {
                            "endTime" : 3142,
                            "time" : 3108,
                            "value" : 2.37965690489919,
                            "duration" : 34
                          },
                          {
                            "endTime" : 3285,
                            "time" : 3243,
                            "value" : 0.999999052009054,
                            "duration" : 42
                          },
                          {
                            "endTime" : 3350,
                            "time" : 3319,
                            "value" : 3.64944959861083,
                            "duration" : 31
                          },
                          {
                            "endTime" : 3563,
                            "time" : 3513,
                            "value" : 0.999999213344672,
                            "duration" : 50
                          }
                        ]
                      },
                      "scale1" : {
                        "type" : "double",
                        "defaultValue" : 1.0,
                        "keyframes" : [
                          {
                            "endTime" : 237,
                            "time" : 207,
                            "value" : 6.52631500328686,
                            "duration" : 30
                          },
                          {
                            "endTime" : 343,
                            "time" : 313,
                            "value" : 0.999999966057169,
                            "duration" : 30
                          },
                          {
                            "endTime" : 466,
                            "time" : 436,
                            "value" : 3.17287726679297,
                            "duration" : 30
                          },
                          {
                            "endTime" : 632,
                            "time" : 602,
                            "value" : 1.0,
                            "duration" : 30
                          },
                          {
                            "endTime" : 751,
                            "time" : 721,
                            "value" : 2.83915442049899,
                            "duration" : 30
                          },
                          {
                            "endTime" : 785,
                            "time" : 755,
                            "value" : 1.0,
                            "duration" : 30
                          },
                          {
                            "endTime" : 814,
                            "time" : 785,
                            "value" : 1.9095287965103,
                            "duration" : 29
                          },
                          {
                            "endTime" : 1068,
                            "time" : 1042,
                            "value" : 2.48124130214435,
                            "duration" : 26
                          },
                          {
                            "endTime" : 2220,
                            "time" : 2190,
                            "value" : 1.0,
                            "duration" : 30
                          },
                          {
                            "endTime" : 2510,
                            "time" : 2480,
                            "value" : 2.921083837796,
                            "duration" : 30
                          },
                          {
                            "endTime" : 2735,
                            "time" : 2694,
                            "value" : 1.0,
                            "duration" : 41
                          },
                          {
                            "endTime" : 2785,
                            "time" : 2739,
                            "value" : 3.32122599632141,
                            "duration" : 46
                          },
                          {
                            "endTime" : 3108,
                            "time" : 3070,
                            "value" : 1.0,
                            "duration" : 38
                          },
                          {
                            "endTime" : 3142,
                            "time" : 3108,
                            "value" : 2.37965916079453,
                            "duration" : 34
                          },
                          {
                            "endTime" : 3285,
                            "time" : 3243,
                            "value" : 1.0,
                            "duration" : 42
                          },
                          {
                            "endTime" : 3350,
                            "time" : 3319,
                            "value" : 3.64945246947206,
                            "duration" : 31
                          },
                          {
                            "endTime" : 3563,
                            "time" : 3513,
                            "value" : 0.999999999999999,
                            "duration" : 50
                          }
                        ]
                      },
                      "cursorOpacity" : 1.0,
                      "cursorScale" : 1.0
                    },
                    "medias" : [
                        {
                          "id" : 342,
                          "_type" : "ScreenVMFile",
                          "src" : 1,
                          "trackNumber" : 0,
                          "attributes" : {
                            "ident" : "token_hijacking_attack"
                          },
                          "parameters" : {
                            "cursorScale" : {
                              "type" : "double",
                              "defaultValue" : 0.0,
                              "interp" : "linr"
                            },
                            "cursorOpacity" : {
                              "type" : "double",
                              "defaultValue" : 0.0,
                              "interp" : "linr"
                            }
                          },
                          "effects" : [

                          ],
                          "start" : 0,
                          "duration" : 208,
                          "mediaStart" : 0,
                          "mediaDuration" : 208,
                          "scalar" : 1,
                          "metadata" : {
                            "AutoAppliedSmartFocus" : "False",
                            "clipSpeedAttribute" : false
                          },
                          "animationTracks" : {

                          }
                        },
                        {
                          "id" : 343,
                          "_type" : "ScreenIMFile",
                          "src" : 1,
                          "trackNumber" : 0,
                          "trimStartSum" : 0,
                          "attributes" : {
                            "ident" : "token_hijacking_attack"
                          },
                          "parameters" : {
                            "cursorOpacity" : 0.0,
                            "cursorScale" : 0.0
                          },
                          "effects" : [

                          ],
                          "start" : 208,
                          "duration" : 90,
                          "mediaStart" : 207,
                          "mediaDuration" : 1,
                          "scalar" : 1,
                          "metadata" : {
                            "AutoAppliedSmartFocus" : "False"
                          },
                          "animationTracks" : {

                          }
                        },
                        {
                          "id" : 344,
                          "_type" : "ScreenVMFile",
                          "src" : 1,
                          "trackNumber" : 0,
                          "attributes" : {
                            "ident" : "token_hijacking_attack"
                          },
                          "parameters" : {
                            "cursorScale" : {
                              "type" : "double",
                              "defaultValue" : 0.0,
                              "interp" : "linr"
                            },
                            "cursorOpacity" : {
                              "type" : "double",
                              "defaultValue" : 0.0,
                              "interp" : "linr"
                            }
                          },
                          "effects" : [

                          ],
                          "start" : 298,
                          "duration" : 140,
                          "mediaStart" : 208,
                          "mediaDuration" : 140,
                          "scalar" : 1,
                          "metadata" : {
                            "AutoAppliedSmartFocus" : "False",
                            "clipSpeedAttribute" : false
                          },
                          "animationTracks" : {

                          }
                        },
                        {
                          "id" : 345,
                          "_type" : "ScreenIMFile",
                          "src" : 1,
                          "trackNumber" : 0,
                          "trimStartSum" : 0,
                          "attributes" : {
                            "ident" : "token_hijacking_attack"
                          },
                          "parameters" : {
                            "cursorOpacity" : 0.0,
                            "cursorScale" : 0.0
                          },
                          "effects" : [

                          ],
                          "start" : 438,
                          "duration" : 30,
                          "mediaStart" : 348,
                          "mediaDuration" : 1,
                          "scalar" : 1,
                          "metadata" : {
                            "AutoAppliedSmartFocus" : "False"
                          },
                          "animationTracks" : {

                          }
                        },
                        {
                          "id" : 346,
                          "_type" : "ScreenVMFile",
                          "src" : 1,
                          "trackNumber" : 0,
                          "attributes" : {
                            "ident" : "token_hijacking_attack"
                          },
                          "parameters" : {
                            "cursorScale" : {
                              "type" : "double",
                              "defaultValue" : 0.0,
                              "interp" : "linr"
                            },
                            "cursorOpacity" : {
                              "type" : "double",
                              "defaultValue" : 0.0,
                              "interp" : "linr"
                            }
                          },
                          "effects" : [

                          ],
                          "start" : 468,
                          "duration" : 105,
                          "mediaStart" : 348,
                          "mediaDuration" : 105,
                          "scalar" : 1,
                          "metadata" : {
                            "AutoAppliedSmartFocus" : "False",
                            "clipSpeedAttribute" : false
                          },
                          "animationTracks" : {

                          }
                        },
                        {
                          "id" : 347,
                          "_type" : "ScreenIMFile",
                          "src" : 1,
                          "trackNumber" : 0,
                          "trimStartSum" : 0,
                          "attributes" : {
                            "ident" : "token_hijacking_attack"
                          },
                          "parameters" : {
                            "cursorOpacity" : 0.0,
                            "cursorScale" : 0.0
                          },
                          "effects" : [

                          ],
                          "start" : 573,
                          "duration" : 60,
                          "mediaStart" : 453,
                          "mediaDuration" : 1,
                          "scalar" : 1,
                          "metadata" : {
                            "AutoAppliedSmartFocus" : "False"
                          },
                          "animationTracks" : {

                          }
                        },
                        {
                          "id" : 348,
                          "_type" : "ScreenVMFile",
                          "src" : 1,
                          "trackNumber" : 0,
                          "attributes" : {
                            "ident" : "token_hijacking_attack"
                          },
                          "parameters" : {
                            "cursorScale" : {
                              "type" : "double",
                              "defaultValue" : 0.0,
                              "interp" : "linr"
                            },
                            "cursorOpacity" : {
                              "type" : "double",
                              "defaultValue" : 0.0,
                              "interp" : "linr"
                            }
                          },
                          "effects" : [

                          ],
                          "start" : 633,
                          "duration" : 2038,
                          "mediaStart" : 453,
                          "mediaDuration" : 2038,
                          "scalar" : 1,
                          "metadata" : {
                            "AutoAppliedSmartFocus" : "False",
                            "clipSpeedAttribute" : false
                          },
                          "animationTracks" : {

                          }
                        },
                        {
                          "id" : 349,
                          "_type" : "ScreenIMFile",
                          "src" : 1,
                          "trackNumber" : 0,
                          "trimStartSum" : 0,
                          "attributes" : {
                            "ident" : "token_hijacking_attack"
                          },
                          "parameters" : {
                            "cursorOpacity" : 0.0,
                            "cursorScale" : 0.0
                          },
                          "effects" : [

                          ],
                          "start" : 2671,
                          "duration" : 30,
                          "mediaStart" : 2491,
                          "mediaDuration" : 1,
                          "scalar" : 1,
                          "metadata" : {
                            "AutoAppliedSmartFocus" : "False"
                          },
                          "animationTracks" : {

                          }
                        },
                        {
                          "id" : 350,
                          "_type" : "ScreenVMFile",
                          "src" : 1,
                          "trackNumber" : 0,
                          "attributes" : {
                            "ident" : "token_hijacking_attack"
                          },
                          "parameters" : {
                            "cursorScale" : {
                              "type" : "double",
                              "defaultValue" : 0.0,
                              "interp" : "linr"
                            },
                            "cursorOpacity" : {
                              "type" : "double",
                              "defaultValue" : 0.0,
                              "interp" : "linr"
                            }
                          },
                          "effects" : [

                          ],
                          "start" : 2701,
                          "duration" : 386,
                          "mediaStart" : 2491,
                          "mediaDuration" : 386,
                          "scalar" : 1,
                          "metadata" : {
                            "AutoAppliedSmartFocus" : "False",
                            "clipSpeedAttribute" : false
                          },
                          "animationTracks" : {

                          }
                        },
                        {
                          "id" : 351,
                          "_type" : "ScreenIMFile",
                          "src" : 1,
                          "trackNumber" : 0,
                          "trimStartSum" : 0,
                          "attributes" : {
                            "ident" : "token_hijacking_attack"
                          },
                          "parameters" : {
                            "cursorOpacity" : 0.0,
                            "cursorScale" : 0.0
                          },
                          "effects" : [

                          ],
                          "start" : 3087,
                          "duration" : 30,
                          "mediaStart" : 2877,
                          "mediaDuration" : 1,
                          "scalar" : 1,
                          "metadata" : {
                            "AutoAppliedSmartFocus" : "False"
                          },
                          "animationTracks" : {

                          }
                        },
                        {
                          "id" : 352,
                          "_type" : "ScreenVMFile",
                          "src" : 1,
                          "trackNumber" : 0,
                          "attributes" : {
                            "ident" : "token_hijacking_attack"
                          },
                          "parameters" : {
                            "cursorScale" : {
                              "type" : "double",
                              "defaultValue" : 0.0,
                              "interp" : "linr"
                            },
                            "cursorOpacity" : {
                              "type" : "double",
                              "defaultValue" : 0.0,
                              "interp" : "linr"
                            }
                          },
                          "effects" : [

                          ],
                          "start" : 3117,
                          "duration" : 81,
                          "mediaStart" : 2877,
                          "mediaDuration" : 81,
                          "scalar" : 1,
                          "metadata" : {
                            "AutoAppliedSmartFocus" : "False",
                            "clipSpeedAttribute" : false
                          },
                          "animationTracks" : {

                          }
                        },
                        {
                          "id" : 353,
                          "_type" : "ScreenIMFile",
                          "src" : 1,
                          "trackNumber" : 0,
                          "trimStartSum" : 0,
                          "attributes" : {
                            "ident" : "token_hijacking_attack"
                          },
                          "parameters" : {
                            "cursorOpacity" : 0.0,
                            "cursorScale" : 0.0
                          },
                          "effects" : [

                          ],
                          "start" : 3198,
                          "duration" : 90,
                          "mediaStart" : 2958,
                          "mediaDuration" : 1,
                          "scalar" : 1,
                          "metadata" : {
                            "AutoAppliedSmartFocus" : "False"
                          },
                          "animationTracks" : {

                          }
                        },
                        {
                          "id" : 354,
                          "_type" : "ScreenVMFile",
                          "src" : 1,
                          "trackNumber" : 0,
                          "attributes" : {
                            "ident" : "token_hijacking_attack"
                          },
                          "parameters" : {
                            "cursorScale" : {
                              "type" : "double",
                              "defaultValue" : 0.0,
                              "interp" : "linr"
                            },
                            "cursorOpacity" : {
                              "type" : "double",
                              "defaultValue" : 0.0,
                              "interp" : "linr"
                            }
                          },
                          "effects" : [

                          ],
                          "start" : 3288,
                          "duration" : 137,
                          "mediaStart" : 2958,
                          "mediaDuration" : 137,
                          "scalar" : 1,
                          "metadata" : {
                            "AutoAppliedSmartFocus" : "False",
                            "clipSpeedAttribute" : false
                          },
                          "animationTracks" : {

                          }
                        },
                        {
                          "id" : 355,
                          "_type" : "ScreenIMFile",
                          "src" : 1,
                          "trackNumber" : 0,
                          "trimStartSum" : 0,
                          "attributes" : {
                            "ident" : "token_hijacking_attack"
                          },
                          "parameters" : {
                            "cursorOpacity" : 0.0,
                            "cursorScale" : 0.0
                          },
                          "effects" : [

                          ],
                          "start" : 3425,
                          "duration" : 240,
                          "mediaStart" : 3095,
                          "mediaDuration" : 1,
                          "scalar" : 1,
                          "metadata" : {
                            "AutoAppliedSmartFocus" : "False"
                          },
                          "animationTracks" : {

                          }
                        },
                        {
                          "id" : 356,
                          "_type" : "ScreenVMFile",
                          "src" : 1,
                          "trackNumber" : 0,
                          "attributes" : {
                            "ident" : "token_hijacking_attack"
                          },
                          "parameters" : {
                            "cursorScale" : {
                              "type" : "double",
                              "defaultValue" : 0.0,
                              "interp" : "linr"
                            },
                            "cursorOpacity" : {
                              "type" : "double",
                              "defaultValue" : 0.0,
                              "interp" : "linr"
                            }
                          },
                          "effects" : [

                          ],
                          "start" : 3665,
                          "duration" : 1572344,
                          "mediaStart" : 3095,
                          "mediaDuration" : 1572344,
                          "scalar" : 1,
                          "metadata" : {
                            "AutoAppliedSmartFocus" : "False",
                            "clipSpeedAttribute" : false
                          },
                          "animationTracks" : {

                          }
                        }
                    ],
                    "effects" : [
                        {
                          "effectName" : "CursorHilight",
                          "category" : "categoryCursorEffects",
                          "parameters" : {
                            "blur" : 0.1,
                            "color-alpha" : 0.75,
                            "color-blue" : 0.0,
                            "color-green" : 1.0,
                            "color-red" : 1.0,
                            "radius" : 50.0
                          }
                        }
                    ],
                    "start" : 2373,
                    "duration" : 130,
                    "mediaStart" : 3661,
                    "mediaDuration" : 130,
                    "scalar" : 1,
                    "metadata" : {
                      "AutoAppliedSmartFocus" : "False",
                      "clipSpeedAttribute" : false,
                      "default-scale0" : 3.64944959861083,
                      "default-scale1" : 3.64945246947206,
                      "default-translation0" : 3001.53110047847,
                      "default-translation1" : -78.4510884965061
                    },
                    "animationTracks" : {
                      "visual" : [
                        {
                          "endTime" : 237,
                          "duration" : 30,
                          "range" : [ 207, 30]
                        },
                        {
                          "endTime" : 343,
                          "duration" : 30,
                          "range" : [ 313, 30]
                        },
                        {
                          "endTime" : 466,
                          "duration" : 30,
                          "range" : [ 436, 30]
                        },
                        {
                          "endTime" : 632,
                          "duration" : 30,
                          "range" : [ 602, 30]
                        },
                        {
                          "endTime" : 751,
                          "duration" : 30,
                          "range" : [ 721, 30]
                        },
                        {
                          "endTime" : 785,
                          "duration" : 30,
                          "range" : [ 755, 30]
                        },
                        {
                          "endTime" : 814,
                          "duration" : 29,
                          "range" : [ 785, 29]
                        },
                        {
                          "endTime" : 1068,
                          "duration" : 26,
                          "range" : [ 1042, 26]
                        },
                        {
                          "endTime" : 2220,
                          "duration" : 30,
                          "range" : [ 2190, 30]
                        },
                        {
                          "endTime" : 2510,
                          "duration" : 30,
                          "range" : [ 2480, 30]
                        },
                        {
                          "endTime" : 2735,
                          "duration" : 41,
                          "range" : [ 2694, 41]
                        },
                        {
                          "endTime" : 2785,
                          "duration" : 46,
                          "range" : [ 2739, 46]
                        },
                        {
                          "endTime" : 3108,
                          "duration" : 38,
                          "range" : [ 3070, 38]
                        },
                        {
                          "endTime" : 3142,
                          "duration" : 34,
                          "range" : [ 3108, 34]
                        },
                        {
                          "endTime" : 3285,
                          "duration" : 42,
                          "range" : [ 3243, 42]
                        },
                        {
                          "endTime" : 3350,
                          "duration" : 31,
                          "range" : [ 3319, 31]
                        },
                        {
                          "endTime" : 3563,
                          "duration" : 50,
                          "range" : [ 3513, 50]
                        }
                      ]
                    }
                  },
                  {
                    "id" : 357,
                    "_type" : "StitchedMedia",
                    "minMediaStart" : 0,
                    "attributes" : {
                      "ident" : "token_hijacking_attack",
                      "gain" : 1.0,
                      "mixToMono" : false
                    },
                    "parameters" : {
                      "translation0" : {
                        "type" : "double",
                        "defaultValue" : 0.0,
                        "keyframes" : [
                          {
                            "endTime" : 237,
                            "time" : 207,
                            "value" : 6437.05178264923,
                            "duration" : 30
                          },
                          {
                            "endTime" : 343,
                            "time" : 313,
                            "value" : -4.54747350886464e-13,
                            "duration" : 30
                          },
                          {
                            "endTime" : 466,
                            "time" : 436,
                            "value" : 2471.77226095314,
                            "duration" : 30
                          },
                          {
                            "endTime" : 632,
                            "time" : 602,
                            "value" : -1.13686837721616e-13,
                            "duration" : 30
                          },
                          {
                            "endTime" : 751,
                            "time" : 721,
                            "value" : 1777.12723840605,
                            "duration" : 30
                          },
                          {
                            "endTime" : 785,
                            "time" : 755,
                            "value" : -1.13686837721616e-13,
                            "duration" : 30
                          },
                          {
                            "endTime" : 814,
                            "time" : 785,
                            "value" : 946.879645880833,
                            "duration" : 29
                          },
                          {
                            "endTime" : 1068,
                            "time" : 1042,
                            "value" : 1613.60702526176,
                            "duration" : 26
                          },
                          {
                            "endTime" : 2220,
                            "time" : 2190,
                            "value" : -1.13686837721616e-13,
                            "duration" : 30
                          },
                          {
                            "endTime" : 2510,
                            "time" : 2480,
                            "value" : -84.4290398276389,
                            "duration" : 30
                          },
                          {
                            "endTime" : 2735,
                            "time" : 2694,
                            "value" : 1.95399252334028e-13,
                            "duration" : 41
                          },
                          {
                            "endTime" : 2785,
                            "time" : 2739,
                            "value" : 2604.19860601506,
                            "duration" : 46
                          },
                          {
                            "endTime" : 3108,
                            "time" : 3070,
                            "value" : 1.13686837721616e-13,
                            "duration" : 38
                          },
                          {
                            "endTime" : 3142,
                            "time" : 3108,
                            "value" : -285.318743883762,
                            "duration" : 34
                          },
                          {
                            "endTime" : 3285,
                            "time" : 3243,
                            "value" : 4.12114786740858e-13,
                            "duration" : 42
                          },
                          {
                            "endTime" : 3350,
                            "time" : 3319,
                            "value" : 3001.53110047847,
                            "duration" : 31
                          },
                          {
                            "endTime" : 3563,
                            "time" : 3513,
                            "value" : 3.41060513164848e-13,
                            "duration" : 50
                          }
                        ]
                      },
                      "translation1" : {
                        "type" : "double",
                        "defaultValue" : 0.0,
                        "keyframes" : [
                          {
                            "endTime" : 237,
                            "time" : 207,
                            "value" : -2825.0524936412,
                            "duration" : 30
                          },
                          {
                            "endTime" : 343,
                            "time" : 313,
                            "value" : 5.6843418860808e-14,
                            "duration" : 30
                          },
                          {
                            "endTime" : 466,
                            "time" : 436,
                            "value" : -1235.61824899191,
                            "duration" : 30
                          },
                          {
                            "endTime" : 632,
                            "time" : 602,
                            "value" : 1.13686837721616e-13,
                            "duration" : 30
                          },
                          {
                            "endTime" : 751,
                            "time" : 721,
                            "value" : -129.822625517978,
                            "duration" : 30
                          },
                          {
                            "endTime" : 785,
                            "time" : 755,
                            "value" : -2.1316282072803e-14,
                            "duration" : 30
                          },
                          {
                            "endTime" : 814,
                            "time" : 785,
                            "value" : -532.6,
                            "duration" : 29
                          },
                          {
                            "endTime" : 1068,
                            "time" : 1042,
                            "value" : -277.235424203718,
                            "duration" : 26
                          },
                          {
                            "endTime" : 2220,
                            "time" : 2190,
                            "value" : -5.6843418860808e-14,
                            "duration" : 30
                          },
                          {
                            "endTime" : 2510,
                            "time" : 2480,
                            "value" : -902.332175055167,
                            "duration" : 30
                          },
                          {
                            "endTime" : 2735,
                            "time" : 2694,
                            "value" : -5.6843418860808e-14,
                            "duration" : 41
                          },
                          {
                            "endTime" : 2785,
                            "time" : 2739,
                            "value" : -1.81070686530249,
                            "duration" : 46
                          },
                          {
                            "endTime" : 3108,
                            "time" : 3070,
                            "value" : 7.21644966006352e-15,
                            "duration" : 38
                          },
                          {
                            "endTime" : 3142,
                            "time" : 3108,
                            "value" : 5.66375460301182,
                            "duration" : 34
                          },
                          {
                            "endTime" : 3285,
                            "time" : 3243,
                            "value" : -7.68274333040608e-14,
                            "duration" : 42
                          },
                          {
                            "endTime" : 3350,
                            "time" : 3319,
                            "value" : -78.4510884965061,
                            "duration" : 31
                          },
                          {
                            "endTime" : 3563,
                            "time" : 3513,
                            "value" : 1.3855583347322e-13,
                            "duration" : 50
                          }
                        ]
                      },
                      "scale0" : {
                        "type" : "double",
                        "defaultValue" : 1.0,
                        "keyframes" : [
                          {
                            "endTime" : 237,
                            "time" : 207,
                            "value" : 6.52631522480847,
                            "duration" : 30
                          },
                          {
                            "endTime" : 343,
                            "time" : 313,
                            "value" : 0.999999999999999,
                            "duration" : 30
                          },
                          {
                            "endTime" : 466,
                            "time" : 436,
                            "value" : 3.172876137306,
                            "duration" : 30
                          },
                          {
                            "endTime" : 632,
                            "time" : 602,
                            "value" : 0.99999964401807,
                            "duration" : 30
                          },
                          {
                            "endTime" : 751,
                            "time" : 721,
                            "value" : 2.83915303535992,
                            "duration" : 30
                          },
                          {
                            "endTime" : 785,
                            "time" : 755,
                            "value" : 0.999999512129719,
                            "duration" : 30
                          },
                          {
                            "endTime" : 814,
                            "time" : 785,
                            "value" : 1.90952759462014,
                            "duration" : 29
                          },
                          {
                            "endTime" : 1068,
                            "time" : 1042,
                            "value" : 2.48123987298737,
                            "duration" : 26
                          },
                          {
                            "endTime" : 2220,
                            "time" : 2190,
                            "value" : 0.999999424015319,
                            "duration" : 30
                          },
                          {
                            "endTime" : 2510,
                            "time" : 2480,
                            "value" : 2.92108215027906,
                            "duration" : 30
                          },
                          {
                            "endTime" : 2735,
                            "time" : 2694,
                            "value" : 0.99999942229767,
                            "duration" : 41
                          },
                          {
                            "endTime" : 2785,
                            "time" : 2739,
                            "value" : 3.3212236194273,
                            "duration" : 46
                          },
                          {
                            "endTime" : 3108,
                            "time" : 3070,
                            "value" : 0.999999284332318,
                            "duration" : 38
                          },
                          {
                            "endTime" : 3142,
                            "time" : 3108,
                            "value" : 2.37965690489919,
                            "duration" : 34
                          },
                          {
                            "endTime" : 3285,
                            "time" : 3243,
                            "value" : 0.999999052009054,
                            "duration" : 42
                          },
                          {
                            "endTime" : 3350,
                            "time" : 3319,
                            "value" : 3.64944959861083,
                            "duration" : 31
                          },
                          {
                            "endTime" : 3563,
                            "time" : 3513,
                            "value" : 0.999999213344672,
                            "duration" : 50
                          }
                        ]
                      },
                      "scale1" : {
                        "type" : "double",
                        "defaultValue" : 1.0,
                        "keyframes" : [
                          {
                            "endTime" : 237,
                            "time" : 207,
                            "value" : 6.52631500328686,
                            "duration" : 30
                          },
                          {
                            "endTime" : 343,
                            "time" : 313,
                            "value" : 0.999999966057169,
                            "duration" : 30
                          },
                          {
                            "endTime" : 466,
                            "time" : 436,
                            "value" : 3.17287726679297,
                            "duration" : 30
                          },
                          {
                            "endTime" : 632,
                            "time" : 602,
                            "value" : 1.0,
                            "duration" : 30
                          },
                          {
                            "endTime" : 751,
                            "time" : 721,
                            "value" : 2.83915442049899,
                            "duration" : 30
                          },
                          {
                            "endTime" : 785,
                            "time" : 755,
                            "value" : 1.0,
                            "duration" : 30
                          },
                          {
                            "endTime" : 814,
                            "time" : 785,
                            "value" : 1.9095287965103,
                            "duration" : 29
                          },
                          {
                            "endTime" : 1068,
                            "time" : 1042,
                            "value" : 2.48124130214435,
                            "duration" : 26
                          },
                          {
                            "endTime" : 2220,
                            "time" : 2190,
                            "value" : 1.0,
                            "duration" : 30
                          },
                          {
                            "endTime" : 2510,
                            "time" : 2480,
                            "value" : 2.921083837796,
                            "duration" : 30
                          },
                          {
                            "endTime" : 2735,
                            "time" : 2694,
                            "value" : 1.0,
                            "duration" : 41
                          },
                          {
                            "endTime" : 2785,
                            "time" : 2739,
                            "value" : 3.32122599632141,
                            "duration" : 46
                          },
                          {
                            "endTime" : 3108,
                            "time" : 3070,
                            "value" : 1.0,
                            "duration" : 38
                          },
                          {
                            "endTime" : 3142,
                            "time" : 3108,
                            "value" : 2.37965916079453,
                            "duration" : 34
                          },
                          {
                            "endTime" : 3285,
                            "time" : 3243,
                            "value" : 1.0,
                            "duration" : 42
                          },
                          {
                            "endTime" : 3350,
                            "time" : 3319,
                            "value" : 3.64945246947206,
                            "duration" : 31
                          },
                          {
                            "endTime" : 3563,
                            "time" : 3513,
                            "value" : 0.999999999999999,
                            "duration" : 50
                          }
                        ]
                      },
                      "cursorOpacity" : 1.0,
                      "cursorScale" : 1.0
                    },
                    "medias" : [
                        {
                          "id" : 358,
                          "_type" : "ScreenVMFile",
                          "src" : 1,
                          "trackNumber" : 0,
                          "attributes" : {
                            "ident" : "token_hijacking_attack"
                          },
                          "parameters" : {
                            "cursorScale" : {
                              "type" : "double",
                              "defaultValue" : 0.0,
                              "interp" : "linr"
                            },
                            "cursorOpacity" : {
                              "type" : "double",
                              "defaultValue" : 0.0,
                              "interp" : "linr"
                            }
                          },
                          "effects" : [

                          ],
                          "start" : 0,
                          "duration" : 208,
                          "mediaStart" : 0,
                          "mediaDuration" : 208,
                          "scalar" : 1,
                          "metadata" : {
                            "AutoAppliedSmartFocus" : "False",
                            "clipSpeedAttribute" : false
                          },
                          "animationTracks" : {

                          }
                        },
                        {
                          "id" : 359,
                          "_type" : "ScreenIMFile",
                          "src" : 1,
                          "trackNumber" : 0,
                          "trimStartSum" : 0,
                          "attributes" : {
                            "ident" : "token_hijacking_attack"
                          },
                          "parameters" : {
                            "cursorOpacity" : 0.0,
                            "cursorScale" : 0.0
                          },
                          "effects" : [

                          ],
                          "start" : 208,
                          "duration" : 90,
                          "mediaStart" : 207,
                          "mediaDuration" : 1,
                          "scalar" : 1,
                          "metadata" : {
                            "AutoAppliedSmartFocus" : "False"
                          },
                          "animationTracks" : {

                          }
                        },
                        {
                          "id" : 360,
                          "_type" : "ScreenVMFile",
                          "src" : 1,
                          "trackNumber" : 0,
                          "attributes" : {
                            "ident" : "token_hijacking_attack"
                          },
                          "parameters" : {
                            "cursorScale" : {
                              "type" : "double",
                              "defaultValue" : 0.0,
                              "interp" : "linr"
                            },
                            "cursorOpacity" : {
                              "type" : "double",
                              "defaultValue" : 0.0,
                              "interp" : "linr"
                            }
                          },
                          "effects" : [

                          ],
                          "start" : 298,
                          "duration" : 140,
                          "mediaStart" : 208,
                          "mediaDuration" : 140,
                          "scalar" : 1,
                          "metadata" : {
                            "AutoAppliedSmartFocus" : "False",
                            "clipSpeedAttribute" : false
                          },
                          "animationTracks" : {

                          }
                        },
                        {
                          "id" : 361,
                          "_type" : "ScreenIMFile",
                          "src" : 1,
                          "trackNumber" : 0,
                          "trimStartSum" : 0,
                          "attributes" : {
                            "ident" : "token_hijacking_attack"
                          },
                          "parameters" : {
                            "cursorOpacity" : 0.0,
                            "cursorScale" : 0.0
                          },
                          "effects" : [

                          ],
                          "start" : 438,
                          "duration" : 30,
                          "mediaStart" : 348,
                          "mediaDuration" : 1,
                          "scalar" : 1,
                          "metadata" : {
                            "AutoAppliedSmartFocus" : "False"
                          },
                          "animationTracks" : {

                          }
                        },
                        {
                          "id" : 362,
                          "_type" : "ScreenVMFile",
                          "src" : 1,
                          "trackNumber" : 0,
                          "attributes" : {
                            "ident" : "token_hijacking_attack"
                          },
                          "parameters" : {
                            "cursorScale" : {
                              "type" : "double",
                              "defaultValue" : 0.0,
                              "interp" : "linr"
                            },
                            "cursorOpacity" : {
                              "type" : "double",
                              "defaultValue" : 0.0,
                              "interp" : "linr"
                            }
                          },
                          "effects" : [

                          ],
                          "start" : 468,
                          "duration" : 105,
                          "mediaStart" : 348,
                          "mediaDuration" : 105,
                          "scalar" : 1,
                          "metadata" : {
                            "AutoAppliedSmartFocus" : "False",
                            "clipSpeedAttribute" : false
                          },
                          "animationTracks" : {

                          }
                        },
                        {
                          "id" : 363,
                          "_type" : "ScreenIMFile",
                          "src" : 1,
                          "trackNumber" : 0,
                          "trimStartSum" : 0,
                          "attributes" : {
                            "ident" : "token_hijacking_attack"
                          },
                          "parameters" : {
                            "cursorOpacity" : 0.0,
                            "cursorScale" : 0.0
                          },
                          "effects" : [

                          ],
                          "start" : 573,
                          "duration" : 60,
                          "mediaStart" : 453,
                          "mediaDuration" : 1,
                          "scalar" : 1,
                          "metadata" : {
                            "AutoAppliedSmartFocus" : "False"
                          },
                          "animationTracks" : {

                          }
                        },
                        {
                          "id" : 364,
                          "_type" : "ScreenVMFile",
                          "src" : 1,
                          "trackNumber" : 0,
                          "attributes" : {
                            "ident" : "token_hijacking_attack"
                          },
                          "parameters" : {
                            "cursorScale" : {
                              "type" : "double",
                              "defaultValue" : 0.0,
                              "interp" : "linr"
                            },
                            "cursorOpacity" : {
                              "type" : "double",
                              "defaultValue" : 0.0,
                              "interp" : "linr"
                            }
                          },
                          "effects" : [

                          ],
                          "start" : 633,
                          "duration" : 2038,
                          "mediaStart" : 453,
                          "mediaDuration" : 2038,
                          "scalar" : 1,
                          "metadata" : {
                            "AutoAppliedSmartFocus" : "False",
                            "clipSpeedAttribute" : false
                          },
                          "animationTracks" : {

                          }
                        },
                        {
                          "id" : 365,
                          "_type" : "ScreenIMFile",
                          "src" : 1,
                          "trackNumber" : 0,
                          "trimStartSum" : 0,
                          "attributes" : {
                            "ident" : "token_hijacking_attack"
                          },
                          "parameters" : {
                            "cursorOpacity" : 0.0,
                            "cursorScale" : 0.0
                          },
                          "effects" : [

                          ],
                          "start" : 2671,
                          "duration" : 30,
                          "mediaStart" : 2491,
                          "mediaDuration" : 1,
                          "scalar" : 1,
                          "metadata" : {
                            "AutoAppliedSmartFocus" : "False"
                          },
                          "animationTracks" : {

                          }
                        },
                        {
                          "id" : 366,
                          "_type" : "ScreenVMFile",
                          "src" : 1,
                          "trackNumber" : 0,
                          "attributes" : {
                            "ident" : "token_hijacking_attack"
                          },
                          "parameters" : {
                            "cursorScale" : {
                              "type" : "double",
                              "defaultValue" : 0.0,
                              "interp" : "linr"
                            },
                            "cursorOpacity" : {
                              "type" : "double",
                              "defaultValue" : 0.0,
                              "interp" : "linr"
                            }
                          },
                          "effects" : [

                          ],
                          "start" : 2701,
                          "duration" : 386,
                          "mediaStart" : 2491,
                          "mediaDuration" : 386,
                          "scalar" : 1,
                          "metadata" : {
                            "AutoAppliedSmartFocus" : "False",
                            "clipSpeedAttribute" : false
                          },
                          "animationTracks" : {

                          }
                        },
                        {
                          "id" : 367,
                          "_type" : "ScreenIMFile",
                          "src" : 1,
                          "trackNumber" : 0,
                          "trimStartSum" : 0,
                          "attributes" : {
                            "ident" : "token_hijacking_attack"
                          },
                          "parameters" : {
                            "cursorOpacity" : 0.0,
                            "cursorScale" : 0.0
                          },
                          "effects" : [

                          ],
                          "start" : 3087,
                          "duration" : 30,
                          "mediaStart" : 2877,
                          "mediaDuration" : 1,
                          "scalar" : 1,
                          "metadata" : {
                            "AutoAppliedSmartFocus" : "False"
                          },
                          "animationTracks" : {

                          }
                        },
                        {
                          "id" : 368,
                          "_type" : "ScreenVMFile",
                          "src" : 1,
                          "trackNumber" : 0,
                          "attributes" : {
                            "ident" : "token_hijacking_attack"
                          },
                          "parameters" : {
                            "cursorScale" : {
                              "type" : "double",
                              "defaultValue" : 0.0,
                              "interp" : "linr"
                            },
                            "cursorOpacity" : {
                              "type" : "double",
                              "defaultValue" : 0.0,
                              "interp" : "linr"
                            }
                          },
                          "effects" : [

                          ],
                          "start" : 3117,
                          "duration" : 81,
                          "mediaStart" : 2877,
                          "mediaDuration" : 81,
                          "scalar" : 1,
                          "metadata" : {
                            "AutoAppliedSmartFocus" : "False",
                            "clipSpeedAttribute" : false
                          },
                          "animationTracks" : {

                          }
                        },
                        {
                          "id" : 369,
                          "_type" : "ScreenIMFile",
                          "src" : 1,
                          "trackNumber" : 0,
                          "trimStartSum" : 0,
                          "attributes" : {
                            "ident" : "token_hijacking_attack"
                          },
                          "parameters" : {
                            "cursorOpacity" : 0.0,
                            "cursorScale" : 0.0
                          },
                          "effects" : [

                          ],
                          "start" : 3198,
                          "duration" : 90,
                          "mediaStart" : 2958,
                          "mediaDuration" : 1,
                          "scalar" : 1,
                          "metadata" : {
                            "AutoAppliedSmartFocus" : "False"
                          },
                          "animationTracks" : {

                          }
                        },
                        {
                          "id" : 370,
                          "_type" : "ScreenVMFile",
                          "src" : 1,
                          "trackNumber" : 0,
                          "attributes" : {
                            "ident" : "token_hijacking_attack"
                          },
                          "parameters" : {
                            "cursorScale" : {
                              "type" : "double",
                              "defaultValue" : 0.0,
                              "interp" : "linr"
                            },
                            "cursorOpacity" : {
                              "type" : "double",
                              "defaultValue" : 0.0,
                              "interp" : "linr"
                            }
                          },
                          "effects" : [

                          ],
                          "start" : 3288,
                          "duration" : 137,
                          "mediaStart" : 2958,
                          "mediaDuration" : 137,
                          "scalar" : 1,
                          "metadata" : {
                            "AutoAppliedSmartFocus" : "False",
                            "clipSpeedAttribute" : false
                          },
                          "animationTracks" : {

                          }
                        },
                        {
                          "id" : 371,
                          "_type" : "ScreenIMFile",
                          "src" : 1,
                          "trackNumber" : 0,
                          "trimStartSum" : 0,
                          "attributes" : {
                            "ident" : "token_hijacking_attack"
                          },
                          "parameters" : {
                            "cursorOpacity" : 0.0,
                            "cursorScale" : 0.0
                          },
                          "effects" : [

                          ],
                          "start" : 3425,
                          "duration" : 240,
                          "mediaStart" : 3095,
                          "mediaDuration" : 1,
                          "scalar" : 1,
                          "metadata" : {
                            "AutoAppliedSmartFocus" : "False"
                          },
                          "animationTracks" : {

                          }
                        },
                        {
                          "id" : 372,
                          "_type" : "ScreenVMFile",
                          "src" : 1,
                          "trackNumber" : 0,
                          "attributes" : {
                            "ident" : "token_hijacking_attack"
                          },
                          "parameters" : {
                            "cursorScale" : {
                              "type" : "double",
                              "defaultValue" : 0.0,
                              "interp" : "linr"
                            },
                            "cursorOpacity" : {
                              "type" : "double",
                              "defaultValue" : 0.0,
                              "interp" : "linr"
                            }
                          },
                          "effects" : [

                          ],
                          "start" : 3665,
                          "duration" : 1572344,
                          "mediaStart" : 3095,
                          "mediaDuration" : 1572344,
                          "scalar" : 1,
                          "metadata" : {
                            "AutoAppliedSmartFocus" : "False",
                            "clipSpeedAttribute" : false
                          },
                          "animationTracks" : {

                          }
                        }
                    ],
                    "effects" : [
                        {
                          "effectName" : "CursorHilight",
                          "category" : "categoryCursorEffects",
                          "parameters" : {
                            "blur" : 0.1,
                            "color-alpha" : 0.75,
                            "color-blue" : 0.0,
                            "color-green" : 1.0,
                            "color-red" : 1.0,
                            "radius" : 50.0
                          }
                        }
                    ],
                    "start" : 2503,
                    "duration" : 77,
                    "mediaStart" : 3791,
                    "mediaDuration" : 1124,
                    "scalar" : "77/1124",
                    "metadata" : {
                      "AutoAppliedSmartFocus" : "False",
                      "clipSpeedAttribute" : true,
                      "default-scale0" : 3.64944959861083,
                      "default-scale1" : 3.64945246947206,
                      "default-translation0" : 3001.53110047847,
                      "default-translation1" : -78.4510884965061
                    },
                    "animationTracks" : {
                      "visual" : [
                        {
                          "endTime" : 237,
                          "duration" : 30,
                          "range" : [ 207, 30]
                        },
                        {
                          "endTime" : 343,
                          "duration" : 30,
                          "range" : [ 313, 30]
                        },
                        {
                          "endTime" : 466,
                          "duration" : 30,
                          "range" : [ 436, 30]
                        },
                        {
                          "endTime" : 632,
                          "duration" : 30,
                          "range" : [ 602, 30]
                        },
                        {
                          "endTime" : 751,
                          "duration" : 30,
                          "range" : [ 721, 30]
                        },
                        {
                          "endTime" : 785,
                          "duration" : 30,
                          "range" : [ 755, 30]
                        },
                        {
                          "endTime" : 814,
                          "duration" : 29,
                          "range" : [ 785, 29]
                        },
                        {
                          "endTime" : 1068,
                          "duration" : 26,
                          "range" : [ 1042, 26]
                        },
                        {
                          "endTime" : 2220,
                          "duration" : 30,
                          "range" : [ 2190, 30]
                        },
                        {
                          "endTime" : 2510,
                          "duration" : 30,
                          "range" : [ 2480, 30]
                        },
                        {
                          "endTime" : 2735,
                          "duration" : 41,
                          "range" : [ 2694, 41]
                        },
                        {
                          "endTime" : 2785,
                          "duration" : 46,
                          "range" : [ 2739, 46]
                        },
                        {
                          "endTime" : 3108,
                          "duration" : 38,
                          "range" : [ 3070, 38]
                        },
                        {
                          "endTime" : 3142,
                          "duration" : 34,
                          "range" : [ 3108, 34]
                        },
                        {
                          "endTime" : 3285,
                          "duration" : 42,
                          "range" : [ 3243, 42]
                        },
                        {
                          "endTime" : 3350,
                          "duration" : 31,
                          "range" : [ 3319, 31]
                        },
                        {
                          "endTime" : 3563,
                          "duration" : 50,
                          "range" : [ 3513, 50]
                        }
                      ]
                    }
                  },
                  {
                    "id" : 373,
                    "_type" : "StitchedMedia",
                    "minMediaStart" : 0,
                    "attributes" : {
                      "ident" : "token_hijacking_attack",
                      "gain" : 1.0,
                      "mixToMono" : false
                    },
                    "parameters" : {
                      "translation0" : {
                        "type" : "double",
                        "defaultValue" : 0.0,
                        "keyframes" : [
                          {
                            "endTime" : 237,
                            "time" : 207,
                            "value" : 6437.05178264923,
                            "duration" : 30
                          },
                          {
                            "endTime" : 343,
                            "time" : 313,
                            "value" : -4.54747350886464e-13,
                            "duration" : 30
                          },
                          {
                            "endTime" : 466,
                            "time" : 436,
                            "value" : 2471.77226095314,
                            "duration" : 30
                          },
                          {
                            "endTime" : 632,
                            "time" : 602,
                            "value" : -1.13686837721616e-13,
                            "duration" : 30
                          },
                          {
                            "endTime" : 751,
                            "time" : 721,
                            "value" : 1777.12723840605,
                            "duration" : 30
                          },
                          {
                            "endTime" : 785,
                            "time" : 755,
                            "value" : -1.13686837721616e-13,
                            "duration" : 30
                          },
                          {
                            "endTime" : 814,
                            "time" : 785,
                            "value" : 946.879645880833,
                            "duration" : 29
                          },
                          {
                            "endTime" : 1068,
                            "time" : 1042,
                            "value" : 1613.60702526176,
                            "duration" : 26
                          },
                          {
                            "endTime" : 2220,
                            "time" : 2190,
                            "value" : -1.13686837721616e-13,
                            "duration" : 30
                          },
                          {
                            "endTime" : 2510,
                            "time" : 2480,
                            "value" : -84.4290398276389,
                            "duration" : 30
                          },
                          {
                            "endTime" : 2735,
                            "time" : 2694,
                            "value" : 1.95399252334028e-13,
                            "duration" : 41
                          },
                          {
                            "endTime" : 2785,
                            "time" : 2739,
                            "value" : 2604.19860601506,
                            "duration" : 46
                          },
                          {
                            "endTime" : 3108,
                            "time" : 3070,
                            "value" : 1.13686837721616e-13,
                            "duration" : 38
                          },
                          {
                            "endTime" : 3142,
                            "time" : 3108,
                            "value" : -285.318743883762,
                            "duration" : 34
                          },
                          {
                            "endTime" : 3285,
                            "time" : 3243,
                            "value" : 4.12114786740858e-13,
                            "duration" : 42
                          },
                          {
                            "endTime" : 3350,
                            "time" : 3319,
                            "value" : 3001.53110047847,
                            "duration" : 31
                          },
                          {
                            "endTime" : 3563,
                            "time" : 3513,
                            "value" : 3.41060513164848e-13,
                            "duration" : 50
                          }
                        ]
                      },
                      "translation1" : {
                        "type" : "double",
                        "defaultValue" : 0.0,
                        "keyframes" : [
                          {
                            "endTime" : 237,
                            "time" : 207,
                            "value" : -2825.0524936412,
                            "duration" : 30
                          },
                          {
                            "endTime" : 343,
                            "time" : 313,
                            "value" : 5.6843418860808e-14,
                            "duration" : 30
                          },
                          {
                            "endTime" : 466,
                            "time" : 436,
                            "value" : -1235.61824899191,
                            "duration" : 30
                          },
                          {
                            "endTime" : 632,
                            "time" : 602,
                            "value" : 1.13686837721616e-13,
                            "duration" : 30
                          },
                          {
                            "endTime" : 751,
                            "time" : 721,
                            "value" : -129.822625517978,
                            "duration" : 30
                          },
                          {
                            "endTime" : 785,
                            "time" : 755,
                            "value" : -2.1316282072803e-14,
                            "duration" : 30
                          },
                          {
                            "endTime" : 814,
                            "time" : 785,
                            "value" : -532.6,
                            "duration" : 29
                          },
                          {
                            "endTime" : 1068,
                            "time" : 1042,
                            "value" : -277.235424203718,
                            "duration" : 26
                          },
                          {
                            "endTime" : 2220,
                            "time" : 2190,
                            "value" : -5.6843418860808e-14,
                            "duration" : 30
                          },
                          {
                            "endTime" : 2510,
                            "time" : 2480,
                            "value" : -902.332175055167,
                            "duration" : 30
                          },
                          {
                            "endTime" : 2735,
                            "time" : 2694,
                            "value" : -5.6843418860808e-14,
                            "duration" : 41
                          },
                          {
                            "endTime" : 2785,
                            "time" : 2739,
                            "value" : -1.81070686530249,
                            "duration" : 46
                          },
                          {
                            "endTime" : 3108,
                            "time" : 3070,
                            "value" : 7.21644966006352e-15,
                            "duration" : 38
                          },
                          {
                            "endTime" : 3142,
                            "time" : 3108,
                            "value" : 5.66375460301182,
                            "duration" : 34
                          },
                          {
                            "endTime" : 3285,
                            "time" : 3243,
                            "value" : -7.68274333040608e-14,
                            "duration" : 42
                          },
                          {
                            "endTime" : 3350,
                            "time" : 3319,
                            "value" : -78.4510884965061,
                            "duration" : 31
                          },
                          {
                            "endTime" : 3563,
                            "time" : 3513,
                            "value" : 1.3855583347322e-13,
                            "duration" : 50
                          }
                        ]
                      },
                      "scale0" : {
                        "type" : "double",
                        "defaultValue" : 1.0,
                        "keyframes" : [
                          {
                            "endTime" : 237,
                            "time" : 207,
                            "value" : 6.52631522480847,
                            "duration" : 30
                          },
                          {
                            "endTime" : 343,
                            "time" : 313,
                            "value" : 0.999999999999999,
                            "duration" : 30
                          },
                          {
                            "endTime" : 466,
                            "time" : 436,
                            "value" : 3.172876137306,
                            "duration" : 30
                          },
                          {
                            "endTime" : 632,
                            "time" : 602,
                            "value" : 0.99999964401807,
                            "duration" : 30
                          },
                          {
                            "endTime" : 751,
                            "time" : 721,
                            "value" : 2.83915303535992,
                            "duration" : 30
                          },
                          {
                            "endTime" : 785,
                            "time" : 755,
                            "value" : 0.999999512129719,
                            "duration" : 30
                          },
                          {
                            "endTime" : 814,
                            "time" : 785,
                            "value" : 1.90952759462014,
                            "duration" : 29
                          },
                          {
                            "endTime" : 1068,
                            "time" : 1042,
                            "value" : 2.48123987298737,
                            "duration" : 26
                          },
                          {
                            "endTime" : 2220,
                            "time" : 2190,
                            "value" : 0.999999424015319,
                            "duration" : 30
                          },
                          {
                            "endTime" : 2510,
                            "time" : 2480,
                            "value" : 2.92108215027906,
                            "duration" : 30
                          },
                          {
                            "endTime" : 2735,
                            "time" : 2694,
                            "value" : 0.99999942229767,
                            "duration" : 41
                          },
                          {
                            "endTime" : 2785,
                            "time" : 2739,
                            "value" : 3.3212236194273,
                            "duration" : 46
                          },
                          {
                            "endTime" : 3108,
                            "time" : 3070,
                            "value" : 0.999999284332318,
                            "duration" : 38
                          },
                          {
                            "endTime" : 3142,
                            "time" : 3108,
                            "value" : 2.37965690489919,
                            "duration" : 34
                          },
                          {
                            "endTime" : 3285,
                            "time" : 3243,
                            "value" : 0.999999052009054,
                            "duration" : 42
                          },
                          {
                            "endTime" : 3350,
                            "time" : 3319,
                            "value" : 3.64944959861083,
                            "duration" : 31
                          },
                          {
                            "endTime" : 3563,
                            "time" : 3513,
                            "value" : 0.999999213344672,
                            "duration" : 50
                          }
                        ]
                      },
                      "scale1" : {
                        "type" : "double",
                        "defaultValue" : 1.0,
                        "keyframes" : [
                          {
                            "endTime" : 237,
                            "time" : 207,
                            "value" : 6.52631500328686,
                            "duration" : 30
                          },
                          {
                            "endTime" : 343,
                            "time" : 313,
                            "value" : 0.999999966057169,
                            "duration" : 30
                          },
                          {
                            "endTime" : 466,
                            "time" : 436,
                            "value" : 3.17287726679297,
                            "duration" : 30
                          },
                          {
                            "endTime" : 632,
                            "time" : 602,
                            "value" : 1.0,
                            "duration" : 30
                          },
                          {
                            "endTime" : 751,
                            "time" : 721,
                            "value" : 2.83915442049899,
                            "duration" : 30
                          },
                          {
                            "endTime" : 785,
                            "time" : 755,
                            "value" : 1.0,
                            "duration" : 30
                          },
                          {
                            "endTime" : 814,
                            "time" : 785,
                            "value" : 1.9095287965103,
                            "duration" : 29
                          },
                          {
                            "endTime" : 1068,
                            "time" : 1042,
                            "value" : 2.48124130214435,
                            "duration" : 26
                          },
                          {
                            "endTime" : 2220,
                            "time" : 2190,
                            "value" : 1.0,
                            "duration" : 30
                          },
                          {
                            "endTime" : 2510,
                            "time" : 2480,
                            "value" : 2.921083837796,
                            "duration" : 30
                          },
                          {
                            "endTime" : 2735,
                            "time" : 2694,
                            "value" : 1.0,
                            "duration" : 41
                          },
                          {
                            "endTime" : 2785,
                            "time" : 2739,
                            "value" : 3.32122599632141,
                            "duration" : 46
                          },
                          {
                            "endTime" : 3108,
                            "time" : 3070,
                            "value" : 1.0,
                            "duration" : 38
                          },
                          {
                            "endTime" : 3142,
                            "time" : 3108,
                            "value" : 2.37965916079453,
                            "duration" : 34
                          },
                          {
                            "endTime" : 3285,
                            "time" : 3243,
                            "value" : 1.0,
                            "duration" : 42
                          },
                          {
                            "endTime" : 3350,
                            "time" : 3319,
                            "value" : 3.64945246947206,
                            "duration" : 31
                          },
                          {
                            "endTime" : 3563,
                            "time" : 3513,
                            "value" : 0.999999999999999,
                            "duration" : 50
                          }
                        ]
                      },
                      "cursorOpacity" : 1.0,
                      "cursorScale" : 1.0
                    },
                    "medias" : [
                        {
                          "id" : 374,
                          "_type" : "ScreenVMFile",
                          "src" : 1,
                          "trackNumber" : 0,
                          "attributes" : {
                            "ident" : "token_hijacking_attack"
                          },
                          "parameters" : {
                            "cursorScale" : {
                              "type" : "double",
                              "defaultValue" : 0.0,
                              "interp" : "linr"
                            },
                            "cursorOpacity" : {
                              "type" : "double",
                              "defaultValue" : 0.0,
                              "interp" : "linr"
                            }
                          },
                          "effects" : [

                          ],
                          "start" : 0,
                          "duration" : 208,
                          "mediaStart" : 0,
                          "mediaDuration" : 208,
                          "scalar" : 1,
                          "metadata" : {
                            "AutoAppliedSmartFocus" : "False",
                            "clipSpeedAttribute" : false
                          },
                          "animationTracks" : {

                          }
                        },
                        {
                          "id" : 375,
                          "_type" : "ScreenIMFile",
                          "src" : 1,
                          "trackNumber" : 0,
                          "trimStartSum" : 0,
                          "attributes" : {
                            "ident" : "token_hijacking_attack"
                          },
                          "parameters" : {
                            "cursorOpacity" : 0.0,
                            "cursorScale" : 0.0
                          },
                          "effects" : [

                          ],
                          "start" : 208,
                          "duration" : 90,
                          "mediaStart" : 207,
                          "mediaDuration" : 1,
                          "scalar" : 1,
                          "metadata" : {
                            "AutoAppliedSmartFocus" : "False"
                          },
                          "animationTracks" : {

                          }
                        },
                        {
                          "id" : 376,
                          "_type" : "ScreenVMFile",
                          "src" : 1,
                          "trackNumber" : 0,
                          "attributes" : {
                            "ident" : "token_hijacking_attack"
                          },
                          "parameters" : {
                            "cursorScale" : {
                              "type" : "double",
                              "defaultValue" : 0.0,
                              "interp" : "linr"
                            },
                            "cursorOpacity" : {
                              "type" : "double",
                              "defaultValue" : 0.0,
                              "interp" : "linr"
                            }
                          },
                          "effects" : [

                          ],
                          "start" : 298,
                          "duration" : 140,
                          "mediaStart" : 208,
                          "mediaDuration" : 140,
                          "scalar" : 1,
                          "metadata" : {
                            "AutoAppliedSmartFocus" : "False",
                            "clipSpeedAttribute" : false
                          },
                          "animationTracks" : {

                          }
                        },
                        {
                          "id" : 377,
                          "_type" : "ScreenIMFile",
                          "src" : 1,
                          "trackNumber" : 0,
                          "trimStartSum" : 0,
                          "attributes" : {
                            "ident" : "token_hijacking_attack"
                          },
                          "parameters" : {
                            "cursorOpacity" : 0.0,
                            "cursorScale" : 0.0
                          },
                          "effects" : [

                          ],
                          "start" : 438,
                          "duration" : 30,
                          "mediaStart" : 348,
                          "mediaDuration" : 1,
                          "scalar" : 1,
                          "metadata" : {
                            "AutoAppliedSmartFocus" : "False"
                          },
                          "animationTracks" : {

                          }
                        },
                        {
                          "id" : 378,
                          "_type" : "ScreenVMFile",
                          "src" : 1,
                          "trackNumber" : 0,
                          "attributes" : {
                            "ident" : "token_hijacking_attack"
                          },
                          "parameters" : {
                            "cursorScale" : {
                              "type" : "double",
                              "defaultValue" : 0.0,
                              "interp" : "linr"
                            },
                            "cursorOpacity" : {
                              "type" : "double",
                              "defaultValue" : 0.0,
                              "interp" : "linr"
                            }
                          },
                          "effects" : [

                          ],
                          "start" : 468,
                          "duration" : 105,
                          "mediaStart" : 348,
                          "mediaDuration" : 105,
                          "scalar" : 1,
                          "metadata" : {
                            "AutoAppliedSmartFocus" : "False",
                            "clipSpeedAttribute" : false
                          },
                          "animationTracks" : {

                          }
                        },
                        {
                          "id" : 379,
                          "_type" : "ScreenIMFile",
                          "src" : 1,
                          "trackNumber" : 0,
                          "trimStartSum" : 0,
                          "attributes" : {
                            "ident" : "token_hijacking_attack"
                          },
                          "parameters" : {
                            "cursorOpacity" : 0.0,
                            "cursorScale" : 0.0
                          },
                          "effects" : [

                          ],
                          "start" : 573,
                          "duration" : 60,
                          "mediaStart" : 453,
                          "mediaDuration" : 1,
                          "scalar" : 1,
                          "metadata" : {
                            "AutoAppliedSmartFocus" : "False"
                          },
                          "animationTracks" : {

                          }
                        },
                        {
                          "id" : 380,
                          "_type" : "ScreenVMFile",
                          "src" : 1,
                          "trackNumber" : 0,
                          "attributes" : {
                            "ident" : "token_hijacking_attack"
                          },
                          "parameters" : {
                            "cursorScale" : {
                              "type" : "double",
                              "defaultValue" : 0.0,
                              "interp" : "linr"
                            },
                            "cursorOpacity" : {
                              "type" : "double",
                              "defaultValue" : 0.0,
                              "interp" : "linr"
                            }
                          },
                          "effects" : [

                          ],
                          "start" : 633,
                          "duration" : 2038,
                          "mediaStart" : 453,
                          "mediaDuration" : 2038,
                          "scalar" : 1,
                          "metadata" : {
                            "AutoAppliedSmartFocus" : "False",
                            "clipSpeedAttribute" : false
                          },
                          "animationTracks" : {

                          }
                        },
                        {
                          "id" : 381,
                          "_type" : "ScreenIMFile",
                          "src" : 1,
                          "trackNumber" : 0,
                          "trimStartSum" : 0,
                          "attributes" : {
                            "ident" : "token_hijacking_attack"
                          },
                          "parameters" : {
                            "cursorOpacity" : 0.0,
                            "cursorScale" : 0.0
                          },
                          "effects" : [

                          ],
                          "start" : 2671,
                          "duration" : 30,
                          "mediaStart" : 2491,
                          "mediaDuration" : 1,
                          "scalar" : 1,
                          "metadata" : {
                            "AutoAppliedSmartFocus" : "False"
                          },
                          "animationTracks" : {

                          }
                        },
                        {
                          "id" : 382,
                          "_type" : "ScreenVMFile",
                          "src" : 1,
                          "trackNumber" : 0,
                          "attributes" : {
                            "ident" : "token_hijacking_attack"
                          },
                          "parameters" : {
                            "cursorScale" : {
                              "type" : "double",
                              "defaultValue" : 0.0,
                              "interp" : "linr"
                            },
                            "cursorOpacity" : {
                              "type" : "double",
                              "defaultValue" : 0.0,
                              "interp" : "linr"
                            }
                          },
                          "effects" : [

                          ],
                          "start" : 2701,
                          "duration" : 386,
                          "mediaStart" : 2491,
                          "mediaDuration" : 386,
                          "scalar" : 1,
                          "metadata" : {
                            "AutoAppliedSmartFocus" : "False",
                            "clipSpeedAttribute" : false
                          },
                          "animationTracks" : {

                          }
                        },
                        {
                          "id" : 383,
                          "_type" : "ScreenIMFile",
                          "src" : 1,
                          "trackNumber" : 0,
                          "trimStartSum" : 0,
                          "attributes" : {
                            "ident" : "token_hijacking_attack"
                          },
                          "parameters" : {
                            "cursorOpacity" : 0.0,
                            "cursorScale" : 0.0
                          },
                          "effects" : [

                          ],
                          "start" : 3087,
                          "duration" : 30,
                          "mediaStart" : 2877,
                          "mediaDuration" : 1,
                          "scalar" : 1,
                          "metadata" : {
                            "AutoAppliedSmartFocus" : "False"
                          },
                          "animationTracks" : {

                          }
                        },
                        {
                          "id" : 384,
                          "_type" : "ScreenVMFile",
                          "src" : 1,
                          "trackNumber" : 0,
                          "attributes" : {
                            "ident" : "token_hijacking_attack"
                          },
                          "parameters" : {
                            "cursorScale" : {
                              "type" : "double",
                              "defaultValue" : 0.0,
                              "interp" : "linr"
                            },
                            "cursorOpacity" : {
                              "type" : "double",
                              "defaultValue" : 0.0,
                              "interp" : "linr"
                            }
                          },
                          "effects" : [

                          ],
                          "start" : 3117,
                          "duration" : 81,
                          "mediaStart" : 2877,
                          "mediaDuration" : 81,
                          "scalar" : 1,
                          "metadata" : {
                            "AutoAppliedSmartFocus" : "False",
                            "clipSpeedAttribute" : false
                          },
                          "animationTracks" : {

                          }
                        },
                        {
                          "id" : 385,
                          "_type" : "ScreenIMFile",
                          "src" : 1,
                          "trackNumber" : 0,
                          "trimStartSum" : 0,
                          "attributes" : {
                            "ident" : "token_hijacking_attack"
                          },
                          "parameters" : {
                            "cursorOpacity" : 0.0,
                            "cursorScale" : 0.0
                          },
                          "effects" : [

                          ],
                          "start" : 3198,
                          "duration" : 90,
                          "mediaStart" : 2958,
                          "mediaDuration" : 1,
                          "scalar" : 1,
                          "metadata" : {
                            "AutoAppliedSmartFocus" : "False"
                          },
                          "animationTracks" : {

                          }
                        },
                        {
                          "id" : 386,
                          "_type" : "ScreenVMFile",
                          "src" : 1,
                          "trackNumber" : 0,
                          "attributes" : {
                            "ident" : "token_hijacking_attack"
                          },
                          "parameters" : {
                            "cursorScale" : {
                              "type" : "double",
                              "defaultValue" : 0.0,
                              "interp" : "linr"
                            },
                            "cursorOpacity" : {
                              "type" : "double",
                              "defaultValue" : 0.0,
                              "interp" : "linr"
                            }
                          },
                          "effects" : [

                          ],
                          "start" : 3288,
                          "duration" : 137,
                          "mediaStart" : 2958,
                          "mediaDuration" : 137,
                          "scalar" : 1,
                          "metadata" : {
                            "AutoAppliedSmartFocus" : "False",
                            "clipSpeedAttribute" : false
                          },
                          "animationTracks" : {

                          }
                        },
                        {
                          "id" : 387,
                          "_type" : "ScreenIMFile",
                          "src" : 1,
                          "trackNumber" : 0,
                          "trimStartSum" : 0,
                          "attributes" : {
                            "ident" : "token_hijacking_attack"
                          },
                          "parameters" : {
                            "cursorOpacity" : 0.0,
                            "cursorScale" : 0.0
                          },
                          "effects" : [

                          ],
                          "start" : 3425,
                          "duration" : 240,
                          "mediaStart" : 3095,
                          "mediaDuration" : 1,
                          "scalar" : 1,
                          "metadata" : {
                            "AutoAppliedSmartFocus" : "False"
                          },
                          "animationTracks" : {

                          }
                        },
                        {
                          "id" : 388,
                          "_type" : "ScreenVMFile",
                          "src" : 1,
                          "trackNumber" : 0,
                          "attributes" : {
                            "ident" : "token_hijacking_attack"
                          },
                          "parameters" : {
                            "cursorScale" : {
                              "type" : "double",
                              "defaultValue" : 0.0,
                              "interp" : "linr"
                            },
                            "cursorOpacity" : {
                              "type" : "double",
                              "defaultValue" : 0.0,
                              "interp" : "linr"
                            }
                          },
                          "effects" : [

                          ],
                          "start" : 3665,
                          "duration" : 1447,
                          "mediaStart" : 3095,
                          "mediaDuration" : 1447,
                          "scalar" : 1,
                          "metadata" : {
                            "AutoAppliedSmartFocus" : "False",
                            "clipSpeedAttribute" : false
                          },
                          "animationTracks" : {

                          }
                        },
                        {
                          "id" : 389,
                          "_type" : "ScreenIMFile",
                          "src" : 1,
                          "trackNumber" : 0,
                          "trimStartSum" : 0,
                          "attributes" : {
                            "ident" : "token_hijacking_attack"
                          },
                          "parameters" : {
                            "cursorOpacity" : 0.0,
                            "cursorScale" : 0.0
                          },
                          "effects" : [

                          ],
                          "start" : 5112,
                          "duration" : 161,
                          "mediaStart" : 4542,
                          "mediaDuration" : 1,
                          "scalar" : 1,
                          "metadata" : {
                            "AutoAppliedSmartFocus" : "False"
                          },
                          "animationTracks" : {

                          }
                        },
                        {
                          "id" : 390,
                          "_type" : "ScreenVMFile",
                          "src" : 1,
                          "trackNumber" : 0,
                          "attributes" : {
                            "ident" : "token_hijacking_attack"
                          },
                          "parameters" : {
                            "cursorScale" : {
                              "type" : "double",
                              "defaultValue" : 0.0,
                              "interp" : "linr"
                            },
                            "cursorOpacity" : {
                              "type" : "double",
                              "defaultValue" : 0.0,
                              "interp" : "linr"
                            }
                          },
                          "effects" : [

                          ],
                          "start" : 5273,
                          "duration" : 1570897,
                          "mediaStart" : 4542,
                          "mediaDuration" : 1570897,
                          "scalar" : 1,
                          "metadata" : {
                            "AutoAppliedSmartFocus" : "False",
                            "clipSpeedAttribute" : false
                          },
                          "animationTracks" : {

                          }
                        }
                    ],
                    "effects" : [
                        {
                          "effectName" : "CursorHilight",
                          "category" : "categoryCursorEffects",
                          "parameters" : {
                            "blur" : 0.1,
                            "color-alpha" : 0.75,
                            "color-blue" : 0.0,
                            "color-green" : 1.0,
                            "color-red" : 1.0,
                            "radius" : 50.0
                          }
                        }
                    ],
                    "start" : 2580,
                    "duration" : 340,
                    "mediaStart" : 4915,
                    "mediaDuration" : 340,
                    "scalar" : 1,
                    "metadata" : {
                      "AutoAppliedSmartFocus" : "False",
                      "clipSpeedAttribute" : false
                    },
                    "animationTracks" : {
                      "visual" : [
                        {
                          "endTime" : 237,
                          "duration" : 30,
                          "range" : [ 207, 30]
                        },
                        {
                          "endTime" : 343,
                          "duration" : 30,
                          "range" : [ 313, 30]
                        },
                        {
                          "endTime" : 466,
                          "duration" : 30,
                          "range" : [ 436, 30]
                        },
                        {
                          "endTime" : 632,
                          "duration" : 30,
                          "range" : [ 602, 30]
                        },
                        {
                          "endTime" : 751,
                          "duration" : 30,
                          "range" : [ 721, 30]
                        },
                        {
                          "endTime" : 785,
                          "duration" : 30,
                          "range" : [ 755, 30]
                        },
                        {
                          "endTime" : 814,
                          "duration" : 29,
                          "range" : [ 785, 29]
                        },
                        {
                          "endTime" : 1068,
                          "duration" : 26,
                          "range" : [ 1042, 26]
                        },
                        {
                          "endTime" : 2220,
                          "duration" : 30,
                          "range" : [ 2190, 30]
                        },
                        {
                          "endTime" : 2510,
                          "duration" : 30,
                          "range" : [ 2480, 30]
                        },
                        {
                          "endTime" : 2735,
                          "duration" : 41,
                          "range" : [ 2694, 41]
                        },
                        {
                          "endTime" : 2785,
                          "duration" : 46,
                          "range" : [ 2739, 46]
                        },
                        {
                          "endTime" : 3108,
                          "duration" : 38,
                          "range" : [ 3070, 38]
                        },
                        {
                          "endTime" : 3142,
                          "duration" : 34,
                          "range" : [ 3108, 34]
                        },
                        {
                          "endTime" : 3285,
                          "duration" : 42,
                          "range" : [ 3243, 42]
                        },
                        {
                          "endTime" : 3350,
                          "duration" : 31,
                          "range" : [ 3319, 31]
                        },
                        {
                          "endTime" : 3563,
                          "duration" : 50,
                          "range" : [ 3513, 50]
                        }
                      ]
                    }
                  },
                  {
                    "id" : 391,
                    "_type" : "StitchedMedia",
                    "minMediaStart" : 0,
                    "attributes" : {
                      "ident" : "token_hijacking_attack",
                      "gain" : 1.0,
                      "mixToMono" : false
                    },
                    "parameters" : {
                      "translation0" : {
                        "type" : "double",
                        "defaultValue" : 0.0,
                        "keyframes" : [
                          {
                            "endTime" : 237,
                            "time" : 207,
                            "value" : 6437.05178264923,
                            "duration" : 30
                          },
                          {
                            "endTime" : 343,
                            "time" : 313,
                            "value" : -4.54747350886464e-13,
                            "duration" : 30
                          },
                          {
                            "endTime" : 466,
                            "time" : 436,
                            "value" : 2471.77226095314,
                            "duration" : 30
                          },
                          {
                            "endTime" : 632,
                            "time" : 602,
                            "value" : -1.13686837721616e-13,
                            "duration" : 30
                          },
                          {
                            "endTime" : 751,
                            "time" : 721,
                            "value" : 1777.12723840605,
                            "duration" : 30
                          },
                          {
                            "endTime" : 785,
                            "time" : 755,
                            "value" : -1.13686837721616e-13,
                            "duration" : 30
                          },
                          {
                            "endTime" : 814,
                            "time" : 785,
                            "value" : 946.879645880833,
                            "duration" : 29
                          },
                          {
                            "endTime" : 1068,
                            "time" : 1042,
                            "value" : 1613.60702526176,
                            "duration" : 26
                          },
                          {
                            "endTime" : 2220,
                            "time" : 2190,
                            "value" : -1.13686837721616e-13,
                            "duration" : 30
                          },
                          {
                            "endTime" : 2510,
                            "time" : 2480,
                            "value" : -84.4290398276389,
                            "duration" : 30
                          },
                          {
                            "endTime" : 2735,
                            "time" : 2694,
                            "value" : 1.95399252334028e-13,
                            "duration" : 41
                          },
                          {
                            "endTime" : 2785,
                            "time" : 2739,
                            "value" : 2604.19860601506,
                            "duration" : 46
                          },
                          {
                            "endTime" : 3108,
                            "time" : 3070,
                            "value" : 1.13686837721616e-13,
                            "duration" : 38
                          },
                          {
                            "endTime" : 3142,
                            "time" : 3108,
                            "value" : -285.318743883762,
                            "duration" : 34
                          },
                          {
                            "endTime" : 3285,
                            "time" : 3243,
                            "value" : 4.12114786740858e-13,
                            "duration" : 42
                          },
                          {
                            "endTime" : 3350,
                            "time" : 3319,
                            "value" : 3001.53110047847,
                            "duration" : 31
                          },
                          {
                            "endTime" : 3563,
                            "time" : 3513,
                            "value" : 3.41060513164848e-13,
                            "duration" : 50
                          }
                        ]
                      },
                      "translation1" : {
                        "type" : "double",
                        "defaultValue" : 0.0,
                        "keyframes" : [
                          {
                            "endTime" : 237,
                            "time" : 207,
                            "value" : -2825.0524936412,
                            "duration" : 30
                          },
                          {
                            "endTime" : 343,
                            "time" : 313,
                            "value" : 5.6843418860808e-14,
                            "duration" : 30
                          },
                          {
                            "endTime" : 466,
                            "time" : 436,
                            "value" : -1235.61824899191,
                            "duration" : 30
                          },
                          {
                            "endTime" : 632,
                            "time" : 602,
                            "value" : 1.13686837721616e-13,
                            "duration" : 30
                          },
                          {
                            "endTime" : 751,
                            "time" : 721,
                            "value" : -129.822625517978,
                            "duration" : 30
                          },
                          {
                            "endTime" : 785,
                            "time" : 755,
                            "value" : -2.1316282072803e-14,
                            "duration" : 30
                          },
                          {
                            "endTime" : 814,
                            "time" : 785,
                            "value" : -532.6,
                            "duration" : 29
                          },
                          {
                            "endTime" : 1068,
                            "time" : 1042,
                            "value" : -277.235424203718,
                            "duration" : 26
                          },
                          {
                            "endTime" : 2220,
                            "time" : 2190,
                            "value" : -5.6843418860808e-14,
                            "duration" : 30
                          },
                          {
                            "endTime" : 2510,
                            "time" : 2480,
                            "value" : -902.332175055167,
                            "duration" : 30
                          },
                          {
                            "endTime" : 2735,
                            "time" : 2694,
                            "value" : -5.6843418860808e-14,
                            "duration" : 41
                          },
                          {
                            "endTime" : 2785,
                            "time" : 2739,
                            "value" : -1.81070686530249,
                            "duration" : 46
                          },
                          {
                            "endTime" : 3108,
                            "time" : 3070,
                            "value" : 7.21644966006352e-15,
                            "duration" : 38
                          },
                          {
                            "endTime" : 3142,
                            "time" : 3108,
                            "value" : 5.66375460301182,
                            "duration" : 34
                          },
                          {
                            "endTime" : 3285,
                            "time" : 3243,
                            "value" : -7.68274333040608e-14,
                            "duration" : 42
                          },
                          {
                            "endTime" : 3350,
                            "time" : 3319,
                            "value" : -78.4510884965061,
                            "duration" : 31
                          },
                          {
                            "endTime" : 3563,
                            "time" : 3513,
                            "value" : 1.3855583347322e-13,
                            "duration" : 50
                          }
                        ]
                      },
                      "scale0" : {
                        "type" : "double",
                        "defaultValue" : 1.0,
                        "keyframes" : [
                          {
                            "endTime" : 237,
                            "time" : 207,
                            "value" : 6.52631522480847,
                            "duration" : 30
                          },
                          {
                            "endTime" : 343,
                            "time" : 313,
                            "value" : 0.999999999999999,
                            "duration" : 30
                          },
                          {
                            "endTime" : 466,
                            "time" : 436,
                            "value" : 3.172876137306,
                            "duration" : 30
                          },
                          {
                            "endTime" : 632,
                            "time" : 602,
                            "value" : 0.99999964401807,
                            "duration" : 30
                          },
                          {
                            "endTime" : 751,
                            "time" : 721,
                            "value" : 2.83915303535992,
                            "duration" : 30
                          },
                          {
                            "endTime" : 785,
                            "time" : 755,
                            "value" : 0.999999512129719,
                            "duration" : 30
                          },
                          {
                            "endTime" : 814,
                            "time" : 785,
                            "value" : 1.90952759462014,
                            "duration" : 29
                          },
                          {
                            "endTime" : 1068,
                            "time" : 1042,
                            "value" : 2.48123987298737,
                            "duration" : 26
                          },
                          {
                            "endTime" : 2220,
                            "time" : 2190,
                            "value" : 0.999999424015319,
                            "duration" : 30
                          },
                          {
                            "endTime" : 2510,
                            "time" : 2480,
                            "value" : 2.92108215027906,
                            "duration" : 30
                          },
                          {
                            "endTime" : 2735,
                            "time" : 2694,
                            "value" : 0.99999942229767,
                            "duration" : 41
                          },
                          {
                            "endTime" : 2785,
                            "time" : 2739,
                            "value" : 3.3212236194273,
                            "duration" : 46
                          },
                          {
                            "endTime" : 3108,
                            "time" : 3070,
                            "value" : 0.999999284332318,
                            "duration" : 38
                          },
                          {
                            "endTime" : 3142,
                            "time" : 3108,
                            "value" : 2.37965690489919,
                            "duration" : 34
                          },
                          {
                            "endTime" : 3285,
                            "time" : 3243,
                            "value" : 0.999999052009054,
                            "duration" : 42
                          },
                          {
                            "endTime" : 3350,
                            "time" : 3319,
                            "value" : 3.64944959861083,
                            "duration" : 31
                          },
                          {
                            "endTime" : 3563,
                            "time" : 3513,
                            "value" : 0.999999213344672,
                            "duration" : 50
                          }
                        ]
                      },
                      "scale1" : {
                        "type" : "double",
                        "defaultValue" : 1.0,
                        "keyframes" : [
                          {
                            "endTime" : 237,
                            "time" : 207,
                            "value" : 6.52631500328686,
                            "duration" : 30
                          },
                          {
                            "endTime" : 343,
                            "time" : 313,
                            "value" : 0.999999966057169,
                            "duration" : 30
                          },
                          {
                            "endTime" : 466,
                            "time" : 436,
                            "value" : 3.17287726679297,
                            "duration" : 30
                          },
                          {
                            "endTime" : 632,
                            "time" : 602,
                            "value" : 1.0,
                            "duration" : 30
                          },
                          {
                            "endTime" : 751,
                            "time" : 721,
                            "value" : 2.83915442049899,
                            "duration" : 30
                          },
                          {
                            "endTime" : 785,
                            "time" : 755,
                            "value" : 1.0,
                            "duration" : 30
                          },
                          {
                            "endTime" : 814,
                            "time" : 785,
                            "value" : 1.9095287965103,
                            "duration" : 29
                          },
                          {
                            "endTime" : 1068,
                            "time" : 1042,
                            "value" : 2.48124130214435,
                            "duration" : 26
                          },
                          {
                            "endTime" : 2220,
                            "time" : 2190,
                            "value" : 1.0,
                            "duration" : 30
                          },
                          {
                            "endTime" : 2510,
                            "time" : 2480,
                            "value" : 2.921083837796,
                            "duration" : 30
                          },
                          {
                            "endTime" : 2735,
                            "time" : 2694,
                            "value" : 1.0,
                            "duration" : 41
                          },
                          {
                            "endTime" : 2785,
                            "time" : 2739,
                            "value" : 3.32122599632141,
                            "duration" : 46
                          },
                          {
                            "endTime" : 3108,
                            "time" : 3070,
                            "value" : 1.0,
                            "duration" : 38
                          },
                          {
                            "endTime" : 3142,
                            "time" : 3108,
                            "value" : 2.37965916079453,
                            "duration" : 34
                          },
                          {
                            "endTime" : 3285,
                            "time" : 3243,
                            "value" : 1.0,
                            "duration" : 42
                          },
                          {
                            "endTime" : 3350,
                            "time" : 3319,
                            "value" : 3.64945246947206,
                            "duration" : 31
                          },
                          {
                            "endTime" : 3563,
                            "time" : 3513,
                            "value" : 0.999999999999999,
                            "duration" : 50
                          }
                        ]
                      },
                      "cursorOpacity" : 1.0,
                      "cursorScale" : 1.0
                    },
                    "medias" : [
                        {
                          "id" : 392,
                          "_type" : "ScreenVMFile",
                          "src" : 1,
                          "trackNumber" : 0,
                          "attributes" : {
                            "ident" : "token_hijacking_attack"
                          },
                          "parameters" : {
                            "cursorScale" : {
                              "type" : "double",
                              "defaultValue" : 0.0,
                              "interp" : "linr"
                            },
                            "cursorOpacity" : {
                              "type" : "double",
                              "defaultValue" : 0.0,
                              "interp" : "linr"
                            }
                          },
                          "effects" : [

                          ],
                          "start" : 0,
                          "duration" : 208,
                          "mediaStart" : 0,
                          "mediaDuration" : 208,
                          "scalar" : 1,
                          "metadata" : {
                            "AutoAppliedSmartFocus" : "False",
                            "clipSpeedAttribute" : false
                          },
                          "animationTracks" : {

                          }
                        },
                        {
                          "id" : 393,
                          "_type" : "ScreenIMFile",
                          "src" : 1,
                          "trackNumber" : 0,
                          "trimStartSum" : 0,
                          "attributes" : {
                            "ident" : "token_hijacking_attack"
                          },
                          "parameters" : {
                            "cursorOpacity" : 0.0,
                            "cursorScale" : 0.0
                          },
                          "effects" : [

                          ],
                          "start" : 208,
                          "duration" : 90,
                          "mediaStart" : 207,
                          "mediaDuration" : 1,
                          "scalar" : 1,
                          "metadata" : {
                            "AutoAppliedSmartFocus" : "False"
                          },
                          "animationTracks" : {

                          }
                        },
                        {
                          "id" : 394,
                          "_type" : "ScreenVMFile",
                          "src" : 1,
                          "trackNumber" : 0,
                          "attributes" : {
                            "ident" : "token_hijacking_attack"
                          },
                          "parameters" : {
                            "cursorScale" : {
                              "type" : "double",
                              "defaultValue" : 0.0,
                              "interp" : "linr"
                            },
                            "cursorOpacity" : {
                              "type" : "double",
                              "defaultValue" : 0.0,
                              "interp" : "linr"
                            }
                          },
                          "effects" : [

                          ],
                          "start" : 298,
                          "duration" : 140,
                          "mediaStart" : 208,
                          "mediaDuration" : 140,
                          "scalar" : 1,
                          "metadata" : {
                            "AutoAppliedSmartFocus" : "False",
                            "clipSpeedAttribute" : false
                          },
                          "animationTracks" : {

                          }
                        },
                        {
                          "id" : 395,
                          "_type" : "ScreenIMFile",
                          "src" : 1,
                          "trackNumber" : 0,
                          "trimStartSum" : 0,
                          "attributes" : {
                            "ident" : "token_hijacking_attack"
                          },
                          "parameters" : {
                            "cursorOpacity" : 0.0,
                            "cursorScale" : 0.0
                          },
                          "effects" : [

                          ],
                          "start" : 438,
                          "duration" : 30,
                          "mediaStart" : 348,
                          "mediaDuration" : 1,
                          "scalar" : 1,
                          "metadata" : {
                            "AutoAppliedSmartFocus" : "False"
                          },
                          "animationTracks" : {

                          }
                        },
                        {
                          "id" : 396,
                          "_type" : "ScreenVMFile",
                          "src" : 1,
                          "trackNumber" : 0,
                          "attributes" : {
                            "ident" : "token_hijacking_attack"
                          },
                          "parameters" : {
                            "cursorScale" : {
                              "type" : "double",
                              "defaultValue" : 0.0,
                              "interp" : "linr"
                            },
                            "cursorOpacity" : {
                              "type" : "double",
                              "defaultValue" : 0.0,
                              "interp" : "linr"
                            }
                          },
                          "effects" : [

                          ],
                          "start" : 468,
                          "duration" : 105,
                          "mediaStart" : 348,
                          "mediaDuration" : 105,
                          "scalar" : 1,
                          "metadata" : {
                            "AutoAppliedSmartFocus" : "False",
                            "clipSpeedAttribute" : false
                          },
                          "animationTracks" : {

                          }
                        },
                        {
                          "id" : 397,
                          "_type" : "ScreenIMFile",
                          "src" : 1,
                          "trackNumber" : 0,
                          "trimStartSum" : 0,
                          "attributes" : {
                            "ident" : "token_hijacking_attack"
                          },
                          "parameters" : {
                            "cursorOpacity" : 0.0,
                            "cursorScale" : 0.0
                          },
                          "effects" : [

                          ],
                          "start" : 573,
                          "duration" : 60,
                          "mediaStart" : 453,
                          "mediaDuration" : 1,
                          "scalar" : 1,
                          "metadata" : {
                            "AutoAppliedSmartFocus" : "False"
                          },
                          "animationTracks" : {

                          }
                        },
                        {
                          "id" : 398,
                          "_type" : "ScreenVMFile",
                          "src" : 1,
                          "trackNumber" : 0,
                          "attributes" : {
                            "ident" : "token_hijacking_attack"
                          },
                          "parameters" : {
                            "cursorScale" : {
                              "type" : "double",
                              "defaultValue" : 0.0,
                              "interp" : "linr"
                            },
                            "cursorOpacity" : {
                              "type" : "double",
                              "defaultValue" : 0.0,
                              "interp" : "linr"
                            }
                          },
                          "effects" : [

                          ],
                          "start" : 633,
                          "duration" : 2038,
                          "mediaStart" : 453,
                          "mediaDuration" : 2038,
                          "scalar" : 1,
                          "metadata" : {
                            "AutoAppliedSmartFocus" : "False",
                            "clipSpeedAttribute" : false
                          },
                          "animationTracks" : {

                          }
                        },
                        {
                          "id" : 399,
                          "_type" : "ScreenIMFile",
                          "src" : 1,
                          "trackNumber" : 0,
                          "trimStartSum" : 0,
                          "attributes" : {
                            "ident" : "token_hijacking_attack"
                          },
                          "parameters" : {
                            "cursorOpacity" : 0.0,
                            "cursorScale" : 0.0
                          },
                          "effects" : [

                          ],
                          "start" : 2671,
                          "duration" : 30,
                          "mediaStart" : 2491,
                          "mediaDuration" : 1,
                          "scalar" : 1,
                          "metadata" : {
                            "AutoAppliedSmartFocus" : "False"
                          },
                          "animationTracks" : {

                          }
                        },
                        {
                          "id" : 400,
                          "_type" : "ScreenVMFile",
                          "src" : 1,
                          "trackNumber" : 0,
                          "attributes" : {
                            "ident" : "token_hijacking_attack"
                          },
                          "parameters" : {
                            "cursorScale" : {
                              "type" : "double",
                              "defaultValue" : 0.0,
                              "interp" : "linr"
                            },
                            "cursorOpacity" : {
                              "type" : "double",
                              "defaultValue" : 0.0,
                              "interp" : "linr"
                            }
                          },
                          "effects" : [

                          ],
                          "start" : 2701,
                          "duration" : 386,
                          "mediaStart" : 2491,
                          "mediaDuration" : 386,
                          "scalar" : 1,
                          "metadata" : {
                            "AutoAppliedSmartFocus" : "False",
                            "clipSpeedAttribute" : false
                          },
                          "animationTracks" : {

                          }
                        },
                        {
                          "id" : 401,
                          "_type" : "ScreenIMFile",
                          "src" : 1,
                          "trackNumber" : 0,
                          "trimStartSum" : 0,
                          "attributes" : {
                            "ident" : "token_hijacking_attack"
                          },
                          "parameters" : {
                            "cursorOpacity" : 0.0,
                            "cursorScale" : 0.0
                          },
                          "effects" : [

                          ],
                          "start" : 3087,
                          "duration" : 30,
                          "mediaStart" : 2877,
                          "mediaDuration" : 1,
                          "scalar" : 1,
                          "metadata" : {
                            "AutoAppliedSmartFocus" : "False"
                          },
                          "animationTracks" : {

                          }
                        },
                        {
                          "id" : 402,
                          "_type" : "ScreenVMFile",
                          "src" : 1,
                          "trackNumber" : 0,
                          "attributes" : {
                            "ident" : "token_hijacking_attack"
                          },
                          "parameters" : {
                            "cursorScale" : {
                              "type" : "double",
                              "defaultValue" : 0.0,
                              "interp" : "linr"
                            },
                            "cursorOpacity" : {
                              "type" : "double",
                              "defaultValue" : 0.0,
                              "interp" : "linr"
                            }
                          },
                          "effects" : [

                          ],
                          "start" : 3117,
                          "duration" : 81,
                          "mediaStart" : 2877,
                          "mediaDuration" : 81,
                          "scalar" : 1,
                          "metadata" : {
                            "AutoAppliedSmartFocus" : "False",
                            "clipSpeedAttribute" : false
                          },
                          "animationTracks" : {

                          }
                        },
                        {
                          "id" : 403,
                          "_type" : "ScreenIMFile",
                          "src" : 1,
                          "trackNumber" : 0,
                          "trimStartSum" : 0,
                          "attributes" : {
                            "ident" : "token_hijacking_attack"
                          },
                          "parameters" : {
                            "cursorOpacity" : 0.0,
                            "cursorScale" : 0.0
                          },
                          "effects" : [

                          ],
                          "start" : 3198,
                          "duration" : 90,
                          "mediaStart" : 2958,
                          "mediaDuration" : 1,
                          "scalar" : 1,
                          "metadata" : {
                            "AutoAppliedSmartFocus" : "False"
                          },
                          "animationTracks" : {

                          }
                        },
                        {
                          "id" : 404,
                          "_type" : "ScreenVMFile",
                          "src" : 1,
                          "trackNumber" : 0,
                          "attributes" : {
                            "ident" : "token_hijacking_attack"
                          },
                          "parameters" : {
                            "cursorScale" : {
                              "type" : "double",
                              "defaultValue" : 0.0,
                              "interp" : "linr"
                            },
                            "cursorOpacity" : {
                              "type" : "double",
                              "defaultValue" : 0.0,
                              "interp" : "linr"
                            }
                          },
                          "effects" : [

                          ],
                          "start" : 3288,
                          "duration" : 137,
                          "mediaStart" : 2958,
                          "mediaDuration" : 137,
                          "scalar" : 1,
                          "metadata" : {
                            "AutoAppliedSmartFocus" : "False",
                            "clipSpeedAttribute" : false
                          },
                          "animationTracks" : {

                          }
                        },
                        {
                          "id" : 405,
                          "_type" : "ScreenIMFile",
                          "src" : 1,
                          "trackNumber" : 0,
                          "trimStartSum" : 0,
                          "attributes" : {
                            "ident" : "token_hijacking_attack"
                          },
                          "parameters" : {
                            "cursorOpacity" : 0.0,
                            "cursorScale" : 0.0
                          },
                          "effects" : [

                          ],
                          "start" : 3425,
                          "duration" : 240,
                          "mediaStart" : 3095,
                          "mediaDuration" : 1,
                          "scalar" : 1,
                          "metadata" : {
                            "AutoAppliedSmartFocus" : "False"
                          },
                          "animationTracks" : {

                          }
                        },
                        {
                          "id" : 406,
                          "_type" : "ScreenVMFile",
                          "src" : 1,
                          "trackNumber" : 0,
                          "attributes" : {
                            "ident" : "token_hijacking_attack"
                          },
                          "parameters" : {
                            "cursorScale" : {
                              "type" : "double",
                              "defaultValue" : 0.0,
                              "interp" : "linr"
                            },
                            "cursorOpacity" : {
                              "type" : "double",
                              "defaultValue" : 0.0,
                              "interp" : "linr"
                            }
                          },
                          "effects" : [

                          ],
                          "start" : 3665,
                          "duration" : 1447,
                          "mediaStart" : 3095,
                          "mediaDuration" : 1447,
                          "scalar" : 1,
                          "metadata" : {
                            "AutoAppliedSmartFocus" : "False",
                            "clipSpeedAttribute" : false
                          },
                          "animationTracks" : {

                          }
                        },
                        {
                          "id" : 407,
                          "_type" : "ScreenIMFile",
                          "src" : 1,
                          "trackNumber" : 0,
                          "trimStartSum" : 0,
                          "attributes" : {
                            "ident" : "token_hijacking_attack"
                          },
                          "parameters" : {
                            "cursorOpacity" : 0.0,
                            "cursorScale" : 0.0
                          },
                          "effects" : [

                          ],
                          "start" : 5112,
                          "duration" : 60,
                          "mediaStart" : 4542,
                          "mediaDuration" : 1,
                          "scalar" : 1,
                          "metadata" : {
                            "AutoAppliedSmartFocus" : "False"
                          },
                          "animationTracks" : {

                          }
                        },
                        {
                          "id" : 408,
                          "_type" : "ScreenVMFile",
                          "src" : 1,
                          "trackNumber" : 0,
                          "attributes" : {
                            "ident" : "token_hijacking_attack"
                          },
                          "parameters" : {
                            "cursorScale" : {
                              "type" : "double",
                              "defaultValue" : 0.0,
                              "interp" : "linr"
                            },
                            "cursorOpacity" : {
                              "type" : "double",
                              "defaultValue" : 0.0,
                              "interp" : "linr"
                            }
                          },
                          "effects" : [

                          ],
                          "start" : 5172,
                          "duration" : 1570897,
                          "mediaStart" : 4542,
                          "mediaDuration" : 1570897,
                          "scalar" : 1,
                          "metadata" : {
                            "AutoAppliedSmartFocus" : "False",
                            "clipSpeedAttribute" : false
                          },
                          "animationTracks" : {

                          }
                        }
                    ],
                    "effects" : [
                        {
                          "effectName" : "CursorHilight",
                          "category" : "categoryCursorEffects",
                          "parameters" : {
                            "blur" : 0.1,
                            "color-alpha" : 0.75,
                            "color-blue" : 0.0,
                            "color-green" : 1.0,
                            "color-red" : 1.0,
                            "radius" : 50.0
                          }
                        }
                    ],
                    "start" : 2920,
                    "duration" : 36,
                    "mediaStart" : 5154,
                    "mediaDuration" : 36,
                    "scalar" : 1,
                    "metadata" : {
                      "AutoAppliedSmartFocus" : "False",
                      "clipSpeedAttribute" : false
                    },
                    "animationTracks" : {
                      "visual" : [
                        {
                          "endTime" : 237,
                          "duration" : 30,
                          "range" : [ 207, 30]
                        },
                        {
                          "endTime" : 343,
                          "duration" : 30,
                          "range" : [ 313, 30]
                        },
                        {
                          "endTime" : 466,
                          "duration" : 30,
                          "range" : [ 436, 30]
                        },
                        {
                          "endTime" : 632,
                          "duration" : 30,
                          "range" : [ 602, 30]
                        },
                        {
                          "endTime" : 751,
                          "duration" : 30,
                          "range" : [ 721, 30]
                        },
                        {
                          "endTime" : 785,
                          "duration" : 30,
                          "range" : [ 755, 30]
                        },
                        {
                          "endTime" : 814,
                          "duration" : 29,
                          "range" : [ 785, 29]
                        },
                        {
                          "endTime" : 1068,
                          "duration" : 26,
                          "range" : [ 1042, 26]
                        },
                        {
                          "endTime" : 2220,
                          "duration" : 30,
                          "range" : [ 2190, 30]
                        },
                        {
                          "endTime" : 2510,
                          "duration" : 30,
                          "range" : [ 2480, 30]
                        },
                        {
                          "endTime" : 2735,
                          "duration" : 41,
                          "range" : [ 2694, 41]
                        },
                        {
                          "endTime" : 2785,
                          "duration" : 46,
                          "range" : [ 2739, 46]
                        },
                        {
                          "endTime" : 3108,
                          "duration" : 38,
                          "range" : [ 3070, 38]
                        },
                        {
                          "endTime" : 3142,
                          "duration" : 34,
                          "range" : [ 3108, 34]
                        },
                        {
                          "endTime" : 3285,
                          "duration" : 42,
                          "range" : [ 3243, 42]
                        },
                        {
                          "endTime" : 3350,
                          "duration" : 31,
                          "range" : [ 3319, 31]
                        },
                        {
                          "endTime" : 3563,
                          "duration" : 50,
                          "range" : [ 3513, 50]
                        }
                      ]
                    }
                  },
                  {
                    "id" : 409,
                    "_type" : "StitchedMedia",
                    "minMediaStart" : 0,
                    "attributes" : {
                      "ident" : "token_hijacking_attack",
                      "gain" : 1.0,
                      "mixToMono" : false
                    },
                    "parameters" : {
                      "translation0" : {
                        "type" : "double",
                        "defaultValue" : 0.0,
                        "keyframes" : [
                          {
                            "endTime" : 237,
                            "time" : 207,
                            "value" : 6437.05178264923,
                            "duration" : 30
                          },
                          {
                            "endTime" : 343,
                            "time" : 313,
                            "value" : -4.54747350886464e-13,
                            "duration" : 30
                          },
                          {
                            "endTime" : 466,
                            "time" : 436,
                            "value" : 2471.77226095314,
                            "duration" : 30
                          },
                          {
                            "endTime" : 632,
                            "time" : 602,
                            "value" : -1.13686837721616e-13,
                            "duration" : 30
                          },
                          {
                            "endTime" : 751,
                            "time" : 721,
                            "value" : 1777.12723840605,
                            "duration" : 30
                          },
                          {
                            "endTime" : 785,
                            "time" : 755,
                            "value" : -1.13686837721616e-13,
                            "duration" : 30
                          },
                          {
                            "endTime" : 814,
                            "time" : 785,
                            "value" : 946.879645880833,
                            "duration" : 29
                          },
                          {
                            "endTime" : 1068,
                            "time" : 1042,
                            "value" : 1613.60702526176,
                            "duration" : 26
                          },
                          {
                            "endTime" : 2220,
                            "time" : 2190,
                            "value" : -1.13686837721616e-13,
                            "duration" : 30
                          },
                          {
                            "endTime" : 2510,
                            "time" : 2480,
                            "value" : -84.4290398276389,
                            "duration" : 30
                          },
                          {
                            "endTime" : 2735,
                            "time" : 2694,
                            "value" : 1.95399252334028e-13,
                            "duration" : 41
                          },
                          {
                            "endTime" : 2785,
                            "time" : 2739,
                            "value" : 2604.19860601506,
                            "duration" : 46
                          },
                          {
                            "endTime" : 3108,
                            "time" : 3070,
                            "value" : 1.13686837721616e-13,
                            "duration" : 38
                          },
                          {
                            "endTime" : 3142,
                            "time" : 3108,
                            "value" : -285.318743883762,
                            "duration" : 34
                          },
                          {
                            "endTime" : 3285,
                            "time" : 3243,
                            "value" : 4.12114786740858e-13,
                            "duration" : 42
                          },
                          {
                            "endTime" : 3350,
                            "time" : 3319,
                            "value" : 3001.53110047847,
                            "duration" : 31
                          },
                          {
                            "endTime" : 3563,
                            "time" : 3513,
                            "value" : 3.41060513164848e-13,
                            "duration" : 50
                          }
                        ]
                      },
                      "translation1" : {
                        "type" : "double",
                        "defaultValue" : 0.0,
                        "keyframes" : [
                          {
                            "endTime" : 237,
                            "time" : 207,
                            "value" : -2825.0524936412,
                            "duration" : 30
                          },
                          {
                            "endTime" : 343,
                            "time" : 313,
                            "value" : 5.6843418860808e-14,
                            "duration" : 30
                          },
                          {
                            "endTime" : 466,
                            "time" : 436,
                            "value" : -1235.61824899191,
                            "duration" : 30
                          },
                          {
                            "endTime" : 632,
                            "time" : 602,
                            "value" : 1.13686837721616e-13,
                            "duration" : 30
                          },
                          {
                            "endTime" : 751,
                            "time" : 721,
                            "value" : -129.822625517978,
                            "duration" : 30
                          },
                          {
                            "endTime" : 785,
                            "time" : 755,
                            "value" : -2.1316282072803e-14,
                            "duration" : 30
                          },
                          {
                            "endTime" : 814,
                            "time" : 785,
                            "value" : -532.6,
                            "duration" : 29
                          },
                          {
                            "endTime" : 1068,
                            "time" : 1042,
                            "value" : -277.235424203718,
                            "duration" : 26
                          },
                          {
                            "endTime" : 2220,
                            "time" : 2190,
                            "value" : -5.6843418860808e-14,
                            "duration" : 30
                          },
                          {
                            "endTime" : 2510,
                            "time" : 2480,
                            "value" : -902.332175055167,
                            "duration" : 30
                          },
                          {
                            "endTime" : 2735,
                            "time" : 2694,
                            "value" : -5.6843418860808e-14,
                            "duration" : 41
                          },
                          {
                            "endTime" : 2785,
                            "time" : 2739,
                            "value" : -1.81070686530249,
                            "duration" : 46
                          },
                          {
                            "endTime" : 3108,
                            "time" : 3070,
                            "value" : 7.21644966006352e-15,
                            "duration" : 38
                          },
                          {
                            "endTime" : 3142,
                            "time" : 3108,
                            "value" : 5.66375460301182,
                            "duration" : 34
                          },
                          {
                            "endTime" : 3285,
                            "time" : 3243,
                            "value" : -7.68274333040608e-14,
                            "duration" : 42
                          },
                          {
                            "endTime" : 3350,
                            "time" : 3319,
                            "value" : -78.4510884965061,
                            "duration" : 31
                          },
                          {
                            "endTime" : 3563,
                            "time" : 3513,
                            "value" : 1.3855583347322e-13,
                            "duration" : 50
                          }
                        ]
                      },
                      "scale0" : {
                        "type" : "double",
                        "defaultValue" : 1.0,
                        "keyframes" : [
                          {
                            "endTime" : 237,
                            "time" : 207,
                            "value" : 6.52631522480847,
                            "duration" : 30
                          },
                          {
                            "endTime" : 343,
                            "time" : 313,
                            "value" : 0.999999999999999,
                            "duration" : 30
                          },
                          {
                            "endTime" : 466,
                            "time" : 436,
                            "value" : 3.172876137306,
                            "duration" : 30
                          },
                          {
                            "endTime" : 632,
                            "time" : 602,
                            "value" : 0.99999964401807,
                            "duration" : 30
                          },
                          {
                            "endTime" : 751,
                            "time" : 721,
                            "value" : 2.83915303535992,
                            "duration" : 30
                          },
                          {
                            "endTime" : 785,
                            "time" : 755,
                            "value" : 0.999999512129719,
                            "duration" : 30
                          },
                          {
                            "endTime" : 814,
                            "time" : 785,
                            "value" : 1.90952759462014,
                            "duration" : 29
                          },
                          {
                            "endTime" : 1068,
                            "time" : 1042,
                            "value" : 2.48123987298737,
                            "duration" : 26
                          },
                          {
                            "endTime" : 2220,
                            "time" : 2190,
                            "value" : 0.999999424015319,
                            "duration" : 30
                          },
                          {
                            "endTime" : 2510,
                            "time" : 2480,
                            "value" : 2.92108215027906,
                            "duration" : 30
                          },
                          {
                            "endTime" : 2735,
                            "time" : 2694,
                            "value" : 0.99999942229767,
                            "duration" : 41
                          },
                          {
                            "endTime" : 2785,
                            "time" : 2739,
                            "value" : 3.3212236194273,
                            "duration" : 46
                          },
                          {
                            "endTime" : 3108,
                            "time" : 3070,
                            "value" : 0.999999284332318,
                            "duration" : 38
                          },
                          {
                            "endTime" : 3142,
                            "time" : 3108,
                            "value" : 2.37965690489919,
                            "duration" : 34
                          },
                          {
                            "endTime" : 3285,
                            "time" : 3243,
                            "value" : 0.999999052009054,
                            "duration" : 42
                          },
                          {
                            "endTime" : 3350,
                            "time" : 3319,
                            "value" : 3.64944959861083,
                            "duration" : 31
                          },
                          {
                            "endTime" : 3563,
                            "time" : 3513,
                            "value" : 0.999999213344672,
                            "duration" : 50
                          }
                        ]
                      },
                      "scale1" : {
                        "type" : "double",
                        "defaultValue" : 1.0,
                        "keyframes" : [
                          {
                            "endTime" : 237,
                            "time" : 207,
                            "value" : 6.52631500328686,
                            "duration" : 30
                          },
                          {
                            "endTime" : 343,
                            "time" : 313,
                            "value" : 0.999999966057169,
                            "duration" : 30
                          },
                          {
                            "endTime" : 466,
                            "time" : 436,
                            "value" : 3.17287726679297,
                            "duration" : 30
                          },
                          {
                            "endTime" : 632,
                            "time" : 602,
                            "value" : 1.0,
                            "duration" : 30
                          },
                          {
                            "endTime" : 751,
                            "time" : 721,
                            "value" : 2.83915442049899,
                            "duration" : 30
                          },
                          {
                            "endTime" : 785,
                            "time" : 755,
                            "value" : 1.0,
                            "duration" : 30
                          },
                          {
                            "endTime" : 814,
                            "time" : 785,
                            "value" : 1.9095287965103,
                            "duration" : 29
                          },
                          {
                            "endTime" : 1068,
                            "time" : 1042,
                            "value" : 2.48124130214435,
                            "duration" : 26
                          },
                          {
                            "endTime" : 2220,
                            "time" : 2190,
                            "value" : 1.0,
                            "duration" : 30
                          },
                          {
                            "endTime" : 2510,
                            "time" : 2480,
                            "value" : 2.921083837796,
                            "duration" : 30
                          },
                          {
                            "endTime" : 2735,
                            "time" : 2694,
                            "value" : 1.0,
                            "duration" : 41
                          },
                          {
                            "endTime" : 2785,
                            "time" : 2739,
                            "value" : 3.32122599632141,
                            "duration" : 46
                          },
                          {
                            "endTime" : 3108,
                            "time" : 3070,
                            "value" : 1.0,
                            "duration" : 38
                          },
                          {
                            "endTime" : 3142,
                            "time" : 3108,
                            "value" : 2.37965916079453,
                            "duration" : 34
                          },
                          {
                            "endTime" : 3285,
                            "time" : 3243,
                            "value" : 1.0,
                            "duration" : 42
                          },
                          {
                            "endTime" : 3350,
                            "time" : 3319,
                            "value" : 3.64945246947206,
                            "duration" : 31
                          },
                          {
                            "endTime" : 3563,
                            "time" : 3513,
                            "value" : 0.999999999999999,
                            "duration" : 50
                          }
                        ]
                      },
                      "cursorOpacity" : 1.0,
                      "cursorScale" : 1.0
                    },
                    "medias" : [
                        {
                          "id" : 410,
                          "_type" : "ScreenVMFile",
                          "src" : 1,
                          "trackNumber" : 0,
                          "attributes" : {
                            "ident" : "token_hijacking_attack"
                          },
                          "parameters" : {
                            "cursorScale" : {
                              "type" : "double",
                              "defaultValue" : 0.0,
                              "interp" : "linr"
                            },
                            "cursorOpacity" : {
                              "type" : "double",
                              "defaultValue" : 0.0,
                              "interp" : "linr"
                            }
                          },
                          "effects" : [

                          ],
                          "start" : 0,
                          "duration" : 208,
                          "mediaStart" : 0,
                          "mediaDuration" : 208,
                          "scalar" : 1,
                          "metadata" : {
                            "AutoAppliedSmartFocus" : "False",
                            "clipSpeedAttribute" : false
                          },
                          "animationTracks" : {

                          }
                        },
                        {
                          "id" : 411,
                          "_type" : "ScreenIMFile",
                          "src" : 1,
                          "trackNumber" : 0,
                          "trimStartSum" : 0,
                          "attributes" : {
                            "ident" : "token_hijacking_attack"
                          },
                          "parameters" : {
                            "cursorOpacity" : 0.0,
                            "cursorScale" : 0.0
                          },
                          "effects" : [

                          ],
                          "start" : 208,
                          "duration" : 90,
                          "mediaStart" : 207,
                          "mediaDuration" : 1,
                          "scalar" : 1,
                          "metadata" : {
                            "AutoAppliedSmartFocus" : "False"
                          },
                          "animationTracks" : {

                          }
                        },
                        {
                          "id" : 412,
                          "_type" : "ScreenVMFile",
                          "src" : 1,
                          "trackNumber" : 0,
                          "attributes" : {
                            "ident" : "token_hijacking_attack"
                          },
                          "parameters" : {
                            "cursorScale" : {
                              "type" : "double",
                              "defaultValue" : 0.0,
                              "interp" : "linr"
                            },
                            "cursorOpacity" : {
                              "type" : "double",
                              "defaultValue" : 0.0,
                              "interp" : "linr"
                            }
                          },
                          "effects" : [

                          ],
                          "start" : 298,
                          "duration" : 140,
                          "mediaStart" : 208,
                          "mediaDuration" : 140,
                          "scalar" : 1,
                          "metadata" : {
                            "AutoAppliedSmartFocus" : "False",
                            "clipSpeedAttribute" : false
                          },
                          "animationTracks" : {

                          }
                        },
                        {
                          "id" : 413,
                          "_type" : "ScreenIMFile",
                          "src" : 1,
                          "trackNumber" : 0,
                          "trimStartSum" : 0,
                          "attributes" : {
                            "ident" : "token_hijacking_attack"
                          },
                          "parameters" : {
                            "cursorOpacity" : 0.0,
                            "cursorScale" : 0.0
                          },
                          "effects" : [

                          ],
                          "start" : 438,
                          "duration" : 30,
                          "mediaStart" : 348,
                          "mediaDuration" : 1,
                          "scalar" : 1,
                          "metadata" : {
                            "AutoAppliedSmartFocus" : "False"
                          },
                          "animationTracks" : {

                          }
                        },
                        {
                          "id" : 414,
                          "_type" : "ScreenVMFile",
                          "src" : 1,
                          "trackNumber" : 0,
                          "attributes" : {
                            "ident" : "token_hijacking_attack"
                          },
                          "parameters" : {
                            "cursorScale" : {
                              "type" : "double",
                              "defaultValue" : 0.0,
                              "interp" : "linr"
                            },
                            "cursorOpacity" : {
                              "type" : "double",
                              "defaultValue" : 0.0,
                              "interp" : "linr"
                            }
                          },
                          "effects" : [

                          ],
                          "start" : 468,
                          "duration" : 105,
                          "mediaStart" : 348,
                          "mediaDuration" : 105,
                          "scalar" : 1,
                          "metadata" : {
                            "AutoAppliedSmartFocus" : "False",
                            "clipSpeedAttribute" : false
                          },
                          "animationTracks" : {

                          }
                        },
                        {
                          "id" : 415,
                          "_type" : "ScreenIMFile",
                          "src" : 1,
                          "trackNumber" : 0,
                          "trimStartSum" : 0,
                          "attributes" : {
                            "ident" : "token_hijacking_attack"
                          },
                          "parameters" : {
                            "cursorOpacity" : 0.0,
                            "cursorScale" : 0.0
                          },
                          "effects" : [

                          ],
                          "start" : 573,
                          "duration" : 60,
                          "mediaStart" : 453,
                          "mediaDuration" : 1,
                          "scalar" : 1,
                          "metadata" : {
                            "AutoAppliedSmartFocus" : "False"
                          },
                          "animationTracks" : {

                          }
                        },
                        {
                          "id" : 416,
                          "_type" : "ScreenVMFile",
                          "src" : 1,
                          "trackNumber" : 0,
                          "attributes" : {
                            "ident" : "token_hijacking_attack"
                          },
                          "parameters" : {
                            "cursorScale" : {
                              "type" : "double",
                              "defaultValue" : 0.0,
                              "interp" : "linr"
                            },
                            "cursorOpacity" : {
                              "type" : "double",
                              "defaultValue" : 0.0,
                              "interp" : "linr"
                            }
                          },
                          "effects" : [

                          ],
                          "start" : 633,
                          "duration" : 2038,
                          "mediaStart" : 453,
                          "mediaDuration" : 2038,
                          "scalar" : 1,
                          "metadata" : {
                            "AutoAppliedSmartFocus" : "False",
                            "clipSpeedAttribute" : false
                          },
                          "animationTracks" : {

                          }
                        },
                        {
                          "id" : 417,
                          "_type" : "ScreenIMFile",
                          "src" : 1,
                          "trackNumber" : 0,
                          "trimStartSum" : 0,
                          "attributes" : {
                            "ident" : "token_hijacking_attack"
                          },
                          "parameters" : {
                            "cursorOpacity" : 0.0,
                            "cursorScale" : 0.0
                          },
                          "effects" : [

                          ],
                          "start" : 2671,
                          "duration" : 30,
                          "mediaStart" : 2491,
                          "mediaDuration" : 1,
                          "scalar" : 1,
                          "metadata" : {
                            "AutoAppliedSmartFocus" : "False"
                          },
                          "animationTracks" : {

                          }
                        },
                        {
                          "id" : 418,
                          "_type" : "ScreenVMFile",
                          "src" : 1,
                          "trackNumber" : 0,
                          "attributes" : {
                            "ident" : "token_hijacking_attack"
                          },
                          "parameters" : {
                            "cursorScale" : {
                              "type" : "double",
                              "defaultValue" : 0.0,
                              "interp" : "linr"
                            },
                            "cursorOpacity" : {
                              "type" : "double",
                              "defaultValue" : 0.0,
                              "interp" : "linr"
                            }
                          },
                          "effects" : [

                          ],
                          "start" : 2701,
                          "duration" : 386,
                          "mediaStart" : 2491,
                          "mediaDuration" : 386,
                          "scalar" : 1,
                          "metadata" : {
                            "AutoAppliedSmartFocus" : "False",
                            "clipSpeedAttribute" : false
                          },
                          "animationTracks" : {

                          }
                        },
                        {
                          "id" : 419,
                          "_type" : "ScreenIMFile",
                          "src" : 1,
                          "trackNumber" : 0,
                          "trimStartSum" : 0,
                          "attributes" : {
                            "ident" : "token_hijacking_attack"
                          },
                          "parameters" : {
                            "cursorOpacity" : 0.0,
                            "cursorScale" : 0.0
                          },
                          "effects" : [

                          ],
                          "start" : 3087,
                          "duration" : 30,
                          "mediaStart" : 2877,
                          "mediaDuration" : 1,
                          "scalar" : 1,
                          "metadata" : {
                            "AutoAppliedSmartFocus" : "False"
                          },
                          "animationTracks" : {

                          }
                        },
                        {
                          "id" : 420,
                          "_type" : "ScreenVMFile",
                          "src" : 1,
                          "trackNumber" : 0,
                          "attributes" : {
                            "ident" : "token_hijacking_attack"
                          },
                          "parameters" : {
                            "cursorScale" : {
                              "type" : "double",
                              "defaultValue" : 0.0,
                              "interp" : "linr"
                            },
                            "cursorOpacity" : {
                              "type" : "double",
                              "defaultValue" : 0.0,
                              "interp" : "linr"
                            }
                          },
                          "effects" : [

                          ],
                          "start" : 3117,
                          "duration" : 81,
                          "mediaStart" : 2877,
                          "mediaDuration" : 81,
                          "scalar" : 1,
                          "metadata" : {
                            "AutoAppliedSmartFocus" : "False",
                            "clipSpeedAttribute" : false
                          },
                          "animationTracks" : {

                          }
                        },
                        {
                          "id" : 421,
                          "_type" : "ScreenIMFile",
                          "src" : 1,
                          "trackNumber" : 0,
                          "trimStartSum" : 0,
                          "attributes" : {
                            "ident" : "token_hijacking_attack"
                          },
                          "parameters" : {
                            "cursorOpacity" : 0.0,
                            "cursorScale" : 0.0
                          },
                          "effects" : [

                          ],
                          "start" : 3198,
                          "duration" : 90,
                          "mediaStart" : 2958,
                          "mediaDuration" : 1,
                          "scalar" : 1,
                          "metadata" : {
                            "AutoAppliedSmartFocus" : "False"
                          },
                          "animationTracks" : {

                          }
                        },
                        {
                          "id" : 422,
                          "_type" : "ScreenVMFile",
                          "src" : 1,
                          "trackNumber" : 0,
                          "attributes" : {
                            "ident" : "token_hijacking_attack"
                          },
                          "parameters" : {
                            "cursorScale" : {
                              "type" : "double",
                              "defaultValue" : 0.0,
                              "interp" : "linr"
                            },
                            "cursorOpacity" : {
                              "type" : "double",
                              "defaultValue" : 0.0,
                              "interp" : "linr"
                            }
                          },
                          "effects" : [

                          ],
                          "start" : 3288,
                          "duration" : 137,
                          "mediaStart" : 2958,
                          "mediaDuration" : 137,
                          "scalar" : 1,
                          "metadata" : {
                            "AutoAppliedSmartFocus" : "False",
                            "clipSpeedAttribute" : false
                          },
                          "animationTracks" : {

                          }
                        },
                        {
                          "id" : 423,
                          "_type" : "ScreenIMFile",
                          "src" : 1,
                          "trackNumber" : 0,
                          "trimStartSum" : 0,
                          "attributes" : {
                            "ident" : "token_hijacking_attack"
                          },
                          "parameters" : {
                            "cursorOpacity" : 0.0,
                            "cursorScale" : 0.0
                          },
                          "effects" : [

                          ],
                          "start" : 3425,
                          "duration" : 240,
                          "mediaStart" : 3095,
                          "mediaDuration" : 1,
                          "scalar" : 1,
                          "metadata" : {
                            "AutoAppliedSmartFocus" : "False"
                          },
                          "animationTracks" : {

                          }
                        },
                        {
                          "id" : 424,
                          "_type" : "ScreenVMFile",
                          "src" : 1,
                          "trackNumber" : 0,
                          "attributes" : {
                            "ident" : "token_hijacking_attack"
                          },
                          "parameters" : {
                            "cursorScale" : {
                              "type" : "double",
                              "defaultValue" : 0.0,
                              "interp" : "linr"
                            },
                            "cursorOpacity" : {
                              "type" : "double",
                              "defaultValue" : 0.0,
                              "interp" : "linr"
                            }
                          },
                          "effects" : [

                          ],
                          "start" : 3665,
                          "duration" : 1447,
                          "mediaStart" : 3095,
                          "mediaDuration" : 1447,
                          "scalar" : 1,
                          "metadata" : {
                            "AutoAppliedSmartFocus" : "False",
                            "clipSpeedAttribute" : false
                          },
                          "animationTracks" : {

                          }
                        },
                        {
                          "id" : 425,
                          "_type" : "ScreenIMFile",
                          "src" : 1,
                          "trackNumber" : 0,
                          "trimStartSum" : 0,
                          "attributes" : {
                            "ident" : "token_hijacking_attack"
                          },
                          "parameters" : {
                            "cursorOpacity" : 0.0,
                            "cursorScale" : 0.0
                          },
                          "effects" : [

                          ],
                          "start" : 5112,
                          "duration" : 60,
                          "mediaStart" : 4542,
                          "mediaDuration" : 1,
                          "scalar" : 1,
                          "metadata" : {
                            "AutoAppliedSmartFocus" : "False"
                          },
                          "animationTracks" : {

                          }
                        },
                        {
                          "id" : 426,
                          "_type" : "ScreenVMFile",
                          "src" : 1,
                          "trackNumber" : 0,
                          "attributes" : {
                            "ident" : "token_hijacking_attack"
                          },
                          "parameters" : {
                            "cursorScale" : {
                              "type" : "double",
                              "defaultValue" : 0.0,
                              "interp" : "linr"
                            },
                            "cursorOpacity" : {
                              "type" : "double",
                              "defaultValue" : 0.0,
                              "interp" : "linr"
                            }
                          },
                          "effects" : [

                          ],
                          "start" : 5172,
                          "duration" : 1570897,
                          "mediaStart" : 4542,
                          "mediaDuration" : 1570897,
                          "scalar" : 1,
                          "metadata" : {
                            "AutoAppliedSmartFocus" : "False",
                            "clipSpeedAttribute" : false
                          },
                          "animationTracks" : {

                          }
                        }
                    ],
                    "effects" : [
                        {
                          "effectName" : "CursorHilight",
                          "category" : "categoryCursorEffects",
                          "parameters" : {
                            "blur" : 0.1,
                            "color-alpha" : 0.75,
                            "color-blue" : 0.0,
                            "color-green" : 1.0,
                            "color-red" : 1.0,
                            "radius" : 50.0
                          }
                        }
                    ],
                    "start" : 2956,
                    "duration" : 46,
                    "mediaStart" : 5190,
                    "mediaDuration" : 85,
                    "scalar" : "46/85",
                    "metadata" : {
                      "AutoAppliedSmartFocus" : "False",
                      "clipSpeedAttribute" : true
                    },
                    "animationTracks" : {
                      "visual" : [
                        {
                          "endTime" : 237,
                          "duration" : 30,
                          "range" : [ 207, 30]
                        },
                        {
                          "endTime" : 343,
                          "duration" : 30,
                          "range" : [ 313, 30]
                        },
                        {
                          "endTime" : 466,
                          "duration" : 30,
                          "range" : [ 436, 30]
                        },
                        {
                          "endTime" : 632,
                          "duration" : 30,
                          "range" : [ 602, 30]
                        },
                        {
                          "endTime" : 751,
                          "duration" : 30,
                          "range" : [ 721, 30]
                        },
                        {
                          "endTime" : 785,
                          "duration" : 30,
                          "range" : [ 755, 30]
                        },
                        {
                          "endTime" : 814,
                          "duration" : 29,
                          "range" : [ 785, 29]
                        },
                        {
                          "endTime" : 1068,
                          "duration" : 26,
                          "range" : [ 1042, 26]
                        },
                        {
                          "endTime" : 2220,
                          "duration" : 30,
                          "range" : [ 2190, 30]
                        },
                        {
                          "endTime" : 2510,
                          "duration" : 30,
                          "range" : [ 2480, 30]
                        },
                        {
                          "endTime" : 2735,
                          "duration" : 41,
                          "range" : [ 2694, 41]
                        },
                        {
                          "endTime" : 2785,
                          "duration" : 46,
                          "range" : [ 2739, 46]
                        },
                        {
                          "endTime" : 3108,
                          "duration" : 38,
                          "range" : [ 3070, 38]
                        },
                        {
                          "endTime" : 3142,
                          "duration" : 34,
                          "range" : [ 3108, 34]
                        },
                        {
                          "endTime" : 3285,
                          "duration" : 42,
                          "range" : [ 3243, 42]
                        },
                        {
                          "endTime" : 3350,
                          "duration" : 31,
                          "range" : [ 3319, 31]
                        },
                        {
                          "endTime" : 3563,
                          "duration" : 50,
                          "range" : [ 3513, 50]
                        }
                      ]
                    }
                  },
                  {
                    "id" : 427,
                    "_type" : "StitchedMedia",
                    "minMediaStart" : 0,
                    "attributes" : {
                      "ident" : "token_hijacking_attack",
                      "gain" : 1.0,
                      "mixToMono" : false
                    },
                    "parameters" : {
                      "translation0" : {
                        "type" : "double",
                        "defaultValue" : 0.0,
                        "keyframes" : [
                          {
                            "endTime" : 237,
                            "time" : 207,
                            "value" : 6437.05178264923,
                            "duration" : 30
                          },
                          {
                            "endTime" : 343,
                            "time" : 313,
                            "value" : -4.54747350886464e-13,
                            "duration" : 30
                          },
                          {
                            "endTime" : 466,
                            "time" : 436,
                            "value" : 2471.77226095314,
                            "duration" : 30
                          },
                          {
                            "endTime" : 632,
                            "time" : 602,
                            "value" : -1.13686837721616e-13,
                            "duration" : 30
                          },
                          {
                            "endTime" : 751,
                            "time" : 721,
                            "value" : 1777.12723840605,
                            "duration" : 30
                          },
                          {
                            "endTime" : 785,
                            "time" : 755,
                            "value" : -1.13686837721616e-13,
                            "duration" : 30
                          },
                          {
                            "endTime" : 814,
                            "time" : 785,
                            "value" : 946.879645880833,
                            "duration" : 29
                          },
                          {
                            "endTime" : 1068,
                            "time" : 1042,
                            "value" : 1613.60702526176,
                            "duration" : 26
                          },
                          {
                            "endTime" : 2220,
                            "time" : 2190,
                            "value" : -1.13686837721616e-13,
                            "duration" : 30
                          },
                          {
                            "endTime" : 2510,
                            "time" : 2480,
                            "value" : -84.4290398276389,
                            "duration" : 30
                          },
                          {
                            "endTime" : 2735,
                            "time" : 2694,
                            "value" : 1.95399252334028e-13,
                            "duration" : 41
                          },
                          {
                            "endTime" : 2785,
                            "time" : 2739,
                            "value" : 2604.19860601506,
                            "duration" : 46
                          },
                          {
                            "endTime" : 3108,
                            "time" : 3070,
                            "value" : 1.13686837721616e-13,
                            "duration" : 38
                          },
                          {
                            "endTime" : 3142,
                            "time" : 3108,
                            "value" : -285.318743883762,
                            "duration" : 34
                          },
                          {
                            "endTime" : 3285,
                            "time" : 3243,
                            "value" : 4.12114786740858e-13,
                            "duration" : 42
                          },
                          {
                            "endTime" : 3350,
                            "time" : 3319,
                            "value" : 3001.53110047847,
                            "duration" : 31
                          },
                          {
                            "endTime" : 3563,
                            "time" : 3513,
                            "value" : 3.41060513164848e-13,
                            "duration" : 50
                          }
                        ]
                      },
                      "translation1" : {
                        "type" : "double",
                        "defaultValue" : 0.0,
                        "keyframes" : [
                          {
                            "endTime" : 237,
                            "time" : 207,
                            "value" : -2825.0524936412,
                            "duration" : 30
                          },
                          {
                            "endTime" : 343,
                            "time" : 313,
                            "value" : 5.6843418860808e-14,
                            "duration" : 30
                          },
                          {
                            "endTime" : 466,
                            "time" : 436,
                            "value" : -1235.61824899191,
                            "duration" : 30
                          },
                          {
                            "endTime" : 632,
                            "time" : 602,
                            "value" : 1.13686837721616e-13,
                            "duration" : 30
                          },
                          {
                            "endTime" : 751,
                            "time" : 721,
                            "value" : -129.822625517978,
                            "duration" : 30
                          },
                          {
                            "endTime" : 785,
                            "time" : 755,
                            "value" : -2.1316282072803e-14,
                            "duration" : 30
                          },
                          {
                            "endTime" : 814,
                            "time" : 785,
                            "value" : -532.6,
                            "duration" : 29
                          },
                          {
                            "endTime" : 1068,
                            "time" : 1042,
                            "value" : -277.235424203718,
                            "duration" : 26
                          },
                          {
                            "endTime" : 2220,
                            "time" : 2190,
                            "value" : -5.6843418860808e-14,
                            "duration" : 30
                          },
                          {
                            "endTime" : 2510,
                            "time" : 2480,
                            "value" : -902.332175055167,
                            "duration" : 30
                          },
                          {
                            "endTime" : 2735,
                            "time" : 2694,
                            "value" : -5.6843418860808e-14,
                            "duration" : 41
                          },
                          {
                            "endTime" : 2785,
                            "time" : 2739,
                            "value" : -1.81070686530249,
                            "duration" : 46
                          },
                          {
                            "endTime" : 3108,
                            "time" : 3070,
                            "value" : 7.21644966006352e-15,
                            "duration" : 38
                          },
                          {
                            "endTime" : 3142,
                            "time" : 3108,
                            "value" : 5.66375460301182,
                            "duration" : 34
                          },
                          {
                            "endTime" : 3285,
                            "time" : 3243,
                            "value" : -7.68274333040608e-14,
                            "duration" : 42
                          },
                          {
                            "endTime" : 3350,
                            "time" : 3319,
                            "value" : -78.4510884965061,
                            "duration" : 31
                          },
                          {
                            "endTime" : 3563,
                            "time" : 3513,
                            "value" : 1.3855583347322e-13,
                            "duration" : 50
                          }
                        ]
                      },
                      "scale0" : {
                        "type" : "double",
                        "defaultValue" : 1.0,
                        "keyframes" : [
                          {
                            "endTime" : 237,
                            "time" : 207,
                            "value" : 6.52631522480847,
                            "duration" : 30
                          },
                          {
                            "endTime" : 343,
                            "time" : 313,
                            "value" : 0.999999999999999,
                            "duration" : 30
                          },
                          {
                            "endTime" : 466,
                            "time" : 436,
                            "value" : 3.172876137306,
                            "duration" : 30
                          },
                          {
                            "endTime" : 632,
                            "time" : 602,
                            "value" : 0.99999964401807,
                            "duration" : 30
                          },
                          {
                            "endTime" : 751,
                            "time" : 721,
                            "value" : 2.83915303535992,
                            "duration" : 30
                          },
                          {
                            "endTime" : 785,
                            "time" : 755,
                            "value" : 0.999999512129719,
                            "duration" : 30
                          },
                          {
                            "endTime" : 814,
                            "time" : 785,
                            "value" : 1.90952759462014,
                            "duration" : 29
                          },
                          {
                            "endTime" : 1068,
                            "time" : 1042,
                            "value" : 2.48123987298737,
                            "duration" : 26
                          },
                          {
                            "endTime" : 2220,
                            "time" : 2190,
                            "value" : 0.999999424015319,
                            "duration" : 30
                          },
                          {
                            "endTime" : 2510,
                            "time" : 2480,
                            "value" : 2.92108215027906,
                            "duration" : 30
                          },
                          {
                            "endTime" : 2735,
                            "time" : 2694,
                            "value" : 0.99999942229767,
                            "duration" : 41
                          },
                          {
                            "endTime" : 2785,
                            "time" : 2739,
                            "value" : 3.3212236194273,
                            "duration" : 46
                          },
                          {
                            "endTime" : 3108,
                            "time" : 3070,
                            "value" : 0.999999284332318,
                            "duration" : 38
                          },
                          {
                            "endTime" : 3142,
                            "time" : 3108,
                            "value" : 2.37965690489919,
                            "duration" : 34
                          },
                          {
                            "endTime" : 3285,
                            "time" : 3243,
                            "value" : 0.999999052009054,
                            "duration" : 42
                          },
                          {
                            "endTime" : 3350,
                            "time" : 3319,
                            "value" : 3.64944959861083,
                            "duration" : 31
                          },
                          {
                            "endTime" : 3563,
                            "time" : 3513,
                            "value" : 0.999999213344672,
                            "duration" : 50
                          }
                        ]
                      },
                      "scale1" : {
                        "type" : "double",
                        "defaultValue" : 1.0,
                        "keyframes" : [
                          {
                            "endTime" : 237,
                            "time" : 207,
                            "value" : 6.52631500328686,
                            "duration" : 30
                          },
                          {
                            "endTime" : 343,
                            "time" : 313,
                            "value" : 0.999999966057169,
                            "duration" : 30
                          },
                          {
                            "endTime" : 466,
                            "time" : 436,
                            "value" : 3.17287726679297,
                            "duration" : 30
                          },
                          {
                            "endTime" : 632,
                            "time" : 602,
                            "value" : 1.0,
                            "duration" : 30
                          },
                          {
                            "endTime" : 751,
                            "time" : 721,
                            "value" : 2.83915442049899,
                            "duration" : 30
                          },
                          {
                            "endTime" : 785,
                            "time" : 755,
                            "value" : 1.0,
                            "duration" : 30
                          },
                          {
                            "endTime" : 814,
                            "time" : 785,
                            "value" : 1.9095287965103,
                            "duration" : 29
                          },
                          {
                            "endTime" : 1068,
                            "time" : 1042,
                            "value" : 2.48124130214435,
                            "duration" : 26
                          },
                          {
                            "endTime" : 2220,
                            "time" : 2190,
                            "value" : 1.0,
                            "duration" : 30
                          },
                          {
                            "endTime" : 2510,
                            "time" : 2480,
                            "value" : 2.921083837796,
                            "duration" : 30
                          },
                          {
                            "endTime" : 2735,
                            "time" : 2694,
                            "value" : 1.0,
                            "duration" : 41
                          },
                          {
                            "endTime" : 2785,
                            "time" : 2739,
                            "value" : 3.32122599632141,
                            "duration" : 46
                          },
                          {
                            "endTime" : 3108,
                            "time" : 3070,
                            "value" : 1.0,
                            "duration" : 38
                          },
                          {
                            "endTime" : 3142,
                            "time" : 3108,
                            "value" : 2.37965916079453,
                            "duration" : 34
                          },
                          {
                            "endTime" : 3285,
                            "time" : 3243,
                            "value" : 1.0,
                            "duration" : 42
                          },
                          {
                            "endTime" : 3350,
                            "time" : 3319,
                            "value" : 3.64945246947206,
                            "duration" : 31
                          },
                          {
                            "endTime" : 3563,
                            "time" : 3513,
                            "value" : 0.999999999999999,
                            "duration" : 50
                          }
                        ]
                      },
                      "cursorOpacity" : 1.0,
                      "cursorScale" : 1.0
                    },
                    "medias" : [
                        {
                          "id" : 428,
                          "_type" : "ScreenVMFile",
                          "src" : 1,
                          "trackNumber" : 0,
                          "attributes" : {
                            "ident" : "token_hijacking_attack"
                          },
                          "parameters" : {
                            "cursorScale" : {
                              "type" : "double",
                              "defaultValue" : 0.0,
                              "interp" : "linr"
                            },
                            "cursorOpacity" : {
                              "type" : "double",
                              "defaultValue" : 0.0,
                              "interp" : "linr"
                            }
                          },
                          "effects" : [

                          ],
                          "start" : 0,
                          "duration" : 208,
                          "mediaStart" : 0,
                          "mediaDuration" : 208,
                          "scalar" : 1,
                          "metadata" : {
                            "AutoAppliedSmartFocus" : "False",
                            "clipSpeedAttribute" : false
                          },
                          "animationTracks" : {

                          }
                        },
                        {
                          "id" : 429,
                          "_type" : "ScreenIMFile",
                          "src" : 1,
                          "trackNumber" : 0,
                          "trimStartSum" : 0,
                          "attributes" : {
                            "ident" : "token_hijacking_attack"
                          },
                          "parameters" : {
                            "cursorOpacity" : 0.0,
                            "cursorScale" : 0.0
                          },
                          "effects" : [

                          ],
                          "start" : 208,
                          "duration" : 90,
                          "mediaStart" : 207,
                          "mediaDuration" : 1,
                          "scalar" : 1,
                          "metadata" : {
                            "AutoAppliedSmartFocus" : "False"
                          },
                          "animationTracks" : {

                          }
                        },
                        {
                          "id" : 430,
                          "_type" : "ScreenVMFile",
                          "src" : 1,
                          "trackNumber" : 0,
                          "attributes" : {
                            "ident" : "token_hijacking_attack"
                          },
                          "parameters" : {
                            "cursorScale" : {
                              "type" : "double",
                              "defaultValue" : 0.0,
                              "interp" : "linr"
                            },
                            "cursorOpacity" : {
                              "type" : "double",
                              "defaultValue" : 0.0,
                              "interp" : "linr"
                            }
                          },
                          "effects" : [

                          ],
                          "start" : 298,
                          "duration" : 140,
                          "mediaStart" : 208,
                          "mediaDuration" : 140,
                          "scalar" : 1,
                          "metadata" : {
                            "AutoAppliedSmartFocus" : "False",
                            "clipSpeedAttribute" : false
                          },
                          "animationTracks" : {

                          }
                        },
                        {
                          "id" : 431,
                          "_type" : "ScreenIMFile",
                          "src" : 1,
                          "trackNumber" : 0,
                          "trimStartSum" : 0,
                          "attributes" : {
                            "ident" : "token_hijacking_attack"
                          },
                          "parameters" : {
                            "cursorOpacity" : 0.0,
                            "cursorScale" : 0.0
                          },
                          "effects" : [

                          ],
                          "start" : 438,
                          "duration" : 30,
                          "mediaStart" : 348,
                          "mediaDuration" : 1,
                          "scalar" : 1,
                          "metadata" : {
                            "AutoAppliedSmartFocus" : "False"
                          },
                          "animationTracks" : {

                          }
                        },
                        {
                          "id" : 432,
                          "_type" : "ScreenVMFile",
                          "src" : 1,
                          "trackNumber" : 0,
                          "attributes" : {
                            "ident" : "token_hijacking_attack"
                          },
                          "parameters" : {
                            "cursorScale" : {
                              "type" : "double",
                              "defaultValue" : 0.0,
                              "interp" : "linr"
                            },
                            "cursorOpacity" : {
                              "type" : "double",
                              "defaultValue" : 0.0,
                              "interp" : "linr"
                            }
                          },
                          "effects" : [

                          ],
                          "start" : 468,
                          "duration" : 105,
                          "mediaStart" : 348,
                          "mediaDuration" : 105,
                          "scalar" : 1,
                          "metadata" : {
                            "AutoAppliedSmartFocus" : "False",
                            "clipSpeedAttribute" : false
                          },
                          "animationTracks" : {

                          }
                        },
                        {
                          "id" : 433,
                          "_type" : "ScreenIMFile",
                          "src" : 1,
                          "trackNumber" : 0,
                          "trimStartSum" : 0,
                          "attributes" : {
                            "ident" : "token_hijacking_attack"
                          },
                          "parameters" : {
                            "cursorOpacity" : 0.0,
                            "cursorScale" : 0.0
                          },
                          "effects" : [

                          ],
                          "start" : 573,
                          "duration" : 60,
                          "mediaStart" : 453,
                          "mediaDuration" : 1,
                          "scalar" : 1,
                          "metadata" : {
                            "AutoAppliedSmartFocus" : "False"
                          },
                          "animationTracks" : {

                          }
                        },
                        {
                          "id" : 434,
                          "_type" : "ScreenVMFile",
                          "src" : 1,
                          "trackNumber" : 0,
                          "attributes" : {
                            "ident" : "token_hijacking_attack"
                          },
                          "parameters" : {
                            "cursorScale" : {
                              "type" : "double",
                              "defaultValue" : 0.0,
                              "interp" : "linr"
                            },
                            "cursorOpacity" : {
                              "type" : "double",
                              "defaultValue" : 0.0,
                              "interp" : "linr"
                            }
                          },
                          "effects" : [

                          ],
                          "start" : 633,
                          "duration" : 2038,
                          "mediaStart" : 453,
                          "mediaDuration" : 2038,
                          "scalar" : 1,
                          "metadata" : {
                            "AutoAppliedSmartFocus" : "False",
                            "clipSpeedAttribute" : false
                          },
                          "animationTracks" : {

                          }
                        },
                        {
                          "id" : 435,
                          "_type" : "ScreenIMFile",
                          "src" : 1,
                          "trackNumber" : 0,
                          "trimStartSum" : 0,
                          "attributes" : {
                            "ident" : "token_hijacking_attack"
                          },
                          "parameters" : {
                            "cursorOpacity" : 0.0,
                            "cursorScale" : 0.0
                          },
                          "effects" : [

                          ],
                          "start" : 2671,
                          "duration" : 30,
                          "mediaStart" : 2491,
                          "mediaDuration" : 1,
                          "scalar" : 1,
                          "metadata" : {
                            "AutoAppliedSmartFocus" : "False"
                          },
                          "animationTracks" : {

                          }
                        },
                        {
                          "id" : 436,
                          "_type" : "ScreenVMFile",
                          "src" : 1,
                          "trackNumber" : 0,
                          "attributes" : {
                            "ident" : "token_hijacking_attack"
                          },
                          "parameters" : {
                            "cursorScale" : {
                              "type" : "double",
                              "defaultValue" : 0.0,
                              "interp" : "linr"
                            },
                            "cursorOpacity" : {
                              "type" : "double",
                              "defaultValue" : 0.0,
                              "interp" : "linr"
                            }
                          },
                          "effects" : [

                          ],
                          "start" : 2701,
                          "duration" : 386,
                          "mediaStart" : 2491,
                          "mediaDuration" : 386,
                          "scalar" : 1,
                          "metadata" : {
                            "AutoAppliedSmartFocus" : "False",
                            "clipSpeedAttribute" : false
                          },
                          "animationTracks" : {

                          }
                        },
                        {
                          "id" : 437,
                          "_type" : "ScreenIMFile",
                          "src" : 1,
                          "trackNumber" : 0,
                          "trimStartSum" : 0,
                          "attributes" : {
                            "ident" : "token_hijacking_attack"
                          },
                          "parameters" : {
                            "cursorOpacity" : 0.0,
                            "cursorScale" : 0.0
                          },
                          "effects" : [

                          ],
                          "start" : 3087,
                          "duration" : 30,
                          "mediaStart" : 2877,
                          "mediaDuration" : 1,
                          "scalar" : 1,
                          "metadata" : {
                            "AutoAppliedSmartFocus" : "False"
                          },
                          "animationTracks" : {

                          }
                        },
                        {
                          "id" : 438,
                          "_type" : "ScreenVMFile",
                          "src" : 1,
                          "trackNumber" : 0,
                          "attributes" : {
                            "ident" : "token_hijacking_attack"
                          },
                          "parameters" : {
                            "cursorScale" : {
                              "type" : "double",
                              "defaultValue" : 0.0,
                              "interp" : "linr"
                            },
                            "cursorOpacity" : {
                              "type" : "double",
                              "defaultValue" : 0.0,
                              "interp" : "linr"
                            }
                          },
                          "effects" : [

                          ],
                          "start" : 3117,
                          "duration" : 81,
                          "mediaStart" : 2877,
                          "mediaDuration" : 81,
                          "scalar" : 1,
                          "metadata" : {
                            "AutoAppliedSmartFocus" : "False",
                            "clipSpeedAttribute" : false
                          },
                          "animationTracks" : {

                          }
                        },
                        {
                          "id" : 439,
                          "_type" : "ScreenIMFile",
                          "src" : 1,
                          "trackNumber" : 0,
                          "trimStartSum" : 0,
                          "attributes" : {
                            "ident" : "token_hijacking_attack"
                          },
                          "parameters" : {
                            "cursorOpacity" : 0.0,
                            "cursorScale" : 0.0
                          },
                          "effects" : [

                          ],
                          "start" : 3198,
                          "duration" : 90,
                          "mediaStart" : 2958,
                          "mediaDuration" : 1,
                          "scalar" : 1,
                          "metadata" : {
                            "AutoAppliedSmartFocus" : "False"
                          },
                          "animationTracks" : {

                          }
                        },
                        {
                          "id" : 440,
                          "_type" : "ScreenVMFile",
                          "src" : 1,
                          "trackNumber" : 0,
                          "attributes" : {
                            "ident" : "token_hijacking_attack"
                          },
                          "parameters" : {
                            "cursorScale" : {
                              "type" : "double",
                              "defaultValue" : 0.0,
                              "interp" : "linr"
                            },
                            "cursorOpacity" : {
                              "type" : "double",
                              "defaultValue" : 0.0,
                              "interp" : "linr"
                            }
                          },
                          "effects" : [

                          ],
                          "start" : 3288,
                          "duration" : 137,
                          "mediaStart" : 2958,
                          "mediaDuration" : 137,
                          "scalar" : 1,
                          "metadata" : {
                            "AutoAppliedSmartFocus" : "False",
                            "clipSpeedAttribute" : false
                          },
                          "animationTracks" : {

                          }
                        },
                        {
                          "id" : 441,
                          "_type" : "ScreenIMFile",
                          "src" : 1,
                          "trackNumber" : 0,
                          "trimStartSum" : 0,
                          "attributes" : {
                            "ident" : "token_hijacking_attack"
                          },
                          "parameters" : {
                            "cursorOpacity" : 0.0,
                            "cursorScale" : 0.0
                          },
                          "effects" : [

                          ],
                          "start" : 3425,
                          "duration" : 240,
                          "mediaStart" : 3095,
                          "mediaDuration" : 1,
                          "scalar" : 1,
                          "metadata" : {
                            "AutoAppliedSmartFocus" : "False"
                          },
                          "animationTracks" : {

                          }
                        },
                        {
                          "id" : 442,
                          "_type" : "ScreenVMFile",
                          "src" : 1,
                          "trackNumber" : 0,
                          "attributes" : {
                            "ident" : "token_hijacking_attack"
                          },
                          "parameters" : {
                            "cursorScale" : {
                              "type" : "double",
                              "defaultValue" : 0.0,
                              "interp" : "linr"
                            },
                            "cursorOpacity" : {
                              "type" : "double",
                              "defaultValue" : 0.0,
                              "interp" : "linr"
                            }
                          },
                          "effects" : [

                          ],
                          "start" : 3665,
                          "duration" : 1447,
                          "mediaStart" : 3095,
                          "mediaDuration" : 1447,
                          "scalar" : 1,
                          "metadata" : {
                            "AutoAppliedSmartFocus" : "False",
                            "clipSpeedAttribute" : false
                          },
                          "animationTracks" : {

                          }
                        },
                        {
                          "id" : 443,
                          "_type" : "ScreenIMFile",
                          "src" : 1,
                          "trackNumber" : 0,
                          "trimStartSum" : 0,
                          "attributes" : {
                            "ident" : "token_hijacking_attack"
                          },
                          "parameters" : {
                            "cursorOpacity" : 0.0,
                            "cursorScale" : 0.0
                          },
                          "effects" : [

                          ],
                          "start" : 5112,
                          "duration" : 60,
                          "mediaStart" : 4542,
                          "mediaDuration" : 1,
                          "scalar" : 1,
                          "metadata" : {
                            "AutoAppliedSmartFocus" : "False"
                          },
                          "animationTracks" : {

                          }
                        },
                        {
                          "id" : 444,
                          "_type" : "ScreenVMFile",
                          "src" : 1,
                          "trackNumber" : 0,
                          "attributes" : {
                            "ident" : "token_hijacking_attack"
                          },
                          "parameters" : {
                            "cursorScale" : {
                              "type" : "double",
                              "defaultValue" : 0.0,
                              "interp" : "linr"
                            },
                            "cursorOpacity" : {
                              "type" : "double",
                              "defaultValue" : 0.0,
                              "interp" : "linr"
                            }
                          },
                          "effects" : [

                          ],
                          "start" : 5172,
                          "duration" : 1570897,
                          "mediaStart" : 4542,
                          "mediaDuration" : 1570897,
                          "scalar" : 1,
                          "metadata" : {
                            "AutoAppliedSmartFocus" : "False",
                            "clipSpeedAttribute" : false
                          },
                          "animationTracks" : {

                          }
                        }
                    ],
                    "effects" : [
                        {
                          "effectName" : "CursorHilight",
                          "category" : "categoryCursorEffects",
                          "parameters" : {
                            "blur" : 0.1,
                            "color-alpha" : 0.75,
                            "color-blue" : 0.0,
                            "color-green" : 1.0,
                            "color-red" : 1.0,
                            "radius" : 50.0
                          }
                        }
                    ],
                    "start" : 3002,
                    "duration" : 177,
                    "mediaStart" : 5275,
                    "mediaDuration" : 177,
                    "scalar" : 1,
                    "metadata" : {
                      "AutoAppliedSmartFocus" : "False",
                      "clipSpeedAttribute" : false
                    },
                    "animationTracks" : {
                      "visual" : [
                        {
                          "endTime" : 237,
                          "duration" : 30,
                          "range" : [ 207, 30]
                        },
                        {
                          "endTime" : 343,
                          "duration" : 30,
                          "range" : [ 313, 30]
                        },
                        {
                          "endTime" : 466,
                          "duration" : 30,
                          "range" : [ 436, 30]
                        },
                        {
                          "endTime" : 632,
                          "duration" : 30,
                          "range" : [ 602, 30]
                        },
                        {
                          "endTime" : 751,
                          "duration" : 30,
                          "range" : [ 721, 30]
                        },
                        {
                          "endTime" : 785,
                          "duration" : 30,
                          "range" : [ 755, 30]
                        },
                        {
                          "endTime" : 814,
                          "duration" : 29,
                          "range" : [ 785, 29]
                        },
                        {
                          "endTime" : 1068,
                          "duration" : 26,
                          "range" : [ 1042, 26]
                        },
                        {
                          "endTime" : 2220,
                          "duration" : 30,
                          "range" : [ 2190, 30]
                        },
                        {
                          "endTime" : 2510,
                          "duration" : 30,
                          "range" : [ 2480, 30]
                        },
                        {
                          "endTime" : 2735,
                          "duration" : 41,
                          "range" : [ 2694, 41]
                        },
                        {
                          "endTime" : 2785,
                          "duration" : 46,
                          "range" : [ 2739, 46]
                        },
                        {
                          "endTime" : 3108,
                          "duration" : 38,
                          "range" : [ 3070, 38]
                        },
                        {
                          "endTime" : 3142,
                          "duration" : 34,
                          "range" : [ 3108, 34]
                        },
                        {
                          "endTime" : 3285,
                          "duration" : 42,
                          "range" : [ 3243, 42]
                        },
                        {
                          "endTime" : 3350,
                          "duration" : 31,
                          "range" : [ 3319, 31]
                        },
                        {
                          "endTime" : 3563,
                          "duration" : 50,
                          "range" : [ 3513, 50]
                        }
                      ]
                    }
                  },
                  {
                    "id" : 445,
                    "_type" : "StitchedMedia",
                    "minMediaStart" : 0,
                    "attributes" : {
                      "ident" : "token_hijacking_attack",
                      "gain" : 1.0,
                      "mixToMono" : false
                    },
                    "parameters" : {
                      "cursorOpacity" : 1.0,
                      "cursorScale" : 1.0
                    },
                    "medias" : [
                        {
                          "id" : 446,
                          "_type" : "ScreenVMFile",
                          "src" : 1,
                          "trackNumber" : 0,
                          "attributes" : {
                            "ident" : "token_hijacking_attack"
                          },
                          "parameters" : {
                            "cursorScale" : {
                              "type" : "double",
                              "defaultValue" : 0.0,
                              "interp" : "linr"
                            },
                            "cursorOpacity" : {
                              "type" : "double",
                              "defaultValue" : 0.0,
                              "interp" : "linr"
                            }
                          },
                          "effects" : [

                          ],
                          "start" : 0,
                          "duration" : 1077820,
                          "mediaStart" : 0,
                          "mediaDuration" : 1077820,
                          "scalar" : 1,
                          "metadata" : {
                            "AutoAppliedSmartFocus" : "False",
                            "clipSpeedAttribute" : false
                          },
                          "animationTracks" : {

                          }
                        },
                        {
                          "id" : 447,
                          "_type" : "ScreenVMFile",
                          "src" : 1,
                          "trackNumber" : 0,
                          "attributes" : {
                            "ident" : "token_hijacking_attack"
                          },
                          "parameters" : {
                            "cursorScale" : {
                              "type" : "double",
                              "defaultValue" : 0.0,
                              "interp" : "linr"
                            },
                            "cursorOpacity" : {
                              "type" : "double",
                              "defaultValue" : 0.0,
                              "interp" : "linr"
                            }
                          },
                          "effects" : [

                          ],
                          "start" : 1077820,
                          "duration" : 3880,
                          "mediaStart" : 1077820,
                          "mediaDuration" : 3880,
                          "scalar" : 1,
                          "metadata" : {
                            "AutoAppliedSmartFocus" : "False",
                            "clipSpeedAttribute" : false
                          },
                          "animationTracks" : {

                          }
                        },
                        {
                          "id" : 448,
                          "_type" : "ScreenVMFile",
                          "src" : 1,
                          "trackNumber" : 0,
                          "attributes" : {
                            "ident" : "token_hijacking_attack"
                          },
                          "parameters" : {
                            "cursorScale" : {
                              "type" : "double",
                              "defaultValue" : 0.0,
                              "interp" : "linr"
                            },
                            "cursorOpacity" : {
                              "type" : "double",
                              "defaultValue" : 0.0,
                              "interp" : "linr"
                            }
                          },
                          "effects" : [

                          ],
                          "start" : 1081700,
                          "duration" : 493739,
                          "mediaStart" : 1081700,
                          "mediaDuration" : 493739,
                          "scalar" : 1,
                          "metadata" : {
                            "AutoAppliedSmartFocus" : "False",
                            "clipSpeedAttribute" : false
                          },
                          "animationTracks" : {

                          }
                        }
                    ],
                    "effects" : [
                        {
                          "effectName" : "CursorHilight",
                          "category" : "categoryCursorEffects",
                          "parameters" : {
                            "blur" : 0.1,
                            "color-alpha" : 0.75,
                            "color-blue" : 0.0,
                            "color-green" : 1.0,
                            "color-red" : 1.0,
                            "radius" : 50.0
                          }
                        }
                    ],
                    "start" : 3179,
                    "duration" : 241,
                    "mediaStart" : 4822,
                    "mediaDuration" : 1208062,
                    "scalar" : "241/1208062",
                    "metadata" : {
                      "AutoAppliedSmartFocus" : "False",
                      "clipSpeedAttribute" : true
                    },
                    "animationTracks" : {

                    }
                  },
                  {
                    "id" : 449,
                    "_type" : "StitchedMedia",
                    "minMediaStart" : 0,
                    "attributes" : {
                      "ident" : "token_hijacking_attack",
                      "gain" : 1.0,
                      "mixToMono" : false
                    },
                    "parameters" : {
                      "cursorOpacity" : 1.0,
                      "cursorScale" : 1.0
                    },
                    "medias" : [
                        {
                          "id" : 450,
                          "_type" : "ScreenVMFile",
                          "src" : 1,
                          "trackNumber" : 0,
                          "attributes" : {
                            "ident" : "token_hijacking_attack"
                          },
                          "parameters" : {
                            "cursorScale" : {
                              "type" : "double",
                              "defaultValue" : 0.0,
                              "interp" : "linr"
                            },
                            "cursorOpacity" : {
                              "type" : "double",
                              "defaultValue" : 0.0,
                              "interp" : "linr"
                            }
                          },
                          "effects" : [

                          ],
                          "start" : 0,
                          "duration" : 1077820,
                          "mediaStart" : 0,
                          "mediaDuration" : 1077820,
                          "scalar" : 1,
                          "metadata" : {
                            "AutoAppliedSmartFocus" : "False",
                            "clipSpeedAttribute" : false
                          },
                          "animationTracks" : {

                          }
                        },
                        {
                          "id" : 451,
                          "_type" : "ScreenVMFile",
                          "src" : 1,
                          "trackNumber" : 0,
                          "attributes" : {
                            "ident" : "token_hijacking_attack"
                          },
                          "parameters" : {
                            "cursorScale" : {
                              "type" : "double",
                              "defaultValue" : 0.0,
                              "interp" : "linr"
                            },
                            "cursorOpacity" : {
                              "type" : "double",
                              "defaultValue" : 0.0,
                              "interp" : "linr"
                            }
                          },
                          "effects" : [

                          ],
                          "start" : 1077820,
                          "duration" : 3880,
                          "mediaStart" : 1077820,
                          "mediaDuration" : 3880,
                          "scalar" : 1,
                          "metadata" : {
                            "AutoAppliedSmartFocus" : "False",
                            "clipSpeedAttribute" : false
                          },
                          "animationTracks" : {

                          }
                        },
                        {
                          "id" : 452,
                          "_type" : "ScreenVMFile",
                          "src" : 1,
                          "trackNumber" : 0,
                          "attributes" : {
                            "ident" : "token_hijacking_attack"
                          },
                          "parameters" : {
                            "cursorScale" : {
                              "type" : "double",
                              "defaultValue" : 0.0,
                              "interp" : "linr"
                            },
                            "cursorOpacity" : {
                              "type" : "double",
                              "defaultValue" : 0.0,
                              "interp" : "linr"
                            }
                          },
                          "effects" : [

                          ],
                          "start" : 1081700,
                          "duration" : 131405,
                          "mediaStart" : 1081700,
                          "mediaDuration" : 131405,
                          "scalar" : 1,
                          "metadata" : {
                            "AutoAppliedSmartFocus" : "False",
                            "clipSpeedAttribute" : false
                          },
                          "animationTracks" : {

                          }
                        },
                        {
                          "id" : 453,
                          "_type" : "ScreenIMFile",
                          "src" : 1,
                          "trackNumber" : 0,
                          "trimStartSum" : 0,
                          "attributes" : {
                            "ident" : "token_hijacking_attack"
                          },
                          "parameters" : {
                            "cursorOpacity" : 0.0,
                            "cursorScale" : 0.0
                          },
                          "effects" : [

                          ],
                          "start" : 1213105,
                          "duration" : 264,
                          "mediaStart" : 1213105,
                          "mediaDuration" : 1,
                          "scalar" : 1,
                          "metadata" : {
                            "AutoAppliedSmartFocus" : "False"
                          },
                          "animationTracks" : {

                          }
                        },
                        {
                          "id" : 454,
                          "_type" : "ScreenVMFile",
                          "src" : 1,
                          "trackNumber" : 0,
                          "attributes" : {
                            "ident" : "token_hijacking_attack"
                          },
                          "parameters" : {
                            "cursorScale" : {
                              "type" : "double",
                              "defaultValue" : 0.0,
                              "interp" : "linr"
                            },
                            "cursorOpacity" : {
                              "type" : "double",
                              "defaultValue" : 0.0,
                              "interp" : "linr"
                            }
                          },
                          "effects" : [

                          ],
                          "start" : 1213369,
                          "duration" : 362334,
                          "mediaStart" : 1213105,
                          "mediaDuration" : 362334,
                          "scalar" : 1,
                          "metadata" : {
                            "AutoAppliedSmartFocus" : "False",
                            "clipSpeedAttribute" : false
                          },
                          "animationTracks" : {

                          }
                        }
                    ],
                    "effects" : [
                        {
                          "effectName" : "CursorHilight",
                          "category" : "categoryCursorEffects",
                          "parameters" : {
                            "blur" : 0.1,
                            "color-alpha" : 0.75,
                            "color-blue" : 0.0,
                            "color-green" : 1.0,
                            "color-red" : 1.0,
                            "radius" : 50.0
                          }
                        }
                    ],
                    "start" : 3420,
                    "duration" : 487,
                    "mediaStart" : 1212884,
                    "mediaDuration" : 487,
                    "scalar" : 1,
                    "metadata" : {
                      "AutoAppliedSmartFocus" : "False",
                      "clipSpeedAttribute" : false
                    },
                    "animationTracks" : {

                    }
                  }
                ]
              },
              {
                "trackIndex" : 3,
                "medias" : [
                  {
                    "id" : 455,
                    "_type" : "Callout",
                    "def" : {
                      "kind" : "remix",
                      "shape" : "text",
                      "style" : "basic",
                      "height" : 130.00726744199,
                      "line-spacing" : 0.0,
                      "width" : 2063.70535714372,
                      "word-wrap" : 1.0,
                      "horizontal-alignment" : "center",
                      "resize-behavior" : "resizeText",
                      "text" : "2020",
                      "vertical-alignment" : "center",
                      "font" : {
                        "color-blue" : 1.0,
                        "color-green" : 1.0,
                        "color-red" : 1.0,
                        "size" : 96.0,
                        "tracking" : 0.0,
                        "name" : "Montserrat",
                        "weight" : "Regular"
                      },
                      "textAttributes" : {
                        "type" : "textAttributeList",
                        "keyframes" : [
                          {
                            "endTime" : 0,
                            "time" : 0,
                            "value" : [{"name":"strikethrough","rangeEnd":4,"rangeStart":0,"value":0,"valueType":"int"},{"name":"fontItalic","rangeEnd":4,"rangeStart":0,"value":0,"valueType":"int"},{"name":"fontSize","rangeEnd":4,"rangeStart":0,"value":95,"valueType":"double"},{"name":"underline","rangeEnd":4,"rangeStart":0,"value":0,"valueType":"int"},{"name":"fgColor","rangeEnd":4,"rangeStart":0,"value":"(255,255,255,255)","valueType":"color"},{"name":"fontWeight","rangeEnd":4,"rangeStart":0,"value":400,"valueType":"int"},{"name":"fontName","rangeEnd":4,"rangeStart":0,"value":"Montserrat","valueType":"string"},{"name":"kerning","rangeEnd":4,"rangeStart":0,"value":0,"valueType":"double"}],
                            "duration" : 0
                          }
                        ]
                      }
                    },
                    "attributes" : {
                      "autoRotateText" : true
                    },
                    "parameters" : {
                      "translation0" : 0.147321428072786,
                      "translation1" : -602.479651163144
                    },
                    "effects" : [
                        {
                          "effectName" : "DropShadow",
                          "category" : "categoryVisualEffects",
                          "parameters" : {
                            "angle" : 5.49778714378214,
                            "blur" : 10.0,
                            "color-alpha" : 1.0,
                            "color-blue" : 0.1216,
                            "color-green" : 0.1216,
                            "color-red" : 0.1216,
                            "enabled" : 1,
                            "offset" : 10.0,
                            "opacity" : 0.4
                          }
                        }
                    ],
                    "start" : 0,
                    "duration" : 150,
                    "mediaStart" : 0,
                    "mediaDuration" : 150,
                    "scalar" : 1,
                    "metadata" : {
                      "WinSubProjectDisplayName" : "",
                      "clipSpeedAttribute" : false,
                      "default-HAlign" : "center",
                      "default-LineSpace" : 0.0,
                      "default-VAlign" : "center",
                      "default-text-attributes" : "[{\"name\":\"strikethrough\",\"rangeEnd\":76,\"rangeStart\":0,\"value\":0,\"valueType\":\"int\"},{\"name\":\"fontItalic\",\"rangeEnd\":76,\"rangeStart\":0,\"value\":0,\"valueType\":\"int\"},{\"name\":\"fontName\",\"rangeEnd\":76,\"rangeStart\":0,\"value\":\"Montserrat\",\"valueType\":\"string\"},{\"name\":\"fgColor\",\"rangeEnd\":76,\"rangeStart\":0,\"value\":\"(255,255,255,255)\",\"valueType\":\"color\"},{\"name\":\"fontSize\",\"rangeEnd\":76,\"rangeStart\":0,\"value\":59,\"valueType\":\"double\"},{\"name\":\"underline\",\"rangeEnd\":76,\"rangeStart\":0,\"value\":0,\"valueType\":\"int\"},{\"name\":\"fontWeight\",\"rangeEnd\":76,\"rangeStart\":0,\"value\":400,\"valueType\":\"int\"}]",
                      "default-translation0" : 0.0,
                      "default-translation1" : 0.0
                    },
                    "animationTracks" : {

                    }
                  },
                  {
                    "id" : 456,
                    "_type" : "Callout",
                    "def" : {
                      "kind" : "remix",
                      "shape" : "text-rectangle",
                      "style" : "basic",
                      "fill-color-blue" : 0.270588235294118,
                      "fill-color-green" : 0.243137254901961,
                      "fill-color-opacity" : 1.0,
                      "fill-color-red" : 0.211764705882353,
                      "height" : 119.857142857064,
                      "line-spacing" : 0.0,
                      "stroke-color-blue" : 0.890196078431372,
                      "stroke-color-green" : 0.870588235294118,
                      "stroke-color-opacity" : 1.0,
                      "stroke-color-red" : 0.847058823529412,
                      "stroke-width" : 2.0,
                      "tail-x" : -540.364583333164,
                      "tail-y" : -1.42857142855225,
                      "width" : 1868.93402777686,
                      "word-wrap" : 1.0,
                      "fill-style" : "solid",
                      "horizontal-alignment" : "center",
                      "resize-behavior" : "resizeText",
                      "stroke-style" : "solid",
                      "text" : "Checking the Windows version via calling winver",
                      "vertical-alignment" : "center",
                      "font" : {
                        "color-blue" : 0.266666666666667,
                        "color-green" : 0.231372549019608,
                        "color-opacity" : 1.0,
                        "color-red" : 0.184313725490196,
                        "size" : 64.0,
                        "tracking" : 0.0,
                        "name" : "Montserrat",
                        "weight" : "Regular"
                      },
                      "textAttributes" : {
                        "type" : "textAttributeList",
                        "keyframes" : [
                          {
                            "endTime" : 0,
                            "time" : 0,
                            "value" : [{"name":"fontItalic","rangeEnd":47,"rangeStart":0,"value":0,"valueType":"int"},{"name":"strikethrough","rangeEnd":47,"rangeStart":0,"value":0,"valueType":"int"},{"name":"fgColor","rangeEnd":47,"rangeStart":0,"value":"(255,255,255,255)","valueType":"color"},{"name":"fontWeight","rangeEnd":47,"rangeStart":0,"value":400,"valueType":"int"},{"name":"fontName","rangeEnd":47,"rangeStart":0,"value":"Montserrat","valueType":"string"},{"name":"kerning","rangeEnd":47,"rangeStart":0,"value":0,"valueType":"double"},{"name":"underline","rangeEnd":47,"rangeStart":0,"value":0,"valueType":"int"},{"name":"fontSize","rangeEnd":47,"rangeStart":0,"value":80,"valueType":"double"}],
                            "duration" : 0
                          }
                        ]
                      }
                    },
                    "attributes" : {
                      "autoRotateText" : true
                    },
                    "parameters" : {
                      "translation0" : 4.98872054777166e-11,
                      "translation1" : -558.370535714465
                    },
                    "effects" : [
                        {
                          "effectName" : "DropShadow",
                          "category" : "categoryVisualEffects",
                          "parameters" : {
                            "angle" : 5.49778714378214,
                            "blur" : 10.0,
                            "color-alpha" : 1.0,
                            "color-blue" : 0.1216,
                            "color-green" : 0.1216,
                            "color-red" : 0.1216,
                            "enabled" : 1,
                            "offset" : 10.0,
                            "opacity" : 0.4
                          }
                        }
                    ],
                    "start" : 180,
                    "duration" : 75,
                    "mediaStart" : -24,
                    "mediaDuration" : 75,
                    "scalar" : 1,
                    "metadata" : {
                      "WinSubProjectDisplayName" : "",
                      "clipSpeedAttribute" : false,
                      "default-HAlign" : "center",
                      "default-LineSpace" : 0.0,
                      "default-VAlign" : "center",
                      "default-fill-color-blue" : 1.0,
                      "default-fill-color-green" : 1.0,
                      "default-fill-color-red" : 1.0,
                      "default-scale0" : 1.0,
                      "default-scale1" : 1.0,
                      "default-stroke-color-blue" : 0.56078431372549,
                      "default-stroke-color-green" : 0.686274509803922,
                      "default-stroke-color-red" : 0.0196078431372549,
                      "default-text-attributes" : "[{\"name\":\"fontSize\",\"rangeEnd\":32,\"rangeStart\":0,\"value\":64,\"valueType\":\"double\"},{\"name\":\"fgColor\",\"rangeEnd\":32,\"rangeStart\":0,\"value\":\"(255,255,255,255)\",\"valueType\":\"color\"},{\"name\":\"fontWeight\",\"rangeEnd\":32,\"rangeStart\":0,\"value\":400,\"valueType\":\"int\"},{\"name\":\"fontName\",\"rangeEnd\":32,\"rangeStart\":0,\"value\":\"Montserrat\",\"valueType\":\"string\"},{\"name\":\"fontItalic\",\"rangeEnd\":32,\"rangeStart\":0,\"value\":0,\"valueType\":\"int\"},{\"name\":\"strikethrough\",\"rangeEnd\":32,\"rangeStart\":0,\"value\":0,\"valueType\":\"int\"},{\"name\":\"underline\",\"rangeEnd\":32,\"rangeStart\":0,\"value\":0,\"valueType\":\"int\"}]",
                      "default-translation0" : 0.0,
                      "default-translation1" : 0.0
                    },
                    "animationTracks" : {

                    }
                  },
                  {
                    "id" : 457,
                    "_type" : "Callout",
                    "def" : {
                      "kind" : "remix",
                      "shape" : "text-rectangle",
                      "style" : "basic",
                      "fill-color-blue" : 0.270588235294118,
                      "fill-color-green" : 0.243137254901961,
                      "fill-color-opacity" : 1.0,
                      "fill-color-red" : 0.211764705882353,
                      "height" : 119.857142857064,
                      "line-spacing" : 0.0,
                      "stroke-color-blue" : 0.890196078431372,
                      "stroke-color-green" : 0.870588235294118,
                      "stroke-color-opacity" : 1.0,
                      "stroke-color-red" : 0.847058823529412,
                      "stroke-width" : 2.0,
                      "tail-x" : -540.364583333164,
                      "tail-y" : -1.42857142855225,
                      "width" : 1868.93402777686,
                      "word-wrap" : 1.0,
                      "fill-style" : "solid",
                      "horizontal-alignment" : "center",
                      "resize-behavior" : "resizeText",
                      "stroke-style" : "solid",
                      "text" : "We have the final version 1903",
                      "vertical-alignment" : "center",
                      "font" : {
                        "color-blue" : 0.266666666666667,
                        "color-green" : 0.231372549019608,
                        "color-opacity" : 1.0,
                        "color-red" : 0.184313725490196,
                        "size" : 64.0,
                        "tracking" : 0.0,
                        "name" : "Montserrat",
                        "weight" : "Regular"
                      },
                      "textAttributes" : {
                        "type" : "textAttributeList",
                        "keyframes" : [
                          {
                            "endTime" : 0,
                            "time" : 0,
                            "value" : [{"name":"underline","rangeEnd":30,"rangeStart":0,"value":0,"valueType":"int"},{"name":"fontItalic","rangeEnd":30,"rangeStart":0,"value":0,"valueType":"int"},{"name":"fgColor","rangeEnd":30,"rangeStart":0,"value":"(255,255,255,255)","valueType":"color"},{"name":"kerning","rangeEnd":30,"rangeStart":0,"value":0,"valueType":"double"},{"name":"strikethrough","rangeEnd":30,"rangeStart":0,"value":0,"valueType":"int"},{"name":"fontName","rangeEnd":30,"rangeStart":0,"value":"Montserrat","valueType":"string"},{"name":"fontSize","rangeEnd":30,"rangeStart":0,"value":80,"valueType":"double"},{"name":"fontWeight","rangeEnd":30,"rangeStart":0,"value":400,"valueType":"int"}],
                            "duration" : 0
                          }
                        ]
                      }
                    },
                    "attributes" : {
                      "autoRotateText" : true
                    },
                    "parameters" : {
                      "translation0" : 4.98872054777166e-11,
                      "translation1" : -558.370535714465
                    },
                    "effects" : [
                        {
                          "effectName" : "DropShadow",
                          "category" : "categoryVisualEffects",
                          "parameters" : {
                            "angle" : 5.49778714378214,
                            "blur" : 10.0,
                            "color-alpha" : 1.0,
                            "color-blue" : 0.1216,
                            "color-green" : 0.1216,
                            "color-red" : 0.1216,
                            "enabled" : 1,
                            "offset" : 10.0,
                            "opacity" : 0.4
                          }
                        }
                    ],
                    "start" : 263,
                    "duration" : 75,
                    "mediaStart" : -24,
                    "mediaDuration" : 75,
                    "scalar" : 1,
                    "metadata" : {
                      "WinSubProjectDisplayName" : "",
                      "clipSpeedAttribute" : false,
                      "default-HAlign" : "center",
                      "default-LineSpace" : 0.0,
                      "default-VAlign" : "center",
                      "default-fill-color-blue" : 1.0,
                      "default-fill-color-green" : 1.0,
                      "default-fill-color-red" : 1.0,
                      "default-scale0" : 1.0,
                      "default-scale1" : 1.0,
                      "default-stroke-color-blue" : 0.56078431372549,
                      "default-stroke-color-green" : 0.686274509803922,
                      "default-stroke-color-red" : 0.0196078431372549,
                      "default-text-attributes" : "[{\"name\":\"fontSize\",\"rangeEnd\":32,\"rangeStart\":0,\"value\":64,\"valueType\":\"double\"},{\"name\":\"fgColor\",\"rangeEnd\":32,\"rangeStart\":0,\"value\":\"(255,255,255,255)\",\"valueType\":\"color\"},{\"name\":\"fontWeight\",\"rangeEnd\":32,\"rangeStart\":0,\"value\":400,\"valueType\":\"int\"},{\"name\":\"fontName\",\"rangeEnd\":32,\"rangeStart\":0,\"value\":\"Montserrat\",\"valueType\":\"string\"},{\"name\":\"fontItalic\",\"rangeEnd\":32,\"rangeStart\":0,\"value\":0,\"valueType\":\"int\"},{\"name\":\"strikethrough\",\"rangeEnd\":32,\"rangeStart\":0,\"value\":0,\"valueType\":\"int\"},{\"name\":\"underline\",\"rangeEnd\":32,\"rangeStart\":0,\"value\":0,\"valueType\":\"int\"}]",
                      "default-translation0" : 0.0,
                      "default-translation1" : 0.0
                    },
                    "animationTracks" : {

                    }
                  },
                  {
                    "id" : 458,
                    "_type" : "Callout",
                    "def" : {
                      "kind" : "remix",
                      "shape" : "text-rectangle",
                      "style" : "basic",
                      "fill-color-blue" : 0.270588235294118,
                      "fill-color-green" : 0.243137254901961,
                      "fill-color-opacity" : 1.0,
                      "fill-color-red" : 0.211764705882353,
                      "height" : 97.0,
                      "line-spacing" : 0.0,
                      "stroke-color-blue" : 0.890196078431372,
                      "stroke-color-green" : 0.870588235294118,
                      "stroke-color-opacity" : 1.0,
                      "stroke-color-red" : 0.847058823529412,
                      "stroke-width" : 2.0,
                      "tail-x" : -540.364583333164,
                      "tail-y" : 9.99999999997954,
                      "width" : 1868.93402777686,
                      "word-wrap" : 1.0,
                      "fill-style" : "solid",
                      "horizontal-alignment" : "center",
                      "resize-behavior" : "resizeText",
                      "stroke-style" : "solid",
                      "text" : "The attacker is starting the CMD ",
                      "vertical-alignment" : "center",
                      "font" : {
                        "color-blue" : 0.266666666666667,
                        "color-green" : 0.231372549019608,
                        "color-opacity" : 1.0,
                        "color-red" : 0.184313725490196,
                        "size" : 64.0,
                        "tracking" : 0.0,
                        "name" : "Montserrat",
                        "weight" : "Regular"
                      },
                      "textAttributes" : {
                        "type" : "textAttributeList",
                        "keyframes" : [
                          {
                            "endTime" : 0,
                            "time" : 0,
                            "value" : [{"name":"fontName","rangeEnd":33,"rangeStart":0,"value":"Montserrat","valueType":"string"},{"name":"strikethrough","rangeEnd":33,"rangeStart":0,"value":0,"valueType":"int"},{"name":"underline","rangeEnd":33,"rangeStart":0,"value":0,"valueType":"int"},{"name":"fontWeight","rangeEnd":33,"rangeStart":0,"value":400,"valueType":"int"},{"name":"fgColor","rangeEnd":33,"rangeStart":0,"value":"(255,255,255,255)","valueType":"color"},{"name":"fontSize","rangeEnd":33,"rangeStart":0,"value":80,"valueType":"double"},{"name":"fontItalic","rangeEnd":33,"rangeStart":0,"value":0,"valueType":"int"}],
                            "duration" : 0
                          }
                        ]
                      }
                    },
                    "attributes" : {
                      "autoRotateText" : true
                    },
                    "parameters" : {
                      "translation0" : 3.14415160573844e-11,
                      "translation1" : -577.146045918696
                    },
                    "effects" : [
                        {
                          "effectName" : "DropShadow",
                          "category" : "categoryVisualEffects",
                          "parameters" : {
                            "angle" : 5.49778714378214,
                            "blur" : 10.0,
                            "color-alpha" : 1.0,
                            "color-blue" : 0.1216,
                            "color-green" : 0.1216,
                            "color-red" : 0.1216,
                            "enabled" : 1,
                            "offset" : 10.0,
                            "opacity" : 0.4
                          }
                        }
                    ],
                    "start" : 370,
                    "duration" : 60,
                    "mediaStart" : -26,
                    "mediaDuration" : 60,
                    "scalar" : 1,
                    "metadata" : {
                      "WinSubProjectDisplayName" : "",
                      "clipSpeedAttribute" : false,
                      "default-HAlign" : "center",
                      "default-LineSpace" : 0.0,
                      "default-VAlign" : "center",
                      "default-fill-color-blue" : 1.0,
                      "default-fill-color-green" : 1.0,
                      "default-fill-color-red" : 1.0,
                      "default-stroke-color-blue" : 0.56078431372549,
                      "default-stroke-color-green" : 0.686274509803922,
                      "default-stroke-color-red" : 0.0196078431372549,
                      "default-text-attributes" : "[{\"name\":\"fontSize\",\"rangeEnd\":32,\"rangeStart\":0,\"value\":64,\"valueType\":\"double\"},{\"name\":\"fgColor\",\"rangeEnd\":32,\"rangeStart\":0,\"value\":\"(255,255,255,255)\",\"valueType\":\"color\"},{\"name\":\"fontWeight\",\"rangeEnd\":32,\"rangeStart\":0,\"value\":400,\"valueType\":\"int\"},{\"name\":\"fontName\",\"rangeEnd\":32,\"rangeStart\":0,\"value\":\"Montserrat\",\"valueType\":\"string\"},{\"name\":\"fontItalic\",\"rangeEnd\":32,\"rangeStart\":0,\"value\":0,\"valueType\":\"int\"},{\"name\":\"strikethrough\",\"rangeEnd\":32,\"rangeStart\":0,\"value\":0,\"valueType\":\"int\"},{\"name\":\"underline\",\"rangeEnd\":32,\"rangeStart\":0,\"value\":0,\"valueType\":\"int\"}]",
                      "default-translation0" : 0.0,
                      "default-translation1" : 0.0
                    },
                    "animationTracks" : {

                    }
                  },
                  {
                    "id" : 459,
                    "_type" : "Callout",
                    "def" : {
                      "kind" : "remix",
                      "shape" : "text-rectangle",
                      "style" : "basic",
                      "fill-color-blue" : 0.270588235294118,
                      "fill-color-green" : 0.243137254901961,
                      "fill-color-opacity" : 1.0,
                      "fill-color-red" : 0.211764705882353,
                      "height" : 168.285714285471,
                      "line-spacing" : 0.0,
                      "stroke-color-blue" : 0.890196078431372,
                      "stroke-color-green" : 0.870588235294118,
                      "stroke-color-opacity" : 1.0,
                      "stroke-color-red" : 0.847058823529412,
                      "stroke-width" : 2.0,
                      "tail-x" : -972.49999999996,
                      "tail-y" : 14.7321428573166,
                      "width" : 2192.41176470925,
                      "word-wrap" : 1.0,
                      "fill-style" : "solid",
                      "horizontal-alignment" : "center",
                      "resize-behavior" : "resizeText",
                      "stroke-style" : "solid",
                      "text" : "The attacker is checking the current privileges",
                      "vertical-alignment" : "center",
                      "font" : {
                        "color-blue" : 0.266666666666667,
                        "color-green" : 0.231372549019608,
                        "color-opacity" : 1.0,
                        "color-red" : 0.184313725490196,
                        "size" : 64.0,
                        "tracking" : 0.0,
                        "name" : "Montserrat",
                        "weight" : "Regular"
                      },
                      "textAttributes" : {
                        "type" : "textAttributeList",
                        "keyframes" : [
                          {
                            "endTime" : 0,
                            "time" : 0,
                            "value" : [{"name":"underline","rangeEnd":47,"rangeStart":0,"value":0,"valueType":"int"},{"name":"fontItalic","rangeEnd":47,"rangeStart":0,"value":0,"valueType":"int"},{"name":"fgColor","rangeEnd":47,"rangeStart":0,"value":"(255,255,255,255)","valueType":"color"},{"name":"fontName","rangeEnd":47,"rangeStart":0,"value":"Montserrat","valueType":"string"},{"name":"fontWeight","rangeEnd":47,"rangeStart":0,"value":400,"valueType":"int"},{"name":"strikethrough","rangeEnd":47,"rangeStart":0,"value":0,"valueType":"int"},{"name":"fontSize","rangeEnd":47,"rangeStart":0,"value":80,"valueType":"double"}],
                            "duration" : 0
                          }
                        ]
                      }
                    },
                    "attributes" : {
                      "autoRotateText" : true
                    },
                    "parameters" : {
                      "translation0" : -7.51469997339882e-11,
                      "translation1" : -585.95982142911
                    },
                    "effects" : [
                        {
                          "effectName" : "DropShadow",
                          "category" : "categoryVisualEffects",
                          "parameters" : {
                            "angle" : 5.49778714378214,
                            "blur" : 10.0,
                            "color-alpha" : 1.0,
                            "color-blue" : 0.1216,
                            "color-green" : 0.1216,
                            "color-red" : 0.1216,
                            "enabled" : 1,
                            "offset" : 10.0,
                            "opacity" : 0.4
                          }
                        }
                    ],
                    "start" : 460,
                    "duration" : 61,
                    "mediaStart" : 0,
                    "mediaDuration" : 61,
                    "scalar" : 1,
                    "metadata" : {
                      "WinSubProjectDisplayName" : "",
                      "clipSpeedAttribute" : false,
                      "default-HAlign" : "center",
                      "default-LineSpace" : 0.0,
                      "default-VAlign" : "center",
                      "default-fill-color-blue" : 1.0,
                      "default-fill-color-green" : 1.0,
                      "default-fill-color-red" : 1.0,
                      "default-stroke-color-blue" : 0.56078431372549,
                      "default-stroke-color-green" : 0.686274509803922,
                      "default-stroke-color-red" : 0.0196078431372549,
                      "default-text-attributes" : "[{\"name\":\"fontSize\",\"rangeEnd\":32,\"rangeStart\":0,\"value\":64,\"valueType\":\"double\"},{\"name\":\"fgColor\",\"rangeEnd\":32,\"rangeStart\":0,\"value\":\"(255,255,255,255)\",\"valueType\":\"color\"},{\"name\":\"fontWeight\",\"rangeEnd\":32,\"rangeStart\":0,\"value\":400,\"valueType\":\"int\"},{\"name\":\"fontName\",\"rangeEnd\":32,\"rangeStart\":0,\"value\":\"Montserrat\",\"valueType\":\"string\"},{\"name\":\"fontItalic\",\"rangeEnd\":32,\"rangeStart\":0,\"value\":0,\"valueType\":\"int\"},{\"name\":\"strikethrough\",\"rangeEnd\":32,\"rangeStart\":0,\"value\":0,\"valueType\":\"int\"},{\"name\":\"underline\",\"rangeEnd\":32,\"rangeStart\":0,\"value\":0,\"valueType\":\"int\"}]",
                      "default-translation0" : 0.0,
                      "default-translation1" : 0.0
                    },
                    "animationTracks" : {

                    }
                  },
                  {
                    "id" : 460,
                    "_type" : "Callout",
                    "def" : {
                      "kind" : "remix",
                      "shape" : "text-rectangle",
                      "style" : "basic",
                      "fill-color-blue" : 0.270588235294118,
                      "fill-color-green" : 0.243137254901961,
                      "fill-color-opacity" : 1.0,
                      "fill-color-red" : 0.211764705882353,
                      "height" : 165.42857142877,
                      "line-spacing" : 0.0,
                      "stroke-color-blue" : 0.890196078431372,
                      "stroke-color-green" : 0.870588235294118,
                      "stroke-color-opacity" : 1.0,
                      "stroke-color-red" : 0.847058823529412,
                      "stroke-width" : 2.0,
                      "tail-x" : 193.214285714259,
                      "tail-y" : -12.4107142855627,
                      "width" : 1292.18991596858,
                      "word-wrap" : 1.0,
                      "fill-style" : "solid",
                      "horizontal-alignment" : "center",
                      "resize-behavior" : "resizeText",
                      "stroke-style" : "solid",
                      "text" : "CMD has a USER's privileges",
                      "vertical-alignment" : "center",
                      "font" : {
                        "color-blue" : 0.266666666666667,
                        "color-green" : 0.231372549019608,
                        "color-opacity" : 1.0,
                        "color-red" : 0.184313725490196,
                        "size" : 64.0,
                        "tracking" : 0.0,
                        "name" : "Montserrat",
                        "weight" : "Regular"
                      },
                      "textAttributes" : {
                        "type" : "textAttributeList",
                        "keyframes" : [
                          {
                            "endTime" : 0,
                            "time" : 0,
                            "value" : [{"name":"fontSize","rangeEnd":27,"rangeStart":0,"value":80,"valueType":"double"},{"name":"fgColor","rangeEnd":27,"rangeStart":0,"value":"(255,255,255,255)","valueType":"color"},{"name":"strikethrough","rangeEnd":27,"rangeStart":0,"value":0,"valueType":"int"},{"name":"fontWeight","rangeEnd":27,"rangeStart":0,"value":400,"valueType":"int"},{"name":"underline","rangeEnd":27,"rangeStart":0,"value":0,"valueType":"int"},{"name":"fontName","rangeEnd":27,"rangeStart":0,"value":"Montserrat","valueType":"string"},{"name":"fontItalic","rangeEnd":27,"rangeStart":0,"value":0,"valueType":"int"}],
                            "duration" : 0
                          }
                        ]
                      }
                    },
                    "attributes" : {
                      "autoRotateText" : true
                    },
                    "parameters" : {
                      "translation0" : 7.04858393874019e-12,
                      "translation1" : -584.531250000348
                    },
                    "effects" : [
                        {
                          "effectName" : "DropShadow",
                          "category" : "categoryVisualEffects",
                          "parameters" : {
                            "angle" : 5.49778714378214,
                            "blur" : 10.0,
                            "color-alpha" : 1.0,
                            "color-blue" : 0.1216,
                            "color-green" : 0.1216,
                            "color-red" : 0.1216,
                            "enabled" : 1,
                            "offset" : 10.0,
                            "opacity" : 0.4
                          }
                        }
                    ],
                    "start" : 521,
                    "duration" : 62,
                    "mediaStart" : 0,
                    "mediaDuration" : 62,
                    "scalar" : 1,
                    "metadata" : {
                      "WinSubProjectDisplayName" : "",
                      "clipSpeedAttribute" : false,
                      "default-HAlign" : "center",
                      "default-LineSpace" : 0.0,
                      "default-VAlign" : "center",
                      "default-fill-color-blue" : 1.0,
                      "default-fill-color-green" : 1.0,
                      "default-fill-color-red" : 1.0,
                      "default-stroke-color-blue" : 0.56078431372549,
                      "default-stroke-color-green" : 0.686274509803922,
                      "default-stroke-color-red" : 0.0196078431372549,
                      "default-text-attributes" : "[{\"name\":\"fontSize\",\"rangeEnd\":32,\"rangeStart\":0,\"value\":64,\"valueType\":\"double\"},{\"name\":\"fgColor\",\"rangeEnd\":32,\"rangeStart\":0,\"value\":\"(255,255,255,255)\",\"valueType\":\"color\"},{\"name\":\"fontWeight\",\"rangeEnd\":32,\"rangeStart\":0,\"value\":400,\"valueType\":\"int\"},{\"name\":\"fontName\",\"rangeEnd\":32,\"rangeStart\":0,\"value\":\"Montserrat\",\"valueType\":\"string\"},{\"name\":\"fontItalic\",\"rangeEnd\":32,\"rangeStart\":0,\"value\":0,\"valueType\":\"int\"},{\"name\":\"strikethrough\",\"rangeEnd\":32,\"rangeStart\":0,\"value\":0,\"valueType\":\"int\"},{\"name\":\"underline\",\"rangeEnd\":32,\"rangeStart\":0,\"value\":0,\"valueType\":\"int\"}]",
                      "default-translation0" : 0.0,
                      "default-translation1" : 0.0
                    },
                    "animationTracks" : {

                    }
                  },
                  {
                    "id" : 461,
                    "_type" : "Callout",
                    "def" : {
                      "kind" : "remix",
                      "shape" : "text-rectangle",
                      "style" : "basic",
                      "fill-color-blue" : 0.270588235294118,
                      "fill-color-green" : 0.243137254901961,
                      "fill-color-opacity" : 1.0,
                      "fill-color-red" : 0.211764705882353,
                      "height" : 116.857142856988,
                      "line-spacing" : 0.0,
                      "stroke-color-blue" : 0.890196078431372,
                      "stroke-color-green" : 0.870588235294118,
                      "stroke-color-opacity" : 1.0,
                      "stroke-color-red" : 0.847058823529412,
                      "stroke-width" : 2.0,
                      "tail-x" : -108.214285714422,
                      "tail-y" : 11.875000000328,
                      "width" : 1895.04705882594,
                      "word-wrap" : 1.0,
                      "fill-style" : "solid",
                      "horizontal-alignment" : "center",
                      "resize-behavior" : "resizeText",
                      "stroke-style" : "solid",
                      "text" : "Let us try to disable Windows Defender",
                      "vertical-alignment" : "center",
                      "font" : {
                        "color-blue" : 0.266666666666667,
                        "color-green" : 0.231372549019608,
                        "color-opacity" : 1.0,
                        "color-red" : 0.184313725490196,
                        "size" : 64.0,
                        "tracking" : 0.0,
                        "name" : "Montserrat",
                        "weight" : "Regular"
                      },
                      "textAttributes" : {
                        "type" : "textAttributeList",
                        "keyframes" : [
                          {
                            "endTime" : 0,
                            "time" : 0,
                            "value" : [{"name":"fgColor","rangeEnd":38,"rangeStart":0,"value":"(255,255,255,255)","valueType":"color"},{"name":"kerning","rangeEnd":38,"rangeStart":0,"value":0,"valueType":"double"},{"name":"fontWeight","rangeEnd":38,"rangeStart":0,"value":400,"valueType":"int"},{"name":"fontSize","rangeEnd":38,"rangeStart":0,"value":80,"valueType":"double"},{"name":"fontItalic","rangeEnd":38,"rangeStart":0,"value":0,"valueType":"int"},{"name":"fontName","rangeEnd":38,"rangeStart":0,"value":"Montserrat","valueType":"string"},{"name":"underline","rangeEnd":38,"rangeStart":0,"value":0,"valueType":"int"},{"name":"strikethrough","rangeEnd":38,"rangeStart":0,"value":0,"valueType":"int"}],
                            "duration" : 0
                          }
                        ]
                      }
                    },
                    "attributes" : {
                      "autoRotateText" : true
                    },
                    "parameters" : {
                      "translation0" : -3.69482222595252e-11,
                      "translation1" : -565.959821428992
                    },
                    "effects" : [
                        {
                          "effectName" : "DropShadow",
                          "category" : "categoryVisualEffects",
                          "parameters" : {
                            "angle" : 5.49778714378214,
                            "blur" : 10.0,
                            "color-alpha" : 1.0,
                            "color-blue" : 0.1216,
                            "color-green" : 0.1216,
                            "color-red" : 0.1216,
                            "enabled" : 1,
                            "offset" : 10.0,
                            "opacity" : 0.4
                          }
                        }
                    ],
                    "start" : 626,
                    "duration" : 84,
                    "mediaStart" : 0,
                    "mediaDuration" : 84,
                    "scalar" : 1,
                    "metadata" : {
                      "WinSubProjectDisplayName" : "",
                      "clipSpeedAttribute" : false,
                      "default-HAlign" : "center",
                      "default-LineSpace" : 0.0,
                      "default-VAlign" : "center",
                      "default-fill-color-blue" : 1.0,
                      "default-fill-color-green" : 1.0,
                      "default-fill-color-red" : 1.0,
                      "default-stroke-color-blue" : 0.56078431372549,
                      "default-stroke-color-green" : 0.686274509803922,
                      "default-stroke-color-red" : 0.0196078431372549,
                      "default-text-attributes" : "[{\"name\":\"fontSize\",\"rangeEnd\":32,\"rangeStart\":0,\"value\":64,\"valueType\":\"double\"},{\"name\":\"fgColor\",\"rangeEnd\":32,\"rangeStart\":0,\"value\":\"(255,255,255,255)\",\"valueType\":\"color\"},{\"name\":\"fontWeight\",\"rangeEnd\":32,\"rangeStart\":0,\"value\":400,\"valueType\":\"int\"},{\"name\":\"fontName\",\"rangeEnd\":32,\"rangeStart\":0,\"value\":\"Montserrat\",\"valueType\":\"string\"},{\"name\":\"fontItalic\",\"rangeEnd\":32,\"rangeStart\":0,\"value\":0,\"valueType\":\"int\"},{\"name\":\"strikethrough\",\"rangeEnd\":32,\"rangeStart\":0,\"value\":0,\"valueType\":\"int\"},{\"name\":\"underline\",\"rangeEnd\":32,\"rangeStart\":0,\"value\":0,\"valueType\":\"int\"}]",
                      "default-translation0" : 0.0,
                      "default-translation1" : 0.0
                    },
                    "animationTracks" : {

                    }
                  },
                  {
                    "id" : 462,
                    "_type" : "Callout",
                    "def" : {
                      "kind" : "remix",
                      "shape" : "text-rectangle",
                      "style" : "basic",
                      "fill-color-blue" : 0.270588235294118,
                      "fill-color-green" : 0.243137254901961,
                      "fill-color-opacity" : 1.0,
                      "fill-color-red" : 0.211764705882353,
                      "height" : 128.285714285438,
                      "line-spacing" : 0.0,
                      "stroke-color-blue" : 0.890196078431372,
                      "stroke-color-green" : 0.870588235294118,
                      "stroke-color-opacity" : 1.0,
                      "stroke-color-red" : 0.847058823529412,
                      "stroke-width" : 2.0,
                      "tail-x" : -85.3571428572988,
                      "tail-y" : 6.16071428610317,
                      "width" : 2237.90420168325,
                      "word-wrap" : 1.0,
                      "fill-style" : "solid",
                      "horizontal-alignment" : "center",
                      "resize-behavior" : "resizeText",
                      "stroke-style" : "solid",
                      "text" : "Copy the commands to disable Windows Defender",
                      "vertical-alignment" : "center",
                      "font" : {
                        "color-blue" : 0.266666666666667,
                        "color-green" : 0.231372549019608,
                        "color-opacity" : 1.0,
                        "color-red" : 0.184313725490196,
                        "size" : 64.0,
                        "tracking" : 0.0,
                        "name" : "Montserrat",
                        "weight" : "Regular"
                      },
                      "textAttributes" : {
                        "type" : "textAttributeList",
                        "keyframes" : [
                          {
                            "endTime" : 0,
                            "time" : 0,
                            "value" : [{"name":"kerning","rangeEnd":45,"rangeStart":0,"value":0,"valueType":"double"},{"name":"fontWeight","rangeEnd":45,"rangeStart":0,"value":400,"valueType":"int"},{"name":"fontItalic","rangeEnd":45,"rangeStart":0,"value":0,"valueType":"int"},{"name":"strikethrough","rangeEnd":45,"rangeStart":0,"value":0,"valueType":"int"},{"name":"fontName","rangeEnd":45,"rangeStart":0,"value":"Montserrat","valueType":"string"},{"name":"fontSize","rangeEnd":45,"rangeStart":0,"value":80,"valueType":"double"},{"name":"fgColor","rangeEnd":45,"rangeStart":0,"value":"(255,255,255,255)","valueType":"color"},{"name":"underline","rangeEnd":45,"rangeStart":0,"value":0,"valueType":"int"}],
                            "duration" : 0
                          }
                        ]
                      }
                    },
                    "attributes" : {
                      "autoRotateText" : true
                    },
                    "parameters" : {
                      "translation0" : -22.8571428571601,
                      "translation1" : -600.245535714824
                    },
                    "effects" : [
                        {
                          "effectName" : "DropShadow",
                          "category" : "categoryVisualEffects",
                          "parameters" : {
                            "angle" : 5.49778714378214,
                            "blur" : 10.0,
                            "color-alpha" : 1.0,
                            "color-blue" : 0.1216,
                            "color-green" : 0.1216,
                            "color-red" : 0.1216,
                            "enabled" : 1,
                            "offset" : 10.0,
                            "opacity" : 0.4
                          }
                        }
                    ],
                    "start" : 710,
                    "duration" : 64,
                    "mediaStart" : 0,
                    "mediaDuration" : 64,
                    "scalar" : 1,
                    "metadata" : {
                      "WinSubProjectDisplayName" : "",
                      "clipSpeedAttribute" : false,
                      "default-HAlign" : "center",
                      "default-LineSpace" : 0.0,
                      "default-VAlign" : "center",
                      "default-fill-color-blue" : 1.0,
                      "default-fill-color-green" : 1.0,
                      "default-fill-color-red" : 1.0,
                      "default-stroke-color-blue" : 0.56078431372549,
                      "default-stroke-color-green" : 0.686274509803922,
                      "default-stroke-color-red" : 0.0196078431372549,
                      "default-text-attributes" : "[{\"name\":\"fontSize\",\"rangeEnd\":32,\"rangeStart\":0,\"value\":64,\"valueType\":\"double\"},{\"name\":\"fgColor\",\"rangeEnd\":32,\"rangeStart\":0,\"value\":\"(255,255,255,255)\",\"valueType\":\"color\"},{\"name\":\"fontWeight\",\"rangeEnd\":32,\"rangeStart\":0,\"value\":400,\"valueType\":\"int\"},{\"name\":\"fontName\",\"rangeEnd\":32,\"rangeStart\":0,\"value\":\"Montserrat\",\"valueType\":\"string\"},{\"name\":\"fontItalic\",\"rangeEnd\":32,\"rangeStart\":0,\"value\":0,\"valueType\":\"int\"},{\"name\":\"strikethrough\",\"rangeEnd\":32,\"rangeStart\":0,\"value\":0,\"valueType\":\"int\"},{\"name\":\"underline\",\"rangeEnd\":32,\"rangeStart\":0,\"value\":0,\"valueType\":\"int\"}]",
                      "default-translation0" : 0.0,
                      "default-translation1" : 0.0
                    },
                    "animationTracks" : {

                    }
                  },
                  {
                    "id" : 463,
                    "_type" : "Callout",
                    "def" : {
                      "kind" : "remix",
                      "shape" : "text-rectangle",
                      "style" : "basic",
                      "fill-color-blue" : 0.270588235294118,
                      "fill-color-green" : 0.243137254901961,
                      "fill-color-opacity" : 1.0,
                      "fill-color-red" : 0.211764705882353,
                      "height" : 116.857142856988,
                      "line-spacing" : 0.0,
                      "stroke-color-blue" : 0.890196078431372,
                      "stroke-color-green" : 0.870588235294118,
                      "stroke-color-opacity" : 1.0,
                      "stroke-color-red" : 0.847058823529412,
                      "stroke-width" : 2.0,
                      "tail-x" : -108.214285714422,
                      "tail-y" : 11.875000000328,
                      "width" : 1895.04705882594,
                      "word-wrap" : 1.0,
                      "fill-style" : "solid",
                      "horizontal-alignment" : "center",
                      "resize-behavior" : "resizeText",
                      "stroke-style" : "solid",
                      "text" : "Let us run the commands",
                      "vertical-alignment" : "center",
                      "font" : {
                        "color-blue" : 0.266666666666667,
                        "color-green" : 0.231372549019608,
                        "color-opacity" : 1.0,
                        "color-red" : 0.184313725490196,
                        "size" : 64.0,
                        "tracking" : 0.0,
                        "name" : "Montserrat",
                        "weight" : "Regular"
                      },
                      "textAttributes" : {
                        "type" : "textAttributeList",
                        "keyframes" : [
                          {
                            "endTime" : 0,
                            "time" : 0,
                            "value" : [{"name":"kerning","rangeEnd":23,"rangeStart":0,"value":0,"valueType":"double"},{"name":"underline","rangeEnd":23,"rangeStart":0,"value":0,"valueType":"int"},{"name":"strikethrough","rangeEnd":23,"rangeStart":0,"value":0,"valueType":"int"},{"name":"fgColor","rangeEnd":23,"rangeStart":0,"value":"(255,255,255,255)","valueType":"color"},{"name":"fontSize","rangeEnd":23,"rangeStart":0,"value":80,"valueType":"double"},{"name":"fontName","rangeEnd":23,"rangeStart":0,"value":"Montserrat","valueType":"string"},{"name":"fontItalic","rangeEnd":23,"rangeStart":0,"value":0,"valueType":"int"},{"name":"fontWeight","rangeEnd":23,"rangeStart":0,"value":400,"valueType":"int"}],
                            "duration" : 0
                          }
                        ]
                      }
                    },
                    "attributes" : {
                      "autoRotateText" : true
                    },
                    "parameters" : {
                      "translation0" : -3.69482222595252e-11,
                      "translation1" : -628.816964286121
                    },
                    "effects" : [
                        {
                          "effectName" : "DropShadow",
                          "category" : "categoryVisualEffects",
                          "parameters" : {
                            "angle" : 5.49778714378214,
                            "blur" : 10.0,
                            "color-alpha" : 1.0,
                            "color-blue" : 0.1216,
                            "color-green" : 0.1216,
                            "color-red" : 0.1216,
                            "enabled" : 1,
                            "offset" : 10.0,
                            "opacity" : 0.4
                          }
                        }
                    ],
                    "start" : 790,
                    "duration" : 104,
                    "mediaStart" : 0,
                    "mediaDuration" : 104,
                    "scalar" : 1,
                    "metadata" : {
                      "WinSubProjectDisplayName" : "",
                      "clipSpeedAttribute" : false,
                      "default-HAlign" : "center",
                      "default-LineSpace" : 0.0,
                      "default-VAlign" : "center",
                      "default-fill-color-blue" : 1.0,
                      "default-fill-color-green" : 1.0,
                      "default-fill-color-red" : 1.0,
                      "default-stroke-color-blue" : 0.56078431372549,
                      "default-stroke-color-green" : 0.686274509803922,
                      "default-stroke-color-red" : 0.0196078431372549,
                      "default-text-attributes" : "[{\"name\":\"fontSize\",\"rangeEnd\":32,\"rangeStart\":0,\"value\":64,\"valueType\":\"double\"},{\"name\":\"fgColor\",\"rangeEnd\":32,\"rangeStart\":0,\"value\":\"(255,255,255,255)\",\"valueType\":\"color\"},{\"name\":\"fontWeight\",\"rangeEnd\":32,\"rangeStart\":0,\"value\":400,\"valueType\":\"int\"},{\"name\":\"fontName\",\"rangeEnd\":32,\"rangeStart\":0,\"value\":\"Montserrat\",\"valueType\":\"string\"},{\"name\":\"fontItalic\",\"rangeEnd\":32,\"rangeStart\":0,\"value\":0,\"valueType\":\"int\"},{\"name\":\"strikethrough\",\"rangeEnd\":32,\"rangeStart\":0,\"value\":0,\"valueType\":\"int\"},{\"name\":\"underline\",\"rangeEnd\":32,\"rangeStart\":0,\"value\":0,\"valueType\":\"int\"}]",
                      "default-translation0" : 0.0,
                      "default-translation1" : 0.0
                    },
                    "animationTracks" : {

                    }
                  },
                  {
                    "id" : 464,
                    "_type" : "Callout",
                    "def" : {
                      "kind" : "remix",
                      "shape" : "text-rectangle",
                      "style" : "basic",
                      "fill-color-blue" : 0.270588235294118,
                      "fill-color-green" : 0.243137254901961,
                      "fill-color-opacity" : 1.0,
                      "fill-color-red" : 0.211764705882353,
                      "height" : 114.000000000124,
                      "line-spacing" : 0.0,
                      "stroke-color-blue" : 0.890196078431372,
                      "stroke-color-green" : 0.870588235294118,
                      "stroke-color-opacity" : 1.0,
                      "stroke-color-red" : 0.847058823529412,
                      "stroke-width" : 2.0,
                      "tail-x" : 161.009843889685,
                      "tail-y" : -38.1249999998856,
                      "width" : 2431.27411718795,
                      "word-wrap" : 1.0,
                      "fill-style" : "solid",
                      "horizontal-alignment" : "center",
                      "resize-behavior" : "resizeText",
                      "stroke-style" : "solid",
                      "text" : "CMD does not have enough privileges to disable Windows Defender",
                      "vertical-alignment" : "center",
                      "font" : {
                        "color-blue" : 0.266666666666667,
                        "color-green" : 0.231372549019608,
                        "color-opacity" : 1.0,
                        "color-red" : 0.184313725490196,
                        "size" : 64.0,
                        "tracking" : 0.0,
                        "name" : "Montserrat",
                        "weight" : "Regular"
                      },
                      "textAttributes" : {
                        "type" : "textAttributeList",
                        "keyframes" : [
                          {
                            "endTime" : 0,
                            "time" : 0,
                            "value" : [{"name":"fontWeight","rangeEnd":63,"rangeStart":0,"value":400,"valueType":"int"},{"name":"kerning","rangeEnd":63,"rangeStart":0,"value":0,"valueType":"double"},{"name":"fgColor","rangeEnd":63,"rangeStart":0,"value":"(255,255,255,255)","valueType":"color"},{"name":"fontSize","rangeEnd":63,"rangeStart":0,"value":80,"valueType":"double"},{"name":"fontName","rangeEnd":63,"rangeStart":0,"value":"Montserrat","valueType":"string"},{"name":"fontItalic","rangeEnd":63,"rangeStart":0,"value":0,"valueType":"int"},{"name":"underline","rangeEnd":63,"rangeStart":0,"value":0,"valueType":"int"},{"name":"strikethrough","rangeEnd":63,"rangeStart":0,"value":0,"valueType":"int"}],
                            "duration" : 0
                          }
                        ]
                      }
                    },
                    "attributes" : {
                      "autoRotateText" : true
                    },
                    "parameters" : {
                      "translation0" : -32.0254776094361,
                      "translation1" : -628.714285714397
                    },
                    "effects" : [
                        {
                          "effectName" : "DropShadow",
                          "category" : "categoryVisualEffects",
                          "parameters" : {
                            "angle" : 5.49778714378214,
                            "blur" : 10.0,
                            "color-alpha" : 1.0,
                            "color-blue" : 0.1216,
                            "color-green" : 0.1216,
                            "color-red" : 0.1216,
                            "enabled" : 1,
                            "offset" : 10.0,
                            "opacity" : 0.4
                          }
                        }
                    ],
                    "start" : 894,
                    "duration" : 239,
                    "mediaStart" : 61,
                    "mediaDuration" : 239,
                    "scalar" : 1,
                    "metadata" : {
                      "WinSubProjectDisplayName" : "",
                      "clipSpeedAttribute" : false,
                      "default-HAlign" : "center",
                      "default-LineSpace" : 0.0,
                      "default-VAlign" : "center",
                      "default-fill-color-blue" : 1.0,
                      "default-fill-color-green" : 1.0,
                      "default-fill-color-red" : 1.0,
                      "default-stroke-color-blue" : 0.56078431372549,
                      "default-stroke-color-green" : 0.686274509803922,
                      "default-stroke-color-red" : 0.0196078431372549,
                      "default-text-attributes" : "[{\"name\":\"fontSize\",\"rangeEnd\":32,\"rangeStart\":0,\"value\":64,\"valueType\":\"double\"},{\"name\":\"fgColor\",\"rangeEnd\":32,\"rangeStart\":0,\"value\":\"(255,255,255,255)\",\"valueType\":\"color\"},{\"name\":\"fontWeight\",\"rangeEnd\":32,\"rangeStart\":0,\"value\":400,\"valueType\":\"int\"},{\"name\":\"fontName\",\"rangeEnd\":32,\"rangeStart\":0,\"value\":\"Montserrat\",\"valueType\":\"string\"},{\"name\":\"fontItalic\",\"rangeEnd\":32,\"rangeStart\":0,\"value\":0,\"valueType\":\"int\"},{\"name\":\"strikethrough\",\"rangeEnd\":32,\"rangeStart\":0,\"value\":0,\"valueType\":\"int\"},{\"name\":\"underline\",\"rangeEnd\":32,\"rangeStart\":0,\"value\":0,\"valueType\":\"int\"}]",
                      "default-translation0" : 0.0,
                      "default-translation1" : 0.0
                    },
                    "animationTracks" : {

                    }
                  },
                  {
                    "id" : 465,
                    "_type" : "Callout",
                    "def" : {
                      "kind" : "remix",
                      "shape" : "text-rectangle",
                      "style" : "basic",
                      "fill-color-blue" : 0.270588235294118,
                      "fill-color-green" : 0.243137254901961,
                      "fill-color-opacity" : 1.0,
                      "fill-color-red" : 0.211764705882353,
                      "height" : 219.714285714324,
                      "line-spacing" : 0.0,
                      "stroke-color-blue" : 0.890196078431372,
                      "stroke-color-green" : 0.870588235294118,
                      "stroke-color-opacity" : 1.0,
                      "stroke-color-red" : 0.847058823529412,
                      "stroke-width" : 2.0,
                      "tail-x" : 120.357142857012,
                      "tail-y" : -90.9821428569853,
                      "width" : 2326.26722689403,
                      "word-wrap" : 1.0,
                      "fill-style" : "solid",
                      "horizontal-alignment" : "center",
                      "resize-behavior" : "resizeText",
                      "stroke-style" : "solid",
                      "text" : "The attacker is launching the app to \rescalate process privileges",
                      "vertical-alignment" : "center",
                      "font" : {
                        "color-blue" : 0.266666666666667,
                        "color-green" : 0.231372549019608,
                        "color-opacity" : 1.0,
                        "color-red" : 0.184313725490196,
                        "size" : 64.0,
                        "tracking" : 0.0,
                        "name" : "Montserrat",
                        "weight" : "Regular"
                      },
                      "textAttributes" : {
                        "type" : "textAttributeList",
                        "keyframes" : [
                          {
                            "endTime" : 0,
                            "time" : 0,
                            "value" : [{"name":"fontItalic","rangeEnd":65,"rangeStart":0,"value":0,"valueType":"int"},{"name":"underline","rangeEnd":65,"rangeStart":0,"value":0,"valueType":"int"},{"name":"strikethrough","rangeEnd":65,"rangeStart":0,"value":0,"valueType":"int"},{"name":"fontName","rangeEnd":65,"rangeStart":0,"value":"Montserrat","valueType":"string"},{"name":"fontWeight","rangeEnd":65,"rangeStart":0,"value":400,"valueType":"int"},{"name":"kerning","rangeEnd":65,"rangeStart":0,"value":0,"valueType":"double"},{"name":"fgColor","rangeEnd":65,"rangeStart":0,"value":"(255,255,255,255)","valueType":"color"},{"name":"fontSize","rangeEnd":65,"rangeStart":0,"value":80,"valueType":"double"}],
                            "duration" : 0
                          }
                        ]
                      }
                    },
                    "attributes" : {
                      "autoRotateText" : true
                    },
                    "parameters" : {
                      "translation0" : -6.6833649725595e-11,
                      "translation1" : -575.857142857297
                    },
                    "effects" : [
                        {
                          "effectName" : "DropShadow",
                          "category" : "categoryVisualEffects",
                          "parameters" : {
                            "angle" : 5.49778714378214,
                            "blur" : 10.0,
                            "color-alpha" : 1.0,
                            "color-blue" : 0.1216,
                            "color-green" : 0.1216,
                            "color-red" : 0.1216,
                            "enabled" : 1,
                            "offset" : 10.0,
                            "opacity" : 0.4
                          }
                        }
                    ],
                    "start" : 1169,
                    "duration" : 90,
                    "mediaStart" : 61,
                    "mediaDuration" : 90,
                    "scalar" : 1,
                    "metadata" : {
                      "WinSubProjectDisplayName" : "",
                      "clipSpeedAttribute" : false,
                      "default-HAlign" : "center",
                      "default-LineSpace" : 0.0,
                      "default-VAlign" : "center",
                      "default-fill-color-blue" : 1.0,
                      "default-fill-color-green" : 1.0,
                      "default-fill-color-red" : 1.0,
                      "default-stroke-color-blue" : 0.56078431372549,
                      "default-stroke-color-green" : 0.686274509803922,
                      "default-stroke-color-red" : 0.0196078431372549,
                      "default-text-attributes" : "[{\"name\":\"fontSize\",\"rangeEnd\":32,\"rangeStart\":0,\"value\":64,\"valueType\":\"double\"},{\"name\":\"fgColor\",\"rangeEnd\":32,\"rangeStart\":0,\"value\":\"(255,255,255,255)\",\"valueType\":\"color\"},{\"name\":\"fontWeight\",\"rangeEnd\":32,\"rangeStart\":0,\"value\":400,\"valueType\":\"int\"},{\"name\":\"fontName\",\"rangeEnd\":32,\"rangeStart\":0,\"value\":\"Montserrat\",\"valueType\":\"string\"},{\"name\":\"fontItalic\",\"rangeEnd\":32,\"rangeStart\":0,\"value\":0,\"valueType\":\"int\"},{\"name\":\"strikethrough\",\"rangeEnd\":32,\"rangeStart\":0,\"value\":0,\"valueType\":\"int\"},{\"name\":\"underline\",\"rangeEnd\":32,\"rangeStart\":0,\"value\":0,\"valueType\":\"int\"}]",
                      "default-translation0" : 0.0,
                      "default-translation1" : 0.0
                    },
                    "animationTracks" : {

                    }
                  },
                  {
                    "id" : 466,
                    "_type" : "Callout",
                    "def" : {
                      "kind" : "remix",
                      "shape" : "text-rectangle",
                      "style" : "basic",
                      "fill-color-blue" : 0.270588235294118,
                      "fill-color-green" : 0.243137254901961,
                      "fill-color-opacity" : 1.0,
                      "fill-color-red" : 0.211764705882353,
                      "height" : 125.836734694081,
                      "line-spacing" : 0.0,
                      "stroke-color-blue" : 0.890196078431372,
                      "stroke-color-green" : 0.870588235294118,
                      "stroke-color-opacity" : 1.0,
                      "stroke-color-red" : 0.847058823529412,
                      "stroke-width" : 2.0,
                      "tail-x" : -709.23469387775,
                      "tail-y" : -117.51275510176,
                      "width" : 667.083553424506,
                      "word-wrap" : 1.0,
                      "fill-style" : "solid",
                      "horizontal-alignment" : "center",
                      "resize-behavior" : "resizeText",
                      "stroke-style" : "solid",
                      "text" : "Done",
                      "vertical-alignment" : "center",
                      "font" : {
                        "color-blue" : 0.266666666666667,
                        "color-green" : 0.231372549019608,
                        "color-opacity" : 1.0,
                        "color-red" : 0.184313725490196,
                        "size" : 64.0,
                        "tracking" : 0.0,
                        "name" : "Montserrat",
                        "weight" : "Regular"
                      },
                      "textAttributes" : {
                        "type" : "textAttributeList",
                        "keyframes" : [
                          {
                            "endTime" : 0,
                            "time" : 0,
                            "value" : [{"name":"fgColor","rangeEnd":4,"rangeStart":0,"value":"(255,255,255,255)","valueType":"color"},{"name":"fontSize","rangeEnd":4,"rangeStart":0,"value":80,"valueType":"double"},{"name":"fontWeight","rangeEnd":4,"rangeStart":0,"value":400,"valueType":"int"},{"name":"strikethrough","rangeEnd":4,"rangeStart":0,"value":0,"valueType":"int"},{"name":"fontName","rangeEnd":4,"rangeStart":0,"value":"Montserrat","valueType":"string"},{"name":"kerning","rangeEnd":4,"rangeStart":0,"value":0,"valueType":"double"},{"name":"underline","rangeEnd":4,"rangeStart":0,"value":0,"valueType":"int"},{"name":"fontItalic","rangeEnd":4,"rangeStart":0,"value":0,"valueType":"int"}],
                            "duration" : 0
                          }
                        ]
                      }
                    },
                    "attributes" : {
                      "autoRotateText" : true
                    },
                    "parameters" : {
                      "translation0" : 1.69393388205208e-11,
                      "translation1" : -569.734693877834
                    },
                    "effects" : [
                        {
                          "effectName" : "DropShadow",
                          "category" : "categoryVisualEffects",
                          "parameters" : {
                            "angle" : 5.49778714378214,
                            "blur" : 10.0,
                            "color-alpha" : 1.0,
                            "color-blue" : 0.1216,
                            "color-green" : 0.1216,
                            "color-red" : 0.1216,
                            "enabled" : 1,
                            "offset" : 10.0,
                            "opacity" : 0.4
                          }
                        }
                    ],
                    "start" : 1259,
                    "duration" : 56,
                    "mediaStart" : 46,
                    "mediaDuration" : 56,
                    "scalar" : 1,
                    "metadata" : {
                      "WinSubProjectDisplayName" : "",
                      "clipSpeedAttribute" : false,
                      "default-HAlign" : "center",
                      "default-LineSpace" : 0.0,
                      "default-VAlign" : "center",
                      "default-fill-color-blue" : 1.0,
                      "default-fill-color-green" : 1.0,
                      "default-fill-color-red" : 1.0,
                      "default-stroke-color-blue" : 0.56078431372549,
                      "default-stroke-color-green" : 0.686274509803922,
                      "default-stroke-color-red" : 0.0196078431372549,
                      "default-text-attributes" : "[{\"name\":\"fontSize\",\"rangeEnd\":32,\"rangeStart\":0,\"value\":64,\"valueType\":\"double\"},{\"name\":\"fgColor\",\"rangeEnd\":32,\"rangeStart\":0,\"value\":\"(255,255,255,255)\",\"valueType\":\"color\"},{\"name\":\"fontWeight\",\"rangeEnd\":32,\"rangeStart\":0,\"value\":400,\"valueType\":\"int\"},{\"name\":\"fontName\",\"rangeEnd\":32,\"rangeStart\":0,\"value\":\"Montserrat\",\"valueType\":\"string\"},{\"name\":\"fontItalic\",\"rangeEnd\":32,\"rangeStart\":0,\"value\":0,\"valueType\":\"int\"},{\"name\":\"strikethrough\",\"rangeEnd\":32,\"rangeStart\":0,\"value\":0,\"valueType\":\"int\"},{\"name\":\"underline\",\"rangeEnd\":32,\"rangeStart\":0,\"value\":0,\"valueType\":\"int\"}]",
                      "default-translation0" : 0.0,
                      "default-translation1" : 0.0
                    },
                    "animationTracks" : {

                    }
                  },
                  {
                    "id" : 467,
                    "_type" : "Callout",
                    "def" : {
                      "kind" : "remix",
                      "shape" : "text-rectangle",
                      "style" : "basic",
                      "fill-color-blue" : 0.270588235294118,
                      "fill-color-green" : 0.243137254901961,
                      "fill-color-opacity" : 1.0,
                      "fill-color-red" : 0.211764705882353,
                      "height" : 113.591836734595,
                      "line-spacing" : 0.0,
                      "stroke-color-blue" : 0.890196078431372,
                      "stroke-color-green" : 0.870588235294118,
                      "stroke-color-opacity" : 1.0,
                      "stroke-color-red" : 0.847058823529412,
                      "stroke-width" : 2.0,
                      "tail-x" : 120.357142857012,
                      "tail-y" : -37.9209183671207,
                      "width" : 2326.26722689403,
                      "word-wrap" : 1.0,
                      "fill-style" : "solid",
                      "horizontal-alignment" : "center",
                      "resize-behavior" : "resizeText",
                      "stroke-style" : "solid",
                      "text" : "The attacker is using the \"token hijacking\" command",
                      "vertical-alignment" : "center",
                      "font" : {
                        "color-blue" : 0.266666666666667,
                        "color-green" : 0.231372549019608,
                        "color-opacity" : 1.0,
                        "color-red" : 0.184313725490196,
                        "size" : 64.0,
                        "tracking" : 0.0,
                        "name" : "Montserrat",
                        "weight" : "Regular"
                      },
                      "textAttributes" : {
                        "type" : "textAttributeList",
                        "keyframes" : [
                          {
                            "endTime" : 0,
                            "time" : 0,
                            "value" : [{"name":"fontName","rangeEnd":51,"rangeStart":0,"value":"Montserrat","valueType":"string"},{"name":"underline","rangeEnd":51,"rangeStart":0,"value":0,"valueType":"int"},{"name":"strikethrough","rangeEnd":51,"rangeStart":0,"value":0,"valueType":"int"},{"name":"fontSize","rangeEnd":51,"rangeStart":0,"value":80,"valueType":"double"},{"name":"fontItalic","rangeEnd":51,"rangeStart":0,"value":0,"valueType":"int"},{"name":"kerning","rangeEnd":51,"rangeStart":0,"value":0,"valueType":"double"},{"name":"fontWeight","rangeEnd":51,"rangeStart":0,"value":400,"valueType":"int"},{"name":"fgColor","rangeEnd":51,"rangeStart":0,"value":"(255,255,255,255)","valueType":"color"}],
                            "duration" : 0
                          }
                        ]
                      }
                    },
                    "attributes" : {
                      "autoRotateText" : true
                    },
                    "parameters" : {
                      "translation0" : -6.6833649725595e-11,
                      "translation1" : -624.836734694234
                    },
                    "effects" : [
                        {
                          "effectName" : "DropShadow",
                          "category" : "categoryVisualEffects",
                          "parameters" : {
                            "angle" : 5.49778714378214,
                            "blur" : 10.0,
                            "color-alpha" : 1.0,
                            "color-blue" : 0.1216,
                            "color-green" : 0.1216,
                            "color-red" : 0.1216,
                            "enabled" : 1,
                            "offset" : 10.0,
                            "opacity" : 0.4
                          }
                        }
                    ],
                    "start" : 1315,
                    "duration" : 90,
                    "mediaStart" : 61,
                    "mediaDuration" : 90,
                    "scalar" : 1,
                    "metadata" : {
                      "WinSubProjectDisplayName" : "",
                      "clipSpeedAttribute" : false,
                      "default-HAlign" : "center",
                      "default-LineSpace" : 0.0,
                      "default-VAlign" : "center",
                      "default-fill-color-blue" : 1.0,
                      "default-fill-color-green" : 1.0,
                      "default-fill-color-red" : 1.0,
                      "default-stroke-color-blue" : 0.56078431372549,
                      "default-stroke-color-green" : 0.686274509803922,
                      "default-stroke-color-red" : 0.0196078431372549,
                      "default-text-attributes" : "[{\"name\":\"fontSize\",\"rangeEnd\":32,\"rangeStart\":0,\"value\":64,\"valueType\":\"double\"},{\"name\":\"fgColor\",\"rangeEnd\":32,\"rangeStart\":0,\"value\":\"(255,255,255,255)\",\"valueType\":\"color\"},{\"name\":\"fontWeight\",\"rangeEnd\":32,\"rangeStart\":0,\"value\":400,\"valueType\":\"int\"},{\"name\":\"fontName\",\"rangeEnd\":32,\"rangeStart\":0,\"value\":\"Montserrat\",\"valueType\":\"string\"},{\"name\":\"fontItalic\",\"rangeEnd\":32,\"rangeStart\":0,\"value\":0,\"valueType\":\"int\"},{\"name\":\"strikethrough\",\"rangeEnd\":32,\"rangeStart\":0,\"value\":0,\"valueType\":\"int\"},{\"name\":\"underline\",\"rangeEnd\":32,\"rangeStart\":0,\"value\":0,\"valueType\":\"int\"}]",
                      "default-translation0" : 0.0,
                      "default-translation1" : 0.0
                    },
                    "animationTracks" : {

                    }
                  },
                  {
                    "id" : 468,
                    "_type" : "Callout",
                    "def" : {
                      "kind" : "remix",
                      "shape" : "text-rectangle",
                      "style" : "basic",
                      "fill-color-blue" : 0.270588235294118,
                      "fill-color-green" : 0.243137254901961,
                      "fill-color-opacity" : 1.0,
                      "fill-color-red" : 0.211764705882353,
                      "height" : 124.583333333219,
                      "line-spacing" : 0.0,
                      "stroke-color-blue" : 0.890196078431372,
                      "stroke-color-green" : 0.870588235294118,
                      "stroke-color-opacity" : 1.0,
                      "stroke-color-red" : 0.847058823529412,
                      "stroke-width" : 2.0,
                      "tail-x" : -55.8333333332519,
                      "tail-y" : -7.29166666660954,
                      "width" : 946.041666666676,
                      "word-wrap" : 1.0,
                      "fill-style" : "solid",
                      "horizontal-alignment" : "center",
                      "resize-behavior" : "resizeText",
                      "stroke-style" : "solid",
                      "text" : "Getting PID",
                      "vertical-alignment" : "center",
                      "font" : {
                        "color-blue" : 0.266666666666667,
                        "color-green" : 0.231372549019608,
                        "color-opacity" : 1.0,
                        "color-red" : 0.184313725490196,
                        "size" : 64.0,
                        "tracking" : 0.0,
                        "name" : "Montserrat",
                        "weight" : "Regular"
                      },
                      "textAttributes" : {
                        "type" : "textAttributeList",
                        "keyframes" : [
                          {
                            "endTime" : 0,
                            "time" : 0,
                            "value" : [{"name":"kerning","rangeEnd":11,"rangeStart":0,"value":0,"valueType":"double"},{"name":"fontName","rangeEnd":11,"rangeStart":0,"value":"Montserrat","valueType":"string"},{"name":"fontSize","rangeEnd":11,"rangeStart":0,"value":80,"valueType":"double"},{"name":"fontWeight","rangeEnd":11,"rangeStart":0,"value":400,"valueType":"int"},{"name":"fontItalic","rangeEnd":11,"rangeStart":0,"value":0,"valueType":"int"},{"name":"underline","rangeEnd":11,"rangeStart":0,"value":0,"valueType":"int"},{"name":"fgColor","rangeEnd":11,"rangeStart":0,"value":"(255,255,255,255)","valueType":"color"},{"name":"strikethrough","rangeEnd":11,"rangeStart":0,"value":0,"valueType":"int"}],
                            "duration" : 0
                          }
                        ]
                      }
                    },
                    "attributes" : {
                      "autoRotateText" : true
                    },
                    "parameters" : {
                      "translation0" : -2.00941485672956e-10,
                      "translation1" : -577.269345238469
                    },
                    "effects" : [
                        {
                          "effectName" : "DropShadow",
                          "category" : "categoryVisualEffects",
                          "parameters" : {
                            "angle" : 5.49778714378214,
                            "blur" : 10.0,
                            "color-alpha" : 1.0,
                            "color-blue" : 0.1216,
                            "color-green" : 0.1216,
                            "color-red" : 0.1216,
                            "enabled" : 1,
                            "offset" : 10.0,
                            "opacity" : 0.4
                          }
                        }
                    ],
                    "start" : 1446,
                    "duration" : 132,
                    "mediaStart" : 29,
                    "mediaDuration" : 132,
                    "scalar" : 1,
                    "metadata" : {
                      "WinSubProjectDisplayName" : "",
                      "clipSpeedAttribute" : false,
                      "default-HAlign" : "center",
                      "default-LineSpace" : 0.0,
                      "default-VAlign" : "center",
                      "default-fill-color-blue" : 1.0,
                      "default-fill-color-green" : 1.0,
                      "default-fill-color-red" : 1.0,
                      "default-scale0" : 1.0,
                      "default-scale1" : 1.0,
                      "default-stroke-color-blue" : 0.56078431372549,
                      "default-stroke-color-green" : 0.686274509803922,
                      "default-stroke-color-red" : 0.0196078431372549,
                      "default-text-attributes" : "[{\"name\":\"fontSize\",\"rangeEnd\":32,\"rangeStart\":0,\"value\":64,\"valueType\":\"double\"},{\"name\":\"fgColor\",\"rangeEnd\":32,\"rangeStart\":0,\"value\":\"(255,255,255,255)\",\"valueType\":\"color\"},{\"name\":\"fontWeight\",\"rangeEnd\":32,\"rangeStart\":0,\"value\":400,\"valueType\":\"int\"},{\"name\":\"fontName\",\"rangeEnd\":32,\"rangeStart\":0,\"value\":\"Montserrat\",\"valueType\":\"string\"},{\"name\":\"fontItalic\",\"rangeEnd\":32,\"rangeStart\":0,\"value\":0,\"valueType\":\"int\"},{\"name\":\"strikethrough\",\"rangeEnd\":32,\"rangeStart\":0,\"value\":0,\"valueType\":\"int\"},{\"name\":\"underline\",\"rangeEnd\":32,\"rangeStart\":0,\"value\":0,\"valueType\":\"int\"}]",
                      "default-translation0" : 0.0,
                      "default-translation1" : 0.0
                    },
                    "animationTracks" : {

                    }
                  },
                  {
                    "id" : 469,
                    "_type" : "Callout",
                    "def" : {
                      "kind" : "remix",
                      "shape" : "text-rectangle",
                      "style" : "basic",
                      "fill-color-blue" : 0.270588235294118,
                      "fill-color-green" : 0.243137254901961,
                      "fill-color-opacity" : 1.0,
                      "fill-color-red" : 0.211764705882353,
                      "height" : 124.583333333219,
                      "line-spacing" : 0.0,
                      "stroke-color-blue" : 0.890196078431372,
                      "stroke-color-green" : 0.870588235294118,
                      "stroke-color-opacity" : 1.0,
                      "stroke-color-red" : 0.847058823529412,
                      "stroke-width" : 2.0,
                      "tail-x" : -55.8333333332519,
                      "tail-y" : -7.29166666660954,
                      "width" : 946.041666666676,
                      "word-wrap" : 1.0,
                      "fill-style" : "solid",
                      "horizontal-alignment" : "center",
                      "resize-behavior" : "resizeText",
                      "stroke-style" : "solid",
                      "text" : "Copying the PID",
                      "vertical-alignment" : "center",
                      "font" : {
                        "color-blue" : 0.266666666666667,
                        "color-green" : 0.231372549019608,
                        "color-opacity" : 1.0,
                        "color-red" : 0.184313725490196,
                        "size" : 64.0,
                        "tracking" : 0.0,
                        "name" : "Montserrat",
                        "weight" : "Regular"
                      },
                      "textAttributes" : {
                        "type" : "textAttributeList",
                        "keyframes" : [
                          {
                            "endTime" : 0,
                            "time" : 0,
                            "value" : [{"name":"fontSize","rangeEnd":15,"rangeStart":0,"value":80,"valueType":"double"},{"name":"fontItalic","rangeEnd":15,"rangeStart":0,"value":0,"valueType":"int"},{"name":"strikethrough","rangeEnd":15,"rangeStart":0,"value":0,"valueType":"int"},{"name":"fontName","rangeEnd":15,"rangeStart":0,"value":"Montserrat","valueType":"string"},{"name":"underline","rangeEnd":15,"rangeStart":0,"value":0,"valueType":"int"},{"name":"fontWeight","rangeEnd":15,"rangeStart":0,"value":400,"valueType":"int"},{"name":"fgColor","rangeEnd":15,"rangeStart":0,"value":"(255,255,255,255)","valueType":"color"}],
                            "duration" : 0
                          }
                        ]
                      }
                    },
                    "attributes" : {
                      "autoRotateText" : true
                    },
                    "parameters" : {
                      "translation0" : -2.00941485672956e-10,
                      "translation1" : -565.024447279048
                    },
                    "effects" : [
                        {
                          "effectName" : "DropShadow",
                          "category" : "categoryVisualEffects",
                          "parameters" : {
                            "angle" : 5.49778714378214,
                            "blur" : 10.0,
                            "color-alpha" : 1.0,
                            "color-blue" : 0.1216,
                            "color-green" : 0.1216,
                            "color-red" : 0.1216,
                            "enabled" : 1,
                            "offset" : 10.0,
                            "opacity" : 0.4
                          }
                        }
                    ],
                    "start" : 1582,
                    "duration" : 71,
                    "mediaStart" : 29,
                    "mediaDuration" : 71,
                    "scalar" : 1,
                    "metadata" : {
                      "WinSubProjectDisplayName" : "",
                      "clipSpeedAttribute" : false,
                      "default-HAlign" : "center",
                      "default-LineSpace" : 0.0,
                      "default-VAlign" : "center",
                      "default-fill-color-blue" : 1.0,
                      "default-fill-color-green" : 1.0,
                      "default-fill-color-red" : 1.0,
                      "default-stroke-color-blue" : 0.56078431372549,
                      "default-stroke-color-green" : 0.686274509803922,
                      "default-stroke-color-red" : 0.0196078431372549,
                      "default-text-attributes" : "[{\"name\":\"fontSize\",\"rangeEnd\":32,\"rangeStart\":0,\"value\":64,\"valueType\":\"double\"},{\"name\":\"fgColor\",\"rangeEnd\":32,\"rangeStart\":0,\"value\":\"(255,255,255,255)\",\"valueType\":\"color\"},{\"name\":\"fontWeight\",\"rangeEnd\":32,\"rangeStart\":0,\"value\":400,\"valueType\":\"int\"},{\"name\":\"fontName\",\"rangeEnd\":32,\"rangeStart\":0,\"value\":\"Montserrat\",\"valueType\":\"string\"},{\"name\":\"fontItalic\",\"rangeEnd\":32,\"rangeStart\":0,\"value\":0,\"valueType\":\"int\"},{\"name\":\"strikethrough\",\"rangeEnd\":32,\"rangeStart\":0,\"value\":0,\"valueType\":\"int\"},{\"name\":\"underline\",\"rangeEnd\":32,\"rangeStart\":0,\"value\":0,\"valueType\":\"int\"}]",
                      "default-translation0" : 0.0,
                      "default-translation1" : 0.0
                    },
                    "animationTracks" : {

                    }
                  },
                  {
                    "id" : 470,
                    "_type" : "Callout",
                    "def" : {
                      "kind" : "remix",
                      "shape" : "text-rectangle",
                      "style" : "basic",
                      "fill-color-blue" : 0.270588235294118,
                      "fill-color-green" : 0.243137254901961,
                      "fill-color-opacity" : 1.0,
                      "fill-color-red" : 0.211764705882353,
                      "height" : 142.979591836707,
                      "line-spacing" : 0.0,
                      "stroke-color-blue" : 0.890196078431372,
                      "stroke-color-green" : 0.870588235294118,
                      "stroke-color-opacity" : 1.0,
                      "stroke-color-red" : 0.847058823529412,
                      "stroke-width" : 2.0,
                      "tail-x" : -984.697088469861,
                      "tail-y" : 27.3852040816988,
                      "width" : 1853.7318734845,
                      "word-wrap" : 1.0,
                      "fill-style" : "solid",
                      "horizontal-alignment" : "center",
                      "resize-behavior" : "resizeText",
                      "stroke-style" : "solid",
                      "text" : "The attacker is using PID to hijack the TOKEN",
                      "vertical-alignment" : "center",
                      "font" : {
                        "color-blue" : 0.266666666666667,
                        "color-green" : 0.231372549019608,
                        "color-opacity" : 1.0,
                        "color-red" : 0.184313725490196,
                        "size" : 64.0,
                        "tracking" : 0.0,
                        "name" : "Montserrat",
                        "weight" : "Regular"
                      },
                      "textAttributes" : {
                        "type" : "textAttributeList",
                        "keyframes" : [
                          {
                            "endTime" : 0,
                            "time" : 0,
                            "value" : [{"name":"underline","rangeEnd":45,"rangeStart":0,"value":0,"valueType":"int"},{"name":"fontSize","rangeEnd":45,"rangeStart":0,"value":80,"valueType":"double"},{"name":"kerning","rangeEnd":45,"rangeStart":0,"value":0,"valueType":"double"},{"name":"fontName","rangeEnd":45,"rangeStart":0,"value":"Montserrat","valueType":"string"},{"name":"fontWeight","rangeEnd":45,"rangeStart":0,"value":400,"valueType":"int"},{"name":"strikethrough","rangeEnd":45,"rangeStart":0,"value":0,"valueType":"int"},{"name":"fontItalic","rangeEnd":45,"rangeStart":0,"value":0,"valueType":"int"},{"name":"fgColor","rangeEnd":45,"rangeStart":0,"value":"(255,255,255,255)","valueType":"color"}],
                            "duration" : 0
                          }
                        ]
                      }
                    },
                    "attributes" : {
                      "autoRotateText" : true
                    },
                    "parameters" : {
                      "translation0" : -3.08517655867036e-11,
                      "translation1" : -604.73533163315
                    },
                    "effects" : [
                        {
                          "effectName" : "DropShadow",
                          "category" : "categoryVisualEffects",
                          "parameters" : {
                            "angle" : 5.49778714378214,
                            "blur" : 10.0,
                            "color-alpha" : 1.0,
                            "color-blue" : 0.1216,
                            "color-green" : 0.1216,
                            "color-red" : 0.1216,
                            "enabled" : 1,
                            "offset" : 10.0,
                            "opacity" : 0.4
                          }
                        }
                    ],
                    "start" : 1666,
                    "duration" : 211,
                    "mediaStart" : -53,
                    "mediaDuration" : 211,
                    "scalar" : 1,
                    "metadata" : {
                      "WinSubProjectDisplayName" : "",
                      "clipSpeedAttribute" : false,
                      "default-HAlign" : "center",
                      "default-LineSpace" : 0.0,
                      "default-VAlign" : "center",
                      "default-fill-color-blue" : 1.0,
                      "default-fill-color-green" : 1.0,
                      "default-fill-color-red" : 1.0,
                      "default-scale0" : 1.0,
                      "default-scale1" : 1.0,
                      "default-stroke-color-blue" : 0.56078431372549,
                      "default-stroke-color-green" : 0.686274509803922,
                      "default-stroke-color-red" : 0.0196078431372549,
                      "default-text-attributes" : "[{\"name\":\"fontSize\",\"rangeEnd\":32,\"rangeStart\":0,\"value\":64,\"valueType\":\"double\"},{\"name\":\"fgColor\",\"rangeEnd\":32,\"rangeStart\":0,\"value\":\"(255,255,255,255)\",\"valueType\":\"color\"},{\"name\":\"fontWeight\",\"rangeEnd\":32,\"rangeStart\":0,\"value\":400,\"valueType\":\"int\"},{\"name\":\"fontName\",\"rangeEnd\":32,\"rangeStart\":0,\"value\":\"Montserrat\",\"valueType\":\"string\"},{\"name\":\"fontItalic\",\"rangeEnd\":32,\"rangeStart\":0,\"value\":0,\"valueType\":\"int\"},{\"name\":\"strikethrough\",\"rangeEnd\":32,\"rangeStart\":0,\"value\":0,\"valueType\":\"int\"},{\"name\":\"underline\",\"rangeEnd\":32,\"rangeStart\":0,\"value\":0,\"valueType\":\"int\"}]",
                      "default-translation0" : 0.0,
                      "default-translation1" : 0.0
                    },
                    "animationTracks" : {

                    }
                  },
                  {
                    "id" : 471,
                    "_type" : "Callout",
                    "def" : {
                      "kind" : "remix",
                      "shape" : "text-rectangle",
                      "style" : "basic",
                      "fill-color-blue" : 0.270588235294118,
                      "fill-color-green" : 0.243137254901961,
                      "fill-color-opacity" : 1.0,
                      "fill-color-red" : 0.211764705882353,
                      "height" : 132.780612244727,
                      "line-spacing" : 0.0,
                      "stroke-color-blue" : 0.890196078431372,
                      "stroke-color-green" : 0.870588235294118,
                      "stroke-color-opacity" : 1.0,
                      "stroke-color-red" : 0.847058823529412,
                      "stroke-width" : 2.0,
                      "tail-x" : 131.377551020394,
                      "tail-y" : -11.3903061223635,
                      "width" : 571.619897959379,
                      "word-wrap" : 1.0,
                      "fill-style" : "solid",
                      "horizontal-alignment" : "center",
                      "resize-behavior" : "resizeText",
                      "stroke-style" : "solid",
                      "text" : "Done",
                      "vertical-alignment" : "center",
                      "font" : {
                        "color-blue" : 0.266666666666667,
                        "color-green" : 0.231372549019608,
                        "color-opacity" : 1.0,
                        "color-red" : 0.184313725490196,
                        "size" : 64.0,
                        "tracking" : 0.0,
                        "name" : "Montserrat",
                        "weight" : "Regular"
                      },
                      "textAttributes" : {
                        "type" : "textAttributeList",
                        "keyframes" : [
                          {
                            "endTime" : 0,
                            "time" : 0,
                            "value" : [{"name":"fontItalic","rangeEnd":4,"rangeStart":0,"value":0,"valueType":"int"},{"name":"kerning","rangeEnd":4,"rangeStart":0,"value":0,"valueType":"double"},{"name":"underline","rangeEnd":4,"rangeStart":0,"value":0,"valueType":"int"},{"name":"fontWeight","rangeEnd":4,"rangeStart":0,"value":400,"valueType":"int"},{"name":"fontSize","rangeEnd":4,"rangeStart":0,"value":80,"valueType":"double"},{"name":"strikethrough","rangeEnd":4,"rangeStart":0,"value":0,"valueType":"int"},{"name":"fgColor","rangeEnd":4,"rangeStart":0,"value":"(255,255,255,255)","valueType":"color"},{"name":"fontName","rangeEnd":4,"rangeStart":0,"value":"Montserrat","valueType":"string"}],
                            "duration" : 0
                          }
                        ]
                      }
                    },
                    "attributes" : {
                      "autoRotateText" : true
                    },
                    "parameters" : {
                      "translation0" : 9.76569936028682e-11,
                      "translation1" : -608.816964286348
                    },
                    "effects" : [
                        {
                          "effectName" : "DropShadow",
                          "category" : "categoryVisualEffects",
                          "parameters" : {
                            "angle" : 5.49778714378214,
                            "blur" : 10.0,
                            "color-alpha" : 1.0,
                            "color-blue" : 0.1216,
                            "color-green" : 0.1216,
                            "color-red" : 0.1216,
                            "enabled" : 1,
                            "offset" : 10.0,
                            "opacity" : 0.4
                          }
                        }
                    ],
                    "start" : 1886,
                    "duration" : 45,
                    "mediaStart" : -4,
                    "mediaDuration" : 45,
                    "scalar" : 1,
                    "metadata" : {
                      "WinSubProjectDisplayName" : "",
                      "clipSpeedAttribute" : false,
                      "default-HAlign" : "center",
                      "default-LineSpace" : 0.0,
                      "default-VAlign" : "center",
                      "default-fill-color-blue" : 1.0,
                      "default-fill-color-green" : 1.0,
                      "default-fill-color-red" : 1.0,
                      "default-scale0" : 1.0,
                      "default-scale1" : 1.0,
                      "default-stroke-color-blue" : 0.56078431372549,
                      "default-stroke-color-green" : 0.686274509803922,
                      "default-stroke-color-red" : 0.0196078431372549,
                      "default-text-attributes" : "[{\"name\":\"fontSize\",\"rangeEnd\":32,\"rangeStart\":0,\"value\":64,\"valueType\":\"double\"},{\"name\":\"fgColor\",\"rangeEnd\":32,\"rangeStart\":0,\"value\":\"(255,255,255,255)\",\"valueType\":\"color\"},{\"name\":\"fontWeight\",\"rangeEnd\":32,\"rangeStart\":0,\"value\":400,\"valueType\":\"int\"},{\"name\":\"fontName\",\"rangeEnd\":32,\"rangeStart\":0,\"value\":\"Montserrat\",\"valueType\":\"string\"},{\"name\":\"fontItalic\",\"rangeEnd\":32,\"rangeStart\":0,\"value\":0,\"valueType\":\"int\"},{\"name\":\"strikethrough\",\"rangeEnd\":32,\"rangeStart\":0,\"value\":0,\"valueType\":\"int\"},{\"name\":\"underline\",\"rangeEnd\":32,\"rangeStart\":0,\"value\":0,\"valueType\":\"int\"}]",
                      "default-translation0" : 0.0,
                      "default-translation1" : 0.0
                    },
                    "animationTracks" : {

                    }
                  },
                  {
                    "id" : 472,
                    "_type" : "Callout",
                    "def" : {
                      "kind" : "remix",
                      "shape" : "text-rectangle",
                      "style" : "basic",
                      "fill-color-blue" : 0.270588235294118,
                      "fill-color-green" : 0.243137254901961,
                      "fill-color-opacity" : 1.0,
                      "fill-color-red" : 0.211764705882353,
                      "height" : 140.938775510098,
                      "line-spacing" : 0.0,
                      "stroke-color-blue" : 0.890196078431372,
                      "stroke-color-green" : 0.870588235294118,
                      "stroke-color-opacity" : 1.0,
                      "stroke-color-red" : 0.847058823529412,
                      "stroke-width" : 2.0,
                      "tail-x" : -903.316326530609,
                      "tail-y" : 20.2423469390368,
                      "width" : 1902.90324705241,
                      "word-wrap" : 1.0,
                      "fill-style" : "solid",
                      "horizontal-alignment" : "center",
                      "resize-behavior" : "resizeText",
                      "stroke-style" : "solid",
                      "text" : "The attacker is checking the privileges again",
                      "vertical-alignment" : "center",
                      "font" : {
                        "color-blue" : 0.266666666666667,
                        "color-green" : 0.231372549019608,
                        "color-opacity" : 1.0,
                        "color-red" : 0.184313725490196,
                        "size" : 64.0,
                        "tracking" : 0.0,
                        "name" : "Montserrat",
                        "weight" : "Regular"
                      },
                      "textAttributes" : {
                        "type" : "textAttributeList",
                        "keyframes" : [
                          {
                            "endTime" : 0,
                            "time" : 0,
                            "value" : [{"name":"fontName","rangeEnd":45,"rangeStart":0,"value":"Montserrat","valueType":"string"},{"name":"fgColor","rangeEnd":45,"rangeStart":0,"value":"(255,255,255,255)","valueType":"color"},{"name":"fontSize","rangeEnd":45,"rangeStart":0,"value":80,"valueType":"double"},{"name":"strikethrough","rangeEnd":45,"rangeStart":0,"value":0,"valueType":"int"},{"name":"fontItalic","rangeEnd":45,"rangeStart":0,"value":0,"valueType":"int"},{"name":"underline","rangeEnd":45,"rangeStart":0,"value":0,"valueType":"int"},{"name":"fontWeight","rangeEnd":45,"rangeStart":0,"value":400,"valueType":"int"}],
                            "duration" : 0
                          }
                        ]
                      }
                    },
                    "attributes" : {
                      "autoRotateText" : true
                    },
                    "parameters" : {
                      "translation0" : 1.45291778608225e-10,
                      "translation1" : -618.918367347183
                    },
                    "effects" : [
                        {
                          "effectName" : "DropShadow",
                          "category" : "categoryVisualEffects",
                          "parameters" : {
                            "angle" : 5.49778714378214,
                            "blur" : 10.0,
                            "color-alpha" : 1.0,
                            "color-blue" : 0.1216,
                            "color-green" : 0.1216,
                            "color-red" : 0.1216,
                            "enabled" : 1,
                            "offset" : 10.0,
                            "opacity" : 0.4
                          }
                        }
                    ],
                    "start" : 1938,
                    "duration" : 128,
                    "mediaStart" : 3,
                    "mediaDuration" : 128,
                    "scalar" : 1,
                    "metadata" : {
                      "WinSubProjectDisplayName" : "",
                      "clipSpeedAttribute" : false,
                      "default-HAlign" : "center",
                      "default-LineSpace" : 0.0,
                      "default-VAlign" : "center",
                      "default-fill-color-blue" : 1.0,
                      "default-fill-color-green" : 1.0,
                      "default-fill-color-red" : 1.0,
                      "default-scale0" : 1.0,
                      "default-scale1" : 1.0,
                      "default-stroke-color-blue" : 0.56078431372549,
                      "default-stroke-color-green" : 0.686274509803922,
                      "default-stroke-color-red" : 0.0196078431372549,
                      "default-text-attributes" : "[{\"name\":\"fontSize\",\"rangeEnd\":32,\"rangeStart\":0,\"value\":64,\"valueType\":\"double\"},{\"name\":\"fgColor\",\"rangeEnd\":32,\"rangeStart\":0,\"value\":\"(255,255,255,255)\",\"valueType\":\"color\"},{\"name\":\"fontWeight\",\"rangeEnd\":32,\"rangeStart\":0,\"value\":400,\"valueType\":\"int\"},{\"name\":\"fontName\",\"rangeEnd\":32,\"rangeStart\":0,\"value\":\"Montserrat\",\"valueType\":\"string\"},{\"name\":\"fontItalic\",\"rangeEnd\":32,\"rangeStart\":0,\"value\":0,\"valueType\":\"int\"},{\"name\":\"strikethrough\",\"rangeEnd\":32,\"rangeStart\":0,\"value\":0,\"valueType\":\"int\"},{\"name\":\"underline\",\"rangeEnd\":32,\"rangeStart\":0,\"value\":0,\"valueType\":\"int\"}]",
                      "default-translation0" : 0.0,
                      "default-translation1" : 0.0
                    },
                    "animationTracks" : {

                    }
                  },
                  {
                    "id" : 473,
                    "_type" : "Callout",
                    "def" : {
                      "kind" : "remix",
                      "shape" : "text-rectangle",
                      "style" : "basic",
                      "fill-color-blue" : 0.0,
                      "fill-color-green" : 0.0,
                      "fill-color-opacity" : 1.0,
                      "fill-color-red" : 0.6,
                      "height" : 153.183673469342,
                      "line-spacing" : 0.0,
                      "stroke-color-blue" : 0.890196078431372,
                      "stroke-color-green" : 0.870588235294118,
                      "stroke-color-opacity" : 1.0,
                      "stroke-color-red" : 0.847058823529412,
                      "stroke-width" : 2.0,
                      "tail-x" : -1087.99319727884,
                      "tail-y" : 22.2831632653812,
                      "width" : 1863.6959583866,
                      "word-wrap" : 1.0,
                      "fill-style" : "solid",
                      "horizontal-alignment" : "center",
                      "resize-behavior" : "resizeText",
                      "stroke-style" : "solid",
                      "text" : "CMD has NT AUTHORITY\\SYSTEM privileges",
                      "vertical-alignment" : "center",
                      "font" : {
                        "color-blue" : 0.266666666666667,
                        "color-green" : 0.231372549019608,
                        "color-opacity" : 1.0,
                        "color-red" : 0.184313725490196,
                        "size" : 64.0,
                        "tracking" : 0.0,
                        "name" : "Montserrat",
                        "weight" : "Regular"
                      },
                      "textAttributes" : {
                        "type" : "textAttributeList",
                        "keyframes" : [
                          {
                            "endTime" : 0,
                            "time" : 0,
                            "value" : [{"name":"strikethrough","rangeEnd":38,"rangeStart":0,"value":0,"valueType":"int"},{"name":"fgColor","rangeEnd":38,"rangeStart":0,"value":"(255,255,255,255)","valueType":"color"},{"name":"fontWeight","rangeEnd":38,"rangeStart":0,"value":400,"valueType":"int"},{"name":"fontItalic","rangeEnd":38,"rangeStart":0,"value":0,"valueType":"int"},{"name":"fontSize","rangeEnd":38,"rangeStart":0,"value":80,"valueType":"double"},{"name":"underline","rangeEnd":38,"rangeStart":0,"value":0,"valueType":"int"},{"name":"fontName","rangeEnd":38,"rangeStart":0,"value":"Montserrat","valueType":"string"}],
                            "duration" : 0
                          }
                        ]
                      }
                    },
                    "attributes" : {
                      "autoRotateText" : true
                    },
                    "parameters" : {
                      "translation0" : 3.71755959349684e-11,
                      "translation1" : -591.470025510581
                    },
                    "effects" : [
                        {
                          "effectName" : "DropShadow",
                          "category" : "categoryVisualEffects",
                          "parameters" : {
                            "angle" : 5.49778714378214,
                            "blur" : 10.0,
                            "color-alpha" : 1.0,
                            "color-blue" : 0.1216,
                            "color-green" : 0.1216,
                            "color-red" : 0.1216,
                            "enabled" : 1,
                            "offset" : 10.0,
                            "opacity" : 0.4
                          }
                        }
                    ],
                    "start" : 2095,
                    "duration" : 169,
                    "mediaStart" : -85,
                    "mediaDuration" : 169,
                    "scalar" : 1,
                    "metadata" : {
                      "WinSubProjectDisplayName" : "",
                      "clipSpeedAttribute" : false,
                      "default-HAlign" : "center",
                      "default-LineSpace" : 0.0,
                      "default-VAlign" : "center",
                      "default-fill-color-blue" : 1.0,
                      "default-fill-color-green" : 1.0,
                      "default-fill-color-red" : 1.0,
                      "default-scale0" : 1.0,
                      "default-scale1" : 1.0,
                      "default-stroke-color-blue" : 0.56078431372549,
                      "default-stroke-color-green" : 0.686274509803922,
                      "default-stroke-color-red" : 0.0196078431372549,
                      "default-text-attributes" : "[{\"name\":\"fontSize\",\"rangeEnd\":32,\"rangeStart\":0,\"value\":64,\"valueType\":\"double\"},{\"name\":\"fgColor\",\"rangeEnd\":32,\"rangeStart\":0,\"value\":\"(255,255,255,255)\",\"valueType\":\"color\"},{\"name\":\"fontWeight\",\"rangeEnd\":32,\"rangeStart\":0,\"value\":400,\"valueType\":\"int\"},{\"name\":\"fontName\",\"rangeEnd\":32,\"rangeStart\":0,\"value\":\"Montserrat\",\"valueType\":\"string\"},{\"name\":\"fontItalic\",\"rangeEnd\":32,\"rangeStart\":0,\"value\":0,\"valueType\":\"int\"},{\"name\":\"strikethrough\",\"rangeEnd\":32,\"rangeStart\":0,\"value\":0,\"valueType\":\"int\"},{\"name\":\"underline\",\"rangeEnd\":32,\"rangeStart\":0,\"value\":0,\"valueType\":\"int\"}]",
                      "default-translation0" : 0.0,
                      "default-translation1" : 0.0
                    },
                    "animationTracks" : {

                    }
                  },
                  {
                    "id" : 474,
                    "_type" : "Callout",
                    "def" : {
                      "kind" : "remix",
                      "shape" : "text-rectangle",
                      "style" : "basic",
                      "fill-color-blue" : 0.270588235294118,
                      "fill-color-green" : 0.243137254901961,
                      "fill-color-opacity" : 1.0,
                      "fill-color-red" : 0.211764705882353,
                      "height" : 124.854651162844,
                      "line-spacing" : 0.0,
                      "stroke-color-blue" : 0.890196078431372,
                      "stroke-color-green" : 0.870588235294118,
                      "stroke-color-opacity" : 1.0,
                      "stroke-color-red" : 0.847058823529412,
                      "stroke-width" : 2.0,
                      "tail-x" : -487.848837208982,
                      "tail-y" : -7.42732558142231,
                      "width" : 2335.11143410879,
                      "word-wrap" : 1.0,
                      "fill-style" : "solid",
                      "horizontal-alignment" : "center",
                      "resize-behavior" : "resizeText",
                      "stroke-style" : "solid",
                      "text" : "The attacker is trying to disable Windows Defender again",
                      "vertical-alignment" : "center",
                      "font" : {
                        "color-blue" : 0.266666666666667,
                        "color-green" : 0.231372549019608,
                        "color-opacity" : 1.0,
                        "color-red" : 0.184313725490196,
                        "size" : 64.0,
                        "tracking" : 0.0,
                        "name" : "Montserrat",
                        "weight" : "Regular"
                      },
                      "textAttributes" : {
                        "type" : "textAttributeList",
                        "keyframes" : [
                          {
                            "endTime" : 0,
                            "time" : 0,
                            "value" : [{"name":"fgColor","rangeEnd":56,"rangeStart":0,"value":"(255,255,255,255)","valueType":"color"},{"name":"fontSize","rangeEnd":56,"rangeStart":0,"value":80,"valueType":"double"},{"name":"underline","rangeEnd":56,"rangeStart":0,"value":0,"valueType":"int"},{"name":"fontName","rangeEnd":56,"rangeStart":0,"value":"Montserrat","valueType":"string"},{"name":"kerning","rangeEnd":56,"rangeStart":0,"value":0,"valueType":"double"},{"name":"fontWeight","rangeEnd":56,"rangeStart":0,"value":400,"valueType":"int"},{"name":"strikethrough","rangeEnd":56,"rangeStart":0,"value":0,"valueType":"int"},{"name":"fontItalic","rangeEnd":56,"rangeStart":0,"value":0,"valueType":"int"}],
                            "duration" : 0
                          }
                        ]
                      }
                    },
                    "attributes" : {
                      "autoRotateText" : true
                    },
                    "parameters" : {
                      "translation0" : -4.06416234000062e-10,
                      "translation1" : -595.347576530512
                    },
                    "effects" : [
                        {
                          "effectName" : "DropShadow",
                          "category" : "categoryVisualEffects",
                          "parameters" : {
                            "angle" : 5.49778714378214,
                            "blur" : 10.0,
                            "color-alpha" : 1.0,
                            "color-blue" : 0.1216,
                            "color-green" : 0.1216,
                            "color-red" : 0.1216,
                            "enabled" : 1,
                            "offset" : 10.0,
                            "opacity" : 0.4
                          }
                        }
                    ],
                    "start" : 2278,
                    "duration" : 96,
                    "mediaStart" : -86,
                    "mediaDuration" : 96,
                    "scalar" : 1,
                    "metadata" : {
                      "WinSubProjectDisplayName" : "",
                      "clipSpeedAttribute" : false,
                      "default-HAlign" : "center",
                      "default-LineSpace" : 0.0,
                      "default-VAlign" : "center",
                      "default-fill-color-blue" : 1.0,
                      "default-fill-color-green" : 1.0,
                      "default-fill-color-red" : 1.0,
                      "default-scale0" : 1.0,
                      "default-scale1" : 1.0,
                      "default-stroke-color-blue" : 0.56078431372549,
                      "default-stroke-color-green" : 0.686274509803922,
                      "default-stroke-color-red" : 0.0196078431372549,
                      "default-text-attributes" : "[{\"name\":\"fontSize\",\"rangeEnd\":32,\"rangeStart\":0,\"value\":64,\"valueType\":\"double\"},{\"name\":\"fgColor\",\"rangeEnd\":32,\"rangeStart\":0,\"value\":\"(255,255,255,255)\",\"valueType\":\"color\"},{\"name\":\"fontWeight\",\"rangeEnd\":32,\"rangeStart\":0,\"value\":400,\"valueType\":\"int\"},{\"name\":\"fontName\",\"rangeEnd\":32,\"rangeStart\":0,\"value\":\"Montserrat\",\"valueType\":\"string\"},{\"name\":\"fontItalic\",\"rangeEnd\":32,\"rangeStart\":0,\"value\":0,\"valueType\":\"int\"},{\"name\":\"strikethrough\",\"rangeEnd\":32,\"rangeStart\":0,\"value\":0,\"valueType\":\"int\"},{\"name\":\"underline\",\"rangeEnd\":32,\"rangeStart\":0,\"value\":0,\"valueType\":\"int\"}]",
                      "default-translation0" : 0.0,
                      "default-translation1" : 0.0
                    },
                    "animationTracks" : {

                    }
                  },
                  {
                    "id" : 475,
                    "_type" : "Callout",
                    "def" : {
                      "kind" : "remix",
                      "shape" : "text-rectangle",
                      "style" : "basic",
                      "fill-color-blue" : 0.270588235294118,
                      "fill-color-green" : 0.243137254901961,
                      "fill-color-opacity" : 1.0,
                      "fill-color-red" : 0.211764705882353,
                      "height" : 106.249999999895,
                      "line-spacing" : 0.0,
                      "stroke-color-blue" : 0.890196078431372,
                      "stroke-color-green" : 0.870588235294118,
                      "stroke-color-opacity" : 1.0,
                      "stroke-color-red" : 0.847058823529412,
                      "stroke-width" : 2.0,
                      "tail-x" : -441.47959183665,
                      "tail-y" : 1.8750000000523,
                      "width" : 1754.00085034023,
                      "word-wrap" : 1.0,
                      "fill-style" : "solid",
                      "horizontal-alignment" : "center",
                      "resize-behavior" : "resizeText",
                      "stroke-style" : "solid",
                      "text" : "Copy commands and try them once more",
                      "vertical-alignment" : "center",
                      "font" : {
                        "color-blue" : 0.266666666666667,
                        "color-green" : 0.231372549019608,
                        "color-opacity" : 1.0,
                        "color-red" : 0.184313725490196,
                        "size" : 64.0,
                        "tracking" : 0.0,
                        "name" : "Montserrat",
                        "weight" : "Regular"
                      },
                      "textAttributes" : {
                        "type" : "textAttributeList",
                        "keyframes" : [
                          {
                            "endTime" : 0,
                            "time" : 0,
                            "value" : [{"name":"fontWeight","rangeEnd":36,"rangeStart":0,"value":400,"valueType":"int"},{"name":"strikethrough","rangeEnd":36,"rangeStart":0,"value":0,"valueType":"int"},{"name":"fontName","rangeEnd":36,"rangeStart":0,"value":"Montserrat","valueType":"string"},{"name":"kerning","rangeEnd":36,"rangeStart":0,"value":0,"valueType":"double"},{"name":"underline","rangeEnd":36,"rangeStart":0,"value":0,"valueType":"int"},{"name":"fontSize","rangeEnd":36,"rangeStart":0,"value":64,"valueType":"double"},{"name":"fontItalic","rangeEnd":36,"rangeStart":0,"value":0,"valueType":"int"},{"name":"fgColor","rangeEnd":36,"rangeStart":0,"value":"(255,255,255,255)","valueType":"color"}],
                            "duration" : 0
                          }
                        ]
                      }
                    },
                    "attributes" : {
                      "autoRotateText" : true
                    },
                    "parameters" : {
                      "translation0" : -51.0204081634392,
                      "translation1" : -595.347576530581
                    },
                    "effects" : [
                        {
                          "effectName" : "DropShadow",
                          "category" : "categoryVisualEffects",
                          "parameters" : {
                            "angle" : 5.49778714378214,
                            "blur" : 10.0,
                            "color-alpha" : 1.0,
                            "color-blue" : 0.1216,
                            "color-green" : 0.1216,
                            "color-red" : 0.1216,
                            "enabled" : 1,
                            "offset" : 10.0,
                            "opacity" : 0.4
                          }
                        }
                    ],
                    "start" : 2397,
                    "duration" : 96,
                    "mediaStart" : -86,
                    "mediaDuration" : 96,
                    "scalar" : 1,
                    "metadata" : {
                      "WinSubProjectDisplayName" : "",
                      "clipSpeedAttribute" : false,
                      "default-HAlign" : "center",
                      "default-LineSpace" : 0.0,
                      "default-VAlign" : "center",
                      "default-fill-color-blue" : 1.0,
                      "default-fill-color-green" : 1.0,
                      "default-fill-color-red" : 1.0,
                      "default-scale0" : 1.0,
                      "default-scale1" : 1.0,
                      "default-stroke-color-blue" : 0.56078431372549,
                      "default-stroke-color-green" : 0.686274509803922,
                      "default-stroke-color-red" : 0.0196078431372549,
                      "default-text-attributes" : "[{\"name\":\"fontSize\",\"rangeEnd\":32,\"rangeStart\":0,\"value\":64,\"valueType\":\"double\"},{\"name\":\"fgColor\",\"rangeEnd\":32,\"rangeStart\":0,\"value\":\"(255,255,255,255)\",\"valueType\":\"color\"},{\"name\":\"fontWeight\",\"rangeEnd\":32,\"rangeStart\":0,\"value\":400,\"valueType\":\"int\"},{\"name\":\"fontName\",\"rangeEnd\":32,\"rangeStart\":0,\"value\":\"Montserrat\",\"valueType\":\"string\"},{\"name\":\"fontItalic\",\"rangeEnd\":32,\"rangeStart\":0,\"value\":0,\"valueType\":\"int\"},{\"name\":\"strikethrough\",\"rangeEnd\":32,\"rangeStart\":0,\"value\":0,\"valueType\":\"int\"},{\"name\":\"underline\",\"rangeEnd\":32,\"rangeStart\":0,\"value\":0,\"valueType\":\"int\"}]",
                      "default-translation0" : 0.0,
                      "default-translation1" : 0.0
                    },
                    "animationTracks" : {

                    }
                  },
                  {
                    "id" : 476,
                    "_type" : "Callout",
                    "def" : {
                      "kind" : "remix",
                      "shape" : "text-rectangle",
                      "style" : "basic",
                      "fill-color-blue" : 0.270588235294118,
                      "fill-color-green" : 0.243137254901961,
                      "fill-color-opacity" : 1.0,
                      "fill-color-red" : 0.211764705882353,
                      "height" : 132.775510203965,
                      "line-spacing" : 0.0,
                      "stroke-color-blue" : 0.890196078431372,
                      "stroke-color-green" : 0.870588235294118,
                      "stroke-color-opacity" : 1.0,
                      "stroke-color-red" : 0.847058823529412,
                      "stroke-width" : 2.0,
                      "tail-x" : -226.666666666328,
                      "tail-y" : 32.4872448980697,
                      "width" : 1467.76862745305,
                      "word-wrap" : 1.0,
                      "fill-style" : "solid",
                      "horizontal-alignment" : "center",
                      "resize-behavior" : "resizeText",
                      "stroke-style" : "solid",
                      "text" : "Let's have a look at the notification",
                      "vertical-alignment" : "center",
                      "font" : {
                        "color-blue" : 0.266666666666667,
                        "color-green" : 0.231372549019608,
                        "color-opacity" : 1.0,
                        "color-red" : 0.184313725490196,
                        "size" : 64.0,
                        "tracking" : 0.0,
                        "name" : "Montserrat",
                        "weight" : "Regular"
                      },
                      "textAttributes" : {
                        "type" : "textAttributeList",
                        "keyframes" : [
                          {
                            "endTime" : 0,
                            "time" : 0,
                            "value" : [{"name":"fontSize","rangeEnd":37,"rangeStart":0,"value":80,"valueType":"double"},{"name":"fontName","rangeEnd":37,"rangeStart":0,"value":"Montserrat","valueType":"string"},{"name":"fontItalic","rangeEnd":37,"rangeStart":0,"value":0,"valueType":"int"},{"name":"fgColor","rangeEnd":37,"rangeStart":0,"value":"(255,255,255,255)","valueType":"color"},{"name":"strikethrough","rangeEnd":37,"rangeStart":0,"value":0,"valueType":"int"},{"name":"fontWeight","rangeEnd":37,"rangeStart":0,"value":400,"valueType":"int"},{"name":"underline","rangeEnd":37,"rangeStart":0,"value":0,"valueType":"int"}],
                            "duration" : 0
                          }
                        ]
                      }
                    },
                    "attributes" : {
                      "autoRotateText" : true
                    },
                    "parameters" : {
                      "translation0" : -82.6530612242091,
                      "translation1" : -558.987032313132
                    },
                    "effects" : [
                        {
                          "effectName" : "DropShadow",
                          "category" : "categoryVisualEffects",
                          "parameters" : {
                            "angle" : 5.49778714378214,
                            "blur" : 10.0,
                            "color-alpha" : 1.0,
                            "color-blue" : 0.1216,
                            "color-green" : 0.1216,
                            "color-red" : 0.1216,
                            "enabled" : 1,
                            "offset" : 10.0,
                            "opacity" : 0.4
                          }
                        }
                    ],
                    "start" : 2607,
                    "duration" : 76,
                    "mediaStart" : 47,
                    "mediaDuration" : 76,
                    "scalar" : 1,
                    "metadata" : {
                      "WinSubProjectDisplayName" : "",
                      "clipSpeedAttribute" : false,
                      "default-HAlign" : "center",
                      "default-LineSpace" : 0.0,
                      "default-VAlign" : "center",
                      "default-fill-color-blue" : 1.0,
                      "default-fill-color-green" : 1.0,
                      "default-fill-color-red" : 1.0,
                      "default-scale0" : 1.0,
                      "default-scale1" : 1.0,
                      "default-stroke-color-blue" : 0.56078431372549,
                      "default-stroke-color-green" : 0.686274509803922,
                      "default-stroke-color-red" : 0.0196078431372549,
                      "default-text-attributes" : "[{\"name\":\"fontSize\",\"rangeEnd\":32,\"rangeStart\":0,\"value\":64,\"valueType\":\"double\"},{\"name\":\"fgColor\",\"rangeEnd\":32,\"rangeStart\":0,\"value\":\"(255,255,255,255)\",\"valueType\":\"color\"},{\"name\":\"fontWeight\",\"rangeEnd\":32,\"rangeStart\":0,\"value\":400,\"valueType\":\"int\"},{\"name\":\"fontName\",\"rangeEnd\":32,\"rangeStart\":0,\"value\":\"Montserrat\",\"valueType\":\"string\"},{\"name\":\"fontItalic\",\"rangeEnd\":32,\"rangeStart\":0,\"value\":0,\"valueType\":\"int\"},{\"name\":\"strikethrough\",\"rangeEnd\":32,\"rangeStart\":0,\"value\":0,\"valueType\":\"int\"},{\"name\":\"underline\",\"rangeEnd\":32,\"rangeStart\":0,\"value\":0,\"valueType\":\"int\"}]",
                      "default-translation0" : 0.0,
                      "default-translation1" : 0.0
                    },
                    "animationTracks" : {

                    }
                  },
                  {
                    "id" : 477,
                    "_type" : "Callout",
                    "def" : {
                      "kind" : "remix",
                      "shape" : "text-rectangle",
                      "style" : "basic",
                      "fill-color-blue" : 0.0,
                      "fill-color-green" : 0.0,
                      "fill-color-opacity" : 1.0,
                      "fill-color-red" : 0.6,
                      "height" : 109.180825818904,
                      "line-spacing" : 0.0,
                      "stroke-color-blue" : 0.890196078431372,
                      "stroke-color-green" : 0.870588235294118,
                      "stroke-color-opacity" : 1.0,
                      "stroke-color-red" : 0.847058823529412,
                      "stroke-width" : 2.0,
                      "tail-x" : -882.503658210936,
                      "tail-y" : -3.65418841930852,
                      "width" : 2033.55907670928,
                      "word-wrap" : 1.0,
                      "fill-style" : "solid",
                      "horizontal-alignment" : "center",
                      "resize-behavior" : "resizeText",
                      "stroke-style" : "solid",
                      "text" : "The Virus & threat protection has been TURNED OFF!",
                      "vertical-alignment" : "center",
                      "font" : {
                        "color-blue" : 0.266666666666667,
                        "color-green" : 0.231372549019608,
                        "color-opacity" : 1.0,
                        "color-red" : 0.184313725490196,
                        "size" : 64.0,
                        "tracking" : 0.0,
                        "name" : "Montserrat",
                        "weight" : "Regular"
                      },
                      "textAttributes" : {
                        "type" : "textAttributeList",
                        "keyframes" : [
                          {
                            "endTime" : 0,
                            "time" : 0,
                            "value" : [{"name":"fontItalic","rangeEnd":50,"rangeStart":0,"value":0,"valueType":"int"},{"name":"strikethrough","rangeEnd":50,"rangeStart":0,"value":0,"valueType":"int"},{"name":"fgColor","rangeEnd":50,"rangeStart":0,"value":"(255,255,255,255)","valueType":"color"},{"name":"fontName","rangeEnd":50,"rangeStart":0,"value":"Montserrat","valueType":"string"},{"name":"fontWeight","rangeEnd":50,"rangeStart":0,"value":400,"valueType":"int"},{"name":"underline","rangeEnd":50,"rangeStart":0,"value":0,"valueType":"int"},{"name":"kerning","rangeEnd":50,"rangeStart":0,"value":0,"valueType":"double"},{"name":"fontSize","rangeEnd":50,"rangeStart":0,"value":80,"valueType":"double"}],
                            "duration" : 0
                          }
                        ]
                      }
                    },
                    "attributes" : {
                      "autoRotateText" : true
                    },
                    "parameters" : {
                      "translation0" : -191.220831584981,
                      "translation1" : -598.185735050183
                    },
                    "effects" : [
                        {
                          "effectName" : "DropShadow",
                          "category" : "categoryVisualEffects",
                          "parameters" : {
                            "angle" : 5.49778714378214,
                            "blur" : 10.0,
                            "color-alpha" : 1.0,
                            "color-blue" : 0.1216,
                            "color-green" : 0.1216,
                            "color-red" : 0.1216,
                            "enabled" : 1,
                            "offset" : 10.0,
                            "opacity" : 0.4
                          }
                        }
                    ],
                    "start" : 2683,
                    "duration" : 237,
                    "mediaStart" : -163,
                    "mediaDuration" : 237,
                    "scalar" : 1,
                    "metadata" : {
                      "WinSubProjectDisplayName" : "",
                      "clipSpeedAttribute" : false,
                      "default-HAlign" : "center",
                      "default-LineSpace" : 0.0,
                      "default-VAlign" : "center",
                      "default-fill-color-blue" : 1.0,
                      "default-fill-color-green" : 1.0,
                      "default-fill-color-red" : 1.0,
                      "default-rotation2" : 0.0,
                      "default-scale0" : 1.0,
                      "default-scale1" : 1.0,
                      "default-stroke-color-blue" : 0.56078431372549,
                      "default-stroke-color-green" : 0.686274509803922,
                      "default-stroke-color-red" : 0.0196078431372549,
                      "default-text-attributes" : "[{\"name\":\"fontSize\",\"rangeEnd\":32,\"rangeStart\":0,\"value\":64,\"valueType\":\"double\"},{\"name\":\"fgColor\",\"rangeEnd\":32,\"rangeStart\":0,\"value\":\"(255,255,255,255)\",\"valueType\":\"color\"},{\"name\":\"fontWeight\",\"rangeEnd\":32,\"rangeStart\":0,\"value\":400,\"valueType\":\"int\"},{\"name\":\"fontName\",\"rangeEnd\":32,\"rangeStart\":0,\"value\":\"Montserrat\",\"valueType\":\"string\"},{\"name\":\"fontItalic\",\"rangeEnd\":32,\"rangeStart\":0,\"value\":0,\"valueType\":\"int\"},{\"name\":\"strikethrough\",\"rangeEnd\":32,\"rangeStart\":0,\"value\":0,\"valueType\":\"int\"},{\"name\":\"underline\",\"rangeEnd\":32,\"rangeStart\":0,\"value\":0,\"valueType\":\"int\"}]",
                      "default-translation0" : 0.0,
                      "default-translation1" : 0.0
                    },
                    "animationTracks" : {

                    }
                  },
                  {
                    "id" : 478,
                    "_type" : "StitchedMedia",
                    "minMediaStart" : 0,
                    "attributes" : {
                      "ident" : "token_hijacking_attack",
                      "gain" : 1.0,
                      "mixToMono" : false
                    },
                    "parameters" : {
                      "geometryCrop0" : 1977.14285714305,
                      "geometryCrop1" : 1188.57142857164,
                      "geometryCrop3" : 105.714285714054,
                      "cursorOpacity" : 1.0,
                      "cursorScale" : 1.0
                    },
                    "medias" : [
                        {
                          "id" : 479,
                          "_type" : "ScreenVMFile",
                          "src" : 1,
                          "trackNumber" : 0,
                          "attributes" : {
                            "ident" : "token_hijacking_attack"
                          },
                          "parameters" : {
                            "cursorScale" : {
                              "type" : "double",
                              "defaultValue" : 0.0,
                              "interp" : "linr"
                            },
                            "cursorOpacity" : {
                              "type" : "double",
                              "defaultValue" : 0.0,
                              "interp" : "linr"
                            }
                          },
                          "effects" : [

                          ],
                          "start" : 0,
                          "duration" : 1078443,
                          "mediaStart" : 0,
                          "mediaDuration" : 1078443,
                          "scalar" : 1,
                          "metadata" : {
                            "AutoAppliedSmartFocus" : "False",
                            "clipSpeedAttribute" : false,
                            "default-scale0" : 1.0,
                            "default-scale1" : 1.0,
                            "default-translation0" : 0.0
                          },
                          "animationTracks" : {

                          }
                        },
                        {
                          "id" : 480,
                          "_type" : "ScreenIMFile",
                          "src" : 1,
                          "trackNumber" : 0,
                          "trimStartSum" : 0,
                          "attributes" : {
                            "ident" : "token_hijacking_attack"
                          },
                          "parameters" : {
                            "cursorOpacity" : 0.0,
                            "cursorScale" : 0.0
                          },
                          "effects" : [

                          ],
                          "start" : 1078443,
                          "duration" : 14316,
                          "mediaStart" : 1078442,
                          "mediaDuration" : 1,
                          "scalar" : 1,
                          "metadata" : {
                            "AutoAppliedSmartFocus" : "False"
                          },
                          "animationTracks" : {

                          }
                        },
                        {
                          "id" : 481,
                          "_type" : "ScreenVMFile",
                          "src" : 1,
                          "trackNumber" : 0,
                          "attributes" : {
                            "ident" : "token_hijacking_attack"
                          },
                          "parameters" : {
                            "cursorScale" : {
                              "type" : "double",
                              "defaultValue" : 0.0,
                              "interp" : "linr"
                            },
                            "cursorOpacity" : {
                              "type" : "double",
                              "defaultValue" : 0.0,
                              "interp" : "linr"
                            }
                          },
                          "effects" : [

                          ],
                          "start" : 1092759,
                          "duration" : 2799,
                          "mediaStart" : 1078443,
                          "mediaDuration" : 2799,
                          "scalar" : 1,
                          "metadata" : {
                            "AutoAppliedSmartFocus" : "False",
                            "clipSpeedAttribute" : false,
                            "default-scale0" : 1.0,
                            "default-scale1" : 1.0,
                            "default-translation0" : 0.0
                          },
                          "animationTracks" : {

                          }
                        },
                        {
                          "id" : 482,
                          "_type" : "ScreenIMFile",
                          "src" : 1,
                          "trackNumber" : 0,
                          "trimStartSum" : 0,
                          "attributes" : {
                            "ident" : "token_hijacking_attack"
                          },
                          "parameters" : {
                            "cursorOpacity" : 0.0,
                            "cursorScale" : 0.0
                          },
                          "effects" : [

                          ],
                          "start" : 1095558,
                          "duration" : 30,
                          "mediaStart" : 1081242,
                          "mediaDuration" : 1,
                          "scalar" : 1,
                          "metadata" : {
                            "AutoAppliedSmartFocus" : "False"
                          },
                          "animationTracks" : {

                          }
                        },
                        {
                          "id" : 483,
                          "_type" : "ScreenVMFile",
                          "src" : 1,
                          "trackNumber" : 0,
                          "attributes" : {
                            "ident" : "token_hijacking_attack"
                          },
                          "parameters" : {
                            "cursorScale" : {
                              "type" : "double",
                              "defaultValue" : 0.0,
                              "interp" : "linr"
                            },
                            "cursorOpacity" : {
                              "type" : "double",
                              "defaultValue" : 0.0,
                              "interp" : "linr"
                            }
                          },
                          "effects" : [

                          ],
                          "start" : 1095588,
                          "duration" : 494197,
                          "mediaStart" : 1081242,
                          "mediaDuration" : 494197,
                          "scalar" : 1,
                          "metadata" : {
                            "AutoAppliedSmartFocus" : "False",
                            "clipSpeedAttribute" : false,
                            "default-scale0" : 1.0,
                            "default-scale1" : 1.0,
                            "default-translation0" : 0.0
                          },
                          "animationTracks" : {

                          }
                        }
                    ],
                    "effects" : [
                        {
                          "effectName" : "CursorHilight",
                          "category" : "categoryCursorEffects",
                          "parameters" : {
                            "blur" : 0.1,
                            "color-alpha" : 0.75,
                            "color-blue" : 0.0,
                            "color-green" : 1.0,
                            "color-red" : 1.0,
                            "radius" : 50.0
                          }
                        }
                    ],
                    "start" : 3179,
                    "duration" : 728,
                    "mediaStart" : 1077820,
                    "mediaDuration" : 728,
                    "scalar" : 1,
                    "metadata" : {
                      "AutoAppliedSmartFocus" : "False",
                      "clipSpeedAttribute" : false
                    },
                    "animationTracks" : {

                    }
                  }
                ]
              },
              {
                "trackIndex" : 4,
                "medias" : [
                  {
                    "id" : 484,
                    "_type" : "Callout",
                    "def" : {
                      "kind" : "remix",
                      "shape" : "text",
                      "style" : "basic",
                      "height" : 350.937500000191,
                      "line-spacing" : 0.0,
                      "width" : 2063.70535714372,
                      "word-wrap" : 1.0,
                      "horizontal-alignment" : "center",
                      "resize-behavior" : "resizeText",
                      "text" : "Process Privilege Escalation without Token Stealing",
                      "vertical-alignment" : "center",
                      "font" : {
                        "color-blue" : 1.0,
                        "color-green" : 1.0,
                        "color-red" : 1.0,
                        "size" : 96.0,
                        "tracking" : 0.0,
                        "name" : "Montserrat",
                        "weight" : "Regular"
                      },
                      "textAttributes" : {
                        "type" : "textAttributeList",
                        "keyframes" : [
                          {
                            "endTime" : 0,
                            "time" : 0,
                            "value" : [{"name":"fgColor","rangeEnd":51,"rangeStart":0,"value":"(255,255,255,255)","valueType":"color"},{"name":"underline","rangeEnd":51,"rangeStart":0,"value":0,"valueType":"int"},{"name":"fontName","rangeEnd":51,"rangeStart":0,"value":"Montserrat","valueType":"string"},{"name":"fontSize","rangeEnd":51,"rangeStart":0,"value":95,"valueType":"double"},{"name":"fontItalic","rangeEnd":51,"rangeStart":0,"value":0,"valueType":"int"},{"name":"strikethrough","rangeEnd":51,"rangeStart":0,"value":0,"valueType":"int"},{"name":"fontWeight","rangeEnd":51,"rangeStart":0,"value":400,"valueType":"int"}],
                            "duration" : 0
                          }
                        ]
                      }
                    },
                    "attributes" : {
                      "autoRotateText" : true
                    },
                    "parameters" : {
                      "translation0" : 0.147321428072786,
                      "translation1" : -273.875000000306
                    },
                    "effects" : [
                        {
                          "effectName" : "DropShadow",
                          "category" : "categoryVisualEffects",
                          "parameters" : {
                            "angle" : 5.49778714378214,
                            "blur" : 10.0,
                            "color-alpha" : 1.0,
                            "color-blue" : 0.1216,
                            "color-green" : 0.1216,
                            "color-red" : 0.1216,
                            "enabled" : 1,
                            "offset" : 10.0,
                            "opacity" : 0.4
                          }
                        }
                    ],
                    "start" : 0,
                    "duration" : 150,
                    "mediaStart" : 0,
                    "mediaDuration" : 150,
                    "scalar" : 1,
                    "metadata" : {
                      "WinSubProjectDisplayName" : "",
                      "clipSpeedAttribute" : false,
                      "default-HAlign" : "center",
                      "default-LineSpace" : 0.0,
                      "default-VAlign" : "center",
                      "default-text-attributes" : "[{\"name\":\"strikethrough\",\"rangeEnd\":76,\"rangeStart\":0,\"value\":0,\"valueType\":\"int\"},{\"name\":\"fontItalic\",\"rangeEnd\":76,\"rangeStart\":0,\"value\":0,\"valueType\":\"int\"},{\"name\":\"fontName\",\"rangeEnd\":76,\"rangeStart\":0,\"value\":\"Montserrat\",\"valueType\":\"string\"},{\"name\":\"fgColor\",\"rangeEnd\":76,\"rangeStart\":0,\"value\":\"(255,255,255,255)\",\"valueType\":\"color\"},{\"name\":\"fontSize\",\"rangeEnd\":76,\"rangeStart\":0,\"value\":59,\"valueType\":\"double\"},{\"name\":\"underline\",\"rangeEnd\":76,\"rangeStart\":0,\"value\":0,\"valueType\":\"int\"},{\"name\":\"fontWeight\",\"rangeEnd\":76,\"rangeStart\":0,\"value\":400,\"valueType\":\"int\"}]",
                      "default-translation0" : 0.0,
                      "default-translation1" : 0.0
                    },
                    "animationTracks" : {

                    }
                  },
                  {
                    "id" : 485,
                    "_type" : "Callout",
                    "def" : {
                      "kind" : "remix",
                      "shape" : "shape-rectangle",
                      "style" : "basic",
                      "fill-color-blue" : 0.0,
                      "fill-color-green" : 0.0,
                      "fill-color-opacity" : 0.0,
                      "fill-color-red" : 0.0,
                      "height" : 156.190475918744,
                      "stroke-color-blue" : 0.0,
                      "stroke-color-green" : 0.0,
                      "stroke-color-opacity" : 1.0,
                      "stroke-color-red" : 1.0,
                      "stroke-width" : 15.0,
                      "width" : 1720.27827380906,
                      "fill-style" : "solid",
                      "horizontal-alignment" : "center",
                      "stroke-style" : "solid",
                      "vertical-alignment" : "center",
                      "textAttributes" : {
                        "type" : "textAttributeList",
                        "keyframes" : [
                          {
                            "endTime" : 0,
                            "time" : 0,
                            "value" : null,
                            "duration" : 0
                          }
                        ]
                      }
                    },
                    "attributes" : {
                      "autoRotateText" : true
                    },
                    "parameters" : {
                      "translation0" : -203.075148810213,
                      "translation1" : 79.8809525172218
                    },
                    "effects" : [
                        {
                          "effectName" : "DropShadow",
                          "category" : "categoryVisualEffects",
                          "parameters" : {
                            "angle" : 5.49778714378214,
                            "blur" : 10.0,
                            "color-alpha" : 1.0,
                            "color-blue" : 0.1216,
                            "color-green" : 0.1216,
                            "color-red" : 0.1216,
                            "enabled" : 1,
                            "offset" : 10.0,
                            "opacity" : 0.4
                          }
                        }
                    ],
                    "start" : 263,
                    "duration" : 75,
                    "mediaStart" : 18,
                    "mediaDuration" : 75,
                    "scalar" : 1,
                    "metadata" : {
                      "WinSubProjectDisplayName" : "",
                      "clipSpeedAttribute" : false,
                      "default-callout-shape" : "shape-rectangle",
                      "default-stroke-color-red" : 0.0,
                      "default-stroke-width" : 6.0,
                      "default-translation0" : 0.0,
                      "default-translation1" : 0.0
                    },
                    "animationTracks" : {

                    }
                  },
                  {
                    "id" : 486,
                    "_type" : "Callout",
                    "def" : {
                      "kind" : "remix",
                      "shape" : "shape-rectangle",
                      "style" : "basic",
                      "fill-color-blue" : 0.0,
                      "fill-color-green" : 0.0,
                      "fill-color-opacity" : 0.0,
                      "fill-color-red" : 0.0,
                      "height" : 83.333333333398,
                      "stroke-color-blue" : 0.0,
                      "stroke-color-green" : 0.0,
                      "stroke-color-opacity" : 1.0,
                      "stroke-color-red" : 1.0,
                      "stroke-width" : 8.0,
                      "width" : 783.543579931621,
                      "fill-style" : "solid",
                      "horizontal-alignment" : "center",
                      "stroke-style" : "solid",
                      "vertical-alignment" : "center",
                      "textAttributes" : {
                        "type" : "textAttributeList",
                        "keyframes" : [
                          {
                            "endTime" : 0,
                            "time" : 0,
                            "value" : null,
                            "duration" : 0
                          }
                        ]
                      }
                    },
                    "attributes" : {
                      "autoRotateText" : true
                    },
                    "parameters" : {
                      "translation0" : -811.442495748983,
                      "translation1" : 276.309523809875
                    },
                    "effects" : [
                        {
                          "effectName" : "DropShadow",
                          "category" : "categoryVisualEffects",
                          "parameters" : {
                            "angle" : 5.49778714378214,
                            "blur" : 10.0,
                            "color-alpha" : 1.0,
                            "color-blue" : 0.1216,
                            "color-green" : 0.1216,
                            "color-red" : 0.1216,
                            "enabled" : 1,
                            "offset" : 10.0,
                            "opacity" : 0.4
                          }
                        }
                    ],
                    "start" : 460,
                    "duration" : 48,
                    "mediaStart" : 18,
                    "mediaDuration" : 48,
                    "scalar" : 1,
                    "metadata" : {
                      "WinSubProjectDisplayName" : "",
                      "clipSpeedAttribute" : false,
                      "default-callout-shape" : "shape-rectangle",
                      "default-stroke-color-red" : 0.0,
                      "default-stroke-width" : 6.0,
                      "default-translation0" : 0.0,
                      "default-translation1" : 0.0
                    },
                    "animationTracks" : {

                    }
                  },
                  {
                    "id" : 487,
                    "_type" : "Callout",
                    "def" : {
                      "kind" : "remix",
                      "shape" : "shape-rectangle",
                      "style" : "basic",
                      "fill-color-blue" : 0.0,
                      "fill-color-green" : 0.0,
                      "fill-color-opacity" : 0.0,
                      "fill-color-red" : 0.0,
                      "height" : 223.333333333475,
                      "stroke-color-blue" : 0.0,
                      "stroke-color-green" : 0.0,
                      "stroke-color-opacity" : 1.0,
                      "stroke-color-red" : 1.0,
                      "stroke-width" : 15.0,
                      "width" : 827.421130952337,
                      "fill-style" : "solid",
                      "horizontal-alignment" : "center",
                      "stroke-style" : "solid",
                      "vertical-alignment" : "center",
                      "textAttributes" : {
                        "type" : "textAttributeList",
                        "keyframes" : [
                          {
                            "endTime" : 0,
                            "time" : 0,
                            "value" : null,
                            "duration" : 0
                          }
                        ]
                      }
                    },
                    "attributes" : {
                      "autoRotateText" : true
                    },
                    "parameters" : {
                      "translation0" : -804.503720238695,
                      "translation1" : 233.928571428847
                    },
                    "effects" : [
                        {
                          "effectName" : "DropShadow",
                          "category" : "categoryVisualEffects",
                          "parameters" : {
                            "angle" : 5.49778714378214,
                            "blur" : 10.0,
                            "color-alpha" : 1.0,
                            "color-blue" : 0.1216,
                            "color-green" : 0.1216,
                            "color-red" : 0.1216,
                            "enabled" : 1,
                            "offset" : 10.0,
                            "opacity" : 0.4
                          }
                        }
                    ],
                    "start" : 521,
                    "duration" : 62,
                    "mediaStart" : 17,
                    "mediaDuration" : 62,
                    "scalar" : 1,
                    "metadata" : {
                      "WinSubProjectDisplayName" : "",
                      "clipSpeedAttribute" : false,
                      "default-callout-shape" : "shape-rectangle",
                      "default-stroke-color-red" : 0.0,
                      "default-stroke-width" : 6.0,
                      "default-translation0" : 0.0,
                      "default-translation1" : 0.0
                    },
                    "animationTracks" : {

                    }
                  },
                  {
                    "id" : 488,
                    "_type" : "Callout",
                    "def" : {
                      "kind" : "remix",
                      "shape" : "shape-rectangle",
                      "style" : "basic",
                      "fill-color-blue" : 0.0,
                      "fill-color-green" : 0.0,
                      "fill-color-opacity" : 0.0,
                      "fill-color-red" : 0.0,
                      "height" : 152.857142856997,
                      "stroke-color-blue" : 0.0,
                      "stroke-color-green" : 0.0,
                      "stroke-color-opacity" : 1.0,
                      "stroke-color-red" : 1.0,
                      "stroke-width" : 15.0,
                      "width" : 2452.11162458076,
                      "fill-style" : "solid",
                      "horizontal-alignment" : "center",
                      "stroke-style" : "solid",
                      "vertical-alignment" : "center",
                      "textAttributes" : {
                        "type" : "textAttributeList",
                        "keyframes" : [
                          {
                            "endTime" : 0,
                            "time" : 0,
                            "value" : null,
                            "duration" : 0
                          }
                        ]
                      }
                    },
                    "attributes" : {
                      "autoRotateText" : true
                    },
                    "parameters" : {
                      "translation0" : -49.9442051482216,
                      "translation1" : 55.1190476194322
                    },
                    "effects" : [
                        {
                          "effectName" : "DropShadow",
                          "category" : "categoryVisualEffects",
                          "parameters" : {
                            "angle" : 5.49778714378214,
                            "blur" : 10.0,
                            "color-alpha" : 1.0,
                            "color-blue" : 0.1216,
                            "color-green" : 0.1216,
                            "color-red" : 0.1216,
                            "enabled" : 1,
                            "offset" : 10.0,
                            "opacity" : 0.4
                          }
                        }
                    ],
                    "start" : 894,
                    "duration" : 239,
                    "mediaStart" : 35,
                    "mediaDuration" : 239,
                    "scalar" : 1,
                    "metadata" : {
                      "WinSubProjectDisplayName" : "",
                      "clipSpeedAttribute" : false,
                      "default-callout-shape" : "shape-rectangle",
                      "default-stroke-color-red" : 0.0,
                      "default-stroke-width" : 6.0,
                      "default-translation0" : 0.0,
                      "default-translation1" : 0.0
                    },
                    "animationTracks" : {

                    }
                  },
                  {
                    "id" : 489,
                    "_type" : "IMFile",
                    "src" : 7,
                    "trackNumber" : 0,
                    "trimStartSum" : -22,
                    "attributes" : {
                      "ident" : "256"
                    },
                    "parameters" : {
                      "translation0" : 1034.88372093045,
                      "translation1" : -331.395348837241,
                      "scale0" : 1.68132267441802,
                      "scale1" : 1.68132267441802
                    },
                    "effects" : [

                    ],
                    "start" : 1318,
                    "duration" : 87,
                    "mediaStart" : 0,
                    "mediaDuration" : 1,
                    "scalar" : 1,
                    "metadata" : {
                      "clipSpeedAttribute" : false,
                      "default-scale0" : 1.0,
                      "default-scale1" : 1.0,
                      "default-translation0" : 0.0,
                      "default-translation1" : 0.0
                    },
                    "animationTracks" : {

                    }
                  },
                  {
                    "id" : 490,
                    "_type" : "Callout",
                    "def" : {
                      "kind" : "remix",
                      "shape" : "shape-rectangle",
                      "style" : "basic",
                      "fill-color-blue" : 0.0,
                      "fill-color-green" : 0.0,
                      "fill-color-opacity" : 0.0,
                      "fill-color-red" : 0.0,
                      "height" : 138.692453725695,
                      "stroke-color-blue" : 0.0,
                      "stroke-color-green" : 0.0,
                      "stroke-color-opacity" : 1.0,
                      "stroke-color-red" : 1.0,
                      "stroke-width" : 8.0,
                      "width" : 1143.70731984698,
                      "fill-style" : "solid",
                      "horizontal-alignment" : "center",
                      "stroke-style" : "solid",
                      "vertical-alignment" : "center",
                      "textAttributes" : {
                        "type" : "textAttributeList",
                        "keyframes" : [
                          {
                            "endTime" : 0,
                            "time" : 0,
                            "value" : null,
                            "duration" : 0
                          }
                        ]
                      }
                    },
                    "attributes" : {
                      "autoRotateText" : true
                    },
                    "parameters" : {
                      "translation0" : -704.146343606087,
                      "translation1" : 350.127353267291
                    },
                    "effects" : [
                        {
                          "effectName" : "DropShadow",
                          "category" : "categoryVisualEffects",
                          "parameters" : {
                            "angle" : 5.49778714378214,
                            "blur" : 10.0,
                            "color-alpha" : 1.0,
                            "color-blue" : 0.1216,
                            "color-green" : 0.1216,
                            "color-red" : 0.1216,
                            "enabled" : 1,
                            "offset" : 10.0,
                            "opacity" : 0.4
                          }
                        }
                    ],
                    "start" : 1740,
                    "duration" : 19,
                    "mediaStart" : 13,
                    "mediaDuration" : 19,
                    "scalar" : 1,
                    "metadata" : {
                      "WinSubProjectDisplayName" : "",
                      "clipSpeedAttribute" : false,
                      "default-callout-shape" : "shape-rectangle",
                      "default-scale0" : 1.0,
                      "default-scale1" : 1.0,
                      "default-stroke-color-red" : 0.0,
                      "default-stroke-width" : 6.0,
                      "default-translation0" : 0.0,
                      "default-translation1" : 0.0
                    },
                    "animationTracks" : {

                    }
                  },
                  {
                    "id" : 491,
                    "_type" : "Callout",
                    "def" : {
                      "kind" : "remix",
                      "shape" : "shape-rectangle",
                      "style" : "basic",
                      "fill-color-blue" : 0.0,
                      "fill-color-green" : 0.0,
                      "fill-color-opacity" : 0.0,
                      "fill-color-red" : 0.0,
                      "height" : 138.692453725695,
                      "stroke-color-blue" : 0.0,
                      "stroke-color-green" : 0.0,
                      "stroke-color-opacity" : 1.0,
                      "stroke-color-red" : 1.0,
                      "stroke-width" : 8.0,
                      "width" : 1143.70731984698,
                      "fill-style" : "solid",
                      "horizontal-alignment" : "center",
                      "stroke-style" : "solid",
                      "vertical-alignment" : "center",
                      "textAttributes" : {
                        "type" : "textAttributeList",
                        "keyframes" : [
                          {
                            "endTime" : 0,
                            "time" : 0,
                            "value" : null,
                            "duration" : 0
                          }
                        ]
                      }
                    },
                    "attributes" : {
                      "autoRotateText" : true
                    },
                    "parameters" : {
                      "translation0" : -704.146343606087,
                      "translation1" : 468.732004430145
                    },
                    "effects" : [
                        {
                          "effectName" : "DropShadow",
                          "category" : "categoryVisualEffects",
                          "parameters" : {
                            "angle" : 5.49778714378214,
                            "blur" : 10.0,
                            "color-alpha" : 1.0,
                            "color-blue" : 0.1216,
                            "color-green" : 0.1216,
                            "color-red" : 0.1216,
                            "enabled" : 1,
                            "offset" : 10.0,
                            "opacity" : 0.4
                          }
                        }
                    ],
                    "start" : 1759,
                    "duration" : 118,
                    "mediaStart" : 7,
                    "mediaDuration" : 118,
                    "scalar" : 1,
                    "metadata" : {
                      "WinSubProjectDisplayName" : "",
                      "clipSpeedAttribute" : false,
                      "default-callout-shape" : "shape-rectangle",
                      "default-scale0" : 1.0,
                      "default-scale1" : 1.0,
                      "default-stroke-color-red" : 0.0,
                      "default-stroke-width" : 6.0,
                      "default-translation0" : 0.0,
                      "default-translation1" : 0.0
                    },
                    "animationTracks" : {

                    }
                  },
                  {
                    "id" : 492,
                    "_type" : "Callout",
                    "def" : {
                      "kind" : "remix",
                      "shape" : "shape-rectangle",
                      "style" : "basic",
                      "fill-color-blue" : 0.0,
                      "fill-color-green" : 0.0,
                      "fill-color-opacity" : 0.0,
                      "fill-color-red" : 0.0,
                      "height" : 119.897959183557,
                      "stroke-color-blue" : 0.0,
                      "stroke-color-green" : 0.0,
                      "stroke-color-opacity" : 1.0,
                      "stroke-color-red" : 1.0,
                      "stroke-width" : 15.0,
                      "width" : 929.563988095685,
                      "fill-style" : "solid",
                      "horizontal-alignment" : "center",
                      "stroke-style" : "solid",
                      "vertical-alignment" : "center",
                      "textAttributes" : {
                        "type" : "textAttributeList",
                        "keyframes" : [
                          {
                            "endTime" : 0,
                            "time" : 0,
                            "value" : null,
                            "duration" : 0
                          }
                        ]
                      }
                    },
                    "attributes" : {
                      "autoRotateText" : true
                    },
                    "parameters" : {
                      "translation0" : -796.932295196058,
                      "translation1" : -421.870748298961
                    },
                    "effects" : [
                        {
                          "effectName" : "DropShadow",
                          "category" : "categoryVisualEffects",
                          "parameters" : {
                            "angle" : 5.49778714378214,
                            "blur" : 10.0,
                            "color-alpha" : 1.0,
                            "color-blue" : 0.1216,
                            "color-green" : 0.1216,
                            "color-red" : 0.1216,
                            "enabled" : 1,
                            "offset" : 10.0,
                            "opacity" : 0.4
                          }
                        }
                    ],
                    "start" : 2031,
                    "duration" : 35,
                    "mediaStart" : 6,
                    "mediaDuration" : 35,
                    "scalar" : 1,
                    "metadata" : {
                      "WinSubProjectDisplayName" : "",
                      "clipSpeedAttribute" : false,
                      "default-callout-shape" : "shape-rectangle",
                      "default-scale0" : 1.0,
                      "default-scale1" : 1.0,
                      "default-stroke-color-red" : 0.0,
                      "default-stroke-width" : 6.0,
                      "default-translation0" : 0.0,
                      "default-translation1" : 0.0
                    },
                    "animationTracks" : {

                    }
                  },
                  {
                    "id" : 493,
                    "_type" : "Callout",
                    "def" : {
                      "kind" : "remix",
                      "shape" : "shape-rectangle",
                      "style" : "basic",
                      "fill-color-blue" : 0.0,
                      "fill-color-green" : 0.0,
                      "fill-color-opacity" : 0.0,
                      "fill-color-red" : 0.0,
                      "height" : 242.346938775452,
                      "stroke-color-blue" : 0.0,
                      "stroke-color-green" : 0.0,
                      "stroke-color-opacity" : 1.0,
                      "stroke-color-red" : 1.0,
                      "stroke-width" : 15.0,
                      "width" : 929.563988095685,
                      "fill-style" : "solid",
                      "horizontal-alignment" : "center",
                      "stroke-style" : "solid",
                      "vertical-alignment" : "center",
                      "textAttributes" : {
                        "type" : "textAttributeList",
                        "keyframes" : [
                          {
                            "endTime" : 0,
                            "time" : 0,
                            "value" : null,
                            "duration" : 0
                          }
                        ]
                      }
                    },
                    "attributes" : {
                      "autoRotateText" : true
                    },
                    "parameters" : {
                      "translation0" : -796.932295196058,
                      "translation1" : -197.380952380614
                    },
                    "effects" : [
                        {
                          "effectName" : "DropShadow",
                          "category" : "categoryVisualEffects",
                          "parameters" : {
                            "angle" : 5.49778714378214,
                            "blur" : 10.0,
                            "color-alpha" : 1.0,
                            "color-blue" : 0.1216,
                            "color-green" : 0.1216,
                            "color-red" : 0.1216,
                            "enabled" : 1,
                            "offset" : 10.0,
                            "opacity" : 0.4
                          }
                        }
                    ],
                    "start" : 2095,
                    "duration" : 169,
                    "mediaStart" : 5,
                    "mediaDuration" : 169,
                    "scalar" : 1,
                    "metadata" : {
                      "WinSubProjectDisplayName" : "",
                      "clipSpeedAttribute" : false,
                      "default-callout-shape" : "shape-rectangle",
                      "default-scale0" : 1.0,
                      "default-scale1" : 1.0,
                      "default-stroke-color-red" : 0.0,
                      "default-stroke-width" : 6.0,
                      "default-translation0" : 0.0,
                      "default-translation1" : 0.0
                    },
                    "animationTracks" : {

                    }
                  },
                  {
                    "id" : 494,
                    "_type" : "Callout",
                    "def" : {
                      "kind" : "remix",
                      "shape" : "shape-rectangle",
                      "style" : "basic",
                      "fill-color-blue" : 0.0,
                      "fill-color-green" : 0.0,
                      "fill-color-opacity" : 0.0,
                      "fill-color-red" : 0.0,
                      "height" : 271.19111485973,
                      "stroke-color-blue" : 0.0,
                      "stroke-color-green" : 0.0,
                      "stroke-color-opacity" : 1.0,
                      "stroke-color-red" : 1.0,
                      "stroke-width" : 15.0,
                      "width" : 527.954754327962,
                      "fill-style" : "solid",
                      "horizontal-alignment" : "center",
                      "stroke-style" : "solid",
                      "vertical-alignment" : "center",
                      "textAttributes" : {
                        "type" : "textAttributeList",
                        "keyframes" : [
                          {
                            "endTime" : 0,
                            "time" : 0,
                            "value" : null,
                            "duration" : 0
                          }
                        ]
                      }
                    },
                    "attributes" : {
                      "autoRotateText" : true
                    },
                    "parameters" : {
                      "translation0" : 979.950186624,
                      "translation1" : -508.809843780549
                    },
                    "effects" : [
                        {
                          "effectName" : "DropShadow",
                          "category" : "categoryVisualEffects",
                          "parameters" : {
                            "angle" : 5.49778714378214,
                            "blur" : 10.0,
                            "color-alpha" : 1.0,
                            "color-blue" : 0.1216,
                            "color-green" : 0.1216,
                            "color-red" : 0.1216,
                            "enabled" : 1,
                            "offset" : 10.0,
                            "opacity" : 0.4
                          }
                        }
                    ],
                    "start" : 2624,
                    "duration" : 80,
                    "mediaStart" : 18,
                    "mediaDuration" : 80,
                    "scalar" : 1,
                    "metadata" : {
                      "WinSubProjectDisplayName" : "",
                      "clipSpeedAttribute" : false,
                      "default-callout-shape" : "shape-rectangle",
                      "default-stroke-color-red" : 0.0,
                      "default-stroke-width" : 6.0,
                      "default-translation0" : 0.0,
                      "default-translation1" : 0.0
                    },
                    "animationTracks" : {

                    }
                  },
                  {
                    "id" : 495,
                    "_type" : "Callout",
                    "def" : {
                      "kind" : "remix",
                      "shape" : "shape-rectangle",
                      "style" : "basic",
                      "fill-color-blue" : 0.0,
                      "fill-color-green" : 0.0,
                      "fill-color-opacity" : 0.0,
                      "fill-color-red" : 0.0,
                      "height" : 312.448978955194,
                      "stroke-color-blue" : 0.0,
                      "stroke-color-green" : 0.0,
                      "stroke-color-opacity" : 1.0,
                      "stroke-color-red" : 1.0,
                      "stroke-width" : 15.0,
                      "width" : 550.403733920133,
                      "fill-style" : "solid",
                      "horizontal-alignment" : "center",
                      "stroke-style" : "solid",
                      "vertical-alignment" : "center",
                      "textAttributes" : {
                        "type" : "textAttributeList",
                        "keyframes" : [
                          {
                            "endTime" : 0,
                            "time" : 0,
                            "value" : null,
                            "duration" : 0
                          }
                        ]
                      }
                    },
                    "attributes" : {
                      "autoRotateText" : true
                    },
                    "parameters" : {
                      "translation0" : 968.725696827914,
                      "translation1" : 470.561224171903
                    },
                    "effects" : [
                        {
                          "effectName" : "DropShadow",
                          "category" : "categoryVisualEffects",
                          "parameters" : {
                            "angle" : 5.49778714378214,
                            "blur" : 10.0,
                            "color-alpha" : 1.0,
                            "color-blue" : 0.1216,
                            "color-green" : 0.1216,
                            "color-red" : 0.1216,
                            "enabled" : 1,
                            "offset" : 10.0,
                            "opacity" : 0.4
                          }
                        }
                    ],
                    "start" : 2761,
                    "duration" : 159,
                    "mediaStart" : 2,
                    "mediaDuration" : 159,
                    "scalar" : 1,
                    "metadata" : {
                      "WinSubProjectDisplayName" : "",
                      "clipSpeedAttribute" : false,
                      "default-callout-shape" : "shape-rectangle",
                      "default-stroke-color-red" : 0.0,
                      "default-stroke-width" : 6.0,
                      "default-translation0" : 0.0,
                      "default-translation1" : 0.0
                    },
                    "animationTracks" : {

                    }
                  },
                  {
                    "id" : 496,
                    "_type" : "Callout",
                    "def" : {
                      "kind" : "remix",
                      "shape" : "text-rectangle",
                      "style" : "basic",
                      "fill-color-blue" : 0.270588235294118,
                      "fill-color-green" : 0.243137254901961,
                      "fill-color-opacity" : 1.0,
                      "fill-color-red" : 0.211764705882353,
                      "height" : 118.494897959012,
                      "line-spacing" : 0.0,
                      "stroke-color-blue" : 0.890196078431372,
                      "stroke-color-green" : 0.870588235294118,
                      "stroke-color-opacity" : 1.0,
                      "stroke-color-red" : 0.847058823529412,
                      "stroke-width" : 2.0,
                      "tail-x" : -575.765306122525,
                      "tail-y" : -28.7372448978191,
                      "width" : 1985.90561224522,
                      "word-wrap" : 1.0,
                      "fill-style" : "solid",
                      "horizontal-alignment" : "center",
                      "resize-behavior" : "resizeText",
                      "stroke-style" : "solid",
                      "text" : "Let us wait for PatchGuard reaction, e.g. BSOD",
                      "vertical-alignment" : "center",
                      "font" : {
                        "color-blue" : 0.266666666666667,
                        "color-green" : 0.231372549019608,
                        "color-opacity" : 1.0,
                        "color-red" : 0.184313725490196,
                        "size" : 64.0,
                        "tracking" : 0.0,
                        "name" : "Montserrat",
                        "weight" : "Regular"
                      },
                      "textAttributes" : {
                        "type" : "textAttributeList",
                        "keyframes" : [
                          {
                            "endTime" : 0,
                            "time" : 0,
                            "value" : [{"name":"fontSize","rangeEnd":46,"rangeStart":0,"value":80,"valueType":"double"},{"name":"fgColor","rangeEnd":46,"rangeStart":0,"value":"(255,255,255,255)","valueType":"color"},{"name":"fontWeight","rangeEnd":46,"rangeStart":0,"value":400,"valueType":"int"},{"name":"fontName","rangeEnd":46,"rangeStart":0,"value":"Montserrat","valueType":"string"},{"name":"fontItalic","rangeEnd":46,"rangeStart":0,"value":0,"valueType":"int"},{"name":"underline","rangeEnd":46,"rangeStart":0,"value":0,"valueType":"int"},{"name":"strikethrough","rangeEnd":46,"rangeStart":0,"value":0,"valueType":"int"}],
                            "duration" : 0
                          }
                        ]
                      }
                    },
                    "attributes" : {
                      "autoRotateText" : true
                    },
                    "parameters" : {
                      "translation0" : -2.84501311398344e-11,
                      "translation1" : -600.676021186988
                    },
                    "effects" : [
                        {
                          "effectName" : "DropShadow",
                          "category" : "categoryVisualEffects",
                          "parameters" : {
                            "angle" : 5.49778714378214,
                            "blur" : 10.0,
                            "color-alpha" : 1.0,
                            "color-blue" : 0.1216,
                            "color-green" : 0.1216,
                            "color-red" : 0.1216,
                            "enabled" : 1,
                            "offset" : 10.0,
                            "opacity" : 0.4
                          }
                        }
                    ],
                    "start" : 3002,
                    "duration" : 424,
                    "mediaStart" : -60,
                    "mediaDuration" : 424,
                    "scalar" : 1,
                    "metadata" : {
                      "WinSubProjectDisplayName" : "",
                      "clipSpeedAttribute" : false,
                      "default-HAlign" : "center",
                      "default-LineSpace" : 0.0,
                      "default-VAlign" : "center",
                      "default-fill-color-blue" : 1.0,
                      "default-fill-color-green" : 1.0,
                      "default-fill-color-red" : 1.0,
                      "default-rotation2" : 0.0,
                      "default-scale0" : 1.0,
                      "default-scale1" : 1.0,
                      "default-stroke-color-blue" : 0.56078431372549,
                      "default-stroke-color-green" : 0.686274509803922,
                      "default-stroke-color-red" : 0.0196078431372549,
                      "default-text-attributes" : "[{\"name\":\"fontSize\",\"rangeEnd\":32,\"rangeStart\":0,\"value\":64,\"valueType\":\"double\"},{\"name\":\"fgColor\",\"rangeEnd\":32,\"rangeStart\":0,\"value\":\"(255,255,255,255)\",\"valueType\":\"color\"},{\"name\":\"fontWeight\",\"rangeEnd\":32,\"rangeStart\":0,\"value\":400,\"valueType\":\"int\"},{\"name\":\"fontName\",\"rangeEnd\":32,\"rangeStart\":0,\"value\":\"Montserrat\",\"valueType\":\"string\"},{\"name\":\"fontItalic\",\"rangeEnd\":32,\"rangeStart\":0,\"value\":0,\"valueType\":\"int\"},{\"name\":\"strikethrough\",\"rangeEnd\":32,\"rangeStart\":0,\"value\":0,\"valueType\":\"int\"},{\"name\":\"underline\",\"rangeEnd\":32,\"rangeStart\":0,\"value\":0,\"valueType\":\"int\"}]",
                      "default-translation0" : 0.0,
                      "default-translation1" : 0.0
                    },
                    "animationTracks" : {

                    }
                  },
                  {
                    "id" : 497,
                    "_type" : "Callout",
                    "def" : {
                      "kind" : "remix",
                      "shape" : "text-rectangle",
                      "style" : "basic",
                      "fill-color-blue" : 0.0,
                      "fill-color-green" : 0.0,
                      "fill-color-opacity" : 1.0,
                      "fill-color-red" : 0.6,
                      "height" : 121.142857142888,
                      "line-spacing" : 0.0,
                      "stroke-color-blue" : 0.890196078431372,
                      "stroke-color-green" : 0.870588235294118,
                      "stroke-color-opacity" : 1.0,
                      "stroke-color-red" : 0.847058823529412,
                      "stroke-width" : 2.0,
                      "tail-x" : -658.7786989797,
                      "tail-y" : 28.0994897961784,
                      "width" : 2019.9404209093,
                      "word-wrap" : 1.0,
                      "fill-style" : "solid",
                      "horizontal-alignment" : "center",
                      "resize-behavior" : "resizeText",
                      "stroke-style" : "solid",
                      "text" : "10 hours have passed - a BSOD hasn't occurred!",
                      "vertical-alignment" : "center",
                      "font" : {
                        "color-blue" : 0.266666666666667,
                        "color-green" : 0.231372549019608,
                        "color-opacity" : 1.0,
                        "color-red" : 0.184313725490196,
                        "size" : 64.0,
                        "tracking" : 0.0,
                        "name" : "Montserrat",
                        "weight" : "Regular"
                      },
                      "textAttributes" : {
                        "type" : "textAttributeList",
                        "keyframes" : [
                          {
                            "endTime" : 0,
                            "time" : 0,
                            "value" : [{"name":"fontSize","rangeEnd":46,"rangeStart":0,"value":80,"valueType":"double"},{"name":"strikethrough","rangeEnd":46,"rangeStart":0,"value":0,"valueType":"int"},{"name":"fgColor","rangeEnd":46,"rangeStart":0,"value":"(255,255,255,255)","valueType":"color"},{"name":"underline","rangeEnd":46,"rangeStart":0,"value":0,"valueType":"int"},{"name":"fontName","rangeEnd":46,"rangeStart":0,"value":"Montserrat","valueType":"string"},{"name":"kerning","rangeEnd":46,"rangeStart":0,"value":0,"valueType":"double"},{"name":"fontItalic","rangeEnd":46,"rangeStart":0,"value":0,"valueType":"int"},{"name":"fontWeight","rangeEnd":46,"rangeStart":0,"value":400,"valueType":"int"}],
                            "duration" : 0
                          }
                        ]
                      }
                    },
                    "attributes" : {
                      "autoRotateText" : true
                    },
                    "parameters" : {
                      "translation0" : -1.06865627458319e-11,
                      "translation1" : -576.16326367208
                    },
                    "effects" : [
                        {
                          "effectName" : "DropShadow",
                          "category" : "categoryVisualEffects",
                          "parameters" : {
                            "angle" : 5.49778714378214,
                            "blur" : 10.0,
                            "color-alpha" : 1.0,
                            "color-blue" : 0.1216,
                            "color-green" : 0.1216,
                            "color-red" : 0.1216,
                            "enabled" : 1,
                            "offset" : 10.0,
                            "opacity" : 0.4
                          }
                        }
                    ],
                    "start" : 3439,
                    "duration" : 189,
                    "mediaStart" : -85,
                    "mediaDuration" : 189,
                    "scalar" : 1,
                    "metadata" : {
                      "WinSubProjectDisplayName" : "",
                      "clipSpeedAttribute" : false,
                      "default-HAlign" : "center",
                      "default-LineSpace" : 0.0,
                      "default-VAlign" : "center",
                      "default-fill-color-blue" : 1.0,
                      "default-fill-color-green" : 1.0,
                      "default-fill-color-red" : 1.0,
                      "default-scale0" : 1.0,
                      "default-scale1" : 1.0,
                      "default-stroke-color-blue" : 0.56078431372549,
                      "default-stroke-color-green" : 0.686274509803922,
                      "default-stroke-color-red" : 0.0196078431372549,
                      "default-text-attributes" : "[{\"name\":\"fontSize\",\"rangeEnd\":32,\"rangeStart\":0,\"value\":64,\"valueType\":\"double\"},{\"name\":\"fgColor\",\"rangeEnd\":32,\"rangeStart\":0,\"value\":\"(255,255,255,255)\",\"valueType\":\"color\"},{\"name\":\"fontWeight\",\"rangeEnd\":32,\"rangeStart\":0,\"value\":400,\"valueType\":\"int\"},{\"name\":\"fontName\",\"rangeEnd\":32,\"rangeStart\":0,\"value\":\"Montserrat\",\"valueType\":\"string\"},{\"name\":\"fontItalic\",\"rangeEnd\":32,\"rangeStart\":0,\"value\":0,\"valueType\":\"int\"},{\"name\":\"strikethrough\",\"rangeEnd\":32,\"rangeStart\":0,\"value\":0,\"valueType\":\"int\"},{\"name\":\"underline\",\"rangeEnd\":32,\"rangeStart\":0,\"value\":0,\"valueType\":\"int\"}]",
                      "default-translation0" : 0.0,
                      "default-translation1" : 0.0
                    },
                    "animationTracks" : {

                    }
                  },
                  {
                    "id" : 498,
                    "_type" : "Callout",
                    "def" : {
                      "kind" : "remix",
                      "shape" : "shape-rectangle",
                      "style" : "basic",
                      "fill-color-blue" : 0.0,
                      "fill-color-green" : 0.0,
                      "fill-color-opacity" : 0.0,
                      "fill-color-red" : 0.0,
                      "height" : 1425.0000132701,
                      "stroke-color-blue" : 0.0,
                      "stroke-color-green" : 0.0,
                      "stroke-color-opacity" : 1.0,
                      "stroke-color-red" : 1.0,
                      "stroke-width" : 20.0,
                      "width" : 2545.0000370042,
                      "fill-style" : "solid",
                      "horizontal-alignment" : "center",
                      "stroke-style" : "solid",
                      "vertical-alignment" : "center",
                      "textAttributes" : {
                        "type" : "textAttributeList",
                        "keyframes" : [
                          {
                            "endTime" : 0,
                            "time" : 0,
                            "value" : null,
                            "duration" : 0
                          }
                        ]
                      }
                    },
                    "attributes" : {
                      "autoRotateText" : true
                    },
                    "parameters" : {
                      "translation0" : 2.74037444114583e-05,
                      "translation1" : -7.78523750000204e-06
                    },
                    "effects" : [
                        {
                          "effectName" : "DropShadow",
                          "category" : "categoryVisualEffects",
                          "parameters" : {
                            "angle" : 5.49778714378214,
                            "blur" : 10.0,
                            "color-alpha" : 1.0,
                            "color-blue" : 0.1216,
                            "color-green" : 0.1216,
                            "color-red" : 0.1216,
                            "enabled" : 1,
                            "offset" : 10.0,
                            "opacity" : 0.4
                          }
                        }
                    ],
                    "start" : 3638,
                    "duration" : 269,
                    "mediaStart" : -170,
                    "mediaDuration" : 269,
                    "scalar" : 1,
                    "metadata" : {
                      "WinSubProjectDisplayName" : "",
                      "clipSpeedAttribute" : false,
                      "default-callout-shape" : "shape-rectangle",
                      "default-stroke-color-red" : 0.0,
                      "default-stroke-width" : 6.0,
                      "default-translation0" : 0.0,
                      "default-translation1" : 0.0
                    },
                    "animationTracks" : {

                    }
                  }
                ]
              },
              {
                "trackIndex" : 5,
                "medias" : [
                  {
                    "id" : 499,
                    "_type" : "Callout",
                    "def" : {
                      "kind" : "remix",
                      "shape" : "shape-rectangle",
                      "style" : "basic",
                      "fill-color-blue" : 0.0,
                      "fill-color-green" : 0.0,
                      "fill-color-opacity" : 0.0,
                      "fill-color-red" : 0.0,
                      "height" : 152.857142856997,
                      "stroke-color-blue" : 0.0,
                      "stroke-color-green" : 0.0,
                      "stroke-color-opacity" : 1.0,
                      "stroke-color-red" : 1.0,
                      "stroke-width" : 15.0,
                      "width" : 2452.11162458076,
                      "fill-style" : "solid",
                      "horizontal-alignment" : "center",
                      "stroke-style" : "solid",
                      "vertical-alignment" : "center",
                      "textAttributes" : {
                        "type" : "textAttributeList",
                        "keyframes" : [
                          {
                            "endTime" : 0,
                            "time" : 0,
                            "value" : null,
                            "duration" : 0
                          }
                        ]
                      }
                    },
                    "attributes" : {
                      "autoRotateText" : true
                    },
                    "parameters" : {
                      "translation0" : -49.9442051482216,
                      "translation1" : 640.833333333753
                    },
                    "effects" : [
                        {
                          "effectName" : "DropShadow",
                          "category" : "categoryVisualEffects",
                          "parameters" : {
                            "angle" : 5.49778714378214,
                            "blur" : 10.0,
                            "color-alpha" : 1.0,
                            "color-blue" : 0.1216,
                            "color-green" : 0.1216,
                            "color-red" : 0.1216,
                            "enabled" : 1,
                            "offset" : 10.0,
                            "opacity" : 0.4
                          }
                        }
                    ],
                    "start" : 894,
                    "duration" : 239,
                    "mediaStart" : 35,
                    "mediaDuration" : 239,
                    "scalar" : 1,
                    "metadata" : {
                      "WinSubProjectDisplayName" : "",
                      "clipSpeedAttribute" : false,
                      "default-callout-shape" : "shape-rectangle",
                      "default-stroke-color-red" : 0.0,
                      "default-stroke-width" : 6.0,
                      "default-translation0" : 0.0,
                      "default-translation1" : 0.0
                    },
                    "animationTracks" : {

                    }
                  },
                  {
                    "id" : 500,
                    "_type" : "IMFile",
                    "src" : 7,
                    "trackNumber" : 0,
                    "trimStartSum" : -22,
                    "attributes" : {
                      "ident" : "256"
                    },
                    "parameters" : {
                      "translation0" : 1034.88372093045,
                      "translation1" : -261.627906976738,
                      "scale0" : 1.68132267441802,
                      "scale1" : 1.68132267441802
                    },
                    "effects" : [

                    ],
                    "start" : 1738,
                    "duration" : 193,
                    "mediaStart" : 0,
                    "mediaDuration" : 1,
                    "scalar" : 1,
                    "metadata" : {
                      "clipSpeedAttribute" : false,
                      "default-scale0" : 1.0,
                      "default-scale1" : 1.0,
                      "default-translation0" : 0.0,
                      "default-translation1" : 0.0
                    },
                    "animationTracks" : {

                    }
                  },
                  {
                    "id" : 501,
                    "_type" : "AMFile",
                    "src" : 2,
                    "trackNumber" : 0,
                    "attributes" : {
                      "ident" : "Cinematic_Sound_Effects_Impacts_HD-youtube-C7monbiQkZo-251-320--sec 37-40",
                      "gain" : 1.0,
                      "mixToMono" : false
                    },
                      "channelNumber" : "0,1",
                    "effects" : [

                    ],
                    "start" : 2095,
                    "duration" : 87,
                    "mediaStart" : 1141,
                    "mediaDuration" : 87,
                    "scalar" : 1,
                    "metadata" : {
                      "clipSpeedAttribute" : false
                    },
                    "animationTracks" : {

                    }
                  },
                  {
                    "id" : 502,
                    "_type" : "Callout",
                    "def" : {
                      "kind" : "remix",
                      "shape" : "shape-rectangle",
                      "style" : "basic",
                      "fill-color-blue" : 0.0,
                      "fill-color-green" : 0.0,
                      "fill-color-opacity" : 0.0,
                      "fill-color-red" : 0.0,
                      "height" : 273.147258903825,
                      "stroke-color-blue" : 0.0,
                      "stroke-color-green" : 0.0,
                      "stroke-color-opacity" : 1.0,
                      "stroke-color-red" : 1.0,
                      "stroke-width" : 15.0,
                      "width" : 461.641398722188,
                      "fill-style" : "solid",
                      "horizontal-alignment" : "center",
                      "stroke-style" : "solid",
                      "vertical-alignment" : "center",
                      "textAttributes" : {
                        "type" : "textAttributeList",
                        "keyframes" : [
                          {
                            "endTime" : 0,
                            "time" : 0,
                            "value" : null,
                            "duration" : 0
                          }
                        ]
                      }
                    },
                    "attributes" : {
                      "autoRotateText" : true
                    },
                    "parameters" : {
                      "translation0" : -27.2921254323669,
                      "translation1" : -303.235294117104
                    },
                    "effects" : [
                        {
                          "effectName" : "DropShadow",
                          "category" : "categoryVisualEffects",
                          "parameters" : {
                            "angle" : 5.49778714378214,
                            "blur" : 10.0,
                            "color-alpha" : 1.0,
                            "color-blue" : 0.1216,
                            "color-green" : 0.1216,
                            "color-red" : 0.1216,
                            "enabled" : 1,
                            "offset" : 10.0,
                            "opacity" : 0.4
                          }
                        }
                    ],
                    "start" : 3097,
                    "duration" : 329,
                    "mediaStart" : -103,
                    "mediaDuration" : 329,
                    "scalar" : 1,
                    "metadata" : {
                      "WinSubProjectDisplayName" : "",
                      "clipSpeedAttribute" : false,
                      "default-callout-shape" : "shape-rectangle",
                      "default-stroke-color-red" : 0.0,
                      "default-stroke-width" : 6.0,
                      "default-translation0" : 0.0,
                      "default-translation1" : 0.0
                    },
                    "animationTracks" : {

                    }
                  },
                  {
                    "id" : 503,
                    "_type" : "Callout",
                    "def" : {
                      "kind" : "remix",
                      "shape" : "text-rectangle",
                      "style" : "basic",
                      "fill-color-blue" : 0.0,
                      "fill-color-green" : 0.0,
                      "fill-color-opacity" : 1.0,
                      "fill-color-red" : 0.6,
                      "height" : 115.501700679605,
                      "line-spacing" : 0.0,
                      "stroke-color-blue" : 0.890196078431372,
                      "stroke-color-green" : 0.870588235294118,
                      "stroke-color-opacity" : 1.0,
                      "stroke-color-red" : 0.847058823529412,
                      "stroke-width" : 2.0,
                      "tail-x" : -318.027210884214,
                      "tail-y" : 10.582482993341,
                      "width" : 1121.65391156476,
                      "word-wrap" : 1.0,
                      "fill-style" : "solid",
                      "horizontal-alignment" : "center",
                      "resize-behavior" : "resizeText",
                      "stroke-style" : "solid",
                      "text" : "The OS is not protected!",
                      "vertical-alignment" : "center",
                      "font" : {
                        "color-blue" : 0.266666666666667,
                        "color-green" : 0.231372549019608,
                        "color-opacity" : 1.0,
                        "color-red" : 0.184313725490196,
                        "size" : 64.0,
                        "tracking" : 0.0,
                        "name" : "Montserrat",
                        "weight" : "Regular"
                      },
                      "textAttributes" : {
                        "type" : "textAttributeList",
                        "keyframes" : [
                          {
                            "endTime" : 0,
                            "time" : 0,
                            "value" : [{"name":"fontItalic","rangeEnd":24,"rangeStart":0,"value":0,"valueType":"int"},{"name":"fontSize","rangeEnd":24,"rangeStart":0,"value":80,"valueType":"double"},{"name":"fontWeight","rangeEnd":24,"rangeStart":0,"value":400,"valueType":"int"},{"name":"underline","rangeEnd":24,"rangeStart":0,"value":0,"valueType":"int"},{"name":"fontName","rangeEnd":24,"rangeStart":0,"value":"Montserrat","valueType":"string"},{"name":"strikethrough","rangeEnd":24,"rangeStart":0,"value":0,"valueType":"int"},{"name":"fgColor","rangeEnd":24,"rangeStart":0,"value":"(255,255,255,255)","valueType":"color"}],
                            "duration" : 0
                          }
                        ]
                      }
                    },
                    "attributes" : {
                      "autoRotateText" : true
                    },
                    "parameters" : {
                      "translation0" : -3.5527136788005e-12,
                      "translation1" : -541.428571428783
                    },
                    "effects" : [
                        {
                          "effectName" : "DropShadow",
                          "category" : "categoryVisualEffects",
                          "parameters" : {
                            "angle" : 5.49778714378214,
                            "blur" : 10.0,
                            "color-alpha" : 1.0,
                            "color-blue" : 0.1216,
                            "color-green" : 0.1216,
                            "color-red" : 0.1216,
                            "enabled" : 1,
                            "offset" : 10.0,
                            "opacity" : 0.4
                          }
                        }
                    ],
                    "start" : 3715,
                    "duration" : 192,
                    "mediaStart" : -180,
                    "mediaDuration" : 192,
                    "scalar" : 1,
                    "metadata" : {
                      "WinSubProjectDisplayName" : "",
                      "clipSpeedAttribute" : false,
                      "default-HAlign" : "center",
                      "default-LineSpace" : 0.0,
                      "default-VAlign" : "center",
                      "default-fill-color-blue" : 1.0,
                      "default-fill-color-green" : 1.0,
                      "default-fill-color-red" : 1.0,
                      "default-scale0" : 1.0,
                      "default-scale1" : 1.0,
                      "default-stroke-color-blue" : 0.56078431372549,
                      "default-stroke-color-green" : 0.686274509803922,
                      "default-stroke-color-red" : 0.0196078431372549,
                      "default-text-attributes" : "[{\"name\":\"fontSize\",\"rangeEnd\":32,\"rangeStart\":0,\"value\":64,\"valueType\":\"double\"},{\"name\":\"fgColor\",\"rangeEnd\":32,\"rangeStart\":0,\"value\":\"(255,255,255,255)\",\"valueType\":\"color\"},{\"name\":\"fontWeight\",\"rangeEnd\":32,\"rangeStart\":0,\"value\":400,\"valueType\":\"int\"},{\"name\":\"fontName\",\"rangeEnd\":32,\"rangeStart\":0,\"value\":\"Montserrat\",\"valueType\":\"string\"},{\"name\":\"fontItalic\",\"rangeEnd\":32,\"rangeStart\":0,\"value\":0,\"valueType\":\"int\"},{\"name\":\"strikethrough\",\"rangeEnd\":32,\"rangeStart\":0,\"value\":0,\"valueType\":\"int\"},{\"name\":\"underline\",\"rangeEnd\":32,\"rangeStart\":0,\"value\":0,\"valueType\":\"int\"}]",
                      "default-translation0" : 0.0,
                      "default-translation1" : 0.0
                    },
                    "animationTracks" : {

                    }
                  }
                ]
              },
              {
                "trackIndex" : 6,
                "medias" : [
                  {
                    "id" : 504,
                    "_type" : "IMFile",
                    "src" : 7,
                    "trackNumber" : 0,
                    "trimStartSum" : -25,
                    "attributes" : {
                      "ident" : "256"
                    },
                    "parameters" : {
                      "translation0" : 1034.88372093045,
                      "translation1" : -215.116279069736,
                      "scale0" : 1.68132267441802,
                      "scale1" : 1.68132267441802
                    },
                    "effects" : [

                    ],
                    "start" : 2095,
                    "duration" : 169,
                    "mediaStart" : 0,
                    "mediaDuration" : 1,
                    "scalar" : 1,
                    "metadata" : {
                      "clipSpeedAttribute" : false,
                      "default-scale0" : 1.0,
                      "default-scale1" : 1.0,
                      "default-translation0" : 0.0,
                      "default-translation1" : 0.0
                    },
                    "animationTracks" : {

                    }
                  },
                  {
                    "id" : 505,
                    "_type" : "Callout",
                    "def" : {
                      "kind" : "remix",
                      "shape" : "shape-rectangle",
                      "style" : "basic",
                      "fill-color-blue" : 0.0,
                      "fill-color-green" : 0.0,
                      "fill-color-opacity" : 0.0,
                      "fill-color-red" : 0.0,
                      "height" : 282.00680272138,
                      "stroke-color-blue" : 0.0,
                      "stroke-color-green" : 0.0,
                      "stroke-color-opacity" : 1.0,
                      "stroke-color-red" : 1.0,
                      "stroke-width" : 15.0,
                      "width" : 487.451722851973,
                      "fill-style" : "solid",
                      "horizontal-alignment" : "center",
                      "stroke-style" : "solid",
                      "vertical-alignment" : "center",
                      "textAttributes" : {
                        "type" : "textAttributeList",
                        "keyframes" : [
                          {
                            "endTime" : 0,
                            "time" : 0,
                            "value" : null,
                            "duration" : 0
                          }
                        ]
                      }
                    },
                    "attributes" : {
                      "autoRotateText" : true
                    },
                    "parameters" : {
                      "translation0" : 955.480983811451,
                      "translation1" : 480.714285714869
                    },
                    "effects" : [
                        {
                          "effectName" : "DropShadow",
                          "category" : "categoryVisualEffects",
                          "parameters" : {
                            "angle" : 5.49778714378214,
                            "blur" : 10.0,
                            "color-alpha" : 1.0,
                            "color-blue" : 0.1216,
                            "color-green" : 0.1216,
                            "color-red" : 0.1216,
                            "enabled" : 1,
                            "offset" : 10.0,
                            "opacity" : 0.4
                          }
                        }
                    ],
                    "start" : 3162,
                    "duration" : 264,
                    "mediaStart" : -76,
                    "mediaDuration" : 264,
                    "scalar" : 1,
                    "metadata" : {
                      "WinSubProjectDisplayName" : "",
                      "clipSpeedAttribute" : false,
                      "default-callout-shape" : "shape-rectangle",
                      "default-stroke-color-red" : 0.0,
                      "default-stroke-width" : 6.0,
                      "default-translation0" : 0.0,
                      "default-translation1" : 0.0
                    },
                    "animationTracks" : {

                    }
                  },
                  {
                    "id" : 506,
                    "_type" : "AMFile",
                    "src" : 2,
                    "trackNumber" : 0,
                    "attributes" : {
                      "ident" : "Cinematic_Sound_Effects_Impacts_HD-youtube-C7monbiQkZo-251-320--sec 37-40",
                      "gain" : 1.0,
                      "mixToMono" : false
                    },
                      "channelNumber" : "0,1",
                    "parameters" : {
                      "volume" : {
                        "type" : "double",
                        "keyframes" : [
                          {
                            "endTime" : 0,
                            "time" : 0,
                            "value" : 1.0,
                            "duration" : 0
                          },
                          {
                            "endTime" : 720,
                            "time" : 720,
                            "value" : 1.0,
                            "duration" : 0
                          },
                          {
                            "endTime" : 735,
                            "time" : 735,
                            "value" : 0.0,
                            "duration" : 0
                          },
                          {
                            "endTime" : 736,
                            "time" : 736,
                            "value" : 1.0,
                            "duration" : 0
                          }
                        ]
                      }
                    },
                    "effects" : [

                    ],
                    "start" : 3759,
                    "duration" : 148,
                    "mediaStart" : 587,
                    "mediaDuration" : 148,
                    "scalar" : 1,
                    "metadata" : {
                      "clipSpeedAttribute" : false
                    },
                    "animationTracks" : {

                    }
                  }
                ]
              },
              {
                "trackIndex" : 7,
                "medias" : [
                  {
                    "id" : 507,
                    "_type" : "VMFile",
                    "src" : 8,
                    "trackNumber" : 0,
                    "attributes" : {
                      "ident" : "ezgif-3-86c503cbd005"
                    },
                    "parameters" : {
                      "translation0" : 1100.90697674424,
                      "translation1" : -197.38095238065,
                      "scale0" : 0.6,
                      "scale1" : 0.6
                    },
                    "effects" : [

                    ],
                    "start" : 2095,
                    "duration" : 27,
                    "mediaStart" : 0,
                    "mediaDuration" : 27,
                    "scalar" : 1,
                    "metadata" : {
                      "clipSpeedAttribute" : false,
                      "default-scale0" : 1.0,
                      "default-scale1" : 1.0,
                      "default-translation0" : 0.0,
                      "default-translation1" : 0.0
                    },
                    "animationTracks" : {

                    }
                  },
                  {
                    "id" : 508,
                    "_type" : "VMFile",
                    "src" : 8,
                    "trackNumber" : 0,
                    "attributes" : {
                      "ident" : "ezgif-3-86c503cbd005"
                    },
                    "parameters" : {
                      "translation0" : 1100.90697674424,
                      "translation1" : -197.38095238065,
                      "scale0" : 0.6,
                      "scale1" : 0.6
                    },
                    "effects" : [

                    ],
                    "start" : 2122,
                    "duration" : 27,
                    "mediaStart" : 0,
                    "mediaDuration" : 27,
                    "scalar" : 1,
                    "metadata" : {
                      "clipSpeedAttribute" : false,
                      "default-scale0" : 1.0,
                      "default-scale1" : 1.0,
                      "default-translation0" : 0.0,
                      "default-translation1" : 0.0
                    },
                    "animationTracks" : {

                    }
                  },
                  {
                    "id" : 509,
                    "_type" : "VMFile",
                    "src" : 8,
                    "trackNumber" : 0,
                    "attributes" : {
                      "ident" : "ezgif-3-86c503cbd005"
                    },
                    "parameters" : {
                      "translation0" : 1100.90697674424,
                      "translation1" : -197.38095238065,
                      "scale0" : 0.6,
                      "scale1" : 0.6
                    },
                    "effects" : [

                    ],
                    "start" : 2149,
                    "duration" : 27,
                    "mediaStart" : 0,
                    "mediaDuration" : 27,
                    "scalar" : 1,
                    "metadata" : {
                      "clipSpeedAttribute" : false,
                      "default-scale0" : 1.0,
                      "default-scale1" : 1.0,
                      "default-translation0" : 0.0,
                      "default-translation1" : 0.0
                    },
                    "animationTracks" : {

                    }
                  },
                  {
                    "id" : 510,
                    "_type" : "VMFile",
                    "src" : 8,
                    "trackNumber" : 0,
                    "attributes" : {
                      "ident" : "ezgif-3-86c503cbd005"
                    },
                    "parameters" : {
                      "translation0" : 1100.90697674424,
                      "translation1" : -197.38095238065,
                      "scale0" : 0.6,
                      "scale1" : 0.6
                    },
                    "effects" : [

                    ],
                    "start" : 2176,
                    "duration" : 27,
                    "mediaStart" : 0,
                    "mediaDuration" : 27,
                    "scalar" : 1,
                    "metadata" : {
                      "clipSpeedAttribute" : false,
                      "default-scale0" : 1.0,
                      "default-scale1" : 1.0,
                      "default-translation0" : 0.0,
                      "default-translation1" : 0.0
                    },
                    "animationTracks" : {

                    }
                  },
                  {
                    "id" : 511,
                    "_type" : "VMFile",
                    "src" : 8,
                    "trackNumber" : 0,
                    "attributes" : {
                      "ident" : "ezgif-3-86c503cbd005"
                    },
                    "parameters" : {
                      "translation0" : 1100.90697674424,
                      "translation1" : -197.38095238065,
                      "scale0" : 0.6,
                      "scale1" : 0.6
                    },
                    "effects" : [

                    ],
                    "start" : 2203,
                    "duration" : 27,
                    "mediaStart" : 0,
                    "mediaDuration" : 27,
                    "scalar" : 1,
                    "metadata" : {
                      "clipSpeedAttribute" : false,
                      "default-scale0" : 1.0,
                      "default-scale1" : 1.0,
                      "default-translation0" : 0.0,
                      "default-translation1" : 0.0
                    },
                    "animationTracks" : {

                    }
                  },
                  {
                    "id" : 512,
                    "_type" : "VMFile",
                    "src" : 8,
                    "trackNumber" : 0,
                    "attributes" : {
                      "ident" : "ezgif-3-86c503cbd005"
                    },
                    "parameters" : {
                      "translation0" : 1100.90697674424,
                      "translation1" : -197.38095238065,
                      "scale0" : 0.6,
                      "scale1" : 0.6
                    },
                    "effects" : [

                    ],
                    "start" : 2230,
                    "duration" : 27,
                    "mediaStart" : 0,
                    "mediaDuration" : 27,
                    "scalar" : 1,
                    "metadata" : {
                      "clipSpeedAttribute" : false,
                      "default-scale0" : 1.0,
                      "default-scale1" : 1.0,
                      "default-translation0" : 0.0,
                      "default-translation1" : 0.0
                    },
                    "animationTracks" : {

                    }
                  },
                  {
                    "id" : 513,
                    "_type" : "AMFile",
                    "src" : 4,
                    "trackNumber" : 0,
                    "attributes" : {
                      "ident" : "Ticking clock",
                      "gain" : 1.0,
                      "mixToMono" : false
                    },
                      "channelNumber" : "0,1",
                    "parameters" : {
                      "volume" : 0.612244897959185
                    },
                    "effects" : [

                    ],
                    "start" : 3122,
                    "duration" : 302,
                    "mediaStart" : 0,
                    "mediaDuration" : 302,
                    "scalar" : 1,
                    "metadata" : {
                      "clipSpeedAttribute" : false
                    },
                    "animationTracks" : {

                    }
                  },
                  {
                    "id" : 514,
                    "_type" : "IMFile",
                    "src" : 7,
                    "trackNumber" : 0,
                    "trimStartSum" : 31,
                    "attributes" : {
                      "ident" : "256"
                    },
                    "parameters" : {
                      "translation0" : -27.9069493409045,
                      "translation1" : 6.50288711767644e-11,
                      "scale0" : 1.57194767441768,
                      "scale1" : 1.57194767441768
                    },
                    "effects" : [

                    ],
                    "start" : 3819,
                    "duration" : 88,
                    "mediaStart" : 0,
                    "mediaDuration" : 1,
                    "scalar" : 1,
                    "metadata" : {
                      "clipSpeedAttribute" : false,
                      "default-scale0" : 1.0,
                      "default-scale1" : 1.0,
                      "default-translation0" : 0.0,
                      "default-translation1" : 0.0
                    },
                    "animationTracks" : {

                    }
                  }
                ]
              },
              {
                "trackIndex" : 8,
                "medias" : [
                  {
                    "id" : 515,
                    "_type" : "VMFile",
                    "src" : 8,
                    "trackNumber" : 0,
                    "attributes" : {
                      "ident" : "ezgif-3-86c503cbd005"
                    },
                    "parameters" : {
                      "translation0" : 973.000000000085,
                      "translation1" : -197.38095238065,
                      "scale0" : 0.6,
                      "scale1" : 0.6
                    },
                    "effects" : [

                    ],
                    "start" : 2095,
                    "duration" : 27,
                    "mediaStart" : 0,
                    "mediaDuration" : 27,
                    "scalar" : 1,
                    "metadata" : {
                      "clipSpeedAttribute" : false,
                      "default-scale0" : 1.0,
                      "default-scale1" : 1.0,
                      "default-translation0" : 0.0,
                      "default-translation1" : 0.0
                    },
                    "animationTracks" : {

                    }
                  },
                  {
                    "id" : 516,
                    "_type" : "VMFile",
                    "src" : 8,
                    "trackNumber" : 0,
                    "attributes" : {
                      "ident" : "ezgif-3-86c503cbd005"
                    },
                    "parameters" : {
                      "translation0" : 973.000000000085,
                      "translation1" : -197.38095238065,
                      "scale0" : 0.6,
                      "scale1" : 0.6
                    },
                    "effects" : [

                    ],
                    "start" : 2122,
                    "duration" : 27,
                    "mediaStart" : 0,
                    "mediaDuration" : 27,
                    "scalar" : 1,
                    "metadata" : {
                      "clipSpeedAttribute" : false,
                      "default-scale0" : 1.0,
                      "default-scale1" : 1.0,
                      "default-translation0" : 0.0,
                      "default-translation1" : 0.0
                    },
                    "animationTracks" : {

                    }
                  },
                  {
                    "id" : 517,
                    "_type" : "VMFile",
                    "src" : 8,
                    "trackNumber" : 0,
                    "attributes" : {
                      "ident" : "ezgif-3-86c503cbd005"
                    },
                    "parameters" : {
                      "translation0" : 973.000000000085,
                      "translation1" : -197.38095238065,
                      "scale0" : 0.6,
                      "scale1" : 0.6
                    },
                    "effects" : [

                    ],
                    "start" : 2149,
                    "duration" : 27,
                    "mediaStart" : 0,
                    "mediaDuration" : 27,
                    "scalar" : 1,
                    "metadata" : {
                      "clipSpeedAttribute" : false,
                      "default-scale0" : 1.0,
                      "default-scale1" : 1.0,
                      "default-translation0" : 0.0,
                      "default-translation1" : 0.0
                    },
                    "animationTracks" : {

                    }
                  },
                  {
                    "id" : 518,
                    "_type" : "VMFile",
                    "src" : 8,
                    "trackNumber" : 0,
                    "attributes" : {
                      "ident" : "ezgif-3-86c503cbd005"
                    },
                    "parameters" : {
                      "translation0" : 973.000000000085,
                      "translation1" : -197.38095238065,
                      "scale0" : 0.6,
                      "scale1" : 0.6
                    },
                    "effects" : [

                    ],
                    "start" : 2176,
                    "duration" : 27,
                    "mediaStart" : 0,
                    "mediaDuration" : 27,
                    "scalar" : 1,
                    "metadata" : {
                      "clipSpeedAttribute" : false,
                      "default-scale0" : 1.0,
                      "default-scale1" : 1.0,
                      "default-translation0" : 0.0,
                      "default-translation1" : 0.0
                    },
                    "animationTracks" : {

                    }
                  },
                  {
                    "id" : 519,
                    "_type" : "VMFile",
                    "src" : 8,
                    "trackNumber" : 0,
                    "attributes" : {
                      "ident" : "ezgif-3-86c503cbd005"
                    },
                    "parameters" : {
                      "translation0" : 973.000000000085,
                      "translation1" : -197.38095238065,
                      "scale0" : 0.6,
                      "scale1" : 0.6
                    },
                    "effects" : [

                    ],
                    "start" : 2203,
                    "duration" : 27,
                    "mediaStart" : 0,
                    "mediaDuration" : 27,
                    "scalar" : 1,
                    "metadata" : {
                      "clipSpeedAttribute" : false,
                      "default-scale0" : 1.0,
                      "default-scale1" : 1.0,
                      "default-translation0" : 0.0,
                      "default-translation1" : 0.0
                    },
                    "animationTracks" : {

                    }
                  },
                  {
                    "id" : 520,
                    "_type" : "VMFile",
                    "src" : 8,
                    "trackNumber" : 0,
                    "attributes" : {
                      "ident" : "ezgif-3-86c503cbd005"
                    },
                    "parameters" : {
                      "translation0" : 973.000000000085,
                      "translation1" : -197.38095238065,
                      "scale0" : 0.6,
                      "scale1" : 0.6
                    },
                    "effects" : [

                    ],
                    "start" : 2230,
                    "duration" : 27,
                    "mediaStart" : 0,
                    "mediaDuration" : 27,
                    "scalar" : 1,
                    "metadata" : {
                      "clipSpeedAttribute" : false,
                      "default-scale0" : 1.0,
                      "default-scale1" : 1.0,
                      "default-translation0" : 0.0,
                      "default-translation1" : 0.0
                    },
                    "animationTracks" : {

                    }
                  },
                  {
                    "id" : 521,
                    "_type" : "VMFile",
                    "src" : 8,
                    "trackNumber" : 0,
                    "attributes" : {
                      "ident" : "ezgif-3-86c503cbd005"
                    },
                    "parameters" : {
                      "translation0" : 33.720930232395,
                      "translation1" : 16.279069767466,
                      "scale0" : 0.55,
                      "scale1" : 0.55
                    },
                    "effects" : [

                    ],
                    "start" : 3819,
                    "duration" : 27,
                    "mediaStart" : 0,
                    "mediaDuration" : 27,
                    "scalar" : 1,
                    "metadata" : {
                      "clipSpeedAttribute" : false,
                      "default-scale0" : 1.0,
                      "default-scale1" : 1.0,
                      "default-translation0" : 0.0,
                      "default-translation1" : 0.0
                    },
                    "animationTracks" : {

                    }
                  },
                  {
                    "id" : 522,
                    "_type" : "VMFile",
                    "src" : 8,
                    "trackNumber" : 0,
                    "attributes" : {
                      "ident" : "ezgif-3-86c503cbd005"
                    },
                    "parameters" : {
                      "translation0" : 33.720930232395,
                      "translation1" : 16.279069767466,
                      "scale0" : 0.55,
                      "scale1" : 0.55
                    },
                    "effects" : [

                    ],
                    "start" : 3846,
                    "duration" : 27,
                    "mediaStart" : 0,
                    "mediaDuration" : 27,
                    "scalar" : 1,
                    "metadata" : {
                      "clipSpeedAttribute" : false,
                      "default-scale0" : 1.0,
                      "default-scale1" : 1.0,
                      "default-translation0" : 0.0,
                      "default-translation1" : 0.0
                    },
                    "animationTracks" : {

                    }
                  },
                  {
                    "id" : 523,
                    "_type" : "VMFile",
                    "src" : 8,
                    "trackNumber" : 0,
                    "attributes" : {
                      "ident" : "ezgif-3-86c503cbd005"
                    },
                    "parameters" : {
                      "translation0" : 33.720930232395,
                      "translation1" : 16.279069767466,
                      "scale0" : 0.55,
                      "scale1" : 0.55
                    },
                    "effects" : [

                    ],
                    "start" : 3873,
                    "duration" : 27,
                    "mediaStart" : 0,
                    "mediaDuration" : 27,
                    "scalar" : 1,
                    "metadata" : {
                      "clipSpeedAttribute" : false,
                      "default-scale0" : 1.0,
                      "default-scale1" : 1.0,
                      "default-translation0" : 0.0,
                      "default-translation1" : 0.0
                    },
                    "animationTracks" : {

                    }
                  },
                  {
                    "id" : 524,
                    "_type" : "VMFile",
                    "src" : 8,
                    "trackNumber" : 0,
                    "attributes" : {
                      "ident" : "ezgif-3-86c503cbd005"
                    },
                    "parameters" : {
                      "translation0" : 33.720930232395,
                      "translation1" : 16.279069767466,
                      "scale0" : 0.55,
                      "scale1" : 0.55
                    },
                    "effects" : [

                    ],
                    "start" : 3900,
                    "duration" : 7,
                    "mediaStart" : 0,
                    "mediaDuration" : 7,
                    "scalar" : 1,
                    "metadata" : {
                      "clipSpeedAttribute" : false,
                      "default-scale0" : 1.0,
                      "default-scale1" : 1.0,
                      "default-translation0" : 0.0,
                      "default-translation1" : 0.0
                    },
                    "animationTracks" : {

                    }
                  }
                ]
              },
              {
                "trackIndex" : 9,
                "medias" : [
                  {
                    "id" : 525,
                    "_type" : "VMFile",
                    "src" : 8,
                    "trackNumber" : 0,
                    "attributes" : {
                      "ident" : "ezgif-3-86c503cbd005"
                    },
                    "parameters" : {
                      "translation0" : -84.8837209303685,
                      "translation1" : 16.279069767466,
                      "scale0" : 0.55,
                      "scale1" : 0.55
                    },
                    "effects" : [

                    ],
                    "start" : 3819,
                    "duration" : 27,
                    "mediaStart" : 0,
                    "mediaDuration" : 27,
                    "scalar" : 1,
                    "metadata" : {
                      "clipSpeedAttribute" : false,
                      "default-scale0" : 1.0,
                      "default-scale1" : 1.0,
                      "default-translation0" : 0.0,
                      "default-translation1" : 0.0
                    },
                    "animationTracks" : {

                    }
                  },
                  {
                    "id" : 526,
                    "_type" : "VMFile",
                    "src" : 8,
                    "trackNumber" : 0,
                    "attributes" : {
                      "ident" : "ezgif-3-86c503cbd005"
                    },
                    "parameters" : {
                      "translation0" : -84.8837209303685,
                      "translation1" : 16.279069767466,
                      "scale0" : 0.55,
                      "scale1" : 0.55
                    },
                    "effects" : [

                    ],
                    "start" : 3846,
                    "duration" : 27,
                    "mediaStart" : 0,
                    "mediaDuration" : 27,
                    "scalar" : 1,
                    "metadata" : {
                      "clipSpeedAttribute" : false,
                      "default-scale0" : 1.0,
                      "default-scale1" : 1.0,
                      "default-translation0" : 0.0,
                      "default-translation1" : 0.0
                    },
                    "animationTracks" : {

                    }
                  },
                  {
                    "id" : 527,
                    "_type" : "VMFile",
                    "src" : 8,
                    "trackNumber" : 0,
                    "attributes" : {
                      "ident" : "ezgif-3-86c503cbd005"
                    },
                    "parameters" : {
                      "translation0" : -84.8837209303685,
                      "translation1" : 16.279069767466,
                      "scale0" : 0.55,
                      "scale1" : 0.55
                    },
                    "effects" : [

                    ],
                    "start" : 3873,
                    "duration" : 27,
                    "mediaStart" : 0,
                    "mediaDuration" : 27,
                    "scalar" : 1,
                    "metadata" : {
                      "clipSpeedAttribute" : false,
                      "default-scale0" : 1.0,
                      "default-scale1" : 1.0,
                      "default-translation0" : 0.0,
                      "default-translation1" : 0.0
                    },
                    "animationTracks" : {

                    }
                  },
                  {
                    "id" : 528,
                    "_type" : "VMFile",
                    "src" : 8,
                    "trackNumber" : 0,
                    "attributes" : {
                      "ident" : "ezgif-3-86c503cbd005"
                    },
                    "parameters" : {
                      "translation0" : -84.8837209303685,
                      "translation1" : 16.279069767466,
                      "scale0" : 0.55,
                      "scale1" : 0.55
                    },
                    "effects" : [

                    ],
                    "start" : 3900,
                    "duration" : 7,
                    "mediaStart" : 0,
                    "mediaDuration" : 7,
                    "scalar" : 1,
                    "metadata" : {
                      "clipSpeedAttribute" : false,
                      "default-scale0" : 1.0,
                      "default-scale1" : 1.0,
                      "default-translation0" : 0.0,
                      "default-translation1" : 0.0
                    },
                    "animationTracks" : {

                    }
                  }
                ]
              },
              {
                "trackIndex" : 10,
                "medias" : [
                ]
              },
              {
                "trackIndex" : 11,
                "medias" : [
                ]
              },
              {
                "trackIndex" : 12,
                "medias" : [
                ]
              },
              {
                "trackIndex" : 13,
                "medias" : [
                ]
              }
            ]
          }
        }
      ]
    },
    "trackAttributes" : [
      {
        "ident" : "",
        "audioMuted" : false,
        "videoHidden" : false,
        "magnetic" : false,
        "matte" : 0,
        "metadata" : {
          "IsLocked" : "False",
          "WinTrackHeight" : "56"
        }
      },
      {
        "ident" : "",
        "audioMuted" : true,
        "videoHidden" : true,
        "magnetic" : false,
        "matte" : 0,
        "metadata" : {
          "IsLocked" : "False",
          "WinTrackHeight" : "56"
        }
      },
      {
        "ident" : "",
        "audioMuted" : false,
        "videoHidden" : false,
        "magnetic" : false,
        "matte" : 0,
        "metadata" : {
          "IsLocked" : "False",
          "WinTrackHeight" : "56"
        }
      },
      {
        "ident" : "",
        "audioMuted" : false,
        "videoHidden" : false,
        "magnetic" : false,
        "matte" : 0,
        "metadata" : {
          "IsLocked" : "False",
          "WinTrackHeight" : "56"
        }
      },
      {
        "ident" : "",
        "audioMuted" : false,
        "videoHidden" : false,
        "magnetic" : false,
        "matte" : 0,
        "metadata" : {
          "IsLocked" : "False",
          "WinTrackHeight" : "56"
        }
      },
      {
        "ident" : "",
        "audioMuted" : false,
        "videoHidden" : false,
        "magnetic" : false,
        "matte" : 0,
        "metadata" : {
          "IsLocked" : "False",
          "WinTrackHeight" : "56"
        }
      },
      {
        "ident" : "",
        "audioMuted" : false,
        "videoHidden" : false,
        "magnetic" : false,
        "matte" : 0,
        "metadata" : {
          "IsLocked" : "False",
          "WinTrackHeight" : "56"
        }
      },
      {
        "ident" : "",
        "audioMuted" : false,
        "videoHidden" : false,
        "magnetic" : false,
        "matte" : 0,
        "metadata" : {
          "IsLocked" : "False",
          "WinTrackHeight" : "56"
        }
      },
      {
        "ident" : "",
        "audioMuted" : false,
        "videoHidden" : false,
        "magnetic" : false,
        "matte" : 0,
        "metadata" : {
          "IsLocked" : "False",
          "WinTrackHeight" : "56"
        }
      },
      {
        "ident" : "",
        "audioMuted" : false,
        "videoHidden" : false,
        "magnetic" : false,
        "matte" : 0,
        "metadata" : {
          "IsLocked" : "False",
          "WinTrackHeight" : "56"
        }
      },
      {
        "ident" : "",
        "audioMuted" : false,
        "videoHidden" : false,
        "magnetic" : false,
        "matte" : 0,
        "metadata" : {
          "IsLocked" : "False",
          "WinTrackHeight" : "56"
        }
      },
      {
        "ident" : "",
        "audioMuted" : false,
        "videoHidden" : false,
        "magnetic" : false,
        "matte" : 0,
        "metadata" : {
          "IsLocked" : "False",
          "WinTrackHeight" : "56"
        }
      },
      {
        "ident" : "",
        "audioMuted" : false,
        "videoHidden" : false,
        "magnetic" : false,
        "matte" : 0,
        "metadata" : {
          "IsLocked" : "False",
          "WinTrackHeight" : "56"
        }
      },
      {
        "ident" : "",
        "audioMuted" : false,
        "videoHidden" : false,
        "magnetic" : false,
        "matte" : 0,
        "metadata" : {
          "IsLocked" : "False",
          "WinTrackHeight" : "56"
        }
      }
    ],
    "captionAttributes" : {
      "enabled" : true,
      "fontName" : "Arial",
      "fontSize" : 64,
      "backgroundColor" : [ 0, 0, 0, 191],
      "foregroundColor" : [ 255, 255, 255, 255],
      "lang" : "en",
      "alignment" : 0,
      "defaultFontSize" : true,
      "opacity" : 0.5,
      "backgroundEnabled" : true,
      "backgroundOnlyAroundText" : true
    },
    "backgroundColor" : [ 0, 0, 0, 255]
  },
  "metadata" : {
    "AutoSaveFile" : "",
    "CanvasZoom" : 43,
    "Date" : "2019-10-13 01:37:59 PM",
    "Fit" : 1,
    "IsAutoSave" : "0",
    "Language" : "ENU",
    "ProfileName" : "",
    "ProjectDimensionsChanged" : "1",
    "Title" : "5. TOKEN HIJACKING ATTACK",
    "audioNarrationNotes" : "",
    "calloutStyle" : "Basic",
    "canvasDetached" : "False",
    "canvasPositionHeight" : "0",
    "canvasPositionLeft" : "0",
    "canvasPositionTop" : "0",
    "canvasPositionWidth" : "0"
  }
}
