{
  "title" : "",
  "description" : "",
  "author" : "",
  "targetLoudness" : -18.0,
  "shouldApplyLoudnessNormalization" : false,
  "videoFormatFrameRate" : 30,
  "audioFormatSampleRate" : 44100,
  "width" : 2560.0,
  "height" : 1440.0,
  "version" : "3.0",
  "editRate" : 30,
  "authoringClientName" :  {
    "name" : "Camtasia",
    "platform" : "Windows",
    "version" : "19.0"
  },
  "sourceBin" : [
    {
      "id" : 1,
      "src" : "C:\\hijacking_is_not_an_option_raw\\token_hijacking\\token_hijacking_attack_prevention.trec",
      "rect" : [0, 0, 2560, 1440],
      "lastMod" : "20191007T203115",
      "sourceTracks" : [
        {
          "range" : [0, 20302],
          "type" : 0,
          "editRate" : 30,
          "trackRect" : [0, 0, 2560, 1440],
          "sampleRate" : 28,
          "bitDepth" : 0,
          "numChannels" : 0,
          "integratedLUFS" : 100.0,
          "peakLevel" : -1.0,
          "metaData" : "2b7b6a00-7a1f-11e2-83d0-0017f200be7f;2b7b6aef-7a1f-11e2-83d0-0017f200be7f;2b7b6af0-7a1f-11e2-83d0-0017f200be7f;2b7b6af1-7a1f-11e2-83d0-0017f200be7f;2b7b6af2-7a1f-11e2-83d0-0017f200be7f;2b7b6af3-7a1f-11e2-83d0-0017f200be7f;2b7b6af5-7a1f-11e2-83d0-0017f200be7f;2b7b6af6-7a1f-11e2-83d0-0017f200be7f;2b7b6af7-7a1f-11e2-83d0-0017f200be7f;2b7b6af8-7a1f-11e2-83d0-0017f200be7f;2b7b6af9-7a1f-11e2-83d0-0017f200be7f;2b7b6afa-7a1f-11e2-83d0-0017f200be7f;"
        }
      ],
      "metadata" : {
        "timeAdded" : "20200614T111144.170330"
      }
    },
    {
      "id" : 2,
      "src" : "K:\\Dropbox\\_Pubs&Confs\\20\\Kernel-Hijacking-Is-Not-an-Option\\video-demos\\_sounds\\Henry Jackman, Matthew Margeson - Rescuing Harry.mp3",
      "rect" : [0, 0, 0, 0],
      "lastMod" : "20181121T204035",
      "sourceTracks" : [
        {
          "range" : [0, 1050382500],
          "type" : 2,
          "editRate" : 10000000,
          "trackRect" : [0, 0, 0, 0],
          "sampleRate" : 44100,
          "bitDepth" : 0,
          "numChannels" : 2,
          "integratedLUFS" : -13.0967857406684,
          "peakLevel" : 1.06144344806671,
          "metaData" : ""
        }
      ],
      "metadata" : {
        "timeAdded" : "20200708T153652.249167"
      }
    },
    {
      "id" : 3,
      "src" : "K:\\Dropbox\\_Pubs&Confs\\20\\Kernel-Hijacking-Is-Not-an-Option\\video-demos\\_sounds\\Neizvesten+Saundtrek+k+fil+mu+RODINA+ZhDET+NEVYPOLNIMOE+ZAD_muzlishko.ru_.mp3",
      "rect" : [0, 0, 0, 0],
      "lastMod" : "20181120T102825",
      "sourceTracks" : [
        {
          "range" : [0, 1697400000],
          "type" : 2,
          "editRate" : 10000000,
          "trackRect" : [0, 0, 0, 0],
          "sampleRate" : 32000,
          "bitDepth" : 0,
          "numChannels" : 2,
          "integratedLUFS" : -10.3265153700026,
          "peakLevel" : 1.12320291996002,
          "metaData" : ""
        }
      ],
      "metadata" : {
        "timeAdded" : "20200708T153652.249167"
      }
    },
    {
      "id" : 4,
      "src" : "C:\\Users\\igork\\Documents\\Camtasia\\Rec 07-08-20_002.trec",
      "rect" : [0, 0, 2560, 1440],
      "lastMod" : "20200708T161110",
      "sourceTracks" : [
        {
          "range" : [0, 188],
          "type" : 0,
          "editRate" : 1,
          "trackRect" : [0, 0, 2560, 1440],
          "sampleRate" : 1,
          "bitDepth" : 0,
          "numChannels" : 0,
          "integratedLUFS" : 100.0,
          "peakLevel" : -1.0,
          "metaData" : "2b7b6a00-7a1f-11e2-83d0-0017f200be7f;2b7b6aef-7a1f-11e2-83d0-0017f200be7f;2b7b6af0-7a1f-11e2-83d0-0017f200be7f;2b7b6af1-7a1f-11e2-83d0-0017f200be7f;2b7b6af2-7a1f-11e2-83d0-0017f200be7f;2b7b6af3-7a1f-11e2-83d0-0017f200be7f;2b7b6af5-7a1f-11e2-83d0-0017f200be7f;2b7b6af6-7a1f-11e2-83d0-0017f200be7f;2b7b6af7-7a1f-11e2-83d0-0017f200be7f;2b7b6af8-7a1f-11e2-83d0-0017f200be7f;2b7b6af9-7a1f-11e2-83d0-0017f200be7f;2b7b6afa-7a1f-11e2-83d0-0017f200be7f;"
        },
        {
          "range" : [0, 8248320],
          "type" : 2,
          "editRate" : 44100,
          "trackRect" : [0, 0, 0, 0],
          "sampleRate" : 44100,
          "bitDepth" : 16,
          "numChannels" : 2,
          "integratedLUFS" : -24.4012739204718,
          "peakLevel" : 0.999969482421875,
          "metaData" : ""
        }
      ],
      "metadata" : {
        "timeAdded" : "20200708T161110.884250"
      }
    },
    {
      "id" : 5,
      "src" : "C:\\Users\\igork\\Documents\\Camtasia\\Rec 07-14-20_002.trec",
      "rect" : [0, 0, 2560, 1440],
      "lastMod" : "20200714T111016",
      "sourceTracks" : [
        {
          "range" : [0, 127],
          "type" : 0,
          "editRate" : 1,
          "trackRect" : [0, 0, 2560, 1440],
          "sampleRate" : 1,
          "bitDepth" : 0,
          "numChannels" : 0,
          "integratedLUFS" : 100.0,
          "peakLevel" : -1.0,
          "metaData" : "2b7b6a00-7a1f-11e2-83d0-0017f200be7f;2b7b6aef-7a1f-11e2-83d0-0017f200be7f;2b7b6af0-7a1f-11e2-83d0-0017f200be7f;2b7b6af1-7a1f-11e2-83d0-0017f200be7f;2b7b6af2-7a1f-11e2-83d0-0017f200be7f;2b7b6af3-7a1f-11e2-83d0-0017f200be7f;2b7b6af5-7a1f-11e2-83d0-0017f200be7f;2b7b6af6-7a1f-11e2-83d0-0017f200be7f;2b7b6af7-7a1f-11e2-83d0-0017f200be7f;2b7b6af8-7a1f-11e2-83d0-0017f200be7f;2b7b6af9-7a1f-11e2-83d0-0017f200be7f;2b7b6afa-7a1f-11e2-83d0-0017f200be7f;"
        },
        {
          "range" : [0, 5558272],
          "type" : 2,
          "editRate" : 44100,
          "trackRect" : [0, 0, 0, 0],
          "sampleRate" : 44100,
          "bitDepth" : 16,
          "numChannels" : 2,
          "integratedLUFS" : -16.367486886472,
          "peakLevel" : 1.0,
          "metaData" : ""
        }
      ],
      "metadata" : {
        "timeAdded" : "20200714T111016.944781"
      }
    },
    {
      "id" : 6,
      "src" : "K:\\Dropbox\\_Pubs&Confs\\20\\Kernel-Hijacking-Is-Not-an-Option\\Kernel Hijacking-Is-Not-an-Option - picts\\znayka - for demos\\pirat\\256.png",
      "rect" : [0, 0, 256, 256],
      "lastMod" : "20190311T095112",
      "sourceTracks" : [
        {
          "range" : [0, 1],
          "type" : 1,
          "editRate" : 10000000,
          "trackRect" : [0, 0, 256, 256],
          "sampleRate" : 0,
          "bitDepth" : 32,
          "numChannels" : 0,
          "integratedLUFS" : 100.0,
          "peakLevel" : -1.0,
          "metaData" : ""
        }
      ],
      "metadata" : {
        "timeAdded" : "20200714T111753.985403"
      }
    },
    {
      "id" : 7,
      "src" : "K:\\Dropbox\\_Pubs&Confs\\20\\Kernel-Hijacking-Is-Not-an-Option\\Kernel Hijacking-Is-Not-an-Option - picts\\znayka - for demos\\ranger\\memoryranger_without_gun_transparent_cropped.png",
      "rect" : [0, 0, 738, 634],
      "lastMod" : "20200711T151211",
      "sourceTracks" : [
        {
          "range" : [0, 1],
          "type" : 1,
          "editRate" : 10000000,
          "trackRect" : [0, 0, 738, 634],
          "sampleRate" : 0,
          "bitDepth" : 32,
          "numChannels" : 0,
          "integratedLUFS" : 100.0,
          "peakLevel" : -1.0,
          "metaData" : ""
        }
      ],
      "metadata" : {
        "timeAdded" : "20200714T111801.730968"
      }
    },
    {
      "id" : 8,
      "src" : "K:\\Dropbox\\_Pubs&Confs\\20\\Kernel-Hijacking-Is-Not-an-Option\\Kernel Hijacking-Is-Not-an-Option - picts\\znayka_68045037_orig_.png",
      "rect" : [0, 0, 450, 692],
      "lastMod" : "20200103T081934",
      "sourceTracks" : [
        {
          "range" : [0, 1],
          "type" : 1,
          "editRate" : 10000000,
          "trackRect" : [0, 0, 450, 692],
          "sampleRate" : 0,
          "bitDepth" : 32,
          "numChannels" : 0,
          "integratedLUFS" : 100.0,
          "peakLevel" : -1.0,
          "metaData" : ""
        }
      ],
      "metadata" : {
        "timeAdded" : "20200714T112610.303839"
      }
    },
    {
      "id" : 9,
      "src" : "K:\\Dropbox\\_Pubs&Confs\\20\\Kernel-Hijacking-Is-Not-an-Option\\Kernel Hijacking-Is-Not-an-Option - picts\\SeekPng.com_beaker-png_909154 - Copy.png",
      "rect" : [0, 0, 490, 640],
      "lastMod" : "20200624T112143",
      "sourceTracks" : [
        {
          "range" : [0, 1],
          "type" : 1,
          "editRate" : 10000000,
          "trackRect" : [0, 0, 490, 640],
          "sampleRate" : 0,
          "bitDepth" : 32,
          "numChannels" : 0,
          "integratedLUFS" : 100.0,
          "peakLevel" : -1.0,
          "metaData" : ""
        }
      ],
      "metadata" : {
        "timeAdded" : "20200714T112617.537213"
      }
    },
    {
      "id" : 10,
      "src" : "K:\\Dropbox\\_Pubs&Confs\\20\\Kernel-Hijacking-Is-Not-an-Option\\Kernel Hijacking-Is-Not-an-Option - picts\\rsz_znayka_68045037_orig_2.png",
      "rect" : [0, 0, 225, 182],
      "lastMod" : "20200714T113146",
      "sourceTracks" : [
        {
          "range" : [0, 1],
          "type" : 1,
          "editRate" : 10000000,
          "trackRect" : [0, 0, 225, 182],
          "sampleRate" : 0,
          "bitDepth" : 32,
          "numChannels" : 0,
          "integratedLUFS" : 100.0,
          "peakLevel" : -1.0,
          "metaData" : ""
        }
      ],
      "metadata" : {
        "timeAdded" : "20200714T113302.882446"
      }
    },
    {
      "id" : 11,
      "src" : "K:\\Dropbox\\_Pubs&Confs\\20\\Kernel-Hijacking-Is-Not-an-Option\\slides\\globus\\big_earth.png",
      "rect" : [0, 0, 2560, 1440],
      "lastMod" : "20200621T215944",
      "sourceTracks" : [
        {
          "range" : [0, 1],
          "type" : 1,
          "editRate" : 10000000,
          "trackRect" : [0, 0, 2560, 1440],
          "sampleRate" : 0,
          "bitDepth" : 32,
          "numChannels" : 0,
          "integratedLUFS" : 100.0,
          "peakLevel" : -1.0,
          "metaData" : ""
        }
      ],
      "metadata" : {
        "timeAdded" : "20200714T113518.490775"
      }
    }
  ],
  "timeline" : {
    "id" : 12,
    "sceneTrack" : {
      "scenes" : [
        {
          "duration" : 118.0,
          "title" : "",
          "type" : "",
          "csml" : {
            "tracks" : [
              {
                "trackIndex" : 0,
                "medias" : [
                  {
                    "id" : 13,
                    "_type" : "AMFile",
                    "src" : 3,
                    "trackNumber" : 0,
                    "attributes" : {
                      "ident" : "Neizvesten+Saundtrek+k+fil+mu+RODINA+ZhDET+NEVYPOLNIMOE+ZAD_muzlishko.ru_",
                      "gain" : 1.0,
                      "mixToMono" : false
                    },
                      "channelNumber" : "0,1",
                    "effects" : [

                    ],
                    "start" : 0,
                    "duration" : 153,
                    "mediaStart" : 124,
                    "mediaDuration" : 153,
                    "scalar" : 1,
                    "metadata" : {
                      "clipSpeedAttribute" : false
                    },
                    "animationTracks" : {

                    }
                  },
                  {
                    "id" : 14,
                    "_type" : "AMFile",
                    "src" : 5,
                    "trackNumber" : 1,
                    "attributes" : {
                      "ident" : "Rec 07-14-20_002",
                      "gain" : 1.0,
                      "mixToMono" : false
                    },
                      "channelNumber" : "0,1",
                    "effects" : [

                    ],
                    "start" : 168,
                    "duration" : 149,
                    "mediaStart" : 118,
                    "mediaDuration" : 149,
                    "scalar" : 1,
                    "metadata" : {
                      "clipSpeedAttribute" : false
                    },
                    "animationTracks" : {

                    }
                  },
                  {
                    "id" : 15,
                    "_type" : "AMFile",
                    "src" : 5,
                    "trackNumber" : 1,
                    "attributes" : {
                      "ident" : "Rec 07-14-20_002",
                      "gain" : 1.0,
                      "mixToMono" : false
                    },
                      "channelNumber" : "0,1",
                    "parameters" : {
                      "volume" : 1.38483965014578
                    },
                    "effects" : [

                    ],
                    "start" : 366,
                    "duration" : 596,
                    "mediaStart" : 356,
                    "mediaDuration" : 596,
                    "scalar" : 1,
                    "metadata" : {
                      "clipSpeedAttribute" : false
                    },
                    "animationTracks" : {

                    }
                  },
                  {
                    "id" : 16,
                    "_type" : "AMFile",
                    "src" : 5,
                    "trackNumber" : 1,
                    "attributes" : {
                      "ident" : "Rec 07-14-20_002",
                      "gain" : 1.0,
                      "mixToMono" : false
                    },
                      "channelNumber" : "0,1",
                    "parameters" : {
                      "volume" : 1.38483965014578
                    },
                    "effects" : [

                    ],
                    "start" : 1006,
                    "duration" : 305,
                    "mediaStart" : 1333,
                    "mediaDuration" : 305,
                    "scalar" : 1,
                    "metadata" : {
                      "clipSpeedAttribute" : false
                    },
                    "animationTracks" : {

                    }
                  },
                  {
                    "id" : 17,
                    "_type" : "AMFile",
                    "src" : 5,
                    "trackNumber" : 1,
                    "attributes" : {
                      "ident" : "Rec 07-14-20_002",
                      "gain" : 1.0,
                      "mixToMono" : false
                    },
                      "channelNumber" : "0,1",
                    "parameters" : {
                      "volume" : 1.38483965014578
                    },
                    "effects" : [

                    ],
                    "start" : 1479,
                    "duration" : 122,
                    "mediaStart" : 1638,
                    "mediaDuration" : 122,
                    "scalar" : 1,
                    "metadata" : {
                      "clipSpeedAttribute" : false
                    },
                    "animationTracks" : {

                    }
                  },
                  {
                    "id" : 18,
                    "_type" : "AMFile",
                    "src" : 5,
                    "trackNumber" : 1,
                    "attributes" : {
                      "ident" : "Rec 07-14-20_002",
                      "gain" : 1.0,
                      "mixToMono" : false
                    },
                      "channelNumber" : "0,1",
                    "parameters" : {
                      "volume" : 1.38483965014578
                    },
                    "effects" : [

                    ],
                    "start" : 1633,
                    "duration" : 376,
                    "mediaStart" : 1960,
                    "mediaDuration" : 376,
                    "scalar" : 1,
                    "metadata" : {
                      "clipSpeedAttribute" : false
                    },
                    "animationTracks" : {

                    }
                  },
                  {
                    "id" : 19,
                    "_type" : "AMFile",
                    "src" : 5,
                    "trackNumber" : 1,
                    "attributes" : {
                      "ident" : "Rec 07-14-20_002",
                      "gain" : 1.0,
                      "mixToMono" : false
                    },
                      "channelNumber" : "0,1",
                    "parameters" : {
                      "volume" : 1.38483965014578
                    },
                    "effects" : [

                    ],
                    "start" : 2027,
                    "duration" : 449,
                    "mediaStart" : 2399,
                    "mediaDuration" : 449,
                    "scalar" : 1,
                    "metadata" : {
                      "clipSpeedAttribute" : false
                    },
                    "animationTracks" : {

                    }
                  },
                  {
                    "id" : 20,
                    "_type" : "AMFile",
                    "src" : 5,
                    "trackNumber" : 1,
                    "attributes" : {
                      "ident" : "Rec 07-14-20_002",
                      "gain" : 1.0,
                      "mixToMono" : false
                    },
                      "channelNumber" : "0,1",
                    "parameters" : {
                      "volume" : 1.38483965014578
                    },
                    "effects" : [

                    ],
                    "start" : 2534,
                    "duration" : 156,
                    "mediaStart" : 2848,
                    "mediaDuration" : 156,
                    "scalar" : 1,
                    "metadata" : {
                      "clipSpeedAttribute" : false
                    },
                    "animationTracks" : {

                    }
                  },
                  {
                    "id" : 21,
                    "_type" : "AMFile",
                    "src" : 5,
                    "trackNumber" : 1,
                    "attributes" : {
                      "ident" : "Rec 07-14-20_002",
                      "gain" : 1.0,
                      "mixToMono" : false
                    },
                      "channelNumber" : "0,1",
                    "parameters" : {
                      "volume" : 1.38483965014578
                    },
                    "effects" : [

                    ],
                    "start" : 2690,
                    "duration" : 351,
                    "mediaStart" : 3062,
                    "mediaDuration" : 351,
                    "scalar" : 1,
                    "metadata" : {
                      "clipSpeedAttribute" : false
                    },
                    "animationTracks" : {

                    }
                  },
                  {
                    "id" : 22,
                    "_type" : "AMFile",
                    "src" : 5,
                    "trackNumber" : 1,
                    "attributes" : {
                      "ident" : "Rec 07-14-20_002",
                      "gain" : 1.0,
                      "mixToMono" : false
                    },
                      "channelNumber" : "0,1",
                    "parameters" : {
                      "volume" : 1.38483965014578
                    },
                    "effects" : [

                    ],
                    "start" : 3186,
                    "duration" : 244,
                    "mediaStart" : 3537,
                    "mediaDuration" : 244,
                    "scalar" : 1,
                    "metadata" : {
                      "clipSpeedAttribute" : false
                    },
                    "animationTracks" : {

                    }
                  }
                ]
              },
              {
                "trackIndex" : 1,
                "medias" : [
                  {
                    "id" : 23,
                    "_type" : "AMFile",
                    "src" : 4,
                    "trackNumber" : 1,
                    "attributes" : {
                      "ident" : "Rec 07-08-20_002",
                      "gain" : 1.0,
                      "mixToMono" : false
                    },
                      "channelNumber" : "0,1",
                    "parameters" : {
                      "volume" : 1.73469387755104
                    },
                    "effects" : [

                    ],
                    "start" : 167,
                    "duration" : 335,
                    "mediaStart" : 303,
                    "mediaDuration" : 335,
                    "scalar" : 1,
                    "metadata" : {
                      "clipSpeedAttribute" : false
                    },
                    "animationTracks" : {

                    }
                  },
                  {
                    "id" : 24,
                    "_type" : "AMFile",
                    "src" : 4,
                    "trackNumber" : 1,
                    "attributes" : {
                      "ident" : "Rec 07-08-20_002",
                      "gain" : 1.0,
                      "mixToMono" : false
                    },
                      "channelNumber" : "0,1",
                    "parameters" : {
                      "volume" : 1.73469387755104
                    },
                    "effects" : [

                    ],
                    "start" : 560,
                    "duration" : 118,
                    "mediaStart" : 858,
                    "mediaDuration" : 118,
                    "scalar" : 1,
                    "metadata" : {
                      "clipSpeedAttribute" : false
                    },
                    "animationTracks" : {

                    }
                  },
                  {
                    "id" : 25,
                    "_type" : "AMFile",
                    "src" : 4,
                    "trackNumber" : 1,
                    "attributes" : {
                      "ident" : "Rec 07-08-20_002",
                      "gain" : 1.0,
                      "mixToMono" : false
                    },
                      "channelNumber" : "0,1",
                    "parameters" : {
                      "volume" : 1.73469387755104
                    },
                    "effects" : [

                    ],
                    "start" : 708,
                    "duration" : 67,
                    "mediaStart" : 1126,
                    "mediaDuration" : 67,
                    "scalar" : 1,
                    "metadata" : {
                      "clipSpeedAttribute" : false
                    },
                    "animationTracks" : {

                    }
                  },
                  {
                    "id" : 26,
                    "_type" : "AMFile",
                    "src" : 4,
                    "trackNumber" : 1,
                    "attributes" : {
                      "ident" : "Rec 07-08-20_002",
                      "gain" : 1.0,
                      "mixToMono" : false
                    },
                      "channelNumber" : "0,1",
                    "parameters" : {
                      "volume" : 1.73469387755104
                    },
                    "effects" : [

                    ],
                    "start" : 841,
                    "duration" : 47,
                    "mediaStart" : 1297,
                    "mediaDuration" : 47,
                    "scalar" : 1,
                    "metadata" : {
                      "clipSpeedAttribute" : false
                    },
                    "animationTracks" : {

                    }
                  },
                  {
                    "id" : 27,
                    "_type" : "AMFile",
                    "src" : 4,
                    "trackNumber" : 1,
                    "attributes" : {
                      "ident" : "Rec 07-08-20_002",
                      "gain" : 1.0,
                      "mixToMono" : false
                    },
                      "channelNumber" : "0,1",
                    "parameters" : {
                      "volume" : 1.73469387755104
                    },
                    "effects" : [

                    ],
                    "start" : 893,
                    "duration" : 79,
                    "mediaStart" : 1357,
                    "mediaDuration" : 79,
                    "scalar" : 1,
                    "metadata" : {
                      "clipSpeedAttribute" : false
                    },
                    "animationTracks" : {

                    }
                  },
                  {
                    "id" : 28,
                    "_type" : "AMFile",
                    "src" : 4,
                    "trackNumber" : 1,
                    "attributes" : {
                      "ident" : "Rec 07-08-20_002",
                      "gain" : 1.0,
                      "mixToMono" : false
                    },
                      "channelNumber" : "0,1",
                    "parameters" : {
                      "volume" : 1.73469387755104
                    },
                    "effects" : [

                    ],
                    "start" : 1006,
                    "duration" : 167,
                    "mediaStart" : 2361,
                    "mediaDuration" : 167,
                    "scalar" : 1,
                    "metadata" : {
                      "clipSpeedAttribute" : false
                    },
                    "animationTracks" : {

                    }
                  },
                  {
                    "id" : 29,
                    "_type" : "AMFile",
                    "src" : 4,
                    "trackNumber" : 1,
                    "attributes" : {
                      "ident" : "Rec 07-08-20_002",
                      "gain" : 1.0,
                      "mixToMono" : false
                    },
                      "channelNumber" : "0,1",
                    "parameters" : {
                      "volume" : 1.73469387755104
                    },
                    "effects" : [

                    ],
                    "start" : 1431,
                    "duration" : 193,
                    "mediaStart" : 2555,
                    "mediaDuration" : 193,
                    "scalar" : 1,
                    "metadata" : {
                      "clipSpeedAttribute" : false
                    },
                    "animationTracks" : {

                    }
                  },
                  {
                    "id" : 30,
                    "_type" : "AMFile",
                    "src" : 4,
                    "trackNumber" : 1,
                    "attributes" : {
                      "ident" : "Rec 07-08-20_002",
                      "gain" : 1.0,
                      "mixToMono" : false
                    },
                      "channelNumber" : "0,1",
                    "parameters" : {
                      "volume" : 1.73469387755104
                    },
                    "effects" : [

                    ],
                    "start" : 1701,
                    "duration" : 92,
                    "mediaStart" : 3310,
                    "mediaDuration" : 92,
                    "scalar" : 1,
                    "metadata" : {
                      "clipSpeedAttribute" : false
                    },
                    "animationTracks" : {

                    }
                  },
                  {
                    "id" : 31,
                    "_type" : "AMFile",
                    "src" : 4,
                    "trackNumber" : 1,
                    "attributes" : {
                      "ident" : "Rec 07-08-20_002",
                      "gain" : 1.0,
                      "mixToMono" : false
                    },
                      "channelNumber" : "0,1",
                    "parameters" : {
                      "volume" : 1.73469387755104
                    },
                    "effects" : [

                    ],
                    "start" : 1892,
                    "duration" : 93,
                    "mediaStart" : 3005,
                    "mediaDuration" : 93,
                    "scalar" : 1,
                    "metadata" : {
                      "clipSpeedAttribute" : false
                    },
                    "animationTracks" : {

                    }
                  },
                  {
                    "id" : 32,
                    "_type" : "AMFile",
                    "src" : 4,
                    "trackNumber" : 1,
                    "attributes" : {
                      "ident" : "Rec 07-08-20_002",
                      "gain" : 1.0,
                      "mixToMono" : false
                    },
                      "channelNumber" : "0,1",
                    "parameters" : {
                      "volume" : 1.73469387755104
                    },
                    "effects" : [

                    ],
                    "start" : 2027,
                    "duration" : 137,
                    "mediaStart" : 3698,
                    "mediaDuration" : 137,
                    "scalar" : 1,
                    "metadata" : {
                      "clipSpeedAttribute" : false
                    },
                    "animationTracks" : {

                    }
                  },
                  {
                    "id" : 33,
                    "_type" : "AMFile",
                    "src" : 4,
                    "trackNumber" : 1,
                    "attributes" : {
                      "ident" : "Rec 07-08-20_002",
                      "gain" : 1.0,
                      "mixToMono" : false
                    },
                      "channelNumber" : "0,1",
                    "parameters" : {
                      "volume" : 1.73469387755104
                    },
                    "effects" : [

                    ],
                    "start" : 2379,
                    "duration" : 86,
                    "mediaStart" : 3966,
                    "mediaDuration" : 86,
                    "scalar" : 1,
                    "metadata" : {
                      "clipSpeedAttribute" : false
                    },
                    "animationTracks" : {

                    }
                  },
                  {
                    "id" : 34,
                    "_type" : "AMFile",
                    "src" : 4,
                    "trackNumber" : 1,
                    "attributes" : {
                      "ident" : "Rec 07-08-20_002",
                      "gain" : 1.0,
                      "mixToMono" : false
                    },
                      "channelNumber" : "0,1",
                    "parameters" : {
                      "volume" : 1.73469387755104
                    },
                    "effects" : [

                    ],
                    "start" : 2553,
                    "duration" : 137,
                    "mediaStart" : 4413,
                    "mediaDuration" : 137,
                    "scalar" : 1,
                    "metadata" : {
                      "clipSpeedAttribute" : false
                    },
                    "animationTracks" : {

                    }
                  },
                  {
                    "id" : 35,
                    "_type" : "AMFile",
                    "src" : 4,
                    "trackNumber" : 1,
                    "attributes" : {
                      "ident" : "Rec 07-08-20_002",
                      "gain" : 1.0,
                      "mixToMono" : false
                    },
                      "channelNumber" : "0,1",
                    "parameters" : {
                      "volume" : 1.73469387755104
                    },
                    "effects" : [

                    ],
                    "start" : 2693,
                    "duration" : 358,
                    "mediaStart" : 4598,
                    "mediaDuration" : 358,
                    "scalar" : 1,
                    "metadata" : {
                      "clipSpeedAttribute" : false
                    },
                    "animationTracks" : {

                    }
                  },
                  {
                    "id" : 36,
                    "_type" : "AMFile",
                    "src" : 4,
                    "trackNumber" : 1,
                    "attributes" : {
                      "ident" : "Rec 07-08-20_002",
                      "gain" : 1.0,
                      "mixToMono" : false
                    },
                      "channelNumber" : "0,1",
                    "parameters" : {
                      "volume" : 1.73469387755104
                    },
                    "effects" : [

                    ],
                    "start" : 3204,
                    "duration" : 108,
                    "mediaStart" : 5092,
                    "mediaDuration" : 108,
                    "scalar" : 1,
                    "metadata" : {
                      "clipSpeedAttribute" : false
                    },
                    "animationTracks" : {

                    }
                  }
                ]
              },
              {
                "trackIndex" : 2,
                "medias" : [
                  {
                    "id" : 37,
                    "_type" : "Callout",
                    "def" : {
                      "kind" : "remix",
                      "shape" : "text",
                      "style" : "basic",
                      "height" : 400.0,
                      "line-spacing" : 0.0,
                      "width" : 2560.00000000024,
                      "word-wrap" : 1.0,
                      "horizontal-alignment" : "center",
                      "resize-behavior" : "resizeText",
                      "text" : "THE PREVENTION OF \rTOKEN HIJACKING ATTACK",
                      "vertical-alignment" : "center",
                      "font" : {
                        "color-blue" : 1.0,
                        "color-green" : 1.0,
                        "color-red" : 1.0,
                        "size" : 96.0,
                        "tracking" : 0.0,
                        "name" : "Montserrat",
                        "weight" : "Regular"
                      },
                      "textAttributes" : {
                        "type" : "textAttributeList",
                        "keyframes" : [
                          {
                            "endTime" : 0,
                            "time" : 0,
                            "value" : [{"name":"underline","rangeEnd":41,"rangeStart":0,"value":0,"valueType":"int"},{"name":"fontSize","rangeEnd":41,"rangeStart":0,"value":150,"valueType":"double"},{"name":"strikethrough","rangeEnd":41,"rangeStart":0,"value":0,"valueType":"int"},{"name":"fontItalic","rangeEnd":41,"rangeStart":0,"value":0,"valueType":"int"},{"name":"fontName","rangeEnd":41,"rangeStart":0,"value":"Rockwell","valueType":"string"},{"name":"fontWeight","rangeEnd":41,"rangeStart":0,"value":400,"valueType":"int"},{"name":"kerning","rangeEnd":41,"rangeStart":0,"value":0,"valueType":"double"},{"name":"fgColor","rangeEnd":41,"rangeStart":0,"value":"(255,255,255,255)","valueType":"color"}],
                            "duration" : 0
                          }
                        ]
                      }
                    },
                    "attributes" : {
                      "autoRotateText" : true
                    },
                    "parameters" : {
                      "translation0" : -1.06581410364015e-10,
                      "translation1" : 92.0624999998411
                    },
                    "effects" : [
                        {
                          "effectName" : "DropShadow",
                          "category" : "categoryVisualEffects",
                          "parameters" : {
                            "angle" : 5.49778714378214,
                            "blur" : 10.0,
                            "color-alpha" : 1.0,
                            "color-blue" : 0.1216,
                            "color-green" : 0.1216,
                            "color-red" : 0.1216,
                            "enabled" : 1,
                            "offset" : 10.0,
                            "opacity" : 0.4
                          }
                        }
                    ],
                    "start" : 0,
                    "duration" : 150,
                    "mediaStart" : 0,
                    "mediaDuration" : 150,
                    "scalar" : 1,
                    "metadata" : {
                      "WinSubProjectDisplayName" : "",
                      "clipSpeedAttribute" : false,
                      "default-HAlign" : "center",
                      "default-LineSpace" : 0.0,
                      "default-VAlign" : "center",
                      "default-text-attributes" : "[{\"name\":\"underline\",\"rangeEnd\":16,\"rangeStart\":0,\"value\":0,\"valueType\":\"int\"},{\"name\":\"strikethrough\",\"rangeEnd\":16,\"rangeStart\":0,\"value\":0,\"valueType\":\"int\"},{\"name\":\"fontWeight\",\"rangeEnd\":16,\"rangeStart\":0,\"value\":400,\"valueType\":\"int\"},{\"name\":\"fontSize\",\"rangeEnd\":16,\"rangeStart\":0,\"value\":96,\"valueType\":\"double\"},{\"name\":\"fontName\",\"rangeEnd\":16,\"rangeStart\":0,\"value\":\"Montserrat\",\"valueType\":\"string\"},{\"name\":\"fgColor\",\"rangeEnd\":16,\"rangeStart\":0,\"value\":\"(255,255,255,255)\",\"valueType\":\"color\"},{\"name\":\"fontItalic\",\"rangeEnd\":16,\"rangeStart\":0,\"value\":0,\"valueType\":\"int\"}]",
                      "default-translation0" : 0.0,
                      "default-translation1" : 0.0
                    },
                    "animationTracks" : {

                    }
                  },
                  {
                    "id" : 38,
                    "_type" : "ScreenVMFile",
                    "src" : 1,
                    "trackNumber" : 0,
                    "attributes" : {
                      "ident" : "token_hijacking_attack_prevention"
                    },
                    "parameters" : {
                      "translation0" : {
                        "type" : "double",
                        "defaultValue" : 0.0,
                        "interp" : "eioe",
                        "keyframes" : [
                          {
                            "endTime" : 260,
                            "time" : 230,
                            "value" : 5030.06518919169,
                            "duration" : 30
                          }
                        ]
                      },
                      "translation1" : {
                        "type" : "double",
                        "defaultValue" : 0.0,
                        "interp" : "eioe",
                        "keyframes" : [
                          {
                            "endTime" : 260,
                            "time" : 230,
                            "value" : -2310.25357341482,
                            "duration" : 30
                          }
                        ]
                      },
                      "scale0" : {
                        "type" : "double",
                        "defaultValue" : 1.0,
                        "interp" : "eioe",
                        "keyframes" : [
                          {
                            "endTime" : 260,
                            "time" : 230,
                            "value" : 5.29026502138799,
                            "duration" : 30
                          }
                        ]
                      },
                      "scale1" : {
                        "type" : "double",
                        "defaultValue" : 1.0,
                        "interp" : "eioe",
                        "keyframes" : [
                          {
                            "endTime" : 260,
                            "time" : 230,
                            "value" : 5.29026498485807,
                            "duration" : 30
                          }
                        ]
                      },
                      "cursorScale" : {
                        "type" : "double",
                        "defaultValue" : 1.0,
                        "interp" : "linr"
                      },
                      "cursorOpacity" : {
                        "type" : "double",
                        "defaultValue" : 1.0,
                        "interp" : "linr"
                      }
                    },
                    "effects" : [
                        {
                          "effectName" : "CursorHilight",
                          "category" : "categoryCursorEffects",
                          "parameters" : {
                            "blur" : 0.1,
                            "color-alpha" : 0.75,
                            "color-blue" : 0.0,
                            "color-green" : 1.0,
                            "color-red" : 1.0,
                            "radius" : 50.0
                          }
                        }
                    ],
                    "start" : 152,
                    "duration" : 15,
                    "mediaStart" : 126,
                    "mediaDuration" : 15,
                    "scalar" : 1,
                    "metadata" : {
                      "AutoAppliedSmartFocus" : "False",
                      "clipSpeedAttribute" : false,
                      "default-scale0" : 1.0,
                      "default-scale1" : 1.0,
                      "default-translation0" : 0.0,
                      "default-translation1" : 0.0
                    },
                    "animationTracks" : {
                      "visual" : [
                        {
                          "endTime" : 260,
                          "duration" : 30,
                          "range" : [ 230, 30]
                        }
                      ]
                    }
                  },
                  {
                    "id" : 39,
                    "_type" : "ScreenVMFile",
                    "src" : 1,
                    "trackNumber" : 0,
                    "attributes" : {
                      "ident" : "token_hijacking_attack_prevention"
                    },
                    "parameters" : {
                      "translation0" : {
                        "type" : "double",
                        "defaultValue" : 0.0,
                        "interp" : "eioe",
                        "keyframes" : [
                          {
                            "endTime" : 260,
                            "time" : 230,
                            "value" : 5030.06518919169,
                            "duration" : 30
                          }
                        ]
                      },
                      "translation1" : {
                        "type" : "double",
                        "defaultValue" : 0.0,
                        "interp" : "eioe",
                        "keyframes" : [
                          {
                            "endTime" : 260,
                            "time" : 230,
                            "value" : -2310.25357341482,
                            "duration" : 30
                          }
                        ]
                      },
                      "scale0" : {
                        "type" : "double",
                        "defaultValue" : 1.0,
                        "interp" : "eioe",
                        "keyframes" : [
                          {
                            "endTime" : 260,
                            "time" : 230,
                            "value" : 5.29026502138799,
                            "duration" : 30
                          }
                        ]
                      },
                      "scale1" : {
                        "type" : "double",
                        "defaultValue" : 1.0,
                        "interp" : "eioe",
                        "keyframes" : [
                          {
                            "endTime" : 260,
                            "time" : 230,
                            "value" : 5.29026498485807,
                            "duration" : 30
                          }
                        ]
                      },
                      "cursorScale" : {
                        "type" : "double",
                        "defaultValue" : 1.0,
                        "interp" : "linr"
                      },
                      "cursorOpacity" : {
                        "type" : "double",
                        "defaultValue" : 1.0,
                        "interp" : "linr"
                      }
                    },
                    "effects" : [
                        {
                          "effectName" : "CursorHilight",
                          "category" : "categoryCursorEffects",
                          "parameters" : {
                            "blur" : 0.1,
                            "color-alpha" : 0.75,
                            "color-blue" : 0.0,
                            "color-green" : 1.0,
                            "color-red" : 1.0,
                            "radius" : 50.0
                          }
                        }
                    ],
                    "start" : 167,
                    "duration" : 45,
                    "mediaStart" : 141,
                    "mediaDuration" : 84,
                    "scalar" : "15/28",
                    "metadata" : {
                      "AutoAppliedSmartFocus" : "False",
                      "clipSpeedAttribute" : true,
                      "default-scale0" : 1.0,
                      "default-scale1" : 1.0,
                      "default-translation0" : 0.0,
                      "default-translation1" : 0.0
                    },
                    "animationTracks" : {
                      "visual" : [
                        {
                          "endTime" : 260,
                          "duration" : 30,
                          "range" : [ 230, 30]
                        }
                      ]
                    }
                  },
                  {
                    "id" : 40,
                    "_type" : "StitchedMedia",
                    "minMediaStart" : 0,
                    "attributes" : {
                      "ident" : "token_hijacking_attack_prevention",
                      "gain" : 1.0,
                      "mixToMono" : false
                    },
                    "parameters" : {
                      "translation0" : {
                        "type" : "double",
                        "defaultValue" : 0.0,
                        "keyframes" : [
                          {
                            "endTime" : 260,
                            "time" : 230,
                            "value" : 6617.65048026514,
                            "duration" : 30
                          },
                          {
                            "endTime" : 375,
                            "time" : 345,
                            "value" : -5.6843418860808e-13,
                            "duration" : 30
                          }
                        ]
                      },
                      "translation1" : {
                        "type" : "double",
                        "defaultValue" : 0.0,
                        "keyframes" : [
                          {
                            "endTime" : 260,
                            "time" : 230,
                            "value" : -3072.65241805758,
                            "duration" : 30
                          },
                          {
                            "endTime" : 375,
                            "time" : 345,
                            "value" : -5.6843418860808e-14,
                            "duration" : 30
                          }
                        ]
                      },
                      "scale0" : {
                        "type" : "double",
                        "defaultValue" : 1.0,
                        "keyframes" : [
                          {
                            "endTime" : 260,
                            "time" : 230,
                            "value" : 6.62127287207902,
                            "duration" : 30
                          },
                          {
                            "endTime" : 375,
                            "time" : 345,
                            "value" : 1.0,
                            "duration" : 30
                          }
                        ]
                      },
                      "scale1" : {
                        "type" : "double",
                        "defaultValue" : 1.0,
                        "keyframes" : [
                          {
                            "endTime" : 260,
                            "time" : 230,
                            "value" : 6.62127291078292,
                            "duration" : 30
                          },
                          {
                            "endTime" : 375,
                            "time" : 345,
                            "value" : 1.0,
                            "duration" : 30
                          }
                        ]
                      },
                      "cursorOpacity" : 1.0,
                      "cursorScale" : 1.0
                    },
                    "medias" : [
                        {
                          "id" : 41,
                          "_type" : "ScreenVMFile",
                          "src" : 1,
                          "trackNumber" : 0,
                          "attributes" : {
                            "ident" : "token_hijacking_attack_prevention"
                          },
                          "parameters" : {
                            "cursorScale" : {
                              "type" : "double",
                              "defaultValue" : 0.0,
                              "interp" : "linr"
                            },
                            "cursorOpacity" : {
                              "type" : "double",
                              "defaultValue" : 0.0,
                              "interp" : "linr"
                            }
                          },
                          "effects" : [

                          ],
                          "start" : 0,
                          "duration" : 276,
                          "mediaStart" : 0,
                          "mediaDuration" : 276,
                          "scalar" : 1,
                          "metadata" : {
                            "AutoAppliedSmartFocus" : "False",
                            "clipSpeedAttribute" : false,
                            "default-scale0" : 1.0,
                            "default-scale1" : 1.0,
                            "default-translation0" : 0.0,
                            "default-translation1" : 0.0
                          },
                          "animationTracks" : {

                          }
                        },
                        {
                          "id" : 42,
                          "_type" : "ScreenIMFile",
                          "src" : 1,
                          "trackNumber" : 0,
                          "trimStartSum" : 0,
                          "attributes" : {
                            "ident" : "token_hijacking_attack_prevention"
                          },
                          "parameters" : {
                            "cursorOpacity" : 0.0,
                            "cursorScale" : 0.0
                          },
                          "effects" : [

                          ],
                          "start" : 276,
                          "duration" : 90,
                          "mediaStart" : 275,
                          "mediaDuration" : 1,
                          "scalar" : 1,
                          "metadata" : {
                            "AutoAppliedSmartFocus" : "False"
                          },
                          "animationTracks" : {

                          }
                        },
                        {
                          "id" : 43,
                          "_type" : "ScreenVMFile",
                          "src" : 1,
                          "trackNumber" : 0,
                          "attributes" : {
                            "ident" : "token_hijacking_attack_prevention"
                          },
                          "parameters" : {
                            "cursorScale" : {
                              "type" : "double",
                              "defaultValue" : 0.0,
                              "interp" : "linr"
                            },
                            "cursorOpacity" : {
                              "type" : "double",
                              "defaultValue" : 0.0,
                              "interp" : "linr"
                            }
                          },
                          "effects" : [

                          ],
                          "start" : 366,
                          "duration" : 61,
                          "mediaStart" : 276,
                          "mediaDuration" : 61,
                          "scalar" : 1,
                          "metadata" : {
                            "AutoAppliedSmartFocus" : "False",
                            "clipSpeedAttribute" : false,
                            "default-scale0" : 1.0,
                            "default-scale1" : 1.0,
                            "default-translation0" : 0.0,
                            "default-translation1" : 0.0
                          },
                          "animationTracks" : {

                          }
                        },
                        {
                          "id" : 44,
                          "_type" : "ScreenIMFile",
                          "src" : 1,
                          "trackNumber" : 0,
                          "trimStartSum" : 0,
                          "attributes" : {
                            "ident" : "token_hijacking_attack_prevention"
                          },
                          "parameters" : {
                            "cursorOpacity" : 0.0,
                            "cursorScale" : 0.0
                          },
                          "effects" : [

                          ],
                          "start" : 427,
                          "duration" : 30,
                          "mediaStart" : 337,
                          "mediaDuration" : 1,
                          "scalar" : 1,
                          "metadata" : {
                            "AutoAppliedSmartFocus" : "False"
                          },
                          "animationTracks" : {

                          }
                        },
                        {
                          "id" : 45,
                          "_type" : "ScreenVMFile",
                          "src" : 1,
                          "trackNumber" : 0,
                          "attributes" : {
                            "ident" : "token_hijacking_attack_prevention"
                          },
                          "parameters" : {
                            "cursorScale" : {
                              "type" : "double",
                              "defaultValue" : 0.0,
                              "interp" : "linr"
                            },
                            "cursorOpacity" : {
                              "type" : "double",
                              "defaultValue" : 0.0,
                              "interp" : "linr"
                            }
                          },
                          "effects" : [

                          ],
                          "start" : 457,
                          "duration" : 19965,
                          "mediaStart" : 337,
                          "mediaDuration" : 19965,
                          "scalar" : 1,
                          "metadata" : {
                            "AutoAppliedSmartFocus" : "False",
                            "clipSpeedAttribute" : false,
                            "default-scale0" : 1.0,
                            "default-scale1" : 1.0,
                            "default-translation0" : 0.0,
                            "default-translation1" : 0.0
                          },
                          "animationTracks" : {

                          }
                        }
                    ],
                    "effects" : [
                        {
                          "effectName" : "CursorHilight",
                          "category" : "categoryCursorEffects",
                          "parameters" : {
                            "blur" : 0.1,
                            "color-alpha" : 0.75,
                            "color-blue" : 0.0,
                            "color-green" : 1.0,
                            "color-red" : 1.0,
                            "radius" : 50.0
                          }
                        }
                    ],
                    "start" : 212,
                    "duration" : 154,
                    "mediaStart" : 225,
                    "mediaDuration" : 154,
                    "scalar" : 1,
                    "metadata" : {
                      "AutoAppliedSmartFocus" : "False",
                      "clipSpeedAttribute" : false
                    },
                    "animationTracks" : {
                      "visual" : [
                        {
                          "endTime" : 260,
                          "duration" : 30,
                          "range" : [ 230, 30]
                        },
                        {
                          "endTime" : 375,
                          "duration" : 30,
                          "range" : [ 345, 30]
                        }
                      ]
                    }
                  },
                  {
                    "id" : 46,
                    "_type" : "StitchedMedia",
                    "minMediaStart" : 0,
                    "attributes" : {
                      "ident" : "token_hijacking_attack_prevention",
                      "gain" : 1.0,
                      "mixToMono" : false
                    },
                    "parameters" : {
                      "translation0" : {
                        "type" : "double",
                        "defaultValue" : 0.0,
                        "keyframes" : [
                          {
                            "endTime" : 260,
                            "time" : 230,
                            "value" : 6617.65048026514,
                            "duration" : 30
                          },
                          {
                            "endTime" : 375,
                            "time" : 345,
                            "value" : -5.6843418860808e-13,
                            "duration" : 30
                          }
                        ]
                      },
                      "translation1" : {
                        "type" : "double",
                        "defaultValue" : 0.0,
                        "keyframes" : [
                          {
                            "endTime" : 260,
                            "time" : 230,
                            "value" : -3072.65241805758,
                            "duration" : 30
                          },
                          {
                            "endTime" : 375,
                            "time" : 345,
                            "value" : -5.6843418860808e-14,
                            "duration" : 30
                          }
                        ]
                      },
                      "scale0" : {
                        "type" : "double",
                        "defaultValue" : 1.0,
                        "keyframes" : [
                          {
                            "endTime" : 260,
                            "time" : 230,
                            "value" : 6.62127287207902,
                            "duration" : 30
                          },
                          {
                            "endTime" : 375,
                            "time" : 345,
                            "value" : 1.0,
                            "duration" : 30
                          }
                        ]
                      },
                      "scale1" : {
                        "type" : "double",
                        "defaultValue" : 1.0,
                        "keyframes" : [
                          {
                            "endTime" : 260,
                            "time" : 230,
                            "value" : 6.62127291078292,
                            "duration" : 30
                          },
                          {
                            "endTime" : 375,
                            "time" : 345,
                            "value" : 1.0,
                            "duration" : 30
                          }
                        ]
                      },
                      "cursorOpacity" : 1.0,
                      "cursorScale" : 1.0
                    },
                    "medias" : [
                        {
                          "id" : 47,
                          "_type" : "ScreenVMFile",
                          "src" : 1,
                          "trackNumber" : 0,
                          "attributes" : {
                            "ident" : "token_hijacking_attack_prevention"
                          },
                          "parameters" : {
                            "cursorScale" : {
                              "type" : "double",
                              "defaultValue" : 0.0,
                              "interp" : "linr"
                            },
                            "cursorOpacity" : {
                              "type" : "double",
                              "defaultValue" : 0.0,
                              "interp" : "linr"
                            }
                          },
                          "effects" : [

                          ],
                          "start" : 0,
                          "duration" : 276,
                          "mediaStart" : 0,
                          "mediaDuration" : 276,
                          "scalar" : 1,
                          "metadata" : {
                            "AutoAppliedSmartFocus" : "False",
                            "clipSpeedAttribute" : false,
                            "default-scale0" : 1.0,
                            "default-scale1" : 1.0,
                            "default-translation0" : 0.0,
                            "default-translation1" : 0.0
                          },
                          "animationTracks" : {

                          }
                        },
                        {
                          "id" : 48,
                          "_type" : "ScreenIMFile",
                          "src" : 1,
                          "trackNumber" : 0,
                          "trimStartSum" : 0,
                          "attributes" : {
                            "ident" : "token_hijacking_attack_prevention"
                          },
                          "parameters" : {
                            "cursorOpacity" : 0.0,
                            "cursorScale" : 0.0
                          },
                          "effects" : [

                          ],
                          "start" : 276,
                          "duration" : 90,
                          "mediaStart" : 275,
                          "mediaDuration" : 1,
                          "scalar" : 1,
                          "metadata" : {
                            "AutoAppliedSmartFocus" : "False"
                          },
                          "animationTracks" : {

                          }
                        },
                        {
                          "id" : 49,
                          "_type" : "ScreenVMFile",
                          "src" : 1,
                          "trackNumber" : 0,
                          "attributes" : {
                            "ident" : "token_hijacking_attack_prevention"
                          },
                          "parameters" : {
                            "cursorScale" : {
                              "type" : "double",
                              "defaultValue" : 0.0,
                              "interp" : "linr"
                            },
                            "cursorOpacity" : {
                              "type" : "double",
                              "defaultValue" : 0.0,
                              "interp" : "linr"
                            }
                          },
                          "effects" : [

                          ],
                          "start" : 366,
                          "duration" : 61,
                          "mediaStart" : 276,
                          "mediaDuration" : 61,
                          "scalar" : 1,
                          "metadata" : {
                            "AutoAppliedSmartFocus" : "False",
                            "clipSpeedAttribute" : false,
                            "default-scale0" : 1.0,
                            "default-scale1" : 1.0,
                            "default-translation0" : 0.0,
                            "default-translation1" : 0.0
                          },
                          "animationTracks" : {

                          }
                        },
                        {
                          "id" : 50,
                          "_type" : "ScreenIMFile",
                          "src" : 1,
                          "trackNumber" : 0,
                          "trimStartSum" : 0,
                          "attributes" : {
                            "ident" : "token_hijacking_attack_prevention"
                          },
                          "parameters" : {
                            "cursorOpacity" : 0.0,
                            "cursorScale" : 0.0
                          },
                          "effects" : [

                          ],
                          "start" : 427,
                          "duration" : 30,
                          "mediaStart" : 337,
                          "mediaDuration" : 1,
                          "scalar" : 1,
                          "metadata" : {
                            "AutoAppliedSmartFocus" : "False"
                          },
                          "animationTracks" : {

                          }
                        },
                        {
                          "id" : 51,
                          "_type" : "ScreenVMFile",
                          "src" : 1,
                          "trackNumber" : 0,
                          "attributes" : {
                            "ident" : "token_hijacking_attack_prevention"
                          },
                          "parameters" : {
                            "cursorScale" : {
                              "type" : "double",
                              "defaultValue" : 0.0,
                              "interp" : "linr"
                            },
                            "cursorOpacity" : {
                              "type" : "double",
                              "defaultValue" : 0.0,
                              "interp" : "linr"
                            }
                          },
                          "effects" : [

                          ],
                          "start" : 457,
                          "duration" : 19965,
                          "mediaStart" : 337,
                          "mediaDuration" : 19965,
                          "scalar" : 1,
                          "metadata" : {
                            "AutoAppliedSmartFocus" : "False",
                            "clipSpeedAttribute" : false,
                            "default-scale0" : 1.0,
                            "default-scale1" : 1.0,
                            "default-translation0" : 0.0,
                            "default-translation1" : 0.0
                          },
                          "animationTracks" : {

                          }
                        }
                    ],
                    "effects" : [
                        {
                          "effectName" : "CursorHilight",
                          "category" : "categoryCursorEffects",
                          "parameters" : {
                            "blur" : 0.1,
                            "color-alpha" : 0.75,
                            "color-blue" : 0.0,
                            "color-green" : 1.0,
                            "color-red" : 1.0,
                            "radius" : 50.0
                          }
                        }
                    ],
                    "start" : 366,
                    "duration" : 120,
                    "mediaStart" : 379,
                    "mediaDuration" : 238,
                    "scalar" : "60/119",
                    "metadata" : {
                      "AutoAppliedSmartFocus" : "False",
                      "clipSpeedAttribute" : true
                    },
                    "animationTracks" : {
                      "visual" : [
                        {
                          "endTime" : 260,
                          "duration" : 30,
                          "range" : [ 230, 30]
                        },
                        {
                          "endTime" : 375,
                          "duration" : 30,
                          "range" : [ 345, 30]
                        }
                      ]
                    }
                  },
                  {
                    "id" : 52,
                    "_type" : "StitchedMedia",
                    "minMediaStart" : 0,
                    "attributes" : {
                      "ident" : "token_hijacking_attack_prevention",
                      "gain" : 1.0,
                      "mixToMono" : false
                    },
                    "parameters" : {
                      "translation0" : {
                        "type" : "double",
                        "defaultValue" : 0.0,
                        "keyframes" : [
                          {
                            "endTime" : 260,
                            "time" : 230,
                            "value" : 6617.65048026514,
                            "duration" : 30
                          },
                          {
                            "endTime" : 375,
                            "time" : 345,
                            "value" : -5.6843418860808e-13,
                            "duration" : 30
                          }
                        ]
                      },
                      "translation1" : {
                        "type" : "double",
                        "defaultValue" : 0.0,
                        "keyframes" : [
                          {
                            "endTime" : 260,
                            "time" : 230,
                            "value" : -3072.65241805758,
                            "duration" : 30
                          },
                          {
                            "endTime" : 375,
                            "time" : 345,
                            "value" : -5.6843418860808e-14,
                            "duration" : 30
                          }
                        ]
                      },
                      "scale0" : {
                        "type" : "double",
                        "defaultValue" : 1.0,
                        "keyframes" : [
                          {
                            "endTime" : 260,
                            "time" : 230,
                            "value" : 6.62127287207902,
                            "duration" : 30
                          },
                          {
                            "endTime" : 375,
                            "time" : 345,
                            "value" : 1.0,
                            "duration" : 30
                          }
                        ]
                      },
                      "scale1" : {
                        "type" : "double",
                        "defaultValue" : 1.0,
                        "keyframes" : [
                          {
                            "endTime" : 260,
                            "time" : 230,
                            "value" : 6.62127291078292,
                            "duration" : 30
                          },
                          {
                            "endTime" : 375,
                            "time" : 345,
                            "value" : 1.0,
                            "duration" : 30
                          }
                        ]
                      },
                      "cursorOpacity" : 1.0,
                      "cursorScale" : 1.0
                    },
                    "medias" : [
                        {
                          "id" : 53,
                          "_type" : "ScreenVMFile",
                          "src" : 1,
                          "trackNumber" : 0,
                          "attributes" : {
                            "ident" : "token_hijacking_attack_prevention"
                          },
                          "parameters" : {
                            "cursorScale" : {
                              "type" : "double",
                              "defaultValue" : 0.0,
                              "interp" : "linr"
                            },
                            "cursorOpacity" : {
                              "type" : "double",
                              "defaultValue" : 0.0,
                              "interp" : "linr"
                            }
                          },
                          "effects" : [

                          ],
                          "start" : 0,
                          "duration" : 276,
                          "mediaStart" : 0,
                          "mediaDuration" : 276,
                          "scalar" : 1,
                          "metadata" : {
                            "AutoAppliedSmartFocus" : "False",
                            "clipSpeedAttribute" : false,
                            "default-scale0" : 1.0,
                            "default-scale1" : 1.0,
                            "default-translation0" : 0.0,
                            "default-translation1" : 0.0
                          },
                          "animationTracks" : {

                          }
                        },
                        {
                          "id" : 54,
                          "_type" : "ScreenIMFile",
                          "src" : 1,
                          "trackNumber" : 0,
                          "trimStartSum" : 0,
                          "attributes" : {
                            "ident" : "token_hijacking_attack_prevention"
                          },
                          "parameters" : {
                            "cursorOpacity" : 0.0,
                            "cursorScale" : 0.0
                          },
                          "effects" : [

                          ],
                          "start" : 276,
                          "duration" : 90,
                          "mediaStart" : 275,
                          "mediaDuration" : 1,
                          "scalar" : 1,
                          "metadata" : {
                            "AutoAppliedSmartFocus" : "False"
                          },
                          "animationTracks" : {

                          }
                        },
                        {
                          "id" : 55,
                          "_type" : "ScreenVMFile",
                          "src" : 1,
                          "trackNumber" : 0,
                          "attributes" : {
                            "ident" : "token_hijacking_attack_prevention"
                          },
                          "parameters" : {
                            "cursorScale" : {
                              "type" : "double",
                              "defaultValue" : 0.0,
                              "interp" : "linr"
                            },
                            "cursorOpacity" : {
                              "type" : "double",
                              "defaultValue" : 0.0,
                              "interp" : "linr"
                            }
                          },
                          "effects" : [

                          ],
                          "start" : 366,
                          "duration" : 61,
                          "mediaStart" : 276,
                          "mediaDuration" : 61,
                          "scalar" : 1,
                          "metadata" : {
                            "AutoAppliedSmartFocus" : "False",
                            "clipSpeedAttribute" : false,
                            "default-scale0" : 1.0,
                            "default-scale1" : 1.0,
                            "default-translation0" : 0.0,
                            "default-translation1" : 0.0
                          },
                          "animationTracks" : {

                          }
                        },
                        {
                          "id" : 56,
                          "_type" : "ScreenIMFile",
                          "src" : 1,
                          "trackNumber" : 0,
                          "trimStartSum" : 0,
                          "attributes" : {
                            "ident" : "token_hijacking_attack_prevention"
                          },
                          "parameters" : {
                            "cursorOpacity" : 0.0,
                            "cursorScale" : 0.0
                          },
                          "effects" : [

                          ],
                          "start" : 427,
                          "duration" : 30,
                          "mediaStart" : 337,
                          "mediaDuration" : 1,
                          "scalar" : 1,
                          "metadata" : {
                            "AutoAppliedSmartFocus" : "False"
                          },
                          "animationTracks" : {

                          }
                        },
                        {
                          "id" : 57,
                          "_type" : "ScreenVMFile",
                          "src" : 1,
                          "trackNumber" : 0,
                          "attributes" : {
                            "ident" : "token_hijacking_attack_prevention"
                          },
                          "parameters" : {
                            "cursorScale" : {
                              "type" : "double",
                              "defaultValue" : 0.0,
                              "interp" : "linr"
                            },
                            "cursorOpacity" : {
                              "type" : "double",
                              "defaultValue" : 0.0,
                              "interp" : "linr"
                            }
                          },
                          "effects" : [

                          ],
                          "start" : 457,
                          "duration" : 236,
                          "mediaStart" : 337,
                          "mediaDuration" : 236,
                          "scalar" : 1,
                          "metadata" : {
                            "AutoAppliedSmartFocus" : "False",
                            "clipSpeedAttribute" : false,
                            "default-scale0" : 1.0,
                            "default-scale1" : 1.0,
                            "default-translation0" : 0.0,
                            "default-translation1" : 0.0
                          },
                          "animationTracks" : {

                          }
                        },
                        {
                          "id" : 58,
                          "_type" : "ScreenIMFile",
                          "src" : 1,
                          "trackNumber" : 0,
                          "trimStartSum" : 0,
                          "attributes" : {
                            "ident" : "token_hijacking_attack_prevention"
                          },
                          "parameters" : {
                            "cursorOpacity" : 0.0,
                            "cursorScale" : 0.0
                          },
                          "effects" : [

                          ],
                          "start" : 693,
                          "duration" : 80,
                          "mediaStart" : 572,
                          "mediaDuration" : 1,
                          "scalar" : 1,
                          "metadata" : {
                            "AutoAppliedSmartFocus" : "False"
                          },
                          "animationTracks" : {

                          }
                        },
                        {
                          "id" : 59,
                          "_type" : "ScreenVMFile",
                          "src" : 1,
                          "trackNumber" : 0,
                          "attributes" : {
                            "ident" : "token_hijacking_attack_prevention"
                          },
                          "parameters" : {
                            "cursorScale" : {
                              "type" : "double",
                              "defaultValue" : 0.0,
                              "interp" : "linr"
                            },
                            "cursorOpacity" : {
                              "type" : "double",
                              "defaultValue" : 0.0,
                              "interp" : "linr"
                            }
                          },
                          "effects" : [

                          ],
                          "start" : 773,
                          "duration" : 19731,
                          "mediaStart" : 570,
                          "mediaDuration" : 19731,
                          "scalar" : 1,
                          "metadata" : {
                            "AutoAppliedSmartFocus" : "False",
                            "clipSpeedAttribute" : true,
                            "default-scale0" : 1.0,
                            "default-scale1" : 1.0,
                            "default-translation0" : 0.0,
                            "default-translation1" : 0.0
                          },
                          "animationTracks" : {

                          }
                        }
                    ],
                    "effects" : [
                        {
                          "effectName" : "CursorHilight",
                          "category" : "categoryCursorEffects",
                          "parameters" : {
                            "blur" : 0.1,
                            "color-alpha" : 0.75,
                            "color-blue" : 0.0,
                            "color-green" : 1.0,
                            "color-red" : 1.0,
                            "radius" : 50.0
                          }
                        }
                    ],
                    "start" : 486,
                    "duration" : 91,
                    "mediaStart" : "220703/319",
                    "mediaDuration" : "35135/319",
                    "scalar" : "29029/35135",
                    "metadata" : {
                      "AutoAppliedSmartFocus" : "False",
                      "clipSpeedAttribute" : true
                    },
                    "animationTracks" : {
                      "visual" : [
                        {
                          "endTime" : 260,
                          "duration" : 30,
                          "range" : [ 230, 30]
                        },
                        {
                          "endTime" : 375,
                          "duration" : 30,
                          "range" : [ 345, 30]
                        }
                      ]
                    }
                  },
                  {
                    "id" : 60,
                    "_type" : "StitchedMedia",
                    "minMediaStart" : 0,
                    "attributes" : {
                      "ident" : "token_hijacking_attack_prevention",
                      "gain" : 1.0,
                      "mixToMono" : false
                    },
                    "parameters" : {
                      "translation0" : {
                        "type" : "double",
                        "defaultValue" : 0.0,
                        "keyframes" : [
                          {
                            "endTime" : 260,
                            "time" : 230,
                            "value" : 6617.65048026514,
                            "duration" : 30
                          },
                          {
                            "endTime" : 375,
                            "time" : 345,
                            "value" : -5.6843418860808e-13,
                            "duration" : 30
                          }
                        ]
                      },
                      "translation1" : {
                        "type" : "double",
                        "defaultValue" : 0.0,
                        "keyframes" : [
                          {
                            "endTime" : 260,
                            "time" : 230,
                            "value" : -3072.65241805758,
                            "duration" : 30
                          },
                          {
                            "endTime" : 375,
                            "time" : 345,
                            "value" : -5.6843418860808e-14,
                            "duration" : 30
                          }
                        ]
                      },
                      "scale0" : {
                        "type" : "double",
                        "defaultValue" : 1.0,
                        "keyframes" : [
                          {
                            "endTime" : 260,
                            "time" : 230,
                            "value" : 6.62127287207902,
                            "duration" : 30
                          },
                          {
                            "endTime" : 375,
                            "time" : 345,
                            "value" : 1.0,
                            "duration" : 30
                          }
                        ]
                      },
                      "scale1" : {
                        "type" : "double",
                        "defaultValue" : 1.0,
                        "keyframes" : [
                          {
                            "endTime" : 260,
                            "time" : 230,
                            "value" : 6.62127291078292,
                            "duration" : 30
                          },
                          {
                            "endTime" : 375,
                            "time" : 345,
                            "value" : 1.0,
                            "duration" : 30
                          }
                        ]
                      },
                      "cursorOpacity" : 1.0,
                      "cursorScale" : 1.0
                    },
                    "medias" : [
                        {
                          "id" : 61,
                          "_type" : "ScreenVMFile",
                          "src" : 1,
                          "trackNumber" : 0,
                          "attributes" : {
                            "ident" : "token_hijacking_attack_prevention"
                          },
                          "parameters" : {
                            "cursorScale" : {
                              "type" : "double",
                              "defaultValue" : 0.0,
                              "interp" : "linr"
                            },
                            "cursorOpacity" : {
                              "type" : "double",
                              "defaultValue" : 0.0,
                              "interp" : "linr"
                            }
                          },
                          "effects" : [

                          ],
                          "start" : 0,
                          "duration" : 276,
                          "mediaStart" : 0,
                          "mediaDuration" : 276,
                          "scalar" : 1,
                          "metadata" : {
                            "AutoAppliedSmartFocus" : "False",
                            "clipSpeedAttribute" : false,
                            "default-scale0" : 1.0,
                            "default-scale1" : 1.0,
                            "default-translation0" : 0.0,
                            "default-translation1" : 0.0
                          },
                          "animationTracks" : {

                          }
                        },
                        {
                          "id" : 62,
                          "_type" : "ScreenIMFile",
                          "src" : 1,
                          "trackNumber" : 0,
                          "trimStartSum" : 0,
                          "attributes" : {
                            "ident" : "token_hijacking_attack_prevention"
                          },
                          "parameters" : {
                            "cursorOpacity" : 0.0,
                            "cursorScale" : 0.0
                          },
                          "effects" : [

                          ],
                          "start" : 276,
                          "duration" : 90,
                          "mediaStart" : 275,
                          "mediaDuration" : 1,
                          "scalar" : 1,
                          "metadata" : {
                            "AutoAppliedSmartFocus" : "False"
                          },
                          "animationTracks" : {

                          }
                        },
                        {
                          "id" : 63,
                          "_type" : "ScreenVMFile",
                          "src" : 1,
                          "trackNumber" : 0,
                          "attributes" : {
                            "ident" : "token_hijacking_attack_prevention"
                          },
                          "parameters" : {
                            "cursorScale" : {
                              "type" : "double",
                              "defaultValue" : 0.0,
                              "interp" : "linr"
                            },
                            "cursorOpacity" : {
                              "type" : "double",
                              "defaultValue" : 0.0,
                              "interp" : "linr"
                            }
                          },
                          "effects" : [

                          ],
                          "start" : 366,
                          "duration" : 61,
                          "mediaStart" : 276,
                          "mediaDuration" : 61,
                          "scalar" : 1,
                          "metadata" : {
                            "AutoAppliedSmartFocus" : "False",
                            "clipSpeedAttribute" : false,
                            "default-scale0" : 1.0,
                            "default-scale1" : 1.0,
                            "default-translation0" : 0.0,
                            "default-translation1" : 0.0
                          },
                          "animationTracks" : {

                          }
                        },
                        {
                          "id" : 64,
                          "_type" : "ScreenIMFile",
                          "src" : 1,
                          "trackNumber" : 0,
                          "trimStartSum" : 0,
                          "attributes" : {
                            "ident" : "token_hijacking_attack_prevention"
                          },
                          "parameters" : {
                            "cursorOpacity" : 0.0,
                            "cursorScale" : 0.0
                          },
                          "effects" : [

                          ],
                          "start" : 427,
                          "duration" : 30,
                          "mediaStart" : 337,
                          "mediaDuration" : 1,
                          "scalar" : 1,
                          "metadata" : {
                            "AutoAppliedSmartFocus" : "False"
                          },
                          "animationTracks" : {

                          }
                        },
                        {
                          "id" : 65,
                          "_type" : "ScreenVMFile",
                          "src" : 1,
                          "trackNumber" : 0,
                          "attributes" : {
                            "ident" : "token_hijacking_attack_prevention"
                          },
                          "parameters" : {
                            "cursorScale" : {
                              "type" : "double",
                              "defaultValue" : 0.0,
                              "interp" : "linr"
                            },
                            "cursorOpacity" : {
                              "type" : "double",
                              "defaultValue" : 0.0,
                              "interp" : "linr"
                            }
                          },
                          "effects" : [

                          ],
                          "start" : 457,
                          "duration" : 19965,
                          "mediaStart" : 337,
                          "mediaDuration" : 19965,
                          "scalar" : 1,
                          "metadata" : {
                            "AutoAppliedSmartFocus" : "False",
                            "clipSpeedAttribute" : false,
                            "default-scale0" : 1.0,
                            "default-scale1" : 1.0,
                            "default-translation0" : 0.0,
                            "default-translation1" : 0.0
                          },
                          "animationTracks" : {

                          }
                        }
                    ],
                    "effects" : [
                        {
                          "effectName" : "CursorHilight",
                          "category" : "categoryCursorEffects",
                          "parameters" : {
                            "blur" : 0.1,
                            "color-alpha" : 0.75,
                            "color-blue" : 0.0,
                            "color-green" : 1.0,
                            "color-red" : 1.0,
                            "radius" : 50.0
                          }
                        }
                    ],
                    "start" : 577,
                    "duration" : 63,
                    "mediaStart" : "7906/11",
                    "mediaDuration" : "1422/11",
                    "scalar" : "77/158",
                    "metadata" : {
                      "AutoAppliedSmartFocus" : "False",
                      "clipSpeedAttribute" : true
                    },
                    "animationTracks" : {
                      "visual" : [
                        {
                          "endTime" : 260,
                          "duration" : 30,
                          "range" : [ 230, 30]
                        },
                        {
                          "endTime" : 375,
                          "duration" : 30,
                          "range" : [ 345, 30]
                        }
                      ]
                    }
                  },
                  {
                    "id" : 66,
                    "_type" : "StitchedMedia",
                    "minMediaStart" : 0,
                    "attributes" : {
                      "ident" : "token_hijacking_attack_prevention",
                      "gain" : 1.0,
                      "mixToMono" : false
                    },
                    "parameters" : {
                      "translation0" : {
                        "type" : "double",
                        "defaultValue" : 0.0,
                        "keyframes" : [
                          {
                            "endTime" : 260,
                            "time" : 230,
                            "value" : 6617.65048026514,
                            "duration" : 30
                          },
                          {
                            "endTime" : 375,
                            "time" : 345,
                            "value" : -5.6843418860808e-13,
                            "duration" : 30
                          }
                        ]
                      },
                      "translation1" : {
                        "type" : "double",
                        "defaultValue" : 0.0,
                        "keyframes" : [
                          {
                            "endTime" : 260,
                            "time" : 230,
                            "value" : -3072.65241805758,
                            "duration" : 30
                          },
                          {
                            "endTime" : 375,
                            "time" : 345,
                            "value" : -5.6843418860808e-14,
                            "duration" : 30
                          }
                        ]
                      },
                      "scale0" : {
                        "type" : "double",
                        "defaultValue" : 1.0,
                        "keyframes" : [
                          {
                            "endTime" : 260,
                            "time" : 230,
                            "value" : 6.62127287207902,
                            "duration" : 30
                          },
                          {
                            "endTime" : 375,
                            "time" : 345,
                            "value" : 1.0,
                            "duration" : 30
                          }
                        ]
                      },
                      "scale1" : {
                        "type" : "double",
                        "defaultValue" : 1.0,
                        "keyframes" : [
                          {
                            "endTime" : 260,
                            "time" : 230,
                            "value" : 6.62127291078292,
                            "duration" : 30
                          },
                          {
                            "endTime" : 375,
                            "time" : 345,
                            "value" : 1.0,
                            "duration" : 30
                          }
                        ]
                      },
                      "cursorOpacity" : 1.0,
                      "cursorScale" : 1.0
                    },
                    "medias" : [
                        {
                          "id" : 67,
                          "_type" : "ScreenVMFile",
                          "src" : 1,
                          "trackNumber" : 0,
                          "attributes" : {
                            "ident" : "token_hijacking_attack_prevention"
                          },
                          "parameters" : {
                            "cursorScale" : {
                              "type" : "double",
                              "defaultValue" : 0.0,
                              "interp" : "linr"
                            },
                            "cursorOpacity" : {
                              "type" : "double",
                              "defaultValue" : 0.0,
                              "interp" : "linr"
                            }
                          },
                          "effects" : [

                          ],
                          "start" : 0,
                          "duration" : 276,
                          "mediaStart" : 0,
                          "mediaDuration" : 276,
                          "scalar" : 1,
                          "metadata" : {
                            "AutoAppliedSmartFocus" : "False",
                            "clipSpeedAttribute" : false,
                            "default-scale0" : 1.0,
                            "default-scale1" : 1.0,
                            "default-translation0" : 0.0,
                            "default-translation1" : 0.0
                          },
                          "animationTracks" : {

                          }
                        },
                        {
                          "id" : 68,
                          "_type" : "ScreenIMFile",
                          "src" : 1,
                          "trackNumber" : 0,
                          "trimStartSum" : 0,
                          "attributes" : {
                            "ident" : "token_hijacking_attack_prevention"
                          },
                          "parameters" : {
                            "cursorOpacity" : 0.0,
                            "cursorScale" : 0.0
                          },
                          "effects" : [

                          ],
                          "start" : 276,
                          "duration" : 90,
                          "mediaStart" : 275,
                          "mediaDuration" : 1,
                          "scalar" : 1,
                          "metadata" : {
                            "AutoAppliedSmartFocus" : "False"
                          },
                          "animationTracks" : {

                          }
                        },
                        {
                          "id" : 69,
                          "_type" : "ScreenVMFile",
                          "src" : 1,
                          "trackNumber" : 0,
                          "attributes" : {
                            "ident" : "token_hijacking_attack_prevention"
                          },
                          "parameters" : {
                            "cursorScale" : {
                              "type" : "double",
                              "defaultValue" : 0.0,
                              "interp" : "linr"
                            },
                            "cursorOpacity" : {
                              "type" : "double",
                              "defaultValue" : 0.0,
                              "interp" : "linr"
                            }
                          },
                          "effects" : [

                          ],
                          "start" : 366,
                          "duration" : 61,
                          "mediaStart" : 276,
                          "mediaDuration" : 61,
                          "scalar" : 1,
                          "metadata" : {
                            "AutoAppliedSmartFocus" : "False",
                            "clipSpeedAttribute" : false,
                            "default-scale0" : 1.0,
                            "default-scale1" : 1.0,
                            "default-translation0" : 0.0,
                            "default-translation1" : 0.0
                          },
                          "animationTracks" : {

                          }
                        },
                        {
                          "id" : 70,
                          "_type" : "ScreenIMFile",
                          "src" : 1,
                          "trackNumber" : 0,
                          "trimStartSum" : 0,
                          "attributes" : {
                            "ident" : "token_hijacking_attack_prevention"
                          },
                          "parameters" : {
                            "cursorOpacity" : 0.0,
                            "cursorScale" : 0.0
                          },
                          "effects" : [

                          ],
                          "start" : 427,
                          "duration" : 30,
                          "mediaStart" : 337,
                          "mediaDuration" : 1,
                          "scalar" : 1,
                          "metadata" : {
                            "AutoAppliedSmartFocus" : "False"
                          },
                          "animationTracks" : {

                          }
                        },
                        {
                          "id" : 71,
                          "_type" : "ScreenVMFile",
                          "src" : 1,
                          "trackNumber" : 0,
                          "attributes" : {
                            "ident" : "token_hijacking_attack_prevention"
                          },
                          "parameters" : {
                            "cursorScale" : {
                              "type" : "double",
                              "defaultValue" : 0.0,
                              "interp" : "linr"
                            },
                            "cursorOpacity" : {
                              "type" : "double",
                              "defaultValue" : 0.0,
                              "interp" : "linr"
                            }
                          },
                          "effects" : [

                          ],
                          "start" : 457,
                          "duration" : 19965,
                          "mediaStart" : 337,
                          "mediaDuration" : 19965,
                          "scalar" : 1,
                          "metadata" : {
                            "AutoAppliedSmartFocus" : "False",
                            "clipSpeedAttribute" : false,
                            "default-scale0" : 1.0,
                            "default-scale1" : 1.0,
                            "default-translation0" : 0.0,
                            "default-translation1" : 0.0
                          },
                          "animationTracks" : {

                          }
                        }
                    ],
                    "effects" : [
                        {
                          "effectName" : "CursorHilight",
                          "category" : "categoryCursorEffects",
                          "parameters" : {
                            "blur" : 0.1,
                            "color-alpha" : 0.75,
                            "color-blue" : 0.0,
                            "color-green" : 1.0,
                            "color-red" : 1.0,
                            "radius" : 50.0
                          }
                        }
                    ],
                    "start" : 640,
                    "duration" : 60,
                    "mediaStart" : 848,
                    "mediaDuration" : 187,
                    "scalar" : "60/187",
                    "metadata" : {
                      "AutoAppliedSmartFocus" : "False",
                      "clipSpeedAttribute" : true
                    },
                    "animationTracks" : {
                      "visual" : [
                        {
                          "endTime" : 260,
                          "duration" : 30,
                          "range" : [ 230, 30]
                        },
                        {
                          "endTime" : 375,
                          "duration" : 30,
                          "range" : [ 345, 30]
                        }
                      ]
                    }
                  },
                  {
                    "id" : 72,
                    "_type" : "StitchedMedia",
                    "minMediaStart" : 0,
                    "attributes" : {
                      "ident" : "token_hijacking_attack_prevention",
                      "gain" : 1.0,
                      "mixToMono" : false
                    },
                    "parameters" : {
                      "translation0" : {
                        "type" : "double",
                        "defaultValue" : 0.0,
                        "keyframes" : [
                          {
                            "endTime" : 260,
                            "time" : 230,
                            "value" : 6617.65048026514,
                            "duration" : 30
                          },
                          {
                            "endTime" : 375,
                            "time" : 345,
                            "value" : -5.6843418860808e-13,
                            "duration" : 30
                          }
                        ]
                      },
                      "translation1" : {
                        "type" : "double",
                        "defaultValue" : 0.0,
                        "keyframes" : [
                          {
                            "endTime" : 260,
                            "time" : 230,
                            "value" : -3072.65241805758,
                            "duration" : 30
                          },
                          {
                            "endTime" : 375,
                            "time" : 345,
                            "value" : -5.6843418860808e-14,
                            "duration" : 30
                          }
                        ]
                      },
                      "scale0" : {
                        "type" : "double",
                        "defaultValue" : 1.0,
                        "keyframes" : [
                          {
                            "endTime" : 260,
                            "time" : 230,
                            "value" : 6.62127287207902,
                            "duration" : 30
                          },
                          {
                            "endTime" : 375,
                            "time" : 345,
                            "value" : 1.0,
                            "duration" : 30
                          }
                        ]
                      },
                      "scale1" : {
                        "type" : "double",
                        "defaultValue" : 1.0,
                        "keyframes" : [
                          {
                            "endTime" : 260,
                            "time" : 230,
                            "value" : 6.62127291078292,
                            "duration" : 30
                          },
                          {
                            "endTime" : 375,
                            "time" : 345,
                            "value" : 1.0,
                            "duration" : 30
                          }
                        ]
                      },
                      "cursorOpacity" : 1.0,
                      "cursorScale" : 1.0
                    },
                    "medias" : [
                        {
                          "id" : 73,
                          "_type" : "ScreenVMFile",
                          "src" : 1,
                          "trackNumber" : 0,
                          "attributes" : {
                            "ident" : "token_hijacking_attack_prevention"
                          },
                          "parameters" : {
                            "cursorScale" : {
                              "type" : "double",
                              "defaultValue" : 0.0,
                              "interp" : "linr"
                            },
                            "cursorOpacity" : {
                              "type" : "double",
                              "defaultValue" : 0.0,
                              "interp" : "linr"
                            }
                          },
                          "effects" : [

                          ],
                          "start" : 0,
                          "duration" : 276,
                          "mediaStart" : 0,
                          "mediaDuration" : 276,
                          "scalar" : 1,
                          "metadata" : {
                            "AutoAppliedSmartFocus" : "False",
                            "clipSpeedAttribute" : false,
                            "default-scale0" : 1.0,
                            "default-scale1" : 1.0,
                            "default-translation0" : 0.0,
                            "default-translation1" : 0.0
                          },
                          "animationTracks" : {

                          }
                        },
                        {
                          "id" : 74,
                          "_type" : "ScreenIMFile",
                          "src" : 1,
                          "trackNumber" : 0,
                          "trimStartSum" : 0,
                          "attributes" : {
                            "ident" : "token_hijacking_attack_prevention"
                          },
                          "parameters" : {
                            "cursorOpacity" : 0.0,
                            "cursorScale" : 0.0
                          },
                          "effects" : [

                          ],
                          "start" : 276,
                          "duration" : 90,
                          "mediaStart" : 275,
                          "mediaDuration" : 1,
                          "scalar" : 1,
                          "metadata" : {
                            "AutoAppliedSmartFocus" : "False"
                          },
                          "animationTracks" : {

                          }
                        },
                        {
                          "id" : 75,
                          "_type" : "ScreenVMFile",
                          "src" : 1,
                          "trackNumber" : 0,
                          "attributes" : {
                            "ident" : "token_hijacking_attack_prevention"
                          },
                          "parameters" : {
                            "cursorScale" : {
                              "type" : "double",
                              "defaultValue" : 0.0,
                              "interp" : "linr"
                            },
                            "cursorOpacity" : {
                              "type" : "double",
                              "defaultValue" : 0.0,
                              "interp" : "linr"
                            }
                          },
                          "effects" : [

                          ],
                          "start" : 366,
                          "duration" : 61,
                          "mediaStart" : 276,
                          "mediaDuration" : 61,
                          "scalar" : 1,
                          "metadata" : {
                            "AutoAppliedSmartFocus" : "False",
                            "clipSpeedAttribute" : false,
                            "default-scale0" : 1.0,
                            "default-scale1" : 1.0,
                            "default-translation0" : 0.0,
                            "default-translation1" : 0.0
                          },
                          "animationTracks" : {

                          }
                        },
                        {
                          "id" : 76,
                          "_type" : "ScreenIMFile",
                          "src" : 1,
                          "trackNumber" : 0,
                          "trimStartSum" : 0,
                          "attributes" : {
                            "ident" : "token_hijacking_attack_prevention"
                          },
                          "parameters" : {
                            "cursorOpacity" : 0.0,
                            "cursorScale" : 0.0
                          },
                          "effects" : [

                          ],
                          "start" : 427,
                          "duration" : 30,
                          "mediaStart" : 337,
                          "mediaDuration" : 1,
                          "scalar" : 1,
                          "metadata" : {
                            "AutoAppliedSmartFocus" : "False"
                          },
                          "animationTracks" : {

                          }
                        },
                        {
                          "id" : 77,
                          "_type" : "ScreenVMFile",
                          "src" : 1,
                          "trackNumber" : 0,
                          "attributes" : {
                            "ident" : "token_hijacking_attack_prevention"
                          },
                          "parameters" : {
                            "cursorScale" : {
                              "type" : "double",
                              "defaultValue" : 0.0,
                              "interp" : "linr"
                            },
                            "cursorOpacity" : {
                              "type" : "double",
                              "defaultValue" : 0.0,
                              "interp" : "linr"
                            }
                          },
                          "effects" : [

                          ],
                          "start" : 457,
                          "duration" : 19965,
                          "mediaStart" : 337,
                          "mediaDuration" : 19965,
                          "scalar" : 1,
                          "metadata" : {
                            "AutoAppliedSmartFocus" : "False",
                            "clipSpeedAttribute" : false,
                            "default-scale0" : 1.0,
                            "default-scale1" : 1.0,
                            "default-translation0" : 0.0,
                            "default-translation1" : 0.0
                          },
                          "animationTracks" : {

                          }
                        }
                    ],
                    "effects" : [
                        {
                          "effectName" : "CursorHilight",
                          "category" : "categoryCursorEffects",
                          "parameters" : {
                            "blur" : 0.1,
                            "color-alpha" : 0.75,
                            "color-blue" : 0.0,
                            "color-green" : 1.0,
                            "color-red" : 1.0,
                            "radius" : 50.0
                          }
                        }
                    ],
                    "start" : 700,
                    "duration" : 26,
                    "mediaStart" : 1035,
                    "mediaDuration" : 49,
                    "scalar" : "26/49",
                    "metadata" : {
                      "AutoAppliedSmartFocus" : "False",
                      "clipSpeedAttribute" : true
                    },
                    "animationTracks" : {
                      "visual" : [
                        {
                          "endTime" : 260,
                          "duration" : 30,
                          "range" : [ 230, 30]
                        },
                        {
                          "endTime" : 375,
                          "duration" : 30,
                          "range" : [ 345, 30]
                        }
                      ]
                    }
                  },
                  {
                    "id" : 78,
                    "_type" : "StitchedMedia",
                    "minMediaStart" : 0,
                    "attributes" : {
                      "ident" : "token_hijacking_attack_prevention",
                      "gain" : 1.0,
                      "mixToMono" : false
                    },
                    "parameters" : {
                      "translation0" : {
                        "type" : "double",
                        "defaultValue" : 0.0,
                        "keyframes" : [
                          {
                            "endTime" : 260,
                            "time" : 230,
                            "value" : 6617.65048026514,
                            "duration" : 30
                          },
                          {
                            "endTime" : 375,
                            "time" : 345,
                            "value" : -5.6843418860808e-13,
                            "duration" : 30
                          }
                        ]
                      },
                      "translation1" : {
                        "type" : "double",
                        "defaultValue" : 0.0,
                        "keyframes" : [
                          {
                            "endTime" : 260,
                            "time" : 230,
                            "value" : -3072.65241805758,
                            "duration" : 30
                          },
                          {
                            "endTime" : 375,
                            "time" : 345,
                            "value" : -5.6843418860808e-14,
                            "duration" : 30
                          }
                        ]
                      },
                      "scale0" : {
                        "type" : "double",
                        "defaultValue" : 1.0,
                        "keyframes" : [
                          {
                            "endTime" : 260,
                            "time" : 230,
                            "value" : 6.62127287207902,
                            "duration" : 30
                          },
                          {
                            "endTime" : 375,
                            "time" : 345,
                            "value" : 1.0,
                            "duration" : 30
                          }
                        ]
                      },
                      "scale1" : {
                        "type" : "double",
                        "defaultValue" : 1.0,
                        "keyframes" : [
                          {
                            "endTime" : 260,
                            "time" : 230,
                            "value" : 6.62127291078292,
                            "duration" : 30
                          },
                          {
                            "endTime" : 375,
                            "time" : 345,
                            "value" : 1.0,
                            "duration" : 30
                          }
                        ]
                      },
                      "cursorOpacity" : 1.0,
                      "cursorScale" : 1.0
                    },
                    "medias" : [
                        {
                          "id" : 79,
                          "_type" : "ScreenVMFile",
                          "src" : 1,
                          "trackNumber" : 0,
                          "attributes" : {
                            "ident" : "token_hijacking_attack_prevention"
                          },
                          "parameters" : {
                            "cursorScale" : {
                              "type" : "double",
                              "defaultValue" : 0.0,
                              "interp" : "linr"
                            },
                            "cursorOpacity" : {
                              "type" : "double",
                              "defaultValue" : 0.0,
                              "interp" : "linr"
                            }
                          },
                          "effects" : [

                          ],
                          "start" : 0,
                          "duration" : 276,
                          "mediaStart" : 0,
                          "mediaDuration" : 276,
                          "scalar" : 1,
                          "metadata" : {
                            "AutoAppliedSmartFocus" : "False",
                            "clipSpeedAttribute" : false,
                            "default-scale0" : 1.0,
                            "default-scale1" : 1.0,
                            "default-translation0" : 0.0,
                            "default-translation1" : 0.0
                          },
                          "animationTracks" : {

                          }
                        },
                        {
                          "id" : 80,
                          "_type" : "ScreenIMFile",
                          "src" : 1,
                          "trackNumber" : 0,
                          "trimStartSum" : 0,
                          "attributes" : {
                            "ident" : "token_hijacking_attack_prevention"
                          },
                          "parameters" : {
                            "cursorOpacity" : 0.0,
                            "cursorScale" : 0.0
                          },
                          "effects" : [

                          ],
                          "start" : 276,
                          "duration" : 90,
                          "mediaStart" : 275,
                          "mediaDuration" : 1,
                          "scalar" : 1,
                          "metadata" : {
                            "AutoAppliedSmartFocus" : "False"
                          },
                          "animationTracks" : {

                          }
                        },
                        {
                          "id" : 81,
                          "_type" : "ScreenVMFile",
                          "src" : 1,
                          "trackNumber" : 0,
                          "attributes" : {
                            "ident" : "token_hijacking_attack_prevention"
                          },
                          "parameters" : {
                            "cursorScale" : {
                              "type" : "double",
                              "defaultValue" : 0.0,
                              "interp" : "linr"
                            },
                            "cursorOpacity" : {
                              "type" : "double",
                              "defaultValue" : 0.0,
                              "interp" : "linr"
                            }
                          },
                          "effects" : [

                          ],
                          "start" : 366,
                          "duration" : 61,
                          "mediaStart" : 276,
                          "mediaDuration" : 61,
                          "scalar" : 1,
                          "metadata" : {
                            "AutoAppliedSmartFocus" : "False",
                            "clipSpeedAttribute" : false,
                            "default-scale0" : 1.0,
                            "default-scale1" : 1.0,
                            "default-translation0" : 0.0,
                            "default-translation1" : 0.0
                          },
                          "animationTracks" : {

                          }
                        },
                        {
                          "id" : 82,
                          "_type" : "ScreenIMFile",
                          "src" : 1,
                          "trackNumber" : 0,
                          "trimStartSum" : 0,
                          "attributes" : {
                            "ident" : "token_hijacking_attack_prevention"
                          },
                          "parameters" : {
                            "cursorOpacity" : 0.0,
                            "cursorScale" : 0.0
                          },
                          "effects" : [

                          ],
                          "start" : 427,
                          "duration" : 30,
                          "mediaStart" : 337,
                          "mediaDuration" : 1,
                          "scalar" : 1,
                          "metadata" : {
                            "AutoAppliedSmartFocus" : "False"
                          },
                          "animationTracks" : {

                          }
                        },
                        {
                          "id" : 83,
                          "_type" : "ScreenVMFile",
                          "src" : 1,
                          "trackNumber" : 0,
                          "attributes" : {
                            "ident" : "token_hijacking_attack_prevention"
                          },
                          "parameters" : {
                            "cursorScale" : {
                              "type" : "double",
                              "defaultValue" : 0.0,
                              "interp" : "linr"
                            },
                            "cursorOpacity" : {
                              "type" : "double",
                              "defaultValue" : 0.0,
                              "interp" : "linr"
                            }
                          },
                          "effects" : [

                          ],
                          "start" : 457,
                          "duration" : 19965,
                          "mediaStart" : 337,
                          "mediaDuration" : 19965,
                          "scalar" : 1,
                          "metadata" : {
                            "AutoAppliedSmartFocus" : "False",
                            "clipSpeedAttribute" : false,
                            "default-scale0" : 1.0,
                            "default-scale1" : 1.0,
                            "default-translation0" : 0.0,
                            "default-translation1" : 0.0
                          },
                          "animationTracks" : {

                          }
                        }
                    ],
                    "effects" : [
                        {
                          "effectName" : "CursorHilight",
                          "category" : "categoryCursorEffects",
                          "parameters" : {
                            "blur" : 0.1,
                            "color-alpha" : 0.75,
                            "color-blue" : 0.0,
                            "color-green" : 1.0,
                            "color-red" : 1.0,
                            "radius" : 50.0
                          }
                        }
                    ],
                    "start" : 726,
                    "duration" : 19,
                    "mediaStart" : 1084,
                    "mediaDuration" : 36,
                    "scalar" : "19/36",
                    "metadata" : {
                      "AutoAppliedSmartFocus" : "False",
                      "clipSpeedAttribute" : true
                    },
                    "animationTracks" : {
                      "visual" : [
                        {
                          "endTime" : 260,
                          "duration" : 30,
                          "range" : [ 230, 30]
                        },
                        {
                          "endTime" : 375,
                          "duration" : 30,
                          "range" : [ 345, 30]
                        }
                      ]
                    }
                  },
                  {
                    "id" : 84,
                    "_type" : "StitchedMedia",
                    "minMediaStart" : 0,
                    "attributes" : {
                      "ident" : "token_hijacking_attack_prevention",
                      "gain" : 1.0,
                      "mixToMono" : false
                    },
                    "parameters" : {
                      "translation0" : {
                        "type" : "double",
                        "defaultValue" : 0.0,
                        "keyframes" : [
                          {
                            "endTime" : 260,
                            "time" : 230,
                            "value" : 6617.65048026514,
                            "duration" : 30
                          },
                          {
                            "endTime" : 375,
                            "time" : 345,
                            "value" : -5.6843418860808e-13,
                            "duration" : 30
                          }
                        ]
                      },
                      "translation1" : {
                        "type" : "double",
                        "defaultValue" : 0.0,
                        "keyframes" : [
                          {
                            "endTime" : 260,
                            "time" : 230,
                            "value" : -3072.65241805758,
                            "duration" : 30
                          },
                          {
                            "endTime" : 375,
                            "time" : 345,
                            "value" : -5.6843418860808e-14,
                            "duration" : 30
                          }
                        ]
                      },
                      "scale0" : {
                        "type" : "double",
                        "defaultValue" : 1.0,
                        "keyframes" : [
                          {
                            "endTime" : 260,
                            "time" : 230,
                            "value" : 6.62127287207902,
                            "duration" : 30
                          },
                          {
                            "endTime" : 375,
                            "time" : 345,
                            "value" : 1.0,
                            "duration" : 30
                          }
                        ]
                      },
                      "scale1" : {
                        "type" : "double",
                        "defaultValue" : 1.0,
                        "keyframes" : [
                          {
                            "endTime" : 260,
                            "time" : 230,
                            "value" : 6.62127291078292,
                            "duration" : 30
                          },
                          {
                            "endTime" : 375,
                            "time" : 345,
                            "value" : 1.0,
                            "duration" : 30
                          }
                        ]
                      },
                      "cursorOpacity" : 1.0,
                      "cursorScale" : 1.0
                    },
                    "medias" : [
                        {
                          "id" : 85,
                          "_type" : "ScreenVMFile",
                          "src" : 1,
                          "trackNumber" : 0,
                          "attributes" : {
                            "ident" : "token_hijacking_attack_prevention"
                          },
                          "parameters" : {
                            "cursorScale" : {
                              "type" : "double",
                              "defaultValue" : 0.0,
                              "interp" : "linr"
                            },
                            "cursorOpacity" : {
                              "type" : "double",
                              "defaultValue" : 0.0,
                              "interp" : "linr"
                            }
                          },
                          "effects" : [

                          ],
                          "start" : 0,
                          "duration" : 276,
                          "mediaStart" : 0,
                          "mediaDuration" : 276,
                          "scalar" : 1,
                          "metadata" : {
                            "AutoAppliedSmartFocus" : "False",
                            "clipSpeedAttribute" : false,
                            "default-scale0" : 1.0,
                            "default-scale1" : 1.0,
                            "default-translation0" : 0.0,
                            "default-translation1" : 0.0
                          },
                          "animationTracks" : {

                          }
                        },
                        {
                          "id" : 86,
                          "_type" : "ScreenIMFile",
                          "src" : 1,
                          "trackNumber" : 0,
                          "trimStartSum" : 0,
                          "attributes" : {
                            "ident" : "token_hijacking_attack_prevention"
                          },
                          "parameters" : {
                            "cursorOpacity" : 0.0,
                            "cursorScale" : 0.0
                          },
                          "effects" : [

                          ],
                          "start" : 276,
                          "duration" : 90,
                          "mediaStart" : 275,
                          "mediaDuration" : 1,
                          "scalar" : 1,
                          "metadata" : {
                            "AutoAppliedSmartFocus" : "False"
                          },
                          "animationTracks" : {

                          }
                        },
                        {
                          "id" : 87,
                          "_type" : "ScreenVMFile",
                          "src" : 1,
                          "trackNumber" : 0,
                          "attributes" : {
                            "ident" : "token_hijacking_attack_prevention"
                          },
                          "parameters" : {
                            "cursorScale" : {
                              "type" : "double",
                              "defaultValue" : 0.0,
                              "interp" : "linr"
                            },
                            "cursorOpacity" : {
                              "type" : "double",
                              "defaultValue" : 0.0,
                              "interp" : "linr"
                            }
                          },
                          "effects" : [

                          ],
                          "start" : 366,
                          "duration" : 61,
                          "mediaStart" : 276,
                          "mediaDuration" : 61,
                          "scalar" : 1,
                          "metadata" : {
                            "AutoAppliedSmartFocus" : "False",
                            "clipSpeedAttribute" : false,
                            "default-scale0" : 1.0,
                            "default-scale1" : 1.0,
                            "default-translation0" : 0.0,
                            "default-translation1" : 0.0
                          },
                          "animationTracks" : {

                          }
                        },
                        {
                          "id" : 88,
                          "_type" : "ScreenIMFile",
                          "src" : 1,
                          "trackNumber" : 0,
                          "trimStartSum" : 0,
                          "attributes" : {
                            "ident" : "token_hijacking_attack_prevention"
                          },
                          "parameters" : {
                            "cursorOpacity" : 0.0,
                            "cursorScale" : 0.0
                          },
                          "effects" : [

                          ],
                          "start" : 427,
                          "duration" : 30,
                          "mediaStart" : 337,
                          "mediaDuration" : 1,
                          "scalar" : 1,
                          "metadata" : {
                            "AutoAppliedSmartFocus" : "False"
                          },
                          "animationTracks" : {

                          }
                        },
                        {
                          "id" : 89,
                          "_type" : "ScreenVMFile",
                          "src" : 1,
                          "trackNumber" : 0,
                          "attributes" : {
                            "ident" : "token_hijacking_attack_prevention"
                          },
                          "parameters" : {
                            "cursorScale" : {
                              "type" : "double",
                              "defaultValue" : 0.0,
                              "interp" : "linr"
                            },
                            "cursorOpacity" : {
                              "type" : "double",
                              "defaultValue" : 0.0,
                              "interp" : "linr"
                            }
                          },
                          "effects" : [

                          ],
                          "start" : 457,
                          "duration" : 19965,
                          "mediaStart" : 337,
                          "mediaDuration" : 19965,
                          "scalar" : 1,
                          "metadata" : {
                            "AutoAppliedSmartFocus" : "False",
                            "clipSpeedAttribute" : false,
                            "default-scale0" : 1.0,
                            "default-scale1" : 1.0,
                            "default-translation0" : 0.0,
                            "default-translation1" : 0.0
                          },
                          "animationTracks" : {

                          }
                        }
                    ],
                    "effects" : [
                        {
                          "effectName" : "CursorHilight",
                          "category" : "categoryCursorEffects",
                          "parameters" : {
                            "blur" : 0.1,
                            "color-alpha" : 0.75,
                            "color-blue" : 0.0,
                            "color-green" : 1.0,
                            "color-red" : 1.0,
                            "radius" : 50.0
                          }
                        }
                    ],
                    "start" : 745,
                    "duration" : 37,
                    "mediaStart" : 1120,
                    "mediaDuration" : 133,
                    "scalar" : "37/133",
                    "metadata" : {
                      "AutoAppliedSmartFocus" : "False",
                      "clipSpeedAttribute" : true
                    },
                    "animationTracks" : {
                      "visual" : [
                        {
                          "endTime" : 260,
                          "duration" : 30,
                          "range" : [ 230, 30]
                        },
                        {
                          "endTime" : 375,
                          "duration" : 30,
                          "range" : [ 345, 30]
                        }
                      ]
                    }
                  },
                  {
                    "id" : 90,
                    "_type" : "StitchedMedia",
                    "minMediaStart" : 0,
                    "attributes" : {
                      "ident" : "token_hijacking_attack_prevention",
                      "gain" : 1.0,
                      "mixToMono" : false
                    },
                    "parameters" : {
                      "translation0" : {
                        "type" : "double",
                        "defaultValue" : 0.0,
                        "keyframes" : [
                          {
                            "endTime" : 260,
                            "time" : 230,
                            "value" : 6617.65048026514,
                            "duration" : 30
                          },
                          {
                            "endTime" : 375,
                            "time" : 345,
                            "value" : -5.6843418860808e-13,
                            "duration" : 30
                          }
                        ]
                      },
                      "translation1" : {
                        "type" : "double",
                        "defaultValue" : 0.0,
                        "keyframes" : [
                          {
                            "endTime" : 260,
                            "time" : 230,
                            "value" : -3072.65241805758,
                            "duration" : 30
                          },
                          {
                            "endTime" : 375,
                            "time" : 345,
                            "value" : -5.6843418860808e-14,
                            "duration" : 30
                          }
                        ]
                      },
                      "scale0" : {
                        "type" : "double",
                        "defaultValue" : 1.0,
                        "keyframes" : [
                          {
                            "endTime" : 260,
                            "time" : 230,
                            "value" : 6.62127287207902,
                            "duration" : 30
                          },
                          {
                            "endTime" : 375,
                            "time" : 345,
                            "value" : 1.0,
                            "duration" : 30
                          }
                        ]
                      },
                      "scale1" : {
                        "type" : "double",
                        "defaultValue" : 1.0,
                        "keyframes" : [
                          {
                            "endTime" : 260,
                            "time" : 230,
                            "value" : 6.62127291078292,
                            "duration" : 30
                          },
                          {
                            "endTime" : 375,
                            "time" : 345,
                            "value" : 1.0,
                            "duration" : 30
                          }
                        ]
                      },
                      "cursorOpacity" : 1.0,
                      "cursorScale" : 1.0
                    },
                    "medias" : [
                        {
                          "id" : 91,
                          "_type" : "ScreenVMFile",
                          "src" : 1,
                          "trackNumber" : 0,
                          "attributes" : {
                            "ident" : "token_hijacking_attack_prevention"
                          },
                          "parameters" : {
                            "cursorScale" : {
                              "type" : "double",
                              "defaultValue" : 0.0,
                              "interp" : "linr"
                            },
                            "cursorOpacity" : {
                              "type" : "double",
                              "defaultValue" : 0.0,
                              "interp" : "linr"
                            }
                          },
                          "effects" : [

                          ],
                          "start" : 0,
                          "duration" : 276,
                          "mediaStart" : 0,
                          "mediaDuration" : 276,
                          "scalar" : 1,
                          "metadata" : {
                            "AutoAppliedSmartFocus" : "False",
                            "clipSpeedAttribute" : false,
                            "default-scale0" : 1.0,
                            "default-scale1" : 1.0,
                            "default-translation0" : 0.0,
                            "default-translation1" : 0.0
                          },
                          "animationTracks" : {

                          }
                        },
                        {
                          "id" : 92,
                          "_type" : "ScreenIMFile",
                          "src" : 1,
                          "trackNumber" : 0,
                          "trimStartSum" : 0,
                          "attributes" : {
                            "ident" : "token_hijacking_attack_prevention"
                          },
                          "parameters" : {
                            "cursorOpacity" : 0.0,
                            "cursorScale" : 0.0
                          },
                          "effects" : [

                          ],
                          "start" : 276,
                          "duration" : 90,
                          "mediaStart" : 275,
                          "mediaDuration" : 1,
                          "scalar" : 1,
                          "metadata" : {
                            "AutoAppliedSmartFocus" : "False"
                          },
                          "animationTracks" : {

                          }
                        },
                        {
                          "id" : 93,
                          "_type" : "ScreenVMFile",
                          "src" : 1,
                          "trackNumber" : 0,
                          "attributes" : {
                            "ident" : "token_hijacking_attack_prevention"
                          },
                          "parameters" : {
                            "cursorScale" : {
                              "type" : "double",
                              "defaultValue" : 0.0,
                              "interp" : "linr"
                            },
                            "cursorOpacity" : {
                              "type" : "double",
                              "defaultValue" : 0.0,
                              "interp" : "linr"
                            }
                          },
                          "effects" : [

                          ],
                          "start" : 366,
                          "duration" : 61,
                          "mediaStart" : 276,
                          "mediaDuration" : 61,
                          "scalar" : 1,
                          "metadata" : {
                            "AutoAppliedSmartFocus" : "False",
                            "clipSpeedAttribute" : false,
                            "default-scale0" : 1.0,
                            "default-scale1" : 1.0,
                            "default-translation0" : 0.0,
                            "default-translation1" : 0.0
                          },
                          "animationTracks" : {

                          }
                        },
                        {
                          "id" : 94,
                          "_type" : "ScreenIMFile",
                          "src" : 1,
                          "trackNumber" : 0,
                          "trimStartSum" : 0,
                          "attributes" : {
                            "ident" : "token_hijacking_attack_prevention"
                          },
                          "parameters" : {
                            "cursorOpacity" : 0.0,
                            "cursorScale" : 0.0
                          },
                          "effects" : [

                          ],
                          "start" : 427,
                          "duration" : 30,
                          "mediaStart" : 337,
                          "mediaDuration" : 1,
                          "scalar" : 1,
                          "metadata" : {
                            "AutoAppliedSmartFocus" : "False"
                          },
                          "animationTracks" : {

                          }
                        },
                        {
                          "id" : 95,
                          "_type" : "ScreenVMFile",
                          "src" : 1,
                          "trackNumber" : 0,
                          "attributes" : {
                            "ident" : "token_hijacking_attack_prevention"
                          },
                          "parameters" : {
                            "cursorScale" : {
                              "type" : "double",
                              "defaultValue" : 0.0,
                              "interp" : "linr"
                            },
                            "cursorOpacity" : {
                              "type" : "double",
                              "defaultValue" : 0.0,
                              "interp" : "linr"
                            }
                          },
                          "effects" : [

                          ],
                          "start" : 457,
                          "duration" : 19965,
                          "mediaStart" : 337,
                          "mediaDuration" : 19965,
                          "scalar" : 1,
                          "metadata" : {
                            "AutoAppliedSmartFocus" : "False",
                            "clipSpeedAttribute" : false,
                            "default-scale0" : 1.0,
                            "default-scale1" : 1.0,
                            "default-translation0" : 0.0,
                            "default-translation1" : 0.0
                          },
                          "animationTracks" : {

                          }
                        }
                    ],
                    "effects" : [
                        {
                          "effectName" : "CursorHilight",
                          "category" : "categoryCursorEffects",
                          "parameters" : {
                            "blur" : 0.1,
                            "color-alpha" : 0.75,
                            "color-blue" : 0.0,
                            "color-green" : 1.0,
                            "color-red" : 1.0,
                            "radius" : 50.0
                          }
                        }
                    ],
                    "start" : 782,
                    "duration" : 24,
                    "mediaStart" : 1253,
                    "mediaDuration" : 50,
                    "scalar" : "12/25",
                    "metadata" : {
                      "AutoAppliedSmartFocus" : "False",
                      "clipSpeedAttribute" : true
                    },
                    "animationTracks" : {
                      "visual" : [
                        {
                          "endTime" : 260,
                          "duration" : 30,
                          "range" : [ 230, 30]
                        },
                        {
                          "endTime" : 375,
                          "duration" : 30,
                          "range" : [ 345, 30]
                        }
                      ]
                    }
                  },
                  {
                    "id" : 96,
                    "_type" : "StitchedMedia",
                    "minMediaStart" : 0,
                    "attributes" : {
                      "ident" : "token_hijacking_attack_prevention",
                      "gain" : 1.0,
                      "mixToMono" : false
                    },
                    "parameters" : {
                      "translation0" : {
                        "type" : "double",
                        "defaultValue" : 0.0,
                        "keyframes" : [
                          {
                            "endTime" : 260,
                            "time" : 230,
                            "value" : 6617.65048026514,
                            "duration" : 30
                          },
                          {
                            "endTime" : 375,
                            "time" : 345,
                            "value" : -5.6843418860808e-13,
                            "duration" : 30
                          },
                          {
                            "endTime" : 1433,
                            "time" : 1403,
                            "value" : -544.842863508438,
                            "duration" : 30
                          }
                        ]
                      },
                      "translation1" : {
                        "type" : "double",
                        "defaultValue" : 0.0,
                        "keyframes" : [
                          {
                            "endTime" : 260,
                            "time" : 230,
                            "value" : -3072.65241805758,
                            "duration" : 30
                          },
                          {
                            "endTime" : 375,
                            "time" : 345,
                            "value" : -5.6843418860808e-14,
                            "duration" : 30
                          },
                          {
                            "endTime" : 1433,
                            "time" : 1403,
                            "value" : 5.57225093738339,
                            "duration" : 30
                          }
                        ]
                      },
                      "scale0" : {
                        "type" : "double",
                        "defaultValue" : 1.0,
                        "keyframes" : [
                          {
                            "endTime" : 260,
                            "time" : 230,
                            "value" : 6.62127287207902,
                            "duration" : 30
                          },
                          {
                            "endTime" : 375,
                            "time" : 345,
                            "value" : 1.0,
                            "duration" : 30
                          },
                          {
                            "endTime" : 1433,
                            "time" : 1403,
                            "value" : 3.40690314495839,
                            "duration" : 30
                          }
                        ]
                      },
                      "scale1" : {
                        "type" : "double",
                        "defaultValue" : 1.0,
                        "keyframes" : [
                          {
                            "endTime" : 260,
                            "time" : 230,
                            "value" : 6.62127291078292,
                            "duration" : 30
                          },
                          {
                            "endTime" : 375,
                            "time" : 345,
                            "value" : 1.0,
                            "duration" : 30
                          },
                          {
                            "endTime" : 1433,
                            "time" : 1403,
                            "value" : 3.40690239557822,
                            "duration" : 30
                          }
                        ]
                      },
                      "cursorOpacity" : 1.0,
                      "cursorScale" : 1.0
                    },
                    "medias" : [
                        {
                          "id" : 97,
                          "_type" : "ScreenVMFile",
                          "src" : 1,
                          "trackNumber" : 0,
                          "attributes" : {
                            "ident" : "token_hijacking_attack_prevention"
                          },
                          "parameters" : {
                            "cursorScale" : {
                              "type" : "double",
                              "defaultValue" : 0.0,
                              "interp" : "linr"
                            },
                            "cursorOpacity" : {
                              "type" : "double",
                              "defaultValue" : 0.0,
                              "interp" : "linr"
                            }
                          },
                          "effects" : [

                          ],
                          "start" : 0,
                          "duration" : 276,
                          "mediaStart" : 0,
                          "mediaDuration" : 276,
                          "scalar" : 1,
                          "metadata" : {
                            "AutoAppliedSmartFocus" : "False",
                            "clipSpeedAttribute" : false,
                            "default-scale0" : 1.0,
                            "default-scale1" : 1.0,
                            "default-translation0" : 0.0,
                            "default-translation1" : 0.0
                          },
                          "animationTracks" : {

                          }
                        },
                        {
                          "id" : 98,
                          "_type" : "ScreenIMFile",
                          "src" : 1,
                          "trackNumber" : 0,
                          "trimStartSum" : 0,
                          "attributes" : {
                            "ident" : "token_hijacking_attack_prevention"
                          },
                          "parameters" : {
                            "cursorOpacity" : 0.0,
                            "cursorScale" : 0.0
                          },
                          "effects" : [

                          ],
                          "start" : 276,
                          "duration" : 90,
                          "mediaStart" : 275,
                          "mediaDuration" : 1,
                          "scalar" : 1,
                          "metadata" : {
                            "AutoAppliedSmartFocus" : "False"
                          },
                          "animationTracks" : {

                          }
                        },
                        {
                          "id" : 99,
                          "_type" : "ScreenVMFile",
                          "src" : 1,
                          "trackNumber" : 0,
                          "attributes" : {
                            "ident" : "token_hijacking_attack_prevention"
                          },
                          "parameters" : {
                            "cursorScale" : {
                              "type" : "double",
                              "defaultValue" : 0.0,
                              "interp" : "linr"
                            },
                            "cursorOpacity" : {
                              "type" : "double",
                              "defaultValue" : 0.0,
                              "interp" : "linr"
                            }
                          },
                          "effects" : [

                          ],
                          "start" : 366,
                          "duration" : 61,
                          "mediaStart" : 276,
                          "mediaDuration" : 61,
                          "scalar" : 1,
                          "metadata" : {
                            "AutoAppliedSmartFocus" : "False",
                            "clipSpeedAttribute" : false,
                            "default-scale0" : 1.0,
                            "default-scale1" : 1.0,
                            "default-translation0" : 0.0,
                            "default-translation1" : 0.0
                          },
                          "animationTracks" : {

                          }
                        },
                        {
                          "id" : 100,
                          "_type" : "ScreenIMFile",
                          "src" : 1,
                          "trackNumber" : 0,
                          "trimStartSum" : 0,
                          "attributes" : {
                            "ident" : "token_hijacking_attack_prevention"
                          },
                          "parameters" : {
                            "cursorOpacity" : 0.0,
                            "cursorScale" : 0.0
                          },
                          "effects" : [

                          ],
                          "start" : 427,
                          "duration" : 30,
                          "mediaStart" : 337,
                          "mediaDuration" : 1,
                          "scalar" : 1,
                          "metadata" : {
                            "AutoAppliedSmartFocus" : "False"
                          },
                          "animationTracks" : {

                          }
                        },
                        {
                          "id" : 101,
                          "_type" : "ScreenVMFile",
                          "src" : 1,
                          "trackNumber" : 0,
                          "attributes" : {
                            "ident" : "token_hijacking_attack_prevention"
                          },
                          "parameters" : {
                            "cursorScale" : {
                              "type" : "double",
                              "defaultValue" : 0.0,
                              "interp" : "linr"
                            },
                            "cursorOpacity" : {
                              "type" : "double",
                              "defaultValue" : 0.0,
                              "interp" : "linr"
                            }
                          },
                          "effects" : [

                          ],
                          "start" : 457,
                          "duration" : 19965,
                          "mediaStart" : 337,
                          "mediaDuration" : 19965,
                          "scalar" : 1,
                          "metadata" : {
                            "AutoAppliedSmartFocus" : "False",
                            "clipSpeedAttribute" : false,
                            "default-scale0" : 1.0,
                            "default-scale1" : 1.0,
                            "default-translation0" : 0.0,
                            "default-translation1" : 0.0
                          },
                          "animationTracks" : {

                          }
                        }
                    ],
                    "effects" : [
                        {
                          "effectName" : "CursorHilight",
                          "category" : "categoryCursorEffects",
                          "parameters" : {
                            "blur" : 0.1,
                            "color-alpha" : 0.75,
                            "color-blue" : 0.0,
                            "color-green" : 1.0,
                            "color-red" : 1.0,
                            "radius" : 50.0
                          }
                        }
                    ],
                    "start" : 806,
                    "duration" : 35,
                    "mediaStart" : 1401,
                    "mediaDuration" : 35,
                    "scalar" : 1,
                    "metadata" : {
                      "AutoAppliedSmartFocus" : "False",
                      "clipSpeedAttribute" : false,
                      "default-scale0" : 1.0,
                      "default-scale1" : 1.0,
                      "default-translation0" : -5.6843418860808e-13,
                      "default-translation1" : -5.6843418860808e-14
                    },
                    "animationTracks" : {
                      "visual" : [
                        {
                          "endTime" : 260,
                          "duration" : 30,
                          "range" : [ 230, 30]
                        },
                        {
                          "endTime" : 375,
                          "duration" : 30,
                          "range" : [ 345, 30]
                        },
                        {
                          "endTime" : 1433,
                          "duration" : 30,
                          "range" : [ 1403, 30]
                        }
                      ]
                    }
                  },
                  {
                    "id" : 102,
                    "_type" : "StitchedMedia",
                    "minMediaStart" : 0,
                    "attributes" : {
                      "ident" : "token_hijacking_attack_prevention",
                      "gain" : 1.0,
                      "mixToMono" : false
                    },
                    "parameters" : {
                      "translation0" : {
                        "type" : "double",
                        "defaultValue" : 0.0,
                        "keyframes" : [
                          {
                            "endTime" : 260,
                            "time" : 230,
                            "value" : 6617.65048026514,
                            "duration" : 30
                          },
                          {
                            "endTime" : 375,
                            "time" : 345,
                            "value" : -5.6843418860808e-13,
                            "duration" : 30
                          },
                          {
                            "endTime" : 1433,
                            "time" : 1403,
                            "value" : -544.842863508438,
                            "duration" : 30
                          }
                        ]
                      },
                      "translation1" : {
                        "type" : "double",
                        "defaultValue" : 0.0,
                        "keyframes" : [
                          {
                            "endTime" : 260,
                            "time" : 230,
                            "value" : -3072.65241805758,
                            "duration" : 30
                          },
                          {
                            "endTime" : 375,
                            "time" : 345,
                            "value" : -5.6843418860808e-14,
                            "duration" : 30
                          },
                          {
                            "endTime" : 1433,
                            "time" : 1403,
                            "value" : 5.57225093738339,
                            "duration" : 30
                          }
                        ]
                      },
                      "scale0" : {
                        "type" : "double",
                        "defaultValue" : 1.0,
                        "keyframes" : [
                          {
                            "endTime" : 260,
                            "time" : 230,
                            "value" : 6.62127287207902,
                            "duration" : 30
                          },
                          {
                            "endTime" : 375,
                            "time" : 345,
                            "value" : 1.0,
                            "duration" : 30
                          },
                          {
                            "endTime" : 1433,
                            "time" : 1403,
                            "value" : 3.40690314495839,
                            "duration" : 30
                          }
                        ]
                      },
                      "scale1" : {
                        "type" : "double",
                        "defaultValue" : 1.0,
                        "keyframes" : [
                          {
                            "endTime" : 260,
                            "time" : 230,
                            "value" : 6.62127291078292,
                            "duration" : 30
                          },
                          {
                            "endTime" : 375,
                            "time" : 345,
                            "value" : 1.0,
                            "duration" : 30
                          },
                          {
                            "endTime" : 1433,
                            "time" : 1403,
                            "value" : 3.40690239557822,
                            "duration" : 30
                          }
                        ]
                      },
                      "cursorOpacity" : 1.0,
                      "cursorScale" : 1.0
                    },
                    "medias" : [
                        {
                          "id" : 103,
                          "_type" : "ScreenVMFile",
                          "src" : 1,
                          "trackNumber" : 0,
                          "attributes" : {
                            "ident" : "token_hijacking_attack_prevention"
                          },
                          "parameters" : {
                            "cursorScale" : {
                              "type" : "double",
                              "defaultValue" : 0.0,
                              "interp" : "linr"
                            },
                            "cursorOpacity" : {
                              "type" : "double",
                              "defaultValue" : 0.0,
                              "interp" : "linr"
                            }
                          },
                          "effects" : [

                          ],
                          "start" : 0,
                          "duration" : 276,
                          "mediaStart" : 0,
                          "mediaDuration" : 276,
                          "scalar" : 1,
                          "metadata" : {
                            "AutoAppliedSmartFocus" : "False",
                            "clipSpeedAttribute" : false,
                            "default-scale0" : 1.0,
                            "default-scale1" : 1.0,
                            "default-translation0" : 0.0,
                            "default-translation1" : 0.0
                          },
                          "animationTracks" : {

                          }
                        },
                        {
                          "id" : 104,
                          "_type" : "ScreenIMFile",
                          "src" : 1,
                          "trackNumber" : 0,
                          "trimStartSum" : 0,
                          "attributes" : {
                            "ident" : "token_hijacking_attack_prevention"
                          },
                          "parameters" : {
                            "cursorOpacity" : 0.0,
                            "cursorScale" : 0.0
                          },
                          "effects" : [

                          ],
                          "start" : 276,
                          "duration" : 90,
                          "mediaStart" : 275,
                          "mediaDuration" : 1,
                          "scalar" : 1,
                          "metadata" : {
                            "AutoAppliedSmartFocus" : "False"
                          },
                          "animationTracks" : {

                          }
                        },
                        {
                          "id" : 105,
                          "_type" : "ScreenVMFile",
                          "src" : 1,
                          "trackNumber" : 0,
                          "attributes" : {
                            "ident" : "token_hijacking_attack_prevention"
                          },
                          "parameters" : {
                            "cursorScale" : {
                              "type" : "double",
                              "defaultValue" : 0.0,
                              "interp" : "linr"
                            },
                            "cursorOpacity" : {
                              "type" : "double",
                              "defaultValue" : 0.0,
                              "interp" : "linr"
                            }
                          },
                          "effects" : [

                          ],
                          "start" : 366,
                          "duration" : 61,
                          "mediaStart" : 276,
                          "mediaDuration" : 61,
                          "scalar" : 1,
                          "metadata" : {
                            "AutoAppliedSmartFocus" : "False",
                            "clipSpeedAttribute" : false,
                            "default-scale0" : 1.0,
                            "default-scale1" : 1.0,
                            "default-translation0" : 0.0,
                            "default-translation1" : 0.0
                          },
                          "animationTracks" : {

                          }
                        },
                        {
                          "id" : 106,
                          "_type" : "ScreenIMFile",
                          "src" : 1,
                          "trackNumber" : 0,
                          "trimStartSum" : 0,
                          "attributes" : {
                            "ident" : "token_hijacking_attack_prevention"
                          },
                          "parameters" : {
                            "cursorOpacity" : 0.0,
                            "cursorScale" : 0.0
                          },
                          "effects" : [

                          ],
                          "start" : 427,
                          "duration" : 30,
                          "mediaStart" : 337,
                          "mediaDuration" : 1,
                          "scalar" : 1,
                          "metadata" : {
                            "AutoAppliedSmartFocus" : "False"
                          },
                          "animationTracks" : {

                          }
                        },
                        {
                          "id" : 107,
                          "_type" : "ScreenVMFile",
                          "src" : 1,
                          "trackNumber" : 0,
                          "attributes" : {
                            "ident" : "token_hijacking_attack_prevention"
                          },
                          "parameters" : {
                            "cursorScale" : {
                              "type" : "double",
                              "defaultValue" : 0.0,
                              "interp" : "linr"
                            },
                            "cursorOpacity" : {
                              "type" : "double",
                              "defaultValue" : 0.0,
                              "interp" : "linr"
                            }
                          },
                          "effects" : [

                          ],
                          "start" : 457,
                          "duration" : 19965,
                          "mediaStart" : 337,
                          "mediaDuration" : 19965,
                          "scalar" : 1,
                          "metadata" : {
                            "AutoAppliedSmartFocus" : "False",
                            "clipSpeedAttribute" : false,
                            "default-scale0" : 1.0,
                            "default-scale1" : 1.0,
                            "default-translation0" : 0.0,
                            "default-translation1" : 0.0
                          },
                          "animationTracks" : {

                          }
                        }
                    ],
                    "effects" : [
                        {
                          "effectName" : "CursorHilight",
                          "category" : "categoryCursorEffects",
                          "parameters" : {
                            "blur" : 0.1,
                            "color-alpha" : 0.75,
                            "color-blue" : 0.0,
                            "color-green" : 1.0,
                            "color-red" : 1.0,
                            "radius" : 50.0
                          }
                        }
                    ],
                    "start" : 841,
                    "duration" : 23,
                    "mediaStart" : 1436,
                    "mediaDuration" : 37,
                    "scalar" : "23/37",
                    "metadata" : {
                      "AutoAppliedSmartFocus" : "False",
                      "clipSpeedAttribute" : true,
                      "default-scale0" : 1.0,
                      "default-scale1" : 1.0,
                      "default-translation0" : -5.6843418860808e-13,
                      "default-translation1" : -5.6843418860808e-14
                    },
                    "animationTracks" : {
                      "visual" : [
                        {
                          "endTime" : 260,
                          "duration" : 30,
                          "range" : [ 230, 30]
                        },
                        {
                          "endTime" : 375,
                          "duration" : 30,
                          "range" : [ 345, 30]
                        },
                        {
                          "endTime" : 1433,
                          "duration" : 30,
                          "range" : [ 1403, 30]
                        }
                      ]
                    }
                  },
                  {
                    "id" : 108,
                    "_type" : "StitchedMedia",
                    "minMediaStart" : 0,
                    "attributes" : {
                      "ident" : "token_hijacking_attack_prevention",
                      "gain" : 1.0,
                      "mixToMono" : false
                    },
                    "parameters" : {
                      "translation0" : {
                        "type" : "double",
                        "defaultValue" : 0.0,
                        "keyframes" : [
                          {
                            "endTime" : 260,
                            "time" : 230,
                            "value" : 6617.65048026514,
                            "duration" : 30
                          },
                          {
                            "endTime" : 375,
                            "time" : 345,
                            "value" : -5.6843418860808e-13,
                            "duration" : 30
                          },
                          {
                            "endTime" : 1433,
                            "time" : 1403,
                            "value" : -544.842863508438,
                            "duration" : 30
                          },
                          {
                            "endTime" : 1633,
                            "time" : 1603,
                            "value" : 0.0,
                            "duration" : 30
                          }
                        ]
                      },
                      "translation1" : {
                        "type" : "double",
                        "defaultValue" : 0.0,
                        "keyframes" : [
                          {
                            "endTime" : 260,
                            "time" : 230,
                            "value" : -3072.65241805758,
                            "duration" : 30
                          },
                          {
                            "endTime" : 375,
                            "time" : 345,
                            "value" : -5.6843418860808e-14,
                            "duration" : 30
                          },
                          {
                            "endTime" : 1433,
                            "time" : 1403,
                            "value" : 5.57225093738339,
                            "duration" : 30
                          },
                          {
                            "endTime" : 1633,
                            "time" : 1603,
                            "value" : -1.0724754417879e-13,
                            "duration" : 30
                          }
                        ]
                      },
                      "scale0" : {
                        "type" : "double",
                        "defaultValue" : 1.0,
                        "keyframes" : [
                          {
                            "endTime" : 260,
                            "time" : 230,
                            "value" : 6.62127287207902,
                            "duration" : 30
                          },
                          {
                            "endTime" : 375,
                            "time" : 345,
                            "value" : 1.0,
                            "duration" : 30
                          },
                          {
                            "endTime" : 1433,
                            "time" : 1403,
                            "value" : 3.40690314495839,
                            "duration" : 30
                          },
                          {
                            "endTime" : 1633,
                            "time" : 1603,
                            "value" : 1.0,
                            "duration" : 30
                          }
                        ]
                      },
                      "scale1" : {
                        "type" : "double",
                        "defaultValue" : 1.0,
                        "keyframes" : [
                          {
                            "endTime" : 260,
                            "time" : 230,
                            "value" : 6.62127291078292,
                            "duration" : 30
                          },
                          {
                            "endTime" : 375,
                            "time" : 345,
                            "value" : 1.0,
                            "duration" : 30
                          },
                          {
                            "endTime" : 1433,
                            "time" : 1403,
                            "value" : 3.40690239557822,
                            "duration" : 30
                          },
                          {
                            "endTime" : 1633,
                            "time" : 1603,
                            "value" : 1.0,
                            "duration" : 30
                          }
                        ]
                      },
                      "cursorOpacity" : 1.0,
                      "cursorScale" : 1.0
                    },
                    "medias" : [
                        {
                          "id" : 109,
                          "_type" : "ScreenVMFile",
                          "src" : 1,
                          "trackNumber" : 0,
                          "attributes" : {
                            "ident" : "token_hijacking_attack_prevention"
                          },
                          "parameters" : {
                            "cursorScale" : {
                              "type" : "double",
                              "defaultValue" : 0.0,
                              "interp" : "linr"
                            },
                            "cursorOpacity" : {
                              "type" : "double",
                              "defaultValue" : 0.0,
                              "interp" : "linr"
                            }
                          },
                          "effects" : [

                          ],
                          "start" : 0,
                          "duration" : 276,
                          "mediaStart" : 0,
                          "mediaDuration" : 276,
                          "scalar" : 1,
                          "metadata" : {
                            "AutoAppliedSmartFocus" : "False",
                            "clipSpeedAttribute" : false,
                            "default-scale0" : 1.0,
                            "default-scale1" : 1.0,
                            "default-translation0" : 0.0,
                            "default-translation1" : 0.0
                          },
                          "animationTracks" : {

                          }
                        },
                        {
                          "id" : 110,
                          "_type" : "ScreenIMFile",
                          "src" : 1,
                          "trackNumber" : 0,
                          "trimStartSum" : 0,
                          "attributes" : {
                            "ident" : "token_hijacking_attack_prevention"
                          },
                          "parameters" : {
                            "cursorOpacity" : 0.0,
                            "cursorScale" : 0.0
                          },
                          "effects" : [

                          ],
                          "start" : 276,
                          "duration" : 90,
                          "mediaStart" : 275,
                          "mediaDuration" : 1,
                          "scalar" : 1,
                          "metadata" : {
                            "AutoAppliedSmartFocus" : "False"
                          },
                          "animationTracks" : {

                          }
                        },
                        {
                          "id" : 111,
                          "_type" : "ScreenVMFile",
                          "src" : 1,
                          "trackNumber" : 0,
                          "attributes" : {
                            "ident" : "token_hijacking_attack_prevention"
                          },
                          "parameters" : {
                            "cursorScale" : {
                              "type" : "double",
                              "defaultValue" : 0.0,
                              "interp" : "linr"
                            },
                            "cursorOpacity" : {
                              "type" : "double",
                              "defaultValue" : 0.0,
                              "interp" : "linr"
                            }
                          },
                          "effects" : [

                          ],
                          "start" : 366,
                          "duration" : 61,
                          "mediaStart" : 276,
                          "mediaDuration" : 61,
                          "scalar" : 1,
                          "metadata" : {
                            "AutoAppliedSmartFocus" : "False",
                            "clipSpeedAttribute" : false,
                            "default-scale0" : 1.0,
                            "default-scale1" : 1.0,
                            "default-translation0" : 0.0,
                            "default-translation1" : 0.0
                          },
                          "animationTracks" : {

                          }
                        },
                        {
                          "id" : 112,
                          "_type" : "ScreenIMFile",
                          "src" : 1,
                          "trackNumber" : 0,
                          "trimStartSum" : 0,
                          "attributes" : {
                            "ident" : "token_hijacking_attack_prevention"
                          },
                          "parameters" : {
                            "cursorOpacity" : 0.0,
                            "cursorScale" : 0.0
                          },
                          "effects" : [

                          ],
                          "start" : 427,
                          "duration" : 30,
                          "mediaStart" : 337,
                          "mediaDuration" : 1,
                          "scalar" : 1,
                          "metadata" : {
                            "AutoAppliedSmartFocus" : "False"
                          },
                          "animationTracks" : {

                          }
                        },
                        {
                          "id" : 113,
                          "_type" : "ScreenVMFile",
                          "src" : 1,
                          "trackNumber" : 0,
                          "attributes" : {
                            "ident" : "token_hijacking_attack_prevention"
                          },
                          "parameters" : {
                            "cursorScale" : {
                              "type" : "double",
                              "defaultValue" : 0.0,
                              "interp" : "linr"
                            },
                            "cursorOpacity" : {
                              "type" : "double",
                              "defaultValue" : 0.0,
                              "interp" : "linr"
                            }
                          },
                          "effects" : [

                          ],
                          "start" : 457,
                          "duration" : 1089,
                          "mediaStart" : 337,
                          "mediaDuration" : 1089,
                          "scalar" : 1,
                          "metadata" : {
                            "AutoAppliedSmartFocus" : "False",
                            "clipSpeedAttribute" : false,
                            "default-scale0" : 1.0,
                            "default-scale1" : 1.0,
                            "default-translation0" : 0.0,
                            "default-translation1" : 0.0
                          },
                          "animationTracks" : {

                          }
                        },
                        {
                          "id" : 114,
                          "_type" : "ScreenIMFile",
                          "src" : 1,
                          "trackNumber" : 0,
                          "trimStartSum" : 0,
                          "attributes" : {
                            "ident" : "token_hijacking_attack_prevention"
                          },
                          "parameters" : {
                            "cursorOpacity" : 0.0,
                            "cursorScale" : 0.0
                          },
                          "effects" : [

                          ],
                          "start" : 1546,
                          "duration" : 90,
                          "mediaStart" : 1426,
                          "mediaDuration" : 1,
                          "scalar" : 1,
                          "metadata" : {
                            "AutoAppliedSmartFocus" : "False"
                          },
                          "animationTracks" : {

                          }
                        },
                        {
                          "id" : 115,
                          "_type" : "ScreenVMFile",
                          "src" : 1,
                          "trackNumber" : 0,
                          "attributes" : {
                            "ident" : "token_hijacking_attack_prevention"
                          },
                          "parameters" : {
                            "cursorScale" : {
                              "type" : "double",
                              "defaultValue" : 0.0,
                              "interp" : "linr"
                            },
                            "cursorOpacity" : {
                              "type" : "double",
                              "defaultValue" : 0.0,
                              "interp" : "linr"
                            }
                          },
                          "effects" : [

                          ],
                          "start" : 1636,
                          "duration" : 18876,
                          "mediaStart" : 1426,
                          "mediaDuration" : 18876,
                          "scalar" : 1,
                          "metadata" : {
                            "AutoAppliedSmartFocus" : "False",
                            "clipSpeedAttribute" : false,
                            "default-scale0" : 1.0,
                            "default-scale1" : 1.0,
                            "default-translation0" : 0.0,
                            "default-translation1" : 0.0
                          },
                          "animationTracks" : {

                          }
                        }
                    ],
                    "effects" : [
                        {
                          "effectName" : "CursorHilight",
                          "category" : "categoryCursorEffects",
                          "parameters" : {
                            "blur" : 0.1,
                            "color-alpha" : 0.75,
                            "color-blue" : 0.0,
                            "color-green" : 1.0,
                            "color-red" : 1.0,
                            "radius" : 50.0
                          }
                        }
                    ],
                    "start" : 864,
                    "duration" : 142,
                    "mediaStart" : 1497,
                    "mediaDuration" : 142,
                    "scalar" : 1,
                    "metadata" : {
                      "AutoAppliedSmartFocus" : "False",
                      "clipSpeedAttribute" : false,
                      "default-scale0" : 3.40690314495839,
                      "default-scale1" : 3.40690239557822,
                      "default-translation0" : -544.842863508438,
                      "default-translation1" : 5.57225093738339
                    },
                    "animationTracks" : {
                      "visual" : [
                        {
                          "endTime" : 260,
                          "duration" : 30,
                          "range" : [ 230, 30]
                        },
                        {
                          "endTime" : 375,
                          "duration" : 30,
                          "range" : [ 345, 30]
                        },
                        {
                          "endTime" : 1433,
                          "duration" : 30,
                          "range" : [ 1403, 30]
                        },
                        {
                          "endTime" : 1633,
                          "duration" : 30,
                          "range" : [ 1603, 30]
                        }
                      ]
                    }
                  },
                  {
                    "id" : 116,
                    "_type" : "StitchedMedia",
                    "minMediaStart" : 0,
                    "attributes" : {
                      "ident" : "token_hijacking_attack_prevention",
                      "gain" : 1.0,
                      "mixToMono" : false
                    },
                    "parameters" : {
                      "translation0" : {
                        "type" : "double",
                        "defaultValue" : 0.0,
                        "keyframes" : [
                          {
                            "endTime" : 260,
                            "time" : 230,
                            "value" : 6617.65048026514,
                            "duration" : 30
                          },
                          {
                            "endTime" : 375,
                            "time" : 345,
                            "value" : -5.6843418860808e-13,
                            "duration" : 30
                          },
                          {
                            "endTime" : 1433,
                            "time" : 1403,
                            "value" : -544.842863508438,
                            "duration" : 30
                          },
                          {
                            "endTime" : 1633,
                            "time" : 1603,
                            "value" : 0.0,
                            "duration" : 30
                          }
                        ]
                      },
                      "translation1" : {
                        "type" : "double",
                        "defaultValue" : 0.0,
                        "keyframes" : [
                          {
                            "endTime" : 260,
                            "time" : 230,
                            "value" : -3072.65241805758,
                            "duration" : 30
                          },
                          {
                            "endTime" : 375,
                            "time" : 345,
                            "value" : -5.6843418860808e-14,
                            "duration" : 30
                          },
                          {
                            "endTime" : 1433,
                            "time" : 1403,
                            "value" : 5.57225093738339,
                            "duration" : 30
                          },
                          {
                            "endTime" : 1633,
                            "time" : 1603,
                            "value" : -1.0724754417879e-13,
                            "duration" : 30
                          }
                        ]
                      },
                      "scale0" : {
                        "type" : "double",
                        "defaultValue" : 1.0,
                        "keyframes" : [
                          {
                            "endTime" : 260,
                            "time" : 230,
                            "value" : 6.62127287207902,
                            "duration" : 30
                          },
                          {
                            "endTime" : 375,
                            "time" : 345,
                            "value" : 1.0,
                            "duration" : 30
                          },
                          {
                            "endTime" : 1433,
                            "time" : 1403,
                            "value" : 3.40690314495839,
                            "duration" : 30
                          },
                          {
                            "endTime" : 1633,
                            "time" : 1603,
                            "value" : 1.0,
                            "duration" : 30
                          }
                        ]
                      },
                      "scale1" : {
                        "type" : "double",
                        "defaultValue" : 1.0,
                        "keyframes" : [
                          {
                            "endTime" : 260,
                            "time" : 230,
                            "value" : 6.62127291078292,
                            "duration" : 30
                          },
                          {
                            "endTime" : 375,
                            "time" : 345,
                            "value" : 1.0,
                            "duration" : 30
                          },
                          {
                            "endTime" : 1433,
                            "time" : 1403,
                            "value" : 3.40690239557822,
                            "duration" : 30
                          },
                          {
                            "endTime" : 1633,
                            "time" : 1603,
                            "value" : 1.0,
                            "duration" : 30
                          }
                        ]
                      },
                      "cursorOpacity" : 1.0,
                      "cursorScale" : 1.0
                    },
                    "medias" : [
                        {
                          "id" : 117,
                          "_type" : "ScreenVMFile",
                          "src" : 1,
                          "trackNumber" : 0,
                          "attributes" : {
                            "ident" : "token_hijacking_attack_prevention"
                          },
                          "parameters" : {
                            "cursorScale" : {
                              "type" : "double",
                              "defaultValue" : 0.0,
                              "interp" : "linr"
                            },
                            "cursorOpacity" : {
                              "type" : "double",
                              "defaultValue" : 0.0,
                              "interp" : "linr"
                            }
                          },
                          "effects" : [

                          ],
                          "start" : 0,
                          "duration" : 276,
                          "mediaStart" : 0,
                          "mediaDuration" : 276,
                          "scalar" : 1,
                          "metadata" : {
                            "AutoAppliedSmartFocus" : "False",
                            "clipSpeedAttribute" : false,
                            "default-scale0" : 1.0,
                            "default-scale1" : 1.0,
                            "default-translation0" : 0.0,
                            "default-translation1" : 0.0
                          },
                          "animationTracks" : {

                          }
                        },
                        {
                          "id" : 118,
                          "_type" : "ScreenIMFile",
                          "src" : 1,
                          "trackNumber" : 0,
                          "trimStartSum" : 0,
                          "attributes" : {
                            "ident" : "token_hijacking_attack_prevention"
                          },
                          "parameters" : {
                            "cursorOpacity" : 0.0,
                            "cursorScale" : 0.0
                          },
                          "effects" : [

                          ],
                          "start" : 276,
                          "duration" : 90,
                          "mediaStart" : 275,
                          "mediaDuration" : 1,
                          "scalar" : 1,
                          "metadata" : {
                            "AutoAppliedSmartFocus" : "False"
                          },
                          "animationTracks" : {

                          }
                        },
                        {
                          "id" : 119,
                          "_type" : "ScreenVMFile",
                          "src" : 1,
                          "trackNumber" : 0,
                          "attributes" : {
                            "ident" : "token_hijacking_attack_prevention"
                          },
                          "parameters" : {
                            "cursorScale" : {
                              "type" : "double",
                              "defaultValue" : 0.0,
                              "interp" : "linr"
                            },
                            "cursorOpacity" : {
                              "type" : "double",
                              "defaultValue" : 0.0,
                              "interp" : "linr"
                            }
                          },
                          "effects" : [

                          ],
                          "start" : 366,
                          "duration" : 61,
                          "mediaStart" : 276,
                          "mediaDuration" : 61,
                          "scalar" : 1,
                          "metadata" : {
                            "AutoAppliedSmartFocus" : "False",
                            "clipSpeedAttribute" : false,
                            "default-scale0" : 1.0,
                            "default-scale1" : 1.0,
                            "default-translation0" : 0.0,
                            "default-translation1" : 0.0
                          },
                          "animationTracks" : {

                          }
                        },
                        {
                          "id" : 120,
                          "_type" : "ScreenIMFile",
                          "src" : 1,
                          "trackNumber" : 0,
                          "trimStartSum" : 0,
                          "attributes" : {
                            "ident" : "token_hijacking_attack_prevention"
                          },
                          "parameters" : {
                            "cursorOpacity" : 0.0,
                            "cursorScale" : 0.0
                          },
                          "effects" : [

                          ],
                          "start" : 427,
                          "duration" : 30,
                          "mediaStart" : 337,
                          "mediaDuration" : 1,
                          "scalar" : 1,
                          "metadata" : {
                            "AutoAppliedSmartFocus" : "False"
                          },
                          "animationTracks" : {

                          }
                        },
                        {
                          "id" : 121,
                          "_type" : "ScreenVMFile",
                          "src" : 1,
                          "trackNumber" : 0,
                          "attributes" : {
                            "ident" : "token_hijacking_attack_prevention"
                          },
                          "parameters" : {
                            "cursorScale" : {
                              "type" : "double",
                              "defaultValue" : 0.0,
                              "interp" : "linr"
                            },
                            "cursorOpacity" : {
                              "type" : "double",
                              "defaultValue" : 0.0,
                              "interp" : "linr"
                            }
                          },
                          "effects" : [

                          ],
                          "start" : 457,
                          "duration" : 1089,
                          "mediaStart" : 337,
                          "mediaDuration" : 1089,
                          "scalar" : 1,
                          "metadata" : {
                            "AutoAppliedSmartFocus" : "False",
                            "clipSpeedAttribute" : false,
                            "default-scale0" : 1.0,
                            "default-scale1" : 1.0,
                            "default-translation0" : 0.0,
                            "default-translation1" : 0.0
                          },
                          "animationTracks" : {

                          }
                        },
                        {
                          "id" : 122,
                          "_type" : "ScreenIMFile",
                          "src" : 1,
                          "trackNumber" : 0,
                          "trimStartSum" : 0,
                          "attributes" : {
                            "ident" : "token_hijacking_attack_prevention"
                          },
                          "parameters" : {
                            "cursorOpacity" : 0.0,
                            "cursorScale" : 0.0
                          },
                          "effects" : [

                          ],
                          "start" : 1546,
                          "duration" : 90,
                          "mediaStart" : 1426,
                          "mediaDuration" : 1,
                          "scalar" : 1,
                          "metadata" : {
                            "AutoAppliedSmartFocus" : "False"
                          },
                          "animationTracks" : {

                          }
                        },
                        {
                          "id" : 123,
                          "_type" : "ScreenVMFile",
                          "src" : 1,
                          "trackNumber" : 0,
                          "attributes" : {
                            "ident" : "token_hijacking_attack_prevention"
                          },
                          "parameters" : {
                            "cursorScale" : {
                              "type" : "double",
                              "defaultValue" : 0.0,
                              "interp" : "linr"
                            },
                            "cursorOpacity" : {
                              "type" : "double",
                              "defaultValue" : 0.0,
                              "interp" : "linr"
                            }
                          },
                          "effects" : [

                          ],
                          "start" : 1636,
                          "duration" : 18876,
                          "mediaStart" : 1426,
                          "mediaDuration" : 18876,
                          "scalar" : 1,
                          "metadata" : {
                            "AutoAppliedSmartFocus" : "False",
                            "clipSpeedAttribute" : false,
                            "default-scale0" : 1.0,
                            "default-scale1" : 1.0,
                            "default-translation0" : 0.0,
                            "default-translation1" : 0.0
                          },
                          "animationTracks" : {

                          }
                        }
                    ],
                    "effects" : [
                        {
                          "effectName" : "CursorHilight",
                          "category" : "categoryCursorEffects",
                          "parameters" : {
                            "blur" : 0.1,
                            "color-alpha" : 0.75,
                            "color-blue" : 0.0,
                            "color-green" : 1.0,
                            "color-red" : 1.0,
                            "radius" : 50.0
                          }
                        }
                    ],
                    "start" : 1006,
                    "duration" : 62,
                    "mediaStart" : 1639,
                    "mediaDuration" : 179,
                    "scalar" : "62/179",
                    "metadata" : {
                      "AutoAppliedSmartFocus" : "False",
                      "clipSpeedAttribute" : true,
                      "default-scale0" : 3.40690314495839,
                      "default-scale1" : 3.40690239557822,
                      "default-translation0" : -544.842863508438,
                      "default-translation1" : 5.57225093738339
                    },
                    "animationTracks" : {
                      "visual" : [
                        {
                          "endTime" : 260,
                          "duration" : 30,
                          "range" : [ 230, 30]
                        },
                        {
                          "endTime" : 375,
                          "duration" : 30,
                          "range" : [ 345, 30]
                        },
                        {
                          "endTime" : 1433,
                          "duration" : 30,
                          "range" : [ 1403, 30]
                        },
                        {
                          "endTime" : 1633,
                          "duration" : 30,
                          "range" : [ 1603, 30]
                        }
                      ]
                    }
                  },
                  {
                    "id" : 124,
                    "_type" : "StitchedMedia",
                    "minMediaStart" : 0,
                    "attributes" : {
                      "ident" : "token_hijacking_attack_prevention",
                      "gain" : 1.0,
                      "mixToMono" : false
                    },
                    "parameters" : {
                      "translation0" : {
                        "type" : "double",
                        "defaultValue" : 0.0,
                        "keyframes" : [
                          {
                            "endTime" : 260,
                            "time" : 230,
                            "value" : 6617.65048026514,
                            "duration" : 30
                          },
                          {
                            "endTime" : 375,
                            "time" : 345,
                            "value" : -5.6843418860808e-13,
                            "duration" : 30
                          },
                          {
                            "endTime" : 1433,
                            "time" : 1403,
                            "value" : -544.842863508438,
                            "duration" : 30
                          },
                          {
                            "endTime" : 1633,
                            "time" : 1603,
                            "value" : 0.0,
                            "duration" : 30
                          },
                          {
                            "endTime" : 2012,
                            "time" : 1982,
                            "value" : -910.68970193186,
                            "duration" : 30
                          }
                        ]
                      },
                      "translation1" : {
                        "type" : "double",
                        "defaultValue" : 0.0,
                        "keyframes" : [
                          {
                            "endTime" : 260,
                            "time" : 230,
                            "value" : -3072.65241805758,
                            "duration" : 30
                          },
                          {
                            "endTime" : 375,
                            "time" : 345,
                            "value" : -5.6843418860808e-14,
                            "duration" : 30
                          },
                          {
                            "endTime" : 1433,
                            "time" : 1403,
                            "value" : 5.57225093738339,
                            "duration" : 30
                          },
                          {
                            "endTime" : 1633,
                            "time" : 1603,
                            "value" : -1.0724754417879e-13,
                            "duration" : 30
                          },
                          {
                            "endTime" : 2012,
                            "time" : 1982,
                            "value" : 377.898911972652,
                            "duration" : 30
                          }
                        ]
                      },
                      "scale0" : {
                        "type" : "double",
                        "defaultValue" : 1.0,
                        "keyframes" : [
                          {
                            "endTime" : 260,
                            "time" : 230,
                            "value" : 6.62127287207902,
                            "duration" : 30
                          },
                          {
                            "endTime" : 375,
                            "time" : 345,
                            "value" : 1.0,
                            "duration" : 30
                          },
                          {
                            "endTime" : 1433,
                            "time" : 1403,
                            "value" : 3.40690314495839,
                            "duration" : 30
                          },
                          {
                            "endTime" : 1633,
                            "time" : 1603,
                            "value" : 1.0,
                            "duration" : 30
                          },
                          {
                            "endTime" : 2012,
                            "time" : 1982,
                            "value" : 1.71147598625338,
                            "duration" : 30
                          }
                        ]
                      },
                      "scale1" : {
                        "type" : "double",
                        "defaultValue" : 1.0,
                        "keyframes" : [
                          {
                            "endTime" : 260,
                            "time" : 230,
                            "value" : 6.62127291078292,
                            "duration" : 30
                          },
                          {
                            "endTime" : 375,
                            "time" : 345,
                            "value" : 1.0,
                            "duration" : 30
                          },
                          {
                            "endTime" : 1433,
                            "time" : 1403,
                            "value" : 3.40690239557822,
                            "duration" : 30
                          },
                          {
                            "endTime" : 1633,
                            "time" : 1603,
                            "value" : 1.0,
                            "duration" : 30
                          },
                          {
                            "endTime" : 2012,
                            "time" : 1982,
                            "value" : 1.71147597084861,
                            "duration" : 30
                          }
                        ]
                      },
                      "cursorOpacity" : 1.0,
                      "cursorScale" : 1.0
                    },
                    "medias" : [
                        {
                          "id" : 125,
                          "_type" : "ScreenVMFile",
                          "src" : 1,
                          "trackNumber" : 0,
                          "attributes" : {
                            "ident" : "token_hijacking_attack_prevention"
                          },
                          "parameters" : {
                            "cursorScale" : {
                              "type" : "double",
                              "defaultValue" : 0.0,
                              "interp" : "linr"
                            },
                            "cursorOpacity" : {
                              "type" : "double",
                              "defaultValue" : 0.0,
                              "interp" : "linr"
                            }
                          },
                          "effects" : [

                          ],
                          "start" : 0,
                          "duration" : 276,
                          "mediaStart" : 0,
                          "mediaDuration" : 276,
                          "scalar" : 1,
                          "metadata" : {
                            "AutoAppliedSmartFocus" : "False",
                            "clipSpeedAttribute" : false,
                            "default-scale0" : 1.0,
                            "default-scale1" : 1.0,
                            "default-translation0" : 0.0,
                            "default-translation1" : 0.0
                          },
                          "animationTracks" : {

                          }
                        },
                        {
                          "id" : 126,
                          "_type" : "ScreenIMFile",
                          "src" : 1,
                          "trackNumber" : 0,
                          "trimStartSum" : 0,
                          "attributes" : {
                            "ident" : "token_hijacking_attack_prevention"
                          },
                          "parameters" : {
                            "cursorOpacity" : 0.0,
                            "cursorScale" : 0.0
                          },
                          "effects" : [

                          ],
                          "start" : 276,
                          "duration" : 90,
                          "mediaStart" : 275,
                          "mediaDuration" : 1,
                          "scalar" : 1,
                          "metadata" : {
                            "AutoAppliedSmartFocus" : "False"
                          },
                          "animationTracks" : {

                          }
                        },
                        {
                          "id" : 127,
                          "_type" : "ScreenVMFile",
                          "src" : 1,
                          "trackNumber" : 0,
                          "attributes" : {
                            "ident" : "token_hijacking_attack_prevention"
                          },
                          "parameters" : {
                            "cursorScale" : {
                              "type" : "double",
                              "defaultValue" : 0.0,
                              "interp" : "linr"
                            },
                            "cursorOpacity" : {
                              "type" : "double",
                              "defaultValue" : 0.0,
                              "interp" : "linr"
                            }
                          },
                          "effects" : [

                          ],
                          "start" : 366,
                          "duration" : 61,
                          "mediaStart" : 276,
                          "mediaDuration" : 61,
                          "scalar" : 1,
                          "metadata" : {
                            "AutoAppliedSmartFocus" : "False",
                            "clipSpeedAttribute" : false,
                            "default-scale0" : 1.0,
                            "default-scale1" : 1.0,
                            "default-translation0" : 0.0,
                            "default-translation1" : 0.0
                          },
                          "animationTracks" : {

                          }
                        },
                        {
                          "id" : 128,
                          "_type" : "ScreenIMFile",
                          "src" : 1,
                          "trackNumber" : 0,
                          "trimStartSum" : 0,
                          "attributes" : {
                            "ident" : "token_hijacking_attack_prevention"
                          },
                          "parameters" : {
                            "cursorOpacity" : 0.0,
                            "cursorScale" : 0.0
                          },
                          "effects" : [

                          ],
                          "start" : 427,
                          "duration" : 30,
                          "mediaStart" : 337,
                          "mediaDuration" : 1,
                          "scalar" : 1,
                          "metadata" : {
                            "AutoAppliedSmartFocus" : "False"
                          },
                          "animationTracks" : {

                          }
                        },
                        {
                          "id" : 129,
                          "_type" : "ScreenVMFile",
                          "src" : 1,
                          "trackNumber" : 0,
                          "attributes" : {
                            "ident" : "token_hijacking_attack_prevention"
                          },
                          "parameters" : {
                            "cursorScale" : {
                              "type" : "double",
                              "defaultValue" : 0.0,
                              "interp" : "linr"
                            },
                            "cursorOpacity" : {
                              "type" : "double",
                              "defaultValue" : 0.0,
                              "interp" : "linr"
                            }
                          },
                          "effects" : [

                          ],
                          "start" : 457,
                          "duration" : 1089,
                          "mediaStart" : 337,
                          "mediaDuration" : 1089,
                          "scalar" : 1,
                          "metadata" : {
                            "AutoAppliedSmartFocus" : "False",
                            "clipSpeedAttribute" : false,
                            "default-scale0" : 1.0,
                            "default-scale1" : 1.0,
                            "default-translation0" : 0.0,
                            "default-translation1" : 0.0
                          },
                          "animationTracks" : {

                          }
                        },
                        {
                          "id" : 130,
                          "_type" : "ScreenIMFile",
                          "src" : 1,
                          "trackNumber" : 0,
                          "trimStartSum" : 0,
                          "attributes" : {
                            "ident" : "token_hijacking_attack_prevention"
                          },
                          "parameters" : {
                            "cursorOpacity" : 0.0,
                            "cursorScale" : 0.0
                          },
                          "effects" : [

                          ],
                          "start" : 1546,
                          "duration" : 90,
                          "mediaStart" : 1426,
                          "mediaDuration" : 1,
                          "scalar" : 1,
                          "metadata" : {
                            "AutoAppliedSmartFocus" : "False"
                          },
                          "animationTracks" : {

                          }
                        },
                        {
                          "id" : 131,
                          "_type" : "ScreenVMFile",
                          "src" : 1,
                          "trackNumber" : 0,
                          "attributes" : {
                            "ident" : "token_hijacking_attack_prevention"
                          },
                          "parameters" : {
                            "cursorScale" : {
                              "type" : "double",
                              "defaultValue" : 0.0,
                              "interp" : "linr"
                            },
                            "cursorOpacity" : {
                              "type" : "double",
                              "defaultValue" : 0.0,
                              "interp" : "linr"
                            }
                          },
                          "effects" : [

                          ],
                          "start" : 1636,
                          "duration" : 18876,
                          "mediaStart" : 1426,
                          "mediaDuration" : 18876,
                          "scalar" : 1,
                          "metadata" : {
                            "AutoAppliedSmartFocus" : "False",
                            "clipSpeedAttribute" : false,
                            "default-scale0" : 1.0,
                            "default-scale1" : 1.0,
                            "default-translation0" : 0.0,
                            "default-translation1" : 0.0
                          },
                          "animationTracks" : {

                          }
                        }
                    ],
                    "effects" : [
                        {
                          "effectName" : "CursorHilight",
                          "category" : "categoryCursorEffects",
                          "parameters" : {
                            "blur" : 0.1,
                            "color-alpha" : 0.75,
                            "color-blue" : 0.0,
                            "color-green" : 1.0,
                            "color-red" : 1.0,
                            "radius" : 50.0
                          }
                        }
                    ],
                    "start" : 1068,
                    "duration" : 65,
                    "mediaStart" : 1818,
                    "mediaDuration" : 105,
                    "scalar" : "13/21",
                    "metadata" : {
                      "AutoAppliedSmartFocus" : "False",
                      "clipSpeedAttribute" : true,
                      "default-scale0" : 3.40690314495839,
                      "default-scale1" : 3.40690239557822,
                      "default-translation0" : -544.842863508438,
                      "default-translation1" : 5.57225093738339
                    },
                    "animationTracks" : {
                      "visual" : [
                        {
                          "endTime" : 260,
                          "duration" : 30,
                          "range" : [ 230, 30]
                        },
                        {
                          "endTime" : 375,
                          "duration" : 30,
                          "range" : [ 345, 30]
                        },
                        {
                          "endTime" : 1433,
                          "duration" : 30,
                          "range" : [ 1403, 30]
                        },
                        {
                          "endTime" : 1633,
                          "duration" : 30,
                          "range" : [ 1603, 30]
                        },
                        {
                          "endTime" : 2012,
                          "duration" : 30,
                          "range" : [ 1982, 30]
                        }
                      ]
                    }
                  },
                  {
                    "id" : 132,
                    "_type" : "StitchedMedia",
                    "minMediaStart" : 0,
                    "attributes" : {
                      "ident" : "token_hijacking_attack_prevention",
                      "gain" : 1.0,
                      "mixToMono" : false
                    },
                    "parameters" : {
                      "translation0" : {
                        "type" : "double",
                        "defaultValue" : 0.0,
                        "keyframes" : [
                          {
                            "endTime" : 260,
                            "time" : 230,
                            "value" : 6617.65048026514,
                            "duration" : 30
                          },
                          {
                            "endTime" : 375,
                            "time" : 345,
                            "value" : -5.6843418860808e-13,
                            "duration" : 30
                          },
                          {
                            "endTime" : 1433,
                            "time" : 1403,
                            "value" : -544.842863508438,
                            "duration" : 30
                          },
                          {
                            "endTime" : 1633,
                            "time" : 1603,
                            "value" : 0.0,
                            "duration" : 30
                          },
                          {
                            "endTime" : 2012,
                            "time" : 1982,
                            "value" : -910.68970193186,
                            "duration" : 30
                          }
                        ]
                      },
                      "translation1" : {
                        "type" : "double",
                        "defaultValue" : 0.0,
                        "keyframes" : [
                          {
                            "endTime" : 260,
                            "time" : 230,
                            "value" : -3072.65241805758,
                            "duration" : 30
                          },
                          {
                            "endTime" : 375,
                            "time" : 345,
                            "value" : -5.6843418860808e-14,
                            "duration" : 30
                          },
                          {
                            "endTime" : 1433,
                            "time" : 1403,
                            "value" : 5.57225093738339,
                            "duration" : 30
                          },
                          {
                            "endTime" : 1633,
                            "time" : 1603,
                            "value" : -1.0724754417879e-13,
                            "duration" : 30
                          },
                          {
                            "endTime" : 2012,
                            "time" : 1982,
                            "value" : 377.898911972652,
                            "duration" : 30
                          }
                        ]
                      },
                      "scale0" : {
                        "type" : "double",
                        "defaultValue" : 1.0,
                        "keyframes" : [
                          {
                            "endTime" : 260,
                            "time" : 230,
                            "value" : 6.62127287207902,
                            "duration" : 30
                          },
                          {
                            "endTime" : 375,
                            "time" : 345,
                            "value" : 1.0,
                            "duration" : 30
                          },
                          {
                            "endTime" : 1433,
                            "time" : 1403,
                            "value" : 3.40690314495839,
                            "duration" : 30
                          },
                          {
                            "endTime" : 1633,
                            "time" : 1603,
                            "value" : 1.0,
                            "duration" : 30
                          },
                          {
                            "endTime" : 2012,
                            "time" : 1982,
                            "value" : 1.71147598625338,
                            "duration" : 30
                          }
                        ]
                      },
                      "scale1" : {
                        "type" : "double",
                        "defaultValue" : 1.0,
                        "keyframes" : [
                          {
                            "endTime" : 260,
                            "time" : 230,
                            "value" : 6.62127291078292,
                            "duration" : 30
                          },
                          {
                            "endTime" : 375,
                            "time" : 345,
                            "value" : 1.0,
                            "duration" : 30
                          },
                          {
                            "endTime" : 1433,
                            "time" : 1403,
                            "value" : 3.40690239557822,
                            "duration" : 30
                          },
                          {
                            "endTime" : 1633,
                            "time" : 1603,
                            "value" : 1.0,
                            "duration" : 30
                          },
                          {
                            "endTime" : 2012,
                            "time" : 1982,
                            "value" : 1.71147597084861,
                            "duration" : 30
                          }
                        ]
                      },
                      "cursorOpacity" : 1.0,
                      "cursorScale" : 1.0
                    },
                    "medias" : [
                        {
                          "id" : 133,
                          "_type" : "ScreenVMFile",
                          "src" : 1,
                          "trackNumber" : 0,
                          "attributes" : {
                            "ident" : "token_hijacking_attack_prevention"
                          },
                          "parameters" : {
                            "cursorScale" : {
                              "type" : "double",
                              "defaultValue" : 0.0,
                              "interp" : "linr"
                            },
                            "cursorOpacity" : {
                              "type" : "double",
                              "defaultValue" : 0.0,
                              "interp" : "linr"
                            }
                          },
                          "effects" : [

                          ],
                          "start" : 0,
                          "duration" : 276,
                          "mediaStart" : 0,
                          "mediaDuration" : 276,
                          "scalar" : 1,
                          "metadata" : {
                            "AutoAppliedSmartFocus" : "False",
                            "clipSpeedAttribute" : false,
                            "default-scale0" : 1.0,
                            "default-scale1" : 1.0,
                            "default-translation0" : 0.0,
                            "default-translation1" : 0.0
                          },
                          "animationTracks" : {

                          }
                        },
                        {
                          "id" : 134,
                          "_type" : "ScreenIMFile",
                          "src" : 1,
                          "trackNumber" : 0,
                          "trimStartSum" : 0,
                          "attributes" : {
                            "ident" : "token_hijacking_attack_prevention"
                          },
                          "parameters" : {
                            "cursorOpacity" : 0.0,
                            "cursorScale" : 0.0
                          },
                          "effects" : [

                          ],
                          "start" : 276,
                          "duration" : 90,
                          "mediaStart" : 275,
                          "mediaDuration" : 1,
                          "scalar" : 1,
                          "metadata" : {
                            "AutoAppliedSmartFocus" : "False"
                          },
                          "animationTracks" : {

                          }
                        },
                        {
                          "id" : 135,
                          "_type" : "ScreenVMFile",
                          "src" : 1,
                          "trackNumber" : 0,
                          "attributes" : {
                            "ident" : "token_hijacking_attack_prevention"
                          },
                          "parameters" : {
                            "cursorScale" : {
                              "type" : "double",
                              "defaultValue" : 0.0,
                              "interp" : "linr"
                            },
                            "cursorOpacity" : {
                              "type" : "double",
                              "defaultValue" : 0.0,
                              "interp" : "linr"
                            }
                          },
                          "effects" : [

                          ],
                          "start" : 366,
                          "duration" : 61,
                          "mediaStart" : 276,
                          "mediaDuration" : 61,
                          "scalar" : 1,
                          "metadata" : {
                            "AutoAppliedSmartFocus" : "False",
                            "clipSpeedAttribute" : false,
                            "default-scale0" : 1.0,
                            "default-scale1" : 1.0,
                            "default-translation0" : 0.0,
                            "default-translation1" : 0.0
                          },
                          "animationTracks" : {

                          }
                        },
                        {
                          "id" : 136,
                          "_type" : "ScreenIMFile",
                          "src" : 1,
                          "trackNumber" : 0,
                          "trimStartSum" : 0,
                          "attributes" : {
                            "ident" : "token_hijacking_attack_prevention"
                          },
                          "parameters" : {
                            "cursorOpacity" : 0.0,
                            "cursorScale" : 0.0
                          },
                          "effects" : [

                          ],
                          "start" : 427,
                          "duration" : 30,
                          "mediaStart" : 337,
                          "mediaDuration" : 1,
                          "scalar" : 1,
                          "metadata" : {
                            "AutoAppliedSmartFocus" : "False"
                          },
                          "animationTracks" : {

                          }
                        },
                        {
                          "id" : 137,
                          "_type" : "ScreenVMFile",
                          "src" : 1,
                          "trackNumber" : 0,
                          "attributes" : {
                            "ident" : "token_hijacking_attack_prevention"
                          },
                          "parameters" : {
                            "cursorScale" : {
                              "type" : "double",
                              "defaultValue" : 0.0,
                              "interp" : "linr"
                            },
                            "cursorOpacity" : {
                              "type" : "double",
                              "defaultValue" : 0.0,
                              "interp" : "linr"
                            }
                          },
                          "effects" : [

                          ],
                          "start" : 457,
                          "duration" : 1089,
                          "mediaStart" : 337,
                          "mediaDuration" : 1089,
                          "scalar" : 1,
                          "metadata" : {
                            "AutoAppliedSmartFocus" : "False",
                            "clipSpeedAttribute" : false,
                            "default-scale0" : 1.0,
                            "default-scale1" : 1.0,
                            "default-translation0" : 0.0,
                            "default-translation1" : 0.0
                          },
                          "animationTracks" : {

                          }
                        },
                        {
                          "id" : 138,
                          "_type" : "ScreenIMFile",
                          "src" : 1,
                          "trackNumber" : 0,
                          "trimStartSum" : 0,
                          "attributes" : {
                            "ident" : "token_hijacking_attack_prevention"
                          },
                          "parameters" : {
                            "cursorOpacity" : 0.0,
                            "cursorScale" : 0.0
                          },
                          "effects" : [

                          ],
                          "start" : 1546,
                          "duration" : 90,
                          "mediaStart" : 1426,
                          "mediaDuration" : 1,
                          "scalar" : 1,
                          "metadata" : {
                            "AutoAppliedSmartFocus" : "False"
                          },
                          "animationTracks" : {

                          }
                        },
                        {
                          "id" : 139,
                          "_type" : "ScreenVMFile",
                          "src" : 1,
                          "trackNumber" : 0,
                          "attributes" : {
                            "ident" : "token_hijacking_attack_prevention"
                          },
                          "parameters" : {
                            "cursorScale" : {
                              "type" : "double",
                              "defaultValue" : 0.0,
                              "interp" : "linr"
                            },
                            "cursorOpacity" : {
                              "type" : "double",
                              "defaultValue" : 0.0,
                              "interp" : "linr"
                            }
                          },
                          "effects" : [

                          ],
                          "start" : 1636,
                          "duration" : 18876,
                          "mediaStart" : 1426,
                          "mediaDuration" : 18876,
                          "scalar" : 1,
                          "metadata" : {
                            "AutoAppliedSmartFocus" : "False",
                            "clipSpeedAttribute" : false,
                            "default-scale0" : 1.0,
                            "default-scale1" : 1.0,
                            "default-translation0" : 0.0,
                            "default-translation1" : 0.0
                          },
                          "animationTracks" : {

                          }
                        }
                    ],
                    "effects" : [
                        {
                          "effectName" : "CursorHilight",
                          "category" : "categoryCursorEffects",
                          "parameters" : {
                            "blur" : 0.1,
                            "color-alpha" : 0.75,
                            "color-blue" : 0.0,
                            "color-green" : 1.0,
                            "color-red" : 1.0,
                            "radius" : 50.0
                          }
                        }
                    ],
                    "start" : 1133,
                    "duration" : 90,
                    "mediaStart" : 1923,
                    "mediaDuration" : 90,
                    "scalar" : 1,
                    "metadata" : {
                      "AutoAppliedSmartFocus" : "False",
                      "clipSpeedAttribute" : false,
                      "default-scale0" : 3.40690314495839,
                      "default-scale1" : 3.40690239557822,
                      "default-translation0" : -544.842863508438,
                      "default-translation1" : 5.57225093738339
                    },
                    "animationTracks" : {
                      "visual" : [
                        {
                          "endTime" : 260,
                          "duration" : 30,
                          "range" : [ 230, 30]
                        },
                        {
                          "endTime" : 375,
                          "duration" : 30,
                          "range" : [ 345, 30]
                        },
                        {
                          "endTime" : 1433,
                          "duration" : 30,
                          "range" : [ 1403, 30]
                        },
                        {
                          "endTime" : 1633,
                          "duration" : 30,
                          "range" : [ 1603, 30]
                        },
                        {
                          "endTime" : 2012,
                          "duration" : 30,
                          "range" : [ 1982, 30]
                        }
                      ]
                    }
                  },
                  {
                    "id" : 140,
                    "_type" : "StitchedMedia",
                    "minMediaStart" : 0,
                    "attributes" : {
                      "ident" : "token_hijacking_attack_prevention",
                      "gain" : 1.0,
                      "mixToMono" : false
                    },
                    "parameters" : {
                      "translation0" : {
                        "type" : "double",
                        "defaultValue" : 0.0,
                        "keyframes" : [
                          {
                            "endTime" : 260,
                            "time" : 230,
                            "value" : 6617.65048026514,
                            "duration" : 30
                          },
                          {
                            "endTime" : 375,
                            "time" : 345,
                            "value" : -5.6843418860808e-13,
                            "duration" : 30
                          },
                          {
                            "endTime" : 1433,
                            "time" : 1403,
                            "value" : -544.842863508438,
                            "duration" : 30
                          },
                          {
                            "endTime" : 1633,
                            "time" : 1603,
                            "value" : 0.0,
                            "duration" : 30
                          },
                          {
                            "endTime" : 2012,
                            "time" : 1982,
                            "value" : -910.68970193186,
                            "duration" : 30
                          }
                        ]
                      },
                      "translation1" : {
                        "type" : "double",
                        "defaultValue" : 0.0,
                        "keyframes" : [
                          {
                            "endTime" : 260,
                            "time" : 230,
                            "value" : -3072.65241805758,
                            "duration" : 30
                          },
                          {
                            "endTime" : 375,
                            "time" : 345,
                            "value" : -5.6843418860808e-14,
                            "duration" : 30
                          },
                          {
                            "endTime" : 1433,
                            "time" : 1403,
                            "value" : 5.57225093738339,
                            "duration" : 30
                          },
                          {
                            "endTime" : 1633,
                            "time" : 1603,
                            "value" : -1.0724754417879e-13,
                            "duration" : 30
                          },
                          {
                            "endTime" : 2012,
                            "time" : 1982,
                            "value" : 377.898911972652,
                            "duration" : 30
                          }
                        ]
                      },
                      "scale0" : {
                        "type" : "double",
                        "defaultValue" : 1.0,
                        "keyframes" : [
                          {
                            "endTime" : 260,
                            "time" : 230,
                            "value" : 6.62127287207902,
                            "duration" : 30
                          },
                          {
                            "endTime" : 375,
                            "time" : 345,
                            "value" : 1.0,
                            "duration" : 30
                          },
                          {
                            "endTime" : 1433,
                            "time" : 1403,
                            "value" : 3.40690314495839,
                            "duration" : 30
                          },
                          {
                            "endTime" : 1633,
                            "time" : 1603,
                            "value" : 1.0,
                            "duration" : 30
                          },
                          {
                            "endTime" : 2012,
                            "time" : 1982,
                            "value" : 1.71147598625338,
                            "duration" : 30
                          }
                        ]
                      },
                      "scale1" : {
                        "type" : "double",
                        "defaultValue" : 1.0,
                        "keyframes" : [
                          {
                            "endTime" : 260,
                            "time" : 230,
                            "value" : 6.62127291078292,
                            "duration" : 30
                          },
                          {
                            "endTime" : 375,
                            "time" : 345,
                            "value" : 1.0,
                            "duration" : 30
                          },
                          {
                            "endTime" : 1433,
                            "time" : 1403,
                            "value" : 3.40690239557822,
                            "duration" : 30
                          },
                          {
                            "endTime" : 1633,
                            "time" : 1603,
                            "value" : 1.0,
                            "duration" : 30
                          },
                          {
                            "endTime" : 2012,
                            "time" : 1982,
                            "value" : 1.71147597084861,
                            "duration" : 30
                          }
                        ]
                      },
                      "cursorOpacity" : 1.0,
                      "cursorScale" : 1.0
                    },
                    "medias" : [
                        {
                          "id" : 141,
                          "_type" : "ScreenVMFile",
                          "src" : 1,
                          "trackNumber" : 0,
                          "attributes" : {
                            "ident" : "token_hijacking_attack_prevention"
                          },
                          "parameters" : {
                            "cursorScale" : {
                              "type" : "double",
                              "defaultValue" : 0.0,
                              "interp" : "linr"
                            },
                            "cursorOpacity" : {
                              "type" : "double",
                              "defaultValue" : 0.0,
                              "interp" : "linr"
                            }
                          },
                          "effects" : [

                          ],
                          "start" : 0,
                          "duration" : 276,
                          "mediaStart" : 0,
                          "mediaDuration" : 276,
                          "scalar" : 1,
                          "metadata" : {
                            "AutoAppliedSmartFocus" : "False",
                            "clipSpeedAttribute" : false,
                            "default-scale0" : 1.0,
                            "default-scale1" : 1.0,
                            "default-translation0" : 0.0,
                            "default-translation1" : 0.0
                          },
                          "animationTracks" : {

                          }
                        },
                        {
                          "id" : 142,
                          "_type" : "ScreenIMFile",
                          "src" : 1,
                          "trackNumber" : 0,
                          "trimStartSum" : 0,
                          "attributes" : {
                            "ident" : "token_hijacking_attack_prevention"
                          },
                          "parameters" : {
                            "cursorOpacity" : 0.0,
                            "cursorScale" : 0.0
                          },
                          "effects" : [

                          ],
                          "start" : 276,
                          "duration" : 90,
                          "mediaStart" : 275,
                          "mediaDuration" : 1,
                          "scalar" : 1,
                          "metadata" : {
                            "AutoAppliedSmartFocus" : "False"
                          },
                          "animationTracks" : {

                          }
                        },
                        {
                          "id" : 143,
                          "_type" : "ScreenVMFile",
                          "src" : 1,
                          "trackNumber" : 0,
                          "attributes" : {
                            "ident" : "token_hijacking_attack_prevention"
                          },
                          "parameters" : {
                            "cursorScale" : {
                              "type" : "double",
                              "defaultValue" : 0.0,
                              "interp" : "linr"
                            },
                            "cursorOpacity" : {
                              "type" : "double",
                              "defaultValue" : 0.0,
                              "interp" : "linr"
                            }
                          },
                          "effects" : [

                          ],
                          "start" : 366,
                          "duration" : 61,
                          "mediaStart" : 276,
                          "mediaDuration" : 61,
                          "scalar" : 1,
                          "metadata" : {
                            "AutoAppliedSmartFocus" : "False",
                            "clipSpeedAttribute" : false,
                            "default-scale0" : 1.0,
                            "default-scale1" : 1.0,
                            "default-translation0" : 0.0,
                            "default-translation1" : 0.0
                          },
                          "animationTracks" : {

                          }
                        },
                        {
                          "id" : 144,
                          "_type" : "ScreenIMFile",
                          "src" : 1,
                          "trackNumber" : 0,
                          "trimStartSum" : 0,
                          "attributes" : {
                            "ident" : "token_hijacking_attack_prevention"
                          },
                          "parameters" : {
                            "cursorOpacity" : 0.0,
                            "cursorScale" : 0.0
                          },
                          "effects" : [

                          ],
                          "start" : 427,
                          "duration" : 30,
                          "mediaStart" : 337,
                          "mediaDuration" : 1,
                          "scalar" : 1,
                          "metadata" : {
                            "AutoAppliedSmartFocus" : "False"
                          },
                          "animationTracks" : {

                          }
                        },
                        {
                          "id" : 145,
                          "_type" : "ScreenVMFile",
                          "src" : 1,
                          "trackNumber" : 0,
                          "attributes" : {
                            "ident" : "token_hijacking_attack_prevention"
                          },
                          "parameters" : {
                            "cursorScale" : {
                              "type" : "double",
                              "defaultValue" : 0.0,
                              "interp" : "linr"
                            },
                            "cursorOpacity" : {
                              "type" : "double",
                              "defaultValue" : 0.0,
                              "interp" : "linr"
                            }
                          },
                          "effects" : [

                          ],
                          "start" : 457,
                          "duration" : 1089,
                          "mediaStart" : 337,
                          "mediaDuration" : 1089,
                          "scalar" : 1,
                          "metadata" : {
                            "AutoAppliedSmartFocus" : "False",
                            "clipSpeedAttribute" : false,
                            "default-scale0" : 1.0,
                            "default-scale1" : 1.0,
                            "default-translation0" : 0.0,
                            "default-translation1" : 0.0
                          },
                          "animationTracks" : {

                          }
                        },
                        {
                          "id" : 146,
                          "_type" : "ScreenIMFile",
                          "src" : 1,
                          "trackNumber" : 0,
                          "trimStartSum" : 0,
                          "attributes" : {
                            "ident" : "token_hijacking_attack_prevention"
                          },
                          "parameters" : {
                            "cursorOpacity" : 0.0,
                            "cursorScale" : 0.0
                          },
                          "effects" : [

                          ],
                          "start" : 1546,
                          "duration" : 90,
                          "mediaStart" : 1426,
                          "mediaDuration" : 1,
                          "scalar" : 1,
                          "metadata" : {
                            "AutoAppliedSmartFocus" : "False"
                          },
                          "animationTracks" : {

                          }
                        },
                        {
                          "id" : 147,
                          "_type" : "ScreenVMFile",
                          "src" : 1,
                          "trackNumber" : 0,
                          "attributes" : {
                            "ident" : "token_hijacking_attack_prevention"
                          },
                          "parameters" : {
                            "cursorScale" : {
                              "type" : "double",
                              "defaultValue" : 0.0,
                              "interp" : "linr"
                            },
                            "cursorOpacity" : {
                              "type" : "double",
                              "defaultValue" : 0.0,
                              "interp" : "linr"
                            }
                          },
                          "effects" : [

                          ],
                          "start" : 1636,
                          "duration" : 18876,
                          "mediaStart" : 1426,
                          "mediaDuration" : 18876,
                          "scalar" : 1,
                          "metadata" : {
                            "AutoAppliedSmartFocus" : "False",
                            "clipSpeedAttribute" : false,
                            "default-scale0" : 1.0,
                            "default-scale1" : 1.0,
                            "default-translation0" : 0.0,
                            "default-translation1" : 0.0
                          },
                          "animationTracks" : {

                          }
                        }
                    ],
                    "effects" : [
                        {
                          "effectName" : "CursorHilight",
                          "category" : "categoryCursorEffects",
                          "parameters" : {
                            "blur" : 0.1,
                            "color-alpha" : 0.75,
                            "color-blue" : 0.0,
                            "color-green" : 1.0,
                            "color-red" : 1.0,
                            "radius" : 50.0
                          }
                        }
                    ],
                    "start" : 1223,
                    "duration" : 35,
                    "mediaStart" : 2013,
                    "mediaDuration" : 35,
                    "scalar" : 1,
                    "metadata" : {
                      "AutoAppliedSmartFocus" : "False",
                      "clipSpeedAttribute" : false,
                      "default-scale0" : 3.40690314495839,
                      "default-scale1" : 3.40690239557822,
                      "default-translation0" : -544.842863508438,
                      "default-translation1" : 5.57225093738339
                    },
                    "animationTracks" : {
                      "visual" : [
                        {
                          "endTime" : 260,
                          "duration" : 30,
                          "range" : [ 230, 30]
                        },
                        {
                          "endTime" : 375,
                          "duration" : 30,
                          "range" : [ 345, 30]
                        },
                        {
                          "endTime" : 1433,
                          "duration" : 30,
                          "range" : [ 1403, 30]
                        },
                        {
                          "endTime" : 1633,
                          "duration" : 30,
                          "range" : [ 1603, 30]
                        },
                        {
                          "endTime" : 2012,
                          "duration" : 30,
                          "range" : [ 1982, 30]
                        }
                      ]
                    }
                  },
                  {
                    "id" : 148,
                    "_type" : "StitchedMedia",
                    "minMediaStart" : 0,
                    "attributes" : {
                      "ident" : "token_hijacking_attack_prevention",
                      "gain" : 1.0,
                      "mixToMono" : false
                    },
                    "parameters" : {
                      "translation0" : {
                        "type" : "double",
                        "defaultValue" : 0.0,
                        "keyframes" : [
                          {
                            "endTime" : 260,
                            "time" : 230,
                            "value" : 6617.65048026514,
                            "duration" : 30
                          },
                          {
                            "endTime" : 375,
                            "time" : 345,
                            "value" : -5.6843418860808e-13,
                            "duration" : 30
                          },
                          {
                            "endTime" : 1433,
                            "time" : 1403,
                            "value" : -544.842863508438,
                            "duration" : 30
                          },
                          {
                            "endTime" : 1633,
                            "time" : 1603,
                            "value" : 0.0,
                            "duration" : 30
                          },
                          {
                            "endTime" : 2012,
                            "time" : 1982,
                            "value" : -910.68970193186,
                            "duration" : 30
                          }
                        ]
                      },
                      "translation1" : {
                        "type" : "double",
                        "defaultValue" : 0.0,
                        "keyframes" : [
                          {
                            "endTime" : 260,
                            "time" : 230,
                            "value" : -3072.65241805758,
                            "duration" : 30
                          },
                          {
                            "endTime" : 375,
                            "time" : 345,
                            "value" : -5.6843418860808e-14,
                            "duration" : 30
                          },
                          {
                            "endTime" : 1433,
                            "time" : 1403,
                            "value" : 5.57225093738339,
                            "duration" : 30
                          },
                          {
                            "endTime" : 1633,
                            "time" : 1603,
                            "value" : -1.0724754417879e-13,
                            "duration" : 30
                          },
                          {
                            "endTime" : 2012,
                            "time" : 1982,
                            "value" : 377.898911972652,
                            "duration" : 30
                          }
                        ]
                      },
                      "scale0" : {
                        "type" : "double",
                        "defaultValue" : 1.0,
                        "keyframes" : [
                          {
                            "endTime" : 260,
                            "time" : 230,
                            "value" : 6.62127287207902,
                            "duration" : 30
                          },
                          {
                            "endTime" : 375,
                            "time" : 345,
                            "value" : 1.0,
                            "duration" : 30
                          },
                          {
                            "endTime" : 1433,
                            "time" : 1403,
                            "value" : 3.40690314495839,
                            "duration" : 30
                          },
                          {
                            "endTime" : 1633,
                            "time" : 1603,
                            "value" : 1.0,
                            "duration" : 30
                          },
                          {
                            "endTime" : 2012,
                            "time" : 1982,
                            "value" : 1.71147598625338,
                            "duration" : 30
                          }
                        ]
                      },
                      "scale1" : {
                        "type" : "double",
                        "defaultValue" : 1.0,
                        "keyframes" : [
                          {
                            "endTime" : 260,
                            "time" : 230,
                            "value" : 6.62127291078292,
                            "duration" : 30
                          },
                          {
                            "endTime" : 375,
                            "time" : 345,
                            "value" : 1.0,
                            "duration" : 30
                          },
                          {
                            "endTime" : 1433,
                            "time" : 1403,
                            "value" : 3.40690239557822,
                            "duration" : 30
                          },
                          {
                            "endTime" : 1633,
                            "time" : 1603,
                            "value" : 1.0,
                            "duration" : 30
                          },
                          {
                            "endTime" : 2012,
                            "time" : 1982,
                            "value" : 1.71147597084861,
                            "duration" : 30
                          }
                        ]
                      },
                      "cursorOpacity" : 1.0,
                      "cursorScale" : 1.0
                    },
                    "medias" : [
                        {
                          "id" : 149,
                          "_type" : "ScreenVMFile",
                          "src" : 1,
                          "trackNumber" : 0,
                          "attributes" : {
                            "ident" : "token_hijacking_attack_prevention"
                          },
                          "parameters" : {
                            "cursorScale" : {
                              "type" : "double",
                              "defaultValue" : 0.0,
                              "interp" : "linr"
                            },
                            "cursorOpacity" : {
                              "type" : "double",
                              "defaultValue" : 0.0,
                              "interp" : "linr"
                            }
                          },
                          "effects" : [

                          ],
                          "start" : 0,
                          "duration" : 276,
                          "mediaStart" : 0,
                          "mediaDuration" : 276,
                          "scalar" : 1,
                          "metadata" : {
                            "AutoAppliedSmartFocus" : "False",
                            "clipSpeedAttribute" : false,
                            "default-scale0" : 1.0,
                            "default-scale1" : 1.0,
                            "default-translation0" : 0.0,
                            "default-translation1" : 0.0
                          },
                          "animationTracks" : {

                          }
                        },
                        {
                          "id" : 150,
                          "_type" : "ScreenIMFile",
                          "src" : 1,
                          "trackNumber" : 0,
                          "trimStartSum" : 0,
                          "attributes" : {
                            "ident" : "token_hijacking_attack_prevention"
                          },
                          "parameters" : {
                            "cursorOpacity" : 0.0,
                            "cursorScale" : 0.0
                          },
                          "effects" : [

                          ],
                          "start" : 276,
                          "duration" : 90,
                          "mediaStart" : 275,
                          "mediaDuration" : 1,
                          "scalar" : 1,
                          "metadata" : {
                            "AutoAppliedSmartFocus" : "False"
                          },
                          "animationTracks" : {

                          }
                        },
                        {
                          "id" : 151,
                          "_type" : "ScreenVMFile",
                          "src" : 1,
                          "trackNumber" : 0,
                          "attributes" : {
                            "ident" : "token_hijacking_attack_prevention"
                          },
                          "parameters" : {
                            "cursorScale" : {
                              "type" : "double",
                              "defaultValue" : 0.0,
                              "interp" : "linr"
                            },
                            "cursorOpacity" : {
                              "type" : "double",
                              "defaultValue" : 0.0,
                              "interp" : "linr"
                            }
                          },
                          "effects" : [

                          ],
                          "start" : 366,
                          "duration" : 61,
                          "mediaStart" : 276,
                          "mediaDuration" : 61,
                          "scalar" : 1,
                          "metadata" : {
                            "AutoAppliedSmartFocus" : "False",
                            "clipSpeedAttribute" : false,
                            "default-scale0" : 1.0,
                            "default-scale1" : 1.0,
                            "default-translation0" : 0.0,
                            "default-translation1" : 0.0
                          },
                          "animationTracks" : {

                          }
                        },
                        {
                          "id" : 152,
                          "_type" : "ScreenIMFile",
                          "src" : 1,
                          "trackNumber" : 0,
                          "trimStartSum" : 0,
                          "attributes" : {
                            "ident" : "token_hijacking_attack_prevention"
                          },
                          "parameters" : {
                            "cursorOpacity" : 0.0,
                            "cursorScale" : 0.0
                          },
                          "effects" : [

                          ],
                          "start" : 427,
                          "duration" : 30,
                          "mediaStart" : 337,
                          "mediaDuration" : 1,
                          "scalar" : 1,
                          "metadata" : {
                            "AutoAppliedSmartFocus" : "False"
                          },
                          "animationTracks" : {

                          }
                        },
                        {
                          "id" : 153,
                          "_type" : "ScreenVMFile",
                          "src" : 1,
                          "trackNumber" : 0,
                          "attributes" : {
                            "ident" : "token_hijacking_attack_prevention"
                          },
                          "parameters" : {
                            "cursorScale" : {
                              "type" : "double",
                              "defaultValue" : 0.0,
                              "interp" : "linr"
                            },
                            "cursorOpacity" : {
                              "type" : "double",
                              "defaultValue" : 0.0,
                              "interp" : "linr"
                            }
                          },
                          "effects" : [

                          ],
                          "start" : 457,
                          "duration" : 1089,
                          "mediaStart" : 337,
                          "mediaDuration" : 1089,
                          "scalar" : 1,
                          "metadata" : {
                            "AutoAppliedSmartFocus" : "False",
                            "clipSpeedAttribute" : false,
                            "default-scale0" : 1.0,
                            "default-scale1" : 1.0,
                            "default-translation0" : 0.0,
                            "default-translation1" : 0.0
                          },
                          "animationTracks" : {

                          }
                        },
                        {
                          "id" : 154,
                          "_type" : "ScreenIMFile",
                          "src" : 1,
                          "trackNumber" : 0,
                          "trimStartSum" : 0,
                          "attributes" : {
                            "ident" : "token_hijacking_attack_prevention"
                          },
                          "parameters" : {
                            "cursorOpacity" : 0.0,
                            "cursorScale" : 0.0
                          },
                          "effects" : [

                          ],
                          "start" : 1546,
                          "duration" : 90,
                          "mediaStart" : 1426,
                          "mediaDuration" : 1,
                          "scalar" : 1,
                          "metadata" : {
                            "AutoAppliedSmartFocus" : "False"
                          },
                          "animationTracks" : {

                          }
                        },
                        {
                          "id" : 155,
                          "_type" : "ScreenVMFile",
                          "src" : 1,
                          "trackNumber" : 0,
                          "attributes" : {
                            "ident" : "token_hijacking_attack_prevention"
                          },
                          "parameters" : {
                            "cursorScale" : {
                              "type" : "double",
                              "defaultValue" : 0.0,
                              "interp" : "linr"
                            },
                            "cursorOpacity" : {
                              "type" : "double",
                              "defaultValue" : 0.0,
                              "interp" : "linr"
                            }
                          },
                          "effects" : [

                          ],
                          "start" : 1636,
                          "duration" : 18876,
                          "mediaStart" : 1426,
                          "mediaDuration" : 18876,
                          "scalar" : 1,
                          "metadata" : {
                            "AutoAppliedSmartFocus" : "False",
                            "clipSpeedAttribute" : false,
                            "default-scale0" : 1.0,
                            "default-scale1" : 1.0,
                            "default-translation0" : 0.0,
                            "default-translation1" : 0.0
                          },
                          "animationTracks" : {

                          }
                        }
                    ],
                    "effects" : [
                        {
                          "effectName" : "CursorHilight",
                          "category" : "categoryCursorEffects",
                          "parameters" : {
                            "blur" : 0.1,
                            "color-alpha" : 0.75,
                            "color-blue" : 0.0,
                            "color-green" : 1.0,
                            "color-red" : 1.0,
                            "radius" : 50.0
                          }
                        }
                    ],
                    "start" : 1258,
                    "duration" : 29,
                    "mediaStart" : 2989,
                    "mediaDuration" : 29,
                    "scalar" : 1,
                    "metadata" : {
                      "AutoAppliedSmartFocus" : "False",
                      "clipSpeedAttribute" : false,
                      "default-scale0" : 3.40690314495839,
                      "default-scale1" : 3.40690239557822,
                      "default-translation0" : -544.842863508438,
                      "default-translation1" : 5.57225093738339
                    },
                    "animationTracks" : {
                      "visual" : [
                        {
                          "endTime" : 260,
                          "duration" : 30,
                          "range" : [ 230, 30]
                        },
                        {
                          "endTime" : 375,
                          "duration" : 30,
                          "range" : [ 345, 30]
                        },
                        {
                          "endTime" : 1433,
                          "duration" : 30,
                          "range" : [ 1403, 30]
                        },
                        {
                          "endTime" : 1633,
                          "duration" : 30,
                          "range" : [ 1603, 30]
                        },
                        {
                          "endTime" : 2012,
                          "duration" : 30,
                          "range" : [ 1982, 30]
                        }
                      ]
                    }
                  },
                  {
                    "id" : 156,
                    "_type" : "StitchedMedia",
                    "minMediaStart" : 0,
                    "attributes" : {
                      "ident" : "token_hijacking_attack_prevention",
                      "gain" : 1.0,
                      "mixToMono" : false
                    },
                    "parameters" : {
                      "translation0" : {
                        "type" : "double",
                        "defaultValue" : 0.0,
                        "keyframes" : [
                          {
                            "endTime" : 260,
                            "time" : 230,
                            "value" : 6617.65048026514,
                            "duration" : 30
                          },
                          {
                            "endTime" : 375,
                            "time" : 345,
                            "value" : -5.6843418860808e-13,
                            "duration" : 30
                          },
                          {
                            "endTime" : 1433,
                            "time" : 1403,
                            "value" : -544.842863508438,
                            "duration" : 30
                          },
                          {
                            "endTime" : 1633,
                            "time" : 1603,
                            "value" : 0.0,
                            "duration" : 30
                          },
                          {
                            "endTime" : 2012,
                            "time" : 1982,
                            "value" : -910.68970193186,
                            "duration" : 30
                          }
                        ]
                      },
                      "translation1" : {
                        "type" : "double",
                        "defaultValue" : 0.0,
                        "keyframes" : [
                          {
                            "endTime" : 260,
                            "time" : 230,
                            "value" : -3072.65241805758,
                            "duration" : 30
                          },
                          {
                            "endTime" : 375,
                            "time" : 345,
                            "value" : -5.6843418860808e-14,
                            "duration" : 30
                          },
                          {
                            "endTime" : 1433,
                            "time" : 1403,
                            "value" : 5.57225093738339,
                            "duration" : 30
                          },
                          {
                            "endTime" : 1633,
                            "time" : 1603,
                            "value" : -1.0724754417879e-13,
                            "duration" : 30
                          },
                          {
                            "endTime" : 2012,
                            "time" : 1982,
                            "value" : 377.898911972652,
                            "duration" : 30
                          }
                        ]
                      },
                      "scale0" : {
                        "type" : "double",
                        "defaultValue" : 1.0,
                        "keyframes" : [
                          {
                            "endTime" : 260,
                            "time" : 230,
                            "value" : 6.62127287207902,
                            "duration" : 30
                          },
                          {
                            "endTime" : 375,
                            "time" : 345,
                            "value" : 1.0,
                            "duration" : 30
                          },
                          {
                            "endTime" : 1433,
                            "time" : 1403,
                            "value" : 3.40690314495839,
                            "duration" : 30
                          },
                          {
                            "endTime" : 1633,
                            "time" : 1603,
                            "value" : 1.0,
                            "duration" : 30
                          },
                          {
                            "endTime" : 2012,
                            "time" : 1982,
                            "value" : 1.71147598625338,
                            "duration" : 30
                          }
                        ]
                      },
                      "scale1" : {
                        "type" : "double",
                        "defaultValue" : 1.0,
                        "keyframes" : [
                          {
                            "endTime" : 260,
                            "time" : 230,
                            "value" : 6.62127291078292,
                            "duration" : 30
                          },
                          {
                            "endTime" : 375,
                            "time" : 345,
                            "value" : 1.0,
                            "duration" : 30
                          },
                          {
                            "endTime" : 1433,
                            "time" : 1403,
                            "value" : 3.40690239557822,
                            "duration" : 30
                          },
                          {
                            "endTime" : 1633,
                            "time" : 1603,
                            "value" : 1.0,
                            "duration" : 30
                          },
                          {
                            "endTime" : 2012,
                            "time" : 1982,
                            "value" : 1.71147597084861,
                            "duration" : 30
                          }
                        ]
                      },
                      "cursorOpacity" : 1.0,
                      "cursorScale" : 1.0
                    },
                    "medias" : [
                        {
                          "id" : 157,
                          "_type" : "ScreenVMFile",
                          "src" : 1,
                          "trackNumber" : 0,
                          "attributes" : {
                            "ident" : "token_hijacking_attack_prevention"
                          },
                          "parameters" : {
                            "cursorScale" : {
                              "type" : "double",
                              "defaultValue" : 0.0,
                              "interp" : "linr"
                            },
                            "cursorOpacity" : {
                              "type" : "double",
                              "defaultValue" : 0.0,
                              "interp" : "linr"
                            }
                          },
                          "effects" : [

                          ],
                          "start" : 0,
                          "duration" : 276,
                          "mediaStart" : 0,
                          "mediaDuration" : 276,
                          "scalar" : 1,
                          "metadata" : {
                            "AutoAppliedSmartFocus" : "False",
                            "clipSpeedAttribute" : false,
                            "default-scale0" : 1.0,
                            "default-scale1" : 1.0,
                            "default-translation0" : 0.0,
                            "default-translation1" : 0.0
                          },
                          "animationTracks" : {

                          }
                        },
                        {
                          "id" : 158,
                          "_type" : "ScreenIMFile",
                          "src" : 1,
                          "trackNumber" : 0,
                          "trimStartSum" : 0,
                          "attributes" : {
                            "ident" : "token_hijacking_attack_prevention"
                          },
                          "parameters" : {
                            "cursorOpacity" : 0.0,
                            "cursorScale" : 0.0
                          },
                          "effects" : [

                          ],
                          "start" : 276,
                          "duration" : 90,
                          "mediaStart" : 275,
                          "mediaDuration" : 1,
                          "scalar" : 1,
                          "metadata" : {
                            "AutoAppliedSmartFocus" : "False"
                          },
                          "animationTracks" : {

                          }
                        },
                        {
                          "id" : 159,
                          "_type" : "ScreenVMFile",
                          "src" : 1,
                          "trackNumber" : 0,
                          "attributes" : {
                            "ident" : "token_hijacking_attack_prevention"
                          },
                          "parameters" : {
                            "cursorScale" : {
                              "type" : "double",
                              "defaultValue" : 0.0,
                              "interp" : "linr"
                            },
                            "cursorOpacity" : {
                              "type" : "double",
                              "defaultValue" : 0.0,
                              "interp" : "linr"
                            }
                          },
                          "effects" : [

                          ],
                          "start" : 366,
                          "duration" : 61,
                          "mediaStart" : 276,
                          "mediaDuration" : 61,
                          "scalar" : 1,
                          "metadata" : {
                            "AutoAppliedSmartFocus" : "False",
                            "clipSpeedAttribute" : false,
                            "default-scale0" : 1.0,
                            "default-scale1" : 1.0,
                            "default-translation0" : 0.0,
                            "default-translation1" : 0.0
                          },
                          "animationTracks" : {

                          }
                        },
                        {
                          "id" : 160,
                          "_type" : "ScreenIMFile",
                          "src" : 1,
                          "trackNumber" : 0,
                          "trimStartSum" : 0,
                          "attributes" : {
                            "ident" : "token_hijacking_attack_prevention"
                          },
                          "parameters" : {
                            "cursorOpacity" : 0.0,
                            "cursorScale" : 0.0
                          },
                          "effects" : [

                          ],
                          "start" : 427,
                          "duration" : 30,
                          "mediaStart" : 337,
                          "mediaDuration" : 1,
                          "scalar" : 1,
                          "metadata" : {
                            "AutoAppliedSmartFocus" : "False"
                          },
                          "animationTracks" : {

                          }
                        },
                        {
                          "id" : 161,
                          "_type" : "ScreenVMFile",
                          "src" : 1,
                          "trackNumber" : 0,
                          "attributes" : {
                            "ident" : "token_hijacking_attack_prevention"
                          },
                          "parameters" : {
                            "cursorScale" : {
                              "type" : "double",
                              "defaultValue" : 0.0,
                              "interp" : "linr"
                            },
                            "cursorOpacity" : {
                              "type" : "double",
                              "defaultValue" : 0.0,
                              "interp" : "linr"
                            }
                          },
                          "effects" : [

                          ],
                          "start" : 457,
                          "duration" : 1089,
                          "mediaStart" : 337,
                          "mediaDuration" : 1089,
                          "scalar" : 1,
                          "metadata" : {
                            "AutoAppliedSmartFocus" : "False",
                            "clipSpeedAttribute" : false,
                            "default-scale0" : 1.0,
                            "default-scale1" : 1.0,
                            "default-translation0" : 0.0,
                            "default-translation1" : 0.0
                          },
                          "animationTracks" : {

                          }
                        },
                        {
                          "id" : 162,
                          "_type" : "ScreenIMFile",
                          "src" : 1,
                          "trackNumber" : 0,
                          "trimStartSum" : 0,
                          "attributes" : {
                            "ident" : "token_hijacking_attack_prevention"
                          },
                          "parameters" : {
                            "cursorOpacity" : 0.0,
                            "cursorScale" : 0.0
                          },
                          "effects" : [

                          ],
                          "start" : 1546,
                          "duration" : 90,
                          "mediaStart" : 1426,
                          "mediaDuration" : 1,
                          "scalar" : 1,
                          "metadata" : {
                            "AutoAppliedSmartFocus" : "False"
                          },
                          "animationTracks" : {

                          }
                        },
                        {
                          "id" : 163,
                          "_type" : "ScreenVMFile",
                          "src" : 1,
                          "trackNumber" : 0,
                          "attributes" : {
                            "ident" : "token_hijacking_attack_prevention"
                          },
                          "parameters" : {
                            "cursorScale" : {
                              "type" : "double",
                              "defaultValue" : 0.0,
                              "interp" : "linr"
                            },
                            "cursorOpacity" : {
                              "type" : "double",
                              "defaultValue" : 0.0,
                              "interp" : "linr"
                            }
                          },
                          "effects" : [

                          ],
                          "start" : 1636,
                          "duration" : 18876,
                          "mediaStart" : 1426,
                          "mediaDuration" : 18876,
                          "scalar" : 1,
                          "metadata" : {
                            "AutoAppliedSmartFocus" : "False",
                            "clipSpeedAttribute" : false,
                            "default-scale0" : 1.0,
                            "default-scale1" : 1.0,
                            "default-translation0" : 0.0,
                            "default-translation1" : 0.0
                          },
                          "animationTracks" : {

                          }
                        }
                    ],
                    "effects" : [
                        {
                          "effectName" : "CursorHilight",
                          "category" : "categoryCursorEffects",
                          "parameters" : {
                            "blur" : 0.1,
                            "color-alpha" : 0.75,
                            "color-blue" : 0.0,
                            "color-green" : 1.0,
                            "color-red" : 1.0,
                            "radius" : 50.0
                          }
                        }
                    ],
                    "start" : 1287,
                    "duration" : 29,
                    "mediaStart" : 3683,
                    "mediaDuration" : 29,
                    "scalar" : 1,
                    "metadata" : {
                      "AutoAppliedSmartFocus" : "False",
                      "clipSpeedAttribute" : false,
                      "default-scale0" : 3.40690314495839,
                      "default-scale1" : 3.40690239557822,
                      "default-translation0" : -544.842863508438,
                      "default-translation1" : 5.57225093738339
                    },
                    "animationTracks" : {
                      "visual" : [
                        {
                          "endTime" : 260,
                          "duration" : 30,
                          "range" : [ 230, 30]
                        },
                        {
                          "endTime" : 375,
                          "duration" : 30,
                          "range" : [ 345, 30]
                        },
                        {
                          "endTime" : 1433,
                          "duration" : 30,
                          "range" : [ 1403, 30]
                        },
                        {
                          "endTime" : 1633,
                          "duration" : 30,
                          "range" : [ 1603, 30]
                        },
                        {
                          "endTime" : 2012,
                          "duration" : 30,
                          "range" : [ 1982, 30]
                        }
                      ]
                    }
                  },
                  {
                    "id" : 164,
                    "_type" : "StitchedMedia",
                    "minMediaStart" : 0,
                    "attributes" : {
                      "ident" : "token_hijacking_attack_prevention",
                      "gain" : 1.0,
                      "mixToMono" : false
                    },
                    "parameters" : {
                      "translation0" : {
                        "type" : "double",
                        "defaultValue" : 0.0,
                        "keyframes" : [
                          {
                            "endTime" : 260,
                            "time" : 230,
                            "value" : 6617.65048026514,
                            "duration" : 30
                          },
                          {
                            "endTime" : 375,
                            "time" : 345,
                            "value" : -5.6843418860808e-13,
                            "duration" : 30
                          },
                          {
                            "endTime" : 1433,
                            "time" : 1403,
                            "value" : -544.842863508438,
                            "duration" : 30
                          },
                          {
                            "endTime" : 1633,
                            "time" : 1603,
                            "value" : 0.0,
                            "duration" : 30
                          },
                          {
                            "endTime" : 2012,
                            "time" : 1982,
                            "value" : -910.68970193186,
                            "duration" : 30
                          }
                        ]
                      },
                      "translation1" : {
                        "type" : "double",
                        "defaultValue" : 0.0,
                        "keyframes" : [
                          {
                            "endTime" : 260,
                            "time" : 230,
                            "value" : -3072.65241805758,
                            "duration" : 30
                          },
                          {
                            "endTime" : 375,
                            "time" : 345,
                            "value" : -5.6843418860808e-14,
                            "duration" : 30
                          },
                          {
                            "endTime" : 1433,
                            "time" : 1403,
                            "value" : 5.57225093738339,
                            "duration" : 30
                          },
                          {
                            "endTime" : 1633,
                            "time" : 1603,
                            "value" : -1.0724754417879e-13,
                            "duration" : 30
                          },
                          {
                            "endTime" : 2012,
                            "time" : 1982,
                            "value" : 377.898911972652,
                            "duration" : 30
                          }
                        ]
                      },
                      "scale0" : {
                        "type" : "double",
                        "defaultValue" : 1.0,
                        "keyframes" : [
                          {
                            "endTime" : 260,
                            "time" : 230,
                            "value" : 6.62127287207902,
                            "duration" : 30
                          },
                          {
                            "endTime" : 375,
                            "time" : 345,
                            "value" : 1.0,
                            "duration" : 30
                          },
                          {
                            "endTime" : 1433,
                            "time" : 1403,
                            "value" : 3.40690314495839,
                            "duration" : 30
                          },
                          {
                            "endTime" : 1633,
                            "time" : 1603,
                            "value" : 1.0,
                            "duration" : 30
                          },
                          {
                            "endTime" : 2012,
                            "time" : 1982,
                            "value" : 1.71147598625338,
                            "duration" : 30
                          }
                        ]
                      },
                      "scale1" : {
                        "type" : "double",
                        "defaultValue" : 1.0,
                        "keyframes" : [
                          {
                            "endTime" : 260,
                            "time" : 230,
                            "value" : 6.62127291078292,
                            "duration" : 30
                          },
                          {
                            "endTime" : 375,
                            "time" : 345,
                            "value" : 1.0,
                            "duration" : 30
                          },
                          {
                            "endTime" : 1433,
                            "time" : 1403,
                            "value" : 3.40690239557822,
                            "duration" : 30
                          },
                          {
                            "endTime" : 1633,
                            "time" : 1603,
                            "value" : 1.0,
                            "duration" : 30
                          },
                          {
                            "endTime" : 2012,
                            "time" : 1982,
                            "value" : 1.71147597084861,
                            "duration" : 30
                          }
                        ]
                      },
                      "cursorOpacity" : 1.0,
                      "cursorScale" : 1.0
                    },
                    "medias" : [
                        {
                          "id" : 165,
                          "_type" : "ScreenVMFile",
                          "src" : 1,
                          "trackNumber" : 0,
                          "attributes" : {
                            "ident" : "token_hijacking_attack_prevention"
                          },
                          "parameters" : {
                            "cursorScale" : {
                              "type" : "double",
                              "defaultValue" : 0.0,
                              "interp" : "linr"
                            },
                            "cursorOpacity" : {
                              "type" : "double",
                              "defaultValue" : 0.0,
                              "interp" : "linr"
                            }
                          },
                          "effects" : [

                          ],
                          "start" : 0,
                          "duration" : 276,
                          "mediaStart" : 0,
                          "mediaDuration" : 276,
                          "scalar" : 1,
                          "metadata" : {
                            "AutoAppliedSmartFocus" : "False",
                            "clipSpeedAttribute" : false,
                            "default-scale0" : 1.0,
                            "default-scale1" : 1.0,
                            "default-translation0" : 0.0,
                            "default-translation1" : 0.0
                          },
                          "animationTracks" : {

                          }
                        },
                        {
                          "id" : 166,
                          "_type" : "ScreenIMFile",
                          "src" : 1,
                          "trackNumber" : 0,
                          "trimStartSum" : 0,
                          "attributes" : {
                            "ident" : "token_hijacking_attack_prevention"
                          },
                          "parameters" : {
                            "cursorOpacity" : 0.0,
                            "cursorScale" : 0.0
                          },
                          "effects" : [

                          ],
                          "start" : 276,
                          "duration" : 90,
                          "mediaStart" : 275,
                          "mediaDuration" : 1,
                          "scalar" : 1,
                          "metadata" : {
                            "AutoAppliedSmartFocus" : "False"
                          },
                          "animationTracks" : {

                          }
                        },
                        {
                          "id" : 167,
                          "_type" : "ScreenVMFile",
                          "src" : 1,
                          "trackNumber" : 0,
                          "attributes" : {
                            "ident" : "token_hijacking_attack_prevention"
                          },
                          "parameters" : {
                            "cursorScale" : {
                              "type" : "double",
                              "defaultValue" : 0.0,
                              "interp" : "linr"
                            },
                            "cursorOpacity" : {
                              "type" : "double",
                              "defaultValue" : 0.0,
                              "interp" : "linr"
                            }
                          },
                          "effects" : [

                          ],
                          "start" : 366,
                          "duration" : 61,
                          "mediaStart" : 276,
                          "mediaDuration" : 61,
                          "scalar" : 1,
                          "metadata" : {
                            "AutoAppliedSmartFocus" : "False",
                            "clipSpeedAttribute" : false,
                            "default-scale0" : 1.0,
                            "default-scale1" : 1.0,
                            "default-translation0" : 0.0,
                            "default-translation1" : 0.0
                          },
                          "animationTracks" : {

                          }
                        },
                        {
                          "id" : 168,
                          "_type" : "ScreenIMFile",
                          "src" : 1,
                          "trackNumber" : 0,
                          "trimStartSum" : 0,
                          "attributes" : {
                            "ident" : "token_hijacking_attack_prevention"
                          },
                          "parameters" : {
                            "cursorOpacity" : 0.0,
                            "cursorScale" : 0.0
                          },
                          "effects" : [

                          ],
                          "start" : 427,
                          "duration" : 30,
                          "mediaStart" : 337,
                          "mediaDuration" : 1,
                          "scalar" : 1,
                          "metadata" : {
                            "AutoAppliedSmartFocus" : "False"
                          },
                          "animationTracks" : {

                          }
                        },
                        {
                          "id" : 169,
                          "_type" : "ScreenVMFile",
                          "src" : 1,
                          "trackNumber" : 0,
                          "attributes" : {
                            "ident" : "token_hijacking_attack_prevention"
                          },
                          "parameters" : {
                            "cursorScale" : {
                              "type" : "double",
                              "defaultValue" : 0.0,
                              "interp" : "linr"
                            },
                            "cursorOpacity" : {
                              "type" : "double",
                              "defaultValue" : 0.0,
                              "interp" : "linr"
                            }
                          },
                          "effects" : [

                          ],
                          "start" : 457,
                          "duration" : 1089,
                          "mediaStart" : 337,
                          "mediaDuration" : 1089,
                          "scalar" : 1,
                          "metadata" : {
                            "AutoAppliedSmartFocus" : "False",
                            "clipSpeedAttribute" : false,
                            "default-scale0" : 1.0,
                            "default-scale1" : 1.0,
                            "default-translation0" : 0.0,
                            "default-translation1" : 0.0
                          },
                          "animationTracks" : {

                          }
                        },
                        {
                          "id" : 170,
                          "_type" : "ScreenIMFile",
                          "src" : 1,
                          "trackNumber" : 0,
                          "trimStartSum" : 0,
                          "attributes" : {
                            "ident" : "token_hijacking_attack_prevention"
                          },
                          "parameters" : {
                            "cursorOpacity" : 0.0,
                            "cursorScale" : 0.0
                          },
                          "effects" : [

                          ],
                          "start" : 1546,
                          "duration" : 90,
                          "mediaStart" : 1426,
                          "mediaDuration" : 1,
                          "scalar" : 1,
                          "metadata" : {
                            "AutoAppliedSmartFocus" : "False"
                          },
                          "animationTracks" : {

                          }
                        },
                        {
                          "id" : 171,
                          "_type" : "ScreenVMFile",
                          "src" : 1,
                          "trackNumber" : 0,
                          "attributes" : {
                            "ident" : "token_hijacking_attack_prevention"
                          },
                          "parameters" : {
                            "cursorScale" : {
                              "type" : "double",
                              "defaultValue" : 0.0,
                              "interp" : "linr"
                            },
                            "cursorOpacity" : {
                              "type" : "double",
                              "defaultValue" : 0.0,
                              "interp" : "linr"
                            }
                          },
                          "effects" : [

                          ],
                          "start" : 1636,
                          "duration" : 18876,
                          "mediaStart" : 1426,
                          "mediaDuration" : 18876,
                          "scalar" : 1,
                          "metadata" : {
                            "AutoAppliedSmartFocus" : "False",
                            "clipSpeedAttribute" : false,
                            "default-scale0" : 1.0,
                            "default-scale1" : 1.0,
                            "default-translation0" : 0.0,
                            "default-translation1" : 0.0
                          },
                          "animationTracks" : {

                          }
                        }
                    ],
                    "effects" : [
                        {
                          "effectName" : "CursorHilight",
                          "category" : "categoryCursorEffects",
                          "parameters" : {
                            "blur" : 0.1,
                            "color-alpha" : 0.75,
                            "color-blue" : 0.0,
                            "color-green" : 1.0,
                            "color-red" : 1.0,
                            "radius" : 50.0
                          }
                        }
                    ],
                    "start" : 1316,
                    "duration" : 38,
                    "mediaStart" : 4361,
                    "mediaDuration" : 38,
                    "scalar" : 1,
                    "metadata" : {
                      "AutoAppliedSmartFocus" : "False",
                      "clipSpeedAttribute" : false,
                      "default-scale0" : 3.40690314495839,
                      "default-scale1" : 3.40690239557822,
                      "default-translation0" : -544.842863508438,
                      "default-translation1" : 5.57225093738339
                    },
                    "animationTracks" : {
                      "visual" : [
                        {
                          "endTime" : 260,
                          "duration" : 30,
                          "range" : [ 230, 30]
                        },
                        {
                          "endTime" : 375,
                          "duration" : 30,
                          "range" : [ 345, 30]
                        },
                        {
                          "endTime" : 1433,
                          "duration" : 30,
                          "range" : [ 1403, 30]
                        },
                        {
                          "endTime" : 1633,
                          "duration" : 30,
                          "range" : [ 1603, 30]
                        },
                        {
                          "endTime" : 2012,
                          "duration" : 30,
                          "range" : [ 1982, 30]
                        }
                      ]
                    }
                  },
                  {
                    "id" : 172,
                    "_type" : "StitchedMedia",
                    "minMediaStart" : 0,
                    "attributes" : {
                      "ident" : "token_hijacking_attack_prevention",
                      "gain" : 1.0,
                      "mixToMono" : false
                    },
                    "parameters" : {
                      "translation0" : {
                        "type" : "double",
                        "defaultValue" : 0.0,
                        "keyframes" : [
                          {
                            "endTime" : 260,
                            "time" : 230,
                            "value" : 6617.65048026514,
                            "duration" : 30
                          },
                          {
                            "endTime" : 375,
                            "time" : 345,
                            "value" : -5.6843418860808e-13,
                            "duration" : 30
                          },
                          {
                            "endTime" : 1433,
                            "time" : 1403,
                            "value" : -544.842863508438,
                            "duration" : 30
                          },
                          {
                            "endTime" : 1633,
                            "time" : 1603,
                            "value" : 0.0,
                            "duration" : 30
                          },
                          {
                            "endTime" : 2012,
                            "time" : 1982,
                            "value" : -910.68970193186,
                            "duration" : 30
                          }
                        ]
                      },
                      "translation1" : {
                        "type" : "double",
                        "defaultValue" : 0.0,
                        "keyframes" : [
                          {
                            "endTime" : 260,
                            "time" : 230,
                            "value" : -3072.65241805758,
                            "duration" : 30
                          },
                          {
                            "endTime" : 375,
                            "time" : 345,
                            "value" : -5.6843418860808e-14,
                            "duration" : 30
                          },
                          {
                            "endTime" : 1433,
                            "time" : 1403,
                            "value" : 5.57225093738339,
                            "duration" : 30
                          },
                          {
                            "endTime" : 1633,
                            "time" : 1603,
                            "value" : -1.0724754417879e-13,
                            "duration" : 30
                          },
                          {
                            "endTime" : 2012,
                            "time" : 1982,
                            "value" : 377.898911972652,
                            "duration" : 30
                          }
                        ]
                      },
                      "scale0" : {
                        "type" : "double",
                        "defaultValue" : 1.0,
                        "keyframes" : [
                          {
                            "endTime" : 260,
                            "time" : 230,
                            "value" : 6.62127287207902,
                            "duration" : 30
                          },
                          {
                            "endTime" : 375,
                            "time" : 345,
                            "value" : 1.0,
                            "duration" : 30
                          },
                          {
                            "endTime" : 1433,
                            "time" : 1403,
                            "value" : 3.40690314495839,
                            "duration" : 30
                          },
                          {
                            "endTime" : 1633,
                            "time" : 1603,
                            "value" : 1.0,
                            "duration" : 30
                          },
                          {
                            "endTime" : 2012,
                            "time" : 1982,
                            "value" : 1.71147598625338,
                            "duration" : 30
                          }
                        ]
                      },
                      "scale1" : {
                        "type" : "double",
                        "defaultValue" : 1.0,
                        "keyframes" : [
                          {
                            "endTime" : 260,
                            "time" : 230,
                            "value" : 6.62127291078292,
                            "duration" : 30
                          },
                          {
                            "endTime" : 375,
                            "time" : 345,
                            "value" : 1.0,
                            "duration" : 30
                          },
                          {
                            "endTime" : 1433,
                            "time" : 1403,
                            "value" : 3.40690239557822,
                            "duration" : 30
                          },
                          {
                            "endTime" : 1633,
                            "time" : 1603,
                            "value" : 1.0,
                            "duration" : 30
                          },
                          {
                            "endTime" : 2012,
                            "time" : 1982,
                            "value" : 1.71147597084861,
                            "duration" : 30
                          }
                        ]
                      },
                      "cursorOpacity" : 1.0,
                      "cursorScale" : 1.0
                    },
                    "medias" : [
                        {
                          "id" : 173,
                          "_type" : "ScreenVMFile",
                          "src" : 1,
                          "trackNumber" : 0,
                          "attributes" : {
                            "ident" : "token_hijacking_attack_prevention"
                          },
                          "parameters" : {
                            "cursorScale" : {
                              "type" : "double",
                              "defaultValue" : 0.0,
                              "interp" : "linr"
                            },
                            "cursorOpacity" : {
                              "type" : "double",
                              "defaultValue" : 0.0,
                              "interp" : "linr"
                            }
                          },
                          "effects" : [

                          ],
                          "start" : 0,
                          "duration" : 276,
                          "mediaStart" : 0,
                          "mediaDuration" : 276,
                          "scalar" : 1,
                          "metadata" : {
                            "AutoAppliedSmartFocus" : "False",
                            "clipSpeedAttribute" : false,
                            "default-scale0" : 1.0,
                            "default-scale1" : 1.0,
                            "default-translation0" : 0.0,
                            "default-translation1" : 0.0
                          },
                          "animationTracks" : {

                          }
                        },
                        {
                          "id" : 174,
                          "_type" : "ScreenIMFile",
                          "src" : 1,
                          "trackNumber" : 0,
                          "trimStartSum" : 0,
                          "attributes" : {
                            "ident" : "token_hijacking_attack_prevention"
                          },
                          "parameters" : {
                            "cursorOpacity" : 0.0,
                            "cursorScale" : 0.0
                          },
                          "effects" : [

                          ],
                          "start" : 276,
                          "duration" : 90,
                          "mediaStart" : 275,
                          "mediaDuration" : 1,
                          "scalar" : 1,
                          "metadata" : {
                            "AutoAppliedSmartFocus" : "False"
                          },
                          "animationTracks" : {

                          }
                        },
                        {
                          "id" : 175,
                          "_type" : "ScreenVMFile",
                          "src" : 1,
                          "trackNumber" : 0,
                          "attributes" : {
                            "ident" : "token_hijacking_attack_prevention"
                          },
                          "parameters" : {
                            "cursorScale" : {
                              "type" : "double",
                              "defaultValue" : 0.0,
                              "interp" : "linr"
                            },
                            "cursorOpacity" : {
                              "type" : "double",
                              "defaultValue" : 0.0,
                              "interp" : "linr"
                            }
                          },
                          "effects" : [

                          ],
                          "start" : 366,
                          "duration" : 61,
                          "mediaStart" : 276,
                          "mediaDuration" : 61,
                          "scalar" : 1,
                          "metadata" : {
                            "AutoAppliedSmartFocus" : "False",
                            "clipSpeedAttribute" : false,
                            "default-scale0" : 1.0,
                            "default-scale1" : 1.0,
                            "default-translation0" : 0.0,
                            "default-translation1" : 0.0
                          },
                          "animationTracks" : {

                          }
                        },
                        {
                          "id" : 176,
                          "_type" : "ScreenIMFile",
                          "src" : 1,
                          "trackNumber" : 0,
                          "trimStartSum" : 0,
                          "attributes" : {
                            "ident" : "token_hijacking_attack_prevention"
                          },
                          "parameters" : {
                            "cursorOpacity" : 0.0,
                            "cursorScale" : 0.0
                          },
                          "effects" : [

                          ],
                          "start" : 427,
                          "duration" : 30,
                          "mediaStart" : 337,
                          "mediaDuration" : 1,
                          "scalar" : 1,
                          "metadata" : {
                            "AutoAppliedSmartFocus" : "False"
                          },
                          "animationTracks" : {

                          }
                        },
                        {
                          "id" : 177,
                          "_type" : "ScreenVMFile",
                          "src" : 1,
                          "trackNumber" : 0,
                          "attributes" : {
                            "ident" : "token_hijacking_attack_prevention"
                          },
                          "parameters" : {
                            "cursorScale" : {
                              "type" : "double",
                              "defaultValue" : 0.0,
                              "interp" : "linr"
                            },
                            "cursorOpacity" : {
                              "type" : "double",
                              "defaultValue" : 0.0,
                              "interp" : "linr"
                            }
                          },
                          "effects" : [

                          ],
                          "start" : 457,
                          "duration" : 1089,
                          "mediaStart" : 337,
                          "mediaDuration" : 1089,
                          "scalar" : 1,
                          "metadata" : {
                            "AutoAppliedSmartFocus" : "False",
                            "clipSpeedAttribute" : false,
                            "default-scale0" : 1.0,
                            "default-scale1" : 1.0,
                            "default-translation0" : 0.0,
                            "default-translation1" : 0.0
                          },
                          "animationTracks" : {

                          }
                        },
                        {
                          "id" : 178,
                          "_type" : "ScreenIMFile",
                          "src" : 1,
                          "trackNumber" : 0,
                          "trimStartSum" : 0,
                          "attributes" : {
                            "ident" : "token_hijacking_attack_prevention"
                          },
                          "parameters" : {
                            "cursorOpacity" : 0.0,
                            "cursorScale" : 0.0
                          },
                          "effects" : [

                          ],
                          "start" : 1546,
                          "duration" : 90,
                          "mediaStart" : 1426,
                          "mediaDuration" : 1,
                          "scalar" : 1,
                          "metadata" : {
                            "AutoAppliedSmartFocus" : "False"
                          },
                          "animationTracks" : {

                          }
                        },
                        {
                          "id" : 179,
                          "_type" : "ScreenVMFile",
                          "src" : 1,
                          "trackNumber" : 0,
                          "attributes" : {
                            "ident" : "token_hijacking_attack_prevention"
                          },
                          "parameters" : {
                            "cursorScale" : {
                              "type" : "double",
                              "defaultValue" : 0.0,
                              "interp" : "linr"
                            },
                            "cursorOpacity" : {
                              "type" : "double",
                              "defaultValue" : 0.0,
                              "interp" : "linr"
                            }
                          },
                          "effects" : [

                          ],
                          "start" : 1636,
                          "duration" : 18876,
                          "mediaStart" : 1426,
                          "mediaDuration" : 18876,
                          "scalar" : 1,
                          "metadata" : {
                            "AutoAppliedSmartFocus" : "False",
                            "clipSpeedAttribute" : false,
                            "default-scale0" : 1.0,
                            "default-scale1" : 1.0,
                            "default-translation0" : 0.0,
                            "default-translation1" : 0.0
                          },
                          "animationTracks" : {

                          }
                        }
                    ],
                    "effects" : [
                        {
                          "effectName" : "CursorHilight",
                          "category" : "categoryCursorEffects",
                          "parameters" : {
                            "blur" : 0.1,
                            "color-alpha" : 0.75,
                            "color-blue" : 0.0,
                            "color-green" : 1.0,
                            "color-red" : 1.0,
                            "radius" : 50.0
                          }
                        }
                    ],
                    "start" : 1354,
                    "duration" : 33,
                    "mediaStart" : 5078,
                    "mediaDuration" : 33,
                    "scalar" : 1,
                    "metadata" : {
                      "AutoAppliedSmartFocus" : "False",
                      "clipSpeedAttribute" : false,
                      "default-scale0" : 3.40690314495839,
                      "default-scale1" : 3.40690239557822,
                      "default-translation0" : -544.842863508438,
                      "default-translation1" : 5.57225093738339
                    },
                    "animationTracks" : {
                      "visual" : [
                        {
                          "endTime" : 260,
                          "duration" : 30,
                          "range" : [ 230, 30]
                        },
                        {
                          "endTime" : 375,
                          "duration" : 30,
                          "range" : [ 345, 30]
                        },
                        {
                          "endTime" : 1433,
                          "duration" : 30,
                          "range" : [ 1403, 30]
                        },
                        {
                          "endTime" : 1633,
                          "duration" : 30,
                          "range" : [ 1603, 30]
                        },
                        {
                          "endTime" : 2012,
                          "duration" : 30,
                          "range" : [ 1982, 30]
                        }
                      ]
                    }
                  },
                  {
                    "id" : 180,
                    "_type" : "StitchedMedia",
                    "minMediaStart" : 0,
                    "attributes" : {
                      "ident" : "token_hijacking_attack_prevention",
                      "gain" : 1.0,
                      "mixToMono" : false
                    },
                    "parameters" : {
                      "translation0" : {
                        "type" : "double",
                        "defaultValue" : 0.0,
                        "keyframes" : [
                          {
                            "endTime" : 260,
                            "time" : 230,
                            "value" : 6617.65048026514,
                            "duration" : 30
                          },
                          {
                            "endTime" : 375,
                            "time" : 345,
                            "value" : -5.6843418860808e-13,
                            "duration" : 30
                          },
                          {
                            "endTime" : 1433,
                            "time" : 1403,
                            "value" : -544.842863508438,
                            "duration" : 30
                          },
                          {
                            "endTime" : 1633,
                            "time" : 1603,
                            "value" : 0.0,
                            "duration" : 30
                          },
                          {
                            "endTime" : 2012,
                            "time" : 1982,
                            "value" : -910.68970193186,
                            "duration" : 30
                          }
                        ]
                      },
                      "translation1" : {
                        "type" : "double",
                        "defaultValue" : 0.0,
                        "keyframes" : [
                          {
                            "endTime" : 260,
                            "time" : 230,
                            "value" : -3072.65241805758,
                            "duration" : 30
                          },
                          {
                            "endTime" : 375,
                            "time" : 345,
                            "value" : -5.6843418860808e-14,
                            "duration" : 30
                          },
                          {
                            "endTime" : 1433,
                            "time" : 1403,
                            "value" : 5.57225093738339,
                            "duration" : 30
                          },
                          {
                            "endTime" : 1633,
                            "time" : 1603,
                            "value" : -1.0724754417879e-13,
                            "duration" : 30
                          },
                          {
                            "endTime" : 2012,
                            "time" : 1982,
                            "value" : 377.898911972652,
                            "duration" : 30
                          }
                        ]
                      },
                      "scale0" : {
                        "type" : "double",
                        "defaultValue" : 1.0,
                        "keyframes" : [
                          {
                            "endTime" : 260,
                            "time" : 230,
                            "value" : 6.62127287207902,
                            "duration" : 30
                          },
                          {
                            "endTime" : 375,
                            "time" : 345,
                            "value" : 1.0,
                            "duration" : 30
                          },
                          {
                            "endTime" : 1433,
                            "time" : 1403,
                            "value" : 3.40690314495839,
                            "duration" : 30
                          },
                          {
                            "endTime" : 1633,
                            "time" : 1603,
                            "value" : 1.0,
                            "duration" : 30
                          },
                          {
                            "endTime" : 2012,
                            "time" : 1982,
                            "value" : 1.71147598625338,
                            "duration" : 30
                          }
                        ]
                      },
                      "scale1" : {
                        "type" : "double",
                        "defaultValue" : 1.0,
                        "keyframes" : [
                          {
                            "endTime" : 260,
                            "time" : 230,
                            "value" : 6.62127291078292,
                            "duration" : 30
                          },
                          {
                            "endTime" : 375,
                            "time" : 345,
                            "value" : 1.0,
                            "duration" : 30
                          },
                          {
                            "endTime" : 1433,
                            "time" : 1403,
                            "value" : 3.40690239557822,
                            "duration" : 30
                          },
                          {
                            "endTime" : 1633,
                            "time" : 1603,
                            "value" : 1.0,
                            "duration" : 30
                          },
                          {
                            "endTime" : 2012,
                            "time" : 1982,
                            "value" : 1.71147597084861,
                            "duration" : 30
                          }
                        ]
                      },
                      "cursorOpacity" : 1.0,
                      "cursorScale" : 1.0
                    },
                    "medias" : [
                        {
                          "id" : 181,
                          "_type" : "ScreenVMFile",
                          "src" : 1,
                          "trackNumber" : 0,
                          "attributes" : {
                            "ident" : "token_hijacking_attack_prevention"
                          },
                          "parameters" : {
                            "cursorScale" : {
                              "type" : "double",
                              "defaultValue" : 0.0,
                              "interp" : "linr"
                            },
                            "cursorOpacity" : {
                              "type" : "double",
                              "defaultValue" : 0.0,
                              "interp" : "linr"
                            }
                          },
                          "effects" : [

                          ],
                          "start" : 0,
                          "duration" : 276,
                          "mediaStart" : 0,
                          "mediaDuration" : 276,
                          "scalar" : 1,
                          "metadata" : {
                            "AutoAppliedSmartFocus" : "False",
                            "clipSpeedAttribute" : false,
                            "default-scale0" : 1.0,
                            "default-scale1" : 1.0,
                            "default-translation0" : 0.0,
                            "default-translation1" : 0.0
                          },
                          "animationTracks" : {

                          }
                        },
                        {
                          "id" : 182,
                          "_type" : "ScreenIMFile",
                          "src" : 1,
                          "trackNumber" : 0,
                          "trimStartSum" : 0,
                          "attributes" : {
                            "ident" : "token_hijacking_attack_prevention"
                          },
                          "parameters" : {
                            "cursorOpacity" : 0.0,
                            "cursorScale" : 0.0
                          },
                          "effects" : [

                          ],
                          "start" : 276,
                          "duration" : 90,
                          "mediaStart" : 275,
                          "mediaDuration" : 1,
                          "scalar" : 1,
                          "metadata" : {
                            "AutoAppliedSmartFocus" : "False"
                          },
                          "animationTracks" : {

                          }
                        },
                        {
                          "id" : 183,
                          "_type" : "ScreenVMFile",
                          "src" : 1,
                          "trackNumber" : 0,
                          "attributes" : {
                            "ident" : "token_hijacking_attack_prevention"
                          },
                          "parameters" : {
                            "cursorScale" : {
                              "type" : "double",
                              "defaultValue" : 0.0,
                              "interp" : "linr"
                            },
                            "cursorOpacity" : {
                              "type" : "double",
                              "defaultValue" : 0.0,
                              "interp" : "linr"
                            }
                          },
                          "effects" : [

                          ],
                          "start" : 366,
                          "duration" : 61,
                          "mediaStart" : 276,
                          "mediaDuration" : 61,
                          "scalar" : 1,
                          "metadata" : {
                            "AutoAppliedSmartFocus" : "False",
                            "clipSpeedAttribute" : false,
                            "default-scale0" : 1.0,
                            "default-scale1" : 1.0,
                            "default-translation0" : 0.0,
                            "default-translation1" : 0.0
                          },
                          "animationTracks" : {

                          }
                        },
                        {
                          "id" : 184,
                          "_type" : "ScreenIMFile",
                          "src" : 1,
                          "trackNumber" : 0,
                          "trimStartSum" : 0,
                          "attributes" : {
                            "ident" : "token_hijacking_attack_prevention"
                          },
                          "parameters" : {
                            "cursorOpacity" : 0.0,
                            "cursorScale" : 0.0
                          },
                          "effects" : [

                          ],
                          "start" : 427,
                          "duration" : 30,
                          "mediaStart" : 337,
                          "mediaDuration" : 1,
                          "scalar" : 1,
                          "metadata" : {
                            "AutoAppliedSmartFocus" : "False"
                          },
                          "animationTracks" : {

                          }
                        },
                        {
                          "id" : 185,
                          "_type" : "ScreenVMFile",
                          "src" : 1,
                          "trackNumber" : 0,
                          "attributes" : {
                            "ident" : "token_hijacking_attack_prevention"
                          },
                          "parameters" : {
                            "cursorScale" : {
                              "type" : "double",
                              "defaultValue" : 0.0,
                              "interp" : "linr"
                            },
                            "cursorOpacity" : {
                              "type" : "double",
                              "defaultValue" : 0.0,
                              "interp" : "linr"
                            }
                          },
                          "effects" : [

                          ],
                          "start" : 457,
                          "duration" : 1089,
                          "mediaStart" : 337,
                          "mediaDuration" : 1089,
                          "scalar" : 1,
                          "metadata" : {
                            "AutoAppliedSmartFocus" : "False",
                            "clipSpeedAttribute" : false,
                            "default-scale0" : 1.0,
                            "default-scale1" : 1.0,
                            "default-translation0" : 0.0,
                            "default-translation1" : 0.0
                          },
                          "animationTracks" : {

                          }
                        },
                        {
                          "id" : 186,
                          "_type" : "ScreenIMFile",
                          "src" : 1,
                          "trackNumber" : 0,
                          "trimStartSum" : 0,
                          "attributes" : {
                            "ident" : "token_hijacking_attack_prevention"
                          },
                          "parameters" : {
                            "cursorOpacity" : 0.0,
                            "cursorScale" : 0.0
                          },
                          "effects" : [

                          ],
                          "start" : 1546,
                          "duration" : 90,
                          "mediaStart" : 1426,
                          "mediaDuration" : 1,
                          "scalar" : 1,
                          "metadata" : {
                            "AutoAppliedSmartFocus" : "False"
                          },
                          "animationTracks" : {

                          }
                        },
                        {
                          "id" : 187,
                          "_type" : "ScreenVMFile",
                          "src" : 1,
                          "trackNumber" : 0,
                          "attributes" : {
                            "ident" : "token_hijacking_attack_prevention"
                          },
                          "parameters" : {
                            "cursorScale" : {
                              "type" : "double",
                              "defaultValue" : 0.0,
                              "interp" : "linr"
                            },
                            "cursorOpacity" : {
                              "type" : "double",
                              "defaultValue" : 0.0,
                              "interp" : "linr"
                            }
                          },
                          "effects" : [

                          ],
                          "start" : 1636,
                          "duration" : 18876,
                          "mediaStart" : 1426,
                          "mediaDuration" : 18876,
                          "scalar" : 1,
                          "metadata" : {
                            "AutoAppliedSmartFocus" : "False",
                            "clipSpeedAttribute" : false,
                            "default-scale0" : 1.0,
                            "default-scale1" : 1.0,
                            "default-translation0" : 0.0,
                            "default-translation1" : 0.0
                          },
                          "animationTracks" : {

                          }
                        }
                    ],
                    "effects" : [
                        {
                          "effectName" : "CursorHilight",
                          "category" : "categoryCursorEffects",
                          "parameters" : {
                            "blur" : 0.1,
                            "color-alpha" : 0.75,
                            "color-blue" : 0.0,
                            "color-green" : 1.0,
                            "color-red" : 1.0,
                            "radius" : 50.0
                          }
                        }
                    ],
                    "start" : 1387,
                    "duration" : 6,
                    "mediaStart" : 5799,
                    "mediaDuration" : 6,
                    "scalar" : 1,
                    "metadata" : {
                      "AutoAppliedSmartFocus" : "False",
                      "clipSpeedAttribute" : false,
                      "default-scale0" : 3.40690314495839,
                      "default-scale1" : 3.40690239557822,
                      "default-translation0" : -544.842863508438,
                      "default-translation1" : 5.57225093738339
                    },
                    "animationTracks" : {
                      "visual" : [
                        {
                          "endTime" : 260,
                          "duration" : 30,
                          "range" : [ 230, 30]
                        },
                        {
                          "endTime" : 375,
                          "duration" : 30,
                          "range" : [ 345, 30]
                        },
                        {
                          "endTime" : 1433,
                          "duration" : 30,
                          "range" : [ 1403, 30]
                        },
                        {
                          "endTime" : 1633,
                          "duration" : 30,
                          "range" : [ 1603, 30]
                        },
                        {
                          "endTime" : 2012,
                          "duration" : 30,
                          "range" : [ 1982, 30]
                        }
                      ]
                    }
                  },
                  {
                    "id" : 188,
                    "_type" : "StitchedMedia",
                    "minMediaStart" : 0,
                    "attributes" : {
                      "ident" : "token_hijacking_attack_prevention",
                      "gain" : 1.0,
                      "mixToMono" : false
                    },
                    "parameters" : {
                      "translation0" : {
                        "type" : "double",
                        "defaultValue" : 0.0,
                        "keyframes" : [
                          {
                            "endTime" : 260,
                            "time" : 230,
                            "value" : 6617.65048026514,
                            "duration" : 30
                          },
                          {
                            "endTime" : 375,
                            "time" : 345,
                            "value" : -5.6843418860808e-13,
                            "duration" : 30
                          },
                          {
                            "endTime" : 1433,
                            "time" : 1403,
                            "value" : -544.842863508438,
                            "duration" : 30
                          },
                          {
                            "endTime" : 1633,
                            "time" : 1603,
                            "value" : 0.0,
                            "duration" : 30
                          },
                          {
                            "endTime" : 2012,
                            "time" : 1982,
                            "value" : -910.68970193186,
                            "duration" : 30
                          }
                        ]
                      },
                      "translation1" : {
                        "type" : "double",
                        "defaultValue" : 0.0,
                        "keyframes" : [
                          {
                            "endTime" : 260,
                            "time" : 230,
                            "value" : -3072.65241805758,
                            "duration" : 30
                          },
                          {
                            "endTime" : 375,
                            "time" : 345,
                            "value" : -5.6843418860808e-14,
                            "duration" : 30
                          },
                          {
                            "endTime" : 1433,
                            "time" : 1403,
                            "value" : 5.57225093738339,
                            "duration" : 30
                          },
                          {
                            "endTime" : 1633,
                            "time" : 1603,
                            "value" : -1.0724754417879e-13,
                            "duration" : 30
                          },
                          {
                            "endTime" : 2012,
                            "time" : 1982,
                            "value" : 377.898911972652,
                            "duration" : 30
                          }
                        ]
                      },
                      "scale0" : {
                        "type" : "double",
                        "defaultValue" : 1.0,
                        "keyframes" : [
                          {
                            "endTime" : 260,
                            "time" : 230,
                            "value" : 6.62127287207902,
                            "duration" : 30
                          },
                          {
                            "endTime" : 375,
                            "time" : 345,
                            "value" : 1.0,
                            "duration" : 30
                          },
                          {
                            "endTime" : 1433,
                            "time" : 1403,
                            "value" : 3.40690314495839,
                            "duration" : 30
                          },
                          {
                            "endTime" : 1633,
                            "time" : 1603,
                            "value" : 1.0,
                            "duration" : 30
                          },
                          {
                            "endTime" : 2012,
                            "time" : 1982,
                            "value" : 1.71147598625338,
                            "duration" : 30
                          }
                        ]
                      },
                      "scale1" : {
                        "type" : "double",
                        "defaultValue" : 1.0,
                        "keyframes" : [
                          {
                            "endTime" : 260,
                            "time" : 230,
                            "value" : 6.62127291078292,
                            "duration" : 30
                          },
                          {
                            "endTime" : 375,
                            "time" : 345,
                            "value" : 1.0,
                            "duration" : 30
                          },
                          {
                            "endTime" : 1433,
                            "time" : 1403,
                            "value" : 3.40690239557822,
                            "duration" : 30
                          },
                          {
                            "endTime" : 1633,
                            "time" : 1603,
                            "value" : 1.0,
                            "duration" : 30
                          },
                          {
                            "endTime" : 2012,
                            "time" : 1982,
                            "value" : 1.71147597084861,
                            "duration" : 30
                          }
                        ]
                      },
                      "cursorOpacity" : 1.0,
                      "cursorScale" : 1.0
                    },
                    "medias" : [
                        {
                          "id" : 189,
                          "_type" : "ScreenVMFile",
                          "src" : 1,
                          "trackNumber" : 0,
                          "attributes" : {
                            "ident" : "token_hijacking_attack_prevention"
                          },
                          "parameters" : {
                            "cursorScale" : {
                              "type" : "double",
                              "defaultValue" : 0.0,
                              "interp" : "linr"
                            },
                            "cursorOpacity" : {
                              "type" : "double",
                              "defaultValue" : 0.0,
                              "interp" : "linr"
                            }
                          },
                          "effects" : [

                          ],
                          "start" : 0,
                          "duration" : 276,
                          "mediaStart" : 0,
                          "mediaDuration" : 276,
                          "scalar" : 1,
                          "metadata" : {
                            "AutoAppliedSmartFocus" : "False",
                            "clipSpeedAttribute" : false,
                            "default-scale0" : 1.0,
                            "default-scale1" : 1.0,
                            "default-translation0" : 0.0,
                            "default-translation1" : 0.0
                          },
                          "animationTracks" : {

                          }
                        },
                        {
                          "id" : 190,
                          "_type" : "ScreenIMFile",
                          "src" : 1,
                          "trackNumber" : 0,
                          "trimStartSum" : 0,
                          "attributes" : {
                            "ident" : "token_hijacking_attack_prevention"
                          },
                          "parameters" : {
                            "cursorOpacity" : 0.0,
                            "cursorScale" : 0.0
                          },
                          "effects" : [

                          ],
                          "start" : 276,
                          "duration" : 90,
                          "mediaStart" : 275,
                          "mediaDuration" : 1,
                          "scalar" : 1,
                          "metadata" : {
                            "AutoAppliedSmartFocus" : "False"
                          },
                          "animationTracks" : {

                          }
                        },
                        {
                          "id" : 191,
                          "_type" : "ScreenVMFile",
                          "src" : 1,
                          "trackNumber" : 0,
                          "attributes" : {
                            "ident" : "token_hijacking_attack_prevention"
                          },
                          "parameters" : {
                            "cursorScale" : {
                              "type" : "double",
                              "defaultValue" : 0.0,
                              "interp" : "linr"
                            },
                            "cursorOpacity" : {
                              "type" : "double",
                              "defaultValue" : 0.0,
                              "interp" : "linr"
                            }
                          },
                          "effects" : [

                          ],
                          "start" : 366,
                          "duration" : 61,
                          "mediaStart" : 276,
                          "mediaDuration" : 61,
                          "scalar" : 1,
                          "metadata" : {
                            "AutoAppliedSmartFocus" : "False",
                            "clipSpeedAttribute" : false,
                            "default-scale0" : 1.0,
                            "default-scale1" : 1.0,
                            "default-translation0" : 0.0,
                            "default-translation1" : 0.0
                          },
                          "animationTracks" : {

                          }
                        },
                        {
                          "id" : 192,
                          "_type" : "ScreenIMFile",
                          "src" : 1,
                          "trackNumber" : 0,
                          "trimStartSum" : 0,
                          "attributes" : {
                            "ident" : "token_hijacking_attack_prevention"
                          },
                          "parameters" : {
                            "cursorOpacity" : 0.0,
                            "cursorScale" : 0.0
                          },
                          "effects" : [

                          ],
                          "start" : 427,
                          "duration" : 30,
                          "mediaStart" : 337,
                          "mediaDuration" : 1,
                          "scalar" : 1,
                          "metadata" : {
                            "AutoAppliedSmartFocus" : "False"
                          },
                          "animationTracks" : {

                          }
                        },
                        {
                          "id" : 193,
                          "_type" : "ScreenVMFile",
                          "src" : 1,
                          "trackNumber" : 0,
                          "attributes" : {
                            "ident" : "token_hijacking_attack_prevention"
                          },
                          "parameters" : {
                            "cursorScale" : {
                              "type" : "double",
                              "defaultValue" : 0.0,
                              "interp" : "linr"
                            },
                            "cursorOpacity" : {
                              "type" : "double",
                              "defaultValue" : 0.0,
                              "interp" : "linr"
                            }
                          },
                          "effects" : [

                          ],
                          "start" : 457,
                          "duration" : 1089,
                          "mediaStart" : 337,
                          "mediaDuration" : 1089,
                          "scalar" : 1,
                          "metadata" : {
                            "AutoAppliedSmartFocus" : "False",
                            "clipSpeedAttribute" : false,
                            "default-scale0" : 1.0,
                            "default-scale1" : 1.0,
                            "default-translation0" : 0.0,
                            "default-translation1" : 0.0
                          },
                          "animationTracks" : {

                          }
                        },
                        {
                          "id" : 194,
                          "_type" : "ScreenIMFile",
                          "src" : 1,
                          "trackNumber" : 0,
                          "trimStartSum" : 0,
                          "attributes" : {
                            "ident" : "token_hijacking_attack_prevention"
                          },
                          "parameters" : {
                            "cursorOpacity" : 0.0,
                            "cursorScale" : 0.0
                          },
                          "effects" : [

                          ],
                          "start" : 1546,
                          "duration" : 90,
                          "mediaStart" : 1426,
                          "mediaDuration" : 1,
                          "scalar" : 1,
                          "metadata" : {
                            "AutoAppliedSmartFocus" : "False"
                          },
                          "animationTracks" : {

                          }
                        },
                        {
                          "id" : 195,
                          "_type" : "ScreenVMFile",
                          "src" : 1,
                          "trackNumber" : 0,
                          "attributes" : {
                            "ident" : "token_hijacking_attack_prevention"
                          },
                          "parameters" : {
                            "cursorScale" : {
                              "type" : "double",
                              "defaultValue" : 0.0,
                              "interp" : "linr"
                            },
                            "cursorOpacity" : {
                              "type" : "double",
                              "defaultValue" : 0.0,
                              "interp" : "linr"
                            }
                          },
                          "effects" : [

                          ],
                          "start" : 1636,
                          "duration" : 18876,
                          "mediaStart" : 1426,
                          "mediaDuration" : 18876,
                          "scalar" : 1,
                          "metadata" : {
                            "AutoAppliedSmartFocus" : "False",
                            "clipSpeedAttribute" : false,
                            "default-scale0" : 1.0,
                            "default-scale1" : 1.0,
                            "default-translation0" : 0.0,
                            "default-translation1" : 0.0
                          },
                          "animationTracks" : {

                          }
                        }
                    ],
                    "effects" : [
                        {
                          "effectName" : "CursorHilight",
                          "category" : "categoryCursorEffects",
                          "parameters" : {
                            "blur" : 0.1,
                            "color-alpha" : 0.75,
                            "color-blue" : 0.0,
                            "color-green" : 1.0,
                            "color-red" : 1.0,
                            "radius" : 50.0
                          }
                        }
                    ],
                    "start" : 1393,
                    "duration" : 1,
                    "mediaStart" : 5807,
                    "mediaDuration" : 1,
                    "scalar" : 1,
                    "metadata" : {
                      "AutoAppliedSmartFocus" : "False",
                      "clipSpeedAttribute" : false,
                      "default-scale0" : 3.40690314495839,
                      "default-scale1" : 3.40690239557822,
                      "default-translation0" : -544.842863508438,
                      "default-translation1" : 5.57225093738339
                    },
                    "animationTracks" : {
                      "visual" : [
                        {
                          "endTime" : 260,
                          "duration" : 30,
                          "range" : [ 230, 30]
                        },
                        {
                          "endTime" : 375,
                          "duration" : 30,
                          "range" : [ 345, 30]
                        },
                        {
                          "endTime" : 1433,
                          "duration" : 30,
                          "range" : [ 1403, 30]
                        },
                        {
                          "endTime" : 1633,
                          "duration" : 30,
                          "range" : [ 1603, 30]
                        },
                        {
                          "endTime" : 2012,
                          "duration" : 30,
                          "range" : [ 1982, 30]
                        }
                      ]
                    }
                  },
                  {
                    "id" : 196,
                    "_type" : "StitchedMedia",
                    "minMediaStart" : 0,
                    "attributes" : {
                      "ident" : "token_hijacking_attack_prevention",
                      "gain" : 1.0,
                      "mixToMono" : false
                    },
                    "parameters" : {
                      "translation0" : {
                        "type" : "double",
                        "defaultValue" : 0.0,
                        "keyframes" : [
                          {
                            "endTime" : 260,
                            "time" : 230,
                            "value" : 6617.65048026514,
                            "duration" : 30
                          },
                          {
                            "endTime" : 375,
                            "time" : 345,
                            "value" : -5.6843418860808e-13,
                            "duration" : 30
                          },
                          {
                            "endTime" : 1433,
                            "time" : 1403,
                            "value" : -544.842863508438,
                            "duration" : 30
                          },
                          {
                            "endTime" : 1633,
                            "time" : 1603,
                            "value" : 0.0,
                            "duration" : 30
                          },
                          {
                            "endTime" : 2012,
                            "time" : 1982,
                            "value" : -910.68970193186,
                            "duration" : 30
                          }
                        ]
                      },
                      "translation1" : {
                        "type" : "double",
                        "defaultValue" : 0.0,
                        "keyframes" : [
                          {
                            "endTime" : 260,
                            "time" : 230,
                            "value" : -3072.65241805758,
                            "duration" : 30
                          },
                          {
                            "endTime" : 375,
                            "time" : 345,
                            "value" : -5.6843418860808e-14,
                            "duration" : 30
                          },
                          {
                            "endTime" : 1433,
                            "time" : 1403,
                            "value" : 5.57225093738339,
                            "duration" : 30
                          },
                          {
                            "endTime" : 1633,
                            "time" : 1603,
                            "value" : -1.0724754417879e-13,
                            "duration" : 30
                          },
                          {
                            "endTime" : 2012,
                            "time" : 1982,
                            "value" : 377.898911972652,
                            "duration" : 30
                          }
                        ]
                      },
                      "scale0" : {
                        "type" : "double",
                        "defaultValue" : 1.0,
                        "keyframes" : [
                          {
                            "endTime" : 260,
                            "time" : 230,
                            "value" : 6.62127287207902,
                            "duration" : 30
                          },
                          {
                            "endTime" : 375,
                            "time" : 345,
                            "value" : 1.0,
                            "duration" : 30
                          },
                          {
                            "endTime" : 1433,
                            "time" : 1403,
                            "value" : 3.40690314495839,
                            "duration" : 30
                          },
                          {
                            "endTime" : 1633,
                            "time" : 1603,
                            "value" : 1.0,
                            "duration" : 30
                          },
                          {
                            "endTime" : 2012,
                            "time" : 1982,
                            "value" : 1.71147598625338,
                            "duration" : 30
                          }
                        ]
                      },
                      "scale1" : {
                        "type" : "double",
                        "defaultValue" : 1.0,
                        "keyframes" : [
                          {
                            "endTime" : 260,
                            "time" : 230,
                            "value" : 6.62127291078292,
                            "duration" : 30
                          },
                          {
                            "endTime" : 375,
                            "time" : 345,
                            "value" : 1.0,
                            "duration" : 30
                          },
                          {
                            "endTime" : 1433,
                            "time" : 1403,
                            "value" : 3.40690239557822,
                            "duration" : 30
                          },
                          {
                            "endTime" : 1633,
                            "time" : 1603,
                            "value" : 1.0,
                            "duration" : 30
                          },
                          {
                            "endTime" : 2012,
                            "time" : 1982,
                            "value" : 1.71147597084861,
                            "duration" : 30
                          }
                        ]
                      },
                      "cursorOpacity" : 1.0,
                      "cursorScale" : 1.0
                    },
                    "medias" : [
                        {
                          "id" : 197,
                          "_type" : "ScreenVMFile",
                          "src" : 1,
                          "trackNumber" : 0,
                          "attributes" : {
                            "ident" : "token_hijacking_attack_prevention"
                          },
                          "parameters" : {
                            "cursorScale" : {
                              "type" : "double",
                              "defaultValue" : 0.0,
                              "interp" : "linr"
                            },
                            "cursorOpacity" : {
                              "type" : "double",
                              "defaultValue" : 0.0,
                              "interp" : "linr"
                            }
                          },
                          "effects" : [

                          ],
                          "start" : 0,
                          "duration" : 276,
                          "mediaStart" : 0,
                          "mediaDuration" : 276,
                          "scalar" : 1,
                          "metadata" : {
                            "AutoAppliedSmartFocus" : "False",
                            "clipSpeedAttribute" : false,
                            "default-scale0" : 1.0,
                            "default-scale1" : 1.0,
                            "default-translation0" : 0.0,
                            "default-translation1" : 0.0
                          },
                          "animationTracks" : {

                          }
                        },
                        {
                          "id" : 198,
                          "_type" : "ScreenIMFile",
                          "src" : 1,
                          "trackNumber" : 0,
                          "trimStartSum" : 0,
                          "attributes" : {
                            "ident" : "token_hijacking_attack_prevention"
                          },
                          "parameters" : {
                            "cursorOpacity" : 0.0,
                            "cursorScale" : 0.0
                          },
                          "effects" : [

                          ],
                          "start" : 276,
                          "duration" : 90,
                          "mediaStart" : 275,
                          "mediaDuration" : 1,
                          "scalar" : 1,
                          "metadata" : {
                            "AutoAppliedSmartFocus" : "False"
                          },
                          "animationTracks" : {

                          }
                        },
                        {
                          "id" : 199,
                          "_type" : "ScreenVMFile",
                          "src" : 1,
                          "trackNumber" : 0,
                          "attributes" : {
                            "ident" : "token_hijacking_attack_prevention"
                          },
                          "parameters" : {
                            "cursorScale" : {
                              "type" : "double",
                              "defaultValue" : 0.0,
                              "interp" : "linr"
                            },
                            "cursorOpacity" : {
                              "type" : "double",
                              "defaultValue" : 0.0,
                              "interp" : "linr"
                            }
                          },
                          "effects" : [

                          ],
                          "start" : 366,
                          "duration" : 61,
                          "mediaStart" : 276,
                          "mediaDuration" : 61,
                          "scalar" : 1,
                          "metadata" : {
                            "AutoAppliedSmartFocus" : "False",
                            "clipSpeedAttribute" : false,
                            "default-scale0" : 1.0,
                            "default-scale1" : 1.0,
                            "default-translation0" : 0.0,
                            "default-translation1" : 0.0
                          },
                          "animationTracks" : {

                          }
                        },
                        {
                          "id" : 200,
                          "_type" : "ScreenIMFile",
                          "src" : 1,
                          "trackNumber" : 0,
                          "trimStartSum" : 0,
                          "attributes" : {
                            "ident" : "token_hijacking_attack_prevention"
                          },
                          "parameters" : {
                            "cursorOpacity" : 0.0,
                            "cursorScale" : 0.0
                          },
                          "effects" : [

                          ],
                          "start" : 427,
                          "duration" : 30,
                          "mediaStart" : 337,
                          "mediaDuration" : 1,
                          "scalar" : 1,
                          "metadata" : {
                            "AutoAppliedSmartFocus" : "False"
                          },
                          "animationTracks" : {

                          }
                        },
                        {
                          "id" : 201,
                          "_type" : "ScreenVMFile",
                          "src" : 1,
                          "trackNumber" : 0,
                          "attributes" : {
                            "ident" : "token_hijacking_attack_prevention"
                          },
                          "parameters" : {
                            "cursorScale" : {
                              "type" : "double",
                              "defaultValue" : 0.0,
                              "interp" : "linr"
                            },
                            "cursorOpacity" : {
                              "type" : "double",
                              "defaultValue" : 0.0,
                              "interp" : "linr"
                            }
                          },
                          "effects" : [

                          ],
                          "start" : 457,
                          "duration" : 1089,
                          "mediaStart" : 337,
                          "mediaDuration" : 1089,
                          "scalar" : 1,
                          "metadata" : {
                            "AutoAppliedSmartFocus" : "False",
                            "clipSpeedAttribute" : false,
                            "default-scale0" : 1.0,
                            "default-scale1" : 1.0,
                            "default-translation0" : 0.0,
                            "default-translation1" : 0.0
                          },
                          "animationTracks" : {

                          }
                        },
                        {
                          "id" : 202,
                          "_type" : "ScreenIMFile",
                          "src" : 1,
                          "trackNumber" : 0,
                          "trimStartSum" : 0,
                          "attributes" : {
                            "ident" : "token_hijacking_attack_prevention"
                          },
                          "parameters" : {
                            "cursorOpacity" : 0.0,
                            "cursorScale" : 0.0
                          },
                          "effects" : [

                          ],
                          "start" : 1546,
                          "duration" : 90,
                          "mediaStart" : 1426,
                          "mediaDuration" : 1,
                          "scalar" : 1,
                          "metadata" : {
                            "AutoAppliedSmartFocus" : "False"
                          },
                          "animationTracks" : {

                          }
                        },
                        {
                          "id" : 203,
                          "_type" : "ScreenVMFile",
                          "src" : 1,
                          "trackNumber" : 0,
                          "attributes" : {
                            "ident" : "token_hijacking_attack_prevention"
                          },
                          "parameters" : {
                            "cursorScale" : {
                              "type" : "double",
                              "defaultValue" : 0.0,
                              "interp" : "linr"
                            },
                            "cursorOpacity" : {
                              "type" : "double",
                              "defaultValue" : 0.0,
                              "interp" : "linr"
                            }
                          },
                          "effects" : [

                          ],
                          "start" : 1636,
                          "duration" : 18876,
                          "mediaStart" : 1426,
                          "mediaDuration" : 18876,
                          "scalar" : 1,
                          "metadata" : {
                            "AutoAppliedSmartFocus" : "False",
                            "clipSpeedAttribute" : false,
                            "default-scale0" : 1.0,
                            "default-scale1" : 1.0,
                            "default-translation0" : 0.0,
                            "default-translation1" : 0.0
                          },
                          "animationTracks" : {

                          }
                        }
                    ],
                    "effects" : [
                        {
                          "effectName" : "CursorHilight",
                          "category" : "categoryCursorEffects",
                          "parameters" : {
                            "blur" : 0.1,
                            "color-alpha" : 0.75,
                            "color-blue" : 0.0,
                            "color-green" : 1.0,
                            "color-red" : 1.0,
                            "radius" : 50.0
                          }
                        }
                    ],
                    "start" : 1394,
                    "duration" : 3,
                    "mediaStart" : 5810,
                    "mediaDuration" : 3,
                    "scalar" : 1,
                    "metadata" : {
                      "AutoAppliedSmartFocus" : "False",
                      "clipSpeedAttribute" : false,
                      "default-scale0" : 3.40690314495839,
                      "default-scale1" : 3.40690239557822,
                      "default-translation0" : -544.842863508438,
                      "default-translation1" : 5.57225093738339
                    },
                    "animationTracks" : {
                      "visual" : [
                        {
                          "endTime" : 260,
                          "duration" : 30,
                          "range" : [ 230, 30]
                        },
                        {
                          "endTime" : 375,
                          "duration" : 30,
                          "range" : [ 345, 30]
                        },
                        {
                          "endTime" : 1433,
                          "duration" : 30,
                          "range" : [ 1403, 30]
                        },
                        {
                          "endTime" : 1633,
                          "duration" : 30,
                          "range" : [ 1603, 30]
                        },
                        {
                          "endTime" : 2012,
                          "duration" : 30,
                          "range" : [ 1982, 30]
                        }
                      ]
                    }
                  },
                  {
                    "id" : 204,
                    "_type" : "StitchedMedia",
                    "minMediaStart" : 0,
                    "attributes" : {
                      "ident" : "token_hijacking_attack_prevention",
                      "gain" : 1.0,
                      "mixToMono" : false
                    },
                    "parameters" : {
                      "translation0" : {
                        "type" : "double",
                        "defaultValue" : 0.0,
                        "keyframes" : [
                          {
                            "endTime" : 260,
                            "time" : 230,
                            "value" : 6617.65048026514,
                            "duration" : 30
                          },
                          {
                            "endTime" : 375,
                            "time" : 345,
                            "value" : -5.6843418860808e-13,
                            "duration" : 30
                          },
                          {
                            "endTime" : 1433,
                            "time" : 1403,
                            "value" : -544.842863508438,
                            "duration" : 30
                          },
                          {
                            "endTime" : 1633,
                            "time" : 1603,
                            "value" : 0.0,
                            "duration" : 30
                          },
                          {
                            "endTime" : 2012,
                            "time" : 1982,
                            "value" : -910.68970193186,
                            "duration" : 30
                          }
                        ]
                      },
                      "translation1" : {
                        "type" : "double",
                        "defaultValue" : 0.0,
                        "keyframes" : [
                          {
                            "endTime" : 260,
                            "time" : 230,
                            "value" : -3072.65241805758,
                            "duration" : 30
                          },
                          {
                            "endTime" : 375,
                            "time" : 345,
                            "value" : -5.6843418860808e-14,
                            "duration" : 30
                          },
                          {
                            "endTime" : 1433,
                            "time" : 1403,
                            "value" : 5.57225093738339,
                            "duration" : 30
                          },
                          {
                            "endTime" : 1633,
                            "time" : 1603,
                            "value" : -1.0724754417879e-13,
                            "duration" : 30
                          },
                          {
                            "endTime" : 2012,
                            "time" : 1982,
                            "value" : 377.898911972652,
                            "duration" : 30
                          }
                        ]
                      },
                      "scale0" : {
                        "type" : "double",
                        "defaultValue" : 1.0,
                        "keyframes" : [
                          {
                            "endTime" : 260,
                            "time" : 230,
                            "value" : 6.62127287207902,
                            "duration" : 30
                          },
                          {
                            "endTime" : 375,
                            "time" : 345,
                            "value" : 1.0,
                            "duration" : 30
                          },
                          {
                            "endTime" : 1433,
                            "time" : 1403,
                            "value" : 3.40690314495839,
                            "duration" : 30
                          },
                          {
                            "endTime" : 1633,
                            "time" : 1603,
                            "value" : 1.0,
                            "duration" : 30
                          },
                          {
                            "endTime" : 2012,
                            "time" : 1982,
                            "value" : 1.71147598625338,
                            "duration" : 30
                          }
                        ]
                      },
                      "scale1" : {
                        "type" : "double",
                        "defaultValue" : 1.0,
                        "keyframes" : [
                          {
                            "endTime" : 260,
                            "time" : 230,
                            "value" : 6.62127291078292,
                            "duration" : 30
                          },
                          {
                            "endTime" : 375,
                            "time" : 345,
                            "value" : 1.0,
                            "duration" : 30
                          },
                          {
                            "endTime" : 1433,
                            "time" : 1403,
                            "value" : 3.40690239557822,
                            "duration" : 30
                          },
                          {
                            "endTime" : 1633,
                            "time" : 1603,
                            "value" : 1.0,
                            "duration" : 30
                          },
                          {
                            "endTime" : 2012,
                            "time" : 1982,
                            "value" : 1.71147597084861,
                            "duration" : 30
                          }
                        ]
                      },
                      "cursorOpacity" : 1.0,
                      "cursorScale" : 1.0
                    },
                    "medias" : [
                        {
                          "id" : 205,
                          "_type" : "ScreenVMFile",
                          "src" : 1,
                          "trackNumber" : 0,
                          "attributes" : {
                            "ident" : "token_hijacking_attack_prevention"
                          },
                          "parameters" : {
                            "cursorScale" : {
                              "type" : "double",
                              "defaultValue" : 0.0,
                              "interp" : "linr"
                            },
                            "cursorOpacity" : {
                              "type" : "double",
                              "defaultValue" : 0.0,
                              "interp" : "linr"
                            }
                          },
                          "effects" : [

                          ],
                          "start" : 0,
                          "duration" : 276,
                          "mediaStart" : 0,
                          "mediaDuration" : 276,
                          "scalar" : 1,
                          "metadata" : {
                            "AutoAppliedSmartFocus" : "False",
                            "clipSpeedAttribute" : false,
                            "default-scale0" : 1.0,
                            "default-scale1" : 1.0,
                            "default-translation0" : 0.0,
                            "default-translation1" : 0.0
                          },
                          "animationTracks" : {

                          }
                        },
                        {
                          "id" : 206,
                          "_type" : "ScreenIMFile",
                          "src" : 1,
                          "trackNumber" : 0,
                          "trimStartSum" : 0,
                          "attributes" : {
                            "ident" : "token_hijacking_attack_prevention"
                          },
                          "parameters" : {
                            "cursorOpacity" : 0.0,
                            "cursorScale" : 0.0
                          },
                          "effects" : [

                          ],
                          "start" : 276,
                          "duration" : 90,
                          "mediaStart" : 275,
                          "mediaDuration" : 1,
                          "scalar" : 1,
                          "metadata" : {
                            "AutoAppliedSmartFocus" : "False"
                          },
                          "animationTracks" : {

                          }
                        },
                        {
                          "id" : 207,
                          "_type" : "ScreenVMFile",
                          "src" : 1,
                          "trackNumber" : 0,
                          "attributes" : {
                            "ident" : "token_hijacking_attack_prevention"
                          },
                          "parameters" : {
                            "cursorScale" : {
                              "type" : "double",
                              "defaultValue" : 0.0,
                              "interp" : "linr"
                            },
                            "cursorOpacity" : {
                              "type" : "double",
                              "defaultValue" : 0.0,
                              "interp" : "linr"
                            }
                          },
                          "effects" : [

                          ],
                          "start" : 366,
                          "duration" : 61,
                          "mediaStart" : 276,
                          "mediaDuration" : 61,
                          "scalar" : 1,
                          "metadata" : {
                            "AutoAppliedSmartFocus" : "False",
                            "clipSpeedAttribute" : false,
                            "default-scale0" : 1.0,
                            "default-scale1" : 1.0,
                            "default-translation0" : 0.0,
                            "default-translation1" : 0.0
                          },
                          "animationTracks" : {

                          }
                        },
                        {
                          "id" : 208,
                          "_type" : "ScreenIMFile",
                          "src" : 1,
                          "trackNumber" : 0,
                          "trimStartSum" : 0,
                          "attributes" : {
                            "ident" : "token_hijacking_attack_prevention"
                          },
                          "parameters" : {
                            "cursorOpacity" : 0.0,
                            "cursorScale" : 0.0
                          },
                          "effects" : [

                          ],
                          "start" : 427,
                          "duration" : 30,
                          "mediaStart" : 337,
                          "mediaDuration" : 1,
                          "scalar" : 1,
                          "metadata" : {
                            "AutoAppliedSmartFocus" : "False"
                          },
                          "animationTracks" : {

                          }
                        },
                        {
                          "id" : 209,
                          "_type" : "ScreenVMFile",
                          "src" : 1,
                          "trackNumber" : 0,
                          "attributes" : {
                            "ident" : "token_hijacking_attack_prevention"
                          },
                          "parameters" : {
                            "cursorScale" : {
                              "type" : "double",
                              "defaultValue" : 0.0,
                              "interp" : "linr"
                            },
                            "cursorOpacity" : {
                              "type" : "double",
                              "defaultValue" : 0.0,
                              "interp" : "linr"
                            }
                          },
                          "effects" : [

                          ],
                          "start" : 457,
                          "duration" : 1089,
                          "mediaStart" : 337,
                          "mediaDuration" : 1089,
                          "scalar" : 1,
                          "metadata" : {
                            "AutoAppliedSmartFocus" : "False",
                            "clipSpeedAttribute" : false,
                            "default-scale0" : 1.0,
                            "default-scale1" : 1.0,
                            "default-translation0" : 0.0,
                            "default-translation1" : 0.0
                          },
                          "animationTracks" : {

                          }
                        },
                        {
                          "id" : 210,
                          "_type" : "ScreenIMFile",
                          "src" : 1,
                          "trackNumber" : 0,
                          "trimStartSum" : 0,
                          "attributes" : {
                            "ident" : "token_hijacking_attack_prevention"
                          },
                          "parameters" : {
                            "cursorOpacity" : 0.0,
                            "cursorScale" : 0.0
                          },
                          "effects" : [

                          ],
                          "start" : 1546,
                          "duration" : 90,
                          "mediaStart" : 1426,
                          "mediaDuration" : 1,
                          "scalar" : 1,
                          "metadata" : {
                            "AutoAppliedSmartFocus" : "False"
                          },
                          "animationTracks" : {

                          }
                        },
                        {
                          "id" : 211,
                          "_type" : "ScreenVMFile",
                          "src" : 1,
                          "trackNumber" : 0,
                          "attributes" : {
                            "ident" : "token_hijacking_attack_prevention"
                          },
                          "parameters" : {
                            "cursorScale" : {
                              "type" : "double",
                              "defaultValue" : 0.0,
                              "interp" : "linr"
                            },
                            "cursorOpacity" : {
                              "type" : "double",
                              "defaultValue" : 0.0,
                              "interp" : "linr"
                            }
                          },
                          "effects" : [

                          ],
                          "start" : 1636,
                          "duration" : 18876,
                          "mediaStart" : 1426,
                          "mediaDuration" : 18876,
                          "scalar" : 1,
                          "metadata" : {
                            "AutoAppliedSmartFocus" : "False",
                            "clipSpeedAttribute" : false,
                            "default-scale0" : 1.0,
                            "default-scale1" : 1.0,
                            "default-translation0" : 0.0,
                            "default-translation1" : 0.0
                          },
                          "animationTracks" : {

                          }
                        }
                    ],
                    "effects" : [
                        {
                          "effectName" : "CursorHilight",
                          "category" : "categoryCursorEffects",
                          "parameters" : {
                            "blur" : 0.1,
                            "color-alpha" : 0.75,
                            "color-blue" : 0.0,
                            "color-green" : 1.0,
                            "color-red" : 1.0,
                            "radius" : 50.0
                          }
                        }
                    ],
                    "start" : 1397,
                    "duration" : 24,
                    "mediaStart" : 5816,
                    "mediaDuration" : 24,
                    "scalar" : 1,
                    "metadata" : {
                      "AutoAppliedSmartFocus" : "False",
                      "clipSpeedAttribute" : false,
                      "default-scale0" : 3.40690314495839,
                      "default-scale1" : 3.40690239557822,
                      "default-translation0" : -544.842863508438,
                      "default-translation1" : 5.57225093738339
                    },
                    "animationTracks" : {
                      "visual" : [
                        {
                          "endTime" : 260,
                          "duration" : 30,
                          "range" : [ 230, 30]
                        },
                        {
                          "endTime" : 375,
                          "duration" : 30,
                          "range" : [ 345, 30]
                        },
                        {
                          "endTime" : 1433,
                          "duration" : 30,
                          "range" : [ 1403, 30]
                        },
                        {
                          "endTime" : 1633,
                          "duration" : 30,
                          "range" : [ 1603, 30]
                        },
                        {
                          "endTime" : 2012,
                          "duration" : 30,
                          "range" : [ 1982, 30]
                        }
                      ]
                    }
                  },
                  {
                    "id" : 212,
                    "_type" : "StitchedMedia",
                    "minMediaStart" : 0,
                    "attributes" : {
                      "ident" : "token_hijacking_attack_prevention",
                      "gain" : 1.0,
                      "mixToMono" : false
                    },
                    "parameters" : {
                      "translation0" : {
                        "type" : "double",
                        "defaultValue" : 0.0,
                        "keyframes" : [
                          {
                            "endTime" : 260,
                            "time" : 230,
                            "value" : 6617.65048026514,
                            "duration" : 30
                          },
                          {
                            "endTime" : 375,
                            "time" : 345,
                            "value" : -5.6843418860808e-13,
                            "duration" : 30
                          },
                          {
                            "endTime" : 1433,
                            "time" : 1403,
                            "value" : -544.842863508438,
                            "duration" : 30
                          },
                          {
                            "endTime" : 1633,
                            "time" : 1603,
                            "value" : 0.0,
                            "duration" : 30
                          },
                          {
                            "endTime" : 2012,
                            "time" : 1982,
                            "value" : -910.68970193186,
                            "duration" : 30
                          }
                        ]
                      },
                      "translation1" : {
                        "type" : "double",
                        "defaultValue" : 0.0,
                        "keyframes" : [
                          {
                            "endTime" : 260,
                            "time" : 230,
                            "value" : -3072.65241805758,
                            "duration" : 30
                          },
                          {
                            "endTime" : 375,
                            "time" : 345,
                            "value" : -5.6843418860808e-14,
                            "duration" : 30
                          },
                          {
                            "endTime" : 1433,
                            "time" : 1403,
                            "value" : 5.57225093738339,
                            "duration" : 30
                          },
                          {
                            "endTime" : 1633,
                            "time" : 1603,
                            "value" : -1.0724754417879e-13,
                            "duration" : 30
                          },
                          {
                            "endTime" : 2012,
                            "time" : 1982,
                            "value" : 377.898911972652,
                            "duration" : 30
                          }
                        ]
                      },
                      "scale0" : {
                        "type" : "double",
                        "defaultValue" : 1.0,
                        "keyframes" : [
                          {
                            "endTime" : 260,
                            "time" : 230,
                            "value" : 6.62127287207902,
                            "duration" : 30
                          },
                          {
                            "endTime" : 375,
                            "time" : 345,
                            "value" : 1.0,
                            "duration" : 30
                          },
                          {
                            "endTime" : 1433,
                            "time" : 1403,
                            "value" : 3.40690314495839,
                            "duration" : 30
                          },
                          {
                            "endTime" : 1633,
                            "time" : 1603,
                            "value" : 1.0,
                            "duration" : 30
                          },
                          {
                            "endTime" : 2012,
                            "time" : 1982,
                            "value" : 1.71147598625338,
                            "duration" : 30
                          }
                        ]
                      },
                      "scale1" : {
                        "type" : "double",
                        "defaultValue" : 1.0,
                        "keyframes" : [
                          {
                            "endTime" : 260,
                            "time" : 230,
                            "value" : 6.62127291078292,
                            "duration" : 30
                          },
                          {
                            "endTime" : 375,
                            "time" : 345,
                            "value" : 1.0,
                            "duration" : 30
                          },
                          {
                            "endTime" : 1433,
                            "time" : 1403,
                            "value" : 3.40690239557822,
                            "duration" : 30
                          },
                          {
                            "endTime" : 1633,
                            "time" : 1603,
                            "value" : 1.0,
                            "duration" : 30
                          },
                          {
                            "endTime" : 2012,
                            "time" : 1982,
                            "value" : 1.71147597084861,
                            "duration" : 30
                          }
                        ]
                      },
                      "cursorOpacity" : 1.0,
                      "cursorScale" : 1.0
                    },
                    "medias" : [
                        {
                          "id" : 213,
                          "_type" : "ScreenVMFile",
                          "src" : 1,
                          "trackNumber" : 0,
                          "attributes" : {
                            "ident" : "token_hijacking_attack_prevention"
                          },
                          "parameters" : {
                            "cursorScale" : {
                              "type" : "double",
                              "defaultValue" : 0.0,
                              "interp" : "linr"
                            },
                            "cursorOpacity" : {
                              "type" : "double",
                              "defaultValue" : 0.0,
                              "interp" : "linr"
                            }
                          },
                          "effects" : [

                          ],
                          "start" : 0,
                          "duration" : 276,
                          "mediaStart" : 0,
                          "mediaDuration" : 276,
                          "scalar" : 1,
                          "metadata" : {
                            "AutoAppliedSmartFocus" : "False",
                            "clipSpeedAttribute" : false,
                            "default-scale0" : 1.0,
                            "default-scale1" : 1.0,
                            "default-translation0" : 0.0,
                            "default-translation1" : 0.0
                          },
                          "animationTracks" : {

                          }
                        },
                        {
                          "id" : 214,
                          "_type" : "ScreenIMFile",
                          "src" : 1,
                          "trackNumber" : 0,
                          "trimStartSum" : 0,
                          "attributes" : {
                            "ident" : "token_hijacking_attack_prevention"
                          },
                          "parameters" : {
                            "cursorOpacity" : 0.0,
                            "cursorScale" : 0.0
                          },
                          "effects" : [

                          ],
                          "start" : 276,
                          "duration" : 90,
                          "mediaStart" : 275,
                          "mediaDuration" : 1,
                          "scalar" : 1,
                          "metadata" : {
                            "AutoAppliedSmartFocus" : "False"
                          },
                          "animationTracks" : {

                          }
                        },
                        {
                          "id" : 215,
                          "_type" : "ScreenVMFile",
                          "src" : 1,
                          "trackNumber" : 0,
                          "attributes" : {
                            "ident" : "token_hijacking_attack_prevention"
                          },
                          "parameters" : {
                            "cursorScale" : {
                              "type" : "double",
                              "defaultValue" : 0.0,
                              "interp" : "linr"
                            },
                            "cursorOpacity" : {
                              "type" : "double",
                              "defaultValue" : 0.0,
                              "interp" : "linr"
                            }
                          },
                          "effects" : [

                          ],
                          "start" : 366,
                          "duration" : 61,
                          "mediaStart" : 276,
                          "mediaDuration" : 61,
                          "scalar" : 1,
                          "metadata" : {
                            "AutoAppliedSmartFocus" : "False",
                            "clipSpeedAttribute" : false,
                            "default-scale0" : 1.0,
                            "default-scale1" : 1.0,
                            "default-translation0" : 0.0,
                            "default-translation1" : 0.0
                          },
                          "animationTracks" : {

                          }
                        },
                        {
                          "id" : 216,
                          "_type" : "ScreenIMFile",
                          "src" : 1,
                          "trackNumber" : 0,
                          "trimStartSum" : 0,
                          "attributes" : {
                            "ident" : "token_hijacking_attack_prevention"
                          },
                          "parameters" : {
                            "cursorOpacity" : 0.0,
                            "cursorScale" : 0.0
                          },
                          "effects" : [

                          ],
                          "start" : 427,
                          "duration" : 30,
                          "mediaStart" : 337,
                          "mediaDuration" : 1,
                          "scalar" : 1,
                          "metadata" : {
                            "AutoAppliedSmartFocus" : "False"
                          },
                          "animationTracks" : {

                          }
                        },
                        {
                          "id" : 217,
                          "_type" : "ScreenVMFile",
                          "src" : 1,
                          "trackNumber" : 0,
                          "attributes" : {
                            "ident" : "token_hijacking_attack_prevention"
                          },
                          "parameters" : {
                            "cursorScale" : {
                              "type" : "double",
                              "defaultValue" : 0.0,
                              "interp" : "linr"
                            },
                            "cursorOpacity" : {
                              "type" : "double",
                              "defaultValue" : 0.0,
                              "interp" : "linr"
                            }
                          },
                          "effects" : [

                          ],
                          "start" : 457,
                          "duration" : 1089,
                          "mediaStart" : 337,
                          "mediaDuration" : 1089,
                          "scalar" : 1,
                          "metadata" : {
                            "AutoAppliedSmartFocus" : "False",
                            "clipSpeedAttribute" : false,
                            "default-scale0" : 1.0,
                            "default-scale1" : 1.0,
                            "default-translation0" : 0.0,
                            "default-translation1" : 0.0
                          },
                          "animationTracks" : {

                          }
                        },
                        {
                          "id" : 218,
                          "_type" : "ScreenIMFile",
                          "src" : 1,
                          "trackNumber" : 0,
                          "trimStartSum" : 0,
                          "attributes" : {
                            "ident" : "token_hijacking_attack_prevention"
                          },
                          "parameters" : {
                            "cursorOpacity" : 0.0,
                            "cursorScale" : 0.0
                          },
                          "effects" : [

                          ],
                          "start" : 1546,
                          "duration" : 90,
                          "mediaStart" : 1426,
                          "mediaDuration" : 1,
                          "scalar" : 1,
                          "metadata" : {
                            "AutoAppliedSmartFocus" : "False"
                          },
                          "animationTracks" : {

                          }
                        },
                        {
                          "id" : 219,
                          "_type" : "ScreenVMFile",
                          "src" : 1,
                          "trackNumber" : 0,
                          "attributes" : {
                            "ident" : "token_hijacking_attack_prevention"
                          },
                          "parameters" : {
                            "cursorScale" : {
                              "type" : "double",
                              "defaultValue" : 0.0,
                              "interp" : "linr"
                            },
                            "cursorOpacity" : {
                              "type" : "double",
                              "defaultValue" : 0.0,
                              "interp" : "linr"
                            }
                          },
                          "effects" : [

                          ],
                          "start" : 1636,
                          "duration" : 18876,
                          "mediaStart" : 1426,
                          "mediaDuration" : 18876,
                          "scalar" : 1,
                          "metadata" : {
                            "AutoAppliedSmartFocus" : "False",
                            "clipSpeedAttribute" : false,
                            "default-scale0" : 1.0,
                            "default-scale1" : 1.0,
                            "default-translation0" : 0.0,
                            "default-translation1" : 0.0
                          },
                          "animationTracks" : {

                          }
                        }
                    ],
                    "effects" : [
                        {
                          "effectName" : "CursorHilight",
                          "category" : "categoryCursorEffects",
                          "parameters" : {
                            "blur" : 0.1,
                            "color-alpha" : 0.75,
                            "color-blue" : 0.0,
                            "color-green" : 1.0,
                            "color-red" : 1.0,
                            "radius" : 50.0
                          }
                        }
                    ],
                    "start" : 1421,
                    "duration" : 28,
                    "mediaStart" : 6569,
                    "mediaDuration" : 28,
                    "scalar" : 1,
                    "metadata" : {
                      "AutoAppliedSmartFocus" : "False",
                      "clipSpeedAttribute" : false,
                      "default-scale0" : 3.40690314495839,
                      "default-scale1" : 3.40690239557822,
                      "default-translation0" : -544.842863508438,
                      "default-translation1" : 5.57225093738339
                    },
                    "animationTracks" : {
                      "visual" : [
                        {
                          "endTime" : 260,
                          "duration" : 30,
                          "range" : [ 230, 30]
                        },
                        {
                          "endTime" : 375,
                          "duration" : 30,
                          "range" : [ 345, 30]
                        },
                        {
                          "endTime" : 1433,
                          "duration" : 30,
                          "range" : [ 1403, 30]
                        },
                        {
                          "endTime" : 1633,
                          "duration" : 30,
                          "range" : [ 1603, 30]
                        },
                        {
                          "endTime" : 2012,
                          "duration" : 30,
                          "range" : [ 1982, 30]
                        }
                      ]
                    }
                  },
                  {
                    "id" : 220,
                    "_type" : "StitchedMedia",
                    "minMediaStart" : 0,
                    "attributes" : {
                      "ident" : "token_hijacking_attack_prevention",
                      "gain" : 1.0,
                      "mixToMono" : false
                    },
                    "parameters" : {
                      "translation0" : {
                        "type" : "double",
                        "defaultValue" : 0.0,
                        "keyframes" : [
                          {
                            "endTime" : 260,
                            "time" : 230,
                            "value" : 6617.65048026514,
                            "duration" : 30
                          },
                          {
                            "endTime" : 375,
                            "time" : 345,
                            "value" : -5.6843418860808e-13,
                            "duration" : 30
                          },
                          {
                            "endTime" : 1433,
                            "time" : 1403,
                            "value" : -544.842863508438,
                            "duration" : 30
                          },
                          {
                            "endTime" : 1633,
                            "time" : 1603,
                            "value" : 0.0,
                            "duration" : 30
                          },
                          {
                            "endTime" : 2012,
                            "time" : 1982,
                            "value" : -910.68970193186,
                            "duration" : 30
                          }
                        ]
                      },
                      "translation1" : {
                        "type" : "double",
                        "defaultValue" : 0.0,
                        "keyframes" : [
                          {
                            "endTime" : 260,
                            "time" : 230,
                            "value" : -3072.65241805758,
                            "duration" : 30
                          },
                          {
                            "endTime" : 375,
                            "time" : 345,
                            "value" : -5.6843418860808e-14,
                            "duration" : 30
                          },
                          {
                            "endTime" : 1433,
                            "time" : 1403,
                            "value" : 5.57225093738339,
                            "duration" : 30
                          },
                          {
                            "endTime" : 1633,
                            "time" : 1603,
                            "value" : -1.0724754417879e-13,
                            "duration" : 30
                          },
                          {
                            "endTime" : 2012,
                            "time" : 1982,
                            "value" : 377.898911972652,
                            "duration" : 30
                          }
                        ]
                      },
                      "scale0" : {
                        "type" : "double",
                        "defaultValue" : 1.0,
                        "keyframes" : [
                          {
                            "endTime" : 260,
                            "time" : 230,
                            "value" : 6.62127287207902,
                            "duration" : 30
                          },
                          {
                            "endTime" : 375,
                            "time" : 345,
                            "value" : 1.0,
                            "duration" : 30
                          },
                          {
                            "endTime" : 1433,
                            "time" : 1403,
                            "value" : 3.40690314495839,
                            "duration" : 30
                          },
                          {
                            "endTime" : 1633,
                            "time" : 1603,
                            "value" : 1.0,
                            "duration" : 30
                          },
                          {
                            "endTime" : 2012,
                            "time" : 1982,
                            "value" : 1.71147598625338,
                            "duration" : 30
                          }
                        ]
                      },
                      "scale1" : {
                        "type" : "double",
                        "defaultValue" : 1.0,
                        "keyframes" : [
                          {
                            "endTime" : 260,
                            "time" : 230,
                            "value" : 6.62127291078292,
                            "duration" : 30
                          },
                          {
                            "endTime" : 375,
                            "time" : 345,
                            "value" : 1.0,
                            "duration" : 30
                          },
                          {
                            "endTime" : 1433,
                            "time" : 1403,
                            "value" : 3.40690239557822,
                            "duration" : 30
                          },
                          {
                            "endTime" : 1633,
                            "time" : 1603,
                            "value" : 1.0,
                            "duration" : 30
                          },
                          {
                            "endTime" : 2012,
                            "time" : 1982,
                            "value" : 1.71147597084861,
                            "duration" : 30
                          }
                        ]
                      },
                      "cursorOpacity" : 1.0,
                      "cursorScale" : 1.0
                    },
                    "medias" : [
                        {
                          "id" : 221,
                          "_type" : "ScreenVMFile",
                          "src" : 1,
                          "trackNumber" : 0,
                          "attributes" : {
                            "ident" : "token_hijacking_attack_prevention"
                          },
                          "parameters" : {
                            "cursorScale" : {
                              "type" : "double",
                              "defaultValue" : 0.0,
                              "interp" : "linr"
                            },
                            "cursorOpacity" : {
                              "type" : "double",
                              "defaultValue" : 0.0,
                              "interp" : "linr"
                            }
                          },
                          "effects" : [

                          ],
                          "start" : 0,
                          "duration" : 276,
                          "mediaStart" : 0,
                          "mediaDuration" : 276,
                          "scalar" : 1,
                          "metadata" : {
                            "AutoAppliedSmartFocus" : "False",
                            "clipSpeedAttribute" : false,
                            "default-scale0" : 1.0,
                            "default-scale1" : 1.0,
                            "default-translation0" : 0.0,
                            "default-translation1" : 0.0
                          },
                          "animationTracks" : {

                          }
                        },
                        {
                          "id" : 222,
                          "_type" : "ScreenIMFile",
                          "src" : 1,
                          "trackNumber" : 0,
                          "trimStartSum" : 0,
                          "attributes" : {
                            "ident" : "token_hijacking_attack_prevention"
                          },
                          "parameters" : {
                            "cursorOpacity" : 0.0,
                            "cursorScale" : 0.0
                          },
                          "effects" : [

                          ],
                          "start" : 276,
                          "duration" : 90,
                          "mediaStart" : 275,
                          "mediaDuration" : 1,
                          "scalar" : 1,
                          "metadata" : {
                            "AutoAppliedSmartFocus" : "False"
                          },
                          "animationTracks" : {

                          }
                        },
                        {
                          "id" : 223,
                          "_type" : "ScreenVMFile",
                          "src" : 1,
                          "trackNumber" : 0,
                          "attributes" : {
                            "ident" : "token_hijacking_attack_prevention"
                          },
                          "parameters" : {
                            "cursorScale" : {
                              "type" : "double",
                              "defaultValue" : 0.0,
                              "interp" : "linr"
                            },
                            "cursorOpacity" : {
                              "type" : "double",
                              "defaultValue" : 0.0,
                              "interp" : "linr"
                            }
                          },
                          "effects" : [

                          ],
                          "start" : 366,
                          "duration" : 61,
                          "mediaStart" : 276,
                          "mediaDuration" : 61,
                          "scalar" : 1,
                          "metadata" : {
                            "AutoAppliedSmartFocus" : "False",
                            "clipSpeedAttribute" : false,
                            "default-scale0" : 1.0,
                            "default-scale1" : 1.0,
                            "default-translation0" : 0.0,
                            "default-translation1" : 0.0
                          },
                          "animationTracks" : {

                          }
                        },
                        {
                          "id" : 224,
                          "_type" : "ScreenIMFile",
                          "src" : 1,
                          "trackNumber" : 0,
                          "trimStartSum" : 0,
                          "attributes" : {
                            "ident" : "token_hijacking_attack_prevention"
                          },
                          "parameters" : {
                            "cursorOpacity" : 0.0,
                            "cursorScale" : 0.0
                          },
                          "effects" : [

                          ],
                          "start" : 427,
                          "duration" : 30,
                          "mediaStart" : 337,
                          "mediaDuration" : 1,
                          "scalar" : 1,
                          "metadata" : {
                            "AutoAppliedSmartFocus" : "False"
                          },
                          "animationTracks" : {

                          }
                        },
                        {
                          "id" : 225,
                          "_type" : "ScreenVMFile",
                          "src" : 1,
                          "trackNumber" : 0,
                          "attributes" : {
                            "ident" : "token_hijacking_attack_prevention"
                          },
                          "parameters" : {
                            "cursorScale" : {
                              "type" : "double",
                              "defaultValue" : 0.0,
                              "interp" : "linr"
                            },
                            "cursorOpacity" : {
                              "type" : "double",
                              "defaultValue" : 0.0,
                              "interp" : "linr"
                            }
                          },
                          "effects" : [

                          ],
                          "start" : 457,
                          "duration" : 1089,
                          "mediaStart" : 337,
                          "mediaDuration" : 1089,
                          "scalar" : 1,
                          "metadata" : {
                            "AutoAppliedSmartFocus" : "False",
                            "clipSpeedAttribute" : false,
                            "default-scale0" : 1.0,
                            "default-scale1" : 1.0,
                            "default-translation0" : 0.0,
                            "default-translation1" : 0.0
                          },
                          "animationTracks" : {

                          }
                        },
                        {
                          "id" : 226,
                          "_type" : "ScreenIMFile",
                          "src" : 1,
                          "trackNumber" : 0,
                          "trimStartSum" : 0,
                          "attributes" : {
                            "ident" : "token_hijacking_attack_prevention"
                          },
                          "parameters" : {
                            "cursorOpacity" : 0.0,
                            "cursorScale" : 0.0
                          },
                          "effects" : [

                          ],
                          "start" : 1546,
                          "duration" : 90,
                          "mediaStart" : 1426,
                          "mediaDuration" : 1,
                          "scalar" : 1,
                          "metadata" : {
                            "AutoAppliedSmartFocus" : "False"
                          },
                          "animationTracks" : {

                          }
                        },
                        {
                          "id" : 227,
                          "_type" : "ScreenVMFile",
                          "src" : 1,
                          "trackNumber" : 0,
                          "attributes" : {
                            "ident" : "token_hijacking_attack_prevention"
                          },
                          "parameters" : {
                            "cursorScale" : {
                              "type" : "double",
                              "defaultValue" : 0.0,
                              "interp" : "linr"
                            },
                            "cursorOpacity" : {
                              "type" : "double",
                              "defaultValue" : 0.0,
                              "interp" : "linr"
                            }
                          },
                          "effects" : [

                          ],
                          "start" : 1636,
                          "duration" : 18876,
                          "mediaStart" : 1426,
                          "mediaDuration" : 18876,
                          "scalar" : 1,
                          "metadata" : {
                            "AutoAppliedSmartFocus" : "False",
                            "clipSpeedAttribute" : false,
                            "default-scale0" : 1.0,
                            "default-scale1" : 1.0,
                            "default-translation0" : 0.0,
                            "default-translation1" : 0.0
                          },
                          "animationTracks" : {

                          }
                        }
                    ],
                    "effects" : [
                        {
                          "effectName" : "CursorHilight",
                          "category" : "categoryCursorEffects",
                          "parameters" : {
                            "blur" : 0.1,
                            "color-alpha" : 0.75,
                            "color-blue" : 0.0,
                            "color-green" : 1.0,
                            "color-red" : 1.0,
                            "radius" : 50.0
                          }
                        }
                    ],
                    "start" : 1449,
                    "duration" : 30,
                    "mediaStart" : 7249,
                    "mediaDuration" : 30,
                    "scalar" : 1,
                    "metadata" : {
                      "AutoAppliedSmartFocus" : "False",
                      "clipSpeedAttribute" : false,
                      "default-scale0" : 3.40690314495839,
                      "default-scale1" : 3.40690239557822,
                      "default-translation0" : -544.842863508438,
                      "default-translation1" : 5.57225093738339
                    },
                    "animationTracks" : {
                      "visual" : [
                        {
                          "endTime" : 260,
                          "duration" : 30,
                          "range" : [ 230, 30]
                        },
                        {
                          "endTime" : 375,
                          "duration" : 30,
                          "range" : [ 345, 30]
                        },
                        {
                          "endTime" : 1433,
                          "duration" : 30,
                          "range" : [ 1403, 30]
                        },
                        {
                          "endTime" : 1633,
                          "duration" : 30,
                          "range" : [ 1603, 30]
                        },
                        {
                          "endTime" : 2012,
                          "duration" : 30,
                          "range" : [ 1982, 30]
                        }
                      ]
                    }
                  },
                  {
                    "id" : 228,
                    "_type" : "StitchedMedia",
                    "minMediaStart" : 0,
                    "attributes" : {
                      "ident" : "token_hijacking_attack_prevention",
                      "gain" : 1.0,
                      "mixToMono" : false
                    },
                    "parameters" : {
                      "translation0" : {
                        "type" : "double",
                        "defaultValue" : 0.0,
                        "keyframes" : [
                          {
                            "endTime" : 260,
                            "time" : 230,
                            "value" : 6617.65048026514,
                            "duration" : 30
                          },
                          {
                            "endTime" : 375,
                            "time" : 345,
                            "value" : -5.6843418860808e-13,
                            "duration" : 30
                          },
                          {
                            "endTime" : 1433,
                            "time" : 1403,
                            "value" : -544.842863508438,
                            "duration" : 30
                          },
                          {
                            "endTime" : 1633,
                            "time" : 1603,
                            "value" : 0.0,
                            "duration" : 30
                          },
                          {
                            "endTime" : 2012,
                            "time" : 1982,
                            "value" : -910.68970193186,
                            "duration" : 30
                          }
                        ]
                      },
                      "translation1" : {
                        "type" : "double",
                        "defaultValue" : 0.0,
                        "keyframes" : [
                          {
                            "endTime" : 260,
                            "time" : 230,
                            "value" : -3072.65241805758,
                            "duration" : 30
                          },
                          {
                            "endTime" : 375,
                            "time" : 345,
                            "value" : -5.6843418860808e-14,
                            "duration" : 30
                          },
                          {
                            "endTime" : 1433,
                            "time" : 1403,
                            "value" : 5.57225093738339,
                            "duration" : 30
                          },
                          {
                            "endTime" : 1633,
                            "time" : 1603,
                            "value" : -1.0724754417879e-13,
                            "duration" : 30
                          },
                          {
                            "endTime" : 2012,
                            "time" : 1982,
                            "value" : 377.898911972652,
                            "duration" : 30
                          }
                        ]
                      },
                      "scale0" : {
                        "type" : "double",
                        "defaultValue" : 1.0,
                        "keyframes" : [
                          {
                            "endTime" : 260,
                            "time" : 230,
                            "value" : 6.62127287207902,
                            "duration" : 30
                          },
                          {
                            "endTime" : 375,
                            "time" : 345,
                            "value" : 1.0,
                            "duration" : 30
                          },
                          {
                            "endTime" : 1433,
                            "time" : 1403,
                            "value" : 3.40690314495839,
                            "duration" : 30
                          },
                          {
                            "endTime" : 1633,
                            "time" : 1603,
                            "value" : 1.0,
                            "duration" : 30
                          },
                          {
                            "endTime" : 2012,
                            "time" : 1982,
                            "value" : 1.71147598625338,
                            "duration" : 30
                          }
                        ]
                      },
                      "scale1" : {
                        "type" : "double",
                        "defaultValue" : 1.0,
                        "keyframes" : [
                          {
                            "endTime" : 260,
                            "time" : 230,
                            "value" : 6.62127291078292,
                            "duration" : 30
                          },
                          {
                            "endTime" : 375,
                            "time" : 345,
                            "value" : 1.0,
                            "duration" : 30
                          },
                          {
                            "endTime" : 1433,
                            "time" : 1403,
                            "value" : 3.40690239557822,
                            "duration" : 30
                          },
                          {
                            "endTime" : 1633,
                            "time" : 1603,
                            "value" : 1.0,
                            "duration" : 30
                          },
                          {
                            "endTime" : 2012,
                            "time" : 1982,
                            "value" : 1.71147597084861,
                            "duration" : 30
                          }
                        ]
                      },
                      "cursorOpacity" : 1.0,
                      "cursorScale" : 1.0
                    },
                    "medias" : [
                        {
                          "id" : 229,
                          "_type" : "ScreenVMFile",
                          "src" : 1,
                          "trackNumber" : 0,
                          "attributes" : {
                            "ident" : "token_hijacking_attack_prevention"
                          },
                          "parameters" : {
                            "cursorScale" : {
                              "type" : "double",
                              "defaultValue" : 0.0,
                              "interp" : "linr"
                            },
                            "cursorOpacity" : {
                              "type" : "double",
                              "defaultValue" : 0.0,
                              "interp" : "linr"
                            }
                          },
                          "effects" : [

                          ],
                          "start" : 0,
                          "duration" : 276,
                          "mediaStart" : 0,
                          "mediaDuration" : 276,
                          "scalar" : 1,
                          "metadata" : {
                            "AutoAppliedSmartFocus" : "False",
                            "clipSpeedAttribute" : false,
                            "default-scale0" : 1.0,
                            "default-scale1" : 1.0,
                            "default-translation0" : 0.0,
                            "default-translation1" : 0.0
                          },
                          "animationTracks" : {

                          }
                        },
                        {
                          "id" : 230,
                          "_type" : "ScreenIMFile",
                          "src" : 1,
                          "trackNumber" : 0,
                          "trimStartSum" : 0,
                          "attributes" : {
                            "ident" : "token_hijacking_attack_prevention"
                          },
                          "parameters" : {
                            "cursorOpacity" : 0.0,
                            "cursorScale" : 0.0
                          },
                          "effects" : [

                          ],
                          "start" : 276,
                          "duration" : 90,
                          "mediaStart" : 275,
                          "mediaDuration" : 1,
                          "scalar" : 1,
                          "metadata" : {
                            "AutoAppliedSmartFocus" : "False"
                          },
                          "animationTracks" : {

                          }
                        },
                        {
                          "id" : 231,
                          "_type" : "ScreenVMFile",
                          "src" : 1,
                          "trackNumber" : 0,
                          "attributes" : {
                            "ident" : "token_hijacking_attack_prevention"
                          },
                          "parameters" : {
                            "cursorScale" : {
                              "type" : "double",
                              "defaultValue" : 0.0,
                              "interp" : "linr"
                            },
                            "cursorOpacity" : {
                              "type" : "double",
                              "defaultValue" : 0.0,
                              "interp" : "linr"
                            }
                          },
                          "effects" : [

                          ],
                          "start" : 366,
                          "duration" : 61,
                          "mediaStart" : 276,
                          "mediaDuration" : 61,
                          "scalar" : 1,
                          "metadata" : {
                            "AutoAppliedSmartFocus" : "False",
                            "clipSpeedAttribute" : false,
                            "default-scale0" : 1.0,
                            "default-scale1" : 1.0,
                            "default-translation0" : 0.0,
                            "default-translation1" : 0.0
                          },
                          "animationTracks" : {

                          }
                        },
                        {
                          "id" : 232,
                          "_type" : "ScreenIMFile",
                          "src" : 1,
                          "trackNumber" : 0,
                          "trimStartSum" : 0,
                          "attributes" : {
                            "ident" : "token_hijacking_attack_prevention"
                          },
                          "parameters" : {
                            "cursorOpacity" : 0.0,
                            "cursorScale" : 0.0
                          },
                          "effects" : [

                          ],
                          "start" : 427,
                          "duration" : 30,
                          "mediaStart" : 337,
                          "mediaDuration" : 1,
                          "scalar" : 1,
                          "metadata" : {
                            "AutoAppliedSmartFocus" : "False"
                          },
                          "animationTracks" : {

                          }
                        },
                        {
                          "id" : 233,
                          "_type" : "ScreenVMFile",
                          "src" : 1,
                          "trackNumber" : 0,
                          "attributes" : {
                            "ident" : "token_hijacking_attack_prevention"
                          },
                          "parameters" : {
                            "cursorScale" : {
                              "type" : "double",
                              "defaultValue" : 0.0,
                              "interp" : "linr"
                            },
                            "cursorOpacity" : {
                              "type" : "double",
                              "defaultValue" : 0.0,
                              "interp" : "linr"
                            }
                          },
                          "effects" : [

                          ],
                          "start" : 457,
                          "duration" : 1089,
                          "mediaStart" : 337,
                          "mediaDuration" : 1089,
                          "scalar" : 1,
                          "metadata" : {
                            "AutoAppliedSmartFocus" : "False",
                            "clipSpeedAttribute" : false,
                            "default-scale0" : 1.0,
                            "default-scale1" : 1.0,
                            "default-translation0" : 0.0,
                            "default-translation1" : 0.0
                          },
                          "animationTracks" : {

                          }
                        },
                        {
                          "id" : 234,
                          "_type" : "ScreenIMFile",
                          "src" : 1,
                          "trackNumber" : 0,
                          "trimStartSum" : 0,
                          "attributes" : {
                            "ident" : "token_hijacking_attack_prevention"
                          },
                          "parameters" : {
                            "cursorOpacity" : 0.0,
                            "cursorScale" : 0.0
                          },
                          "effects" : [

                          ],
                          "start" : 1546,
                          "duration" : 90,
                          "mediaStart" : 1426,
                          "mediaDuration" : 1,
                          "scalar" : 1,
                          "metadata" : {
                            "AutoAppliedSmartFocus" : "False"
                          },
                          "animationTracks" : {

                          }
                        },
                        {
                          "id" : 235,
                          "_type" : "ScreenVMFile",
                          "src" : 1,
                          "trackNumber" : 0,
                          "attributes" : {
                            "ident" : "token_hijacking_attack_prevention"
                          },
                          "parameters" : {
                            "cursorScale" : {
                              "type" : "double",
                              "defaultValue" : 0.0,
                              "interp" : "linr"
                            },
                            "cursorOpacity" : {
                              "type" : "double",
                              "defaultValue" : 0.0,
                              "interp" : "linr"
                            }
                          },
                          "effects" : [

                          ],
                          "start" : 1636,
                          "duration" : 18876,
                          "mediaStart" : 1426,
                          "mediaDuration" : 18876,
                          "scalar" : 1,
                          "metadata" : {
                            "AutoAppliedSmartFocus" : "False",
                            "clipSpeedAttribute" : false,
                            "default-scale0" : 1.0,
                            "default-scale1" : 1.0,
                            "default-translation0" : 0.0,
                            "default-translation1" : 0.0
                          },
                          "animationTracks" : {

                          }
                        }
                    ],
                    "effects" : [
                        {
                          "effectName" : "CursorHilight",
                          "category" : "categoryCursorEffects",
                          "parameters" : {
                            "blur" : 0.1,
                            "color-alpha" : 0.75,
                            "color-blue" : 0.0,
                            "color-green" : 1.0,
                            "color-red" : 1.0,
                            "radius" : 50.0
                          }
                        }
                    ],
                    "start" : 1479,
                    "duration" : 34,
                    "mediaStart" : 7950,
                    "mediaDuration" : 34,
                    "scalar" : 1,
                    "metadata" : {
                      "AutoAppliedSmartFocus" : "False",
                      "clipSpeedAttribute" : false,
                      "default-scale0" : 3.40690314495839,
                      "default-scale1" : 3.40690239557822,
                      "default-translation0" : -544.842863508438,
                      "default-translation1" : 5.57225093738339
                    },
                    "animationTracks" : {
                      "visual" : [
                        {
                          "endTime" : 260,
                          "duration" : 30,
                          "range" : [ 230, 30]
                        },
                        {
                          "endTime" : 375,
                          "duration" : 30,
                          "range" : [ 345, 30]
                        },
                        {
                          "endTime" : 1433,
                          "duration" : 30,
                          "range" : [ 1403, 30]
                        },
                        {
                          "endTime" : 1633,
                          "duration" : 30,
                          "range" : [ 1603, 30]
                        },
                        {
                          "endTime" : 2012,
                          "duration" : 30,
                          "range" : [ 1982, 30]
                        }
                      ]
                    }
                  },
                  {
                    "id" : 236,
                    "_type" : "StitchedMedia",
                    "minMediaStart" : 0,
                    "attributes" : {
                      "ident" : "token_hijacking_attack_prevention",
                      "gain" : 1.0,
                      "mixToMono" : false
                    },
                    "parameters" : {
                      "translation0" : {
                        "type" : "double",
                        "defaultValue" : 0.0,
                        "keyframes" : [
                          {
                            "endTime" : 260,
                            "time" : 230,
                            "value" : 6617.65048026514,
                            "duration" : 30
                          },
                          {
                            "endTime" : 375,
                            "time" : 345,
                            "value" : -5.6843418860808e-13,
                            "duration" : 30
                          },
                          {
                            "endTime" : 1433,
                            "time" : 1403,
                            "value" : -544.842863508438,
                            "duration" : 30
                          },
                          {
                            "endTime" : 1633,
                            "time" : 1603,
                            "value" : 0.0,
                            "duration" : 30
                          },
                          {
                            "endTime" : 2012,
                            "time" : 1982,
                            "value" : -910.68970193186,
                            "duration" : 30
                          }
                        ]
                      },
                      "translation1" : {
                        "type" : "double",
                        "defaultValue" : 0.0,
                        "keyframes" : [
                          {
                            "endTime" : 260,
                            "time" : 230,
                            "value" : -3072.65241805758,
                            "duration" : 30
                          },
                          {
                            "endTime" : 375,
                            "time" : 345,
                            "value" : -5.6843418860808e-14,
                            "duration" : 30
                          },
                          {
                            "endTime" : 1433,
                            "time" : 1403,
                            "value" : 5.57225093738339,
                            "duration" : 30
                          },
                          {
                            "endTime" : 1633,
                            "time" : 1603,
                            "value" : -1.0724754417879e-13,
                            "duration" : 30
                          },
                          {
                            "endTime" : 2012,
                            "time" : 1982,
                            "value" : 377.898911972652,
                            "duration" : 30
                          }
                        ]
                      },
                      "scale0" : {
                        "type" : "double",
                        "defaultValue" : 1.0,
                        "keyframes" : [
                          {
                            "endTime" : 260,
                            "time" : 230,
                            "value" : 6.62127287207902,
                            "duration" : 30
                          },
                          {
                            "endTime" : 375,
                            "time" : 345,
                            "value" : 1.0,
                            "duration" : 30
                          },
                          {
                            "endTime" : 1433,
                            "time" : 1403,
                            "value" : 3.40690314495839,
                            "duration" : 30
                          },
                          {
                            "endTime" : 1633,
                            "time" : 1603,
                            "value" : 1.0,
                            "duration" : 30
                          },
                          {
                            "endTime" : 2012,
                            "time" : 1982,
                            "value" : 1.71147598625338,
                            "duration" : 30
                          }
                        ]
                      },
                      "scale1" : {
                        "type" : "double",
                        "defaultValue" : 1.0,
                        "keyframes" : [
                          {
                            "endTime" : 260,
                            "time" : 230,
                            "value" : 6.62127291078292,
                            "duration" : 30
                          },
                          {
                            "endTime" : 375,
                            "time" : 345,
                            "value" : 1.0,
                            "duration" : 30
                          },
                          {
                            "endTime" : 1433,
                            "time" : 1403,
                            "value" : 3.40690239557822,
                            "duration" : 30
                          },
                          {
                            "endTime" : 1633,
                            "time" : 1603,
                            "value" : 1.0,
                            "duration" : 30
                          },
                          {
                            "endTime" : 2012,
                            "time" : 1982,
                            "value" : 1.71147597084861,
                            "duration" : 30
                          }
                        ]
                      },
                      "cursorOpacity" : 1.0,
                      "cursorScale" : 1.0
                    },
                    "medias" : [
                        {
                          "id" : 237,
                          "_type" : "ScreenVMFile",
                          "src" : 1,
                          "trackNumber" : 0,
                          "attributes" : {
                            "ident" : "token_hijacking_attack_prevention"
                          },
                          "parameters" : {
                            "cursorScale" : {
                              "type" : "double",
                              "defaultValue" : 0.0,
                              "interp" : "linr"
                            },
                            "cursorOpacity" : {
                              "type" : "double",
                              "defaultValue" : 0.0,
                              "interp" : "linr"
                            }
                          },
                          "effects" : [

                          ],
                          "start" : 0,
                          "duration" : 276,
                          "mediaStart" : 0,
                          "mediaDuration" : 276,
                          "scalar" : 1,
                          "metadata" : {
                            "AutoAppliedSmartFocus" : "False",
                            "clipSpeedAttribute" : false,
                            "default-scale0" : 1.0,
                            "default-scale1" : 1.0,
                            "default-translation0" : 0.0,
                            "default-translation1" : 0.0
                          },
                          "animationTracks" : {

                          }
                        },
                        {
                          "id" : 238,
                          "_type" : "ScreenIMFile",
                          "src" : 1,
                          "trackNumber" : 0,
                          "trimStartSum" : 0,
                          "attributes" : {
                            "ident" : "token_hijacking_attack_prevention"
                          },
                          "parameters" : {
                            "cursorOpacity" : 0.0,
                            "cursorScale" : 0.0
                          },
                          "effects" : [

                          ],
                          "start" : 276,
                          "duration" : 90,
                          "mediaStart" : 275,
                          "mediaDuration" : 1,
                          "scalar" : 1,
                          "metadata" : {
                            "AutoAppliedSmartFocus" : "False"
                          },
                          "animationTracks" : {

                          }
                        },
                        {
                          "id" : 239,
                          "_type" : "ScreenVMFile",
                          "src" : 1,
                          "trackNumber" : 0,
                          "attributes" : {
                            "ident" : "token_hijacking_attack_prevention"
                          },
                          "parameters" : {
                            "cursorScale" : {
                              "type" : "double",
                              "defaultValue" : 0.0,
                              "interp" : "linr"
                            },
                            "cursorOpacity" : {
                              "type" : "double",
                              "defaultValue" : 0.0,
                              "interp" : "linr"
                            }
                          },
                          "effects" : [

                          ],
                          "start" : 366,
                          "duration" : 61,
                          "mediaStart" : 276,
                          "mediaDuration" : 61,
                          "scalar" : 1,
                          "metadata" : {
                            "AutoAppliedSmartFocus" : "False",
                            "clipSpeedAttribute" : false,
                            "default-scale0" : 1.0,
                            "default-scale1" : 1.0,
                            "default-translation0" : 0.0,
                            "default-translation1" : 0.0
                          },
                          "animationTracks" : {

                          }
                        },
                        {
                          "id" : 240,
                          "_type" : "ScreenIMFile",
                          "src" : 1,
                          "trackNumber" : 0,
                          "trimStartSum" : 0,
                          "attributes" : {
                            "ident" : "token_hijacking_attack_prevention"
                          },
                          "parameters" : {
                            "cursorOpacity" : 0.0,
                            "cursorScale" : 0.0
                          },
                          "effects" : [

                          ],
                          "start" : 427,
                          "duration" : 30,
                          "mediaStart" : 337,
                          "mediaDuration" : 1,
                          "scalar" : 1,
                          "metadata" : {
                            "AutoAppliedSmartFocus" : "False"
                          },
                          "animationTracks" : {

                          }
                        },
                        {
                          "id" : 241,
                          "_type" : "ScreenVMFile",
                          "src" : 1,
                          "trackNumber" : 0,
                          "attributes" : {
                            "ident" : "token_hijacking_attack_prevention"
                          },
                          "parameters" : {
                            "cursorScale" : {
                              "type" : "double",
                              "defaultValue" : 0.0,
                              "interp" : "linr"
                            },
                            "cursorOpacity" : {
                              "type" : "double",
                              "defaultValue" : 0.0,
                              "interp" : "linr"
                            }
                          },
                          "effects" : [

                          ],
                          "start" : 457,
                          "duration" : 1089,
                          "mediaStart" : 337,
                          "mediaDuration" : 1089,
                          "scalar" : 1,
                          "metadata" : {
                            "AutoAppliedSmartFocus" : "False",
                            "clipSpeedAttribute" : false,
                            "default-scale0" : 1.0,
                            "default-scale1" : 1.0,
                            "default-translation0" : 0.0,
                            "default-translation1" : 0.0
                          },
                          "animationTracks" : {

                          }
                        },
                        {
                          "id" : 242,
                          "_type" : "ScreenIMFile",
                          "src" : 1,
                          "trackNumber" : 0,
                          "trimStartSum" : 0,
                          "attributes" : {
                            "ident" : "token_hijacking_attack_prevention"
                          },
                          "parameters" : {
                            "cursorOpacity" : 0.0,
                            "cursorScale" : 0.0
                          },
                          "effects" : [

                          ],
                          "start" : 1546,
                          "duration" : 90,
                          "mediaStart" : 1426,
                          "mediaDuration" : 1,
                          "scalar" : 1,
                          "metadata" : {
                            "AutoAppliedSmartFocus" : "False"
                          },
                          "animationTracks" : {

                          }
                        },
                        {
                          "id" : 243,
                          "_type" : "ScreenVMFile",
                          "src" : 1,
                          "trackNumber" : 0,
                          "attributes" : {
                            "ident" : "token_hijacking_attack_prevention"
                          },
                          "parameters" : {
                            "cursorScale" : {
                              "type" : "double",
                              "defaultValue" : 0.0,
                              "interp" : "linr"
                            },
                            "cursorOpacity" : {
                              "type" : "double",
                              "defaultValue" : 0.0,
                              "interp" : "linr"
                            }
                          },
                          "effects" : [

                          ],
                          "start" : 1636,
                          "duration" : 18876,
                          "mediaStart" : 1426,
                          "mediaDuration" : 18876,
                          "scalar" : 1,
                          "metadata" : {
                            "AutoAppliedSmartFocus" : "False",
                            "clipSpeedAttribute" : false,
                            "default-scale0" : 1.0,
                            "default-scale1" : 1.0,
                            "default-translation0" : 0.0,
                            "default-translation1" : 0.0
                          },
                          "animationTracks" : {

                          }
                        }
                    ],
                    "effects" : [
                        {
                          "effectName" : "CursorHilight",
                          "category" : "categoryCursorEffects",
                          "parameters" : {
                            "blur" : 0.1,
                            "color-alpha" : 0.75,
                            "color-blue" : 0.0,
                            "color-green" : 1.0,
                            "color-red" : 1.0,
                            "radius" : 50.0
                          }
                        }
                    ],
                    "start" : 1513,
                    "duration" : 28,
                    "mediaStart" : 8705,
                    "mediaDuration" : 28,
                    "scalar" : 1,
                    "metadata" : {
                      "AutoAppliedSmartFocus" : "False",
                      "clipSpeedAttribute" : false,
                      "default-scale0" : 3.40690314495839,
                      "default-scale1" : 3.40690239557822,
                      "default-translation0" : -544.842863508438,
                      "default-translation1" : 5.57225093738339
                    },
                    "animationTracks" : {
                      "visual" : [
                        {
                          "endTime" : 260,
                          "duration" : 30,
                          "range" : [ 230, 30]
                        },
                        {
                          "endTime" : 375,
                          "duration" : 30,
                          "range" : [ 345, 30]
                        },
                        {
                          "endTime" : 1433,
                          "duration" : 30,
                          "range" : [ 1403, 30]
                        },
                        {
                          "endTime" : 1633,
                          "duration" : 30,
                          "range" : [ 1603, 30]
                        },
                        {
                          "endTime" : 2012,
                          "duration" : 30,
                          "range" : [ 1982, 30]
                        }
                      ]
                    }
                  },
                  {
                    "id" : 244,
                    "_type" : "StitchedMedia",
                    "minMediaStart" : 0,
                    "attributes" : {
                      "ident" : "token_hijacking_attack_prevention",
                      "gain" : 1.0,
                      "mixToMono" : false
                    },
                    "parameters" : {
                      "translation0" : {
                        "type" : "double",
                        "defaultValue" : 0.0,
                        "keyframes" : [
                          {
                            "endTime" : 260,
                            "time" : 230,
                            "value" : 6617.65048026514,
                            "duration" : 30
                          },
                          {
                            "endTime" : 375,
                            "time" : 345,
                            "value" : -5.6843418860808e-13,
                            "duration" : 30
                          },
                          {
                            "endTime" : 1433,
                            "time" : 1403,
                            "value" : -544.842863508438,
                            "duration" : 30
                          },
                          {
                            "endTime" : 1633,
                            "time" : 1603,
                            "value" : 0.0,
                            "duration" : 30
                          },
                          {
                            "endTime" : 2012,
                            "time" : 1982,
                            "value" : -910.68970193186,
                            "duration" : 30
                          },
                          {
                            "endTime" : 8838,
                            "time" : 8816,
                            "value" : -502.735147015968,
                            "duration" : 22
                          }
                        ]
                      },
                      "translation1" : {
                        "type" : "double",
                        "defaultValue" : 0.0,
                        "keyframes" : [
                          {
                            "endTime" : 260,
                            "time" : 230,
                            "value" : -3072.65241805758,
                            "duration" : 30
                          },
                          {
                            "endTime" : 375,
                            "time" : 345,
                            "value" : -5.6843418860808e-14,
                            "duration" : 30
                          },
                          {
                            "endTime" : 1433,
                            "time" : 1403,
                            "value" : 5.57225093738339,
                            "duration" : 30
                          },
                          {
                            "endTime" : 1633,
                            "time" : 1603,
                            "value" : -1.0724754417879e-13,
                            "duration" : 30
                          },
                          {
                            "endTime" : 2012,
                            "time" : 1982,
                            "value" : 377.898911972652,
                            "duration" : 30
                          },
                          {
                            "endTime" : 8838,
                            "time" : 8816,
                            "value" : 1508.20260622586,
                            "duration" : 22
                          }
                        ]
                      },
                      "scale0" : {
                        "type" : "double",
                        "defaultValue" : 1.0,
                        "keyframes" : [
                          {
                            "endTime" : 260,
                            "time" : 230,
                            "value" : 6.62127287207902,
                            "duration" : 30
                          },
                          {
                            "endTime" : 375,
                            "time" : 345,
                            "value" : 1.0,
                            "duration" : 30
                          },
                          {
                            "endTime" : 1433,
                            "time" : 1403,
                            "value" : 3.40690314495839,
                            "duration" : 30
                          },
                          {
                            "endTime" : 1633,
                            "time" : 1603,
                            "value" : 1.0,
                            "duration" : 30
                          },
                          {
                            "endTime" : 2012,
                            "time" : 1982,
                            "value" : 1.71147598625338,
                            "duration" : 30
                          },
                          {
                            "endTime" : 8838,
                            "time" : 8816,
                            "value" : 3.60204142445965,
                            "duration" : 22
                          }
                        ]
                      },
                      "scale1" : {
                        "type" : "double",
                        "defaultValue" : 1.0,
                        "keyframes" : [
                          {
                            "endTime" : 260,
                            "time" : 230,
                            "value" : 6.62127291078292,
                            "duration" : 30
                          },
                          {
                            "endTime" : 375,
                            "time" : 345,
                            "value" : 1.0,
                            "duration" : 30
                          },
                          {
                            "endTime" : 1433,
                            "time" : 1403,
                            "value" : 3.40690239557822,
                            "duration" : 30
                          },
                          {
                            "endTime" : 1633,
                            "time" : 1603,
                            "value" : 1.0,
                            "duration" : 30
                          },
                          {
                            "endTime" : 2012,
                            "time" : 1982,
                            "value" : 1.71147597084861,
                            "duration" : 30
                          },
                          {
                            "endTime" : 8838,
                            "time" : 8816,
                            "value" : 3.60204179176516,
                            "duration" : 22
                          }
                        ]
                      },
                      "cursorOpacity" : 1.0,
                      "cursorScale" : 1.0
                    },
                    "medias" : [
                        {
                          "id" : 245,
                          "_type" : "ScreenVMFile",
                          "src" : 1,
                          "trackNumber" : 0,
                          "attributes" : {
                            "ident" : "token_hijacking_attack_prevention"
                          },
                          "parameters" : {
                            "cursorScale" : {
                              "type" : "double",
                              "defaultValue" : 0.0,
                              "interp" : "linr"
                            },
                            "cursorOpacity" : {
                              "type" : "double",
                              "defaultValue" : 0.0,
                              "interp" : "linr"
                            }
                          },
                          "effects" : [

                          ],
                          "start" : 0,
                          "duration" : 276,
                          "mediaStart" : 0,
                          "mediaDuration" : 276,
                          "scalar" : 1,
                          "metadata" : {
                            "AutoAppliedSmartFocus" : "False",
                            "clipSpeedAttribute" : false,
                            "default-scale0" : 1.0,
                            "default-scale1" : 1.0,
                            "default-translation0" : 0.0,
                            "default-translation1" : 0.0
                          },
                          "animationTracks" : {

                          }
                        },
                        {
                          "id" : 246,
                          "_type" : "ScreenIMFile",
                          "src" : 1,
                          "trackNumber" : 0,
                          "trimStartSum" : 0,
                          "attributes" : {
                            "ident" : "token_hijacking_attack_prevention"
                          },
                          "parameters" : {
                            "cursorOpacity" : 0.0,
                            "cursorScale" : 0.0
                          },
                          "effects" : [

                          ],
                          "start" : 276,
                          "duration" : 90,
                          "mediaStart" : 275,
                          "mediaDuration" : 1,
                          "scalar" : 1,
                          "metadata" : {
                            "AutoAppliedSmartFocus" : "False"
                          },
                          "animationTracks" : {

                          }
                        },
                        {
                          "id" : 247,
                          "_type" : "ScreenVMFile",
                          "src" : 1,
                          "trackNumber" : 0,
                          "attributes" : {
                            "ident" : "token_hijacking_attack_prevention"
                          },
                          "parameters" : {
                            "cursorScale" : {
                              "type" : "double",
                              "defaultValue" : 0.0,
                              "interp" : "linr"
                            },
                            "cursorOpacity" : {
                              "type" : "double",
                              "defaultValue" : 0.0,
                              "interp" : "linr"
                            }
                          },
                          "effects" : [

                          ],
                          "start" : 366,
                          "duration" : 61,
                          "mediaStart" : 276,
                          "mediaDuration" : 61,
                          "scalar" : 1,
                          "metadata" : {
                            "AutoAppliedSmartFocus" : "False",
                            "clipSpeedAttribute" : false,
                            "default-scale0" : 1.0,
                            "default-scale1" : 1.0,
                            "default-translation0" : 0.0,
                            "default-translation1" : 0.0
                          },
                          "animationTracks" : {

                          }
                        },
                        {
                          "id" : 248,
                          "_type" : "ScreenIMFile",
                          "src" : 1,
                          "trackNumber" : 0,
                          "trimStartSum" : 0,
                          "attributes" : {
                            "ident" : "token_hijacking_attack_prevention"
                          },
                          "parameters" : {
                            "cursorOpacity" : 0.0,
                            "cursorScale" : 0.0
                          },
                          "effects" : [

                          ],
                          "start" : 427,
                          "duration" : 30,
                          "mediaStart" : 337,
                          "mediaDuration" : 1,
                          "scalar" : 1,
                          "metadata" : {
                            "AutoAppliedSmartFocus" : "False"
                          },
                          "animationTracks" : {

                          }
                        },
                        {
                          "id" : 249,
                          "_type" : "ScreenVMFile",
                          "src" : 1,
                          "trackNumber" : 0,
                          "attributes" : {
                            "ident" : "token_hijacking_attack_prevention"
                          },
                          "parameters" : {
                            "cursorScale" : {
                              "type" : "double",
                              "defaultValue" : 0.0,
                              "interp" : "linr"
                            },
                            "cursorOpacity" : {
                              "type" : "double",
                              "defaultValue" : 0.0,
                              "interp" : "linr"
                            }
                          },
                          "effects" : [

                          ],
                          "start" : 457,
                          "duration" : 1089,
                          "mediaStart" : 337,
                          "mediaDuration" : 1089,
                          "scalar" : 1,
                          "metadata" : {
                            "AutoAppliedSmartFocus" : "False",
                            "clipSpeedAttribute" : false,
                            "default-scale0" : 1.0,
                            "default-scale1" : 1.0,
                            "default-translation0" : 0.0,
                            "default-translation1" : 0.0
                          },
                          "animationTracks" : {

                          }
                        },
                        {
                          "id" : 250,
                          "_type" : "ScreenIMFile",
                          "src" : 1,
                          "trackNumber" : 0,
                          "trimStartSum" : 0,
                          "attributes" : {
                            "ident" : "token_hijacking_attack_prevention"
                          },
                          "parameters" : {
                            "cursorOpacity" : 0.0,
                            "cursorScale" : 0.0
                          },
                          "effects" : [

                          ],
                          "start" : 1546,
                          "duration" : 90,
                          "mediaStart" : 1426,
                          "mediaDuration" : 1,
                          "scalar" : 1,
                          "metadata" : {
                            "AutoAppliedSmartFocus" : "False"
                          },
                          "animationTracks" : {

                          }
                        },
                        {
                          "id" : 251,
                          "_type" : "ScreenVMFile",
                          "src" : 1,
                          "trackNumber" : 0,
                          "attributes" : {
                            "ident" : "token_hijacking_attack_prevention"
                          },
                          "parameters" : {
                            "cursorScale" : {
                              "type" : "double",
                              "defaultValue" : 0.0,
                              "interp" : "linr"
                            },
                            "cursorOpacity" : {
                              "type" : "double",
                              "defaultValue" : 0.0,
                              "interp" : "linr"
                            }
                          },
                          "effects" : [

                          ],
                          "start" : 1636,
                          "duration" : 18876,
                          "mediaStart" : 1426,
                          "mediaDuration" : 18876,
                          "scalar" : 1,
                          "metadata" : {
                            "AutoAppliedSmartFocus" : "False",
                            "clipSpeedAttribute" : false,
                            "default-scale0" : 1.0,
                            "default-scale1" : 1.0,
                            "default-translation0" : 0.0,
                            "default-translation1" : 0.0
                          },
                          "animationTracks" : {

                          }
                        }
                    ],
                    "effects" : [
                        {
                          "effectName" : "CursorHilight",
                          "category" : "categoryCursorEffects",
                          "parameters" : {
                            "blur" : 0.1,
                            "color-alpha" : 0.75,
                            "color-blue" : 0.0,
                            "color-green" : 1.0,
                            "color-red" : 1.0,
                            "radius" : 50.0
                          }
                        }
                    ],
                    "start" : 1541,
                    "duration" : 105,
                    "mediaStart" : 8733,
                    "mediaDuration" : 105,
                    "scalar" : 1,
                    "metadata" : {
                      "AutoAppliedSmartFocus" : "False",
                      "clipSpeedAttribute" : false,
                      "default-scale0" : 3.40690314495839,
                      "default-scale1" : 3.40690239557822,
                      "default-translation0" : -544.842863508438,
                      "default-translation1" : 5.57225093738339
                    },
                    "animationTracks" : {
                      "visual" : [
                        {
                          "endTime" : 260,
                          "duration" : 30,
                          "range" : [ 230, 30]
                        },
                        {
                          "endTime" : 375,
                          "duration" : 30,
                          "range" : [ 345, 30]
                        },
                        {
                          "endTime" : 1433,
                          "duration" : 30,
                          "range" : [ 1403, 30]
                        },
                        {
                          "endTime" : 1633,
                          "duration" : 30,
                          "range" : [ 1603, 30]
                        },
                        {
                          "endTime" : 2012,
                          "duration" : 30,
                          "range" : [ 1982, 30]
                        },
                        {
                          "endTime" : 8838,
                          "duration" : 22,
                          "range" : [ 8816, 22]
                        }
                      ]
                    }
                  },
                  {
                    "id" : 252,
                    "_type" : "StitchedMedia",
                    "minMediaStart" : 0,
                    "attributes" : {
                      "ident" : "token_hijacking_attack_prevention",
                      "gain" : 1.0,
                      "mixToMono" : false
                    },
                    "parameters" : {
                      "translation0" : {
                        "type" : "double",
                        "defaultValue" : 0.0,
                        "keyframes" : [
                          {
                            "endTime" : 260,
                            "time" : 230,
                            "value" : 6617.65048026514,
                            "duration" : 30
                          },
                          {
                            "endTime" : 375,
                            "time" : 345,
                            "value" : -5.6843418860808e-13,
                            "duration" : 30
                          },
                          {
                            "endTime" : 1433,
                            "time" : 1403,
                            "value" : -544.842863508438,
                            "duration" : 30
                          },
                          {
                            "endTime" : 1633,
                            "time" : 1603,
                            "value" : 0.0,
                            "duration" : 30
                          },
                          {
                            "endTime" : 2012,
                            "time" : 1982,
                            "value" : -910.68970193186,
                            "duration" : 30
                          },
                          {
                            "endTime" : 8833,
                            "time" : 8807,
                            "value" : -502.735147015968,
                            "duration" : 26
                          }
                        ]
                      },
                      "translation1" : {
                        "type" : "double",
                        "defaultValue" : 0.0,
                        "keyframes" : [
                          {
                            "endTime" : 260,
                            "time" : 230,
                            "value" : -3072.65241805758,
                            "duration" : 30
                          },
                          {
                            "endTime" : 375,
                            "time" : 345,
                            "value" : -5.6843418860808e-14,
                            "duration" : 30
                          },
                          {
                            "endTime" : 1433,
                            "time" : 1403,
                            "value" : 5.57225093738339,
                            "duration" : 30
                          },
                          {
                            "endTime" : 1633,
                            "time" : 1603,
                            "value" : -1.0724754417879e-13,
                            "duration" : 30
                          },
                          {
                            "endTime" : 2012,
                            "time" : 1982,
                            "value" : 377.898911972652,
                            "duration" : 30
                          },
                          {
                            "endTime" : 8833,
                            "time" : 8807,
                            "value" : 1508.20260622586,
                            "duration" : 26
                          }
                        ]
                      },
                      "scale0" : {
                        "type" : "double",
                        "defaultValue" : 1.0,
                        "keyframes" : [
                          {
                            "endTime" : 260,
                            "time" : 230,
                            "value" : 6.62127287207902,
                            "duration" : 30
                          },
                          {
                            "endTime" : 375,
                            "time" : 345,
                            "value" : 1.0,
                            "duration" : 30
                          },
                          {
                            "endTime" : 1433,
                            "time" : 1403,
                            "value" : 3.40690314495839,
                            "duration" : 30
                          },
                          {
                            "endTime" : 1633,
                            "time" : 1603,
                            "value" : 1.0,
                            "duration" : 30
                          },
                          {
                            "endTime" : 2012,
                            "time" : 1982,
                            "value" : 1.71147598625338,
                            "duration" : 30
                          },
                          {
                            "endTime" : 8833,
                            "time" : 8807,
                            "value" : 3.60204142445965,
                            "duration" : 26
                          }
                        ]
                      },
                      "scale1" : {
                        "type" : "double",
                        "defaultValue" : 1.0,
                        "keyframes" : [
                          {
                            "endTime" : 260,
                            "time" : 230,
                            "value" : 6.62127291078292,
                            "duration" : 30
                          },
                          {
                            "endTime" : 375,
                            "time" : 345,
                            "value" : 1.0,
                            "duration" : 30
                          },
                          {
                            "endTime" : 1433,
                            "time" : 1403,
                            "value" : 3.40690239557822,
                            "duration" : 30
                          },
                          {
                            "endTime" : 1633,
                            "time" : 1603,
                            "value" : 1.0,
                            "duration" : 30
                          },
                          {
                            "endTime" : 2012,
                            "time" : 1982,
                            "value" : 1.71147597084861,
                            "duration" : 30
                          },
                          {
                            "endTime" : 8833,
                            "time" : 8807,
                            "value" : 3.60204179176516,
                            "duration" : 26
                          }
                        ]
                      },
                      "cursorOpacity" : 1.0,
                      "cursorScale" : 1.0
                    },
                    "medias" : [
                        {
                          "id" : 253,
                          "_type" : "ScreenVMFile",
                          "src" : 1,
                          "trackNumber" : 0,
                          "attributes" : {
                            "ident" : "token_hijacking_attack_prevention"
                          },
                          "parameters" : {
                            "cursorScale" : {
                              "type" : "double",
                              "defaultValue" : 0.0,
                              "interp" : "linr"
                            },
                            "cursorOpacity" : {
                              "type" : "double",
                              "defaultValue" : 0.0,
                              "interp" : "linr"
                            }
                          },
                          "effects" : [

                          ],
                          "start" : 0,
                          "duration" : 276,
                          "mediaStart" : 0,
                          "mediaDuration" : 276,
                          "scalar" : 1,
                          "metadata" : {
                            "AutoAppliedSmartFocus" : "False",
                            "clipSpeedAttribute" : false,
                            "default-scale0" : 1.0,
                            "default-scale1" : 1.0,
                            "default-translation0" : 0.0,
                            "default-translation1" : 0.0
                          },
                          "animationTracks" : {

                          }
                        },
                        {
                          "id" : 254,
                          "_type" : "ScreenIMFile",
                          "src" : 1,
                          "trackNumber" : 0,
                          "trimStartSum" : 0,
                          "attributes" : {
                            "ident" : "token_hijacking_attack_prevention"
                          },
                          "parameters" : {
                            "cursorOpacity" : 0.0,
                            "cursorScale" : 0.0
                          },
                          "effects" : [

                          ],
                          "start" : 276,
                          "duration" : 90,
                          "mediaStart" : 275,
                          "mediaDuration" : 1,
                          "scalar" : 1,
                          "metadata" : {
                            "AutoAppliedSmartFocus" : "False"
                          },
                          "animationTracks" : {

                          }
                        },
                        {
                          "id" : 255,
                          "_type" : "ScreenVMFile",
                          "src" : 1,
                          "trackNumber" : 0,
                          "attributes" : {
                            "ident" : "token_hijacking_attack_prevention"
                          },
                          "parameters" : {
                            "cursorScale" : {
                              "type" : "double",
                              "defaultValue" : 0.0,
                              "interp" : "linr"
                            },
                            "cursorOpacity" : {
                              "type" : "double",
                              "defaultValue" : 0.0,
                              "interp" : "linr"
                            }
                          },
                          "effects" : [

                          ],
                          "start" : 366,
                          "duration" : 61,
                          "mediaStart" : 276,
                          "mediaDuration" : 61,
                          "scalar" : 1,
                          "metadata" : {
                            "AutoAppliedSmartFocus" : "False",
                            "clipSpeedAttribute" : false,
                            "default-scale0" : 1.0,
                            "default-scale1" : 1.0,
                            "default-translation0" : 0.0,
                            "default-translation1" : 0.0
                          },
                          "animationTracks" : {

                          }
                        },
                        {
                          "id" : 256,
                          "_type" : "ScreenIMFile",
                          "src" : 1,
                          "trackNumber" : 0,
                          "trimStartSum" : 0,
                          "attributes" : {
                            "ident" : "token_hijacking_attack_prevention"
                          },
                          "parameters" : {
                            "cursorOpacity" : 0.0,
                            "cursorScale" : 0.0
                          },
                          "effects" : [

                          ],
                          "start" : 427,
                          "duration" : 30,
                          "mediaStart" : 337,
                          "mediaDuration" : 1,
                          "scalar" : 1,
                          "metadata" : {
                            "AutoAppliedSmartFocus" : "False"
                          },
                          "animationTracks" : {

                          }
                        },
                        {
                          "id" : 257,
                          "_type" : "ScreenVMFile",
                          "src" : 1,
                          "trackNumber" : 0,
                          "attributes" : {
                            "ident" : "token_hijacking_attack_prevention"
                          },
                          "parameters" : {
                            "cursorScale" : {
                              "type" : "double",
                              "defaultValue" : 0.0,
                              "interp" : "linr"
                            },
                            "cursorOpacity" : {
                              "type" : "double",
                              "defaultValue" : 0.0,
                              "interp" : "linr"
                            }
                          },
                          "effects" : [

                          ],
                          "start" : 457,
                          "duration" : 1089,
                          "mediaStart" : 337,
                          "mediaDuration" : 1089,
                          "scalar" : 1,
                          "metadata" : {
                            "AutoAppliedSmartFocus" : "False",
                            "clipSpeedAttribute" : false,
                            "default-scale0" : 1.0,
                            "default-scale1" : 1.0,
                            "default-translation0" : 0.0,
                            "default-translation1" : 0.0
                          },
                          "animationTracks" : {

                          }
                        },
                        {
                          "id" : 258,
                          "_type" : "ScreenIMFile",
                          "src" : 1,
                          "trackNumber" : 0,
                          "trimStartSum" : 0,
                          "attributes" : {
                            "ident" : "token_hijacking_attack_prevention"
                          },
                          "parameters" : {
                            "cursorOpacity" : 0.0,
                            "cursorScale" : 0.0
                          },
                          "effects" : [

                          ],
                          "start" : 1546,
                          "duration" : 90,
                          "mediaStart" : 1426,
                          "mediaDuration" : 1,
                          "scalar" : 1,
                          "metadata" : {
                            "AutoAppliedSmartFocus" : "False"
                          },
                          "animationTracks" : {

                          }
                        },
                        {
                          "id" : 259,
                          "_type" : "ScreenVMFile",
                          "src" : 1,
                          "trackNumber" : 0,
                          "attributes" : {
                            "ident" : "token_hijacking_attack_prevention"
                          },
                          "parameters" : {
                            "cursorScale" : {
                              "type" : "double",
                              "defaultValue" : 0.0,
                              "interp" : "linr"
                            },
                            "cursorOpacity" : {
                              "type" : "double",
                              "defaultValue" : 0.0,
                              "interp" : "linr"
                            }
                          },
                          "effects" : [

                          ],
                          "start" : 1636,
                          "duration" : 18876,
                          "mediaStart" : 1426,
                          "mediaDuration" : 18876,
                          "scalar" : 1,
                          "metadata" : {
                            "AutoAppliedSmartFocus" : "False",
                            "clipSpeedAttribute" : false,
                            "default-scale0" : 1.0,
                            "default-scale1" : 1.0,
                            "default-translation0" : 0.0,
                            "default-translation1" : 0.0
                          },
                          "animationTracks" : {

                          }
                        }
                    ],
                    "effects" : [
                        {
                          "effectName" : "CursorHilight",
                          "category" : "categoryCursorEffects",
                          "parameters" : {
                            "blur" : 0.1,
                            "color-alpha" : 0.75,
                            "color-blue" : 0.0,
                            "color-green" : 1.0,
                            "color-red" : 1.0,
                            "radius" : 50.0
                          }
                        }
                    ],
                    "start" : 1646,
                    "duration" : 90,
                    "mediaStart" : 8838,
                    "mediaDuration" : 158,
                    "scalar" : "45/79",
                    "metadata" : {
                      "AutoAppliedSmartFocus" : "False",
                      "clipSpeedAttribute" : true,
                      "default-scale0" : 3.40690314495839,
                      "default-scale1" : 3.40690239557822,
                      "default-translation0" : -544.842863508438,
                      "default-translation1" : 5.57225093738339
                    },
                    "animationTracks" : {
                      "visual" : [
                        {
                          "endTime" : 260,
                          "duration" : 30,
                          "range" : [ 230, 30]
                        },
                        {
                          "endTime" : 375,
                          "duration" : 30,
                          "range" : [ 345, 30]
                        },
                        {
                          "endTime" : 1433,
                          "duration" : 30,
                          "range" : [ 1403, 30]
                        },
                        {
                          "endTime" : 1633,
                          "duration" : 30,
                          "range" : [ 1603, 30]
                        },
                        {
                          "endTime" : 2012,
                          "duration" : 30,
                          "range" : [ 1982, 30]
                        },
                        {
                          "endTime" : 8833,
                          "duration" : 26,
                          "range" : [ 8807, 26]
                        }
                      ]
                    }
                  },
                  {
                    "id" : 260,
                    "_type" : "StitchedMedia",
                    "minMediaStart" : 0,
                    "attributes" : {
                      "ident" : "token_hijacking_attack_prevention",
                      "gain" : 1.0,
                      "mixToMono" : false
                    },
                    "parameters" : {
                      "translation0" : {
                        "type" : "double",
                        "defaultValue" : 0.0,
                        "keyframes" : [
                          {
                            "endTime" : 260,
                            "time" : 230,
                            "value" : 6617.65048026514,
                            "duration" : 30
                          },
                          {
                            "endTime" : 375,
                            "time" : 345,
                            "value" : -5.6843418860808e-13,
                            "duration" : 30
                          },
                          {
                            "endTime" : 1433,
                            "time" : 1403,
                            "value" : -544.842863508438,
                            "duration" : 30
                          },
                          {
                            "endTime" : 1633,
                            "time" : 1603,
                            "value" : 0.0,
                            "duration" : 30
                          },
                          {
                            "endTime" : 2012,
                            "time" : 1982,
                            "value" : -910.68970193186,
                            "duration" : 30
                          },
                          {
                            "endTime" : 8833,
                            "time" : 8807,
                            "value" : -502.735147015968,
                            "duration" : 26
                          },
                          {
                            "endTime" : 9253,
                            "time" : 9206,
                            "value" : 1.98951966012828e-13,
                            "duration" : 47
                          }
                        ]
                      },
                      "translation1" : {
                        "type" : "double",
                        "defaultValue" : 0.0,
                        "keyframes" : [
                          {
                            "endTime" : 260,
                            "time" : 230,
                            "value" : -3072.65241805758,
                            "duration" : 30
                          },
                          {
                            "endTime" : 375,
                            "time" : 345,
                            "value" : -5.6843418860808e-14,
                            "duration" : 30
                          },
                          {
                            "endTime" : 1433,
                            "time" : 1403,
                            "value" : 5.57225093738339,
                            "duration" : 30
                          },
                          {
                            "endTime" : 1633,
                            "time" : 1603,
                            "value" : -1.0724754417879e-13,
                            "duration" : 30
                          },
                          {
                            "endTime" : 2012,
                            "time" : 1982,
                            "value" : 377.898911972652,
                            "duration" : 30
                          },
                          {
                            "endTime" : 8833,
                            "time" : 8807,
                            "value" : 1508.20260622586,
                            "duration" : 26
                          },
                          {
                            "endTime" : 9253,
                            "time" : 9206,
                            "value" : 0.0,
                            "duration" : 47
                          }
                        ]
                      },
                      "scale0" : {
                        "type" : "double",
                        "defaultValue" : 1.0,
                        "keyframes" : [
                          {
                            "endTime" : 260,
                            "time" : 230,
                            "value" : 6.62127287207902,
                            "duration" : 30
                          },
                          {
                            "endTime" : 375,
                            "time" : 345,
                            "value" : 1.0,
                            "duration" : 30
                          },
                          {
                            "endTime" : 1433,
                            "time" : 1403,
                            "value" : 3.40690314495839,
                            "duration" : 30
                          },
                          {
                            "endTime" : 1633,
                            "time" : 1603,
                            "value" : 1.0,
                            "duration" : 30
                          },
                          {
                            "endTime" : 2012,
                            "time" : 1982,
                            "value" : 1.71147598625338,
                            "duration" : 30
                          },
                          {
                            "endTime" : 8833,
                            "time" : 8807,
                            "value" : 3.60204142445965,
                            "duration" : 26
                          },
                          {
                            "endTime" : 9253,
                            "time" : 9206,
                            "value" : 0.999999898028527,
                            "duration" : 47
                          }
                        ]
                      },
                      "scale1" : {
                        "type" : "double",
                        "defaultValue" : 1.0,
                        "keyframes" : [
                          {
                            "endTime" : 260,
                            "time" : 230,
                            "value" : 6.62127291078292,
                            "duration" : 30
                          },
                          {
                            "endTime" : 375,
                            "time" : 345,
                            "value" : 1.0,
                            "duration" : 30
                          },
                          {
                            "endTime" : 1433,
                            "time" : 1403,
                            "value" : 3.40690239557822,
                            "duration" : 30
                          },
                          {
                            "endTime" : 1633,
                            "time" : 1603,
                            "value" : 1.0,
                            "duration" : 30
                          },
                          {
                            "endTime" : 2012,
                            "time" : 1982,
                            "value" : 1.71147597084861,
                            "duration" : 30
                          },
                          {
                            "endTime" : 8833,
                            "time" : 8807,
                            "value" : 3.60204179176516,
                            "duration" : 26
                          },
                          {
                            "endTime" : 9253,
                            "time" : 9206,
                            "value" : 1.0,
                            "duration" : 47
                          }
                        ]
                      },
                      "cursorOpacity" : 1.0,
                      "cursorScale" : 1.0
                    },
                    "medias" : [
                        {
                          "id" : 261,
                          "_type" : "ScreenVMFile",
                          "src" : 1,
                          "trackNumber" : 0,
                          "attributes" : {
                            "ident" : "token_hijacking_attack_prevention"
                          },
                          "parameters" : {
                            "cursorScale" : {
                              "type" : "double",
                              "defaultValue" : 0.0,
                              "interp" : "linr"
                            },
                            "cursorOpacity" : {
                              "type" : "double",
                              "defaultValue" : 0.0,
                              "interp" : "linr"
                            }
                          },
                          "effects" : [

                          ],
                          "start" : 0,
                          "duration" : 276,
                          "mediaStart" : 0,
                          "mediaDuration" : 276,
                          "scalar" : 1,
                          "metadata" : {
                            "AutoAppliedSmartFocus" : "False",
                            "clipSpeedAttribute" : false,
                            "default-scale0" : 1.0,
                            "default-scale1" : 1.0,
                            "default-translation0" : 0.0,
                            "default-translation1" : 0.0
                          },
                          "animationTracks" : {

                          }
                        },
                        {
                          "id" : 262,
                          "_type" : "ScreenIMFile",
                          "src" : 1,
                          "trackNumber" : 0,
                          "trimStartSum" : 0,
                          "attributes" : {
                            "ident" : "token_hijacking_attack_prevention"
                          },
                          "parameters" : {
                            "cursorOpacity" : 0.0,
                            "cursorScale" : 0.0
                          },
                          "effects" : [

                          ],
                          "start" : 276,
                          "duration" : 90,
                          "mediaStart" : 275,
                          "mediaDuration" : 1,
                          "scalar" : 1,
                          "metadata" : {
                            "AutoAppliedSmartFocus" : "False"
                          },
                          "animationTracks" : {

                          }
                        },
                        {
                          "id" : 263,
                          "_type" : "ScreenVMFile",
                          "src" : 1,
                          "trackNumber" : 0,
                          "attributes" : {
                            "ident" : "token_hijacking_attack_prevention"
                          },
                          "parameters" : {
                            "cursorScale" : {
                              "type" : "double",
                              "defaultValue" : 0.0,
                              "interp" : "linr"
                            },
                            "cursorOpacity" : {
                              "type" : "double",
                              "defaultValue" : 0.0,
                              "interp" : "linr"
                            }
                          },
                          "effects" : [

                          ],
                          "start" : 366,
                          "duration" : 61,
                          "mediaStart" : 276,
                          "mediaDuration" : 61,
                          "scalar" : 1,
                          "metadata" : {
                            "AutoAppliedSmartFocus" : "False",
                            "clipSpeedAttribute" : false,
                            "default-scale0" : 1.0,
                            "default-scale1" : 1.0,
                            "default-translation0" : 0.0,
                            "default-translation1" : 0.0
                          },
                          "animationTracks" : {

                          }
                        },
                        {
                          "id" : 264,
                          "_type" : "ScreenIMFile",
                          "src" : 1,
                          "trackNumber" : 0,
                          "trimStartSum" : 0,
                          "attributes" : {
                            "ident" : "token_hijacking_attack_prevention"
                          },
                          "parameters" : {
                            "cursorOpacity" : 0.0,
                            "cursorScale" : 0.0
                          },
                          "effects" : [

                          ],
                          "start" : 427,
                          "duration" : 30,
                          "mediaStart" : 337,
                          "mediaDuration" : 1,
                          "scalar" : 1,
                          "metadata" : {
                            "AutoAppliedSmartFocus" : "False"
                          },
                          "animationTracks" : {

                          }
                        },
                        {
                          "id" : 265,
                          "_type" : "ScreenVMFile",
                          "src" : 1,
                          "trackNumber" : 0,
                          "attributes" : {
                            "ident" : "token_hijacking_attack_prevention"
                          },
                          "parameters" : {
                            "cursorScale" : {
                              "type" : "double",
                              "defaultValue" : 0.0,
                              "interp" : "linr"
                            },
                            "cursorOpacity" : {
                              "type" : "double",
                              "defaultValue" : 0.0,
                              "interp" : "linr"
                            }
                          },
                          "effects" : [

                          ],
                          "start" : 457,
                          "duration" : 1089,
                          "mediaStart" : 337,
                          "mediaDuration" : 1089,
                          "scalar" : 1,
                          "metadata" : {
                            "AutoAppliedSmartFocus" : "False",
                            "clipSpeedAttribute" : false,
                            "default-scale0" : 1.0,
                            "default-scale1" : 1.0,
                            "default-translation0" : 0.0,
                            "default-translation1" : 0.0
                          },
                          "animationTracks" : {

                          }
                        },
                        {
                          "id" : 266,
                          "_type" : "ScreenIMFile",
                          "src" : 1,
                          "trackNumber" : 0,
                          "trimStartSum" : 0,
                          "attributes" : {
                            "ident" : "token_hijacking_attack_prevention"
                          },
                          "parameters" : {
                            "cursorOpacity" : 0.0,
                            "cursorScale" : 0.0
                          },
                          "effects" : [

                          ],
                          "start" : 1546,
                          "duration" : 90,
                          "mediaStart" : 1426,
                          "mediaDuration" : 1,
                          "scalar" : 1,
                          "metadata" : {
                            "AutoAppliedSmartFocus" : "False"
                          },
                          "animationTracks" : {

                          }
                        },
                        {
                          "id" : 267,
                          "_type" : "ScreenVMFile",
                          "src" : 1,
                          "trackNumber" : 0,
                          "attributes" : {
                            "ident" : "token_hijacking_attack_prevention"
                          },
                          "parameters" : {
                            "cursorScale" : {
                              "type" : "double",
                              "defaultValue" : 0.0,
                              "interp" : "linr"
                            },
                            "cursorOpacity" : {
                              "type" : "double",
                              "defaultValue" : 0.0,
                              "interp" : "linr"
                            }
                          },
                          "effects" : [

                          ],
                          "start" : 1636,
                          "duration" : 18876,
                          "mediaStart" : 1426,
                          "mediaDuration" : 18876,
                          "scalar" : 1,
                          "metadata" : {
                            "AutoAppliedSmartFocus" : "False",
                            "clipSpeedAttribute" : false,
                            "default-scale0" : 1.0,
                            "default-scale1" : 1.0,
                            "default-translation0" : 0.0,
                            "default-translation1" : 0.0
                          },
                          "animationTracks" : {

                          }
                        }
                    ],
                    "effects" : [
                        {
                          "effectName" : "CursorHilight",
                          "category" : "categoryCursorEffects",
                          "parameters" : {
                            "blur" : 0.1,
                            "color-alpha" : 0.75,
                            "color-blue" : 0.0,
                            "color-green" : 1.0,
                            "color-red" : 1.0,
                            "radius" : 50.0
                          }
                        }
                    ],
                    "start" : 1736,
                    "duration" : 74,
                    "mediaStart" : 9072,
                    "mediaDuration" : 131,
                    "scalar" : "74/131",
                    "metadata" : {
                      "AutoAppliedSmartFocus" : "False",
                      "clipSpeedAttribute" : true,
                      "default-scale0" : 3.40690314495839,
                      "default-scale1" : 3.40690239557822,
                      "default-translation0" : -544.842863508438,
                      "default-translation1" : 5.57225093738339
                    },
                    "animationTracks" : {
                      "visual" : [
                        {
                          "endTime" : 260,
                          "duration" : 30,
                          "range" : [ 230, 30]
                        },
                        {
                          "endTime" : 375,
                          "duration" : 30,
                          "range" : [ 345, 30]
                        },
                        {
                          "endTime" : 1433,
                          "duration" : 30,
                          "range" : [ 1403, 30]
                        },
                        {
                          "endTime" : 1633,
                          "duration" : 30,
                          "range" : [ 1603, 30]
                        },
                        {
                          "endTime" : 2012,
                          "duration" : 30,
                          "range" : [ 1982, 30]
                        },
                        {
                          "endTime" : 8833,
                          "duration" : 26,
                          "range" : [ 8807, 26]
                        },
                        {
                          "endTime" : 9253,
                          "duration" : 47,
                          "range" : [ 9206, 47]
                        }
                      ]
                    }
                  },
                  {
                    "id" : 268,
                    "_type" : "StitchedMedia",
                    "minMediaStart" : 0,
                    "attributes" : {
                      "ident" : "token_hijacking_attack_prevention",
                      "gain" : 1.0,
                      "mixToMono" : false
                    },
                    "parameters" : {
                      "translation0" : {
                        "type" : "double",
                        "defaultValue" : 0.0,
                        "keyframes" : [
                          {
                            "endTime" : 260,
                            "time" : 230,
                            "value" : 6617.65048026514,
                            "duration" : 30
                          },
                          {
                            "endTime" : 375,
                            "time" : 345,
                            "value" : -5.6843418860808e-13,
                            "duration" : 30
                          },
                          {
                            "endTime" : 1433,
                            "time" : 1403,
                            "value" : -544.842863508438,
                            "duration" : 30
                          },
                          {
                            "endTime" : 1633,
                            "time" : 1603,
                            "value" : 0.0,
                            "duration" : 30
                          },
                          {
                            "endTime" : 2012,
                            "time" : 1982,
                            "value" : -910.68970193186,
                            "duration" : 30
                          },
                          {
                            "endTime" : 8833,
                            "time" : 8807,
                            "value" : -502.735147015968,
                            "duration" : 26
                          },
                          {
                            "endTime" : 9253,
                            "time" : 9206,
                            "value" : 1.98951966012828e-13,
                            "duration" : 47
                          },
                          {
                            "endTime" : 9287,
                            "time" : 9257,
                            "value" : 2077.8234427351,
                            "duration" : 30
                          }
                        ]
                      },
                      "translation1" : {
                        "type" : "double",
                        "defaultValue" : 0.0,
                        "keyframes" : [
                          {
                            "endTime" : 260,
                            "time" : 230,
                            "value" : -3072.65241805758,
                            "duration" : 30
                          },
                          {
                            "endTime" : 375,
                            "time" : 345,
                            "value" : -5.6843418860808e-14,
                            "duration" : 30
                          },
                          {
                            "endTime" : 1433,
                            "time" : 1403,
                            "value" : 5.57225093738339,
                            "duration" : 30
                          },
                          {
                            "endTime" : 1633,
                            "time" : 1603,
                            "value" : -1.0724754417879e-13,
                            "duration" : 30
                          },
                          {
                            "endTime" : 2012,
                            "time" : 1982,
                            "value" : 377.898911972652,
                            "duration" : 30
                          },
                          {
                            "endTime" : 8833,
                            "time" : 8807,
                            "value" : 1508.20260622586,
                            "duration" : 26
                          },
                          {
                            "endTime" : 9253,
                            "time" : 9206,
                            "value" : 0.0,
                            "duration" : 47
                          },
                          {
                            "endTime" : 9287,
                            "time" : 9257,
                            "value" : -66.7870775612071,
                            "duration" : 30
                          }
                        ]
                      },
                      "scale0" : {
                        "type" : "double",
                        "defaultValue" : 1.0,
                        "keyframes" : [
                          {
                            "endTime" : 260,
                            "time" : 230,
                            "value" : 6.62127287207902,
                            "duration" : 30
                          },
                          {
                            "endTime" : 375,
                            "time" : 345,
                            "value" : 1.0,
                            "duration" : 30
                          },
                          {
                            "endTime" : 1433,
                            "time" : 1403,
                            "value" : 3.40690314495839,
                            "duration" : 30
                          },
                          {
                            "endTime" : 1633,
                            "time" : 1603,
                            "value" : 1.0,
                            "duration" : 30
                          },
                          {
                            "endTime" : 2012,
                            "time" : 1982,
                            "value" : 1.71147598625338,
                            "duration" : 30
                          },
                          {
                            "endTime" : 8833,
                            "time" : 8807,
                            "value" : 3.60204142445965,
                            "duration" : 26
                          },
                          {
                            "endTime" : 9253,
                            "time" : 9206,
                            "value" : 0.999999898028527,
                            "duration" : 47
                          },
                          {
                            "endTime" : 9287,
                            "time" : 9257,
                            "value" : 2.87114235039259,
                            "duration" : 30
                          }
                        ]
                      },
                      "scale1" : {
                        "type" : "double",
                        "defaultValue" : 1.0,
                        "keyframes" : [
                          {
                            "endTime" : 260,
                            "time" : 230,
                            "value" : 6.62127291078292,
                            "duration" : 30
                          },
                          {
                            "endTime" : 375,
                            "time" : 345,
                            "value" : 1.0,
                            "duration" : 30
                          },
                          {
                            "endTime" : 1433,
                            "time" : 1403,
                            "value" : 3.40690239557822,
                            "duration" : 30
                          },
                          {
                            "endTime" : 1633,
                            "time" : 1603,
                            "value" : 1.0,
                            "duration" : 30
                          },
                          {
                            "endTime" : 2012,
                            "time" : 1982,
                            "value" : 1.71147597084861,
                            "duration" : 30
                          },
                          {
                            "endTime" : 8833,
                            "time" : 8807,
                            "value" : 3.60204179176516,
                            "duration" : 26
                          },
                          {
                            "endTime" : 9253,
                            "time" : 9206,
                            "value" : 1.0,
                            "duration" : 47
                          },
                          {
                            "endTime" : 9287,
                            "time" : 9257,
                            "value" : 2.87114306984122,
                            "duration" : 30
                          }
                        ]
                      },
                      "cursorOpacity" : 1.0,
                      "cursorScale" : 1.0
                    },
                    "medias" : [
                        {
                          "id" : 269,
                          "_type" : "ScreenVMFile",
                          "src" : 1,
                          "trackNumber" : 0,
                          "attributes" : {
                            "ident" : "token_hijacking_attack_prevention"
                          },
                          "parameters" : {
                            "cursorScale" : {
                              "type" : "double",
                              "defaultValue" : 0.0,
                              "interp" : "linr"
                            },
                            "cursorOpacity" : {
                              "type" : "double",
                              "defaultValue" : 0.0,
                              "interp" : "linr"
                            }
                          },
                          "effects" : [

                          ],
                          "start" : 0,
                          "duration" : 276,
                          "mediaStart" : 0,
                          "mediaDuration" : 276,
                          "scalar" : 1,
                          "metadata" : {
                            "AutoAppliedSmartFocus" : "False",
                            "clipSpeedAttribute" : false,
                            "default-scale0" : 1.0,
                            "default-scale1" : 1.0,
                            "default-translation0" : 0.0,
                            "default-translation1" : 0.0
                          },
                          "animationTracks" : {

                          }
                        },
                        {
                          "id" : 270,
                          "_type" : "ScreenIMFile",
                          "src" : 1,
                          "trackNumber" : 0,
                          "trimStartSum" : 0,
                          "attributes" : {
                            "ident" : "token_hijacking_attack_prevention"
                          },
                          "parameters" : {
                            "cursorOpacity" : 0.0,
                            "cursorScale" : 0.0
                          },
                          "effects" : [

                          ],
                          "start" : 276,
                          "duration" : 90,
                          "mediaStart" : 275,
                          "mediaDuration" : 1,
                          "scalar" : 1,
                          "metadata" : {
                            "AutoAppliedSmartFocus" : "False"
                          },
                          "animationTracks" : {

                          }
                        },
                        {
                          "id" : 271,
                          "_type" : "ScreenVMFile",
                          "src" : 1,
                          "trackNumber" : 0,
                          "attributes" : {
                            "ident" : "token_hijacking_attack_prevention"
                          },
                          "parameters" : {
                            "cursorScale" : {
                              "type" : "double",
                              "defaultValue" : 0.0,
                              "interp" : "linr"
                            },
                            "cursorOpacity" : {
                              "type" : "double",
                              "defaultValue" : 0.0,
                              "interp" : "linr"
                            }
                          },
                          "effects" : [

                          ],
                          "start" : 366,
                          "duration" : 61,
                          "mediaStart" : 276,
                          "mediaDuration" : 61,
                          "scalar" : 1,
                          "metadata" : {
                            "AutoAppliedSmartFocus" : "False",
                            "clipSpeedAttribute" : false,
                            "default-scale0" : 1.0,
                            "default-scale1" : 1.0,
                            "default-translation0" : 0.0,
                            "default-translation1" : 0.0
                          },
                          "animationTracks" : {

                          }
                        },
                        {
                          "id" : 272,
                          "_type" : "ScreenIMFile",
                          "src" : 1,
                          "trackNumber" : 0,
                          "trimStartSum" : 0,
                          "attributes" : {
                            "ident" : "token_hijacking_attack_prevention"
                          },
                          "parameters" : {
                            "cursorOpacity" : 0.0,
                            "cursorScale" : 0.0
                          },
                          "effects" : [

                          ],
                          "start" : 427,
                          "duration" : 30,
                          "mediaStart" : 337,
                          "mediaDuration" : 1,
                          "scalar" : 1,
                          "metadata" : {
                            "AutoAppliedSmartFocus" : "False"
                          },
                          "animationTracks" : {

                          }
                        },
                        {
                          "id" : 273,
                          "_type" : "ScreenVMFile",
                          "src" : 1,
                          "trackNumber" : 0,
                          "attributes" : {
                            "ident" : "token_hijacking_attack_prevention"
                          },
                          "parameters" : {
                            "cursorScale" : {
                              "type" : "double",
                              "defaultValue" : 0.0,
                              "interp" : "linr"
                            },
                            "cursorOpacity" : {
                              "type" : "double",
                              "defaultValue" : 0.0,
                              "interp" : "linr"
                            }
                          },
                          "effects" : [

                          ],
                          "start" : 457,
                          "duration" : 1089,
                          "mediaStart" : 337,
                          "mediaDuration" : 1089,
                          "scalar" : 1,
                          "metadata" : {
                            "AutoAppliedSmartFocus" : "False",
                            "clipSpeedAttribute" : false,
                            "default-scale0" : 1.0,
                            "default-scale1" : 1.0,
                            "default-translation0" : 0.0,
                            "default-translation1" : 0.0
                          },
                          "animationTracks" : {

                          }
                        },
                        {
                          "id" : 274,
                          "_type" : "ScreenIMFile",
                          "src" : 1,
                          "trackNumber" : 0,
                          "trimStartSum" : 0,
                          "attributes" : {
                            "ident" : "token_hijacking_attack_prevention"
                          },
                          "parameters" : {
                            "cursorOpacity" : 0.0,
                            "cursorScale" : 0.0
                          },
                          "effects" : [

                          ],
                          "start" : 1546,
                          "duration" : 90,
                          "mediaStart" : 1426,
                          "mediaDuration" : 1,
                          "scalar" : 1,
                          "metadata" : {
                            "AutoAppliedSmartFocus" : "False"
                          },
                          "animationTracks" : {

                          }
                        },
                        {
                          "id" : 275,
                          "_type" : "ScreenVMFile",
                          "src" : 1,
                          "trackNumber" : 0,
                          "attributes" : {
                            "ident" : "token_hijacking_attack_prevention"
                          },
                          "parameters" : {
                            "cursorScale" : {
                              "type" : "double",
                              "defaultValue" : 0.0,
                              "interp" : "linr"
                            },
                            "cursorOpacity" : {
                              "type" : "double",
                              "defaultValue" : 0.0,
                              "interp" : "linr"
                            }
                          },
                          "effects" : [

                          ],
                          "start" : 1636,
                          "duration" : 18876,
                          "mediaStart" : 1426,
                          "mediaDuration" : 18876,
                          "scalar" : 1,
                          "metadata" : {
                            "AutoAppliedSmartFocus" : "False",
                            "clipSpeedAttribute" : false,
                            "default-scale0" : 1.0,
                            "default-scale1" : 1.0,
                            "default-translation0" : 0.0,
                            "default-translation1" : 0.0
                          },
                          "animationTracks" : {

                          }
                        }
                    ],
                    "effects" : [
                        {
                          "effectName" : "CursorHilight",
                          "category" : "categoryCursorEffects",
                          "parameters" : {
                            "blur" : 0.1,
                            "color-alpha" : 0.75,
                            "color-blue" : 0.0,
                            "color-green" : 1.0,
                            "color-red" : 1.0,
                            "radius" : 50.0
                          }
                        }
                    ],
                    "start" : 1810,
                    "duration" : 89,
                    "mediaStart" : 9203,
                    "mediaDuration" : 89,
                    "scalar" : 1,
                    "metadata" : {
                      "AutoAppliedSmartFocus" : "False",
                      "clipSpeedAttribute" : false,
                      "default-scale0" : 3.40690314495839,
                      "default-scale1" : 3.40690239557822,
                      "default-translation0" : -544.842863508438,
                      "default-translation1" : 5.57225093738339
                    },
                    "animationTracks" : {
                      "visual" : [
                        {
                          "endTime" : 260,
                          "duration" : 30,
                          "range" : [ 230, 30]
                        },
                        {
                          "endTime" : 375,
                          "duration" : 30,
                          "range" : [ 345, 30]
                        },
                        {
                          "endTime" : 1433,
                          "duration" : 30,
                          "range" : [ 1403, 30]
                        },
                        {
                          "endTime" : 1633,
                          "duration" : 30,
                          "range" : [ 1603, 30]
                        },
                        {
                          "endTime" : 2012,
                          "duration" : 30,
                          "range" : [ 1982, 30]
                        },
                        {
                          "endTime" : 8833,
                          "duration" : 26,
                          "range" : [ 8807, 26]
                        },
                        {
                          "endTime" : 9253,
                          "duration" : 47,
                          "range" : [ 9206, 47]
                        },
                        {
                          "endTime" : 9287,
                          "duration" : 30,
                          "range" : [ 9257, 30]
                        }
                      ]
                    }
                  },
                  {
                    "id" : 276,
                    "_type" : "StitchedMedia",
                    "minMediaStart" : 0,
                    "attributes" : {
                      "ident" : "token_hijacking_attack_prevention",
                      "gain" : 1.0,
                      "mixToMono" : false
                    },
                    "parameters" : {
                      "translation0" : {
                        "type" : "double",
                        "defaultValue" : 0.0,
                        "keyframes" : [
                          {
                            "endTime" : 260,
                            "time" : 230,
                            "value" : 6617.65048026514,
                            "duration" : 30
                          },
                          {
                            "endTime" : 375,
                            "time" : 345,
                            "value" : -5.6843418860808e-13,
                            "duration" : 30
                          },
                          {
                            "endTime" : 1433,
                            "time" : 1403,
                            "value" : -544.842863508438,
                            "duration" : 30
                          },
                          {
                            "endTime" : 1633,
                            "time" : 1603,
                            "value" : 0.0,
                            "duration" : 30
                          },
                          {
                            "endTime" : 2012,
                            "time" : 1982,
                            "value" : -910.68970193186,
                            "duration" : 30
                          },
                          {
                            "endTime" : 8833,
                            "time" : 8807,
                            "value" : -502.735147015968,
                            "duration" : 26
                          },
                          {
                            "endTime" : 9253,
                            "time" : 9206,
                            "value" : 1.98951966012828e-13,
                            "duration" : 47
                          },
                          {
                            "endTime" : 9287,
                            "time" : 9257,
                            "value" : 2077.8234427351,
                            "duration" : 30
                          }
                        ]
                      },
                      "translation1" : {
                        "type" : "double",
                        "defaultValue" : 0.0,
                        "keyframes" : [
                          {
                            "endTime" : 260,
                            "time" : 230,
                            "value" : -3072.65241805758,
                            "duration" : 30
                          },
                          {
                            "endTime" : 375,
                            "time" : 345,
                            "value" : -5.6843418860808e-14,
                            "duration" : 30
                          },
                          {
                            "endTime" : 1433,
                            "time" : 1403,
                            "value" : 5.57225093738339,
                            "duration" : 30
                          },
                          {
                            "endTime" : 1633,
                            "time" : 1603,
                            "value" : -1.0724754417879e-13,
                            "duration" : 30
                          },
                          {
                            "endTime" : 2012,
                            "time" : 1982,
                            "value" : 377.898911972652,
                            "duration" : 30
                          },
                          {
                            "endTime" : 8833,
                            "time" : 8807,
                            "value" : 1508.20260622586,
                            "duration" : 26
                          },
                          {
                            "endTime" : 9253,
                            "time" : 9206,
                            "value" : 0.0,
                            "duration" : 47
                          },
                          {
                            "endTime" : 9287,
                            "time" : 9257,
                            "value" : -66.7870775612071,
                            "duration" : 30
                          }
                        ]
                      },
                      "scale0" : {
                        "type" : "double",
                        "defaultValue" : 1.0,
                        "keyframes" : [
                          {
                            "endTime" : 260,
                            "time" : 230,
                            "value" : 6.62127287207902,
                            "duration" : 30
                          },
                          {
                            "endTime" : 375,
                            "time" : 345,
                            "value" : 1.0,
                            "duration" : 30
                          },
                          {
                            "endTime" : 1433,
                            "time" : 1403,
                            "value" : 3.40690314495839,
                            "duration" : 30
                          },
                          {
                            "endTime" : 1633,
                            "time" : 1603,
                            "value" : 1.0,
                            "duration" : 30
                          },
                          {
                            "endTime" : 2012,
                            "time" : 1982,
                            "value" : 1.71147598625338,
                            "duration" : 30
                          },
                          {
                            "endTime" : 8833,
                            "time" : 8807,
                            "value" : 3.60204142445965,
                            "duration" : 26
                          },
                          {
                            "endTime" : 9253,
                            "time" : 9206,
                            "value" : 0.999999898028527,
                            "duration" : 47
                          },
                          {
                            "endTime" : 9287,
                            "time" : 9257,
                            "value" : 2.87114235039259,
                            "duration" : 30
                          }
                        ]
                      },
                      "scale1" : {
                        "type" : "double",
                        "defaultValue" : 1.0,
                        "keyframes" : [
                          {
                            "endTime" : 260,
                            "time" : 230,
                            "value" : 6.62127291078292,
                            "duration" : 30
                          },
                          {
                            "endTime" : 375,
                            "time" : 345,
                            "value" : 1.0,
                            "duration" : 30
                          },
                          {
                            "endTime" : 1433,
                            "time" : 1403,
                            "value" : 3.40690239557822,
                            "duration" : 30
                          },
                          {
                            "endTime" : 1633,
                            "time" : 1603,
                            "value" : 1.0,
                            "duration" : 30
                          },
                          {
                            "endTime" : 2012,
                            "time" : 1982,
                            "value" : 1.71147597084861,
                            "duration" : 30
                          },
                          {
                            "endTime" : 8833,
                            "time" : 8807,
                            "value" : 3.60204179176516,
                            "duration" : 26
                          },
                          {
                            "endTime" : 9253,
                            "time" : 9206,
                            "value" : 1.0,
                            "duration" : 47
                          },
                          {
                            "endTime" : 9287,
                            "time" : 9257,
                            "value" : 2.87114306984122,
                            "duration" : 30
                          }
                        ]
                      },
                      "cursorOpacity" : 1.0,
                      "cursorScale" : 1.0
                    },
                    "medias" : [
                        {
                          "id" : 277,
                          "_type" : "ScreenVMFile",
                          "src" : 1,
                          "trackNumber" : 0,
                          "attributes" : {
                            "ident" : "token_hijacking_attack_prevention"
                          },
                          "parameters" : {
                            "cursorScale" : {
                              "type" : "double",
                              "defaultValue" : 0.0,
                              "interp" : "linr"
                            },
                            "cursorOpacity" : {
                              "type" : "double",
                              "defaultValue" : 0.0,
                              "interp" : "linr"
                            }
                          },
                          "effects" : [

                          ],
                          "start" : 0,
                          "duration" : 276,
                          "mediaStart" : 0,
                          "mediaDuration" : 276,
                          "scalar" : 1,
                          "metadata" : {
                            "AutoAppliedSmartFocus" : "False",
                            "clipSpeedAttribute" : false,
                            "default-scale0" : 1.0,
                            "default-scale1" : 1.0,
                            "default-translation0" : 0.0,
                            "default-translation1" : 0.0
                          },
                          "animationTracks" : {

                          }
                        },
                        {
                          "id" : 278,
                          "_type" : "ScreenIMFile",
                          "src" : 1,
                          "trackNumber" : 0,
                          "trimStartSum" : 0,
                          "attributes" : {
                            "ident" : "token_hijacking_attack_prevention"
                          },
                          "parameters" : {
                            "cursorOpacity" : 0.0,
                            "cursorScale" : 0.0
                          },
                          "effects" : [

                          ],
                          "start" : 276,
                          "duration" : 90,
                          "mediaStart" : 275,
                          "mediaDuration" : 1,
                          "scalar" : 1,
                          "metadata" : {
                            "AutoAppliedSmartFocus" : "False"
                          },
                          "animationTracks" : {

                          }
                        },
                        {
                          "id" : 279,
                          "_type" : "ScreenVMFile",
                          "src" : 1,
                          "trackNumber" : 0,
                          "attributes" : {
                            "ident" : "token_hijacking_attack_prevention"
                          },
                          "parameters" : {
                            "cursorScale" : {
                              "type" : "double",
                              "defaultValue" : 0.0,
                              "interp" : "linr"
                            },
                            "cursorOpacity" : {
                              "type" : "double",
                              "defaultValue" : 0.0,
                              "interp" : "linr"
                            }
                          },
                          "effects" : [

                          ],
                          "start" : 366,
                          "duration" : 61,
                          "mediaStart" : 276,
                          "mediaDuration" : 61,
                          "scalar" : 1,
                          "metadata" : {
                            "AutoAppliedSmartFocus" : "False",
                            "clipSpeedAttribute" : false,
                            "default-scale0" : 1.0,
                            "default-scale1" : 1.0,
                            "default-translation0" : 0.0,
                            "default-translation1" : 0.0
                          },
                          "animationTracks" : {

                          }
                        },
                        {
                          "id" : 280,
                          "_type" : "ScreenIMFile",
                          "src" : 1,
                          "trackNumber" : 0,
                          "trimStartSum" : 0,
                          "attributes" : {
                            "ident" : "token_hijacking_attack_prevention"
                          },
                          "parameters" : {
                            "cursorOpacity" : 0.0,
                            "cursorScale" : 0.0
                          },
                          "effects" : [

                          ],
                          "start" : 427,
                          "duration" : 30,
                          "mediaStart" : 337,
                          "mediaDuration" : 1,
                          "scalar" : 1,
                          "metadata" : {
                            "AutoAppliedSmartFocus" : "False"
                          },
                          "animationTracks" : {

                          }
                        },
                        {
                          "id" : 281,
                          "_type" : "ScreenVMFile",
                          "src" : 1,
                          "trackNumber" : 0,
                          "attributes" : {
                            "ident" : "token_hijacking_attack_prevention"
                          },
                          "parameters" : {
                            "cursorScale" : {
                              "type" : "double",
                              "defaultValue" : 0.0,
                              "interp" : "linr"
                            },
                            "cursorOpacity" : {
                              "type" : "double",
                              "defaultValue" : 0.0,
                              "interp" : "linr"
                            }
                          },
                          "effects" : [

                          ],
                          "start" : 457,
                          "duration" : 1089,
                          "mediaStart" : 337,
                          "mediaDuration" : 1089,
                          "scalar" : 1,
                          "metadata" : {
                            "AutoAppliedSmartFocus" : "False",
                            "clipSpeedAttribute" : false,
                            "default-scale0" : 1.0,
                            "default-scale1" : 1.0,
                            "default-translation0" : 0.0,
                            "default-translation1" : 0.0
                          },
                          "animationTracks" : {

                          }
                        },
                        {
                          "id" : 282,
                          "_type" : "ScreenIMFile",
                          "src" : 1,
                          "trackNumber" : 0,
                          "trimStartSum" : 0,
                          "attributes" : {
                            "ident" : "token_hijacking_attack_prevention"
                          },
                          "parameters" : {
                            "cursorOpacity" : 0.0,
                            "cursorScale" : 0.0
                          },
                          "effects" : [

                          ],
                          "start" : 1546,
                          "duration" : 90,
                          "mediaStart" : 1426,
                          "mediaDuration" : 1,
                          "scalar" : 1,
                          "metadata" : {
                            "AutoAppliedSmartFocus" : "False"
                          },
                          "animationTracks" : {

                          }
                        },
                        {
                          "id" : 283,
                          "_type" : "ScreenVMFile",
                          "src" : 1,
                          "trackNumber" : 0,
                          "attributes" : {
                            "ident" : "token_hijacking_attack_prevention"
                          },
                          "parameters" : {
                            "cursorScale" : {
                              "type" : "double",
                              "defaultValue" : 0.0,
                              "interp" : "linr"
                            },
                            "cursorOpacity" : {
                              "type" : "double",
                              "defaultValue" : 0.0,
                              "interp" : "linr"
                            }
                          },
                          "effects" : [

                          ],
                          "start" : 1636,
                          "duration" : 18876,
                          "mediaStart" : 1426,
                          "mediaDuration" : 18876,
                          "scalar" : 1,
                          "metadata" : {
                            "AutoAppliedSmartFocus" : "False",
                            "clipSpeedAttribute" : false,
                            "default-scale0" : 1.0,
                            "default-scale1" : 1.0,
                            "default-translation0" : 0.0,
                            "default-translation1" : 0.0
                          },
                          "animationTracks" : {

                          }
                        }
                    ],
                    "effects" : [
                        {
                          "effectName" : "CursorHilight",
                          "category" : "categoryCursorEffects",
                          "parameters" : {
                            "blur" : 0.1,
                            "color-alpha" : 0.75,
                            "color-blue" : 0.0,
                            "color-green" : 1.0,
                            "color-red" : 1.0,
                            "radius" : 50.0
                          }
                        }
                    ],
                    "start" : 1899,
                    "duration" : 75,
                    "mediaStart" : 9468,
                    "mediaDuration" : 139,
                    "scalar" : "75/139",
                    "metadata" : {
                      "AutoAppliedSmartFocus" : "False",
                      "clipSpeedAttribute" : true,
                      "default-scale0" : 3.40690314495839,
                      "default-scale1" : 3.40690239557822,
                      "default-translation0" : -544.842863508438,
                      "default-translation1" : 5.57225093738339
                    },
                    "animationTracks" : {
                      "visual" : [
                        {
                          "endTime" : 260,
                          "duration" : 30,
                          "range" : [ 230, 30]
                        },
                        {
                          "endTime" : 375,
                          "duration" : 30,
                          "range" : [ 345, 30]
                        },
                        {
                          "endTime" : 1433,
                          "duration" : 30,
                          "range" : [ 1403, 30]
                        },
                        {
                          "endTime" : 1633,
                          "duration" : 30,
                          "range" : [ 1603, 30]
                        },
                        {
                          "endTime" : 2012,
                          "duration" : 30,
                          "range" : [ 1982, 30]
                        },
                        {
                          "endTime" : 8833,
                          "duration" : 26,
                          "range" : [ 8807, 26]
                        },
                        {
                          "endTime" : 9253,
                          "duration" : 47,
                          "range" : [ 9206, 47]
                        },
                        {
                          "endTime" : 9287,
                          "duration" : 30,
                          "range" : [ 9257, 30]
                        }
                      ]
                    }
                  },
                  {
                    "id" : 284,
                    "_type" : "StitchedMedia",
                    "minMediaStart" : 0,
                    "attributes" : {
                      "ident" : "token_hijacking_attack_prevention",
                      "gain" : 1.0,
                      "mixToMono" : false
                    },
                    "parameters" : {
                      "translation0" : {
                        "type" : "double",
                        "defaultValue" : 0.0,
                        "keyframes" : [
                          {
                            "endTime" : 260,
                            "time" : 230,
                            "value" : 6617.65048026514,
                            "duration" : 30
                          },
                          {
                            "endTime" : 375,
                            "time" : 345,
                            "value" : -5.6843418860808e-13,
                            "duration" : 30
                          },
                          {
                            "endTime" : 1433,
                            "time" : 1403,
                            "value" : -544.842863508438,
                            "duration" : 30
                          },
                          {
                            "endTime" : 1633,
                            "time" : 1603,
                            "value" : 0.0,
                            "duration" : 30
                          },
                          {
                            "endTime" : 2012,
                            "time" : 1982,
                            "value" : -910.68970193186,
                            "duration" : 30
                          },
                          {
                            "endTime" : 8833,
                            "time" : 8807,
                            "value" : -502.735147015968,
                            "duration" : 26
                          },
                          {
                            "endTime" : 9253,
                            "time" : 9206,
                            "value" : 1.98951966012828e-13,
                            "duration" : 47
                          },
                          {
                            "endTime" : 9287,
                            "time" : 9257,
                            "value" : 2077.8234427351,
                            "duration" : 30
                          },
                          {
                            "endTime" : 9834,
                            "time" : 9804,
                            "value" : 3.41060513164848e-13,
                            "duration" : 30
                          }
                        ]
                      },
                      "translation1" : {
                        "type" : "double",
                        "defaultValue" : 0.0,
                        "keyframes" : [
                          {
                            "endTime" : 260,
                            "time" : 230,
                            "value" : -3072.65241805758,
                            "duration" : 30
                          },
                          {
                            "endTime" : 375,
                            "time" : 345,
                            "value" : -5.6843418860808e-14,
                            "duration" : 30
                          },
                          {
                            "endTime" : 1433,
                            "time" : 1403,
                            "value" : 5.57225093738339,
                            "duration" : 30
                          },
                          {
                            "endTime" : 1633,
                            "time" : 1603,
                            "value" : -1.0724754417879e-13,
                            "duration" : 30
                          },
                          {
                            "endTime" : 2012,
                            "time" : 1982,
                            "value" : 377.898911972652,
                            "duration" : 30
                          },
                          {
                            "endTime" : 8833,
                            "time" : 8807,
                            "value" : 1508.20260622586,
                            "duration" : 26
                          },
                          {
                            "endTime" : 9253,
                            "time" : 9206,
                            "value" : 0.0,
                            "duration" : 47
                          },
                          {
                            "endTime" : 9287,
                            "time" : 9257,
                            "value" : -66.7870775612071,
                            "duration" : 30
                          },
                          {
                            "endTime" : 9834,
                            "time" : 9804,
                            "value" : -4.9737991503207e-14,
                            "duration" : 30
                          }
                        ]
                      },
                      "scale0" : {
                        "type" : "double",
                        "defaultValue" : 1.0,
                        "keyframes" : [
                          {
                            "endTime" : 260,
                            "time" : 230,
                            "value" : 6.62127287207902,
                            "duration" : 30
                          },
                          {
                            "endTime" : 375,
                            "time" : 345,
                            "value" : 1.0,
                            "duration" : 30
                          },
                          {
                            "endTime" : 1433,
                            "time" : 1403,
                            "value" : 3.40690314495839,
                            "duration" : 30
                          },
                          {
                            "endTime" : 1633,
                            "time" : 1603,
                            "value" : 1.0,
                            "duration" : 30
                          },
                          {
                            "endTime" : 2012,
                            "time" : 1982,
                            "value" : 1.71147598625338,
                            "duration" : 30
                          },
                          {
                            "endTime" : 8833,
                            "time" : 8807,
                            "value" : 3.60204142445965,
                            "duration" : 26
                          },
                          {
                            "endTime" : 9253,
                            "time" : 9206,
                            "value" : 0.999999898028527,
                            "duration" : 47
                          },
                          {
                            "endTime" : 9287,
                            "time" : 9257,
                            "value" : 2.87114235039259,
                            "duration" : 30
                          },
                          {
                            "endTime" : 9834,
                            "time" : 9804,
                            "value" : 0.999999749420839,
                            "duration" : 30
                          }
                        ]
                      },
                      "scale1" : {
                        "type" : "double",
                        "defaultValue" : 1.0,
                        "keyframes" : [
                          {
                            "endTime" : 260,
                            "time" : 230,
                            "value" : 6.62127291078292,
                            "duration" : 30
                          },
                          {
                            "endTime" : 375,
                            "time" : 345,
                            "value" : 1.0,
                            "duration" : 30
                          },
                          {
                            "endTime" : 1433,
                            "time" : 1403,
                            "value" : 3.40690239557822,
                            "duration" : 30
                          },
                          {
                            "endTime" : 1633,
                            "time" : 1603,
                            "value" : 1.0,
                            "duration" : 30
                          },
                          {
                            "endTime" : 2012,
                            "time" : 1982,
                            "value" : 1.71147597084861,
                            "duration" : 30
                          },
                          {
                            "endTime" : 8833,
                            "time" : 8807,
                            "value" : 3.60204179176516,
                            "duration" : 26
                          },
                          {
                            "endTime" : 9253,
                            "time" : 9206,
                            "value" : 1.0,
                            "duration" : 47
                          },
                          {
                            "endTime" : 9287,
                            "time" : 9257,
                            "value" : 2.87114306984122,
                            "duration" : 30
                          },
                          {
                            "endTime" : 9834,
                            "time" : 9804,
                            "value" : 1.0,
                            "duration" : 30
                          }
                        ]
                      },
                      "cursorOpacity" : 1.0,
                      "cursorScale" : 1.0
                    },
                    "medias" : [
                        {
                          "id" : 285,
                          "_type" : "ScreenVMFile",
                          "src" : 1,
                          "trackNumber" : 0,
                          "attributes" : {
                            "ident" : "token_hijacking_attack_prevention"
                          },
                          "parameters" : {
                            "cursorScale" : {
                              "type" : "double",
                              "defaultValue" : 0.0,
                              "interp" : "linr"
                            },
                            "cursorOpacity" : {
                              "type" : "double",
                              "defaultValue" : 0.0,
                              "interp" : "linr"
                            }
                          },
                          "effects" : [

                          ],
                          "start" : 0,
                          "duration" : 276,
                          "mediaStart" : 0,
                          "mediaDuration" : 276,
                          "scalar" : 1,
                          "metadata" : {
                            "AutoAppliedSmartFocus" : "False",
                            "clipSpeedAttribute" : false,
                            "default-scale0" : 1.0,
                            "default-scale1" : 1.0,
                            "default-translation0" : 0.0,
                            "default-translation1" : 0.0
                          },
                          "animationTracks" : {

                          }
                        },
                        {
                          "id" : 286,
                          "_type" : "ScreenIMFile",
                          "src" : 1,
                          "trackNumber" : 0,
                          "trimStartSum" : 0,
                          "attributes" : {
                            "ident" : "token_hijacking_attack_prevention"
                          },
                          "parameters" : {
                            "cursorOpacity" : 0.0,
                            "cursorScale" : 0.0
                          },
                          "effects" : [

                          ],
                          "start" : 276,
                          "duration" : 90,
                          "mediaStart" : 275,
                          "mediaDuration" : 1,
                          "scalar" : 1,
                          "metadata" : {
                            "AutoAppliedSmartFocus" : "False"
                          },
                          "animationTracks" : {

                          }
                        },
                        {
                          "id" : 287,
                          "_type" : "ScreenVMFile",
                          "src" : 1,
                          "trackNumber" : 0,
                          "attributes" : {
                            "ident" : "token_hijacking_attack_prevention"
                          },
                          "parameters" : {
                            "cursorScale" : {
                              "type" : "double",
                              "defaultValue" : 0.0,
                              "interp" : "linr"
                            },
                            "cursorOpacity" : {
                              "type" : "double",
                              "defaultValue" : 0.0,
                              "interp" : "linr"
                            }
                          },
                          "effects" : [

                          ],
                          "start" : 366,
                          "duration" : 61,
                          "mediaStart" : 276,
                          "mediaDuration" : 61,
                          "scalar" : 1,
                          "metadata" : {
                            "AutoAppliedSmartFocus" : "False",
                            "clipSpeedAttribute" : false,
                            "default-scale0" : 1.0,
                            "default-scale1" : 1.0,
                            "default-translation0" : 0.0,
                            "default-translation1" : 0.0
                          },
                          "animationTracks" : {

                          }
                        },
                        {
                          "id" : 288,
                          "_type" : "ScreenIMFile",
                          "src" : 1,
                          "trackNumber" : 0,
                          "trimStartSum" : 0,
                          "attributes" : {
                            "ident" : "token_hijacking_attack_prevention"
                          },
                          "parameters" : {
                            "cursorOpacity" : 0.0,
                            "cursorScale" : 0.0
                          },
                          "effects" : [

                          ],
                          "start" : 427,
                          "duration" : 30,
                          "mediaStart" : 337,
                          "mediaDuration" : 1,
                          "scalar" : 1,
                          "metadata" : {
                            "AutoAppliedSmartFocus" : "False"
                          },
                          "animationTracks" : {

                          }
                        },
                        {
                          "id" : 289,
                          "_type" : "ScreenVMFile",
                          "src" : 1,
                          "trackNumber" : 0,
                          "attributes" : {
                            "ident" : "token_hijacking_attack_prevention"
                          },
                          "parameters" : {
                            "cursorScale" : {
                              "type" : "double",
                              "defaultValue" : 0.0,
                              "interp" : "linr"
                            },
                            "cursorOpacity" : {
                              "type" : "double",
                              "defaultValue" : 0.0,
                              "interp" : "linr"
                            }
                          },
                          "effects" : [

                          ],
                          "start" : 457,
                          "duration" : 1089,
                          "mediaStart" : 337,
                          "mediaDuration" : 1089,
                          "scalar" : 1,
                          "metadata" : {
                            "AutoAppliedSmartFocus" : "False",
                            "clipSpeedAttribute" : false,
                            "default-scale0" : 1.0,
                            "default-scale1" : 1.0,
                            "default-translation0" : 0.0,
                            "default-translation1" : 0.0
                          },
                          "animationTracks" : {

                          }
                        },
                        {
                          "id" : 290,
                          "_type" : "ScreenIMFile",
                          "src" : 1,
                          "trackNumber" : 0,
                          "trimStartSum" : 0,
                          "attributes" : {
                            "ident" : "token_hijacking_attack_prevention"
                          },
                          "parameters" : {
                            "cursorOpacity" : 0.0,
                            "cursorScale" : 0.0
                          },
                          "effects" : [

                          ],
                          "start" : 1546,
                          "duration" : 90,
                          "mediaStart" : 1426,
                          "mediaDuration" : 1,
                          "scalar" : 1,
                          "metadata" : {
                            "AutoAppliedSmartFocus" : "False"
                          },
                          "animationTracks" : {

                          }
                        },
                        {
                          "id" : 291,
                          "_type" : "ScreenVMFile",
                          "src" : 1,
                          "trackNumber" : 0,
                          "attributes" : {
                            "ident" : "token_hijacking_attack_prevention"
                          },
                          "parameters" : {
                            "cursorScale" : {
                              "type" : "double",
                              "defaultValue" : 0.0,
                              "interp" : "linr"
                            },
                            "cursorOpacity" : {
                              "type" : "double",
                              "defaultValue" : 0.0,
                              "interp" : "linr"
                            }
                          },
                          "effects" : [

                          ],
                          "start" : 1636,
                          "duration" : 8111,
                          "mediaStart" : 1426,
                          "mediaDuration" : 8111,
                          "scalar" : 1,
                          "metadata" : {
                            "AutoAppliedSmartFocus" : "False",
                            "clipSpeedAttribute" : false,
                            "default-scale0" : 1.0,
                            "default-scale1" : 1.0,
                            "default-translation0" : 0.0,
                            "default-translation1" : 0.0
                          },
                          "animationTracks" : {

                          }
                        },
                        {
                          "id" : 292,
                          "_type" : "ScreenIMFile",
                          "src" : 1,
                          "trackNumber" : 0,
                          "trimStartSum" : 0,
                          "attributes" : {
                            "ident" : "token_hijacking_attack_prevention"
                          },
                          "parameters" : {
                            "cursorOpacity" : 0.0,
                            "cursorScale" : 0.0
                          },
                          "effects" : [

                          ],
                          "start" : 9747,
                          "duration" : 49,
                          "mediaStart" : 9537,
                          "mediaDuration" : 1,
                          "scalar" : 1,
                          "metadata" : {
                            "AutoAppliedSmartFocus" : "False"
                          },
                          "animationTracks" : {

                          }
                        },
                        {
                          "id" : 293,
                          "_type" : "ScreenVMFile",
                          "src" : 1,
                          "trackNumber" : 0,
                          "attributes" : {
                            "ident" : "token_hijacking_attack_prevention"
                          },
                          "parameters" : {
                            "cursorScale" : {
                              "type" : "double",
                              "defaultValue" : 0.0,
                              "interp" : "linr"
                            },
                            "cursorOpacity" : {
                              "type" : "double",
                              "defaultValue" : 0.0,
                              "interp" : "linr"
                            }
                          },
                          "effects" : [

                          ],
                          "start" : 9796,
                          "duration" : 10765,
                          "mediaStart" : 9537,
                          "mediaDuration" : 10765,
                          "scalar" : 1,
                          "metadata" : {
                            "AutoAppliedSmartFocus" : "False",
                            "clipSpeedAttribute" : false,
                            "default-scale0" : 1.0,
                            "default-scale1" : 1.0,
                            "default-translation0" : 0.0,
                            "default-translation1" : 0.0
                          },
                          "animationTracks" : {

                          }
                        }
                    ],
                    "effects" : [
                        {
                          "effectName" : "CursorHilight",
                          "category" : "categoryCursorEffects",
                          "parameters" : {
                            "blur" : 0.1,
                            "color-alpha" : 0.75,
                            "color-blue" : 0.0,
                            "color-green" : 1.0,
                            "color-red" : 1.0,
                            "radius" : 50.0
                          }
                        }
                    ],
                    "start" : 1974,
                    "duration" : 192,
                    "mediaStart" : 9607,
                    "mediaDuration" : 192,
                    "scalar" : 1,
                    "metadata" : {
                      "AutoAppliedSmartFocus" : "False",
                      "clipSpeedAttribute" : false
                    },
                    "animationTracks" : {
                      "visual" : [
                        {
                          "endTime" : 260,
                          "duration" : 30,
                          "range" : [ 230, 30]
                        },
                        {
                          "endTime" : 375,
                          "duration" : 30,
                          "range" : [ 345, 30]
                        },
                        {
                          "endTime" : 1433,
                          "duration" : 30,
                          "range" : [ 1403, 30]
                        },
                        {
                          "endTime" : 1633,
                          "duration" : 30,
                          "range" : [ 1603, 30]
                        },
                        {
                          "endTime" : 2012,
                          "duration" : 30,
                          "range" : [ 1982, 30]
                        },
                        {
                          "endTime" : 8833,
                          "duration" : 26,
                          "range" : [ 8807, 26]
                        },
                        {
                          "endTime" : 9253,
                          "duration" : 47,
                          "range" : [ 9206, 47]
                        },
                        {
                          "endTime" : 9287,
                          "duration" : 30,
                          "range" : [ 9257, 30]
                        },
                        {
                          "endTime" : 9834,
                          "duration" : 30,
                          "range" : [ 9804, 30]
                        }
                      ]
                    }
                  },
                  {
                    "id" : 294,
                    "_type" : "StitchedMedia",
                    "minMediaStart" : 0,
                    "attributes" : {
                      "ident" : "token_hijacking_attack_prevention",
                      "gain" : 1.0,
                      "mixToMono" : false
                    },
                    "parameters" : {
                      "translation0" : {
                        "type" : "double",
                        "defaultValue" : 0.0,
                        "keyframes" : [
                          {
                            "endTime" : 260,
                            "time" : 230,
                            "value" : 6617.65048026514,
                            "duration" : 30
                          },
                          {
                            "endTime" : 375,
                            "time" : 345,
                            "value" : -5.6843418860808e-13,
                            "duration" : 30
                          },
                          {
                            "endTime" : 1433,
                            "time" : 1403,
                            "value" : -544.842863508438,
                            "duration" : 30
                          },
                          {
                            "endTime" : 1633,
                            "time" : 1603,
                            "value" : 0.0,
                            "duration" : 30
                          },
                          {
                            "endTime" : 2012,
                            "time" : 1982,
                            "value" : -910.68970193186,
                            "duration" : 30
                          },
                          {
                            "endTime" : 8833,
                            "time" : 8807,
                            "value" : -502.735147015968,
                            "duration" : 26
                          },
                          {
                            "endTime" : 9253,
                            "time" : 9206,
                            "value" : 1.98951966012828e-13,
                            "duration" : 47
                          },
                          {
                            "endTime" : 9287,
                            "time" : 9257,
                            "value" : 2077.8234427351,
                            "duration" : 30
                          },
                          {
                            "endTime" : 9785,
                            "time" : 9755,
                            "value" : 3.41060513164848e-13,
                            "duration" : 30
                          }
                        ]
                      },
                      "translation1" : {
                        "type" : "double",
                        "defaultValue" : 0.0,
                        "keyframes" : [
                          {
                            "endTime" : 260,
                            "time" : 230,
                            "value" : -3072.65241805758,
                            "duration" : 30
                          },
                          {
                            "endTime" : 375,
                            "time" : 345,
                            "value" : -5.6843418860808e-14,
                            "duration" : 30
                          },
                          {
                            "endTime" : 1433,
                            "time" : 1403,
                            "value" : 5.57225093738339,
                            "duration" : 30
                          },
                          {
                            "endTime" : 1633,
                            "time" : 1603,
                            "value" : -1.0724754417879e-13,
                            "duration" : 30
                          },
                          {
                            "endTime" : 2012,
                            "time" : 1982,
                            "value" : 377.898911972652,
                            "duration" : 30
                          },
                          {
                            "endTime" : 8833,
                            "time" : 8807,
                            "value" : 1508.20260622586,
                            "duration" : 26
                          },
                          {
                            "endTime" : 9253,
                            "time" : 9206,
                            "value" : 0.0,
                            "duration" : 47
                          },
                          {
                            "endTime" : 9287,
                            "time" : 9257,
                            "value" : -66.7870775612071,
                            "duration" : 30
                          },
                          {
                            "endTime" : 9785,
                            "time" : 9755,
                            "value" : -4.9737991503207e-14,
                            "duration" : 30
                          }
                        ]
                      },
                      "scale0" : {
                        "type" : "double",
                        "defaultValue" : 1.0,
                        "keyframes" : [
                          {
                            "endTime" : 260,
                            "time" : 230,
                            "value" : 6.62127287207902,
                            "duration" : 30
                          },
                          {
                            "endTime" : 375,
                            "time" : 345,
                            "value" : 1.0,
                            "duration" : 30
                          },
                          {
                            "endTime" : 1433,
                            "time" : 1403,
                            "value" : 3.40690314495839,
                            "duration" : 30
                          },
                          {
                            "endTime" : 1633,
                            "time" : 1603,
                            "value" : 1.0,
                            "duration" : 30
                          },
                          {
                            "endTime" : 2012,
                            "time" : 1982,
                            "value" : 1.71147598625338,
                            "duration" : 30
                          },
                          {
                            "endTime" : 8833,
                            "time" : 8807,
                            "value" : 3.60204142445965,
                            "duration" : 26
                          },
                          {
                            "endTime" : 9253,
                            "time" : 9206,
                            "value" : 0.999999898028527,
                            "duration" : 47
                          },
                          {
                            "endTime" : 9287,
                            "time" : 9257,
                            "value" : 2.87114235039259,
                            "duration" : 30
                          },
                          {
                            "endTime" : 9785,
                            "time" : 9755,
                            "value" : 0.999999749420839,
                            "duration" : 30
                          }
                        ]
                      },
                      "scale1" : {
                        "type" : "double",
                        "defaultValue" : 1.0,
                        "keyframes" : [
                          {
                            "endTime" : 260,
                            "time" : 230,
                            "value" : 6.62127291078292,
                            "duration" : 30
                          },
                          {
                            "endTime" : 375,
                            "time" : 345,
                            "value" : 1.0,
                            "duration" : 30
                          },
                          {
                            "endTime" : 1433,
                            "time" : 1403,
                            "value" : 3.40690239557822,
                            "duration" : 30
                          },
                          {
                            "endTime" : 1633,
                            "time" : 1603,
                            "value" : 1.0,
                            "duration" : 30
                          },
                          {
                            "endTime" : 2012,
                            "time" : 1982,
                            "value" : 1.71147597084861,
                            "duration" : 30
                          },
                          {
                            "endTime" : 8833,
                            "time" : 8807,
                            "value" : 3.60204179176516,
                            "duration" : 26
                          },
                          {
                            "endTime" : 9253,
                            "time" : 9206,
                            "value" : 1.0,
                            "duration" : 47
                          },
                          {
                            "endTime" : 9287,
                            "time" : 9257,
                            "value" : 2.87114306984122,
                            "duration" : 30
                          },
                          {
                            "endTime" : 9785,
                            "time" : 9755,
                            "value" : 1.0,
                            "duration" : 30
                          }
                        ]
                      },
                      "cursorOpacity" : 1.0,
                      "cursorScale" : 1.0
                    },
                    "medias" : [
                        {
                          "id" : 295,
                          "_type" : "ScreenVMFile",
                          "src" : 1,
                          "trackNumber" : 0,
                          "attributes" : {
                            "ident" : "token_hijacking_attack_prevention"
                          },
                          "parameters" : {
                            "cursorScale" : {
                              "type" : "double",
                              "defaultValue" : 0.0,
                              "interp" : "linr"
                            },
                            "cursorOpacity" : {
                              "type" : "double",
                              "defaultValue" : 0.0,
                              "interp" : "linr"
                            }
                          },
                          "effects" : [

                          ],
                          "start" : 0,
                          "duration" : 276,
                          "mediaStart" : 0,
                          "mediaDuration" : 276,
                          "scalar" : 1,
                          "metadata" : {
                            "AutoAppliedSmartFocus" : "False",
                            "clipSpeedAttribute" : false,
                            "default-scale0" : 1.0,
                            "default-scale1" : 1.0,
                            "default-translation0" : 0.0,
                            "default-translation1" : 0.0
                          },
                          "animationTracks" : {

                          }
                        },
                        {
                          "id" : 296,
                          "_type" : "ScreenIMFile",
                          "src" : 1,
                          "trackNumber" : 0,
                          "trimStartSum" : 0,
                          "attributes" : {
                            "ident" : "token_hijacking_attack_prevention"
                          },
                          "parameters" : {
                            "cursorOpacity" : 0.0,
                            "cursorScale" : 0.0
                          },
                          "effects" : [

                          ],
                          "start" : 276,
                          "duration" : 90,
                          "mediaStart" : 275,
                          "mediaDuration" : 1,
                          "scalar" : 1,
                          "metadata" : {
                            "AutoAppliedSmartFocus" : "False"
                          },
                          "animationTracks" : {

                          }
                        },
                        {
                          "id" : 297,
                          "_type" : "ScreenVMFile",
                          "src" : 1,
                          "trackNumber" : 0,
                          "attributes" : {
                            "ident" : "token_hijacking_attack_prevention"
                          },
                          "parameters" : {
                            "cursorScale" : {
                              "type" : "double",
                              "defaultValue" : 0.0,
                              "interp" : "linr"
                            },
                            "cursorOpacity" : {
                              "type" : "double",
                              "defaultValue" : 0.0,
                              "interp" : "linr"
                            }
                          },
                          "effects" : [

                          ],
                          "start" : 366,
                          "duration" : 61,
                          "mediaStart" : 276,
                          "mediaDuration" : 61,
                          "scalar" : 1,
                          "metadata" : {
                            "AutoAppliedSmartFocus" : "False",
                            "clipSpeedAttribute" : false,
                            "default-scale0" : 1.0,
                            "default-scale1" : 1.0,
                            "default-translation0" : 0.0,
                            "default-translation1" : 0.0
                          },
                          "animationTracks" : {

                          }
                        },
                        {
                          "id" : 298,
                          "_type" : "ScreenIMFile",
                          "src" : 1,
                          "trackNumber" : 0,
                          "trimStartSum" : 0,
                          "attributes" : {
                            "ident" : "token_hijacking_attack_prevention"
                          },
                          "parameters" : {
                            "cursorOpacity" : 0.0,
                            "cursorScale" : 0.0
                          },
                          "effects" : [

                          ],
                          "start" : 427,
                          "duration" : 30,
                          "mediaStart" : 337,
                          "mediaDuration" : 1,
                          "scalar" : 1,
                          "metadata" : {
                            "AutoAppliedSmartFocus" : "False"
                          },
                          "animationTracks" : {

                          }
                        },
                        {
                          "id" : 299,
                          "_type" : "ScreenVMFile",
                          "src" : 1,
                          "trackNumber" : 0,
                          "attributes" : {
                            "ident" : "token_hijacking_attack_prevention"
                          },
                          "parameters" : {
                            "cursorScale" : {
                              "type" : "double",
                              "defaultValue" : 0.0,
                              "interp" : "linr"
                            },
                            "cursorOpacity" : {
                              "type" : "double",
                              "defaultValue" : 0.0,
                              "interp" : "linr"
                            }
                          },
                          "effects" : [

                          ],
                          "start" : 457,
                          "duration" : 1089,
                          "mediaStart" : 337,
                          "mediaDuration" : 1089,
                          "scalar" : 1,
                          "metadata" : {
                            "AutoAppliedSmartFocus" : "False",
                            "clipSpeedAttribute" : false,
                            "default-scale0" : 1.0,
                            "default-scale1" : 1.0,
                            "default-translation0" : 0.0,
                            "default-translation1" : 0.0
                          },
                          "animationTracks" : {

                          }
                        },
                        {
                          "id" : 300,
                          "_type" : "ScreenIMFile",
                          "src" : 1,
                          "trackNumber" : 0,
                          "trimStartSum" : 0,
                          "attributes" : {
                            "ident" : "token_hijacking_attack_prevention"
                          },
                          "parameters" : {
                            "cursorOpacity" : 0.0,
                            "cursorScale" : 0.0
                          },
                          "effects" : [

                          ],
                          "start" : 1546,
                          "duration" : 90,
                          "mediaStart" : 1426,
                          "mediaDuration" : 1,
                          "scalar" : 1,
                          "metadata" : {
                            "AutoAppliedSmartFocus" : "False"
                          },
                          "animationTracks" : {

                          }
                        },
                        {
                          "id" : 301,
                          "_type" : "ScreenVMFile",
                          "src" : 1,
                          "trackNumber" : 0,
                          "attributes" : {
                            "ident" : "token_hijacking_attack_prevention"
                          },
                          "parameters" : {
                            "cursorScale" : {
                              "type" : "double",
                              "defaultValue" : 0.0,
                              "interp" : "linr"
                            },
                            "cursorOpacity" : {
                              "type" : "double",
                              "defaultValue" : 0.0,
                              "interp" : "linr"
                            }
                          },
                          "effects" : [

                          ],
                          "start" : 1636,
                          "duration" : 18876,
                          "mediaStart" : 1426,
                          "mediaDuration" : 18876,
                          "scalar" : 1,
                          "metadata" : {
                            "AutoAppliedSmartFocus" : "False",
                            "clipSpeedAttribute" : false,
                            "default-scale0" : 1.0,
                            "default-scale1" : 1.0,
                            "default-translation0" : 0.0,
                            "default-translation1" : 0.0
                          },
                          "animationTracks" : {

                          }
                        }
                    ],
                    "effects" : [
                        {
                          "effectName" : "CursorHilight",
                          "category" : "categoryCursorEffects",
                          "parameters" : {
                            "blur" : 0.1,
                            "color-alpha" : 0.75,
                            "color-blue" : 0.0,
                            "color-green" : 1.0,
                            "color-red" : 1.0,
                            "radius" : 50.0
                          }
                        }
                    ],
                    "start" : 2166,
                    "duration" : 39,
                    "mediaStart" : 9750,
                    "mediaDuration" : 39,
                    "scalar" : 1,
                    "metadata" : {
                      "AutoAppliedSmartFocus" : "False",
                      "clipSpeedAttribute" : false,
                      "default-scale0" : 3.40690314495839,
                      "default-scale1" : 3.40690239557822,
                      "default-translation0" : -544.842863508438,
                      "default-translation1" : 5.57225093738339
                    },
                    "animationTracks" : {
                      "visual" : [
                        {
                          "endTime" : 260,
                          "duration" : 30,
                          "range" : [ 230, 30]
                        },
                        {
                          "endTime" : 375,
                          "duration" : 30,
                          "range" : [ 345, 30]
                        },
                        {
                          "endTime" : 1433,
                          "duration" : 30,
                          "range" : [ 1403, 30]
                        },
                        {
                          "endTime" : 1633,
                          "duration" : 30,
                          "range" : [ 1603, 30]
                        },
                        {
                          "endTime" : 2012,
                          "duration" : 30,
                          "range" : [ 1982, 30]
                        },
                        {
                          "endTime" : 8833,
                          "duration" : 26,
                          "range" : [ 8807, 26]
                        },
                        {
                          "endTime" : 9253,
                          "duration" : 47,
                          "range" : [ 9206, 47]
                        },
                        {
                          "endTime" : 9287,
                          "duration" : 30,
                          "range" : [ 9257, 30]
                        },
                        {
                          "endTime" : 9785,
                          "duration" : 30,
                          "range" : [ 9755, 30]
                        }
                      ]
                    }
                  },
                  {
                    "id" : 302,
                    "_type" : "StitchedMedia",
                    "minMediaStart" : 0,
                    "attributes" : {
                      "ident" : "token_hijacking_attack_prevention",
                      "gain" : 1.0,
                      "mixToMono" : false
                    },
                    "parameters" : {
                      "translation0" : {
                        "type" : "double",
                        "defaultValue" : 0.0,
                        "keyframes" : [
                          {
                            "endTime" : 260,
                            "time" : 230,
                            "value" : 6617.65048026514,
                            "duration" : 30
                          },
                          {
                            "endTime" : 375,
                            "time" : 345,
                            "value" : -5.6843418860808e-13,
                            "duration" : 30
                          },
                          {
                            "endTime" : 1433,
                            "time" : 1403,
                            "value" : -544.842863508438,
                            "duration" : 30
                          },
                          {
                            "endTime" : 1633,
                            "time" : 1603,
                            "value" : 0.0,
                            "duration" : 30
                          },
                          {
                            "endTime" : 2012,
                            "time" : 1982,
                            "value" : -910.68970193186,
                            "duration" : 30
                          },
                          {
                            "endTime" : 8833,
                            "time" : 8807,
                            "value" : -502.735147015968,
                            "duration" : 26
                          },
                          {
                            "endTime" : 9253,
                            "time" : 9206,
                            "value" : 1.98951966012828e-13,
                            "duration" : 47
                          },
                          {
                            "endTime" : 9287,
                            "time" : 9257,
                            "value" : 2077.8234427351,
                            "duration" : 30
                          },
                          {
                            "endTime" : 9785,
                            "time" : 9755,
                            "value" : 3.41060513164848e-13,
                            "duration" : 30
                          }
                        ]
                      },
                      "translation1" : {
                        "type" : "double",
                        "defaultValue" : 0.0,
                        "keyframes" : [
                          {
                            "endTime" : 260,
                            "time" : 230,
                            "value" : -3072.65241805758,
                            "duration" : 30
                          },
                          {
                            "endTime" : 375,
                            "time" : 345,
                            "value" : -5.6843418860808e-14,
                            "duration" : 30
                          },
                          {
                            "endTime" : 1433,
                            "time" : 1403,
                            "value" : 5.57225093738339,
                            "duration" : 30
                          },
                          {
                            "endTime" : 1633,
                            "time" : 1603,
                            "value" : -1.0724754417879e-13,
                            "duration" : 30
                          },
                          {
                            "endTime" : 2012,
                            "time" : 1982,
                            "value" : 377.898911972652,
                            "duration" : 30
                          },
                          {
                            "endTime" : 8833,
                            "time" : 8807,
                            "value" : 1508.20260622586,
                            "duration" : 26
                          },
                          {
                            "endTime" : 9253,
                            "time" : 9206,
                            "value" : 0.0,
                            "duration" : 47
                          },
                          {
                            "endTime" : 9287,
                            "time" : 9257,
                            "value" : -66.7870775612071,
                            "duration" : 30
                          },
                          {
                            "endTime" : 9785,
                            "time" : 9755,
                            "value" : -4.9737991503207e-14,
                            "duration" : 30
                          }
                        ]
                      },
                      "scale0" : {
                        "type" : "double",
                        "defaultValue" : 1.0,
                        "keyframes" : [
                          {
                            "endTime" : 260,
                            "time" : 230,
                            "value" : 6.62127287207902,
                            "duration" : 30
                          },
                          {
                            "endTime" : 375,
                            "time" : 345,
                            "value" : 1.0,
                            "duration" : 30
                          },
                          {
                            "endTime" : 1433,
                            "time" : 1403,
                            "value" : 3.40690314495839,
                            "duration" : 30
                          },
                          {
                            "endTime" : 1633,
                            "time" : 1603,
                            "value" : 1.0,
                            "duration" : 30
                          },
                          {
                            "endTime" : 2012,
                            "time" : 1982,
                            "value" : 1.71147598625338,
                            "duration" : 30
                          },
                          {
                            "endTime" : 8833,
                            "time" : 8807,
                            "value" : 3.60204142445965,
                            "duration" : 26
                          },
                          {
                            "endTime" : 9253,
                            "time" : 9206,
                            "value" : 0.999999898028527,
                            "duration" : 47
                          },
                          {
                            "endTime" : 9287,
                            "time" : 9257,
                            "value" : 2.87114235039259,
                            "duration" : 30
                          },
                          {
                            "endTime" : 9785,
                            "time" : 9755,
                            "value" : 0.999999749420839,
                            "duration" : 30
                          }
                        ]
                      },
                      "scale1" : {
                        "type" : "double",
                        "defaultValue" : 1.0,
                        "keyframes" : [
                          {
                            "endTime" : 260,
                            "time" : 230,
                            "value" : 6.62127291078292,
                            "duration" : 30
                          },
                          {
                            "endTime" : 375,
                            "time" : 345,
                            "value" : 1.0,
                            "duration" : 30
                          },
                          {
                            "endTime" : 1433,
                            "time" : 1403,
                            "value" : 3.40690239557822,
                            "duration" : 30
                          },
                          {
                            "endTime" : 1633,
                            "time" : 1603,
                            "value" : 1.0,
                            "duration" : 30
                          },
                          {
                            "endTime" : 2012,
                            "time" : 1982,
                            "value" : 1.71147597084861,
                            "duration" : 30
                          },
                          {
                            "endTime" : 8833,
                            "time" : 8807,
                            "value" : 3.60204179176516,
                            "duration" : 26
                          },
                          {
                            "endTime" : 9253,
                            "time" : 9206,
                            "value" : 1.0,
                            "duration" : 47
                          },
                          {
                            "endTime" : 9287,
                            "time" : 9257,
                            "value" : 2.87114306984122,
                            "duration" : 30
                          },
                          {
                            "endTime" : 9785,
                            "time" : 9755,
                            "value" : 1.0,
                            "duration" : 30
                          }
                        ]
                      },
                      "cursorOpacity" : 1.0,
                      "cursorScale" : 1.0
                    },
                    "medias" : [
                        {
                          "id" : 303,
                          "_type" : "ScreenVMFile",
                          "src" : 1,
                          "trackNumber" : 0,
                          "attributes" : {
                            "ident" : "token_hijacking_attack_prevention"
                          },
                          "parameters" : {
                            "cursorScale" : {
                              "type" : "double",
                              "defaultValue" : 0.0,
                              "interp" : "linr"
                            },
                            "cursorOpacity" : {
                              "type" : "double",
                              "defaultValue" : 0.0,
                              "interp" : "linr"
                            }
                          },
                          "effects" : [

                          ],
                          "start" : 0,
                          "duration" : 276,
                          "mediaStart" : 0,
                          "mediaDuration" : 276,
                          "scalar" : 1,
                          "metadata" : {
                            "AutoAppliedSmartFocus" : "False",
                            "clipSpeedAttribute" : false,
                            "default-scale0" : 1.0,
                            "default-scale1" : 1.0,
                            "default-translation0" : 0.0,
                            "default-translation1" : 0.0
                          },
                          "animationTracks" : {

                          }
                        },
                        {
                          "id" : 304,
                          "_type" : "ScreenIMFile",
                          "src" : 1,
                          "trackNumber" : 0,
                          "trimStartSum" : 0,
                          "attributes" : {
                            "ident" : "token_hijacking_attack_prevention"
                          },
                          "parameters" : {
                            "cursorOpacity" : 0.0,
                            "cursorScale" : 0.0
                          },
                          "effects" : [

                          ],
                          "start" : 276,
                          "duration" : 90,
                          "mediaStart" : 275,
                          "mediaDuration" : 1,
                          "scalar" : 1,
                          "metadata" : {
                            "AutoAppliedSmartFocus" : "False"
                          },
                          "animationTracks" : {

                          }
                        },
                        {
                          "id" : 305,
                          "_type" : "ScreenVMFile",
                          "src" : 1,
                          "trackNumber" : 0,
                          "attributes" : {
                            "ident" : "token_hijacking_attack_prevention"
                          },
                          "parameters" : {
                            "cursorScale" : {
                              "type" : "double",
                              "defaultValue" : 0.0,
                              "interp" : "linr"
                            },
                            "cursorOpacity" : {
                              "type" : "double",
                              "defaultValue" : 0.0,
                              "interp" : "linr"
                            }
                          },
                          "effects" : [

                          ],
                          "start" : 366,
                          "duration" : 61,
                          "mediaStart" : 276,
                          "mediaDuration" : 61,
                          "scalar" : 1,
                          "metadata" : {
                            "AutoAppliedSmartFocus" : "False",
                            "clipSpeedAttribute" : false,
                            "default-scale0" : 1.0,
                            "default-scale1" : 1.0,
                            "default-translation0" : 0.0,
                            "default-translation1" : 0.0
                          },
                          "animationTracks" : {

                          }
                        },
                        {
                          "id" : 306,
                          "_type" : "ScreenIMFile",
                          "src" : 1,
                          "trackNumber" : 0,
                          "trimStartSum" : 0,
                          "attributes" : {
                            "ident" : "token_hijacking_attack_prevention"
                          },
                          "parameters" : {
                            "cursorOpacity" : 0.0,
                            "cursorScale" : 0.0
                          },
                          "effects" : [

                          ],
                          "start" : 427,
                          "duration" : 30,
                          "mediaStart" : 337,
                          "mediaDuration" : 1,
                          "scalar" : 1,
                          "metadata" : {
                            "AutoAppliedSmartFocus" : "False"
                          },
                          "animationTracks" : {

                          }
                        },
                        {
                          "id" : 307,
                          "_type" : "ScreenVMFile",
                          "src" : 1,
                          "trackNumber" : 0,
                          "attributes" : {
                            "ident" : "token_hijacking_attack_prevention"
                          },
                          "parameters" : {
                            "cursorScale" : {
                              "type" : "double",
                              "defaultValue" : 0.0,
                              "interp" : "linr"
                            },
                            "cursorOpacity" : {
                              "type" : "double",
                              "defaultValue" : 0.0,
                              "interp" : "linr"
                            }
                          },
                          "effects" : [

                          ],
                          "start" : 457,
                          "duration" : 1089,
                          "mediaStart" : 337,
                          "mediaDuration" : 1089,
                          "scalar" : 1,
                          "metadata" : {
                            "AutoAppliedSmartFocus" : "False",
                            "clipSpeedAttribute" : false,
                            "default-scale0" : 1.0,
                            "default-scale1" : 1.0,
                            "default-translation0" : 0.0,
                            "default-translation1" : 0.0
                          },
                          "animationTracks" : {

                          }
                        },
                        {
                          "id" : 308,
                          "_type" : "ScreenIMFile",
                          "src" : 1,
                          "trackNumber" : 0,
                          "trimStartSum" : 0,
                          "attributes" : {
                            "ident" : "token_hijacking_attack_prevention"
                          },
                          "parameters" : {
                            "cursorOpacity" : 0.0,
                            "cursorScale" : 0.0
                          },
                          "effects" : [

                          ],
                          "start" : 1546,
                          "duration" : 90,
                          "mediaStart" : 1426,
                          "mediaDuration" : 1,
                          "scalar" : 1,
                          "metadata" : {
                            "AutoAppliedSmartFocus" : "False"
                          },
                          "animationTracks" : {

                          }
                        },
                        {
                          "id" : 309,
                          "_type" : "ScreenVMFile",
                          "src" : 1,
                          "trackNumber" : 0,
                          "attributes" : {
                            "ident" : "token_hijacking_attack_prevention"
                          },
                          "parameters" : {
                            "cursorScale" : {
                              "type" : "double",
                              "defaultValue" : 0.0,
                              "interp" : "linr"
                            },
                            "cursorOpacity" : {
                              "type" : "double",
                              "defaultValue" : 0.0,
                              "interp" : "linr"
                            }
                          },
                          "effects" : [

                          ],
                          "start" : 1636,
                          "duration" : 18876,
                          "mediaStart" : 1426,
                          "mediaDuration" : 18876,
                          "scalar" : 1,
                          "metadata" : {
                            "AutoAppliedSmartFocus" : "False",
                            "clipSpeedAttribute" : false,
                            "default-scale0" : 1.0,
                            "default-scale1" : 1.0,
                            "default-translation0" : 0.0,
                            "default-translation1" : 0.0
                          },
                          "animationTracks" : {

                          }
                        }
                    ],
                    "effects" : [
                        {
                          "effectName" : "CursorHilight",
                          "category" : "categoryCursorEffects",
                          "parameters" : {
                            "blur" : 0.1,
                            "color-alpha" : 0.75,
                            "color-blue" : 0.0,
                            "color-green" : 1.0,
                            "color-red" : 1.0,
                            "radius" : 50.0
                          }
                        }
                    ],
                    "start" : 2205,
                    "duration" : 61,
                    "mediaStart" : 9789,
                    "mediaDuration" : 178,
                    "scalar" : "61/178",
                    "metadata" : {
                      "AutoAppliedSmartFocus" : "False",
                      "clipSpeedAttribute" : true,
                      "default-scale0" : 3.40690314495839,
                      "default-scale1" : 3.40690239557822,
                      "default-translation0" : -544.842863508438,
                      "default-translation1" : 5.57225093738339
                    },
                    "animationTracks" : {
                      "visual" : [
                        {
                          "endTime" : 260,
                          "duration" : 30,
                          "range" : [ 230, 30]
                        },
                        {
                          "endTime" : 375,
                          "duration" : 30,
                          "range" : [ 345, 30]
                        },
                        {
                          "endTime" : 1433,
                          "duration" : 30,
                          "range" : [ 1403, 30]
                        },
                        {
                          "endTime" : 1633,
                          "duration" : 30,
                          "range" : [ 1603, 30]
                        },
                        {
                          "endTime" : 2012,
                          "duration" : 30,
                          "range" : [ 1982, 30]
                        },
                        {
                          "endTime" : 8833,
                          "duration" : 26,
                          "range" : [ 8807, 26]
                        },
                        {
                          "endTime" : 9253,
                          "duration" : 47,
                          "range" : [ 9206, 47]
                        },
                        {
                          "endTime" : 9287,
                          "duration" : 30,
                          "range" : [ 9257, 30]
                        },
                        {
                          "endTime" : 9785,
                          "duration" : 30,
                          "range" : [ 9755, 30]
                        }
                      ]
                    }
                  },
                  {
                    "id" : 310,
                    "_type" : "StitchedMedia",
                    "minMediaStart" : 0,
                    "attributes" : {
                      "ident" : "token_hijacking_attack_prevention",
                      "gain" : 1.0,
                      "mixToMono" : false
                    },
                    "parameters" : {
                      "translation0" : {
                        "type" : "double",
                        "defaultValue" : 0.0,
                        "keyframes" : [
                          {
                            "endTime" : 260,
                            "time" : 230,
                            "value" : 6617.65048026514,
                            "duration" : 30
                          },
                          {
                            "endTime" : 375,
                            "time" : 345,
                            "value" : -5.6843418860808e-13,
                            "duration" : 30
                          },
                          {
                            "endTime" : 1433,
                            "time" : 1403,
                            "value" : -544.842863508438,
                            "duration" : 30
                          },
                          {
                            "endTime" : 1633,
                            "time" : 1603,
                            "value" : 0.0,
                            "duration" : 30
                          },
                          {
                            "endTime" : 2012,
                            "time" : 1982,
                            "value" : -910.68970193186,
                            "duration" : 30
                          },
                          {
                            "endTime" : 8833,
                            "time" : 8807,
                            "value" : -502.735147015968,
                            "duration" : 26
                          },
                          {
                            "endTime" : 9253,
                            "time" : 9206,
                            "value" : 1.98951966012828e-13,
                            "duration" : 47
                          },
                          {
                            "endTime" : 9287,
                            "time" : 9257,
                            "value" : 2077.8234427351,
                            "duration" : 30
                          },
                          {
                            "endTime" : 9785,
                            "time" : 9755,
                            "value" : 3.41060513164848e-13,
                            "duration" : 30
                          },
                          {
                            "endTime" : 10110,
                            "time" : 10080,
                            "value" : -727.865478476359,
                            "duration" : 30
                          }
                        ]
                      },
                      "translation1" : {
                        "type" : "double",
                        "defaultValue" : 0.0,
                        "keyframes" : [
                          {
                            "endTime" : 260,
                            "time" : 230,
                            "value" : -3072.65241805758,
                            "duration" : 30
                          },
                          {
                            "endTime" : 375,
                            "time" : 345,
                            "value" : -5.6843418860808e-14,
                            "duration" : 30
                          },
                          {
                            "endTime" : 1433,
                            "time" : 1403,
                            "value" : 5.57225093738339,
                            "duration" : 30
                          },
                          {
                            "endTime" : 1633,
                            "time" : 1603,
                            "value" : -1.0724754417879e-13,
                            "duration" : 30
                          },
                          {
                            "endTime" : 2012,
                            "time" : 1982,
                            "value" : 377.898911972652,
                            "duration" : 30
                          },
                          {
                            "endTime" : 8833,
                            "time" : 8807,
                            "value" : 1508.20260622586,
                            "duration" : 26
                          },
                          {
                            "endTime" : 9253,
                            "time" : 9206,
                            "value" : 0.0,
                            "duration" : 47
                          },
                          {
                            "endTime" : 9287,
                            "time" : 9257,
                            "value" : -66.7870775612071,
                            "duration" : 30
                          },
                          {
                            "endTime" : 9785,
                            "time" : 9755,
                            "value" : -4.9737991503207e-14,
                            "duration" : 30
                          },
                          {
                            "endTime" : 10110,
                            "time" : 10080,
                            "value" : 793.17781292182,
                            "duration" : 30
                          }
                        ]
                      },
                      "scale0" : {
                        "type" : "double",
                        "defaultValue" : 1.0,
                        "keyframes" : [
                          {
                            "endTime" : 260,
                            "time" : 230,
                            "value" : 6.62127287207902,
                            "duration" : 30
                          },
                          {
                            "endTime" : 375,
                            "time" : 345,
                            "value" : 1.0,
                            "duration" : 30
                          },
                          {
                            "endTime" : 1433,
                            "time" : 1403,
                            "value" : 3.40690314495839,
                            "duration" : 30
                          },
                          {
                            "endTime" : 1633,
                            "time" : 1603,
                            "value" : 1.0,
                            "duration" : 30
                          },
                          {
                            "endTime" : 2012,
                            "time" : 1982,
                            "value" : 1.71147598625338,
                            "duration" : 30
                          },
                          {
                            "endTime" : 8833,
                            "time" : 8807,
                            "value" : 3.60204142445965,
                            "duration" : 26
                          },
                          {
                            "endTime" : 9253,
                            "time" : 9206,
                            "value" : 0.999999898028527,
                            "duration" : 47
                          },
                          {
                            "endTime" : 9287,
                            "time" : 9257,
                            "value" : 2.87114235039259,
                            "duration" : 30
                          },
                          {
                            "endTime" : 9785,
                            "time" : 9755,
                            "value" : 0.999999749420839,
                            "duration" : 30
                          },
                          {
                            "endTime" : 10110,
                            "time" : 10080,
                            "value" : 2.36733015083206,
                            "duration" : 30
                          }
                        ]
                      },
                      "scale1" : {
                        "type" : "double",
                        "defaultValue" : 1.0,
                        "keyframes" : [
                          {
                            "endTime" : 260,
                            "time" : 230,
                            "value" : 6.62127291078292,
                            "duration" : 30
                          },
                          {
                            "endTime" : 375,
                            "time" : 345,
                            "value" : 1.0,
                            "duration" : 30
                          },
                          {
                            "endTime" : 1433,
                            "time" : 1403,
                            "value" : 3.40690239557822,
                            "duration" : 30
                          },
                          {
                            "endTime" : 1633,
                            "time" : 1603,
                            "value" : 1.0,
                            "duration" : 30
                          },
                          {
                            "endTime" : 2012,
                            "time" : 1982,
                            "value" : 1.71147597084861,
                            "duration" : 30
                          },
                          {
                            "endTime" : 8833,
                            "time" : 8807,
                            "value" : 3.60204179176516,
                            "duration" : 26
                          },
                          {
                            "endTime" : 9253,
                            "time" : 9206,
                            "value" : 1.0,
                            "duration" : 47
                          },
                          {
                            "endTime" : 9287,
                            "time" : 9257,
                            "value" : 2.87114306984122,
                            "duration" : 30
                          },
                          {
                            "endTime" : 9785,
                            "time" : 9755,
                            "value" : 1.0,
                            "duration" : 30
                          },
                          {
                            "endTime" : 10110,
                            "time" : 10080,
                            "value" : 2.3673303422297,
                            "duration" : 30
                          }
                        ]
                      },
                      "cursorOpacity" : 1.0,
                      "cursorScale" : 1.0
                    },
                    "medias" : [
                        {
                          "id" : 311,
                          "_type" : "ScreenVMFile",
                          "src" : 1,
                          "trackNumber" : 0,
                          "attributes" : {
                            "ident" : "token_hijacking_attack_prevention"
                          },
                          "parameters" : {
                            "cursorScale" : {
                              "type" : "double",
                              "defaultValue" : 0.0,
                              "interp" : "linr"
                            },
                            "cursorOpacity" : {
                              "type" : "double",
                              "defaultValue" : 0.0,
                              "interp" : "linr"
                            }
                          },
                          "effects" : [

                          ],
                          "start" : 0,
                          "duration" : 276,
                          "mediaStart" : 0,
                          "mediaDuration" : 276,
                          "scalar" : 1,
                          "metadata" : {
                            "AutoAppliedSmartFocus" : "False",
                            "clipSpeedAttribute" : false,
                            "default-scale0" : 1.0,
                            "default-scale1" : 1.0,
                            "default-translation0" : 0.0,
                            "default-translation1" : 0.0
                          },
                          "animationTracks" : {

                          }
                        },
                        {
                          "id" : 312,
                          "_type" : "ScreenIMFile",
                          "src" : 1,
                          "trackNumber" : 0,
                          "trimStartSum" : 0,
                          "attributes" : {
                            "ident" : "token_hijacking_attack_prevention"
                          },
                          "parameters" : {
                            "cursorOpacity" : 0.0,
                            "cursorScale" : 0.0
                          },
                          "effects" : [

                          ],
                          "start" : 276,
                          "duration" : 90,
                          "mediaStart" : 275,
                          "mediaDuration" : 1,
                          "scalar" : 1,
                          "metadata" : {
                            "AutoAppliedSmartFocus" : "False"
                          },
                          "animationTracks" : {

                          }
                        },
                        {
                          "id" : 313,
                          "_type" : "ScreenVMFile",
                          "src" : 1,
                          "trackNumber" : 0,
                          "attributes" : {
                            "ident" : "token_hijacking_attack_prevention"
                          },
                          "parameters" : {
                            "cursorScale" : {
                              "type" : "double",
                              "defaultValue" : 0.0,
                              "interp" : "linr"
                            },
                            "cursorOpacity" : {
                              "type" : "double",
                              "defaultValue" : 0.0,
                              "interp" : "linr"
                            }
                          },
                          "effects" : [

                          ],
                          "start" : 366,
                          "duration" : 61,
                          "mediaStart" : 276,
                          "mediaDuration" : 61,
                          "scalar" : 1,
                          "metadata" : {
                            "AutoAppliedSmartFocus" : "False",
                            "clipSpeedAttribute" : false,
                            "default-scale0" : 1.0,
                            "default-scale1" : 1.0,
                            "default-translation0" : 0.0,
                            "default-translation1" : 0.0
                          },
                          "animationTracks" : {

                          }
                        },
                        {
                          "id" : 314,
                          "_type" : "ScreenIMFile",
                          "src" : 1,
                          "trackNumber" : 0,
                          "trimStartSum" : 0,
                          "attributes" : {
                            "ident" : "token_hijacking_attack_prevention"
                          },
                          "parameters" : {
                            "cursorOpacity" : 0.0,
                            "cursorScale" : 0.0
                          },
                          "effects" : [

                          ],
                          "start" : 427,
                          "duration" : 30,
                          "mediaStart" : 337,
                          "mediaDuration" : 1,
                          "scalar" : 1,
                          "metadata" : {
                            "AutoAppliedSmartFocus" : "False"
                          },
                          "animationTracks" : {

                          }
                        },
                        {
                          "id" : 315,
                          "_type" : "ScreenVMFile",
                          "src" : 1,
                          "trackNumber" : 0,
                          "attributes" : {
                            "ident" : "token_hijacking_attack_prevention"
                          },
                          "parameters" : {
                            "cursorScale" : {
                              "type" : "double",
                              "defaultValue" : 0.0,
                              "interp" : "linr"
                            },
                            "cursorOpacity" : {
                              "type" : "double",
                              "defaultValue" : 0.0,
                              "interp" : "linr"
                            }
                          },
                          "effects" : [

                          ],
                          "start" : 457,
                          "duration" : 1089,
                          "mediaStart" : 337,
                          "mediaDuration" : 1089,
                          "scalar" : 1,
                          "metadata" : {
                            "AutoAppliedSmartFocus" : "False",
                            "clipSpeedAttribute" : false,
                            "default-scale0" : 1.0,
                            "default-scale1" : 1.0,
                            "default-translation0" : 0.0,
                            "default-translation1" : 0.0
                          },
                          "animationTracks" : {

                          }
                        },
                        {
                          "id" : 316,
                          "_type" : "ScreenIMFile",
                          "src" : 1,
                          "trackNumber" : 0,
                          "trimStartSum" : 0,
                          "attributes" : {
                            "ident" : "token_hijacking_attack_prevention"
                          },
                          "parameters" : {
                            "cursorOpacity" : 0.0,
                            "cursorScale" : 0.0
                          },
                          "effects" : [

                          ],
                          "start" : 1546,
                          "duration" : 90,
                          "mediaStart" : 1426,
                          "mediaDuration" : 1,
                          "scalar" : 1,
                          "metadata" : {
                            "AutoAppliedSmartFocus" : "False"
                          },
                          "animationTracks" : {

                          }
                        },
                        {
                          "id" : 317,
                          "_type" : "ScreenVMFile",
                          "src" : 1,
                          "trackNumber" : 0,
                          "attributes" : {
                            "ident" : "token_hijacking_attack_prevention"
                          },
                          "parameters" : {
                            "cursorScale" : {
                              "type" : "double",
                              "defaultValue" : 0.0,
                              "interp" : "linr"
                            },
                            "cursorOpacity" : {
                              "type" : "double",
                              "defaultValue" : 0.0,
                              "interp" : "linr"
                            }
                          },
                          "effects" : [

                          ],
                          "start" : 1636,
                          "duration" : 18876,
                          "mediaStart" : 1426,
                          "mediaDuration" : 18876,
                          "scalar" : 1,
                          "metadata" : {
                            "AutoAppliedSmartFocus" : "False",
                            "clipSpeedAttribute" : false,
                            "default-scale0" : 1.0,
                            "default-scale1" : 1.0,
                            "default-translation0" : 0.0,
                            "default-translation1" : 0.0
                          },
                          "animationTracks" : {

                          }
                        }
                    ],
                    "effects" : [
                        {
                          "effectName" : "CursorHilight",
                          "category" : "categoryCursorEffects",
                          "parameters" : {
                            "blur" : 0.1,
                            "color-alpha" : 0.75,
                            "color-blue" : 0.0,
                            "color-green" : 1.0,
                            "color-red" : 1.0,
                            "radius" : 50.0
                          }
                        }
                    ],
                    "start" : 2266,
                    "duration" : 145,
                    "mediaStart" : 9967,
                    "mediaDuration" : 145,
                    "scalar" : 1,
                    "metadata" : {
                      "AutoAppliedSmartFocus" : "False",
                      "clipSpeedAttribute" : false,
                      "default-scale0" : 3.40690314495839,
                      "default-scale1" : 3.40690239557822,
                      "default-translation0" : -544.842863508438,
                      "default-translation1" : 5.57225093738339
                    },
                    "animationTracks" : {
                      "visual" : [
                        {
                          "endTime" : 260,
                          "duration" : 30,
                          "range" : [ 230, 30]
                        },
                        {
                          "endTime" : 375,
                          "duration" : 30,
                          "range" : [ 345, 30]
                        },
                        {
                          "endTime" : 1433,
                          "duration" : 30,
                          "range" : [ 1403, 30]
                        },
                        {
                          "endTime" : 1633,
                          "duration" : 30,
                          "range" : [ 1603, 30]
                        },
                        {
                          "endTime" : 2012,
                          "duration" : 30,
                          "range" : [ 1982, 30]
                        },
                        {
                          "endTime" : 8833,
                          "duration" : 26,
                          "range" : [ 8807, 26]
                        },
                        {
                          "endTime" : 9253,
                          "duration" : 47,
                          "range" : [ 9206, 47]
                        },
                        {
                          "endTime" : 9287,
                          "duration" : 30,
                          "range" : [ 9257, 30]
                        },
                        {
                          "endTime" : 9785,
                          "duration" : 30,
                          "range" : [ 9755, 30]
                        },
                        {
                          "endTime" : 10110,
                          "duration" : 30,
                          "range" : [ 10080, 30]
                        }
                      ]
                    }
                  },
                  {
                    "id" : 318,
                    "_type" : "StitchedMedia",
                    "minMediaStart" : 0,
                    "attributes" : {
                      "ident" : "token_hijacking_attack_prevention",
                      "gain" : 1.0,
                      "mixToMono" : false
                    },
                    "parameters" : {
                      "translation0" : {
                        "type" : "double",
                        "defaultValue" : 0.0,
                        "keyframes" : [
                          {
                            "endTime" : 260,
                            "time" : 230,
                            "value" : 6617.65048026514,
                            "duration" : 30
                          },
                          {
                            "endTime" : 375,
                            "time" : 345,
                            "value" : -5.6843418860808e-13,
                            "duration" : 30
                          },
                          {
                            "endTime" : 1433,
                            "time" : 1403,
                            "value" : -544.842863508438,
                            "duration" : 30
                          },
                          {
                            "endTime" : 1633,
                            "time" : 1603,
                            "value" : 0.0,
                            "duration" : 30
                          },
                          {
                            "endTime" : 2012,
                            "time" : 1982,
                            "value" : -910.68970193186,
                            "duration" : 30
                          },
                          {
                            "endTime" : 8833,
                            "time" : 8807,
                            "value" : -502.735147015968,
                            "duration" : 26
                          },
                          {
                            "endTime" : 9253,
                            "time" : 9206,
                            "value" : 1.98951966012828e-13,
                            "duration" : 47
                          },
                          {
                            "endTime" : 9287,
                            "time" : 9257,
                            "value" : 2077.8234427351,
                            "duration" : 30
                          },
                          {
                            "endTime" : 9785,
                            "time" : 9755,
                            "value" : 3.41060513164848e-13,
                            "duration" : 30
                          },
                          {
                            "endTime" : 10110,
                            "time" : 10080,
                            "value" : -727.865478476359,
                            "duration" : 30
                          }
                        ]
                      },
                      "translation1" : {
                        "type" : "double",
                        "defaultValue" : 0.0,
                        "keyframes" : [
                          {
                            "endTime" : 260,
                            "time" : 230,
                            "value" : -3072.65241805758,
                            "duration" : 30
                          },
                          {
                            "endTime" : 375,
                            "time" : 345,
                            "value" : -5.6843418860808e-14,
                            "duration" : 30
                          },
                          {
                            "endTime" : 1433,
                            "time" : 1403,
                            "value" : 5.57225093738339,
                            "duration" : 30
                          },
                          {
                            "endTime" : 1633,
                            "time" : 1603,
                            "value" : -1.0724754417879e-13,
                            "duration" : 30
                          },
                          {
                            "endTime" : 2012,
                            "time" : 1982,
                            "value" : 377.898911972652,
                            "duration" : 30
                          },
                          {
                            "endTime" : 8833,
                            "time" : 8807,
                            "value" : 1508.20260622586,
                            "duration" : 26
                          },
                          {
                            "endTime" : 9253,
                            "time" : 9206,
                            "value" : 0.0,
                            "duration" : 47
                          },
                          {
                            "endTime" : 9287,
                            "time" : 9257,
                            "value" : -66.7870775612071,
                            "duration" : 30
                          },
                          {
                            "endTime" : 9785,
                            "time" : 9755,
                            "value" : -4.9737991503207e-14,
                            "duration" : 30
                          },
                          {
                            "endTime" : 10110,
                            "time" : 10080,
                            "value" : 793.17781292182,
                            "duration" : 30
                          }
                        ]
                      },
                      "scale0" : {
                        "type" : "double",
                        "defaultValue" : 1.0,
                        "keyframes" : [
                          {
                            "endTime" : 260,
                            "time" : 230,
                            "value" : 6.62127287207902,
                            "duration" : 30
                          },
                          {
                            "endTime" : 375,
                            "time" : 345,
                            "value" : 1.0,
                            "duration" : 30
                          },
                          {
                            "endTime" : 1433,
                            "time" : 1403,
                            "value" : 3.40690314495839,
                            "duration" : 30
                          },
                          {
                            "endTime" : 1633,
                            "time" : 1603,
                            "value" : 1.0,
                            "duration" : 30
                          },
                          {
                            "endTime" : 2012,
                            "time" : 1982,
                            "value" : 1.71147598625338,
                            "duration" : 30
                          },
                          {
                            "endTime" : 8833,
                            "time" : 8807,
                            "value" : 3.60204142445965,
                            "duration" : 26
                          },
                          {
                            "endTime" : 9253,
                            "time" : 9206,
                            "value" : 0.999999898028527,
                            "duration" : 47
                          },
                          {
                            "endTime" : 9287,
                            "time" : 9257,
                            "value" : 2.87114235039259,
                            "duration" : 30
                          },
                          {
                            "endTime" : 9785,
                            "time" : 9755,
                            "value" : 0.999999749420839,
                            "duration" : 30
                          },
                          {
                            "endTime" : 10110,
                            "time" : 10080,
                            "value" : 2.36733015083206,
                            "duration" : 30
                          }
                        ]
                      },
                      "scale1" : {
                        "type" : "double",
                        "defaultValue" : 1.0,
                        "keyframes" : [
                          {
                            "endTime" : 260,
                            "time" : 230,
                            "value" : 6.62127291078292,
                            "duration" : 30
                          },
                          {
                            "endTime" : 375,
                            "time" : 345,
                            "value" : 1.0,
                            "duration" : 30
                          },
                          {
                            "endTime" : 1433,
                            "time" : 1403,
                            "value" : 3.40690239557822,
                            "duration" : 30
                          },
                          {
                            "endTime" : 1633,
                            "time" : 1603,
                            "value" : 1.0,
                            "duration" : 30
                          },
                          {
                            "endTime" : 2012,
                            "time" : 1982,
                            "value" : 1.71147597084861,
                            "duration" : 30
                          },
                          {
                            "endTime" : 8833,
                            "time" : 8807,
                            "value" : 3.60204179176516,
                            "duration" : 26
                          },
                          {
                            "endTime" : 9253,
                            "time" : 9206,
                            "value" : 1.0,
                            "duration" : 47
                          },
                          {
                            "endTime" : 9287,
                            "time" : 9257,
                            "value" : 2.87114306984122,
                            "duration" : 30
                          },
                          {
                            "endTime" : 9785,
                            "time" : 9755,
                            "value" : 1.0,
                            "duration" : 30
                          },
                          {
                            "endTime" : 10110,
                            "time" : 10080,
                            "value" : 2.3673303422297,
                            "duration" : 30
                          }
                        ]
                      },
                      "cursorOpacity" : 1.0,
                      "cursorScale" : 1.0
                    },
                    "medias" : [
                        {
                          "id" : 319,
                          "_type" : "ScreenVMFile",
                          "src" : 1,
                          "trackNumber" : 0,
                          "attributes" : {
                            "ident" : "token_hijacking_attack_prevention"
                          },
                          "parameters" : {
                            "cursorScale" : {
                              "type" : "double",
                              "defaultValue" : 0.0,
                              "interp" : "linr"
                            },
                            "cursorOpacity" : {
                              "type" : "double",
                              "defaultValue" : 0.0,
                              "interp" : "linr"
                            }
                          },
                          "effects" : [

                          ],
                          "start" : 0,
                          "duration" : 276,
                          "mediaStart" : 0,
                          "mediaDuration" : 276,
                          "scalar" : 1,
                          "metadata" : {
                            "AutoAppliedSmartFocus" : "False",
                            "clipSpeedAttribute" : false,
                            "default-scale0" : 1.0,
                            "default-scale1" : 1.0,
                            "default-translation0" : 0.0,
                            "default-translation1" : 0.0
                          },
                          "animationTracks" : {

                          }
                        },
                        {
                          "id" : 320,
                          "_type" : "ScreenIMFile",
                          "src" : 1,
                          "trackNumber" : 0,
                          "trimStartSum" : 0,
                          "attributes" : {
                            "ident" : "token_hijacking_attack_prevention"
                          },
                          "parameters" : {
                            "cursorOpacity" : 0.0,
                            "cursorScale" : 0.0
                          },
                          "effects" : [

                          ],
                          "start" : 276,
                          "duration" : 90,
                          "mediaStart" : 275,
                          "mediaDuration" : 1,
                          "scalar" : 1,
                          "metadata" : {
                            "AutoAppliedSmartFocus" : "False"
                          },
                          "animationTracks" : {

                          }
                        },
                        {
                          "id" : 321,
                          "_type" : "ScreenVMFile",
                          "src" : 1,
                          "trackNumber" : 0,
                          "attributes" : {
                            "ident" : "token_hijacking_attack_prevention"
                          },
                          "parameters" : {
                            "cursorScale" : {
                              "type" : "double",
                              "defaultValue" : 0.0,
                              "interp" : "linr"
                            },
                            "cursorOpacity" : {
                              "type" : "double",
                              "defaultValue" : 0.0,
                              "interp" : "linr"
                            }
                          },
                          "effects" : [

                          ],
                          "start" : 366,
                          "duration" : 61,
                          "mediaStart" : 276,
                          "mediaDuration" : 61,
                          "scalar" : 1,
                          "metadata" : {
                            "AutoAppliedSmartFocus" : "False",
                            "clipSpeedAttribute" : false,
                            "default-scale0" : 1.0,
                            "default-scale1" : 1.0,
                            "default-translation0" : 0.0,
                            "default-translation1" : 0.0
                          },
                          "animationTracks" : {

                          }
                        },
                        {
                          "id" : 322,
                          "_type" : "ScreenIMFile",
                          "src" : 1,
                          "trackNumber" : 0,
                          "trimStartSum" : 0,
                          "attributes" : {
                            "ident" : "token_hijacking_attack_prevention"
                          },
                          "parameters" : {
                            "cursorOpacity" : 0.0,
                            "cursorScale" : 0.0
                          },
                          "effects" : [

                          ],
                          "start" : 427,
                          "duration" : 30,
                          "mediaStart" : 337,
                          "mediaDuration" : 1,
                          "scalar" : 1,
                          "metadata" : {
                            "AutoAppliedSmartFocus" : "False"
                          },
                          "animationTracks" : {

                          }
                        },
                        {
                          "id" : 323,
                          "_type" : "ScreenVMFile",
                          "src" : 1,
                          "trackNumber" : 0,
                          "attributes" : {
                            "ident" : "token_hijacking_attack_prevention"
                          },
                          "parameters" : {
                            "cursorScale" : {
                              "type" : "double",
                              "defaultValue" : 0.0,
                              "interp" : "linr"
                            },
                            "cursorOpacity" : {
                              "type" : "double",
                              "defaultValue" : 0.0,
                              "interp" : "linr"
                            }
                          },
                          "effects" : [

                          ],
                          "start" : 457,
                          "duration" : 1089,
                          "mediaStart" : 337,
                          "mediaDuration" : 1089,
                          "scalar" : 1,
                          "metadata" : {
                            "AutoAppliedSmartFocus" : "False",
                            "clipSpeedAttribute" : false,
                            "default-scale0" : 1.0,
                            "default-scale1" : 1.0,
                            "default-translation0" : 0.0,
                            "default-translation1" : 0.0
                          },
                          "animationTracks" : {

                          }
                        },
                        {
                          "id" : 324,
                          "_type" : "ScreenIMFile",
                          "src" : 1,
                          "trackNumber" : 0,
                          "trimStartSum" : 0,
                          "attributes" : {
                            "ident" : "token_hijacking_attack_prevention"
                          },
                          "parameters" : {
                            "cursorOpacity" : 0.0,
                            "cursorScale" : 0.0
                          },
                          "effects" : [

                          ],
                          "start" : 1546,
                          "duration" : 90,
                          "mediaStart" : 1426,
                          "mediaDuration" : 1,
                          "scalar" : 1,
                          "metadata" : {
                            "AutoAppliedSmartFocus" : "False"
                          },
                          "animationTracks" : {

                          }
                        },
                        {
                          "id" : 325,
                          "_type" : "ScreenVMFile",
                          "src" : 1,
                          "trackNumber" : 0,
                          "attributes" : {
                            "ident" : "token_hijacking_attack_prevention"
                          },
                          "parameters" : {
                            "cursorScale" : {
                              "type" : "double",
                              "defaultValue" : 0.0,
                              "interp" : "linr"
                            },
                            "cursorOpacity" : {
                              "type" : "double",
                              "defaultValue" : 0.0,
                              "interp" : "linr"
                            }
                          },
                          "effects" : [

                          ],
                          "start" : 1636,
                          "duration" : 8601,
                          "mediaStart" : 1426,
                          "mediaDuration" : 8601,
                          "scalar" : 1,
                          "metadata" : {
                            "AutoAppliedSmartFocus" : "False",
                            "clipSpeedAttribute" : false,
                            "default-scale0" : 1.0,
                            "default-scale1" : 1.0,
                            "default-translation0" : 0.0,
                            "default-translation1" : 0.0
                          },
                          "animationTracks" : {

                          }
                        },
                        {
                          "id" : 326,
                          "_type" : "ScreenIMFile",
                          "src" : 1,
                          "trackNumber" : 0,
                          "trimStartSum" : 0,
                          "attributes" : {
                            "ident" : "token_hijacking_attack_prevention"
                          },
                          "parameters" : {
                            "cursorOpacity" : 0.0,
                            "cursorScale" : 0.0
                          },
                          "effects" : [

                          ],
                          "start" : 10237,
                          "duration" : 30,
                          "mediaStart" : 10027,
                          "mediaDuration" : 1,
                          "scalar" : 1,
                          "metadata" : {
                            "AutoAppliedSmartFocus" : "False"
                          },
                          "animationTracks" : {

                          }
                        },
                        {
                          "id" : 327,
                          "_type" : "ScreenVMFile",
                          "src" : 1,
                          "trackNumber" : 0,
                          "attributes" : {
                            "ident" : "token_hijacking_attack_prevention"
                          },
                          "parameters" : {
                            "cursorScale" : {
                              "type" : "double",
                              "defaultValue" : 0.0,
                              "interp" : "linr"
                            },
                            "cursorOpacity" : {
                              "type" : "double",
                              "defaultValue" : 0.0,
                              "interp" : "linr"
                            }
                          },
                          "effects" : [

                          ],
                          "start" : 10267,
                          "duration" : 13,
                          "mediaStart" : 10027,
                          "mediaDuration" : 13,
                          "scalar" : 1,
                          "metadata" : {
                            "AutoAppliedSmartFocus" : "False",
                            "clipSpeedAttribute" : false,
                            "default-scale0" : 1.0,
                            "default-scale1" : 1.0,
                            "default-translation0" : 0.0,
                            "default-translation1" : 0.0
                          },
                          "animationTracks" : {

                          }
                        },
                        {
                          "id" : 328,
                          "_type" : "ScreenIMFile",
                          "src" : 1,
                          "trackNumber" : 0,
                          "trimStartSum" : 0,
                          "attributes" : {
                            "ident" : "token_hijacking_attack_prevention"
                          },
                          "parameters" : {
                            "cursorOpacity" : 0.0,
                            "cursorScale" : 0.0
                          },
                          "effects" : [

                          ],
                          "start" : 10280,
                          "duration" : 109,
                          "mediaStart" : 10040,
                          "mediaDuration" : 1,
                          "scalar" : 1,
                          "metadata" : {
                            "AutoAppliedSmartFocus" : "False"
                          },
                          "animationTracks" : {

                          }
                        },
                        {
                          "id" : 329,
                          "_type" : "ScreenVMFile",
                          "src" : 1,
                          "trackNumber" : 0,
                          "attributes" : {
                            "ident" : "token_hijacking_attack_prevention"
                          },
                          "parameters" : {
                            "cursorScale" : {
                              "type" : "double",
                              "defaultValue" : 0.0,
                              "interp" : "linr"
                            },
                            "cursorOpacity" : {
                              "type" : "double",
                              "defaultValue" : 0.0,
                              "interp" : "linr"
                            }
                          },
                          "effects" : [

                          ],
                          "start" : 10389,
                          "duration" : 10262,
                          "mediaStart" : 10040,
                          "mediaDuration" : 10262,
                          "scalar" : 1,
                          "metadata" : {
                            "AutoAppliedSmartFocus" : "False",
                            "clipSpeedAttribute" : false,
                            "default-scale0" : 1.0,
                            "default-scale1" : 1.0,
                            "default-translation0" : 0.0,
                            "default-translation1" : 0.0
                          },
                          "animationTracks" : {

                          }
                        }
                    ],
                    "effects" : [
                        {
                          "effectName" : "CursorHilight",
                          "category" : "categoryCursorEffects",
                          "parameters" : {
                            "blur" : 0.1,
                            "color-alpha" : 0.75,
                            "color-blue" : 0.0,
                            "color-green" : 1.0,
                            "color-red" : 1.0,
                            "radius" : 50.0
                          }
                        }
                    ],
                    "start" : 2411,
                    "duration" : 279,
                    "mediaStart" : 10112,
                    "mediaDuration" : 279,
                    "scalar" : 1,
                    "metadata" : {
                      "AutoAppliedSmartFocus" : "False",
                      "clipSpeedAttribute" : false
                    },
                    "animationTracks" : {
                      "visual" : [
                        {
                          "endTime" : 260,
                          "duration" : 30,
                          "range" : [ 230, 30]
                        },
                        {
                          "endTime" : 375,
                          "duration" : 30,
                          "range" : [ 345, 30]
                        },
                        {
                          "endTime" : 1433,
                          "duration" : 30,
                          "range" : [ 1403, 30]
                        },
                        {
                          "endTime" : 1633,
                          "duration" : 30,
                          "range" : [ 1603, 30]
                        },
                        {
                          "endTime" : 2012,
                          "duration" : 30,
                          "range" : [ 1982, 30]
                        },
                        {
                          "endTime" : 8833,
                          "duration" : 26,
                          "range" : [ 8807, 26]
                        },
                        {
                          "endTime" : 9253,
                          "duration" : 47,
                          "range" : [ 9206, 47]
                        },
                        {
                          "endTime" : 9287,
                          "duration" : 30,
                          "range" : [ 9257, 30]
                        },
                        {
                          "endTime" : 9785,
                          "duration" : 30,
                          "range" : [ 9755, 30]
                        },
                        {
                          "endTime" : 10110,
                          "duration" : 30,
                          "range" : [ 10080, 30]
                        }
                      ]
                    }
                  },
                  {
                    "id" : 330,
                    "_type" : "StitchedMedia",
                    "minMediaStart" : 0,
                    "attributes" : {
                      "ident" : "token_hijacking_attack_prevention",
                      "gain" : 1.0,
                      "mixToMono" : false
                    },
                    "parameters" : {
                      "translation0" : {
                        "type" : "double",
                        "defaultValue" : 0.0,
                        "keyframes" : [
                          {
                            "endTime" : 260,
                            "time" : 230,
                            "value" : 6617.65048026514,
                            "duration" : 30
                          },
                          {
                            "endTime" : 375,
                            "time" : 345,
                            "value" : -5.6843418860808e-13,
                            "duration" : 30
                          },
                          {
                            "endTime" : 1433,
                            "time" : 1403,
                            "value" : -544.842863508438,
                            "duration" : 30
                          },
                          {
                            "endTime" : 1633,
                            "time" : 1603,
                            "value" : 0.0,
                            "duration" : 30
                          },
                          {
                            "endTime" : 2012,
                            "time" : 1982,
                            "value" : -910.68970193186,
                            "duration" : 30
                          },
                          {
                            "endTime" : 8833,
                            "time" : 8807,
                            "value" : -502.735147015968,
                            "duration" : 26
                          },
                          {
                            "endTime" : 9253,
                            "time" : 9206,
                            "value" : 1.98951966012828e-13,
                            "duration" : 47
                          },
                          {
                            "endTime" : 9287,
                            "time" : 9257,
                            "value" : 2077.8234427351,
                            "duration" : 30
                          },
                          {
                            "endTime" : 9785,
                            "time" : 9755,
                            "value" : 3.41060513164848e-13,
                            "duration" : 30
                          },
                          {
                            "endTime" : 10110,
                            "time" : 10080,
                            "value" : -727.865478476359,
                            "duration" : 30
                          }
                        ]
                      },
                      "translation1" : {
                        "type" : "double",
                        "defaultValue" : 0.0,
                        "keyframes" : [
                          {
                            "endTime" : 260,
                            "time" : 230,
                            "value" : -3072.65241805758,
                            "duration" : 30
                          },
                          {
                            "endTime" : 375,
                            "time" : 345,
                            "value" : -5.6843418860808e-14,
                            "duration" : 30
                          },
                          {
                            "endTime" : 1433,
                            "time" : 1403,
                            "value" : 5.57225093738339,
                            "duration" : 30
                          },
                          {
                            "endTime" : 1633,
                            "time" : 1603,
                            "value" : -1.0724754417879e-13,
                            "duration" : 30
                          },
                          {
                            "endTime" : 2012,
                            "time" : 1982,
                            "value" : 377.898911972652,
                            "duration" : 30
                          },
                          {
                            "endTime" : 8833,
                            "time" : 8807,
                            "value" : 1508.20260622586,
                            "duration" : 26
                          },
                          {
                            "endTime" : 9253,
                            "time" : 9206,
                            "value" : 0.0,
                            "duration" : 47
                          },
                          {
                            "endTime" : 9287,
                            "time" : 9257,
                            "value" : -66.7870775612071,
                            "duration" : 30
                          },
                          {
                            "endTime" : 9785,
                            "time" : 9755,
                            "value" : -4.9737991503207e-14,
                            "duration" : 30
                          },
                          {
                            "endTime" : 10110,
                            "time" : 10080,
                            "value" : 793.17781292182,
                            "duration" : 30
                          }
                        ]
                      },
                      "scale0" : {
                        "type" : "double",
                        "defaultValue" : 1.0,
                        "keyframes" : [
                          {
                            "endTime" : 260,
                            "time" : 230,
                            "value" : 6.62127287207902,
                            "duration" : 30
                          },
                          {
                            "endTime" : 375,
                            "time" : 345,
                            "value" : 1.0,
                            "duration" : 30
                          },
                          {
                            "endTime" : 1433,
                            "time" : 1403,
                            "value" : 3.40690314495839,
                            "duration" : 30
                          },
                          {
                            "endTime" : 1633,
                            "time" : 1603,
                            "value" : 1.0,
                            "duration" : 30
                          },
                          {
                            "endTime" : 2012,
                            "time" : 1982,
                            "value" : 1.71147598625338,
                            "duration" : 30
                          },
                          {
                            "endTime" : 8833,
                            "time" : 8807,
                            "value" : 3.60204142445965,
                            "duration" : 26
                          },
                          {
                            "endTime" : 9253,
                            "time" : 9206,
                            "value" : 0.999999898028527,
                            "duration" : 47
                          },
                          {
                            "endTime" : 9287,
                            "time" : 9257,
                            "value" : 2.87114235039259,
                            "duration" : 30
                          },
                          {
                            "endTime" : 9785,
                            "time" : 9755,
                            "value" : 0.999999749420839,
                            "duration" : 30
                          },
                          {
                            "endTime" : 10110,
                            "time" : 10080,
                            "value" : 2.36733015083206,
                            "duration" : 30
                          }
                        ]
                      },
                      "scale1" : {
                        "type" : "double",
                        "defaultValue" : 1.0,
                        "keyframes" : [
                          {
                            "endTime" : 260,
                            "time" : 230,
                            "value" : 6.62127291078292,
                            "duration" : 30
                          },
                          {
                            "endTime" : 375,
                            "time" : 345,
                            "value" : 1.0,
                            "duration" : 30
                          },
                          {
                            "endTime" : 1433,
                            "time" : 1403,
                            "value" : 3.40690239557822,
                            "duration" : 30
                          },
                          {
                            "endTime" : 1633,
                            "time" : 1603,
                            "value" : 1.0,
                            "duration" : 30
                          },
                          {
                            "endTime" : 2012,
                            "time" : 1982,
                            "value" : 1.71147597084861,
                            "duration" : 30
                          },
                          {
                            "endTime" : 8833,
                            "time" : 8807,
                            "value" : 3.60204179176516,
                            "duration" : 26
                          },
                          {
                            "endTime" : 9253,
                            "time" : 9206,
                            "value" : 1.0,
                            "duration" : 47
                          },
                          {
                            "endTime" : 9287,
                            "time" : 9257,
                            "value" : 2.87114306984122,
                            "duration" : 30
                          },
                          {
                            "endTime" : 9785,
                            "time" : 9755,
                            "value" : 1.0,
                            "duration" : 30
                          },
                          {
                            "endTime" : 10110,
                            "time" : 10080,
                            "value" : 2.3673303422297,
                            "duration" : 30
                          }
                        ]
                      },
                      "cursorOpacity" : 1.0,
                      "cursorScale" : 1.0
                    },
                    "medias" : [
                        {
                          "id" : 331,
                          "_type" : "ScreenVMFile",
                          "src" : 1,
                          "trackNumber" : 0,
                          "attributes" : {
                            "ident" : "token_hijacking_attack_prevention"
                          },
                          "parameters" : {
                            "cursorScale" : {
                              "type" : "double",
                              "defaultValue" : 0.0,
                              "interp" : "linr"
                            },
                            "cursorOpacity" : {
                              "type" : "double",
                              "defaultValue" : 0.0,
                              "interp" : "linr"
                            }
                          },
                          "effects" : [

                          ],
                          "start" : 0,
                          "duration" : 276,
                          "mediaStart" : 0,
                          "mediaDuration" : 276,
                          "scalar" : 1,
                          "metadata" : {
                            "AutoAppliedSmartFocus" : "False",
                            "clipSpeedAttribute" : false,
                            "default-scale0" : 1.0,
                            "default-scale1" : 1.0,
                            "default-translation0" : 0.0,
                            "default-translation1" : 0.0
                          },
                          "animationTracks" : {

                          }
                        },
                        {
                          "id" : 332,
                          "_type" : "ScreenIMFile",
                          "src" : 1,
                          "trackNumber" : 0,
                          "trimStartSum" : 0,
                          "attributes" : {
                            "ident" : "token_hijacking_attack_prevention"
                          },
                          "parameters" : {
                            "cursorOpacity" : 0.0,
                            "cursorScale" : 0.0
                          },
                          "effects" : [

                          ],
                          "start" : 276,
                          "duration" : 90,
                          "mediaStart" : 275,
                          "mediaDuration" : 1,
                          "scalar" : 1,
                          "metadata" : {
                            "AutoAppliedSmartFocus" : "False"
                          },
                          "animationTracks" : {

                          }
                        },
                        {
                          "id" : 333,
                          "_type" : "ScreenVMFile",
                          "src" : 1,
                          "trackNumber" : 0,
                          "attributes" : {
                            "ident" : "token_hijacking_attack_prevention"
                          },
                          "parameters" : {
                            "cursorScale" : {
                              "type" : "double",
                              "defaultValue" : 0.0,
                              "interp" : "linr"
                            },
                            "cursorOpacity" : {
                              "type" : "double",
                              "defaultValue" : 0.0,
                              "interp" : "linr"
                            }
                          },
                          "effects" : [

                          ],
                          "start" : 366,
                          "duration" : 61,
                          "mediaStart" : 276,
                          "mediaDuration" : 61,
                          "scalar" : 1,
                          "metadata" : {
                            "AutoAppliedSmartFocus" : "False",
                            "clipSpeedAttribute" : false,
                            "default-scale0" : 1.0,
                            "default-scale1" : 1.0,
                            "default-translation0" : 0.0,
                            "default-translation1" : 0.0
                          },
                          "animationTracks" : {

                          }
                        },
                        {
                          "id" : 334,
                          "_type" : "ScreenIMFile",
                          "src" : 1,
                          "trackNumber" : 0,
                          "trimStartSum" : 0,
                          "attributes" : {
                            "ident" : "token_hijacking_attack_prevention"
                          },
                          "parameters" : {
                            "cursorOpacity" : 0.0,
                            "cursorScale" : 0.0
                          },
                          "effects" : [

                          ],
                          "start" : 427,
                          "duration" : 30,
                          "mediaStart" : 337,
                          "mediaDuration" : 1,
                          "scalar" : 1,
                          "metadata" : {
                            "AutoAppliedSmartFocus" : "False"
                          },
                          "animationTracks" : {

                          }
                        },
                        {
                          "id" : 335,
                          "_type" : "ScreenVMFile",
                          "src" : 1,
                          "trackNumber" : 0,
                          "attributes" : {
                            "ident" : "token_hijacking_attack_prevention"
                          },
                          "parameters" : {
                            "cursorScale" : {
                              "type" : "double",
                              "defaultValue" : 0.0,
                              "interp" : "linr"
                            },
                            "cursorOpacity" : {
                              "type" : "double",
                              "defaultValue" : 0.0,
                              "interp" : "linr"
                            }
                          },
                          "effects" : [

                          ],
                          "start" : 457,
                          "duration" : 1089,
                          "mediaStart" : 337,
                          "mediaDuration" : 1089,
                          "scalar" : 1,
                          "metadata" : {
                            "AutoAppliedSmartFocus" : "False",
                            "clipSpeedAttribute" : false,
                            "default-scale0" : 1.0,
                            "default-scale1" : 1.0,
                            "default-translation0" : 0.0,
                            "default-translation1" : 0.0
                          },
                          "animationTracks" : {

                          }
                        },
                        {
                          "id" : 336,
                          "_type" : "ScreenIMFile",
                          "src" : 1,
                          "trackNumber" : 0,
                          "trimStartSum" : 0,
                          "attributes" : {
                            "ident" : "token_hijacking_attack_prevention"
                          },
                          "parameters" : {
                            "cursorOpacity" : 0.0,
                            "cursorScale" : 0.0
                          },
                          "effects" : [

                          ],
                          "start" : 1546,
                          "duration" : 90,
                          "mediaStart" : 1426,
                          "mediaDuration" : 1,
                          "scalar" : 1,
                          "metadata" : {
                            "AutoAppliedSmartFocus" : "False"
                          },
                          "animationTracks" : {

                          }
                        },
                        {
                          "id" : 337,
                          "_type" : "ScreenVMFile",
                          "src" : 1,
                          "trackNumber" : 0,
                          "attributes" : {
                            "ident" : "token_hijacking_attack_prevention"
                          },
                          "parameters" : {
                            "cursorScale" : {
                              "type" : "double",
                              "defaultValue" : 0.0,
                              "interp" : "linr"
                            },
                            "cursorOpacity" : {
                              "type" : "double",
                              "defaultValue" : 0.0,
                              "interp" : "linr"
                            }
                          },
                          "effects" : [

                          ],
                          "start" : 1636,
                          "duration" : 8601,
                          "mediaStart" : 1426,
                          "mediaDuration" : 8601,
                          "scalar" : 1,
                          "metadata" : {
                            "AutoAppliedSmartFocus" : "False",
                            "clipSpeedAttribute" : false,
                            "default-scale0" : 1.0,
                            "default-scale1" : 1.0,
                            "default-translation0" : 0.0,
                            "default-translation1" : 0.0
                          },
                          "animationTracks" : {

                          }
                        },
                        {
                          "id" : 338,
                          "_type" : "ScreenIMFile",
                          "src" : 1,
                          "trackNumber" : 0,
                          "trimStartSum" : 0,
                          "attributes" : {
                            "ident" : "token_hijacking_attack_prevention"
                          },
                          "parameters" : {
                            "cursorOpacity" : 0.0,
                            "cursorScale" : 0.0
                          },
                          "effects" : [

                          ],
                          "start" : 10237,
                          "duration" : 30,
                          "mediaStart" : 10027,
                          "mediaDuration" : 1,
                          "scalar" : 1,
                          "metadata" : {
                            "AutoAppliedSmartFocus" : "False"
                          },
                          "animationTracks" : {

                          }
                        },
                        {
                          "id" : 339,
                          "_type" : "ScreenVMFile",
                          "src" : 1,
                          "trackNumber" : 0,
                          "attributes" : {
                            "ident" : "token_hijacking_attack_prevention"
                          },
                          "parameters" : {
                            "cursorScale" : {
                              "type" : "double",
                              "defaultValue" : 0.0,
                              "interp" : "linr"
                            },
                            "cursorOpacity" : {
                              "type" : "double",
                              "defaultValue" : 0.0,
                              "interp" : "linr"
                            }
                          },
                          "effects" : [

                          ],
                          "start" : 10267,
                          "duration" : 10275,
                          "mediaStart" : 10027,
                          "mediaDuration" : 10275,
                          "scalar" : 1,
                          "metadata" : {
                            "AutoAppliedSmartFocus" : "False",
                            "clipSpeedAttribute" : false,
                            "default-scale0" : 1.0,
                            "default-scale1" : 1.0,
                            "default-translation0" : 0.0,
                            "default-translation1" : 0.0
                          },
                          "animationTracks" : {

                          }
                        }
                    ],
                    "effects" : [
                        {
                          "effectName" : "CursorHilight",
                          "category" : "categoryCursorEffects",
                          "parameters" : {
                            "blur" : 0.1,
                            "color-alpha" : 0.75,
                            "color-blue" : 0.0,
                            "color-green" : 1.0,
                            "color-red" : 1.0,
                            "radius" : 50.0
                          }
                        }
                    ],
                    "start" : 2690,
                    "duration" : 12,
                    "mediaStart" : 10282,
                    "mediaDuration" : 12,
                    "scalar" : 1,
                    "metadata" : {
                      "AutoAppliedSmartFocus" : "False",
                      "clipSpeedAttribute" : false,
                      "default-translation1" : 793.17781292182
                    },
                    "animationTracks" : {
                      "visual" : [
                        {
                          "endTime" : 260,
                          "duration" : 30,
                          "range" : [ 230, 30]
                        },
                        {
                          "endTime" : 375,
                          "duration" : 30,
                          "range" : [ 345, 30]
                        },
                        {
                          "endTime" : 1433,
                          "duration" : 30,
                          "range" : [ 1403, 30]
                        },
                        {
                          "endTime" : 1633,
                          "duration" : 30,
                          "range" : [ 1603, 30]
                        },
                        {
                          "endTime" : 2012,
                          "duration" : 30,
                          "range" : [ 1982, 30]
                        },
                        {
                          "endTime" : 8833,
                          "duration" : 26,
                          "range" : [ 8807, 26]
                        },
                        {
                          "endTime" : 9253,
                          "duration" : 47,
                          "range" : [ 9206, 47]
                        },
                        {
                          "endTime" : 9287,
                          "duration" : 30,
                          "range" : [ 9257, 30]
                        },
                        {
                          "endTime" : 9785,
                          "duration" : 30,
                          "range" : [ 9755, 30]
                        },
                        {
                          "endTime" : 10110,
                          "duration" : 30,
                          "range" : [ 10080, 30]
                        }
                      ]
                    }
                  },
                  {
                    "id" : 340,
                    "_type" : "StitchedMedia",
                    "minMediaStart" : 0,
                    "attributes" : {
                      "ident" : "token_hijacking_attack_prevention",
                      "gain" : 1.0,
                      "mixToMono" : false
                    },
                    "parameters" : {
                      "translation0" : {
                        "type" : "double",
                        "defaultValue" : 0.0,
                        "keyframes" : [
                          {
                            "endTime" : 260,
                            "time" : 230,
                            "value" : 6617.65048026514,
                            "duration" : 30
                          },
                          {
                            "endTime" : 375,
                            "time" : 345,
                            "value" : -5.6843418860808e-13,
                            "duration" : 30
                          },
                          {
                            "endTime" : 1433,
                            "time" : 1403,
                            "value" : -544.842863508438,
                            "duration" : 30
                          },
                          {
                            "endTime" : 1633,
                            "time" : 1603,
                            "value" : 0.0,
                            "duration" : 30
                          },
                          {
                            "endTime" : 2012,
                            "time" : 1982,
                            "value" : -910.68970193186,
                            "duration" : 30
                          },
                          {
                            "endTime" : 8833,
                            "time" : 8807,
                            "value" : -502.735147015968,
                            "duration" : 26
                          },
                          {
                            "endTime" : 9253,
                            "time" : 9206,
                            "value" : 1.98951966012828e-13,
                            "duration" : 47
                          },
                          {
                            "endTime" : 9287,
                            "time" : 9257,
                            "value" : 2077.8234427351,
                            "duration" : 30
                          },
                          {
                            "endTime" : 9785,
                            "time" : 9755,
                            "value" : 3.41060513164848e-13,
                            "duration" : 30
                          },
                          {
                            "endTime" : 10110,
                            "time" : 10080,
                            "value" : -727.865478476359,
                            "duration" : 30
                          }
                        ]
                      },
                      "translation1" : {
                        "type" : "double",
                        "defaultValue" : 0.0,
                        "keyframes" : [
                          {
                            "endTime" : 260,
                            "time" : 230,
                            "value" : -3072.65241805758,
                            "duration" : 30
                          },
                          {
                            "endTime" : 375,
                            "time" : 345,
                            "value" : -5.6843418860808e-14,
                            "duration" : 30
                          },
                          {
                            "endTime" : 1433,
                            "time" : 1403,
                            "value" : 5.57225093738339,
                            "duration" : 30
                          },
                          {
                            "endTime" : 1633,
                            "time" : 1603,
                            "value" : -1.0724754417879e-13,
                            "duration" : 30
                          },
                          {
                            "endTime" : 2012,
                            "time" : 1982,
                            "value" : 377.898911972652,
                            "duration" : 30
                          },
                          {
                            "endTime" : 8833,
                            "time" : 8807,
                            "value" : 1508.20260622586,
                            "duration" : 26
                          },
                          {
                            "endTime" : 9253,
                            "time" : 9206,
                            "value" : 0.0,
                            "duration" : 47
                          },
                          {
                            "endTime" : 9287,
                            "time" : 9257,
                            "value" : -66.7870775612071,
                            "duration" : 30
                          },
                          {
                            "endTime" : 9785,
                            "time" : 9755,
                            "value" : -4.9737991503207e-14,
                            "duration" : 30
                          },
                          {
                            "endTime" : 10110,
                            "time" : 10080,
                            "value" : 793.17781292182,
                            "duration" : 30
                          }
                        ]
                      },
                      "scale0" : {
                        "type" : "double",
                        "defaultValue" : 1.0,
                        "keyframes" : [
                          {
                            "endTime" : 260,
                            "time" : 230,
                            "value" : 6.62127287207902,
                            "duration" : 30
                          },
                          {
                            "endTime" : 375,
                            "time" : 345,
                            "value" : 1.0,
                            "duration" : 30
                          },
                          {
                            "endTime" : 1433,
                            "time" : 1403,
                            "value" : 3.40690314495839,
                            "duration" : 30
                          },
                          {
                            "endTime" : 1633,
                            "time" : 1603,
                            "value" : 1.0,
                            "duration" : 30
                          },
                          {
                            "endTime" : 2012,
                            "time" : 1982,
                            "value" : 1.71147598625338,
                            "duration" : 30
                          },
                          {
                            "endTime" : 8833,
                            "time" : 8807,
                            "value" : 3.60204142445965,
                            "duration" : 26
                          },
                          {
                            "endTime" : 9253,
                            "time" : 9206,
                            "value" : 0.999999898028527,
                            "duration" : 47
                          },
                          {
                            "endTime" : 9287,
                            "time" : 9257,
                            "value" : 2.87114235039259,
                            "duration" : 30
                          },
                          {
                            "endTime" : 9785,
                            "time" : 9755,
                            "value" : 0.999999749420839,
                            "duration" : 30
                          },
                          {
                            "endTime" : 10110,
                            "time" : 10080,
                            "value" : 2.36733015083206,
                            "duration" : 30
                          }
                        ]
                      },
                      "scale1" : {
                        "type" : "double",
                        "defaultValue" : 1.0,
                        "keyframes" : [
                          {
                            "endTime" : 260,
                            "time" : 230,
                            "value" : 6.62127291078292,
                            "duration" : 30
                          },
                          {
                            "endTime" : 375,
                            "time" : 345,
                            "value" : 1.0,
                            "duration" : 30
                          },
                          {
                            "endTime" : 1433,
                            "time" : 1403,
                            "value" : 3.40690239557822,
                            "duration" : 30
                          },
                          {
                            "endTime" : 1633,
                            "time" : 1603,
                            "value" : 1.0,
                            "duration" : 30
                          },
                          {
                            "endTime" : 2012,
                            "time" : 1982,
                            "value" : 1.71147597084861,
                            "duration" : 30
                          },
                          {
                            "endTime" : 8833,
                            "time" : 8807,
                            "value" : 3.60204179176516,
                            "duration" : 26
                          },
                          {
                            "endTime" : 9253,
                            "time" : 9206,
                            "value" : 1.0,
                            "duration" : 47
                          },
                          {
                            "endTime" : 9287,
                            "time" : 9257,
                            "value" : 2.87114306984122,
                            "duration" : 30
                          },
                          {
                            "endTime" : 9785,
                            "time" : 9755,
                            "value" : 1.0,
                            "duration" : 30
                          },
                          {
                            "endTime" : 10110,
                            "time" : 10080,
                            "value" : 2.3673303422297,
                            "duration" : 30
                          }
                        ]
                      },
                      "cursorOpacity" : 1.0,
                      "cursorScale" : 1.0
                    },
                    "medias" : [
                        {
                          "id" : 341,
                          "_type" : "ScreenVMFile",
                          "src" : 1,
                          "trackNumber" : 0,
                          "attributes" : {
                            "ident" : "token_hijacking_attack_prevention"
                          },
                          "parameters" : {
                            "cursorScale" : {
                              "type" : "double",
                              "defaultValue" : 0.0,
                              "interp" : "linr"
                            },
                            "cursorOpacity" : {
                              "type" : "double",
                              "defaultValue" : 0.0,
                              "interp" : "linr"
                            }
                          },
                          "effects" : [

                          ],
                          "start" : 0,
                          "duration" : 276,
                          "mediaStart" : 0,
                          "mediaDuration" : 276,
                          "scalar" : 1,
                          "metadata" : {
                            "AutoAppliedSmartFocus" : "False",
                            "clipSpeedAttribute" : false,
                            "default-scale0" : 1.0,
                            "default-scale1" : 1.0,
                            "default-translation0" : 0.0,
                            "default-translation1" : 0.0
                          },
                          "animationTracks" : {

                          }
                        },
                        {
                          "id" : 342,
                          "_type" : "ScreenIMFile",
                          "src" : 1,
                          "trackNumber" : 0,
                          "trimStartSum" : 0,
                          "attributes" : {
                            "ident" : "token_hijacking_attack_prevention"
                          },
                          "parameters" : {
                            "cursorOpacity" : 0.0,
                            "cursorScale" : 0.0
                          },
                          "effects" : [

                          ],
                          "start" : 276,
                          "duration" : 90,
                          "mediaStart" : 275,
                          "mediaDuration" : 1,
                          "scalar" : 1,
                          "metadata" : {
                            "AutoAppliedSmartFocus" : "False"
                          },
                          "animationTracks" : {

                          }
                        },
                        {
                          "id" : 343,
                          "_type" : "ScreenVMFile",
                          "src" : 1,
                          "trackNumber" : 0,
                          "attributes" : {
                            "ident" : "token_hijacking_attack_prevention"
                          },
                          "parameters" : {
                            "cursorScale" : {
                              "type" : "double",
                              "defaultValue" : 0.0,
                              "interp" : "linr"
                            },
                            "cursorOpacity" : {
                              "type" : "double",
                              "defaultValue" : 0.0,
                              "interp" : "linr"
                            }
                          },
                          "effects" : [

                          ],
                          "start" : 366,
                          "duration" : 61,
                          "mediaStart" : 276,
                          "mediaDuration" : 61,
                          "scalar" : 1,
                          "metadata" : {
                            "AutoAppliedSmartFocus" : "False",
                            "clipSpeedAttribute" : false,
                            "default-scale0" : 1.0,
                            "default-scale1" : 1.0,
                            "default-translation0" : 0.0,
                            "default-translation1" : 0.0
                          },
                          "animationTracks" : {

                          }
                        },
                        {
                          "id" : 344,
                          "_type" : "ScreenIMFile",
                          "src" : 1,
                          "trackNumber" : 0,
                          "trimStartSum" : 0,
                          "attributes" : {
                            "ident" : "token_hijacking_attack_prevention"
                          },
                          "parameters" : {
                            "cursorOpacity" : 0.0,
                            "cursorScale" : 0.0
                          },
                          "effects" : [

                          ],
                          "start" : 427,
                          "duration" : 30,
                          "mediaStart" : 337,
                          "mediaDuration" : 1,
                          "scalar" : 1,
                          "metadata" : {
                            "AutoAppliedSmartFocus" : "False"
                          },
                          "animationTracks" : {

                          }
                        },
                        {
                          "id" : 345,
                          "_type" : "ScreenVMFile",
                          "src" : 1,
                          "trackNumber" : 0,
                          "attributes" : {
                            "ident" : "token_hijacking_attack_prevention"
                          },
                          "parameters" : {
                            "cursorScale" : {
                              "type" : "double",
                              "defaultValue" : 0.0,
                              "interp" : "linr"
                            },
                            "cursorOpacity" : {
                              "type" : "double",
                              "defaultValue" : 0.0,
                              "interp" : "linr"
                            }
                          },
                          "effects" : [

                          ],
                          "start" : 457,
                          "duration" : 1089,
                          "mediaStart" : 337,
                          "mediaDuration" : 1089,
                          "scalar" : 1,
                          "metadata" : {
                            "AutoAppliedSmartFocus" : "False",
                            "clipSpeedAttribute" : false,
                            "default-scale0" : 1.0,
                            "default-scale1" : 1.0,
                            "default-translation0" : 0.0,
                            "default-translation1" : 0.0
                          },
                          "animationTracks" : {

                          }
                        },
                        {
                          "id" : 346,
                          "_type" : "ScreenIMFile",
                          "src" : 1,
                          "trackNumber" : 0,
                          "trimStartSum" : 0,
                          "attributes" : {
                            "ident" : "token_hijacking_attack_prevention"
                          },
                          "parameters" : {
                            "cursorOpacity" : 0.0,
                            "cursorScale" : 0.0
                          },
                          "effects" : [

                          ],
                          "start" : 1546,
                          "duration" : 90,
                          "mediaStart" : 1426,
                          "mediaDuration" : 1,
                          "scalar" : 1,
                          "metadata" : {
                            "AutoAppliedSmartFocus" : "False"
                          },
                          "animationTracks" : {

                          }
                        },
                        {
                          "id" : 347,
                          "_type" : "ScreenVMFile",
                          "src" : 1,
                          "trackNumber" : 0,
                          "attributes" : {
                            "ident" : "token_hijacking_attack_prevention"
                          },
                          "parameters" : {
                            "cursorScale" : {
                              "type" : "double",
                              "defaultValue" : 0.0,
                              "interp" : "linr"
                            },
                            "cursorOpacity" : {
                              "type" : "double",
                              "defaultValue" : 0.0,
                              "interp" : "linr"
                            }
                          },
                          "effects" : [

                          ],
                          "start" : 1636,
                          "duration" : 8601,
                          "mediaStart" : 1426,
                          "mediaDuration" : 8601,
                          "scalar" : 1,
                          "metadata" : {
                            "AutoAppliedSmartFocus" : "False",
                            "clipSpeedAttribute" : false,
                            "default-scale0" : 1.0,
                            "default-scale1" : 1.0,
                            "default-translation0" : 0.0,
                            "default-translation1" : 0.0
                          },
                          "animationTracks" : {

                          }
                        },
                        {
                          "id" : 348,
                          "_type" : "ScreenIMFile",
                          "src" : 1,
                          "trackNumber" : 0,
                          "trimStartSum" : 0,
                          "attributes" : {
                            "ident" : "token_hijacking_attack_prevention"
                          },
                          "parameters" : {
                            "cursorOpacity" : 0.0,
                            "cursorScale" : 0.0
                          },
                          "effects" : [

                          ],
                          "start" : 10237,
                          "duration" : 30,
                          "mediaStart" : 10027,
                          "mediaDuration" : 1,
                          "scalar" : 1,
                          "metadata" : {
                            "AutoAppliedSmartFocus" : "False"
                          },
                          "animationTracks" : {

                          }
                        },
                        {
                          "id" : 349,
                          "_type" : "ScreenVMFile",
                          "src" : 1,
                          "trackNumber" : 0,
                          "attributes" : {
                            "ident" : "token_hijacking_attack_prevention"
                          },
                          "parameters" : {
                            "cursorScale" : {
                              "type" : "double",
                              "defaultValue" : 0.0,
                              "interp" : "linr"
                            },
                            "cursorOpacity" : {
                              "type" : "double",
                              "defaultValue" : 0.0,
                              "interp" : "linr"
                            }
                          },
                          "effects" : [

                          ],
                          "start" : 10267,
                          "duration" : 10275,
                          "mediaStart" : 10027,
                          "mediaDuration" : 10275,
                          "scalar" : 1,
                          "metadata" : {
                            "AutoAppliedSmartFocus" : "False",
                            "clipSpeedAttribute" : false,
                            "default-scale0" : 1.0,
                            "default-scale1" : 1.0,
                            "default-translation0" : 0.0,
                            "default-translation1" : 0.0
                          },
                          "animationTracks" : {

                          }
                        }
                    ],
                    "effects" : [
                        {
                          "effectName" : "CursorHilight",
                          "category" : "categoryCursorEffects",
                          "parameters" : {
                            "blur" : 0.1,
                            "color-alpha" : 0.75,
                            "color-blue" : 0.0,
                            "color-green" : 1.0,
                            "color-red" : 1.0,
                            "radius" : 50.0
                          }
                        }
                    ],
                    "start" : 2702,
                    "duration" : 47,
                    "mediaStart" : 10961,
                    "mediaDuration" : 47,
                    "scalar" : 1,
                    "metadata" : {
                      "AutoAppliedSmartFocus" : "False",
                      "clipSpeedAttribute" : false
                    },
                    "animationTracks" : {
                      "visual" : [
                        {
                          "endTime" : 260,
                          "duration" : 30,
                          "range" : [ 230, 30]
                        },
                        {
                          "endTime" : 375,
                          "duration" : 30,
                          "range" : [ 345, 30]
                        },
                        {
                          "endTime" : 1433,
                          "duration" : 30,
                          "range" : [ 1403, 30]
                        },
                        {
                          "endTime" : 1633,
                          "duration" : 30,
                          "range" : [ 1603, 30]
                        },
                        {
                          "endTime" : 2012,
                          "duration" : 30,
                          "range" : [ 1982, 30]
                        },
                        {
                          "endTime" : 8833,
                          "duration" : 26,
                          "range" : [ 8807, 26]
                        },
                        {
                          "endTime" : 9253,
                          "duration" : 47,
                          "range" : [ 9206, 47]
                        },
                        {
                          "endTime" : 9287,
                          "duration" : 30,
                          "range" : [ 9257, 30]
                        },
                        {
                          "endTime" : 9785,
                          "duration" : 30,
                          "range" : [ 9755, 30]
                        },
                        {
                          "endTime" : 10110,
                          "duration" : 30,
                          "range" : [ 10080, 30]
                        }
                      ]
                    }
                  },
                  {
                    "id" : 350,
                    "_type" : "StitchedMedia",
                    "minMediaStart" : 0,
                    "attributes" : {
                      "ident" : "token_hijacking_attack_prevention",
                      "gain" : 1.0,
                      "mixToMono" : false
                    },
                    "parameters" : {
                      "translation0" : {
                        "type" : "double",
                        "defaultValue" : 0.0,
                        "keyframes" : [
                          {
                            "endTime" : 260,
                            "time" : 230,
                            "value" : 6617.65048026514,
                            "duration" : 30
                          },
                          {
                            "endTime" : 375,
                            "time" : 345,
                            "value" : -5.6843418860808e-13,
                            "duration" : 30
                          },
                          {
                            "endTime" : 1433,
                            "time" : 1403,
                            "value" : -544.842863508438,
                            "duration" : 30
                          },
                          {
                            "endTime" : 1633,
                            "time" : 1603,
                            "value" : 0.0,
                            "duration" : 30
                          },
                          {
                            "endTime" : 2012,
                            "time" : 1982,
                            "value" : -910.68970193186,
                            "duration" : 30
                          },
                          {
                            "endTime" : 8833,
                            "time" : 8807,
                            "value" : -502.735147015968,
                            "duration" : 26
                          },
                          {
                            "endTime" : 9253,
                            "time" : 9206,
                            "value" : 1.98951966012828e-13,
                            "duration" : 47
                          },
                          {
                            "endTime" : 9287,
                            "time" : 9257,
                            "value" : 2077.8234427351,
                            "duration" : 30
                          },
                          {
                            "endTime" : 9785,
                            "time" : 9755,
                            "value" : 3.41060513164848e-13,
                            "duration" : 30
                          },
                          {
                            "endTime" : 10110,
                            "time" : 10080,
                            "value" : -727.865478476359,
                            "duration" : 30
                          }
                        ]
                      },
                      "translation1" : {
                        "type" : "double",
                        "defaultValue" : 0.0,
                        "keyframes" : [
                          {
                            "endTime" : 260,
                            "time" : 230,
                            "value" : -3072.65241805758,
                            "duration" : 30
                          },
                          {
                            "endTime" : 375,
                            "time" : 345,
                            "value" : -5.6843418860808e-14,
                            "duration" : 30
                          },
                          {
                            "endTime" : 1433,
                            "time" : 1403,
                            "value" : 5.57225093738339,
                            "duration" : 30
                          },
                          {
                            "endTime" : 1633,
                            "time" : 1603,
                            "value" : -1.0724754417879e-13,
                            "duration" : 30
                          },
                          {
                            "endTime" : 2012,
                            "time" : 1982,
                            "value" : 377.898911972652,
                            "duration" : 30
                          },
                          {
                            "endTime" : 8833,
                            "time" : 8807,
                            "value" : 1508.20260622586,
                            "duration" : 26
                          },
                          {
                            "endTime" : 9253,
                            "time" : 9206,
                            "value" : 0.0,
                            "duration" : 47
                          },
                          {
                            "endTime" : 9287,
                            "time" : 9257,
                            "value" : -66.7870775612071,
                            "duration" : 30
                          },
                          {
                            "endTime" : 9785,
                            "time" : 9755,
                            "value" : -4.9737991503207e-14,
                            "duration" : 30
                          },
                          {
                            "endTime" : 10110,
                            "time" : 10080,
                            "value" : 793.17781292182,
                            "duration" : 30
                          }
                        ]
                      },
                      "scale0" : {
                        "type" : "double",
                        "defaultValue" : 1.0,
                        "keyframes" : [
                          {
                            "endTime" : 260,
                            "time" : 230,
                            "value" : 6.62127287207902,
                            "duration" : 30
                          },
                          {
                            "endTime" : 375,
                            "time" : 345,
                            "value" : 1.0,
                            "duration" : 30
                          },
                          {
                            "endTime" : 1433,
                            "time" : 1403,
                            "value" : 3.40690314495839,
                            "duration" : 30
                          },
                          {
                            "endTime" : 1633,
                            "time" : 1603,
                            "value" : 1.0,
                            "duration" : 30
                          },
                          {
                            "endTime" : 2012,
                            "time" : 1982,
                            "value" : 1.71147598625338,
                            "duration" : 30
                          },
                          {
                            "endTime" : 8833,
                            "time" : 8807,
                            "value" : 3.60204142445965,
                            "duration" : 26
                          },
                          {
                            "endTime" : 9253,
                            "time" : 9206,
                            "value" : 0.999999898028527,
                            "duration" : 47
                          },
                          {
                            "endTime" : 9287,
                            "time" : 9257,
                            "value" : 2.87114235039259,
                            "duration" : 30
                          },
                          {
                            "endTime" : 9785,
                            "time" : 9755,
                            "value" : 0.999999749420839,
                            "duration" : 30
                          },
                          {
                            "endTime" : 10110,
                            "time" : 10080,
                            "value" : 2.36733015083206,
                            "duration" : 30
                          }
                        ]
                      },
                      "scale1" : {
                        "type" : "double",
                        "defaultValue" : 1.0,
                        "keyframes" : [
                          {
                            "endTime" : 260,
                            "time" : 230,
                            "value" : 6.62127291078292,
                            "duration" : 30
                          },
                          {
                            "endTime" : 375,
                            "time" : 345,
                            "value" : 1.0,
                            "duration" : 30
                          },
                          {
                            "endTime" : 1433,
                            "time" : 1403,
                            "value" : 3.40690239557822,
                            "duration" : 30
                          },
                          {
                            "endTime" : 1633,
                            "time" : 1603,
                            "value" : 1.0,
                            "duration" : 30
                          },
                          {
                            "endTime" : 2012,
                            "time" : 1982,
                            "value" : 1.71147597084861,
                            "duration" : 30
                          },
                          {
                            "endTime" : 8833,
                            "time" : 8807,
                            "value" : 3.60204179176516,
                            "duration" : 26
                          },
                          {
                            "endTime" : 9253,
                            "time" : 9206,
                            "value" : 1.0,
                            "duration" : 47
                          },
                          {
                            "endTime" : 9287,
                            "time" : 9257,
                            "value" : 2.87114306984122,
                            "duration" : 30
                          },
                          {
                            "endTime" : 9785,
                            "time" : 9755,
                            "value" : 1.0,
                            "duration" : 30
                          },
                          {
                            "endTime" : 10110,
                            "time" : 10080,
                            "value" : 2.3673303422297,
                            "duration" : 30
                          }
                        ]
                      },
                      "cursorOpacity" : 1.0,
                      "cursorScale" : 1.0
                    },
                    "medias" : [
                        {
                          "id" : 351,
                          "_type" : "ScreenVMFile",
                          "src" : 1,
                          "trackNumber" : 0,
                          "attributes" : {
                            "ident" : "token_hijacking_attack_prevention"
                          },
                          "parameters" : {
                            "cursorScale" : {
                              "type" : "double",
                              "defaultValue" : 0.0,
                              "interp" : "linr"
                            },
                            "cursorOpacity" : {
                              "type" : "double",
                              "defaultValue" : 0.0,
                              "interp" : "linr"
                            }
                          },
                          "effects" : [

                          ],
                          "start" : 0,
                          "duration" : 276,
                          "mediaStart" : 0,
                          "mediaDuration" : 276,
                          "scalar" : 1,
                          "metadata" : {
                            "AutoAppliedSmartFocus" : "False",
                            "clipSpeedAttribute" : false,
                            "default-scale0" : 1.0,
                            "default-scale1" : 1.0,
                            "default-translation0" : 0.0,
                            "default-translation1" : 0.0
                          },
                          "animationTracks" : {

                          }
                        },
                        {
                          "id" : 352,
                          "_type" : "ScreenIMFile",
                          "src" : 1,
                          "trackNumber" : 0,
                          "trimStartSum" : 0,
                          "attributes" : {
                            "ident" : "token_hijacking_attack_prevention"
                          },
                          "parameters" : {
                            "cursorOpacity" : 0.0,
                            "cursorScale" : 0.0
                          },
                          "effects" : [

                          ],
                          "start" : 276,
                          "duration" : 90,
                          "mediaStart" : 275,
                          "mediaDuration" : 1,
                          "scalar" : 1,
                          "metadata" : {
                            "AutoAppliedSmartFocus" : "False"
                          },
                          "animationTracks" : {

                          }
                        },
                        {
                          "id" : 353,
                          "_type" : "ScreenVMFile",
                          "src" : 1,
                          "trackNumber" : 0,
                          "attributes" : {
                            "ident" : "token_hijacking_attack_prevention"
                          },
                          "parameters" : {
                            "cursorScale" : {
                              "type" : "double",
                              "defaultValue" : 0.0,
                              "interp" : "linr"
                            },
                            "cursorOpacity" : {
                              "type" : "double",
                              "defaultValue" : 0.0,
                              "interp" : "linr"
                            }
                          },
                          "effects" : [

                          ],
                          "start" : 366,
                          "duration" : 61,
                          "mediaStart" : 276,
                          "mediaDuration" : 61,
                          "scalar" : 1,
                          "metadata" : {
                            "AutoAppliedSmartFocus" : "False",
                            "clipSpeedAttribute" : false,
                            "default-scale0" : 1.0,
                            "default-scale1" : 1.0,
                            "default-translation0" : 0.0,
                            "default-translation1" : 0.0
                          },
                          "animationTracks" : {

                          }
                        },
                        {
                          "id" : 354,
                          "_type" : "ScreenIMFile",
                          "src" : 1,
                          "trackNumber" : 0,
                          "trimStartSum" : 0,
                          "attributes" : {
                            "ident" : "token_hijacking_attack_prevention"
                          },
                          "parameters" : {
                            "cursorOpacity" : 0.0,
                            "cursorScale" : 0.0
                          },
                          "effects" : [

                          ],
                          "start" : 427,
                          "duration" : 30,
                          "mediaStart" : 337,
                          "mediaDuration" : 1,
                          "scalar" : 1,
                          "metadata" : {
                            "AutoAppliedSmartFocus" : "False"
                          },
                          "animationTracks" : {

                          }
                        },
                        {
                          "id" : 355,
                          "_type" : "ScreenVMFile",
                          "src" : 1,
                          "trackNumber" : 0,
                          "attributes" : {
                            "ident" : "token_hijacking_attack_prevention"
                          },
                          "parameters" : {
                            "cursorScale" : {
                              "type" : "double",
                              "defaultValue" : 0.0,
                              "interp" : "linr"
                            },
                            "cursorOpacity" : {
                              "type" : "double",
                              "defaultValue" : 0.0,
                              "interp" : "linr"
                            }
                          },
                          "effects" : [

                          ],
                          "start" : 457,
                          "duration" : 1089,
                          "mediaStart" : 337,
                          "mediaDuration" : 1089,
                          "scalar" : 1,
                          "metadata" : {
                            "AutoAppliedSmartFocus" : "False",
                            "clipSpeedAttribute" : false,
                            "default-scale0" : 1.0,
                            "default-scale1" : 1.0,
                            "default-translation0" : 0.0,
                            "default-translation1" : 0.0
                          },
                          "animationTracks" : {

                          }
                        },
                        {
                          "id" : 356,
                          "_type" : "ScreenIMFile",
                          "src" : 1,
                          "trackNumber" : 0,
                          "trimStartSum" : 0,
                          "attributes" : {
                            "ident" : "token_hijacking_attack_prevention"
                          },
                          "parameters" : {
                            "cursorOpacity" : 0.0,
                            "cursorScale" : 0.0
                          },
                          "effects" : [

                          ],
                          "start" : 1546,
                          "duration" : 90,
                          "mediaStart" : 1426,
                          "mediaDuration" : 1,
                          "scalar" : 1,
                          "metadata" : {
                            "AutoAppliedSmartFocus" : "False"
                          },
                          "animationTracks" : {

                          }
                        },
                        {
                          "id" : 357,
                          "_type" : "ScreenVMFile",
                          "src" : 1,
                          "trackNumber" : 0,
                          "attributes" : {
                            "ident" : "token_hijacking_attack_prevention"
                          },
                          "parameters" : {
                            "cursorScale" : {
                              "type" : "double",
                              "defaultValue" : 0.0,
                              "interp" : "linr"
                            },
                            "cursorOpacity" : {
                              "type" : "double",
                              "defaultValue" : 0.0,
                              "interp" : "linr"
                            }
                          },
                          "effects" : [

                          ],
                          "start" : 1636,
                          "duration" : 8601,
                          "mediaStart" : 1426,
                          "mediaDuration" : 8601,
                          "scalar" : 1,
                          "metadata" : {
                            "AutoAppliedSmartFocus" : "False",
                            "clipSpeedAttribute" : false,
                            "default-scale0" : 1.0,
                            "default-scale1" : 1.0,
                            "default-translation0" : 0.0,
                            "default-translation1" : 0.0
                          },
                          "animationTracks" : {

                          }
                        },
                        {
                          "id" : 358,
                          "_type" : "ScreenIMFile",
                          "src" : 1,
                          "trackNumber" : 0,
                          "trimStartSum" : 0,
                          "attributes" : {
                            "ident" : "token_hijacking_attack_prevention"
                          },
                          "parameters" : {
                            "cursorOpacity" : 0.0,
                            "cursorScale" : 0.0
                          },
                          "effects" : [

                          ],
                          "start" : 10237,
                          "duration" : 30,
                          "mediaStart" : 10027,
                          "mediaDuration" : 1,
                          "scalar" : 1,
                          "metadata" : {
                            "AutoAppliedSmartFocus" : "False"
                          },
                          "animationTracks" : {

                          }
                        },
                        {
                          "id" : 359,
                          "_type" : "ScreenVMFile",
                          "src" : 1,
                          "trackNumber" : 0,
                          "attributes" : {
                            "ident" : "token_hijacking_attack_prevention"
                          },
                          "parameters" : {
                            "cursorScale" : {
                              "type" : "double",
                              "defaultValue" : 0.0,
                              "interp" : "linr"
                            },
                            "cursorOpacity" : {
                              "type" : "double",
                              "defaultValue" : 0.0,
                              "interp" : "linr"
                            }
                          },
                          "effects" : [

                          ],
                          "start" : 10267,
                          "duration" : 10275,
                          "mediaStart" : 10027,
                          "mediaDuration" : 10275,
                          "scalar" : 1,
                          "metadata" : {
                            "AutoAppliedSmartFocus" : "False",
                            "clipSpeedAttribute" : false,
                            "default-scale0" : 1.0,
                            "default-scale1" : 1.0,
                            "default-translation0" : 0.0,
                            "default-translation1" : 0.0
                          },
                          "animationTracks" : {

                          }
                        }
                    ],
                    "effects" : [
                        {
                          "effectName" : "CursorHilight",
                          "category" : "categoryCursorEffects",
                          "parameters" : {
                            "blur" : 0.1,
                            "color-alpha" : 0.75,
                            "color-blue" : 0.0,
                            "color-green" : 1.0,
                            "color-red" : 1.0,
                            "radius" : 50.0
                          }
                        }
                    ],
                    "start" : 2749,
                    "duration" : 40,
                    "mediaStart" : 11658,
                    "mediaDuration" : 40,
                    "scalar" : 1,
                    "metadata" : {
                      "AutoAppliedSmartFocus" : "False",
                      "clipSpeedAttribute" : false
                    },
                    "animationTracks" : {
                      "visual" : [
                        {
                          "endTime" : 260,
                          "duration" : 30,
                          "range" : [ 230, 30]
                        },
                        {
                          "endTime" : 375,
                          "duration" : 30,
                          "range" : [ 345, 30]
                        },
                        {
                          "endTime" : 1433,
                          "duration" : 30,
                          "range" : [ 1403, 30]
                        },
                        {
                          "endTime" : 1633,
                          "duration" : 30,
                          "range" : [ 1603, 30]
                        },
                        {
                          "endTime" : 2012,
                          "duration" : 30,
                          "range" : [ 1982, 30]
                        },
                        {
                          "endTime" : 8833,
                          "duration" : 26,
                          "range" : [ 8807, 26]
                        },
                        {
                          "endTime" : 9253,
                          "duration" : 47,
                          "range" : [ 9206, 47]
                        },
                        {
                          "endTime" : 9287,
                          "duration" : 30,
                          "range" : [ 9257, 30]
                        },
                        {
                          "endTime" : 9785,
                          "duration" : 30,
                          "range" : [ 9755, 30]
                        },
                        {
                          "endTime" : 10110,
                          "duration" : 30,
                          "range" : [ 10080, 30]
                        }
                      ]
                    }
                  },
                  {
                    "id" : 360,
                    "_type" : "StitchedMedia",
                    "minMediaStart" : 0,
                    "attributes" : {
                      "ident" : "token_hijacking_attack_prevention",
                      "gain" : 1.0,
                      "mixToMono" : false
                    },
                    "parameters" : {
                      "translation0" : {
                        "type" : "double",
                        "defaultValue" : 0.0,
                        "keyframes" : [
                          {
                            "endTime" : 260,
                            "time" : 230,
                            "value" : 6617.65048026514,
                            "duration" : 30
                          },
                          {
                            "endTime" : 375,
                            "time" : 345,
                            "value" : -5.6843418860808e-13,
                            "duration" : 30
                          },
                          {
                            "endTime" : 1433,
                            "time" : 1403,
                            "value" : -544.842863508438,
                            "duration" : 30
                          },
                          {
                            "endTime" : 1633,
                            "time" : 1603,
                            "value" : 0.0,
                            "duration" : 30
                          },
                          {
                            "endTime" : 2012,
                            "time" : 1982,
                            "value" : -910.68970193186,
                            "duration" : 30
                          },
                          {
                            "endTime" : 8833,
                            "time" : 8807,
                            "value" : -502.735147015968,
                            "duration" : 26
                          },
                          {
                            "endTime" : 9253,
                            "time" : 9206,
                            "value" : 1.98951966012828e-13,
                            "duration" : 47
                          },
                          {
                            "endTime" : 9287,
                            "time" : 9257,
                            "value" : 2077.8234427351,
                            "duration" : 30
                          },
                          {
                            "endTime" : 9785,
                            "time" : 9755,
                            "value" : 3.41060513164848e-13,
                            "duration" : 30
                          },
                          {
                            "endTime" : 10110,
                            "time" : 10080,
                            "value" : -727.865478476359,
                            "duration" : 30
                          }
                        ]
                      },
                      "translation1" : {
                        "type" : "double",
                        "defaultValue" : 0.0,
                        "keyframes" : [
                          {
                            "endTime" : 260,
                            "time" : 230,
                            "value" : -3072.65241805758,
                            "duration" : 30
                          },
                          {
                            "endTime" : 375,
                            "time" : 345,
                            "value" : -5.6843418860808e-14,
                            "duration" : 30
                          },
                          {
                            "endTime" : 1433,
                            "time" : 1403,
                            "value" : 5.57225093738339,
                            "duration" : 30
                          },
                          {
                            "endTime" : 1633,
                            "time" : 1603,
                            "value" : -1.0724754417879e-13,
                            "duration" : 30
                          },
                          {
                            "endTime" : 2012,
                            "time" : 1982,
                            "value" : 377.898911972652,
                            "duration" : 30
                          },
                          {
                            "endTime" : 8833,
                            "time" : 8807,
                            "value" : 1508.20260622586,
                            "duration" : 26
                          },
                          {
                            "endTime" : 9253,
                            "time" : 9206,
                            "value" : 0.0,
                            "duration" : 47
                          },
                          {
                            "endTime" : 9287,
                            "time" : 9257,
                            "value" : -66.7870775612071,
                            "duration" : 30
                          },
                          {
                            "endTime" : 9785,
                            "time" : 9755,
                            "value" : -4.9737991503207e-14,
                            "duration" : 30
                          },
                          {
                            "endTime" : 10110,
                            "time" : 10080,
                            "value" : 793.17781292182,
                            "duration" : 30
                          }
                        ]
                      },
                      "scale0" : {
                        "type" : "double",
                        "defaultValue" : 1.0,
                        "keyframes" : [
                          {
                            "endTime" : 260,
                            "time" : 230,
                            "value" : 6.62127287207902,
                            "duration" : 30
                          },
                          {
                            "endTime" : 375,
                            "time" : 345,
                            "value" : 1.0,
                            "duration" : 30
                          },
                          {
                            "endTime" : 1433,
                            "time" : 1403,
                            "value" : 3.40690314495839,
                            "duration" : 30
                          },
                          {
                            "endTime" : 1633,
                            "time" : 1603,
                            "value" : 1.0,
                            "duration" : 30
                          },
                          {
                            "endTime" : 2012,
                            "time" : 1982,
                            "value" : 1.71147598625338,
                            "duration" : 30
                          },
                          {
                            "endTime" : 8833,
                            "time" : 8807,
                            "value" : 3.60204142445965,
                            "duration" : 26
                          },
                          {
                            "endTime" : 9253,
                            "time" : 9206,
                            "value" : 0.999999898028527,
                            "duration" : 47
                          },
                          {
                            "endTime" : 9287,
                            "time" : 9257,
                            "value" : 2.87114235039259,
                            "duration" : 30
                          },
                          {
                            "endTime" : 9785,
                            "time" : 9755,
                            "value" : 0.999999749420839,
                            "duration" : 30
                          },
                          {
                            "endTime" : 10110,
                            "time" : 10080,
                            "value" : 2.36733015083206,
                            "duration" : 30
                          }
                        ]
                      },
                      "scale1" : {
                        "type" : "double",
                        "defaultValue" : 1.0,
                        "keyframes" : [
                          {
                            "endTime" : 260,
                            "time" : 230,
                            "value" : 6.62127291078292,
                            "duration" : 30
                          },
                          {
                            "endTime" : 375,
                            "time" : 345,
                            "value" : 1.0,
                            "duration" : 30
                          },
                          {
                            "endTime" : 1433,
                            "time" : 1403,
                            "value" : 3.40690239557822,
                            "duration" : 30
                          },
                          {
                            "endTime" : 1633,
                            "time" : 1603,
                            "value" : 1.0,
                            "duration" : 30
                          },
                          {
                            "endTime" : 2012,
                            "time" : 1982,
                            "value" : 1.71147597084861,
                            "duration" : 30
                          },
                          {
                            "endTime" : 8833,
                            "time" : 8807,
                            "value" : 3.60204179176516,
                            "duration" : 26
                          },
                          {
                            "endTime" : 9253,
                            "time" : 9206,
                            "value" : 1.0,
                            "duration" : 47
                          },
                          {
                            "endTime" : 9287,
                            "time" : 9257,
                            "value" : 2.87114306984122,
                            "duration" : 30
                          },
                          {
                            "endTime" : 9785,
                            "time" : 9755,
                            "value" : 1.0,
                            "duration" : 30
                          },
                          {
                            "endTime" : 10110,
                            "time" : 10080,
                            "value" : 2.3673303422297,
                            "duration" : 30
                          }
                        ]
                      },
                      "cursorOpacity" : 1.0,
                      "cursorScale" : 1.0
                    },
                    "medias" : [
                        {
                          "id" : 361,
                          "_type" : "ScreenVMFile",
                          "src" : 1,
                          "trackNumber" : 0,
                          "attributes" : {
                            "ident" : "token_hijacking_attack_prevention"
                          },
                          "parameters" : {
                            "cursorScale" : {
                              "type" : "double",
                              "defaultValue" : 0.0,
                              "interp" : "linr"
                            },
                            "cursorOpacity" : {
                              "type" : "double",
                              "defaultValue" : 0.0,
                              "interp" : "linr"
                            }
                          },
                          "effects" : [

                          ],
                          "start" : 0,
                          "duration" : 276,
                          "mediaStart" : 0,
                          "mediaDuration" : 276,
                          "scalar" : 1,
                          "metadata" : {
                            "AutoAppliedSmartFocus" : "False",
                            "clipSpeedAttribute" : false,
                            "default-scale0" : 1.0,
                            "default-scale1" : 1.0,
                            "default-translation0" : 0.0,
                            "default-translation1" : 0.0
                          },
                          "animationTracks" : {

                          }
                        },
                        {
                          "id" : 362,
                          "_type" : "ScreenIMFile",
                          "src" : 1,
                          "trackNumber" : 0,
                          "trimStartSum" : 0,
                          "attributes" : {
                            "ident" : "token_hijacking_attack_prevention"
                          },
                          "parameters" : {
                            "cursorOpacity" : 0.0,
                            "cursorScale" : 0.0
                          },
                          "effects" : [

                          ],
                          "start" : 276,
                          "duration" : 90,
                          "mediaStart" : 275,
                          "mediaDuration" : 1,
                          "scalar" : 1,
                          "metadata" : {
                            "AutoAppliedSmartFocus" : "False"
                          },
                          "animationTracks" : {

                          }
                        },
                        {
                          "id" : 363,
                          "_type" : "ScreenVMFile",
                          "src" : 1,
                          "trackNumber" : 0,
                          "attributes" : {
                            "ident" : "token_hijacking_attack_prevention"
                          },
                          "parameters" : {
                            "cursorScale" : {
                              "type" : "double",
                              "defaultValue" : 0.0,
                              "interp" : "linr"
                            },
                            "cursorOpacity" : {
                              "type" : "double",
                              "defaultValue" : 0.0,
                              "interp" : "linr"
                            }
                          },
                          "effects" : [

                          ],
                          "start" : 366,
                          "duration" : 61,
                          "mediaStart" : 276,
                          "mediaDuration" : 61,
                          "scalar" : 1,
                          "metadata" : {
                            "AutoAppliedSmartFocus" : "False",
                            "clipSpeedAttribute" : false,
                            "default-scale0" : 1.0,
                            "default-scale1" : 1.0,
                            "default-translation0" : 0.0,
                            "default-translation1" : 0.0
                          },
                          "animationTracks" : {

                          }
                        },
                        {
                          "id" : 364,
                          "_type" : "ScreenIMFile",
                          "src" : 1,
                          "trackNumber" : 0,
                          "trimStartSum" : 0,
                          "attributes" : {
                            "ident" : "token_hijacking_attack_prevention"
                          },
                          "parameters" : {
                            "cursorOpacity" : 0.0,
                            "cursorScale" : 0.0
                          },
                          "effects" : [

                          ],
                          "start" : 427,
                          "duration" : 30,
                          "mediaStart" : 337,
                          "mediaDuration" : 1,
                          "scalar" : 1,
                          "metadata" : {
                            "AutoAppliedSmartFocus" : "False"
                          },
                          "animationTracks" : {

                          }
                        },
                        {
                          "id" : 365,
                          "_type" : "ScreenVMFile",
                          "src" : 1,
                          "trackNumber" : 0,
                          "attributes" : {
                            "ident" : "token_hijacking_attack_prevention"
                          },
                          "parameters" : {
                            "cursorScale" : {
                              "type" : "double",
                              "defaultValue" : 0.0,
                              "interp" : "linr"
                            },
                            "cursorOpacity" : {
                              "type" : "double",
                              "defaultValue" : 0.0,
                              "interp" : "linr"
                            }
                          },
                          "effects" : [

                          ],
                          "start" : 457,
                          "duration" : 1089,
                          "mediaStart" : 337,
                          "mediaDuration" : 1089,
                          "scalar" : 1,
                          "metadata" : {
                            "AutoAppliedSmartFocus" : "False",
                            "clipSpeedAttribute" : false,
                            "default-scale0" : 1.0,
                            "default-scale1" : 1.0,
                            "default-translation0" : 0.0,
                            "default-translation1" : 0.0
                          },
                          "animationTracks" : {

                          }
                        },
                        {
                          "id" : 366,
                          "_type" : "ScreenIMFile",
                          "src" : 1,
                          "trackNumber" : 0,
                          "trimStartSum" : 0,
                          "attributes" : {
                            "ident" : "token_hijacking_attack_prevention"
                          },
                          "parameters" : {
                            "cursorOpacity" : 0.0,
                            "cursorScale" : 0.0
                          },
                          "effects" : [

                          ],
                          "start" : 1546,
                          "duration" : 90,
                          "mediaStart" : 1426,
                          "mediaDuration" : 1,
                          "scalar" : 1,
                          "metadata" : {
                            "AutoAppliedSmartFocus" : "False"
                          },
                          "animationTracks" : {

                          }
                        },
                        {
                          "id" : 367,
                          "_type" : "ScreenVMFile",
                          "src" : 1,
                          "trackNumber" : 0,
                          "attributes" : {
                            "ident" : "token_hijacking_attack_prevention"
                          },
                          "parameters" : {
                            "cursorScale" : {
                              "type" : "double",
                              "defaultValue" : 0.0,
                              "interp" : "linr"
                            },
                            "cursorOpacity" : {
                              "type" : "double",
                              "defaultValue" : 0.0,
                              "interp" : "linr"
                            }
                          },
                          "effects" : [

                          ],
                          "start" : 1636,
                          "duration" : 8601,
                          "mediaStart" : 1426,
                          "mediaDuration" : 8601,
                          "scalar" : 1,
                          "metadata" : {
                            "AutoAppliedSmartFocus" : "False",
                            "clipSpeedAttribute" : false,
                            "default-scale0" : 1.0,
                            "default-scale1" : 1.0,
                            "default-translation0" : 0.0,
                            "default-translation1" : 0.0
                          },
                          "animationTracks" : {

                          }
                        },
                        {
                          "id" : 368,
                          "_type" : "ScreenIMFile",
                          "src" : 1,
                          "trackNumber" : 0,
                          "trimStartSum" : 0,
                          "attributes" : {
                            "ident" : "token_hijacking_attack_prevention"
                          },
                          "parameters" : {
                            "cursorOpacity" : 0.0,
                            "cursorScale" : 0.0
                          },
                          "effects" : [

                          ],
                          "start" : 10237,
                          "duration" : 30,
                          "mediaStart" : 10027,
                          "mediaDuration" : 1,
                          "scalar" : 1,
                          "metadata" : {
                            "AutoAppliedSmartFocus" : "False"
                          },
                          "animationTracks" : {

                          }
                        },
                        {
                          "id" : 369,
                          "_type" : "ScreenVMFile",
                          "src" : 1,
                          "trackNumber" : 0,
                          "attributes" : {
                            "ident" : "token_hijacking_attack_prevention"
                          },
                          "parameters" : {
                            "cursorScale" : {
                              "type" : "double",
                              "defaultValue" : 0.0,
                              "interp" : "linr"
                            },
                            "cursorOpacity" : {
                              "type" : "double",
                              "defaultValue" : 0.0,
                              "interp" : "linr"
                            }
                          },
                          "effects" : [

                          ],
                          "start" : 10267,
                          "duration" : 10275,
                          "mediaStart" : 10027,
                          "mediaDuration" : 10275,
                          "scalar" : 1,
                          "metadata" : {
                            "AutoAppliedSmartFocus" : "False",
                            "clipSpeedAttribute" : false,
                            "default-scale0" : 1.0,
                            "default-scale1" : 1.0,
                            "default-translation0" : 0.0,
                            "default-translation1" : 0.0
                          },
                          "animationTracks" : {

                          }
                        }
                    ],
                    "effects" : [
                        {
                          "effectName" : "CursorHilight",
                          "category" : "categoryCursorEffects",
                          "parameters" : {
                            "blur" : 0.1,
                            "color-alpha" : 0.75,
                            "color-blue" : 0.0,
                            "color-green" : 1.0,
                            "color-red" : 1.0,
                            "radius" : 50.0
                          }
                        }
                    ],
                    "start" : 2789,
                    "duration" : 32,
                    "mediaStart" : 12340,
                    "mediaDuration" : 32,
                    "scalar" : 1,
                    "metadata" : {
                      "AutoAppliedSmartFocus" : "False",
                      "clipSpeedAttribute" : false
                    },
                    "animationTracks" : {
                      "visual" : [
                        {
                          "endTime" : 260,
                          "duration" : 30,
                          "range" : [ 230, 30]
                        },
                        {
                          "endTime" : 375,
                          "duration" : 30,
                          "range" : [ 345, 30]
                        },
                        {
                          "endTime" : 1433,
                          "duration" : 30,
                          "range" : [ 1403, 30]
                        },
                        {
                          "endTime" : 1633,
                          "duration" : 30,
                          "range" : [ 1603, 30]
                        },
                        {
                          "endTime" : 2012,
                          "duration" : 30,
                          "range" : [ 1982, 30]
                        },
                        {
                          "endTime" : 8833,
                          "duration" : 26,
                          "range" : [ 8807, 26]
                        },
                        {
                          "endTime" : 9253,
                          "duration" : 47,
                          "range" : [ 9206, 47]
                        },
                        {
                          "endTime" : 9287,
                          "duration" : 30,
                          "range" : [ 9257, 30]
                        },
                        {
                          "endTime" : 9785,
                          "duration" : 30,
                          "range" : [ 9755, 30]
                        },
                        {
                          "endTime" : 10110,
                          "duration" : 30,
                          "range" : [ 10080, 30]
                        }
                      ]
                    }
                  },
                  {
                    "id" : 370,
                    "_type" : "StitchedMedia",
                    "minMediaStart" : 0,
                    "attributes" : {
                      "ident" : "token_hijacking_attack_prevention",
                      "gain" : 1.0,
                      "mixToMono" : false
                    },
                    "parameters" : {
                      "translation0" : {
                        "type" : "double",
                        "defaultValue" : 0.0,
                        "keyframes" : [
                          {
                            "endTime" : 260,
                            "time" : 230,
                            "value" : 6617.65048026514,
                            "duration" : 30
                          },
                          {
                            "endTime" : 375,
                            "time" : 345,
                            "value" : -5.6843418860808e-13,
                            "duration" : 30
                          },
                          {
                            "endTime" : 1433,
                            "time" : 1403,
                            "value" : -544.842863508438,
                            "duration" : 30
                          },
                          {
                            "endTime" : 1633,
                            "time" : 1603,
                            "value" : 0.0,
                            "duration" : 30
                          },
                          {
                            "endTime" : 2012,
                            "time" : 1982,
                            "value" : -910.68970193186,
                            "duration" : 30
                          },
                          {
                            "endTime" : 8833,
                            "time" : 8807,
                            "value" : -502.735147015968,
                            "duration" : 26
                          },
                          {
                            "endTime" : 9253,
                            "time" : 9206,
                            "value" : 1.98951966012828e-13,
                            "duration" : 47
                          },
                          {
                            "endTime" : 9287,
                            "time" : 9257,
                            "value" : 2077.8234427351,
                            "duration" : 30
                          },
                          {
                            "endTime" : 9785,
                            "time" : 9755,
                            "value" : 3.41060513164848e-13,
                            "duration" : 30
                          },
                          {
                            "endTime" : 10110,
                            "time" : 10080,
                            "value" : -727.865478476359,
                            "duration" : 30
                          }
                        ]
                      },
                      "translation1" : {
                        "type" : "double",
                        "defaultValue" : 0.0,
                        "keyframes" : [
                          {
                            "endTime" : 260,
                            "time" : 230,
                            "value" : -3072.65241805758,
                            "duration" : 30
                          },
                          {
                            "endTime" : 375,
                            "time" : 345,
                            "value" : -5.6843418860808e-14,
                            "duration" : 30
                          },
                          {
                            "endTime" : 1433,
                            "time" : 1403,
                            "value" : 5.57225093738339,
                            "duration" : 30
                          },
                          {
                            "endTime" : 1633,
                            "time" : 1603,
                            "value" : -1.0724754417879e-13,
                            "duration" : 30
                          },
                          {
                            "endTime" : 2012,
                            "time" : 1982,
                            "value" : 377.898911972652,
                            "duration" : 30
                          },
                          {
                            "endTime" : 8833,
                            "time" : 8807,
                            "value" : 1508.20260622586,
                            "duration" : 26
                          },
                          {
                            "endTime" : 9253,
                            "time" : 9206,
                            "value" : 0.0,
                            "duration" : 47
                          },
                          {
                            "endTime" : 9287,
                            "time" : 9257,
                            "value" : -66.7870775612071,
                            "duration" : 30
                          },
                          {
                            "endTime" : 9785,
                            "time" : 9755,
                            "value" : -4.9737991503207e-14,
                            "duration" : 30
                          },
                          {
                            "endTime" : 10110,
                            "time" : 10080,
                            "value" : 793.17781292182,
                            "duration" : 30
                          }
                        ]
                      },
                      "scale0" : {
                        "type" : "double",
                        "defaultValue" : 1.0,
                        "keyframes" : [
                          {
                            "endTime" : 260,
                            "time" : 230,
                            "value" : 6.62127287207902,
                            "duration" : 30
                          },
                          {
                            "endTime" : 375,
                            "time" : 345,
                            "value" : 1.0,
                            "duration" : 30
                          },
                          {
                            "endTime" : 1433,
                            "time" : 1403,
                            "value" : 3.40690314495839,
                            "duration" : 30
                          },
                          {
                            "endTime" : 1633,
                            "time" : 1603,
                            "value" : 1.0,
                            "duration" : 30
                          },
                          {
                            "endTime" : 2012,
                            "time" : 1982,
                            "value" : 1.71147598625338,
                            "duration" : 30
                          },
                          {
                            "endTime" : 8833,
                            "time" : 8807,
                            "value" : 3.60204142445965,
                            "duration" : 26
                          },
                          {
                            "endTime" : 9253,
                            "time" : 9206,
                            "value" : 0.999999898028527,
                            "duration" : 47
                          },
                          {
                            "endTime" : 9287,
                            "time" : 9257,
                            "value" : 2.87114235039259,
                            "duration" : 30
                          },
                          {
                            "endTime" : 9785,
                            "time" : 9755,
                            "value" : 0.999999749420839,
                            "duration" : 30
                          },
                          {
                            "endTime" : 10110,
                            "time" : 10080,
                            "value" : 2.36733015083206,
                            "duration" : 30
                          }
                        ]
                      },
                      "scale1" : {
                        "type" : "double",
                        "defaultValue" : 1.0,
                        "keyframes" : [
                          {
                            "endTime" : 260,
                            "time" : 230,
                            "value" : 6.62127291078292,
                            "duration" : 30
                          },
                          {
                            "endTime" : 375,
                            "time" : 345,
                            "value" : 1.0,
                            "duration" : 30
                          },
                          {
                            "endTime" : 1433,
                            "time" : 1403,
                            "value" : 3.40690239557822,
                            "duration" : 30
                          },
                          {
                            "endTime" : 1633,
                            "time" : 1603,
                            "value" : 1.0,
                            "duration" : 30
                          },
                          {
                            "endTime" : 2012,
                            "time" : 1982,
                            "value" : 1.71147597084861,
                            "duration" : 30
                          },
                          {
                            "endTime" : 8833,
                            "time" : 8807,
                            "value" : 3.60204179176516,
                            "duration" : 26
                          },
                          {
                            "endTime" : 9253,
                            "time" : 9206,
                            "value" : 1.0,
                            "duration" : 47
                          },
                          {
                            "endTime" : 9287,
                            "time" : 9257,
                            "value" : 2.87114306984122,
                            "duration" : 30
                          },
                          {
                            "endTime" : 9785,
                            "time" : 9755,
                            "value" : 1.0,
                            "duration" : 30
                          },
                          {
                            "endTime" : 10110,
                            "time" : 10080,
                            "value" : 2.3673303422297,
                            "duration" : 30
                          }
                        ]
                      },
                      "cursorOpacity" : 1.0,
                      "cursorScale" : 1.0
                    },
                    "medias" : [
                        {
                          "id" : 371,
                          "_type" : "ScreenVMFile",
                          "src" : 1,
                          "trackNumber" : 0,
                          "attributes" : {
                            "ident" : "token_hijacking_attack_prevention"
                          },
                          "parameters" : {
                            "cursorScale" : {
                              "type" : "double",
                              "defaultValue" : 0.0,
                              "interp" : "linr"
                            },
                            "cursorOpacity" : {
                              "type" : "double",
                              "defaultValue" : 0.0,
                              "interp" : "linr"
                            }
                          },
                          "effects" : [

                          ],
                          "start" : 0,
                          "duration" : 276,
                          "mediaStart" : 0,
                          "mediaDuration" : 276,
                          "scalar" : 1,
                          "metadata" : {
                            "AutoAppliedSmartFocus" : "False",
                            "clipSpeedAttribute" : false,
                            "default-scale0" : 1.0,
                            "default-scale1" : 1.0,
                            "default-translation0" : 0.0,
                            "default-translation1" : 0.0
                          },
                          "animationTracks" : {

                          }
                        },
                        {
                          "id" : 372,
                          "_type" : "ScreenIMFile",
                          "src" : 1,
                          "trackNumber" : 0,
                          "trimStartSum" : 0,
                          "attributes" : {
                            "ident" : "token_hijacking_attack_prevention"
                          },
                          "parameters" : {
                            "cursorOpacity" : 0.0,
                            "cursorScale" : 0.0
                          },
                          "effects" : [

                          ],
                          "start" : 276,
                          "duration" : 90,
                          "mediaStart" : 275,
                          "mediaDuration" : 1,
                          "scalar" : 1,
                          "metadata" : {
                            "AutoAppliedSmartFocus" : "False"
                          },
                          "animationTracks" : {

                          }
                        },
                        {
                          "id" : 373,
                          "_type" : "ScreenVMFile",
                          "src" : 1,
                          "trackNumber" : 0,
                          "attributes" : {
                            "ident" : "token_hijacking_attack_prevention"
                          },
                          "parameters" : {
                            "cursorScale" : {
                              "type" : "double",
                              "defaultValue" : 0.0,
                              "interp" : "linr"
                            },
                            "cursorOpacity" : {
                              "type" : "double",
                              "defaultValue" : 0.0,
                              "interp" : "linr"
                            }
                          },
                          "effects" : [

                          ],
                          "start" : 366,
                          "duration" : 61,
                          "mediaStart" : 276,
                          "mediaDuration" : 61,
                          "scalar" : 1,
                          "metadata" : {
                            "AutoAppliedSmartFocus" : "False",
                            "clipSpeedAttribute" : false,
                            "default-scale0" : 1.0,
                            "default-scale1" : 1.0,
                            "default-translation0" : 0.0,
                            "default-translation1" : 0.0
                          },
                          "animationTracks" : {

                          }
                        },
                        {
                          "id" : 374,
                          "_type" : "ScreenIMFile",
                          "src" : 1,
                          "trackNumber" : 0,
                          "trimStartSum" : 0,
                          "attributes" : {
                            "ident" : "token_hijacking_attack_prevention"
                          },
                          "parameters" : {
                            "cursorOpacity" : 0.0,
                            "cursorScale" : 0.0
                          },
                          "effects" : [

                          ],
                          "start" : 427,
                          "duration" : 30,
                          "mediaStart" : 337,
                          "mediaDuration" : 1,
                          "scalar" : 1,
                          "metadata" : {
                            "AutoAppliedSmartFocus" : "False"
                          },
                          "animationTracks" : {

                          }
                        },
                        {
                          "id" : 375,
                          "_type" : "ScreenVMFile",
                          "src" : 1,
                          "trackNumber" : 0,
                          "attributes" : {
                            "ident" : "token_hijacking_attack_prevention"
                          },
                          "parameters" : {
                            "cursorScale" : {
                              "type" : "double",
                              "defaultValue" : 0.0,
                              "interp" : "linr"
                            },
                            "cursorOpacity" : {
                              "type" : "double",
                              "defaultValue" : 0.0,
                              "interp" : "linr"
                            }
                          },
                          "effects" : [

                          ],
                          "start" : 457,
                          "duration" : 1089,
                          "mediaStart" : 337,
                          "mediaDuration" : 1089,
                          "scalar" : 1,
                          "metadata" : {
                            "AutoAppliedSmartFocus" : "False",
                            "clipSpeedAttribute" : false,
                            "default-scale0" : 1.0,
                            "default-scale1" : 1.0,
                            "default-translation0" : 0.0,
                            "default-translation1" : 0.0
                          },
                          "animationTracks" : {

                          }
                        },
                        {
                          "id" : 376,
                          "_type" : "ScreenIMFile",
                          "src" : 1,
                          "trackNumber" : 0,
                          "trimStartSum" : 0,
                          "attributes" : {
                            "ident" : "token_hijacking_attack_prevention"
                          },
                          "parameters" : {
                            "cursorOpacity" : 0.0,
                            "cursorScale" : 0.0
                          },
                          "effects" : [

                          ],
                          "start" : 1546,
                          "duration" : 90,
                          "mediaStart" : 1426,
                          "mediaDuration" : 1,
                          "scalar" : 1,
                          "metadata" : {
                            "AutoAppliedSmartFocus" : "False"
                          },
                          "animationTracks" : {

                          }
                        },
                        {
                          "id" : 377,
                          "_type" : "ScreenVMFile",
                          "src" : 1,
                          "trackNumber" : 0,
                          "attributes" : {
                            "ident" : "token_hijacking_attack_prevention"
                          },
                          "parameters" : {
                            "cursorScale" : {
                              "type" : "double",
                              "defaultValue" : 0.0,
                              "interp" : "linr"
                            },
                            "cursorOpacity" : {
                              "type" : "double",
                              "defaultValue" : 0.0,
                              "interp" : "linr"
                            }
                          },
                          "effects" : [

                          ],
                          "start" : 1636,
                          "duration" : 8601,
                          "mediaStart" : 1426,
                          "mediaDuration" : 8601,
                          "scalar" : 1,
                          "metadata" : {
                            "AutoAppliedSmartFocus" : "False",
                            "clipSpeedAttribute" : false,
                            "default-scale0" : 1.0,
                            "default-scale1" : 1.0,
                            "default-translation0" : 0.0,
                            "default-translation1" : 0.0
                          },
                          "animationTracks" : {

                          }
                        },
                        {
                          "id" : 378,
                          "_type" : "ScreenIMFile",
                          "src" : 1,
                          "trackNumber" : 0,
                          "trimStartSum" : 0,
                          "attributes" : {
                            "ident" : "token_hijacking_attack_prevention"
                          },
                          "parameters" : {
                            "cursorOpacity" : 0.0,
                            "cursorScale" : 0.0
                          },
                          "effects" : [

                          ],
                          "start" : 10237,
                          "duration" : 30,
                          "mediaStart" : 10027,
                          "mediaDuration" : 1,
                          "scalar" : 1,
                          "metadata" : {
                            "AutoAppliedSmartFocus" : "False"
                          },
                          "animationTracks" : {

                          }
                        },
                        {
                          "id" : 379,
                          "_type" : "ScreenVMFile",
                          "src" : 1,
                          "trackNumber" : 0,
                          "attributes" : {
                            "ident" : "token_hijacking_attack_prevention"
                          },
                          "parameters" : {
                            "cursorScale" : {
                              "type" : "double",
                              "defaultValue" : 0.0,
                              "interp" : "linr"
                            },
                            "cursorOpacity" : {
                              "type" : "double",
                              "defaultValue" : 0.0,
                              "interp" : "linr"
                            }
                          },
                          "effects" : [

                          ],
                          "start" : 10267,
                          "duration" : 10275,
                          "mediaStart" : 10027,
                          "mediaDuration" : 10275,
                          "scalar" : 1,
                          "metadata" : {
                            "AutoAppliedSmartFocus" : "False",
                            "clipSpeedAttribute" : false,
                            "default-scale0" : 1.0,
                            "default-scale1" : 1.0,
                            "default-translation0" : 0.0,
                            "default-translation1" : 0.0
                          },
                          "animationTracks" : {

                          }
                        }
                    ],
                    "effects" : [
                        {
                          "effectName" : "CursorHilight",
                          "category" : "categoryCursorEffects",
                          "parameters" : {
                            "blur" : 0.1,
                            "color-alpha" : 0.75,
                            "color-blue" : 0.0,
                            "color-green" : 1.0,
                            "color-red" : 1.0,
                            "radius" : 50.0
                          }
                        }
                    ],
                    "start" : 2821,
                    "duration" : 41,
                    "mediaStart" : 13169,
                    "mediaDuration" : 41,
                    "scalar" : 1,
                    "metadata" : {
                      "AutoAppliedSmartFocus" : "False",
                      "clipSpeedAttribute" : false
                    },
                    "animationTracks" : {
                      "visual" : [
                        {
                          "endTime" : 260,
                          "duration" : 30,
                          "range" : [ 230, 30]
                        },
                        {
                          "endTime" : 375,
                          "duration" : 30,
                          "range" : [ 345, 30]
                        },
                        {
                          "endTime" : 1433,
                          "duration" : 30,
                          "range" : [ 1403, 30]
                        },
                        {
                          "endTime" : 1633,
                          "duration" : 30,
                          "range" : [ 1603, 30]
                        },
                        {
                          "endTime" : 2012,
                          "duration" : 30,
                          "range" : [ 1982, 30]
                        },
                        {
                          "endTime" : 8833,
                          "duration" : 26,
                          "range" : [ 8807, 26]
                        },
                        {
                          "endTime" : 9253,
                          "duration" : 47,
                          "range" : [ 9206, 47]
                        },
                        {
                          "endTime" : 9287,
                          "duration" : 30,
                          "range" : [ 9257, 30]
                        },
                        {
                          "endTime" : 9785,
                          "duration" : 30,
                          "range" : [ 9755, 30]
                        },
                        {
                          "endTime" : 10110,
                          "duration" : 30,
                          "range" : [ 10080, 30]
                        }
                      ]
                    }
                  },
                  {
                    "id" : 380,
                    "_type" : "StitchedMedia",
                    "minMediaStart" : 0,
                    "attributes" : {
                      "ident" : "token_hijacking_attack_prevention",
                      "gain" : 1.0,
                      "mixToMono" : false
                    },
                    "parameters" : {
                      "translation0" : {
                        "type" : "double",
                        "defaultValue" : 0.0,
                        "keyframes" : [
                          {
                            "endTime" : 260,
                            "time" : 230,
                            "value" : 6617.65048026514,
                            "duration" : 30
                          },
                          {
                            "endTime" : 375,
                            "time" : 345,
                            "value" : -5.6843418860808e-13,
                            "duration" : 30
                          },
                          {
                            "endTime" : 1433,
                            "time" : 1403,
                            "value" : -544.842863508438,
                            "duration" : 30
                          },
                          {
                            "endTime" : 1633,
                            "time" : 1603,
                            "value" : 0.0,
                            "duration" : 30
                          },
                          {
                            "endTime" : 2012,
                            "time" : 1982,
                            "value" : -910.68970193186,
                            "duration" : 30
                          },
                          {
                            "endTime" : 8833,
                            "time" : 8807,
                            "value" : -502.735147015968,
                            "duration" : 26
                          },
                          {
                            "endTime" : 9253,
                            "time" : 9206,
                            "value" : 1.98951966012828e-13,
                            "duration" : 47
                          },
                          {
                            "endTime" : 9287,
                            "time" : 9257,
                            "value" : 2077.8234427351,
                            "duration" : 30
                          },
                          {
                            "endTime" : 9785,
                            "time" : 9755,
                            "value" : 3.41060513164848e-13,
                            "duration" : 30
                          },
                          {
                            "endTime" : 10110,
                            "time" : 10080,
                            "value" : -727.865478476359,
                            "duration" : 30
                          }
                        ]
                      },
                      "translation1" : {
                        "type" : "double",
                        "defaultValue" : 0.0,
                        "keyframes" : [
                          {
                            "endTime" : 260,
                            "time" : 230,
                            "value" : -3072.65241805758,
                            "duration" : 30
                          },
                          {
                            "endTime" : 375,
                            "time" : 345,
                            "value" : -5.6843418860808e-14,
                            "duration" : 30
                          },
                          {
                            "endTime" : 1433,
                            "time" : 1403,
                            "value" : 5.57225093738339,
                            "duration" : 30
                          },
                          {
                            "endTime" : 1633,
                            "time" : 1603,
                            "value" : -1.0724754417879e-13,
                            "duration" : 30
                          },
                          {
                            "endTime" : 2012,
                            "time" : 1982,
                            "value" : 377.898911972652,
                            "duration" : 30
                          },
                          {
                            "endTime" : 8833,
                            "time" : 8807,
                            "value" : 1508.20260622586,
                            "duration" : 26
                          },
                          {
                            "endTime" : 9253,
                            "time" : 9206,
                            "value" : 0.0,
                            "duration" : 47
                          },
                          {
                            "endTime" : 9287,
                            "time" : 9257,
                            "value" : -66.7870775612071,
                            "duration" : 30
                          },
                          {
                            "endTime" : 9785,
                            "time" : 9755,
                            "value" : -4.9737991503207e-14,
                            "duration" : 30
                          },
                          {
                            "endTime" : 10110,
                            "time" : 10080,
                            "value" : 793.17781292182,
                            "duration" : 30
                          }
                        ]
                      },
                      "scale0" : {
                        "type" : "double",
                        "defaultValue" : 1.0,
                        "keyframes" : [
                          {
                            "endTime" : 260,
                            "time" : 230,
                            "value" : 6.62127287207902,
                            "duration" : 30
                          },
                          {
                            "endTime" : 375,
                            "time" : 345,
                            "value" : 1.0,
                            "duration" : 30
                          },
                          {
                            "endTime" : 1433,
                            "time" : 1403,
                            "value" : 3.40690314495839,
                            "duration" : 30
                          },
                          {
                            "endTime" : 1633,
                            "time" : 1603,
                            "value" : 1.0,
                            "duration" : 30
                          },
                          {
                            "endTime" : 2012,
                            "time" : 1982,
                            "value" : 1.71147598625338,
                            "duration" : 30
                          },
                          {
                            "endTime" : 8833,
                            "time" : 8807,
                            "value" : 3.60204142445965,
                            "duration" : 26
                          },
                          {
                            "endTime" : 9253,
                            "time" : 9206,
                            "value" : 0.999999898028527,
                            "duration" : 47
                          },
                          {
                            "endTime" : 9287,
                            "time" : 9257,
                            "value" : 2.87114235039259,
                            "duration" : 30
                          },
                          {
                            "endTime" : 9785,
                            "time" : 9755,
                            "value" : 0.999999749420839,
                            "duration" : 30
                          },
                          {
                            "endTime" : 10110,
                            "time" : 10080,
                            "value" : 2.36733015083206,
                            "duration" : 30
                          }
                        ]
                      },
                      "scale1" : {
                        "type" : "double",
                        "defaultValue" : 1.0,
                        "keyframes" : [
                          {
                            "endTime" : 260,
                            "time" : 230,
                            "value" : 6.62127291078292,
                            "duration" : 30
                          },
                          {
                            "endTime" : 375,
                            "time" : 345,
                            "value" : 1.0,
                            "duration" : 30
                          },
                          {
                            "endTime" : 1433,
                            "time" : 1403,
                            "value" : 3.40690239557822,
                            "duration" : 30
                          },
                          {
                            "endTime" : 1633,
                            "time" : 1603,
                            "value" : 1.0,
                            "duration" : 30
                          },
                          {
                            "endTime" : 2012,
                            "time" : 1982,
                            "value" : 1.71147597084861,
                            "duration" : 30
                          },
                          {
                            "endTime" : 8833,
                            "time" : 8807,
                            "value" : 3.60204179176516,
                            "duration" : 26
                          },
                          {
                            "endTime" : 9253,
                            "time" : 9206,
                            "value" : 1.0,
                            "duration" : 47
                          },
                          {
                            "endTime" : 9287,
                            "time" : 9257,
                            "value" : 2.87114306984122,
                            "duration" : 30
                          },
                          {
                            "endTime" : 9785,
                            "time" : 9755,
                            "value" : 1.0,
                            "duration" : 30
                          },
                          {
                            "endTime" : 10110,
                            "time" : 10080,
                            "value" : 2.3673303422297,
                            "duration" : 30
                          }
                        ]
                      },
                      "cursorOpacity" : 1.0,
                      "cursorScale" : 1.0
                    },
                    "medias" : [
                        {
                          "id" : 381,
                          "_type" : "ScreenVMFile",
                          "src" : 1,
                          "trackNumber" : 0,
                          "attributes" : {
                            "ident" : "token_hijacking_attack_prevention"
                          },
                          "parameters" : {
                            "cursorScale" : {
                              "type" : "double",
                              "defaultValue" : 0.0,
                              "interp" : "linr"
                            },
                            "cursorOpacity" : {
                              "type" : "double",
                              "defaultValue" : 0.0,
                              "interp" : "linr"
                            }
                          },
                          "effects" : [

                          ],
                          "start" : 0,
                          "duration" : 276,
                          "mediaStart" : 0,
                          "mediaDuration" : 276,
                          "scalar" : 1,
                          "metadata" : {
                            "AutoAppliedSmartFocus" : "False",
                            "clipSpeedAttribute" : false,
                            "default-scale0" : 1.0,
                            "default-scale1" : 1.0,
                            "default-translation0" : 0.0,
                            "default-translation1" : 0.0
                          },
                          "animationTracks" : {

                          }
                        },
                        {
                          "id" : 382,
                          "_type" : "ScreenIMFile",
                          "src" : 1,
                          "trackNumber" : 0,
                          "trimStartSum" : 0,
                          "attributes" : {
                            "ident" : "token_hijacking_attack_prevention"
                          },
                          "parameters" : {
                            "cursorOpacity" : 0.0,
                            "cursorScale" : 0.0
                          },
                          "effects" : [

                          ],
                          "start" : 276,
                          "duration" : 90,
                          "mediaStart" : 275,
                          "mediaDuration" : 1,
                          "scalar" : 1,
                          "metadata" : {
                            "AutoAppliedSmartFocus" : "False"
                          },
                          "animationTracks" : {

                          }
                        },
                        {
                          "id" : 383,
                          "_type" : "ScreenVMFile",
                          "src" : 1,
                          "trackNumber" : 0,
                          "attributes" : {
                            "ident" : "token_hijacking_attack_prevention"
                          },
                          "parameters" : {
                            "cursorScale" : {
                              "type" : "double",
                              "defaultValue" : 0.0,
                              "interp" : "linr"
                            },
                            "cursorOpacity" : {
                              "type" : "double",
                              "defaultValue" : 0.0,
                              "interp" : "linr"
                            }
                          },
                          "effects" : [

                          ],
                          "start" : 366,
                          "duration" : 61,
                          "mediaStart" : 276,
                          "mediaDuration" : 61,
                          "scalar" : 1,
                          "metadata" : {
                            "AutoAppliedSmartFocus" : "False",
                            "clipSpeedAttribute" : false,
                            "default-scale0" : 1.0,
                            "default-scale1" : 1.0,
                            "default-translation0" : 0.0,
                            "default-translation1" : 0.0
                          },
                          "animationTracks" : {

                          }
                        },
                        {
                          "id" : 384,
                          "_type" : "ScreenIMFile",
                          "src" : 1,
                          "trackNumber" : 0,
                          "trimStartSum" : 0,
                          "attributes" : {
                            "ident" : "token_hijacking_attack_prevention"
                          },
                          "parameters" : {
                            "cursorOpacity" : 0.0,
                            "cursorScale" : 0.0
                          },
                          "effects" : [

                          ],
                          "start" : 427,
                          "duration" : 30,
                          "mediaStart" : 337,
                          "mediaDuration" : 1,
                          "scalar" : 1,
                          "metadata" : {
                            "AutoAppliedSmartFocus" : "False"
                          },
                          "animationTracks" : {

                          }
                        },
                        {
                          "id" : 385,
                          "_type" : "ScreenVMFile",
                          "src" : 1,
                          "trackNumber" : 0,
                          "attributes" : {
                            "ident" : "token_hijacking_attack_prevention"
                          },
                          "parameters" : {
                            "cursorScale" : {
                              "type" : "double",
                              "defaultValue" : 0.0,
                              "interp" : "linr"
                            },
                            "cursorOpacity" : {
                              "type" : "double",
                              "defaultValue" : 0.0,
                              "interp" : "linr"
                            }
                          },
                          "effects" : [

                          ],
                          "start" : 457,
                          "duration" : 1089,
                          "mediaStart" : 337,
                          "mediaDuration" : 1089,
                          "scalar" : 1,
                          "metadata" : {
                            "AutoAppliedSmartFocus" : "False",
                            "clipSpeedAttribute" : false,
                            "default-scale0" : 1.0,
                            "default-scale1" : 1.0,
                            "default-translation0" : 0.0,
                            "default-translation1" : 0.0
                          },
                          "animationTracks" : {

                          }
                        },
                        {
                          "id" : 386,
                          "_type" : "ScreenIMFile",
                          "src" : 1,
                          "trackNumber" : 0,
                          "trimStartSum" : 0,
                          "attributes" : {
                            "ident" : "token_hijacking_attack_prevention"
                          },
                          "parameters" : {
                            "cursorOpacity" : 0.0,
                            "cursorScale" : 0.0
                          },
                          "effects" : [

                          ],
                          "start" : 1546,
                          "duration" : 90,
                          "mediaStart" : 1426,
                          "mediaDuration" : 1,
                          "scalar" : 1,
                          "metadata" : {
                            "AutoAppliedSmartFocus" : "False"
                          },
                          "animationTracks" : {

                          }
                        },
                        {
                          "id" : 387,
                          "_type" : "ScreenVMFile",
                          "src" : 1,
                          "trackNumber" : 0,
                          "attributes" : {
                            "ident" : "token_hijacking_attack_prevention"
                          },
                          "parameters" : {
                            "cursorScale" : {
                              "type" : "double",
                              "defaultValue" : 0.0,
                              "interp" : "linr"
                            },
                            "cursorOpacity" : {
                              "type" : "double",
                              "defaultValue" : 0.0,
                              "interp" : "linr"
                            }
                          },
                          "effects" : [

                          ],
                          "start" : 1636,
                          "duration" : 8601,
                          "mediaStart" : 1426,
                          "mediaDuration" : 8601,
                          "scalar" : 1,
                          "metadata" : {
                            "AutoAppliedSmartFocus" : "False",
                            "clipSpeedAttribute" : false,
                            "default-scale0" : 1.0,
                            "default-scale1" : 1.0,
                            "default-translation0" : 0.0,
                            "default-translation1" : 0.0
                          },
                          "animationTracks" : {

                          }
                        },
                        {
                          "id" : 388,
                          "_type" : "ScreenIMFile",
                          "src" : 1,
                          "trackNumber" : 0,
                          "trimStartSum" : 0,
                          "attributes" : {
                            "ident" : "token_hijacking_attack_prevention"
                          },
                          "parameters" : {
                            "cursorOpacity" : 0.0,
                            "cursorScale" : 0.0
                          },
                          "effects" : [

                          ],
                          "start" : 10237,
                          "duration" : 30,
                          "mediaStart" : 10027,
                          "mediaDuration" : 1,
                          "scalar" : 1,
                          "metadata" : {
                            "AutoAppliedSmartFocus" : "False"
                          },
                          "animationTracks" : {

                          }
                        },
                        {
                          "id" : 389,
                          "_type" : "ScreenVMFile",
                          "src" : 1,
                          "trackNumber" : 0,
                          "attributes" : {
                            "ident" : "token_hijacking_attack_prevention"
                          },
                          "parameters" : {
                            "cursorScale" : {
                              "type" : "double",
                              "defaultValue" : 0.0,
                              "interp" : "linr"
                            },
                            "cursorOpacity" : {
                              "type" : "double",
                              "defaultValue" : 0.0,
                              "interp" : "linr"
                            }
                          },
                          "effects" : [

                          ],
                          "start" : 10267,
                          "duration" : 10275,
                          "mediaStart" : 10027,
                          "mediaDuration" : 10275,
                          "scalar" : 1,
                          "metadata" : {
                            "AutoAppliedSmartFocus" : "False",
                            "clipSpeedAttribute" : false,
                            "default-scale0" : 1.0,
                            "default-scale1" : 1.0,
                            "default-translation0" : 0.0,
                            "default-translation1" : 0.0
                          },
                          "animationTracks" : {

                          }
                        }
                    ],
                    "effects" : [
                        {
                          "effectName" : "CursorHilight",
                          "category" : "categoryCursorEffects",
                          "parameters" : {
                            "blur" : 0.1,
                            "color-alpha" : 0.75,
                            "color-blue" : 0.0,
                            "color-green" : 1.0,
                            "color-red" : 1.0,
                            "radius" : 50.0
                          }
                        }
                    ],
                    "start" : 2862,
                    "duration" : 35,
                    "mediaStart" : 13888,
                    "mediaDuration" : 35,
                    "scalar" : 1,
                    "metadata" : {
                      "AutoAppliedSmartFocus" : "False",
                      "clipSpeedAttribute" : false
                    },
                    "animationTracks" : {
                      "visual" : [
                        {
                          "endTime" : 260,
                          "duration" : 30,
                          "range" : [ 230, 30]
                        },
                        {
                          "endTime" : 375,
                          "duration" : 30,
                          "range" : [ 345, 30]
                        },
                        {
                          "endTime" : 1433,
                          "duration" : 30,
                          "range" : [ 1403, 30]
                        },
                        {
                          "endTime" : 1633,
                          "duration" : 30,
                          "range" : [ 1603, 30]
                        },
                        {
                          "endTime" : 2012,
                          "duration" : 30,
                          "range" : [ 1982, 30]
                        },
                        {
                          "endTime" : 8833,
                          "duration" : 26,
                          "range" : [ 8807, 26]
                        },
                        {
                          "endTime" : 9253,
                          "duration" : 47,
                          "range" : [ 9206, 47]
                        },
                        {
                          "endTime" : 9287,
                          "duration" : 30,
                          "range" : [ 9257, 30]
                        },
                        {
                          "endTime" : 9785,
                          "duration" : 30,
                          "range" : [ 9755, 30]
                        },
                        {
                          "endTime" : 10110,
                          "duration" : 30,
                          "range" : [ 10080, 30]
                        }
                      ]
                    }
                  },
                  {
                    "id" : 390,
                    "_type" : "StitchedMedia",
                    "minMediaStart" : 0,
                    "attributes" : {
                      "ident" : "token_hijacking_attack_prevention",
                      "gain" : 1.0,
                      "mixToMono" : false
                    },
                    "parameters" : {
                      "translation0" : {
                        "type" : "double",
                        "defaultValue" : 0.0,
                        "keyframes" : [
                          {
                            "endTime" : 260,
                            "time" : 230,
                            "value" : 6617.65048026514,
                            "duration" : 30
                          },
                          {
                            "endTime" : 375,
                            "time" : 345,
                            "value" : -5.6843418860808e-13,
                            "duration" : 30
                          },
                          {
                            "endTime" : 1433,
                            "time" : 1403,
                            "value" : -544.842863508438,
                            "duration" : 30
                          },
                          {
                            "endTime" : 1633,
                            "time" : 1603,
                            "value" : 0.0,
                            "duration" : 30
                          },
                          {
                            "endTime" : 2012,
                            "time" : 1982,
                            "value" : -910.68970193186,
                            "duration" : 30
                          },
                          {
                            "endTime" : 8833,
                            "time" : 8807,
                            "value" : -502.735147015968,
                            "duration" : 26
                          },
                          {
                            "endTime" : 9253,
                            "time" : 9206,
                            "value" : 1.98951966012828e-13,
                            "duration" : 47
                          },
                          {
                            "endTime" : 9287,
                            "time" : 9257,
                            "value" : 2077.8234427351,
                            "duration" : 30
                          },
                          {
                            "endTime" : 9785,
                            "time" : 9755,
                            "value" : 3.41060513164848e-13,
                            "duration" : 30
                          },
                          {
                            "endTime" : 10110,
                            "time" : 10080,
                            "value" : -727.865478476359,
                            "duration" : 30
                          }
                        ]
                      },
                      "translation1" : {
                        "type" : "double",
                        "defaultValue" : 0.0,
                        "keyframes" : [
                          {
                            "endTime" : 260,
                            "time" : 230,
                            "value" : -3072.65241805758,
                            "duration" : 30
                          },
                          {
                            "endTime" : 375,
                            "time" : 345,
                            "value" : -5.6843418860808e-14,
                            "duration" : 30
                          },
                          {
                            "endTime" : 1433,
                            "time" : 1403,
                            "value" : 5.57225093738339,
                            "duration" : 30
                          },
                          {
                            "endTime" : 1633,
                            "time" : 1603,
                            "value" : -1.0724754417879e-13,
                            "duration" : 30
                          },
                          {
                            "endTime" : 2012,
                            "time" : 1982,
                            "value" : 377.898911972652,
                            "duration" : 30
                          },
                          {
                            "endTime" : 8833,
                            "time" : 8807,
                            "value" : 1508.20260622586,
                            "duration" : 26
                          },
                          {
                            "endTime" : 9253,
                            "time" : 9206,
                            "value" : 0.0,
                            "duration" : 47
                          },
                          {
                            "endTime" : 9287,
                            "time" : 9257,
                            "value" : -66.7870775612071,
                            "duration" : 30
                          },
                          {
                            "endTime" : 9785,
                            "time" : 9755,
                            "value" : -4.9737991503207e-14,
                            "duration" : 30
                          },
                          {
                            "endTime" : 10110,
                            "time" : 10080,
                            "value" : 793.17781292182,
                            "duration" : 30
                          }
                        ]
                      },
                      "scale0" : {
                        "type" : "double",
                        "defaultValue" : 1.0,
                        "keyframes" : [
                          {
                            "endTime" : 260,
                            "time" : 230,
                            "value" : 6.62127287207902,
                            "duration" : 30
                          },
                          {
                            "endTime" : 375,
                            "time" : 345,
                            "value" : 1.0,
                            "duration" : 30
                          },
                          {
                            "endTime" : 1433,
                            "time" : 1403,
                            "value" : 3.40690314495839,
                            "duration" : 30
                          },
                          {
                            "endTime" : 1633,
                            "time" : 1603,
                            "value" : 1.0,
                            "duration" : 30
                          },
                          {
                            "endTime" : 2012,
                            "time" : 1982,
                            "value" : 1.71147598625338,
                            "duration" : 30
                          },
                          {
                            "endTime" : 8833,
                            "time" : 8807,
                            "value" : 3.60204142445965,
                            "duration" : 26
                          },
                          {
                            "endTime" : 9253,
                            "time" : 9206,
                            "value" : 0.999999898028527,
                            "duration" : 47
                          },
                          {
                            "endTime" : 9287,
                            "time" : 9257,
                            "value" : 2.87114235039259,
                            "duration" : 30
                          },
                          {
                            "endTime" : 9785,
                            "time" : 9755,
                            "value" : 0.999999749420839,
                            "duration" : 30
                          },
                          {
                            "endTime" : 10110,
                            "time" : 10080,
                            "value" : 2.36733015083206,
                            "duration" : 30
                          }
                        ]
                      },
                      "scale1" : {
                        "type" : "double",
                        "defaultValue" : 1.0,
                        "keyframes" : [
                          {
                            "endTime" : 260,
                            "time" : 230,
                            "value" : 6.62127291078292,
                            "duration" : 30
                          },
                          {
                            "endTime" : 375,
                            "time" : 345,
                            "value" : 1.0,
                            "duration" : 30
                          },
                          {
                            "endTime" : 1433,
                            "time" : 1403,
                            "value" : 3.40690239557822,
                            "duration" : 30
                          },
                          {
                            "endTime" : 1633,
                            "time" : 1603,
                            "value" : 1.0,
                            "duration" : 30
                          },
                          {
                            "endTime" : 2012,
                            "time" : 1982,
                            "value" : 1.71147597084861,
                            "duration" : 30
                          },
                          {
                            "endTime" : 8833,
                            "time" : 8807,
                            "value" : 3.60204179176516,
                            "duration" : 26
                          },
                          {
                            "endTime" : 9253,
                            "time" : 9206,
                            "value" : 1.0,
                            "duration" : 47
                          },
                          {
                            "endTime" : 9287,
                            "time" : 9257,
                            "value" : 2.87114306984122,
                            "duration" : 30
                          },
                          {
                            "endTime" : 9785,
                            "time" : 9755,
                            "value" : 1.0,
                            "duration" : 30
                          },
                          {
                            "endTime" : 10110,
                            "time" : 10080,
                            "value" : 2.3673303422297,
                            "duration" : 30
                          }
                        ]
                      },
                      "cursorOpacity" : 1.0,
                      "cursorScale" : 1.0
                    },
                    "medias" : [
                        {
                          "id" : 391,
                          "_type" : "ScreenVMFile",
                          "src" : 1,
                          "trackNumber" : 0,
                          "attributes" : {
                            "ident" : "token_hijacking_attack_prevention"
                          },
                          "parameters" : {
                            "cursorScale" : {
                              "type" : "double",
                              "defaultValue" : 0.0,
                              "interp" : "linr"
                            },
                            "cursorOpacity" : {
                              "type" : "double",
                              "defaultValue" : 0.0,
                              "interp" : "linr"
                            }
                          },
                          "effects" : [

                          ],
                          "start" : 0,
                          "duration" : 276,
                          "mediaStart" : 0,
                          "mediaDuration" : 276,
                          "scalar" : 1,
                          "metadata" : {
                            "AutoAppliedSmartFocus" : "False",
                            "clipSpeedAttribute" : false,
                            "default-scale0" : 1.0,
                            "default-scale1" : 1.0,
                            "default-translation0" : 0.0,
                            "default-translation1" : 0.0
                          },
                          "animationTracks" : {

                          }
                        },
                        {
                          "id" : 392,
                          "_type" : "ScreenIMFile",
                          "src" : 1,
                          "trackNumber" : 0,
                          "trimStartSum" : 0,
                          "attributes" : {
                            "ident" : "token_hijacking_attack_prevention"
                          },
                          "parameters" : {
                            "cursorOpacity" : 0.0,
                            "cursorScale" : 0.0
                          },
                          "effects" : [

                          ],
                          "start" : 276,
                          "duration" : 90,
                          "mediaStart" : 275,
                          "mediaDuration" : 1,
                          "scalar" : 1,
                          "metadata" : {
                            "AutoAppliedSmartFocus" : "False"
                          },
                          "animationTracks" : {

                          }
                        },
                        {
                          "id" : 393,
                          "_type" : "ScreenVMFile",
                          "src" : 1,
                          "trackNumber" : 0,
                          "attributes" : {
                            "ident" : "token_hijacking_attack_prevention"
                          },
                          "parameters" : {
                            "cursorScale" : {
                              "type" : "double",
                              "defaultValue" : 0.0,
                              "interp" : "linr"
                            },
                            "cursorOpacity" : {
                              "type" : "double",
                              "defaultValue" : 0.0,
                              "interp" : "linr"
                            }
                          },
                          "effects" : [

                          ],
                          "start" : 366,
                          "duration" : 61,
                          "mediaStart" : 276,
                          "mediaDuration" : 61,
                          "scalar" : 1,
                          "metadata" : {
                            "AutoAppliedSmartFocus" : "False",
                            "clipSpeedAttribute" : false,
                            "default-scale0" : 1.0,
                            "default-scale1" : 1.0,
                            "default-translation0" : 0.0,
                            "default-translation1" : 0.0
                          },
                          "animationTracks" : {

                          }
                        },
                        {
                          "id" : 394,
                          "_type" : "ScreenIMFile",
                          "src" : 1,
                          "trackNumber" : 0,
                          "trimStartSum" : 0,
                          "attributes" : {
                            "ident" : "token_hijacking_attack_prevention"
                          },
                          "parameters" : {
                            "cursorOpacity" : 0.0,
                            "cursorScale" : 0.0
                          },
                          "effects" : [

                          ],
                          "start" : 427,
                          "duration" : 30,
                          "mediaStart" : 337,
                          "mediaDuration" : 1,
                          "scalar" : 1,
                          "metadata" : {
                            "AutoAppliedSmartFocus" : "False"
                          },
                          "animationTracks" : {

                          }
                        },
                        {
                          "id" : 395,
                          "_type" : "ScreenVMFile",
                          "src" : 1,
                          "trackNumber" : 0,
                          "attributes" : {
                            "ident" : "token_hijacking_attack_prevention"
                          },
                          "parameters" : {
                            "cursorScale" : {
                              "type" : "double",
                              "defaultValue" : 0.0,
                              "interp" : "linr"
                            },
                            "cursorOpacity" : {
                              "type" : "double",
                              "defaultValue" : 0.0,
                              "interp" : "linr"
                            }
                          },
                          "effects" : [

                          ],
                          "start" : 457,
                          "duration" : 1089,
                          "mediaStart" : 337,
                          "mediaDuration" : 1089,
                          "scalar" : 1,
                          "metadata" : {
                            "AutoAppliedSmartFocus" : "False",
                            "clipSpeedAttribute" : false,
                            "default-scale0" : 1.0,
                            "default-scale1" : 1.0,
                            "default-translation0" : 0.0,
                            "default-translation1" : 0.0
                          },
                          "animationTracks" : {

                          }
                        },
                        {
                          "id" : 396,
                          "_type" : "ScreenIMFile",
                          "src" : 1,
                          "trackNumber" : 0,
                          "trimStartSum" : 0,
                          "attributes" : {
                            "ident" : "token_hijacking_attack_prevention"
                          },
                          "parameters" : {
                            "cursorOpacity" : 0.0,
                            "cursorScale" : 0.0
                          },
                          "effects" : [

                          ],
                          "start" : 1546,
                          "duration" : 90,
                          "mediaStart" : 1426,
                          "mediaDuration" : 1,
                          "scalar" : 1,
                          "metadata" : {
                            "AutoAppliedSmartFocus" : "False"
                          },
                          "animationTracks" : {

                          }
                        },
                        {
                          "id" : 397,
                          "_type" : "ScreenVMFile",
                          "src" : 1,
                          "trackNumber" : 0,
                          "attributes" : {
                            "ident" : "token_hijacking_attack_prevention"
                          },
                          "parameters" : {
                            "cursorScale" : {
                              "type" : "double",
                              "defaultValue" : 0.0,
                              "interp" : "linr"
                            },
                            "cursorOpacity" : {
                              "type" : "double",
                              "defaultValue" : 0.0,
                              "interp" : "linr"
                            }
                          },
                          "effects" : [

                          ],
                          "start" : 1636,
                          "duration" : 8601,
                          "mediaStart" : 1426,
                          "mediaDuration" : 8601,
                          "scalar" : 1,
                          "metadata" : {
                            "AutoAppliedSmartFocus" : "False",
                            "clipSpeedAttribute" : false,
                            "default-scale0" : 1.0,
                            "default-scale1" : 1.0,
                            "default-translation0" : 0.0,
                            "default-translation1" : 0.0
                          },
                          "animationTracks" : {

                          }
                        },
                        {
                          "id" : 398,
                          "_type" : "ScreenIMFile",
                          "src" : 1,
                          "trackNumber" : 0,
                          "trimStartSum" : 0,
                          "attributes" : {
                            "ident" : "token_hijacking_attack_prevention"
                          },
                          "parameters" : {
                            "cursorOpacity" : 0.0,
                            "cursorScale" : 0.0
                          },
                          "effects" : [

                          ],
                          "start" : 10237,
                          "duration" : 30,
                          "mediaStart" : 10027,
                          "mediaDuration" : 1,
                          "scalar" : 1,
                          "metadata" : {
                            "AutoAppliedSmartFocus" : "False"
                          },
                          "animationTracks" : {

                          }
                        },
                        {
                          "id" : 399,
                          "_type" : "ScreenVMFile",
                          "src" : 1,
                          "trackNumber" : 0,
                          "attributes" : {
                            "ident" : "token_hijacking_attack_prevention"
                          },
                          "parameters" : {
                            "cursorScale" : {
                              "type" : "double",
                              "defaultValue" : 0.0,
                              "interp" : "linr"
                            },
                            "cursorOpacity" : {
                              "type" : "double",
                              "defaultValue" : 0.0,
                              "interp" : "linr"
                            }
                          },
                          "effects" : [

                          ],
                          "start" : 10267,
                          "duration" : 10275,
                          "mediaStart" : 10027,
                          "mediaDuration" : 10275,
                          "scalar" : 1,
                          "metadata" : {
                            "AutoAppliedSmartFocus" : "False",
                            "clipSpeedAttribute" : false,
                            "default-scale0" : 1.0,
                            "default-scale1" : 1.0,
                            "default-translation0" : 0.0,
                            "default-translation1" : 0.0
                          },
                          "animationTracks" : {

                          }
                        }
                    ],
                    "effects" : [
                        {
                          "effectName" : "CursorHilight",
                          "category" : "categoryCursorEffects",
                          "parameters" : {
                            "blur" : 0.1,
                            "color-alpha" : 0.75,
                            "color-blue" : 0.0,
                            "color-green" : 1.0,
                            "color-red" : 1.0,
                            "radius" : 50.0
                          }
                        }
                    ],
                    "start" : 2897,
                    "duration" : 56,
                    "mediaStart" : 14545,
                    "mediaDuration" : 56,
                    "scalar" : 1,
                    "metadata" : {
                      "AutoAppliedSmartFocus" : "False",
                      "clipSpeedAttribute" : false
                    },
                    "animationTracks" : {
                      "visual" : [
                        {
                          "endTime" : 260,
                          "duration" : 30,
                          "range" : [ 230, 30]
                        },
                        {
                          "endTime" : 375,
                          "duration" : 30,
                          "range" : [ 345, 30]
                        },
                        {
                          "endTime" : 1433,
                          "duration" : 30,
                          "range" : [ 1403, 30]
                        },
                        {
                          "endTime" : 1633,
                          "duration" : 30,
                          "range" : [ 1603, 30]
                        },
                        {
                          "endTime" : 2012,
                          "duration" : 30,
                          "range" : [ 1982, 30]
                        },
                        {
                          "endTime" : 8833,
                          "duration" : 26,
                          "range" : [ 8807, 26]
                        },
                        {
                          "endTime" : 9253,
                          "duration" : 47,
                          "range" : [ 9206, 47]
                        },
                        {
                          "endTime" : 9287,
                          "duration" : 30,
                          "range" : [ 9257, 30]
                        },
                        {
                          "endTime" : 9785,
                          "duration" : 30,
                          "range" : [ 9755, 30]
                        },
                        {
                          "endTime" : 10110,
                          "duration" : 30,
                          "range" : [ 10080, 30]
                        }
                      ]
                    }
                  },
                  {
                    "id" : 400,
                    "_type" : "StitchedMedia",
                    "minMediaStart" : 0,
                    "attributes" : {
                      "ident" : "token_hijacking_attack_prevention",
                      "gain" : 1.0,
                      "mixToMono" : false
                    },
                    "parameters" : {
                      "translation0" : {
                        "type" : "double",
                        "defaultValue" : 0.0,
                        "keyframes" : [
                          {
                            "endTime" : 260,
                            "time" : 230,
                            "value" : 6617.65048026514,
                            "duration" : 30
                          },
                          {
                            "endTime" : 375,
                            "time" : 345,
                            "value" : -5.6843418860808e-13,
                            "duration" : 30
                          },
                          {
                            "endTime" : 1433,
                            "time" : 1403,
                            "value" : -544.842863508438,
                            "duration" : 30
                          },
                          {
                            "endTime" : 1633,
                            "time" : 1603,
                            "value" : 0.0,
                            "duration" : 30
                          },
                          {
                            "endTime" : 2012,
                            "time" : 1982,
                            "value" : -910.68970193186,
                            "duration" : 30
                          },
                          {
                            "endTime" : 8833,
                            "time" : 8807,
                            "value" : -502.735147015968,
                            "duration" : 26
                          },
                          {
                            "endTime" : 9253,
                            "time" : 9206,
                            "value" : 1.98951966012828e-13,
                            "duration" : 47
                          },
                          {
                            "endTime" : 9287,
                            "time" : 9257,
                            "value" : 2077.8234427351,
                            "duration" : 30
                          },
                          {
                            "endTime" : 9785,
                            "time" : 9755,
                            "value" : 3.41060513164848e-13,
                            "duration" : 30
                          },
                          {
                            "endTime" : 10110,
                            "time" : 10080,
                            "value" : -727.865478476359,
                            "duration" : 30
                          }
                        ]
                      },
                      "translation1" : {
                        "type" : "double",
                        "defaultValue" : 0.0,
                        "keyframes" : [
                          {
                            "endTime" : 260,
                            "time" : 230,
                            "value" : -3072.65241805758,
                            "duration" : 30
                          },
                          {
                            "endTime" : 375,
                            "time" : 345,
                            "value" : -5.6843418860808e-14,
                            "duration" : 30
                          },
                          {
                            "endTime" : 1433,
                            "time" : 1403,
                            "value" : 5.57225093738339,
                            "duration" : 30
                          },
                          {
                            "endTime" : 1633,
                            "time" : 1603,
                            "value" : -1.0724754417879e-13,
                            "duration" : 30
                          },
                          {
                            "endTime" : 2012,
                            "time" : 1982,
                            "value" : 377.898911972652,
                            "duration" : 30
                          },
                          {
                            "endTime" : 8833,
                            "time" : 8807,
                            "value" : 1508.20260622586,
                            "duration" : 26
                          },
                          {
                            "endTime" : 9253,
                            "time" : 9206,
                            "value" : 0.0,
                            "duration" : 47
                          },
                          {
                            "endTime" : 9287,
                            "time" : 9257,
                            "value" : -66.7870775612071,
                            "duration" : 30
                          },
                          {
                            "endTime" : 9785,
                            "time" : 9755,
                            "value" : -4.9737991503207e-14,
                            "duration" : 30
                          },
                          {
                            "endTime" : 10110,
                            "time" : 10080,
                            "value" : 793.17781292182,
                            "duration" : 30
                          }
                        ]
                      },
                      "scale0" : {
                        "type" : "double",
                        "defaultValue" : 1.0,
                        "keyframes" : [
                          {
                            "endTime" : 260,
                            "time" : 230,
                            "value" : 6.62127287207902,
                            "duration" : 30
                          },
                          {
                            "endTime" : 375,
                            "time" : 345,
                            "value" : 1.0,
                            "duration" : 30
                          },
                          {
                            "endTime" : 1433,
                            "time" : 1403,
                            "value" : 3.40690314495839,
                            "duration" : 30
                          },
                          {
                            "endTime" : 1633,
                            "time" : 1603,
                            "value" : 1.0,
                            "duration" : 30
                          },
                          {
                            "endTime" : 2012,
                            "time" : 1982,
                            "value" : 1.71147598625338,
                            "duration" : 30
                          },
                          {
                            "endTime" : 8833,
                            "time" : 8807,
                            "value" : 3.60204142445965,
                            "duration" : 26
                          },
                          {
                            "endTime" : 9253,
                            "time" : 9206,
                            "value" : 0.999999898028527,
                            "duration" : 47
                          },
                          {
                            "endTime" : 9287,
                            "time" : 9257,
                            "value" : 2.87114235039259,
                            "duration" : 30
                          },
                          {
                            "endTime" : 9785,
                            "time" : 9755,
                            "value" : 0.999999749420839,
                            "duration" : 30
                          },
                          {
                            "endTime" : 10110,
                            "time" : 10080,
                            "value" : 2.36733015083206,
                            "duration" : 30
                          }
                        ]
                      },
                      "scale1" : {
                        "type" : "double",
                        "defaultValue" : 1.0,
                        "keyframes" : [
                          {
                            "endTime" : 260,
                            "time" : 230,
                            "value" : 6.62127291078292,
                            "duration" : 30
                          },
                          {
                            "endTime" : 375,
                            "time" : 345,
                            "value" : 1.0,
                            "duration" : 30
                          },
                          {
                            "endTime" : 1433,
                            "time" : 1403,
                            "value" : 3.40690239557822,
                            "duration" : 30
                          },
                          {
                            "endTime" : 1633,
                            "time" : 1603,
                            "value" : 1.0,
                            "duration" : 30
                          },
                          {
                            "endTime" : 2012,
                            "time" : 1982,
                            "value" : 1.71147597084861,
                            "duration" : 30
                          },
                          {
                            "endTime" : 8833,
                            "time" : 8807,
                            "value" : 3.60204179176516,
                            "duration" : 26
                          },
                          {
                            "endTime" : 9253,
                            "time" : 9206,
                            "value" : 1.0,
                            "duration" : 47
                          },
                          {
                            "endTime" : 9287,
                            "time" : 9257,
                            "value" : 2.87114306984122,
                            "duration" : 30
                          },
                          {
                            "endTime" : 9785,
                            "time" : 9755,
                            "value" : 1.0,
                            "duration" : 30
                          },
                          {
                            "endTime" : 10110,
                            "time" : 10080,
                            "value" : 2.3673303422297,
                            "duration" : 30
                          }
                        ]
                      },
                      "cursorOpacity" : 1.0,
                      "cursorScale" : 1.0
                    },
                    "medias" : [
                        {
                          "id" : 401,
                          "_type" : "ScreenVMFile",
                          "src" : 1,
                          "trackNumber" : 0,
                          "attributes" : {
                            "ident" : "token_hijacking_attack_prevention"
                          },
                          "parameters" : {
                            "cursorScale" : {
                              "type" : "double",
                              "defaultValue" : 0.0,
                              "interp" : "linr"
                            },
                            "cursorOpacity" : {
                              "type" : "double",
                              "defaultValue" : 0.0,
                              "interp" : "linr"
                            }
                          },
                          "effects" : [

                          ],
                          "start" : 0,
                          "duration" : 276,
                          "mediaStart" : 0,
                          "mediaDuration" : 276,
                          "scalar" : 1,
                          "metadata" : {
                            "AutoAppliedSmartFocus" : "False",
                            "clipSpeedAttribute" : false,
                            "default-scale0" : 1.0,
                            "default-scale1" : 1.0,
                            "default-translation0" : 0.0,
                            "default-translation1" : 0.0
                          },
                          "animationTracks" : {

                          }
                        },
                        {
                          "id" : 402,
                          "_type" : "ScreenIMFile",
                          "src" : 1,
                          "trackNumber" : 0,
                          "trimStartSum" : 0,
                          "attributes" : {
                            "ident" : "token_hijacking_attack_prevention"
                          },
                          "parameters" : {
                            "cursorOpacity" : 0.0,
                            "cursorScale" : 0.0
                          },
                          "effects" : [

                          ],
                          "start" : 276,
                          "duration" : 90,
                          "mediaStart" : 275,
                          "mediaDuration" : 1,
                          "scalar" : 1,
                          "metadata" : {
                            "AutoAppliedSmartFocus" : "False"
                          },
                          "animationTracks" : {

                          }
                        },
                        {
                          "id" : 403,
                          "_type" : "ScreenVMFile",
                          "src" : 1,
                          "trackNumber" : 0,
                          "attributes" : {
                            "ident" : "token_hijacking_attack_prevention"
                          },
                          "parameters" : {
                            "cursorScale" : {
                              "type" : "double",
                              "defaultValue" : 0.0,
                              "interp" : "linr"
                            },
                            "cursorOpacity" : {
                              "type" : "double",
                              "defaultValue" : 0.0,
                              "interp" : "linr"
                            }
                          },
                          "effects" : [

                          ],
                          "start" : 366,
                          "duration" : 61,
                          "mediaStart" : 276,
                          "mediaDuration" : 61,
                          "scalar" : 1,
                          "metadata" : {
                            "AutoAppliedSmartFocus" : "False",
                            "clipSpeedAttribute" : false,
                            "default-scale0" : 1.0,
                            "default-scale1" : 1.0,
                            "default-translation0" : 0.0,
                            "default-translation1" : 0.0
                          },
                          "animationTracks" : {

                          }
                        },
                        {
                          "id" : 404,
                          "_type" : "ScreenIMFile",
                          "src" : 1,
                          "trackNumber" : 0,
                          "trimStartSum" : 0,
                          "attributes" : {
                            "ident" : "token_hijacking_attack_prevention"
                          },
                          "parameters" : {
                            "cursorOpacity" : 0.0,
                            "cursorScale" : 0.0
                          },
                          "effects" : [

                          ],
                          "start" : 427,
                          "duration" : 30,
                          "mediaStart" : 337,
                          "mediaDuration" : 1,
                          "scalar" : 1,
                          "metadata" : {
                            "AutoAppliedSmartFocus" : "False"
                          },
                          "animationTracks" : {

                          }
                        },
                        {
                          "id" : 405,
                          "_type" : "ScreenVMFile",
                          "src" : 1,
                          "trackNumber" : 0,
                          "attributes" : {
                            "ident" : "token_hijacking_attack_prevention"
                          },
                          "parameters" : {
                            "cursorScale" : {
                              "type" : "double",
                              "defaultValue" : 0.0,
                              "interp" : "linr"
                            },
                            "cursorOpacity" : {
                              "type" : "double",
                              "defaultValue" : 0.0,
                              "interp" : "linr"
                            }
                          },
                          "effects" : [

                          ],
                          "start" : 457,
                          "duration" : 1089,
                          "mediaStart" : 337,
                          "mediaDuration" : 1089,
                          "scalar" : 1,
                          "metadata" : {
                            "AutoAppliedSmartFocus" : "False",
                            "clipSpeedAttribute" : false,
                            "default-scale0" : 1.0,
                            "default-scale1" : 1.0,
                            "default-translation0" : 0.0,
                            "default-translation1" : 0.0
                          },
                          "animationTracks" : {

                          }
                        },
                        {
                          "id" : 406,
                          "_type" : "ScreenIMFile",
                          "src" : 1,
                          "trackNumber" : 0,
                          "trimStartSum" : 0,
                          "attributes" : {
                            "ident" : "token_hijacking_attack_prevention"
                          },
                          "parameters" : {
                            "cursorOpacity" : 0.0,
                            "cursorScale" : 0.0
                          },
                          "effects" : [

                          ],
                          "start" : 1546,
                          "duration" : 90,
                          "mediaStart" : 1426,
                          "mediaDuration" : 1,
                          "scalar" : 1,
                          "metadata" : {
                            "AutoAppliedSmartFocus" : "False"
                          },
                          "animationTracks" : {

                          }
                        },
                        {
                          "id" : 407,
                          "_type" : "ScreenVMFile",
                          "src" : 1,
                          "trackNumber" : 0,
                          "attributes" : {
                            "ident" : "token_hijacking_attack_prevention"
                          },
                          "parameters" : {
                            "cursorScale" : {
                              "type" : "double",
                              "defaultValue" : 0.0,
                              "interp" : "linr"
                            },
                            "cursorOpacity" : {
                              "type" : "double",
                              "defaultValue" : 0.0,
                              "interp" : "linr"
                            }
                          },
                          "effects" : [

                          ],
                          "start" : 1636,
                          "duration" : 8601,
                          "mediaStart" : 1426,
                          "mediaDuration" : 8601,
                          "scalar" : 1,
                          "metadata" : {
                            "AutoAppliedSmartFocus" : "False",
                            "clipSpeedAttribute" : false,
                            "default-scale0" : 1.0,
                            "default-scale1" : 1.0,
                            "default-translation0" : 0.0,
                            "default-translation1" : 0.0
                          },
                          "animationTracks" : {

                          }
                        },
                        {
                          "id" : 408,
                          "_type" : "ScreenIMFile",
                          "src" : 1,
                          "trackNumber" : 0,
                          "trimStartSum" : 0,
                          "attributes" : {
                            "ident" : "token_hijacking_attack_prevention"
                          },
                          "parameters" : {
                            "cursorOpacity" : 0.0,
                            "cursorScale" : 0.0
                          },
                          "effects" : [

                          ],
                          "start" : 10237,
                          "duration" : 30,
                          "mediaStart" : 10027,
                          "mediaDuration" : 1,
                          "scalar" : 1,
                          "metadata" : {
                            "AutoAppliedSmartFocus" : "False"
                          },
                          "animationTracks" : {

                          }
                        },
                        {
                          "id" : 409,
                          "_type" : "ScreenVMFile",
                          "src" : 1,
                          "trackNumber" : 0,
                          "attributes" : {
                            "ident" : "token_hijacking_attack_prevention"
                          },
                          "parameters" : {
                            "cursorScale" : {
                              "type" : "double",
                              "defaultValue" : 0.0,
                              "interp" : "linr"
                            },
                            "cursorOpacity" : {
                              "type" : "double",
                              "defaultValue" : 0.0,
                              "interp" : "linr"
                            }
                          },
                          "effects" : [

                          ],
                          "start" : 10267,
                          "duration" : 10275,
                          "mediaStart" : 10027,
                          "mediaDuration" : 10275,
                          "scalar" : 1,
                          "metadata" : {
                            "AutoAppliedSmartFocus" : "False",
                            "clipSpeedAttribute" : false,
                            "default-scale0" : 1.0,
                            "default-scale1" : 1.0,
                            "default-translation0" : 0.0,
                            "default-translation1" : 0.0
                          },
                          "animationTracks" : {

                          }
                        }
                    ],
                    "effects" : [
                        {
                          "effectName" : "CursorHilight",
                          "category" : "categoryCursorEffects",
                          "parameters" : {
                            "blur" : 0.1,
                            "color-alpha" : 0.75,
                            "color-blue" : 0.0,
                            "color-green" : 1.0,
                            "color-red" : 1.0,
                            "radius" : 50.0
                          }
                        }
                    ],
                    "start" : 2953,
                    "duration" : 41,
                    "mediaStart" : 15252,
                    "mediaDuration" : 41,
                    "scalar" : 1,
                    "metadata" : {
                      "AutoAppliedSmartFocus" : "False",
                      "clipSpeedAttribute" : false
                    },
                    "animationTracks" : {
                      "visual" : [
                        {
                          "endTime" : 260,
                          "duration" : 30,
                          "range" : [ 230, 30]
                        },
                        {
                          "endTime" : 375,
                          "duration" : 30,
                          "range" : [ 345, 30]
                        },
                        {
                          "endTime" : 1433,
                          "duration" : 30,
                          "range" : [ 1403, 30]
                        },
                        {
                          "endTime" : 1633,
                          "duration" : 30,
                          "range" : [ 1603, 30]
                        },
                        {
                          "endTime" : 2012,
                          "duration" : 30,
                          "range" : [ 1982, 30]
                        },
                        {
                          "endTime" : 8833,
                          "duration" : 26,
                          "range" : [ 8807, 26]
                        },
                        {
                          "endTime" : 9253,
                          "duration" : 47,
                          "range" : [ 9206, 47]
                        },
                        {
                          "endTime" : 9287,
                          "duration" : 30,
                          "range" : [ 9257, 30]
                        },
                        {
                          "endTime" : 9785,
                          "duration" : 30,
                          "range" : [ 9755, 30]
                        },
                        {
                          "endTime" : 10110,
                          "duration" : 30,
                          "range" : [ 10080, 30]
                        }
                      ]
                    }
                  },
                  {
                    "id" : 410,
                    "_type" : "StitchedMedia",
                    "minMediaStart" : 0,
                    "attributes" : {
                      "ident" : "token_hijacking_attack_prevention",
                      "gain" : 1.0,
                      "mixToMono" : false
                    },
                    "parameters" : {
                      "translation0" : {
                        "type" : "double",
                        "defaultValue" : 0.0,
                        "keyframes" : [
                          {
                            "endTime" : 260,
                            "time" : 230,
                            "value" : 6617.65048026514,
                            "duration" : 30
                          },
                          {
                            "endTime" : 375,
                            "time" : 345,
                            "value" : -5.6843418860808e-13,
                            "duration" : 30
                          },
                          {
                            "endTime" : 1433,
                            "time" : 1403,
                            "value" : -544.842863508438,
                            "duration" : 30
                          },
                          {
                            "endTime" : 1633,
                            "time" : 1603,
                            "value" : 0.0,
                            "duration" : 30
                          },
                          {
                            "endTime" : 2012,
                            "time" : 1982,
                            "value" : -910.68970193186,
                            "duration" : 30
                          },
                          {
                            "endTime" : 8833,
                            "time" : 8807,
                            "value" : -502.735147015968,
                            "duration" : 26
                          },
                          {
                            "endTime" : 9253,
                            "time" : 9206,
                            "value" : 1.98951966012828e-13,
                            "duration" : 47
                          },
                          {
                            "endTime" : 9287,
                            "time" : 9257,
                            "value" : 2077.8234427351,
                            "duration" : 30
                          },
                          {
                            "endTime" : 9785,
                            "time" : 9755,
                            "value" : 3.41060513164848e-13,
                            "duration" : 30
                          },
                          {
                            "endTime" : 10110,
                            "time" : 10080,
                            "value" : -727.865478476359,
                            "duration" : 30
                          }
                        ]
                      },
                      "translation1" : {
                        "type" : "double",
                        "defaultValue" : 0.0,
                        "keyframes" : [
                          {
                            "endTime" : 260,
                            "time" : 230,
                            "value" : -3072.65241805758,
                            "duration" : 30
                          },
                          {
                            "endTime" : 375,
                            "time" : 345,
                            "value" : -5.6843418860808e-14,
                            "duration" : 30
                          },
                          {
                            "endTime" : 1433,
                            "time" : 1403,
                            "value" : 5.57225093738339,
                            "duration" : 30
                          },
                          {
                            "endTime" : 1633,
                            "time" : 1603,
                            "value" : -1.0724754417879e-13,
                            "duration" : 30
                          },
                          {
                            "endTime" : 2012,
                            "time" : 1982,
                            "value" : 377.898911972652,
                            "duration" : 30
                          },
                          {
                            "endTime" : 8833,
                            "time" : 8807,
                            "value" : 1508.20260622586,
                            "duration" : 26
                          },
                          {
                            "endTime" : 9253,
                            "time" : 9206,
                            "value" : 0.0,
                            "duration" : 47
                          },
                          {
                            "endTime" : 9287,
                            "time" : 9257,
                            "value" : -66.7870775612071,
                            "duration" : 30
                          },
                          {
                            "endTime" : 9785,
                            "time" : 9755,
                            "value" : -4.9737991503207e-14,
                            "duration" : 30
                          },
                          {
                            "endTime" : 10110,
                            "time" : 10080,
                            "value" : 793.17781292182,
                            "duration" : 30
                          }
                        ]
                      },
                      "scale0" : {
                        "type" : "double",
                        "defaultValue" : 1.0,
                        "keyframes" : [
                          {
                            "endTime" : 260,
                            "time" : 230,
                            "value" : 6.62127287207902,
                            "duration" : 30
                          },
                          {
                            "endTime" : 375,
                            "time" : 345,
                            "value" : 1.0,
                            "duration" : 30
                          },
                          {
                            "endTime" : 1433,
                            "time" : 1403,
                            "value" : 3.40690314495839,
                            "duration" : 30
                          },
                          {
                            "endTime" : 1633,
                            "time" : 1603,
                            "value" : 1.0,
                            "duration" : 30
                          },
                          {
                            "endTime" : 2012,
                            "time" : 1982,
                            "value" : 1.71147598625338,
                            "duration" : 30
                          },
                          {
                            "endTime" : 8833,
                            "time" : 8807,
                            "value" : 3.60204142445965,
                            "duration" : 26
                          },
                          {
                            "endTime" : 9253,
                            "time" : 9206,
                            "value" : 0.999999898028527,
                            "duration" : 47
                          },
                          {
                            "endTime" : 9287,
                            "time" : 9257,
                            "value" : 2.87114235039259,
                            "duration" : 30
                          },
                          {
                            "endTime" : 9785,
                            "time" : 9755,
                            "value" : 0.999999749420839,
                            "duration" : 30
                          },
                          {
                            "endTime" : 10110,
                            "time" : 10080,
                            "value" : 2.36733015083206,
                            "duration" : 30
                          }
                        ]
                      },
                      "scale1" : {
                        "type" : "double",
                        "defaultValue" : 1.0,
                        "keyframes" : [
                          {
                            "endTime" : 260,
                            "time" : 230,
                            "value" : 6.62127291078292,
                            "duration" : 30
                          },
                          {
                            "endTime" : 375,
                            "time" : 345,
                            "value" : 1.0,
                            "duration" : 30
                          },
                          {
                            "endTime" : 1433,
                            "time" : 1403,
                            "value" : 3.40690239557822,
                            "duration" : 30
                          },
                          {
                            "endTime" : 1633,
                            "time" : 1603,
                            "value" : 1.0,
                            "duration" : 30
                          },
                          {
                            "endTime" : 2012,
                            "time" : 1982,
                            "value" : 1.71147597084861,
                            "duration" : 30
                          },
                          {
                            "endTime" : 8833,
                            "time" : 8807,
                            "value" : 3.60204179176516,
                            "duration" : 26
                          },
                          {
                            "endTime" : 9253,
                            "time" : 9206,
                            "value" : 1.0,
                            "duration" : 47
                          },
                          {
                            "endTime" : 9287,
                            "time" : 9257,
                            "value" : 2.87114306984122,
                            "duration" : 30
                          },
                          {
                            "endTime" : 9785,
                            "time" : 9755,
                            "value" : 1.0,
                            "duration" : 30
                          },
                          {
                            "endTime" : 10110,
                            "time" : 10080,
                            "value" : 2.3673303422297,
                            "duration" : 30
                          }
                        ]
                      },
                      "cursorOpacity" : 1.0,
                      "cursorScale" : 1.0
                    },
                    "medias" : [
                        {
                          "id" : 411,
                          "_type" : "ScreenVMFile",
                          "src" : 1,
                          "trackNumber" : 0,
                          "attributes" : {
                            "ident" : "token_hijacking_attack_prevention"
                          },
                          "parameters" : {
                            "cursorScale" : {
                              "type" : "double",
                              "defaultValue" : 0.0,
                              "interp" : "linr"
                            },
                            "cursorOpacity" : {
                              "type" : "double",
                              "defaultValue" : 0.0,
                              "interp" : "linr"
                            }
                          },
                          "effects" : [

                          ],
                          "start" : 0,
                          "duration" : 276,
                          "mediaStart" : 0,
                          "mediaDuration" : 276,
                          "scalar" : 1,
                          "metadata" : {
                            "AutoAppliedSmartFocus" : "False",
                            "clipSpeedAttribute" : false,
                            "default-scale0" : 1.0,
                            "default-scale1" : 1.0,
                            "default-translation0" : 0.0,
                            "default-translation1" : 0.0
                          },
                          "animationTracks" : {

                          }
                        },
                        {
                          "id" : 412,
                          "_type" : "ScreenIMFile",
                          "src" : 1,
                          "trackNumber" : 0,
                          "trimStartSum" : 0,
                          "attributes" : {
                            "ident" : "token_hijacking_attack_prevention"
                          },
                          "parameters" : {
                            "cursorOpacity" : 0.0,
                            "cursorScale" : 0.0
                          },
                          "effects" : [

                          ],
                          "start" : 276,
                          "duration" : 90,
                          "mediaStart" : 275,
                          "mediaDuration" : 1,
                          "scalar" : 1,
                          "metadata" : {
                            "AutoAppliedSmartFocus" : "False"
                          },
                          "animationTracks" : {

                          }
                        },
                        {
                          "id" : 413,
                          "_type" : "ScreenVMFile",
                          "src" : 1,
                          "trackNumber" : 0,
                          "attributes" : {
                            "ident" : "token_hijacking_attack_prevention"
                          },
                          "parameters" : {
                            "cursorScale" : {
                              "type" : "double",
                              "defaultValue" : 0.0,
                              "interp" : "linr"
                            },
                            "cursorOpacity" : {
                              "type" : "double",
                              "defaultValue" : 0.0,
                              "interp" : "linr"
                            }
                          },
                          "effects" : [

                          ],
                          "start" : 366,
                          "duration" : 61,
                          "mediaStart" : 276,
                          "mediaDuration" : 61,
                          "scalar" : 1,
                          "metadata" : {
                            "AutoAppliedSmartFocus" : "False",
                            "clipSpeedAttribute" : false,
                            "default-scale0" : 1.0,
                            "default-scale1" : 1.0,
                            "default-translation0" : 0.0,
                            "default-translation1" : 0.0
                          },
                          "animationTracks" : {

                          }
                        },
                        {
                          "id" : 414,
                          "_type" : "ScreenIMFile",
                          "src" : 1,
                          "trackNumber" : 0,
                          "trimStartSum" : 0,
                          "attributes" : {
                            "ident" : "token_hijacking_attack_prevention"
                          },
                          "parameters" : {
                            "cursorOpacity" : 0.0,
                            "cursorScale" : 0.0
                          },
                          "effects" : [

                          ],
                          "start" : 427,
                          "duration" : 30,
                          "mediaStart" : 337,
                          "mediaDuration" : 1,
                          "scalar" : 1,
                          "metadata" : {
                            "AutoAppliedSmartFocus" : "False"
                          },
                          "animationTracks" : {

                          }
                        },
                        {
                          "id" : 415,
                          "_type" : "ScreenVMFile",
                          "src" : 1,
                          "trackNumber" : 0,
                          "attributes" : {
                            "ident" : "token_hijacking_attack_prevention"
                          },
                          "parameters" : {
                            "cursorScale" : {
                              "type" : "double",
                              "defaultValue" : 0.0,
                              "interp" : "linr"
                            },
                            "cursorOpacity" : {
                              "type" : "double",
                              "defaultValue" : 0.0,
                              "interp" : "linr"
                            }
                          },
                          "effects" : [

                          ],
                          "start" : 457,
                          "duration" : 1089,
                          "mediaStart" : 337,
                          "mediaDuration" : 1089,
                          "scalar" : 1,
                          "metadata" : {
                            "AutoAppliedSmartFocus" : "False",
                            "clipSpeedAttribute" : false,
                            "default-scale0" : 1.0,
                            "default-scale1" : 1.0,
                            "default-translation0" : 0.0,
                            "default-translation1" : 0.0
                          },
                          "animationTracks" : {

                          }
                        },
                        {
                          "id" : 416,
                          "_type" : "ScreenIMFile",
                          "src" : 1,
                          "trackNumber" : 0,
                          "trimStartSum" : 0,
                          "attributes" : {
                            "ident" : "token_hijacking_attack_prevention"
                          },
                          "parameters" : {
                            "cursorOpacity" : 0.0,
                            "cursorScale" : 0.0
                          },
                          "effects" : [

                          ],
                          "start" : 1546,
                          "duration" : 90,
                          "mediaStart" : 1426,
                          "mediaDuration" : 1,
                          "scalar" : 1,
                          "metadata" : {
                            "AutoAppliedSmartFocus" : "False"
                          },
                          "animationTracks" : {

                          }
                        },
                        {
                          "id" : 417,
                          "_type" : "ScreenVMFile",
                          "src" : 1,
                          "trackNumber" : 0,
                          "attributes" : {
                            "ident" : "token_hijacking_attack_prevention"
                          },
                          "parameters" : {
                            "cursorScale" : {
                              "type" : "double",
                              "defaultValue" : 0.0,
                              "interp" : "linr"
                            },
                            "cursorOpacity" : {
                              "type" : "double",
                              "defaultValue" : 0.0,
                              "interp" : "linr"
                            }
                          },
                          "effects" : [

                          ],
                          "start" : 1636,
                          "duration" : 8601,
                          "mediaStart" : 1426,
                          "mediaDuration" : 8601,
                          "scalar" : 1,
                          "metadata" : {
                            "AutoAppliedSmartFocus" : "False",
                            "clipSpeedAttribute" : false,
                            "default-scale0" : 1.0,
                            "default-scale1" : 1.0,
                            "default-translation0" : 0.0,
                            "default-translation1" : 0.0
                          },
                          "animationTracks" : {

                          }
                        },
                        {
                          "id" : 418,
                          "_type" : "ScreenIMFile",
                          "src" : 1,
                          "trackNumber" : 0,
                          "trimStartSum" : 0,
                          "attributes" : {
                            "ident" : "token_hijacking_attack_prevention"
                          },
                          "parameters" : {
                            "cursorOpacity" : 0.0,
                            "cursorScale" : 0.0
                          },
                          "effects" : [

                          ],
                          "start" : 10237,
                          "duration" : 30,
                          "mediaStart" : 10027,
                          "mediaDuration" : 1,
                          "scalar" : 1,
                          "metadata" : {
                            "AutoAppliedSmartFocus" : "False"
                          },
                          "animationTracks" : {

                          }
                        },
                        {
                          "id" : 419,
                          "_type" : "ScreenVMFile",
                          "src" : 1,
                          "trackNumber" : 0,
                          "attributes" : {
                            "ident" : "token_hijacking_attack_prevention"
                          },
                          "parameters" : {
                            "cursorScale" : {
                              "type" : "double",
                              "defaultValue" : 0.0,
                              "interp" : "linr"
                            },
                            "cursorOpacity" : {
                              "type" : "double",
                              "defaultValue" : 0.0,
                              "interp" : "linr"
                            }
                          },
                          "effects" : [

                          ],
                          "start" : 10267,
                          "duration" : 10275,
                          "mediaStart" : 10027,
                          "mediaDuration" : 10275,
                          "scalar" : 1,
                          "metadata" : {
                            "AutoAppliedSmartFocus" : "False",
                            "clipSpeedAttribute" : false,
                            "default-scale0" : 1.0,
                            "default-scale1" : 1.0,
                            "default-translation0" : 0.0,
                            "default-translation1" : 0.0
                          },
                          "animationTracks" : {

                          }
                        }
                    ],
                    "effects" : [
                        {
                          "effectName" : "CursorHilight",
                          "category" : "categoryCursorEffects",
                          "parameters" : {
                            "blur" : 0.1,
                            "color-alpha" : 0.75,
                            "color-blue" : 0.0,
                            "color-green" : 1.0,
                            "color-red" : 1.0,
                            "radius" : 50.0
                          }
                        }
                    ],
                    "start" : 2994,
                    "duration" : 33,
                    "mediaStart" : 15940,
                    "mediaDuration" : 33,
                    "scalar" : 1,
                    "metadata" : {
                      "AutoAppliedSmartFocus" : "False",
                      "clipSpeedAttribute" : false
                    },
                    "animationTracks" : {
                      "visual" : [
                        {
                          "endTime" : 260,
                          "duration" : 30,
                          "range" : [ 230, 30]
                        },
                        {
                          "endTime" : 375,
                          "duration" : 30,
                          "range" : [ 345, 30]
                        },
                        {
                          "endTime" : 1433,
                          "duration" : 30,
                          "range" : [ 1403, 30]
                        },
                        {
                          "endTime" : 1633,
                          "duration" : 30,
                          "range" : [ 1603, 30]
                        },
                        {
                          "endTime" : 2012,
                          "duration" : 30,
                          "range" : [ 1982, 30]
                        },
                        {
                          "endTime" : 8833,
                          "duration" : 26,
                          "range" : [ 8807, 26]
                        },
                        {
                          "endTime" : 9253,
                          "duration" : 47,
                          "range" : [ 9206, 47]
                        },
                        {
                          "endTime" : 9287,
                          "duration" : 30,
                          "range" : [ 9257, 30]
                        },
                        {
                          "endTime" : 9785,
                          "duration" : 30,
                          "range" : [ 9755, 30]
                        },
                        {
                          "endTime" : 10110,
                          "duration" : 30,
                          "range" : [ 10080, 30]
                        }
                      ]
                    }
                  },
                  {
                    "id" : 420,
                    "_type" : "StitchedMedia",
                    "minMediaStart" : 0,
                    "attributes" : {
                      "ident" : "token_hijacking_attack_prevention",
                      "gain" : 1.0,
                      "mixToMono" : false
                    },
                    "parameters" : {
                      "translation0" : {
                        "type" : "double",
                        "defaultValue" : 0.0,
                        "keyframes" : [
                          {
                            "endTime" : 260,
                            "time" : 230,
                            "value" : 6617.65048026514,
                            "duration" : 30
                          },
                          {
                            "endTime" : 375,
                            "time" : 345,
                            "value" : -5.6843418860808e-13,
                            "duration" : 30
                          },
                          {
                            "endTime" : 1433,
                            "time" : 1403,
                            "value" : -544.842863508438,
                            "duration" : 30
                          },
                          {
                            "endTime" : 1633,
                            "time" : 1603,
                            "value" : 0.0,
                            "duration" : 30
                          },
                          {
                            "endTime" : 2012,
                            "time" : 1982,
                            "value" : -910.68970193186,
                            "duration" : 30
                          },
                          {
                            "endTime" : 8833,
                            "time" : 8807,
                            "value" : -502.735147015968,
                            "duration" : 26
                          },
                          {
                            "endTime" : 9253,
                            "time" : 9206,
                            "value" : 1.98951966012828e-13,
                            "duration" : 47
                          },
                          {
                            "endTime" : 9287,
                            "time" : 9257,
                            "value" : 2077.8234427351,
                            "duration" : 30
                          },
                          {
                            "endTime" : 9785,
                            "time" : 9755,
                            "value" : 3.41060513164848e-13,
                            "duration" : 30
                          },
                          {
                            "endTime" : 10110,
                            "time" : 10080,
                            "value" : -727.865478476359,
                            "duration" : 30
                          },
                          {
                            "endTime" : 16803,
                            "time" : 16760,
                            "value" : 5.11590769747272e-13,
                            "duration" : 43
                          }
                        ]
                      },
                      "translation1" : {
                        "type" : "double",
                        "defaultValue" : 0.0,
                        "keyframes" : [
                          {
                            "endTime" : 260,
                            "time" : 230,
                            "value" : -3072.65241805758,
                            "duration" : 30
                          },
                          {
                            "endTime" : 375,
                            "time" : 345,
                            "value" : -5.6843418860808e-14,
                            "duration" : 30
                          },
                          {
                            "endTime" : 1433,
                            "time" : 1403,
                            "value" : 5.57225093738339,
                            "duration" : 30
                          },
                          {
                            "endTime" : 1633,
                            "time" : 1603,
                            "value" : -1.0724754417879e-13,
                            "duration" : 30
                          },
                          {
                            "endTime" : 2012,
                            "time" : 1982,
                            "value" : 377.898911972652,
                            "duration" : 30
                          },
                          {
                            "endTime" : 8833,
                            "time" : 8807,
                            "value" : 1508.20260622586,
                            "duration" : 26
                          },
                          {
                            "endTime" : 9253,
                            "time" : 9206,
                            "value" : 0.0,
                            "duration" : 47
                          },
                          {
                            "endTime" : 9287,
                            "time" : 9257,
                            "value" : -66.7870775612071,
                            "duration" : 30
                          },
                          {
                            "endTime" : 9785,
                            "time" : 9755,
                            "value" : -4.9737991503207e-14,
                            "duration" : 30
                          },
                          {
                            "endTime" : 10110,
                            "time" : 10080,
                            "value" : 793.17781292182,
                            "duration" : 30
                          },
                          {
                            "endTime" : 16803,
                            "time" : 16760,
                            "value" : -1.13686837721616e-13,
                            "duration" : 43
                          }
                        ]
                      },
                      "scale0" : {
                        "type" : "double",
                        "defaultValue" : 1.0,
                        "keyframes" : [
                          {
                            "endTime" : 260,
                            "time" : 230,
                            "value" : 6.62127287207902,
                            "duration" : 30
                          },
                          {
                            "endTime" : 375,
                            "time" : 345,
                            "value" : 1.0,
                            "duration" : 30
                          },
                          {
                            "endTime" : 1433,
                            "time" : 1403,
                            "value" : 3.40690314495839,
                            "duration" : 30
                          },
                          {
                            "endTime" : 1633,
                            "time" : 1603,
                            "value" : 1.0,
                            "duration" : 30
                          },
                          {
                            "endTime" : 2012,
                            "time" : 1982,
                            "value" : 1.71147598625338,
                            "duration" : 30
                          },
                          {
                            "endTime" : 8833,
                            "time" : 8807,
                            "value" : 3.60204142445965,
                            "duration" : 26
                          },
                          {
                            "endTime" : 9253,
                            "time" : 9206,
                            "value" : 0.999999898028527,
                            "duration" : 47
                          },
                          {
                            "endTime" : 9287,
                            "time" : 9257,
                            "value" : 2.87114235039259,
                            "duration" : 30
                          },
                          {
                            "endTime" : 9785,
                            "time" : 9755,
                            "value" : 0.999999749420839,
                            "duration" : 30
                          },
                          {
                            "endTime" : 10110,
                            "time" : 10080,
                            "value" : 2.36733015083206,
                            "duration" : 30
                          },
                          {
                            "endTime" : 16803,
                            "time" : 16760,
                            "value" : 0.999999919150432,
                            "duration" : 43
                          }
                        ]
                      },
                      "scale1" : {
                        "type" : "double",
                        "defaultValue" : 1.0,
                        "keyframes" : [
                          {
                            "endTime" : 260,
                            "time" : 230,
                            "value" : 6.62127291078292,
                            "duration" : 30
                          },
                          {
                            "endTime" : 375,
                            "time" : 345,
                            "value" : 1.0,
                            "duration" : 30
                          },
                          {
                            "endTime" : 1433,
                            "time" : 1403,
                            "value" : 3.40690239557822,
                            "duration" : 30
                          },
                          {
                            "endTime" : 1633,
                            "time" : 1603,
                            "value" : 1.0,
                            "duration" : 30
                          },
                          {
                            "endTime" : 2012,
                            "time" : 1982,
                            "value" : 1.71147597084861,
                            "duration" : 30
                          },
                          {
                            "endTime" : 8833,
                            "time" : 8807,
                            "value" : 3.60204179176516,
                            "duration" : 26
                          },
                          {
                            "endTime" : 9253,
                            "time" : 9206,
                            "value" : 1.0,
                            "duration" : 47
                          },
                          {
                            "endTime" : 9287,
                            "time" : 9257,
                            "value" : 2.87114306984122,
                            "duration" : 30
                          },
                          {
                            "endTime" : 9785,
                            "time" : 9755,
                            "value" : 1.0,
                            "duration" : 30
                          },
                          {
                            "endTime" : 10110,
                            "time" : 10080,
                            "value" : 2.3673303422297,
                            "duration" : 30
                          },
                          {
                            "endTime" : 16803,
                            "time" : 16760,
                            "value" : 1.0,
                            "duration" : 43
                          }
                        ]
                      },
                      "cursorOpacity" : 1.0,
                      "cursorScale" : 1.0
                    },
                    "medias" : [
                        {
                          "id" : 421,
                          "_type" : "ScreenVMFile",
                          "src" : 1,
                          "trackNumber" : 0,
                          "attributes" : {
                            "ident" : "token_hijacking_attack_prevention"
                          },
                          "parameters" : {
                            "cursorScale" : {
                              "type" : "double",
                              "defaultValue" : 0.0,
                              "interp" : "linr"
                            },
                            "cursorOpacity" : {
                              "type" : "double",
                              "defaultValue" : 0.0,
                              "interp" : "linr"
                            }
                          },
                          "effects" : [

                          ],
                          "start" : 0,
                          "duration" : 276,
                          "mediaStart" : 0,
                          "mediaDuration" : 276,
                          "scalar" : 1,
                          "metadata" : {
                            "AutoAppliedSmartFocus" : "False",
                            "clipSpeedAttribute" : false,
                            "default-scale0" : 1.0,
                            "default-scale1" : 1.0,
                            "default-translation0" : 0.0,
                            "default-translation1" : 0.0
                          },
                          "animationTracks" : {

                          }
                        },
                        {
                          "id" : 422,
                          "_type" : "ScreenIMFile",
                          "src" : 1,
                          "trackNumber" : 0,
                          "trimStartSum" : 0,
                          "attributes" : {
                            "ident" : "token_hijacking_attack_prevention"
                          },
                          "parameters" : {
                            "cursorOpacity" : 0.0,
                            "cursorScale" : 0.0
                          },
                          "effects" : [

                          ],
                          "start" : 276,
                          "duration" : 90,
                          "mediaStart" : 275,
                          "mediaDuration" : 1,
                          "scalar" : 1,
                          "metadata" : {
                            "AutoAppliedSmartFocus" : "False"
                          },
                          "animationTracks" : {

                          }
                        },
                        {
                          "id" : 423,
                          "_type" : "ScreenVMFile",
                          "src" : 1,
                          "trackNumber" : 0,
                          "attributes" : {
                            "ident" : "token_hijacking_attack_prevention"
                          },
                          "parameters" : {
                            "cursorScale" : {
                              "type" : "double",
                              "defaultValue" : 0.0,
                              "interp" : "linr"
                            },
                            "cursorOpacity" : {
                              "type" : "double",
                              "defaultValue" : 0.0,
                              "interp" : "linr"
                            }
                          },
                          "effects" : [

                          ],
                          "start" : 366,
                          "duration" : 61,
                          "mediaStart" : 276,
                          "mediaDuration" : 61,
                          "scalar" : 1,
                          "metadata" : {
                            "AutoAppliedSmartFocus" : "False",
                            "clipSpeedAttribute" : false,
                            "default-scale0" : 1.0,
                            "default-scale1" : 1.0,
                            "default-translation0" : 0.0,
                            "default-translation1" : 0.0
                          },
                          "animationTracks" : {

                          }
                        },
                        {
                          "id" : 424,
                          "_type" : "ScreenIMFile",
                          "src" : 1,
                          "trackNumber" : 0,
                          "trimStartSum" : 0,
                          "attributes" : {
                            "ident" : "token_hijacking_attack_prevention"
                          },
                          "parameters" : {
                            "cursorOpacity" : 0.0,
                            "cursorScale" : 0.0
                          },
                          "effects" : [

                          ],
                          "start" : 427,
                          "duration" : 30,
                          "mediaStart" : 337,
                          "mediaDuration" : 1,
                          "scalar" : 1,
                          "metadata" : {
                            "AutoAppliedSmartFocus" : "False"
                          },
                          "animationTracks" : {

                          }
                        },
                        {
                          "id" : 425,
                          "_type" : "ScreenVMFile",
                          "src" : 1,
                          "trackNumber" : 0,
                          "attributes" : {
                            "ident" : "token_hijacking_attack_prevention"
                          },
                          "parameters" : {
                            "cursorScale" : {
                              "type" : "double",
                              "defaultValue" : 0.0,
                              "interp" : "linr"
                            },
                            "cursorOpacity" : {
                              "type" : "double",
                              "defaultValue" : 0.0,
                              "interp" : "linr"
                            }
                          },
                          "effects" : [

                          ],
                          "start" : 457,
                          "duration" : 1089,
                          "mediaStart" : 337,
                          "mediaDuration" : 1089,
                          "scalar" : 1,
                          "metadata" : {
                            "AutoAppliedSmartFocus" : "False",
                            "clipSpeedAttribute" : false,
                            "default-scale0" : 1.0,
                            "default-scale1" : 1.0,
                            "default-translation0" : 0.0,
                            "default-translation1" : 0.0
                          },
                          "animationTracks" : {

                          }
                        },
                        {
                          "id" : 426,
                          "_type" : "ScreenIMFile",
                          "src" : 1,
                          "trackNumber" : 0,
                          "trimStartSum" : 0,
                          "attributes" : {
                            "ident" : "token_hijacking_attack_prevention"
                          },
                          "parameters" : {
                            "cursorOpacity" : 0.0,
                            "cursorScale" : 0.0
                          },
                          "effects" : [

                          ],
                          "start" : 1546,
                          "duration" : 90,
                          "mediaStart" : 1426,
                          "mediaDuration" : 1,
                          "scalar" : 1,
                          "metadata" : {
                            "AutoAppliedSmartFocus" : "False"
                          },
                          "animationTracks" : {

                          }
                        },
                        {
                          "id" : 427,
                          "_type" : "ScreenVMFile",
                          "src" : 1,
                          "trackNumber" : 0,
                          "attributes" : {
                            "ident" : "token_hijacking_attack_prevention"
                          },
                          "parameters" : {
                            "cursorScale" : {
                              "type" : "double",
                              "defaultValue" : 0.0,
                              "interp" : "linr"
                            },
                            "cursorOpacity" : {
                              "type" : "double",
                              "defaultValue" : 0.0,
                              "interp" : "linr"
                            }
                          },
                          "effects" : [

                          ],
                          "start" : 1636,
                          "duration" : 8601,
                          "mediaStart" : 1426,
                          "mediaDuration" : 8601,
                          "scalar" : 1,
                          "metadata" : {
                            "AutoAppliedSmartFocus" : "False",
                            "clipSpeedAttribute" : false,
                            "default-scale0" : 1.0,
                            "default-scale1" : 1.0,
                            "default-translation0" : 0.0,
                            "default-translation1" : 0.0
                          },
                          "animationTracks" : {

                          }
                        },
                        {
                          "id" : 428,
                          "_type" : "ScreenIMFile",
                          "src" : 1,
                          "trackNumber" : 0,
                          "trimStartSum" : 0,
                          "attributes" : {
                            "ident" : "token_hijacking_attack_prevention"
                          },
                          "parameters" : {
                            "cursorOpacity" : 0.0,
                            "cursorScale" : 0.0
                          },
                          "effects" : [

                          ],
                          "start" : 10237,
                          "duration" : 30,
                          "mediaStart" : 10027,
                          "mediaDuration" : 1,
                          "scalar" : 1,
                          "metadata" : {
                            "AutoAppliedSmartFocus" : "False"
                          },
                          "animationTracks" : {

                          }
                        },
                        {
                          "id" : 429,
                          "_type" : "ScreenVMFile",
                          "src" : 1,
                          "trackNumber" : 0,
                          "attributes" : {
                            "ident" : "token_hijacking_attack_prevention"
                          },
                          "parameters" : {
                            "cursorScale" : {
                              "type" : "double",
                              "defaultValue" : 0.0,
                              "interp" : "linr"
                            },
                            "cursorOpacity" : {
                              "type" : "double",
                              "defaultValue" : 0.0,
                              "interp" : "linr"
                            }
                          },
                          "effects" : [

                          ],
                          "start" : 10267,
                          "duration" : 6601,
                          "mediaStart" : 10027,
                          "mediaDuration" : 6601,
                          "scalar" : 1,
                          "metadata" : {
                            "AutoAppliedSmartFocus" : "False",
                            "clipSpeedAttribute" : false,
                            "default-scale0" : 1.0,
                            "default-scale1" : 1.0,
                            "default-translation0" : 0.0,
                            "default-translation1" : 0.0
                          },
                          "animationTracks" : {

                          }
                        },
                        {
                          "id" : 430,
                          "_type" : "ScreenIMFile",
                          "src" : 1,
                          "trackNumber" : 0,
                          "trimStartSum" : 0,
                          "attributes" : {
                            "ident" : "token_hijacking_attack_prevention"
                          },
                          "parameters" : {
                            "cursorOpacity" : 0.0,
                            "cursorScale" : 0.0
                          },
                          "effects" : [

                          ],
                          "start" : 16868,
                          "duration" : 90,
                          "mediaStart" : 16628,
                          "mediaDuration" : 1,
                          "scalar" : 1,
                          "metadata" : {
                            "AutoAppliedSmartFocus" : "False"
                          },
                          "animationTracks" : {

                          }
                        },
                        {
                          "id" : 431,
                          "_type" : "ScreenVMFile",
                          "src" : 1,
                          "trackNumber" : 0,
                          "attributes" : {
                            "ident" : "token_hijacking_attack_prevention"
                          },
                          "parameters" : {
                            "cursorScale" : {
                              "type" : "double",
                              "defaultValue" : 0.0,
                              "interp" : "linr"
                            },
                            "cursorOpacity" : {
                              "type" : "double",
                              "defaultValue" : 0.0,
                              "interp" : "linr"
                            }
                          },
                          "effects" : [

                          ],
                          "start" : 16958,
                          "duration" : 3674,
                          "mediaStart" : 16628,
                          "mediaDuration" : 3674,
                          "scalar" : 1,
                          "metadata" : {
                            "AutoAppliedSmartFocus" : "False",
                            "clipSpeedAttribute" : false,
                            "default-scale0" : 1.0,
                            "default-scale1" : 1.0,
                            "default-translation0" : 0.0,
                            "default-translation1" : 0.0
                          },
                          "animationTracks" : {

                          }
                        }
                    ],
                    "effects" : [
                        {
                          "effectName" : "CursorHilight",
                          "category" : "categoryCursorEffects",
                          "parameters" : {
                            "blur" : 0.1,
                            "color-alpha" : 0.75,
                            "color-blue" : 0.0,
                            "color-green" : 1.0,
                            "color-red" : 1.0,
                            "radius" : 50.0
                          }
                        }
                    ],
                    "start" : 3027,
                    "duration" : 363,
                    "mediaStart" : 16626,
                    "mediaDuration" : 363,
                    "scalar" : 1,
                    "metadata" : {
                      "AutoAppliedSmartFocus" : "False",
                      "clipSpeedAttribute" : false
                    },
                    "animationTracks" : {
                      "visual" : [
                        {
                          "endTime" : 260,
                          "duration" : 30,
                          "range" : [ 230, 30]
                        },
                        {
                          "endTime" : 375,
                          "duration" : 30,
                          "range" : [ 345, 30]
                        },
                        {
                          "endTime" : 1433,
                          "duration" : 30,
                          "range" : [ 1403, 30]
                        },
                        {
                          "endTime" : 1633,
                          "duration" : 30,
                          "range" : [ 1603, 30]
                        },
                        {
                          "endTime" : 2012,
                          "duration" : 30,
                          "range" : [ 1982, 30]
                        },
                        {
                          "endTime" : 8833,
                          "duration" : 26,
                          "range" : [ 8807, 26]
                        },
                        {
                          "endTime" : 9253,
                          "duration" : 47,
                          "range" : [ 9206, 47]
                        },
                        {
                          "endTime" : 9287,
                          "duration" : 30,
                          "range" : [ 9257, 30]
                        },
                        {
                          "endTime" : 9785,
                          "duration" : 30,
                          "range" : [ 9755, 30]
                        },
                        {
                          "endTime" : 10110,
                          "duration" : 30,
                          "range" : [ 10080, 30]
                        },
                        {
                          "endTime" : 16803,
                          "duration" : 43,
                          "range" : [ 16760, 43]
                        }
                      ]
                    }
                  }
                ]
              },
              {
                "trackIndex" : 3,
                "medias" : [
                  {
                    "id" : 432,
                    "_type" : "Callout",
                    "def" : {
                      "kind" : "remix",
                      "shape" : "text",
                      "style" : "basic",
                      "height" : 123.255813953422,
                      "line-spacing" : 0.0,
                      "width" : 2120.961750001,
                      "word-wrap" : 1.0,
                      "horizontal-alignment" : "center",
                      "resize-behavior" : "resizeText",
                      "text" : "2020",
                      "vertical-alignment" : "center",
                      "font" : {
                        "color-blue" : 1.0,
                        "color-green" : 1.0,
                        "color-red" : 1.0,
                        "size" : 96.0,
                        "tracking" : 0.0,
                        "name" : "Montserrat",
                        "weight" : "Regular"
                      },
                      "textAttributes" : {
                        "type" : "textAttributeList",
                        "keyframes" : [
                          {
                            "endTime" : 0,
                            "time" : 0,
                            "value" : [{"name":"fontWeight","rangeEnd":4,"rangeStart":0,"value":400,"valueType":"int"},{"name":"fontSize","rangeEnd":4,"rangeStart":0,"value":90,"valueType":"double"},{"name":"fontName","rangeEnd":4,"rangeStart":0,"value":"Calibri","valueType":"string"},{"name":"strikethrough","rangeEnd":4,"rangeStart":0,"value":0,"valueType":"int"},{"name":"fontItalic","rangeEnd":4,"rangeStart":0,"value":0,"valueType":"int"},{"name":"underline","rangeEnd":4,"rangeStart":0,"value":0,"valueType":"int"},{"name":"kerning","rangeEnd":4,"rangeStart":0,"value":0,"valueType":"double"},{"name":"fgColor","rangeEnd":4,"rangeStart":0,"value":"(255,255,255,255)","valueType":"color"}],
                            "duration" : 0
                          }
                        ]
                      }
                    },
                    "attributes" : {
                      "autoRotateText" : true
                    },
                    "parameters" : {
                      "translation0" : 36.218749999728,
                      "translation1" : -615.077034883862
                    },
                    "effects" : [
                        {
                          "effectName" : "DropShadow",
                          "category" : "categoryVisualEffects",
                          "parameters" : {
                            "angle" : 5.49778714378214,
                            "blur" : 10.0,
                            "color-alpha" : 1.0,
                            "color-blue" : 0.1216,
                            "color-green" : 0.1216,
                            "color-red" : 0.1216,
                            "enabled" : 1,
                            "offset" : 10.0,
                            "opacity" : 0.4
                          }
                        }
                    ],
                    "start" : 0,
                    "duration" : 150,
                    "mediaStart" : 0,
                    "mediaDuration" : 150,
                    "scalar" : 1,
                    "metadata" : {
                      "WinSubProjectDisplayName" : "",
                      "clipSpeedAttribute" : false,
                      "default-HAlign" : "center",
                      "default-LineSpace" : 0.0,
                      "default-VAlign" : "center",
                      "default-text-attributes" : "[{\"name\":\"strikethrough\",\"rangeEnd\":76,\"rangeStart\":0,\"value\":0,\"valueType\":\"int\"},{\"name\":\"fontItalic\",\"rangeEnd\":76,\"rangeStart\":0,\"value\":0,\"valueType\":\"int\"},{\"name\":\"fontName\",\"rangeEnd\":76,\"rangeStart\":0,\"value\":\"Montserrat\",\"valueType\":\"string\"},{\"name\":\"fgColor\",\"rangeEnd\":76,\"rangeStart\":0,\"value\":\"(255,255,255,255)\",\"valueType\":\"color\"},{\"name\":\"fontSize\",\"rangeEnd\":76,\"rangeStart\":0,\"value\":59,\"valueType\":\"double\"},{\"name\":\"underline\",\"rangeEnd\":76,\"rangeStart\":0,\"value\":0,\"valueType\":\"int\"},{\"name\":\"fontWeight\",\"rangeEnd\":76,\"rangeStart\":0,\"value\":400,\"valueType\":\"int\"}]",
                      "default-translation0" : 0.0,
                      "default-translation1" : 0.0
                    },
                    "animationTracks" : {

                    }
                  },
                  {
                    "id" : 433,
                    "_type" : "Callout",
                    "def" : {
                      "kind" : "remix",
                      "shape" : "text-rectangle",
                      "style" : "basic",
                      "fill-color-blue" : 0.270588235294118,
                      "fill-color-green" : 0.243137254901961,
                      "fill-color-opacity" : 1.0,
                      "fill-color-red" : 0.211764705882353,
                      "height" : 121.999999999843,
                      "line-spacing" : 0.0,
                      "stroke-color-blue" : 0.890196078431372,
                      "stroke-color-green" : 0.870588235294118,
                      "stroke-color-opacity" : 1.0,
                      "stroke-color-red" : 0.847058823529412,
                      "stroke-width" : 2.0,
                      "tail-x" : -1042.49999999998,
                      "tail-y" : 37.8750000001309,
                      "width" : 2052.41176470921,
                      "word-wrap" : 1.0,
                      "fill-style" : "solid",
                      "horizontal-alignment" : "center",
                      "resize-behavior" : "resizeText",
                      "stroke-style" : "solid",
                      "text" : "Checking the Windows version via calling winver",
                      "vertical-alignment" : "center",
                      "font" : {
                        "color-blue" : 0.266666666666667,
                        "color-green" : 0.231372549019608,
                        "color-opacity" : 1.0,
                        "color-red" : 0.184313725490196,
                        "size" : 64.0,
                        "tracking" : 0.0,
                        "name" : "Montserrat",
                        "weight" : "Regular"
                      },
                      "textAttributes" : {
                        "type" : "textAttributeList",
                        "keyframes" : [
                          {
                            "endTime" : 0,
                            "time" : 0,
                            "value" : [{"name":"fgColor","rangeEnd":47,"rangeStart":0,"value":"(255,255,255,255)","valueType":"color"},{"name":"kerning","rangeEnd":47,"rangeStart":0,"value":0,"valueType":"double"},{"name":"underline","rangeEnd":47,"rangeStart":0,"value":0,"valueType":"int"},{"name":"strikethrough","rangeEnd":47,"rangeStart":0,"value":0,"valueType":"int"},{"name":"fontWeight","rangeEnd":47,"rangeStart":0,"value":400,"valueType":"int"},{"name":"fontItalic","rangeEnd":47,"rangeStart":0,"value":0,"valueType":"int"},{"name":"fontName","rangeEnd":47,"rangeStart":0,"value":"Montserrat","valueType":"string"},{"name":"fontSize","rangeEnd":47,"rangeStart":0,"value":80,"valueType":"double"}],
                            "duration" : 0
                          }
                        ]
                      }
                    },
                    "attributes" : {
                      "autoRotateText" : true
                    },
                    "parameters" : {
                      "translation0" : 107.000000000051,
                      "translation1" : -612.531250000759
                    },
                    "effects" : [
                        {
                          "effectName" : "DropShadow",
                          "category" : "categoryVisualEffects",
                          "parameters" : {
                            "angle" : 5.49778714378214,
                            "blur" : 10.0,
                            "color-alpha" : 1.0,
                            "color-blue" : 0.1216,
                            "color-green" : 0.1216,
                            "color-red" : 0.1216,
                            "enabled" : 1,
                            "offset" : 10.0,
                            "opacity" : 0.4
                          }
                        }
                    ],
                    "start" : 167,
                    "duration" : 71,
                    "mediaStart" : 31,
                    "mediaDuration" : 71,
                    "scalar" : 1,
                    "metadata" : {
                      "WinSubProjectDisplayName" : "",
                      "clipSpeedAttribute" : false,
                      "default-HAlign" : "center",
                      "default-LineSpace" : 0.0,
                      "default-VAlign" : "center",
                      "default-fill-color-blue" : 1.0,
                      "default-fill-color-green" : 1.0,
                      "default-fill-color-red" : 1.0,
                      "default-stroke-color-blue" : 0.56078431372549,
                      "default-stroke-color-green" : 0.686274509803922,
                      "default-stroke-color-red" : 0.0196078431372549,
                      "default-text-attributes" : "[{\"name\":\"fontSize\",\"rangeEnd\":32,\"rangeStart\":0,\"value\":64,\"valueType\":\"double\"},{\"name\":\"fgColor\",\"rangeEnd\":32,\"rangeStart\":0,\"value\":\"(255,255,255,255)\",\"valueType\":\"color\"},{\"name\":\"fontWeight\",\"rangeEnd\":32,\"rangeStart\":0,\"value\":400,\"valueType\":\"int\"},{\"name\":\"fontName\",\"rangeEnd\":32,\"rangeStart\":0,\"value\":\"Montserrat\",\"valueType\":\"string\"},{\"name\":\"fontItalic\",\"rangeEnd\":32,\"rangeStart\":0,\"value\":0,\"valueType\":\"int\"},{\"name\":\"strikethrough\",\"rangeEnd\":32,\"rangeStart\":0,\"value\":0,\"valueType\":\"int\"},{\"name\":\"underline\",\"rangeEnd\":32,\"rangeStart\":0,\"value\":0,\"valueType\":\"int\"}]",
                      "default-translation0" : 0.0,
                      "default-translation1" : 0.0
                    },
                    "animationTracks" : {

                    }
                  },
                  {
                    "id" : 434,
                    "_type" : "Callout",
                    "def" : {
                      "kind" : "remix",
                      "shape" : "text-rectangle",
                      "style" : "basic",
                      "fill-color-blue" : 0.270588235294118,
                      "fill-color-green" : 0.243137254901961,
                      "fill-color-opacity" : 1.0,
                      "fill-color-red" : 0.211764705882353,
                      "height" : 143.999999999797,
                      "line-spacing" : 0.0,
                      "stroke-color-blue" : 0.890196078431372,
                      "stroke-color-green" : 0.870588235294118,
                      "stroke-color-opacity" : 1.0,
                      "stroke-color-red" : 0.847058823529412,
                      "stroke-width" : 2.0,
                      "tail-x" : -531.500000000046,
                      "tail-y" : 26.8750000001539,
                      "width" : 1450.41176470932,
                      "word-wrap" : 1.0,
                      "fill-style" : "solid",
                      "horizontal-alignment" : "center",
                      "resize-behavior" : "resizeText",
                      "stroke-style" : "solid",
                      "text" : "We have the final version 1903",
                      "vertical-alignment" : "center",
                      "font" : {
                        "color-blue" : 0.266666666666667,
                        "color-green" : 0.231372549019608,
                        "color-opacity" : 1.0,
                        "color-red" : 0.184313725490196,
                        "size" : 64.0,
                        "tracking" : 0.0,
                        "name" : "Montserrat",
                        "weight" : "Regular"
                      },
                      "textAttributes" : {
                        "type" : "textAttributeList",
                        "keyframes" : [
                          {
                            "endTime" : 0,
                            "time" : 0,
                            "value" : [{"name":"fontSize","rangeEnd":30,"rangeStart":0,"value":80,"valueType":"double"},{"name":"fontName","rangeEnd":30,"rangeStart":0,"value":"Montserrat","valueType":"string"},{"name":"kerning","rangeEnd":30,"rangeStart":0,"value":0,"valueType":"double"},{"name":"underline","rangeEnd":30,"rangeStart":0,"value":0,"valueType":"int"},{"name":"strikethrough","rangeEnd":30,"rangeStart":0,"value":0,"valueType":"int"},{"name":"fontWeight","rangeEnd":30,"rangeStart":0,"value":400,"valueType":"int"},{"name":"fontItalic","rangeEnd":30,"rangeStart":0,"value":0,"valueType":"int"},{"name":"fgColor","rangeEnd":30,"rangeStart":0,"value":"(255,255,255,255)","valueType":"color"}],
                            "duration" : 0
                          }
                        ]
                      }
                    },
                    "attributes" : {
                      "autoRotateText" : true
                    },
                    "parameters" : {
                      "translation0" : 9.83391146291979e-12,
                      "translation1" : -603.531250001209
                    },
                    "effects" : [
                        {
                          "effectName" : "DropShadow",
                          "category" : "categoryVisualEffects",
                          "parameters" : {
                            "angle" : 5.49778714378214,
                            "blur" : 10.0,
                            "color-alpha" : 1.0,
                            "color-blue" : 0.1216,
                            "color-green" : 0.1216,
                            "color-red" : 0.1216,
                            "enabled" : 1,
                            "offset" : 10.0,
                            "opacity" : 0.4
                          }
                        }
                    ],
                    "start" : 247,
                    "duration" : 85,
                    "mediaStart" : 31,
                    "mediaDuration" : 85,
                    "scalar" : 1,
                    "metadata" : {
                      "WinSubProjectDisplayName" : "",
                      "clipSpeedAttribute" : false,
                      "default-HAlign" : "center",
                      "default-LineSpace" : 0.0,
                      "default-VAlign" : "center",
                      "default-fill-color-blue" : 1.0,
                      "default-fill-color-green" : 1.0,
                      "default-fill-color-red" : 1.0,
                      "default-scale0" : 1.0,
                      "default-scale1" : 1.0,
                      "default-stroke-color-blue" : 0.56078431372549,
                      "default-stroke-color-green" : 0.686274509803922,
                      "default-stroke-color-red" : 0.0196078431372549,
                      "default-text-attributes" : "[{\"name\":\"fontSize\",\"rangeEnd\":32,\"rangeStart\":0,\"value\":64,\"valueType\":\"double\"},{\"name\":\"fgColor\",\"rangeEnd\":32,\"rangeStart\":0,\"value\":\"(255,255,255,255)\",\"valueType\":\"color\"},{\"name\":\"fontWeight\",\"rangeEnd\":32,\"rangeStart\":0,\"value\":400,\"valueType\":\"int\"},{\"name\":\"fontName\",\"rangeEnd\":32,\"rangeStart\":0,\"value\":\"Montserrat\",\"valueType\":\"string\"},{\"name\":\"fontItalic\",\"rangeEnd\":32,\"rangeStart\":0,\"value\":0,\"valueType\":\"int\"},{\"name\":\"strikethrough\",\"rangeEnd\":32,\"rangeStart\":0,\"value\":0,\"valueType\":\"int\"},{\"name\":\"underline\",\"rangeEnd\":32,\"rangeStart\":0,\"value\":0,\"valueType\":\"int\"}]",
                      "default-translation0" : 0.0,
                      "default-translation1" : 0.0
                    },
                    "animationTracks" : {

                    }
                  },
                  {
                    "id" : 435,
                    "_type" : "Callout",
                    "def" : {
                      "kind" : "remix",
                      "shape" : "text-rectangle",
                      "style" : "basic",
                      "fill-color-blue" : 0.270588235294118,
                      "fill-color-green" : 0.243137254901961,
                      "fill-color-opacity" : 1.0,
                      "fill-color-red" : 0.211764705882353,
                      "height" : 155.999999999966,
                      "line-spacing" : 0.0,
                      "stroke-color-blue" : 0.890196078431372,
                      "stroke-color-green" : 0.870588235294118,
                      "stroke-color-opacity" : 1.0,
                      "stroke-color-red" : 0.847058823529412,
                      "stroke-width" : 2.0,
                      "tail-x" : -896.499999999941,
                      "tail-y" : 20.8750000000692,
                      "width" : 2408.41176470957,
                      "word-wrap" : 1.0,
                      "fill-style" : "solid",
                      "horizontal-alignment" : "center",
                      "resize-behavior" : "resizeText",
                      "stroke-style" : "solid",
                      "text" : "The malware app is launched and loads the malware driver",
                      "vertical-alignment" : "center",
                      "font" : {
                        "color-blue" : 0.266666666666667,
                        "color-green" : 0.231372549019608,
                        "color-opacity" : 1.0,
                        "color-red" : 0.184313725490196,
                        "size" : 64.0,
                        "tracking" : 0.0,
                        "name" : "Montserrat",
                        "weight" : "Regular"
                      },
                      "textAttributes" : {
                        "type" : "textAttributeList",
                        "keyframes" : [
                          {
                            "endTime" : 0,
                            "time" : 0,
                            "value" : [{"name":"strikethrough","rangeEnd":56,"rangeStart":0,"value":0,"valueType":"int"},{"name":"fontItalic","rangeEnd":56,"rangeStart":0,"value":0,"valueType":"int"},{"name":"underline","rangeEnd":56,"rangeStart":0,"value":0,"valueType":"int"},{"name":"fontWeight","rangeEnd":56,"rangeStart":0,"value":400,"valueType":"int"},{"name":"fgColor","rangeEnd":56,"rangeStart":0,"value":"(255,255,255,255)","valueType":"color"},{"name":"fontName","rangeEnd":56,"rangeStart":0,"value":"Montserrat","valueType":"string"},{"name":"fontSize","rangeEnd":56,"rangeStart":0,"value":80,"valueType":"double"}],
                            "duration" : 0
                          }
                        ]
                      }
                    },
                    "attributes" : {
                      "autoRotateText" : true
                    },
                    "parameters" : {
                      "translation0" : 15.9999999999659,
                      "translation1" : -561.531250000525
                    },
                    "effects" : [
                        {
                          "effectName" : "DropShadow",
                          "category" : "categoryVisualEffects",
                          "parameters" : {
                            "angle" : 5.49778714378214,
                            "blur" : 10.0,
                            "color-alpha" : 1.0,
                            "color-blue" : 0.1216,
                            "color-green" : 0.1216,
                            "color-red" : 0.1216,
                            "enabled" : 1,
                            "offset" : 10.0,
                            "opacity" : 0.4
                          }
                        }
                    ],
                    "start" : 401,
                    "duration" : 71,
                    "mediaStart" : 31,
                    "mediaDuration" : 71,
                    "scalar" : 1,
                    "metadata" : {
                      "WinSubProjectDisplayName" : "",
                      "clipSpeedAttribute" : false,
                      "default-HAlign" : "center",
                      "default-LineSpace" : 0.0,
                      "default-VAlign" : "center",
                      "default-fill-color-blue" : 1.0,
                      "default-fill-color-green" : 1.0,
                      "default-fill-color-red" : 1.0,
                      "default-stroke-color-blue" : 0.56078431372549,
                      "default-stroke-color-green" : 0.686274509803922,
                      "default-stroke-color-red" : 0.0196078431372549,
                      "default-text-attributes" : "[{\"name\":\"fontSize\",\"rangeEnd\":32,\"rangeStart\":0,\"value\":64,\"valueType\":\"double\"},{\"name\":\"fgColor\",\"rangeEnd\":32,\"rangeStart\":0,\"value\":\"(255,255,255,255)\",\"valueType\":\"color\"},{\"name\":\"fontWeight\",\"rangeEnd\":32,\"rangeStart\":0,\"value\":400,\"valueType\":\"int\"},{\"name\":\"fontName\",\"rangeEnd\":32,\"rangeStart\":0,\"value\":\"Montserrat\",\"valueType\":\"string\"},{\"name\":\"fontItalic\",\"rangeEnd\":32,\"rangeStart\":0,\"value\":0,\"valueType\":\"int\"},{\"name\":\"strikethrough\",\"rangeEnd\":32,\"rangeStart\":0,\"value\":0,\"valueType\":\"int\"},{\"name\":\"underline\",\"rangeEnd\":32,\"rangeStart\":0,\"value\":0,\"valueType\":\"int\"}]",
                      "default-translation0" : 0.0,
                      "default-translation1" : 0.0
                    },
                    "animationTracks" : {

                    }
                  },
                  {
                    "id" : 436,
                    "_type" : "Callout",
                    "def" : {
                      "kind" : "remix",
                      "shape" : "text-rectangle",
                      "style" : "basic",
                      "fill-color-blue" : 0.270588235294118,
                      "fill-color-green" : 0.243137254901961,
                      "fill-color-opacity" : 1.0,
                      "fill-color-red" : 0.211764705882353,
                      "height" : 134.249999999559,
                      "line-spacing" : 0.0,
                      "stroke-color-blue" : 0.890196078431372,
                      "stroke-color-green" : 0.870588235294118,
                      "stroke-color-opacity" : 1.0,
                      "stroke-color-red" : 0.847058823529412,
                      "stroke-width" : 2.0,
                      "tail-x" : 97.4999999999569,
                      "tail-y" : -12.1249999997798,
                      "width" : 2475.37500000039,
                      "word-wrap" : 1.0,
                      "fill-style" : "solid",
                      "horizontal-alignment" : "center",
                      "resize-behavior" : "resizeText",
                      "stroke-style" : "solid",
                      "text" : "The Attacker's driver has been loaded before MemoryRanger",
                      "vertical-alignment" : "center",
                      "font" : {
                        "color-blue" : 0.266666666666667,
                        "color-green" : 0.231372549019608,
                        "color-opacity" : 1.0,
                        "color-red" : 0.184313725490196,
                        "size" : 64.0,
                        "tracking" : 0.0,
                        "name" : "Montserrat",
                        "weight" : "Regular"
                      },
                      "textAttributes" : {
                        "type" : "textAttributeList",
                        "keyframes" : [
                          {
                            "endTime" : 0,
                            "time" : 0,
                            "value" : [{"name":"underline","rangeEnd":57,"rangeStart":0,"value":0,"valueType":"int"},{"name":"fontWeight","rangeEnd":57,"rangeStart":0,"value":400,"valueType":"int"},{"name":"fontItalic","rangeEnd":57,"rangeStart":0,"value":0,"valueType":"int"},{"name":"fontSize","rangeEnd":57,"rangeStart":0,"value":80,"valueType":"double"},{"name":"fontName","rangeEnd":57,"rangeStart":0,"value":"Montserrat","valueType":"string"},{"name":"strikethrough","rangeEnd":57,"rangeStart":0,"value":0,"valueType":"int"},{"name":"kerning","rangeEnd":57,"rangeStart":0,"value":0,"valueType":"double"},{"name":"fgColor","rangeEnd":57,"rangeStart":0,"value":"(255,255,255,255)","valueType":"color"}],
                            "duration" : 0
                          }
                        ]
                      }
                    },
                    "attributes" : {
                      "autoRotateText" : true
                    },
                    "parameters" : {
                      "translation0" : -12.9999999999403,
                      "translation1" : -562.53125000087
                    },
                    "effects" : [
                        {
                          "effectName" : "DropShadow",
                          "category" : "categoryVisualEffects",
                          "parameters" : {
                            "angle" : 5.49778714378214,
                            "blur" : 10.0,
                            "color-alpha" : 1.0,
                            "color-blue" : 0.1216,
                            "color-green" : 0.1216,
                            "color-red" : 0.1216,
                            "enabled" : 1,
                            "offset" : 10.0,
                            "opacity" : 0.4
                          }
                        }
                    ],
                    "start" : 486,
                    "duration" : 90,
                    "mediaStart" : 45,
                    "mediaDuration" : 90,
                    "scalar" : 1,
                    "metadata" : {
                      "WinSubProjectDisplayName" : "",
                      "clipSpeedAttribute" : false,
                      "default-HAlign" : "center",
                      "default-LineSpace" : 0.0,
                      "default-VAlign" : "center",
                      "default-fill-color-blue" : 1.0,
                      "default-fill-color-green" : 1.0,
                      "default-fill-color-red" : 1.0,
                      "default-stroke-color-blue" : 0.56078431372549,
                      "default-stroke-color-green" : 0.686274509803922,
                      "default-stroke-color-red" : 0.0196078431372549,
                      "default-text-attributes" : "[{\"name\":\"fontSize\",\"rangeEnd\":32,\"rangeStart\":0,\"value\":64,\"valueType\":\"double\"},{\"name\":\"fgColor\",\"rangeEnd\":32,\"rangeStart\":0,\"value\":\"(255,255,255,255)\",\"valueType\":\"color\"},{\"name\":\"fontWeight\",\"rangeEnd\":32,\"rangeStart\":0,\"value\":400,\"valueType\":\"int\"},{\"name\":\"fontName\",\"rangeEnd\":32,\"rangeStart\":0,\"value\":\"Montserrat\",\"valueType\":\"string\"},{\"name\":\"fontItalic\",\"rangeEnd\":32,\"rangeStart\":0,\"value\":0,\"valueType\":\"int\"},{\"name\":\"strikethrough\",\"rangeEnd\":32,\"rangeStart\":0,\"value\":0,\"valueType\":\"int\"},{\"name\":\"underline\",\"rangeEnd\":32,\"rangeStart\":0,\"value\":0,\"valueType\":\"int\"}]",
                      "default-translation0" : 0.0,
                      "default-translation1" : 0.0
                    },
                    "animationTracks" : {

                    }
                  },
                  {
                    "id" : 437,
                    "_type" : "Callout",
                    "def" : {
                      "kind" : "remix",
                      "shape" : "text-rectangle",
                      "style" : "basic",
                      "fill-color-blue" : 0.270588235294118,
                      "fill-color-green" : 0.243137254901961,
                      "fill-color-opacity" : 1.0,
                      "fill-color-red" : 0.211764705882353,
                      "height" : 117.999999999981,
                      "line-spacing" : 0.0,
                      "stroke-color-blue" : 0.890196078431372,
                      "stroke-color-green" : 0.870588235294118,
                      "stroke-color-opacity" : 1.0,
                      "stroke-color-red" : 0.847058823529412,
                      "stroke-width" : 2.0,
                      "tail-x" : -895.499999999895,
                      "tail-y" : 28.8750000000619,
                      "width" : 1982.11764706194,
                      "word-wrap" : 1.0,
                      "fill-style" : "solid",
                      "horizontal-alignment" : "center",
                      "resize-behavior" : "resizeText",
                      "stroke-style" : "solid",
                      "text" : "MemoryRanger is loaded to protect kernel memory",
                      "vertical-alignment" : "center",
                      "font" : {
                        "color-blue" : 0.266666666666667,
                        "color-green" : 0.231372549019608,
                        "color-opacity" : 1.0,
                        "color-red" : 0.184313725490196,
                        "size" : 64.0,
                        "tracking" : 0.0,
                        "name" : "Montserrat",
                        "weight" : "Regular"
                      },
                      "textAttributes" : {
                        "type" : "textAttributeList",
                        "keyframes" : [
                          {
                            "endTime" : 0,
                            "time" : 0,
                            "value" : [{"name":"fontItalic","rangeEnd":47,"rangeStart":0,"value":0,"valueType":"int"},{"name":"fgColor","rangeEnd":47,"rangeStart":0,"value":"(255,255,255,255)","valueType":"color"},{"name":"fontName","rangeEnd":47,"rangeStart":0,"value":"Montserrat","valueType":"string"},{"name":"fontWeight","rangeEnd":47,"rangeStart":0,"value":400,"valueType":"int"},{"name":"strikethrough","rangeEnd":47,"rangeStart":0,"value":0,"valueType":"int"},{"name":"underline","rangeEnd":47,"rangeStart":0,"value":0,"valueType":"int"},{"name":"fontSize","rangeEnd":47,"rangeStart":0,"value":80,"valueType":"double"}],
                            "duration" : 0
                          }
                        ]
                      }
                    },
                    "attributes" : {
                      "autoRotateText" : true
                    },
                    "parameters" : {
                      "translation0" : -7.62838681112044e-11,
                      "translation1" : -575.531250000497
                    },
                    "effects" : [
                        {
                          "effectName" : "DropShadow",
                          "category" : "categoryVisualEffects",
                          "parameters" : {
                            "angle" : 5.49778714378214,
                            "blur" : 10.0,
                            "color-alpha" : 1.0,
                            "color-blue" : 0.1216,
                            "color-green" : 0.1216,
                            "color-red" : 0.1216,
                            "enabled" : 1,
                            "offset" : 10.0,
                            "opacity" : 0.4
                          }
                        }
                    ],
                    "start" : 580,
                    "duration" : 101,
                    "mediaStart" : 19,
                    "mediaDuration" : 101,
                    "scalar" : 1,
                    "metadata" : {
                      "WinSubProjectDisplayName" : "",
                      "clipSpeedAttribute" : false,
                      "default-HAlign" : "center",
                      "default-LineSpace" : 0.0,
                      "default-VAlign" : "center",
                      "default-fill-color-blue" : 1.0,
                      "default-fill-color-green" : 1.0,
                      "default-fill-color-red" : 1.0,
                      "default-stroke-color-blue" : 0.56078431372549,
                      "default-stroke-color-green" : 0.686274509803922,
                      "default-stroke-color-red" : 0.0196078431372549,
                      "default-text-attributes" : "[{\"name\":\"fontSize\",\"rangeEnd\":32,\"rangeStart\":0,\"value\":64,\"valueType\":\"double\"},{\"name\":\"fgColor\",\"rangeEnd\":32,\"rangeStart\":0,\"value\":\"(255,255,255,255)\",\"valueType\":\"color\"},{\"name\":\"fontWeight\",\"rangeEnd\":32,\"rangeStart\":0,\"value\":400,\"valueType\":\"int\"},{\"name\":\"fontName\",\"rangeEnd\":32,\"rangeStart\":0,\"value\":\"Montserrat\",\"valueType\":\"string\"},{\"name\":\"fontItalic\",\"rangeEnd\":32,\"rangeStart\":0,\"value\":0,\"valueType\":\"int\"},{\"name\":\"strikethrough\",\"rangeEnd\":32,\"rangeStart\":0,\"value\":0,\"valueType\":\"int\"},{\"name\":\"underline\",\"rangeEnd\":32,\"rangeStart\":0,\"value\":0,\"valueType\":\"int\"}]",
                      "default-translation0" : 0.0,
                      "default-translation1" : 0.0
                    },
                    "animationTracks" : {

                    }
                  },
                  {
                    "id" : 438,
                    "_type" : "Callout",
                    "def" : {
                      "kind" : "remix",
                      "shape" : "text-rectangle",
                      "style" : "basic",
                      "fill-color-blue" : 0.270588235294118,
                      "fill-color-green" : 0.243137254901961,
                      "fill-color-opacity" : 1.0,
                      "fill-color-red" : 0.211764705882353,
                      "height" : 106.249999999895,
                      "line-spacing" : 0.0,
                      "stroke-color-blue" : 0.890196078431372,
                      "stroke-color-green" : 0.870588235294118,
                      "stroke-color-opacity" : 1.0,
                      "stroke-color-red" : 0.847058823529412,
                      "stroke-width" : 2.0,
                      "tail-x" : 181.500000000044,
                      "tail-y" : 1.8750000000523,
                      "width" : 471.375000000079,
                      "word-wrap" : 1.0,
                      "fill-style" : "solid",
                      "horizontal-alignment" : "center",
                      "resize-behavior" : "resizeText",
                      "stroke-style" : "solid",
                      "text" : "Done",
                      "vertical-alignment" : "center",
                      "font" : {
                        "color-blue" : 0.266666666666667,
                        "color-green" : 0.231372549019608,
                        "color-opacity" : 1.0,
                        "color-red" : 0.184313725490196,
                        "size" : 64.0,
                        "tracking" : 0.0,
                        "name" : "Montserrat",
                        "weight" : "Regular"
                      },
                      "textAttributes" : {
                        "type" : "textAttributeList",
                        "keyframes" : [
                          {
                            "endTime" : 0,
                            "time" : 0,
                            "value" : [{"name":"fgColor","rangeEnd":4,"rangeStart":0,"value":"(255,255,255,255)","valueType":"color"},{"name":"fontSize","rangeEnd":4,"rangeStart":0,"value":80,"valueType":"double"},{"name":"fontWeight","rangeEnd":4,"rangeStart":0,"value":400,"valueType":"int"},{"name":"strikethrough","rangeEnd":4,"rangeStart":0,"value":0,"valueType":"int"},{"name":"fontItalic","rangeEnd":4,"rangeStart":0,"value":0,"valueType":"int"},{"name":"underline","rangeEnd":4,"rangeStart":0,"value":0,"valueType":"int"},{"name":"kerning","rangeEnd":4,"rangeStart":0,"value":0,"valueType":"double"},{"name":"fontName","rangeEnd":4,"rangeStart":0,"value":"Montserrat","valueType":"string"}],
                            "duration" : 0
                          }
                        ]
                      }
                    },
                    "attributes" : {
                      "autoRotateText" : true
                    },
                    "parameters" : {
                      "translation0" : 6.94626578479074e-11,
                      "translation1" : -574.531250000636
                    },
                    "effects" : [
                        {
                          "effectName" : "DropShadow",
                          "category" : "categoryVisualEffects",
                          "parameters" : {
                            "angle" : 5.49778714378214,
                            "blur" : 10.0,
                            "color-alpha" : 1.0,
                            "color-blue" : 0.1216,
                            "color-green" : 0.1216,
                            "color-red" : 0.1216,
                            "enabled" : 1,
                            "offset" : 10.0,
                            "opacity" : 0.4
                          }
                        }
                    ],
                    "start" : 681,
                    "duration" : 27,
                    "mediaStart" : 31,
                    "mediaDuration" : 27,
                    "scalar" : 1,
                    "metadata" : {
                      "WinSubProjectDisplayName" : "",
                      "clipSpeedAttribute" : false,
                      "default-HAlign" : "center",
                      "default-LineSpace" : 0.0,
                      "default-VAlign" : "center",
                      "default-fill-color-blue" : 1.0,
                      "default-fill-color-green" : 1.0,
                      "default-fill-color-red" : 1.0,
                      "default-stroke-color-blue" : 0.56078431372549,
                      "default-stroke-color-green" : 0.686274509803922,
                      "default-stroke-color-red" : 0.0196078431372549,
                      "default-text-attributes" : "[{\"name\":\"fontSize\",\"rangeEnd\":32,\"rangeStart\":0,\"value\":64,\"valueType\":\"double\"},{\"name\":\"fgColor\",\"rangeEnd\":32,\"rangeStart\":0,\"value\":\"(255,255,255,255)\",\"valueType\":\"color\"},{\"name\":\"fontWeight\",\"rangeEnd\":32,\"rangeStart\":0,\"value\":400,\"valueType\":\"int\"},{\"name\":\"fontName\",\"rangeEnd\":32,\"rangeStart\":0,\"value\":\"Montserrat\",\"valueType\":\"string\"},{\"name\":\"fontItalic\",\"rangeEnd\":32,\"rangeStart\":0,\"value\":0,\"valueType\":\"int\"},{\"name\":\"strikethrough\",\"rangeEnd\":32,\"rangeStart\":0,\"value\":0,\"valueType\":\"int\"},{\"name\":\"underline\",\"rangeEnd\":32,\"rangeStart\":0,\"value\":0,\"valueType\":\"int\"}]",
                      "default-translation0" : 0.0,
                      "default-translation1" : 0.0
                    },
                    "animationTracks" : {

                    }
                  },
                  {
                    "id" : 439,
                    "_type" : "Callout",
                    "def" : {
                      "kind" : "remix",
                      "shape" : "text-rectangle",
                      "style" : "basic",
                      "fill-color-blue" : 0.270588235294118,
                      "fill-color-green" : 0.243137254901961,
                      "fill-color-opacity" : 1.0,
                      "fill-color-red" : 0.211764705882353,
                      "height" : 97.0,
                      "line-spacing" : 0.0,
                      "stroke-color-blue" : 0.890196078431372,
                      "stroke-color-green" : 0.870588235294118,
                      "stroke-color-opacity" : 1.0,
                      "stroke-color-red" : 0.847058823529412,
                      "stroke-width" : 2.0,
                      "tail-x" : -540.364583333164,
                      "tail-y" : 9.99999999997954,
                      "width" : 1868.93402777686,
                      "word-wrap" : 1.0,
                      "fill-style" : "solid",
                      "horizontal-alignment" : "center",
                      "resize-behavior" : "resizeText",
                      "stroke-style" : "solid",
                      "text" : "The attacker is starting the CMD ",
                      "vertical-alignment" : "center",
                      "font" : {
                        "color-blue" : 0.266666666666667,
                        "color-green" : 0.231372549019608,
                        "color-opacity" : 1.0,
                        "color-red" : 0.184313725490196,
                        "size" : 64.0,
                        "tracking" : 0.0,
                        "name" : "Montserrat",
                        "weight" : "Regular"
                      },
                      "textAttributes" : {
                        "type" : "textAttributeList",
                        "keyframes" : [
                          {
                            "endTime" : 0,
                            "time" : 0,
                            "value" : [{"name":"fontWeight","rangeEnd":33,"rangeStart":0,"value":400,"valueType":"int"},{"name":"fontItalic","rangeEnd":33,"rangeStart":0,"value":0,"valueType":"int"},{"name":"fontSize","rangeEnd":33,"rangeStart":0,"value":80,"valueType":"double"},{"name":"strikethrough","rangeEnd":33,"rangeStart":0,"value":0,"valueType":"int"},{"name":"fgColor","rangeEnd":33,"rangeStart":0,"value":"(255,255,255,255)","valueType":"color"},{"name":"underline","rangeEnd":33,"rangeStart":0,"value":0,"valueType":"int"},{"name":"fontName","rangeEnd":33,"rangeStart":0,"value":"Montserrat","valueType":"string"}],
                            "duration" : 0
                          }
                        ]
                      }
                    },
                    "attributes" : {
                      "autoRotateText" : true
                    },
                    "parameters" : {
                      "translation0" : 1.5440093648067e-11,
                      "translation1" : -582.656250000342
                    },
                    "effects" : [
                        {
                          "effectName" : "DropShadow",
                          "category" : "categoryVisualEffects",
                          "parameters" : {
                            "angle" : 5.49778714378214,
                            "blur" : 10.0,
                            "color-alpha" : 1.0,
                            "color-blue" : 0.1216,
                            "color-green" : 0.1216,
                            "color-red" : 0.1216,
                            "enabled" : 1,
                            "offset" : 10.0,
                            "opacity" : 0.4
                          }
                        }
                    ],
                    "start" : 716,
                    "duration" : 75,
                    "mediaStart" : -24,
                    "mediaDuration" : 75,
                    "scalar" : 1,
                    "metadata" : {
                      "WinSubProjectDisplayName" : "",
                      "clipSpeedAttribute" : false,
                      "default-HAlign" : "center",
                      "default-LineSpace" : 0.0,
                      "default-VAlign" : "center",
                      "default-fill-color-blue" : 1.0,
                      "default-fill-color-green" : 1.0,
                      "default-fill-color-red" : 1.0,
                      "default-stroke-color-blue" : 0.56078431372549,
                      "default-stroke-color-green" : 0.686274509803922,
                      "default-stroke-color-red" : 0.0196078431372549,
                      "default-text-attributes" : "[{\"name\":\"fontSize\",\"rangeEnd\":32,\"rangeStart\":0,\"value\":64,\"valueType\":\"double\"},{\"name\":\"fgColor\",\"rangeEnd\":32,\"rangeStart\":0,\"value\":\"(255,255,255,255)\",\"valueType\":\"color\"},{\"name\":\"fontWeight\",\"rangeEnd\":32,\"rangeStart\":0,\"value\":400,\"valueType\":\"int\"},{\"name\":\"fontName\",\"rangeEnd\":32,\"rangeStart\":0,\"value\":\"Montserrat\",\"valueType\":\"string\"},{\"name\":\"fontItalic\",\"rangeEnd\":32,\"rangeStart\":0,\"value\":0,\"valueType\":\"int\"},{\"name\":\"strikethrough\",\"rangeEnd\":32,\"rangeStart\":0,\"value\":0,\"valueType\":\"int\"},{\"name\":\"underline\",\"rangeEnd\":32,\"rangeStart\":0,\"value\":0,\"valueType\":\"int\"}]",
                      "default-translation0" : 0.0,
                      "default-translation1" : 0.0
                    },
                    "animationTracks" : {

                    }
                  },
                  {
                    "id" : 440,
                    "_type" : "Callout",
                    "def" : {
                      "kind" : "remix",
                      "shape" : "text-rectangle",
                      "style" : "basic",
                      "fill-color-blue" : 0.270588235294118,
                      "fill-color-green" : 0.243137254901961,
                      "fill-color-opacity" : 1.0,
                      "fill-color-red" : 0.211764705882353,
                      "height" : 112.000000000028,
                      "line-spacing" : 0.0,
                      "stroke-color-blue" : 0.890196078431372,
                      "stroke-color-green" : 0.870588235294118,
                      "stroke-color-opacity" : 1.0,
                      "stroke-color-red" : 0.847058823529412,
                      "stroke-width" : 2.0,
                      "tail-x" : -987.500000000006,
                      "tail-y" : 38.8750000000381,
                      "width" : 2029.94117647373,
                      "word-wrap" : 1.0,
                      "fill-style" : "solid",
                      "horizontal-alignment" : "center",
                      "resize-behavior" : "resizeText",
                      "stroke-style" : "solid",
                      "text" : "The attacker is checking the current privileges",
                      "vertical-alignment" : "center",
                      "font" : {
                        "color-blue" : 0.266666666666667,
                        "color-green" : 0.231372549019608,
                        "color-opacity" : 1.0,
                        "color-red" : 0.184313725490196,
                        "size" : 64.0,
                        "tracking" : 0.0,
                        "name" : "Montserrat",
                        "weight" : "Regular"
                      },
                      "textAttributes" : {
                        "type" : "textAttributeList",
                        "keyframes" : [
                          {
                            "endTime" : 0,
                            "time" : 0,
                            "value" : [{"name":"fontName","rangeEnd":47,"rangeStart":0,"value":"Montserrat","valueType":"string"},{"name":"fontSize","rangeEnd":47,"rangeStart":0,"value":80,"valueType":"double"},{"name":"underline","rangeEnd":47,"rangeStart":0,"value":0,"valueType":"int"},{"name":"fgColor","rangeEnd":47,"rangeStart":0,"value":"(255,255,255,255)","valueType":"color"},{"name":"strikethrough","rangeEnd":47,"rangeStart":0,"value":0,"valueType":"int"},{"name":"fontItalic","rangeEnd":47,"rangeStart":0,"value":0,"valueType":"int"},{"name":"fontWeight","rangeEnd":47,"rangeStart":0,"value":400,"valueType":"int"}],
                            "duration" : 0
                          }
                        ]
                      }
                    },
                    "attributes" : {
                      "autoRotateText" : true
                    },
                    "parameters" : {
                      "translation0" : -5.979927664157e-11,
                      "translation1" : -595.531250000399
                    },
                    "effects" : [
                        {
                          "effectName" : "DropShadow",
                          "category" : "categoryVisualEffects",
                          "parameters" : {
                            "angle" : 5.49778714378214,
                            "blur" : 10.0,
                            "color-alpha" : 1.0,
                            "color-blue" : 0.1216,
                            "color-green" : 0.1216,
                            "color-red" : 0.1216,
                            "enabled" : 1,
                            "offset" : 10.0,
                            "opacity" : 0.4
                          }
                        }
                    ],
                    "start" : 823,
                    "duration" : 86,
                    "mediaStart" : -31,
                    "mediaDuration" : 86,
                    "scalar" : 1,
                    "metadata" : {
                      "WinSubProjectDisplayName" : "",
                      "clipSpeedAttribute" : false,
                      "default-HAlign" : "center",
                      "default-LineSpace" : 0.0,
                      "default-VAlign" : "center",
                      "default-fill-color-blue" : 1.0,
                      "default-fill-color-green" : 1.0,
                      "default-fill-color-red" : 1.0,
                      "default-scale0" : 1.0,
                      "default-scale1" : 1.0,
                      "default-stroke-color-blue" : 0.56078431372549,
                      "default-stroke-color-green" : 0.686274509803922,
                      "default-stroke-color-red" : 0.0196078431372549,
                      "default-text-attributes" : "[{\"name\":\"fontSize\",\"rangeEnd\":32,\"rangeStart\":0,\"value\":64,\"valueType\":\"double\"},{\"name\":\"fgColor\",\"rangeEnd\":32,\"rangeStart\":0,\"value\":\"(255,255,255,255)\",\"valueType\":\"color\"},{\"name\":\"fontWeight\",\"rangeEnd\":32,\"rangeStart\":0,\"value\":400,\"valueType\":\"int\"},{\"name\":\"fontName\",\"rangeEnd\":32,\"rangeStart\":0,\"value\":\"Montserrat\",\"valueType\":\"string\"},{\"name\":\"fontItalic\",\"rangeEnd\":32,\"rangeStart\":0,\"value\":0,\"valueType\":\"int\"},{\"name\":\"strikethrough\",\"rangeEnd\":32,\"rangeStart\":0,\"value\":0,\"valueType\":\"int\"},{\"name\":\"underline\",\"rangeEnd\":32,\"rangeStart\":0,\"value\":0,\"valueType\":\"int\"}]",
                      "default-translation0" : 0.0,
                      "default-translation1" : 0.0
                    },
                    "animationTracks" : {

                    }
                  },
                  {
                    "id" : 441,
                    "_type" : "Callout",
                    "def" : {
                      "kind" : "remix",
                      "shape" : "text-rectangle",
                      "style" : "basic",
                      "fill-color-blue" : 0.270588235294118,
                      "fill-color-green" : 0.243137254901961,
                      "fill-color-opacity" : 1.0,
                      "fill-color-red" : 0.211764705882353,
                      "height" : 106.249999999895,
                      "line-spacing" : 0.0,
                      "stroke-color-blue" : 0.890196078431372,
                      "stroke-color-green" : 0.870588235294118,
                      "stroke-color-opacity" : 1.0,
                      "stroke-color-red" : 0.847058823529412,
                      "stroke-width" : 2.0,
                      "tail-x" : -462.499999999966,
                      "tail-y" : 1.8750000000523,
                      "width" : 1759.3750000001,
                      "word-wrap" : 1.0,
                      "fill-style" : "solid",
                      "horizontal-alignment" : "center",
                      "resize-behavior" : "resizeText",
                      "stroke-style" : "solid",
                      "text" : "CMD has a USER's privileges",
                      "vertical-alignment" : "center",
                      "font" : {
                        "color-blue" : 0.266666666666667,
                        "color-green" : 0.231372549019608,
                        "color-opacity" : 1.0,
                        "color-red" : 0.184313725490196,
                        "size" : 64.0,
                        "tracking" : 0.0,
                        "name" : "Montserrat",
                        "weight" : "Regular"
                      },
                      "textAttributes" : {
                        "type" : "textAttributeList",
                        "keyframes" : [
                          {
                            "endTime" : 0,
                            "time" : 0,
                            "value" : [{"name":"strikethrough","rangeEnd":27,"rangeStart":0,"value":0,"valueType":"int"},{"name":"fontName","rangeEnd":27,"rangeStart":0,"value":"Montserrat","valueType":"string"},{"name":"fgColor","rangeEnd":27,"rangeStart":0,"value":"(255,255,255,255)","valueType":"color"},{"name":"fontWeight","rangeEnd":27,"rangeStart":0,"value":400,"valueType":"int"},{"name":"fontSize","rangeEnd":27,"rangeStart":0,"value":80,"valueType":"double"},{"name":"underline","rangeEnd":27,"rangeStart":0,"value":0,"valueType":"int"},{"name":"fontItalic","rangeEnd":27,"rangeStart":0,"value":0,"valueType":"int"}],
                            "duration" : 0
                          }
                        ]
                      }
                    },
                    "attributes" : {
                      "autoRotateText" : true
                    },
                    "parameters" : {
                      "translation0" : 8.12789835435979e-11,
                      "translation1" : -590.531250000313
                    },
                    "effects" : [
                        {
                          "effectName" : "DropShadow",
                          "category" : "categoryVisualEffects",
                          "parameters" : {
                            "angle" : 5.49778714378214,
                            "blur" : 10.0,
                            "color-alpha" : 1.0,
                            "color-blue" : 0.1216,
                            "color-green" : 0.1216,
                            "color-red" : 0.1216,
                            "enabled" : 1,
                            "offset" : 10.0,
                            "opacity" : 0.4
                          }
                        }
                    ],
                    "start" : 909,
                    "duration" : 62,
                    "mediaStart" : 0,
                    "mediaDuration" : 62,
                    "scalar" : 1,
                    "metadata" : {
                      "WinSubProjectDisplayName" : "",
                      "clipSpeedAttribute" : false,
                      "default-HAlign" : "center",
                      "default-LineSpace" : 0.0,
                      "default-VAlign" : "center",
                      "default-fill-color-blue" : 1.0,
                      "default-fill-color-green" : 1.0,
                      "default-fill-color-red" : 1.0,
                      "default-stroke-color-blue" : 0.56078431372549,
                      "default-stroke-color-green" : 0.686274509803922,
                      "default-stroke-color-red" : 0.0196078431372549,
                      "default-text-attributes" : "[{\"name\":\"fontSize\",\"rangeEnd\":32,\"rangeStart\":0,\"value\":64,\"valueType\":\"double\"},{\"name\":\"fgColor\",\"rangeEnd\":32,\"rangeStart\":0,\"value\":\"(255,255,255,255)\",\"valueType\":\"color\"},{\"name\":\"fontWeight\",\"rangeEnd\":32,\"rangeStart\":0,\"value\":400,\"valueType\":\"int\"},{\"name\":\"fontName\",\"rangeEnd\":32,\"rangeStart\":0,\"value\":\"Montserrat\",\"valueType\":\"string\"},{\"name\":\"fontItalic\",\"rangeEnd\":32,\"rangeStart\":0,\"value\":0,\"valueType\":\"int\"},{\"name\":\"strikethrough\",\"rangeEnd\":32,\"rangeStart\":0,\"value\":0,\"valueType\":\"int\"},{\"name\":\"underline\",\"rangeEnd\":32,\"rangeStart\":0,\"value\":0,\"valueType\":\"int\"}]",
                      "default-translation0" : 0.0,
                      "default-translation1" : 0.0
                    },
                    "animationTracks" : {

                    }
                  },
                  {
                    "id" : 442,
                    "_type" : "Callout",
                    "def" : {
                      "kind" : "remix",
                      "shape" : "text-rectangle",
                      "style" : "basic",
                      "fill-color-blue" : 0.270588235294118,
                      "fill-color-green" : 0.243137254901961,
                      "fill-color-opacity" : 1.0,
                      "fill-color-red" : 0.211764705882353,
                      "height" : 106.249999999895,
                      "line-spacing" : 0.0,
                      "stroke-color-blue" : 0.890196078431372,
                      "stroke-color-green" : 0.870588235294118,
                      "stroke-color-opacity" : 1.0,
                      "stroke-color-red" : 0.847058823529412,
                      "stroke-width" : 2.0,
                      "tail-x" : -447.499999999978,
                      "tail-y" : 1.8750000000523,
                      "width" : 2337.37500000018,
                      "word-wrap" : 1.0,
                      "fill-style" : "solid",
                      "horizontal-alignment" : "center",
                      "resize-behavior" : "resizeText",
                      "stroke-style" : "solid",
                      "text" : "The attacker wants to disable Windows Defender",
                      "vertical-alignment" : "center",
                      "font" : {
                        "color-blue" : 0.266666666666667,
                        "color-green" : 0.231372549019608,
                        "color-opacity" : 1.0,
                        "color-red" : 0.184313725490196,
                        "size" : 64.0,
                        "tracking" : 0.0,
                        "name" : "Montserrat",
                        "weight" : "Regular"
                      },
                      "textAttributes" : {
                        "type" : "textAttributeList",
                        "keyframes" : [
                          {
                            "endTime" : 0,
                            "time" : 0,
                            "value" : [{"name":"kerning","rangeEnd":46,"rangeStart":0,"value":0,"valueType":"double"},{"name":"underline","rangeEnd":46,"rangeStart":0,"value":0,"valueType":"int"},{"name":"fontWeight","rangeEnd":46,"rangeStart":0,"value":400,"valueType":"int"},{"name":"strikethrough","rangeEnd":46,"rangeStart":0,"value":0,"valueType":"int"},{"name":"fgColor","rangeEnd":46,"rangeStart":0,"value":"(255,255,255,255)","valueType":"color"},{"name":"fontName","rangeEnd":46,"rangeStart":0,"value":"Montserrat","valueType":"string"},{"name":"fontSize","rangeEnd":46,"rangeStart":0,"value":80,"valueType":"double"},{"name":"fontItalic","rangeEnd":46,"rangeStart":0,"value":0,"valueType":"int"}],
                            "duration" : 0
                          }
                        ]
                      }
                    },
                    "attributes" : {
                      "autoRotateText" : true
                    },
                    "parameters" : {
                      "translation0" : -14.999999999907,
                      "translation1" : -616.531250000412
                    },
                    "effects" : [
                        {
                          "effectName" : "DropShadow",
                          "category" : "categoryVisualEffects",
                          "parameters" : {
                            "angle" : 5.49778714378214,
                            "blur" : 10.0,
                            "color-alpha" : 1.0,
                            "color-blue" : 0.1216,
                            "color-green" : 0.1216,
                            "color-red" : 0.1216,
                            "enabled" : 1,
                            "offset" : 10.0,
                            "opacity" : 0.4
                          }
                        }
                    ],
                    "start" : 1006,
                    "duration" : 62,
                    "mediaStart" : 0,
                    "mediaDuration" : 62,
                    "scalar" : 1,
                    "metadata" : {
                      "WinSubProjectDisplayName" : "",
                      "clipSpeedAttribute" : false,
                      "default-HAlign" : "center",
                      "default-LineSpace" : 0.0,
                      "default-VAlign" : "center",
                      "default-fill-color-blue" : 1.0,
                      "default-fill-color-green" : 1.0,
                      "default-fill-color-red" : 1.0,
                      "default-stroke-color-blue" : 0.56078431372549,
                      "default-stroke-color-green" : 0.686274509803922,
                      "default-stroke-color-red" : 0.0196078431372549,
                      "default-text-attributes" : "[{\"name\":\"fontSize\",\"rangeEnd\":32,\"rangeStart\":0,\"value\":64,\"valueType\":\"double\"},{\"name\":\"fgColor\",\"rangeEnd\":32,\"rangeStart\":0,\"value\":\"(255,255,255,255)\",\"valueType\":\"color\"},{\"name\":\"fontWeight\",\"rangeEnd\":32,\"rangeStart\":0,\"value\":400,\"valueType\":\"int\"},{\"name\":\"fontName\",\"rangeEnd\":32,\"rangeStart\":0,\"value\":\"Montserrat\",\"valueType\":\"string\"},{\"name\":\"fontItalic\",\"rangeEnd\":32,\"rangeStart\":0,\"value\":0,\"valueType\":\"int\"},{\"name\":\"strikethrough\",\"rangeEnd\":32,\"rangeStart\":0,\"value\":0,\"valueType\":\"int\"},{\"name\":\"underline\",\"rangeEnd\":32,\"rangeStart\":0,\"value\":0,\"valueType\":\"int\"}]",
                      "default-translation0" : 0.0,
                      "default-translation1" : 0.0
                    },
                    "animationTracks" : {

                    }
                  },
                  {
                    "id" : 443,
                    "_type" : "Callout",
                    "def" : {
                      "kind" : "remix",
                      "shape" : "text-rectangle",
                      "style" : "basic",
                      "fill-color-blue" : 0.270588235294118,
                      "fill-color-green" : 0.243137254901961,
                      "fill-color-opacity" : 1.0,
                      "fill-color-red" : 0.211764705882353,
                      "height" : 198.24999999976,
                      "line-spacing" : 0.0,
                      "stroke-color-blue" : 0.890196078431372,
                      "stroke-color-green" : 0.870588235294118,
                      "stroke-color-opacity" : 1.0,
                      "stroke-color-red" : 0.847058823529412,
                      "stroke-width" : 2.0,
                      "tail-x" : -253.500000000138,
                      "tail-y" : -28.1249999997575,
                      "width" : 2065.37500000053,
                      "word-wrap" : 1.0,
                      "fill-style" : "solid",
                      "horizontal-alignment" : "center",
                      "resize-behavior" : "resizeText",
                      "stroke-style" : "solid",
                      "text" : "The attacker is copying the commands to disable \rWindows Defender",
                      "vertical-alignment" : "center",
                      "font" : {
                        "color-blue" : 0.266666666666667,
                        "color-green" : 0.231372549019608,
                        "color-opacity" : 1.0,
                        "color-red" : 0.184313725490196,
                        "size" : 64.0,
                        "tracking" : 0.0,
                        "name" : "Montserrat",
                        "weight" : "Regular"
                      },
                      "textAttributes" : {
                        "type" : "textAttributeList",
                        "keyframes" : [
                          {
                            "endTime" : 0,
                            "time" : 0,
                            "value" : [{"name":"fgColor","rangeEnd":65,"rangeStart":0,"value":"(255,255,255,255)","valueType":"color"},{"name":"fontItalic","rangeEnd":65,"rangeStart":0,"value":0,"valueType":"int"},{"name":"fontName","rangeEnd":65,"rangeStart":0,"value":"Montserrat","valueType":"string"},{"name":"fontSize","rangeEnd":65,"rangeStart":0,"value":80,"valueType":"double"},{"name":"kerning","rangeEnd":65,"rangeStart":0,"value":0,"valueType":"double"},{"name":"underline","rangeEnd":65,"rangeStart":0,"value":0,"valueType":"int"},{"name":"fontWeight","rangeEnd":65,"rangeStart":0,"value":400,"valueType":"int"},{"name":"strikethrough","rangeEnd":65,"rangeStart":0,"value":0,"valueType":"int"}],
                            "duration" : 0
                          }
                        ]
                      }
                    },
                    "attributes" : {
                      "autoRotateText" : true
                    },
                    "parameters" : {
                      "translation0" : -2.81659140455304e-11,
                      "translation1" : -584.53125000062
                    },
                    "effects" : [
                        {
                          "effectName" : "DropShadow",
                          "category" : "categoryVisualEffects",
                          "parameters" : {
                            "angle" : 5.49778714378214,
                            "blur" : 10.0,
                            "color-alpha" : 1.0,
                            "color-blue" : 0.1216,
                            "color-green" : 0.1216,
                            "color-red" : 0.1216,
                            "enabled" : 1,
                            "offset" : 10.0,
                            "opacity" : 0.4
                          }
                        }
                    ],
                    "start" : 1078,
                    "duration" : 55,
                    "mediaStart" : 0,
                    "mediaDuration" : 55,
                    "scalar" : 1,
                    "metadata" : {
                      "WinSubProjectDisplayName" : "",
                      "clipSpeedAttribute" : false,
                      "default-HAlign" : "center",
                      "default-LineSpace" : 0.0,
                      "default-VAlign" : "center",
                      "default-fill-color-blue" : 1.0,
                      "default-fill-color-green" : 1.0,
                      "default-fill-color-red" : 1.0,
                      "default-stroke-color-blue" : 0.56078431372549,
                      "default-stroke-color-green" : 0.686274509803922,
                      "default-stroke-color-red" : 0.0196078431372549,
                      "default-text-attributes" : "[{\"name\":\"fontSize\",\"rangeEnd\":32,\"rangeStart\":0,\"value\":64,\"valueType\":\"double\"},{\"name\":\"fgColor\",\"rangeEnd\":32,\"rangeStart\":0,\"value\":\"(255,255,255,255)\",\"valueType\":\"color\"},{\"name\":\"fontWeight\",\"rangeEnd\":32,\"rangeStart\":0,\"value\":400,\"valueType\":\"int\"},{\"name\":\"fontName\",\"rangeEnd\":32,\"rangeStart\":0,\"value\":\"Montserrat\",\"valueType\":\"string\"},{\"name\":\"fontItalic\",\"rangeEnd\":32,\"rangeStart\":0,\"value\":0,\"valueType\":\"int\"},{\"name\":\"strikethrough\",\"rangeEnd\":32,\"rangeStart\":0,\"value\":0,\"valueType\":\"int\"},{\"name\":\"underline\",\"rangeEnd\":32,\"rangeStart\":0,\"value\":0,\"valueType\":\"int\"}]",
                      "default-translation0" : 0.0,
                      "default-translation1" : 0.0
                    },
                    "animationTracks" : {

                    }
                  },
                  {
                    "id" : 444,
                    "_type" : "Callout",
                    "def" : {
                      "kind" : "remix",
                      "shape" : "text-rectangle",
                      "style" : "basic",
                      "fill-color-blue" : 0.270588235294118,
                      "fill-color-green" : 0.243137254901961,
                      "fill-color-opacity" : 1.0,
                      "fill-color-red" : 0.211764705882353,
                      "height" : 106.249999999895,
                      "line-spacing" : 0.0,
                      "stroke-color-blue" : 0.890196078431372,
                      "stroke-color-green" : 0.870588235294118,
                      "stroke-color-opacity" : 1.0,
                      "stroke-color-red" : 0.847058823529412,
                      "stroke-width" : 2.0,
                      "tail-x" : -749.500000000105,
                      "tail-y" : 1.8750000000523,
                      "width" : 1737.37500000071,
                      "word-wrap" : 1.0,
                      "fill-style" : "solid",
                      "horizontal-alignment" : "center",
                      "resize-behavior" : "resizeText",
                      "stroke-style" : "solid",
                      "text" : "The attacker is running the commands",
                      "vertical-alignment" : "center",
                      "font" : {
                        "color-blue" : 0.266666666666667,
                        "color-green" : 0.231372549019608,
                        "color-opacity" : 1.0,
                        "color-red" : 0.184313725490196,
                        "size" : 64.0,
                        "tracking" : 0.0,
                        "name" : "Montserrat",
                        "weight" : "Regular"
                      },
                      "textAttributes" : {
                        "type" : "textAttributeList",
                        "keyframes" : [
                          {
                            "endTime" : 0,
                            "time" : 0,
                            "value" : [{"name":"fontItalic","rangeEnd":36,"rangeStart":0,"value":0,"valueType":"int"},{"name":"fontWeight","rangeEnd":36,"rangeStart":0,"value":400,"valueType":"int"},{"name":"strikethrough","rangeEnd":36,"rangeStart":0,"value":0,"valueType":"int"},{"name":"fontSize","rangeEnd":36,"rangeStart":0,"value":80,"valueType":"double"},{"name":"fontName","rangeEnd":36,"rangeStart":0,"value":"Montserrat","valueType":"string"},{"name":"fgColor","rangeEnd":36,"rangeStart":0,"value":"(255,255,255,255)","valueType":"color"},{"name":"underline","rangeEnd":36,"rangeStart":0,"value":0,"valueType":"int"},{"name":"kerning","rangeEnd":36,"rangeStart":0,"value":0,"valueType":"double"}],
                            "duration" : 0
                          }
                        ]
                      }
                    },
                    "attributes" : {
                      "autoRotateText" : true
                    },
                    "parameters" : {
                      "translation0" : -7.105427357601e-11,
                      "translation1" : -642.53125000051
                    },
                    "effects" : [
                        {
                          "effectName" : "DropShadow",
                          "category" : "categoryVisualEffects",
                          "parameters" : {
                            "angle" : 5.49778714378214,
                            "blur" : 10.0,
                            "color-alpha" : 1.0,
                            "color-blue" : 0.1216,
                            "color-green" : 0.1216,
                            "color-red" : 0.1216,
                            "enabled" : 1,
                            "offset" : 10.0,
                            "opacity" : 0.4
                          }
                        }
                    ],
                    "start" : 1137,
                    "duration" : 342,
                    "mediaStart" : 0,
                    "mediaDuration" : 342,
                    "scalar" : 1,
                    "metadata" : {
                      "WinSubProjectDisplayName" : "",
                      "clipSpeedAttribute" : false,
                      "default-HAlign" : "center",
                      "default-LineSpace" : 0.0,
                      "default-VAlign" : "center",
                      "default-fill-color-blue" : 1.0,
                      "default-fill-color-green" : 1.0,
                      "default-fill-color-red" : 1.0,
                      "default-stroke-color-blue" : 0.56078431372549,
                      "default-stroke-color-green" : 0.686274509803922,
                      "default-stroke-color-red" : 0.0196078431372549,
                      "default-text-attributes" : "[{\"name\":\"fontSize\",\"rangeEnd\":32,\"rangeStart\":0,\"value\":64,\"valueType\":\"double\"},{\"name\":\"fgColor\",\"rangeEnd\":32,\"rangeStart\":0,\"value\":\"(255,255,255,255)\",\"valueType\":\"color\"},{\"name\":\"fontWeight\",\"rangeEnd\":32,\"rangeStart\":0,\"value\":400,\"valueType\":\"int\"},{\"name\":\"fontName\",\"rangeEnd\":32,\"rangeStart\":0,\"value\":\"Montserrat\",\"valueType\":\"string\"},{\"name\":\"fontItalic\",\"rangeEnd\":32,\"rangeStart\":0,\"value\":0,\"valueType\":\"int\"},{\"name\":\"strikethrough\",\"rangeEnd\":32,\"rangeStart\":0,\"value\":0,\"valueType\":\"int\"},{\"name\":\"underline\",\"rangeEnd\":32,\"rangeStart\":0,\"value\":0,\"valueType\":\"int\"}]",
                      "default-translation0" : 0.0,
                      "default-translation1" : 0.0
                    },
                    "animationTracks" : {

                    }
                  },
                  {
                    "id" : 445,
                    "_type" : "Callout",
                    "def" : {
                      "kind" : "remix",
                      "shape" : "text-rectangle",
                      "style" : "basic",
                      "fill-color-blue" : 0.270588235294118,
                      "fill-color-green" : 0.243137254901961,
                      "fill-color-opacity" : 1.0,
                      "fill-color-red" : 0.211764705882353,
                      "height" : 105.999999999972,
                      "line-spacing" : 0.0,
                      "stroke-color-blue" : 0.890196078431372,
                      "stroke-color-green" : 0.870588235294118,
                      "stroke-color-opacity" : 1.0,
                      "stroke-color-red" : 0.847058823529412,
                      "stroke-width" : 2.0,
                      "tail-x" : -6.50000000009373,
                      "tail-y" : 26.8750000000663,
                      "width" : 1807.94823529647,
                      "word-wrap" : 1.0,
                      "fill-style" : "solid",
                      "horizontal-alignment" : "center",
                      "resize-behavior" : "resizeText",
                      "stroke-style" : "solid",
                      "text" : "CMD does not have enough privileges",
                      "vertical-alignment" : "center",
                      "font" : {
                        "color-blue" : 0.266666666666667,
                        "color-green" : 0.231372549019608,
                        "color-opacity" : 1.0,
                        "color-red" : 0.184313725490196,
                        "size" : 64.0,
                        "tracking" : 0.0,
                        "name" : "Montserrat",
                        "weight" : "Regular"
                      },
                      "textAttributes" : {
                        "type" : "textAttributeList",
                        "keyframes" : [
                          {
                            "endTime" : 0,
                            "time" : 0,
                            "value" : [{"name":"kerning","rangeEnd":35,"rangeStart":0,"value":0,"valueType":"double"},{"name":"fgColor","rangeEnd":35,"rangeStart":0,"value":"(255,255,255,255)","valueType":"color"},{"name":"underline","rangeEnd":35,"rangeStart":0,"value":0,"valueType":"int"},{"name":"fontSize","rangeEnd":35,"rangeStart":0,"value":80,"valueType":"double"},{"name":"strikethrough","rangeEnd":35,"rangeStart":0,"value":0,"valueType":"int"},{"name":"fontName","rangeEnd":35,"rangeStart":0,"value":"Montserrat","valueType":"string"},{"name":"fontWeight","rangeEnd":35,"rangeStart":0,"value":400,"valueType":"int"},{"name":"fontItalic","rangeEnd":35,"rangeStart":0,"value":0,"valueType":"int"}],
                            "duration" : 0
                          }
                        ]
                      }
                    },
                    "attributes" : {
                      "autoRotateText" : true
                    },
                    "parameters" : {
                      "translation0" : 8.02629074314609e-11,
                      "translation1" : -641.531250001047
                    },
                    "effects" : [
                        {
                          "effectName" : "DropShadow",
                          "category" : "categoryVisualEffects",
                          "parameters" : {
                            "angle" : 5.49778714378214,
                            "blur" : 10.0,
                            "color-alpha" : 1.0,
                            "color-blue" : 0.1216,
                            "color-green" : 0.1216,
                            "color-red" : 0.1216,
                            "enabled" : 1,
                            "offset" : 10.0,
                            "opacity" : 0.4
                          }
                        }
                    ],
                    "start" : 1480,
                    "duration" : 144,
                    "mediaStart" : -61,
                    "mediaDuration" : 144,
                    "scalar" : 1,
                    "metadata" : {
                      "WinSubProjectDisplayName" : "",
                      "clipSpeedAttribute" : false,
                      "default-HAlign" : "center",
                      "default-LineSpace" : 0.0,
                      "default-VAlign" : "center",
                      "default-fill-color-blue" : 1.0,
                      "default-fill-color-green" : 1.0,
                      "default-fill-color-red" : 1.0,
                      "default-stroke-color-blue" : 0.56078431372549,
                      "default-stroke-color-green" : 0.686274509803922,
                      "default-stroke-color-red" : 0.0196078431372549,
                      "default-text-attributes" : "[{\"name\":\"fontSize\",\"rangeEnd\":32,\"rangeStart\":0,\"value\":64,\"valueType\":\"double\"},{\"name\":\"fgColor\",\"rangeEnd\":32,\"rangeStart\":0,\"value\":\"(255,255,255,255)\",\"valueType\":\"color\"},{\"name\":\"fontWeight\",\"rangeEnd\":32,\"rangeStart\":0,\"value\":400,\"valueType\":\"int\"},{\"name\":\"fontName\",\"rangeEnd\":32,\"rangeStart\":0,\"value\":\"Montserrat\",\"valueType\":\"string\"},{\"name\":\"fontItalic\",\"rangeEnd\":32,\"rangeStart\":0,\"value\":0,\"valueType\":\"int\"},{\"name\":\"strikethrough\",\"rangeEnd\":32,\"rangeStart\":0,\"value\":0,\"valueType\":\"int\"},{\"name\":\"underline\",\"rangeEnd\":32,\"rangeStart\":0,\"value\":0,\"valueType\":\"int\"}]",
                      "default-translation0" : 0.0,
                      "default-translation1" : 0.0
                    },
                    "animationTracks" : {

                    }
                  },
                  {
                    "id" : 446,
                    "_type" : "Callout",
                    "def" : {
                      "kind" : "remix",
                      "shape" : "text-rectangle",
                      "style" : "basic",
                      "fill-color-blue" : 0.270588235294118,
                      "fill-color-green" : 0.243137254901961,
                      "fill-color-opacity" : 1.0,
                      "fill-color-red" : 0.211764705882353,
                      "height" : 106.249999999895,
                      "line-spacing" : 0.0,
                      "stroke-color-blue" : 0.890196078431372,
                      "stroke-color-green" : 0.870588235294118,
                      "stroke-color-opacity" : 1.0,
                      "stroke-color-red" : 0.847058823529412,
                      "stroke-width" : 2.0,
                      "tail-x" : -493.49999999985,
                      "tail-y" : 1.8750000000523,
                      "width" : 2453.37500000057,
                      "word-wrap" : 1.0,
                      "fill-style" : "solid",
                      "horizontal-alignment" : "center",
                      "resize-behavior" : "resizeText",
                      "stroke-style" : "solid",
                      "text" : "The attacker is getting the process ID to escalate privileges",
                      "vertical-alignment" : "center",
                      "font" : {
                        "color-blue" : 0.266666666666667,
                        "color-green" : 0.231372549019608,
                        "color-opacity" : 1.0,
                        "color-red" : 0.184313725490196,
                        "size" : 64.0,
                        "tracking" : 0.0,
                        "name" : "Montserrat",
                        "weight" : "Regular"
                      },
                      "textAttributes" : {
                        "type" : "textAttributeList",
                        "keyframes" : [
                          {
                            "endTime" : 0,
                            "time" : 0,
                            "value" : [{"name":"fontSize","rangeEnd":61,"rangeStart":0,"value":80,"valueType":"double"},{"name":"fontWeight","rangeEnd":61,"rangeStart":0,"value":400,"valueType":"int"},{"name":"kerning","rangeEnd":61,"rangeStart":0,"value":0,"valueType":"double"},{"name":"fgColor","rangeEnd":61,"rangeStart":0,"value":"(255,255,255,255)","valueType":"color"},{"name":"fontName","rangeEnd":61,"rangeStart":0,"value":"Montserrat","valueType":"string"},{"name":"underline","rangeEnd":61,"rangeStart":0,"value":0,"valueType":"int"},{"name":"fontItalic","rangeEnd":61,"rangeStart":0,"value":0,"valueType":"int"},{"name":"strikethrough","rangeEnd":61,"rangeStart":0,"value":0,"valueType":"int"}],
                            "duration" : 0
                          }
                        ]
                      }
                    },
                    "attributes" : {
                      "autoRotateText" : true
                    },
                    "parameters" : {
                      "translation0" : -3.0312500002167,
                      "translation1" : -598.874999999946
                    },
                    "effects" : [
                        {
                          "effectName" : "DropShadow",
                          "category" : "categoryVisualEffects",
                          "parameters" : {
                            "angle" : 5.49778714378214,
                            "blur" : 10.0,
                            "color-alpha" : 1.0,
                            "color-blue" : 0.1216,
                            "color-green" : 0.1216,
                            "color-red" : 0.1216,
                            "enabled" : 1,
                            "offset" : 10.0,
                            "opacity" : 0.4
                          }
                        }
                    ],
                    "start" : 1646,
                    "duration" : 90,
                    "mediaStart" : 0,
                    "mediaDuration" : 90,
                    "scalar" : 1,
                    "metadata" : {
                      "WinSubProjectDisplayName" : "",
                      "clipSpeedAttribute" : false,
                      "default-HAlign" : "center",
                      "default-LineSpace" : 0.0,
                      "default-VAlign" : "center",
                      "default-fill-color-blue" : 1.0,
                      "default-fill-color-green" : 1.0,
                      "default-fill-color-red" : 1.0,
                      "default-scale0" : 1.0,
                      "default-scale1" : 1.0,
                      "default-stroke-color-blue" : 0.56078431372549,
                      "default-stroke-color-green" : 0.686274509803922,
                      "default-stroke-color-red" : 0.0196078431372549,
                      "default-text-attributes" : "[{\"name\":\"fontSize\",\"rangeEnd\":32,\"rangeStart\":0,\"value\":64,\"valueType\":\"double\"},{\"name\":\"fgColor\",\"rangeEnd\":32,\"rangeStart\":0,\"value\":\"(255,255,255,255)\",\"valueType\":\"color\"},{\"name\":\"fontWeight\",\"rangeEnd\":32,\"rangeStart\":0,\"value\":400,\"valueType\":\"int\"},{\"name\":\"fontName\",\"rangeEnd\":32,\"rangeStart\":0,\"value\":\"Montserrat\",\"valueType\":\"string\"},{\"name\":\"fontItalic\",\"rangeEnd\":32,\"rangeStart\":0,\"value\":0,\"valueType\":\"int\"},{\"name\":\"strikethrough\",\"rangeEnd\":32,\"rangeStart\":0,\"value\":0,\"valueType\":\"int\"},{\"name\":\"underline\",\"rangeEnd\":32,\"rangeStart\":0,\"value\":0,\"valueType\":\"int\"}]",
                      "default-translation0" : 0.0,
                      "default-translation1" : 0.0
                    },
                    "animationTracks" : {

                    }
                  },
                  {
                    "id" : 447,
                    "_type" : "Callout",
                    "def" : {
                      "kind" : "remix",
                      "shape" : "text-rectangle",
                      "style" : "basic",
                      "fill-color-blue" : 0.270588235294118,
                      "fill-color-green" : 0.243137254901961,
                      "fill-color-opacity" : 1.0,
                      "fill-color-red" : 0.211764705882353,
                      "height" : 124.583333333219,
                      "line-spacing" : 0.0,
                      "stroke-color-blue" : 0.890196078431372,
                      "stroke-color-green" : 0.870588235294118,
                      "stroke-color-opacity" : 1.0,
                      "stroke-color-red" : 0.847058823529412,
                      "stroke-width" : 2.0,
                      "tail-x" : -55.8333333332519,
                      "tail-y" : -7.29166666660954,
                      "width" : 946.041666666676,
                      "word-wrap" : 1.0,
                      "fill-style" : "solid",
                      "horizontal-alignment" : "center",
                      "resize-behavior" : "resizeText",
                      "stroke-style" : "solid",
                      "text" : "Copying the PID",
                      "vertical-alignment" : "center",
                      "font" : {
                        "color-blue" : 0.266666666666667,
                        "color-green" : 0.231372549019608,
                        "color-opacity" : 1.0,
                        "color-red" : 0.184313725490196,
                        "size" : 64.0,
                        "tracking" : 0.0,
                        "name" : "Montserrat",
                        "weight" : "Regular"
                      },
                      "textAttributes" : {
                        "type" : "textAttributeList",
                        "keyframes" : [
                          {
                            "endTime" : 0,
                            "time" : 0,
                            "value" : [{"name":"underline","rangeEnd":15,"rangeStart":0,"value":0,"valueType":"int"},{"name":"fontSize","rangeEnd":15,"rangeStart":0,"value":80,"valueType":"double"},{"name":"fontWeight","rangeEnd":15,"rangeStart":0,"value":400,"valueType":"int"},{"name":"fontName","rangeEnd":15,"rangeStart":0,"value":"Montserrat","valueType":"string"},{"name":"fgColor","rangeEnd":15,"rangeStart":0,"value":"(255,255,255,255)","valueType":"color"},{"name":"fontItalic","rangeEnd":15,"rangeStart":0,"value":0,"valueType":"int"},{"name":"strikethrough","rangeEnd":15,"rangeStart":0,"value":0,"valueType":"int"}],
                            "duration" : 0
                          }
                        ]
                      }
                    },
                    "attributes" : {
                      "autoRotateText" : true
                    },
                    "parameters" : {
                      "translation0" : -2.00941485672956e-10,
                      "translation1" : -594.697916667024
                    },
                    "effects" : [
                        {
                          "effectName" : "DropShadow",
                          "category" : "categoryVisualEffects",
                          "parameters" : {
                            "angle" : 5.49778714378214,
                            "blur" : 10.0,
                            "color-alpha" : 1.0,
                            "color-blue" : 0.1216,
                            "color-green" : 0.1216,
                            "color-red" : 0.1216,
                            "enabled" : 1,
                            "offset" : 10.0,
                            "opacity" : 0.4
                          }
                        }
                    ],
                    "start" : 1752,
                    "duration" : 58,
                    "mediaStart" : 29,
                    "mediaDuration" : 58,
                    "scalar" : 1,
                    "metadata" : {
                      "WinSubProjectDisplayName" : "",
                      "clipSpeedAttribute" : false,
                      "default-HAlign" : "center",
                      "default-LineSpace" : 0.0,
                      "default-VAlign" : "center",
                      "default-fill-color-blue" : 1.0,
                      "default-fill-color-green" : 1.0,
                      "default-fill-color-red" : 1.0,
                      "default-stroke-color-blue" : 0.56078431372549,
                      "default-stroke-color-green" : 0.686274509803922,
                      "default-stroke-color-red" : 0.0196078431372549,
                      "default-text-attributes" : "[{\"name\":\"fontSize\",\"rangeEnd\":32,\"rangeStart\":0,\"value\":64,\"valueType\":\"double\"},{\"name\":\"fgColor\",\"rangeEnd\":32,\"rangeStart\":0,\"value\":\"(255,255,255,255)\",\"valueType\":\"color\"},{\"name\":\"fontWeight\",\"rangeEnd\":32,\"rangeStart\":0,\"value\":400,\"valueType\":\"int\"},{\"name\":\"fontName\",\"rangeEnd\":32,\"rangeStart\":0,\"value\":\"Montserrat\",\"valueType\":\"string\"},{\"name\":\"fontItalic\",\"rangeEnd\":32,\"rangeStart\":0,\"value\":0,\"valueType\":\"int\"},{\"name\":\"strikethrough\",\"rangeEnd\":32,\"rangeStart\":0,\"value\":0,\"valueType\":\"int\"},{\"name\":\"underline\",\"rangeEnd\":32,\"rangeStart\":0,\"value\":0,\"valueType\":\"int\"}]",
                      "default-translation0" : 0.0,
                      "default-translation1" : 0.0
                    },
                    "animationTracks" : {

                    }
                  },
                  {
                    "id" : 448,
                    "_type" : "Callout",
                    "def" : {
                      "kind" : "remix",
                      "shape" : "text-rectangle",
                      "style" : "basic",
                      "fill-color-blue" : 0.270588235294118,
                      "fill-color-green" : 0.243137254901961,
                      "fill-color-opacity" : 1.0,
                      "fill-color-red" : 0.211764705882353,
                      "height" : 107.999999999807,
                      "line-spacing" : 0.0,
                      "stroke-color-blue" : 0.890196078431372,
                      "stroke-color-green" : 0.870588235294118,
                      "stroke-color-opacity" : 1.0,
                      "stroke-color-red" : 0.847058823529412,
                      "stroke-width" : 2.0,
                      "tail-x" : -1061.49999999981,
                      "tail-y" : 34.8750000002184,
                      "width" : 2437.71150098233,
                      "word-wrap" : 1.0,
                      "fill-style" : "solid",
                      "horizontal-alignment" : "center",
                      "resize-behavior" : "resizeText",
                      "stroke-style" : "solid",
                      "text" : "The attacker is trying to hijack the TOKEN for the PID = 1088",
                      "vertical-alignment" : "center",
                      "font" : {
                        "color-blue" : 0.266666666666667,
                        "color-green" : 0.231372549019608,
                        "color-opacity" : 1.0,
                        "color-red" : 0.184313725490196,
                        "size" : 64.0,
                        "tracking" : 0.0,
                        "name" : "Montserrat",
                        "weight" : "Regular"
                      },
                      "textAttributes" : {
                        "type" : "textAttributeList",
                        "keyframes" : [
                          {
                            "endTime" : 0,
                            "time" : 0,
                            "value" : [{"name":"kerning","rangeEnd":61,"rangeStart":0,"value":0,"valueType":"double"},{"name":"strikethrough","rangeEnd":61,"rangeStart":0,"value":0,"valueType":"int"},{"name":"fontName","rangeEnd":61,"rangeStart":0,"value":"Montserrat","valueType":"string"},{"name":"underline","rangeEnd":61,"rangeStart":0,"value":0,"valueType":"int"},{"name":"fontWeight","rangeEnd":61,"rangeStart":0,"value":400,"valueType":"int"},{"name":"fontSize","rangeEnd":61,"rangeStart":0,"value":80,"valueType":"double"},{"name":"fontItalic","rangeEnd":61,"rangeStart":0,"value":0,"valueType":"int"},{"name":"fgColor","rangeEnd":61,"rangeStart":0,"value":"(255,255,255,255)","valueType":"color"}],
                            "duration" : 0
                          }
                        ]
                      }
                    },
                    "attributes" : {
                      "autoRotateText" : true
                    },
                    "parameters" : {
                      "translation0" : 34.0000000000685,
                      "translation1" : -609.531250000903
                    },
                    "effects" : [
                        {
                          "effectName" : "DropShadow",
                          "category" : "categoryVisualEffects",
                          "parameters" : {
                            "angle" : 5.49778714378214,
                            "blur" : 10.0,
                            "color-alpha" : 1.0,
                            "color-blue" : 0.1216,
                            "color-green" : 0.1216,
                            "color-red" : 0.1216,
                            "enabled" : 1,
                            "offset" : 10.0,
                            "opacity" : 0.4
                          }
                        }
                    ],
                    "start" : 1899,
                    "duration" : 86,
                    "mediaStart" : -1,
                    "mediaDuration" : 86,
                    "scalar" : 1,
                    "metadata" : {
                      "WinSubProjectDisplayName" : "",
                      "clipSpeedAttribute" : false,
                      "default-HAlign" : "center",
                      "default-LineSpace" : 0.0,
                      "default-VAlign" : "center",
                      "default-fill-color-blue" : 1.0,
                      "default-fill-color-green" : 1.0,
                      "default-fill-color-red" : 1.0,
                      "default-scale0" : 1.0,
                      "default-scale1" : 1.0,
                      "default-stroke-color-blue" : 0.56078431372549,
                      "default-stroke-color-green" : 0.686274509803922,
                      "default-stroke-color-red" : 0.0196078431372549,
                      "default-text-attributes" : "[{\"name\":\"fontSize\",\"rangeEnd\":32,\"rangeStart\":0,\"value\":64,\"valueType\":\"double\"},{\"name\":\"fgColor\",\"rangeEnd\":32,\"rangeStart\":0,\"value\":\"(255,255,255,255)\",\"valueType\":\"color\"},{\"name\":\"fontWeight\",\"rangeEnd\":32,\"rangeStart\":0,\"value\":400,\"valueType\":\"int\"},{\"name\":\"fontName\",\"rangeEnd\":32,\"rangeStart\":0,\"value\":\"Montserrat\",\"valueType\":\"string\"},{\"name\":\"fontItalic\",\"rangeEnd\":32,\"rangeStart\":0,\"value\":0,\"valueType\":\"int\"},{\"name\":\"strikethrough\",\"rangeEnd\":32,\"rangeStart\":0,\"value\":0,\"valueType\":\"int\"},{\"name\":\"underline\",\"rangeEnd\":32,\"rangeStart\":0,\"value\":0,\"valueType\":\"int\"}]",
                      "default-translation0" : 0.0,
                      "default-translation1" : 0.0
                    },
                    "animationTracks" : {

                    }
                  },
                  {
                    "id" : 449,
                    "_type" : "Callout",
                    "def" : {
                      "kind" : "remix",
                      "shape" : "text-rectangle",
                      "style" : "basic",
                      "fill-color-blue" : 0.2,
                      "fill-color-green" : 0.4,
                      "fill-color-opacity" : 1.0,
                      "fill-color-red" : 0.0,
                      "height" : 101.999999999645,
                      "line-spacing" : 0.0,
                      "stroke-color-blue" : 0.890196078431372,
                      "stroke-color-green" : 0.870588235294118,
                      "stroke-color-opacity" : 1.0,
                      "stroke-color-red" : 0.847058823529412,
                      "stroke-width" : 2.0,
                      "tail-x" : -554.666666666259,
                      "tail-y" : 26.8750000002299,
                      "width" : 2355.62352941411,
                      "word-wrap" : 1.0,
                      "fill-style" : "solid",
                      "horizontal-alignment" : "center",
                      "resize-behavior" : "resizeText",
                      "stroke-style" : "solid",
                      "text" : "MemoryRanger prevents hijacking of the TOKEN structure",
                      "vertical-alignment" : "center",
                      "font" : {
                        "color-blue" : 0.266666666666667,
                        "color-green" : 0.231372549019608,
                        "color-opacity" : 1.0,
                        "color-red" : 0.184313725490196,
                        "size" : 64.0,
                        "tracking" : 0.0,
                        "name" : "Montserrat",
                        "weight" : "Regular"
                      },
                      "textAttributes" : {
                        "type" : "textAttributeList",
                        "keyframes" : [
                          {
                            "endTime" : 0,
                            "time" : 0,
                            "value" : [{"name":"fontSize","rangeEnd":54,"rangeStart":0,"value":80,"valueType":"double"},{"name":"underline","rangeEnd":54,"rangeStart":0,"value":0,"valueType":"int"},{"name":"fontWeight","rangeEnd":54,"rangeStart":0,"value":400,"valueType":"int"},{"name":"fgColor","rangeEnd":54,"rangeStart":0,"value":"(255,255,255,255)","valueType":"color"},{"name":"fontItalic","rangeEnd":54,"rangeStart":0,"value":0,"valueType":"int"},{"name":"fontName","rangeEnd":54,"rangeStart":0,"value":"Montserrat","valueType":"string"},{"name":"strikethrough","rangeEnd":54,"rangeStart":0,"value":0,"valueType":"int"}],
                            "duration" : 0
                          }
                        ]
                      }
                    },
                    "attributes" : {
                      "autoRotateText" : true
                    },
                    "parameters" : {
                      "translation0" : 42.9999999994716,
                      "translation1" : -559.531250000425
                    },
                    "effects" : [
                        {
                          "effectName" : "DropShadow",
                          "category" : "categoryVisualEffects",
                          "parameters" : {
                            "angle" : 5.49778714378214,
                            "blur" : 10.0,
                            "color-alpha" : 1.0,
                            "color-blue" : 0.1216,
                            "color-green" : 0.1216,
                            "color-red" : 0.1216,
                            "enabled" : 1,
                            "offset" : 10.0,
                            "opacity" : 0.4
                          }
                        }
                    ],
                    "start" : 2027,
                    "duration" : 137,
                    "mediaStart" : -15,
                    "mediaDuration" : 137,
                    "scalar" : 1,
                    "metadata" : {
                      "WinSubProjectDisplayName" : "",
                      "clipSpeedAttribute" : false,
                      "default-HAlign" : "center",
                      "default-LineSpace" : 0.0,
                      "default-VAlign" : "center",
                      "default-fill-color-blue" : 1.0,
                      "default-fill-color-green" : 1.0,
                      "default-fill-color-red" : 1.0,
                      "default-stroke-color-blue" : 0.56078431372549,
                      "default-stroke-color-green" : 0.686274509803922,
                      "default-stroke-color-red" : 0.0196078431372549,
                      "default-text-attributes" : "[{\"name\":\"fontSize\",\"rangeEnd\":32,\"rangeStart\":0,\"value\":64,\"valueType\":\"double\"},{\"name\":\"fgColor\",\"rangeEnd\":32,\"rangeStart\":0,\"value\":\"(255,255,255,255)\",\"valueType\":\"color\"},{\"name\":\"fontWeight\",\"rangeEnd\":32,\"rangeStart\":0,\"value\":400,\"valueType\":\"int\"},{\"name\":\"fontName\",\"rangeEnd\":32,\"rangeStart\":0,\"value\":\"Montserrat\",\"valueType\":\"string\"},{\"name\":\"fontItalic\",\"rangeEnd\":32,\"rangeStart\":0,\"value\":0,\"valueType\":\"int\"},{\"name\":\"strikethrough\",\"rangeEnd\":32,\"rangeStart\":0,\"value\":0,\"valueType\":\"int\"},{\"name\":\"underline\",\"rangeEnd\":32,\"rangeStart\":0,\"value\":0,\"valueType\":\"int\"}]",
                      "default-translation0" : 0.0,
                      "default-translation1" : 0.0
                    },
                    "animationTracks" : {

                    }
                  },
                  {
                    "id" : 450,
                    "_type" : "Callout",
                    "def" : {
                      "kind" : "remix",
                      "shape" : "text-rectangle",
                      "style" : "basic",
                      "fill-color-blue" : 0.270588235294118,
                      "fill-color-green" : 0.243137254901961,
                      "fill-color-opacity" : 1.0,
                      "fill-color-red" : 0.211764705882353,
                      "height" : 106.249999999895,
                      "line-spacing" : 0.0,
                      "stroke-color-blue" : 0.890196078431372,
                      "stroke-color-green" : 0.870588235294118,
                      "stroke-color-opacity" : 1.0,
                      "stroke-color-red" : 0.847058823529412,
                      "stroke-width" : 2.0,
                      "tail-x" : -566.500000000106,
                      "tail-y" : 1.8750000000523,
                      "width" : 2403.37500000071,
                      "word-wrap" : 1.0,
                      "fill-style" : "solid",
                      "horizontal-alignment" : "center",
                      "resize-behavior" : "resizeText",
                      "stroke-style" : "solid",
                      "text" : "The attacker is trying to disable Windows Defender again",
                      "vertical-alignment" : "center",
                      "font" : {
                        "color-blue" : 0.266666666666667,
                        "color-green" : 0.231372549019608,
                        "color-opacity" : 1.0,
                        "color-red" : 0.184313725490196,
                        "size" : 64.0,
                        "tracking" : 0.0,
                        "name" : "Montserrat",
                        "weight" : "Regular"
                      },
                      "textAttributes" : {
                        "type" : "textAttributeList",
                        "keyframes" : [
                          {
                            "endTime" : 0,
                            "time" : 0,
                            "value" : [{"name":"strikethrough","rangeEnd":56,"rangeStart":0,"value":0,"valueType":"int"},{"name":"fontSize","rangeEnd":56,"rangeStart":0,"value":80,"valueType":"double"},{"name":"fontItalic","rangeEnd":56,"rangeStart":0,"value":0,"valueType":"int"},{"name":"underline","rangeEnd":56,"rangeStart":0,"value":0,"valueType":"int"},{"name":"fontName","rangeEnd":56,"rangeStart":0,"value":"Montserrat","valueType":"string"},{"name":"fontWeight","rangeEnd":56,"rangeStart":0,"value":400,"valueType":"int"},{"name":"fgColor","rangeEnd":56,"rangeStart":0,"value":"(255,255,255,255)","valueType":"color"},{"name":"kerning","rangeEnd":56,"rangeStart":0,"value":0,"valueType":"double"}],
                            "duration" : 0
                          }
                        ]
                      }
                    },
                    "attributes" : {
                      "autoRotateText" : true
                    },
                    "parameters" : {
                      "translation0" : 3.77617936919705e-11,
                      "translation1" : -618.531250000478
                    },
                    "effects" : [
                        {
                          "effectName" : "DropShadow",
                          "category" : "categoryVisualEffects",
                          "parameters" : {
                            "angle" : 5.49778714378214,
                            "blur" : 10.0,
                            "color-alpha" : 1.0,
                            "color-blue" : 0.1216,
                            "color-green" : 0.1216,
                            "color-red" : 0.1216,
                            "enabled" : 1,
                            "offset" : 10.0,
                            "opacity" : 0.4
                          }
                        }
                    ],
                    "start" : 2204,
                    "duration" : 62,
                    "mediaStart" : 0,
                    "mediaDuration" : 62,
                    "scalar" : 1,
                    "metadata" : {
                      "WinSubProjectDisplayName" : "",
                      "clipSpeedAttribute" : false,
                      "default-HAlign" : "center",
                      "default-LineSpace" : 0.0,
                      "default-VAlign" : "center",
                      "default-fill-color-blue" : 1.0,
                      "default-fill-color-green" : 1.0,
                      "default-fill-color-red" : 1.0,
                      "default-stroke-color-blue" : 0.56078431372549,
                      "default-stroke-color-green" : 0.686274509803922,
                      "default-stroke-color-red" : 0.0196078431372549,
                      "default-text-attributes" : "[{\"name\":\"fontSize\",\"rangeEnd\":32,\"rangeStart\":0,\"value\":64,\"valueType\":\"double\"},{\"name\":\"fgColor\",\"rangeEnd\":32,\"rangeStart\":0,\"value\":\"(255,255,255,255)\",\"valueType\":\"color\"},{\"name\":\"fontWeight\",\"rangeEnd\":32,\"rangeStart\":0,\"value\":400,\"valueType\":\"int\"},{\"name\":\"fontName\",\"rangeEnd\":32,\"rangeStart\":0,\"value\":\"Montserrat\",\"valueType\":\"string\"},{\"name\":\"fontItalic\",\"rangeEnd\":32,\"rangeStart\":0,\"value\":0,\"valueType\":\"int\"},{\"name\":\"strikethrough\",\"rangeEnd\":32,\"rangeStart\":0,\"value\":0,\"valueType\":\"int\"},{\"name\":\"underline\",\"rangeEnd\":32,\"rangeStart\":0,\"value\":0,\"valueType\":\"int\"}]",
                      "default-translation0" : 0.0,
                      "default-translation1" : 0.0
                    },
                    "animationTracks" : {

                    }
                  },
                  {
                    "id" : 451,
                    "_type" : "Callout",
                    "def" : {
                      "kind" : "remix",
                      "shape" : "text-rectangle",
                      "style" : "basic",
                      "fill-color-blue" : 0.270588235294118,
                      "fill-color-green" : 0.243137254901961,
                      "fill-color-opacity" : 1.0,
                      "fill-color-red" : 0.211764705882353,
                      "height" : 204.249999999688,
                      "line-spacing" : 0.0,
                      "stroke-color-blue" : 0.890196078431372,
                      "stroke-color-green" : 0.870588235294118,
                      "stroke-color-opacity" : 1.0,
                      "stroke-color-red" : 0.847058823529412,
                      "stroke-width" : 2.0,
                      "tail-x" : -428.500000000097,
                      "tail-y" : -47.1249999998442,
                      "width" : 2443.37500000047,
                      "word-wrap" : 1.0,
                      "fill-style" : "solid",
                      "horizontal-alignment" : "center",
                      "resize-behavior" : "resizeText",
                      "stroke-style" : "solid",
                      "text" : "The attacker is coping the commands to disable Windows Defender",
                      "vertical-alignment" : "center",
                      "font" : {
                        "color-blue" : 0.266666666666667,
                        "color-green" : 0.231372549019608,
                        "color-opacity" : 1.0,
                        "color-red" : 0.184313725490196,
                        "size" : 64.0,
                        "tracking" : 0.0,
                        "name" : "Montserrat",
                        "weight" : "Regular"
                      },
                      "textAttributes" : {
                        "type" : "textAttributeList",
                        "keyframes" : [
                          {
                            "endTime" : 0,
                            "time" : 0,
                            "value" : [{"name":"kerning","rangeEnd":63,"rangeStart":0,"value":0,"valueType":"double"},{"name":"fontWeight","rangeEnd":63,"rangeStart":0,"value":400,"valueType":"int"},{"name":"strikethrough","rangeEnd":63,"rangeStart":0,"value":0,"valueType":"int"},{"name":"underline","rangeEnd":63,"rangeStart":0,"value":0,"valueType":"int"},{"name":"fontItalic","rangeEnd":63,"rangeStart":0,"value":0,"valueType":"int"},{"name":"fontName","rangeEnd":63,"rangeStart":0,"value":"Montserrat","valueType":"string"},{"name":"fontSize","rangeEnd":63,"rangeStart":0,"value":80,"valueType":"double"},{"name":"fgColor","rangeEnd":63,"rangeStart":0,"value":"(255,255,255,255)","valueType":"color"}],
                            "duration" : 0
                          }
                        ]
                      }
                    },
                    "attributes" : {
                      "autoRotateText" : true
                    },
                    "parameters" : {
                      "translation0" : 1.52526880015103e-11,
                      "translation1" : -589.531250000638
                    },
                    "effects" : [
                        {
                          "effectName" : "DropShadow",
                          "category" : "categoryVisualEffects",
                          "parameters" : {
                            "angle" : 5.49778714378214,
                            "blur" : 10.0,
                            "color-alpha" : 1.0,
                            "color-blue" : 0.1216,
                            "color-green" : 0.1216,
                            "color-red" : 0.1216,
                            "enabled" : 1,
                            "offset" : 10.0,
                            "opacity" : 0.4
                          }
                        }
                    ],
                    "start" : 2285,
                    "duration" : 55,
                    "mediaStart" : 0,
                    "mediaDuration" : 55,
                    "scalar" : 1,
                    "metadata" : {
                      "WinSubProjectDisplayName" : "",
                      "clipSpeedAttribute" : false,
                      "default-HAlign" : "center",
                      "default-LineSpace" : 0.0,
                      "default-VAlign" : "center",
                      "default-fill-color-blue" : 1.0,
                      "default-fill-color-green" : 1.0,
                      "default-fill-color-red" : 1.0,
                      "default-stroke-color-blue" : 0.56078431372549,
                      "default-stroke-color-green" : 0.686274509803922,
                      "default-stroke-color-red" : 0.0196078431372549,
                      "default-text-attributes" : "[{\"name\":\"fontSize\",\"rangeEnd\":32,\"rangeStart\":0,\"value\":64,\"valueType\":\"double\"},{\"name\":\"fgColor\",\"rangeEnd\":32,\"rangeStart\":0,\"value\":\"(255,255,255,255)\",\"valueType\":\"color\"},{\"name\":\"fontWeight\",\"rangeEnd\":32,\"rangeStart\":0,\"value\":400,\"valueType\":\"int\"},{\"name\":\"fontName\",\"rangeEnd\":32,\"rangeStart\":0,\"value\":\"Montserrat\",\"valueType\":\"string\"},{\"name\":\"fontItalic\",\"rangeEnd\":32,\"rangeStart\":0,\"value\":0,\"valueType\":\"int\"},{\"name\":\"strikethrough\",\"rangeEnd\":32,\"rangeStart\":0,\"value\":0,\"valueType\":\"int\"},{\"name\":\"underline\",\"rangeEnd\":32,\"rangeStart\":0,\"value\":0,\"valueType\":\"int\"}]",
                      "default-translation0" : 0.0,
                      "default-translation1" : 0.0
                    },
                    "animationTracks" : {

                    }
                  },
                  {
                    "id" : 452,
                    "_type" : "Callout",
                    "def" : {
                      "kind" : "remix",
                      "shape" : "text-rectangle",
                      "style" : "basic",
                      "fill-color-blue" : 0.270588235294118,
                      "fill-color-green" : 0.243137254901961,
                      "fill-color-opacity" : 1.0,
                      "fill-color-red" : 0.211764705882353,
                      "height" : 123.999999999955,
                      "line-spacing" : 0.0,
                      "stroke-color-blue" : 0.890196078431372,
                      "stroke-color-green" : 0.870588235294118,
                      "stroke-color-opacity" : 1.0,
                      "stroke-color-red" : 0.847058823529412,
                      "stroke-width" : 2.0,
                      "tail-x" : -1165.33346686638,
                      "tail-y" : 28.8750000000747,
                      "width" : 2306.93777215333,
                      "word-wrap" : 1.0,
                      "fill-style" : "solid",
                      "horizontal-alignment" : "center",
                      "resize-behavior" : "resizeText",
                      "stroke-style" : "solid",
                      "text" : "Firstly, the attacker is checking the privileges once more",
                      "vertical-alignment" : "center",
                      "font" : {
                        "color-blue" : 0.266666666666667,
                        "color-green" : 0.231372549019608,
                        "color-opacity" : 1.0,
                        "color-red" : 0.184313725490196,
                        "size" : 64.0,
                        "tracking" : 0.0,
                        "name" : "Montserrat",
                        "weight" : "Regular"
                      },
                      "textAttributes" : {
                        "type" : "textAttributeList",
                        "keyframes" : [
                          {
                            "endTime" : 0,
                            "time" : 0,
                            "value" : [{"name":"kerning","rangeEnd":58,"rangeStart":0,"value":0,"valueType":"double"},{"name":"fgColor","rangeEnd":58,"rangeStart":0,"value":"(255,255,255,255)","valueType":"color"},{"name":"fontItalic","rangeEnd":58,"rangeStart":0,"value":0,"valueType":"int"},{"name":"fontWeight","rangeEnd":58,"rangeStart":0,"value":400,"valueType":"int"},{"name":"fontSize","rangeEnd":58,"rangeStart":0,"value":81,"valueType":"double"},{"name":"strikethrough","rangeEnd":58,"rangeStart":0,"value":0,"valueType":"int"},{"name":"fontName","rangeEnd":58,"rangeStart":0,"value":"Montserrat","valueType":"string"},{"name":"underline","rangeEnd":58,"rangeStart":0,"value":0,"valueType":"int"}],
                            "duration" : 0
                          }
                        ]
                      }
                    },
                    "attributes" : {
                      "autoRotateText" : true
                    },
                    "parameters" : {
                      "translation0" : -3.49587025993969e-11,
                      "translation1" : -619.166666666538
                    },
                    "effects" : [
                        {
                          "effectName" : "DropShadow",
                          "category" : "categoryVisualEffects",
                          "parameters" : {
                            "angle" : 5.49778714378214,
                            "blur" : 10.0,
                            "color-alpha" : 1.0,
                            "color-blue" : 0.1216,
                            "color-green" : 0.1216,
                            "color-red" : 0.1216,
                            "enabled" : 1,
                            "offset" : 10.0,
                            "opacity" : 0.4
                          }
                        }
                    ],
                    "start" : 2412,
                    "duration" : 57,
                    "mediaStart" : -4,
                    "mediaDuration" : 57,
                    "scalar" : 1,
                    "metadata" : {
                      "WinSubProjectDisplayName" : "",
                      "clipSpeedAttribute" : false,
                      "default-HAlign" : "center",
                      "default-LineSpace" : 0.0,
                      "default-VAlign" : "center",
                      "default-fill-color-blue" : 1.0,
                      "default-fill-color-green" : 1.0,
                      "default-fill-color-red" : 1.0,
                      "default-scale0" : 1.0,
                      "default-scale1" : 1.0,
                      "default-stroke-color-blue" : 0.56078431372549,
                      "default-stroke-color-green" : 0.686274509803922,
                      "default-stroke-color-red" : 0.0196078431372549,
                      "default-text-attributes" : "[{\"name\":\"fontSize\",\"rangeEnd\":32,\"rangeStart\":0,\"value\":64,\"valueType\":\"double\"},{\"name\":\"fgColor\",\"rangeEnd\":32,\"rangeStart\":0,\"value\":\"(255,255,255,255)\",\"valueType\":\"color\"},{\"name\":\"fontWeight\",\"rangeEnd\":32,\"rangeStart\":0,\"value\":400,\"valueType\":\"int\"},{\"name\":\"fontName\",\"rangeEnd\":32,\"rangeStart\":0,\"value\":\"Montserrat\",\"valueType\":\"string\"},{\"name\":\"fontItalic\",\"rangeEnd\":32,\"rangeStart\":0,\"value\":0,\"valueType\":\"int\"},{\"name\":\"strikethrough\",\"rangeEnd\":32,\"rangeStart\":0,\"value\":0,\"valueType\":\"int\"},{\"name\":\"underline\",\"rangeEnd\":32,\"rangeStart\":0,\"value\":0,\"valueType\":\"int\"}]",
                      "default-translation0" : 0.0,
                      "default-translation1" : 0.0
                    },
                    "animationTracks" : {

                    }
                  },
                  {
                    "id" : 453,
                    "_type" : "Callout",
                    "def" : {
                      "kind" : "remix",
                      "shape" : "text-rectangle",
                      "style" : "basic",
                      "fill-color-blue" : 0.2,
                      "fill-color-green" : 0.4,
                      "fill-color-opacity" : 1.0,
                      "fill-color-red" : 0.0,
                      "height" : 107.0,
                      "line-spacing" : 0.0,
                      "stroke-color-blue" : 0.890196078431372,
                      "stroke-color-green" : 0.870588235294118,
                      "stroke-color-opacity" : 1.0,
                      "stroke-color-red" : 0.847058823529412,
                      "stroke-width" : 2.0,
                      "tail-x" : -416.66666666624,
                      "tail-y" : 1.8750000000523,
                      "width" : 1827.18235294276,
                      "word-wrap" : 1.0,
                      "fill-style" : "solid",
                      "horizontal-alignment" : "center",
                      "resize-behavior" : "resizeText",
                      "stroke-style" : "solid",
                      "text" : "CMD is still running with USER's privileges",
                      "vertical-alignment" : "center",
                      "font" : {
                        "color-blue" : 0.266666666666667,
                        "color-green" : 0.231372549019608,
                        "color-opacity" : 1.0,
                        "color-red" : 0.184313725490196,
                        "size" : 64.0,
                        "tracking" : 0.0,
                        "name" : "Montserrat",
                        "weight" : "Regular"
                      },
                      "textAttributes" : {
                        "type" : "textAttributeList",
                        "keyframes" : [
                          {
                            "endTime" : 0,
                            "time" : 0,
                            "value" : [{"name":"underline","rangeEnd":43,"rangeStart":0,"value":0,"valueType":"int"},{"name":"fgColor","rangeEnd":43,"rangeStart":0,"value":"(255,255,255,255)","valueType":"color"},{"name":"strikethrough","rangeEnd":43,"rangeStart":0,"value":0,"valueType":"int"},{"name":"fontItalic","rangeEnd":43,"rangeStart":0,"value":0,"valueType":"int"},{"name":"fontName","rangeEnd":43,"rangeStart":0,"value":"Montserrat","valueType":"string"},{"name":"fontWeight","rangeEnd":43,"rangeStart":0,"value":400,"valueType":"int"},{"name":"fontSize","rangeEnd":43,"rangeStart":0,"value":80,"valueType":"double"},{"name":"kerning","rangeEnd":43,"rangeStart":0,"value":0,"valueType":"double"}],
                            "duration" : 0
                          }
                        ]
                      }
                    },
                    "attributes" : {
                      "autoRotateText" : true
                    },
                    "parameters" : {
                      "translation0" : 9.31237309487187e-11,
                      "translation1" : -610.531250000229
                    },
                    "effects" : [
                        {
                          "effectName" : "DropShadow",
                          "category" : "categoryVisualEffects",
                          "parameters" : {
                            "angle" : 5.49778714378214,
                            "blur" : 10.0,
                            "color-alpha" : 1.0,
                            "color-blue" : 0.1216,
                            "color-green" : 0.1216,
                            "color-red" : 0.1216,
                            "enabled" : 1,
                            "offset" : 10.0,
                            "opacity" : 0.4
                          }
                        }
                    ],
                    "start" : 2484,
                    "duration" : 206,
                    "mediaStart" : -15,
                    "mediaDuration" : 206,
                    "scalar" : 1,
                    "metadata" : {
                      "WinSubProjectDisplayName" : "",
                      "clipSpeedAttribute" : false,
                      "default-HAlign" : "center",
                      "default-LineSpace" : 0.0,
                      "default-VAlign" : "center",
                      "default-fill-color-blue" : 1.0,
                      "default-fill-color-green" : 1.0,
                      "default-fill-color-red" : 1.0,
                      "default-stroke-color-blue" : 0.56078431372549,
                      "default-stroke-color-green" : 0.686274509803922,
                      "default-stroke-color-red" : 0.0196078431372549,
                      "default-text-attributes" : "[{\"name\":\"fontSize\",\"rangeEnd\":32,\"rangeStart\":0,\"value\":64,\"valueType\":\"double\"},{\"name\":\"fgColor\",\"rangeEnd\":32,\"rangeStart\":0,\"value\":\"(255,255,255,255)\",\"valueType\":\"color\"},{\"name\":\"fontWeight\",\"rangeEnd\":32,\"rangeStart\":0,\"value\":400,\"valueType\":\"int\"},{\"name\":\"fontName\",\"rangeEnd\":32,\"rangeStart\":0,\"value\":\"Montserrat\",\"valueType\":\"string\"},{\"name\":\"fontItalic\",\"rangeEnd\":32,\"rangeStart\":0,\"value\":0,\"valueType\":\"int\"},{\"name\":\"strikethrough\",\"rangeEnd\":32,\"rangeStart\":0,\"value\":0,\"valueType\":\"int\"},{\"name\":\"underline\",\"rangeEnd\":32,\"rangeStart\":0,\"value\":0,\"valueType\":\"int\"}]",
                      "default-translation0" : 0.0,
                      "default-translation1" : 0.0
                    },
                    "animationTracks" : {

                    }
                  },
                  {
                    "id" : 454,
                    "_type" : "Callout",
                    "def" : {
                      "kind" : "remix",
                      "shape" : "text-rectangle",
                      "style" : "basic",
                      "fill-color-blue" : 0.270588235294118,
                      "fill-color-green" : 0.243137254901961,
                      "fill-color-opacity" : 1.0,
                      "fill-color-red" : 0.211764705882353,
                      "height" : 106.249999999895,
                      "line-spacing" : 0.0,
                      "stroke-color-blue" : 0.890196078431372,
                      "stroke-color-green" : 0.870588235294118,
                      "stroke-color-opacity" : 1.0,
                      "stroke-color-red" : 0.847058823529412,
                      "stroke-width" : 2.0,
                      "tail-x" : -9.50000000016999,
                      "tail-y" : 1.8750000000523,
                      "width" : 2209.37500000147,
                      "word-wrap" : 1.0,
                      "fill-style" : "solid",
                      "horizontal-alignment" : "center",
                      "resize-behavior" : "resizeText",
                      "stroke-style" : "solid",
                      "text" : "The attacker is trying to disable Windows Defender",
                      "vertical-alignment" : "center",
                      "font" : {
                        "color-blue" : 0.266666666666667,
                        "color-green" : 0.231372549019608,
                        "color-opacity" : 1.0,
                        "color-red" : 0.184313725490196,
                        "size" : 64.0,
                        "tracking" : 0.0,
                        "name" : "Montserrat",
                        "weight" : "Regular"
                      },
                      "textAttributes" : {
                        "type" : "textAttributeList",
                        "keyframes" : [
                          {
                            "endTime" : 0,
                            "time" : 0,
                            "value" : [{"name":"fontWeight","rangeEnd":50,"rangeStart":0,"value":400,"valueType":"int"},{"name":"fgColor","rangeEnd":50,"rangeStart":0,"value":"(255,255,255,255)","valueType":"color"},{"name":"strikethrough","rangeEnd":50,"rangeStart":0,"value":0,"valueType":"int"},{"name":"fontItalic","rangeEnd":50,"rangeStart":0,"value":0,"valueType":"int"},{"name":"fontSize","rangeEnd":50,"rangeStart":0,"value":80,"valueType":"double"},{"name":"fontName","rangeEnd":50,"rangeStart":0,"value":"Montserrat","valueType":"string"},{"name":"underline","rangeEnd":50,"rangeStart":0,"value":0,"valueType":"int"},{"name":"kerning","rangeEnd":50,"rangeStart":0,"value":0,"valueType":"double"}],
                            "duration" : 0
                          }
                        ]
                      }
                    },
                    "attributes" : {
                      "autoRotateText" : true
                    },
                    "parameters" : {
                      "translation0" : 7.25108861843182e-12,
                      "translation1" : -620.531250000629
                    },
                    "effects" : [
                        {
                          "effectName" : "DropShadow",
                          "category" : "categoryVisualEffects",
                          "parameters" : {
                            "angle" : 5.49778714378214,
                            "blur" : 10.0,
                            "color-alpha" : 1.0,
                            "color-blue" : 0.1216,
                            "color-green" : 0.1216,
                            "color-red" : 0.1216,
                            "enabled" : 1,
                            "offset" : 10.0,
                            "opacity" : 0.4
                          }
                        }
                    ],
                    "start" : 2693,
                    "duration" : 355,
                    "mediaStart" : 0,
                    "mediaDuration" : 355,
                    "scalar" : 1,
                    "metadata" : {
                      "WinSubProjectDisplayName" : "",
                      "clipSpeedAttribute" : false,
                      "default-HAlign" : "center",
                      "default-LineSpace" : 0.0,
                      "default-VAlign" : "center",
                      "default-fill-color-blue" : 1.0,
                      "default-fill-color-green" : 1.0,
                      "default-fill-color-red" : 1.0,
                      "default-scale0" : 1.0,
                      "default-scale1" : 1.0,
                      "default-stroke-color-blue" : 0.56078431372549,
                      "default-stroke-color-green" : 0.686274509803922,
                      "default-stroke-color-red" : 0.0196078431372549,
                      "default-text-attributes" : "[{\"name\":\"fontSize\",\"rangeEnd\":32,\"rangeStart\":0,\"value\":64,\"valueType\":\"double\"},{\"name\":\"fgColor\",\"rangeEnd\":32,\"rangeStart\":0,\"value\":\"(255,255,255,255)\",\"valueType\":\"color\"},{\"name\":\"fontWeight\",\"rangeEnd\":32,\"rangeStart\":0,\"value\":400,\"valueType\":\"int\"},{\"name\":\"fontName\",\"rangeEnd\":32,\"rangeStart\":0,\"value\":\"Montserrat\",\"valueType\":\"string\"},{\"name\":\"fontItalic\",\"rangeEnd\":32,\"rangeStart\":0,\"value\":0,\"valueType\":\"int\"},{\"name\":\"strikethrough\",\"rangeEnd\":32,\"rangeStart\":0,\"value\":0,\"valueType\":\"int\"},{\"name\":\"underline\",\"rangeEnd\":32,\"rangeStart\":0,\"value\":0,\"valueType\":\"int\"}]",
                      "default-translation0" : 0.0,
                      "default-translation1" : 0.0
                    },
                    "animationTracks" : {

                    }
                  },
                  {
                    "id" : 455,
                    "_type" : "Callout",
                    "def" : {
                      "kind" : "remix",
                      "shape" : "text-rectangle",
                      "style" : "basic",
                      "fill-color-blue" : 0.2,
                      "fill-color-green" : 0.4,
                      "fill-color-opacity" : 1.0,
                      "fill-color-red" : 0.0,
                      "height" : 105.927083332761,
                      "line-spacing" : 0.0,
                      "stroke-color-blue" : 0.890196078431372,
                      "stroke-color-green" : 0.870588235294118,
                      "stroke-color-opacity" : 1.0,
                      "stroke-color-red" : 0.847058823529412,
                      "stroke-width" : 2.0,
                      "tail-x" : -395.666666666302,
                      "tail-y" : 37.7135416665939,
                      "width" : 2448.375,
                      "word-wrap" : 1.0,
                      "fill-style" : "solid",
                      "horizontal-alignment" : "center",
                      "resize-behavior" : "resizeText",
                      "stroke-style" : "solid",
                      "text" : "The attacker has failed to disable Windows Defender",
                      "vertical-alignment" : "center",
                      "font" : {
                        "color-blue" : 0.266666666666667,
                        "color-green" : 0.231372549019608,
                        "color-opacity" : 1.0,
                        "color-red" : 0.184313725490196,
                        "size" : 64.0,
                        "tracking" : 0.0,
                        "name" : "Montserrat",
                        "weight" : "Regular"
                      },
                      "textAttributes" : {
                        "type" : "textAttributeList",
                        "keyframes" : [
                          {
                            "endTime" : 0,
                            "time" : 0,
                            "value" : [{"name":"kerning","rangeEnd":51,"rangeStart":0,"value":0,"valueType":"double"},{"name":"fontSize","rangeEnd":51,"rangeStart":0,"value":80,"valueType":"double"},{"name":"fontWeight","rangeEnd":51,"rangeStart":0,"value":400,"valueType":"int"},{"name":"fontName","rangeEnd":51,"rangeStart":0,"value":"Montserrat","valueType":"string"},{"name":"underline","rangeEnd":51,"rangeStart":0,"value":0,"valueType":"int"},{"name":"strikethrough","rangeEnd":51,"rangeStart":0,"value":0,"valueType":"int"},{"name":"fontItalic","rangeEnd":51,"rangeStart":0,"value":0,"valueType":"int"},{"name":"fgColor","rangeEnd":51,"rangeStart":0,"value":"(255,255,255,255)","valueType":"color"}],
                            "duration" : 0
                          }
                        ]
                      }
                    },
                    "attributes" : {
                      "autoRotateText" : true
                    },
                    "parameters" : {
                      "translation0" : 4.0985881355482e-11,
                      "translation1" : -620.369791666847
                    },
                    "effects" : [
                        {
                          "effectName" : "DropShadow",
                          "category" : "categoryVisualEffects",
                          "parameters" : {
                            "angle" : 5.49778714378214,
                            "blur" : 10.0,
                            "color-alpha" : 1.0,
                            "color-blue" : 0.1216,
                            "color-green" : 0.1216,
                            "color-red" : 0.1216,
                            "enabled" : 1,
                            "offset" : 10.0,
                            "opacity" : 0.4
                          }
                        }
                    ],
                    "start" : 3066,
                    "duration" : 95,
                    "mediaStart" : -15,
                    "mediaDuration" : 95,
                    "scalar" : 1,
                    "metadata" : {
                      "WinSubProjectDisplayName" : "",
                      "clipSpeedAttribute" : false,
                      "default-HAlign" : "center",
                      "default-LineSpace" : 0.0,
                      "default-VAlign" : "center",
                      "default-fill-color-blue" : 1.0,
                      "default-fill-color-green" : 1.0,
                      "default-fill-color-red" : 1.0,
                      "default-rotation2" : 0.0,
                      "default-stroke-color-blue" : 0.56078431372549,
                      "default-stroke-color-green" : 0.686274509803922,
                      "default-stroke-color-red" : 0.0196078431372549,
                      "default-text-attributes" : "[{\"name\":\"fontSize\",\"rangeEnd\":32,\"rangeStart\":0,\"value\":64,\"valueType\":\"double\"},{\"name\":\"fgColor\",\"rangeEnd\":32,\"rangeStart\":0,\"value\":\"(255,255,255,255)\",\"valueType\":\"color\"},{\"name\":\"fontWeight\",\"rangeEnd\":32,\"rangeStart\":0,\"value\":400,\"valueType\":\"int\"},{\"name\":\"fontName\",\"rangeEnd\":32,\"rangeStart\":0,\"value\":\"Montserrat\",\"valueType\":\"string\"},{\"name\":\"fontItalic\",\"rangeEnd\":32,\"rangeStart\":0,\"value\":0,\"valueType\":\"int\"},{\"name\":\"strikethrough\",\"rangeEnd\":32,\"rangeStart\":0,\"value\":0,\"valueType\":\"int\"},{\"name\":\"underline\",\"rangeEnd\":32,\"rangeStart\":0,\"value\":0,\"valueType\":\"int\"}]",
                      "default-translation0" : 0.0,
                      "default-translation1" : 0.0
                    },
                    "animationTracks" : {

                    }
                  },
                  {
                    "id" : 456,
                    "_type" : "Callout",
                    "def" : {
                      "kind" : "remix",
                      "shape" : "shape-rectangle",
                      "style" : "basic",
                      "fill-color-blue" : 0.0,
                      "fill-color-green" : 0.0,
                      "fill-color-opacity" : 0.0,
                      "fill-color-red" : 0.0,
                      "height" : 1420.00002748142,
                      "stroke-color-blue" : 0.2,
                      "stroke-color-green" : 0.4,
                      "stroke-color-opacity" : 1.0,
                      "stroke-color-red" : 0.0,
                      "stroke-width" : 20.0,
                      "width" : 2539.99977522206,
                      "fill-style" : "solid",
                      "horizontal-alignment" : "center",
                      "stroke-style" : "solid",
                      "vertical-alignment" : "center",
                      "textAttributes" : {
                        "type" : "textAttributeList",
                        "keyframes" : [
                          {
                            "endTime" : 0,
                            "time" : 0,
                            "value" : null,
                            "duration" : 0
                          }
                        ]
                      }
                    },
                    "attributes" : {
                      "autoRotateText" : true
                    },
                    "parameters" : {
                      "translation0" : 1.44382283906452e-11,
                      "translation1" : -1.38834719708072e-10
                    },
                    "effects" : [
                        {
                          "effectName" : "DropShadow",
                          "category" : "categoryVisualEffects",
                          "parameters" : {
                            "angle" : 5.49778714378214,
                            "blur" : 10.0,
                            "color-alpha" : 1.0,
                            "color-blue" : 0.1216,
                            "color-green" : 0.1216,
                            "color-red" : 0.1216,
                            "enabled" : 1,
                            "offset" : 10.0,
                            "opacity" : 0.4
                          }
                        }
                    ],
                    "start" : 3238,
                    "duration" : 152,
                    "mediaStart" : 2,
                    "mediaDuration" : 152,
                    "scalar" : 1,
                    "metadata" : {
                      "WinSubProjectDisplayName" : "",
                      "clipSpeedAttribute" : false,
                      "default-callout-shape" : "shape-rectangle",
                      "default-stroke-color-blue" : 0.0,
                      "default-stroke-color-green" : 0.0,
                      "default-stroke-color-red" : 0.0,
                      "default-stroke-width" : 6.0,
                      "default-translation0" : 0.0,
                      "default-translation1" : 0.0
                    },
                    "animationTracks" : {

                    }
                  },
                  {
                    "id" : 457,
                    "_type" : "Callout",
                    "def" : {
                      "kind" : "remix",
                      "shape" : "text",
                      "style" : "basic",
                      "height" : 400.0,
                      "line-spacing" : 0.0,
                      "width" : 2560.00000000024,
                      "word-wrap" : 1.0,
                      "horizontal-alignment" : "center",
                      "resize-behavior" : "resizeText",
                      "text" : "The End",
                      "vertical-alignment" : "center",
                      "font" : {
                        "color-blue" : 1.0,
                        "color-green" : 1.0,
                        "color-red" : 1.0,
                        "size" : 96.0,
                        "tracking" : 0.0,
                        "name" : "Montserrat",
                        "weight" : "Regular"
                      },
                      "textAttributes" : {
                        "type" : "textAttributeList",
                        "keyframes" : [
                          {
                            "endTime" : 0,
                            "time" : 0,
                            "value" : [{"name":"fontItalic","rangeEnd":7,"rangeStart":0,"value":0,"valueType":"int"},{"name":"underline","rangeEnd":7,"rangeStart":0,"value":0,"valueType":"int"},{"name":"fontSize","rangeEnd":7,"rangeStart":0,"value":136,"valueType":"double"},{"name":"fgColor","rangeEnd":7,"rangeStart":0,"value":"(255,255,255,255)","valueType":"color"},{"name":"fontName","rangeEnd":7,"rangeStart":0,"value":"Rockwell","valueType":"string"},{"name":"strikethrough","rangeEnd":7,"rangeStart":0,"value":0,"valueType":"int"},{"name":"kerning","rangeEnd":7,"rangeStart":0,"value":0,"valueType":"double"},{"name":"fontWeight","rangeEnd":7,"rangeStart":0,"value":400,"valueType":"int"}],
                            "duration" : 0
                          }
                        ]
                      }
                    },
                    "attributes" : {
                      "autoRotateText" : true
                    },
                    "parameters" : {
                      "translation0" : -1.06581410364015e-10,
                      "translation1" : 146.853197674372
                    },
                    "effects" : [
                        {
                          "effectName" : "DropShadow",
                          "category" : "categoryVisualEffects",
                          "parameters" : {
                            "angle" : 5.49778714378214,
                            "blur" : 10.0,
                            "color-alpha" : 1.0,
                            "color-blue" : 0.1216,
                            "color-green" : 0.1216,
                            "color-red" : 0.1216,
                            "enabled" : 1,
                            "offset" : 10.0,
                            "opacity" : 0.4
                          }
                        }
                    ],
                    "start" : 3390,
                    "duration" : 150,
                    "mediaStart" : 0,
                    "mediaDuration" : 150,
                    "scalar" : 1,
                    "metadata" : {
                      "WinSubProjectDisplayName" : "",
                      "clipSpeedAttribute" : false,
                      "default-HAlign" : "center",
                      "default-LineSpace" : 0.0,
                      "default-VAlign" : "center",
                      "default-text-attributes" : "[{\"name\":\"underline\",\"rangeEnd\":16,\"rangeStart\":0,\"value\":0,\"valueType\":\"int\"},{\"name\":\"strikethrough\",\"rangeEnd\":16,\"rangeStart\":0,\"value\":0,\"valueType\":\"int\"},{\"name\":\"fontWeight\",\"rangeEnd\":16,\"rangeStart\":0,\"value\":400,\"valueType\":\"int\"},{\"name\":\"fontSize\",\"rangeEnd\":16,\"rangeStart\":0,\"value\":96,\"valueType\":\"double\"},{\"name\":\"fontName\",\"rangeEnd\":16,\"rangeStart\":0,\"value\":\"Montserrat\",\"valueType\":\"string\"},{\"name\":\"fgColor\",\"rangeEnd\":16,\"rangeStart\":0,\"value\":\"(255,255,255,255)\",\"valueType\":\"color\"},{\"name\":\"fontItalic\",\"rangeEnd\":16,\"rangeStart\":0,\"value\":0,\"valueType\":\"int\"}]",
                      "default-translation0" : 0.0,
                      "default-translation1" : 0.0
                    },
                    "animationTracks" : {

                    }
                  }
                ]
              },
              {
                "trackIndex" : 4,
                "medias" : [
                  {
                    "id" : 458,
                    "_type" : "Callout",
                    "def" : {
                      "kind" : "remix",
                      "shape" : "shape-rectangle",
                      "style" : "basic",
                      "fill-color-blue" : 0.0,
                      "fill-color-green" : 0.0,
                      "fill-color-opacity" : 0.0,
                      "fill-color-red" : 0.0,
                      "height" : 168.666666666759,
                      "stroke-color-blue" : 0.0,
                      "stroke-color-green" : 0.0,
                      "stroke-color-opacity" : 1.0,
                      "stroke-color-red" : 1.0,
                      "stroke-width" : 15.0,
                      "width" : 1747.13541666633,
                      "fill-style" : "solid",
                      "horizontal-alignment" : "center",
                      "stroke-style" : "solid",
                      "vertical-alignment" : "center",
                      "textAttributes" : {
                        "type" : "textAttributeList",
                        "keyframes" : [
                          {
                            "endTime" : 0,
                            "time" : 0,
                            "value" : null,
                            "duration" : 0
                          }
                        ]
                      }
                    },
                    "attributes" : {
                      "autoRotateText" : true
                    },
                    "parameters" : {
                      "translation0" : -123.265625000831,
                      "translation1" : -127.166666666531
                    },
                    "effects" : [
                        {
                          "effectName" : "DropShadow",
                          "category" : "categoryVisualEffects",
                          "parameters" : {
                            "angle" : 5.49778714378214,
                            "blur" : 10.0,
                            "color-alpha" : 1.0,
                            "color-blue" : 0.1216,
                            "color-green" : 0.1216,
                            "color-red" : 0.1216,
                            "enabled" : 1,
                            "offset" : 10.0,
                            "opacity" : 0.4
                          }
                        }
                    ],
                    "start" : 247,
                    "duration" : 85,
                    "mediaStart" : 18,
                    "mediaDuration" : 85,
                    "scalar" : 1,
                    "metadata" : {
                      "WinSubProjectDisplayName" : "",
                      "clipSpeedAttribute" : false,
                      "default-callout-shape" : "shape-rectangle",
                      "default-scale0" : 1.0,
                      "default-scale1" : 1.0,
                      "default-stroke-color-red" : 0.0,
                      "default-stroke-width" : 6.0,
                      "default-translation0" : 0.0,
                      "default-translation1" : 0.0
                    },
                    "animationTracks" : {

                    }
                  },
                  {
                    "id" : 459,
                    "_type" : "Callout",
                    "def" : {
                      "kind" : "remix",
                      "shape" : "shape-rectangle",
                      "style" : "basic",
                      "fill-color-blue" : 0.0,
                      "fill-color-green" : 0.0,
                      "fill-color-opacity" : 0.0,
                      "fill-color-red" : 0.0,
                      "height" : 128.666666667103,
                      "stroke-color-blue" : 0.0,
                      "stroke-color-green" : 0.0,
                      "stroke-color-opacity" : 1.0,
                      "stroke-color-red" : 1.0,
                      "stroke-width" : 15.0,
                      "width" : 807.13541666623,
                      "fill-style" : "solid",
                      "horizontal-alignment" : "center",
                      "stroke-style" : "solid",
                      "vertical-alignment" : "center",
                      "textAttributes" : {
                        "type" : "textAttributeList",
                        "keyframes" : [
                          {
                            "endTime" : 0,
                            "time" : 0,
                            "value" : null,
                            "duration" : 0
                          }
                        ]
                      }
                    },
                    "attributes" : {
                      "autoRotateText" : true
                    },
                    "parameters" : {
                      "translation0" : -872.932312011907,
                      "translation1" : 290.833333333298
                    },
                    "effects" : [
                        {
                          "effectName" : "DropShadow",
                          "category" : "categoryVisualEffects",
                          "parameters" : {
                            "angle" : 5.49778714378214,
                            "blur" : 10.0,
                            "color-alpha" : 1.0,
                            "color-blue" : 0.1216,
                            "color-green" : 0.1216,
                            "color-red" : 0.1216,
                            "enabled" : 1,
                            "offset" : 10.0,
                            "opacity" : 0.4
                          }
                        }
                    ],
                    "start" : 841,
                    "duration" : 22,
                    "mediaStart" : 39,
                    "mediaDuration" : 22,
                    "scalar" : 1,
                    "metadata" : {
                      "WinSubProjectDisplayName" : "",
                      "clipSpeedAttribute" : false,
                      "default-callout-shape" : "shape-rectangle",
                      "default-scale0" : 1.0,
                      "default-scale1" : 1.0,
                      "default-stroke-color-red" : 0.0,
                      "default-stroke-width" : 6.0,
                      "default-translation0" : 0.0,
                      "default-translation1" : 0.0
                    },
                    "animationTracks" : {

                    }
                  },
                  {
                    "id" : 460,
                    "_type" : "Callout",
                    "def" : {
                      "kind" : "remix",
                      "shape" : "shape-rectangle",
                      "style" : "basic",
                      "fill-color-blue" : 0.0,
                      "fill-color-green" : 0.0,
                      "fill-color-opacity" : 0.0,
                      "fill-color-red" : 0.0,
                      "height" : 216.666666667052,
                      "stroke-color-blue" : 0.0,
                      "stroke-color-green" : 0.0,
                      "stroke-color-opacity" : 1.0,
                      "stroke-color-red" : 1.0,
                      "stroke-width" : 15.0,
                      "width" : 807.13541666623,
                      "fill-style" : "solid",
                      "horizontal-alignment" : "center",
                      "stroke-style" : "solid",
                      "vertical-alignment" : "center",
                      "textAttributes" : {
                        "type" : "textAttributeList",
                        "keyframes" : [
                          {
                            "endTime" : 0,
                            "time" : 0,
                            "value" : null,
                            "duration" : 0
                          }
                        ]
                      }
                    },
                    "attributes" : {
                      "autoRotateText" : true
                    },
                    "parameters" : {
                      "translation0" : -872.932312011907,
                      "translation1" : 246.833333333323
                    },
                    "effects" : [
                        {
                          "effectName" : "DropShadow",
                          "category" : "categoryVisualEffects",
                          "parameters" : {
                            "angle" : 5.49778714378214,
                            "blur" : 10.0,
                            "color-alpha" : 1.0,
                            "color-blue" : 0.1216,
                            "color-green" : 0.1216,
                            "color-red" : 0.1216,
                            "enabled" : 1,
                            "offset" : 10.0,
                            "opacity" : 0.4
                          }
                        }
                    ],
                    "start" : 909,
                    "duration" : 61,
                    "mediaStart" : 42,
                    "mediaDuration" : 61,
                    "scalar" : 1,
                    "metadata" : {
                      "WinSubProjectDisplayName" : "",
                      "clipSpeedAttribute" : false,
                      "default-callout-shape" : "shape-rectangle",
                      "default-scale0" : 1.0,
                      "default-scale1" : 1.0,
                      "default-stroke-color-red" : 0.0,
                      "default-stroke-width" : 6.0,
                      "default-translation0" : 0.0,
                      "default-translation1" : 0.0
                    },
                    "animationTracks" : {

                    }
                  },
                  {
                    "id" : 461,
                    "_type" : "Callout",
                    "def" : {
                      "kind" : "remix",
                      "shape" : "shape-rectangle",
                      "style" : "basic",
                      "fill-color-blue" : 0.0,
                      "fill-color-green" : 0.0,
                      "fill-color-opacity" : 0.0,
                      "fill-color-red" : 0.0,
                      "height" : 110.6666666666,
                      "stroke-color-blue" : 0.0,
                      "stroke-color-green" : 0.0,
                      "stroke-color-opacity" : 1.0,
                      "stroke-color-red" : 1.0,
                      "stroke-width" : 15.0,
                      "width" : 1695.13541666657,
                      "fill-style" : "solid",
                      "horizontal-alignment" : "center",
                      "stroke-style" : "solid",
                      "vertical-alignment" : "center",
                      "textAttributes" : {
                        "type" : "textAttributeList",
                        "keyframes" : [
                          {
                            "endTime" : 0,
                            "time" : 0,
                            "value" : null,
                            "duration" : 0
                          }
                        ]
                      }
                    },
                    "attributes" : {
                      "autoRotateText" : true
                    },
                    "parameters" : {
                      "translation0" : -434.432281494219,
                      "translation1" : -154.166666666645
                    },
                    "effects" : [
                        {
                          "effectName" : "DropShadow",
                          "category" : "categoryVisualEffects",
                          "parameters" : {
                            "angle" : 5.49778714378214,
                            "blur" : 10.0,
                            "color-alpha" : 1.0,
                            "color-blue" : 0.1216,
                            "color-green" : 0.1216,
                            "color-red" : 0.1216,
                            "enabled" : 1,
                            "offset" : 10.0,
                            "opacity" : 0.4
                          }
                        }
                    ],
                    "start" : 1541,
                    "duration" : 83,
                    "mediaStart" : -10,
                    "mediaDuration" : 83,
                    "scalar" : 1,
                    "metadata" : {
                      "WinSubProjectDisplayName" : "",
                      "clipSpeedAttribute" : false,
                      "default-callout-shape" : "shape-rectangle",
                      "default-stroke-color-red" : 0.0,
                      "default-stroke-width" : 6.0,
                      "default-translation0" : 0.0,
                      "default-translation1" : 0.0
                    },
                    "animationTracks" : {

                    }
                  },
                  {
                    "id" : 462,
                    "_type" : "Callout",
                    "def" : {
                      "kind" : "remix",
                      "shape" : "shape-rectangle",
                      "style" : "basic",
                      "fill-color-blue" : 0.0,
                      "fill-color-green" : 0.0,
                      "fill-color-opacity" : 0.0,
                      "fill-color-red" : 0.0,
                      "height" : 110.6666666666,
                      "stroke-color-blue" : 0.0,
                      "stroke-color-green" : 0.0,
                      "stroke-color-opacity" : 1.0,
                      "stroke-color-red" : 1.0,
                      "stroke-width" : 15.0,
                      "width" : 1489.13541666641,
                      "fill-style" : "solid",
                      "horizontal-alignment" : "center",
                      "stroke-style" : "solid",
                      "vertical-alignment" : "center",
                      "textAttributes" : {
                        "type" : "textAttributeList",
                        "keyframes" : [
                          {
                            "endTime" : 0,
                            "time" : 0,
                            "value" : null,
                            "duration" : 0
                          }
                        ]
                      }
                    },
                    "attributes" : {
                      "autoRotateText" : true
                    },
                    "parameters" : {
                      "translation0" : -537.432281494301,
                      "translation1" : -438.166666666681
                    },
                    "effects" : [
                        {
                          "effectName" : "DropShadow",
                          "category" : "categoryVisualEffects",
                          "parameters" : {
                            "angle" : 5.49778714378214,
                            "blur" : 10.0,
                            "color-alpha" : 1.0,
                            "color-blue" : 0.1216,
                            "color-green" : 0.1216,
                            "color-red" : 0.1216,
                            "enabled" : 1,
                            "offset" : 10.0,
                            "opacity" : 0.4
                          }
                        }
                    ],
                    "start" : 1646,
                    "duration" : 90,
                    "mediaStart" : -10,
                    "mediaDuration" : 90,
                    "scalar" : 1,
                    "metadata" : {
                      "WinSubProjectDisplayName" : "",
                      "clipSpeedAttribute" : false,
                      "default-callout-shape" : "shape-rectangle",
                      "default-stroke-color-red" : 0.0,
                      "default-stroke-width" : 6.0,
                      "default-translation0" : 0.0,
                      "default-translation1" : 0.0
                    },
                    "animationTracks" : {

                    }
                  },
                  {
                    "id" : 463,
                    "_type" : "Callout",
                    "def" : {
                      "kind" : "remix",
                      "shape" : "shape-rectangle",
                      "style" : "basic",
                      "fill-color-blue" : 0.0,
                      "fill-color-green" : 0.0,
                      "fill-color-opacity" : 0.0,
                      "fill-color-red" : 0.0,
                      "height" : 107.000000000027,
                      "stroke-color-blue" : 0.0,
                      "stroke-color-green" : 0.0,
                      "stroke-color-opacity" : 1.0,
                      "stroke-color-red" : 1.0,
                      "stroke-width" : 15.0,
                      "width" : 694.802083333622,
                      "fill-style" : "solid",
                      "horizontal-alignment" : "center",
                      "stroke-style" : "solid",
                      "vertical-alignment" : "center",
                      "textAttributes" : {
                        "type" : "textAttributeList",
                        "keyframes" : [
                          {
                            "endTime" : 0,
                            "time" : 0,
                            "value" : null,
                            "duration" : 0
                          }
                        ]
                      }
                    },
                    "attributes" : {
                      "autoRotateText" : true
                    },
                    "parameters" : {
                      "translation0" : -910.76562500047,
                      "translation1" : 538.000000000481
                    },
                    "effects" : [
                        {
                          "effectName" : "DropShadow",
                          "category" : "categoryVisualEffects",
                          "parameters" : {
                            "angle" : 5.49778714378214,
                            "blur" : 10.0,
                            "color-alpha" : 1.0,
                            "color-blue" : 0.1216,
                            "color-green" : 0.1216,
                            "color-red" : 0.1216,
                            "enabled" : 1,
                            "offset" : 10.0,
                            "opacity" : 0.4
                          }
                        }
                    ],
                    "start" : 1899,
                    "duration" : 86,
                    "mediaStart" : 15,
                    "mediaDuration" : 86,
                    "scalar" : 1,
                    "metadata" : {
                      "WinSubProjectDisplayName" : "",
                      "clipSpeedAttribute" : false,
                      "default-callout-shape" : "shape-rectangle",
                      "default-scale0" : 1.0,
                      "default-scale1" : 1.0,
                      "default-stroke-color-red" : 0.0,
                      "default-stroke-width" : 6.0,
                      "default-translation0" : 0.0,
                      "default-translation1" : 0.0
                    },
                    "animationTracks" : {

                    }
                  },
                  {
                    "id" : 464,
                    "_type" : "Callout",
                    "def" : {
                      "kind" : "remix",
                      "shape" : "shape-rectangle",
                      "style" : "basic",
                      "fill-color-blue" : 0.0,
                      "fill-color-green" : 0.0,
                      "fill-color-opacity" : 0.0,
                      "fill-color-red" : 0.0,
                      "height" : 107.000000000027,
                      "stroke-color-blue" : 0.0,
                      "stroke-color-green" : 0.0,
                      "stroke-color-opacity" : 1.0,
                      "stroke-color-red" : 1.0,
                      "stroke-width" : 15.0,
                      "width" : 1406.80208333374,
                      "fill-style" : "solid",
                      "horizontal-alignment" : "center",
                      "stroke-style" : "solid",
                      "vertical-alignment" : "center",
                      "textAttributes" : {
                        "type" : "textAttributeList",
                        "keyframes" : [
                          {
                            "endTime" : 0,
                            "time" : 0,
                            "value" : null,
                            "duration" : 0
                          }
                        ]
                      }
                    },
                    "attributes" : {
                      "autoRotateText" : true
                    },
                    "parameters" : {
                      "translation0" : -554.765625000409,
                      "translation1" : 472.0000000005
                    },
                    "effects" : [
                        {
                          "effectName" : "DropShadow",
                          "category" : "categoryVisualEffects",
                          "parameters" : {
                            "angle" : 5.49778714378214,
                            "blur" : 10.0,
                            "color-alpha" : 1.0,
                            "color-blue" : 0.1216,
                            "color-green" : 0.1216,
                            "color-red" : 0.1216,
                            "enabled" : 1,
                            "offset" : 10.0,
                            "opacity" : 0.4
                          }
                        }
                    ],
                    "start" : 2027,
                    "duration" : 14,
                    "mediaStart" : 1,
                    "mediaDuration" : 14,
                    "scalar" : 1,
                    "metadata" : {
                      "WinSubProjectDisplayName" : "",
                      "clipSpeedAttribute" : false,
                      "default-callout-shape" : "shape-rectangle",
                      "default-scale0" : 1.0,
                      "default-scale1" : 1.0,
                      "default-stroke-color-red" : 0.0,
                      "default-stroke-width" : 6.0,
                      "default-translation0" : 0.0,
                      "default-translation1" : 0.0
                    },
                    "animationTracks" : {

                    }
                  },
                  {
                    "id" : 465,
                    "_type" : "Callout",
                    "def" : {
                      "kind" : "remix",
                      "shape" : "shape-rectangle",
                      "style" : "basic",
                      "fill-color-blue" : 0.0,
                      "fill-color-green" : 0.0,
                      "fill-color-opacity" : 0.0,
                      "fill-color-red" : 0.0,
                      "height" : 107.000000000027,
                      "stroke-color-blue" : 0.0,
                      "stroke-color-green" : 0.0,
                      "stroke-color-opacity" : 1.0,
                      "stroke-color-red" : 1.0,
                      "stroke-width" : 15.0,
                      "width" : 1406.80208333374,
                      "fill-style" : "solid",
                      "horizontal-alignment" : "center",
                      "stroke-style" : "solid",
                      "vertical-alignment" : "center",
                      "textAttributes" : {
                        "type" : "textAttributeList",
                        "keyframes" : [
                          {
                            "endTime" : 0,
                            "time" : 0,
                            "value" : null,
                            "duration" : 0
                          }
                        ]
                      }
                    },
                    "attributes" : {
                      "autoRotateText" : true
                    },
                    "parameters" : {
                      "translation0" : -554.765625000409,
                      "translation1" : 540.000000000548
                    },
                    "effects" : [
                        {
                          "effectName" : "DropShadow",
                          "category" : "categoryVisualEffects",
                          "parameters" : {
                            "angle" : 5.49778714378214,
                            "blur" : 10.0,
                            "color-alpha" : 1.0,
                            "color-blue" : 0.1216,
                            "color-green" : 0.1216,
                            "color-red" : 0.1216,
                            "enabled" : 1,
                            "offset" : 10.0,
                            "opacity" : 0.4
                          }
                        }
                    ],
                    "start" : 2041,
                    "duration" : 4,
                    "mediaStart" : 1,
                    "mediaDuration" : 4,
                    "scalar" : 1,
                    "metadata" : {
                      "WinSubProjectDisplayName" : "",
                      "clipSpeedAttribute" : false,
                      "default-callout-shape" : "shape-rectangle",
                      "default-scale0" : 1.0,
                      "default-scale1" : 1.0,
                      "default-stroke-color-red" : 0.0,
                      "default-stroke-width" : 6.0,
                      "default-translation0" : 0.0,
                      "default-translation1" : 0.0
                    },
                    "animationTracks" : {

                    }
                  },
                  {
                    "id" : 466,
                    "_type" : "Callout",
                    "def" : {
                      "kind" : "remix",
                      "shape" : "shape-rectangle",
                      "style" : "basic",
                      "fill-color-blue" : 0.0,
                      "fill-color-green" : 0.0,
                      "fill-color-opacity" : 0.0,
                      "fill-color-red" : 0.0,
                      "height" : 107.000000000027,
                      "stroke-color-blue" : 0.0,
                      "stroke-color-green" : 0.0,
                      "stroke-color-opacity" : 1.0,
                      "stroke-color-red" : 1.0,
                      "stroke-width" : 15.0,
                      "width" : 1406.80208333374,
                      "fill-style" : "solid",
                      "horizontal-alignment" : "center",
                      "stroke-style" : "solid",
                      "vertical-alignment" : "center",
                      "textAttributes" : {
                        "type" : "textAttributeList",
                        "keyframes" : [
                          {
                            "endTime" : 0,
                            "time" : 0,
                            "value" : null,
                            "duration" : 0
                          }
                        ]
                      }
                    },
                    "attributes" : {
                      "autoRotateText" : true
                    },
                    "parameters" : {
                      "translation0" : -554.765625000409,
                      "translation1" : 614.00000000054
                    },
                    "effects" : [
                        {
                          "effectName" : "DropShadow",
                          "category" : "categoryVisualEffects",
                          "parameters" : {
                            "angle" : 5.49778714378214,
                            "blur" : 10.0,
                            "color-alpha" : 1.0,
                            "color-blue" : 0.1216,
                            "color-green" : 0.1216,
                            "color-red" : 0.1216,
                            "enabled" : 1,
                            "offset" : 10.0,
                            "opacity" : 0.4
                          }
                        }
                    ],
                    "start" : 2045,
                    "duration" : 119,
                    "mediaStart" : 1,
                    "mediaDuration" : 119,
                    "scalar" : 1,
                    "metadata" : {
                      "WinSubProjectDisplayName" : "",
                      "clipSpeedAttribute" : false,
                      "default-callout-shape" : "shape-rectangle",
                      "default-scale0" : 1.0,
                      "default-scale1" : 1.0,
                      "default-stroke-color-red" : 0.0,
                      "default-stroke-width" : 6.0,
                      "default-translation0" : 0.0,
                      "default-translation1" : 0.0
                    },
                    "animationTracks" : {

                    }
                  },
                  {
                    "id" : 467,
                    "_type" : "Callout",
                    "def" : {
                      "kind" : "remix",
                      "shape" : "shape-rectangle",
                      "style" : "basic",
                      "fill-color-blue" : 0.0,
                      "fill-color-green" : 0.0,
                      "fill-color-opacity" : 0.0,
                      "fill-color-red" : 0.0,
                      "height" : 74.9999999999369,
                      "stroke-color-blue" : 0.0,
                      "stroke-color-green" : 0.0,
                      "stroke-color-opacity" : 1.0,
                      "stroke-color-red" : 1.0,
                      "stroke-width" : 8.0,
                      "width" : 632.999994913914,
                      "fill-style" : "solid",
                      "horizontal-alignment" : "center",
                      "stroke-style" : "solid",
                      "vertical-alignment" : "center",
                      "textAttributes" : {
                        "type" : "textAttributeList",
                        "keyframes" : [
                          {
                            "endTime" : 0,
                            "time" : 0,
                            "value" : null,
                            "duration" : 0
                          }
                        ]
                      }
                    },
                    "attributes" : {
                      "autoRotateText" : true
                    },
                    "parameters" : {
                      "translation0" : -936.666669210363,
                      "translation1" : -483.666666666317
                    },
                    "effects" : [
                        {
                          "effectName" : "DropShadow",
                          "category" : "categoryVisualEffects",
                          "parameters" : {
                            "angle" : 5.49778714378214,
                            "blur" : 10.0,
                            "color-alpha" : 1.0,
                            "color-blue" : 0.1216,
                            "color-green" : 0.1216,
                            "color-red" : 0.1216,
                            "enabled" : 1,
                            "offset" : 10.0,
                            "opacity" : 0.4
                          }
                        }
                    ],
                    "start" : 2412,
                    "duration" : 57,
                    "mediaStart" : 1,
                    "mediaDuration" : 57,
                    "scalar" : 1,
                    "metadata" : {
                      "WinSubProjectDisplayName" : "",
                      "clipSpeedAttribute" : false,
                      "default-callout-shape" : "shape-rectangle",
                      "default-scale0" : 1.0,
                      "default-scale1" : 1.0,
                      "default-stroke-color-red" : 0.0,
                      "default-stroke-width" : 6.0,
                      "default-translation0" : 0.0,
                      "default-translation1" : 0.0
                    },
                    "animationTracks" : {

                    }
                  },
                  {
                    "id" : 468,
                    "_type" : "Callout",
                    "def" : {
                      "kind" : "remix",
                      "shape" : "shape-rectangle",
                      "style" : "basic",
                      "fill-color-blue" : 0.0,
                      "fill-color-green" : 0.0,
                      "fill-color-opacity" : 0.0,
                      "fill-color-red" : 0.0,
                      "height" : 149.000000000291,
                      "stroke-color-blue" : 0.0,
                      "stroke-color-green" : 0.0,
                      "stroke-color-opacity" : 1.0,
                      "stroke-color-red" : 1.0,
                      "stroke-width" : 15.0,
                      "width" : 585.635396320818,
                      "fill-style" : "solid",
                      "horizontal-alignment" : "center",
                      "stroke-style" : "solid",
                      "vertical-alignment" : "center",
                      "textAttributes" : {
                        "type" : "textAttributeList",
                        "keyframes" : [
                          {
                            "endTime" : 0,
                            "time" : 0,
                            "value" : null,
                            "duration" : 0
                          }
                        ]
                      }
                    },
                    "attributes" : {
                      "autoRotateText" : true
                    },
                    "parameters" : {
                      "translation0" : -956.68318172358,
                      "translation1" : -343.66666666655
                    },
                    "effects" : [
                        {
                          "effectName" : "DropShadow",
                          "category" : "categoryVisualEffects",
                          "parameters" : {
                            "angle" : 5.49778714378214,
                            "blur" : 10.0,
                            "color-alpha" : 1.0,
                            "color-blue" : 0.1216,
                            "color-green" : 0.1216,
                            "color-red" : 0.1216,
                            "enabled" : 1,
                            "offset" : 10.0,
                            "opacity" : 0.4
                          }
                        }
                    ],
                    "start" : 2484,
                    "duration" : 206,
                    "mediaStart" : 1,
                    "mediaDuration" : 206,
                    "scalar" : 1,
                    "metadata" : {
                      "WinSubProjectDisplayName" : "",
                      "clipSpeedAttribute" : false,
                      "default-callout-shape" : "shape-rectangle",
                      "default-stroke-color-red" : 0.0,
                      "default-stroke-width" : 6.0,
                      "default-translation0" : 0.0,
                      "default-translation1" : 0.0
                    },
                    "animationTracks" : {

                    }
                  },
                  {
                    "id" : 469,
                    "_type" : "Callout",
                    "def" : {
                      "kind" : "remix",
                      "shape" : "shape-rectangle",
                      "style" : "basic",
                      "fill-color-blue" : 0.0,
                      "fill-color-green" : 0.0,
                      "fill-color-opacity" : 0.0,
                      "fill-color-red" : 0.0,
                      "height" : 159.000000000176,
                      "stroke-color-blue" : 0.0,
                      "stroke-color-green" : 0.0,
                      "stroke-color-opacity" : 1.0,
                      "stroke-color-red" : 1.0,
                      "stroke-width" : 15.0,
                      "width" : 2345.63539632107,
                      "fill-style" : "solid",
                      "horizontal-alignment" : "center",
                      "stroke-style" : "solid",
                      "vertical-alignment" : "center",
                      "textAttributes" : {
                        "type" : "textAttributeList",
                        "keyframes" : [
                          {
                            "endTime" : 0,
                            "time" : 0,
                            "value" : null,
                            "duration" : 0
                          }
                        ]
                      }
                    },
                    "attributes" : {
                      "autoRotateText" : true
                    },
                    "parameters" : {
                      "translation0" : -78.6831817235193,
                      "translation1" : 47.3333333334581
                    },
                    "effects" : [
                        {
                          "effectName" : "DropShadow",
                          "category" : "categoryVisualEffects",
                          "parameters" : {
                            "angle" : 5.49778714378214,
                            "blur" : 10.0,
                            "color-alpha" : 1.0,
                            "color-blue" : 0.1216,
                            "color-green" : 0.1216,
                            "color-red" : 0.1216,
                            "enabled" : 1,
                            "offset" : 10.0,
                            "opacity" : 0.4
                          }
                        }
                    ],
                    "start" : 3066,
                    "duration" : 95,
                    "mediaStart" : 1,
                    "mediaDuration" : 95,
                    "scalar" : 1,
                    "metadata" : {
                      "WinSubProjectDisplayName" : "",
                      "clipSpeedAttribute" : false,
                      "default-callout-shape" : "shape-rectangle",
                      "default-stroke-color-red" : 0.0,
                      "default-stroke-width" : 6.0,
                      "default-translation0" : 0.0,
                      "default-translation1" : 0.0
                    },
                    "animationTracks" : {

                    }
                  },
                  {
                    "id" : 470,
                    "_type" : "Callout",
                    "def" : {
                      "kind" : "remix",
                      "shape" : "text-rectangle",
                      "style" : "basic",
                      "fill-color-blue" : 0.2,
                      "fill-color-green" : 0.4,
                      "fill-color-opacity" : 1.0,
                      "fill-color-red" : 0.0,
                      "height" : 146.000000000075,
                      "line-spacing" : 0.0,
                      "stroke-color-blue" : 0.890196078431372,
                      "stroke-color-green" : 0.870588235294118,
                      "stroke-color-opacity" : 1.0,
                      "stroke-color-red" : 0.847058823529412,
                      "stroke-width" : 2.0,
                      "tail-x" : -193.333333333237,
                      "tail-y" : 42.5416666665867,
                      "width" : 1114.56097561384,
                      "word-wrap" : 1.0,
                      "fill-style" : "solid",
                      "horizontal-alignment" : "center",
                      "resize-behavior" : "resizeText",
                      "stroke-style" : "solid",
                      "text" : "The OS is protected!",
                      "vertical-alignment" : "center",
                      "font" : {
                        "color-blue" : 0.266666666666667,
                        "color-green" : 0.231372549019608,
                        "color-opacity" : 1.0,
                        "color-red" : 0.184313725490196,
                        "size" : 64.0,
                        "tracking" : 0.0,
                        "name" : "Montserrat",
                        "weight" : "Regular"
                      },
                      "textAttributes" : {
                        "type" : "textAttributeList",
                        "keyframes" : [
                          {
                            "endTime" : 0,
                            "time" : 0,
                            "value" : [{"name":"fontSize","rangeEnd":20,"rangeStart":0,"value":80,"valueType":"double"},{"name":"underline","rangeEnd":20,"rangeStart":0,"value":0,"valueType":"int"},{"name":"strikethrough","rangeEnd":20,"rangeStart":0,"value":0,"valueType":"int"},{"name":"fontItalic","rangeEnd":20,"rangeStart":0,"value":0,"valueType":"int"},{"name":"fontName","rangeEnd":20,"rangeStart":0,"value":"Montserrat","valueType":"string"},{"name":"fontWeight","rangeEnd":20,"rangeStart":0,"value":400,"valueType":"int"},{"name":"fgColor","rangeEnd":20,"rangeStart":0,"value":"(255,255,255,255)","valueType":"color"}],
                            "duration" : 0
                          }
                        ]
                      }
                    },
                    "attributes" : {
                      "autoRotateText" : true
                    },
                    "parameters" : {
                      "translation0" : 4.83453277411172e-11,
                      "translation1" : -550.197916666947
                    },
                    "effects" : [
                        {
                          "effectName" : "DropShadow",
                          "category" : "categoryVisualEffects",
                          "parameters" : {
                            "angle" : 5.49778714378214,
                            "blur" : 10.0,
                            "color-alpha" : 1.0,
                            "color-blue" : 0.1216,
                            "color-green" : 0.1216,
                            "color-red" : 0.1216,
                            "enabled" : 1,
                            "offset" : 10.0,
                            "opacity" : 0.4
                          }
                        }
                    ],
                    "start" : 3238,
                    "duration" : 152,
                    "mediaStart" : -85,
                    "mediaDuration" : 152,
                    "scalar" : 1,
                    "metadata" : {
                      "WinSubProjectDisplayName" : "",
                      "clipSpeedAttribute" : false,
                      "default-HAlign" : "center",
                      "default-LineSpace" : 0.0,
                      "default-VAlign" : "center",
                      "default-fill-color-blue" : 1.0,
                      "default-fill-color-green" : 1.0,
                      "default-fill-color-red" : 1.0,
                      "default-scale0" : 1.0,
                      "default-scale1" : 1.0,
                      "default-stroke-color-blue" : 0.56078431372549,
                      "default-stroke-color-green" : 0.686274509803922,
                      "default-stroke-color-red" : 0.0196078431372549,
                      "default-text-attributes" : "[{\"name\":\"fontSize\",\"rangeEnd\":32,\"rangeStart\":0,\"value\":64,\"valueType\":\"double\"},{\"name\":\"fgColor\",\"rangeEnd\":32,\"rangeStart\":0,\"value\":\"(255,255,255,255)\",\"valueType\":\"color\"},{\"name\":\"fontWeight\",\"rangeEnd\":32,\"rangeStart\":0,\"value\":400,\"valueType\":\"int\"},{\"name\":\"fontName\",\"rangeEnd\":32,\"rangeStart\":0,\"value\":\"Montserrat\",\"valueType\":\"string\"},{\"name\":\"fontItalic\",\"rangeEnd\":32,\"rangeStart\":0,\"value\":0,\"valueType\":\"int\"},{\"name\":\"strikethrough\",\"rangeEnd\":32,\"rangeStart\":0,\"value\":0,\"valueType\":\"int\"},{\"name\":\"underline\",\"rangeEnd\":32,\"rangeStart\":0,\"value\":0,\"valueType\":\"int\"}]",
                      "default-translation0" : 0.0,
                      "default-translation1" : 0.0
                    },
                    "animationTracks" : {

                    }
                  }
                ]
              },
              {
                "trackIndex" : 5,
                "medias" : [
                  {
                    "id" : 471,
                    "_type" : "Callout",
                    "def" : {
                      "kind" : "remix",
                      "shape" : "text",
                      "style" : "basic",
                      "height" : 303.0,
                      "line-spacing" : 0.0,
                      "width" : 2120.961750001,
                      "word-wrap" : 1.0,
                      "horizontal-alignment" : "center",
                      "resize-behavior" : "resizeText",
                      "text" : "MemoryRanger prevents Token Hijacking Attack \reven from the drivers loaded before",
                      "vertical-alignment" : "center",
                      "font" : {
                        "color-blue" : 1.0,
                        "color-green" : 1.0,
                        "color-red" : 1.0,
                        "size" : 96.0,
                        "tracking" : 0.0,
                        "name" : "Montserrat",
                        "weight" : "Regular"
                      },
                      "textAttributes" : {
                        "type" : "textAttributeList",
                        "keyframes" : [
                          {
                            "endTime" : 0,
                            "time" : 0,
                            "value" : [{"name":"strikethrough","rangeEnd":81,"rangeStart":0,"value":0,"valueType":"int"},{"name":"fontWeight","rangeEnd":81,"rangeStart":0,"value":400,"valueType":"int"},{"name":"fgColor","rangeEnd":81,"rangeStart":0,"value":"(255,255,255,255)","valueType":"color"},{"name":"kerning","rangeEnd":81,"rangeStart":0,"value":0,"valueType":"double"},{"name":"underline","rangeEnd":81,"rangeStart":0,"value":0,"valueType":"int"},{"name":"fontSize","rangeEnd":81,"rangeStart":0,"value":83,"valueType":"double"},{"name":"fontName","rangeEnd":81,"rangeStart":0,"value":"Montserrat","valueType":"string"},{"name":"fontItalic","rangeEnd":81,"rangeStart":0,"value":0,"valueType":"int"}],
                            "duration" : 0
                          }
                        ]
                      }
                    },
                    "attributes" : {
                      "autoRotateText" : true
                    },
                    "parameters" : {
                      "translation0" : 36.218749999728,
                      "translation1" : -367.437500000136
                    },
                    "effects" : [
                        {
                          "effectName" : "DropShadow",
                          "category" : "categoryVisualEffects",
                          "parameters" : {
                            "angle" : 5.49778714378214,
                            "blur" : 10.0,
                            "color-alpha" : 1.0,
                            "color-blue" : 0.1216,
                            "color-green" : 0.1216,
                            "color-red" : 0.1216,
                            "enabled" : 1,
                            "offset" : 10.0,
                            "opacity" : 0.4
                          }
                        }
                    ],
                    "start" : 0,
                    "duration" : 150,
                    "mediaStart" : 0,
                    "mediaDuration" : 150,
                    "scalar" : 1,
                    "metadata" : {
                      "WinSubProjectDisplayName" : "",
                      "clipSpeedAttribute" : false,
                      "default-HAlign" : "center",
                      "default-LineSpace" : 0.0,
                      "default-VAlign" : "center",
                      "default-text-attributes" : "[{\"name\":\"strikethrough\",\"rangeEnd\":76,\"rangeStart\":0,\"value\":0,\"valueType\":\"int\"},{\"name\":\"fontItalic\",\"rangeEnd\":76,\"rangeStart\":0,\"value\":0,\"valueType\":\"int\"},{\"name\":\"fontName\",\"rangeEnd\":76,\"rangeStart\":0,\"value\":\"Montserrat\",\"valueType\":\"string\"},{\"name\":\"fgColor\",\"rangeEnd\":76,\"rangeStart\":0,\"value\":\"(255,255,255,255)\",\"valueType\":\"color\"},{\"name\":\"fontSize\",\"rangeEnd\":76,\"rangeStart\":0,\"value\":59,\"valueType\":\"double\"},{\"name\":\"underline\",\"rangeEnd\":76,\"rangeStart\":0,\"value\":0,\"valueType\":\"int\"},{\"name\":\"fontWeight\",\"rangeEnd\":76,\"rangeStart\":0,\"value\":400,\"valueType\":\"int\"}]",
                      "default-translation0" : 0.0,
                      "default-translation1" : 0.0
                    },
                    "animationTracks" : {

                    }
                  },
                  {
                    "id" : 472,
                    "_type" : "Callout",
                    "def" : {
                      "kind" : "remix",
                      "shape" : "shape-rectangle",
                      "style" : "basic",
                      "fill-color-blue" : 0.0,
                      "fill-color-green" : 0.0,
                      "fill-color-opacity" : 0.0,
                      "fill-color-red" : 0.0,
                      "height" : 110.6666666666,
                      "stroke-color-blue" : 0.0,
                      "stroke-color-green" : 0.0,
                      "stroke-color-opacity" : 1.0,
                      "stroke-color-red" : 1.0,
                      "stroke-width" : 15.0,
                      "width" : 1695.13541666657,
                      "fill-style" : "solid",
                      "horizontal-alignment" : "center",
                      "stroke-style" : "solid",
                      "vertical-alignment" : "center",
                      "textAttributes" : {
                        "type" : "textAttributeList",
                        "keyframes" : [
                          {
                            "endTime" : 0,
                            "time" : 0,
                            "value" : null,
                            "duration" : 0
                          }
                        ]
                      }
                    },
                    "attributes" : {
                      "autoRotateText" : true
                    },
                    "parameters" : {
                      "translation0" : -434.432281494219,
                      "translation1" : 253.833333333386
                    },
                    "effects" : [
                        {
                          "effectName" : "DropShadow",
                          "category" : "categoryVisualEffects",
                          "parameters" : {
                            "angle" : 5.49778714378214,
                            "blur" : 10.0,
                            "color-alpha" : 1.0,
                            "color-blue" : 0.1216,
                            "color-green" : 0.1216,
                            "color-red" : 0.1216,
                            "enabled" : 1,
                            "offset" : 10.0,
                            "opacity" : 0.4
                          }
                        }
                    ],
                    "start" : 1541,
                    "duration" : 83,
                    "mediaStart" : -10,
                    "mediaDuration" : 83,
                    "scalar" : 1,
                    "metadata" : {
                      "WinSubProjectDisplayName" : "",
                      "clipSpeedAttribute" : false,
                      "default-callout-shape" : "shape-rectangle",
                      "default-stroke-color-red" : 0.0,
                      "default-stroke-width" : 6.0,
                      "default-translation0" : 0.0,
                      "default-translation1" : 0.0
                    },
                    "animationTracks" : {

                    }
                  },
                  {
                    "id" : 473,
                    "_type" : "IMFile",
                    "src" : 6,
                    "trackNumber" : 0,
                    "trimStartSum" : -5,
                    "attributes" : {
                      "ident" : "256"
                    },
                    "parameters" : {
                      "translation0" : 1095.78598304901,
                      "translation1" : -329.069767441605,
                      "scale0" : 1.22710755814231,
                      "scale1" : 1.22710755814231
                    },
                    "effects" : [

                    ],
                    "start" : 1894,
                    "duration" : 277,
                    "mediaStart" : 0,
                    "mediaDuration" : 1,
                    "scalar" : 1,
                    "metadata" : {
                      "clipSpeedAttribute" : false,
                      "default-scale0" : 1.0,
                      "default-scale1" : 1.0,
                      "default-translation0" : 0.0,
                      "default-translation1" : 0.0
                    },
                    "animationTracks" : {

                    }
                  },
                  {
                    "id" : 474,
                    "_type" : "AMFile",
                    "src" : 2,
                    "trackNumber" : 0,
                    "attributes" : {
                      "ident" : "Henry Jackman, Matthew Margeson - Rescuing Harry",
                      "gain" : 1.0,
                      "mixToMono" : false
                    },
                      "channelNumber" : "0,1",
                    "parameters" : {
                      "volume" : {
                        "type" : "double",
                        "keyframes" : [
                          {
                            "endTime" : 0,
                            "time" : 0,
                            "value" : 1.0,
                            "duration" : 0
                          },
                          {
                            "endTime" : 1653,
                            "time" : 1653,
                            "value" : 1.0,
                            "duration" : 0
                          },
                          {
                            "endTime" : 1654,
                            "time" : 1654,
                            "value" : 0.0,
                            "duration" : 0
                          },
                          {
                            "endTime" : 1669,
                            "time" : 1669,
                            "value" : 1.0,
                            "duration" : 0
                          },
                          {
                            "endTime" : 1708,
                            "time" : 1708,
                            "value" : 1.0,
                            "duration" : 0
                          },
                          {
                            "endTime" : 1723,
                            "time" : 1723,
                            "value" : 0.0,
                            "duration" : 0
                          },
                          {
                            "endTime" : 1724,
                            "time" : 1724,
                            "value" : 1.0,
                            "duration" : 0
                          }
                        ]
                      }
                    },
                    "effects" : [

                    ],
                    "start" : 2484,
                    "duration" : 69,
                    "mediaStart" : 1654,
                    "mediaDuration" : 69,
                    "scalar" : 1,
                    "metadata" : {
                      "clipSpeedAttribute" : false
                    },
                    "animationTracks" : {

                    }
                  },
                  {
                    "id" : 475,
                    "_type" : "Callout",
                    "def" : {
                      "kind" : "remix",
                      "shape" : "shape-rectangle",
                      "style" : "basic",
                      "fill-color-blue" : 0.0,
                      "fill-color-green" : 0.0,
                      "fill-color-opacity" : 0.0,
                      "fill-color-red" : 0.0,
                      "height" : 159.000000000176,
                      "stroke-color-blue" : 0.0,
                      "stroke-color-green" : 0.0,
                      "stroke-color-opacity" : 1.0,
                      "stroke-color-red" : 1.0,
                      "stroke-width" : 15.0,
                      "width" : 2345.63539632107,
                      "fill-style" : "solid",
                      "horizontal-alignment" : "center",
                      "stroke-style" : "solid",
                      "vertical-alignment" : "center",
                      "textAttributes" : {
                        "type" : "textAttributeList",
                        "keyframes" : [
                          {
                            "endTime" : 0,
                            "time" : 0,
                            "value" : null,
                            "duration" : 0
                          }
                        ]
                      }
                    },
                    "attributes" : {
                      "autoRotateText" : true
                    },
                    "parameters" : {
                      "translation0" : -78.6831817235193,
                      "translation1" : 625.333333333459
                    },
                    "effects" : [
                        {
                          "effectName" : "DropShadow",
                          "category" : "categoryVisualEffects",
                          "parameters" : {
                            "angle" : 5.49778714378214,
                            "blur" : 10.0,
                            "color-alpha" : 1.0,
                            "color-blue" : 0.1216,
                            "color-green" : 0.1216,
                            "color-red" : 0.1216,
                            "enabled" : 1,
                            "offset" : 10.0,
                            "opacity" : 0.4
                          }
                        }
                    ],
                    "start" : 3066,
                    "duration" : 95,
                    "mediaStart" : 1,
                    "mediaDuration" : 95,
                    "scalar" : 1,
                    "metadata" : {
                      "WinSubProjectDisplayName" : "",
                      "clipSpeedAttribute" : false,
                      "default-callout-shape" : "shape-rectangle",
                      "default-stroke-color-red" : 0.0,
                      "default-stroke-width" : 6.0,
                      "default-translation0" : 0.0,
                      "default-translation1" : 0.0
                    },
                    "animationTracks" : {

                    }
                  },
                  {
                    "id" : 476,
                    "_type" : "AMFile",
                    "src" : 2,
                    "trackNumber" : 0,
                    "attributes" : {
                      "ident" : "Henry Jackman, Matthew Margeson - Rescuing Harry",
                      "gain" : 1.0,
                      "mixToMono" : false
                    },
                      "channelNumber" : "0,1",
                    "parameters" : {
                      "volume" : {
                        "type" : "double",
                        "keyframes" : [
                          {
                            "endTime" : 0,
                            "time" : 0,
                            "value" : 1.0,
                            "duration" : 0
                          },
                          {
                            "endTime" : 1650,
                            "time" : 1650,
                            "value" : 1.0,
                            "duration" : 0
                          },
                          {
                            "endTime" : 1651,
                            "time" : 1651,
                            "value" : 0.0,
                            "duration" : 0
                          },
                          {
                            "endTime" : 1704,
                            "time" : 1704,
                            "value" : 1.0,
                            "duration" : 0
                          },
                          {
                            "endTime" : 1796,
                            "time" : 1796,
                            "value" : 1.0,
                            "duration" : 0
                          },
                          {
                            "endTime" : 1881,
                            "time" : 1881,
                            "value" : 0.986236131714502,
                            "duration" : 0
                          },
                          {
                            "endTime" : 1914,
                            "time" : 1914,
                            "value" : 0.283227475888031,
                            "duration" : 0
                          }
                        ]
                      }
                    },
                    "effects" : [

                    ],
                    "start" : 3272,
                    "duration" : 268,
                    "mediaStart" : 1651,
                    "mediaDuration" : 268,
                    "scalar" : 1,
                    "metadata" : {
                      "clipSpeedAttribute" : false
                    },
                    "animationTracks" : {

                    }
                  }
                ]
              },
              {
                "trackIndex" : 6,
                "medias" : [
                  {
                    "id" : 477,
                    "_type" : "IMFile",
                    "src" : 7,
                    "trackNumber" : 0,
                    "trimStartSum" : 14,
                    "attributes" : {
                      "ident" : "memoryranger_without_gun_transparent_cropped"
                    },
                    "parameters" : {
                      "translation0" : 3.7005065678386e-11,
                      "translation1" : -238.598958333489,
                      "scale0" : 0.752678101998478,
                      "scale1" : 0.752678101998478
                    },
                    "effects" : [

                    ],
                    "start" : 3225,
                    "duration" : 165,
                    "mediaStart" : 0,
                    "mediaDuration" : 1,
                    "scalar" : 1,
                    "metadata" : {
                      "clipSpeedAttribute" : false,
                      "default-scale0" : 1.0,
                      "default-scale1" : 1.0,
                      "default-translation0" : 0.0,
                      "default-translation1" : 0.0
                    },
                    "animationTracks" : {

                    }
                  }
                ]
              },
              {
                "trackIndex" : 7,
                "medias" : [
                  {
                    "id" : 478,
                    "_type" : "IMFile",
                    "src" : 7,
                    "trackNumber" : 0,
                    "trimStartSum" : 24,
                    "attributes" : {
                      "ident" : "memoryranger_without_gun_transparent_cropped"
                    },
                    "parameters" : {
                      "translation0" : 6.98818780620059e-12,
                      "translation1" : -483.921904867258,
                      "scale0" : 0.398789006964985,
                      "scale1" : 0.398789006964984
                    },
                    "effects" : [

                    ],
                    "start" : 3417,
                    "duration" : 123,
                    "mediaStart" : 0,
                    "mediaDuration" : 1,
                    "scalar" : 1,
                    "metadata" : {
                      "clipSpeedAttribute" : false,
                      "default-scale0" : 1.0,
                      "default-scale1" : 1.0,
                      "default-translation0" : 0.0,
                      "default-translation1" : 0.0
                    },
                    "animationTracks" : {

                    }
                  }
                ]
              },
              {
                "trackIndex" : 8,
                "medias" : [
                  {
                    "id" : 479,
                    "_type" : "IMFile",
                    "src" : 6,
                    "trackNumber" : 0,
                    "trimStartSum" : 24,
                    "attributes" : {
                      "ident" : "256"
                    },
                    "parameters" : {
                      "translation0" : 453.851044559315,
                      "translation1" : -483.138138305986,
                      "scale0" : 0.993749076319115,
                      "scale1" : 0.993749076319115
                    },
                    "effects" : [

                    ],
                    "start" : 3417,
                    "duration" : 123,
                    "mediaStart" : 0,
                    "mediaDuration" : 1,
                    "scalar" : 1,
                    "metadata" : {
                      "clipSpeedAttribute" : false,
                      "default-scale0" : 1.0,
                      "default-scale1" : 1.0,
                      "default-translation0" : 0.0,
                      "default-translation1" : 0.0
                    },
                    "animationTracks" : {

                    }
                  }
                ]
              },
              {
                "trackIndex" : 9,
                "medias" : [
                  {
                    "id" : 480,
                    "_type" : "IMFile",
                    "src" : 10,
                    "trackNumber" : 0,
                    "trimStartSum" : 24,
                    "attributes" : {
                      "ident" : "rsz_znayka_68045037_orig_2"
                    },
                    "parameters" : {
                      "translation0" : -474.109719477941,
                      "translation1" : -457.386115838394,
                      "scale0" : 1.98910223513623,
                      "scale1" : 1.98910223513623
                    },
                    "effects" : [

                    ],
                    "start" : 3417,
                    "duration" : 123,
                    "mediaStart" : 0,
                    "mediaDuration" : 1,
                    "scalar" : 1,
                    "metadata" : {
                      "clipSpeedAttribute" : false,
                      "default-scale0" : 1.0,
                      "default-scale1" : 1.0,
                      "default-translation0" : -0.5,
                      "default-translation1" : 0.0
                    },
                    "animationTracks" : {

                    }
                  }
                ]
              },
              {
                "trackIndex" : 10,
                "medias" : [
                  {
                    "id" : 481,
                    "_type" : "IMFile",
                    "src" : 9,
                    "trackNumber" : 0,
                    "trimStartSum" : 24,
                    "attributes" : {
                      "ident" : "SeekPng.com_beaker-png_909154 - Copy"
                    },
                    "parameters" : {
                      "translation0" : -658.330668605481,
                      "translation1" : -457.386115838265,
                      "rotation2" : 0.0872664625997165,
                      "scale0" : 0.298257227261503,
                      "scale1" : 0.298257227261503
                    },
                    "effects" : [

                    ],
                    "start" : 3417,
                    "duration" : 123,
                    "mediaStart" : 0,
                    "mediaDuration" : 1,
                    "scalar" : 1,
                    "metadata" : {
                      "clipSpeedAttribute" : false,
                      "default-rotation0" : 0.0,
                      "default-rotation2" : 0.0,
                      "default-scale0" : 1.0,
                      "default-scale1" : 1.0,
                      "default-translation0" : 0.0,
                      "default-translation1" : 0.0
                    },
                    "animationTracks" : {

                    }
                  }
                ]
              },
              {
                "trackIndex" : 11,
                "medias" : [
                ]
              },
              {
                "trackIndex" : 12,
                "medias" : [
                ]
              },
              {
                "trackIndex" : 13,
                "medias" : [
                ]
              },
              {
                "trackIndex" : 14,
                "medias" : [
                ]
              }
            ]
          }
        }
      ]
    },
    "trackAttributes" : [
      {
        "ident" : "",
        "audioMuted" : false,
        "videoHidden" : false,
        "magnetic" : false,
        "matte" : 0,
        "metadata" : {
          "IsLocked" : "False",
          "WinTrackHeight" : "56"
        }
      },
      {
        "ident" : "",
        "audioMuted" : true,
        "videoHidden" : true,
        "magnetic" : false,
        "matte" : 0,
        "metadata" : {
          "IsLocked" : "False",
          "WinTrackHeight" : "56"
        }
      },
      {
        "ident" : "",
        "audioMuted" : false,
        "videoHidden" : false,
        "magnetic" : false,
        "matte" : 0,
        "metadata" : {
          "IsLocked" : "False",
          "WinTrackHeight" : "56"
        }
      },
      {
        "ident" : "",
        "audioMuted" : false,
        "videoHidden" : false,
        "magnetic" : false,
        "matte" : 0,
        "metadata" : {
          "IsLocked" : "False",
          "WinTrackHeight" : "56"
        }
      },
      {
        "ident" : "",
        "audioMuted" : false,
        "videoHidden" : false,
        "magnetic" : false,
        "matte" : 0,
        "metadata" : {
          "IsLocked" : "False",
          "WinTrackHeight" : "56"
        }
      },
      {
        "ident" : "",
        "audioMuted" : false,
        "videoHidden" : false,
        "magnetic" : false,
        "matte" : 0,
        "metadata" : {
          "IsLocked" : "False",
          "WinTrackHeight" : "56"
        }
      },
      {
        "ident" : "",
        "audioMuted" : false,
        "videoHidden" : false,
        "magnetic" : false,
        "matte" : 0,
        "metadata" : {
          "IsLocked" : "False",
          "WinTrackHeight" : "56"
        }
      },
      {
        "ident" : "",
        "audioMuted" : false,
        "videoHidden" : false,
        "magnetic" : false,
        "matte" : 0,
        "metadata" : {
          "IsLocked" : "False",
          "WinTrackHeight" : "56"
        }
      },
      {
        "ident" : "",
        "audioMuted" : false,
        "videoHidden" : false,
        "magnetic" : false,
        "matte" : 0,
        "metadata" : {
          "IsLocked" : "False",
          "WinTrackHeight" : "56"
        }
      },
      {
        "ident" : "",
        "audioMuted" : false,
        "videoHidden" : false,
        "magnetic" : false,
        "matte" : 0,
        "metadata" : {
          "IsLocked" : "False",
          "WinTrackHeight" : "56"
        }
      },
      {
        "ident" : "",
        "audioMuted" : false,
        "videoHidden" : false,
        "magnetic" : false,
        "matte" : 0,
        "metadata" : {
          "IsLocked" : "False",
          "WinTrackHeight" : "56"
        }
      },
      {
        "ident" : "",
        "audioMuted" : false,
        "videoHidden" : false,
        "magnetic" : false,
        "matte" : 0,
        "metadata" : {
          "IsLocked" : "False",
          "WinTrackHeight" : "56"
        }
      },
      {
        "ident" : "",
        "audioMuted" : false,
        "videoHidden" : false,
        "magnetic" : false,
        "matte" : 0,
        "metadata" : {
          "IsLocked" : "False",
          "WinTrackHeight" : "56"
        }
      },
      {
        "ident" : "",
        "audioMuted" : false,
        "videoHidden" : false,
        "magnetic" : false,
        "matte" : 0,
        "metadata" : {
          "IsLocked" : "False",
          "WinTrackHeight" : "56"
        }
      },
      {
        "ident" : "",
        "audioMuted" : false,
        "videoHidden" : false,
        "magnetic" : false,
        "matte" : 0,
        "metadata" : {
          "IsLocked" : "False",
          "WinTrackHeight" : "56"
        }
      }
    ],
    "captionAttributes" : {
      "enabled" : true,
      "fontName" : "Arial",
      "fontSize" : 64,
      "backgroundColor" : [ 0, 0, 0, 191],
      "foregroundColor" : [ 255, 255, 255, 255],
      "lang" : "en",
      "alignment" : 0,
      "defaultFontSize" : true,
      "opacity" : 0.5,
      "backgroundEnabled" : true,
      "backgroundOnlyAroundText" : true
    },
    "backgroundColor" : [ 0, 0, 0, 255]
  },
  "metadata" : {
    "AutoSaveFile" : "",
    "CanvasZoom" : 47,
    "Date" : "2019-10-14 10:16:36 AM",
    "Fit" : 1,
    "IsAutoSave" : "0",
    "Language" : "ENU",
    "ProfileName" : "",
    "ProjectDimensionsChanged" : "1",
    "Title" : "6. PREVENTION OF TOKEN HIJACKING ATTACK",
    "audioNarrationNotes" : "",
    "calloutStyle" : "Basic",
    "canvasDetached" : "False",
    "canvasPositionHeight" : "0",
    "canvasPositionLeft" : "0",
    "canvasPositionTop" : "0",
    "canvasPositionWidth" : "0"
  }
}
